solid OpenSCAD_Model
  facet normal 1 -0 0
    outer loop
      vertex 25 -51.9468 22.4786
      vertex 25 -50.12 0
      vertex 25 -50.12 22.5729
    endloop
  endfacet
  facet normal 1 -0 0
    outer loop
      vertex 25 -56.4123 22.1494
      vertex 25 -50.12 0
      vertex 25 -51.9468 22.4786
    endloop
  endfacet
  facet normal 1 0 0
    outer loop
      vertex 25 -57.28 0
      vertex 25 -56.4123 22.1494
      vertex 25 -57.28 22.0855
    endloop
  endfacet
  facet normal 1 0 0
    outer loop
      vertex 25 -56.4123 22.1494
      vertex 25 -57.28 0
      vertex 25 -50.12 0
    endloop
  endfacet
  facet normal 0 0 -1
    outer loop
      vertex 0.314559 -54.2755 0
      vertex 25 -50.12 0
      vertex 25 -57.28 0
    endloop
  endfacet
  facet normal -0 0 -1
    outer loop
      vertex 25 -50.12 0
      vertex 0.314559 -54.2755 0
      vertex 0.357217 -50.12 0
    endloop
  endfacet
  facet normal 0 -0 -1
    outer loop
      vertex 0.314559 -54.2755 0
      vertex 25 -57.28 0
      vertex 0.239556 -57.28 0
    endloop
  endfacet
  facet normal 0 1 0
    outer loop
      vertex 23.6169 -50.12 22.7011
      vertex 19.815 -50.12 22.4921
      vertex 22.9936 -50.12 22.7589
    endloop
  endfacet
  facet normal 0 1 -0
    outer loop
      vertex 25 -50.12 0
      vertex 23.6169 -50.12 22.7011
      vertex 25 -50.12 22.5729
    endloop
  endfacet
  facet normal 0 1 0
    outer loop
      vertex 23.6169 -50.12 22.7011
      vertex 25 -50.12 0
      vertex 19.815 -50.12 22.4921
    endloop
  endfacet
  facet normal -0 1 0
    outer loop
      vertex 16.0983 -50.12 21.6377
      vertex 19.815 -50.12 22.4921
      vertex 25 -50.12 0
    endloop
  endfacet
  facet normal 0 1 0
    outer loop
      vertex 19.815 -50.12 22.4921
      vertex 16.0983 -50.12 21.6377
      vertex 19.077 -50.12 22.4301
    endloop
  endfacet
  facet normal -0 1 0
    outer loop
      vertex 12.5709 -50.12 20.1586
      vertex 16.0983 -50.12 21.6377
      vertex 25 -50.12 0
    endloop
  endfacet
  facet normal 0 1 0
    outer loop
      vertex 16.0983 -50.12 21.6377
      vertex 12.5709 -50.12 20.1586
      vertex 15.2737 -50.12 21.4183
    endloop
  endfacet
  facet normal -0 1 0
    outer loop
      vertex 9.33364 -50.12 18.0922
      vertex 12.5709 -50.12 20.1586
      vertex 25 -50.12 0
    endloop
  endfacet
  facet normal 0 1 0
    outer loop
      vertex 12.5709 -50.12 20.1586
      vertex 9.33364 -50.12 18.0922
      vertex 11.7001 -50.12 19.7528
    endloop
  endfacet
  facet normal -0 1 0
    outer loop
      vertex 6.48132 -50.12 15.4915
      vertex 9.33364 -50.12 18.0922
      vertex 25 -50.12 0
    endloop
  endfacet
  facet normal 0 1 0
    outer loop
      vertex 9.33364 -50.12 18.0922
      vertex 6.48132 -50.12 15.4915
      vertex 8.46591 -50.12 17.4833
    endloop
  endfacet
  facet normal -0 1 0
    outer loop
      vertex 4.10044 -50.12 12.4253
      vertex 6.48132 -50.12 15.4915
      vertex 25 -50.12 0
    endloop
  endfacet
  facet normal 0 1 0
    outer loop
      vertex 6.48132 -50.12 15.4915
      vertex 4.10044 -50.12 12.4253
      vertex 5.67085 -50.12 14.6781
    endloop
  endfacet
  facet normal -0 1 0
    outer loop
      vertex 2.26666 -50.12 8.97696
      vertex 4.10044 -50.12 12.4253
      vertex 25 -50.12 0
    endloop
  endfacet
  facet normal 0 1 0
    outer loop
      vertex 4.10044 -50.12 12.4253
      vertex 2.26666 -50.12 8.97696
      vertex 3.40139 -50.12 11.4225
    endloop
  endfacet
  facet normal -0 1 0
    outer loop
      vertex 1.04216 -50.12 5.24303
      vertex 2.26666 -50.12 8.97696
      vertex 25 -50.12 0
    endloop
  endfacet
  facet normal 0 1 0
    outer loop
      vertex 2.26666 -50.12 8.97696
      vertex 1.04216 -50.12 5.24303
      vertex 1.72797 -50.12 7.81598
    endloop
  endfacet
  facet normal -0 1 0
    outer loop
      vertex 0.473074 -50.12 1.33142
      vertex 1.04216 -50.12 5.24303
      vertex 25 -50.12 0
    endloop
  endfacet
  facet normal 0 1 0
    outer loop
      vertex 1.04216 -50.12 5.24303
      vertex 0.473074 -50.12 1.33142
      vertex 0.702595 -50.12 3.96906
    endloop
  endfacet
  facet normal 0 1 0
    outer loop
      vertex 0.473074 -50.12 1.33142
      vertex 25 -50.12 0
      vertex 0.357217 -50.12 0
    endloop
  endfacet
  facet normal 0 -1 0
    outer loop
      vertex 20.9427 -57.28 22.2086
      vertex 24.6635 -57.28 22.1174
      vertex 22.4187 -57.28 22.3302
    endloop
  endfacet
  facet normal 0 -1 0
    outer loop
      vertex 25 -57.28 0
      vertex 24.6635 -57.28 22.1174
      vertex 20.9427 -57.28 22.2086
    endloop
  endfacet
  facet normal 0 -1 0
    outer loop
      vertex 17.2548 -57.28 21.6614
      vertex 20.9427 -57.28 22.2086
      vertex 18.5869 -57.28 22.0144
    endloop
  endfacet
  facet normal 0 -1 -0
    outer loop
      vertex 20.9427 -57.28 22.2086
      vertex 17.2548 -57.28 21.6614
      vertex 25 -57.28 0
    endloop
  endfacet
  facet normal 0 -1 0
    outer loop
      vertex 13.7036 -57.28 20.4875
      vertex 17.2548 -57.28 21.6614
      vertex 14.8637 -57.28 21.0276
    endloop
  endfacet
  facet normal 0 -1 -0
    outer loop
      vertex 17.2548 -57.28 21.6614
      vertex 13.7036 -57.28 20.4875
      vertex 25 -57.28 0
    endloop
  endfacet
  facet normal 0 -1 0
    outer loop
      vertex 10.3906 -57.28 18.7154
      vertex 13.7036 -57.28 20.4875
      vertex 11.3632 -57.28 19.398
    endloop
  endfacet
  facet normal 0 -1 -0
    outer loop
      vertex 13.7036 -57.28 20.4875
      vertex 10.3906 -57.28 18.7154
      vertex 25 -57.28 0
    endloop
  endfacet
  facet normal 0 -1 0
    outer loop
      vertex 7.41289 -57.28 16.3896
      vertex 10.3906 -57.28 18.7154
      vertex 8.19355 -57.28 17.1736
    endloop
  endfacet
  facet normal 0 -1 -0
    outer loop
      vertex 10.3906 -57.28 18.7154
      vertex 7.41289 -57.28 16.3896
      vertex 25 -57.28 0
    endloop
  endfacet
  facet normal 0 -1 0
    outer loop
      vertex 4.86076 -57.28 13.5709
      vertex 7.41289 -57.28 16.3896
      vertex 5.45296 -57.28 14.4213
    endloop
  endfacet
  facet normal 0 -1 -0
    outer loop
      vertex 7.41289 -57.28 16.3896
      vertex 4.86076 -57.28 13.5709
      vertex 25 -57.28 0
    endloop
  endfacet
  facet normal 0 -1 0
    outer loop
      vertex 2.81478 -57.28 10.3355
      vertex 4.86076 -57.28 13.5709
      vertex 3.22685 -57.28 11.2247
    endloop
  endfacet
  facet normal 0 -1 -0
    outer loop
      vertex 4.86076 -57.28 13.5709
      vertex 2.81478 -57.28 10.3355
      vertex 25 -57.28 0
    endloop
  endfacet
  facet normal 0 -1 0
    outer loop
      vertex 1.34321 -57.28 6.77377
      vertex 2.81478 -57.28 10.3355
      vertex 1.58487 -57.28 7.6816
    endloop
  endfacet
  facet normal 0 -1 -0
    outer loop
      vertex 2.81478 -57.28 10.3355
      vertex 1.34321 -57.28 6.77377
      vertex 25 -57.28 0
    endloop
  endfacet
  facet normal 0 -1 0
    outer loop
      vertex 0.499243 -57.28 2.98846
      vertex 1.34321 -57.28 6.77377
      vertex 0.578552 -57.28 3.90114
    endloop
  endfacet
  facet normal 0 -1 -0
    outer loop
      vertex 1.34321 -57.28 6.77377
      vertex 0.499243 -57.28 2.98846
      vertex 25 -57.28 0
    endloop
  endfacet
  facet normal 0 -1 0
    outer loop
      vertex 0.239556 -57.28 0
      vertex 0.499243 -57.28 2.98846
      vertex 0.239556 -57.28 2.27676e-07
    endloop
  endfacet
  facet normal 0 -1 -0
    outer loop
      vertex 0.499243 -57.28 2.98846
      vertex 0.239556 -57.28 0
      vertex 25 -57.28 0
    endloop
  endfacet
  facet normal 0 -1 0
    outer loop
      vertex 24.6635 -57.28 22.1174
      vertex 25 -57.28 0
      vertex 25 -57.28 22.0855
    endloop
  endfacet
  facet normal 0.092173 -0.0513322 0.994419
    outer loop
      vertex 23.6169 -50.12 22.7011
      vertex 25 -51.9468 22.4786
      vertex 25 -50.12 22.5729
    endloop
  endfacet
  facet normal 0.0922471 -0.0512757 0.994415
    outer loop
      vertex 25 -51.9468 22.4786
      vertex 23.6169 -50.12 22.7011
      vertex 22.8794 -52.1469 22.665
    endloop
  endfacet
  facet normal 0.0922147 -0.0512639 0.994419
    outer loop
      vertex 23.6169 -50.12 22.7011
      vertex 22.9936 -50.12 22.7589
      vertex 22.8794 -52.1469 22.665
    endloop
  endfacet
  facet normal 0.0941237 -0.073118 0.992872
    outer loop
      vertex 25 -57.28 22.0855
      vertex 25 -56.4123 22.1494
      vertex 24.6635 -57.28 22.1174
    endloop
  endfacet
  facet normal 0.0941788 -0.0731945 0.992861
    outer loop
      vertex 22.8794 -52.1469 22.665
      vertex 25 -56.4123 22.1494
      vertex 25 -51.9468 22.4786
    endloop
  endfacet
  facet normal 0.0941512 -0.0732084 0.992863
    outer loop
      vertex 22.4187 -57.28 22.3302
      vertex 25 -56.4123 22.1494
      vertex 22.8794 -52.1469 22.665
    endloop
  endfacet
  facet normal 0.0941212 -0.0731171 0.992872
    outer loop
      vertex 25 -56.4123 22.1494
      vertex 22.4187 -57.28 22.3302
      vertex 24.6635 -57.28 22.1174
    endloop
  endfacet
  facet normal -0.0835704 -0.0414164 0.995641
    outer loop
      vertex 19.815 -50.12 22.4921
      vertex 22.8794 -52.1469 22.665
      vertex 22.9936 -50.12 22.7589
    endloop
  endfacet
  facet normal -0.0835769 -0.0414263 0.99564
    outer loop
      vertex 22.8794 -52.1469 22.665
      vertex 19.815 -50.12 22.4921
      vertex 18.961 -52.5165 22.3207
    endloop
  endfacet
  facet normal -0.0836442 -0.041402 0.995635
    outer loop
      vertex 19.815 -50.12 22.4921
      vertex 19.077 -50.12 22.4301
      vertex 18.961 -52.5165 22.3207
    endloop
  endfacet
  facet normal -0.0819706 -0.0575389 0.994972
    outer loop
      vertex 22.4187 -57.28 22.3302
      vertex 22.8794 -52.1469 22.665
      vertex 20.9427 -57.28 22.2086
    endloop
  endfacet
  facet normal -0.0819993 -0.0575279 0.994971
    outer loop
      vertex 18.961 -52.5165 22.3207
      vertex 20.9427 -57.28 22.2086
      vertex 22.8794 -52.1469 22.665
    endloop
  endfacet
  facet normal -0.0820201 -0.0575365 0.994968
    outer loop
      vertex 20.9427 -57.28 22.2086
      vertex 18.961 -52.5165 22.3207
      vertex 18.5869 -57.28 22.0144
    endloop
  endfacet
  facet normal -0.256952 -0.031656 0.965906
    outer loop
      vertex 16.0983 -50.12 21.6377
      vertex 18.961 -52.5165 22.3207
      vertex 19.077 -50.12 22.4301
    endloop
  endfacet
  facet normal -0.256991 -0.0317055 0.965894
    outer loop
      vertex 18.961 -52.5165 22.3207
      vertex 16.0983 -50.12 21.6377
      vertex 15.1618 -52.8749 21.2981
    endloop
  endfacet
  facet normal -0.256994 -0.0317045 0.965893
    outer loop
      vertex 16.0983 -50.12 21.6377
      vertex 15.2737 -50.12 21.4183
      vertex 15.1618 -52.8749 21.2981
    endloop
  endfacet
  facet normal -0.255928 -0.042002 0.965783
    outer loop
      vertex 18.5869 -57.28 22.0144
      vertex 18.961 -52.5165 22.3207
      vertex 17.2548 -57.28 21.6614
    endloop
  endfacet
  facet normal -0.255988 -0.0419784 0.965768
    outer loop
      vertex 15.1618 -52.8749 21.2981
      vertex 17.2548 -57.28 21.6614
      vertex 18.961 -52.5165 22.3207
    endloop
  endfacet
  facet normal -0.255992 -0.0419806 0.965767
    outer loop
      vertex 17.2548 -57.28 21.6614
      vertex 15.1618 -52.8749 21.2981
      vertex 14.8637 -57.28 21.0276
    endloop
  endfacet
  facet normal -0.422337 -0.0223824 0.906162
    outer loop
      vertex 12.5709 -50.12 20.1586
      vertex 15.1618 -52.8749 21.2981
      vertex 15.2737 -50.12 21.4183
    endloop
  endfacet
  facet normal -0.422307 -0.0223474 0.906178
    outer loop
      vertex 15.1618 -52.8749 21.2981
      vertex 12.5709 -50.12 20.1586
      vertex 11.597 -53.2112 19.6285
    endloop
  endfacet
  facet normal -0.42229 -0.022354 0.906185
    outer loop
      vertex 12.5709 -50.12 20.1586
      vertex 11.7001 -50.12 19.7528
      vertex 11.597 -53.2112 19.6285
    endloop
  endfacet
  facet normal -0.421909 -0.027097 0.906233
    outer loop
      vertex 14.8637 -57.28 21.0276
      vertex 15.1618 -52.8749 21.2981
      vertex 13.7036 -57.28 20.4875
    endloop
  endfacet
  facet normal -0.421888 -0.0271056 0.906243
    outer loop
      vertex 11.597 -53.2112 19.6285
      vertex 13.7036 -57.28 20.4875
      vertex 15.1618 -52.8749 21.2981
    endloop
  endfacet
  facet normal -0.421876 -0.0270979 0.906249
    outer loop
      vertex 13.7036 -57.28 20.4875
      vertex 11.597 -53.2112 19.6285
      vertex 11.3632 -57.28 19.398
    endloop
  endfacet
  facet normal -0.574354 -0.013756 0.818491
    outer loop
      vertex 9.33364 -50.12 18.0922
      vertex 11.597 -53.2112 19.6285
      vertex 11.7001 -50.12 19.7528
    endloop
  endfacet
  facet normal -0.57436 -0.0137617 0.818487
    outer loop
      vertex 11.597 -53.2112 19.6285
      vertex 9.33364 -50.12 18.0922
      vertex 8.37499 -53.5151 17.3624
    endloop
  endfacet
  facet normal -0.57435 -0.0137657 0.818494
    outer loop
      vertex 9.33364 -50.12 18.0922
      vertex 8.46591 -50.12 17.4833
      vertex 8.37499 -53.5151 17.3624
    endloop
  endfacet
  facet normal -0.574416 -0.013359 0.818454
    outer loop
      vertex 11.3632 -57.28 19.398
      vertex 11.597 -53.2112 19.6285
      vertex 10.3906 -57.28 18.7154
    endloop
  endfacet
  facet normal -0.574387 -0.0133721 0.818475
    outer loop
      vertex 8.37499 -53.5151 17.3624
      vertex 10.3906 -57.28 18.7154
      vertex 11.597 -53.2112 19.6285
    endloop
  endfacet
  facet normal -0.574377 -0.0133641 0.818482
    outer loop
      vertex 10.3906 -57.28 18.7154
      vertex 8.37499 -53.5151 17.3624
      vertex 8.19355 -57.28 17.1736
    endloop
  endfacet
  facet normal -0.708374 -0.0061639 0.70581
    outer loop
      vertex 6.48132 -50.12 15.4915
      vertex 8.37499 -53.5151 17.3624
      vertex 8.46591 -50.12 17.4833
    endloop
  endfacet
  facet normal -0.708368 -0.00615645 0.705817
    outer loop
      vertex 8.37499 -53.5151 17.3624
      vertex 6.48132 -50.12 15.4915
      vertex 5.59373 -53.7775 14.5688
    endloop
  endfacet
  facet normal -0.708368 -0.00615622 0.705816
    outer loop
      vertex 6.48132 -50.12 15.4915
      vertex 5.67085 -50.12 14.6781
      vertex 5.59373 -53.7775 14.5688
    endloop
  endfacet
  facet normal -0.708614 -0.00123388 0.705595
    outer loop
      vertex 8.19355 -57.28 17.1736
      vertex 8.37499 -53.5151 17.3624
      vertex 7.41289 -57.28 16.3896
    endloop
  endfacet
  facet normal -0.708611 -0.00123469 0.705598
    outer loop
      vertex 7.41289 -57.28 16.3896
      vertex 5.59373 -53.7775 14.5688
      vertex 5.45296 -57.28 14.4213
    endloop
  endfacet
  facet normal -0.708612 -0.0012351 0.705598
    outer loop
      vertex 5.59373 -53.7775 14.5688
      vertex 7.41289 -57.28 16.3896
      vertex 8.37499 -53.5151 17.3624
    endloop
  endfacet
  facet normal -0.820351 0.000208096 0.57186
    outer loop
      vertex 4.10044 -50.12 12.4253
      vertex 5.59373 -53.7775 14.5688
      vertex 5.67085 -50.12 14.6781
    endloop
  endfacet
  facet normal -0.82035 0.000208889 0.571861
    outer loop
      vertex 5.59373 -53.7775 14.5688
      vertex 4.10044 -50.12 12.4253
      vertex 3.33767 -53.9903 11.3325
    endloop
  endfacet
  facet normal -0.820349 0.000207969 0.571864
    outer loop
      vertex 4.10044 -50.12 12.4253
      vertex 3.40139 -50.12 11.4225
      vertex 3.33767 -53.9903 11.3325
    endloop
  endfacet
  facet normal -0.820593 0.00891564 0.571443
    outer loop
      vertex 5.45296 -57.28 14.4213
      vertex 5.59373 -53.7775 14.5688
      vertex 4.86076 -57.28 13.5709
    endloop
  endfacet
  facet normal -0.820582 0.00891681 0.571459
    outer loop
      vertex 4.86076 -57.28 13.5709
      vertex 3.33767 -53.9903 11.3325
      vertex 3.22685 -57.28 11.2247
    endloop
  endfacet
  facet normal -0.820586 0.0089112 0.571454
    outer loop
      vertex 3.33767 -53.9903 11.3325
      vertex 4.86076 -57.28 13.5709
      vertex 5.59373 -53.7775 14.5688
    endloop
  endfacet
  facet normal -0.907096 0.00514685 0.420892
    outer loop
      vertex 2.26666 -50.12 8.97696
      vertex 3.33767 -53.9903 11.3325
      vertex 3.40139 -50.12 11.4225
    endloop
  endfacet
  facet normal -0.907096 0.00514656 0.420892
    outer loop
      vertex 3.33767 -53.9903 11.3325
      vertex 2.26666 -50.12 8.97696
      vertex 1.67538 -54.1471 7.75189
    endloop
  endfacet
  facet normal -0.907097 0.00514749 0.420889
    outer loop
      vertex 2.26666 -50.12 8.97696
      vertex 1.72797 -50.12 7.81598
      vertex 1.67538 -54.1471 7.75189
    endloop
  endfacet
  facet normal -0.907182 0.016784 0.420403
    outer loop
      vertex 3.22685 -57.28 11.2247
      vertex 3.33767 -53.9903 11.3325
      vertex 2.81478 -57.28 10.3355
    endloop
  endfacet
  facet normal -0.907176 0.016776 0.420417
    outer loop
      vertex 2.81478 -57.28 10.3355
      vertex 1.67538 -54.1471 7.75189
      vertex 1.58487 -57.28 7.6816
    endloop
  endfacet
  facet normal -0.907175 0.0167781 0.420419
    outer loop
      vertex 1.67538 -54.1471 7.75189
      vertex 2.81478 -57.28 10.3355
      vertex 3.33767 -53.9903 11.3325
    endloop
  endfacet
  facet normal -0.966229 0.00851927 0.257545
    outer loop
      vertex 1.04216 -50.12 5.24303
      vertex 1.67538 -54.1471 7.75189
      vertex 1.72797 -50.12 7.81598
    endloop
  endfacet
  facet normal -0.96623 0.00851685 0.257541
    outer loop
      vertex 1.67538 -54.1471 7.75189
      vertex 1.04216 -50.12 5.24303
      vertex 0.657369 -54.2431 3.93574
    endloop
  endfacet
  facet normal -0.96623 0.00851726 0.25754
    outer loop
      vertex 1.04216 -50.12 5.24303
      vertex 0.702595 -50.12 3.96906
      vertex 0.657369 -54.2431 3.93574
    endloop
  endfacet
  facet normal -0.966111 0.0221411 0.257174
    outer loop
      vertex 1.58487 -57.28 7.6816
      vertex 1.67538 -54.1471 7.75189
      vertex 1.34321 -57.28 6.77377
    endloop
  endfacet
  facet normal -0.966113 0.0221437 0.257167
    outer loop
      vertex 1.34321 -57.28 6.77377
      vertex 0.657369 -54.2431 3.93574
      vertex 0.578552 -57.28 3.90114
    endloop
  endfacet
  facet normal -0.966113 0.0221436 0.257167
    outer loop
      vertex 0.657369 -54.2431 3.93574
      vertex 1.34321 -57.28 6.77377
      vertex 1.67538 -54.1471 7.75189
    endloop
  endfacet
  facet normal -0.996183 0.0102265 0.0866854
    outer loop
      vertex 0.473074 -50.12 1.33142
      vertex 0.657369 -54.2431 3.93574
      vertex 0.702595 -50.12 3.96906
    endloop
  endfacet
  facet normal -0.996183 0.0102264 0.0866852
    outer loop
      vertex 0.657369 -54.2431 3.93574
      vertex 0.473074 -50.12 1.33142
      vertex 0.314559 -54.2755 0
    endloop
  endfacet
  facet normal -0.996183 0.0102263 0.0866855
    outer loop
      vertex 0.473074 -50.12 1.33142
      vertex 0.357217 -50.12 0
      vertex 0.314559 -54.2755 0
    endloop
  endfacet
  facet normal -0.995938 0.0248617 0.0865438
    outer loop
      vertex 0.578552 -57.28 3.90114
      vertex 0.657369 -54.2431 3.93574
      vertex 0.499243 -57.28 2.98846
    endloop
  endfacet
  facet normal -0.995938 0.0248622 0.0865436
    outer loop
      vertex 0.499243 -57.28 2.98846
      vertex 0.314559 -54.2755 0
      vertex 0.239556 -57.28 2.27676e-07
    endloop
  endfacet
  facet normal -0.995938 0.0248618 0.0865433
    outer loop
      vertex 0.314559 -54.2755 0
      vertex 0.499243 -57.28 2.98846
      vertex 0.657369 -54.2431 3.93574
    endloop
  endfacet
  facet normal -0.999689 0.0249558 0
    outer loop
      vertex 0.314559 -54.2755 0
      vertex 0.239556 -57.28 0
      vertex 0.239556 -57.28 2.27676e-07
    endloop
  endfacet
endsolid OpenSCAD_Model
