solid OpenSCAD_Model
  facet normal 1 -0 0
    outer loop
      vertex 21 -89.306 14.3843
      vertex 21 -88.8 9.66667
      vertex 21 -88.8 14.6155
    endloop
  endfacet
  facet normal 1 -0 0
    outer loop
      vertex 21 -90.9538 13.6115
      vertex 21 -88.8 9.66667
      vertex 21 -89.306 14.3843
    endloop
  endfacet
  facet normal 1 -0 0
    outer loop
      vertex 21 -91.2517 13.4713
      vertex 21 -88.8 9.66667
      vertex 21 -90.9538 13.6115
    endloop
  endfacet
  facet normal 1 -0 0
    outer loop
      vertex 21 -91.9473 13.1436
      vertex 21 -88.8 9.66667
      vertex 21 -91.2517 13.4713
    endloop
  endfacet
  facet normal 1 -0 0
    outer loop
      vertex 21 -93.7436 12.2675
      vertex 21 -88.8 9.66667
      vertex 21 -91.9473 13.1436
    endloop
  endfacet
  facet normal 1 -0 0
    outer loop
      vertex 21 -95.2274 11.5228
      vertex 21 -88.8 9.66667
      vertex 21 -93.7436 12.2675
    endloop
  endfacet
  facet normal 1 -0 0
    outer loop
      vertex 21 -96.4437 10.9191
      vertex 21 -88.8 9.66667
      vertex 21 -95.2274 11.5228
    endloop
  endfacet
  facet normal 1 -0 0
    outer loop
      vertex 21 -98.4729 9.81232
      vertex 21 -88.8 9.66667
      vertex 21 -96.4437 10.9191
    endloop
  endfacet
  facet normal 1 0 0
    outer loop
      vertex 21 -88.8 9.66667
      vertex 21 -98.4729 9.81232
      vertex 21 -98.7332 9.66667
    endloop
  endfacet
  facet normal 0 0 -1
    outer loop
      vertex 20.8865 -98.6549 9.66667
      vertex 21 -88.8 9.66667
      vertex 21 -98.7332 9.66667
    endloop
  endfacet
  facet normal 0 0 -1
    outer loop
      vertex 20.6677 -98.4907 9.66667
      vertex 21 -88.8 9.66667
      vertex 20.8865 -98.6549 9.66667
    endloop
  endfacet
  facet normal 0 0 -1
    outer loop
      vertex 18.6624 -96.8464 9.66667
      vertex 21 -88.8 9.66667
      vertex 20.6677 -98.4907 9.66667
    endloop
  endfacet
  facet normal 0 0 -1
    outer loop
      vertex 18.4675 -96.6698 9.66667
      vertex 21 -88.8 9.66667
      vertex 18.6624 -96.8464 9.66667
    endloop
  endfacet
  facet normal 0 0 -1
    outer loop
      vertex 18.1851 -96.4063 9.66667
      vertex 21 -88.8 9.66667
      vertex 18.4675 -96.6698 9.66667
    endloop
  endfacet
  facet normal 0 0 -1
    outer loop
      vertex 16.5912 -94.7245 9.66667
      vertex 21 -88.8 9.66667
      vertex 18.1851 -96.4063 9.66667
    endloop
  endfacet
  facet normal 0 0 -1
    outer loop
      vertex 15.8719 -93.9343 9.66667
      vertex 21 -88.8 9.66667
      vertex 16.5912 -94.7245 9.66667
    endloop
  endfacet
  facet normal 0 0 -1
    outer loop
      vertex 14.5905 -92.4051 9.66667
      vertex 21 -88.8 9.66667
      vertex 15.8719 -93.9343 9.66667
    endloop
  endfacet
  facet normal 0 0 -1
    outer loop
      vertex 14.4875 -92.2862 9.66667
      vertex 21 -88.8 9.66667
      vertex 14.5905 -92.4051 9.66667
    endloop
  endfacet
  facet normal 0 0 -1
    outer loop
      vertex 14.2081 -91.925 9.66667
      vertex 21 -88.8 9.66667
      vertex 14.4875 -92.2862 9.66667
    endloop
  endfacet
  facet normal 0 0 -1
    outer loop
      vertex 12.9034 -90.0359 9.66667
      vertex 21 -88.8 9.66667
      vertex 14.2081 -91.925 9.66667
    endloop
  endfacet
  facet normal -0 0 -1
    outer loop
      vertex 21 -88.8 9.66667
      vertex 12.9034 -90.0359 9.66667
      vertex 12.0696 -88.8 9.66667
    endloop
  endfacet
  facet normal 0 1 -0
    outer loop
      vertex 21 -88.8 9.66667
      vertex 20.279 -88.8 14.3524
      vertex 21 -88.8 14.6155
    endloop
  endfacet
  facet normal 0 1 0
    outer loop
      vertex 20.279 -88.8 14.3524
      vertex 21 -88.8 9.66667
      vertex 19.8106 -88.8 14.1775
    endloop
  endfacet
  facet normal 0 1 0
    outer loop
      vertex 19.8106 -88.8 14.1775
      vertex 21 -88.8 9.66667
      vertex 17.4081 -88.8 13.149
    endloop
  endfacet
  facet normal -0 1 0
    outer loop
      vertex 17.3864 -88.8 13.138
      vertex 17.4081 -88.8 13.149
      vertex 21 -88.8 9.66667
    endloop
  endfacet
  facet normal -0 1 0
    outer loop
      vertex 17.401 -88.8 13.1458
      vertex 17.4081 -88.8 13.149
      vertex 17.3864 -88.8 13.138
    endloop
  endfacet
  facet normal 0 1 0
    outer loop
      vertex 17.4081 -88.8 13.149
      vertex 17.401 -88.8 13.1458
      vertex 17.4039 -88.8 13.1472
    endloop
  endfacet
  facet normal 0 1 0
    outer loop
      vertex 17.3864 -88.8 13.138
      vertex 21 -88.8 9.66667
      vertex 15.0432 -88.8 11.8852
    endloop
  endfacet
  facet normal 0 1 0
    outer loop
      vertex 15.0432 -88.8 11.8852
      vertex 21 -88.8 9.66667
      vertex 14.4191 -88.8 11.4413
    endloop
  endfacet
  facet normal 0 1 0
    outer loop
      vertex 14.4191 -88.8 11.4413
      vertex 21 -88.8 9.66667
      vertex 12.7823 -88.8 10.3222
    endloop
  endfacet
  facet normal 0 1 0
    outer loop
      vertex 12.7823 -88.8 10.3222
      vertex 21 -88.8 9.66667
      vertex 12.0696 -88.8 9.66667
    endloop
  endfacet
  facet normal -0.369952 -0.451174 0.812144
    outer loop
      vertex 20.6677 -98.4907 9.66667
      vertex 20.24 -96.526 10.5633
      vertex 18.6624 -96.8464 9.66667
    endloop
  endfacet
  facet normal -0.454351 -0.430604 0.779837
    outer loop
      vertex 18.1851 -96.4063 9.66667
      vertex 17.3991 -94.4508 10.2885
      vertex 16.5912 -94.7245 9.66667
    endloop
  endfacet
  facet normal -0.485748 -0.407035 0.773544
    outer loop
      vertex 15.8719 -93.9343 9.66667
      vertex 16.3551 -91.8765 11.0529
      vertex 14.5905 -92.4051 9.66667
    endloop
  endfacet
  facet normal -0.460375 -0.419079 0.782578
    outer loop
      vertex 15.8719 -93.9343 9.66667
      vertex 17.3991 -94.4508 10.2885
      vertex 16.3551 -91.8765 11.0529
    endloop
  endfacet
  facet normal -0.460374 -0.419067 0.782585
    outer loop
      vertex 17.3991 -94.4508 10.2885
      vertex 15.8719 -93.9343 9.66667
      vertex 16.5912 -94.7245 9.66667
    endloop
  endfacet
  facet normal -0.381878 -0.421481 0.82251
    outer loop
      vertex 18.4675 -96.6698 9.66667
      vertex 20.24 -96.526 10.5633
      vertex 19.4223 -93.9847 11.4859
    endloop
  endfacet
  facet normal -0.381884 -0.421457 0.82252
    outer loop
      vertex 20.24 -96.526 10.5633
      vertex 18.4675 -96.6698 9.66667
      vertex 18.6624 -96.8464 9.66667
    endloop
  endfacet
  facet normal -0.389645 -0.417593 0.820849
    outer loop
      vertex 19.4223 -93.9847 11.4859
      vertex 18.1851 -96.4063 9.66667
      vertex 18.4675 -96.6698 9.66667
    endloop
  endfacet
  facet normal -0.3896 -0.417621 0.820856
    outer loop
      vertex 18.1851 -96.4063 9.66667
      vertex 19.4223 -93.9847 11.4859
      vertex 17.3991 -94.4508 10.2885
    endloop
  endfacet
  facet normal -0.403162 -0.419512 0.813308
    outer loop
      vertex 19.4223 -93.9847 11.4859
      vertex 18.4557 -91.3945 12.3428
      vertex 16.3551 -91.8765 11.0529
    endloop
  endfacet
  facet normal -0.394786 -0.404987 0.8247
    outer loop
      vertex 17.3991 -94.4508 10.2885
      vertex 19.4223 -93.9847 11.4859
      vertex 16.3551 -91.8765 11.0529
    endloop
  endfacet
  facet normal -0.358789 -0.410916 0.838104
    outer loop
      vertex 20.669 -91.0017 13.4655
      vertex 19.8106 -88.8 14.1775
      vertex 17.4081 -88.8 13.149
    endloop
  endfacet
  facet normal -0.355356 -0.405225 0.842327
    outer loop
      vertex 17.4081 -88.8 13.149
      vertex 18.4557 -91.3945 12.3428
      vertex 20.669 -91.0017 13.4655
    endloop
  endfacet
  facet normal -0.359938 -0.406307 0.839856
    outer loop
      vertex 18.4557 -91.3945 12.3428
      vertex 17.4081 -88.8 13.149
      vertex 17.4039 -88.8 13.1472
    endloop
  endfacet
  facet normal -0.431338 -0.402607 0.807376
    outer loop
      vertex 17.3864 -88.8 13.138
      vertex 16.3551 -91.8765 11.0529
      vertex 17.401 -88.8 13.1458
    endloop
  endfacet
  facet normal -0.42811 -0.404285 0.808255
    outer loop
      vertex 16.3551 -91.8765 11.0529
      vertex 17.3864 -88.8 13.138
      vertex 15.2666 -89.3138 11.7582
    endloop
  endfacet
  facet normal -0.395646 -0.414487 0.819552
    outer loop
      vertex 17.401 -88.8 13.1458
      vertex 18.4557 -91.3945 12.3428
      vertex 17.4039 -88.8 13.1472
    endloop
  endfacet
  facet normal -0.40445 -0.416427 0.814254
    outer loop
      vertex 18.4557 -91.3945 12.3428
      vertex 17.401 -88.8 13.1458
      vertex 16.3551 -91.8765 11.0529
    endloop
  endfacet
  facet normal -0.353798 -0.410021 0.840661
    outer loop
      vertex 19.4223 -93.9847 11.4859
      vertex 21 -91.9473 13.1436
      vertex 20.669 -91.0017 13.4655
    endloop
  endfacet
  facet normal -0.35381 -0.410011 0.84066
    outer loop
      vertex 21 -91.9473 13.1436
      vertex 19.4223 -93.9847 11.4859
      vertex 21 -93.7436 12.2675
    endloop
  endfacet
  facet normal -0.353658 -0.410095 0.840684
    outer loop
      vertex 19.4223 -93.9847 11.4859
      vertex 20.669 -91.0017 13.4655
      vertex 18.4557 -91.3945 12.3428
    endloop
  endfacet
  facet normal -0.319758 -0.40347 0.857302
    outer loop
      vertex 21 -91.2517 13.4713
      vertex 21 -90.9538 13.6115
      vertex 20.669 -91.0017 13.4655
    endloop
  endfacet
  facet normal -0.319982 -0.403772 0.857076
    outer loop
      vertex 21 -91.9473 13.1436
      vertex 21 -91.2517 13.4713
      vertex 20.669 -91.0017 13.4655
    endloop
  endfacet
  facet normal -0.347999 -0.416801 0.839746
    outer loop
      vertex 21 -95.2274 11.5228
      vertex 20.24 -96.526 10.5633
      vertex 21 -96.4437 10.9191
    endloop
  endfacet
  facet normal -0.34796 -0.416826 0.83975
    outer loop
      vertex 20.24 -96.526 10.5633
      vertex 21 -95.2274 11.5228
      vertex 19.4223 -93.9847 11.4859
    endloop
  endfacet
  facet normal -0.350483 -0.42011 0.83706
    outer loop
      vertex 21 -95.2274 11.5228
      vertex 21 -93.7436 12.2675
      vertex 19.4223 -93.9847 11.4859
    endloop
  endfacet
  facet normal -0.320122 -0.402267 0.857732
    outer loop
      vertex 21 -89.306 14.3843
      vertex 20.669 -91.0017 13.4655
      vertex 21 -90.9538 13.6115
    endloop
  endfacet
  facet normal -0.320258 -0.402264 0.857682
    outer loop
      vertex 19.8106 -88.8 14.1775
      vertex 21 -89.306 14.3843
      vertex 20.279 -88.8 14.3524
    endloop
  endfacet
  facet normal -0.320246 -0.402227 0.857704
    outer loop
      vertex 21 -89.306 14.3843
      vertex 19.8106 -88.8 14.1775
      vertex 20.669 -91.0017 13.4655
    endloop
  endfacet
  facet normal -0.315007 -0.394432 0.863246
    outer loop
      vertex 21 -89.306 14.3843
      vertex 21 -88.8 14.6155
      vertex 20.279 -88.8 14.3524
    endloop
  endfacet
  facet normal -0.434245 -0.389567 0.8122
    outer loop
      vertex 15.2666 -89.3138 11.7582
      vertex 17.3864 -88.8 13.138
      vertex 15.0432 -88.8 11.8852
    endloop
  endfacet
  facet normal -0.520039 -0.38868 0.760584
    outer loop
      vertex 14.4191 -88.8 11.4413
      vertex 13.2914 -89.8973 10.1095
      vertex 15.2666 -89.3138 11.7582
    endloop
  endfacet
  facet normal -0.520022 -0.388699 0.760586
    outer loop
      vertex 13.2914 -89.8973 10.1095
      vertex 14.4191 -88.8 11.4413
      vertex 12.7823 -88.8 10.3222
    endloop
  endfacet
  facet normal -0.527875 -0.412966 0.742164
    outer loop
      vertex 15.2666 -89.3138 11.7582
      vertex 15.0432 -88.8 11.8852
      vertex 14.4191 -88.8 11.4413
    endloop
  endfacet
  facet normal -0.615735 -0.415455 0.669528
    outer loop
      vertex 12.7823 -88.8 10.3222
      vertex 12.9034 -90.0359 9.66667
      vertex 13.2914 -89.8973 10.1095
    endloop
  endfacet
  facet normal -0.615786 -0.41544 0.66949
    outer loop
      vertex 12.9034 -90.0359 9.66667
      vertex 12.7823 -88.8 10.3222
      vertex 12.0696 -88.8 9.66667
    endloop
  endfacet
  facet normal -0.611966 -0.422652 0.668478
    outer loop
      vertex 14.2081 -91.925 9.66667
      vertex 13.2914 -89.8973 10.1095
      vertex 12.9034 -90.0359 9.66667
    endloop
  endfacet
  facet normal -0.481118 -0.416635 0.771324
    outer loop
      vertex 14.4875 -92.2862 9.66667
      vertex 16.3551 -91.8765 11.0529
      vertex 15.2666 -89.3138 11.7582
    endloop
  endfacet
  facet normal -0.481073 -0.416741 0.771294
    outer loop
      vertex 16.3551 -91.8765 11.0529
      vertex 14.4875 -92.2862 9.66667
      vertex 14.5905 -92.4051 9.66667
    endloop
  endfacet
  facet normal -0.515396 -0.398675 0.758568
    outer loop
      vertex 15.2666 -89.3138 11.7582
      vertex 14.2081 -91.925 9.66667
      vertex 14.4875 -92.2862 9.66667
    endloop
  endfacet
  facet normal -0.515402 -0.398671 0.758566
    outer loop
      vertex 14.2081 -91.925 9.66667
      vertex 15.2666 -89.3138 11.7582
      vertex 13.2914 -89.8973 10.1095
    endloop
  endfacet
  facet normal -0.338007 -0.450651 0.826236
    outer loop
      vertex 20.6677 -98.4907 9.66667
      vertex 21 -98.4729 9.81232
      vertex 21 -96.4437 10.9191
    endloop
  endfacet
  facet normal -0.338053 -0.450463 0.826319
    outer loop
      vertex 21 -98.4729 9.81232
      vertex 20.6677 -98.4907 9.66667
      vertex 20.8865 -98.6549 9.66667
    endloop
  endfacet
  facet normal -0.338008 -0.450651 0.826235
    outer loop
      vertex 20.6677 -98.4907 9.66667
      vertex 21 -96.4437 10.9191
      vertex 20.24 -96.526 10.5633
    endloop
  endfacet
  facet normal -0.319237 -0.462752 0.827012
    outer loop
      vertex 21 -98.7332 9.66667
      vertex 21 -98.4729 9.81232
      vertex 20.8865 -98.6549 9.66667
    endloop
  endfacet
endsolid OpenSCAD_Model
