solid OpenSCAD_Model
  facet normal 1 0 0
    outer loop
      vertex 21 -66.6 -9.66667
      vertex 21 -67.4688 -21.8132
      vertex 21 -66.6 -22.0376
    endloop
  endfacet
  facet normal 1 0 0
    outer loop
      vertex 21 -66.6 -9.66667
      vertex 21 -68.5047 -21.5254
      vertex 21 -67.4688 -21.8132
    endloop
  endfacet
  facet normal 1 0 0
    outer loop
      vertex 21 -66.6 -9.66667
      vertex 21 -71.8826 -20.5622
      vertex 21 -68.5047 -21.5254
    endloop
  endfacet
  facet normal 1 0 0
    outer loop
      vertex 21 -66.6 -9.66667
      vertex 21 -72.4746 -20.3706
      vertex 21 -71.8826 -20.5622
    endloop
  endfacet
  facet normal 1 0 0
    outer loop
      vertex 21 -66.6 -9.66667
      vertex 21 -74.5619 -19.7064
      vertex 21 -72.4746 -20.3706
    endloop
  endfacet
  facet normal 1 0 0
    outer loop
      vertex 21 -66.6 -9.66667
      vertex 21 -76.4894 -19.1096
      vertex 21 -74.5619 -19.7064
    endloop
  endfacet
  facet normal 1 0 0
    outer loop
      vertex 21 -66.6 -9.66667
      vertex 21 -77.5991 -18.7727
      vertex 21 -76.4894 -19.1096
    endloop
  endfacet
  facet normal 1 0 0
    outer loop
      vertex 21 -66.6 -9.66667
      vertex 21 -80.7616 -17.7335
      vertex 21 -77.5991 -18.7727
    endloop
  endfacet
  facet normal 1 0 0
    outer loop
      vertex 21 -66.6 -9.66667
      vertex 21 -81.7107 -17.4053
      vertex 21 -80.7616 -17.7335
    endloop
  endfacet
  facet normal 1 -0 0
    outer loop
      vertex 21 -88.8 -9.66667
      vertex 21 -81.7107 -17.4053
      vertex 21 -66.6 -9.66667
    endloop
  endfacet
  facet normal 1 0 0
    outer loop
      vertex 21 -81.7107 -17.4053
      vertex 21 -88.8 -9.66667
      vertex 21 -82.8058 -17.0457
    endloop
  endfacet
  facet normal 1 0 0
    outer loop
      vertex 21 -82.8058 -17.0457
      vertex 21 -88.8 -9.66667
      vertex 21 -84.0962 -16.5906
    endloop
  endfacet
  facet normal 1 0 0
    outer loop
      vertex 21 -84.0962 -16.5906
      vertex 21 -88.8 -9.66667
      vertex 21 -85.2898 -16.1795
    endloop
  endfacet
  facet normal 1 0 0
    outer loop
      vertex 21 -85.2898 -16.1795
      vertex 21 -88.8 -9.66667
      vertex 21 -87.9916 -15.1248
    endloop
  endfacet
  facet normal 1 0 0
    outer loop
      vertex 21 -87.9916 -15.1248
      vertex 21 -88.8 -9.66667
      vertex 21 -88.8 -14.7928
    endloop
  endfacet
  facet normal -0 0 1
    outer loop
      vertex 6.28858 -83.5179 -9.66667
      vertex 21 -88.8 -9.66667
      vertex 21 -66.6 -9.66667
    endloop
  endfacet
  facet normal 0 0 1
    outer loop
      vertex 21 -88.8 -9.66667
      vertex 9.89188 -88.5725 -9.66667
      vertex 10.0834 -88.8 -9.66667
    endloop
  endfacet
  facet normal 0 0 1
    outer loop
      vertex 21 -88.8 -9.66667
      vertex 8.83498 -87.2267 -9.66667
      vertex 9.89188 -88.5725 -9.66667
    endloop
  endfacet
  facet normal 0 0 1
    outer loop
      vertex 21 -88.8 -9.66667
      vertex 8.2739 -86.5185 -9.66667
      vertex 8.83498 -87.2267 -9.66667
    endloop
  endfacet
  facet normal 0 0 1
    outer loop
      vertex 21 -88.8 -9.66667
      vertex 7.41171 -85.2761 -9.66667
      vertex 8.2739 -86.5185 -9.66667
    endloop
  endfacet
  facet normal 0 0 1
    outer loop
      vertex 21 -88.8 -9.66667
      vertex 6.85986 -84.4726 -9.66667
      vertex 7.41171 -85.2761 -9.66667
    endloop
  endfacet
  facet normal 0 0 1
    outer loop
      vertex 21 -88.8 -9.66667
      vertex 6.28858 -83.5179 -9.66667
      vertex 6.85986 -84.4726 -9.66667
    endloop
  endfacet
  facet normal 0 0 1
    outer loop
      vertex 21 -66.6 -9.66667
      vertex 5.65221 -82.3951 -9.66667
      vertex 6.28858 -83.5179 -9.66667
    endloop
  endfacet
  facet normal 0 0 1
    outer loop
      vertex 21 -66.6 -9.66667
      vertex 5.24357 -81.4836 -9.66667
      vertex 5.65221 -82.3951 -9.66667
    endloop
  endfacet
  facet normal -0 0 1
    outer loop
      vertex 4.40461 -79.6667 -9.66667
      vertex 5.24357 -81.4836 -9.66667
      vertex 21 -66.6 -9.66667
    endloop
  endfacet
  facet normal 0 0 1
    outer loop
      vertex 5.24357 -81.4836 -9.66667
      vertex 4.40461 -79.6667 -9.66667
      vertex 4.6169 -80.3082 -9.66667
    endloop
  endfacet
  facet normal 0 0 1
    outer loop
      vertex 21 -66.6 -9.66667
      vertex 3.76397 -78.2441 -9.66667
      vertex 4.40461 -79.6667 -9.66667
    endloop
  endfacet
  facet normal 0 0 1
    outer loop
      vertex 21 -66.6 -9.66667
      vertex 3.41439 -77.0982 -9.66667
      vertex 3.76397 -78.2441 -9.66667
    endloop
  endfacet
  facet normal 0 0 1
    outer loop
      vertex 21 -66.6 -9.66667
      vertex 3.22839 -76.3371 -9.66667
      vertex 3.41439 -77.0982 -9.66667
    endloop
  endfacet
  facet normal -0 0 1
    outer loop
      vertex 2.97782 -74.6631 -9.66667
      vertex 3.22839 -76.3371 -9.66667
      vertex 21 -66.6 -9.66667
    endloop
  endfacet
  facet normal 0 0 1
    outer loop
      vertex 3.22839 -76.3371 -9.66667
      vertex 2.97782 -74.6631 -9.66667
      vertex 3.15375 -76.1404 -9.66667
    endloop
  endfacet
  facet normal -0 0 1
    outer loop
      vertex 2.58648 -72.3171 -9.66667
      vertex 2.97782 -74.6631 -9.66667
      vertex 21 -66.6 -9.66667
    endloop
  endfacet
  facet normal 0 0 1
    outer loop
      vertex 2.97782 -74.6631 -9.66667
      vertex 2.58648 -72.3171 -9.66667
      vertex 2.79525 -74.0085 -9.66667
    endloop
  endfacet
  facet normal -0 0 1
    outer loop
      vertex 2.56615 -71.9393 -9.66667
      vertex 2.58648 -72.3171 -9.66667
      vertex 21 -66.6 -9.66667
    endloop
  endfacet
  facet normal 0 0 1
    outer loop
      vertex 2.58648 -72.3171 -9.66667
      vertex 2.56615 -71.9393 -9.66667
      vertex 2.56969 -72.0874 -9.66667
    endloop
  endfacet
  facet normal 0 0 1
    outer loop
      vertex 21 -66.6 -9.66667
      vertex 2.53034 -71.3706 -9.66667
      vertex 2.56615 -71.9393 -9.66667
    endloop
  endfacet
  facet normal 0 0 1
    outer loop
      vertex 21 -66.6 -9.66667
      vertex 2.48268 -70.0737 -9.66667
      vertex 2.53034 -71.3706 -9.66667
    endloop
  endfacet
  facet normal 0 0 1
    outer loop
      vertex 21 -66.6 -9.66667
      vertex 2.46833 -69.6894 -9.66667
      vertex 2.48268 -70.0737 -9.66667
    endloop
  endfacet
  facet normal 0 0 1
    outer loop
      vertex 2.43531 -67.3906 -9.66667
      vertex 21 -66.6 -9.66667
      vertex 2.45882 -66.6 -9.66667
    endloop
  endfacet
  facet normal 0 0 1
    outer loop
      vertex 21 -66.6 -9.66667
      vertex 2.43641 -67.7012 -9.66667
      vertex 2.46833 -69.6894 -9.66667
    endloop
  endfacet
  facet normal 0 0 1
    outer loop
      vertex 21 -66.6 -9.66667
      vertex 2.43531 -67.3906 -9.66667
      vertex 2.43641 -67.7012 -9.66667
    endloop
  endfacet
  facet normal 0 0 1
    outer loop
      vertex 2.48268 -70.0737 -9.66667
      vertex 2.46833 -69.6894 -9.66667
      vertex 2.4658 -69.9023 -9.66667
    endloop
  endfacet
  facet normal 0 1 -0
    outer loop
      vertex 3.1627 -66.6 -10.6798
      vertex 2.45882 -66.6 -9.66667
      vertex 21 -66.6 -9.66667
    endloop
  endfacet
  facet normal 0 1 0
    outer loop
      vertex 2.45882 -66.6 -9.66667
      vertex 3.1627 -66.6 -10.6798
      vertex 2.55596 -66.6 -9.84057
    endloop
  endfacet
  facet normal 0 1 0
    outer loop
      vertex 21 -66.6 -9.66667
      vertex 3.73512 -66.6 -11.4974
      vertex 3.1627 -66.6 -10.6798
    endloop
  endfacet
  facet normal 0 1 0
    outer loop
      vertex 21 -66.6 -9.66667
      vertex 4.82516 -66.6 -12.7471
      vertex 3.73512 -66.6 -11.4974
    endloop
  endfacet
  facet normal 0 1 0
    outer loop
      vertex 21 -66.6 -9.66667
      vertex 5.07563 -66.6 -13.0261
      vertex 4.82516 -66.6 -12.7471
    endloop
  endfacet
  facet normal 0 1 0
    outer loop
      vertex 21 -66.6 -9.66667
      vertex 5.20498 -66.6 -13.1622
      vertex 5.07563 -66.6 -13.0261
    endloop
  endfacet
  facet normal 0 1 0
    outer loop
      vertex 21 -66.6 -9.66667
      vertex 6.17276 -66.6 -14.0477
      vertex 5.20498 -66.6 -13.1622
    endloop
  endfacet
  facet normal 0 1 0
    outer loop
      vertex 21 -66.6 -9.66667
      vertex 6.96124 -66.6 -14.7469
      vertex 6.17276 -66.6 -14.0477
    endloop
  endfacet
  facet normal 0 1 0
    outer loop
      vertex 21 -66.6 -9.66667
      vertex 7.38166 -66.6 -15.0629
      vertex 6.96124 -66.6 -14.7469
    endloop
  endfacet
  facet normal 0 1 0
    outer loop
      vertex 21 -66.6 -9.66667
      vertex 8.14631 -66.6 -15.6454
      vertex 7.38166 -66.6 -15.0629
    endloop
  endfacet
  facet normal 0 1 0
    outer loop
      vertex 21 -66.6 -9.66667
      vertex 8.97531 -66.6 -16.2545
      vertex 8.14631 -66.6 -15.6454
    endloop
  endfacet
  facet normal 0 1 0
    outer loop
      vertex 21 -66.6 -9.66667
      vertex 9.97079 -66.6 -16.8722
      vertex 8.97531 -66.6 -16.2545
    endloop
  endfacet
  facet normal 0 1 0
    outer loop
      vertex 21 -66.6 -9.66667
      vertex 11.1768 -66.6 -17.6358
      vertex 9.97079 -66.6 -16.8722
    endloop
  endfacet
  facet normal 0 1 0
    outer loop
      vertex 21 -66.6 -9.66667
      vertex 11.6288 -66.6 -17.8766
      vertex 11.1768 -66.6 -17.6358
    endloop
  endfacet
  facet normal 0 1 0
    outer loop
      vertex 21 -66.6 -9.66667
      vertex 12.7539 -66.6 -18.4604
      vertex 11.6288 -66.6 -17.8766
    endloop
  endfacet
  facet normal 0 1 0
    outer loop
      vertex 21 -66.6 -9.66667
      vertex 13.5118 -66.6 -18.8692
      vertex 12.7539 -66.6 -18.4604
    endloop
  endfacet
  facet normal 0 1 0
    outer loop
      vertex 21 -66.6 -9.66667
      vertex 15.2554 -66.6 -19.671
      vertex 13.5118 -66.6 -18.8692
    endloop
  endfacet
  facet normal 0 1 0
    outer loop
      vertex 21 -66.6 -9.66667
      vertex 15.6561 -66.6 -19.8556
      vertex 15.2554 -66.6 -19.671
    endloop
  endfacet
  facet normal 0 1 0
    outer loop
      vertex 21 -66.6 -9.66667
      vertex 15.9184 -66.6 -19.9863
      vertex 15.6561 -66.6 -19.8556
    endloop
  endfacet
  facet normal 0 1 0
    outer loop
      vertex 21 -66.6 -9.66667
      vertex 17.1212 -66.6 -20.4714
      vertex 15.9184 -66.6 -19.9863
    endloop
  endfacet
  facet normal 0 1 0
    outer loop
      vertex 21 -66.6 -9.66667
      vertex 18.3304 -66.6 -21.0228
      vertex 17.1212 -66.6 -20.4714
    endloop
  endfacet
  facet normal 0 1 0
    outer loop
      vertex 21 -66.6 -9.66667
      vertex 18.6088 -66.6 -21.1228
      vertex 18.3304 -66.6 -21.0228
    endloop
  endfacet
  facet normal 0 1 0
    outer loop
      vertex 21 -66.6 -9.66667
      vertex 19.0621 -66.6 -21.3039
      vertex 18.6088 -66.6 -21.1228
    endloop
  endfacet
  facet normal 0 1 0
    outer loop
      vertex 21 -66.6 -9.66667
      vertex 20.7391 -66.6 -21.9547
      vertex 19.0621 -66.6 -21.3039
    endloop
  endfacet
  facet normal -0 1 0
    outer loop
      vertex 20.7391 -66.6 -21.9547
      vertex 21 -66.6 -9.66667
      vertex 21 -66.6 -22.0376
    endloop
  endfacet
  facet normal 0 -1 0
    outer loop
      vertex 10.935 -88.8 -10.3459
      vertex 21 -88.8 -9.66667
      vertex 10.0834 -88.8 -9.66667
    endloop
  endfacet
  facet normal 0 -1 0
    outer loop
      vertex 11.6865 -88.8 -10.9138
      vertex 21 -88.8 -9.66667
      vertex 10.935 -88.8 -10.3459
    endloop
  endfacet
  facet normal 0 -1 0
    outer loop
      vertex 13.4567 -88.8 -11.9945
      vertex 21 -88.8 -9.66667
      vertex 11.6865 -88.8 -10.9138
    endloop
  endfacet
  facet normal 0 -1 0
    outer loop
      vertex 14.4205 -88.8 -12.5341
      vertex 21 -88.8 -9.66667
      vertex 13.4567 -88.8 -11.9945
    endloop
  endfacet
  facet normal 0 -1 0
    outer loop
      vertex 15.638 -88.8 -13.0714
      vertex 21 -88.8 -9.66667
      vertex 14.4205 -88.8 -12.5341
    endloop
  endfacet
  facet normal 0 -1 0
    outer loop
      vertex 17.0219 -88.8 -13.6714
      vertex 21 -88.8 -9.66667
      vertex 15.638 -88.8 -13.0714
    endloop
  endfacet
  facet normal 0 -1 0
    outer loop
      vertex 17.2243 -88.8 -13.7518
      vertex 21 -88.8 -9.66667
      vertex 17.0219 -88.8 -13.6714
    endloop
  endfacet
  facet normal 0 -1 0
    outer loop
      vertex 17.387 -88.8 -13.8128
      vertex 21 -88.8 -9.66667
      vertex 17.2243 -88.8 -13.7518
    endloop
  endfacet
  facet normal 0 -1 0
    outer loop
      vertex 20.5076 -88.8 -14.7074
      vertex 21 -88.8 -9.66667
      vertex 17.387 -88.8 -13.8128
    endloop
  endfacet
  facet normal 0 -1 0
    outer loop
      vertex 20.5122 -88.8 -14.7085
      vertex 21 -88.8 -9.66667
      vertex 20.5076 -88.8 -14.7074
    endloop
  endfacet
  facet normal 0 -1 -0
    outer loop
      vertex 21 -88.8 -9.66667
      vertex 20.5122 -88.8 -14.7085
      vertex 21 -88.8 -14.7928
    endloop
  endfacet
  facet normal -0.828343 -0.0133034 -0.560063
    outer loop
      vertex 3.40099 -68.1559 -11.0825
      vertex 2.43641 -67.7012 -9.66667
      vertex 2.45094 -67.4023 -9.69526
    endloop
  endfacet
  facet normal -0.828342 -0.0132988 -0.560064
    outer loop
      vertex 2.43641 -67.7012 -9.66667
      vertex 3.40099 -68.1559 -11.0825
      vertex 2.46833 -69.6894 -9.66667
    endloop
  endfacet
  facet normal -0.840005 0.0100234 -0.542486
    outer loop
      vertex 3.05514 -69.8297 -10.5779
      vertex 2.46833 -69.6894 -9.66667
      vertex 3.40099 -68.1559 -11.0825
    endloop
  endfacet
  facet normal -0.840008 0.00998225 -0.542482
    outer loop
      vertex 2.46833 -69.6894 -9.66667
      vertex 3.05514 -69.8297 -10.5779
      vertex 2.4658 -69.9023 -9.66667
    endloop
  endfacet
  facet normal -0.774671 -0.0267994 -0.631796
    outer loop
      vertex 4.38348 -69.2397 -12.2412
      vertex 3.56254 -71.1566 -11.1533
      vertex 3.40099 -68.1559 -11.0825
    endloop
  endfacet
  facet normal -0.780097 -0.0272503 -0.625065
    outer loop
      vertex 3.40099 -68.1559 -11.0825
      vertex 3.56254 -71.1566 -11.1533
      vertex 3.05514 -69.8297 -10.5779
    endloop
  endfacet
  facet normal -0.81901 -0.0300979 -0.572989
    outer loop
      vertex 3.56254 -71.1566 -11.1533
      vertex 2.53034 -71.3706 -9.66667
      vertex 2.48268 -70.0737 -9.66667
    endloop
  endfacet
  facet normal -0.81901 -0.0300977 -0.572989
    outer loop
      vertex 2.53034 -71.3706 -9.66667
      vertex 3.56254 -71.1566 -11.1533
      vertex 2.63049 -72.091 -9.77198
    endloop
  endfacet
  facet normal -0.833855 -0.0821206 -0.54584
    outer loop
      vertex 3.05514 -69.8297 -10.5779
      vertex 2.48268 -70.0737 -9.66667
      vertex 2.4658 -69.9023 -9.66667
    endloop
  endfacet
  facet normal -0.833848 -0.0821575 -0.545846
    outer loop
      vertex 2.48268 -70.0737 -9.66667
      vertex 3.05514 -69.8297 -10.5779
      vertex 3.56254 -71.1566 -11.1533
    endloop
  endfacet
  facet normal -0.567757 -0.449818 -0.689432
    outer loop
      vertex 8.83498 -87.2267 -9.66667
      vertex 9.21827 -85.723 -10.9634
      vertex 10.8154 -87.7231 -10.9737
    endloop
  endfacet
  facet normal -0.567761 -0.449815 -0.68943
    outer loop
      vertex 9.21827 -85.723 -10.9634
      vertex 8.83498 -87.2267 -9.66667
      vertex 8.2739 -86.5185 -9.66667
    endloop
  endfacet
  facet normal -0.568173 -0.446204 -0.691434
    outer loop
      vertex 10.8154 -87.7231 -10.9737
      vertex 9.89188 -88.5725 -9.66667
      vertex 8.83498 -87.2267 -9.66667
    endloop
  endfacet
  facet normal -0.532252 -0.469713 -0.704327
    outer loop
      vertex 11.6865 -88.8 -10.9138
      vertex 10.935 -88.8 -10.3459
      vertex 10.8154 -87.7231 -10.9737
    endloop
  endfacet
  facet normal -0.552085 -0.46484 -0.692189
    outer loop
      vertex 10.0834 -88.8 -9.66667
      vertex 10.8154 -87.7231 -10.9737
      vertex 10.935 -88.8 -10.3459
    endloop
  endfacet
  facet normal -0.552125 -0.464804 -0.692182
    outer loop
      vertex 10.8154 -87.7231 -10.9737
      vertex 10.0834 -88.8 -9.66667
      vertex 9.89188 -88.5725 -9.66667
    endloop
  endfacet
  facet normal -0.735505 -0.067604 -0.674138
    outer loop
      vertex 4.38348 -69.2397 -12.2412
      vertex 4.44827 -72.4585 -11.9891
      vertex 3.56254 -71.1566 -11.1533
    endloop
  endfacet
  facet normal -0.716804 -0.0687733 -0.693875
    outer loop
      vertex 5.48217 -70.4645 -13.2548
      vertex 4.44827 -72.4585 -11.9891
      vertex 4.38348 -69.2397 -12.2412
    endloop
  endfacet
  facet normal -0.877969 -0.00310935 -0.478708
    outer loop
      vertex 2.45094 -67.4023 -9.69526
      vertex 2.43641 -67.7012 -9.66667
      vertex 2.43531 -67.3906 -9.66667
    endloop
  endfacet
  facet normal -0.675201 -0.359987 -0.643827
    outer loop
      vertex 5.12012 -80.0108 -10.3607
      vertex 5.24357 -81.4836 -9.66667
      vertex 4.6169 -80.3082 -9.66667
    endloop
  endfacet
  facet normal -0.675184 -0.359992 -0.643842
    outer loop
      vertex 5.24357 -81.4836 -9.66667
      vertex 5.12012 -80.0108 -10.3607
      vertex 6.37961 -81.888 -10.6319
    endloop
  endfacet
  facet normal -0.677383 -0.303682 -0.670022
    outer loop
      vertex 6.37961 -81.888 -10.6319
      vertex 5.65221 -82.3951 -9.66667
      vertex 5.24357 -81.4836 -9.66667
    endloop
  endfacet
  facet normal -0.622757 -0.37265 -0.687972
    outer loop
      vertex 6.28858 -83.5179 -9.66667
      vertex 7.74211 -83.7895 -10.8353
      vertex 6.85986 -84.4726 -9.66667
    endloop
  endfacet
  facet normal -0.622759 -0.37264 -0.687976
    outer loop
      vertex 7.74211 -83.7895 -10.8353
      vertex 6.28858 -83.5179 -9.66667
      vertex 6.37961 -81.888 -10.6319
    endloop
  endfacet
  facet normal -0.64195 -0.363838 -0.674924
    outer loop
      vertex 6.37961 -81.888 -10.6319
      vertex 6.28858 -83.5179 -9.66667
      vertex 5.65221 -82.3951 -9.66667
    endloop
  endfacet
  facet normal -0.55522 -0.330397 -0.763262
    outer loop
      vertex 7.98232 -80.4145 -12.4356
      vertex 9.34824 -82.2594 -12.6306
      vertex 6.37961 -81.888 -10.6319
    endloop
  endfacet
  facet normal -0.556682 -0.316736 -0.767973
    outer loop
      vertex 9.34824 -82.2594 -12.6306
      vertex 7.74211 -83.7895 -10.8353
      vertex 6.37961 -81.888 -10.6319
    endloop
  endfacet
  facet normal -0.5349 -0.350075 -0.768979
    outer loop
      vertex 9.34824 -82.2594 -12.6306
      vertex 10.7868 -84.1719 -12.7606
      vertex 9.21827 -85.723 -10.9634
    endloop
  endfacet
  facet normal -0.528232 -0.352096 -0.772657
    outer loop
      vertex 9.34824 -82.2594 -12.6306
      vertex 9.21827 -85.723 -10.9634
      vertex 7.74211 -83.7895 -10.8353
    endloop
  endfacet
  facet normal -0.596199 -0.413745 -0.688013
    outer loop
      vertex 9.21827 -85.723 -10.9634
      vertex 8.2739 -86.5185 -9.66667
      vertex 7.41171 -85.2761 -9.66667
    endloop
  endfacet
  facet normal -0.596641 -0.409801 -0.689988
    outer loop
      vertex 7.41171 -85.2761 -9.66667
      vertex 7.74211 -83.7895 -10.8353
      vertex 9.21827 -85.723 -10.9634
    endloop
  endfacet
  facet normal -0.596659 -0.40979 -0.689979
    outer loop
      vertex 7.74211 -83.7895 -10.8353
      vertex 7.41171 -85.2761 -9.66667
      vertex 6.85986 -84.4726 -9.66667
    endloop
  endfacet
  facet normal -0.471186 -0.294776 -0.831319
    outer loop
      vertex 10.9476 -80.439 -14.1826
      vertex 12.3925 -82.3456 -14.3255
      vertex 9.34824 -82.2594 -12.6306
    endloop
  endfacet
  facet normal -0.470809 -0.297685 -0.830495
    outer loop
      vertex 12.3925 -82.3456 -14.3255
      vertex 10.7868 -84.1719 -12.7606
      vertex 9.34824 -82.2594 -12.6306
    endloop
  endfacet
  facet normal -0.453868 -0.329481 -0.827917
    outer loop
      vertex 12.3925 -82.3456 -14.3255
      vertex 13.8942 -84.3205 -14.3628
      vertex 12.3191 -86.1554 -12.7691
    endloop
  endfacet
  facet normal -0.435894 -0.333156 -0.836064
    outer loop
      vertex 12.3925 -82.3456 -14.3255
      vertex 12.3191 -86.1554 -12.7691
      vertex 10.7868 -84.1719 -12.7606
    endloop
  endfacet
  facet normal -0.502541 -0.397337 -0.767838
    outer loop
      vertex 12.3191 -86.1554 -12.7691
      vertex 10.8154 -87.7231 -10.9737
      vertex 9.21827 -85.723 -10.9634
    endloop
  endfacet
  facet normal -0.503837 -0.385914 -0.772799
    outer loop
      vertex 10.7868 -84.1719 -12.7606
      vertex 12.3191 -86.1554 -12.7691
      vertex 9.21827 -85.723 -10.9634
    endloop
  endfacet
  facet normal -0.409653 -0.378164 -0.830166
    outer loop
      vertex 15.4816 -86.3922 -14.2024
      vertex 13.9625 -88.2386 -12.6117
      vertex 13.8942 -84.3205 -14.3628
    endloop
  endfacet
  facet normal -0.401291 -0.379556 -0.833608
    outer loop
      vertex 13.8942 -84.3205 -14.3628
      vertex 13.9625 -88.2386 -12.6117
      vertex 12.3191 -86.1554 -12.7691
    endloop
  endfacet
  facet normal -0.47178 -0.424536 -0.772782
    outer loop
      vertex 11.6865 -88.8 -10.9138
      vertex 13.9625 -88.2386 -12.6117
      vertex 13.4567 -88.8 -11.9945
    endloop
  endfacet
  facet normal -0.471758 -0.424586 -0.772768
    outer loop
      vertex 13.9625 -88.2386 -12.6117
      vertex 11.6865 -88.8 -10.9138
      vertex 10.8154 -87.7231 -10.9737
    endloop
  endfacet
  facet normal -0.471251 -0.429949 -0.770108
    outer loop
      vertex 12.3191 -86.1554 -12.7691
      vertex 13.9625 -88.2386 -12.6117
      vertex 10.8154 -87.7231 -10.9737
    endloop
  endfacet
  facet normal -0.361829 -0.415439 -0.83456
    outer loop
      vertex 15.638 -88.8 -13.0714
      vertex 17.1981 -88.5766 -13.859
      vertex 17.0219 -88.8 -13.6714
    endloop
  endfacet
  facet normal -0.361809 -0.415503 -0.834537
    outer loop
      vertex 17.1981 -88.5766 -13.859
      vertex 15.638 -88.8 -13.0714
      vertex 15.4816 -86.3922 -14.2024
    endloop
  endfacet
  facet normal -0.367377 -0.41478 -0.832461
    outer loop
      vertex 13.9625 -88.2386 -12.6117
      vertex 15.638 -88.8 -13.0714
      vertex 14.4205 -88.8 -12.5341
    endloop
  endfacet
  facet normal -0.367392 -0.414867 -0.832411
    outer loop
      vertex 15.638 -88.8 -13.0714
      vertex 13.9625 -88.2386 -12.6117
      vertex 15.4816 -86.3922 -14.2024
    endloop
  endfacet
  facet normal -0.43357 -0.460758 -0.774415
    outer loop
      vertex 13.9625 -88.2386 -12.6117
      vertex 14.4205 -88.8 -12.5341
      vertex 13.4567 -88.8 -11.9945
    endloop
  endfacet
  facet normal -0.315188 -0.440368 -0.840674
    outer loop
      vertex 17.387 -88.8 -13.8128
      vertex 17.2243 -88.8 -13.7518
      vertex 17.1981 -88.5766 -13.859
    endloop
  endfacet
  facet normal -0.331611 -0.439476 -0.834802
    outer loop
      vertex 17.1981 -88.5766 -13.859
      vertex 17.2243 -88.8 -13.7518
      vertex 17.0219 -88.8 -13.6714
    endloop
  endfacet
  facet normal -0.772394 -0.235635 -0.589816
    outer loop
      vertex 3.97071 -78.1503 -9.97488
      vertex 3.76397 -78.2441 -9.66667
      vertex 3.41439 -77.0982 -9.66667
    endloop
  endfacet
  facet normal -0.705045 -0.267537 -0.656761
    outer loop
      vertex 4.28829 -75.3441 -11.209
      vertex 3.22839 -76.3371 -9.66667
      vertex 3.15375 -76.1404 -9.66667
    endloop
  endfacet
  facet normal -0.705061 -0.267511 -0.656755
    outer loop
      vertex 3.22839 -76.3371 -9.66667
      vertex 4.28829 -75.3441 -11.209
      vertex 5.43178 -76.9524 -11.7815
    endloop
  endfacet
  facet normal -0.706732 -0.172713 -0.686076
    outer loop
      vertex 5.43178 -76.9524 -11.7815
      vertex 3.41439 -77.0982 -9.66667
      vertex 3.22839 -76.3371 -9.66667
    endloop
  endfacet
  facet normal -0.706731 -0.172715 -0.686076
    outer loop
      vertex 3.41439 -77.0982 -9.66667
      vertex 5.43178 -76.9524 -11.7815
      vertex 3.97071 -78.1503 -9.97488
    endloop
  endfacet
  facet normal -0.613832 -0.280292 -0.738002
    outer loop
      vertex 5.43178 -76.9524 -11.7815
      vertex 6.67639 -78.6462 -12.1734
      vertex 5.12012 -80.0108 -10.3607
    endloop
  endfacet
  facet normal -0.658837 -0.260688 -0.705674
    outer loop
      vertex 5.43178 -76.9524 -11.7815
      vertex 5.12012 -80.0108 -10.3607
      vertex 3.97071 -78.1503 -9.97488
    endloop
  endfacet
  facet normal -0.733041 -0.242583 -0.635456
    outer loop
      vertex 5.12012 -80.0108 -10.3607
      vertex 4.6169 -80.3082 -9.66667
      vertex 4.40461 -79.6667 -9.66667
    endloop
  endfacet
  facet normal -0.734147 -0.330609 -0.593065
    outer loop
      vertex 3.97071 -78.1503 -9.97488
      vertex 4.40461 -79.6667 -9.66667
      vertex 3.76397 -78.2441 -9.66667
    endloop
  endfacet
  facet normal -0.734196 -0.33061 -0.593003
    outer loop
      vertex 4.40461 -79.6667 -9.66667
      vertex 3.97071 -78.1503 -9.97488
      vertex 5.12012 -80.0108 -10.3607
    endloop
  endfacet
  facet normal -0.559582 -0.276022 -0.78146
    outer loop
      vertex 6.80533 -75.2989 -13.3491
      vertex 8.15168 -76.901 -13.7473
      vertex 5.43178 -76.9524 -11.7815
    endloop
  endfacet
  facet normal -0.566665 -0.233568 -0.79015
    outer loop
      vertex 8.15168 -76.901 -13.7473
      vertex 6.67639 -78.6462 -12.1734
      vertex 5.43178 -76.9524 -11.7815
    endloop
  endfacet
  facet normal -0.497312 -0.282294 -0.82036
    outer loop
      vertex 8.15168 -76.901 -13.7473
      vertex 9.53721 -78.6168 -13.9968
      vertex 7.98232 -80.4145 -12.4356
    endloop
  endfacet
  facet normal -0.531497 -0.273657 -0.801638
    outer loop
      vertex 8.15168 -76.901 -13.7473
      vertex 7.98232 -80.4145 -12.4356
      vertex 6.67639 -78.6462 -12.1734
    endloop
  endfacet
  facet normal -0.588563 -0.285626 -0.756315
    outer loop
      vertex 7.98232 -80.4145 -12.4356
      vertex 6.37961 -81.888 -10.6319
      vertex 5.12012 -80.0108 -10.3607
    endloop
  endfacet
  facet normal -0.585057 -0.321691 -0.744462
    outer loop
      vertex 6.67639 -78.6462 -12.1734
      vertex 7.98232 -80.4145 -12.4356
      vertex 5.12012 -80.0108 -10.3607
    endloop
  endfacet
  facet normal -0.46266 -0.277511 -0.841982
    outer loop
      vertex 9.4986 -74.9089 -15.144
      vertex 10.9801 -76.6109 -15.3971
      vertex 8.15168 -76.901 -13.7473
    endloop
  endfacet
  facet normal -0.467639 -0.254535 -0.846478
    outer loop
      vertex 10.9801 -76.6109 -15.3971
      vertex 9.53721 -78.6168 -13.9968
      vertex 8.15168 -76.901 -13.7473
    endloop
  endfacet
  facet normal -0.428199 -0.269974 -0.862415
    outer loop
      vertex 10.9801 -76.6109 -15.3971
      vertex 12.4684 -78.4169 -15.5707
      vertex 10.9476 -80.439 -14.1826
    endloop
  endfacet
  facet normal -0.455269 -0.265733 -0.849774
    outer loop
      vertex 10.9801 -76.6109 -15.3971
      vertex 10.9476 -80.439 -14.1826
      vertex 9.53721 -78.6168 -13.9968
    endloop
  endfacet
  facet normal -0.489705 -0.275118 -0.827345
    outer loop
      vertex 10.9476 -80.439 -14.1826
      vertex 9.34824 -82.2594 -12.6306
      vertex 7.98232 -80.4145 -12.4356
    endloop
  endfacet
  facet normal -0.487105 -0.293137 -0.822679
    outer loop
      vertex 9.53721 -78.6168 -13.9968
      vertex 10.9476 -80.439 -14.1826
      vertex 7.98232 -80.4145 -12.4356
    endloop
  endfacet
  facet normal -0.408296 -0.274165 -0.870705
    outer loop
      vertex 12.2755 -74.4502 -16.6849
      vertex 13.8488 -76.2457 -16.8573
      vertex 10.9801 -76.6109 -15.3971
    endloop
  endfacet
  facet normal -0.41246 -0.25586 -0.874307
    outer loop
      vertex 13.8488 -76.2457 -16.8573
      vertex 12.4684 -78.4169 -15.5707
      vertex 10.9801 -76.6109 -15.3971
    endloop
  endfacet
  facet normal -0.378296 -0.261014 -0.888124
    outer loop
      vertex 15.4168 -78.1045 -16.9789
      vertex 13.9568 -80.3084 -15.7093
      vertex 13.8488 -76.2457 -16.8573
    endloop
  endfacet
  facet normal -0.409532 -0.25814 -0.875013
    outer loop
      vertex 13.8488 -76.2457 -16.8573
      vertex 13.9568 -80.3084 -15.7093
      vertex 12.4684 -78.4169 -15.5707
    endloop
  endfacet
  facet normal -0.427974 -0.259448 -0.865751
    outer loop
      vertex 13.9568 -80.3084 -15.7093
      vertex 12.3925 -82.3456 -14.3255
      vertex 10.9476 -80.439 -14.1826
    endloop
  endfacet
  facet normal -0.425978 -0.271969 -0.862888
    outer loop
      vertex 12.4684 -78.4169 -15.5707
      vertex 13.9568 -80.3084 -15.7093
      vertex 10.9476 -80.439 -14.1826
    endloop
  endfacet
  facet normal -0.346849 -0.267626 -0.898928
    outer loop
      vertex 16.9888 -80.0001 -17.0211
      vertex 15.4719 -82.2563 -15.7641
      vertex 15.4168 -78.1045 -16.9789
    endloop
  endfacet
  facet normal -0.373002 -0.265112 -0.889148
    outer loop
      vertex 15.4168 -78.1045 -16.9789
      vertex 15.4719 -82.2563 -15.7641
      vertex 13.9568 -80.3084 -15.7093
    endloop
  endfacet
  facet normal -0.398656 -0.286682 -0.871141
    outer loop
      vertex 15.4719 -82.2563 -15.7641
      vertex 13.8942 -84.3205 -14.3628
      vertex 12.3925 -82.3456 -14.3255
    endloop
  endfacet
  facet normal -0.398807 -0.285682 -0.871401
    outer loop
      vertex 13.9568 -80.3084 -15.7093
      vertex 15.4719 -82.2563 -15.7641
      vertex 12.3925 -82.3456 -14.3255
    endloop
  endfacet
  facet normal -0.287255 -0.301096 -0.909299
    outer loop
      vertex 18.5753 -82.0171 -16.8544
      vertex 17.0361 -84.307 -15.6099
      vertex 16.9888 -80.0001 -17.0211
    endloop
  endfacet
  facet normal -0.303721 -0.299673 -0.904405
    outer loop
      vertex 16.9888 -80.0001 -17.0211
      vertex 17.0361 -84.307 -15.6099
      vertex 15.4719 -82.2563 -15.7641
    endloop
  endfacet
  facet normal -0.346575 -0.333439 -0.876758
    outer loop
      vertex 17.0361 -84.307 -15.6099
      vertex 15.4816 -86.3922 -14.2024
      vertex 13.8942 -84.3205 -14.3628
    endloop
  endfacet
  facet normal -0.346949 -0.330636 -0.877671
    outer loop
      vertex 15.4719 -82.2563 -15.7641
      vertex 17.0361 -84.307 -15.6099
      vertex 13.8942 -84.3205 -14.3628
    endloop
  endfacet
  facet normal -0.21995 -0.337474 -0.915278
    outer loop
      vertex 20.1951 -84.2092 -16.4354
      vertex 18.6926 -86.5138 -15.2246
      vertex 18.5753 -82.0171 -16.8544
    endloop
  endfacet
  facet normal -0.236324 -0.336543 -0.911531
    outer loop
      vertex 18.5753 -82.0171 -16.8544
      vertex 18.6926 -86.5138 -15.2246
      vertex 17.0361 -84.307 -15.6099
    endloop
  endfacet
  facet normal -0.294513 -0.369948 -0.881136
    outer loop
      vertex 18.6926 -86.5138 -15.2246
      vertex 17.1981 -88.5766 -13.859
      vertex 15.4816 -86.3922 -14.2024
    endloop
  endfacet
  facet normal -0.294131 -0.374327 -0.879412
    outer loop
      vertex 17.0361 -84.307 -15.6099
      vertex 18.6926 -86.5138 -15.2246
      vertex 15.4816 -86.3922 -14.2024
    endloop
  endfacet
  facet normal -0.188621 -0.357122 -0.914815
    outer loop
      vertex 20.1951 -84.2092 -16.4354
      vertex 21 -87.9916 -15.1248
      vertex 20.5096 -88.7972 -14.7092
    endloop
  endfacet
  facet normal -0.188594 -0.357118 -0.914822
    outer loop
      vertex 21 -87.9916 -15.1248
      vertex 20.1951 -84.2092 -16.4354
      vertex 21 -85.2898 -16.1795
    endloop
  endfacet
  facet normal -0.189333 -0.357116 -0.91467
    outer loop
      vertex 20.1951 -84.2092 -16.4354
      vertex 20.5096 -88.7972 -14.7092
      vertex 18.6926 -86.5138 -15.2246
    endloop
  endfacet
  facet normal -0.253973 -0.388114 -0.885926
    outer loop
      vertex 17.387 -88.8 -13.8128
      vertex 20.5096 -88.7972 -14.7092
      vertex 20.5076 -88.8 -14.7074
    endloop
  endfacet
  facet normal -0.252988 -0.396428 -0.88252
    outer loop
      vertex 20.5096 -88.7972 -14.7092
      vertex 17.387 -88.8 -13.8128
      vertex 17.1981 -88.5766 -13.859
    endloop
  endfacet
  facet normal -0.252823 -0.400025 -0.880943
    outer loop
      vertex 18.6926 -86.5138 -15.2246
      vertex 20.5096 -88.7972 -14.7092
      vertex 17.1981 -88.5766 -13.859
    endloop
  endfacet
  facet normal -0.157868 -0.374966 -0.913498
    outer loop
      vertex 20.5096 -88.7972 -14.7092
      vertex 21 -88.8 -14.7928
      vertex 20.5122 -88.8 -14.7085
    endloop
  endfacet
  facet normal -0.157857 -0.375135 -0.91343
    outer loop
      vertex 21 -88.8 -14.7928
      vertex 20.5096 -88.7972 -14.7092
      vertex 21 -87.9916 -15.1248
    endloop
  endfacet
  facet normal -0.211362 -0.417235 -0.883879
    outer loop
      vertex 20.5096 -88.7972 -14.7092
      vertex 20.5122 -88.8 -14.7085
      vertex 20.5076 -88.8 -14.7074
    endloop
  endfacet
  facet normal -0.885744 -0.0557737 -0.46081
    outer loop
      vertex 2.63049 -72.091 -9.77198
      vertex 2.56615 -71.9393 -9.66667
      vertex 2.53034 -71.3706 -9.66667
    endloop
  endfacet
  facet normal -0.866149 -0.0207034 -0.499357
    outer loop
      vertex 2.63049 -72.091 -9.77198
      vertex 2.56969 -72.0874 -9.66667
      vertex 2.56615 -71.9393 -9.66667
    endloop
  endfacet
  facet normal -0.821558 -0.101397 -0.561036
    outer loop
      vertex 3.32294 -73.7801 -10.4807
      vertex 2.58648 -72.3171 -9.66667
      vertex 2.63049 -72.091 -9.77198
    endloop
  endfacet
  facet normal -0.821564 -0.101406 -0.561026
    outer loop
      vertex 2.58648 -72.3171 -9.66667
      vertex 3.32294 -73.7801 -10.4807
      vertex 2.79525 -74.0085 -9.66667
    endloop
  endfacet
  facet normal -0.865229 -0.0632442 -0.497372
    outer loop
      vertex 2.63049 -72.091 -9.77198
      vertex 2.58648 -72.3171 -9.66667
      vertex 2.56969 -72.0874 -9.66667
    endloop
  endfacet
  facet normal -0.777115 -0.133913 -0.614947
    outer loop
      vertex 3.56254 -71.1566 -11.1533
      vertex 4.44827 -72.4585 -11.9891
      vertex 2.63049 -72.091 -9.77198
    endloop
  endfacet
  facet normal -0.776593 -0.0550377 -0.627593
    outer loop
      vertex 4.44827 -72.4585 -11.9891
      vertex 3.32294 -73.7801 -10.4807
      vertex 2.63049 -72.091 -9.77198
    endloop
  endfacet
  facet normal -0.68481 -0.154556 -0.712143
    outer loop
      vertex 4.44827 -72.4585 -11.9891
      vertex 5.55545 -73.8071 -12.7611
      vertex 4.28829 -75.3441 -11.209
    endloop
  endfacet
  facet normal -0.730877 -0.140064 -0.667983
    outer loop
      vertex 4.44827 -72.4585 -11.9891
      vertex 4.28829 -75.3441 -11.209
      vertex 3.32294 -73.7801 -10.4807
    endloop
  endfacet
  facet normal -0.77861 -0.0927238 -0.62062
    outer loop
      vertex 4.28829 -75.3441 -11.209
      vertex 3.15375 -76.1404 -9.66667
      vertex 2.97782 -74.6631 -9.66667
    endloop
  endfacet
  facet normal -0.789193 -0.220108 -0.573347
    outer loop
      vertex 3.32294 -73.7801 -10.4807
      vertex 2.97782 -74.6631 -9.66667
      vertex 2.79525 -74.0085 -9.66667
    endloop
  endfacet
  facet normal -0.789185 -0.220118 -0.573355
    outer loop
      vertex 2.97782 -74.6631 -9.66667
      vertex 3.32294 -73.7801 -10.4807
      vertex 4.28829 -75.3441 -11.209
    endloop
  endfacet
  facet normal -0.650891 -0.136539 -0.746792
    outer loop
      vertex 5.48217 -70.4645 -13.2548
      vertex 6.72039 -71.827 -14.0849
      vertex 4.44827 -72.4585 -11.9891
    endloop
  endfacet
  facet normal -0.656695 -0.11223 -0.745759
    outer loop
      vertex 6.72039 -71.827 -14.0849
      vertex 5.55545 -73.8071 -12.7611
      vertex 4.44827 -72.4585 -11.9891
    endloop
  endfacet
  facet normal -0.57805 -0.182687 -0.795288
    outer loop
      vertex 8.06379 -73.316 -14.7193
      vertex 6.80533 -75.2989 -13.3491
      vertex 6.72039 -71.827 -14.0849
    endloop
  endfacet
  facet normal -0.587587 -0.181492 -0.788544
    outer loop
      vertex 6.72039 -71.827 -14.0849
      vertex 6.80533 -75.2989 -13.3491
      vertex 5.55545 -73.8071 -12.7611
    endloop
  endfacet
  facet normal -0.634754 -0.184173 -0.750445
    outer loop
      vertex 6.80533 -75.2989 -13.3491
      vertex 5.43178 -76.9524 -11.7815
      vertex 4.28829 -75.3441 -11.209
    endloop
  endfacet
  facet normal -0.627511 -0.232911 -0.742955
    outer loop
      vertex 5.55545 -73.8071 -12.7611
      vertex 6.80533 -75.2989 -13.3491
      vertex 4.28829 -75.3441 -11.209
    endloop
  endfacet
  facet normal -0.557905 -0.137239 -0.818479
    outer loop
      vertex 7.76875 -69.5816 -15.176
      vertex 9.20829 -71.111 -15.9008
      vertex 6.72039 -71.827 -14.0849
    endloop
  endfacet
  facet normal -0.554053 -0.15108 -0.818658
    outer loop
      vertex 9.20829 -71.111 -15.9008
      vertex 8.06379 -73.316 -14.7193
      vertex 6.72039 -71.827 -14.0849
    endloop
  endfacet
  facet normal -0.49734 -0.205951 -0.842755
    outer loop
      vertex 10.7194 -72.7366 -16.3953
      vertex 9.4986 -74.9089 -15.144
      vertex 9.20829 -71.111 -15.9008
    endloop
  endfacet
  facet normal -0.481426 -0.206537 -0.851805
    outer loop
      vertex 9.20829 -71.111 -15.9008
      vertex 9.4986 -74.9089 -15.144
      vertex 8.06379 -73.316 -14.7193
    endloop
  endfacet
  facet normal -0.516628 -0.229107 -0.824988
    outer loop
      vertex 9.4986 -74.9089 -15.144
      vertex 8.15168 -76.901 -13.7473
      vertex 6.80533 -75.2989 -13.3491
    endloop
  endfacet
  facet normal -0.513347 -0.242951 -0.823073
    outer loop
      vertex 8.06379 -73.316 -14.7193
      vertex 9.4986 -74.9089 -15.144
      vertex 6.80533 -75.2989 -13.3491
    endloop
  endfacet
  facet normal -0.478515 -0.148232 -0.865477
    outer loop
      vertex 10.2764 -68.7513 -16.8955
      vertex 11.8553 -70.4075 -17.4848
      vertex 9.20829 -71.111 -15.9008
    endloop
  endfacet
  facet normal -0.470972 -0.174776 -0.864661
    outer loop
      vertex 11.8553 -70.4075 -17.4848
      vertex 10.7194 -72.7366 -16.3953
      vertex 9.20829 -71.111 -15.9008
    endloop
  endfacet
  facet normal -0.431119 -0.21805 -0.875552
    outer loop
      vertex 13.4714 -72.1436 -17.8482
      vertex 12.2755 -74.4502 -16.6849
      vertex 11.8553 -70.4075 -17.4848
    endloop
  endfacet
  facet normal -0.405097 -0.217799 -0.887953
    outer loop
      vertex 11.8553 -70.4075 -17.4848
      vertex 12.2755 -74.4502 -16.6849
      vertex 10.7194 -72.7366 -16.3953
    endloop
  endfacet
  facet normal -0.437312 -0.252293 -0.863196
    outer loop
      vertex 12.2755 -74.4502 -16.6849
      vertex 10.9801 -76.6109 -15.3971
      vertex 9.4986 -74.9089 -15.144
    endloop
  endfacet
  facet normal -0.437536 -0.251416 -0.863338
    outer loop
      vertex 10.7194 -72.7366 -16.3953
      vertex 12.2755 -74.4502 -16.6849
      vertex 9.4986 -74.9089 -15.144
    endloop
  endfacet
  facet normal -0.408657 -0.158615 -0.8988
    outer loop
      vertex 12.9523 -67.9373 -18.4195
      vertex 14.6121 -69.6682 -18.8687
      vertex 11.8553 -70.4075 -17.4848
    endloop
  endfacet
  facet normal -0.400749 -0.185233 -0.897267
    outer loop
      vertex 14.6121 -69.6682 -18.8687
      vertex 13.4714 -72.1436 -17.8482
      vertex 11.8553 -70.4075 -17.4848
    endloop
  endfacet
  facet normal -0.375945 -0.216357 -0.90103
    outer loop
      vertex 16.2811 -71.4376 -19.1402
      vertex 15.1062 -73.9321 -18.051
      vertex 14.6121 -69.6682 -18.8687
    endloop
  endfacet
  facet normal -0.348736 -0.215337 -0.912148
    outer loop
      vertex 14.6121 -69.6682 -18.8687
      vertex 15.1062 -73.9321 -18.051
      vertex 13.4714 -72.1436 -17.8482
    endloop
  endfacet
  facet normal -0.383224 -0.250433 -0.889057
    outer loop
      vertex 15.1062 -73.9321 -18.051
      vertex 13.8488 -76.2457 -16.8573
      vertex 12.2755 -74.4502 -16.6849
    endloop
  endfacet
  facet normal -0.38343 -0.249653 -0.889188
    outer loop
      vertex 13.4714 -72.1436 -17.8482
      vertex 15.1062 -73.9321 -18.051
      vertex 12.2755 -74.4502 -16.6849
    endloop
  endfacet
  facet normal -0.331497 -0.242454 -0.911771
    outer loop
      vertex 17.9576 -73.2225 -19.2751
      vertex 16.7427 -75.7462 -18.1623
      vertex 16.2811 -71.4376 -19.1402
    endloop
  endfacet
  facet normal -0.330777 -0.242438 -0.912037
    outer loop
      vertex 16.2811 -71.4376 -19.1402
      vertex 16.7427 -75.7462 -18.1623
      vertex 15.1062 -73.9321 -18.051
    endloop
  endfacet
  facet normal -0.36258 -0.24707 -0.898606
    outer loop
      vertex 16.7427 -75.7462 -18.1623
      vertex 15.4168 -78.1045 -16.9789
      vertex 13.8488 -76.2457 -16.8573
    endloop
  endfacet
  facet normal -0.357362 -0.267475 -0.894846
    outer loop
      vertex 15.1062 -73.9321 -18.051
      vertex 16.7427 -75.7462 -18.1623
      vertex 13.8488 -76.2457 -16.8573
    endloop
  endfacet
  facet normal -0.273548 -0.26082 -0.925821
    outer loop
      vertex 19.6517 -75.0298 -19.2665
      vertex 18.3909 -77.5915 -18.1723
      vertex 17.9576 -73.2225 -19.2751
    endloop
  endfacet
  facet normal -0.298118 -0.2613 -0.918068
    outer loop
      vertex 17.9576 -73.2225 -19.2751
      vertex 18.3909 -77.5915 -18.1723
      vertex 16.7427 -75.7462 -18.1623
    endloop
  endfacet
  facet normal -0.323611 -0.248039 -0.913101
    outer loop
      vertex 18.3909 -77.5915 -18.1723
      vertex 16.9888 -80.0001 -17.0211
      vertex 15.4168 -78.1045 -16.9789
    endloop
  endfacet
  facet normal -0.31617 -0.277483 -0.907215
    outer loop
      vertex 16.7427 -75.7462 -18.1623
      vertex 18.3909 -77.5915 -18.1723
      vertex 15.4168 -78.1045 -16.9789
    endloop
  endfacet
  facet normal -0.199028 -0.28467 -0.937737
    outer loop
      vertex 19.6517 -75.0298 -19.2665
      vertex 21 -77.5991 -18.7727
      vertex 20.0408 -79.5384 -17.9804
    endloop
  endfacet
  facet normal -0.199067 -0.284689 -0.937723
    outer loop
      vertex 21 -77.5991 -18.7727
      vertex 19.6517 -75.0298 -19.2665
      vertex 21 -76.4894 -19.1096
    endloop
  endfacet
  facet normal -0.228315 -0.285238 -0.930866
    outer loop
      vertex 19.6517 -75.0298 -19.2665
      vertex 20.0408 -79.5384 -17.9804
      vertex 18.3909 -77.5915 -18.1723
    endloop
  endfacet
  facet normal -0.250467 -0.273756 -0.928614
    outer loop
      vertex 20.0408 -79.5384 -17.9804
      vertex 18.5753 -82.0171 -16.8544
      vertex 16.9888 -80.0001 -17.0211
    endloop
  endfacet
  facet normal -0.24482 -0.298401 -0.922508
    outer loop
      vertex 18.3909 -77.5915 -18.1723
      vertex 20.0408 -79.5384 -17.9804
      vertex 16.9888 -80.0001 -17.0211
    endloop
  endfacet
  facet normal -0.151782 -0.308562 -0.939016
    outer loop
      vertex 21 -77.5991 -18.7727
      vertex 21 -80.7616 -17.7335
      vertex 20.0408 -79.5384 -17.9804
    endloop
  endfacet
  facet normal -0.173753 -0.30723 -0.935639
    outer loop
      vertex 18.5753 -82.0171 -16.8544
      vertex 21 -82.8058 -17.0457
      vertex 20.1951 -84.2092 -16.4354
    endloop
  endfacet
  facet normal -0.173755 -0.307237 -0.935636
    outer loop
      vertex 21 -82.8058 -17.0457
      vertex 18.5753 -82.0171 -16.8544
      vertex 21 -81.7107 -17.4053
    endloop
  endfacet
  facet normal -0.170879 -0.322006 -0.931189
    outer loop
      vertex 18.5753 -82.0171 -16.8544
      vertex 21 -80.7616 -17.7335
      vertex 21 -81.7107 -17.4053
    endloop
  endfacet
  facet normal -0.170898 -0.321974 -0.931196
    outer loop
      vertex 21 -80.7616 -17.7335
      vertex 18.5753 -82.0171 -16.8544
      vertex 20.0408 -79.5384 -17.9804
    endloop
  endfacet
  facet normal -0.135335 -0.32265 -0.936793
    outer loop
      vertex 21 -84.0962 -16.5906
      vertex 21 -85.2898 -16.1795
      vertex 20.1951 -84.2092 -16.4354
    endloop
  endfacet
  facet normal -0.13393 -0.329606 -0.934571
    outer loop
      vertex 21 -82.8058 -17.0457
      vertex 21 -84.0962 -16.5906
      vertex 20.1951 -84.2092 -16.4354
    endloop
  endfacet
  facet normal -0.872734 0.0259524 -0.487506
    outer loop
      vertex 2.55596 -66.6 -9.84057
      vertex 2.43531 -67.3906 -9.66667
      vertex 2.45882 -66.6 -9.66667
    endloop
  endfacet
  facet normal -0.872644 0.0259027 -0.48767
    outer loop
      vertex 2.43531 -67.3906 -9.66667
      vertex 2.55596 -66.6 -9.84057
      vertex 2.45094 -67.4023 -9.69526
    endloop
  endfacet
  facet normal -0.818969 0.0229754 -0.573378
    outer loop
      vertex 3.40099 -68.1559 -11.0825
      vertex 3.1627 -66.6 -10.6798
      vertex 3.73512 -66.6 -11.4974
    endloop
  endfacet
  facet normal -0.818984 0.0229676 -0.573357
    outer loop
      vertex 3.1627 -66.6 -10.6798
      vertex 3.40099 -68.1559 -11.0825
      vertex 2.45094 -67.4023 -9.69526
    endloop
  endfacet
  facet normal -0.810391 -3.54513e-05 -0.58589
    outer loop
      vertex 2.55596 -66.6 -9.84057
      vertex 3.1627 -66.6 -10.6798
      vertex 2.45094 -67.4023 -9.69526
    endloop
  endfacet
  facet normal -0.724747 0.0170956 -0.688803
    outer loop
      vertex 5.20498 -66.6 -13.1622
      vertex 5.12302 -66.8795 -13.0829
      vertex 5.07563 -66.6 -13.0261
    endloop
  endfacet
  facet normal -0.744095 0.00958869 -0.668005
    outer loop
      vertex 5.07563 -66.6 -13.0261
      vertex 5.12302 -66.8795 -13.0829
      vertex 4.82516 -66.6 -12.7471
    endloop
  endfacet
  facet normal -0.759819 0.00623839 -0.650104
    outer loop
      vertex 5.12302 -66.8795 -13.0829
      vertex 4.38348 -69.2397 -12.2412
      vertex 3.40099 -68.1559 -11.0825
    endloop
  endfacet
  facet normal -0.753554 -0.0134132 -0.65725
    outer loop
      vertex 3.40099 -68.1559 -11.0825
      vertex 4.82516 -66.6 -12.7471
      vertex 5.12302 -66.8795 -13.0829
    endloop
  endfacet
  facet normal -0.753538 -0.0134459 -0.657267
    outer loop
      vertex 4.82516 -66.6 -12.7471
      vertex 3.40099 -68.1559 -11.0825
      vertex 3.73512 -66.6 -11.4974
    endloop
  endfacet
  facet normal -0.663454 -0.00843279 -0.74817
    outer loop
      vertex 6.96124 -66.6 -14.7469
      vertex 6.40207 -68.1655 -14.2334
      vertex 6.17276 -66.6 -14.0477
    endloop
  endfacet
  facet normal -0.675006 -0.0113639 -0.737725
    outer loop
      vertex 5.12302 -66.8795 -13.0829
      vertex 6.17276 -66.6 -14.0477
      vertex 6.40207 -68.1655 -14.2334
    endloop
  endfacet
  facet normal -0.675005 -0.0113712 -0.737726
    outer loop
      vertex 6.17276 -66.6 -14.0477
      vertex 5.12302 -66.8795 -13.0829
      vertex 5.20498 -66.6 -13.1622
    endloop
  endfacet
  facet normal -0.694547 -0.0280994 -0.718899
    outer loop
      vertex 6.40207 -68.1655 -14.2334
      vertex 5.48217 -70.4645 -13.2548
      vertex 4.38348 -69.2397 -12.2412
    endloop
  endfacet
  facet normal -0.690695 -0.0410535 -0.72198
    outer loop
      vertex 5.12302 -66.8795 -13.0829
      vertex 6.40207 -68.1655 -14.2334
      vertex 4.38348 -69.2397 -12.2412
    endloop
  endfacet
  facet normal -0.605278 -0.0484421 -0.794539
    outer loop
      vertex 7.38166 -66.6 -15.0629
      vertex 8.74749 -67.1919 -16.0673
      vertex 7.76875 -69.5816 -15.176
    endloop
  endfacet
  facet normal -0.605273 -0.04842 -0.794544
    outer loop
      vertex 8.74749 -67.1919 -16.0673
      vertex 7.38166 -66.6 -15.0629
      vertex 8.14631 -66.6 -15.6454
    endloop
  endfacet
  facet normal -0.600079 -0.047616 -0.798522
    outer loop
      vertex 6.40207 -68.1655 -14.2334
      vertex 7.38166 -66.6 -15.0629
      vertex 7.76875 -69.5816 -15.176
    endloop
  endfacet
  facet normal -0.600154 -0.0475417 -0.798471
    outer loop
      vertex 7.38166 -66.6 -15.0629
      vertex 6.40207 -68.1655 -14.2334
      vertex 6.96124 -66.6 -14.7469
    endloop
  endfacet
  facet normal -0.620359 -0.0890173 -0.77925
    outer loop
      vertex 7.76875 -69.5816 -15.176
      vertex 6.72039 -71.827 -14.0849
      vertex 5.48217 -70.4645 -13.2548
    endloop
  endfacet
  facet normal -0.622262 -0.082377 -0.778463
    outer loop
      vertex 6.40207 -68.1655 -14.2334
      vertex 7.76875 -69.5816 -15.176
      vertex 5.48217 -70.4645 -13.2548
    endloop
  endfacet
  facet normal -0.591886 -0.0269631 -0.805571
    outer loop
      vertex 8.97531 -66.6 -16.2545
      vertex 8.74749 -67.1919 -16.0673
      vertex 8.14631 -66.6 -15.6454
    endloop
  endfacet
  facet normal -0.533758 -0.0666944 -0.843003
    outer loop
      vertex 11.1768 -66.6 -17.6358
      vertex 10.2764 -68.7513 -16.8955
      vertex 9.97079 -66.6 -16.8722
    endloop
  endfacet
  facet normal -0.526149 -0.0655609 -0.847861
    outer loop
      vertex 8.74749 -67.1919 -16.0673
      vertex 9.97079 -66.6 -16.8722
      vertex 10.2764 -68.7513 -16.8955
    endloop
  endfacet
  facet normal -0.526112 -0.0656594 -0.847877
    outer loop
      vertex 9.97079 -66.6 -16.8722
      vertex 8.74749 -67.1919 -16.0673
      vertex 8.97531 -66.6 -16.2545
    endloop
  endfacet
  facet normal -0.537249 -0.109349 -0.836305
    outer loop
      vertex 10.2764 -68.7513 -16.8955
      vertex 9.20829 -71.111 -15.9008
      vertex 7.76875 -69.5816 -15.176
    endloop
  endfacet
  facet normal -0.543066 -0.0889986 -0.83496
    outer loop
      vertex 8.74749 -67.1919 -16.0673
      vertex 10.2764 -68.7513 -16.8955
      vertex 7.76875 -69.5816 -15.176
    endloop
  endfacet
  facet normal -0.472496 -0.0968902 -0.875991
    outer loop
      vertex 13.5118 -66.6 -18.8692
      vertex 12.9523 -67.9373 -18.4195
      vertex 12.7539 -66.6 -18.4604
    endloop
  endfacet
  facet normal -0.45849 -0.0950451 -0.883602
    outer loop
      vertex 12.7539 -66.6 -18.4604
      vertex 12.9523 -67.9373 -18.4195
      vertex 11.6288 -66.6 -17.8766
    endloop
  endfacet
  facet normal -0.461323 -0.127372 -0.878042
    outer loop
      vertex 12.9523 -67.9373 -18.4195
      vertex 11.8553 -70.4075 -17.4848
      vertex 10.2764 -68.7513 -16.8955
    endloop
  endfacet
  facet normal -0.467459 -0.106361 -0.877593
    outer loop
      vertex 10.2764 -68.7513 -16.8955
      vertex 11.6288 -66.6 -17.8766
      vertex 12.9523 -67.9373 -18.4195
    endloop
  endfacet
  facet normal -0.467518 -0.106312 -0.877567
    outer loop
      vertex 11.6288 -66.6 -17.8766
      vertex 10.2764 -68.7513 -16.8955
      vertex 11.1768 -66.6 -17.6358
    endloop
  endfacet
  facet normal -0.442003 -0.133321 -0.88705
    outer loop
      vertex 15.9184 -66.6 -19.9863
      vertex 15.7262 -67.0706 -19.8198
      vertex 15.6561 -66.6 -19.8556
    endloop
  endfacet
  facet normal -0.414858 -0.130301 -0.900508
    outer loop
      vertex 15.6561 -66.6 -19.8556
      vertex 15.7262 -67.0706 -19.8198
      vertex 15.2554 -66.6 -19.671
    endloop
  endfacet
  facet normal -0.405984 -0.155602 -0.900536
    outer loop
      vertex 15.7262 -67.0706 -19.8198
      vertex 14.6121 -69.6682 -18.8687
      vertex 12.9523 -67.9373 -18.4195
    endloop
  endfacet
  facet normal -0.414278 -0.129605 -0.900875
    outer loop
      vertex 12.9523 -67.9373 -18.4195
      vertex 15.2554 -66.6 -19.671
      vertex 15.7262 -67.0706 -19.8198
    endloop
  endfacet
  facet normal -0.414271 -0.129619 -0.900877
    outer loop
      vertex 15.2554 -66.6 -19.671
      vertex 12.9523 -67.9373 -18.4195
      vertex 13.5118 -66.6 -18.8692
    endloop
  endfacet
  facet normal -0.408439 -0.175818 -0.895693
    outer loop
      vertex 18.3304 -66.6 -21.0228
      vertex 17.4223 -68.8059 -20.1757
      vertex 17.1212 -66.6 -20.4714
    endloop
  endfacet
  facet normal -0.368409 -0.172738 -0.913475
    outer loop
      vertex 15.7262 -67.0706 -19.8198
      vertex 17.1212 -66.6 -20.4714
      vertex 17.4223 -68.8059 -20.1757
    endloop
  endfacet
  facet normal -0.368413 -0.172726 -0.913476
    outer loop
      vertex 17.1212 -66.6 -20.4714
      vertex 15.7262 -67.0706 -19.8198
      vertex 15.9184 -66.6 -19.9863
    endloop
  endfacet
  facet normal -0.36159 -0.20139 -0.910327
    outer loop
      vertex 17.4223 -68.8059 -20.1757
      vertex 16.2811 -71.4376 -19.1402
      vertex 14.6121 -69.6682 -18.8687
    endloop
  endfacet
  facet normal -0.370524 -0.175072 -0.912174
    outer loop
      vertex 15.7262 -67.0706 -19.8198
      vertex 17.4223 -68.8059 -20.1757
      vertex 14.6121 -69.6682 -18.8687
    endloop
  endfacet
  facet normal -0.362041 -0.218729 -0.906137
    outer loop
      vertex 18.6088 -66.6 -21.1228
      vertex 20.2598 -67.7875 -21.4958
      vertex 19.1187 -70.5585 -20.371
    endloop
  endfacet
  facet normal -0.362021 -0.218697 -0.906153
    outer loop
      vertex 20.2598 -67.7875 -21.4958
      vertex 18.6088 -66.6 -21.1228
      vertex 19.0621 -66.6 -21.3039
    endloop
  endfacet
  facet normal -0.329943 -0.216985 -0.918725
    outer loop
      vertex 17.4223 -68.8059 -20.1757
      vertex 18.6088 -66.6 -21.1228
      vertex 19.1187 -70.5585 -20.371
    endloop
  endfacet
  facet normal -0.329998 -0.216951 -0.918713
    outer loop
      vertex 18.6088 -66.6 -21.1228
      vertex 17.4223 -68.8059 -20.1757
      vertex 18.3304 -66.6 -21.0228
    endloop
  endfacet
  facet normal -0.324419 -0.235476 -0.916135
    outer loop
      vertex 19.1187 -70.5585 -20.371
      vertex 17.9576 -73.2225 -19.2751
      vertex 16.2811 -71.4376 -19.1402
    endloop
  endfacet
  facet normal -0.330782 -0.217854 -0.918217
    outer loop
      vertex 17.4223 -68.8059 -20.1757
      vertex 19.1187 -70.5585 -20.371
      vertex 16.2811 -71.4376 -19.1402
    endloop
  endfacet
  facet normal -0.290532 -0.262304 -0.920211
    outer loop
      vertex 20.2598 -67.7875 -21.4958
      vertex 21 -71.8826 -20.5622
      vertex 20.8288 -72.3034 -20.3882
    endloop
  endfacet
  facet normal -0.290991 -0.262351 -0.920052
    outer loop
      vertex 21 -71.8826 -20.5622
      vertex 20.2598 -67.7875 -21.4958
      vertex 21 -68.5047 -21.5254
    endloop
  endfacet
  facet normal -0.276253 -0.261628 -0.924789
    outer loop
      vertex 20.2598 -67.7875 -21.4958
      vertex 20.8288 -72.3034 -20.3882
      vertex 19.1187 -70.5585 -20.371
    endloop
  endfacet
  facet normal -0.274788 -0.261979 -0.925126
    outer loop
      vertex 20.8288 -72.3034 -20.3882
      vertex 19.6517 -75.0298 -19.2665
      vertex 17.9576 -73.2225 -19.2751
    endloop
  endfacet
  facet normal -0.27529 -0.260678 -0.925345
    outer loop
      vertex 19.1187 -70.5585 -20.371
      vertex 20.8288 -72.3034 -20.3882
      vertex 17.9576 -73.2225 -19.2751
    endloop
  endfacet
  facet normal -0.205624 -0.301343 -0.931081
    outer loop
      vertex 21 -71.8826 -20.5622
      vertex 21 -72.4746 -20.3706
      vertex 20.8288 -72.3034 -20.3882
    endloop
  endfacet
  facet normal -0.204602 -0.289514 -0.935051
    outer loop
      vertex 21 -74.5619 -19.7064
      vertex 21 -76.4894 -19.1096
      vertex 19.6517 -75.0298 -19.2665
    endloop
  endfacet
  facet normal -0.201456 -0.297011 -0.933381
    outer loop
      vertex 19.6517 -75.0298 -19.2665
      vertex 21 -72.4746 -20.3706
      vertex 21 -74.5619 -19.7064
    endloop
  endfacet
  facet normal -0.201197 -0.297153 -0.933392
    outer loop
      vertex 21 -72.4746 -20.3706
      vertex 19.6517 -75.0298 -19.2665
      vertex 20.8288 -72.3034 -20.3882
    endloop
  endfacet
  facet normal -0.353759 -0.209487 -0.911576
    outer loop
      vertex 20.7391 -66.6 -21.9547
      vertex 20.2598 -67.7875 -21.4958
      vertex 19.0621 -66.6 -21.3039
    endloop
  endfacet
  facet normal -0.2855 -0.256546 -0.923404
    outer loop
      vertex 21 -67.4688 -21.8132
      vertex 21 -68.5047 -21.5254
      vertex 20.2598 -67.7875 -21.4958
    endloop
  endfacet
  facet normal -0.294049 -0.239024 -0.92542
    outer loop
      vertex 21 -67.4688 -21.8132
      vertex 20.7391 -66.6 -21.9547
      vertex 21 -66.6 -22.0376
    endloop
  endfacet
  facet normal -0.293938 -0.238998 -0.925462
    outer loop
      vertex 20.7391 -66.6 -21.9547
      vertex 21 -67.4688 -21.8132
      vertex 20.2598 -67.7875 -21.4958
    endloop
  endfacet
endsolid OpenSCAD_Model
