solid OpenSCAD_Model
  facet normal 0 0 1
    outer loop
      vertex 60.8761 -62.4915 -9.66667
      vertex 60.86 -62.9713 -9.66667
      vertex 60.8876 -62.7612 -9.66667
    endloop
  endfacet
  facet normal 0 0 1
    outer loop
      vertex 42 -66.6 -9.66667
      vertex 60.8761 -62.4915 -9.66667
      vertex 60.8518 -60.0648 -9.66667
    endloop
  endfacet
  facet normal 0 0 1
    outer loop
      vertex 42 -66.6 -9.66667
      vertex 60.8518 -60.0648 -9.66667
      vertex 60.628 -58.4377 -9.66667
    endloop
  endfacet
  facet normal 0 -0 1
    outer loop
      vertex 60.5915 -64.5665 -9.66667
      vertex 60.8761 -62.4915 -9.66667
      vertex 42 -66.6 -9.66667
    endloop
  endfacet
  facet normal 0 0 1
    outer loop
      vertex 60.8761 -62.4915 -9.66667
      vertex 60.5915 -64.5665 -9.66667
      vertex 60.86 -62.9713 -9.66667
    endloop
  endfacet
  facet normal 0 -0 1
    outer loop
      vertex 60.0067 -66.6 -9.66667
      vertex 60.5915 -64.5665 -9.66667
      vertex 42 -66.6 -9.66667
    endloop
  endfacet
  facet normal 0 0 1
    outer loop
      vertex 42 -66.6 -9.66667
      vertex 60.628 -58.4377 -9.66667
      vertex 60.4375 -57.3772 -9.66667
    endloop
  endfacet
  facet normal 0 0 1
    outer loop
      vertex 60.5915 -64.5665 -9.66667
      vertex 60.4315 -65.3633 -9.66667
      vertex 60.4789 -65.1974 -9.66667
    endloop
  endfacet
  facet normal 0 0 1
    outer loop
      vertex 42 -66.6 -9.66667
      vertex 60.4375 -57.3772 -9.66667
      vertex 60.1842 -56.2809 -9.66667
    endloop
  endfacet
  facet normal 0 0 1
    outer loop
      vertex 60.4789 -65.1974 -9.66667
      vertex 60.4315 -65.3633 -9.66667
      vertex 60.4631 -65.2733 -9.66667
    endloop
  endfacet
  facet normal 0 0 1
    outer loop
      vertex 42 -66.6 -9.66667
      vertex 60.1842 -56.2809 -9.66667
      vertex 59.8811 -54.7928 -9.66667
    endloop
  endfacet
  facet normal 0 0 1
    outer loop
      vertex 42 -66.6 -9.66667
      vertex 59.8811 -54.7928 -9.66667
      vertex 59.656 -53.5898 -9.66667
    endloop
  endfacet
  facet normal 0 0 1
    outer loop
      vertex 42 -66.6 -9.66667
      vertex 59.656 -53.5898 -9.66667
      vertex 59.3569 -52.2771 -9.66667
    endloop
  endfacet
  facet normal 0 0 1
    outer loop
      vertex 42 -44.4 -9.66667
      vertex 59.3569 -52.2771 -9.66667
      vertex 59.1227 -51.0381 -9.66667
    endloop
  endfacet
  facet normal 0 0 1
    outer loop
      vertex 42 -44.4 -9.66667
      vertex 59.1227 -51.0381 -9.66667
      vertex 58.9223 -49.7271 -9.66667
    endloop
  endfacet
  facet normal 0 0 1
    outer loop
      vertex 42 -44.4 -9.66667
      vertex 58.9223 -49.7271 -9.66667
      vertex 58.7733 -48.4167 -9.66667
    endloop
  endfacet
  facet normal 0 0 1
    outer loop
      vertex 42 -44.4 -9.66667
      vertex 58.7733 -48.4167 -9.66667
      vertex 58.5903 -47.1169 -9.66667
    endloop
  endfacet
  facet normal 0 0 1
    outer loop
      vertex 42 -44.4 -9.66667
      vertex 58.5903 -47.1169 -9.66667
      vertex 58.4715 -45.9762 -9.66667
    endloop
  endfacet
  facet normal 0 0 1
    outer loop
      vertex 42 -44.4 -9.66667
      vertex 58.4715 -45.9762 -9.66667
      vertex 58.3576 -44.5531 -9.66667
    endloop
  endfacet
  facet normal -0 0 1
    outer loop
      vertex 42 -44.4 -9.66667
      vertex 58.3576 -44.5531 -9.66667
      vertex 58.3449 -44.4 -9.66667
    endloop
  endfacet
  facet normal 0 0 1
    outer loop
      vertex 59.3569 -52.2771 -9.66667
      vertex 42 -44.4 -9.66667
      vertex 42 -66.6 -9.66667
    endloop
  endfacet
  facet normal 0 0 1
    outer loop
      vertex 60.5915 -64.5665 -9.66667
      vertex 60.0067 -66.6 -9.66667
      vertex 60.4315 -65.3633 -9.66667
    endloop
  endfacet
  facet normal -1 0 0
    outer loop
      vertex 42 -44.9313 -26.924
      vertex 42 -44.4 -9.66667
      vertex 42 -44.4 -26.8761
    endloop
  endfacet
  facet normal -1 0 0
    outer loop
      vertex 42 -46.5924 -27.0508
      vertex 42 -44.4 -9.66667
      vertex 42 -44.9313 -26.924
    endloop
  endfacet
  facet normal -1 0 0
    outer loop
      vertex 42 -49.0006 -27.0567
      vertex 42 -44.4 -9.66667
      vertex 42 -46.5924 -27.0508
    endloop
  endfacet
  facet normal -1 0 0
    outer loop
      vertex 42 -49.6718 -27.0201
      vertex 42 -44.4 -9.66667
      vertex 42 -49.0006 -27.0567
    endloop
  endfacet
  facet normal -1 0 0
    outer loop
      vertex 42 -51.6865 -26.9212
      vertex 42 -44.4 -9.66667
      vertex 42 -49.6718 -27.0201
    endloop
  endfacet
  facet normal -1 0 0
    outer loop
      vertex 42 -52.9604 -26.8563
      vertex 42 -44.4 -9.66667
      vertex 42 -51.6865 -26.9212
    endloop
  endfacet
  facet normal -1 0 0
    outer loop
      vertex 42 -54.0743 -26.765
      vertex 42 -44.4 -9.66667
      vertex 42 -52.9604 -26.8563
    endloop
  endfacet
  facet normal -1 0 0
    outer loop
      vertex 42 -56.4038 -26.6262
      vertex 42 -44.4 -9.66667
      vertex 42 -54.0743 -26.765
    endloop
  endfacet
  facet normal -1 0 0
    outer loop
      vertex 42 -56.4423 -26.6199
      vertex 42 -56.4038 -26.6262
      vertex 42 -56.4121 -26.6249
    endloop
  endfacet
  facet normal -1 0 0
    outer loop
      vertex 42 -56.4423 -26.6199
      vertex 42 -56.4121 -26.6249
      vertex 42 -56.4165 -26.6243
    endloop
  endfacet
  facet normal -1 0 0
    outer loop
      vertex 42 -56.4038 -26.6262
      vertex 42 -56.4423 -26.6199
      vertex 42 -44.4 -9.66667
    endloop
  endfacet
  facet normal -1 0 0
    outer loop
      vertex 42 -66.6 -9.66667
      vertex 42 -56.4423 -26.6199
      vertex 42 -60.3037 -25.9425
    endloop
  endfacet
  facet normal -1 0 0
    outer loop
      vertex 42 -66.6 -9.66667
      vertex 42 -60.3037 -25.9425
      vertex 42 -60.9537 -25.7728
    endloop
  endfacet
  facet normal -1 0 0
    outer loop
      vertex 42 -66.6 -9.66667
      vertex 42 -60.9537 -25.7728
      vertex 42 -61.7084 -25.5997
    endloop
  endfacet
  facet normal -1 0 0
    outer loop
      vertex 42 -66.6 -9.66667
      vertex 42 -61.7084 -25.5997
      vertex 42 -63.0657 -25.1181
    endloop
  endfacet
  facet normal -1 0 0
    outer loop
      vertex 42 -66.6 -9.66667
      vertex 42 -63.0657 -25.1181
      vertex 42 -64.1063 -24.761
    endloop
  endfacet
  facet normal -1 0 0
    outer loop
      vertex 42 -66.6 -9.66667
      vertex 42 -64.1063 -24.761
      vertex 42 -65.8216 -24.0406
    endloop
  endfacet
  facet normal -1 0 0
    outer loop
      vertex 42 -66.6 -9.66667
      vertex 42 -65.8216 -24.0406
      vertex 42 -66.6 -23.6316
    endloop
  endfacet
  facet normal -1 0 0
    outer loop
      vertex 42 -56.4423 -26.6199
      vertex 42 -66.6 -9.66667
      vertex 42 -44.4 -9.66667
    endloop
  endfacet
  facet normal 0 1 -0
    outer loop
      vertex 57.9636 -44.4 -10.5514
      vertex 42 -44.4 -9.66667
      vertex 58.3449 -44.4 -9.66667
    endloop
  endfacet
  facet normal 0 1 -0
    outer loop
      vertex 57.7375 -44.4 -11.0712
      vertex 42 -44.4 -9.66667
      vertex 57.9636 -44.4 -10.5514
    endloop
  endfacet
  facet normal 0 1 -0
    outer loop
      vertex 56.7647 -44.4 -12.8453
      vertex 42 -44.4 -9.66667
      vertex 57.7375 -44.4 -11.0712
    endloop
  endfacet
  facet normal 0 1 -0
    outer loop
      vertex 56.2056 -44.4 -13.8528
      vertex 42 -44.4 -9.66667
      vertex 56.7647 -44.4 -12.8453
    endloop
  endfacet
  facet normal 0 1 -0
    outer loop
      vertex 55.7172 -44.4 -14.6102
      vertex 42 -44.4 -9.66667
      vertex 56.2056 -44.4 -13.8528
    endloop
  endfacet
  facet normal 0 1 -0
    outer loop
      vertex 54.3557 -44.4 -16.765
      vertex 42 -44.4 -9.66667
      vertex 55.7172 -44.4 -14.6102
    endloop
  endfacet
  facet normal 0 1 -0
    outer loop
      vertex 52.5913 -44.4 -19.1144
      vertex 42 -44.4 -9.66667
      vertex 54.3557 -44.4 -16.765
    endloop
  endfacet
  facet normal 0 1 0
    outer loop
      vertex 51.7067 -44.4 -20.1217
      vertex 52.5913 -44.4 -19.1144
      vertex 52.1994 -44.4 -19.6216
    endloop
  endfacet
  facet normal 0 1 0
    outer loop
      vertex 52.5913 -44.4 -19.1144
      vertex 51.7067 -44.4 -20.1217
      vertex 42 -44.4 -9.66667
    endloop
  endfacet
  facet normal 0 1 -0
    outer loop
      vertex 49.7978 -44.4 -22.0967
      vertex 42 -44.4 -9.66667
      vertex 51.7067 -44.4 -20.1217
    endloop
  endfacet
  facet normal 0 1 -0
    outer loop
      vertex 49.1226 -44.4 -22.6611
      vertex 42 -44.4 -9.66667
      vertex 49.7978 -44.4 -22.0967
    endloop
  endfacet
  facet normal 0 1 -0
    outer loop
      vertex 47.2817 -44.4 -24.0894
      vertex 42 -44.4 -9.66667
      vertex 49.1226 -44.4 -22.6611
    endloop
  endfacet
  facet normal 0 1 0
    outer loop
      vertex 47.2022 -44.4 -24.1441
      vertex 47.2817 -44.4 -24.0894
      vertex 47.2438 -44.4 -24.1186
    endloop
  endfacet
  facet normal 0 1 0
    outer loop
      vertex 47.2022 -44.4 -24.1441
      vertex 47.2438 -44.4 -24.1186
      vertex 47.2293 -44.4 -24.129
    endloop
  endfacet
  facet normal 0 1 0
    outer loop
      vertex 47.2817 -44.4 -24.0894
      vertex 47.2022 -44.4 -24.1441
      vertex 42 -44.4 -9.66667
    endloop
  endfacet
  facet normal 0 1 -0
    outer loop
      vertex 44.5928 -44.4 -25.6595
      vertex 42 -44.4 -9.66667
      vertex 47.2022 -44.4 -24.1441
    endloop
  endfacet
  facet normal 0 1 -0
    outer loop
      vertex 43.244 -44.4 -26.2891
      vertex 42 -44.4 -9.66667
      vertex 44.5928 -44.4 -25.6595
    endloop
  endfacet
  facet normal 0 1 0
    outer loop
      vertex 42 -44.4 -9.66667
      vertex 43.244 -44.4 -26.2891
      vertex 42 -44.4 -26.8761
    endloop
  endfacet
  facet normal 0 -1 0
    outer loop
      vertex 56.2867 -66.6 -16.7316
      vertex 60.0067 -66.6 -9.66667
      vertex 42 -66.6 -9.66667
    endloop
  endfacet
  facet normal 0 -1 -0
    outer loop
      vertex 60.0067 -66.6 -9.66667
      vertex 59.9807 -66.6 -10.314
      vertex 60.0142 -66.6 -9.71265
    endloop
  endfacet
  facet normal 0 -1 0
    outer loop
      vertex 60.0067 -66.6 -9.66667
      vertex 56.2867 -66.6 -16.7316
      vertex 59.9807 -66.6 -10.314
    endloop
  endfacet
  facet normal 0 -1 0
    outer loop
      vertex 59.9807 -66.6 -10.314
      vertex 59.7382 -66.6 -11.9533
      vertex 59.9642 -66.6 -11.108
    endloop
  endfacet
  facet normal 0 -1 0
    outer loop
      vertex 59.9807 -66.6 -10.314
      vertex 56.2867 -66.6 -16.7316
      vertex 59.7382 -66.6 -11.9533
    endloop
  endfacet
  facet normal 0 -1 0
    outer loop
      vertex 59.7382 -66.6 -11.9533
      vertex 59.2311 -66.6 -13.4143
      vertex 59.5561 -66.6 -12.7299
    endloop
  endfacet
  facet normal -0 -1 0
    outer loop
      vertex 58.332 -66.6 -14.8484
      vertex 59.7382 -66.6 -11.9533
      vertex 56.2867 -66.6 -16.7316
    endloop
  endfacet
  facet normal 0 -1 0
    outer loop
      vertex 59.2311 -66.6 -13.4143
      vertex 58.332 -66.6 -14.8484
      vertex 58.7877 -66.6 -14.307
    endloop
  endfacet
  facet normal 0 -1 0
    outer loop
      vertex 59.7382 -66.6 -11.9533
      vertex 58.332 -66.6 -14.8484
      vertex 59.2311 -66.6 -13.4143
    endloop
  endfacet
  facet normal 0 -1 0
    outer loop
      vertex 58.332 -66.6 -14.8484
      vertex 56.883 -66.6 -16.3053
      vertex 57.7279 -66.6 -15.6174
    endloop
  endfacet
  facet normal 0 -1 0
    outer loop
      vertex 58.332 -66.6 -14.8484
      vertex 56.2867 -66.6 -16.7316
      vertex 56.883 -66.6 -16.3053
    endloop
  endfacet
  facet normal 0 -1 0
    outer loop
      vertex 42 -66.6 -9.66667
      vertex 54.311 -66.6 -17.8364
      vertex 56.2867 -66.6 -16.7316
    endloop
  endfacet
  facet normal 0 -1 0
    outer loop
      vertex 42 -66.6 -9.66667
      vertex 54.0347 -66.6 -17.9958
      vertex 54.311 -66.6 -17.8364
    endloop
  endfacet
  facet normal 0 -1 0
    outer loop
      vertex 42 -66.6 -9.66667
      vertex 53.7955 -66.6 -18.1225
      vertex 54.0347 -66.6 -17.9958
    endloop
  endfacet
  facet normal 0 -1 0
    outer loop
      vertex 42 -66.6 -9.66667
      vertex 52.3621 -66.6 -18.8151
      vertex 53.7955 -66.6 -18.1225
    endloop
  endfacet
  facet normal 0 -1 0
    outer loop
      vertex 42 -66.6 -9.66667
      vertex 51.2756 -66.6 -19.3673
      vertex 52.3621 -66.6 -18.8151
    endloop
  endfacet
  facet normal 0 -1 0
    outer loop
      vertex 42 -66.6 -9.66667
      vertex 50.7988 -66.6 -19.6276
      vertex 51.2756 -66.6 -19.3673
    endloop
  endfacet
  facet normal 0 -1 0
    outer loop
      vertex 42 -66.6 -9.66667
      vertex 50.1765 -66.6 -19.9885
      vertex 50.7988 -66.6 -19.6276
    endloop
  endfacet
  facet normal 0 -1 0
    outer loop
      vertex 42 -66.6 -9.66667
      vertex 48.5019 -66.6 -20.8496
      vertex 50.1765 -66.6 -19.9885
    endloop
  endfacet
  facet normal 0 -1 0
    outer loop
      vertex 42 -66.6 -9.66667
      vertex 46.607 -66.6 -21.9092
      vertex 48.5019 -66.6 -20.8496
    endloop
  endfacet
  facet normal 0 -1 0
    outer loop
      vertex 42 -66.6 -9.66667
      vertex 45.6863 -66.6 -22.3169
      vertex 46.607 -66.6 -21.9092
    endloop
  endfacet
  facet normal 0 -1 0
    outer loop
      vertex 42 -66.6 -9.66667
      vertex 42.8507 -66.6 -23.4538
      vertex 45.6863 -66.6 -22.3169
    endloop
  endfacet
  facet normal 0 -1 0
    outer loop
      vertex 42.7735 -66.6 -23.4714
      vertex 42.8507 -66.6 -23.4538
      vertex 42 -66.6 -9.66667
    endloop
  endfacet
  facet normal 0 -1 0
    outer loop
      vertex 42.8507 -66.6 -23.4538
      vertex 42.7735 -66.6 -23.4714
      vertex 42.8207 -66.6 -23.4619
    endloop
  endfacet
  facet normal -0 -1 0
    outer loop
      vertex 42.7735 -66.6 -23.4714
      vertex 42 -66.6 -9.66667
      vertex 42 -66.6 -23.6316
    endloop
  endfacet
  facet normal 0.554148 0.0467315 -0.831105
    outer loop
      vertex 56.4235 -61.7775 -16.6196
      vertex 57.072 -63.8831 -16.3056
      vertex 54.9742 -62.7159 -17.6387
    endloop
  endfacet
  facet normal 0.555671 0.0509119 -0.829842
    outer loop
      vertex 57.072 -63.8831 -16.3056
      vertex 55.7783 -63.9487 -17.1759
      vertex 54.9742 -62.7159 -17.6387
    endloop
  endfacet
  facet normal 0.501432 -0.00570969 -0.865178
    outer loop
      vertex 54.9742 -62.7159 -17.6387
      vertex 55.151 -65.2361 -17.5196
      vertex 53.6076 -64.0253 -18.4221
    endloop
  endfacet
  facet normal 0.491063 -0.00671688 -0.871098
    outer loop
      vertex 55.7783 -63.9487 -17.1759
      vertex 55.151 -65.2361 -17.5196
      vertex 54.9742 -62.7159 -17.6387
    endloop
  endfacet
  facet normal 0.532704 0.00301427 -0.846296
    outer loop
      vertex 57.072 -63.8831 -16.3056
      vertex 56.7415 -65.8949 -16.5208
      vertex 55.151 -65.2361 -17.5196
    endloop
  endfacet
  facet normal 0.55923 -0.0515967 -0.827405
    outer loop
      vertex 55.7783 -63.9487 -17.1759
      vertex 57.072 -63.8831 -16.3056
      vertex 55.151 -65.2361 -17.5196
    endloop
  endfacet
  facet normal 0.634172 0.0806431 -0.768975
    outer loop
      vertex 58.2493 -63.5209 -15.2967
      vertex 57.072 -63.8831 -16.3056
      vertex 56.4235 -61.7775 -16.6196
    endloop
  endfacet
  facet normal 0.631679 0.0761297 -0.771483
    outer loop
      vertex 57.7418 -61.0621 -15.4696
      vertex 58.2493 -63.5209 -15.2967
      vertex 56.4235 -61.7775 -16.6196
    endloop
  endfacet
  facet normal 0.46634 -0.0632353 -0.882343
    outer loop
      vertex 53.6076 -64.0253 -18.4221
      vertex 55.151 -65.2361 -17.5196
      vertex 52.2303 -65.5258 -19.0425
    endloop
  endfacet
  facet normal 0.466779 -0.0743582 -0.881243
    outer loop
      vertex 53.7955 -66.6 -18.1225
      vertex 55.151 -65.2361 -17.5196
      vertex 54.0347 -66.6 -17.9958
    endloop
  endfacet
  facet normal 0.466854 -0.0744545 -0.881195
    outer loop
      vertex 55.151 -65.2361 -17.5196
      vertex 53.7955 -66.6 -18.1225
      vertex 52.2303 -65.5258 -19.0425
    endloop
  endfacet
  facet normal 0.200199 -0.151607 -0.967954
    outer loop
      vertex 42 -56.4038 -26.6262
      vertex 42.0042 -56.4123 -26.624
      vertex 42 -56.4121 -26.6249
    endloop
  endfacet
  facet normal 0.201657 -0.132337 -0.970475
    outer loop
      vertex 42 -56.4121 -26.6249
      vertex 42.0042 -56.4123 -26.624
      vertex 42 -56.4165 -26.6243
    endloop
  endfacet
  facet normal 0.265479 -0.16659 -0.949615
    outer loop
      vertex 42 -56.4423 -26.6199
      vertex 43.4025 -58.8764 -25.8008
      vertex 42 -60.3037 -25.9425
    endloop
  endfacet
  facet normal 0.265001 -0.166892 -0.949695
    outer loop
      vertex 43.4025 -58.8764 -25.8008
      vertex 42 -56.4423 -26.6199
      vertex 42.0042 -56.4123 -26.624
    endloop
  endfacet
  facet normal 0.232018 -0.163528 -0.958867
    outer loop
      vertex 42 -56.4165 -26.6243
      vertex 42.0042 -56.4123 -26.624
      vertex 42 -56.4423 -26.6199
    endloop
  endfacet
  facet normal 0.396749 -0.118877 -0.910197
    outer loop
      vertex 44.4696 -54.7175 -25.7707
      vertex 45.6038 -57.1386 -24.9601
      vertex 42.0042 -56.4123 -26.624
    endloop
  endfacet
  facet normal 0.406132 -0.07382 -0.910828
    outer loop
      vertex 45.6038 -57.1386 -24.9601
      vertex 43.4025 -58.8764 -25.8008
      vertex 42.0042 -56.4123 -26.624
    endloop
  endfacet
  facet normal 0.489765 -0.150214 -0.858817
    outer loop
      vertex 45.6038 -57.1386 -24.9601
      vertex 46.8046 -59.2632 -23.9037
      vertex 44.855 -61.0185 -24.7085
    endloop
  endfacet
  facet normal 0.450253 -0.14404 -0.881206
    outer loop
      vertex 45.6038 -57.1386 -24.9601
      vertex 44.855 -61.0185 -24.7085
      vertex 43.4025 -58.8764 -25.8008
    endloop
  endfacet
  facet normal 0.337273 -0.210402 -0.917594
    outer loop
      vertex 42 -61.7084 -25.5997
      vertex 44.855 -61.0185 -24.7085
      vertex 42.9852 -62.9207 -24.9596
    endloop
  endfacet
  facet normal 0.337282 -0.210458 -0.917577
    outer loop
      vertex 44.855 -61.0185 -24.7085
      vertex 42 -61.7084 -25.5997
      vertex 42 -60.9537 -25.7728
    endloop
  endfacet
  facet normal 0.334512 -0.238057 -0.911828
    outer loop
      vertex 42 -60.3037 -25.9425
      vertex 44.855 -61.0185 -24.7085
      vertex 42 -60.9537 -25.7728
    endloop
  endfacet
  facet normal 0.334484 -0.238148 -0.911815
    outer loop
      vertex 44.855 -61.0185 -24.7085
      vertex 42 -60.3037 -25.9425
      vertex 43.4025 -58.8764 -25.8008
    endloop
  endfacet
  facet normal 0.571956 -0.122309 -0.811114
    outer loop
      vertex 47.7898 -55.5327 -23.6608
      vertex 48.7729 -57.5598 -22.6619
      vertex 45.6038 -57.1386 -24.9601
    endloop
  endfacet
  facet normal 0.57864 -0.0766893 -0.81197
    outer loop
      vertex 48.7729 -57.5598 -22.6619
      vertex 46.8046 -59.2632 -23.9037
      vertex 45.6038 -57.1386 -24.9601
    endloop
  endfacet
  facet normal 0.612435 -0.129506 -0.779841
    outer loop
      vertex 48.7729 -57.5598 -22.6619
      vertex 49.8226 -59.3611 -21.5384
      vertex 48.0477 -61.079 -22.647
    endloop
  endfacet
  facet normal 0.606185 -0.128239 -0.784917
    outer loop
      vertex 48.7729 -57.5598 -22.6619
      vertex 48.0477 -61.079 -22.647
      vertex 46.8046 -59.2632 -23.9037
    endloop
  endfacet
  facet normal 0.531042 -0.181152 -0.827755
    outer loop
      vertex 48.0477 -61.079 -22.647
      vertex 46.297 -62.8348 -23.3859
      vertex 44.855 -61.0185 -24.7085
    endloop
  endfacet
  facet normal 0.527716 -0.208599 -0.823409
    outer loop
      vertex 46.8046 -59.2632 -23.9037
      vertex 48.0477 -61.079 -22.647
      vertex 44.855 -61.0185 -24.7085
    endloop
  endfacet
  facet normal 0.664208 -0.0579279 -0.7453
    outer loop
      vertex 50.6917 -55.9165 -21.0796
      vertex 51.6141 -57.7224 -20.1172
      vertex 48.7729 -57.5598 -22.6619
    endloop
  endfacet
  facet normal 0.66262 -0.0784283 -0.744838
    outer loop
      vertex 51.6141 -57.7224 -20.1172
      vertex 49.8226 -59.3611 -21.5384
      vertex 48.7729 -57.5598 -22.6619
    endloop
  endfacet
  facet normal 0.615907 -0.0531543 -0.786023
    outer loop
      vertex 51.6141 -57.7224 -20.1172
      vertex 52.6474 -59.4279 -19.1922
      vertex 50.964 -61.0097 -20.4043
    endloop
  endfacet
  facet normal 0.655438 -0.0638962 -0.752541
    outer loop
      vertex 51.6141 -57.7224 -20.1172
      vertex 50.964 -61.0097 -20.4043
      vertex 49.8226 -59.3611 -21.5384
    endloop
  endfacet
  facet normal 0.604875 -0.150933 -0.781886
    outer loop
      vertex 50.964 -61.0097 -20.4043
      vertex 49.3354 -62.6871 -21.3404
      vertex 48.0477 -61.079 -22.647
    endloop
  endfacet
  facet normal 0.606982 -0.120171 -0.785577
    outer loop
      vertex 49.8226 -59.3611 -21.5384
      vertex 50.964 -61.0097 -20.4043
      vertex 48.0477 -61.079 -22.647
    endloop
  endfacet
  facet normal 0.554896 -0.0316774 -0.831316
    outer loop
      vertex 52.6474 -59.4279 -19.1922
      vertex 53.7978 -61.0922 -18.3609
      vertex 52.2182 -62.561 -19.3593
    endloop
  endfacet
  facet normal 0.609023 -0.0411847 -0.792083
    outer loop
      vertex 52.6474 -59.4279 -19.1922
      vertex 52.2182 -62.561 -19.3593
      vertex 50.964 -61.0097 -20.4043
    endloop
  endfacet
  facet normal 0.564668 -0.145283 -0.81243
    outer loop
      vertex 52.2182 -62.561 -19.3593
      vertex 50.7035 -64.1624 -20.1257
      vertex 49.3354 -62.6871 -21.3404
    endloop
  endfacet
  facet normal 0.566666 -0.0933225 -0.818645
    outer loop
      vertex 50.964 -61.0097 -20.4043
      vertex 52.2182 -62.561 -19.3593
      vertex 49.3354 -62.6871 -21.3404
    endloop
  endfacet
  facet normal 0.508033 -0.0149746 -0.861208
    outer loop
      vertex 53.7978 -61.0922 -18.3609
      vertex 54.9742 -62.7159 -17.6387
      vertex 53.6076 -64.0253 -18.4221
    endloop
  endfacet
  facet normal 0.54606 -0.017934 -0.837554
    outer loop
      vertex 53.7978 -61.0922 -18.3609
      vertex 53.6076 -64.0253 -18.4221
      vertex 52.2182 -62.561 -19.3593
    endloop
  endfacet
  facet normal 0.506736 -0.111687 -0.854836
    outer loop
      vertex 53.6076 -64.0253 -18.4221
      vertex 52.2303 -65.5258 -19.0425
      vertex 50.7035 -64.1624 -20.1257
    endloop
  endfacet
  facet normal 0.507199 -0.068593 -0.859095
    outer loop
      vertex 52.2182 -62.561 -19.3593
      vertex 53.6076 -64.0253 -18.4221
      vertex 50.7035 -64.1624 -20.1257
    endloop
  endfacet
  facet normal 0.60012 0.0727288 -0.796597
    outer loop
      vertex 54.3385 -58.0248 -17.7901
      vertex 55.383 -59.857 -17.1705
      vertex 52.6474 -59.4279 -19.1922
    endloop
  endfacet
  facet normal 0.595346 0.0102245 -0.803404
    outer loop
      vertex 55.383 -59.857 -17.1705
      vertex 53.7978 -61.0922 -18.3609
      vertex 52.6474 -59.4279 -19.1922
    endloop
  endfacet
  facet normal 0.548781 0.0581031 -0.833944
    outer loop
      vertex 55.383 -59.857 -17.1705
      vertex 56.4235 -61.7775 -16.6196
      vertex 54.9742 -62.7159 -17.6387
    endloop
  endfacet
  facet normal 0.573511 0.0518825 -0.817553
    outer loop
      vertex 55.383 -59.857 -17.1705
      vertex 54.9742 -62.7159 -17.6387
      vertex 53.7978 -61.0922 -18.3609
    endloop
  endfacet
  facet normal 0.635196 0.13407 -0.760626
    outer loop
      vertex 55.9484 -56.8443 -16.2376
      vertex 56.8729 -58.883 -15.8249
      vertex 54.3385 -58.0248 -17.7901
    endloop
  endfacet
  facet normal 0.630497 0.0990949 -0.76984
    outer loop
      vertex 56.8729 -58.883 -15.8249
      vertex 55.383 -59.857 -17.1705
      vertex 54.3385 -58.0248 -17.7901
    endloop
  endfacet
  facet normal 0.61549 0.118374 -0.779204
    outer loop
      vertex 56.8729 -58.883 -15.8249
      vertex 57.7418 -61.0621 -15.4696
      vertex 56.4235 -61.7775 -16.6196
    endloop
  endfacet
  facet normal 0.623051 0.115656 -0.773583
    outer loop
      vertex 56.8729 -58.883 -15.8249
      vertex 56.4235 -61.7775 -16.6196
      vertex 55.383 -59.857 -17.1705
    endloop
  endfacet
  facet normal 0.696917 0.177031 -0.694958
    outer loop
      vertex 57.4045 -55.89 -14.5343
      vertex 58.214 -58.1087 -14.2877
      vertex 55.9484 -56.8443 -16.2376
    endloop
  endfacet
  facet normal 0.696547 0.175006 -0.695841
    outer loop
      vertex 58.214 -58.1087 -14.2877
      vertex 56.8729 -58.883 -15.8249
      vertex 55.9484 -56.8443 -16.2376
    endloop
  endfacet
  facet normal 0.711675 0.159962 -0.684055
    outer loop
      vertex 58.214 -58.1087 -14.2877
      vertex 58.9257 -60.4972 -14.1058
      vertex 57.7418 -61.0621 -15.4696
    endloop
  endfacet
  facet normal 0.700158 0.165956 -0.694433
    outer loop
      vertex 58.214 -58.1087 -14.2877
      vertex 57.7418 -61.0621 -15.4696
      vertex 56.8729 -58.883 -15.8249
    endloop
  endfacet
  facet normal 0.783599 0.199514 -0.588359
    outer loop
      vertex 58.6398 -55.1888 -12.6513
      vertex 59.3332 -57.5686 -12.5348
      vertex 57.4045 -55.89 -14.5343
    endloop
  endfacet
  facet normal 0.78863 0.224095 -0.572576
    outer loop
      vertex 59.3332 -57.5686 -12.5348
      vertex 58.214 -58.1087 -14.2877
      vertex 57.4045 -55.89 -14.5343
    endloop
  endfacet
  facet normal 0.82107 0.17689 -0.542729
    outer loop
      vertex 59.3332 -57.5686 -12.5348
      vertex 59.9086 -60.1302 -12.4992
      vertex 58.9257 -60.4972 -14.1058
    endloop
  endfacet
  facet normal 0.798466 0.194529 -0.569746
    outer loop
      vertex 59.3332 -57.5686 -12.5348
      vertex 58.9257 -60.4972 -14.1058
      vertex 58.214 -58.1087 -14.2877
    endloop
  endfacet
  facet normal 0.87062 0.203725 -0.447791
    outer loop
      vertex 59.5857 -54.8142 -10.6418
      vertex 60.1603 -57.3379 -10.6728
      vertex 58.6398 -55.1888 -12.6513
    endloop
  endfacet
  facet normal 0.877146 0.235074 -0.418754
    outer loop
      vertex 60.1603 -57.3379 -10.6728
      vertex 59.3332 -57.5686 -12.5348
      vertex 58.6398 -55.1888 -12.6513
    endloop
  endfacet
  facet normal 0.907206 0.169938 -0.384835
    outer loop
      vertex 60.1603 -57.3379 -10.6728
      vertex 60.6044 -60.0031 -10.8028
      vertex 59.9086 -60.1302 -12.4992
    endloop
  endfacet
  facet normal 0.887495 0.193542 -0.418205
    outer loop
      vertex 60.1603 -57.3379 -10.6728
      vertex 59.9086 -60.1302 -12.4992
      vertex 59.3332 -57.5686 -12.5348
    endloop
  endfacet
  facet normal 0.93824 0.191103 -0.288419
    outer loop
      vertex 59.8811 -54.7928 -9.66667
      vertex 60.1842 -56.2809 -9.66667
      vertex 59.5857 -54.8142 -10.6418
    endloop
  endfacet
  facet normal 0.943102 0.217813 -0.251228
    outer loop
      vertex 60.1842 -56.2809 -9.66667
      vertex 60.1603 -57.3379 -10.6728
      vertex 59.5857 -54.8142 -10.6418
    endloop
  endfacet
  facet normal 0.943061 0.217894 -0.251313
    outer loop
      vertex 60.1603 -57.3379 -10.6728
      vertex 60.1842 -56.2809 -9.66667
      vertex 60.4375 -57.3772 -9.66667
    endloop
  endfacet
  facet normal 0.969851 0.133398 -0.203947
    outer loop
      vertex 60.628 -58.4377 -9.66667
      vertex 60.8518 -60.0648 -9.66667
      vertex 60.6044 -60.0031 -10.8028
    endloop
  endfacet
  facet normal 0.95158 0.170934 -0.255494
    outer loop
      vertex 60.628 -58.4377 -9.66667
      vertex 60.1603 -57.3379 -10.6728
      vertex 60.4375 -57.3772 -9.66667
    endloop
  endfacet
  facet normal 0.951589 0.17102 -0.255404
    outer loop
      vertex 60.1603 -57.3379 -10.6728
      vertex 60.628 -58.4377 -9.66667
      vertex 60.6044 -60.0031 -10.8028
    endloop
  endfacet
  facet normal 0.801057 0.0128124 -0.598451
    outer loop
      vertex 54.4948 -45.4265 -16.581
      vertex 52.6242 -46.8468 -19.1153
      vertex 52.2375 -44.646 -19.5858
    endloop
  endfacet
  facet normal 0.799616 0.000713503 -0.600512
    outer loop
      vertex 54.4948 -45.4265 -16.581
      vertex 52.5913 -44.4 -19.1144
      vertex 54.3557 -44.4 -16.765
    endloop
  endfacet
  facet normal 0.799616 0.000717186 -0.600511
    outer loop
      vertex 52.5913 -44.4 -19.1144
      vertex 54.4948 -45.4265 -16.581
      vertex 52.2375 -44.646 -19.5858
    endloop
  endfacet
  facet normal 0.838116 0.0214026 -0.545072
    outer loop
      vertex 56.4475 -46.1961 -13.6087
      vertex 54.8416 -47.5288 -16.1303
      vertex 54.4948 -45.4265 -16.581
    endloop
  endfacet
  facet normal 0.839764 0.0395056 -0.541512
    outer loop
      vertex 56.4475 -46.1961 -13.6087
      vertex 55.7172 -44.4 -14.6102
      vertex 56.2056 -44.4 -13.8528
    endloop
  endfacet
  facet normal 0.839787 0.0395353 -0.541475
    outer loop
      vertex 55.7172 -44.4 -14.6102
      vertex 56.4475 -46.1961 -13.6087
      vertex 54.4948 -45.4265 -16.581
    endloop
  endfacet
  facet normal 0.339957 0.0715803 -0.937713
    outer loop
      vertex 42 -44.9313 -26.924
      vertex 42.1976 -46.5025 -26.9723
      vertex 42 -46.5924 -27.0508
    endloop
  endfacet
  facet normal 0.421795 0.0745885 -0.903618
    outer loop
      vertex 44.5928 -44.4 -25.6595
      vertex 44.7523 -45.411 -25.6685
      vertex 43.244 -44.4 -26.2891
    endloop
  endfacet
  facet normal 0.425325 0.0812219 -0.901389
    outer loop
      vertex 42.1976 -46.5025 -26.9723
      vertex 43.244 -44.4 -26.2891
      vertex 44.7523 -45.411 -25.6685
    endloop
  endfacet
  facet normal 0.425354 0.0812032 -0.901377
    outer loop
      vertex 42 -44.9313 -26.924
      vertex 43.244 -44.4 -26.2891
      vertex 42.1976 -46.5025 -26.9723
    endloop
  endfacet
  facet normal 0.425331 0.0812652 -0.901382
    outer loop
      vertex 43.244 -44.4 -26.2891
      vertex 42 -44.9313 -26.924
      vertex 42 -44.4 -26.8761
    endloop
  endfacet
  facet normal 0.446497 0.0193137 -0.894577
    outer loop
      vertex 44.7523 -45.411 -25.6685
      vertex 45.324 -48.1412 -25.4421
      vertex 42.676 -49.3567 -26.79
    endloop
  endfacet
  facet normal 0.448365 0.0180724 -0.893668
    outer loop
      vertex 44.7523 -45.411 -25.6685
      vertex 42.676 -49.3567 -26.79
      vertex 42.1976 -46.5025 -26.9723
    endloop
  endfacet
  facet normal 0.343089 -0.0511435 -0.937909
    outer loop
      vertex 42 -49.0006 -27.0567
      vertex 42.676 -49.3567 -26.79
      vertex 42 -49.6718 -27.0201
    endloop
  endfacet
  facet normal 0.368045 0.00230167 -0.929805
    outer loop
      vertex 42 -49.0006 -27.0567
      vertex 42.1976 -46.5025 -26.9723
      vertex 42.676 -49.3567 -26.79
    endloop
  endfacet
  facet normal 0.368304 0.00227774 -0.929703
    outer loop
      vertex 42.1976 -46.5025 -26.9723
      vertex 42 -49.0006 -27.0567
      vertex 42 -46.5924 -27.0508
    endloop
  endfacet
  facet normal 0.467389 -0.0121112 -0.883969
    outer loop
      vertex 45.324 -48.1412 -25.4421
      vertex 46.0297 -50.7519 -25.0332
      vertex 43.4752 -52.0849 -26.3656
    endloop
  endfacet
  facet normal 0.455474 -0.00505848 -0.890235
    outer loop
      vertex 45.324 -48.1412 -25.4421
      vertex 43.4752 -52.0849 -26.3656
      vertex 42.676 -49.3567 -26.79
    endloop
  endfacet
  facet normal 0.340715 -0.0478356 -0.938949
    outer loop
      vertex 42 -51.6865 -26.9212
      vertex 43.4752 -52.0849 -26.3656
      vertex 42 -52.9604 -26.8563
    endloop
  endfacet
  facet normal 0.341152 -0.0461148 -0.938876
    outer loop
      vertex 42 -51.6865 -26.9212
      vertex 42.676 -49.3567 -26.79
      vertex 43.4752 -52.0849 -26.3656
    endloop
  endfacet
  facet normal 0.341073 -0.0460902 -0.938906
    outer loop
      vertex 42.676 -49.3567 -26.79
      vertex 42 -51.6865 -26.9212
      vertex 42 -49.6718 -27.0201
    endloop
  endfacet
  facet normal 0.497771 -0.034659 -0.866616
    outer loop
      vertex 46.0297 -50.7519 -25.0332
      vertex 46.8614 -53.2444 -24.4558
      vertex 44.4696 -54.7175 -25.7707
    endloop
  endfacet
  facet normal 0.471084 -0.0213306 -0.88183
    outer loop
      vertex 46.0297 -50.7519 -25.0332
      vertex 44.4696 -54.7175 -25.7707
      vertex 43.4752 -52.0849 -26.3656
    endloop
  endfacet
  facet normal 0.363611 -0.0609247 -0.929557
    outer loop
      vertex 42 -56.4038 -26.6262
      vertex 44.4696 -54.7175 -25.7707
      vertex 42.0042 -56.4123 -26.624
    endloop
  endfacet
  facet normal 0.360439 -0.0554802 -0.931132
    outer loop
      vertex 44.4696 -54.7175 -25.7707
      vertex 42 -56.4038 -26.6262
      vertex 42 -54.0743 -26.765
    endloop
  endfacet
  facet normal 0.355214 -0.076358 -0.931661
    outer loop
      vertex 42 -54.0743 -26.765
      vertex 43.4752 -52.0849 -26.3656
      vertex 44.4696 -54.7175 -25.7707
    endloop
  endfacet
  facet normal 0.35522 -0.0763627 -0.931659
    outer loop
      vertex 43.4752 -52.0849 -26.3656
      vertex 42 -54.0743 -26.765
      vertex 42 -52.9604 -26.8563
    endloop
  endfacet
  facet normal 0.584318 -0.0361721 -0.810718
    outer loop
      vertex 48.3993 -49.4997 -23.3812
      vertex 49.0954 -51.8282 -22.7756
      vertex 46.0297 -50.7519 -25.0332
    endloop
  endfacet
  facet normal 0.595832 0.0127973 -0.803007
    outer loop
      vertex 49.0954 -51.8282 -22.7756
      vertex 46.8614 -53.2444 -24.4558
      vertex 46.0297 -50.7519 -25.0332
    endloop
  endfacet
  facet normal 0.647737 -0.0465772 -0.760439
    outer loop
      vertex 49.0954 -51.8282 -22.7756
      vertex 49.8601 -53.9675 -21.9932
      vertex 47.7898 -55.5327 -23.6608
    endloop
  endfacet
  facet normal 0.611575 -0.0265922 -0.790739
    outer loop
      vertex 49.0954 -51.8282 -22.7756
      vertex 47.7898 -55.5327 -23.6608
      vertex 46.8614 -53.2444 -24.4558
    endloop
  endfacet
  facet normal 0.529773 -0.0355334 -0.847395
    outer loop
      vertex 47.7898 -55.5327 -23.6608
      vertex 45.6038 -57.1386 -24.9601
      vertex 44.4696 -54.7175 -25.7707
    endloop
  endfacet
  facet normal 0.519537 -0.0846084 -0.850249
    outer loop
      vertex 46.8614 -53.2444 -24.4558
      vertex 47.7898 -55.5327 -23.6608
      vertex 44.4696 -54.7175 -25.7707
    endloop
  endfacet
  facet normal 0.705991 -0.0311184 -0.707537
    outer loop
      vertex 51.1638 -50.3917 -20.7749
      vertex 51.7993 -52.4355 -20.0509
      vertex 49.0954 -51.8282 -22.7756
    endloop
  endfacet
  facet normal 0.709333 -0.00423353 -0.704861
    outer loop
      vertex 51.7993 -52.4355 -20.0509
      vertex 49.8601 -53.9675 -21.9932
      vertex 49.0954 -51.8282 -22.7756
    endloop
  endfacet
  facet normal 0.709149 -0.0173452 -0.704845
    outer loop
      vertex 51.7993 -52.4355 -20.0509
      vertex 52.5304 -54.3672 -19.2678
      vertex 50.6917 -55.9165 -21.0796
    endloop
  endfacet
  facet normal 0.715974 -0.0216009 -0.697793
    outer loop
      vertex 51.7993 -52.4355 -20.0509
      vertex 50.6917 -55.9165 -21.0796
      vertex 49.8601 -53.9675 -21.9932
    endloop
  endfacet
  facet normal 0.660171 -0.0491666 -0.749504
    outer loop
      vertex 50.6917 -55.9165 -21.0796
      vertex 48.7729 -57.5598 -22.6619
      vertex 47.7898 -55.5327 -23.6608
    endloop
  endfacet
  facet normal 0.657687 -0.0709174 -0.749946
    outer loop
      vertex 49.8601 -53.9675 -21.9932
      vertex 50.6917 -55.9165 -21.0796
      vertex 47.7898 -55.5327 -23.6608
    endloop
  endfacet
  facet normal 0.746391 0.0436136 -0.664077
    outer loop
      vertex 53.6113 -50.9738 -17.9183
      vertex 54.281 -52.9336 -17.2943
      vertex 51.7993 -52.4355 -20.0509
    endloop
  endfacet
  facet normal 0.744122 0.0108464 -0.667955
    outer loop
      vertex 54.281 -52.9336 -17.2943
      vertex 52.5304 -54.3672 -19.2678
      vertex 51.7993 -52.4355 -20.0509
    endloop
  endfacet
  facet normal 0.692885 0.0722311 -0.717421
    outer loop
      vertex 54.281 -52.9336 -17.2943
      vertex 55.0704 -54.8734 -16.7272
      vertex 53.3809 -56.2111 -18.4936
    endloop
  endfacet
  facet normal 0.729008 0.0496074 -0.682705
    outer loop
      vertex 54.281 -52.9336 -17.2943
      vertex 53.3809 -56.2111 -18.4936
      vertex 52.5304 -54.3672 -19.2678
    endloop
  endfacet
  facet normal 0.690967 -0.0319387 -0.72218
    outer loop
      vertex 53.3809 -56.2111 -18.4936
      vertex 51.6141 -57.7224 -20.1172
      vertex 50.6917 -55.9165 -21.0796
    endloop
  endfacet
  facet normal 0.69405 0.0179487 -0.719703
    outer loop
      vertex 52.5304 -54.3672 -19.2678
      vertex 53.3809 -56.2111 -18.4936
      vertex 50.6917 -55.9165 -21.0796
    endloop
  endfacet
  facet normal 0.650402 0.102784 -0.752604
    outer loop
      vertex 55.0704 -54.8734 -16.7272
      vertex 55.9484 -56.8443 -16.2376
      vertex 54.3385 -58.0248 -17.7901
    endloop
  endfacet
  facet normal 0.687813 0.0834612 -0.721074
    outer loop
      vertex 55.0704 -54.8734 -16.7272
      vertex 54.3385 -58.0248 -17.7901
      vertex 53.3809 -56.2111 -18.4936
    endloop
  endfacet
  facet normal 0.648051 -0.0202853 -0.761327
    outer loop
      vertex 54.3385 -58.0248 -17.7901
      vertex 52.6474 -59.4279 -19.1922
      vertex 51.6141 -57.7224 -20.1172
    endloop
  endfacet
  facet normal 0.6519 0.0507177 -0.756607
    outer loop
      vertex 53.3809 -56.2111 -18.4936
      vertex 54.3385 -58.0248 -17.7901
      vertex 51.6141 -57.7224 -20.1172
    endloop
  endfacet
  facet normal 0.739836 0.134826 -0.659139
    outer loop
      vertex 55.9026 -51.6558 -15.2128
      vertex 56.6163 -53.7481 -14.8397
      vertex 54.281 -52.9336 -17.2943
    endloop
  endfacet
  facet normal 0.737675 0.105227 -0.666905
    outer loop
      vertex 56.6163 -53.7481 -14.8397
      vertex 55.0704 -54.8734 -16.7272
      vertex 54.281 -52.9336 -17.2943
    endloop
  endfacet
  facet normal 0.704061 0.160452 -0.691776
    outer loop
      vertex 56.6163 -53.7481 -14.8397
      vertex 57.4045 -55.89 -14.5343
      vertex 55.9484 -56.8443 -16.2376
    endloop
  endfacet
  facet normal 0.718534 0.15147 -0.678798
    outer loop
      vertex 56.6163 -53.7481 -14.8397
      vertex 55.9484 -56.8443 -16.2376
      vertex 55.0704 -54.8734 -16.7272
    endloop
  endfacet
  facet normal 0.789184 0.156444 -0.593898
    outer loop
      vertex 57.335 -50.6145 -13.0351
      vertex 57.9511 -52.8865 -12.8149
      vertex 55.9026 -51.6558 -15.2128
    endloop
  endfacet
  facet normal 0.790039 0.16416 -0.590668
    outer loop
      vertex 57.9511 -52.8865 -12.8149
      vertex 56.6163 -53.7481 -14.8397
      vertex 55.9026 -51.6558 -15.2128
    endloop
  endfacet
  facet normal 0.7858 0.193314 -0.587493
    outer loop
      vertex 57.9511 -52.8865 -12.8149
      vertex 58.6398 -55.1888 -12.6513
      vertex 57.4045 -55.89 -14.5343
    endloop
  endfacet
  facet normal 0.776544 0.200599 -0.597277
    outer loop
      vertex 57.9511 -52.8865 -12.8149
      vertex 57.4045 -55.89 -14.5343
      vertex 56.6163 -53.7481 -14.8397
    endloop
  endfacet
  facet normal 0.854857 0.153968 -0.495493
    outer loop
      vertex 58.508 -49.8857 -10.7849
      vertex 59.0102 -52.3583 -10.6868
      vertex 57.335 -50.6145 -13.0351
    endloop
  endfacet
  facet normal 0.860098 0.187243 -0.474523
    outer loop
      vertex 59.0102 -52.3583 -10.6868
      vertex 57.9511 -52.8865 -12.8149
      vertex 57.335 -50.6145 -13.0351
    endloop
  endfacet
  facet normal 0.872571 0.196276 -0.44732
    outer loop
      vertex 59.0102 -52.3583 -10.6868
      vertex 59.5857 -54.8142 -10.6418
      vertex 58.6398 -55.1888 -12.6513
    endloop
  endfacet
  facet normal 0.850321 0.220403 -0.477887
    outer loop
      vertex 59.0102 -52.3583 -10.6868
      vertex 58.6398 -55.1888 -12.6513
      vertex 57.9511 -52.8865 -12.8149
    endloop
  endfacet
  facet normal 0.921681 0.140889 -0.361462
    outer loop
      vertex 58.9223 -49.7271 -9.66667
      vertex 59.1227 -51.0381 -9.66667
      vertex 58.508 -49.8857 -10.7849
    endloop
  endfacet
  facet normal 0.927802 0.175376 -0.329281
    outer loop
      vertex 59.0102 -52.3583 -10.6868
      vertex 59.1227 -51.0381 -9.66667
      vertex 59.3569 -52.2771 -9.66667
    endloop
  endfacet
  facet normal 0.927801 0.175378 -0.329283
    outer loop
      vertex 59.1227 -51.0381 -9.66667
      vertex 59.0102 -52.3583 -10.6868
      vertex 58.508 -49.8857 -10.7849
    endloop
  endfacet
  facet normal 0.941018 0.176079 -0.288931
    outer loop
      vertex 59.656 -53.5898 -9.66667
      vertex 59.8811 -54.7928 -9.66667
      vertex 59.5857 -54.8142 -10.6418
    endloop
  endfacet
  facet normal 0.920545 0.209747 -0.32955
    outer loop
      vertex 59.656 -53.5898 -9.66667
      vertex 59.0102 -52.3583 -10.6868
      vertex 59.3569 -52.2771 -9.66667
    endloop
  endfacet
  facet normal 0.920532 0.209672 -0.329633
    outer loop
      vertex 59.0102 -52.3583 -10.6868
      vertex 59.656 -53.5898 -9.66667
      vertex 59.5857 -54.8142 -10.6418
    endloop
  endfacet
  facet normal 0.609594 0.0486433 -0.79122
    outer loop
      vertex 47.2438 -44.4 -24.1186
      vertex 47.2817 -44.4 -24.0894
      vertex 47.2327 -44.4203 -24.1284
    endloop
  endfacet
  facet normal 0.581255 0.0734003 -0.810404
    outer loop
      vertex 47.2438 -44.4 -24.1186
      vertex 47.2327 -44.4203 -24.1284
      vertex 47.2293 -44.4 -24.129
    endloop
  endfacet
  facet normal 0.500572 0.0858638 -0.861426
    outer loop
      vertex 44.7523 -45.411 -25.6685
      vertex 47.2022 -44.4 -24.1441
      vertex 47.2327 -44.4203 -24.1284
    endloop
  endfacet
  facet normal 0.500314 0.086601 -0.861502
    outer loop
      vertex 47.2022 -44.4 -24.1441
      vertex 44.7523 -45.411 -25.6685
      vertex 44.5928 -44.4 -25.6595
    endloop
  endfacet
  facet normal 0.485984 0.0556171 -0.872196
    outer loop
      vertex 47.2293 -44.4 -24.129
      vertex 47.2327 -44.4203 -24.1284
      vertex 47.2022 -44.4 -24.1441
    endloop
  endfacet
  facet normal 0.64129 0.0132345 -0.767185
    outer loop
      vertex 50.073 -45.8921 -21.8924
      vertex 49.1226 -44.4 -22.6611
      vertex 49.7978 -44.4 -22.0967
    endloop
  endfacet
  facet normal 0.641265 0.0132078 -0.767206
    outer loop
      vertex 49.1226 -44.4 -22.6611
      vertex 50.073 -45.8921 -21.8924
      vertex 47.7737 -47.0272 -23.8338
    endloop
  endfacet
  facet normal 0.612561 0.0379035 -0.789514
    outer loop
      vertex 47.7737 -47.0272 -23.8338
      vertex 47.2817 -44.4 -24.0894
      vertex 49.1226 -44.4 -22.6611
    endloop
  endfacet
  facet normal 0.612633 0.0379225 -0.789457
    outer loop
      vertex 47.2817 -44.4 -24.0894
      vertex 47.7737 -47.0272 -23.8338
      vertex 47.2327 -44.4203 -24.1284
    endloop
  endfacet
  facet normal 0.534908 0.042032 -0.843864
    outer loop
      vertex 47.7737 -47.0272 -23.8338
      vertex 45.324 -48.1412 -25.4421
      vertex 44.7523 -45.411 -25.6685
    endloop
  endfacet
  facet normal 0.523858 0.0124639 -0.851714
    outer loop
      vertex 47.2327 -44.4203 -24.1284
      vertex 47.7737 -47.0272 -23.8338
      vertex 44.7523 -45.411 -25.6685
    endloop
  endfacet
  facet normal 0.672535 -0.00661316 -0.740035
    outer loop
      vertex 50.073 -45.8921 -21.8924
      vertex 50.5889 -48.2148 -21.4028
      vertex 48.3993 -49.4997 -23.3812
    endloop
  endfacet
  facet normal 0.638949 0.0209073 -0.768965
    outer loop
      vertex 50.073 -45.8921 -21.8924
      vertex 48.3993 -49.4997 -23.3812
      vertex 47.7737 -47.0272 -23.8338
    endloop
  endfacet
  facet normal 0.563543 0.0229962 -0.825767
    outer loop
      vertex 48.3993 -49.4997 -23.3812
      vertex 46.0297 -50.7519 -25.0332
      vertex 45.324 -48.1412 -25.4421
    endloop
  endfacet
  facet normal 0.552791 -0.0126556 -0.833224
    outer loop
      vertex 47.7737 -47.0272 -23.8338
      vertex 48.3993 -49.4997 -23.3812
      vertex 45.324 -48.1412 -25.4421
    endloop
  endfacet
  facet normal 0.733514 -0.0163778 -0.679477
    outer loop
      vertex 52.2375 -44.646 -19.5858
      vertex 52.6242 -46.8468 -19.1153
      vertex 50.073 -45.8921 -21.8924
    endloop
  endfacet
  facet normal 0.740112 0.0227167 -0.672099
    outer loop
      vertex 52.6242 -46.8468 -19.1153
      vertex 50.5889 -48.2148 -21.4028
      vertex 50.073 -45.8921 -21.8924
    endloop
  endfacet
  facet normal 0.765397 -0.0141024 -0.643404
    outer loop
      vertex 52.6242 -46.8468 -19.1153
      vertex 53.0676 -48.9514 -18.5417
      vertex 51.1638 -50.3917 -20.7749
    endloop
  endfacet
  facet normal 0.745672 0.00474059 -0.666296
    outer loop
      vertex 52.6242 -46.8468 -19.1153
      vertex 51.1638 -50.3917 -20.7749
      vertex 50.5889 -48.2148 -21.4028
    endloop
  endfacet
  facet normal 0.688852 0.0174518 -0.724692
    outer loop
      vertex 51.1638 -50.3917 -20.7749
      vertex 49.0954 -51.8282 -22.7756
      vertex 48.3993 -49.4997 -23.3812
    endloop
  endfacet
  facet normal 0.680224 -0.0315887 -0.732324
    outer loop
      vertex 50.5889 -48.2148 -21.4028
      vertex 51.1638 -50.3917 -20.7749
      vertex 48.3993 -49.4997 -23.3812
    endloop
  endfacet
  facet normal 0.803265 0.00482065 -0.595602
    outer loop
      vertex 54.4948 -45.4265 -16.581
      vertex 54.8416 -47.5288 -16.1303
      vertex 52.6242 -46.8468 -19.1153
    endloop
  endfacet
  facet normal 0.803497 0.00704449 -0.595267
    outer loop
      vertex 54.8416 -47.5288 -16.1303
      vertex 53.0676 -48.9514 -18.5417
      vertex 52.6242 -46.8468 -19.1153
    endloop
  endfacet
  facet normal 0.789133 0.0364088 -0.613142
    outer loop
      vertex 54.8416 -47.5288 -16.1303
      vertex 55.3007 -49.5964 -15.6622
      vertex 53.6113 -50.9738 -17.9183
    endloop
  endfacet
  facet normal 0.797118 0.0283746 -0.603157
    outer loop
      vertex 54.8416 -47.5288 -16.1303
      vertex 53.6113 -50.9738 -17.9183
      vertex 53.0676 -48.9514 -18.5417
    endloop
  endfacet
  facet normal 0.759988 0.00608612 -0.649908
    outer loop
      vertex 53.6113 -50.9738 -17.9183
      vertex 51.7993 -52.4355 -20.0509
      vertex 51.1638 -50.3917 -20.7749
    endloop
  endfacet
  facet normal 0.759771 0.0038396 -0.65018
    outer loop
      vertex 53.0676 -48.9514 -18.5417
      vertex 53.6113 -50.9738 -17.9183
      vertex 51.1638 -50.3917 -20.7749
    endloop
  endfacet
  facet normal 0.824841 0.0680231 -0.561257
    outer loop
      vertex 56.4475 -46.1961 -13.6087
      vertex 56.8311 -48.3822 -13.3099
      vertex 54.8416 -47.5288 -16.1303
    endloop
  endfacet
  facet normal 0.823693 0.0551295 -0.564349
    outer loop
      vertex 56.8311 -48.3822 -13.3099
      vertex 55.3007 -49.5964 -15.6622
      vertex 54.8416 -47.5288 -16.1303
    endloop
  endfacet
  facet normal 0.805403 0.110109 -0.582411
    outer loop
      vertex 56.8311 -48.3822 -13.3099
      vertex 57.335 -50.6145 -13.0351
      vertex 55.9026 -51.6558 -15.2128
    endloop
  endfacet
  facet normal 0.80658 0.108954 -0.580998
    outer loop
      vertex 56.8311 -48.3822 -13.3099
      vertex 55.9026 -51.6558 -15.2128
      vertex 55.3007 -49.5964 -15.6622
    endloop
  endfacet
  facet normal 0.769158 0.0602659 -0.636211
    outer loop
      vertex 55.9026 -51.6558 -15.2128
      vertex 54.281 -52.9336 -17.2943
      vertex 53.6113 -50.9738 -17.9183
    endloop
  endfacet
  facet normal 0.770956 0.0876687 -0.630826
    outer loop
      vertex 55.3007 -49.5964 -15.6622
      vertex 55.9026 -51.6558 -15.2128
      vertex 53.6113 -50.9738 -17.9183
    endloop
  endfacet
  facet normal 0.865326 0.0827165 -0.494336
    outer loop
      vertex 57.8106 -45.033 -11.028
      vertex 58.1128 -47.4187 -10.8982
      vertex 56.4475 -46.1961 -13.6087
    endloop
  endfacet
  facet normal 0.865526 0.0843959 -0.493702
    outer loop
      vertex 58.1128 -47.4187 -10.8982
      vertex 56.8311 -48.3822 -13.3099
      vertex 56.4475 -46.1961 -13.6087
    endloop
  endfacet
  facet normal 0.86484 0.116111 -0.488436
    outer loop
      vertex 58.1128 -47.4187 -10.8982
      vertex 58.508 -49.8857 -10.7849
      vertex 57.335 -50.6145 -13.0351
    endloop
  endfacet
  facet normal 0.852991 0.130332 -0.505392
    outer loop
      vertex 58.1128 -47.4187 -10.8982
      vertex 57.335 -50.6145 -13.0351
      vertex 56.8311 -48.3822 -13.3099
    endloop
  endfacet
  facet normal 0.916187 0.0733284 -0.393986
    outer loop
      vertex 58.3576 -44.5531 -9.66667
      vertex 58.4715 -45.9762 -9.66667
      vertex 57.8106 -45.033 -11.028
    endloop
  endfacet
  facet normal 0.919942 0.0958088 -0.380167
    outer loop
      vertex 58.1128 -47.4187 -10.8982
      vertex 58.4715 -45.9762 -9.66667
      vertex 58.5903 -47.1169 -9.66667
    endloop
  endfacet
  facet normal 0.919925 0.0958423 -0.380201
    outer loop
      vertex 58.4715 -45.9762 -9.66667
      vertex 58.1128 -47.4187 -10.8982
      vertex 57.8106 -45.033 -11.028
    endloop
  endfacet
  facet normal 0.927515 0.105464 -0.358599
    outer loop
      vertex 58.7733 -48.4167 -9.66667
      vertex 58.9223 -49.7271 -9.66667
      vertex 58.508 -49.8857 -10.7849
    endloop
  endfacet
  facet normal 0.913594 0.128626 -0.385748
    outer loop
      vertex 58.7733 -48.4167 -9.66667
      vertex 58.1128 -47.4187 -10.8982
      vertex 58.5903 -47.1169 -9.66667
    endloop
  endfacet
  facet normal 0.913596 0.128638 -0.38574
    outer loop
      vertex 58.1128 -47.4187 -10.8982
      vertex 58.7733 -48.4167 -9.66667
      vertex 58.508 -49.8857 -10.7849
    endloop
  endfacet
  facet normal 0.914181 0.0784333 -0.397646
    outer loop
      vertex 57.9636 -44.4 -10.5514
      vertex 57.8106 -45.033 -11.028
      vertex 57.7375 -44.4 -11.0712
    endloop
  endfacet
  facet normal 0.91569 0.0759586 -0.394643
    outer loop
      vertex 58.3576 -44.5531 -9.66667
      vertex 57.9636 -44.4 -10.5514
      vertex 58.3449 -44.4 -9.66667
    endloop
  endfacet
  facet normal 0.91569 0.0758252 -0.394666
    outer loop
      vertex 57.9636 -44.4 -10.5514
      vertex 58.3576 -44.5531 -9.66667
      vertex 57.8106 -45.033 -11.028
    endloop
  endfacet
  facet normal 0.873234 0.0517311 -0.484548
    outer loop
      vertex 56.4475 -46.1961 -13.6087
      vertex 56.7647 -44.4 -12.8453
      vertex 57.8106 -45.033 -11.028
    endloop
  endfacet
  facet normal 0.873215 0.0517481 -0.48458
    outer loop
      vertex 56.7647 -44.4 -12.8453
      vertex 56.4475 -46.1961 -13.6087
      vertex 56.2056 -44.4 -13.8528
    endloop
  endfacet
  facet normal 0.874785 0.0682857 -0.479675
    outer loop
      vertex 57.7375 -44.4 -11.0712
      vertex 57.8106 -45.033 -11.028
      vertex 56.7647 -44.4 -12.8453
    endloop
  endfacet
  facet normal 0.845238 0.0188072 -0.534059
    outer loop
      vertex 55.7172 -44.4 -14.6102
      vertex 54.4948 -45.4265 -16.581
      vertex 54.3557 -44.4 -16.765
    endloop
  endfacet
  facet normal 0.79086 0.0335578 -0.611076
    outer loop
      vertex 52.5913 -44.4 -19.1144
      vertex 52.2375 -44.646 -19.5858
      vertex 52.1994 -44.4 -19.6216
    endloop
  endfacet
  facet normal 0.718524 0.0374545 -0.694493
    outer loop
      vertex 50.073 -45.8921 -21.8924
      vertex 51.7067 -44.4 -20.1217
      vertex 52.2375 -44.646 -19.5858
    endloop
  endfacet
  facet normal 0.718533 0.0374352 -0.694485
    outer loop
      vertex 51.7067 -44.4 -20.1217
      vertex 50.073 -45.8921 -21.8924
      vertex 49.7978 -44.4 -22.0967
    endloop
  endfacet
  facet normal 0.712334 0.00819396 -0.701793
    outer loop
      vertex 52.1994 -44.4 -19.6216
      vertex 52.2375 -44.646 -19.5858
      vertex 51.7067 -44.4 -20.1217
    endloop
  endfacet
  facet normal 0.196904 -0.327849 -0.923983
    outer loop
      vertex 42 -61.7084 -25.5997
      vertex 42.9852 -62.9207 -24.9596
      vertex 42 -63.0657 -25.1181
    endloop
  endfacet
  facet normal 0.196062 -0.318287 -0.927498
    outer loop
      vertex 42 -63.0657 -25.1181
      vertex 42.9852 -62.9207 -24.9596
      vertex 42 -64.1063 -24.761
    endloop
  endfacet
  facet normal 0.302636 -0.370307 -0.878228
    outer loop
      vertex 42.9852 -62.9207 -24.9596
      vertex 44.5542 -64.6454 -23.6917
      vertex 42.8327 -66.5845 -23.4673
    endloop
  endfacet
  facet normal 0.269639 -0.372879 -0.887838
    outer loop
      vertex 42 -64.1063 -24.761
      vertex 42.8327 -66.5845 -23.4673
      vertex 42 -65.8216 -24.0406
    endloop
  endfacet
  facet normal 0.269717 -0.372847 -0.887828
    outer loop
      vertex 42.8327 -66.5845 -23.4673
      vertex 42 -64.1063 -24.761
      vertex 42.9852 -62.9207 -24.9596
    endloop
  endfacet
  facet normal 0.176885 -0.443119 -0.878839
    outer loop
      vertex 42.8327 -66.5845 -23.4673
      vertex 42.8207 -66.6 -23.4619
      vertex 42.7735 -66.6 -23.4714
    endloop
  endfacet
  facet normal 0.180336 -0.457511 -0.870725
    outer loop
      vertex 42 -65.8216 -24.0406
      vertex 42.7735 -66.6 -23.4714
      vertex 42 -66.6 -23.6316
    endloop
  endfacet
  facet normal 0.180132 -0.45768 -0.870679
    outer loop
      vertex 42.7735 -66.6 -23.4714
      vertex 42 -65.8216 -24.0406
      vertex 42.8327 -66.5845 -23.4673
    endloop
  endfacet
  facet normal 0.416248 -0.295654 -0.859841
    outer loop
      vertex 44.855 -61.0185 -24.7085
      vertex 46.297 -62.8348 -23.3859
      vertex 42.9852 -62.9207 -24.9596
    endloop
  endfacet
  facet normal 0.42016 -0.257462 -0.87016
    outer loop
      vertex 46.297 -62.8348 -23.3859
      vertex 44.5542 -64.6454 -23.6917
      vertex 42.9852 -62.9207 -24.9596
    endloop
  endfacet
  facet normal 0.482354 -0.291816 -0.825941
    outer loop
      vertex 46.297 -62.8348 -23.3859
      vertex 47.7246 -64.405 -21.9974
      vertex 46.0896 -66.1509 -22.3354
    endloop
  endfacet
  facet normal 0.453802 -0.29478 -0.840933
    outer loop
      vertex 46.297 -62.8348 -23.3859
      vertex 46.0896 -66.1509 -22.3354
      vertex 44.5542 -64.6454 -23.6917
    endloop
  endfacet
  facet normal 0.348741 -0.349006 -0.869813
    outer loop
      vertex 42.8507 -66.6 -23.4538
      vertex 46.0896 -66.1509 -22.3354
      vertex 45.6863 -66.6 -22.3169
    endloop
  endfacet
  facet normal 0.34874 -0.35166 -0.868744
    outer loop
      vertex 46.0896 -66.1509 -22.3354
      vertex 42.8507 -66.6 -23.4538
      vertex 42.8327 -66.5845 -23.4673
    endloop
  endfacet
  facet normal 0.347749 -0.406499 -0.844884
    outer loop
      vertex 44.5542 -64.6454 -23.6917
      vertex 46.0896 -66.1509 -22.3354
      vertex 42.8327 -66.5845 -23.4673
    endloop
  endfacet
  facet normal 0.552825 -0.212088 -0.805856
    outer loop
      vertex 48.0477 -61.079 -22.647
      vertex 49.3354 -62.6871 -21.3404
      vertex 46.297 -62.8348 -23.3859
    endloop
  endfacet
  facet normal 0.552992 -0.210174 -0.806242
    outer loop
      vertex 49.3354 -62.6871 -21.3404
      vertex 47.7246 -64.405 -21.9974
      vertex 46.297 -62.8348 -23.3859
    endloop
  endfacet
  facet normal 0.527059 -0.192722 -0.827688
    outer loop
      vertex 49.3354 -62.6871 -21.3404
      vertex 50.7035 -64.1624 -20.1257
      vertex 49.2067 -65.8242 -20.6919
    endloop
  endfacet
  facet normal 0.538963 -0.191669 -0.820233
    outer loop
      vertex 49.3354 -62.6871 -21.3404
      vertex 49.2067 -65.8242 -20.6919
      vertex 47.7246 -64.405 -21.9974
    endloop
  endfacet
  facet normal 0.471663 -0.257039 -0.843483
    outer loop
      vertex 46.607 -66.6 -21.9092
      vertex 49.2067 -65.8242 -20.6919
      vertex 48.5019 -66.6 -20.8496
    endloop
  endfacet
  facet normal 0.471667 -0.257066 -0.843474
    outer loop
      vertex 49.2067 -65.8242 -20.6919
      vertex 46.607 -66.6 -21.9092
      vertex 46.0896 -66.1509 -22.3354
    endloop
  endfacet
  facet normal 0.470613 -0.278644 -0.837186
    outer loop
      vertex 47.7246 -64.405 -21.9974
      vertex 49.2067 -65.8242 -20.6919
      vertex 46.0896 -66.1509 -22.3354
    endloop
  endfacet
  facet normal 0.473121 -0.15845 -0.866631
    outer loop
      vertex 50.7988 -66.6 -19.6276
      vertex 52.2303 -65.5258 -19.0425
      vertex 51.2756 -66.6 -19.3673
    endloop
  endfacet
  facet normal 0.473191 -0.158576 -0.866571
    outer loop
      vertex 52.2303 -65.5258 -19.0425
      vertex 50.7988 -66.6 -19.6276
      vertex 50.7035 -64.1624 -20.1257
    endloop
  endfacet
  facet normal 0.4956 -0.155246 -0.854564
    outer loop
      vertex 50.1765 -66.6 -19.9885
      vertex 50.7035 -64.1624 -20.1257
      vertex 50.7988 -66.6 -19.6276
    endloop
  endfacet
  facet normal 0.495618 -0.155249 -0.854553
    outer loop
      vertex 50.7035 -64.1624 -20.1257
      vertex 50.1765 -66.6 -19.9885
      vertex 49.2067 -65.8242 -20.6919
    endloop
  endfacet
  facet normal 0.445202 -0.228464 -0.865794
    outer loop
      vertex 49.2067 -65.8242 -20.6919
      vertex 50.1765 -66.6 -19.9885
      vertex 48.5019 -66.6 -20.8496
    endloop
  endfacet
  facet normal 0.431022 -0.135954 -0.892041
    outer loop
      vertex 53.7955 -66.6 -18.1225
      vertex 52.3621 -66.6 -18.8151
      vertex 52.2303 -65.5258 -19.0425
    endloop
  endfacet
  facet normal 0.449116 -0.131962 -0.883674
    outer loop
      vertex 52.2303 -65.5258 -19.0425
      vertex 52.3621 -66.6 -18.8151
      vertex 51.2756 -66.6 -19.3673
    endloop
  endfacet
  facet normal 0.229539 -0.473886 -0.850143
    outer loop
      vertex 42.8327 -66.5845 -23.4673
      vertex 42.8507 -66.6 -23.4538
      vertex 42.8207 -66.6 -23.4619
    endloop
  endfacet
  facet normal 0.37577 -0.372405 -0.848594
    outer loop
      vertex 46.0896 -66.1509 -22.3354
      vertex 46.607 -66.6 -21.9092
      vertex 45.6863 -66.6 -22.3169
    endloop
  endfacet
  facet normal 0.871712 -0.229412 -0.432998
    outer loop
      vertex 59.2311 -66.6 -13.4143
      vertex 59.0589 -65.7625 -14.2047
      vertex 59.8614 -65.6068 -12.6716
    endloop
  endfacet
  facet normal 0.871725 -0.229394 -0.432982
    outer loop
      vertex 59.0589 -65.7625 -14.2047
      vertex 59.2311 -66.6 -13.4143
      vertex 58.7877 -66.6 -14.307
    endloop
  endfacet
  facet normal 0.875836 -0.24481 -0.415907
    outer loop
      vertex 59.8614 -65.6068 -12.6716
      vertex 59.5561 -66.6 -12.7299
      vertex 59.2311 -66.6 -13.4143
    endloop
  endfacet
  facet normal 0.923612 -0.293195 -0.246937
    outer loop
      vertex 59.7382 -66.6 -11.9533
      vertex 60.3283 -65.4617 -11.0977
      vertex 59.9642 -66.6 -11.108
    endloop
  endfacet
  facet normal 0.923611 -0.293176 -0.246962
    outer loop
      vertex 60.3283 -65.4617 -11.0977
      vertex 59.7382 -66.6 -11.9533
      vertex 59.8614 -65.6068 -12.6716
    endloop
  endfacet
  facet normal 0.936094 -0.274862 -0.219499
    outer loop
      vertex 59.8614 -65.6068 -12.6716
      vertex 59.7382 -66.6 -11.9533
      vertex 59.5561 -66.6 -12.7299
    endloop
  endfacet
  facet normal 0.944331 -0.324765 -0.0526068
    outer loop
      vertex 59.9807 -66.6 -10.314
      vertex 60.4671 -65.2827 -9.71503
      vertex 60.0142 -66.6 -9.71265
    endloop
  endfacet
  facet normal 0.944345 -0.324699 -0.0527631
    outer loop
      vertex 60.4671 -65.2827 -9.71503
      vertex 59.9807 -66.6 -10.314
      vertex 60.3283 -65.4617 -11.0977
    endloop
  endfacet
  facet normal 0.952327 -0.304435 -0.0197902
    outer loop
      vertex 60.3283 -65.4617 -11.0977
      vertex 59.9807 -66.6 -10.314
      vertex 59.9642 -66.6 -11.108
    endloop
  endfacet
  facet normal 0.934103 -0.327974 0.141013
    outer loop
      vertex 60.4671 -65.2827 -9.71503
      vertex 60.4631 -65.2733 -9.66667
      vertex 60.4315 -65.3633 -9.66667
    endloop
  endfacet
  facet normal 0.934704 -0.321066 0.152464
    outer loop
      vertex 60.0142 -66.6 -9.71265
      vertex 60.4315 -65.3633 -9.66667
      vertex 60.0067 -66.6 -9.66667
    endloop
  endfacet
  facet normal 0.934631 -0.321058 0.152927
    outer loop
      vertex 60.4315 -65.3633 -9.66667
      vertex 60.0142 -66.6 -9.71265
      vertex 60.4671 -65.2827 -9.71503
    endloop
  endfacet
  facet normal 0.496953 -0.106011 -0.861278
    outer loop
      vertex 54.311 -66.6 -17.8364
      vertex 55.151 -65.2361 -17.5196
      vertex 56.7415 -65.8949 -16.5208
    endloop
  endfacet
  facet normal 0.4969 -0.105969 -0.861314
    outer loop
      vertex 55.151 -65.2361 -17.5196
      vertex 54.311 -66.6 -17.8364
      vertex 54.0347 -66.6 -17.9958
    endloop
  endfacet
  facet normal 0.487361 -0.053795 -0.871542
    outer loop
      vertex 56.7415 -65.8949 -16.5208
      vertex 56.2867 -66.6 -16.7316
      vertex 54.311 -66.6 -17.8364
    endloop
  endfacet
  facet normal 0.62757 -0.109639 -0.770801
    outer loop
      vertex 56.7415 -65.8949 -16.5208
      vertex 57.7279 -66.6 -15.6174
      vertex 56.883 -66.6 -16.3053
    endloop
  endfacet
  facet normal 0.627559 -0.109663 -0.770807
    outer loop
      vertex 57.7279 -66.6 -15.6174
      vertex 56.7415 -65.8949 -16.5208
      vertex 58.0109 -65.9301 -15.4823
    endloop
  endfacet
  facet normal 0.576578 -0.130785 -0.806506
    outer loop
      vertex 56.7415 -65.8949 -16.5208
      vertex 56.883 -66.6 -16.3053
      vertex 56.2867 -66.6 -16.7316
    endloop
  endfacet
  facet normal 0.655233 -0.0268861 -0.754948
    outer loop
      vertex 57.072 -63.8831 -16.3056
      vertex 58.2493 -63.5209 -15.2967
      vertex 56.7415 -65.8949 -16.5208
    endloop
  endfacet
  facet normal 0.633148 -0.00302322 -0.774025
    outer loop
      vertex 58.2493 -63.5209 -15.2967
      vertex 58.0109 -65.9301 -15.4823
      vertex 56.7415 -65.8949 -16.5208
    endloop
  endfacet
  facet normal 0.771107 -0.0312967 -0.635936
    outer loop
      vertex 59.2858 -63.1407 -14.0586
      vertex 59.0589 -65.7625 -14.2047
      vertex 58.2493 -63.5209 -15.2967
    endloop
  endfacet
  facet normal 0.774653 -0.0279849 -0.631767
    outer loop
      vertex 58.2493 -63.5209 -15.2967
      vertex 59.0589 -65.7625 -14.2047
      vertex 58.0109 -65.9301 -15.4823
    endloop
  endfacet
  facet normal 0.754354 -0.166718 -0.634945
    outer loop
      vertex 59.0589 -65.7625 -14.2047
      vertex 58.7877 -66.6 -14.307
      vertex 58.332 -66.6 -14.8484
    endloop
  endfacet
  facet normal 0.769919 -0.203334 -0.604881
    outer loop
      vertex 58.332 -66.6 -14.8484
      vertex 58.0109 -65.9301 -15.4823
      vertex 59.0589 -65.7625 -14.2047
    endloop
  endfacet
  facet normal 0.769955 -0.203287 -0.60485
    outer loop
      vertex 58.0109 -65.9301 -15.4823
      vertex 58.332 -66.6 -14.8484
      vertex 57.7279 -66.6 -15.6174
    endloop
  endfacet
  facet normal 0.729611 0.103054 -0.676053
    outer loop
      vertex 58.9257 -60.4972 -14.1058
      vertex 58.2493 -63.5209 -15.2967
      vertex 57.7418 -61.0621 -15.4696
    endloop
  endfacet
  facet normal 0.749787 0.0904332 -0.65547
    outer loop
      vertex 58.9257 -60.4972 -14.1058
      vertex 59.2858 -63.1407 -14.0586
      vertex 58.2493 -63.5209 -15.2967
    endloop
  endfacet
  facet normal 0.841606 0.0825598 -0.533745
    outer loop
      vertex 59.9086 -60.1302 -12.4992
      vertex 60.1456 -62.8972 -12.5535
      vertex 58.9257 -60.4972 -14.1058
    endloop
  endfacet
  facet normal 0.855681 0.107523 -0.50621
    outer loop
      vertex 60.1456 -62.8972 -12.5535
      vertex 59.2858 -63.1407 -14.0586
      vertex 58.9257 -60.4972 -14.1058
    endloop
  endfacet
  facet normal 0.886624 -0.07309 -0.45668
    outer loop
      vertex 60.1456 -62.8972 -12.5535
      vertex 59.8614 -65.6068 -12.6716
      vertex 59.0589 -65.7625 -14.2047
    endloop
  endfacet
  facet normal 0.870633 -0.0480658 -0.489579
    outer loop
      vertex 59.2858 -63.1407 -14.0586
      vertex 60.1456 -62.8972 -12.5535
      vertex 59.0589 -65.7625 -14.2047
    endloop
  endfacet
  facet normal 0.922362 0.0547773 -0.382423
    outer loop
      vertex 60.6044 -60.0031 -10.8028
      vertex 60.6968 -62.787 -10.9787
      vertex 59.9086 -60.1302 -12.4992
    endloop
  endfacet
  facet normal 0.938368 0.0869382 -0.334525
    outer loop
      vertex 60.6968 -62.787 -10.9787
      vertex 60.1456 -62.8972 -12.5535
      vertex 59.9086 -60.1302 -12.4992
    endloop
  endfacet
  facet normal 0.954792 -0.119432 -0.27223
    outer loop
      vertex 60.6968 -62.787 -10.9787
      vertex 60.3283 -65.4617 -11.0977
      vertex 59.8614 -65.6068 -12.6716
    endloop
  endfacet
  facet normal 0.942295 -0.084717 -0.323887
    outer loop
      vertex 60.1456 -62.8972 -12.5535
      vertex 60.6968 -62.787 -10.9787
      vertex 59.8614 -65.6068 -12.6716
    endloop
  endfacet
  facet normal 0.977166 0.00978495 -0.212253
    outer loop
      vertex 60.8518 -60.0648 -9.66667
      vertex 60.8761 -62.4915 -9.66667
      vertex 60.6044 -60.0031 -10.8028
    endloop
  endfacet
  facet normal 0.988593 0.0421536 -0.144594
    outer loop
      vertex 60.6968 -62.787 -10.9787
      vertex 60.8761 -62.4915 -9.66667
      vertex 60.8876 -62.7612 -9.66667
    endloop
  endfacet
  facet normal 0.988608 0.041946 -0.144549
    outer loop
      vertex 60.8761 -62.4915 -9.66667
      vertex 60.6968 -62.787 -10.9787
      vertex 60.6044 -60.0031 -10.8028
    endloop
  endfacet
  facet normal 0.983169 -0.165554 -0.0772634
    outer loop
      vertex 60.3283 -65.4617 -11.0977
      vertex 60.5915 -64.5665 -9.66667
      vertex 60.4671 -65.2827 -9.71503
    endloop
  endfacet
  facet normal 0.983177 -0.165486 -0.0773075
    outer loop
      vertex 60.5915 -64.5665 -9.66667
      vertex 60.3283 -65.4617 -11.0977
      vertex 60.86 -62.9713 -9.66667
    endloop
  endfacet
  facet normal 0.981686 -0.12896 -0.140224
    outer loop
      vertex 60.86 -62.9713 -9.66667
      vertex 60.6968 -62.787 -10.9787
      vertex 60.8876 -62.7612 -9.66667
    endloop
  endfacet
  facet normal 0.981678 -0.129009 -0.14023
    outer loop
      vertex 60.6968 -62.787 -10.9787
      vertex 60.86 -62.9713 -9.66667
      vertex 60.3283 -65.4617 -11.0977
    endloop
  endfacet
  facet normal 0.971971 -0.202334 0.119723
    outer loop
      vertex 60.4671 -65.2827 -9.71503
      vertex 60.4789 -65.1974 -9.66667
      vertex 60.4631 -65.2733 -9.66667
    endloop
  endfacet
  facet normal 0.982061 -0.175274 0.0695309
    outer loop
      vertex 60.5915 -64.5665 -9.66667
      vertex 60.4789 -65.1974 -9.66667
      vertex 60.4671 -65.2827 -9.71503
    endloop
  endfacet
endsolid OpenSCAD_Model
