solid OpenSCAD_Model
  facet normal 1 0 0
    outer loop
      vertex 21 -106.18 1.67587
      vertex 21 -106.449 0.765672
      vertex 21 -106.398 -0.135542
    endloop
  endfacet
  facet normal 1 0 0
    outer loop
      vertex 21 -98.8742 9.58773
      vertex 21 -88.8 9.66667
      vertex 21 -98.7332 9.66667
    endloop
  endfacet
  facet normal 1 0 0
    outer loop
      vertex 21 -88.8 9.66667
      vertex 21 -98.8742 9.58773
      vertex 21 -88.8 -9.66667
    endloop
  endfacet
  facet normal 1 -0 0
    outer loop
      vertex 21 -99.8963 -8.94482
      vertex 21 -88.8 -9.66667
      vertex 21 -98.8742 9.58773
    endloop
  endfacet
  facet normal 1 0 0
    outer loop
      vertex 21 -88.8 -9.66667
      vertex 21 -99.8963 -8.94482
      vertex 21 -98.7594 -9.66667
    endloop
  endfacet
  facet normal 1 0 0
    outer loop
      vertex 21 -98.7594 -9.66667
      vertex 21 -99.8963 -8.94482
      vertex 21 -98.8437 -9.62286
    endloop
  endfacet
  facet normal 1 -0 0
    outer loop
      vertex 21 -100.604 8.48168
      vertex 21 -99.8963 -8.94482
      vertex 21 -98.8742 9.58773
    endloop
  endfacet
  facet normal 1 0 0
    outer loop
      vertex 21 -101.251 8.03131
      vertex 21 -100.604 8.48168
      vertex 21 -100.948 8.26189
    endloop
  endfacet
  facet normal 1 0 0
    outer loop
      vertex 21 -100.604 8.48168
      vertex 21 -101.251 8.03131
      vertex 21 -99.8963 -8.94482
    endloop
  endfacet
  facet normal 1 0 0
    outer loop
      vertex 21 -101.251 8.03131
      vertex 21 -101.539 -7.85998
      vertex 21 -99.8963 -8.94482
    endloop
  endfacet
  facet normal 1 0 0
    outer loop
      vertex 21 -101.251 8.03131
      vertex 21 -101.962 -7.50382
      vertex 21 -101.539 -7.85998
    endloop
  endfacet
  facet normal 1 -0 0
    outer loop
      vertex 21 -102.753 6.83997
      vertex 21 -101.962 -7.50382
      vertex 21 -101.251 8.03131
    endloop
  endfacet
  facet normal 1 -0 0
    outer loop
      vertex 21 -103.63 5.90359
      vertex 21 -101.962 -7.50382
      vertex 21 -102.753 6.83997
    endloop
  endfacet
  facet normal 1 0 0
    outer loop
      vertex 21 -101.962 -7.50382
      vertex 21 -103.63 5.90359
      vertex 21 -102.819 -6.83611
    endloop
  endfacet
  facet normal 1 0 0
    outer loop
      vertex 21 -102.819 -6.83611
      vertex 21 -103.63 5.90359
      vertex 21 -103.555 -6.21045
    endloop
  endfacet
  facet normal 1 -0 0
    outer loop
      vertex 21 -104.304 -5.41778
      vertex 21 -103.555 -6.21045
      vertex 21 -103.63 5.90359
    endloop
  endfacet
  facet normal 1 0 0
    outer loop
      vertex 21 -103.555 -6.21045
      vertex 21 -104.304 -5.41778
      vertex 21 -103.874 -5.95487
    endloop
  endfacet
  facet normal 1 0 0
    outer loop
      vertex 21 -104.975 4.21949
      vertex 21 -103.63 5.90359
      vertex 21 -104.393 5.14291
    endloop
  endfacet
  facet normal 1 0 0
    outer loop
      vertex 21 -103.63 5.90359
      vertex 21 -104.975 4.21949
      vertex 21 -104.304 -5.41778
    endloop
  endfacet
  facet normal 1 -0 0
    outer loop
      vertex 21 -106.398 -0.135542
      vertex 21 -104.304 -5.41778
      vertex 21 -104.975 4.21949
    endloop
  endfacet
  facet normal 1 0 0
    outer loop
      vertex 21 -106.18 1.67587
      vertex 21 -104.975 4.21949
      vertex 21 -105.716 3.08998
    endloop
  endfacet
  facet normal 1 0 0
    outer loop
      vertex 21 -104.304 -5.41778
      vertex 21 -105.958 -2.87875
      vertex 21 -105.534 -3.89294
    endloop
  endfacet
  facet normal 1 0 0
    outer loop
      vertex 21 -106.398 -0.135542
      vertex 21 -104.975 4.21949
      vertex 21 -106.18 1.67587
    endloop
  endfacet
  facet normal 1 0 0
    outer loop
      vertex 21 -104.304 -5.41778
      vertex 21 -106.398 -0.135542
      vertex 21 -105.958 -2.87875
    endloop
  endfacet
  facet normal 1 0 0
    outer loop
      vertex 21 -105.958 -2.87875
      vertex 21 -106.398 -0.135542
      vertex 21 -106.4 -1.62546
    endloop
  endfacet
  facet normal 0 0 1
    outer loop
      vertex 21 -88.8 9.66667
      vertex 20.8865 -98.6549 9.66667
      vertex 21 -98.7332 9.66667
    endloop
  endfacet
  facet normal 0 0 1
    outer loop
      vertex 21 -88.8 9.66667
      vertex 20.6677 -98.4907 9.66667
      vertex 20.8865 -98.6549 9.66667
    endloop
  endfacet
  facet normal 0 0 1
    outer loop
      vertex 21 -88.8 9.66667
      vertex 18.6624 -96.8464 9.66667
      vertex 20.6677 -98.4907 9.66667
    endloop
  endfacet
  facet normal 0 0 1
    outer loop
      vertex 21 -88.8 9.66667
      vertex 18.4675 -96.6698 9.66667
      vertex 18.6624 -96.8464 9.66667
    endloop
  endfacet
  facet normal 0 0 1
    outer loop
      vertex 21 -88.8 9.66667
      vertex 18.1851 -96.4063 9.66667
      vertex 18.4675 -96.6698 9.66667
    endloop
  endfacet
  facet normal 0 0 1
    outer loop
      vertex 21 -88.8 9.66667
      vertex 16.5912 -94.7245 9.66667
      vertex 18.1851 -96.4063 9.66667
    endloop
  endfacet
  facet normal 0 0 1
    outer loop
      vertex 21 -88.8 9.66667
      vertex 15.8719 -93.9343 9.66667
      vertex 16.5912 -94.7245 9.66667
    endloop
  endfacet
  facet normal 0 0 1
    outer loop
      vertex 21 -88.8 9.66667
      vertex 14.5905 -92.4051 9.66667
      vertex 15.8719 -93.9343 9.66667
    endloop
  endfacet
  facet normal 0 0 1
    outer loop
      vertex 21 -88.8 9.66667
      vertex 14.4875 -92.2862 9.66667
      vertex 14.5905 -92.4051 9.66667
    endloop
  endfacet
  facet normal 0 0 1
    outer loop
      vertex 21 -88.8 9.66667
      vertex 14.2081 -91.925 9.66667
      vertex 14.4875 -92.2862 9.66667
    endloop
  endfacet
  facet normal 0 0 1
    outer loop
      vertex 21 -88.8 9.66667
      vertex 12.9034 -90.0359 9.66667
      vertex 14.2081 -91.925 9.66667
    endloop
  endfacet
  facet normal 0 -0 1
    outer loop
      vertex 12.9034 -90.0359 9.66667
      vertex 21 -88.8 9.66667
      vertex 12.0696 -88.8 9.66667
    endloop
  endfacet
  facet normal 0 0 -1
    outer loop
      vertex 20.6553 -98.5262 -9.66667
      vertex 21 -88.8 -9.66667
      vertex 21 -98.7594 -9.66667
    endloop
  endfacet
  facet normal 0 0 -1
    outer loop
      vertex 20.4593 -98.3916 -9.66667
      vertex 20.6553 -98.5262 -9.66667
      vertex 20.6186 -98.504 -9.66667
    endloop
  endfacet
  facet normal 0 0 -1
    outer loop
      vertex 20.6553 -98.5262 -9.66667
      vertex 20.4593 -98.3916 -9.66667
      vertex 21 -88.8 -9.66667
    endloop
  endfacet
  facet normal 0 0 -1
    outer loop
      vertex 18.5162 -96.9454 -9.66667
      vertex 21 -88.8 -9.66667
      vertex 20.4593 -98.3916 -9.66667
    endloop
  endfacet
  facet normal 0 0 -1
    outer loop
      vertex 18.2195 -96.7038 -9.66667
      vertex 21 -88.8 -9.66667
      vertex 18.5162 -96.9454 -9.66667
    endloop
  endfacet
  facet normal 0 0 -1
    outer loop
      vertex 16.5496 -95.3736 -9.66667
      vertex 21 -88.8 -9.66667
      vertex 18.2195 -96.7038 -9.66667
    endloop
  endfacet
  facet normal 0 0 -1
    outer loop
      vertex 15.897 -94.8114 -9.66667
      vertex 21 -88.8 -9.66667
      vertex 16.5496 -95.3736 -9.66667
    endloop
  endfacet
  facet normal 0 0 -1
    outer loop
      vertex 14.6647 -93.7041 -9.66667
      vertex 21 -88.8 -9.66667
      vertex 15.897 -94.8114 -9.66667
    endloop
  endfacet
  facet normal 0 0 -1
    outer loop
      vertex 13.6972 -92.7807 -9.66667
      vertex 21 -88.8 -9.66667
      vertex 14.6647 -93.7041 -9.66667
    endloop
  endfacet
  facet normal 0 0 -1
    outer loop
      vertex 12.8388 -91.9114 -9.66667
      vertex 21 -88.8 -9.66667
      vertex 13.6972 -92.7807 -9.66667
    endloop
  endfacet
  facet normal 0 0 -1
    outer loop
      vertex 11.6888 -90.6728 -9.66667
      vertex 21 -88.8 -9.66667
      vertex 12.8388 -91.9114 -9.66667
    endloop
  endfacet
  facet normal 0 0 -1
    outer loop
      vertex 11.0643 -89.9653 -9.66667
      vertex 21 -88.8 -9.66667
      vertex 11.6888 -90.6728 -9.66667
    endloop
  endfacet
  facet normal -0 0 -1
    outer loop
      vertex 21 -88.8 -9.66667
      vertex 11.0643 -89.9653 -9.66667
      vertex 10.0834 -88.8 -9.66667
    endloop
  endfacet
  facet normal 0 1 0
    outer loop
      vertex 21 -88.8 9.66667
      vertex 11.8893 -88.8 9.50076
      vertex 12.0696 -88.8 9.66667
    endloop
  endfacet
  facet normal 0 1 0
    outer loop
      vertex 21 -88.8 9.66667
      vertex 10.7065 -88.8 8.38312
      vertex 11.8893 -88.8 9.50076
    endloop
  endfacet
  facet normal 0 1 0
    outer loop
      vertex 21 -88.8 9.66667
      vertex 10.3174 -88.8 7.88606
      vertex 10.7065 -88.8 8.38312
    endloop
  endfacet
  facet normal 0 1 0
    outer loop
      vertex 21 -88.8 9.66667
      vertex 8.93476 -88.8 6.14176
      vertex 10.3174 -88.8 7.88606
    endloop
  endfacet
  facet normal 0 1 -0
    outer loop
      vertex 21 -88.8 -9.66667
      vertex 8.93476 -88.8 6.14176
      vertex 21 -88.8 9.66667
    endloop
  endfacet
  facet normal -0 1 0
    outer loop
      vertex 7.76997 -88.8 4.197
      vertex 8.93476 -88.8 6.14176
      vertex 21 -88.8 -9.66667
    endloop
  endfacet
  facet normal 0 1 0
    outer loop
      vertex 8.93476 -88.8 6.14176
      vertex 7.76997 -88.8 4.197
      vertex 8.88567 -88.8 6.08062
    endloop
  endfacet
  facet normal -0 1 0
    outer loop
      vertex 6.80795 -88.8 2.2181
      vertex 7.76997 -88.8 4.197
      vertex 21 -88.8 -9.66667
    endloop
  endfacet
  facet normal 0 1 0
    outer loop
      vertex 7.76997 -88.8 4.197
      vertex 6.80795 -88.8 2.2181
      vertex 7.33422 -88.8 3.53525
    endloop
  endfacet
  facet normal -0 1 -0
    outer loop
      vertex 8.06203 -88.8 -7.69
      vertex 6.80795 -88.8 2.2181
      vertex 21 -88.8 -9.66667
    endloop
  endfacet
  facet normal 0 1 0
    outer loop
      vertex 6.80795 -88.8 2.2181
      vertex 8.06203 -88.8 -7.69
      vertex 6.16209 -88.8 0.875054
    endloop
  endfacet
  facet normal -0 1 -0
    outer loop
      vertex 6.24224 -88.8 -4.91889
      vertex 6.16209 -88.8 0.875054
      vertex 8.06203 -88.8 -7.69
    endloop
  endfacet
  facet normal 0 1 0
    outer loop
      vertex 5.65756 -88.8 -1.42277
      vertex 5.64146 -88.8 -2.11521
      vertex 5.59017 -88.8 -1.80619
    endloop
  endfacet
  facet normal 0 1 0
    outer loop
      vertex 5.64146 -88.8 -2.11521
      vertex 6.24224 -88.8 -4.91889
      vertex 5.95553 -88.8 -4.40622
    endloop
  endfacet
  facet normal 0 1 0
    outer loop
      vertex 6.16209 -88.8 0.875054
      vertex 6.24224 -88.8 -4.91889
      vertex 5.65756 -88.8 -1.42277
    endloop
  endfacet
  facet normal 0 1 0
    outer loop
      vertex 6.24224 -88.8 -4.91889
      vertex 8.06203 -88.8 -7.69
      vertex 7.28194 -88.8 -6.82005
    endloop
  endfacet
  facet normal 0 1 0
    outer loop
      vertex 5.65756 -88.8 -1.42277
      vertex 6.24224 -88.8 -4.91889
      vertex 5.64146 -88.8 -2.11521
    endloop
  endfacet
  facet normal -0 1 -0
    outer loop
      vertex 9.6445 -88.8 -9.31656
      vertex 8.06203 -88.8 -7.69
      vertex 21 -88.8 -9.66667
    endloop
  endfacet
  facet normal 0 1 0
    outer loop
      vertex 8.06203 -88.8 -7.69
      vertex 9.6445 -88.8 -9.31656
      vertex 9.269 -88.8 -9.00801
    endloop
  endfacet
  facet normal 0 1 0
    outer loop
      vertex 9.6445 -88.8 -9.31656
      vertex 21 -88.8 -9.66667
      vertex 10.0834 -88.8 -9.66667
    endloop
  endfacet
  facet normal -0.365301 -0.500092 0.785152
    outer loop
      vertex 20.6827 -100.896 8.17188
      vertex 20.7508 -98.8724 9.49247
      vertex 18.5206 -99.7824 7.87523
    endloop
  endfacet
  facet normal -0.354261 -0.516833 0.779347
    outer loop
      vertex 20.7508 -98.8724 9.49247
      vertex 19.1896 -98.5931 8.96803
      vertex 18.5206 -99.7824 7.87523
    endloop
  endfacet
  facet normal -0.369941 -0.45116 0.812156
    outer loop
      vertex 18.3846 -96.9028 9.5088
      vertex 20.6677 -98.4907 9.66667
      vertex 18.6624 -96.8464 9.66667
    endloop
  endfacet
  facet normal -0.369957 -0.451185 0.812135
    outer loop
      vertex 20.6677 -98.4907 9.66667
      vertex 18.3846 -96.9028 9.5088
      vertex 20.7508 -98.8724 9.49247
    endloop
  endfacet
  facet normal -0.355693 -0.434178 0.82763
    outer loop
      vertex 19.1896 -98.5931 8.96803
      vertex 20.7508 -98.8724 9.49247
      vertex 18.3846 -96.9028 9.5088
    endloop
  endfacet
  facet normal -0.423634 -0.462013 0.779152
    outer loop
      vertex 18.5206 -99.7824 7.87523
      vertex 18.3846 -96.9028 9.5088
      vertex 16.8698 -97.6304 8.25374
    endloop
  endfacet
  facet normal -0.444065 -0.45788 0.770164
    outer loop
      vertex 18.5206 -99.7824 7.87523
      vertex 19.1896 -98.5931 8.96803
      vertex 18.3846 -96.9028 9.5088
    endloop
  endfacet
  facet normal -0.561359 -0.434834 0.704127
    outer loop
      vertex 15.5688 -98.4353 6.79268
      vertex 15.6082 -95.0575 8.91005
      vertex 14.0802 -95.7057 7.29157
    endloop
  endfacet
  facet normal -0.53298 -0.444928 0.719703
    outer loop
      vertex 16.8698 -97.6304 8.25374
      vertex 15.6082 -95.0575 8.91005
      vertex 15.5688 -98.4353 6.79268
    endloop
  endfacet
  facet normal -0.489301 -0.495347 0.717785
    outer loop
      vertex 17.6356 -100.908 6.49516
      vertex 18.5206 -99.7824 7.87523
      vertex 15.5688 -98.4353 6.79268
    endloop
  endfacet
  facet normal -0.490286 -0.501478 0.712839
    outer loop
      vertex 18.5206 -99.7824 7.87523
      vertex 16.8698 -97.6304 8.25374
      vertex 15.5688 -98.4353 6.79268
    endloop
  endfacet
  facet normal -0.454361 -0.430614 0.779825
    outer loop
      vertex 15.6082 -95.0575 8.91005
      vertex 18.1851 -96.4063 9.66667
      vertex 16.5912 -94.7245 9.66667
    endloop
  endfacet
  facet normal -0.454337 -0.430534 0.779883
    outer loop
      vertex 18.1851 -96.4063 9.66667
      vertex 15.6082 -95.0575 8.91005
      vertex 18.3846 -96.9028 9.5088
    endloop
  endfacet
  facet normal -0.449919 -0.42146 0.787366
    outer loop
      vertex 16.8698 -97.6304 8.25374
      vertex 18.3846 -96.9028 9.5088
      vertex 15.6082 -95.0575 8.91005
    endloop
  endfacet
  facet normal -0.485845 -0.407116 0.773441
    outer loop
      vertex 14.4449 -92.4487 9.55226
      vertex 15.8719 -93.9343 9.66667
      vertex 14.5905 -92.4051 9.66667
    endloop
  endfacet
  facet normal -0.485764 -0.407031 0.773537
    outer loop
      vertex 15.8719 -93.9343 9.66667
      vertex 14.4449 -92.4487 9.55226
      vertex 15.6082 -95.0575 8.91005
    endloop
  endfacet
  facet normal -0.460384 -0.419077 0.782573
    outer loop
      vertex 16.5912 -94.7245 9.66667
      vertex 15.8719 -93.9343 9.66667
      vertex 15.6082 -95.0575 8.91005
    endloop
  endfacet
  facet normal -0.381872 -0.421443 0.822533
    outer loop
      vertex 18.6624 -96.8464 9.66667
      vertex 18.4675 -96.6698 9.66667
      vertex 18.3846 -96.9028 9.5088
    endloop
  endfacet
  facet normal -0.389618 -0.417564 0.820876
    outer loop
      vertex 18.3846 -96.9028 9.5088
      vertex 18.4675 -96.6698 9.66667
      vertex 18.1851 -96.4063 9.66667
    endloop
  endfacet
  facet normal -0.62686 -0.408582 0.663406
    outer loop
      vertex 11.5768 -90.5096 8.15256
      vertex 11.8893 -88.8 9.50076
      vertex 10.7065 -88.8 8.38312
    endloop
  endfacet
  facet normal -0.615976 -0.415299 0.669402
    outer loop
      vertex 11.5768 -90.5096 8.15256
      vertex 12.0696 -88.8 9.66667
      vertex 11.8893 -88.8 9.50076
    endloop
  endfacet
  facet normal -0.615782 -0.415438 0.669495
    outer loop
      vertex 12.0696 -88.8 9.66667
      vertex 11.5768 -90.5096 8.15256
      vertex 12.9034 -90.0359 9.66667
    endloop
  endfacet
  facet normal -0.606152 -0.400576 0.687109
    outer loop
      vertex 12.8106 -93.0436 7.7637
      vertex 14.4449 -92.4487 9.55226
      vertex 11.5768 -90.5096 8.15256
    endloop
  endfacet
  facet normal -0.611994 -0.422672 0.66844
    outer loop
      vertex 11.5768 -90.5096 8.15256
      vertex 14.2081 -91.925 9.66667
      vertex 12.9034 -90.0359 9.66667
    endloop
  endfacet
  facet normal -0.612003 -0.422746 0.668385
    outer loop
      vertex 14.2081 -91.925 9.66667
      vertex 11.5768 -90.5096 8.15256
      vertex 14.4449 -92.4487 9.55226
    endloop
  endfacet
  facet normal -0.481169 -0.416825 0.77119
    outer loop
      vertex 14.5905 -92.4051 9.66667
      vertex 14.4875 -92.2862 9.66667
      vertex 14.4449 -92.4487 9.55226
    endloop
  endfacet
  facet normal -0.515557 -0.3988 0.758393
    outer loop
      vertex 14.4449 -92.4487 9.55226
      vertex 14.4875 -92.2862 9.66667
      vertex 14.2081 -91.925 9.66667
    endloop
  endfacet
  facet normal -0.716488 -0.421762 0.555663
    outer loop
      vertex 11.4906 -93.6236 5.67781
      vertex 11.5768 -90.5096 8.15256
      vertex 10.2006 -91.151 5.89121
    endloop
  endfacet
  facet normal -0.704282 -0.42964 0.565151
    outer loop
      vertex 12.8106 -93.0436 7.7637
      vertex 11.5768 -90.5096 8.15256
      vertex 11.4906 -93.6236 5.67781
    endloop
  endfacet
  facet normal -0.696584 -0.410055 0.588749
    outer loop
      vertex 12.8329 -96.299 5.40259
      vertex 14.0802 -95.7057 7.29157
      vertex 11.4906 -93.6236 5.67781
    endloop
  endfacet
  facet normal -0.701467 -0.434706 0.564779
    outer loop
      vertex 14.0802 -95.7057 7.29157
      vertex 12.8106 -93.0436 7.7637
      vertex 11.4906 -93.6236 5.67781
    endloop
  endfacet
  facet normal -0.566366 -0.426198 0.705396
    outer loop
      vertex 15.6082 -95.0575 8.91005
      vertex 14.4449 -92.4487 9.55226
      vertex 14.0802 -95.7057 7.29157
    endloop
  endfacet
  facet normal -0.601953 -0.408743 0.685989
    outer loop
      vertex 14.0802 -95.7057 7.29157
      vertex 14.4449 -92.4487 9.55226
      vertex 12.8106 -93.0436 7.7637
    endloop
  endfacet
  facet normal -0.796273 -0.439312 0.415877
    outer loop
      vertex 12.008 -96.8886 3.21948
      vertex 11.4906 -93.6236 5.67781
      vertex 10.5915 -94.2434 3.30159
    endloop
  endfacet
  facet normal -0.793553 -0.441246 0.419017
    outer loop
      vertex 12.008 -96.8886 3.21948
      vertex 12.8329 -96.299 5.40259
      vertex 11.4906 -93.6236 5.67781
    endloop
  endfacet
  facet normal -0.766531 -0.473339 0.434028
    outer loop
      vertex 13.7493 -99.8092 3.10964
      vertex 14.48 -99.1781 5.08838
      vertex 12.008 -96.8886 3.21948
    endloop
  endfacet
  facet normal -0.766909 -0.48465 0.420672
    outer loop
      vertex 14.48 -99.1781 5.08838
      vertex 12.8329 -96.299 5.40259
      vertex 12.008 -96.8886 3.21948
    endloop
  endfacet
  facet normal -0.642207 -0.462021 0.611643
    outer loop
      vertex 14.48 -99.1781 5.08838
      vertex 15.5688 -98.4353 6.79268
      vertex 14.0802 -95.7057 7.29157
    endloop
  endfacet
  facet normal -0.673976 -0.449551 0.586226
    outer loop
      vertex 14.48 -99.1781 5.08838
      vertex 14.0802 -95.7057 7.29157
      vertex 12.8329 -96.299 5.40259
    endloop
  endfacet
  facet normal -0.665977 -0.591648 0.454343
    outer loop
      vertex 16.2227 -102.672 3.0072
      vertex 16.8125 -101.888 4.89266
      vertex 13.7493 -99.8092 3.10964
    endloop
  endfacet
  facet normal -0.665292 -0.604302 0.438412
    outer loop
      vertex 16.8125 -101.888 4.89266
      vertex 14.48 -99.1781 5.08838
      vertex 13.7493 -99.8092 3.10964
    endloop
  endfacet
  facet normal -0.562321 -0.544858 0.622033
    outer loop
      vertex 16.8125 -101.888 4.89266
      vertex 17.6356 -100.908 6.49516
      vertex 15.5688 -98.4353 6.79268
    endloop
  endfacet
  facet normal -0.57998 -0.543063 0.607211
    outer loop
      vertex 16.8125 -101.888 4.89266
      vertex 15.5688 -98.4353 6.79268
      vertex 14.48 -99.1781 5.08838
    endloop
  endfacet
  facet normal -0.513403 -0.711013 0.480497
    outer loop
      vertex 19.2688 -104.878 2.99759
      vertex 19.6821 -103.833 4.98553
      vertex 16.2227 -102.672 3.0072
    endloop
  endfacet
  facet normal -0.507963 -0.727405 0.461363
    outer loop
      vertex 19.6821 -103.833 4.98553
      vertex 16.8125 -101.888 4.89266
      vertex 16.2227 -102.672 3.0072
    endloop
  endfacet
  facet normal -0.440258 -0.635428 0.634353
    outer loop
      vertex 19.6821 -103.833 4.98553
      vertex 20.2194 -102.506 6.68768
      vertex 17.6356 -100.908 6.49516
    endloop
  endfacet
  facet normal -0.452687 -0.638146 0.622771
    outer loop
      vertex 19.6821 -103.833 4.98553
      vertex 17.6356 -100.908 6.49516
      vertex 16.8125 -101.888 4.89266
    endloop
  endfacet
  facet normal -0.358946 -0.658978 0.660988
    outer loop
      vertex 21 -104.393 5.14291
      vertex 21 -103.63 5.90359
      vertex 19.6821 -103.833 4.98553
    endloop
  endfacet
  facet normal -0.342303 -0.685778 0.64229
    outer loop
      vertex 20.2194 -102.506 6.68768
      vertex 21 -103.63 5.90359
      vertex 21 -102.753 6.83997
    endloop
  endfacet
  facet normal -0.341971 -0.685717 0.642533
    outer loop
      vertex 21 -103.63 5.90359
      vertex 20.2194 -102.506 6.68768
      vertex 19.6821 -103.833 4.98553
    endloop
  endfacet
  facet normal -0.309076 -0.575932 0.756819
    outer loop
      vertex 21 -101.251 8.03131
      vertex 21 -100.948 8.26189
      vertex 20.6827 -100.896 8.17188
    endloop
  endfacet
  facet normal -0.329175 -0.587073 0.739587
    outer loop
      vertex 20.2194 -102.506 6.68768
      vertex 21 -101.251 8.03131
      vertex 20.6827 -100.896 8.17188
    endloop
  endfacet
  facet normal -0.329917 -0.586633 0.739606
    outer loop
      vertex 21 -101.251 8.03131
      vertex 20.2194 -102.506 6.68768
      vertex 21 -102.753 6.83997
    endloop
  endfacet
  facet normal -0.39355 -0.572481 0.719294
    outer loop
      vertex 20.6827 -100.896 8.17188
      vertex 18.5206 -99.7824 7.87523
      vertex 17.6356 -100.908 6.49516
    endloop
  endfacet
  facet normal -0.398729 -0.556925 0.728595
    outer loop
      vertex 20.2194 -102.506 6.68768
      vertex 20.6827 -100.896 8.17188
      vertex 17.6356 -100.908 6.49516
    endloop
  endfacet
  facet normal -0.3099 -0.51218 0.80102
    outer loop
      vertex 20.7508 -98.8724 9.49247
      vertex 21 -100.604 8.48168
      vertex 21 -98.8742 9.58773
    endloop
  endfacet
  facet normal -0.310558 -0.51214 0.800791
    outer loop
      vertex 21 -100.604 8.48168
      vertex 20.7508 -98.8724 9.49247
      vertex 20.6827 -100.896 8.17188
    endloop
  endfacet
  facet normal -0.311049 -0.511702 0.800881
    outer loop
      vertex 21 -100.948 8.26189
      vertex 21 -100.604 8.48168
      vertex 20.6827 -100.896 8.17188
    endloop
  endfacet
  facet normal -0.693649 -0.456805 0.556939
    outer loop
      vertex 8.89662 -88.8187 6.07892
      vertex 8.93476 -88.8 6.14176
      vertex 8.88567 -88.8 6.08062
    endloop
  endfacet
  facet normal -0.720827 -0.505088 0.474651
    outer loop
      vertex 7.83039 -89.5591 3.48098
      vertex 7.76997 -88.8 4.197
      vertex 7.33422 -88.8 3.53525
    endloop
  endfacet
  facet normal -0.753846 -0.482016 0.446516
    outer loop
      vertex 7.76997 -88.8 4.197
      vertex 8.89662 -88.8187 6.07892
      vertex 8.88567 -88.8 6.08062
    endloop
  endfacet
  facet normal -0.754145 -0.481376 0.446701
    outer loop
      vertex 8.89662 -88.8187 6.07892
      vertex 7.76997 -88.8 4.197
      vertex 7.83039 -89.5591 3.48098
    endloop
  endfacet
  facet normal -0.761659 -0.487168 0.42725
    outer loop
      vertex 9.22735 -91.8327 3.37889
      vertex 10.2006 -91.151 5.89121
      vertex 7.83039 -89.5591 3.48098
    endloop
  endfacet
  facet normal -0.765322 -0.463806 0.446281
    outer loop
      vertex 10.2006 -91.151 5.89121
      vertex 8.89662 -88.8187 6.07892
      vertex 7.83039 -89.5591 3.48098
    endloop
  endfacet
  facet normal -0.708782 -0.435643 0.554836
    outer loop
      vertex 10.3174 -88.8 7.88606
      vertex 11.5768 -90.5096 8.15256
      vertex 10.7065 -88.8 8.38312
    endloop
  endfacet
  facet normal -0.708757 -0.435617 0.554888
    outer loop
      vertex 11.5768 -90.5096 8.15256
      vertex 10.3174 -88.8 7.88606
      vertex 10.2006 -91.151 5.89121
    endloop
  endfacet
  facet normal -0.704351 -0.438713 0.55805
    outer loop
      vertex 10.2006 -91.151 5.89121
      vertex 8.93476 -88.8 6.14176
      vertex 8.89662 -88.8187 6.07892
    endloop
  endfacet
  facet normal -0.704239 -0.438672 0.558224
    outer loop
      vertex 8.93476 -88.8 6.14176
      vertex 10.2006 -91.151 5.89121
      vertex 10.3174 -88.8 7.88606
    endloop
  endfacet
  facet normal -0.781618 -0.539073 0.313804
    outer loop
      vertex 8.7309 -92.4905 0.688206
      vertex 7.83039 -89.5591 3.48098
      vertex 7.22215 -90.2544 0.771554
    endloop
  endfacet
  facet normal -0.813529 -0.512217 0.275325
    outer loop
      vertex 8.7309 -92.4905 0.688206
      vertex 9.22735 -91.8327 3.37889
      vertex 7.83039 -89.5591 3.48098
    endloop
  endfacet
  facet normal -0.822093 -0.516977 0.238533
    outer loop
      vertex 10.2134 -94.8449 0.694843
      vertex 10.5915 -94.2434 3.30159
      vertex 8.7309 -92.4905 0.688206
    endloop
  endfacet
  facet normal -0.833909 -0.480587 0.271353
    outer loop
      vertex 10.5915 -94.2434 3.30159
      vertex 9.22735 -91.8327 3.37889
      vertex 8.7309 -92.4905 0.688206
    endloop
  endfacet
  facet normal -0.790904 -0.448554 0.416256
    outer loop
      vertex 10.5915 -94.2434 3.30159
      vertex 11.4906 -93.6236 5.67781
      vertex 10.2006 -91.151 5.89121
    endloop
  endfacet
  facet normal -0.781323 -0.455801 0.426356
    outer loop
      vertex 10.5915 -94.2434 3.30159
      vertex 10.2006 -91.151 5.89121
      vertex 9.22735 -91.8327 3.37889
    endloop
  endfacet
  facet normal -0.814901 -0.572523 0.0903016
    outer loop
      vertex 10.3576 -95.2296 -1.99834
      vertex 8.7309 -92.4905 0.688206
      vertex 8.71859 -92.9069 -2.06291
    endloop
  endfacet
  facet normal -0.845855 -0.532524 0.0307777
    outer loop
      vertex 10.3576 -95.2296 -1.99834
      vertex 10.2134 -94.8449 0.694843
      vertex 8.7309 -92.4905 0.688206
    endloop
  endfacet
  facet normal -0.82442 -0.564954 -0.0340331
    outer loop
      vertex 12.0575 -97.7234 -1.77945
      vertex 11.7417 -97.4166 0.777596
      vertex 10.3576 -95.2296 -1.99834
    endloop
  endfacet
  facet normal -0.859726 -0.510051 0.0268249
    outer loop
      vertex 10.3576 -95.2296 -1.99834
      vertex 11.7417 -97.4166 0.777596
      vertex 10.2134 -94.8449 0.694843
    endloop
  endfacet
  facet normal -0.862077 -0.467698 0.195143
    outer loop
      vertex 11.7417 -97.4166 0.777596
      vertex 12.008 -96.8886 3.21948
      vertex 10.5915 -94.2434 3.30159
    endloop
  endfacet
  facet normal -0.83889 -0.490972 0.234969
    outer loop
      vertex 11.7417 -97.4166 0.777596
      vertex 10.5915 -94.2434 3.30159
      vertex 10.2134 -94.8449 0.694843
    endloop
  endfacet
  facet normal -0.813342 -0.575122 -0.0878044
    outer loop
      vertex 13.9379 -100.423 -1.51532
      vertex 13.5617 -100.255 0.869056
      vertex 12.0575 -97.7234 -1.77945
    endloop
  endfacet
  facet normal -0.840598 -0.540253 -0.0389947
    outer loop
      vertex 12.0575 -97.7234 -1.77945
      vertex 13.5617 -100.255 0.869056
      vertex 11.7417 -97.4166 0.777596
    endloop
  endfacet
  facet normal -0.843277 -0.509239 0.171927
    outer loop
      vertex 13.5617 -100.255 0.869056
      vertex 13.7493 -99.8092 3.10964
      vertex 12.008 -96.8886 3.21948
    endloop
  endfacet
  facet normal -0.827166 -0.523828 0.203472
    outer loop
      vertex 13.5617 -100.255 0.869056
      vertex 12.008 -96.8886 3.21948
      vertex 11.7417 -97.4166 0.777596
    endloop
  endfacet
  facet normal -0.748425 -0.657851 -0.0842113
    outer loop
      vertex 16.2564 -103.077 -1.38809
      vertex 16.0127 -103.09 0.879339
      vertex 13.9379 -100.423 -1.51532
    endloop
  endfacet
  facet normal -0.754329 -0.65242 -0.0730472
    outer loop
      vertex 13.9379 -100.423 -1.51532
      vertex 16.0127 -103.09 0.879339
      vertex 13.5617 -100.255 0.869056
    endloop
  endfacet
  facet normal -0.737945 -0.644707 0.199475
    outer loop
      vertex 16.0127 -103.09 0.879339
      vertex 16.2227 -102.672 3.0072
      vertex 13.7493 -99.8092 3.10964
    endloop
  endfacet
  facet normal -0.743057 -0.641721 0.189895
    outer loop
      vertex 16.0127 -103.09 0.879339
      vertex 13.7493 -99.8092 3.10964
      vertex 13.5617 -100.255 0.869056
    endloop
  endfacet
  facet normal -0.617708 -0.784825 -0.0498681
    outer loop
      vertex 19.1242 -105.326 -1.5163
      vertex 19.0553 -105.418 0.785048
      vertex 16.2564 -103.077 -1.38809
    endloop
  endfacet
  facet normal -0.607546 -0.791209 -0.0698344
    outer loop
      vertex 16.2564 -103.077 -1.38809
      vertex 19.0553 -105.418 0.785048
      vertex 16.0127 -103.09 0.879339
    endloop
  endfacet
  facet normal -0.567941 -0.785301 0.246467
    outer loop
      vertex 19.0553 -105.418 0.785048
      vertex 19.2688 -104.878 2.99759
      vertex 16.2227 -102.672 3.0072
    endloop
  endfacet
  facet normal -0.589804 -0.779408 0.211316
    outer loop
      vertex 19.0553 -105.418 0.785048
      vertex 16.2227 -102.672 3.0072
      vertex 16.0127 -103.09 0.879339
    endloop
  endfacet
  facet normal -0.496825 -0.86785 0.00116496
    outer loop
      vertex 21 -106.4 -1.62546
      vertex 21 -106.398 -0.135542
      vertex 19.1242 -105.326 -1.5163
    endloop
  endfacet
  facet normal -0.468207 -0.882207 -0.0499244
    outer loop
      vertex 19.0553 -105.418 0.785048
      vertex 21 -106.398 -0.135542
      vertex 21 -106.449 0.765672
    endloop
  endfacet
  facet normal -0.467983 -0.882362 -0.0492847
    outer loop
      vertex 21 -106.398 -0.135542
      vertex 19.0553 -105.418 0.785048
      vertex 19.1242 -105.326 -1.5163
    endloop
  endfacet
  facet normal -0.430212 -0.857734 0.281441
    outer loop
      vertex 21 -106.18 1.67587
      vertex 21 -105.716 3.08998
      vertex 19.2688 -104.878 2.99759
    endloop
  endfacet
  facet normal -0.451069 -0.85604 0.252454
    outer loop
      vertex 19.0553 -105.418 0.785048
      vertex 21 -106.18 1.67587
      vertex 19.2688 -104.878 2.99759
    endloop
  endfacet
  facet normal -0.451204 -0.855827 0.252931
    outer loop
      vertex 21 -106.18 1.67587
      vertex 19.0553 -105.418 0.785048
      vertex 21 -106.449 0.765672
    endloop
  endfacet
  facet normal -0.389697 -0.779109 0.491046
    outer loop
      vertex 19.6821 -103.833 4.98553
      vertex 21 -104.975 4.21949
      vertex 21 -104.393 5.14291
    endloop
  endfacet
  facet normal -0.389985 -0.779196 0.490679
    outer loop
      vertex 21 -104.975 4.21949
      vertex 19.6821 -103.833 4.98553
      vertex 19.2688 -104.878 2.99759
    endloop
  endfacet
  facet normal -0.398129 -0.767006 0.503184
    outer loop
      vertex 21 -105.716 3.08998
      vertex 21 -104.975 4.21949
      vertex 19.2688 -104.878 2.99759
    endloop
  endfacet
  facet normal -0.769686 -0.623926 0.13528
    outer loop
      vertex 7.09417 -90.6906 -1.96872
      vertex 5.65756 -88.8 -1.42277
      vertex 5.59017 -88.8 -1.80619
    endloop
  endfacet
  facet normal -0.76969 -0.623924 0.135264
    outer loop
      vertex 5.65756 -88.8 -1.42277
      vertex 7.09417 -90.6906 -1.96872
      vertex 7.22215 -90.2544 0.771554
    endloop
  endfacet
  facet normal -0.789959 -0.588116 0.17345
    outer loop
      vertex 7.22215 -90.2544 0.771554
      vertex 6.16209 -88.8 0.875054
      vertex 5.65756 -88.8 -1.42277
    endloop
  endfacet
  facet normal -0.784457 -0.535152 0.313431
    outer loop
      vertex 6.80795 -88.8 2.2181
      vertex 7.83039 -89.5591 3.48098
      vertex 7.33422 -88.8 3.53525
    endloop
  endfacet
  facet normal -0.784458 -0.535149 0.313435
    outer loop
      vertex 7.83039 -89.5591 3.48098
      vertex 6.80795 -88.8 2.2181
      vertex 7.22215 -90.2544 0.771554
    endloop
  endfacet
  facet normal -0.742565 -0.566641 0.357093
    outer loop
      vertex 7.22215 -90.2544 0.771554
      vertex 6.80795 -88.8 2.2181
      vertex 6.16209 -88.8 0.875054
    endloop
  endfacet
  facet normal -0.76864 -0.630944 -0.105371
    outer loop
      vertex 5.95553 -88.8 -4.40622
      vertex 7.44507 -90.5878 -4.56678
      vertex 5.64146 -88.8 -2.11521
    endloop
  endfacet
  facet normal -0.781371 -0.610443 -0.129688
    outer loop
      vertex 7.09417 -90.6906 -1.96872
      vertex 5.64146 -88.8 -2.11521
      vertex 7.44507 -90.5878 -4.56678
    endloop
  endfacet
  facet normal -0.781371 -0.610443 -0.129689
    outer loop
      vertex 5.64146 -88.8 -2.11521
      vertex 7.09417 -90.6906 -1.96872
      vertex 5.59017 -88.8 -1.80619
    endloop
  endfacet
  facet normal -0.778631 -0.605465 -0.164758
    outer loop
      vertex 9.1869 -92.8045 -4.65241
      vertex 8.71859 -92.9069 -2.06291
      vertex 7.44507 -90.5878 -4.56678
    endloop
  endfacet
  facet normal -0.802217 -0.582395 -0.131393
    outer loop
      vertex 7.44507 -90.5878 -4.56678
      vertex 8.71859 -92.9069 -2.06291
      vertex 7.09417 -90.6906 -1.96872
    endloop
  endfacet
  facet normal -0.824183 -0.559389 0.0883552
    outer loop
      vertex 8.71859 -92.9069 -2.06291
      vertex 8.7309 -92.4905 0.688206
      vertex 7.22215 -90.2544 0.771554
    endloop
  endfacet
  facet normal -0.796931 -0.589676 0.131085
    outer loop
      vertex 8.71859 -92.9069 -2.06291
      vertex 7.22215 -90.2544 0.771554
      vertex 7.09417 -90.6906 -1.96872
    endloop
  endfacet
  facet normal -0.714502 -0.571925 -0.402974
    outer loop
      vertex 8.25515 -89.9587 -6.89597
      vertex 10.0534 -92.1813 -6.92995
      vertex 7.44507 -90.5878 -4.56678
    endloop
  endfacet
  facet normal -0.719929 -0.549316 -0.424209
    outer loop
      vertex 10.0534 -92.1813 -6.92995
      vertex 9.1869 -92.8045 -4.65241
      vertex 7.44507 -90.5878 -4.56678
    endloop
  endfacet
  facet normal -0.686895 -0.57503 -0.444428
    outer loop
      vertex 11.9391 -94.5476 -6.78276
      vertex 10.9892 -95.1471 -4.53895
      vertex 10.0534 -92.1813 -6.92995
    endloop
  endfacet
  facet normal -0.7078 -0.565084 -0.423909
    outer loop
      vertex 10.0534 -92.1813 -6.92995
      vertex 10.9892 -95.1471 -4.53895
      vertex 9.1869 -92.8045 -4.65241
    endloop
  endfacet
  facet normal -0.794925 -0.566943 -0.21603
    outer loop
      vertex 10.9892 -95.1471 -4.53895
      vertex 10.3576 -95.2296 -1.99834
      vertex 8.71859 -92.9069 -2.06291
    endloop
  endfacet
  facet normal -0.777886 -0.606449 -0.164662
    outer loop
      vertex 9.1869 -92.8045 -4.65241
      vertex 10.9892 -95.1471 -4.53895
      vertex 8.71859 -92.9069 -2.06291
    endloop
  endfacet
  facet normal -0.651912 -0.588435 -0.478283
    outer loop
      vertex 13.9007 -96.9767 -6.46793
      vertex 12.8506 -97.6223 -4.24233
      vertex 11.9391 -94.5476 -6.78276
    endloop
  endfacet
  facet normal -0.689465 -0.571776 -0.444647
    outer loop
      vertex 11.9391 -94.5476 -6.78276
      vertex 12.8506 -97.6223 -4.24233
      vertex 10.9892 -95.1471 -4.53895
    endloop
  endfacet
  facet normal -0.783015 -0.557885 -0.275049
    outer loop
      vertex 12.8506 -97.6223 -4.24233
      vertex 12.0575 -97.7234 -1.77945
      vertex 10.3576 -95.2296 -1.99834
    endloop
  endfacet
  facet normal -0.768972 -0.60354 -0.210766
    outer loop
      vertex 10.9892 -95.1471 -4.53895
      vertex 12.8506 -97.6223 -4.24233
      vertex 10.3576 -95.2296 -1.99834
    endloop
  endfacet
  facet normal -0.610172 -0.593296 -0.525062
    outer loop
      vertex 15.915 -99.3489 -6.12826
      vertex 14.7923 -100.172 -3.89351
      vertex 13.9007 -96.9767 -6.46793
    endloop
  endfacet
  facet normal -0.665138 -0.572171 -0.479805
    outer loop
      vertex 13.9007 -96.9767 -6.46793
      vertex 14.7923 -100.172 -3.89351
      vertex 12.8506 -97.6223 -4.24233
    endloop
  endfacet
  facet normal -0.758569 -0.560835 -0.331719
    outer loop
      vertex 14.7923 -100.172 -3.89351
      vertex 13.9379 -100.423 -1.51532
      vertex 12.0575 -97.7234 -1.77945
    endloop
  endfacet
  facet normal -0.748994 -0.606794 -0.266101
    outer loop
      vertex 12.8506 -97.6223 -4.24233
      vertex 14.7923 -100.172 -3.89351
      vertex 12.0575 -97.7234 -1.77945
    endloop
  endfacet
  facet normal -0.569056 -0.60722 -0.554491
    outer loop
      vertex 18.0431 -101.528 -5.92594
      vertex 16.9715 -102.561 -3.69496
      vertex 15.915 -99.3489 -6.12826
    endloop
  endfacet
  facet normal -0.606752 -0.597079 -0.524737
    outer loop
      vertex 15.915 -99.3489 -6.12826
      vertex 16.9715 -102.561 -3.69496
      vertex 14.7923 -100.172 -3.89351
    endloop
  endfacet
  facet normal -0.695463 -0.62458 -0.35529
    outer loop
      vertex 16.9715 -102.561 -3.69496
      vertex 16.2564 -103.077 -1.38809
      vertex 13.9379 -100.423 -1.51532
    endloop
  endfacet
  facet normal -0.687709 -0.653582 -0.31605
    outer loop
      vertex 14.7923 -100.172 -3.89351
      vertex 16.9715 -102.561 -3.69496
      vertex 13.9379 -100.423 -1.51532
    endloop
  endfacet
  facet normal -0.530781 -0.63877 -0.556996
    outer loop
      vertex 20.4327 -103.512 -5.9278
      vertex 19.5561 -104.655 -3.78165
      vertex 18.0431 -101.528 -5.92594
    endloop
  endfacet
  facet normal -0.535676 -0.638291 -0.552844
    outer loop
      vertex 18.0431 -101.528 -5.92594
      vertex 19.5561 -104.655 -3.78165
      vertex 16.9715 -102.561 -3.69496
    endloop
  endfacet
  facet normal -0.591505 -0.735407 -0.330602
    outer loop
      vertex 19.5561 -104.655 -3.78165
      vertex 19.1242 -105.326 -1.5163
      vertex 16.2564 -103.077 -1.38809
    endloop
  endfacet
  facet normal -0.597411 -0.723015 -0.346914
    outer loop
      vertex 16.9715 -102.561 -3.69496
      vertex 19.5561 -104.655 -3.78165
      vertex 16.2564 -103.077 -1.38809
    endloop
  endfacet
  facet normal -0.466881 -0.690332 -0.552687
    outer loop
      vertex 21 -103.874 -5.95487
      vertex 21 -104.304 -5.41778
      vertex 20.4327 -103.512 -5.9278
    endloop
  endfacet
  facet normal -0.462901 -0.689929 -0.556526
    outer loop
      vertex 19.5561 -104.655 -3.78165
      vertex 21 -104.304 -5.41778
      vertex 21 -105.534 -3.89294
    endloop
  endfacet
  facet normal -0.462891 -0.689941 -0.556519
    outer loop
      vertex 21 -104.304 -5.41778
      vertex 19.5561 -104.655 -3.78165
      vertex 20.4327 -103.512 -5.9278
    endloop
  endfacet
  facet normal -0.488148 -0.823075 -0.290275
    outer loop
      vertex 21 -105.958 -2.87875
      vertex 21 -106.4 -1.62546
      vertex 19.1242 -105.326 -1.5163
    endloop
  endfacet
  facet normal -0.508882 -0.794136 -0.332245
    outer loop
      vertex 19.5561 -104.655 -3.78165
      vertex 21 -105.958 -2.87875
      vertex 19.1242 -105.326 -1.5163
    endloop
  endfacet
  facet normal -0.509036 -0.794139 -0.332004
    outer loop
      vertex 21 -105.958 -2.87875
      vertex 19.5561 -104.655 -3.78165
      vertex 21 -105.534 -3.89294
    endloop
  endfacet
  facet normal -0.636317 -0.505521 -0.582709
    outer loop
      vertex 9.43057 -88.9967 -9.0138
      vertex 8.06203 -88.8 -7.69
      vertex 9.269 -88.8 -9.00801
    endloop
  endfacet
  facet normal -0.636353 -0.505414 -0.582762
    outer loop
      vertex 8.06203 -88.8 -7.69
      vertex 9.43057 -88.9967 -9.0138
      vertex 8.25515 -89.9587 -6.89597
    endloop
  endfacet
  facet normal -0.643583 -0.502743 -0.577105
    outer loop
      vertex 8.06203 -88.8 -7.69
      vertex 8.25515 -89.9587 -6.89597
      vertex 7.28194 -88.8 -6.82005
    endloop
  endfacet
  facet normal -0.720604 -0.564194 -0.403008
    outer loop
      vertex 7.44507 -90.5878 -4.56678
      vertex 6.24224 -88.8 -4.91889
      vertex 8.25515 -89.9587 -6.89597
    endloop
  endfacet
  facet normal -0.720608 -0.564195 -0.402999
    outer loop
      vertex 6.24224 -88.8 -4.91889
      vertex 7.44507 -90.5878 -4.56678
      vertex 5.95553 -88.8 -4.40622
    endloop
  endfacet
  facet normal -0.71692 -0.576463 -0.392067
    outer loop
      vertex 7.28194 -88.8 -6.82005
      vertex 8.25515 -89.9587 -6.89597
      vertex 6.24224 -88.8 -4.91889
    endloop
  endfacet
  facet normal -0.568128 -0.44631 -0.691402
    outer loop
      vertex 9.6445 -88.8 -9.31656
      vertex 9.43057 -88.9967 -9.0138
      vertex 9.269 -88.8 -9.00801
    endloop
  endfacet
  facet normal -0.532158 -0.469728 -0.704389
    outer loop
      vertex 11.6888 -90.6728 -9.66667
      vertex 11.1976 -91.1654 -8.96708
      vertex 11.0643 -89.9653 -9.66667
    endloop
  endfacet
  facet normal -0.552169 -0.464811 -0.692142
    outer loop
      vertex 9.43057 -88.9967 -9.0138
      vertex 11.0643 -89.9653 -9.66667
      vertex 11.1976 -91.1654 -8.96708
    endloop
  endfacet
  facet normal -0.552163 -0.464787 -0.692163
    outer loop
      vertex 11.0643 -89.9653 -9.66667
      vertex 9.43057 -88.9967 -9.0138
      vertex 10.0834 -88.8 -9.66667
    endloop
  endfacet
  facet normal -0.552123 -0.464861 -0.692145
    outer loop
      vertex 10.0834 -88.8 -9.66667
      vertex 9.43057 -88.9967 -9.0138
      vertex 9.6445 -88.8 -9.31656
    endloop
  endfacet
  facet normal -0.626397 -0.497629 -0.599993
    outer loop
      vertex 11.1976 -91.1654 -8.96708
      vertex 10.0534 -92.1813 -6.92995
      vertex 8.25515 -89.9587 -6.89597
    endloop
  endfacet
  facet normal -0.623792 -0.520813 -0.582785
    outer loop
      vertex 9.43057 -88.9967 -9.0138
      vertex 11.1976 -91.1654 -8.96708
      vertex 8.25515 -89.9587 -6.89597
    endloop
  endfacet
  facet normal -0.493683 -0.487493 -0.720158
    outer loop
      vertex 13.6972 -92.7807 -9.66667
      vertex 13.0744 -93.4647 -8.77671
      vertex 12.8388 -91.9114 -9.66667
    endloop
  endfacet
  facet normal -0.519845 -0.482678 -0.704828
    outer loop
      vertex 11.1976 -91.1654 -8.96708
      vertex 12.8388 -91.9114 -9.66667
      vertex 13.0744 -93.4647 -8.77671
    endloop
  endfacet
  facet normal -0.519842 -0.482656 -0.704846
    outer loop
      vertex 12.8388 -91.9114 -9.66667
      vertex 11.1976 -91.1654 -8.96708
      vertex 11.6888 -90.6728 -9.66667
    endloop
  endfacet
  facet normal -0.595722 -0.513163 -0.617883
    outer loop
      vertex 13.0744 -93.4647 -8.77671
      vertex 11.9391 -94.5476 -6.78276
      vertex 10.0534 -92.1813 -6.92995
    endloop
  endfacet
  facet normal -0.59435 -0.53486 -0.60056
    outer loop
      vertex 11.1976 -91.1654 -8.96708
      vertex 13.0744 -93.4647 -8.77671
      vertex 10.0534 -92.1813 -6.92995
    endloop
  endfacet
  facet normal -0.45362 -0.504827 -0.734424
    outer loop
      vertex 15.897 -94.8114 -9.66667
      vertex 15.0559 -95.7977 -8.4692
      vertex 14.6647 -93.7041 -9.66667
    endloop
  endfacet
  facet normal -0.478747 -0.501593 -0.72056
    outer loop
      vertex 13.0744 -93.4647 -8.77671
      vertex 14.6647 -93.7041 -9.66667
      vertex 15.0559 -95.7977 -8.4692
    endloop
  endfacet
  facet normal -0.478744 -0.501608 -0.720551
    outer loop
      vertex 14.6647 -93.7041 -9.66667
      vertex 13.0744 -93.4647 -8.77671
      vertex 13.6972 -92.7807 -9.66667
    endloop
  endfacet
  facet normal -0.55795 -0.533009 -0.636077
    outer loop
      vertex 15.0559 -95.7977 -8.4692
      vertex 13.9007 -96.9767 -6.46793
      vertex 11.9391 -94.5476 -6.78276
    endloop
  endfacet
  facet normal -0.556961 -0.554542 -0.618286
    outer loop
      vertex 13.0744 -93.4647 -8.77671
      vertex 15.0559 -95.7977 -8.4692
      vertex 11.9391 -94.5476 -6.78276
    endloop
  endfacet
  facet normal -0.411592 -0.516702 -0.750741
    outer loop
      vertex 18.2195 -96.7038 -9.66667
      vertex 17.1161 -98.0352 -8.14539
      vertex 16.5496 -95.3736 -9.66667
    endloop
  endfacet
  facet normal -0.442896 -0.514102 -0.734535
    outer loop
      vertex 15.0559 -95.7977 -8.4692
      vertex 16.5496 -95.3736 -9.66667
      vertex 17.1161 -98.0352 -8.14539
    endloop
  endfacet
  facet normal -0.442892 -0.514108 -0.734533
    outer loop
      vertex 16.5496 -95.3736 -9.66667
      vertex 15.0559 -95.7977 -8.4692
      vertex 15.897 -94.8114 -9.66667
    endloop
  endfacet
  facet normal -0.522272 -0.538194 -0.661498
    outer loop
      vertex 17.1161 -98.0352 -8.14539
      vertex 15.915 -99.3489 -6.12826
      vertex 13.9007 -96.9767 -6.46793
    endloop
  endfacet
  facet normal -0.519619 -0.57049 -0.636032
    outer loop
      vertex 15.0559 -95.7977 -8.4692
      vertex 17.1161 -98.0352 -8.14539
      vertex 13.9007 -96.9767 -6.46793
    endloop
  endfacet
  facet normal -0.382198 -0.51354 -0.768246
    outer loop
      vertex 19.2731 -100.119 -7.92185
      vertex 20.4593 -98.3916 -9.66667
      vertex 20.6023 -98.5247 -9.64884
    endloop
  endfacet
  facet normal -0.382209 -0.513532 -0.768246
    outer loop
      vertex 20.4593 -98.3916 -9.66667
      vertex 19.2731 -100.119 -7.92185
      vertex 18.5162 -96.9454 -9.66667
    endloop
  endfacet
  facet normal -0.417051 -0.512241 -0.750785
    outer loop
      vertex 17.1161 -98.0352 -8.14539
      vertex 18.5162 -96.9454 -9.66667
      vertex 19.2731 -100.119 -7.92185
    endloop
  endfacet
  facet normal -0.417084 -0.512206 -0.75079
    outer loop
      vertex 18.5162 -96.9454 -9.66667
      vertex 17.1161 -98.0352 -8.14539
      vertex 18.2195 -96.7038 -9.66667
    endloop
  endfacet
  facet normal -0.489332 -0.541361 -0.683727
    outer loop
      vertex 19.2731 -100.119 -7.92185
      vertex 18.0431 -101.528 -5.92594
      vertex 15.915 -99.3489 -6.12826
    endloop
  endfacet
  facet normal -0.484547 -0.572519 -0.661389
    outer loop
      vertex 17.1161 -98.0352 -8.14539
      vertex 19.2731 -100.119 -7.92185
      vertex 15.915 -99.3489 -6.12826
    endloop
  endfacet
  facet normal -0.354769 -0.506306 -0.785998
    outer loop
      vertex 21 -98.8437 -9.62286
      vertex 21 -99.8963 -8.94482
      vertex 20.6023 -98.5247 -9.64884
    endloop
  endfacet
  facet normal -0.38977 -0.507492 -0.768461
    outer loop
      vertex 19.2731 -100.119 -7.92185
      vertex 21 -99.8963 -8.94482
      vertex 21 -101.539 -7.85998
    endloop
  endfacet
  facet normal -0.389781 -0.507463 -0.768474
    outer loop
      vertex 21 -99.8963 -8.94482
      vertex 19.2731 -100.119 -7.92185
      vertex 20.6023 -98.5247 -9.64884
    endloop
  endfacet
  facet normal -0.455902 -0.547015 -0.702089
    outer loop
      vertex 20.4327 -103.512 -5.9278
      vertex 21 -101.962 -7.50382
      vertex 21 -102.819 -6.83611
    endloop
  endfacet
  facet normal -0.455096 -0.547476 -0.702252
    outer loop
      vertex 21 -101.962 -7.50382
      vertex 20.4327 -103.512 -5.9278
      vertex 18.0431 -101.528 -5.92594
    endloop
  endfacet
  facet normal -0.449168 -0.575453 -0.683448
    outer loop
      vertex 18.0431 -101.528 -5.92594
      vertex 21 -101.539 -7.85998
      vertex 21 -101.962 -7.50382
    endloop
  endfacet
  facet normal -0.449022 -0.575836 -0.683222
    outer loop
      vertex 21 -101.539 -7.85998
      vertex 18.0431 -101.528 -5.92594
      vertex 19.2731 -100.119 -7.92185
    endloop
  endfacet
  facet normal -0.399838 -0.573106 -0.715317
    outer loop
      vertex 21 -103.555 -6.21045
      vertex 21 -103.874 -5.95487
      vertex 20.4327 -103.512 -5.9278
    endloop
  endfacet
  facet normal -0.394022 -0.595287 -0.700271
    outer loop
      vertex 21 -102.819 -6.83611
      vertex 21 -103.555 -6.21045
      vertex 20.4327 -103.512 -5.9278
    endloop
  endfacet
  facet normal -0.323422 -0.458373 -0.827824
    outer loop
      vertex 20.6186 -98.504 -9.66667
      vertex 20.6023 -98.5247 -9.64884
      vertex 20.4593 -98.3916 -9.66667
    endloop
  endfacet
  facet normal -0.297817 -0.440212 -0.847064
    outer loop
      vertex 21 -98.8437 -9.62286
      vertex 20.6553 -98.5262 -9.66667
      vertex 21 -98.7594 -9.66667
    endloop
  endfacet
  facet normal -0.297505 -0.439911 -0.847331
    outer loop
      vertex 20.6553 -98.5262 -9.66667
      vertex 21 -98.8437 -9.62286
      vertex 20.6023 -98.5247 -9.64884
    endloop
  endfacet
  facet normal -0.29159 -0.482042 -0.826202
    outer loop
      vertex 20.6186 -98.504 -9.66667
      vertex 20.6553 -98.5262 -9.66667
      vertex 20.6023 -98.5247 -9.64884
    endloop
  endfacet
  facet normal -0.338206 -0.450667 0.826145
    outer loop
      vertex 20.7508 -98.8724 9.49247
      vertex 20.8865 -98.6549 9.66667
      vertex 20.6677 -98.4907 9.66667
    endloop
  endfacet
  facet normal -0.319384 -0.462964 0.826837
    outer loop
      vertex 20.7508 -98.8724 9.49247
      vertex 21 -98.7332 9.66667
      vertex 20.8865 -98.6549 9.66667
    endloop
  endfacet
  facet normal -0.319418 -0.462918 0.826849
    outer loop
      vertex 21 -98.7332 9.66667
      vertex 20.7508 -98.8724 9.49247
      vertex 21 -98.8742 9.58773
    endloop
  endfacet
endsolid OpenSCAD_Model
