solid OpenSCAD_Model
  facet normal 1 -0 0
    outer loop
      vertex 42 -44.9175 25.7583
      vertex 42 -44.4 9.66667
      vertex 42 -44.4 25.824
    endloop
  endfacet
  facet normal 1 -0 0
    outer loop
      vertex 42 -45.3553 25.6975
      vertex 42 -44.4 9.66667
      vertex 42 -44.9175 25.7583
    endloop
  endfacet
  facet normal 1 -0 0
    outer loop
      vertex 42 -45.5373 25.6632
      vertex 42 -44.4 9.66667
      vertex 42 -45.3553 25.6975
    endloop
  endfacet
  facet normal 1 -0 0
    outer loop
      vertex 42 -45.9377 25.6109
      vertex 42 -44.4 9.66667
      vertex 42 -45.5373 25.6632
    endloop
  endfacet
  facet normal 1 -0 0
    outer loop
      vertex 42 -47.7804 25.4214
      vertex 42 -44.4 9.66667
      vertex 42 -45.9377 25.6109
    endloop
  endfacet
  facet normal 1 -0 0
    outer loop
      vertex 42 -48.7137 25.3343
      vertex 42 -44.4 9.66667
      vertex 42 -47.7804 25.4214
    endloop
  endfacet
  facet normal 1 -0 0
    outer loop
      vertex 42 -49.8785 25.162
      vertex 42 -44.4 9.66667
      vertex 42 -48.7137 25.3343
    endloop
  endfacet
  facet normal 1 -0 0
    outer loop
      vertex 42 -51.5256 24.8317
      vertex 42 -44.4 9.66667
      vertex 42 -49.8785 25.162
    endloop
  endfacet
  facet normal 1 0 0
    outer loop
      vertex 42 -52.0917 24.7194
      vertex 42 -51.5256 24.8317
      vertex 42 -51.8371 24.7804
    endloop
  endfacet
  facet normal 1 0 0
    outer loop
      vertex 42 -51.5256 24.8317
      vertex 42 -52.0917 24.7194
      vertex 42 -44.4 9.66667
    endloop
  endfacet
  facet normal 1 -0 0
    outer loop
      vertex 42 -53.7278 24.2608
      vertex 42 -44.4 9.66667
      vertex 42 -52.0917 24.7194
    endloop
  endfacet
  facet normal 1 -0 0
    outer loop
      vertex 42 -55.1006 23.8595
      vertex 42 -44.4 9.66667
      vertex 42 -53.7278 24.2608
    endloop
  endfacet
  facet normal 1 -0 0
    outer loop
      vertex 42 -55.632 23.7157
      vertex 42 -44.4 9.66667
      vertex 42 -55.1006 23.8595
    endloop
  endfacet
  facet normal 1 -0 0
    outer loop
      vertex 42 -56.3795 23.5402
      vertex 42 -44.4 9.66667
      vertex 42 -55.632 23.7157
    endloop
  endfacet
  facet normal 1 -0 0
    outer loop
      vertex 42 -57.6151 23.2474
      vertex 42 -44.4 9.66667
      vertex 42 -56.3795 23.5402
    endloop
  endfacet
  facet normal 1 0 0
    outer loop
      vertex 42 -66.6 9.66667
      vertex 42 -57.6151 23.2474
      vertex 42 -58.3014 23.1483
    endloop
  endfacet
  facet normal 1 0 0
    outer loop
      vertex 42 -66.6 9.66667
      vertex 42 -58.3014 23.1483
      vertex 42 -59.7643 22.9317
    endloop
  endfacet
  facet normal 1 0 0
    outer loop
      vertex 42 -66.6 9.66667
      vertex 42 -59.7643 22.9317
      vertex 42 -60.3961 22.8907
    endloop
  endfacet
  facet normal 1 0 0
    outer loop
      vertex 42 -66.6 9.66667
      vertex 42 -60.3961 22.8907
      vertex 42 -62.0581 22.7356
    endloop
  endfacet
  facet normal 1 0 0
    outer loop
      vertex 42 -66.6 9.66667
      vertex 42 -62.0581 22.7356
      vertex 42 -63.1169 22.6928
    endloop
  endfacet
  facet normal 1 0 0
    outer loop
      vertex 42 -66.6 9.66667
      vertex 42 -63.1169 22.6928
      vertex 42 -64.5104 22.5889
    endloop
  endfacet
  facet normal 1 0 0
    outer loop
      vertex 42 -66.6 9.66667
      vertex 42 -64.5104 22.5889
      vertex 42 -65.5934 22.5297
    endloop
  endfacet
  facet normal 1 0 0
    outer loop
      vertex 42 -66.6 9.66667
      vertex 42 -65.5934 22.5297
      vertex 42 -66.6 22.4185
    endloop
  endfacet
  facet normal 1 0 0
    outer loop
      vertex 42 -57.6151 23.2474
      vertex 42 -66.6 9.66667
      vertex 42 -44.4 9.66667
    endloop
  endfacet
  facet normal 0 0 -1
    outer loop
      vertex 21 -66.6 9.66667
      vertex 42 -44.4 9.66667
      vertex 42 -66.6 9.66667
    endloop
  endfacet
  facet normal -0 0 -1
    outer loop
      vertex 42 -44.4 9.66667
      vertex 21 -66.6 9.66667
      vertex 21 -44.4 9.66667
    endloop
  endfacet
  facet normal -1 0 0
    outer loop
      vertex 21 -44.4 9.66667
      vertex 21 -45.2363 27.9066
      vertex 21 -44.4 27.9321
    endloop
  endfacet
  facet normal -1 0 0
    outer loop
      vertex 21 -44.4 9.66667
      vertex 21 -48.3239 27.5398
      vertex 21 -45.2363 27.9066
    endloop
  endfacet
  facet normal -1 0 0
    outer loop
      vertex 21 -44.4 9.66667
      vertex 21 -49.0285 27.4623
      vertex 21 -48.3239 27.5398
    endloop
  endfacet
  facet normal -1 0 0
    outer loop
      vertex 21 -44.4 9.66667
      vertex 21 -52.2528 26.8522
      vertex 21 -49.0285 27.4623
    endloop
  endfacet
  facet normal -1 0 0
    outer loop
      vertex 21 -44.4 9.66667
      vertex 21 -52.8509 26.7479
      vertex 21 -52.2528 26.8522
    endloop
  endfacet
  facet normal -1 0 0
    outer loop
      vertex 21 -44.4 9.66667
      vertex 21 -53.4397 26.6079
      vertex 21 -52.8509 26.7479
    endloop
  endfacet
  facet normal -1 0 0
    outer loop
      vertex 21 -44.4 9.66667
      vertex 21 -56.627 25.8344
      vertex 21 -53.4397 26.6079
    endloop
  endfacet
  facet normal -1 0 0
    outer loop
      vertex 21 -44.4 9.66667
      vertex 21 -59.1417 25.0873
      vertex 21 -56.627 25.8344
    endloop
  endfacet
  facet normal -1 0 0
    outer loop
      vertex 21 -66.6 9.66667
      vertex 21 -59.1417 25.0873
      vertex 21 -44.4 9.66667
    endloop
  endfacet
  facet normal -1 0 0
    outer loop
      vertex 21 -59.1417 25.0873
      vertex 21 -66.6 9.66667
      vertex 21 -60.2514 24.7624
    endloop
  endfacet
  facet normal -1 0 0
    outer loop
      vertex 21 -60.2514 24.7624
      vertex 21 -66.6 9.66667
      vertex 21 -62.1666 24.1332
    endloop
  endfacet
  facet normal -1 0 0
    outer loop
      vertex 21 -62.1666 24.1332
      vertex 21 -66.6 9.66667
      vertex 21 -63.6617 23.6527
    endloop
  endfacet
  facet normal -1 0 0
    outer loop
      vertex 21 -63.6617 23.6527
      vertex 21 -66.6 9.66667
      vertex 21 -64.9884 23.1991
    endloop
  endfacet
  facet normal -1 0 0
    outer loop
      vertex 21 -64.9884 23.1991
      vertex 21 -66.6 9.66667
      vertex 21 -66.6 22.6651
    endloop
  endfacet
  facet normal 0 1 0
    outer loop
      vertex 21 -44.4 9.66667
      vertex 26.0976 -44.4 28.6842
      vertex 27.845 -44.4 28.6325
    endloop
  endfacet
  facet normal 0 1 0
    outer loop
      vertex 28.7351 -44.4 28.5895
      vertex 27.845 -44.4 28.6325
      vertex 28.3883 -44.4 28.6193
    endloop
  endfacet
  facet normal 0 1 0
    outer loop
      vertex 27.845 -44.4 28.6325
      vertex 28.7351 -44.4 28.5895
      vertex 21 -44.4 9.66667
    endloop
  endfacet
  facet normal 0 1 0
    outer loop
      vertex 26.0976 -44.4 28.6842
      vertex 21 -44.4 9.66667
      vertex 25.0096 -44.4 28.6207
    endloop
  endfacet
  facet normal 0 1 0
    outer loop
      vertex 21 -44.4 9.66667
      vertex 28.7351 -44.4 28.5895
      vertex 29.922 -44.4 28.4861
    endloop
  endfacet
  facet normal 0 1 0
    outer loop
      vertex 21 -44.4 9.66667
      vertex 29.922 -44.4 28.4861
      vertex 30.5119 -44.4 28.4215
    endloop
  endfacet
  facet normal 0 1 0
    outer loop
      vertex 31.0726 -44.4 28.3461
      vertex 30.5119 -44.4 28.4215
      vertex 30.6894 -44.4 28.4025
    endloop
  endfacet
  facet normal -0 1 0
    outer loop
      vertex 23.0706 -44.4 28.3963
      vertex 25.0096 -44.4 28.6207
      vertex 21 -44.4 9.66667
    endloop
  endfacet
  facet normal 0 1 0
    outer loop
      vertex 30.5119 -44.4 28.4215
      vertex 31.0726 -44.4 28.3461
      vertex 21 -44.4 9.66667
    endloop
  endfacet
  facet normal 0 1 0
    outer loop
      vertex 25.0096 -44.4 28.6207
      vertex 23.0706 -44.4 28.3963
      vertex 23.8333 -44.4 28.5394
    endloop
  endfacet
  facet normal 0 1 0
    outer loop
      vertex 21 -44.4 9.66667
      vertex 31.0726 -44.4 28.3461
      vertex 32.9986 -44.4 28.0595
    endloop
  endfacet
  facet normal 0 1 0
    outer loop
      vertex 23.0706 -44.4 28.3963
      vertex 21 -44.4 9.66667
      vertex 21.6211 -44.4 28.125
    endloop
  endfacet
  facet normal 0 1 0
    outer loop
      vertex 21 -44.4 9.66667
      vertex 32.9986 -44.4 28.0595
      vertex 33.9164 -44.4 27.8849
    endloop
  endfacet
  facet normal 0 1 0
    outer loop
      vertex 42 -44.4 9.66667
      vertex 33.9164 -44.4 27.8849
      vertex 35.2729 -44.4 27.6322
    endloop
  endfacet
  facet normal 0 1 0
    outer loop
      vertex 42 -44.4 9.66667
      vertex 35.2729 -44.4 27.6322
      vertex 35.5216 -44.4 27.5743
    endloop
  endfacet
  facet normal 0 1 0
    outer loop
      vertex 42 -44.4 9.66667
      vertex 35.5216 -44.4 27.5743
      vertex 36.0559 -44.4 27.4493
    endloop
  endfacet
  facet normal 0 1 0
    outer loop
      vertex 42 -44.4 9.66667
      vertex 36.0559 -44.4 27.4493
      vertex 37.5804 -44.4 27.0847
    endloop
  endfacet
  facet normal 0 1 0
    outer loop
      vertex 42 -44.4 9.66667
      vertex 37.5804 -44.4 27.0847
      vertex 38.6055 -44.4 26.7933
    endloop
  endfacet
  facet normal 0 1 0
    outer loop
      vertex 42 -44.4 9.66667
      vertex 38.6055 -44.4 26.7933
      vertex 39.8741 -44.4 26.44
    endloop
  endfacet
  facet normal 0 1 0
    outer loop
      vertex 42 -44.4 9.66667
      vertex 39.8741 -44.4 26.44
      vertex 40.0399 -44.4 26.383
    endloop
  endfacet
  facet normal 0 1 0
    outer loop
      vertex 42 -44.4 9.66667
      vertex 40.0399 -44.4 26.383
      vertex 40.3043 -44.4 26.2985
    endloop
  endfacet
  facet normal 0 1 -0
    outer loop
      vertex 42 -44.4 9.66667
      vertex 40.3043 -44.4 26.2985
      vertex 42 -44.4 25.824
    endloop
  endfacet
  facet normal 0 1 0
    outer loop
      vertex 33.9164 -44.4 27.8849
      vertex 42 -44.4 9.66667
      vertex 21 -44.4 9.66667
    endloop
  endfacet
  facet normal 0 1 0
    outer loop
      vertex 21.6211 -44.4 28.125
      vertex 21 -44.4 9.66667
      vertex 21 -44.4 27.9321
    endloop
  endfacet
  facet normal 0 -1 0
    outer loop
      vertex 21 -66.6 9.66667
      vertex 32.3661 -66.6 24.3048
      vertex 30.2348 -66.6 24.2957
    endloop
  endfacet
  facet normal 0 -1 0
    outer loop
      vertex 30.1008 -66.6 24.2946
      vertex 30.2348 -66.6 24.2957
      vertex 30.1081 -66.6 24.2952
    endloop
  endfacet
  facet normal 0 -1 0
    outer loop
      vertex 30.2348 -66.6 24.2957
      vertex 30.1008 -66.6 24.2946
      vertex 21 -66.6 9.66667
    endloop
  endfacet
  facet normal 0 -1 0
    outer loop
      vertex 42 -66.6 9.66667
      vertex 32.3661 -66.6 24.3048
      vertex 21 -66.6 9.66667
    endloop
  endfacet
  facet normal 0 -1 0
    outer loop
      vertex 32.5002 -66.6 24.3042
      vertex 42 -66.6 9.66667
      vertex 34.5618 -66.6 24.1232
    endloop
  endfacet
  facet normal 0 -1 0
    outer loop
      vertex 21 -66.6 9.66667
      vertex 30.1008 -66.6 24.2946
      vertex 27.7066 -66.6 24.088
    endloop
  endfacet
  facet normal 0 -1 0
    outer loop
      vertex 32.3661 -66.6 24.3048
      vertex 42 -66.6 9.66667
      vertex 32.5002 -66.6 24.3042
    endloop
  endfacet
  facet normal 0 -1 0
    outer loop
      vertex 21 -66.6 9.66667
      vertex 27.7066 -66.6 24.088
      vertex 25.4431 -66.6 23.7349
    endloop
  endfacet
  facet normal 0 -1 0
    outer loop
      vertex 25.0873 -66.6 23.6669
      vertex 25.4431 -66.6 23.7349
      vertex 25.2682 -66.6 23.707
    endloop
  endfacet
  facet normal 0 -1 0
    outer loop
      vertex 34.5618 -66.6 24.1232
      vertex 42 -66.6 9.66667
      vertex 34.903 -66.6 24.0921
    endloop
  endfacet
  facet normal 0 -1 0
    outer loop
      vertex 25.4431 -66.6 23.7349
      vertex 25.0873 -66.6 23.6669
      vertex 21 -66.6 9.66667
    endloop
  endfacet
  facet normal 0 -1 0
    outer loop
      vertex 34.903 -66.6 24.0921
      vertex 42 -66.6 9.66667
      vertex 36.7059 -66.6 23.7924
    endloop
  endfacet
  facet normal 0 -1 0
    outer loop
      vertex 21 -66.6 9.66667
      vertex 25.0873 -66.6 23.6669
      vertex 22.7699 -66.6 23.1598
    endloop
  endfacet
  facet normal 0 -1 0
    outer loop
      vertex 21 -66.6 9.66667
      vertex 22.7699 -66.6 23.1598
      vertex 22.5412 -66.6 23.0936
    endloop
  endfacet
  facet normal 0 -1 0
    outer loop
      vertex 36.7059 -66.6 23.7924
      vertex 42 -66.6 9.66667
      vertex 37.3426 -66.6 23.6898
    endloop
  endfacet
  facet normal 0 -1 0
    outer loop
      vertex 37.3426 -66.6 23.6898
      vertex 42 -66.6 9.66667
      vertex 38.7781 -66.6 23.3212
    endloop
  endfacet
  facet normal 0 -1 0
    outer loop
      vertex 21 -66.6 9.66667
      vertex 22.5412 -66.6 23.0936
      vertex 21 -66.6 22.6651
    endloop
  endfacet
  facet normal 0 -1 0
    outer loop
      vertex 38.7781 -66.6 23.3212
      vertex 42 -66.6 9.66667
      vertex 39.8621 -66.6 23.0794
    endloop
  endfacet
  facet normal 0 -1 0
    outer loop
      vertex 39.8621 -66.6 23.0794
      vertex 42 -66.6 9.66667
      vertex 40.7664 -66.6 22.7737
    endloop
  endfacet
  facet normal 0 -1 0
    outer loop
      vertex 40.7664 -66.6 22.7737
      vertex 42 -66.6 9.66667
      vertex 42 -66.6 22.4185
    endloop
  endfacet
  facet normal -0.264163 -0.312059 0.912599
    outer loop
      vertex 22.2188 -63.6904 23.9952
      vertex 22.5412 -66.6 23.0936
      vertex 22.7699 -66.6 23.1598
    endloop
  endfacet
  facet normal -0.263829 -0.312052 0.912698
    outer loop
      vertex 21 -64.9884 23.1991
      vertex 22.2188 -63.6904 23.9952
      vertex 21 -63.6617 23.6527
    endloop
  endfacet
  facet normal -0.263829 -0.312052 0.912698
    outer loop
      vertex 22.2188 -63.6904 23.9952
      vertex 21 -64.9884 23.1991
      vertex 22.5412 -66.6 23.0936
    endloop
  endfacet
  facet normal -0.255182 -0.304118 0.917821
    outer loop
      vertex 22.5412 -66.6 23.0936
      vertex 21 -64.9884 23.1991
      vertex 21 -66.6 22.6651
    endloop
  endfacet
  facet normal -0.27198 -0.300352 0.91423
    outer loop
      vertex 21 -62.1666 24.1332
      vertex 21.757 -60.2989 24.972
      vertex 21 -60.2514 24.7624
    endloop
  endfacet
  facet normal -0.271992 -0.300346 0.914228
    outer loop
      vertex 21.757 -60.2989 24.972
      vertex 21 -62.1666 24.1332
      vertex 22.2188 -63.6904 23.9952
    endloop
  endfacet
  facet normal -0.264925 -0.295037 0.918024
    outer loop
      vertex 22.2188 -63.6904 23.9952
      vertex 21 -62.1666 24.1332
      vertex 21 -63.6617 23.6527
    endloop
  endfacet
  facet normal 0.371577 -0.0506736 0.927018
    outer loop
      vertex 42 -65.5934 22.5297
      vertex 42 -64.5104 22.5889
      vertex 41.5538 -64.6906 22.7579
    endloop
  endfacet
  facet normal 0.317868 -0.123303 0.940083
    outer loop
      vertex 39.3294 -65.377 23.42
      vertex 40.7664 -66.6 22.7737
      vertex 41.5538 -64.6906 22.7579
    endloop
  endfacet
  facet normal 0.3178 -0.123388 0.940095
    outer loop
      vertex 40.7664 -66.6 22.7737
      vertex 39.3294 -65.377 23.42
      vertex 39.8621 -66.6 23.0794
    endloop
  endfacet
  facet normal 0.275144 -0.105557 0.955591
    outer loop
      vertex 40.7664 -66.6 22.7737
      vertex 42 -65.5934 22.5297
      vertex 41.5538 -64.6906 22.7579
    endloop
  endfacet
  facet normal 0.27515 -0.105565 0.955588
    outer loop
      vertex 42 -65.5934 22.5297
      vertex 40.7664 -66.6 22.7737
      vertex 42 -66.6 22.4185
    endloop
  endfacet
  facet normal 0.244288 -0.186987 0.951504
    outer loop
      vertex 37.0555 -65.8538 23.9101
      vertex 38.7781 -66.6 23.3212
      vertex 39.3294 -65.377 23.42
    endloop
  endfacet
  facet normal 0.244324 -0.18691 0.95151
    outer loop
      vertex 38.7781 -66.6 23.3212
      vertex 37.0555 -65.8538 23.9101
      vertex 37.3426 -66.6 23.6898
    endloop
  endfacet
  facet normal 0.21438 -0.174278 0.961077
    outer loop
      vertex 39.8621 -66.6 23.0794
      vertex 39.3294 -65.377 23.42
      vertex 38.7781 -66.6 23.3212
    endloop
  endfacet
  facet normal 0.15976 -0.226405 0.960842
    outer loop
      vertex 34.7596 -66.1867 24.2134
      vertex 36.7059 -66.6 23.7924
      vertex 37.0555 -65.8538 23.9101
    endloop
  endfacet
  facet normal 0.159717 -0.226573 0.96081
    outer loop
      vertex 36.7059 -66.6 23.7924
      vertex 34.7596 -66.1867 24.2134
      vertex 34.903 -66.6 24.0921
    endloop
  endfacet
  facet normal 0.155034 -0.224387 0.962089
    outer loop
      vertex 37.3426 -66.6 23.6898
      vertex 37.0555 -65.8538 23.9101
      vertex 36.7059 -66.6 23.7924
    endloop
  endfacet
  facet normal 0.0846773 -0.250974 0.964283
    outer loop
      vertex 32.4479 -66.4349 24.3518
      vertex 34.5618 -66.6 24.1232
      vertex 34.7596 -66.1867 24.2134
    endloop
  endfacet
  facet normal 0.0846555 -0.251181 0.964231
    outer loop
      vertex 34.5618 -66.6 24.1232
      vertex 32.4479 -66.4349 24.3518
      vertex 32.5002 -66.6 24.3042
    endloop
  endfacet
  facet normal 0.0878349 -0.252345 0.963643
    outer loop
      vertex 34.903 -66.6 24.0921
      vertex 34.7596 -66.1867 24.2134
      vertex 34.5618 -66.6 24.1232
    endloop
  endfacet
  facet normal -0.00410878 -0.271912 0.962313
    outer loop
      vertex 32.3661 -66.6 24.3048
      vertex 32.4479 -66.4349 24.3518
      vertex 30.2348 -66.6 24.2957
    endloop
  endfacet
  facet normal 0.00430074 -0.275766 0.961215
    outer loop
      vertex 32.5002 -66.6 24.3042
      vertex 32.4479 -66.4349 24.3518
      vertex 32.3661 -66.6 24.3048
    endloop
  endfacet
  facet normal -0.0784174 -0.289112 0.954078
    outer loop
      vertex 29.3354 -63.6141 25.1365
      vertex 30.1008 -66.6 24.2946
      vertex 30.1081 -66.6 24.2952
    endloop
  endfacet
  facet normal -0.0825669 -0.290001 0.953458
    outer loop
      vertex 30.1008 -66.6 24.2946
      vertex 29.3354 -63.6141 25.1365
      vertex 27.0143 -63.6644 24.9202
    endloop
  endfacet
  facet normal -0.082285 -0.289727 0.953566
    outer loop
      vertex 27.7066 -66.6 24.088
      vertex 30.1008 -66.6 24.2946
      vertex 27.0143 -63.6644 24.9202
    endloop
  endfacet
  facet normal -0.1502 -0.299978 0.942047
    outer loop
      vertex 24.6501 -63.6922 24.5344
      vertex 25.4431 -66.6 23.7349
      vertex 27.0143 -63.6644 24.9202
    endloop
  endfacet
  facet normal -0.150273 -0.299993 0.942031
    outer loop
      vertex 25.4431 -66.6 23.7349
      vertex 24.6501 -63.6922 24.5344
      vertex 25.2682 -66.6 23.707
    endloop
  endfacet
  facet normal -0.146951 -0.301701 0.942009
    outer loop
      vertex 27.7066 -66.6 24.088
      vertex 27.0143 -63.6644 24.9202
      vertex 25.4431 -66.6 23.7349
    endloop
  endfacet
  facet normal -0.146855 -0.288163 0.946253
    outer loop
      vertex 27.0143 -63.6644 24.9202
      vertex 26.3923 -60.417 25.8126
      vertex 24.0983 -60.3726 25.4701
    endloop
  endfacet
  facet normal -0.15073 -0.291331 0.944673
    outer loop
      vertex 24.6501 -63.6922 24.5344
      vertex 27.0143 -63.6644 24.9202
      vertex 24.0983 -60.3726 25.4701
    endloop
  endfacet
  facet normal -0.207643 -0.296735 0.932112
    outer loop
      vertex 22.2188 -63.6904 23.9952
      vertex 24.0983 -60.3726 25.4701
      vertex 21.757 -60.2989 24.972
    endloop
  endfacet
  facet normal -0.206944 -0.297142 0.932138
    outer loop
      vertex 24.6501 -63.6922 24.5344
      vertex 24.0983 -60.3726 25.4701
      vertex 22.2188 -63.6904 23.9952
    endloop
  endfacet
  facet normal -0.203537 -0.305614 0.930147
    outer loop
      vertex 22.7699 -66.6 23.1598
      vertex 25.0873 -66.6 23.6669
      vertex 22.2188 -63.6904 23.9952
    endloop
  endfacet
  facet normal -0.205891 -0.308057 0.928822
    outer loop
      vertex 24.6501 -63.6922 24.5344
      vertex 25.0873 -66.6 23.6669
      vertex 25.2682 -66.6 23.707
    endloop
  endfacet
  facet normal -0.2062 -0.308081 0.928745
    outer loop
      vertex 25.0873 -66.6 23.6669
      vertex 24.6501 -63.6922 24.5344
      vertex 22.2188 -63.6904 23.9952
    endloop
  endfacet
  facet normal -0.141723 -0.264189 0.954001
    outer loop
      vertex 26.3923 -60.417 25.8126
      vertex 25.9143 -56.9731 26.6953
      vertex 23.6931 -56.845 26.4008
    endloop
  endfacet
  facet normal -0.147334 -0.268108 0.952056
    outer loop
      vertex 24.0983 -60.3726 25.4701
      vertex 26.3923 -60.417 25.8126
      vertex 23.6931 -56.845 26.4008
    endloop
  endfacet
  facet normal -0.206967 -0.272668 0.939583
    outer loop
      vertex 21.757 -60.2989 24.972
      vertex 23.6931 -56.845 26.4008
      vertex 21.4506 -56.6804 25.9546
    endloop
  endfacet
  facet normal -0.208432 -0.271815 0.939507
    outer loop
      vertex 24.0983 -60.3726 25.4701
      vertex 23.6931 -56.845 26.4008
      vertex 21.757 -60.2989 24.972
    endloop
  endfacet
  facet normal -0.204228 -0.227329 0.952162
    outer loop
      vertex 23.6931 -56.845 26.4008
      vertex 23.4953 -53.1494 27.2407
      vertex 21.3224 -52.9016 26.8338
    endloop
  endfacet
  facet normal -0.206089 -0.228376 0.95151
    outer loop
      vertex 21.4506 -56.6804 25.9546
      vertex 23.6931 -56.845 26.4008
      vertex 21.3224 -52.9016 26.8338
    endloop
  endfacet
  facet normal -0.283466 -0.221834 0.932972
    outer loop
      vertex 21.3224 -52.9016 26.8338
      vertex 21 -52.8509 26.7479
      vertex 21 -53.4397 26.6079
    endloop
  endfacet
  facet normal -0.276106 -0.226681 0.934013
    outer loop
      vertex 21 -53.4397 26.6079
      vertex 21.4506 -56.6804 25.9546
      vertex 21.3224 -52.9016 26.8338
    endloop
  endfacet
  facet normal -0.276023 -0.226674 0.93404
    outer loop
      vertex 21.4506 -56.6804 25.9546
      vertex 21 -53.4397 26.6079
      vertex 21 -56.627 25.8344
    endloop
  endfacet
  facet normal -0.272625 -0.270343 0.923358
    outer loop
      vertex 21.757 -60.2989 24.972
      vertex 21 -59.1417 25.0873
      vertex 21 -60.2514 24.7624
    endloop
  endfacet
  facet normal -0.278045 -0.273561 0.920791
    outer loop
      vertex 21 -59.1417 25.0873
      vertex 21.4506 -56.6804 25.9546
      vertex 21 -56.627 25.8344
    endloop
  endfacet
  facet normal -0.277965 -0.273582 0.920809
    outer loop
      vertex 21.4506 -56.6804 25.9546
      vertex 21 -59.1417 25.0873
      vertex 21.757 -60.2989 24.972
    endloop
  endfacet
  facet normal -0.302955 -0.177183 0.936389
    outer loop
      vertex 21 -52.2528 26.8522
      vertex 21.3572 -49.0928 27.5657
      vertex 21 -49.0285 27.4623
    endloop
  endfacet
  facet normal -0.30308 -0.177161 0.936353
    outer loop
      vertex 21.3572 -49.0928 27.5657
      vertex 21 -52.2528 26.8522
      vertex 21.3224 -52.9016 26.8338
    endloop
  endfacet
  facet normal -0.278076 -0.165017 0.946279
    outer loop
      vertex 21.3224 -52.9016 26.8338
      vertex 21 -52.2528 26.8522
      vertex 21 -52.8509 26.7479
    endloop
  endfacet
  facet normal 0.292346 -0.131547 0.947222
    outer loop
      vertex 42 -45.3553 25.6975
      vertex 42 -44.9175 25.7583
      vertex 41.8008 -45.3962 25.7533
    endloop
  endfacet
  facet normal 0.298971 -0.176731 0.937754
    outer loop
      vertex 42 -45.5373 25.6632
      vertex 42 -45.3553 25.6975
      vertex 41.8008 -45.3962 25.7533
    endloop
  endfacet
  facet normal 0.397444 -0.0938394 0.912816
    outer loop
      vertex 41.2095 -47.3072 25.8143
      vertex 42 -45.9377 25.6109
      vertex 41.8008 -45.3962 25.7533
    endloop
  endfacet
  facet normal 0.397491 -0.0938699 0.912792
    outer loop
      vertex 42 -45.9377 25.6109
      vertex 41.2095 -47.3072 25.8143
      vertex 42 -47.7804 25.4214
    endloop
  endfacet
  facet normal 0.336014 -0.121989 0.933924
    outer loop
      vertex 42 -45.9377 25.6109
      vertex 42 -45.5373 25.6632
      vertex 41.8008 -45.3962 25.7533
    endloop
  endfacet
  facet normal 0.267482 -0.121356 0.95589
    outer loop
      vertex 40.3043 -44.4 26.2985
      vertex 42 -44.9175 25.7583
      vertex 42 -44.4 25.824
    endloop
  endfacet
  facet normal 0.267501 -0.121299 0.955892
    outer loop
      vertex 42 -44.9175 25.7583
      vertex 40.3043 -44.4 26.2985
      vertex 41.8008 -45.3962 25.7533
    endloop
  endfacet
  facet normal 0.324632 -0.0542952 0.944281
    outer loop
      vertex 39.343 -46.245 26.5165
      vertex 40.0399 -44.4 26.383
      vertex 39.8741 -44.4 26.44
    endloop
  endfacet
  facet normal 0.324427 -0.0542122 0.944356
    outer loop
      vertex 40.0399 -44.4 26.383
      vertex 39.343 -46.245 26.5165
      vertex 41.2095 -47.3072 25.8143
    endloop
  endfacet
  facet normal 0.303909 -0.0636927 0.95057
    outer loop
      vertex 40.3043 -44.4 26.2985
      vertex 41.2095 -47.3072 25.8143
      vertex 41.8008 -45.3962 25.7533
    endloop
  endfacet
  facet normal 0.303804 -0.0637306 0.950601
    outer loop
      vertex 41.2095 -47.3072 25.8143
      vertex 40.3043 -44.4 26.2985
      vertex 40.0399 -44.4 26.383
    endloop
  endfacet
  facet normal 0.447438 -0.0579138 0.892438
    outer loop
      vertex 42 -60.3961 22.8907
      vertex 42 -59.7643 22.9317
      vertex 41.7446 -59.8421 23.0547
    endloop
  endfacet
  facet normal 0.416927 -0.0930634 0.904163
    outer loop
      vertex 40.5421 -62.5187 23.3337
      vertex 41.7446 -59.8421 23.0547
      vertex 39.6549 -60.2696 23.9743
    endloop
  endfacet
  facet normal 0.401063 -0.0851101 0.912088
    outer loop
      vertex 40.5421 -62.5187 23.3337
      vertex 42 -60.3961 22.8907
      vertex 41.7446 -59.8421 23.0547
    endloop
  endfacet
  facet normal 0.401071 -0.0851168 0.912084
    outer loop
      vertex 42 -60.3961 22.8907
      vertex 40.5421 -62.5187 23.3337
      vertex 42 -62.0581 22.7356
    endloop
  endfacet
  facet normal 0.377556 -0.0688509 0.923424
    outer loop
      vertex 42 -63.1169 22.6928
      vertex 41.5538 -64.6906 22.7579
      vertex 42 -64.5104 22.5889
    endloop
  endfacet
  facet normal 0.377659 -0.0688818 0.923379
    outer loop
      vertex 41.5538 -64.6906 22.7579
      vertex 42 -63.1169 22.6928
      vertex 40.5421 -62.5187 23.3337
    endloop
  endfacet
  facet normal 0.389325 -0.0372034 0.920349
    outer loop
      vertex 42 -63.1169 22.6928
      vertex 42 -62.0581 22.7356
      vertex 40.5421 -62.5187 23.3337
    endloop
  endfacet
  facet normal 0.359938 -0.13467 0.923206
    outer loop
      vertex 38.3683 -62.9906 24.079
      vertex 39.6549 -60.2696 23.9743
      vertex 37.5228 -60.4887 24.7736
    endloop
  endfacet
  facet normal 0.346413 -0.12804 0.929303
    outer loop
      vertex 40.5421 -62.5187 23.3337
      vertex 39.6549 -60.2696 23.9743
      vertex 38.3683 -62.9906 24.079
    endloop
  endfacet
  facet normal 0.31961 -0.130452 0.938526
    outer loop
      vertex 39.3294 -65.377 23.42
      vertex 41.5538 -64.6906 22.7579
      vertex 38.3683 -62.9906 24.079
    endloop
  endfacet
  facet normal 0.340369 -0.0896014 0.936013
    outer loop
      vertex 41.5538 -64.6906 22.7579
      vertex 40.5421 -62.5187 23.3337
      vertex 38.3683 -62.9906 24.079
    endloop
  endfacet
  facet normal 0.268197 -0.178322 0.946716
    outer loop
      vertex 36.1471 -63.2697 24.6395
      vertex 37.5228 -60.4887 24.7736
      vertex 35.3455 -60.553 25.3783
    endloop
  endfacet
  facet normal 0.261522 -0.175139 0.949175
    outer loop
      vertex 38.3683 -62.9906 24.079
      vertex 37.5228 -60.4887 24.7736
      vertex 36.1471 -63.2697 24.6395
    endloop
  endfacet
  facet normal 0.243681 -0.183167 0.952402
    outer loop
      vertex 37.0555 -65.8538 23.9101
      vertex 39.3294 -65.377 23.42
      vertex 36.1471 -63.2697 24.6395
    endloop
  endfacet
  facet normal 0.260234 -0.158222 0.952493
    outer loop
      vertex 39.3294 -65.377 23.42
      vertex 38.3683 -62.9906 24.079
      vertex 36.1471 -63.2697 24.6395
    endloop
  endfacet
  facet normal 0.170762 -0.213686 0.961862
    outer loop
      vertex 33.8956 -63.4415 24.994
      vertex 35.3455 -60.553 25.3783
      vertex 33.1332 -60.5501 25.7717
    endloop
  endfacet
  facet normal 0.167776 -0.212298 0.962695
    outer loop
      vertex 36.1471 -63.2697 24.6395
      vertex 35.3455 -60.553 25.3783
      vertex 33.8956 -63.4415 24.994
    endloop
  endfacet
  facet normal 0.15941 -0.22327 0.961633
    outer loop
      vertex 34.7596 -66.1867 24.2134
      vertex 37.0555 -65.8538 23.9101
      vertex 33.8956 -63.4415 24.994
    endloop
  endfacet
  facet normal 0.167793 -0.212722 0.962598
    outer loop
      vertex 37.0555 -65.8538 23.9101
      vertex 36.1471 -63.2697 24.6395
      vertex 33.8956 -63.4415 24.994
    endloop
  endfacet
  facet normal 0.0866858 -0.239255 0.967079
    outer loop
      vertex 31.6234 -63.5462 25.1658
      vertex 33.1332 -60.5501 25.7717
      vertex 30.8979 -60.5059 25.983
    endloop
  endfacet
  facet normal 0.0841296 -0.238071 0.967597
    outer loop
      vertex 33.8956 -63.4415 24.994
      vertex 33.1332 -60.5501 25.7717
      vertex 31.6234 -63.5462 25.1658
    endloop
  endfacet
  facet normal 0.0843934 -0.247869 0.965111
    outer loop
      vertex 32.4479 -66.4349 24.3518
      vertex 34.7596 -66.1867 24.2134
      vertex 31.6234 -63.5462 25.1658
    endloop
  endfacet
  facet normal 0.0843931 -0.247869 0.965111
    outer loop
      vertex 34.7596 -66.1867 24.2134
      vertex 33.8956 -63.4415 24.994
      vertex 31.6234 -63.5462 25.1658
    endloop
  endfacet
  facet normal 0.00036738 -0.262945 0.964811
    outer loop
      vertex 29.3354 -63.6141 25.1365
      vertex 30.8979 -60.5059 25.983
      vertex 28.6531 -60.4573 25.9971
    endloop
  endfacet
  facet normal -0.00462949 -0.260603 0.965435
    outer loop
      vertex 31.6234 -63.5462 25.1658
      vertex 30.8979 -60.5059 25.983
      vertex 29.3354 -63.6141 25.1365
    endloop
  endfacet
  facet normal -0.00408629 -0.272187 0.962236
    outer loop
      vertex 29.3354 -63.6141 25.1365
      vertex 30.2348 -66.6 24.2957
      vertex 32.4479 -66.4349 24.3518
    endloop
  endfacet
  facet normal -0.00379739 -0.272107 0.96226
    outer loop
      vertex 30.2348 -66.6 24.2957
      vertex 29.3354 -63.6141 25.1365
      vertex 30.1081 -66.6 24.2952
    endloop
  endfacet
  facet normal -0.00423954 -0.272344 0.962191
    outer loop
      vertex 32.4479 -66.4349 24.3518
      vertex 31.6234 -63.5462 25.1658
      vertex 29.3354 -63.6141 25.1365
    endloop
  endfacet
  facet normal 0.00110401 -0.242491 0.970153
    outer loop
      vertex 30.8979 -60.5059 25.983
      vertex 30.3235 -57.3291 26.7777
      vertex 28.118 -57.1263 26.8309
    endloop
  endfacet
  facet normal 0.000839 -0.242696 0.970102
    outer loop
      vertex 28.6531 -60.4573 25.9971
      vertex 30.8979 -60.5059 25.983
      vertex 28.118 -57.1263 26.8309
    endloop
  endfacet
  facet normal -0.0771734 -0.25758 0.96317
    outer loop
      vertex 26.3923 -60.417 25.8126
      vertex 28.118 -57.1263 26.8309
      vertex 25.9143 -56.9731 26.6953
    endloop
  endfacet
  facet normal -0.0831653 -0.254534 0.963481
    outer loop
      vertex 28.6531 -60.4573 25.9971
      vertex 28.118 -57.1263 26.8309
      vertex 26.3923 -60.417 25.8126
    endloop
  endfacet
  facet normal -0.0831143 -0.278835 0.956736
    outer loop
      vertex 27.0143 -63.6644 24.9202
      vertex 29.3354 -63.6141 25.1365
      vertex 26.3923 -60.417 25.8126
    endloop
  endfacet
  facet normal -0.0830487 -0.278779 0.956758
    outer loop
      vertex 29.3354 -63.6141 25.1365
      vertex 28.6531 -60.4573 25.9971
      vertex 26.3923 -60.417 25.8126
    endloop
  endfacet
  facet normal 0.0176581 -0.195934 0.980458
    outer loop
      vertex 30.3235 -57.3291 26.7777
      vertex 30.0058 -54.0736 27.434
      vertex 27.8246 -53.6767 27.5526
    endloop
  endfacet
  facet normal 0.00481853 -0.204384 0.978879
    outer loop
      vertex 28.118 -57.1263 26.8309
      vertex 30.3235 -57.3291 26.7777
      vertex 27.8246 -53.6767 27.5526
    endloop
  endfacet
  facet normal -0.0601457 -0.218453 0.973992
    outer loop
      vertex 25.9143 -56.9731 26.6953
      vertex 27.8246 -53.6767 27.5526
      vertex 25.6611 -53.3753 27.4866
    endloop
  endfacet
  facet normal -0.0746004 -0.210283 0.97479
    outer loop
      vertex 28.118 -57.1263 26.8309
      vertex 27.8246 -53.6767 27.5526
      vertex 25.9143 -56.9731 26.6953
    endloop
  endfacet
  facet normal -0.0283046 -0.16317 0.986192
    outer loop
      vertex 27.8246 -53.6767 27.5526
      vertex 27.8432 -50.2524 28.1197
      vertex 25.6712 -49.7753 28.1363
    endloop
  endfacet
  facet normal -0.0546615 -0.177189 0.982658
    outer loop
      vertex 27.8246 -53.6767 27.5526
      vertex 25.6712 -49.7753 28.1363
      vertex 25.6611 -53.3753 27.4866
    endloop
  endfacet
  facet normal -0.11325 -0.186029 0.975996
    outer loop
      vertex 25.6712 -49.7753 28.1363
      vertex 23.5062 -49.4237 27.9521
      vertex 23.4953 -53.1494 27.2407
    endloop
  endfacet
  facet normal -0.129137 -0.175765 0.975925
    outer loop
      vertex 25.6611 -53.3753 27.4866
      vertex 25.6712 -49.7753 28.1363
      vertex 23.4953 -53.1494 27.2407
    endloop
  endfacet
  facet normal -0.140847 -0.226572 0.963757
    outer loop
      vertex 23.6931 -56.845 26.4008
      vertex 25.9143 -56.9731 26.6953
      vertex 23.4953 -53.1494 27.2407
    endloop
  endfacet
  facet normal -0.132813 -0.22181 0.966003
    outer loop
      vertex 25.9143 -56.9731 26.6953
      vertex 25.6611 -53.3753 27.4866
      vertex 23.4953 -53.1494 27.2407
    endloop
  endfacet
  facet normal -0.0844713 -0.121094 0.98904
    outer loop
      vertex 25.6712 -49.7753 28.1363
      vertex 25.8905 -46.3125 28.579
      vertex 23.6951 -45.7922 28.4552
    endloop
  endfacet
  facet normal -0.105161 -0.131097 0.985776
    outer loop
      vertex 25.6712 -49.7753 28.1363
      vertex 23.6951 -45.7922 28.4552
      vertex 23.5062 -49.4237 27.9521
    endloop
  endfacet
  facet normal -0.198795 -0.121276 0.972508
    outer loop
      vertex 23.6951 -45.7922 28.4552
      vertex 21.5358 -45.3448 28.0696
      vertex 21.3572 -49.0928 27.5657
    endloop
  endfacet
  facet normal -0.194153 -0.1247 0.973013
    outer loop
      vertex 23.5062 -49.4237 27.9521
      vertex 23.6951 -45.7922 28.4552
      vertex 21.3572 -49.0928 27.5657
    endloop
  endfacet
  facet normal -0.201083 -0.183081 0.962313
    outer loop
      vertex 23.4953 -53.1494 27.2407
      vertex 21.3572 -49.0928 27.5657
      vertex 21.3224 -52.9016 26.8338
    endloop
  endfacet
  facet normal -0.201222 -0.183151 0.962271
    outer loop
      vertex 23.4953 -53.1494 27.2407
      vertex 23.5062 -49.4237 27.9521
      vertex 21.3572 -49.0928 27.5657
    endloop
  endfacet
  facet normal -0.184249 -0.0411024 0.98202
    outer loop
      vertex 23.6951 -45.7922 28.4552
      vertex 23.8333 -44.4 28.5394
      vertex 23.0706 -44.4 28.3963
    endloop
  endfacet
  facet normal -0.183819 -0.0409916 0.982105
    outer loop
      vertex 21.5358 -45.3448 28.0696
      vertex 23.0706 -44.4 28.3963
      vertex 21.6211 -44.4 28.125
    endloop
  endfacet
  facet normal -0.183859 -0.040924 0.9821
    outer loop
      vertex 23.0706 -44.4 28.3963
      vertex 21.5358 -45.3448 28.0696
      vertex 23.6951 -45.7922 28.4552
    endloop
  endfacet
  facet normal -0.296477 -0.029107 0.954596
    outer loop
      vertex 21 -45.2363 27.9066
      vertex 21.6211 -44.4 28.125
      vertex 21 -44.4 27.9321
    endloop
  endfacet
  facet normal -0.296335 -0.0292226 0.954637
    outer loop
      vertex 21.6211 -44.4 28.125
      vertex 21 -45.2363 27.9066
      vertex 21.5358 -45.3448 28.0696
    endloop
  endfacet
  facet normal -0.293848 -0.104505 0.950122
    outer loop
      vertex 21.3572 -49.0928 27.5657
      vertex 21 -48.3239 27.5398
      vertex 21 -49.0285 27.4623
    endloop
  endfacet
  facet normal -0.309931 -0.112159 0.94412
    outer loop
      vertex 21 -48.3239 27.5398
      vertex 21.5358 -45.3448 28.0696
      vertex 21 -45.2363 27.9066
    endloop
  endfacet
  facet normal -0.309903 -0.112166 0.944129
    outer loop
      vertex 21.5358 -45.3448 28.0696
      vertex 21 -48.3239 27.5398
      vertex 21.3572 -49.0928 27.5657
    endloop
  endfacet
  facet normal 0.467142 -0.202095 0.860776
    outer loop
      vertex 40.6331 -55.7066 24.44
      vertex 42 -56.3795 23.5402
      vertex 42 -55.632 23.7157
    endloop
  endfacet
  facet normal 0.467107 -0.202169 0.860778
    outer loop
      vertex 42 -56.3795 23.5402
      vertex 40.6331 -55.7066 24.44
      vertex 41.0559 -57.7906 23.7211
    endloop
  endfacet
  facet normal 0.469045 -0.203646 0.859375
    outer loop
      vertex 42 -57.6151 23.2474
      vertex 42 -56.3795 23.5402
      vertex 41.0559 -57.7906 23.7211
    endloop
  endfacet
  facet normal 0.462065 -0.129892 0.877282
    outer loop
      vertex 42 -58.3014 23.1483
      vertex 41.7446 -59.8421 23.0547
      vertex 42 -59.7643 22.9317
    endloop
  endfacet
  facet normal 0.462007 -0.129885 0.877314
    outer loop
      vertex 41.7446 -59.8421 23.0547
      vertex 42 -58.3014 23.1483
      vertex 41.0559 -57.7906 23.7211
    endloop
  endfacet
  facet normal 0.463558 -0.126632 0.876971
    outer loop
      vertex 42 -58.3014 23.1483
      vertex 42 -57.6151 23.2474
      vertex 41.0559 -57.7906 23.7211
    endloop
  endfacet
  facet normal 0.39124 -0.197331 0.898884
    outer loop
      vertex 39.0037 -57.9473 24.6573
      vertex 40.6331 -55.7066 24.44
      vertex 38.6068 -55.5811 25.3495
    endloop
  endfacet
  facet normal 0.418761 -0.21905 0.881281
    outer loop
      vertex 41.0559 -57.7906 23.7211
      vertex 40.6331 -55.7066 24.44
      vertex 39.0037 -57.9473 24.6573
    endloop
  endfacet
  facet normal 0.423166 -0.144408 0.89447
    outer loop
      vertex 39.6549 -60.2696 23.9743
      vertex 41.7446 -59.8421 23.0547
      vertex 39.0037 -57.9473 24.6573
    endloop
  endfacet
  facet normal 0.419807 -0.149848 0.895158
    outer loop
      vertex 41.7446 -59.8421 23.0547
      vertex 41.0559 -57.7906 23.7211
      vertex 39.0037 -57.9473 24.6573
    endloop
  endfacet
  facet normal 0.312118 -0.184162 0.932023
    outer loop
      vertex 36.8963 -57.9016 25.4638
      vertex 38.6068 -55.5811 25.3495
      vertex 36.5135 -55.2775 26.1105
    endloop
  endfacet
  facet normal 0.34551 -0.209629 0.914702
    outer loop
      vertex 39.0037 -57.9473 24.6573
      vertex 38.6068 -55.5811 25.3495
      vertex 36.8963 -57.9016 25.4638
    endloop
  endfacet
  facet normal 0.360812 -0.157849 0.919183
    outer loop
      vertex 37.5228 -60.4887 24.7736
      vertex 39.6549 -60.2696 23.9743
      vertex 36.8963 -57.9016 25.4638
    endloop
  endfacet
  facet normal 0.348747 -0.173105 0.921092
    outer loop
      vertex 39.6549 -60.2696 23.9743
      vertex 39.0037 -57.9473 24.6573
      vertex 36.8963 -57.9016 25.4638
    endloop
  endfacet
  facet normal 0.233029 -0.177608 0.956113
    outer loop
      vertex 34.7308 -57.7403 26.0875
      vertex 36.5135 -55.2775 26.1105
      vertex 34.3657 -54.8973 26.7046
    endloop
  endfacet
  facet normal 0.257945 -0.19555 0.946163
    outer loop
      vertex 36.8963 -57.9016 25.4638
      vertex 36.5135 -55.2775 26.1105
      vertex 34.7308 -57.7403 26.0875
    endloop
  endfacet
  facet normal 0.268161 -0.180023 0.946404
    outer loop
      vertex 35.3455 -60.553 25.3783
      vertex 37.5228 -60.4887 24.7736
      vertex 34.7308 -57.7403 26.0875
    endloop
  endfacet
  facet normal 0.258625 -0.190043 0.947099
    outer loop
      vertex 37.5228 -60.4887 24.7736
      vertex 36.8963 -57.9016 25.4638
      vertex 34.7308 -57.7403 26.0875
    endloop
  endfacet
  facet normal 0.163343 -0.179074 0.970181
    outer loop
      vertex 32.5347 -57.5459 26.524
      vertex 34.3657 -54.8973 26.7046
      vertex 32.1922 -54.4928 27.1452
    endloop
  endfacet
  facet normal 0.175528 -0.187247 0.966503
    outer loop
      vertex 34.7308 -57.7403 26.0875
      vertex 34.3657 -54.8973 26.7046
      vertex 32.5347 -57.5459 26.524
    endloop
  endfacet
  facet normal 0.171017 -0.207142 0.963247
    outer loop
      vertex 33.1332 -60.5501 25.7717
      vertex 35.3455 -60.553 25.3783
      vertex 32.5347 -57.5459 26.524
    endloop
  endfacet
  facet normal 0.173318 -0.205009 0.963292
    outer loop
      vertex 35.3455 -60.553 25.3783
      vertex 34.7308 -57.7403 26.0875
      vertex 32.5347 -57.5459 26.524
    endloop
  endfacet
  facet normal 0.0930991 -0.188025 0.977742
    outer loop
      vertex 30.3235 -57.3291 26.7777
      vertex 32.1922 -54.4928 27.1452
      vertex 30.0058 -54.0736 27.434
    endloop
  endfacet
  facet normal 0.0936936 -0.1884 0.977613
    outer loop
      vertex 32.5347 -57.5459 26.524
      vertex 32.1922 -54.4928 27.1452
      vertex 30.3235 -57.3291 26.7777
    endloop
  endfacet
  facet normal 0.0872073 -0.226887 0.970009
    outer loop
      vertex 30.8979 -60.5059 25.983
      vertex 33.1332 -60.5501 25.7717
      vertex 30.3235 -57.3291 26.7777
    endloop
  endfacet
  facet normal 0.0892393 -0.225181 0.970222
    outer loop
      vertex 33.1332 -60.5501 25.7717
      vertex 32.5347 -57.5459 26.524
      vertex 30.3235 -57.3291 26.7777
    endloop
  endfacet
  facet normal 0.146908 -0.166116 0.975102
    outer loop
      vertex 34.3657 -54.8973 26.7046
      vertex 34.2915 -52.0649 27.1983
      vertex 32.1627 -51.4569 27.6226
    endloop
  endfacet
  facet normal 0.169222 -0.151497 0.973865
    outer loop
      vertex 32.1922 -54.4928 27.1452
      vertex 34.3657 -54.8973 26.7046
      vertex 32.1627 -51.4569 27.6226
    endloop
  endfacet
  facet normal 0.0978796 -0.151573 0.983588
    outer loop
      vertex 32.1627 -51.4569 27.6226
      vertex 30.0111 -50.8418 27.9315
      vertex 30.0058 -54.0736 27.434
    endloop
  endfacet
  facet normal 0.100395 -0.153606 0.983019
    outer loop
      vertex 32.1922 -54.4928 27.1452
      vertex 32.1627 -51.4569 27.6226
      vertex 30.0058 -54.0736 27.434
    endloop
  endfacet
  facet normal 0.104857 -0.114834 0.987835
    outer loop
      vertex 32.1627 -51.4569 27.6226
      vertex 32.3978 -48.4809 27.9436
      vertex 30.2648 -47.7051 28.2602
    endloop
  endfacet
  facet normal 0.109665 -0.112362 0.987597
    outer loop
      vertex 32.1627 -51.4569 27.6226
      vertex 30.2648 -47.7051 28.2602
      vertex 30.0111 -50.8418 27.9315
    endloop
  endfacet
  facet normal 0.0654272 -0.116858 0.990991
    outer loop
      vertex 30.2648 -47.7051 28.2602
      vertex 28.0925 -46.959 28.4916
      vertex 27.8432 -50.2524 28.1197
    endloop
  endfacet
  facet normal 0.0566373 -0.108584 0.992473
    outer loop
      vertex 30.0111 -50.8418 27.9315
      vertex 30.2648 -47.7051 28.2602
      vertex 27.8432 -50.2524 28.1197
    endloop
  endfacet
  facet normal 0.0238819 -0.163465 0.98626
    outer loop
      vertex 30.0058 -54.0736 27.434
      vertex 27.8432 -50.2524 28.1197
      vertex 27.8246 -53.6767 27.5526
    endloop
  endfacet
  facet normal 0.0443723 -0.152068 0.987373
    outer loop
      vertex 30.0058 -54.0736 27.434
      vertex 30.0111 -50.8418 27.9315
      vertex 27.8432 -50.2524 28.1197
    endloop
  endfacet
  facet normal 0.0866761 -0.0589823 0.994489
    outer loop
      vertex 29.922 -44.4 28.4861
      vertex 30.2648 -47.7051 28.2602
      vertex 30.6372 -44.6928 28.4064
    endloop
  endfacet
  facet normal 0.0866379 -0.0589865 0.994492
    outer loop
      vertex 30.2648 -47.7051 28.2602
      vertex 29.922 -44.4 28.4861
      vertex 28.7351 -44.4 28.5895
    endloop
  endfacet
  facet normal 0.0854613 -0.0595096 0.994563
    outer loop
      vertex 28.0925 -46.959 28.4916
      vertex 28.7351 -44.4 28.5895
      vertex 28.3883 -44.4 28.6193
    endloop
  endfacet
  facet normal 0.0855008 -0.0595194 0.994559
    outer loop
      vertex 28.7351 -44.4 28.5895
      vertex 28.0925 -46.959 28.4916
      vertex 30.2648 -47.7051 28.2602
    endloop
  endfacet
  facet normal 0.0295239 -0.0580867 0.997875
    outer loop
      vertex 27.845 -44.4 28.6325
      vertex 26.0976 -44.4 28.6842
      vertex 25.8905 -46.3125 28.579
    endloop
  endfacet
  facet normal 0.0242551 -0.0526222 0.99832
    outer loop
      vertex 27.845 -44.4 28.6325
      vertex 28.0925 -46.959 28.4916
      vertex 28.3883 -44.4 28.6193
    endloop
  endfacet
  facet normal 0.0241725 -0.0526302 0.998321
    outer loop
      vertex 28.0925 -46.959 28.4916
      vertex 27.845 -44.4 28.6325
      vertex 25.8905 -46.3125 28.579
    endloop
  endfacet
  facet normal -0.0199955 -0.125541 0.991887
    outer loop
      vertex 27.8432 -50.2524 28.1197
      vertex 25.8905 -46.3125 28.579
      vertex 25.6712 -49.7753 28.1363
    endloop
  endfacet
  facet normal 0.00635443 -0.112682 0.993611
    outer loop
      vertex 27.8432 -50.2524 28.1197
      vertex 28.0925 -46.959 28.4916
      vertex 25.8905 -46.3125 28.579
    endloop
  endfacet
  facet normal -0.0688521 -0.053415 0.996196
    outer loop
      vertex 23.6951 -45.7922 28.4552
      vertex 25.0096 -44.4 28.6207
      vertex 23.8333 -44.4 28.5394
    endloop
  endfacet
  facet normal -0.0688383 -0.053428 0.996196
    outer loop
      vertex 25.0096 -44.4 28.6207
      vertex 23.6951 -45.7922 28.4552
      vertex 25.8905 -46.3125 28.579
    endloop
  endfacet
  facet normal -0.0581961 -0.0485464 0.997124
    outer loop
      vertex 25.8905 -46.3125 28.579
      vertex 26.0976 -44.4 28.6842
      vertex 25.0096 -44.4 28.6207
    endloop
  endfacet
  facet normal 0.427403 -0.210644 0.879179
    outer loop
      vertex 40.4626 -51.4226 25.6271
      vertex 42 -52.0917 24.7194
      vertex 42 -51.8371 24.7804
    endloop
  endfacet
  facet normal 0.427393 -0.210667 0.879179
    outer loop
      vertex 42 -52.0917 24.7194
      vertex 40.4626 -51.4226 25.6271
      vertex 40.4328 -53.5814 25.1243
    endloop
  endfacet
  facet normal 0.45101 -0.240889 0.859397
    outer loop
      vertex 42 -53.7278 24.2608
      vertex 42 -52.0917 24.7194
      vertex 40.4328 -53.5814 25.1243
    endloop
  endfacet
  facet normal 0.46535 -0.231205 0.854397
    outer loop
      vertex 42 -55.1006 23.8595
      vertex 40.6331 -55.7066 24.44
      vertex 42 -55.632 23.7157
    endloop
  endfacet
  facet normal 0.465361 -0.231244 0.85438
    outer loop
      vertex 40.6331 -55.7066 24.44
      vertex 42 -55.1006 23.8595
      vertex 40.4328 -53.5814 25.1243
    endloop
  endfacet
  facet normal 0.449099 -0.250693 0.857591
    outer loop
      vertex 42 -55.1006 23.8595
      vertex 42 -53.7278 24.2608
      vertex 40.4328 -53.5814 25.1243
    endloop
  endfacet
  facet normal 0.312076 -0.175575 0.933693
    outer loop
      vertex 40.4626 -51.4226 25.6271
      vertex 38.5425 -50.7726 26.3911
      vertex 38.4507 -53.1794 25.9692
    endloop
  endfacet
  facet normal 0.3451 -0.217417 0.913037
    outer loop
      vertex 40.4328 -53.5814 25.1243
      vertex 40.4626 -51.4226 25.6271
      vertex 38.4507 -53.1794 25.9692
    endloop
  endfacet
  facet normal 0.390031 -0.206206 0.897416
    outer loop
      vertex 38.6068 -55.5811 25.3495
      vertex 40.6331 -55.7066 24.44
      vertex 38.4507 -53.1794 25.9692
    endloop
  endfacet
  facet normal 0.333444 -0.260335 0.906113
    outer loop
      vertex 40.6331 -55.7066 24.44
      vertex 40.4328 -53.5814 25.1243
      vertex 38.4507 -53.1794 25.9692
    endloop
  endfacet
  facet normal 0.244459 -0.144769 0.958792
    outer loop
      vertex 38.5425 -50.7726 26.3911
      vertex 36.5382 -50.033 27.0138
      vertex 36.3939 -52.647 26.6559
    endloop
  endfacet
  facet normal 0.270385 -0.176227 0.946486
    outer loop
      vertex 38.4507 -53.1794 25.9692
      vertex 38.5425 -50.7726 26.3911
      vertex 36.3939 -52.647 26.6559
    endloop
  endfacet
  facet normal 0.313084 -0.179144 0.932677
    outer loop
      vertex 36.5135 -55.2775 26.1105
      vertex 38.6068 -55.5811 25.3495
      vertex 36.3939 -52.647 26.6559
    endloop
  endfacet
  facet normal 0.255368 -0.225964 0.940068
    outer loop
      vertex 38.6068 -55.5811 25.3495
      vertex 38.4507 -53.1794 25.9692
      vertex 36.3939 -52.647 26.6559
    endloop
  endfacet
  facet normal 0.194961 -0.127264 0.972519
    outer loop
      vertex 36.5382 -50.033 27.0138
      vertex 34.4877 -49.2632 27.5256
      vertex 34.2915 -52.0649 27.1983
    endloop
  endfacet
  facet normal 0.209641 -0.143987 0.967118
    outer loop
      vertex 36.3939 -52.647 26.6559
      vertex 36.5382 -50.033 27.0138
      vertex 34.2915 -52.0649 27.1983
    endloop
  endfacet
  facet normal 0.236581 -0.160823 0.95821
    outer loop
      vertex 34.3657 -54.8973 26.7046
      vertex 36.5135 -55.2775 26.1105
      vertex 34.2915 -52.0649 27.1983
    endloop
  endfacet
  facet normal 0.195427 -0.190578 0.962023
    outer loop
      vertex 36.5135 -55.2775 26.1105
      vertex 36.3939 -52.647 26.6559
      vertex 34.2915 -52.0649 27.1983
    endloop
  endfacet
  facet normal 0.204389 -0.0815082 0.97549
    outer loop
      vertex 36.5382 -50.033 27.0138
      vertex 36.8856 -47.5019 27.1525
      vertex 34.8549 -46.5586 27.6568
    endloop
  endfacet
  facet normal 0.214387 -0.0763441 0.973761
    outer loop
      vertex 36.5382 -50.033 27.0138
      vertex 34.8549 -46.5586 27.6568
      vertex 34.4877 -49.2632 27.5256
    endloop
  endfacet
  facet normal 0.167145 -0.0668882 0.983661
    outer loop
      vertex 34.8549 -46.5586 27.6568
      vertex 32.7722 -45.6203 28.0745
      vertex 32.3978 -48.4809 27.9436
    endloop
  endfacet
  facet normal 0.170094 -0.070773 0.982883
    outer loop
      vertex 34.4877 -49.2632 27.5256
      vertex 34.8549 -46.5586 27.6568
      vertex 32.3978 -48.4809 27.9436
    endloop
  endfacet
  facet normal 0.161452 -0.118433 0.979748
    outer loop
      vertex 34.2915 -52.0649 27.1983
      vertex 32.3978 -48.4809 27.9436
      vertex 32.1627 -51.4569 27.6226
    endloop
  endfacet
  facet normal 0.149371 -0.125044 0.980843
    outer loop
      vertex 34.2915 -52.0649 27.1983
      vertex 34.4877 -49.2632 27.5256
      vertex 32.3978 -48.4809 27.9436
    endloop
  endfacet
  facet normal 0.183084 -0.0242528 0.982798
    outer loop
      vertex 34.8549 -46.5586 27.6568
      vertex 35.2729 -44.4 27.6322
      vertex 33.9164 -44.4 27.8849
    endloop
  endfacet
  facet normal 0.186838 -0.0225913 0.982131
    outer loop
      vertex 32.7722 -45.6203 28.0745
      vertex 33.9164 -44.4 27.8849
      vertex 32.9986 -44.4 28.0595
    endloop
  endfacet
  facet normal 0.186809 -0.0225632 0.982137
    outer loop
      vertex 33.9164 -44.4 27.8849
      vertex 32.7722 -45.6203 28.0745
      vertex 34.8549 -46.5586 27.6568
    endloop
  endfacet
  facet normal 0.145601 -0.0127809 0.989261
    outer loop
      vertex 31.0726 -44.4 28.3461
      vertex 30.6894 -44.4 28.4025
      vertex 30.6372 -44.6928 28.4064
    endloop
  endfacet
  facet normal 0.147168 -0.0151471 0.988995
    outer loop
      vertex 31.0726 -44.4 28.3461
      vertex 32.7722 -45.6203 28.0745
      vertex 32.9986 -44.4 28.0595
    endloop
  endfacet
  facet normal 0.147162 -0.0151563 0.988996
    outer loop
      vertex 32.7722 -45.6203 28.0745
      vertex 31.0726 -44.4 28.3461
      vertex 30.6372 -44.6928 28.4064
    endloop
  endfacet
  facet normal 0.123931 -0.063383 0.990264
    outer loop
      vertex 32.3978 -48.4809 27.9436
      vertex 30.6372 -44.6928 28.4064
      vertex 30.2648 -47.7051 28.2602
    endloop
  endfacet
  facet normal 0.126997 -0.0619221 0.989968
    outer loop
      vertex 32.3978 -48.4809 27.9436
      vertex 32.7722 -45.6203 28.0745
      vertex 30.6372 -44.6928 28.4064
    endloop
  endfacet
  facet normal 0.108858 -0.00467958 0.994046
    outer loop
      vertex 30.6372 -44.6928 28.4064
      vertex 30.5119 -44.4 28.4215
      vertex 29.922 -44.4 28.4861
    endloop
  endfacet
  facet normal 0.106432 -0.00573085 0.994303
    outer loop
      vertex 30.6372 -44.6928 28.4064
      vertex 30.6894 -44.4 28.4025
      vertex 30.5119 -44.4 28.4215
    endloop
  endfacet
  facet normal 0.402166 -0.0850754 0.911606
    outer loop
      vertex 41.2095 -47.3072 25.8143
      vertex 42 -48.7137 25.3343
      vertex 42 -47.7804 25.4214
    endloop
  endfacet
  facet normal 0.402207 -0.0850471 0.91159
    outer loop
      vertex 42 -48.7137 25.3343
      vertex 41.2095 -47.3072 25.8143
      vertex 40.7431 -49.3114 25.8331
    endloop
  endfacet
  facet normal 0.419525 -0.13283 0.897973
    outer loop
      vertex 42 -49.8785 25.162
      vertex 42 -48.7137 25.3343
      vertex 40.7431 -49.3114 25.8331
    endloop
  endfacet
  facet normal 0.446913 -0.145504 0.882665
    outer loop
      vertex 40.4626 -51.4226 25.6271
      vertex 42 -51.5256 24.8317
      vertex 40.7431 -49.3114 25.8331
    endloop
  endfacet
  facet normal 0.44693 -0.145366 0.882679
    outer loop
      vertex 42 -51.5256 24.8317
      vertex 40.4626 -51.4226 25.6271
      vertex 42 -51.8371 24.7804
    endloop
  endfacet
  facet normal 0.398738 -0.180313 0.899164
    outer loop
      vertex 42 -51.5256 24.8317
      vertex 42 -49.8785 25.162
      vertex 40.7431 -49.3114 25.8331
    endloop
  endfacet
  facet normal 0.324283 -0.0544871 0.94439
    outer loop
      vertex 41.2095 -47.3072 25.8143
      vertex 39.343 -46.245 26.5165
      vertex 38.8626 -48.4351 26.5551
    endloop
  endfacet
  facet normal 0.329857 -0.0679292 0.941584
    outer loop
      vertex 40.7431 -49.3114 25.8331
      vertex 41.2095 -47.3072 25.8143
      vertex 38.8626 -48.4351 26.5551
    endloop
  endfacet
  facet normal 0.334594 -0.111472 0.935746
    outer loop
      vertex 40.4626 -51.4226 25.6271
      vertex 38.8626 -48.4351 26.5551
      vertex 38.5425 -50.7726 26.3911
    endloop
  endfacet
  facet normal 0.301021 -0.132146 0.944417
    outer loop
      vertex 40.4626 -51.4226 25.6271
      vertex 40.7431 -49.3114 25.8331
      vertex 38.8626 -48.4351 26.5551
    endloop
  endfacet
  facet normal 0.269991 -0.0410956 0.961985
    outer loop
      vertex 39.343 -46.245 26.5165
      vertex 37.3752 -45.1327 27.1163
      vertex 36.8856 -47.5019 27.1525
    endloop
  endfacet
  facet normal 0.270602 -0.042406 0.961757
    outer loop
      vertex 38.8626 -48.4351 26.5551
      vertex 39.343 -46.245 26.5165
      vertex 36.8856 -47.5019 27.1525
    endloop
  endfacet
  facet normal 0.265406 -0.0890349 0.960017
    outer loop
      vertex 38.5425 -50.7726 26.3911
      vertex 36.8856 -47.5019 27.1525
      vertex 36.5382 -50.033 27.0138
    endloop
  endfacet
  facet normal 0.243764 -0.101055 0.964555
    outer loop
      vertex 38.5425 -50.7726 26.3911
      vertex 38.8626 -48.4351 26.5551
      vertex 36.8856 -47.5019 27.1525
    endloop
  endfacet
  facet normal 0.2681 -0.0372594 0.96267
    outer loop
      vertex 39.343 -46.245 26.5165
      vertex 39.8741 -44.4 26.44
      vertex 38.6055 -44.4 26.7933
    endloop
  endfacet
  facet normal 0.273264 -0.0350712 0.9613
    outer loop
      vertex 37.3752 -45.1327 27.1163
      vertex 38.6055 -44.4 26.7933
      vertex 37.5804 -44.4 27.0847
    endloop
  endfacet
  facet normal 0.273228 -0.0350057 0.961312
    outer loop
      vertex 38.6055 -44.4 26.7933
      vertex 37.3752 -45.1327 27.1163
      vertex 39.343 -46.245 26.5165
    endloop
  endfacet
  facet normal 0.232538 -0.0231907 0.972311
    outer loop
      vertex 37.3752 -45.1327 27.1163
      vertex 37.5804 -44.4 27.0847
      vertex 36.0559 -44.4 27.4493
    endloop
  endfacet
  facet normal 0.226625 -0.0327911 0.97343
    outer loop
      vertex 34.8549 -46.5586 27.6568
      vertex 35.5216 -44.4 27.5743
      vertex 35.2729 -44.4 27.6322
    endloop
  endfacet
  facet normal 0.226528 -0.0327602 0.973454
    outer loop
      vertex 35.5216 -44.4 27.5743
      vertex 34.8549 -46.5586 27.6568
      vertex 36.8856 -47.5019 27.1525
    endloop
  endfacet
  facet normal 0.227757 -0.0321968 0.973185
    outer loop
      vertex 36.0559 -44.4 27.4493
      vertex 36.8856 -47.5019 27.1525
      vertex 37.3752 -45.1327 27.1163
    endloop
  endfacet
  facet normal 0.227682 -0.0322186 0.973202
    outer loop
      vertex 36.8856 -47.5019 27.1525
      vertex 36.0559 -44.4 27.4493
      vertex 35.5216 -44.4 27.5743
    endloop
  endfacet
endsolid OpenSCAD_Model
