solid OpenSCAD_Model
  facet normal 1 0 0
    outer loop
      vertex 42 -0.669321 10.8689
      vertex 42 -0.487265 9.66667
      vertex 42 -0.509024 10.1839
    endloop
  endfacet
  facet normal 1 0 0
    outer loop
      vertex 42 -22.2 9.66667
      vertex 42 -0.669321 10.8689
      vertex 42 -1.3005 13.2514
    endloop
  endfacet
  facet normal 1 0 0
    outer loop
      vertex 42 -1.34721 13.3784
      vertex 42 -1.3005 13.2514
      vertex 42 -1.32137 13.3228
    endloop
  endfacet
  facet normal 1 0 0
    outer loop
      vertex 42 -1.34721 13.3784
      vertex 42 -1.32137 13.3228
      vertex 42 -1.32708 13.3421
    endloop
  endfacet
  facet normal 1 0 0
    outer loop
      vertex 42 -22.2 9.66667
      vertex 42 -1.3005 13.2514
      vertex 42 -1.34721 13.3784
    endloop
  endfacet
  facet normal 1 0 0
    outer loop
      vertex 42 -22.2 9.66667
      vertex 42 -1.34721 13.3784
      vertex 42 -2.85296 16.1508
    endloop
  endfacet
  facet normal 1 0 0
    outer loop
      vertex 42 -22.2 9.66667
      vertex 42 -2.85296 16.1508
      vertex 42 -3.87361 17.3337
    endloop
  endfacet
  facet normal 1 0 0
    outer loop
      vertex 42 -5.74506 19.1859
      vertex 42 -3.87361 17.3337
      vertex 42 -5.03271 18.635
    endloop
  endfacet
  facet normal 1 0 0
    outer loop
      vertex 42 -3.87361 17.3337
      vertex 42 -5.74506 19.1859
      vertex 42 -22.2 9.66667
    endloop
  endfacet
  facet normal 1 0 0
    outer loop
      vertex 42 -22.2 9.66667
      vertex 42 -5.74506 19.1859
      vertex 42 -7.82614 20.7055
    endloop
  endfacet
  facet normal 1 0 0
    outer loop
      vertex 42 -22.2 9.66667
      vertex 42 -7.82614 20.7055
      vertex 42 -8.58302 21.0943
    endloop
  endfacet
  facet normal 1 0 0
    outer loop
      vertex 42 -22.2 9.66667
      vertex 42 -8.58302 21.0943
      vertex 42 -9.46414 21.5515
    endloop
  endfacet
  facet normal 1 0 0
    outer loop
      vertex 42 -22.2 9.66667
      vertex 42 -9.46414 21.5515
      vertex 42 -10.2972 21.9498
    endloop
  endfacet
  facet normal 1 0 0
    outer loop
      vertex 42 -22.2 9.66667
      vertex 42 -10.2972 21.9498
      vertex 42 -11.0405 22.3137
    endloop
  endfacet
  facet normal 1 0 0
    outer loop
      vertex 42 -22.2 9.66667
      vertex 42 -11.0405 22.3137
      vertex 42 -13.0774 23.0886
    endloop
  endfacet
  facet normal 1 0 0
    outer loop
      vertex 42 -22.2 9.66667
      vertex 42 -13.0774 23.0886
      vertex 42 -14.5034 23.5994
    endloop
  endfacet
  facet normal 1 0 0
    outer loop
      vertex 42 -22.2 9.66667
      vertex 42 -14.5034 23.5994
      vertex 42 -15.6256 23.9384
    endloop
  endfacet
  facet normal 1 0 0
    outer loop
      vertex 42 -22.2 9.66667
      vertex 42 -15.6256 23.9384
      vertex 42 -16.8852 24.345
    endloop
  endfacet
  facet normal 1 0 0
    outer loop
      vertex 42 -22.2 9.66667
      vertex 42 -16.8852 24.345
      vertex 42 -17.4857 24.5163
    endloop
  endfacet
  facet normal 1 0 0
    outer loop
      vertex 42 -22.2 9.66667
      vertex 42 -17.4857 24.5163
      vertex 42 -18.0292 24.6747
    endloop
  endfacet
  facet normal 1 0 0
    outer loop
      vertex 42 -22.2 9.66667
      vertex 42 -18.0292 24.6747
      vertex 42 -20.9853 25.4178
    endloop
  endfacet
  facet normal 1 0 0
    outer loop
      vertex 42 -22.2 9.66667
      vertex 42 -20.9853 25.4178
      vertex 42 -21.6054 25.55
    endloop
  endfacet
  facet normal 1 0 0
    outer loop
      vertex 42 -22.2 9.66667
      vertex 42 -21.6054 25.55
      vertex 42 -22.2 25.6549
    endloop
  endfacet
  facet normal 1 0 0
    outer loop
      vertex 42 -0.669321 10.8689
      vertex 42 -22.2 9.66667
      vertex 42 -0.487265 9.66667
    endloop
  endfacet
  facet normal 0 0 -1
    outer loop
      vertex 42 -22.2 9.66667
      vertex 40.197 -0.209758 9.66667
      vertex 42 -0.487265 9.66667
    endloop
  endfacet
  facet normal 0 0 -1
    outer loop
      vertex 42 -22.2 9.66667
      vertex 38.0973 -0.0750976 9.66667
      vertex 40.197 -0.209758 9.66667
    endloop
  endfacet
  facet normal 0 0 -1
    outer loop
      vertex 36.9691 -0.0668871 9.66667
      vertex 38.0973 -0.0750976 9.66667
      vertex 42 -22.2 9.66667
    endloop
  endfacet
  facet normal 0 0 -1
    outer loop
      vertex 38.0973 -0.0750976 9.66667
      vertex 36.9691 -0.0668871 9.66667
      vertex 37.6092 -0.0475154 9.66667
    endloop
  endfacet
  facet normal 0 0 -1
    outer loop
      vertex 42 -22.2 9.66667
      vertex 34.935 -0.120976 9.66667
      vertex 36.9691 -0.0668871 9.66667
    endloop
  endfacet
  facet normal 0 0 -1
    outer loop
      vertex 42 -22.2 9.66667
      vertex 33.9128 -0.274805 9.66667
      vertex 34.935 -0.120976 9.66667
    endloop
  endfacet
  facet normal 0 0 -1
    outer loop
      vertex 30.7483 -1.00814 9.66667
      vertex 33.9128 -0.274805 9.66667
      vertex 42 -22.2 9.66667
    endloop
  endfacet
  facet normal 0 0 -1
    outer loop
      vertex 33.9128 -0.274805 9.66667
      vertex 30.7483 -1.00814 9.66667
      vertex 32.1354 -0.563647 9.66667
    endloop
  endfacet
  facet normal 0 0 -1
    outer loop
      vertex 42 -22.2 9.66667
      vertex 29.2531 -1.45446 9.66667
      vertex 30.7483 -1.00814 9.66667
    endloop
  endfacet
  facet normal 0 0 -1
    outer loop
      vertex 42 -22.2 9.66667
      vertex 27.1888 -2.45397 9.66667
      vertex 29.2531 -1.45446 9.66667
    endloop
  endfacet
  facet normal 0 0 -1
    outer loop
      vertex 25.9273 -3.16266 9.66667
      vertex 27.1888 -2.45397 9.66667
      vertex 42 -22.2 9.66667
    endloop
  endfacet
  facet normal 0 0 -1
    outer loop
      vertex 27.1888 -2.45397 9.66667
      vertex 25.9273 -3.16266 9.66667
      vertex 26.4431 -2.82508 9.66667
    endloop
  endfacet
  facet normal 0 0 -1
    outer loop
      vertex 42 -22.2 9.66667
      vertex 23.7898 -4.50142 9.66667
      vertex 25.9273 -3.16266 9.66667
    endloop
  endfacet
  facet normal 0 0 -1
    outer loop
      vertex 21 -22.2 9.66667
      vertex 23.7898 -4.50142 9.66667
      vertex 42 -22.2 9.66667
    endloop
  endfacet
  facet normal 0 0 -1
    outer loop
      vertex 23.7898 -4.50142 9.66667
      vertex 21 -22.2 9.66667
      vertex 22.138 -5.71068 9.66667
    endloop
  endfacet
  facet normal 0 0 -1
    outer loop
      vertex 22.138 -5.71068 9.66667
      vertex 21 -22.2 9.66667
      vertex 21.2762 -6.36024 9.66667
    endloop
  endfacet
  facet normal 0 0 -1
    outer loop
      vertex 21.2762 -6.36024 9.66667
      vertex 21 -22.2 9.66667
      vertex 21 -6.59404 9.66667
    endloop
  endfacet
  facet normal -1 0 0
    outer loop
      vertex 21 -6.59404 9.66667
      vertex 21 -6.67421 10.2199
      vertex 21 -6.58906 9.80726
    endloop
  endfacet
  facet normal -1 0 0
    outer loop
      vertex 21 -22.2 9.66667
      vertex 21 -6.67421 10.2199
      vertex 21 -6.59404 9.66667
    endloop
  endfacet
  facet normal -1 -0 0
    outer loop
      vertex 21 -6.67421 10.2199
      vertex 21 -22.2 9.66667
      vertex 21 -7.0803 12.4761
    endloop
  endfacet
  facet normal -1 -0 0
    outer loop
      vertex 21 -7.0803 12.4761
      vertex 21 -22.2 9.66667
      vertex 21 -7.68471 13.7958
    endloop
  endfacet
  facet normal -1 0 -0
    outer loop
      vertex 21 -9.35193 16.574
      vertex 21 -7.68471 13.7958
      vertex 21 -22.2 9.66667
    endloop
  endfacet
  facet normal -1 0 0
    outer loop
      vertex 21 -7.68471 13.7958
      vertex 21 -9.35193 16.574
      vertex 21 -8.23142 15.0768
    endloop
  endfacet
  facet normal -1 -0 0
    outer loop
      vertex 21 -9.35193 16.574
      vertex 21 -22.2 9.66667
      vertex 21 -9.84204 17.1794
    endloop
  endfacet
  facet normal -1 -0 0
    outer loop
      vertex 21 -9.84204 17.1794
      vertex 21 -22.2 9.66667
      vertex 21 -10.1467 17.521
    endloop
  endfacet
  facet normal -1 -0 0
    outer loop
      vertex 21 -10.1467 17.521
      vertex 21 -22.2 9.66667
      vertex 21 -11.2735 18.4919
    endloop
  endfacet
  facet normal -1 -0 0
    outer loop
      vertex 21 -11.2735 18.4919
      vertex 21 -22.2 9.66667
      vertex 21 -12.6096 19.5843
    endloop
  endfacet
  facet normal -1 -0 0
    outer loop
      vertex 21 -12.6096 19.5843
      vertex 21 -22.2 9.66667
      vertex 21 -12.9036 19.8041
    endloop
  endfacet
  facet normal -1 -0 0
    outer loop
      vertex 21 -12.9036 19.8041
      vertex 21 -22.2 9.66667
      vertex 21 -15.6101 21.4225
    endloop
  endfacet
  facet normal -1 -0 0
    outer loop
      vertex 21 -15.6101 21.4225
      vertex 21 -22.2 9.66667
      vertex 21 -16.059 21.6638
    endloop
  endfacet
  facet normal -1 -0 0
    outer loop
      vertex 21 -16.059 21.6638
      vertex 21 -22.2 9.66667
      vertex 21 -16.6619 22.0065
    endloop
  endfacet
  facet normal -1 -0 0
    outer loop
      vertex 21 -16.6619 22.0065
      vertex 21 -22.2 9.66667
      vertex 21 -17.8061 22.5279
    endloop
  endfacet
  facet normal -1 -0 0
    outer loop
      vertex 21 -17.8061 22.5279
      vertex 21 -22.2 9.66667
      vertex 21 -18.5333 22.8956
    endloop
  endfacet
  facet normal -1 -0 0
    outer loop
      vertex 21 -18.5333 22.8956
      vertex 21 -22.2 9.66667
      vertex 21 -21.2953 24.1271
    endloop
  endfacet
  facet normal -1 -0 0
    outer loop
      vertex 21 -21.2953 24.1271
      vertex 21 -22.2 9.66667
      vertex 21 -21.4832 24.1973
    endloop
  endfacet
  facet normal -1 -0 0
    outer loop
      vertex 21 -21.4832 24.1973
      vertex 21 -22.2 9.66667
      vertex 21 -22.2 24.4383
    endloop
  endfacet
  facet normal 0 -1 0
    outer loop
      vertex 21 -22.2 9.66667
      vertex 29.6933 -22.2 26.5175
      vertex 29.3049 -22.2 26.5028
    endloop
  endfacet
  facet normal 0 -1 -0
    outer loop
      vertex 29.6933 -22.2 26.5175
      vertex 21 -22.2 9.66667
      vertex 32.1541 -22.2 26.5701
    endloop
  endfacet
  facet normal 0 -1 0
    outer loop
      vertex 21 -22.2 9.66667
      vertex 29.3049 -22.2 26.5028
      vertex 29.0901 -22.2 26.4928
    endloop
  endfacet
  facet normal 0 -1 0
    outer loop
      vertex 32.1541 -22.2 26.5701
      vertex 42 -22.2 9.66667
      vertex 34.6011 -22.2 26.493
    endloop
  endfacet
  facet normal 0 -1 0
    outer loop
      vertex 34.6011 -22.2 26.493
      vertex 42 -22.2 9.66667
      vertex 34.962 -22.2 26.4756
    endloop
  endfacet
  facet normal 0 -1 0
    outer loop
      vertex 34.962 -22.2 26.4756
      vertex 42 -22.2 9.66667
      vertex 35.1998 -22.2 26.4666
    endloop
  endfacet
  facet normal 0 -1 0
    outer loop
      vertex 21 -22.2 9.66667
      vertex 29.0901 -22.2 26.4928
      vertex 27.2942 -22.2 26.29
    endloop
  endfacet
  facet normal 0 -1 0
    outer loop
      vertex 35.1998 -22.2 26.4666
      vertex 42 -22.2 9.66667
      vertex 36.7378 -22.2 26.3351
    endloop
  endfacet
  facet normal 0 -1 0
    outer loop
      vertex 36.7378 -22.2 26.3351
      vertex 42 -22.2 9.66667
      vertex 38.196 -22.2 26.2326
    endloop
  endfacet
  facet normal 0 -1 0
    outer loop
      vertex 38.196 -22.2 26.2326
      vertex 42 -22.2 9.66667
      vertex 38.4724 -22.2 26.1991
    endloop
  endfacet
  facet normal 0 -1 0
    outer loop
      vertex 21 -22.2 9.66667
      vertex 27.2942 -22.2 26.29
      vertex 26.1099 -22.2 26.13
    endloop
  endfacet
  facet normal 0 -1 0
    outer loop
      vertex 21 -22.2 9.66667
      vertex 26.1099 -22.2 26.13
      vertex 25.2466 -22.2 25.9313
    endloop
  endfacet
  facet normal 0 -1 0
    outer loop
      vertex 38.4724 -22.2 26.1991
      vertex 42 -22.2 9.66667
      vertex 38.8243 -22.2 26.1604
    endloop
  endfacet
  facet normal 0 -1 0
    outer loop
      vertex 38.8243 -22.2 26.1604
      vertex 42 -22.2 9.66667
      vertex 41.1534 -22.2 25.8205
    endloop
  endfacet
  facet normal 0 -1 0
    outer loop
      vertex 21 -22.2 9.66667
      vertex 25.2466 -22.2 25.9313
      vertex 23.2255 -22.2 25.3997
    endloop
  endfacet
  facet normal 0 -1 0
    outer loop
      vertex 23.0349 -22.2 25.3211
      vertex 23.2255 -22.2 25.3997
      vertex 23.1775 -22.2 25.3811
    endloop
  endfacet
  facet normal 0 -1 0
    outer loop
      vertex 23.2255 -22.2 25.3997
      vertex 23.0349 -22.2 25.3211
      vertex 21 -22.2 9.66667
    endloop
  endfacet
  facet normal 0 -1 0
    outer loop
      vertex 21 -22.2 9.66667
      vertex 23.0349 -22.2 25.3211
      vertex 21 -22.2 24.4383
    endloop
  endfacet
  facet normal 0 -1 -0
    outer loop
      vertex 32.1541 -22.2 26.5701
      vertex 21 -22.2 9.66667
      vertex 42 -22.2 9.66667
    endloop
  endfacet
  facet normal 0 -1 0
    outer loop
      vertex 41.1534 -22.2 25.8205
      vertex 42 -22.2 9.66667
      vertex 42 -22.2 25.6549
    endloop
  endfacet
  facet normal -0.111002 0.814092 0.570029
    outer loop
      vertex 34.6899 -3.18742 18.3139
      vertex 34.9288 -1.63933 16.1495
      vertex 32.7241 -1.93504 16.1425
    endloop
  endfacet
  facet normal -0.0234426 0.856677 0.515321
    outer loop
      vertex 32.9831 -2.85564 17.6847
      vertex 34.6899 -3.18742 18.3139
      vertex 32.7241 -1.93504 16.1425
    endloop
  endfacet
  facet normal -0.138346 0.710473 0.689992
    outer loop
      vertex 33.2302 -4.76526 19.6459
      vertex 34.6899 -3.18742 18.3139
      vertex 31.566 -3.81378 18.3325
    endloop
  endfacet
  facet normal -0.132493 0.68215 0.719109
    outer loop
      vertex 34.6899 -3.18742 18.3139
      vertex 32.9831 -2.85564 17.6847
      vertex 31.566 -3.81378 18.3325
    endloop
  endfacet
  facet normal 0.189062 0.17073 0.967009
    outer loop
      vertex 41.1534 -22.2 25.8205
      vertex 42 -21.6054 25.55
      vertex 41.7449 -21.3416 25.5533
    endloop
  endfacet
  facet normal 0.189154 0.170602 0.967014
    outer loop
      vertex 42 -21.6054 25.55
      vertex 41.1534 -22.2 25.8205
      vertex 42 -22.2 25.6549
    endloop
  endfacet
  facet normal 0.140675 0.207729 0.968018
    outer loop
      vertex 41.7449 -21.3416 25.5533
      vertex 39.9359 -19.7209 25.4684
      vertex 38.4338 -21.8585 26.1454
    endloop
  endfacet
  facet normal 0.141366 0.204118 0.968685
    outer loop
      vertex 41.7449 -21.3416 25.5533
      vertex 38.8243 -22.2 26.1604
      vertex 41.1534 -22.2 25.8205
    endloop
  endfacet
  facet normal 0.141347 0.204176 0.968676
    outer loop
      vertex 38.8243 -22.2 26.1604
      vertex 41.7449 -21.3416 25.5533
      vertex 38.4338 -21.8585 26.1454
    endloop
  endfacet
  facet normal 0.118625 0.167313 0.978741
    outer loop
      vertex 38.4724 -22.2 26.1991
      vertex 38.4338 -21.8585 26.1454
      vertex 38.196 -22.2 26.2326
    endloop
  endfacet
  facet normal 0.107793 0.166312 0.980164
    outer loop
      vertex 38.4724 -22.2 26.1991
      vertex 38.8243 -22.2 26.1604
      vertex 38.4338 -21.8585 26.1454
    endloop
  endfacet
  facet normal 0.0969247 0.239075 0.966152
    outer loop
      vertex 39.9359 -19.7209 25.4684
      vertex 38.0337 -18.2712 25.3005
      vertex 36.5081 -20.3793 25.9752
    endloop
  endfacet
  facet normal 0.0972194 0.237767 0.966445
    outer loop
      vertex 38.4338 -21.8585 26.1454
      vertex 39.9359 -19.7209 25.4684
      vertex 36.5081 -20.3793 25.9752
    endloop
  endfacet
  facet normal 0.0834097 0.20336 0.975545
    outer loop
      vertex 36.7378 -22.2 26.3351
      vertex 36.5081 -20.3793 25.9752
      vertex 35.1998 -22.2 26.4666
    endloop
  endfacet
  facet normal 0.0686786 0.201659 0.977045
    outer loop
      vertex 38.4338 -21.8585 26.1454
      vertex 36.7378 -22.2 26.3351
      vertex 38.196 -22.2 26.2326
    endloop
  endfacet
  facet normal 0.0686495 0.20179 0.97702
    outer loop
      vertex 36.7378 -22.2 26.3351
      vertex 38.4338 -21.8585 26.1454
      vertex 36.5081 -20.3793 25.9752
    endloop
  endfacet
  facet normal 0.0584805 0.264715 0.962552
    outer loop
      vertex 38.0337 -18.2712 25.3005
      vertex 36.0243 -16.9546 25.0605
      vertex 34.4723 -19.0138 25.7211
    endloop
  endfacet
  facet normal 0.0582097 0.265846 0.962257
    outer loop
      vertex 36.5081 -20.3793 25.9752
      vertex 38.0337 -18.2712 25.3005
      vertex 34.4723 -19.0138 25.7211
    endloop
  endfacet
  facet normal 0.0467851 0.236981 0.970387
    outer loop
      vertex 34.4723 -19.0138 25.7211
      vertex 34.6011 -22.2 26.493
      vertex 34.962 -22.2 26.4756
    endloop
  endfacet
  facet normal 0.0465854 0.236975 0.970398
    outer loop
      vertex 34.6011 -22.2 26.493
      vertex 34.4723 -19.0138 25.7211
      vertex 32.9455 -21.0793 26.2988
    endloop
  endfacet
  facet normal 0.0367544 0.235694 0.971132
    outer loop
      vertex 36.5081 -20.3793 25.9752
      vertex 34.962 -22.2 26.4756
      vertex 35.1998 -22.2 26.4666
    endloop
  endfacet
  facet normal 0.0368335 0.23563 0.971144
    outer loop
      vertex 34.962 -22.2 26.4756
      vertex 36.5081 -20.3793 25.9752
      vertex 34.4723 -19.0138 25.7211
    endloop
  endfacet
  facet normal 0.0197401 0.281051 0.95949
    outer loop
      vertex 36.0243 -16.9546 25.0605
      vertex 33.9075 -15.7278 24.7447
      vertex 32.3106 -17.7514 25.3703
    endloop
  endfacet
  facet normal 0.0166327 0.29404 0.955648
    outer loop
      vertex 34.4723 -19.0138 25.7211
      vertex 36.0243 -16.9546 25.0605
      vertex 32.3106 -17.7514 25.3703
    endloop
  endfacet
  facet normal -0.00391989 0.268045 0.963398
    outer loop
      vertex 32.9455 -21.0793 26.2988
      vertex 32.3106 -17.7514 25.3703
      vertex 30.757 -19.8077 25.9361
    endloop
  endfacet
  facet normal 0.000709841 0.268866 0.963177
    outer loop
      vertex 32.9455 -21.0793 26.2988
      vertex 34.4723 -19.0138 25.7211
      vertex 32.3106 -17.7514 25.3703
    endloop
  endfacet
  facet normal -0.0352013 0.300276 0.953203
    outer loop
      vertex 33.9075 -15.7278 24.7447
      vertex 31.6929 -14.5748 24.2997
      vertex 30.0399 -16.578 24.8697
    endloop
  endfacet
  facet normal -0.0407514 0.324328 0.945067
    outer loop
      vertex 32.3106 -17.7514 25.3703
      vertex 33.9075 -15.7278 24.7447
      vertex 30.0399 -16.578 24.8697
    endloop
  endfacet
  facet normal -0.069863 0.298749 0.951771
    outer loop
      vertex 30.757 -19.8077 25.9361
      vertex 30.0399 -16.578 24.8697
      vertex 28.4559 -18.6468 25.4028
    endloop
  endfacet
  facet normal -0.0535747 0.30234 0.951693
    outer loop
      vertex 30.757 -19.8077 25.9361
      vertex 32.3106 -17.7514 25.3703
      vertex 30.0399 -16.578 24.8697
    endloop
  endfacet
  facet normal -0.117497 0.326784 0.937767
    outer loop
      vertex 31.6929 -14.5748 24.2997
      vertex 29.4042 -13.4756 23.6299
      vertex 27.7051 -15.4898 24.1189
    endloop
  endfacet
  facet normal -0.125821 0.366175 0.922001
    outer loop
      vertex 30.0399 -16.578 24.8697
      vertex 31.6929 -14.5748 24.2997
      vertex 27.7051 -15.4898 24.1189
    endloop
  endfacet
  facet normal -0.170179 0.336229 0.926277
    outer loop
      vertex 28.4559 -18.6468 25.4028
      vertex 27.7051 -15.4898 24.1189
      vertex 26.0979 -17.6022 24.5904
    endloop
  endfacet
  facet normal -0.137863 0.344815 0.928491
    outer loop
      vertex 28.4559 -18.6468 25.4028
      vertex 30.0399 -16.578 24.8697
      vertex 27.7051 -15.4898 24.1189
    endloop
  endfacet
  facet normal -0.227371 0.362341 0.903887
    outer loop
      vertex 29.4042 -13.4756 23.6299
      vertex 27.1141 -12.4298 22.6346
      vertex 25.3803 -14.4929 23.0255
    endloop
  endfacet
  facet normal -0.236519 0.413032 0.879468
    outer loop
      vertex 27.7051 -15.4898 24.1189
      vertex 29.4042 -13.4756 23.6299
      vertex 25.3803 -14.4929 23.0255
    endloop
  endfacet
  facet normal -0.290753 0.37576 0.879925
    outer loop
      vertex 26.0979 -17.6022 24.5904
      vertex 25.3803 -14.4929 23.0255
      vertex 23.7633 -16.6679 23.42
    endloop
  endfacet
  facet normal -0.250468 0.388496 0.886756
    outer loop
      vertex 26.0979 -17.6022 24.5904
      vertex 27.7051 -15.4898 24.1189
      vertex 25.3803 -14.4929 23.0255
    endloop
  endfacet
  facet normal -0.345555 0.409074 0.844542
    outer loop
      vertex 27.1141 -12.4298 22.6346
      vertex 24.9377 -11.4314 21.2605
      vertex 23.1605 -13.5648 21.5667
    endloop
  endfacet
  facet normal -0.351057 0.450548 0.820832
    outer loop
      vertex 25.3803 -14.4929 23.0255
      vertex 27.1141 -12.4298 22.6346
      vertex 23.1605 -13.5648 21.5667
    endloop
  endfacet
  facet normal -0.403341 0.410173 0.81797
    outer loop
      vertex 23.7633 -16.6679 23.42
      vertex 23.1605 -13.5648 21.5667
      vertex 21.5257 -15.8145 21.8887
    endloop
  endfacet
  facet normal -0.367299 0.423287 0.828203
    outer loop
      vertex 23.7633 -16.6679 23.42
      vertex 25.3803 -14.4929 23.0255
      vertex 23.1605 -13.5648 21.5667
    endloop
  endfacet
  facet normal -0.45345 0.473413 0.755158
    outer loop
      vertex 24.9377 -11.4314 21.2605
      vertex 23.022 -10.4852 19.517
      vertex 21.1587 -12.6861 19.7779
    endloop
  endfacet
  facet normal -0.454254 0.485608 0.746886
    outer loop
      vertex 23.1605 -13.5648 21.5667
      vertex 24.9377 -11.4314 21.2605
      vertex 21.1587 -12.6861 19.7779
    endloop
  endfacet
  facet normal -0.489703 0.447456 0.748314
    outer loop
      vertex 21 -12.9036 19.8041
      vertex 21.5257 -15.8145 21.8887
      vertex 21.1587 -12.6861 19.7779
    endloop
  endfacet
  facet normal -0.489649 0.44748 0.748335
    outer loop
      vertex 21.5257 -15.8145 21.8887
      vertex 21 -12.9036 19.8041
      vertex 21 -15.6101 21.4225
    endloop
  endfacet
  facet normal -0.475081 0.453188 0.754267
    outer loop
      vertex 21.5257 -15.8145 21.8887
      vertex 23.1605 -13.5648 21.5667
      vertex 21.1587 -12.6861 19.7779
    endloop
  endfacet
  facet normal -0.53814 0.550244 0.638465
    outer loop
      vertex 21 -10.1467 17.521
      vertex 23.022 -10.4852 19.517
      vertex 21.4632 -9.62581 17.4625
    endloop
  endfacet
  facet normal -0.538187 0.550158 0.638499
    outer loop
      vertex 23.022 -10.4852 19.517
      vertex 21 -10.1467 17.521
      vertex 21 -11.2735 18.4919
    endloop
  endfacet
  facet normal -0.53861 0.533315 0.652284
    outer loop
      vertex 21 -11.2735 18.4919
      vertex 21.1587 -12.6861 19.7779
      vertex 23.022 -10.4852 19.517
    endloop
  endfacet
  facet normal -0.538641 0.533299 0.652271
    outer loop
      vertex 21.1587 -12.6861 19.7779
      vertex 21 -11.2735 18.4919
      vertex 21 -12.6096 19.5843
    endloop
  endfacet
  facet normal -0.567037 0.49321 0.659707
    outer loop
      vertex 21.1587 -12.6861 19.7779
      vertex 21 -12.6096 19.5843
      vertex 21 -12.9036 19.8041
    endloop
  endfacet
  facet normal -0.598662 0.622562 0.504004
    outer loop
      vertex 21.4632 -9.62581 17.4625
      vertex 21 -9.35193 16.574
      vertex 21 -9.84204 17.1794
    endloop
  endfacet
  facet normal -0.602649 0.595557 0.531155
    outer loop
      vertex 21.4632 -9.62581 17.4625
      vertex 21 -9.84204 17.1794
      vertex 21 -10.1467 17.521
    endloop
  endfacet
  facet normal 0.0344744 0.811074 0.583927
    outer loop
      vertex 37.0135 -1.7193 16.1375
      vertex 34.9288 -1.63933 16.1495
      vertex 34.6899 -3.18742 18.3139
    endloop
  endfacet
  facet normal 0.051634 0.801486 0.59578
    outer loop
      vertex 36.502 -3.46725 18.5333
      vertex 37.0135 -1.7193 16.1375
      vertex 34.6899 -3.18742 18.3139
    endloop
  endfacet
  facet normal -0.0196003 0.65547 0.754967
    outer loop
      vertex 35.0344 -5.38534 20.2311
      vertex 34.6899 -3.18742 18.3139
      vertex 33.2302 -4.76526 19.6459
    endloop
  endfacet
  facet normal 0.0105104 0.658241 0.752734
    outer loop
      vertex 35.0344 -5.38534 20.2311
      vertex 36.502 -3.46725 18.5333
      vertex 34.6899 -3.18742 18.3139
    endloop
  endfacet
  facet normal 0.103305 0.906383 0.409632
    outer loop
      vertex 39.1089 -2.08026 16.1129
      vertex 39.5756 -0.870048 13.3174
      vertex 37.2015 -0.617085 13.3564
    endloop
  endfacet
  facet normal 0.161761 0.913613 0.373021
    outer loop
      vertex 39.1089 -2.08026 16.1129
      vertex 37.2015 -0.617085 13.3564
      vertex 37.0135 -1.7193 16.1375
    endloop
  endfacet
  facet normal 0.00859018 0.936771 0.349838
    outer loop
      vertex 34.9288 -1.63933 16.1495
      vertex 37.2015 -0.617085 13.3564
      vertex 34.7934 -0.634962 13.4634
    endloop
  endfacet
  facet normal 0.0377348 0.928112 0.370383
    outer loop
      vertex 37.0135 -1.7193 16.1375
      vertex 37.2015 -0.617085 13.3564
      vertex 34.9288 -1.63933 16.1495
    endloop
  endfacet
  facet normal -0.0111657 0.983871 0.178528
    outer loop
      vertex 37.2015 -0.617085 13.3564
      vertex 37.5453 -0.058712 10.3007
      vertex 34.8835 -0.132179 10.5391
    endloop
  endfacet
  facet normal 0.000213027 0.985538 0.169453
    outer loop
      vertex 37.2015 -0.617085 13.3564
      vertex 34.8835 -0.132179 10.5391
      vertex 34.7934 -0.634962 13.4634
    endloop
  endfacet
  facet normal -0.139428 0.974024 0.178428
    outer loop
      vertex 32.3096 -1.07015 13.6481
      vertex 34.8835 -0.132179 10.5391
      vertex 32.135 -0.5844 10.86
    endloop
  endfacet
  facet normal -0.158546 0.973878 0.162557
    outer loop
      vertex 34.7934 -0.634962 13.4634
      vertex 34.8835 -0.132179 10.5391
      vertex 32.3096 -1.07015 13.6481
    endloop
  endfacet
  facet normal -0.125914 0.930635 0.343605
    outer loop
      vertex 32.7241 -1.93504 16.1425
      vertex 34.9288 -1.63933 16.1495
      vertex 32.3096 -1.07015 13.6481
    endloop
  endfacet
  facet normal -0.135944 0.925701 0.352984
    outer loop
      vertex 34.9288 -1.63933 16.1495
      vertex 34.7934 -0.634962 13.4634
      vertex 32.3096 -1.07015 13.6481
    endloop
  endfacet
  facet normal 0.276184 0.844577 0.458708
    outer loop
      vertex 42 -1.34721 13.3784
      vertex 41.2908 -2.6104 16.1312
      vertex 42 -2.85296 16.1508
    endloop
  endfacet
  facet normal 0.275194 0.844946 0.458622
    outer loop
      vertex 41.2908 -2.6104 16.1312
      vertex 42 -1.34721 13.3784
      vertex 41.9801 -1.3207 13.3415
    endloop
  endfacet
  facet normal 0.25684 0.845195 0.468699
    outer loop
      vertex 42 -1.34721 13.3784
      vertex 42 -1.32708 13.3421
      vertex 41.9801 -1.3207 13.3415
    endloop
  endfacet
  facet normal -0.298347 0.79666 0.525663
    outer loop
      vertex 32.9831 -2.85564 17.6847
      vertex 32.7241 -1.93504 16.1425
      vertex 31.566 -3.81378 18.3325
    endloop
  endfacet
  facet normal -0.234741 0.795647 0.558429
    outer loop
      vertex 31.566 -3.81378 18.3325
      vertex 32.7241 -1.93504 16.1425
      vertex 30.4703 -2.75797 16.3676
    endloop
  endfacet
  facet normal 0.283788 0.920376 0.269023
    outer loop
      vertex 42 -1.32137 13.3228
      vertex 42 -1.3005 13.2514
      vertex 41.9801 -1.3207 13.3415
    endloop
  endfacet
  facet normal 0.28636 0.918756 0.271818
    outer loop
      vertex 42 -1.32708 13.3421
      vertex 42 -1.32137 13.3228
      vertex 41.9801 -1.3207 13.3415
    endloop
  endfacet
  facet normal 0.147858 0.962993 0.22535
    outer loop
      vertex 40.1279 -0.220739 10.1803
      vertex 42 -0.669321 10.8689
      vertex 42 -0.509024 10.1839
    endloop
  endfacet
  facet normal 0.147859 0.962993 0.225349
    outer loop
      vertex 42 -0.669321 10.8689
      vertex 40.1279 -0.220739 10.1803
      vertex 39.5756 -0.870048 13.3174
    endloop
  endfacet
  facet normal 0.175817 0.951577 0.252171
    outer loop
      vertex 42 -1.3005 13.2514
      vertex 39.5756 -0.870048 13.3174
      vertex 41.9801 -1.3207 13.3415
    endloop
  endfacet
  facet normal 0.175819 0.951595 0.252099
    outer loop
      vertex 39.5756 -0.870048 13.3174
      vertex 42 -1.3005 13.2514
      vertex 42 -0.669321 10.8689
    endloop
  endfacet
  facet normal 0.211198 0.883649 0.417803
    outer loop
      vertex 41.2908 -2.6104 16.1312
      vertex 39.5756 -0.870048 13.3174
      vertex 39.1089 -2.08026 16.1129
    endloop
  endfacet
  facet normal 0.160496 0.880226 0.446592
    outer loop
      vertex 41.2908 -2.6104 16.1312
      vertex 41.9801 -1.3207 13.3415
      vertex 39.5756 -0.870048 13.3174
    endloop
  endfacet
  facet normal 0.151991 0.987508 0.0415428
    outer loop
      vertex 40.197 -0.209758 9.66667
      vertex 42 -0.509024 10.1839
      vertex 42 -0.487265 9.66667
    endloop
  endfacet
  facet normal 0.151987 0.987508 0.0415593
    outer loop
      vertex 42 -0.509024 10.1839
      vertex 40.197 -0.209758 9.66667
      vertex 40.1279 -0.220739 10.1803
    endloop
  endfacet
  facet normal 0.056404 0.998136 0.0233111
    outer loop
      vertex 38.0973 -0.0750976 9.66667
      vertex 37.6092 -0.0475154 9.66667
      vertex 37.5453 -0.058712 10.3007
    endloop
  endfacet
  facet normal 0.063973 0.997503 0.0299323
    outer loop
      vertex 38.0973 -0.0750976 9.66667
      vertex 40.1279 -0.220739 10.1803
      vertex 40.197 -0.209758 9.66667
    endloop
  endfacet
  facet normal 0.0639761 0.997503 0.0299199
    outer loop
      vertex 40.1279 -0.220739 10.1803
      vertex 38.0973 -0.0750976 9.66667
      vertex 37.5453 -0.058712 10.3007
    endloop
  endfacet
  facet normal -0.0265799 0.999583 0.011267
    outer loop
      vertex 36.9691 -0.0668871 9.66667
      vertex 34.8835 -0.132179 10.5391
      vertex 37.5453 -0.058712 10.3007
    endloop
  endfacet
  facet normal -0.02658 0.999583 0.0112668
    outer loop
      vertex 34.8835 -0.132179 10.5391
      vertex 36.9691 -0.0668871 9.66667
      vertex 34.935 -0.120976 9.66667
    endloop
  endfacet
  facet normal -0.0302465 0.999436 0.0146011
    outer loop
      vertex 37.5453 -0.058712 10.3007
      vertex 37.6092 -0.0475154 9.66667
      vertex 36.9691 -0.0668871 9.66667
    endloop
  endfacet
  facet normal 0.222544 0.203277 0.953495
    outer loop
      vertex 42 -21.6054 25.55
      vertex 42 -20.9853 25.4178
      vertex 41.7449 -21.3416 25.5533
    endloop
  endfacet
  facet normal 0.204586 0.268517 0.941299
    outer loop
      vertex 42 -17.4857 24.5163
      vertex 42 -16.8852 24.345
      vertex 41.4871 -17.5594 24.6488
    endloop
  endfacet
  facet normal 0.203464 0.27395 0.939975
    outer loop
      vertex 42 -18.0292 24.6747
      vertex 42 -17.4857 24.5163
      vertex 41.4871 -17.5594 24.6488
    endloop
  endfacet
  facet normal 0.170306 0.240155 0.955678
    outer loop
      vertex 41.7449 -21.3416 25.5533
      vertex 41.4871 -17.5594 24.6488
      vertex 39.9359 -19.7209 25.4684
    endloop
  endfacet
  facet normal 0.171743 0.240171 0.955417
    outer loop
      vertex 41.4871 -17.5594 24.6488
      vertex 42 -20.9853 25.4178
      vertex 42 -18.0292 24.6747
    endloop
  endfacet
  facet normal 0.171975 0.240195 0.955369
    outer loop
      vertex 42 -20.9853 25.4178
      vertex 41.4871 -17.5594 24.6488
      vertex 41.7449 -21.3416 25.5533
    endloop
  endfacet
  facet normal 0.16268 0.285326 0.944523
    outer loop
      vertex 41.2862 -13.9511 23.5555
      vertex 42 -15.6256 23.9384
      vertex 42 -14.5034 23.5994
    endloop
  endfacet
  facet normal 0.162678 0.285326 0.944524
    outer loop
      vertex 42 -15.6256 23.9384
      vertex 41.2862 -13.9511 23.5555
      vertex 39.6044 -16.1291 24.5031
    endloop
  endfacet
  facet normal 0.157761 0.303346 0.93973
    outer loop
      vertex 39.6044 -16.1291 24.5031
      vertex 42 -16.8852 24.345
      vertex 42 -15.6256 23.9384
    endloop
  endfacet
  facet normal 0.157779 0.303409 0.939707
    outer loop
      vertex 42 -16.8852 24.345
      vertex 39.6044 -16.1291 24.5031
      vertex 41.4871 -17.5594 24.6488
    endloop
  endfacet
  facet normal 0.119849 0.267972 0.955943
    outer loop
      vertex 39.9359 -19.7209 25.4684
      vertex 39.6044 -16.1291 24.5031
      vertex 38.0337 -18.2712 25.3005
    endloop
  endfacet
  facet normal 0.130132 0.268518 0.954444
    outer loop
      vertex 39.9359 -19.7209 25.4684
      vertex 41.4871 -17.5594 24.6488
      vertex 39.6044 -16.1291 24.5031
    endloop
  endfacet
  facet normal 0.120043 0.298838 0.946724
    outer loop
      vertex 41.2862 -13.9511 23.5555
      vertex 39.3471 -12.7147 23.4111
      vertex 37.6305 -14.8602 24.306
    endloop
  endfacet
  facet normal 0.112974 0.321762 0.940056
    outer loop
      vertex 39.6044 -16.1291 24.5031
      vertex 41.2862 -13.9511 23.5555
      vertex 37.6305 -14.8602 24.306
    endloop
  endfacet
  facet normal 0.0741137 0.287197 0.955
    outer loop
      vertex 38.0337 -18.2712 25.3005
      vertex 37.6305 -14.8602 24.306
      vertex 36.0243 -16.9546 25.0605
    endloop
  endfacet
  facet normal 0.0903355 0.288585 0.953183
    outer loop
      vertex 38.0337 -18.2712 25.3005
      vertex 39.6044 -16.1291 24.5031
      vertex 37.6305 -14.8602 24.306
    endloop
  endfacet
  facet normal 0.0821403 0.305934 0.948503
    outer loop
      vertex 39.3471 -12.7147 23.4111
      vertex 37.3267 -11.621 23.2333
      vertex 35.5678 -13.6929 24.0539
    endloop
  endfacet
  facet normal 0.0736484 0.333151 0.939993
    outer loop
      vertex 37.6305 -14.8602 24.306
      vertex 39.3471 -12.7147 23.4111
      vertex 35.5678 -13.6929 24.0539
    endloop
  endfacet
  facet normal 0.030799 0.298682 0.953856
    outer loop
      vertex 36.0243 -16.9546 25.0605
      vertex 35.5678 -13.6929 24.0539
      vertex 33.9075 -15.7278 24.7447
    endloop
  endfacet
  facet normal 0.0542024 0.301374 0.951964
    outer loop
      vertex 36.0243 -16.9546 25.0605
      vertex 37.6305 -14.8602 24.306
      vertex 35.5678 -13.6929 24.0539
    endloop
  endfacet
  facet normal 0.0314336 0.318044 0.947555
    outer loop
      vertex 37.3267 -11.621 23.2333
      vertex 35.2285 -10.625 22.9686
      vertex 33.4156 -12.596 23.6903
    endloop
  endfacet
  facet normal 0.0214959 0.35232 0.935633
    outer loop
      vertex 35.5678 -13.6929 24.0539
      vertex 37.3267 -11.621 23.2333
      vertex 33.4156 -12.596 23.6903
    endloop
  endfacet
  facet normal -0.0265039 0.315223 0.948647
    outer loop
      vertex 33.9075 -15.7278 24.7447
      vertex 33.4156 -12.596 23.6903
      vertex 31.6929 -14.5748 24.2997
    endloop
  endfacet
  facet normal 0.00272768 0.319461 0.947596
    outer loop
      vertex 33.9075 -15.7278 24.7447
      vertex 35.5678 -13.6929 24.0539
      vertex 33.4156 -12.596 23.6903
    endloop
  endfacet
  facet normal -0.0425686 0.3433 0.938261
    outer loop
      vertex 35.2285 -10.625 22.9686
      vertex 33.0833 -9.66331 22.5194
      vertex 31.1936 -11.532 23.1174
    endloop
  endfacet
  facet normal -0.0527517 0.385783 0.92108
    outer loop
      vertex 33.4156 -12.596 23.6903
      vertex 35.2285 -10.625 22.9686
      vertex 31.1936 -11.532 23.1174
    endloop
  endfacet
  facet normal -0.107349 0.344731 0.932543
    outer loop
      vertex 31.6929 -14.5748 24.2997
      vertex 31.1936 -11.532 23.1174
      vertex 29.4042 -13.4756 23.6299
    endloop
  endfacet
  facet normal -0.0727206 0.350828 0.933612
    outer loop
      vertex 31.6929 -14.5748 24.2997
      vertex 33.4156 -12.596 23.6903
      vertex 31.1936 -11.532 23.1174
    endloop
  endfacet
  facet normal -0.137793 0.38057 0.914429
    outer loop
      vertex 33.0833 -9.66331 22.5194
      vertex 30.9347 -8.67184 21.783
      vertex 28.9614 -10.4767 22.2368
    endloop
  endfacet
  facet normal -0.146375 0.432695 0.889578
    outer loop
      vertex 31.1936 -11.532 23.1174
      vertex 33.0833 -9.66331 22.5194
      vertex 28.9614 -10.4767 22.2368
    endloop
  endfacet
  facet normal -0.214127 0.385345 0.897585
    outer loop
      vertex 29.4042 -13.4756 23.6299
      vertex 28.9614 -10.4767 22.2368
      vertex 27.1141 -12.4298 22.6346
    endloop
  endfacet
  facet normal -0.169788 0.394451 0.903095
    outer loop
      vertex 29.4042 -13.4756 23.6299
      vertex 31.1936 -11.532 23.1174
      vertex 28.9614 -10.4767 22.2368
    endloop
  endfacet
  facet normal -0.255182 0.447927 0.85688
    outer loop
      vertex 30.9347 -8.67184 21.783
      vertex 28.8947 -7.62413 20.6278
      vertex 26.8447 -9.42712 20.9598
    endloop
  endfacet
  facet normal -0.25816 0.491394 0.831797
    outer loop
      vertex 28.9614 -10.4767 22.2368
      vertex 30.9347 -8.67184 21.783
      vertex 26.8447 -9.42712 20.9598
    endloop
  endfacet
  facet normal -0.327883 0.437583 0.837266
    outer loop
      vertex 27.1141 -12.4298 22.6346
      vertex 26.8447 -9.42712 20.9598
      vertex 24.9377 -11.4314 21.2605
    endloop
  endfacet
  facet normal -0.289533 0.446311 0.846745
    outer loop
      vertex 27.1141 -12.4298 22.6346
      vertex 28.9614 -10.4767 22.2368
      vertex 26.8447 -9.42712 20.9598
    endloop
  endfacet
  facet normal -0.375416 0.537309 0.755223
    outer loop
      vertex 28.8947 -7.62413 20.6278
      vertex 27.1438 -6.5602 19.0005
      vertex 25.0201 -8.41987 19.2679
    endloop
  endfacet
  facet normal -0.374328 0.561499 0.737968
    outer loop
      vertex 26.8447 -9.42712 20.9598
      vertex 28.8947 -7.62413 20.6278
      vertex 25.0201 -8.41987 19.2679
    endloop
  endfacet
  facet normal -0.430157 0.5063 0.747412
    outer loop
      vertex 24.9377 -11.4314 21.2605
      vertex 25.0201 -8.41987 19.2679
      vertex 23.022 -10.4852 19.517
    endloop
  endfacet
  facet normal -0.416785 0.509497 0.752797
    outer loop
      vertex 26.8447 -9.42712 20.9598
      vertex 25.0201 -8.41987 19.2679
      vertex 24.9377 -11.4314 21.2605
    endloop
  endfacet
  facet normal -0.476415 0.638268 0.604684
    outer loop
      vertex 27.1438 -6.5602 19.0005
      vertex 25.7987 -5.61677 16.9449
      vertex 23.5791 -7.52647 17.2119
    endloop
  endfacet
  facet normal -0.477405 0.632838 0.609591
    outer loop
      vertex 25.0201 -8.41987 19.2679
      vertex 27.1438 -6.5602 19.0005
      vertex 23.5791 -7.52647 17.2119
    endloop
  endfacet
  facet normal -0.507659 0.58695 0.630692
    outer loop
      vertex 23.022 -10.4852 19.517
      vertex 23.5791 -7.52647 17.2119
      vertex 21.4632 -9.62581 17.4625
    endloop
  endfacet
  facet normal -0.524675 0.582475 0.620837
    outer loop
      vertex 25.0201 -8.41987 19.2679
      vertex 23.5791 -7.52647 17.2119
      vertex 23.022 -10.4852 19.517
    endloop
  endfacet
  facet normal -0.536785 0.721532 0.437326
    outer loop
      vertex 25.7987 -5.61677 16.9449
      vertex 24.8304 -4.91018 14.5906
      vertex 22.5017 -6.82524 14.8919
    endloop
  endfacet
  facet normal -0.544957 0.698283 0.464136
    outer loop
      vertex 23.5791 -7.52647 17.2119
      vertex 25.7987 -5.61677 16.9449
      vertex 22.5017 -6.82524 14.8919
    endloop
  endfacet
  facet normal -0.560003 0.663305 0.496409
    outer loop
      vertex 22.5017 -6.82524 14.8919
      vertex 21 -9.35193 16.574
      vertex 21.4632 -9.62581 17.4625
    endloop
  endfacet
  facet normal -0.559992 0.663306 0.496421
    outer loop
      vertex 21 -9.35193 16.574
      vertex 22.5017 -6.82524 14.8919
      vertex 21 -8.23142 15.0768
    endloop
  endfacet
  facet normal -0.591996 0.653045 0.472306
    outer loop
      vertex 23.5791 -7.52647 17.2119
      vertex 22.5017 -6.82524 14.8919
      vertex 21.4632 -9.62581 17.4625
    endloop
  endfacet
  facet normal -0.571108 0.776366 0.26663
    outer loop
      vertex 24.8304 -4.91018 14.5906
      vertex 24.1744 -4.52252 12.0567
      vertex 21.756 -6.41339 12.3824
    endloop
  endfacet
  facet normal -0.583197 0.755948 0.297361
    outer loop
      vertex 22.5017 -6.82524 14.8919
      vertex 24.8304 -4.91018 14.5906
      vertex 21.756 -6.41339 12.3824
    endloop
  endfacet
  facet normal -0.600221 0.727195 0.333049
    outer loop
      vertex 21.756 -6.41339 12.3824
      vertex 21 -7.0803 12.4761
      vertex 21 -7.68471 13.7958
    endloop
  endfacet
  facet normal -0.630782 0.713681 0.304587
    outer loop
      vertex 22.5017 -6.82524 14.8919
      vertex 21 -7.68471 13.7958
      vertex 21 -8.23142 15.0768
    endloop
  endfacet
  facet normal -0.630775 0.713697 0.304565
    outer loop
      vertex 21 -7.68471 13.7958
      vertex 22.5017 -6.82524 14.8919
      vertex 21.756 -6.41339 12.3824
    endloop
  endfacet
  facet normal -0.587649 0.802705 0.10165
    outer loop
      vertex 22.138 -5.71068 9.66667
      vertex 24.1744 -4.52252 12.0567
      vertex 23.7898 -4.50142 9.66667
    endloop
  endfacet
  facet normal -0.587664 0.802692 0.101669
    outer loop
      vertex 24.1744 -4.52252 12.0567
      vertex 22.138 -5.71068 9.66667
      vertex 21.286 -6.34813 9.77473
    endloop
  endfacet
  facet normal -0.600136 0.789602 0.127928
    outer loop
      vertex 21.756 -6.41339 12.3824
      vertex 24.1744 -4.52252 12.0567
      vertex 21.286 -6.34813 9.77473
    endloop
  endfacet
  facet normal -0.625666 0.763994 0.157653
    outer loop
      vertex 21.286 -6.34813 9.77473
      vertex 21 -6.58906 9.80726
      vertex 21 -6.67421 10.2199
    endloop
  endfacet
  facet normal -0.645985 0.751278 0.135221
    outer loop
      vertex 21.756 -6.41339 12.3824
      vertex 21 -6.67421 10.2199
      vertex 21 -7.0803 12.4761
    endloop
  endfacet
  facet normal -0.646021 0.751244 0.135238
    outer loop
      vertex 21 -6.67421 10.2199
      vertex 21.756 -6.41339 12.3824
      vertex 21.286 -6.34813 9.77473
    endloop
  endfacet
  facet normal -0.601536 0.798084 -0.0348857
    outer loop
      vertex 21.286 -6.34813 9.77473
      vertex 22.138 -5.71068 9.66667
      vertex 21.2762 -6.36024 9.66667
    endloop
  endfacet
  facet normal -0.645857 0.762984 -0.0269326
    outer loop
      vertex 21 -6.59404 9.66667
      vertex 21.286 -6.34813 9.77473
      vertex 21.2762 -6.36024 9.66667
    endloop
  endfacet
  facet normal -0.645834 0.762999 -0.0270271
    outer loop
      vertex 21.286 -6.34813 9.77473
      vertex 21 -6.59404 9.66667
      vertex 21 -6.58906 9.80726
    endloop
  endfacet
  facet normal 0.0307586 0.214603 0.976217
    outer loop
      vertex 34.6011 -22.2 26.493
      vertex 32.9455 -21.0793 26.2988
      vertex 32.1541 -22.2 26.5701
    endloop
  endfacet
  facet normal -0.0192973 0.243388 0.969737
    outer loop
      vertex 32.9455 -21.0793 26.2988
      vertex 30.757 -19.8077 25.9361
      vertex 29.2492 -21.9485 26.4434
    endloop
  endfacet
  facet normal -0.0206971 0.249017 0.968278
    outer loop
      vertex 32.9455 -21.0793 26.2988
      vertex 29.6933 -22.2 26.5175
      vertex 32.1541 -22.2 26.5701
    endloop
  endfacet
  facet normal -0.0206384 0.248855 0.968321
    outer loop
      vertex 29.6933 -22.2 26.5175
      vertex 32.9455 -21.0793 26.2988
      vertex 29.2492 -21.9485 26.4434
    endloop
  endfacet
  facet normal -0.0453642 0.220095 0.974423
    outer loop
      vertex 29.3049 -22.2 26.5028
      vertex 29.2492 -21.9485 26.4434
      vertex 29.0901 -22.2 26.4928
    endloop
  endfacet
  facet normal -0.0368771 0.22196 0.974358
    outer loop
      vertex 29.3049 -22.2 26.5028
      vertex 29.6933 -22.2 26.5175
      vertex 29.2492 -21.9485 26.4434
    endloop
  endfacet
  facet normal -0.085811 0.270418 0.958911
    outer loop
      vertex 30.757 -19.8077 25.9361
      vertex 28.4559 -18.6468 25.4028
      vertex 26.9453 -20.8318 25.8838
    endloop
  endfacet
  facet normal -0.0909397 0.289821 0.952751
    outer loop
      vertex 29.2492 -21.9485 26.4434
      vertex 30.757 -19.8077 25.9361
      vertex 26.9453 -20.8318 25.8838
    endloop
  endfacet
  facet normal -0.129574 0.251699 0.959092
    outer loop
      vertex 27.2942 -22.2 26.29
      vertex 26.9453 -20.8318 25.8838
      vertex 26.1099 -22.2 26.13
    endloop
  endfacet
  facet normal -0.108435 0.257211 0.960252
    outer loop
      vertex 29.2492 -21.9485 26.4434
      vertex 27.2942 -22.2 26.29
      vertex 29.0901 -22.2 26.4928
    endloop
  endfacet
  facet normal -0.108457 0.257412 0.960196
    outer loop
      vertex 27.2942 -22.2 26.29
      vertex 29.2492 -21.9485 26.4434
      vertex 26.9453 -20.8318 25.8838
    endloop
  endfacet
  facet normal -0.186013 0.306196 0.933618
    outer loop
      vertex 28.4559 -18.6468 25.4028
      vertex 26.0979 -17.6022 24.5904
      vertex 24.5917 -19.846 25.0262
    endloop
  endfacet
  facet normal -0.194415 0.337187 0.921145
    outer loop
      vertex 26.9453 -20.8318 25.8838
      vertex 28.4559 -18.6468 25.4028
      vertex 24.5917 -19.846 25.0262
    endloop
  endfacet
  facet normal -0.243573 0.288295 0.926044
    outer loop
      vertex 25.2466 -22.2 25.9313
      vertex 24.5917 -19.846 25.0262
      vertex 23.2255 -22.2 25.3997
    endloop
  endfacet
  facet normal -0.2141 0.298112 0.93021
    outer loop
      vertex 26.9453 -20.8318 25.8838
      vertex 25.2466 -22.2 25.9313
      vertex 26.1099 -22.2 26.13
    endloop
  endfacet
  facet normal -0.214091 0.298101 0.930215
    outer loop
      vertex 25.2466 -22.2 25.9313
      vertex 26.9453 -20.8318 25.8838
      vertex 24.5917 -19.846 25.0262
    endloop
  endfacet
  facet normal -0.30758 0.343179 0.887481
    outer loop
      vertex 26.0979 -17.6022 24.5904
      vertex 23.7633 -16.6679 23.42
      vertex 22.2734 -18.98 23.7977
    endloop
  endfacet
  facet normal -0.317429 0.381683 0.868077
    outer loop
      vertex 24.5917 -19.846 25.0262
      vertex 26.0979 -17.6022 24.5904
      vertex 22.2734 -18.98 23.7977
    endloop
  endfacet
  facet normal -0.366693 0.325595 0.871507
    outer loop
      vertex 22.2734 -18.98 23.7977
      vertex 23.0349 -22.2 25.3211
      vertex 23.1775 -22.2 25.3811
    endloop
  endfacet
  facet normal -0.366609 0.325626 0.87153
    outer loop
      vertex 21 -21.2953 24.1271
      vertex 23.0349 -22.2 25.3211
      vertex 22.2734 -18.98 23.7977
    endloop
  endfacet
  facet normal -0.366619 0.325607 0.871533
    outer loop
      vertex 23.0349 -22.2 25.3211
      vertex 21 -21.2953 24.1271
      vertex 21 -21.4832 24.1973
    endloop
  endfacet
  facet normal -0.340217 0.336758 0.877979
    outer loop
      vertex 24.5917 -19.846 25.0262
      vertex 23.1775 -22.2 25.3811
      vertex 23.2255 -22.2 25.3997
    endloop
  endfacet
  facet normal -0.339711 0.336499 0.878274
    outer loop
      vertex 23.1775 -22.2 25.3811
      vertex 24.5917 -19.846 25.0262
      vertex 22.2734 -18.98 23.7977
    endloop
  endfacet
  facet normal -0.421321 0.376095 0.825252
    outer loop
      vertex 21 -16.6619 22.0065
      vertex 23.7633 -16.6679 23.42
      vertex 21.5257 -15.8145 21.8887
    endloop
  endfacet
  facet normal -0.421327 0.376064 0.825263
    outer loop
      vertex 23.7633 -16.6679 23.42
      vertex 21 -16.6619 22.0065
      vertex 21 -17.8061 22.5279
    endloop
  endfacet
  facet normal -0.428288 0.407722 0.806432
    outer loop
      vertex 21 -17.8061 22.5279
      vertex 22.2734 -18.98 23.7977
      vertex 23.7633 -16.6679 23.42
    endloop
  endfacet
  facet normal -0.428251 0.407762 0.806431
    outer loop
      vertex 22.2734 -18.98 23.7977
      vertex 21 -17.8061 22.5279
      vertex 21 -18.5333 22.8956
    endloop
  endfacet
  facet normal -0.450186 0.363627 0.815541
    outer loop
      vertex 22.2734 -18.98 23.7977
      vertex 21 -18.5333 22.8956
      vertex 21 -21.2953 24.1271
    endloop
  endfacet
  facet normal -0.512618 0.406527 0.756279
    outer loop
      vertex 21.5257 -15.8145 21.8887
      vertex 21 -15.6101 21.4225
      vertex 21 -16.059 21.6638
    endloop
  endfacet
  facet normal -0.515603 0.423415 0.744898
    outer loop
      vertex 21.5257 -15.8145 21.8887
      vertex 21 -16.059 21.6638
      vertex 21 -16.6619 22.0065
    endloop
  endfacet
  facet normal 0.198966 0.330481 0.922602
    outer loop
      vertex 42 -14.5034 23.5994
      vertex 42 -13.0774 23.0886
      vertex 41.2862 -13.9511 23.5555
    endloop
  endfacet
  facet normal 0.22879 0.419909 0.878255
    outer loop
      vertex 42 -10.2972 21.9498
      vertex 42 -9.46414 21.5515
      vertex 41.1666 -10.5122 22.2697
    endloop
  endfacet
  facet normal 0.225365 0.428395 0.875036
    outer loop
      vertex 42 -11.0405 22.3137
      vertex 42 -10.2972 21.9498
      vertex 41.1666 -10.5122 22.2697
    endloop
  endfacet
  facet normal 0.154844 0.350715 0.923592
    outer loop
      vertex 41.2862 -13.9511 23.5555
      vertex 41.1666 -10.5122 22.2697
      vertex 39.3471 -12.7147 23.4111
    endloop
  endfacet
  facet normal 0.173387 0.350184 0.920493
    outer loop
      vertex 41.1666 -10.5122 22.2697
      vertex 42 -13.0774 23.0886
      vertex 42 -11.0405 22.3137
    endloop
  endfacet
  facet normal 0.173443 0.350197 0.920478
    outer loop
      vertex 42 -13.0774 23.0886
      vertex 41.1666 -10.5122 22.2697
      vertex 41.2862 -13.9511 23.5555
    endloop
  endfacet
  facet normal 0.184551 0.449079 0.874225
    outer loop
      vertex 40.9179 -7.30241 20.6649
      vertex 42 -8.58302 21.0943
      vertex 42 -7.82614 20.7055
    endloop
  endfacet
  facet normal 0.184506 0.449049 0.87425
    outer loop
      vertex 42 -8.58302 21.0943
      vertex 40.9179 -7.30241 20.6649
      vertex 39.1623 -9.49323 22.1607
    endloop
  endfacet
  facet normal 0.182706 0.452821 0.872681
    outer loop
      vertex 39.1623 -9.49323 22.1607
      vertex 42 -9.46414 21.5515
      vertex 42 -8.58302 21.0943
    endloop
  endfacet
  facet normal 0.182714 0.452751 0.872715
    outer loop
      vertex 42 -9.46414 21.5515
      vertex 39.1623 -9.49323 22.1607
      vertex 41.1666 -10.5122 22.2697
    endloop
  endfacet
  facet normal 0.116401 0.365181 0.923631
    outer loop
      vertex 39.3471 -12.7147 23.4111
      vertex 39.1623 -9.49323 22.1607
      vertex 37.3267 -11.621 23.2333
    endloop
  endfacet
  facet normal 0.135606 0.365253 0.920978
    outer loop
      vertex 39.3471 -12.7147 23.4111
      vertex 41.1666 -10.5122 22.2697
      vertex 39.1623 -9.49323 22.1607
    endloop
  endfacet
  facet normal 0.143599 0.467286 0.872366
    outer loop
      vertex 40.9179 -7.30241 20.6649
      vertex 38.896 -6.53471 20.5865
      vertex 37.1105 -8.62653 22.0009
    endloop
  endfacet
  facet normal 0.136141 0.481892 0.86559
    outer loop
      vertex 39.1623 -9.49323 22.1607
      vertex 40.9179 -7.30241 20.6649
      vertex 37.1105 -8.62653 22.0009
    endloop
  endfacet
  facet normal 0.0660058 0.383829 0.921042
    outer loop
      vertex 37.3267 -11.621 23.2333
      vertex 37.1105 -8.62653 22.0009
      vertex 35.2285 -10.625 22.9686
    endloop
  endfacet
  facet normal 0.0909238 0.384617 0.918587
    outer loop
      vertex 37.3267 -11.621 23.2333
      vertex 39.1623 -9.49323 22.1607
      vertex 37.1105 -8.62653 22.0009
    endloop
  endfacet
  facet normal 0.0959082 0.470705 0.877062
    outer loop
      vertex 38.896 -6.53471 20.5865
      vertex 36.922 -5.91822 20.4715
      vertex 35.0506 -7.84125 21.7082
    endloop
  endfacet
  facet normal 0.0745733 0.514108 0.854477
    outer loop
      vertex 37.1105 -8.62653 22.0009
      vertex 38.896 -6.53471 20.5865
      vertex 35.0506 -7.84125 21.7082
    endloop
  endfacet
  facet normal -0.00602307 0.412136 0.911103
    outer loop
      vertex 35.2285 -10.625 22.9686
      vertex 35.0506 -7.84125 21.7082
      vertex 33.0833 -9.66331 22.5194
    endloop
  endfacet
  facet normal 0.0284568 0.413804 0.909921
    outer loop
      vertex 35.2285 -10.625 22.9686
      vertex 37.1105 -8.62653 22.0009
      vertex 35.0506 -7.84125 21.7082
    endloop
  endfacet
  facet normal 0.0233581 0.478689 0.877674
    outer loop
      vertex 36.922 -5.91822 20.4715
      vertex 35.0344 -5.38534 20.2311
      vertex 33.0154 -7.02956 21.1816
    endloop
  endfacet
  facet normal -0.00136924 0.541844 0.840478
    outer loop
      vertex 35.0506 -7.84125 21.7082
      vertex 36.922 -5.91822 20.4715
      vertex 33.0154 -7.02956 21.1816
    endloop
  endfacet
  facet normal -0.0974059 0.448721 0.888348
    outer loop
      vertex 33.0833 -9.66331 22.5194
      vertex 33.0154 -7.02956 21.1816
      vertex 30.9347 -8.67184 21.783
    endloop
  endfacet
  facet normal -0.0505603 0.451256 0.890961
    outer loop
      vertex 33.0833 -9.66331 22.5194
      vertex 35.0506 -7.84125 21.7082
      vertex 33.0154 -7.02956 21.1816
    endloop
  endfacet
  facet normal -0.094545 0.523842 0.846552
    outer loop
      vertex 35.0344 -5.38534 20.2311
      vertex 33.2302 -4.76526 19.6459
      vertex 31.0756 -6.10501 20.2343
    endloop
  endfacet
  facet normal -0.107144 0.592932 0.798093
    outer loop
      vertex 33.0154 -7.02956 21.1816
      vertex 35.0344 -5.38534 20.2311
      vertex 31.0756 -6.10501 20.2343
    endloop
  endfacet
  facet normal -0.2076 0.513678 0.832488
    outer loop
      vertex 30.9347 -8.67184 21.783
      vertex 31.0756 -6.10501 20.2343
      vertex 28.8947 -7.62413 20.6278
    endloop
  endfacet
  facet normal -0.164462 0.516172 0.840546
    outer loop
      vertex 33.0154 -7.02956 21.1816
      vertex 31.0756 -6.10501 20.2343
      vertex 30.9347 -8.67184 21.783
    endloop
  endfacet
  facet normal -0.22461 0.631529 0.742106
    outer loop
      vertex 33.2302 -4.76526 19.6459
      vertex 31.566 -3.81378 18.3325
      vertex 29.3853 -5.02815 18.7059
    endloop
  endfacet
  facet normal -0.219758 0.666347 0.712522
    outer loop
      vertex 31.0756 -6.10501 20.2343
      vertex 33.2302 -4.76526 19.6459
      vertex 29.3853 -5.02815 18.7059
    endloop
  endfacet
  facet normal -0.315391 0.602431 0.733216
    outer loop
      vertex 28.8947 -7.62413 20.6278
      vertex 29.3853 -5.02815 18.7059
      vertex 27.1438 -6.5602 19.0005
    endloop
  endfacet
  facet normal -0.28693 0.604435 0.743189
    outer loop
      vertex 31.0756 -6.10501 20.2343
      vertex 29.3853 -5.02815 18.7059
      vertex 28.8947 -7.62413 20.6278
    endloop
  endfacet
  facet normal -0.32198 0.747393 0.581148
    outer loop
      vertex 31.566 -3.81378 18.3325
      vertex 30.4703 -2.75797 16.3676
      vertex 28.1139 -3.9962 16.6545
    endloop
  endfacet
  facet normal -0.319961 0.751837 0.576512
    outer loop
      vertex 29.3853 -5.02815 18.7059
      vertex 31.566 -3.81378 18.3325
      vertex 28.1139 -3.9962 16.6545
    endloop
  endfacet
  facet normal -0.412574 0.694949 0.588922
    outer loop
      vertex 27.1438 -6.5602 19.0005
      vertex 28.1139 -3.9962 16.6545
      vertex 25.7987 -5.61677 16.9449
    endloop
  endfacet
  facet normal -0.397738 0.696715 0.596987
    outer loop
      vertex 29.3853 -5.02815 18.7059
      vertex 28.1139 -3.9962 16.6545
      vertex 27.1438 -6.5602 19.0005
    endloop
  endfacet
  facet normal -0.383272 0.835889 0.392927
    outer loop
      vertex 30.4703 -2.75797 16.3676
      vertex 29.7649 -1.92734 13.9125
      vertex 27.255 -3.23777 14.252
    endloop
  endfacet
  facet normal -0.387503 0.830261 0.400633
    outer loop
      vertex 28.1139 -3.9962 16.6545
      vertex 30.4703 -2.75797 16.3676
      vertex 27.255 -3.23777 14.252
    endloop
  endfacet
  facet normal -0.472655 0.771475 0.425939
    outer loop
      vertex 25.7987 -5.61677 16.9449
      vertex 27.255 -3.23777 14.252
      vertex 24.8304 -4.91018 14.5906
    endloop
  endfacet
  facet normal -0.485771 0.768587 0.416295
    outer loop
      vertex 28.1139 -3.9962 16.6545
      vertex 27.255 -3.23777 14.252
      vertex 25.7987 -5.61677 16.9449
    endloop
  endfacet
  facet normal -0.416286 0.88432 0.211388
    outer loop
      vertex 29.7649 -1.92734 13.9125
      vertex 29.3706 -1.47706 11.2523
      vertex 26.7019 -2.83406 11.6737
    endloop
  endfacet
  facet normal -0.426116 0.875343 0.228472
    outer loop
      vertex 27.255 -3.23777 14.252
      vertex 29.7649 -1.92734 13.9125
      vertex 26.7019 -2.83406 11.6737
    endloop
  endfacet
  facet normal -0.509471 0.821053 0.257509
    outer loop
      vertex 24.8304 -4.91018 14.5906
      vertex 26.7019 -2.83406 11.6737
      vertex 24.1744 -4.52252 12.0567
    endloop
  endfacet
  facet normal -0.528079 0.814341 0.240794
    outer loop
      vertex 27.255 -3.23777 14.252
      vertex 26.7019 -2.83406 11.6737
      vertex 24.8304 -4.91018 14.5906
    endloop
  endfacet
  facet normal -0.435349 0.899132 0.0450761
    outer loop
      vertex 29.3706 -1.47706 11.2523
      vertex 29.2531 -1.45446 9.66667
      vertex 27.1888 -2.45397 9.66667
    endloop
  endfacet
  facet normal -0.444688 0.893582 0.0613458
    outer loop
      vertex 27.1888 -2.45397 9.66667
      vertex 26.7019 -2.83406 11.6737
      vertex 29.3706 -1.47706 11.2523
    endloop
  endfacet
  facet normal -0.444703 0.893575 0.0613411
    outer loop
      vertex 26.7019 -2.83406 11.6737
      vertex 27.1888 -2.45397 9.66667
      vertex 26.4431 -2.82508 9.66667
    endloop
  endfacet
  facet normal -0.528528 0.843861 0.0924998
    outer loop
      vertex 24.1744 -4.52252 12.0567
      vertex 25.9273 -3.16266 9.66667
      vertex 23.7898 -4.50142 9.66667
    endloop
  endfacet
  facet normal -0.546112 0.834424 0.0741528
    outer loop
      vertex 25.9273 -3.16266 9.66667
      vertex 26.7019 -2.83406 11.6737
      vertex 26.4431 -2.82508 9.66667
    endloop
  endfacet
  facet normal -0.546161 0.834389 0.0741774
    outer loop
      vertex 26.7019 -2.83406 11.6737
      vertex 25.9273 -3.16266 9.66667
      vertex 24.1744 -4.52252 12.0567
    endloop
  endfacet
  facet normal -0.27527 0.94034 0.199968
    outer loop
      vertex 29.7649 -1.92734 13.9125
      vertex 32.135 -0.5844 10.86
      vertex 29.3706 -1.47706 11.2523
    endloop
  endfacet
  facet normal -0.296875 0.937429 0.181913
    outer loop
      vertex 32.3096 -1.07015 13.6481
      vertex 32.135 -0.5844 10.86
      vertex 29.7649 -1.92734 13.9125
    endloop
  endfacet
  facet normal -0.283656 0.880657 0.379451
    outer loop
      vertex 30.4703 -2.75797 16.3676
      vertex 32.7241 -1.93504 16.1425
      vertex 29.7649 -1.92734 13.9125
    endloop
  endfacet
  facet normal -0.26512 0.896522 0.354909
    outer loop
      vertex 32.7241 -1.93504 16.1425
      vertex 32.3096 -1.07015 13.6481
      vertex 29.7649 -1.92734 13.9125
    endloop
  endfacet
  facet normal -0.148811 0.988858 0.00391365
    outer loop
      vertex 34.8835 -0.132179 10.5391
      vertex 34.935 -0.120976 9.66667
      vertex 33.9128 -0.274805 9.66667
    endloop
  endfacet
  facet normal -0.160382 0.986907 0.0171067
    outer loop
      vertex 33.9128 -0.274805 9.66667
      vertex 32.135 -0.5844 10.86
      vertex 34.8835 -0.132179 10.5391
    endloop
  endfacet
  facet normal -0.16038 0.986907 0.0171094
    outer loop
      vertex 32.135 -0.5844 10.86
      vertex 33.9128 -0.274805 9.66667
      vertex 32.1354 -0.563647 9.66667
    endloop
  endfacet
  facet normal -0.285857 0.957639 0.0348321
    outer loop
      vertex 29.3706 -1.47706 11.2523
      vertex 30.7483 -1.00814 9.66667
      vertex 29.2531 -1.45446 9.66667
    endloop
  endfacet
  facet normal -0.305121 0.952171 0.0164568
    outer loop
      vertex 30.7483 -1.00814 9.66667
      vertex 32.135 -0.5844 10.86
      vertex 32.1354 -0.563647 9.66667
    endloop
  endfacet
  facet normal -0.30513 0.952168 0.0164684
    outer loop
      vertex 32.135 -0.5844 10.86
      vertex 30.7483 -1.00814 9.66667
      vertex 29.3706 -1.47706 11.2523
    endloop
  endfacet
  facet normal -0.380311 0.29474 0.876637
    outer loop
      vertex 23.0349 -22.2 25.3211
      vertex 21 -21.4832 24.1973
      vertex 21 -22.2 24.4383
    endloop
  endfacet
  facet normal 0.2472 0.571414 0.782546
    outer loop
      vertex 42 -7.82614 20.7055
      vertex 42 -5.74506 19.1859
      vertex 40.9179 -7.30241 20.6649
    endloop
  endfacet
  facet normal 0.234196 0.736066 0.635105
    outer loop
      vertex 41.2908 -2.6104 16.1312
      vertex 42 -3.87361 17.3337
      vertex 42 -2.85296 16.1508
    endloop
  endfacet
  facet normal 0.234202 0.736067 0.635103
    outer loop
      vertex 42 -3.87361 17.3337
      vertex 41.2908 -2.6104 16.1312
      vertex 40.3284 -4.42451 18.5886
    endloop
  endfacet
  facet normal 0.245481 0.723879 0.644777
    outer loop
      vertex 42 -5.03271 18.635
      vertex 42 -3.87361 17.3337
      vertex 40.3284 -4.42451 18.5886
    endloop
  endfacet
  facet normal 0.107105 0.975852 0.19037
    outer loop
      vertex 39.5756 -0.870048 13.3174
      vertex 37.5453 -0.058712 10.3007
      vertex 37.2015 -0.617085 13.3564
    endloop
  endfacet
  facet normal 0.0711037 0.974208 0.214157
    outer loop
      vertex 39.5756 -0.870048 13.3174
      vertex 40.1279 -0.220739 10.1803
      vertex 37.5453 -0.058712 10.3007
    endloop
  endfacet
  facet normal 0.197695 0.599849 0.775305
    outer loop
      vertex 40.9179 -7.30241 20.6649
      vertex 40.3284 -4.42451 18.5886
      vertex 38.896 -6.53471 20.5865
    endloop
  endfacet
  facet normal 0.196707 0.599806 0.775589
    outer loop
      vertex 40.3284 -4.42451 18.5886
      vertex 42 -5.74506 19.1859
      vertex 42 -5.03271 18.635
    endloop
  endfacet
  facet normal 0.196742 0.599836 0.775557
    outer loop
      vertex 42 -5.74506 19.1859
      vertex 40.3284 -4.42451 18.5886
      vertex 40.9179 -7.30241 20.6649
    endloop
  endfacet
  facet normal 0.18134 0.767563 0.614787
    outer loop
      vertex 41.2908 -2.6104 16.1312
      vertex 39.1089 -2.08026 16.1129
      vertex 38.3438 -3.86009 18.5607
    endloop
  endfacet
  facet normal 0.203794 0.747809 0.631862
    outer loop
      vertex 40.3284 -4.42451 18.5886
      vertex 41.2908 -2.6104 16.1312
      vertex 38.3438 -3.86009 18.5607
    endloop
  endfacet
  facet normal 0.147421 0.616341 0.773557
    outer loop
      vertex 38.896 -6.53471 20.5865
      vertex 38.3438 -3.86009 18.5607
      vertex 36.922 -5.91822 20.4715
    endloop
  endfacet
  facet normal 0.16463 0.616912 0.769621
    outer loop
      vertex 38.896 -6.53471 20.5865
      vertex 40.3284 -4.42451 18.5886
      vertex 38.3438 -3.86009 18.5607
    endloop
  endfacet
  facet normal 0.142292 0.784914 0.603044
    outer loop
      vertex 39.1089 -2.08026 16.1129
      vertex 37.0135 -1.7193 16.1375
      vertex 36.502 -3.46725 18.5333
    endloop
  endfacet
  facet normal 0.156193 0.77501 0.612342
    outer loop
      vertex 38.3438 -3.86009 18.5607
      vertex 39.1089 -2.08026 16.1129
      vertex 36.502 -3.46725 18.5333
    endloop
  endfacet
  facet normal 0.0781327 0.626587 0.775425
    outer loop
      vertex 36.922 -5.91822 20.4715
      vertex 36.502 -3.46725 18.5333
      vertex 35.0344 -5.38534 20.2311
    endloop
  endfacet
  facet normal 0.122614 0.628442 0.768132
    outer loop
      vertex 36.922 -5.91822 20.4715
      vertex 38.3438 -3.86009 18.5607
      vertex 36.502 -3.46725 18.5333
    endloop
  endfacet
endsolid OpenSCAD_Model
