solid OpenSCAD_Model
  facet normal 0 0 -1
    outer loop
      vertex 42 -22.2 9.66667
      vertex 58.3178 -18.4348 9.66667
      vertex 58.8164 -20.4062 9.66667
    endloop
  endfacet
  facet normal -0 0 -1
    outer loop
      vertex 58.3178 -18.4348 9.66667
      vertex 42 -22.2 9.66667
      vertex 57.7307 -16.3917 9.66667
    endloop
  endfacet
  facet normal -0 0 -1
    outer loop
      vertex 57.7307 -16.3917 9.66667
      vertex 42 -22.2 9.66667
      vertex 57.4538 -15.5291 9.66667
    endloop
  endfacet
  facet normal 0 0 -1
    outer loop
      vertex 42 -22.2 9.66667
      vertex 58.8164 -20.4062 9.66667
      vertex 59.0713 -21.2768 9.66667
    endloop
  endfacet
  facet normal -0 0 -1
    outer loop
      vertex 57.4538 -15.5291 9.66667
      vertex 42 -22.2 9.66667
      vertex 56.7121 -13.5489 9.66667
    endloop
  endfacet
  facet normal 0 0 -1
    outer loop
      vertex 42 -22.2 9.66667
      vertex 59.0713 -21.2768 9.66667
      vertex 59.3573 -22.2 9.66667
    endloop
  endfacet
  facet normal -0 0 -1
    outer loop
      vertex 56.7121 -13.5489 9.66667
      vertex 42 -22.2 9.66667
      vertex 56.3339 -12.6063 9.66667
    endloop
  endfacet
  facet normal -0 0 -1
    outer loop
      vertex 56.3339 -12.6063 9.66667
      vertex 42 -22.2 9.66667
      vertex 55.4157 -10.8353 9.66667
    endloop
  endfacet
  facet normal -0 0 -1
    outer loop
      vertex 55.4157 -10.8353 9.66667
      vertex 42 -22.2 9.66667
      vertex 54.825 -9.74903 9.66667
    endloop
  endfacet
  facet normal -0 0 -1
    outer loop
      vertex 54.825 -9.74903 9.66667
      vertex 42 -22.2 9.66667
      vertex 53.9068 -8.5346 9.66667
    endloop
  endfacet
  facet normal -0 0 -1
    outer loop
      vertex 53.9068 -8.5346 9.66667
      vertex 42 -22.2 9.66667
      vertex 52.8494 -7.08038 9.66667
    endloop
  endfacet
  facet normal -0 0 -1
    outer loop
      vertex 52.8494 -7.08038 9.66667
      vertex 42 -22.2 9.66667
      vertex 51.8436 -6.04467 9.66667
    endloop
  endfacet
  facet normal -0 0 -1
    outer loop
      vertex 51.8436 -6.04467 9.66667
      vertex 42 -22.2 9.66667
      vertex 50.4919 -4.74027 9.66667
    endloop
  endfacet
  facet normal -0 0 -1
    outer loop
      vertex 50.4919 -4.74027 9.66667
      vertex 42 -22.2 9.66667
      vertex 48.684 -3.40588 9.66667
    endloop
  endfacet
  facet normal 0 -0 -1
    outer loop
      vertex 47.3374 -2.49186 9.66667
      vertex 48.684 -3.40588 9.66667
      vertex 42 -22.2 9.66667
    endloop
  endfacet
  facet normal 0 0 -1
    outer loop
      vertex 48.684 -3.40588 9.66667
      vertex 47.3374 -2.49186 9.66667
      vertex 47.9454 -2.83248 9.66667
    endloop
  endfacet
  facet normal 0 -0 -1
    outer loop
      vertex 44.8894 -1.2743 9.66667
      vertex 47.3374 -2.49186 9.66667
      vertex 42 -22.2 9.66667
    endloop
  endfacet
  facet normal 0 0 -1
    outer loop
      vertex 47.3374 -2.49186 9.66667
      vertex 44.8894 -1.2743 9.66667
      vertex 45.3518 -1.42708 9.66667
    endloop
  endfacet
  facet normal 0 -0 -1
    outer loop
      vertex 42.3544 -0.541807 9.66667
      vertex 44.8894 -1.2743 9.66667
      vertex 42 -22.2 9.66667
    endloop
  endfacet
  facet normal 0 0 -1
    outer loop
      vertex 44.8894 -1.2743 9.66667
      vertex 42.3544 -0.541807 9.66667
      vertex 42.7634 -0.601091 9.66667
    endloop
  endfacet
  facet normal -0 0 -1
    outer loop
      vertex 42.3544 -0.541807 9.66667
      vertex 42 -22.2 9.66667
      vertex 42 -0.487265 9.66667
    endloop
  endfacet
  facet normal -1 0 0
    outer loop
      vertex 42 -0.487265 9.66667
      vertex 42 -0.669321 10.8689
      vertex 42 -0.509024 10.1839
    endloop
  endfacet
  facet normal -1 0 0
    outer loop
      vertex 42 -22.2 9.66667
      vertex 42 -0.669321 10.8689
      vertex 42 -0.487265 9.66667
    endloop
  endfacet
  facet normal -1 -0 0
    outer loop
      vertex 42 -0.669321 10.8689
      vertex 42 -22.2 9.66667
      vertex 42 -1.3005 13.2514
    endloop
  endfacet
  facet normal -1 0 0
    outer loop
      vertex 42 -1.3005 13.2514
      vertex 42 -1.34721 13.3784
      vertex 42 -1.32137 13.3228
    endloop
  endfacet
  facet normal -1 0 0
    outer loop
      vertex 42 -1.32137 13.3228
      vertex 42 -1.34721 13.3784
      vertex 42 -1.32708 13.3421
    endloop
  endfacet
  facet normal -1 -0 0
    outer loop
      vertex 42 -1.3005 13.2514
      vertex 42 -22.2 9.66667
      vertex 42 -1.34721 13.3784
    endloop
  endfacet
  facet normal -1 -0 0
    outer loop
      vertex 42 -1.34721 13.3784
      vertex 42 -22.2 9.66667
      vertex 42 -2.85296 16.1508
    endloop
  endfacet
  facet normal -1 -0 0
    outer loop
      vertex 42 -2.85296 16.1508
      vertex 42 -22.2 9.66667
      vertex 42 -3.87361 17.3337
    endloop
  endfacet
  facet normal -1 0 -0
    outer loop
      vertex 42 -5.74506 19.1859
      vertex 42 -3.87361 17.3337
      vertex 42 -22.2 9.66667
    endloop
  endfacet
  facet normal -1 0 0
    outer loop
      vertex 42 -3.87361 17.3337
      vertex 42 -5.74506 19.1859
      vertex 42 -5.03271 18.635
    endloop
  endfacet
  facet normal -1 -0 0
    outer loop
      vertex 42 -5.74506 19.1859
      vertex 42 -22.2 9.66667
      vertex 42 -7.82614 20.7055
    endloop
  endfacet
  facet normal -1 -0 0
    outer loop
      vertex 42 -7.82614 20.7055
      vertex 42 -22.2 9.66667
      vertex 42 -8.58302 21.0943
    endloop
  endfacet
  facet normal -1 -0 0
    outer loop
      vertex 42 -8.58302 21.0943
      vertex 42 -22.2 9.66667
      vertex 42 -9.46414 21.5515
    endloop
  endfacet
  facet normal -1 -0 0
    outer loop
      vertex 42 -9.46414 21.5515
      vertex 42 -22.2 9.66667
      vertex 42 -10.2972 21.9498
    endloop
  endfacet
  facet normal -1 -0 0
    outer loop
      vertex 42 -10.2972 21.9498
      vertex 42 -22.2 9.66667
      vertex 42 -11.0405 22.3137
    endloop
  endfacet
  facet normal -1 -0 0
    outer loop
      vertex 42 -11.0405 22.3137
      vertex 42 -22.2 9.66667
      vertex 42 -13.0774 23.0886
    endloop
  endfacet
  facet normal -1 -0 0
    outer loop
      vertex 42 -13.0774 23.0886
      vertex 42 -22.2 9.66667
      vertex 42 -14.5034 23.5994
    endloop
  endfacet
  facet normal -1 -0 0
    outer loop
      vertex 42 -14.5034 23.5994
      vertex 42 -22.2 9.66667
      vertex 42 -15.6256 23.9384
    endloop
  endfacet
  facet normal -1 -0 0
    outer loop
      vertex 42 -15.6256 23.9384
      vertex 42 -22.2 9.66667
      vertex 42 -16.8852 24.345
    endloop
  endfacet
  facet normal -1 -0 0
    outer loop
      vertex 42 -16.8852 24.345
      vertex 42 -22.2 9.66667
      vertex 42 -17.4857 24.5163
    endloop
  endfacet
  facet normal -1 -0 0
    outer loop
      vertex 42 -17.4857 24.5163
      vertex 42 -22.2 9.66667
      vertex 42 -18.0292 24.6747
    endloop
  endfacet
  facet normal -1 -0 0
    outer loop
      vertex 42 -18.0292 24.6747
      vertex 42 -22.2 9.66667
      vertex 42 -20.9853 25.4178
    endloop
  endfacet
  facet normal -1 -0 0
    outer loop
      vertex 42 -20.9853 25.4178
      vertex 42 -22.2 9.66667
      vertex 42 -21.6054 25.55
    endloop
  endfacet
  facet normal -1 -0 0
    outer loop
      vertex 42 -21.6054 25.55
      vertex 42 -22.2 9.66667
      vertex 42 -22.2 25.6549
    endloop
  endfacet
  facet normal 0 -1 0
    outer loop
      vertex 42 -22.2 9.66667
      vertex 42.5751 -22.2 25.5424
      vertex 42 -22.2 25.6549
    endloop
  endfacet
  facet normal 0 -1 0
    outer loop
      vertex 42 -22.2 9.66667
      vertex 44.1699 -22.2 25.1841
      vertex 43.4409 -22.2 25.3404
    endloop
  endfacet
  facet normal 0 -1 -0
    outer loop
      vertex 42.5751 -22.2 25.5424
      vertex 42 -22.2 9.66667
      vertex 43.4409 -22.2 25.3404
    endloop
  endfacet
  facet normal 0 -1 -0
    outer loop
      vertex 44.1699 -22.2 25.1841
      vertex 42 -22.2 9.66667
      vertex 45.0529 -22.2 24.9389
    endloop
  endfacet
  facet normal 0 -1 -0
    outer loop
      vertex 45.0529 -22.2 24.9389
      vertex 42 -22.2 9.66667
      vertex 45.9504 -22.2 24.7233
    endloop
  endfacet
  facet normal 0 -1 -0
    outer loop
      vertex 45.9504 -22.2 24.7233
      vertex 42 -22.2 9.66667
      vertex 47.3136 -22.2 24.3355
    endloop
  endfacet
  facet normal 0 -1 -0
    outer loop
      vertex 47.3136 -22.2 24.3355
      vertex 42 -22.2 9.66667
      vertex 48.2517 -22.2 24.0205
    endloop
  endfacet
  facet normal 0 -1 -0
    outer loop
      vertex 48.2517 -22.2 24.0205
      vertex 42 -22.2 9.66667
      vertex 49.1005 -22.2 23.7467
    endloop
  endfacet
  facet normal 0 -1 -0
    outer loop
      vertex 49.1005 -22.2 23.7467
      vertex 42 -22.2 9.66667
      vertex 49.8452 -22.2 23.4416
    endloop
  endfacet
  facet normal 0 -1 -0
    outer loop
      vertex 49.8452 -22.2 23.4416
      vertex 42 -22.2 9.66667
      vertex 50.7719 -22.2 23.0385
    endloop
  endfacet
  facet normal 0 -1 -0
    outer loop
      vertex 50.7719 -22.2 23.0385
      vertex 42 -22.2 9.66667
      vertex 51.878 -22.2 22.4814
    endloop
  endfacet
  facet normal 0 -1 -0
    outer loop
      vertex 51.878 -22.2 22.4814
      vertex 42 -22.2 9.66667
      vertex 52.9982 -22.2 21.7355
    endloop
  endfacet
  facet normal -0 -1 0
    outer loop
      vertex 54.4828 -22.2 20.5902
      vertex 52.9982 -22.2 21.7355
      vertex 42 -22.2 9.66667
    endloop
  endfacet
  facet normal 0 -1 0
    outer loop
      vertex 52.9982 -22.2 21.7355
      vertex 54.4828 -22.2 20.5902
      vertex 54.1865 -22.2 20.8707
    endloop
  endfacet
  facet normal 0 -1 -0
    outer loop
      vertex 54.4828 -22.2 20.5902
      vertex 42 -22.2 9.66667
      vertex 55.2344 -22.2 19.815
    endloop
  endfacet
  facet normal 0 -1 -0
    outer loop
      vertex 55.2344 -22.2 19.815
      vertex 42 -22.2 9.66667
      vertex 56.0612 -22.2 18.9356
    endloop
  endfacet
  facet normal 0 -1 -0
    outer loop
      vertex 56.0612 -22.2 18.9356
      vertex 42 -22.2 9.66667
      vertex 57.0763 -22.2 17.4126
    endloop
  endfacet
  facet normal 0 -1 -0
    outer loop
      vertex 57.0763 -22.2 17.4126
      vertex 42 -22.2 9.66667
      vertex 57.5286 -22.2 16.6882
    endloop
  endfacet
  facet normal 0 -1 -0
    outer loop
      vertex 57.5286 -22.2 16.6882
      vertex 42 -22.2 9.66667
      vertex 58.1197 -22.2 15.3695
    endloop
  endfacet
  facet normal -0 -1 0
    outer loop
      vertex 58.8648 -22.2 12.881
      vertex 58.1197 -22.2 15.3695
      vertex 42 -22.2 9.66667
    endloop
  endfacet
  facet normal 0 -1 0
    outer loop
      vertex 58.1197 -22.2 15.3695
      vertex 58.8648 -22.2 12.881
      vertex 58.5922 -22.2 14.1961
    endloop
  endfacet
  facet normal 0 -1 -0
    outer loop
      vertex 58.8648 -22.2 12.881
      vertex 42 -22.2 9.66667
      vertex 59.2161 -22.2 11.5016
    endloop
  endfacet
  facet normal 0 -1 -0
    outer loop
      vertex 59.2161 -22.2 11.5016
      vertex 42 -22.2 9.66667
      vertex 59.3573 -22.2 9.66667
    endloop
  endfacet
  facet normal 0.189165 0.170601 0.967012
    outer loop
      vertex 42.5751 -22.2 25.5424
      vertex 42 -21.6054 25.55
      vertex 42 -22.2 25.6549
    endloop
  endfacet
  facet normal 0.276212 0.844569 0.458704
    outer loop
      vertex 43.5198 -3.37276 16.1927
      vertex 42 -1.34721 13.3784
      vertex 42 -2.85296 16.1508
    endloop
  endfacet
  facet normal 0.258449 0.844825 0.46848
    outer loop
      vertex 44.4134 -2.10099 13.4063
      vertex 42 -1.34721 13.3784
      vertex 43.5198 -3.37276 16.1927
    endloop
  endfacet
  facet normal 0.258448 0.84482 0.468491
    outer loop
      vertex 42 -1.34721 13.3784
      vertex 44.4134 -2.10099 13.4063
      vertex 42 -1.32708 13.3421
    endloop
  endfacet
  facet normal 0.283782 0.920377 0.269023
    outer loop
      vertex 45.2318 -1.42984 10.2848
      vertex 42 -1.3005 13.2514
      vertex 42 -1.32137 13.3228
    endloop
  endfacet
  facet normal 0.283703 0.920427 0.268936
    outer loop
      vertex 42 -1.3005 13.2514
      vertex 45.2318 -1.42984 10.2848
      vertex 42.677 -0.613272 10.1852
    endloop
  endfacet
  facet normal 0.287304 0.918485 0.271738
    outer loop
      vertex 44.4134 -2.10099 13.4063
      vertex 42 -1.32137 13.3228
      vertex 42 -1.32708 13.3421
    endloop
  endfacet
  facet normal 0.287187 0.91823 0.272723
    outer loop
      vertex 42 -1.32137 13.3228
      vertex 44.4134 -2.10099 13.4063
      vertex 45.2318 -1.42984 10.2848
    endloop
  endfacet
  facet normal 0.147854 0.962993 0.22535
    outer loop
      vertex 42.677 -0.613272 10.1852
      vertex 42 -0.509024 10.1839
      vertex 42 -0.669321 10.8689
    endloop
  endfacet
  facet normal 0.175812 0.951597 0.2521
    outer loop
      vertex 42.677 -0.613272 10.1852
      vertex 42 -0.669321 10.8689
      vertex 42 -1.3005 13.2514
    endloop
  endfacet
  facet normal 0.14329 0.988559 0.0470984
    outer loop
      vertex 42.677 -0.613272 10.1852
      vertex 42.7634 -0.601091 9.66667
      vertex 42.3544 -0.541807 9.66667
    endloop
  endfacet
  facet normal 0.151982 0.98751 0.0415462
    outer loop
      vertex 42.3544 -0.541807 9.66667
      vertex 42 -0.509024 10.1839
      vertex 42.677 -0.613272 10.1852
    endloop
  endfacet
  facet normal 0.151977 0.987511 0.0415429
    outer loop
      vertex 42 -0.509024 10.1839
      vertex 42.3544 -0.541807 9.66667
      vertex 42 -0.487265 9.66667
    endloop
  endfacet
  facet normal 0.650562 0.586283 0.482743
    outer loop
      vertex 51.9468 -10.1964 17.0982
      vertex 53.3022 -9.55455 14.4921
      vertex 50.075 -7.88142 16.8092
    endloop
  endfacet
  facet normal 0.653777 0.566854 0.501251
    outer loop
      vertex 53.3022 -9.55455 14.4921
      vertex 51.3957 -7.06522 14.1636
      vertex 50.075 -7.88142 16.8092
    endloop
  endfacet
  facet normal 0.881053 0.456794 0.122819
    outer loop
      vertex 55.8753 -12.2899 11.7797
      vertex 56.3339 -12.6063 9.66667
      vertex 55.4157 -10.8353 9.66667
    endloop
  endfacet
  facet normal 0.870283 0.473249 0.136541
    outer loop
      vertex 54.3812 -9.47648 11.5507
      vertex 55.4157 -10.8353 9.66667
      vertex 54.825 -9.74903 9.66667
    endloop
  endfacet
  facet normal 0.870271 0.473279 0.136513
    outer loop
      vertex 55.4157 -10.8353 9.66667
      vertex 54.3812 -9.47648 11.5507
      vertex 55.8753 -12.2899 11.7797
    endloop
  endfacet
  facet normal 0.802326 0.583392 0.126203
    outer loop
      vertex 53.9068 -8.5346 9.66667
      vertex 52.8494 -7.08038 9.66667
      vertex 52.4704 -6.88981 11.1952
    endloop
  endfacet
  facet normal 0.793668 0.600053 0.100137
    outer loop
      vertex 54.3812 -9.47648 11.5507
      vertex 53.9068 -8.5346 9.66667
      vertex 52.4704 -6.88981 11.1952
    endloop
  endfacet
  facet normal 0.793658 0.600065 0.100146
    outer loop
      vertex 53.9068 -8.5346 9.66667
      vertex 54.3812 -9.47648 11.5507
      vertex 54.825 -9.74903 9.66667
    endloop
  endfacet
  facet normal 0.824819 0.480646 0.297746
    outer loop
      vertex 54.8389 -12.3201 14.6995
      vertex 55.8753 -12.2899 11.7797
      vertex 53.3022 -9.55455 14.4921
    endloop
  endfacet
  facet normal 0.827116 0.464951 0.315753
    outer loop
      vertex 55.8753 -12.2899 11.7797
      vertex 54.3812 -9.47648 11.5507
      vertex 53.3022 -9.55455 14.4921
    endloop
  endfacet
  facet normal 0.303427 0.152041 0.940646
    outer loop
      vertex 48.2517 -22.2 24.0205
      vertex 49.1005 -22.2 23.7467
      vertex 48.2309 -21.0195 23.8364
    endloop
  endfacet
  facet normal 0.314636 0.151672 0.937016
    outer loop
      vertex 48.2517 -22.2 24.0205
      vertex 48.2309 -21.0195 23.8364
      vertex 47.3136 -22.2 24.3355
    endloop
  endfacet
  facet normal 0.267285 0.210746 0.94029
    outer loop
      vertex 48.2309 -21.0195 23.8364
      vertex 46.6033 -18.9664 23.8389
      vertex 44.9904 -21.0519 24.7648
    endloop
  endfacet
  facet normal 0.268611 0.190484 0.944227
    outer loop
      vertex 48.2309 -21.0195 23.8364
      vertex 45.9504 -22.2 24.7233
      vertex 47.3136 -22.2 24.3355
    endloop
  endfacet
  facet normal 0.268616 0.190476 0.944227
    outer loop
      vertex 45.9504 -22.2 24.7233
      vertex 48.2309 -21.0195 23.8364
      vertex 44.9904 -21.0519 24.7648
    endloop
  endfacet
  facet normal 0.264177 0.158644 0.951337
    outer loop
      vertex 45.0529 -22.2 24.9389
      vertex 44.9904 -21.0519 24.7648
      vertex 44.1699 -22.2 25.1841
    endloop
  endfacet
  facet normal 0.230638 0.158147 0.960102
    outer loop
      vertex 45.0529 -22.2 24.9389
      vertex 45.9504 -22.2 24.7233
      vertex 44.9904 -21.0519 24.7648
    endloop
  endfacet
  facet normal 0.23694 0.247841 0.93938
    outer loop
      vertex 46.6033 -18.9664 23.8389
      vertex 44.9119 -17.0674 23.7645
      vertex 43.2784 -19.2001 24.7392
    endloop
  endfacet
  facet normal 0.238777 0.233781 0.942514
    outer loop
      vertex 44.9904 -21.0519 24.7648
      vertex 46.6033 -18.9664 23.8389
      vertex 43.2784 -19.2001 24.7392
    endloop
  endfacet
  facet normal 0.222476 0.203147 0.953539
    outer loop
      vertex 42 -20.9853 25.4178
      vertex 43.4409 -22.2 25.3404
      vertex 43.2784 -19.2001 24.7392
    endloop
  endfacet
  facet normal 0.222471 0.20314 0.953541
    outer loop
      vertex 43.4409 -22.2 25.3404
      vertex 42 -20.9853 25.4178
      vertex 42.5751 -22.2 25.5424
    endloop
  endfacet
  facet normal 0.222759 0.203267 0.953447
    outer loop
      vertex 42.5751 -22.2 25.5424
      vertex 42 -20.9853 25.4178
      vertex 42 -21.6054 25.55
    endloop
  endfacet
  facet normal 0.205276 0.202962 0.957428
    outer loop
      vertex 44.9904 -21.0519 24.7648
      vertex 43.4409 -22.2 25.3404
      vertex 44.1699 -22.2 25.1841
    endloop
  endfacet
  facet normal 0.205252 0.202993 0.957426
    outer loop
      vertex 43.4409 -22.2 25.3404
      vertex 44.9904 -21.0519 24.7648
      vertex 43.2784 -19.2001 24.7392
    endloop
  endfacet
  facet normal 0.204459 0.268584 0.941307
    outer loop
      vertex 42 -16.8852 24.345
      vertex 44.9119 -17.0674 23.7645
      vertex 43.1404 -15.3859 23.6695
    endloop
  endfacet
  facet normal 0.204459 0.268524 0.941324
    outer loop
      vertex 44.9119 -17.0674 23.7645
      vertex 42 -16.8852 24.345
      vertex 42 -17.4857 24.5163
    endloop
  endfacet
  facet normal 0.203357 0.273859 0.940025
    outer loop
      vertex 42 -17.4857 24.5163
      vertex 43.2784 -19.2001 24.7392
      vertex 44.9119 -17.0674 23.7645
    endloop
  endfacet
  facet normal 0.203488 0.273949 0.939971
    outer loop
      vertex 43.2784 -19.2001 24.7392
      vertex 42 -17.4857 24.5163
      vertex 42 -18.0292 24.6747
    endloop
  endfacet
  facet normal 0.17177 0.24017 0.955413
    outer loop
      vertex 43.2784 -19.2001 24.7392
      vertex 42 -18.0292 24.6747
      vertex 42 -20.9853 25.4178
    endloop
  endfacet
  facet normal 0.162739 0.285324 0.944514
    outer loop
      vertex 43.1404 -15.3859 23.6695
      vertex 42 -14.5034 23.5994
      vertex 42 -15.6256 23.9384
    endloop
  endfacet
  facet normal 0.157822 0.303343 0.939721
    outer loop
      vertex 43.1404 -15.3859 23.6695
      vertex 42 -15.6256 23.9384
      vertex 42 -16.8852 24.345
    endloop
  endfacet
  facet normal 0.841346 0.328305 0.429363
    outer loop
      vertex 55.966 -18.4093 17.1284
      vertex 57.0992 -18.0047 14.5985
      vertex 54.8073 -15.6383 17.2801
    endloop
  endfacet
  facet normal 0.83837 0.286397 0.463801
    outer loop
      vertex 57.0992 -18.0047 14.5985
      vertex 56.0611 -15.1764 14.7285
      vertex 54.8073 -15.6383 17.2801
    endloop
  endfacet
  facet normal 0.470453 0.877263 0.0953109
    outer loop
      vertex 47.3374 -2.49186 9.66667
      vertex 45.2318 -1.42984 10.2848
      vertex 47.7612 -2.80866 10.4907
    endloop
  endfacet
  facet normal 0.47044 0.877277 0.0952456
    outer loop
      vertex 45.2318 -1.42984 10.2848
      vertex 47.3374 -2.49186 9.66667
      vertex 45.3518 -1.42708 9.66667
    endloop
  endfacet
  facet normal 0.48704 0.869356 0.0837404
    outer loop
      vertex 47.7612 -2.80866 10.4907
      vertex 47.9454 -2.83248 9.66667
      vertex 47.3374 -2.49186 9.66667
    endloop
  endfacet
  facet normal 0.885331 0.358931 0.295564
    outer loop
      vertex 56.0611 -15.1764 14.7285
      vertex 57.0273 -15.1869 11.8471
      vertex 55.8753 -12.2899 11.7797
    endloop
  endfacet
  facet normal 0.871904 0.376266 0.313379
    outer loop
      vertex 56.0611 -15.1764 14.7285
      vertex 55.8753 -12.2899 11.7797
      vertex 54.8389 -12.3201 14.6995
    endloop
  endfacet
  facet normal 0.732475 0.466497 0.495844
    outer loop
      vertex 53.5107 -12.8467 17.2814
      vertex 53.3022 -9.55455 14.4921
      vertex 51.9468 -10.1964 17.0982
    endloop
  endfacet
  facet normal 0.75152 0.453518 0.479101
    outer loop
      vertex 53.5107 -12.8467 17.2814
      vertex 54.8389 -12.3201 14.6995
      vertex 53.3022 -9.55455 14.4921
    endloop
  endfacet
  facet normal 0.804109 0.373265 0.462691
    outer loop
      vertex 54.8073 -15.6383 17.2801
      vertex 56.0611 -15.1764 14.7285
      vertex 53.5107 -12.8467 17.2814
    endloop
  endfacet
  facet normal 0.802723 0.348396 0.484001
    outer loop
      vertex 56.0611 -15.1764 14.7285
      vertex 54.8389 -12.3201 14.6995
      vertex 53.5107 -12.8467 17.2814
    endloop
  endfacet
  facet normal 0.916673 0.290926 0.273992
    outer loop
      vertex 57.0992 -18.0047 14.5985
      vertex 57.9633 -18.0702 11.7771
      vertex 57.0273 -15.1869 11.8471
    endloop
  endfacet
  facet normal 0.899745 0.316428 0.300552
    outer loop
      vertex 57.0992 -18.0047 14.5985
      vertex 57.0273 -15.1869 11.8471
      vertex 56.0611 -15.1764 14.7285
    endloop
  endfacet
  facet normal 0.591867 0.801892 0.0816296
    outer loop
      vertex 48.684 -3.40588 9.66667
      vertex 50.2127 -4.65044 10.8086
      vertex 50.4919 -4.74027 9.66667
    endloop
  endfacet
  facet normal 0.591866 0.801892 0.0816322
    outer loop
      vertex 50.2127 -4.65044 10.8086
      vertex 48.684 -3.40588 9.66667
      vertex 47.7612 -2.80866 10.4907
    endloop
  endfacet
  facet normal 0.609266 0.7848 0.113507
    outer loop
      vertex 48.684 -3.40588 9.66667
      vertex 47.9454 -2.83248 9.66667
      vertex 47.7612 -2.80866 10.4907
    endloop
  endfacet
  facet normal 0.714436 0.693804 0.0906447
    outer loop
      vertex 52.4704 -6.88981 11.1952
      vertex 52.8494 -7.08038 9.66667
      vertex 51.8436 -6.04467 9.66667
    endloop
  endfacet
  facet normal 0.689986 0.71504 0.112413
    outer loop
      vertex 51.8436 -6.04467 9.66667
      vertex 50.2127 -4.65044 10.8086
      vertex 52.4704 -6.88981 11.1952
    endloop
  endfacet
  facet normal 0.69 0.71502 0.112457
    outer loop
      vertex 50.2127 -4.65044 10.8086
      vertex 51.8436 -6.04467 9.66667
      vertex 50.4919 -4.74027 9.66667
    endloop
  endfacet
  facet normal 0.528525 0.796038 0.294932
    outer loop
      vertex 49.1922 -4.99216 13.8197
      vertex 47.7612 -2.80866 10.4907
      vertex 46.8321 -3.32778 13.5568
    endloop
  endfacet
  facet normal 0.553974 0.785153 0.276853
    outer loop
      vertex 49.1922 -4.99216 13.8197
      vertex 50.2127 -4.65044 10.8086
      vertex 47.7612 -2.80866 10.4907
    endloop
  endfacet
  facet normal 0.636249 0.72157 0.272991
    outer loop
      vertex 51.3957 -7.06522 14.1636
      vertex 52.4704 -6.88981 11.1952
      vertex 49.1922 -4.99216 13.8197
    endloop
  endfacet
  facet normal 0.645824 0.702664 0.298621
    outer loop
      vertex 52.4704 -6.88981 11.1952
      vertex 50.2127 -4.65044 10.8086
      vertex 49.1922 -4.99216 13.8197
    endloop
  endfacet
  facet normal 0.313062 0.947505 0.0650066
    outer loop
      vertex 45.2318 -1.42984 10.2848
      vertex 45.3518 -1.42708 9.66667
      vertex 44.8894 -1.2743 9.66667
    endloop
  endfacet
  facet normal 0.301083 0.950839 0.0724813
    outer loop
      vertex 44.8894 -1.2743 9.66667
      vertex 42.677 -0.613272 10.1852
      vertex 45.2318 -1.42984 10.2848
    endloop
  endfacet
  facet normal 0.301087 0.950836 0.0725051
    outer loop
      vertex 42.677 -0.613272 10.1852
      vertex 44.8894 -1.2743 9.66667
      vertex 42.7634 -0.601091 9.66667
    endloop
  endfacet
  facet normal 0.879314 0.274423 0.38923
    outer loop
      vertex 58.0644 -20.7651 14.3642
      vertex 57.0992 -18.0047 14.5985
      vertex 57.0701 -21.1073 16.8517
    endloop
  endfacet
  facet normal 0.850374 0.303948 0.429511
    outer loop
      vertex 57.0701 -21.1073 16.8517
      vertex 57.0992 -18.0047 14.5985
      vertex 55.966 -18.4093 17.1284
    endloop
  endfacet
  facet normal 0.445442 0.139307 0.884407
    outer loop
      vertex 51.878 -22.2 22.4814
      vertex 51.4549 -21.5061 22.5852
      vertex 50.7719 -22.2 23.0385
    endloop
  endfacet
  facet normal 0.576457 0.200706 0.792095
    outer loop
      vertex 54.1865 -22.2 20.8707
      vertex 53.0999 -20.1664 21.1462
      vertex 52.9982 -22.2 21.7355
    endloop
  endfacet
  facet normal 0.54204 0.208777 0.814005
    outer loop
      vertex 51.4549 -21.5061 22.5852
      vertex 52.9982 -22.2 21.7355
      vertex 53.0999 -20.1664 21.1462
    endloop
  endfacet
  facet normal 0.542029 0.208729 0.814025
    outer loop
      vertex 52.9982 -22.2 21.7355
      vertex 51.4549 -21.5061 22.5852
      vertex 51.878 -22.2 22.4814
    endloop
  endfacet
  facet normal 0.490521 0.230473 0.8404
    outer loop
      vertex 53.0999 -20.1664 21.1462
      vertex 51.6769 -17.6534 21.2876
      vertex 49.9361 -19.1843 22.7235
    endloop
  endfacet
  facet normal 0.496032 0.275428 0.823463
    outer loop
      vertex 51.4549 -21.5061 22.5852
      vertex 53.0999 -20.1664 21.1462
      vertex 49.9361 -19.1843 22.7235
    endloop
  endfacet
  facet normal 0.371077 0.204505 0.905803
    outer loop
      vertex 48.2309 -21.0195 23.8364
      vertex 49.8452 -22.2 23.4416
      vertex 49.9361 -19.1843 22.7235
    endloop
  endfacet
  facet normal 0.371097 0.204538 0.905788
    outer loop
      vertex 49.8452 -22.2 23.4416
      vertex 48.2309 -21.0195 23.8364
      vertex 49.1005 -22.2 23.7467
    endloop
  endfacet
  facet normal 0.390687 0.202073 0.89807
    outer loop
      vertex 49.8452 -22.2 23.4416
      vertex 51.4549 -21.5061 22.5852
      vertex 49.9361 -19.1843 22.7235
    endloop
  endfacet
  facet normal 0.390645 0.202166 0.898067
    outer loop
      vertex 51.4549 -21.5061 22.5852
      vertex 49.8452 -22.2 23.4416
      vertex 50.7719 -22.2 23.0385
    endloop
  endfacet
  facet normal 0.419948 0.27589 0.864597
    outer loop
      vertex 51.6769 -17.6534 21.2876
      vertex 50.1601 -15.2465 21.2563
      vertex 48.3481 -16.992 22.6934
    endloop
  endfacet
  facet normal 0.421745 0.317155 0.849437
    outer loop
      vertex 49.9361 -19.1843 22.7235
      vertex 51.6769 -17.6534 21.2876
      vertex 48.3481 -16.992 22.6934
    endloop
  endfacet
  facet normal 0.317219 0.250362 0.914708
    outer loop
      vertex 48.2309 -21.0195 23.8364
      vertex 48.3481 -16.992 22.6934
      vertex 46.6033 -18.9664 23.8389
    endloop
  endfacet
  facet normal 0.326774 0.249217 0.911652
    outer loop
      vertex 49.9361 -19.1843 22.7235
      vertex 48.3481 -16.992 22.6934
      vertex 48.2309 -21.0195 23.8364
    endloop
  endfacet
  facet normal 0.358062 0.322151 0.876362
    outer loop
      vertex 50.1601 -15.2465 21.2563
      vertex 48.5261 -13.0525 21.1174
      vertex 46.6819 -14.9902 22.5832
    endloop
  endfacet
  facet normal 0.356658 0.344667 0.868332
    outer loop
      vertex 48.3481 -16.992 22.6934
      vertex 50.1601 -15.2465 21.2563
      vertex 46.6819 -14.9902 22.5832
    endloop
  endfacet
  facet normal 0.278725 0.284196 0.917358
    outer loop
      vertex 46.6033 -18.9664 23.8389
      vertex 46.6819 -14.9902 22.5832
      vertex 44.9119 -17.0674 23.7645
    endloop
  endfacet
  facet normal 0.280564 0.284001 0.916857
    outer loop
      vertex 48.3481 -16.992 22.6934
      vertex 46.6819 -14.9902 22.5832
      vertex 46.6033 -18.9664 23.8389
    endloop
  endfacet
  facet normal 0.313599 0.360695 0.878382
    outer loop
      vertex 48.5261 -13.0525 21.1174
      vertex 46.7732 -11.1403 20.958
      vertex 44.9354 -13.2248 22.4701
    endloop
  endfacet
  facet normal 0.312727 0.365544 0.876686
    outer loop
      vertex 46.6819 -14.9902 22.5832
      vertex 48.5261 -13.0525 21.1174
      vertex 44.9354 -13.2248 22.4701
    endloop
  endfacet
  facet normal 0.243319 0.308299 0.919645
    outer loop
      vertex 44.9119 -17.0674 23.7645
      vertex 44.9354 -13.2248 22.4701
      vertex 43.1404 -15.3859 23.6695
    endloop
  endfacet
  facet normal 0.25149 0.307588 0.917683
    outer loop
      vertex 46.6819 -14.9902 22.5832
      vertex 44.9354 -13.2248 22.4701
      vertex 44.9119 -17.0674 23.7645
    endloop
  endfacet
  facet normal 0.27464 0.390382 0.878735
    outer loop
      vertex 46.7732 -11.1403 20.958
      vertex 44.9053 -9.54776 20.8343
      vertex 43.0963 -11.7355 22.3716
    endloop
  endfacet
  facet normal 0.273165 0.395328 0.876982
    outer loop
      vertex 44.9354 -13.2248 22.4701
      vertex 46.7732 -11.1403 20.958
      vertex 43.0963 -11.7355 22.3716
    endloop
  endfacet
  facet normal 0.198942 0.330442 0.922622
    outer loop
      vertex 42 -13.0774 23.0886
      vertex 43.1404 -15.3859 23.6695
      vertex 43.0963 -11.7355 22.3716
    endloop
  endfacet
  facet normal 0.199028 0.330476 0.92259
    outer loop
      vertex 43.1404 -15.3859 23.6695
      vertex 42 -13.0774 23.0886
      vertex 42 -14.5034 23.5994
    endloop
  endfacet
  facet normal 0.21747 0.329319 0.918834
    outer loop
      vertex 43.1404 -15.3859 23.6695
      vertex 44.9354 -13.2248 22.4701
      vertex 43.0963 -11.7355 22.3716
    endloop
  endfacet
  facet normal 0.228887 0.419884 0.878242
    outer loop
      vertex 42 -9.46414 21.5515
      vertex 44.9053 -9.54776 20.8343
      vertex 42.9405 -8.28135 20.7409
    endloop
  endfacet
  facet normal 0.228886 0.419899 0.878235
    outer loop
      vertex 44.9053 -9.54776 20.8343
      vertex 42 -9.46414 21.5515
      vertex 42 -10.2972 21.9498
    endloop
  endfacet
  facet normal 0.225439 0.428438 0.874996
    outer loop
      vertex 42 -10.2972 21.9498
      vertex 43.0963 -11.7355 22.3716
      vertex 44.9053 -9.54776 20.8343
    endloop
  endfacet
  facet normal 0.225367 0.428394 0.875036
    outer loop
      vertex 43.0963 -11.7355 22.3716
      vertex 42 -10.2972 21.9498
      vertex 42 -11.0405 22.3137
    endloop
  endfacet
  facet normal 0.173385 0.350184 0.920494
    outer loop
      vertex 43.0963 -11.7355 22.3716
      vertex 42 -11.0405 22.3137
      vertex 42 -13.0774 23.0886
    endloop
  endfacet
  facet normal 0.184456 0.449087 0.874241
    outer loop
      vertex 42.9405 -8.28135 20.7409
      vertex 42 -7.82614 20.7055
      vertex 42 -8.58302 21.0943
    endloop
  endfacet
  facet normal 0.182673 0.452824 0.872686
    outer loop
      vertex 42.9405 -8.28135 20.7409
      vertex 42 -8.58302 21.0943
      vertex 42 -9.46414 21.5515
    endloop
  endfacet
  facet normal 0.711952 0.212297 0.669368
    outer loop
      vertex 56.0612 -22.2 18.9356
      vertex 55.8666 -21.7845 19.0108
      vertex 55.2344 -22.2 19.815
    endloop
  endfacet
  facet normal 0.817522 0.266657 0.510443
    outer loop
      vertex 57.0763 -22.2 17.4126
      vertex 57.5286 -22.2 16.6882
      vertex 57.0701 -21.1073 16.8517
    endloop
  endfacet
  facet normal 0.799322 0.277941 0.532759
    outer loop
      vertex 57.0763 -22.2 17.4126
      vertex 55.8666 -21.7845 19.0108
      vertex 56.0612 -22.2 18.9356
    endloop
  endfacet
  facet normal 0.799316 0.277999 0.532739
    outer loop
      vertex 55.8666 -21.7845 19.0108
      vertex 57.0763 -22.2 17.4126
      vertex 57.0701 -21.1073 16.8517
    endloop
  endfacet
  facet normal 0.782277 0.262178 0.565071
    outer loop
      vertex 57.0701 -21.1073 16.8517
      vertex 55.966 -18.4093 17.1284
      vertex 54.6267 -19.1438 19.3233
    endloop
  endfacet
  facet normal 0.787357 0.306382 0.534976
    outer loop
      vertex 55.8666 -21.7845 19.0108
      vertex 57.0701 -21.1073 16.8517
      vertex 54.6267 -19.1438 19.3233
    endloop
  endfacet
  facet normal 0.943172 0.302764 0.136972
    outer loop
      vertex 57.0273 -15.1869 11.8471
      vertex 57.7307 -16.3917 9.66667
      vertex 57.4538 -15.5291 9.66667
    endloop
  endfacet
  facet normal 0.943152 0.30285 0.136918
    outer loop
      vertex 57.7307 -16.3917 9.66667
      vertex 57.0273 -15.1869 11.8471
      vertex 57.9633 -18.0702 11.7771
    endloop
  endfacet
  facet normal 0.95495 0.274412 0.113
    outer loop
      vertex 57.9633 -18.0702 11.7771
      vertex 58.3178 -18.4348 9.66667
      vertex 57.7307 -16.3917 9.66667
    endloop
  endfacet
  facet normal 0.956894 0.280112 0.0767549
    outer loop
      vertex 58.8045 -20.8989 11.6131
      vertex 58.8164 -20.4062 9.66667
      vertex 57.9633 -18.0702 11.7771
    endloop
  endfacet
  facet normal 0.956879 0.280161 0.0767673
    outer loop
      vertex 58.8164 -20.4062 9.66667
      vertex 58.8045 -20.8989 11.6131
      vertex 59.0713 -21.2768 9.66667
    endloop
  endfacet
  facet normal 0.962512 0.243435 0.119622
    outer loop
      vertex 58.8164 -20.4062 9.66667
      vertex 58.3178 -18.4348 9.66667
      vertex 57.9633 -18.0702 11.7771
    endloop
  endfacet
  facet normal 0.952655 0.295089 0.0732901
    outer loop
      vertex 59.2161 -22.2 11.5016
      vertex 59.0713 -21.2768 9.66667
      vertex 58.8045 -20.8989 11.6131
    endloop
  endfacet
  facet normal 0.952643 0.295121 0.073307
    outer loop
      vertex 59.0713 -21.2768 9.66667
      vertex 59.2161 -22.2 11.5016
      vertex 59.3573 -22.2 9.66667
    endloop
  endfacet
  facet normal 0.915002 0.296738 0.273346
    outer loop
      vertex 58.0644 -20.7651 14.3642
      vertex 57.9633 -18.0702 11.7771
      vertex 57.0992 -18.0047 14.5985
    endloop
  endfacet
  facet normal 0.934531 0.26408 0.238564
    outer loop
      vertex 58.0644 -20.7651 14.3642
      vertex 58.8045 -20.8989 11.6131
      vertex 57.9633 -18.0702 11.7771
    endloop
  endfacet
  facet normal 0.92808 0.318839 0.192377
    outer loop
      vertex 58.5922 -22.2 14.1961
      vertex 58.8648 -22.2 12.881
      vertex 58.0644 -20.7651 14.3642
    endloop
  endfacet
  facet normal 0.931847 0.274467 0.237336
    outer loop
      vertex 58.8648 -22.2 12.881
      vertex 58.8045 -20.8989 11.6131
      vertex 58.0644 -20.7651 14.3642
    endloop
  endfacet
  facet normal 0.931855 0.274453 0.237321
    outer loop
      vertex 58.8045 -20.8989 11.6131
      vertex 58.8648 -22.2 12.881
      vertex 59.2161 -22.2 11.5016
    endloop
  endfacet
  facet normal 0.868678 0.306237 0.38938
    outer loop
      vertex 58.1197 -22.2 15.3695
      vertex 57.0701 -21.1073 16.8517
      vertex 57.5286 -22.2 16.6882
    endloop
  endfacet
  facet normal 0.868678 0.306266 0.389359
    outer loop
      vertex 57.0701 -21.1073 16.8517
      vertex 58.1197 -22.2 15.3695
      vertex 58.0644 -20.7651 14.3642
    endloop
  endfacet
  facet normal 0.889119 0.285102 0.358027
    outer loop
      vertex 58.1197 -22.2 15.3695
      vertex 58.5922 -22.2 14.1961
      vertex 58.0644 -20.7651 14.3642
    endloop
  endfacet
  facet normal 0.663718 0.259548 0.701508
    outer loop
      vertex 53.0999 -20.1664 21.1462
      vertex 54.4828 -22.2 20.5902
      vertex 54.6267 -19.1438 19.3233
    endloop
  endfacet
  facet normal 0.663887 0.259725 0.701282
    outer loop
      vertex 54.4828 -22.2 20.5902
      vertex 53.0999 -20.1664 21.1462
      vertex 54.1865 -22.2 20.8707
    endloop
  endfacet
  facet normal 0.69573 0.246866 0.674549
    outer loop
      vertex 55.2344 -22.2 19.815
      vertex 54.6267 -19.1438 19.3233
      vertex 54.4828 -22.2 20.5902
    endloop
  endfacet
  facet normal 0.69577 0.246867 0.674508
    outer loop
      vertex 54.6267 -19.1438 19.3233
      vertex 55.2344 -22.2 19.815
      vertex 55.8666 -21.7845 19.0108
    endloop
  endfacet
  facet normal 0.743956 0.277816 0.60774
    outer loop
      vertex 55.966 -18.4093 17.1284
      vertex 54.8073 -15.6383 17.2801
      vertex 53.3298 -16.4736 19.4706
    endloop
  endfacet
  facet normal 0.751086 0.333362 0.569859
    outer loop
      vertex 54.6267 -19.1438 19.3233
      vertex 55.966 -18.4093 17.1284
      vertex 53.3298 -16.4736 19.4706
    endloop
  endfacet
  facet normal 0.601321 0.298806 0.741032
    outer loop
      vertex 53.0999 -20.1664 21.1462
      vertex 53.3298 -16.4736 19.4706
      vertex 51.6769 -17.6534 21.2876
    endloop
  endfacet
  facet normal 0.653576 0.278618 0.703711
    outer loop
      vertex 54.6267 -19.1438 19.3233
      vertex 53.3298 -16.4736 19.4706
      vertex 53.0999 -20.1664 21.1462
    endloop
  endfacet
  facet normal 0.689036 0.31973 0.650386
    outer loop
      vertex 54.8073 -15.6383 17.2801
      vertex 53.5107 -12.8467 17.2814
      vertex 51.9176 -13.8433 19.4591
    endloop
  endfacet
  facet normal 0.695376 0.376023 0.612421
    outer loop
      vertex 53.3298 -16.4736 19.4706
      vertex 54.8073 -15.6383 17.2801
      vertex 51.9176 -13.8433 19.4591
    endloop
  endfacet
  facet normal 0.525071 0.341034 0.779741
    outer loop
      vertex 51.6769 -17.6534 21.2876
      vertex 51.9176 -13.8433 19.4591
      vertex 50.1601 -15.2465 21.2563
    endloop
  endfacet
  facet normal 0.588586 0.319257 0.742726
    outer loop
      vertex 53.3298 -16.4736 19.4706
      vertex 51.9176 -13.8433 19.4591
      vertex 51.6769 -17.6534 21.2876
    endloop
  endfacet
  facet normal 0.612265 0.408098 0.677191
    outer loop
      vertex 53.5107 -12.8467 17.2814
      vertex 51.9468 -10.1964 17.0982
      vertex 50.3211 -11.4057 19.2968
    endloop
  endfacet
  facet normal 0.613349 0.44515 0.652414
    outer loop
      vertex 51.9176 -13.8433 19.4591
      vertex 53.5107 -12.8467 17.2814
      vertex 50.3211 -11.4057 19.2968
    endloop
  endfacet
  facet normal 0.454915 0.389502 0.800837
    outer loop
      vertex 50.1601 -15.2465 21.2563
      vertex 50.3211 -11.4057 19.2968
      vertex 48.5261 -13.0525 21.1174
    endloop
  endfacet
  facet normal 0.497226 0.377665 0.781112
    outer loop
      vertex 51.9176 -13.8433 19.4591
      vertex 50.3211 -11.4057 19.2968
      vertex 50.1601 -15.2465 21.2563
    endloop
  endfacet
  facet normal 0.525281 0.509778 0.681327
    outer loop
      vertex 51.9468 -10.1964 17.0982
      vertex 50.075 -7.88142 16.8092
      vertex 48.5191 -9.30194 19.0716
    endloop
  endfacet
  facet normal 0.523919 0.520909 0.673916
    outer loop
      vertex 50.3211 -11.4057 19.2968
      vertex 51.9468 -10.1964 17.0982
      vertex 48.5191 -9.30194 19.0716
    endloop
  endfacet
  facet normal 0.405244 0.43836 0.802258
    outer loop
      vertex 48.5261 -13.0525 21.1174
      vertex 48.5191 -9.30194 19.0716
      vertex 46.7732 -11.1403 20.958
    endloop
  endfacet
  facet normal 0.410468 0.43725 0.800205
    outer loop
      vertex 48.5261 -13.0525 21.1174
      vertex 50.3211 -11.4057 19.2968
      vertex 48.5191 -9.30194 19.0716
    endloop
  endfacet
  facet normal 0.447073 0.59337 0.669356
    outer loop
      vertex 50.075 -7.88142 16.8092
      vertex 47.9778 -5.9825 16.5266
      vertex 46.5562 -7.56166 18.876
    endloop
  endfacet
  facet normal 0.450046 0.583589 0.675931
    outer loop
      vertex 48.5191 -9.30194 19.0716
      vertex 50.075 -7.88142 16.8092
      vertex 46.5562 -7.56166 18.876
    endloop
  endfacet
  facet normal 0.360954 0.485226 0.796409
    outer loop
      vertex 46.7732 -11.1403 20.958
      vertex 46.5562 -7.56166 18.876
      vertex 44.9053 -9.54776 20.8343
    endloop
  endfacet
  facet normal 0.35171 0.486586 0.799709
    outer loop
      vertex 46.7732 -11.1403 20.958
      vertex 48.5191 -9.30194 19.0716
      vertex 46.5562 -7.56166 18.876
    endloop
  endfacet
  facet normal 0.378763 0.649987 0.658829
    outer loop
      vertex 47.9778 -5.9825 16.5266
      vertex 45.7667 -4.48189 16.3173
      vertex 44.4922 -6.19233 18.7375
    endloop
  endfacet
  facet normal 0.382168 0.643158 0.663548
    outer loop
      vertex 46.5562 -7.56166 18.876
      vertex 47.9778 -5.9825 16.5266
      vertex 44.4922 -6.19233 18.7375
    endloop
  endfacet
  facet normal 0.304952 0.531413 0.790319
    outer loop
      vertex 44.9053 -9.54776 20.8343
      vertex 44.4922 -6.19233 18.7375
      vertex 42.9405 -8.28135 20.7409
    endloop
  endfacet
  facet normal 0.299694 0.531841 0.792041
    outer loop
      vertex 44.9053 -9.54776 20.8343
      vertex 46.5562 -7.56166 18.876
      vertex 44.4922 -6.19233 18.7375
    endloop
  endfacet
  facet normal 0.30663 0.694321 0.651073
    outer loop
      vertex 45.7667 -4.48189 16.3173
      vertex 43.5198 -3.37276 16.1927
      vertex 42.3951 -5.17646 18.6459
    endloop
  endfacet
  facet normal 0.307367 0.693284 0.65183
    outer loop
      vertex 44.4922 -6.19233 18.7375
      vertex 45.7667 -4.48189 16.3173
      vertex 42.3951 -5.17646 18.6459
    endloop
  endfacet
  facet normal 0.24717 0.571432 0.782542
    outer loop
      vertex 42 -5.74506 19.1859
      vertex 42.9405 -8.28135 20.7409
      vertex 42.3951 -5.17646 18.6459
    endloop
  endfacet
  facet normal 0.24712 0.571426 0.782563
    outer loop
      vertex 42.9405 -8.28135 20.7409
      vertex 42 -5.74506 19.1859
      vertex 42 -7.82614 20.7055
    endloop
  endfacet
  facet normal 0.242624 0.571539 0.783886
    outer loop
      vertex 42.9405 -8.28135 20.7409
      vertex 44.4922 -6.19233 18.7375
      vertex 42.3951 -5.17646 18.6459
    endloop
  endfacet
  facet normal 0.234237 0.736059 0.635099
    outer loop
      vertex 43.5198 -3.37276 16.1927
      vertex 42 -2.85296 16.1508
      vertex 42 -3.87361 17.3337
    endloop
  endfacet
  facet normal 0.245576 0.723861 0.644761
    outer loop
      vertex 42.3951 -5.17646 18.6459
      vertex 42 -3.87361 17.3337
      vertex 42 -5.03271 18.635
    endloop
  endfacet
  facet normal 0.245523 0.723863 0.644779
    outer loop
      vertex 42 -3.87361 17.3337
      vertex 42.3951 -5.17646 18.6459
      vertex 43.5198 -3.37276 16.1927
    endloop
  endfacet
  facet normal 0.750013 0.594021 0.290895
    outer loop
      vertex 53.3022 -9.55455 14.4921
      vertex 54.3812 -9.47648 11.5507
      vertex 52.4704 -6.88981 11.1952
    endloop
  endfacet
  facet normal 0.737013 0.604381 0.302548
    outer loop
      vertex 53.3022 -9.55455 14.4921
      vertex 52.4704 -6.88981 11.1952
      vertex 51.3957 -7.06522 14.1636
    endloop
  endfacet
  facet normal 0.546569 0.676993 0.492891
    outer loop
      vertex 50.075 -7.88142 16.8092
      vertex 49.1922 -4.99216 13.8197
      vertex 47.9778 -5.9825 16.5266
    endloop
  endfacet
  facet normal 0.557444 0.673134 0.48595
    outer loop
      vertex 50.075 -7.88142 16.8092
      vertex 51.3957 -7.06522 14.1636
      vertex 49.1922 -4.99216 13.8197
    endloop
  endfacet
  facet normal 0.928872 0.347916 0.127088
    outer loop
      vertex 57.0273 -15.1869 11.8471
      vertex 57.4538 -15.5291 9.66667
      vertex 56.7121 -13.5489 9.66667
    endloop
  endfacet
  facet normal 0.91839 0.368486 0.144146
    outer loop
      vertex 55.8753 -12.2899 11.7797
      vertex 56.7121 -13.5489 9.66667
      vertex 56.3339 -12.6063 9.66667
    endloop
  endfacet
  facet normal 0.918373 0.368546 0.144103
    outer loop
      vertex 56.7121 -13.5489 9.66667
      vertex 55.8753 -12.2899 11.7797
      vertex 57.0273 -15.1869 11.8471
    endloop
  endfacet
  facet normal 0.458224 0.743181 0.487558
    outer loop
      vertex 47.9778 -5.9825 16.5266
      vertex 46.8321 -3.32778 13.5568
      vertex 45.7667 -4.48189 16.3173
    endloop
  endfacet
  facet normal 0.468744 0.740704 0.481286
    outer loop
      vertex 47.9778 -5.9825 16.5266
      vertex 49.1922 -4.99216 13.8197
      vertex 46.8321 -3.32778 13.5568
    endloop
  endfacet
  facet normal 0.438216 0.848287 0.297281
    outer loop
      vertex 47.7612 -2.80866 10.4907
      vertex 45.2318 -1.42984 10.2848
      vertex 44.4134 -2.10099 13.4063
    endloop
  endfacet
  facet normal 0.421413 0.864466 0.27406
    outer loop
      vertex 46.8321 -3.32778 13.5568
      vertex 47.7612 -2.80866 10.4907
      vertex 44.4134 -2.10099 13.4063
    endloop
  endfacet
  facet normal 0.366466 0.796435 0.481035
    outer loop
      vertex 45.7667 -4.48189 16.3173
      vertex 44.4134 -2.10099 13.4063
      vertex 43.5198 -3.37276 16.1927
    endloop
  endfacet
  facet normal 0.373824 0.795521 0.476867
    outer loop
      vertex 45.7667 -4.48189 16.3173
      vertex 46.8321 -3.32778 13.5568
      vertex 44.4134 -2.10099 13.4063
    endloop
  endfacet
  facet normal 0.196827 0.599792 0.77557
    outer loop
      vertex 42.3951 -5.17646 18.6459
      vertex 42 -5.03271 18.635
      vertex 42 -5.74506 19.1859
    endloop
  endfacet
endsolid OpenSCAD_Model
