solid OpenSCAD_Model
  facet normal 1 0 0
    outer loop
      vertex 21 -22.2 -9.66667
      vertex 21 -16.0197 -12.4953
      vertex 21 -14.8799 -10.8996
    endloop
  endfacet
  facet normal 1 0 0
    outer loop
      vertex 21 -16.0197 -12.4953
      vertex 21 -22.2 -9.66667
      vertex 21 -16.4626 -13.0366
    endloop
  endfacet
  facet normal 1 -0 0
    outer loop
      vertex 21 -22.2 -9.66667
      vertex 21 -14.8799 -10.8996
      vertex 21 -13.9076 -9.66667
    endloop
  endfacet
  facet normal 1 0 0
    outer loop
      vertex 21 -16.4626 -13.0366
      vertex 21 -22.2 -9.66667
      vertex 21 -17.7854 -14.2408
    endloop
  endfacet
  facet normal 1 0 0
    outer loop
      vertex 21 -17.7854 -14.2408
      vertex 21 -22.2 -9.66667
      vertex 21 -18.948 -15.469
    endloop
  endfacet
  facet normal 1 0 0
    outer loop
      vertex 21 -18.948 -15.469
      vertex 21 -22.2 -9.66667
      vertex 21 -19.854 -16.2972
    endloop
  endfacet
  facet normal 1 0 0
    outer loop
      vertex 21 -19.854 -16.2972
      vertex 21 -22.2 -9.66667
      vertex 21 -21.0981 -17.18
    endloop
  endfacet
  facet normal 1 0 0
    outer loop
      vertex 21 -21.0981 -17.18
      vertex 21 -22.2 -9.66667
      vertex 21 -22.1368 -18.054
    endloop
  endfacet
  facet normal 1 0 0
    outer loop
      vertex 21 -22.1368 -18.054
      vertex 21 -22.2 -9.66667
      vertex 21 -22.2 -18.0983
    endloop
  endfacet
  facet normal -0 0 1
    outer loop
      vertex 20.865 -14.0117 -9.66667
      vertex 21 -22.2 -9.66667
      vertex 21 -13.9076 -9.66667
    endloop
  endfacet
  facet normal -0 0 1
    outer loop
      vertex 19.523 -15.12 -9.66667
      vertex 21 -22.2 -9.66667
      vertex 20.865 -14.0117 -9.66667
    endloop
  endfacet
  facet normal -0 0 1
    outer loop
      vertex 19.2944 -15.3134 -9.66667
      vertex 21 -22.2 -9.66667
      vertex 19.523 -15.12 -9.66667
    endloop
  endfacet
  facet normal -0 0 1
    outer loop
      vertex 17.6213 -16.9151 -9.66667
      vertex 21 -22.2 -9.66667
      vertex 19.2944 -15.3134 -9.66667
    endloop
  endfacet
  facet normal -0 0 1
    outer loop
      vertex 17.1779 -17.3385 -9.66667
      vertex 21 -22.2 -9.66667
      vertex 17.6213 -16.9151 -9.66667
    endloop
  endfacet
  facet normal -0 0 1
    outer loop
      vertex 16.7136 -17.8726 -9.66667
      vertex 21 -22.2 -9.66667
      vertex 17.1779 -17.3385 -9.66667
    endloop
  endfacet
  facet normal -0 0 1
    outer loop
      vertex 15.2613 -19.5327 -9.66667
      vertex 21 -22.2 -9.66667
      vertex 16.7136 -17.8726 -9.66667
    endloop
  endfacet
  facet normal -0 0 1
    outer loop
      vertex 14.1951 -21.0792 -9.66667
      vertex 21 -22.2 -9.66667
      vertex 15.2613 -19.5327 -9.66667
    endloop
  endfacet
  facet normal -0 0 1
    outer loop
      vertex 13.6204 -21.9233 -9.66667
      vertex 21 -22.2 -9.66667
      vertex 14.1951 -21.0792 -9.66667
    endloop
  endfacet
  facet normal 0 0 1
    outer loop
      vertex 21 -22.2 -9.66667
      vertex 13.6204 -21.9233 -9.66667
      vertex 13.4689 -22.2 -9.66667
    endloop
  endfacet
  facet normal 0 -1 0
    outer loop
      vertex 14.0459 -22.2 -10.7969
      vertex 21 -22.2 -9.66667
      vertex 13.4689 -22.2 -9.66667
    endloop
  endfacet
  facet normal 0 -1 0
    outer loop
      vertex 14.1586 -22.2 -10.9799
      vertex 14.0459 -22.2 -10.7969
      vertex 14.0958 -22.2 -10.8888
    endloop
  endfacet
  facet normal 0 -1 0
    outer loop
      vertex 14.1586 -22.2 -10.9799
      vertex 14.0958 -22.2 -10.8888
      vertex 14.1128 -22.2 -10.9196
    endloop
  endfacet
  facet normal 0 -1 0
    outer loop
      vertex 14.0459 -22.2 -10.7969
      vertex 14.1586 -22.2 -10.9799
      vertex 21 -22.2 -9.66667
    endloop
  endfacet
  facet normal 0 -1 0
    outer loop
      vertex 16.3846 -22.2 -14.0226
      vertex 21 -22.2 -9.66667
      vertex 14.1586 -22.2 -10.9799
    endloop
  endfacet
  facet normal 0 -1 0
    outer loop
      vertex 17.5687 -22.2 -15.2582
      vertex 21 -22.2 -9.66667
      vertex 16.3846 -22.2 -14.0226
    endloop
  endfacet
  facet normal 0 -1 0
    outer loop
      vertex 19.1065 -22.2 -16.7297
      vertex 21 -22.2 -9.66667
      vertex 17.5687 -22.2 -15.2582
    endloop
  endfacet
  facet normal 0 -1 0
    outer loop
      vertex 19.6423 -22.2 -17.1433
      vertex 21 -22.2 -9.66667
      vertex 19.1065 -22.2 -16.7297
    endloop
  endfacet
  facet normal 0 -1 -0
    outer loop
      vertex 21 -22.2 -9.66667
      vertex 19.6423 -22.2 -17.1433
      vertex 21 -22.2 -18.0983
    endloop
  endfacet
  facet normal -0.800536 0.438313 -0.408686
    outer loop
      vertex 13.6204 -21.9233 -9.66667
      vertex 14.0459 -22.2 -10.7969
      vertex 13.4689 -22.2 -9.66667
    endloop
  endfacet
  facet normal -0.631998 0.660171 -0.405898
    outer loop
      vertex 19.4351 -15.4032 -10.0318
      vertex 17.6213 -16.9151 -9.66667
      vertex 19.2944 -15.3134 -9.66667
    endloop
  endfacet
  facet normal -0.632006 0.660192 -0.405852
    outer loop
      vertex 17.6213 -16.9151 -9.66667
      vertex 19.4351 -15.4032 -10.0318
      vertex 17.4615 -17.5251 -10.4101
    endloop
  endfacet
  facet normal -0.63096 0.660764 -0.406546
    outer loop
      vertex 17.6213 -16.9151 -9.66667
      vertex 17.4615 -17.5251 -10.4101
      vertex 17.1779 -17.3385 -9.66667
    endloop
  endfacet
  facet normal -0.686518 0.600537 -0.409938
    outer loop
      vertex 15.6545 -19.7913 -10.7038
      vertex 16.7136 -17.8726 -9.66667
      vertex 17.4615 -17.5251 -10.4101
    endloop
  endfacet
  facet normal -0.686474 0.600545 -0.409999
    outer loop
      vertex 16.7136 -17.8726 -9.66667
      vertex 15.6545 -19.7913 -10.7038
      vertex 15.2613 -19.5327 -9.66667
    endloop
  endfacet
  facet normal -0.687564 0.597708 -0.412312
    outer loop
      vertex 17.1779 -17.3385 -9.66667
      vertex 17.4615 -17.5251 -10.4101
      vertex 16.7136 -17.8726 -9.66667
    endloop
  endfacet
  facet normal -0.619004 0.58303 -0.526223
    outer loop
      vertex 17.4615 -17.5251 -10.4101
      vertex 19.2861 -18.3458 -13.4657
      vertex 17.4216 -20.6694 -13.8469
    endloop
  endfacet
  facet normal -0.635175 0.573516 -0.517331
    outer loop
      vertex 17.4615 -17.5251 -10.4101
      vertex 17.4216 -20.6694 -13.8469
      vertex 15.6545 -19.7913 -10.7038
    endloop
  endfacet
  facet normal -0.6876 0.523602 -0.503039
    outer loop
      vertex 17.4216 -20.6694 -13.8469
      vertex 16.3846 -22.2 -14.0226
      vertex 14.1586 -22.2 -10.9799
    endloop
  endfacet
  facet normal -0.693512 0.491119 -0.527109
    outer loop
      vertex 14.1586 -22.2 -10.9799
      vertex 15.6545 -19.7913 -10.7038
      vertex 17.4216 -20.6694 -13.8469
    endloop
  endfacet
  facet normal -0.693658 0.491181 -0.526858
    outer loop
      vertex 15.6545 -19.7913 -10.7038
      vertex 14.1586 -22.2 -10.9799
      vertex 14.1128 -22.2 -10.9196
    endloop
  endfacet
  facet normal -0.754177 0.513345 -0.409504
    outer loop
      vertex 14.0459 -22.2 -10.7969
      vertex 14.1951 -21.0792 -9.66667
      vertex 14.0958 -22.2 -10.8888
    endloop
  endfacet
  facet normal -0.754086 0.513415 -0.409585
    outer loop
      vertex 14.1951 -21.0792 -9.66667
      vertex 14.0459 -22.2 -10.7969
      vertex 13.6204 -21.9233 -9.66667
    endloop
  endfacet
  facet normal -0.749755 0.516902 -0.413135
    outer loop
      vertex 15.6545 -19.7913 -10.7038
      vertex 14.1951 -21.0792 -9.66667
      vertex 15.2613 -19.5327 -9.66667
    endloop
  endfacet
  facet normal -0.749518 0.516797 -0.413695
    outer loop
      vertex 14.0958 -22.2 -10.8888
      vertex 15.6545 -19.7913 -10.7038
      vertex 14.1128 -22.2 -10.9196
    endloop
  endfacet
  facet normal -0.749755 0.516906 -0.413129
    outer loop
      vertex 15.6545 -19.7913 -10.7038
      vertex 14.0958 -22.2 -10.8888
      vertex 14.1951 -21.0792 -9.66667
    endloop
  endfacet
  facet normal -0.592902 0.514339 -0.619615
    outer loop
      vertex 17.4216 -20.6694 -13.8469
      vertex 19.1065 -22.2 -16.7297
      vertex 17.5687 -22.2 -15.2582
    endloop
  endfacet
  facet normal -0.592881 0.514362 -0.619616
    outer loop
      vertex 19.1065 -22.2 -16.7297
      vertex 17.4216 -20.6694 -13.8469
      vertex 19.5847 -21.5446 -16.6432
    endloop
  endfacet
  facet normal -0.627633 0.494273 -0.601473
    outer loop
      vertex 17.4216 -20.6694 -13.8469
      vertex 17.5687 -22.2 -15.2582
      vertex 16.3846 -22.2 -14.0226
    endloop
  endfacet
  facet normal -0.510973 0.69948 -0.499635
    outer loop
      vertex 21 -14.8799 -10.8996
      vertex 21 -16.0197 -12.4953
      vertex 19.4351 -15.4032 -10.0318
    endloop
  endfacet
  facet normal -0.517942 0.671683 -0.529696
    outer loop
      vertex 21 -14.8799 -10.8996
      vertex 20.865 -14.0117 -9.66667
      vertex 21 -13.9076 -9.66667
    endloop
  endfacet
  facet normal -0.518245 0.671516 -0.529611
    outer loop
      vertex 20.865 -14.0117 -9.66667
      vertex 21 -14.8799 -10.8996
      vertex 19.4351 -15.4032 -10.0318
    endloop
  endfacet
  facet normal -0.591915 0.699648 -0.400161
    outer loop
      vertex 19.523 -15.12 -9.66667
      vertex 19.4351 -15.4032 -10.0318
      vertex 19.2944 -15.3134 -9.66667
    endloop
  endfacet
  facet normal -0.581829 0.704516 -0.406365
    outer loop
      vertex 19.523 -15.12 -9.66667
      vertex 20.865 -14.0117 -9.66667
      vertex 19.4351 -15.4032 -10.0318
    endloop
  endfacet
  facet normal -0.480809 0.636781 -0.60277
    outer loop
      vertex 21 -17.7854 -14.2408
      vertex 21 -18.948 -15.469
      vertex 19.2861 -18.3458 -13.4657
    endloop
  endfacet
  facet normal -0.484962 0.588719 -0.646701
    outer loop
      vertex 21 -16.4626 -13.0366
      vertex 21 -17.7854 -14.2408
      vertex 19.2861 -18.3458 -13.4657
    endloop
  endfacet
  facet normal -0.579619 0.631032 -0.515598
    outer loop
      vertex 19.4351 -15.4032 -10.0318
      vertex 19.2861 -18.3458 -13.4657
      vertex 17.4615 -17.5251 -10.4101
    endloop
  endfacet
  facet normal -0.568956 0.636467 -0.520767
    outer loop
      vertex 19.2861 -18.3458 -13.4657
      vertex 21 -16.0197 -12.4953
      vertex 21 -16.4626 -13.0366
    endloop
  endfacet
  facet normal -0.56899 0.636474 -0.520722
    outer loop
      vertex 21 -16.0197 -12.4953
      vertex 19.2861 -18.3458 -13.4657
      vertex 19.4351 -15.4032 -10.0318
    endloop
  endfacet
  facet normal -0.442423 0.577396 -0.686203
    outer loop
      vertex 21 -21.0981 -17.18
      vertex 21 -22.1368 -18.054
      vertex 19.5847 -21.5446 -16.6432
    endloop
  endfacet
  facet normal -0.441382 0.519278 -0.731801
    outer loop
      vertex 21 -19.854 -16.2972
      vertex 21 -21.0981 -17.18
      vertex 19.5847 -21.5446 -16.6432
    endloop
  endfacet
  facet normal -0.565556 0.554034 -0.610895
    outer loop
      vertex 19.2861 -18.3458 -13.4657
      vertex 19.5847 -21.5446 -16.6432
      vertex 17.4216 -20.6694 -13.8469
    endloop
  endfacet
  facet normal -0.53034 0.572037 -0.62571
    outer loop
      vertex 19.2861 -18.3458 -13.4657
      vertex 21 -19.854 -16.2972
      vertex 19.5847 -21.5446 -16.6432
    endloop
  endfacet
  facet normal -0.530395 0.571982 -0.625713
    outer loop
      vertex 21 -19.854 -16.2972
      vertex 19.2861 -18.3458 -13.4657
      vertex 21 -18.948 -15.469
    endloop
  endfacet
  facet normal -0.535342 0.482132 -0.693511
    outer loop
      vertex 19.5847 -21.5446 -16.6432
      vertex 19.6423 -22.2 -17.1433
      vertex 19.1065 -22.2 -16.7297
    endloop
  endfacet
  facet normal -0.499114 0.497378 -0.709578
    outer loop
      vertex 19.6423 -22.2 -17.1433
      vertex 21 -22.1368 -18.054
      vertex 21 -22.2 -18.0983
    endloop
  endfacet
  facet normal -0.499072 0.497524 -0.709505
    outer loop
      vertex 21 -22.1368 -18.054
      vertex 19.6423 -22.2 -17.1433
      vertex 19.5847 -21.5446 -16.6432
    endloop
  endfacet
endsolid OpenSCAD_Model
