solid OpenSCAD_Model
  facet normal 1 0 0
    outer loop
      vertex 21 -6.67421 10.2199
      vertex 21 -6.59404 9.66667
      vertex 21 -6.58906 9.80726
    endloop
  endfacet
  facet normal 1 0 0
    outer loop
      vertex 21 -22.2 9.66667
      vertex 21 -6.67421 10.2199
      vertex 21 -7.0803 12.4761
    endloop
  endfacet
  facet normal 1 0 0
    outer loop
      vertex 21 -22.2 9.66667
      vertex 21 -7.0803 12.4761
      vertex 21 -7.68471 13.7958
    endloop
  endfacet
  facet normal 1 0 0
    outer loop
      vertex 21 -9.35193 16.574
      vertex 21 -7.68471 13.7958
      vertex 21 -8.23142 15.0768
    endloop
  endfacet
  facet normal 1 0 0
    outer loop
      vertex 21 -7.68471 13.7958
      vertex 21 -9.35193 16.574
      vertex 21 -22.2 9.66667
    endloop
  endfacet
  facet normal 1 0 0
    outer loop
      vertex 21 -22.2 9.66667
      vertex 21 -9.35193 16.574
      vertex 21 -9.84204 17.1794
    endloop
  endfacet
  facet normal 1 0 0
    outer loop
      vertex 21 -22.2 9.66667
      vertex 21 -9.84204 17.1794
      vertex 21 -10.1467 17.521
    endloop
  endfacet
  facet normal 1 0 0
    outer loop
      vertex 21 -22.2 9.66667
      vertex 21 -10.1467 17.521
      vertex 21 -11.2735 18.4919
    endloop
  endfacet
  facet normal 1 0 0
    outer loop
      vertex 21 -22.2 9.66667
      vertex 21 -11.2735 18.4919
      vertex 21 -12.6096 19.5843
    endloop
  endfacet
  facet normal 1 0 0
    outer loop
      vertex 21 -22.2 9.66667
      vertex 21 -12.6096 19.5843
      vertex 21 -12.9036 19.8041
    endloop
  endfacet
  facet normal 1 0 0
    outer loop
      vertex 21 -22.2 9.66667
      vertex 21 -12.9036 19.8041
      vertex 21 -15.6101 21.4225
    endloop
  endfacet
  facet normal 1 0 0
    outer loop
      vertex 21 -22.2 9.66667
      vertex 21 -15.6101 21.4225
      vertex 21 -16.059 21.6638
    endloop
  endfacet
  facet normal 1 0 0
    outer loop
      vertex 21 -22.2 9.66667
      vertex 21 -16.059 21.6638
      vertex 21 -16.6619 22.0065
    endloop
  endfacet
  facet normal 1 0 0
    outer loop
      vertex 21 -22.2 9.66667
      vertex 21 -16.6619 22.0065
      vertex 21 -17.8061 22.5279
    endloop
  endfacet
  facet normal 1 0 0
    outer loop
      vertex 21 -22.2 9.66667
      vertex 21 -17.8061 22.5279
      vertex 21 -18.5333 22.8956
    endloop
  endfacet
  facet normal 1 0 0
    outer loop
      vertex 21 -22.2 9.66667
      vertex 21 -18.5333 22.8956
      vertex 21 -21.2953 24.1271
    endloop
  endfacet
  facet normal 1 0 0
    outer loop
      vertex 21 -22.2 9.66667
      vertex 21 -21.2953 24.1271
      vertex 21 -21.4832 24.1973
    endloop
  endfacet
  facet normal 1 0 0
    outer loop
      vertex 21 -22.2 9.66667
      vertex 21 -21.4832 24.1973
      vertex 21 -22.2 24.4383
    endloop
  endfacet
  facet normal 1 0 0
    outer loop
      vertex 21 -6.67421 10.2199
      vertex 21 -22.2 9.66667
      vertex 21 -6.59404 9.66667
    endloop
  endfacet
  facet normal 0 0 -1
    outer loop
      vertex 21 -22.2 9.66667
      vertex 19.185 -8.1302 9.66667
      vertex 21 -6.59404 9.66667
    endloop
  endfacet
  facet normal 0 0 -1
    outer loop
      vertex 18.5168 -8.72399 9.66667
      vertex 19.185 -8.1302 9.66667
      vertex 21 -22.2 9.66667
    endloop
  endfacet
  facet normal 0 0 -1
    outer loop
      vertex 19.185 -8.1302 9.66667
      vertex 18.5168 -8.72399 9.66667
      vertex 18.8701 -8.38676 9.66667
    endloop
  endfacet
  facet normal 0 0 -1
    outer loop
      vertex 21 -22.2 9.66667
      vertex 16.5625 -10.6206 9.66667
      vertex 18.5168 -8.72399 9.66667
    endloop
  endfacet
  facet normal 0 0 -1
    outer loop
      vertex 21 -22.2 9.66667
      vertex 15.0332 -12.3716 9.66667
      vertex 16.5625 -10.6206 9.66667
    endloop
  endfacet
  facet normal 0 0 -1
    outer loop
      vertex 21 -22.2 9.66667
      vertex 14.3811 -13.0983 9.66667
      vertex 15.0332 -12.3716 9.66667
    endloop
  endfacet
  facet normal 0 0 -1
    outer loop
      vertex 21 -22.2 9.66667
      vertex 13.68 -14.0332 9.66667
      vertex 14.3811 -13.0983 9.66667
    endloop
  endfacet
  facet normal 0 0 -1
    outer loop
      vertex 21 -22.2 9.66667
      vertex 12.3906 -15.8241 9.66667
      vertex 13.68 -14.0332 9.66667
    endloop
  endfacet
  facet normal 0 0 -1
    outer loop
      vertex 21 -22.2 9.66667
      vertex 11.4964 -17.4557 9.66667
      vertex 12.3906 -15.8241 9.66667
    endloop
  endfacet
  facet normal 0 0 -1
    outer loop
      vertex 21 -22.2 9.66667
      vertex 10.7112 -18.793 9.66667
      vertex 11.4964 -17.4557 9.66667
    endloop
  endfacet
  facet normal 0 0 -1
    outer loop
      vertex 21 -22.2 9.66667
      vertex 9.98057 -20.4903 9.66667
      vertex 10.7112 -18.793 9.66667
    endloop
  endfacet
  facet normal 0 0 -1
    outer loop
      vertex 21 -22.2 9.66667
      vertex 9.39244 -21.9371 9.66667
      vertex 9.98057 -20.4903 9.66667
    endloop
  endfacet
  facet normal 0 -0 -1
    outer loop
      vertex 9.39244 -21.9371 9.66667
      vertex 21 -22.2 9.66667
      vertex 9.31046 -22.2 9.66667
    endloop
  endfacet
  facet normal 0 -1 0
    outer loop
      vertex 19.6104 -22.2 23.6872
      vertex 21 -22.2 24.4383
      vertex 20.5586 -22.2 24.2468
    endloop
  endfacet
  facet normal 0 -1 0
    outer loop
      vertex 21 -22.2 9.66667
      vertex 19.6104 -22.2 23.6872
      vertex 18.0456 -22.2 22.7691
    endloop
  endfacet
  facet normal 0 -1 0
    outer loop
      vertex 21 -22.2 9.66667
      vertex 18.0456 -22.2 22.7691
      vertex 16.4209 -22.2 21.5533
    endloop
  endfacet
  facet normal 0 -1 0
    outer loop
      vertex 21 -22.2 9.66667
      vertex 16.4209 -22.2 21.5533
      vertex 15.7045 -22.2 21.0213
    endloop
  endfacet
  facet normal 0 -1 0
    outer loop
      vertex 21 -22.2 9.66667
      vertex 15.7045 -22.2 21.0213
      vertex 13.768 -22.2 19.1819
    endloop
  endfacet
  facet normal 0 -1 0
    outer loop
      vertex 21 -22.2 9.66667
      vertex 13.768 -22.2 19.1819
      vertex 13.5922 -22.2 19.0186
    endloop
  endfacet
  facet normal 0 -1 0
    outer loop
      vertex 21 -22.2 9.66667
      vertex 13.5922 -22.2 19.0186
      vertex 12.4501 -22.2 17.5707
    endloop
  endfacet
  facet normal 0 -1 0
    outer loop
      vertex 21 -22.2 9.66667
      vertex 12.4501 -22.2 17.5707
      vertex 11.8635 -22.2 16.8203
    endloop
  endfacet
  facet normal 0 -1 0
    outer loop
      vertex 21 -22.2 9.66667
      vertex 11.8635 -22.2 16.8203
      vertex 11.8088 -22.2 16.745
    endloop
  endfacet
  facet normal 0 -1 0
    outer loop
      vertex 21 -22.2 9.66667
      vertex 11.8088 -22.2 16.745
      vertex 10.5633 -22.2 14.3767
    endloop
  endfacet
  facet normal 0 -1 0
    outer loop
      vertex 21 -22.2 9.66667
      vertex 10.5633 -22.2 14.3767
      vertex 10.4698 -22.2 14.1866
    endloop
  endfacet
  facet normal 0 -1 0
    outer loop
      vertex 21 -22.2 9.66667
      vertex 10.4698 -22.2 14.1866
      vertex 9.65927 -22.2 11.6437
    endloop
  endfacet
  facet normal 0 -1 0
    outer loop
      vertex 21 -22.2 9.66667
      vertex 9.65927 -22.2 11.6437
      vertex 9.58751 -22.2 11.4107
    endloop
  endfacet
  facet normal 0 -1 0
    outer loop
      vertex 21 -22.2 9.66667
      vertex 9.58751 -22.2 11.4107
      vertex 9.31046 -22.2 9.66667
    endloop
  endfacet
  facet normal 0 -1 0
    outer loop
      vertex 19.6104 -22.2 23.6872
      vertex 21 -22.2 9.66667
      vertex 21 -22.2 24.4383
    endloop
  endfacet
  facet normal -0.48964 0.447483 0.748339
    outer loop
      vertex 21 -15.6101 21.4225
      vertex 21 -12.9036 19.8041
      vertex 19.4613 -15.0122 20.0582
    endloop
  endfacet
  facet normal -0.538151 0.550173 0.638516
    outer loop
      vertex 21 -11.2735 18.4919
      vertex 21 -10.1467 17.521
      vertex 19.4668 -11.8712 17.7147
    endloop
  endfacet
  facet normal -0.538573 0.533327 0.652305
    outer loop
      vertex 21 -12.6096 19.5843
      vertex 21 -11.2735 18.4919
      vertex 19.4668 -11.8712 17.7147
    endloop
  endfacet
  facet normal -0.556311 0.497546 0.665557
    outer loop
      vertex 19.4613 -15.0122 20.0582
      vertex 19.4668 -11.8712 17.7147
      vertex 17.6462 -14.2668 17.9838
    endloop
  endfacet
  facet normal -0.566958 0.493242 0.659751
    outer loop
      vertex 19.4668 -11.8712 17.7147
      vertex 21 -12.9036 19.8041
      vertex 21 -12.6096 19.5843
    endloop
  endfacet
  facet normal -0.566965 0.493233 0.659751
    outer loop
      vertex 21 -12.9036 19.8041
      vertex 19.4668 -11.8712 17.7147
      vertex 19.4613 -15.0122 20.0582
    endloop
  endfacet
  facet normal -0.598673 0.622556 0.503999
    outer loop
      vertex 21 -9.35193 16.574
      vertex 18.1372 -11.1786 15.4298
      vertex 21 -9.84204 17.1794
    endloop
  endfacet
  facet normal -0.59867 0.622526 0.504039
    outer loop
      vertex 18.1372 -11.1786 15.4298
      vertex 21 -9.35193 16.574
      vertex 20.2665 -8.9182 15.1671
    endloop
  endfacet
  facet normal -0.602659 0.595552 0.53115
    outer loop
      vertex 18.1372 -11.1786 15.4298
      vertex 21 -10.1467 17.521
      vertex 21 -9.84204 17.1794
    endloop
  endfacet
  facet normal -0.602675 0.595486 0.531205
    outer loop
      vertex 21 -10.1467 17.521
      vertex 18.1372 -11.1786 15.4298
      vertex 19.4668 -11.8712 17.7147
    endloop
  endfacet
  facet normal -0.621409 0.55563 0.552382
    outer loop
      vertex 17.6462 -14.2668 17.9838
      vertex 18.1372 -11.1786 15.4298
      vertex 16.1721 -13.6386 15.6936
    endloop
  endfacet
  facet normal -0.640554 0.547313 0.538645
    outer loop
      vertex 19.4668 -11.8712 17.7147
      vertex 18.1372 -11.1786 15.4298
      vertex 17.6462 -14.2668 17.9838
    endloop
  endfacet
  facet normal -0.647382 0.681727 0.340801
    outer loop
      vertex 20.2665 -8.9182 15.1671
      vertex 19.4249 -8.46983 12.6715
      vertex 17.1937 -10.7233 12.9409
    endloop
  endfacet
  facet normal -0.654783 0.659679 0.368894
    outer loop
      vertex 18.1372 -11.1786 15.4298
      vertex 20.2665 -8.9182 15.1671
      vertex 17.1937 -10.7233 12.9409
    endloop
  endfacet
  facet normal -0.685378 0.612313 0.39412
    outer loop
      vertex 16.1721 -13.6386 15.6936
      vertex 17.1937 -10.7233 12.9409
      vertex 15.1131 -13.2192 13.2004
    endloop
  endfacet
  facet normal -0.703563 0.60244 0.376915
    outer loop
      vertex 18.1372 -11.1786 15.4298
      vertex 17.1937 -10.7233 12.9409
      vertex 16.1721 -13.6386 15.6936
    endloop
  endfacet
  facet normal -0.677761 0.716335 0.165843
    outer loop
      vertex 19.4249 -8.46983 12.6715
      vertex 18.9049 -8.35389 10.0456
      vertex 16.6192 -10.5764 10.3043
    endloop
  endfacet
  facet normal -0.68647 0.702246 0.188704
    outer loop
      vertex 17.1937 -10.7233 12.9409
      vertex 19.4249 -8.46983 12.6715
      vertex 16.6192 -10.5764 10.3043
    endloop
  endfacet
  facet normal -0.724873 0.653131 0.21904
    outer loop
      vertex 15.1131 -13.2192 13.2004
      vertex 16.6192 -10.5764 10.3043
      vertex 14.462 -13.0548 10.5555
    endloop
  endfacet
  facet normal -0.742793 0.639731 0.197493
    outer loop
      vertex 17.1937 -10.7233 12.9409
      vertex 16.6192 -10.5764 10.3043
      vertex 15.1131 -13.2192 13.2004
    endloop
  endfacet
  facet normal -0.690464 0.723367 0.000662618
    outer loop
      vertex 18.9049 -8.35389 10.0456
      vertex 18.8701 -8.38676 9.66667
      vertex 18.5168 -8.72399 9.66667
    endloop
  endfacet
  facet normal -0.696356 0.717591 0.0123384
    outer loop
      vertex 18.5168 -8.72399 9.66667
      vertex 16.6192 -10.5764 10.3043
      vertex 18.9049 -8.35389 10.0456
    endloop
  endfacet
  facet normal -0.696384 0.717566 0.0121835
    outer loop
      vertex 16.6192 -10.5764 10.3043
      vertex 18.5168 -8.72399 9.66667
      vertex 16.5625 -10.6206 9.66667
    endloop
  endfacet
  facet normal -0.743819 0.667462 0.0350353
    outer loop
      vertex 14.462 -13.0548 10.5555
      vertex 15.0332 -12.3716 9.66667
      vertex 14.3811 -13.0983 9.66667
    endloop
  endfacet
  facet normal -0.753007 0.657666 0.0213708
    outer loop
      vertex 15.0332 -12.3716 9.66667
      vertex 16.6192 -10.5764 10.3043
      vertex 16.5625 -10.6206 9.66667
    endloop
  endfacet
  facet normal -0.753036 0.657627 0.0215528
    outer loop
      vertex 16.6192 -10.5764 10.3043
      vertex 15.0332 -12.3716 9.66667
      vertex 14.462 -13.0548 10.5555
    endloop
  endfacet
  facet normal -0.559959 0.663324 0.496434
    outer loop
      vertex 21 -9.35193 16.574
      vertex 21 -8.23142 15.0768
      vertex 20.2665 -8.9182 15.1671
    endloop
  endfacet
  facet normal -0.600214 0.727194 0.333063
    outer loop
      vertex 21 -7.68471 13.7958
      vertex 19.4249 -8.46983 12.6715
      vertex 20.2665 -8.9182 15.1671
    endloop
  endfacet
  facet normal -0.600211 0.727203 0.333052
    outer loop
      vertex 19.4249 -8.46983 12.6715
      vertex 21 -7.68471 13.7958
      vertex 21 -7.0803 12.4761
    endloop
  endfacet
  facet normal -0.630748 0.713706 0.304598
    outer loop
      vertex 21 -8.23142 15.0768
      vertex 21 -7.68471 13.7958
      vertex 20.2665 -8.9182 15.1671
    endloop
  endfacet
  facet normal -0.625642 0.764019 0.157628
    outer loop
      vertex 21 -6.67421 10.2199
      vertex 18.9049 -8.35389 10.0456
      vertex 19.4249 -8.46983 12.6715
    endloop
  endfacet
  facet normal -0.625641 0.764014 0.157658
    outer loop
      vertex 18.9049 -8.35389 10.0456
      vertex 21 -6.67421 10.2199
      vertex 21 -6.58906 9.80726
    endloop
  endfacet
  facet normal -0.645989 0.751275 0.135221
    outer loop
      vertex 21 -7.0803 12.4761
      vertex 21 -6.67421 10.2199
      vertex 19.4249 -8.46983 12.6715
    endloop
  endfacet
  facet normal -0.631609 0.775232 -0.00924155
    outer loop
      vertex 18.9049 -8.35389 10.0456
      vertex 19.185 -8.1302 9.66667
      vertex 18.8701 -8.38676 9.66667
    endloop
  endfacet
  facet normal -0.645802 0.763026 -0.027028
    outer loop
      vertex 19.185 -8.1302 9.66667
      vertex 21 -6.58906 9.80726
      vertex 21 -6.59404 9.66667
    endloop
  endfacet
  facet normal -0.645807 0.763025 -0.0269432
    outer loop
      vertex 21 -6.58906 9.80726
      vertex 19.185 -8.1302 9.66667
      vertex 18.9049 -8.35389 10.0456
    endloop
  endfacet
  facet normal -0.36641 0.325636 0.871611
    outer loop
      vertex 21 -21.4832 24.1973
      vertex 21 -21.2953 24.1271
      vertex 20.9134 -21.4527 24.1495
    endloop
  endfacet
  facet normal -0.421293 0.37607 0.825278
    outer loop
      vertex 21 -17.8061 22.5279
      vertex 21 -16.6619 22.0065
      vertex 20.0465 -18.1988 22.2201
    endloop
  endfacet
  facet normal -0.42826 0.40776 0.806427
    outer loop
      vertex 21 -18.5333 22.8956
      vertex 21 -17.8061 22.5279
      vertex 20.0465 -18.1988 22.2201
    endloop
  endfacet
  facet normal -0.4659 0.35616 0.809992
    outer loop
      vertex 20.9134 -21.4527 24.1495
      vertex 20.0465 -18.1988 22.2201
      vertex 18.7114 -20.7292 22.5648
    endloop
  endfacet
  facet normal -0.450196 0.363625 0.815537
    outer loop
      vertex 20.0465 -18.1988 22.2201
      vertex 21 -21.2953 24.1271
      vertex 21 -18.5333 22.8956
    endloop
  endfacet
  facet normal -0.450068 0.36369 0.815578
    outer loop
      vertex 21 -21.2953 24.1271
      vertex 20.0465 -18.1988 22.2201
      vertex 20.9134 -21.4527 24.1495
    endloop
  endfacet
  facet normal -0.512601 0.406532 0.756288
    outer loop
      vertex 19.4613 -15.0122 20.0582
      vertex 21 -16.059 21.6638
      vertex 21 -15.6101 21.4225
    endloop
  endfacet
  facet normal -0.512613 0.406515 0.756289
    outer loop
      vertex 21 -16.059 21.6638
      vertex 19.4613 -15.0122 20.0582
      vertex 17.9529 -17.4765 20.3604
    endloop
  endfacet
  facet normal -0.515602 0.423415 0.744899
    outer loop
      vertex 17.9529 -17.4765 20.3604
      vertex 21 -16.6619 22.0065
      vertex 21 -16.059 21.6638
    endloop
  endfacet
  facet normal -0.515602 0.423409 0.744902
    outer loop
      vertex 21 -16.6619 22.0065
      vertex 17.9529 -17.4765 20.3604
      vertex 20.0465 -18.1988 22.2201
    endloop
  endfacet
  facet normal -0.545943 0.379058 0.747169
    outer loop
      vertex 18.7114 -20.7292 22.5648
      vertex 17.9529 -17.4765 20.3604
      vertex 16.6206 -20.0821 20.7088
    endloop
  endfacet
  facet normal -0.535201 0.384822 0.751978
    outer loop
      vertex 18.7114 -20.7292 22.5648
      vertex 20.0465 -18.1988 22.2201
      vertex 17.9529 -17.4765 20.3604
    endloop
  endfacet
  facet normal -0.589497 0.443456 0.675159
    outer loop
      vertex 19.4613 -15.0122 20.0582
      vertex 17.6462 -14.2668 17.9838
      vertex 16.0533 -16.8255 18.2736
    endloop
  endfacet
  facet normal -0.589519 0.443625 0.675029
    outer loop
      vertex 17.9529 -17.4765 20.3604
      vertex 19.4613 -15.0122 20.0582
      vertex 16.0533 -16.8255 18.2736
    endloop
  endfacet
  facet normal -0.618293 0.398748 0.677284
    outer loop
      vertex 16.6206 -20.0821 20.7088
      vertex 16.0533 -16.8255 18.2736
      vertex 14.6916 -19.536 18.6263
    endloop
  endfacet
  facet normal -0.610543 0.403321 0.681593
    outer loop
      vertex 16.6206 -20.0821 20.7088
      vertex 17.9529 -17.4765 20.3604
      vertex 16.0533 -16.8255 18.2736
    endloop
  endfacet
  facet normal -0.663823 0.492907 0.562478
    outer loop
      vertex 17.6462 -14.2668 17.9838
      vertex 16.1721 -13.6386 15.6936
      vertex 14.4459 -16.2903 15.9801
    endloop
  endfacet
  facet normal -0.662974 0.477989 0.576187
    outer loop
      vertex 16.0533 -16.8255 18.2736
      vertex 17.6462 -14.2668 17.9838
      vertex 14.4459 -16.2903 15.9801
    endloop
  endfacet
  facet normal -0.695644 0.421579 0.581679
    outer loop
      vertex 14.6916 -19.536 18.6263
      vertex 14.4459 -16.2903 15.9801
      vertex 13.0152 -19.1191 16.3193
    endloop
  endfacet
  facet normal -0.692281 0.42379 0.584079
    outer loop
      vertex 14.6916 -19.536 18.6263
      vertex 16.0533 -16.8255 18.2736
      vertex 14.4459 -16.2903 15.9801
    endloop
  endfacet
  facet normal -0.735789 0.543534 0.403962
    outer loop
      vertex 16.1721 -13.6386 15.6936
      vertex 15.1131 -13.2192 13.2004
      vertex 13.2507 -15.9437 13.474
    endloop
  endfacet
  facet normal -0.737238 0.525771 0.424316
    outer loop
      vertex 14.4459 -16.2903 15.9801
      vertex 16.1721 -13.6386 15.6936
      vertex 13.2507 -15.9437 13.474
    endloop
  endfacet
  facet normal -0.778115 0.450194 0.438021
    outer loop
      vertex 13.0152 -19.1191 16.3193
      vertex 13.2507 -15.9437 13.474
      vertex 11.7246 -18.8804 13.7813
    endloop
  endfacet
  facet normal -0.781603 0.447422 0.434639
    outer loop
      vertex 14.4459 -16.2903 15.9801
      vertex 13.2507 -15.9437 13.474
      vertex 13.0152 -19.1191 16.3193
    endloop
  endfacet
  facet normal -0.783208 0.578155 0.22874
    outer loop
      vertex 15.1131 -13.2192 13.2004
      vertex 14.462 -13.0548 10.5555
      vertex 12.5099 -15.7961 10.8003
    endloop
  endfacet
  facet normal -0.787632 0.563444 0.249333
    outer loop
      vertex 13.2507 -15.9437 13.474
      vertex 15.1131 -13.2192 13.2004
      vertex 12.5099 -15.7961 10.8003
    endloop
  endfacet
  facet normal -0.836705 0.475553 0.271614
    outer loop
      vertex 11.7246 -18.8804 13.7813
      vertex 12.5099 -15.7961 10.8003
      vertex 10.8944 -18.7868 11.06
    endloop
  endfacet
  facet normal -0.845423 0.466543 0.259996
    outer loop
      vertex 13.2507 -15.9437 13.474
      vertex 12.5099 -15.7961 10.8003
      vertex 11.7246 -18.8804 13.7813
    endloop
  endfacet
  facet normal -0.799277 0.599393 0.0434142
    outer loop
      vertex 14.462 -13.0548 10.5555
      vertex 14.3811 -13.0983 9.66667
      vertex 13.68 -14.0332 9.66667
    endloop
  endfacet
  facet normal -0.809538 0.582793 0.0707155
    outer loop
      vertex 13.68 -14.0332 9.66667
      vertex 12.5099 -15.7961 10.8003
      vertex 14.462 -13.0548 10.5555
    endloop
  endfacet
  facet normal -0.809508 0.582824 0.0707949
    outer loop
      vertex 12.5099 -15.7961 10.8003
      vertex 13.68 -14.0332 9.66667
      vertex 12.3906 -15.8241 9.66667
    endloop
  endfacet
  facet normal -0.857066 0.503229 0.110451
    outer loop
      vertex 10.8944 -18.7868 11.06
      vertex 11.4964 -17.4557 9.66667
      vertex 10.7112 -18.793 9.66667
    endloop
  endfacet
  facet normal -0.874115 0.47906 0.0801569
    outer loop
      vertex 11.4964 -17.4557 9.66667
      vertex 12.5099 -15.7961 10.8003
      vertex 12.3906 -15.8241 9.66667
    endloop
  endfacet
  facet normal -0.874094 0.479115 0.0800568
    outer loop
      vertex 12.5099 -15.7961 10.8003
      vertex 11.4964 -17.4557 9.66667
      vertex 10.8944 -18.7868 11.06
    endloop
  endfacet
  facet normal -0.380101 0.294767 0.876719
    outer loop
      vertex 20.9134 -21.4527 24.1495
      vertex 21 -22.2 24.4383
      vertex 21 -21.4832 24.1973
    endloop
  endfacet
  facet normal -0.380327 0.29471 0.87664
    outer loop
      vertex 21 -22.2 24.4383
      vertex 20.9134 -21.4527 24.1495
      vertex 20.5586 -22.2 24.2468
    endloop
  endfacet
  facet normal -0.477839 0.329383 0.814357
    outer loop
      vertex 18.7114 -20.7292 22.5648
      vertex 19.6104 -22.2 23.6872
      vertex 20.9134 -21.4527 24.1495
    endloop
  endfacet
  facet normal -0.477805 0.329411 0.814365
    outer loop
      vertex 19.6104 -22.2 23.6872
      vertex 18.7114 -20.7292 22.5648
      vertex 18.0456 -22.2 22.7691
    endloop
  endfacet
  facet normal -0.479207 0.333238 0.811981
    outer loop
      vertex 20.5586 -22.2 24.2468
      vertex 20.9134 -21.4527 24.1495
      vertex 19.6104 -22.2 23.6872
    endloop
  endfacet
  facet normal -0.557992 0.352225 0.751387
    outer loop
      vertex 16.6206 -20.0821 20.7088
      vertex 16.4209 -22.2 21.5533
      vertex 18.7114 -20.7292 22.5648
    endloop
  endfacet
  facet normal -0.557985 0.352226 0.751392
    outer loop
      vertex 16.4209 -22.2 21.5533
      vertex 16.6206 -20.0821 20.7088
      vertex 15.7045 -22.2 21.0213
    endloop
  endfacet
  facet normal -0.559613 0.357201 0.747824
    outer loop
      vertex 18.0456 -22.2 22.7691
      vertex 18.7114 -20.7292 22.5648
      vertex 16.4209 -22.2 21.5533
    endloop
  endfacet
  facet normal -0.63448 0.362363 0.682736
    outer loop
      vertex 14.6916 -19.536 18.6263
      vertex 13.768 -22.2 19.1819
      vertex 16.6206 -20.0821 20.7088
    endloop
  endfacet
  facet normal -0.63433 0.362342 0.682886
    outer loop
      vertex 13.768 -22.2 19.1819
      vertex 14.6916 -19.536 18.6263
      vertex 13.5922 -22.2 19.0186
    endloop
  endfacet
  facet normal -0.638358 0.375286 0.672056
    outer loop
      vertex 15.7045 -22.2 21.0213
      vertex 16.6206 -20.0821 20.7088
      vertex 13.768 -22.2 19.1819
    endloop
  endfacet
  facet normal -0.720441 0.365276 0.589524
    outer loop
      vertex 14.6916 -19.536 18.6263
      vertex 13.0152 -19.1191 16.3193
      vertex 11.8427 -22.0927 16.7289
    endloop
  endfacet
  facet normal -0.725084 0.383414 0.572055
    outer loop
      vertex 12.4501 -22.2 17.5707
      vertex 14.6916 -19.536 18.6263
      vertex 11.8427 -22.0927 16.7289
    endloop
  endfacet
  facet normal -0.725118 0.383475 0.571971
    outer loop
      vertex 14.6916 -19.536 18.6263
      vertex 12.4501 -22.2 17.5707
      vertex 13.5922 -22.2 19.0186
    endloop
  endfacet
  facet normal -0.765107 0.32512 0.555795
    outer loop
      vertex 11.8635 -22.2 16.8203
      vertex 11.8427 -22.0927 16.7289
      vertex 11.8088 -22.2 16.745
    endloop
  endfacet
  facet normal -0.738436 0.348564 0.577248
    outer loop
      vertex 11.8635 -22.2 16.8203
      vertex 12.4501 -22.2 17.5707
      vertex 11.8427 -22.0927 16.7289
    endloop
  endfacet
  facet normal -0.814635 0.367354 0.4488
    outer loop
      vertex 13.0152 -19.1191 16.3193
      vertex 11.7246 -18.8804 13.7813
      vertex 10.5395 -21.965 14.155
    endloop
  endfacet
  facet normal -0.816857 0.381667 0.432521
    outer loop
      vertex 11.8427 -22.0927 16.7289
      vertex 13.0152 -19.1191 16.3193
      vertex 10.5395 -21.965 14.155
    endloop
  endfacet
  facet normal -0.853272 0.30951 0.419679
    outer loop
      vertex 10.5633 -22.2 14.3767
      vertex 10.5395 -21.965 14.155
      vertex 10.4698 -22.2 14.1866
    endloop
  endfacet
  facet normal -0.835514 0.329914 0.4394
    outer loop
      vertex 10.5633 -22.2 14.3767
      vertex 11.8427 -22.0927 16.7289
      vertex 10.5395 -21.965 14.155
    endloop
  endfacet
  facet normal -0.835518 0.329902 0.439403
    outer loop
      vertex 11.8427 -22.0927 16.7289
      vertex 10.5633 -22.2 14.3767
      vertex 11.8088 -22.2 16.745
    endloop
  endfacet
  facet normal -0.883552 0.373613 0.2824
    outer loop
      vertex 11.7246 -18.8804 13.7813
      vertex 10.8944 -18.7868 11.06
      vertex 9.6647 -21.937 11.3803
    endloop
  endfacet
  facet normal -0.883551 0.373664 0.282334
    outer loop
      vertex 10.5395 -21.965 14.155
      vertex 11.7246 -18.8804 13.7813
      vertex 9.6647 -21.937 11.3803
    endloop
  endfacet
  facet normal -0.911672 0.300029 0.280779
    outer loop
      vertex 9.65927 -22.2 11.6437
      vertex 9.6647 -21.937 11.3803
      vertex 9.58751 -22.2 11.4107
    endloop
  endfacet
  facet normal -0.906449 0.308046 0.288891
    outer loop
      vertex 9.65927 -22.2 11.6437
      vertex 10.5395 -21.965 14.155
      vertex 9.6647 -21.937 11.3803
    endloop
  endfacet
  facet normal -0.906537 0.30773 0.288952
    outer loop
      vertex 10.5395 -21.965 14.155
      vertex 9.65927 -22.2 11.6437
      vertex 10.4698 -22.2 14.1866
    endloop
  endfacet
  facet normal -0.912077 0.392618 0.118176
    outer loop
      vertex 10.8944 -18.7868 11.06
      vertex 10.7112 -18.793 9.66667
      vertex 9.98057 -20.4903 9.66667
    endloop
  endfacet
  facet normal -0.916512 0.37257 0.145596
    outer loop
      vertex 9.98057 -20.4903 9.66667
      vertex 9.6647 -21.937 11.3803
      vertex 10.8944 -18.7868 11.06
    endloop
  endfacet
  facet normal -0.916513 0.372566 0.145593
    outer loop
      vertex 9.6647 -21.937 11.3803
      vertex 9.98057 -20.4903 9.66667
      vertex 9.39244 -21.9371 9.66667
    endloop
  endfacet
  facet normal -0.943869 0.294326 0.149944
    outer loop
      vertex 9.31046 -22.2 9.66667
      vertex 9.6647 -21.937 11.3803
      vertex 9.39244 -21.9371 9.66667
    endloop
  endfacet
  facet normal -0.943862 0.294353 0.149938
    outer loop
      vertex 9.6647 -21.937 11.3803
      vertex 9.31046 -22.2 9.66667
      vertex 9.58751 -22.2 11.4107
    endloop
  endfacet
endsolid OpenSCAD_Model
