solid OpenSCAD_Model
  facet normal -0 0 1
    outer loop
      vertex 42 -66.6 -9.66667
      vertex 59.7107 -67.462 -9.66667
      vertex 60.0067 -66.6 -9.66667
    endloop
  endfacet
  facet normal 0 0 1
    outer loop
      vertex 59.7107 -67.462 -9.66667
      vertex 42 -66.6 -9.66667
      vertex 58.9301 -69.1284 -9.66667
    endloop
  endfacet
  facet normal 0 -0 1
    outer loop
      vertex 58.6991 -69.6165 -9.66667
      vertex 58.9301 -69.1284 -9.66667
      vertex 42 -66.6 -9.66667
    endloop
  endfacet
  facet normal 0 0 1
    outer loop
      vertex 58.9301 -69.1284 -9.66667
      vertex 58.6991 -69.6165 -9.66667
      vertex 58.8415 -69.3282 -9.66667
    endloop
  endfacet
  facet normal 0 0 1
    outer loop
      vertex 58.6991 -69.6165 -9.66667
      vertex 42 -66.6 -9.66667
      vertex 57.9645 -71.026 -9.66667
    endloop
  endfacet
  facet normal 0 0 1
    outer loop
      vertex 57.9645 -71.026 -9.66667
      vertex 42 -66.6 -9.66667
      vertex 57.5018 -71.8248 -9.66667
    endloop
  endfacet
  facet normal 0 0 1
    outer loop
      vertex 57.5018 -71.8248 -9.66667
      vertex 42 -66.6 -9.66667
      vertex 57.0909 -72.5884 -9.66667
    endloop
  endfacet
  facet normal 0 0 1
    outer loop
      vertex 57.0909 -72.5884 -9.66667
      vertex 42 -66.6 -9.66667
      vertex 56.5142 -73.6419 -9.66667
    endloop
  endfacet
  facet normal 0 0 1
    outer loop
      vertex 56.5142 -73.6419 -9.66667
      vertex 42 -66.6 -9.66667
      vertex 56.2802 -74.0459 -9.66667
    endloop
  endfacet
  facet normal 0 0 1
    outer loop
      vertex 42 -66.6 -9.66667
      vertex 54.6747 -77.7731 -9.66667
      vertex 54.9859 -76.8762 -9.66667
    endloop
  endfacet
  facet normal 0 0 1
    outer loop
      vertex 53.7402 -80.258 -9.66667
      vertex 52.9666 -82.2463 -9.66667
      vertex 53.5744 -80.7871 -9.66667
    endloop
  endfacet
  facet normal 0 0 1
    outer loop
      vertex 42 -66.6 -9.66667
      vertex 53.7402 -80.258 -9.66667
      vertex 53.8617 -79.892 -9.66667
    endloop
  endfacet
  facet normal 0 0 1
    outer loop
      vertex 42 -66.6 -9.66667
      vertex 53.8617 -79.892 -9.66667
      vertex 54.384 -78.4525 -9.66667
    endloop
  endfacet
  facet normal 0 0 1
    outer loop
      vertex 53.7402 -80.258 -9.66667
      vertex 42 -66.6 -9.66667
      vertex 52.9666 -82.2463 -9.66667
    endloop
  endfacet
  facet normal 0 0 1
    outer loop
      vertex 42 -88.8 -9.66667
      vertex 52.9666 -82.2463 -9.66667
      vertex 42 -66.6 -9.66667
    endloop
  endfacet
  facet normal 0 0 1
    outer loop
      vertex 42 -88.8 -9.66667
      vertex 51.9704 -84.8379 -9.66667
      vertex 52.1194 -84.402 -9.66667
    endloop
  endfacet
  facet normal 0 0 1
    outer loop
      vertex 51.9704 -84.8379 -9.66667
      vertex 42 -88.8 -9.66667
      vertex 51.6094 -85.8377 -9.66667
    endloop
  endfacet
  facet normal 0 0 1
    outer loop
      vertex 52.9666 -82.2463 -9.66667
      vertex 42 -88.8 -9.66667
      vertex 52.5318 -83.3196 -9.66667
    endloop
  endfacet
  facet normal 0 0 1
    outer loop
      vertex 54.6747 -77.7731 -9.66667
      vertex 42 -66.6 -9.66667
      vertex 54.384 -78.4525 -9.66667
    endloop
  endfacet
  facet normal 0 0 1
    outer loop
      vertex 51.6094 -85.8377 -9.66667
      vertex 42 -88.8 -9.66667
      vertex 51.3313 -86.4332 -9.66667
    endloop
  endfacet
  facet normal 0 0 1
    outer loop
      vertex 51.3313 -86.4332 -9.66667
      vertex 42 -88.8 -9.66667
      vertex 51.159 -86.7769 -9.66667
    endloop
  endfacet
  facet normal 0 0 1
    outer loop
      vertex 51.159 -86.7769 -9.66667
      vertex 42 -88.8 -9.66667
      vertex 50.5702 -88.0941 -9.66667
    endloop
  endfacet
  facet normal 0 0 1
    outer loop
      vertex 56.2802 -74.0459 -9.66667
      vertex 42 -66.6 -9.66667
      vertex 56.101 -74.377 -9.66667
    endloop
  endfacet
  facet normal 0 0 1
    outer loop
      vertex 42 -66.6 -9.66667
      vertex 55.591 -75.4419 -9.66667
      vertex 56.101 -74.377 -9.66667
    endloop
  endfacet
  facet normal 0 0 1
    outer loop
      vertex 42 -66.6 -9.66667
      vertex 55.4526 -75.7317 -9.66667
      vertex 55.591 -75.4419 -9.66667
    endloop
  endfacet
  facet normal 0 0 1
    outer loop
      vertex 42 -66.6 -9.66667
      vertex 54.9859 -76.8762 -9.66667
      vertex 55.4526 -75.7317 -9.66667
    endloop
  endfacet
  facet normal 0 0 1
    outer loop
      vertex 52.5318 -83.3196 -9.66667
      vertex 42 -88.8 -9.66667
      vertex 52.1194 -84.402 -9.66667
    endloop
  endfacet
  facet normal 0 0 1
    outer loop
      vertex 50.5702 -88.0941 -9.66667
      vertex 42 -88.8 -9.66667
      vertex 50.2521 -88.8 -9.66667
    endloop
  endfacet
  facet normal -1 0 0
    outer loop
      vertex 42 -66.8024 -23.5252
      vertex 42 -66.6 -9.66667
      vertex 42 -66.6 -23.6316
    endloop
  endfacet
  facet normal -1 0 0
    outer loop
      vertex 42 -67.6572 -23.0988
      vertex 42 -66.6 -9.66667
      vertex 42 -66.8024 -23.5252
    endloop
  endfacet
  facet normal -1 0 0
    outer loop
      vertex 42 -68.5318 -22.6151
      vertex 42 -66.6 -9.66667
      vertex 42 -67.6572 -23.0988
    endloop
  endfacet
  facet normal -1 0 0
    outer loop
      vertex 42 -69.3279 -22.2431
      vertex 42 -66.6 -9.66667
      vertex 42 -68.5318 -22.6151
    endloop
  endfacet
  facet normal -1 0 0
    outer loop
      vertex 42 -71.1905 -21.2776
      vertex 42 -66.6 -9.66667
      vertex 42 -69.3279 -22.2431
    endloop
  endfacet
  facet normal -1 0 0
    outer loop
      vertex 42 -71.9426 -20.8944
      vertex 42 -66.6 -9.66667
      vertex 42 -71.1905 -21.2776
    endloop
  endfacet
  facet normal -1 0 0
    outer loop
      vertex 42 -72.5455 -20.6499
      vertex 42 -66.6 -9.66667
      vertex 42 -71.9426 -20.8944
    endloop
  endfacet
  facet normal -1 0 0
    outer loop
      vertex 42 -73.6898 -20.1394
      vertex 42 -66.6 -9.66667
      vertex 42 -72.5455 -20.6499
    endloop
  endfacet
  facet normal -1 0 0
    outer loop
      vertex 42 -75.1423 -19.5625
      vertex 42 -66.6 -9.66667
      vertex 42 -73.6898 -20.1394
    endloop
  endfacet
  facet normal -1 0 0
    outer loop
      vertex 42 -75.5937 -19.3737
      vertex 42 -66.6 -9.66667
      vertex 42 -75.1423 -19.5625
    endloop
  endfacet
  facet normal -1 0 0
    outer loop
      vertex 42 -77.2011 -18.7161
      vertex 42 -66.6 -9.66667
      vertex 42 -75.5937 -19.3737
    endloop
  endfacet
  facet normal -1 0 0
    outer loop
      vertex 42 -78.5158 -18.1643
      vertex 42 -66.6 -9.66667
      vertex 42 -77.2011 -18.7161
    endloop
  endfacet
  facet normal -1 0 0
    outer loop
      vertex 42 -78.9337 -17.9956
      vertex 42 -66.6 -9.66667
      vertex 42 -78.5158 -18.1643
    endloop
  endfacet
  facet normal -1 0 0
    outer loop
      vertex 42 -79.5804 -17.7251
      vertex 42 -66.6 -9.66667
      vertex 42 -78.9337 -17.9956
    endloop
  endfacet
  facet normal -1 0 0
    outer loop
      vertex 42 -81.3364 -16.9282
      vertex 42 -66.6 -9.66667
      vertex 42 -79.5804 -17.7251
    endloop
  endfacet
  facet normal -1 0 0
    outer loop
      vertex 42 -82.4776 -16.4174
      vertex 42 -66.6 -9.66667
      vertex 42 -81.3364 -16.9282
    endloop
  endfacet
  facet normal -1 0 0
    outer loop
      vertex 42 -88.8 -9.66667
      vertex 42 -82.4776 -16.4174
      vertex 42 -84.0762 -15.6954
    endloop
  endfacet
  facet normal -1 0 0
    outer loop
      vertex 42 -88.8 -9.66667
      vertex 42 -84.0762 -15.6954
      vertex 42 -84.2728 -15.6041
    endloop
  endfacet
  facet normal -1 0 0
    outer loop
      vertex 42 -88.8 -9.66667
      vertex 42 -84.2728 -15.6041
      vertex 42 -84.7106 -15.4003
    endloop
  endfacet
  facet normal -1 0 0
    outer loop
      vertex 42 -88.8 -9.66667
      vertex 42 -84.7106 -15.4003
      vertex 42 -86.6814 -14.4178
    endloop
  endfacet
  facet normal -1 0 0
    outer loop
      vertex 42 -88.8 -9.66667
      vertex 42 -86.6814 -14.4178
      vertex 42 -88.0059 -13.7474
    endloop
  endfacet
  facet normal -1 0 0
    outer loop
      vertex 42 -88.8 -9.66667
      vertex 42 -88.0059 -13.7474
      vertex 42 -88.8 -13.3814
    endloop
  endfacet
  facet normal -1 0 0
    outer loop
      vertex 42 -82.4776 -16.4174
      vertex 42 -88.8 -9.66667
      vertex 42 -66.6 -9.66667
    endloop
  endfacet
  facet normal 0 1 0
    outer loop
      vertex 59.9807 -66.6 -10.314
      vertex 60.0067 -66.6 -9.66667
      vertex 60.0142 -66.6 -9.71265
    endloop
  endfacet
  facet normal 0 1 0
    outer loop
      vertex 56.2867 -66.6 -16.7316
      vertex 60.0067 -66.6 -9.66667
      vertex 59.9807 -66.6 -10.314
    endloop
  endfacet
  facet normal 0 1 0
    outer loop
      vertex 59.7382 -66.6 -11.9533
      vertex 59.9807 -66.6 -10.314
      vertex 59.9642 -66.6 -11.108
    endloop
  endfacet
  facet normal 0 1 0
    outer loop
      vertex 56.2867 -66.6 -16.7316
      vertex 59.9807 -66.6 -10.314
      vertex 59.7382 -66.6 -11.9533
    endloop
  endfacet
  facet normal 0 1 0
    outer loop
      vertex 59.2311 -66.6 -13.4143
      vertex 59.7382 -66.6 -11.9533
      vertex 59.5561 -66.6 -12.7299
    endloop
  endfacet
  facet normal 0 1 0
    outer loop
      vertex 58.332 -66.6 -14.8484
      vertex 59.7382 -66.6 -11.9533
      vertex 59.2311 -66.6 -13.4143
    endloop
  endfacet
  facet normal 0 1 0
    outer loop
      vertex 58.332 -66.6 -14.8484
      vertex 59.2311 -66.6 -13.4143
      vertex 58.7877 -66.6 -14.307
    endloop
  endfacet
  facet normal 0 1 0
    outer loop
      vertex 59.7382 -66.6 -11.9533
      vertex 58.332 -66.6 -14.8484
      vertex 56.2867 -66.6 -16.7316
    endloop
  endfacet
  facet normal 0 1 0
    outer loop
      vertex 56.883 -66.6 -16.3053
      vertex 58.332 -66.6 -14.8484
      vertex 57.7279 -66.6 -15.6174
    endloop
  endfacet
  facet normal 0 1 0
    outer loop
      vertex 56.2867 -66.6 -16.7316
      vertex 58.332 -66.6 -14.8484
      vertex 56.883 -66.6 -16.3053
    endloop
  endfacet
  facet normal 0 1 0
    outer loop
      vertex 60.0067 -66.6 -9.66667
      vertex 56.2867 -66.6 -16.7316
      vertex 42 -66.6 -9.66667
    endloop
  endfacet
  facet normal 0 1 -0
    outer loop
      vertex 54.311 -66.6 -17.8364
      vertex 42 -66.6 -9.66667
      vertex 56.2867 -66.6 -16.7316
    endloop
  endfacet
  facet normal 0 1 -0
    outer loop
      vertex 54.0347 -66.6 -17.9958
      vertex 42 -66.6 -9.66667
      vertex 54.311 -66.6 -17.8364
    endloop
  endfacet
  facet normal 0 1 -0
    outer loop
      vertex 53.7955 -66.6 -18.1225
      vertex 42 -66.6 -9.66667
      vertex 54.0347 -66.6 -17.9958
    endloop
  endfacet
  facet normal 0 1 -0
    outer loop
      vertex 52.3621 -66.6 -18.8151
      vertex 42 -66.6 -9.66667
      vertex 53.7955 -66.6 -18.1225
    endloop
  endfacet
  facet normal 0 1 -0
    outer loop
      vertex 51.2756 -66.6 -19.3673
      vertex 42 -66.6 -9.66667
      vertex 52.3621 -66.6 -18.8151
    endloop
  endfacet
  facet normal 0 1 -0
    outer loop
      vertex 50.7988 -66.6 -19.6276
      vertex 42 -66.6 -9.66667
      vertex 51.2756 -66.6 -19.3673
    endloop
  endfacet
  facet normal 0 1 -0
    outer loop
      vertex 50.1765 -66.6 -19.9885
      vertex 42 -66.6 -9.66667
      vertex 50.7988 -66.6 -19.6276
    endloop
  endfacet
  facet normal 0 1 -0
    outer loop
      vertex 48.5019 -66.6 -20.8496
      vertex 42 -66.6 -9.66667
      vertex 50.1765 -66.6 -19.9885
    endloop
  endfacet
  facet normal 0 1 -0
    outer loop
      vertex 46.607 -66.6 -21.9092
      vertex 42 -66.6 -9.66667
      vertex 48.5019 -66.6 -20.8496
    endloop
  endfacet
  facet normal 0 1 -0
    outer loop
      vertex 45.6863 -66.6 -22.3169
      vertex 42 -66.6 -9.66667
      vertex 46.607 -66.6 -21.9092
    endloop
  endfacet
  facet normal 0 1 -0
    outer loop
      vertex 42.8507 -66.6 -23.4538
      vertex 42 -66.6 -9.66667
      vertex 45.6863 -66.6 -22.3169
    endloop
  endfacet
  facet normal 0 1 0
    outer loop
      vertex 42.7735 -66.6 -23.4714
      vertex 42.8507 -66.6 -23.4538
      vertex 42.8207 -66.6 -23.4619
    endloop
  endfacet
  facet normal 0 1 0
    outer loop
      vertex 42.8507 -66.6 -23.4538
      vertex 42.7735 -66.6 -23.4714
      vertex 42 -66.6 -9.66667
    endloop
  endfacet
  facet normal 0 1 0
    outer loop
      vertex 42 -66.6 -9.66667
      vertex 42.7735 -66.6 -23.4714
      vertex 42 -66.6 -23.6316
    endloop
  endfacet
  facet normal 0 -1 0
    outer loop
      vertex 42 -88.8 -9.66667
      vertex 50.1017 -88.8 -9.77332
      vertex 50.2521 -88.8 -9.66667
    endloop
  endfacet
  facet normal 0 -1 0
    outer loop
      vertex 42 -88.8 -9.66667
      vertex 49.5491 -88.8 -10.1583
      vertex 50.1017 -88.8 -9.77332
    endloop
  endfacet
  facet normal 0 -1 0
    outer loop
      vertex 42 -88.8 -9.66667
      vertex 48.604 -88.8 -10.6425
      vertex 49.5491 -88.8 -10.1583
    endloop
  endfacet
  facet normal 0 -1 0
    outer loop
      vertex 42 -88.8 -9.66667
      vertex 47.2823 -88.8 -11.3317
      vertex 48.604 -88.8 -10.6425
    endloop
  endfacet
  facet normal 0 -1 0
    outer loop
      vertex 42 -88.8 -9.66667
      vertex 46.9343 -88.8 -11.4641
      vertex 47.2823 -88.8 -11.3317
    endloop
  endfacet
  facet normal 0 -1 0
    outer loop
      vertex 42 -88.8 -9.66667
      vertex 45.5728 -88.8 -12.0347
      vertex 46.9343 -88.8 -11.4641
    endloop
  endfacet
  facet normal 0 -1 0
    outer loop
      vertex 42 -88.8 -9.66667
      vertex 45.0116 -88.8 -12.2814
      vertex 45.5728 -88.8 -12.0347
    endloop
  endfacet
  facet normal 0 -1 0
    outer loop
      vertex 42 -88.8 -9.66667
      vertex 43.203 -88.8 -12.9505
      vertex 45.0116 -88.8 -12.2814
    endloop
  endfacet
  facet normal 0 -1 0
    outer loop
      vertex 42 -88.8 -9.66667
      vertex 42.8658 -88.8 -13.1024
      vertex 43.203 -88.8 -12.9505
    endloop
  endfacet
  facet normal -0 -1 0
    outer loop
      vertex 42.8658 -88.8 -13.1024
      vertex 42 -88.8 -9.66667
      vertex 42 -88.8 -13.3814
    endloop
  endfacet
  facet normal 0.466754 -0.0750624 -0.881196
    outer loop
      vertex 54.0347 -66.6 -17.9958
      vertex 53.9487 -66.7051 -18.0324
      vertex 53.7955 -66.6 -18.1225
    endloop
  endfacet
  facet normal 0.374568 -0.409529 -0.831857
    outer loop
      vertex 43.203 -88.8 -12.9505
      vertex 43.3722 -86.7381 -13.8894
      vertex 45.4281 -86.5794 -13.0418
    endloop
  endfacet
  facet normal 0.374705 -0.409515 -0.831801
    outer loop
      vertex 43.3722 -86.7381 -13.8894
      vertex 43.203 -88.8 -12.9505
      vertex 42.8658 -88.8 -13.1024
    endloop
  endfacet
  facet normal 0.323668 -0.360295 -0.874886
    outer loop
      vertex 45.4281 -86.5794 -13.0418
      vertex 45.0116 -88.8 -12.2814
      vertex 43.203 -88.8 -12.9505
    endloop
  endfacet
  facet normal 0.413646 -0.320915 -0.852004
    outer loop
      vertex 47.5726 -86.1805 -12.1509
      vertex 47.3007 -88.3618 -11.4613
      vertex 45.4281 -86.5794 -13.0418
    endloop
  endfacet
  facet normal 0.375059 -0.362502 -0.853184
    outer loop
      vertex 45.5728 -88.8 -12.0347
      vertex 45.4281 -86.5794 -13.0418
      vertex 47.3007 -88.3618 -11.4613
    endloop
  endfacet
  facet normal 0.375055 -0.362502 -0.853186
    outer loop
      vertex 45.4281 -86.5794 -13.0418
      vertex 45.5728 -88.8 -12.0347
      vertex 45.0116 -88.8 -12.2814
    endloop
  endfacet
  facet normal 0.341398 -0.279725 -0.89733
    outer loop
      vertex 47.3007 -88.3618 -11.4613
      vertex 47.2823 -88.8 -11.3317
      vertex 46.9343 -88.8 -11.4641
    endloop
  endfacet
  facet normal 0.368423 -0.302439 -0.879088
    outer loop
      vertex 47.3007 -88.3618 -11.4613
      vertex 46.9343 -88.8 -11.4641
      vertex 45.5728 -88.8 -12.0347
    endloop
  endfacet
  facet normal 0.473186 -0.290749 -0.831601
    outer loop
      vertex 49.7102 -85.5498 -11.1551
      vertex 49.5538 -87.5625 -10.5404
      vertex 47.5726 -86.1805 -12.1509
    endloop
  endfacet
  facet normal 0.453438 -0.319561 -0.83203
    outer loop
      vertex 47.5726 -86.1805 -12.1509
      vertex 49.5538 -87.5625 -10.5404
      vertex 47.3007 -88.3618 -11.4613
    endloop
  endfacet
  facet normal 0.439475 -0.266531 -0.857802
    outer loop
      vertex 49.5538 -87.5625 -10.5404
      vertex 49.5491 -88.8 -10.1583
      vertex 48.604 -88.8 -10.6425
    endloop
  endfacet
  facet normal 0.445031 -0.271152 -0.853478
    outer loop
      vertex 48.604 -88.8 -10.6425
      vertex 47.3007 -88.3618 -11.4613
      vertex 49.5538 -87.5625 -10.5404
    endloop
  endfacet
  facet normal 0.445048 -0.271109 -0.853482
    outer loop
      vertex 47.3007 -88.3618 -11.4613
      vertex 48.604 -88.8 -10.6425
      vertex 47.2823 -88.8 -11.3317
    endloop
  endfacet
  facet normal 0.569352 -0.265889 -0.777909
    outer loop
      vertex 49.7102 -85.5498 -11.1551
      vertex 51.6094 -85.8377 -9.66667
      vertex 51.3313 -86.4332 -9.66667
    endloop
  endfacet
  facet normal 0.56934 -0.265934 -0.777902
    outer loop
      vertex 51.6094 -85.8377 -9.66667
      vertex 49.7102 -85.5498 -11.1551
      vertex 51.6516 -84.7062 -10.0226
    endloop
  endfacet
  facet normal 0.561288 -0.281379 -0.77832
    outer loop
      vertex 51.159 -86.7769 -9.66667
      vertex 49.7102 -85.5498 -11.1551
      vertex 51.3313 -86.4332 -9.66667
    endloop
  endfacet
  facet normal 0.561327 -0.281323 -0.778312
    outer loop
      vertex 49.7102 -85.5498 -11.1551
      vertex 51.159 -86.7769 -9.66667
      vertex 49.5538 -87.5625 -10.5404
    endloop
  endfacet
  facet normal 0.559736 -0.252234 -0.78935
    outer loop
      vertex 50.5702 -88.0941 -9.66667
      vertex 50.2521 -88.8 -9.66667
      vertex 50.1017 -88.8 -9.77332
    endloop
  endfacet
  facet normal 0.5539 -0.247516 -0.794941
    outer loop
      vertex 49.5538 -87.5625 -10.5404
      vertex 50.5702 -88.0941 -9.66667
      vertex 50.1017 -88.8 -9.77332
    endloop
  endfacet
  facet normal 0.553867 -0.247583 -0.794943
    outer loop
      vertex 50.5702 -88.0941 -9.66667
      vertex 49.5538 -87.5625 -10.5404
      vertex 51.159 -86.7769 -9.66667
    endloop
  endfacet
  facet normal 0.553833 -0.247565 -0.794972
    outer loop
      vertex 49.5538 -87.5625 -10.5404
      vertex 50.1017 -88.8 -9.77332
      vertex 49.5491 -88.8 -10.1583
    endloop
  endfacet
  facet normal 0.680153 -0.232491 -0.695226
    outer loop
      vertex 52.1194 -84.402 -9.66667
      vertex 51.9704 -84.8379 -9.66667
      vertex 51.6516 -84.7062 -10.0226
    endloop
  endfacet
  facet normal 0.675768 -0.244001 -0.695558
    outer loop
      vertex 51.6516 -84.7062 -10.0226
      vertex 51.9704 -84.8379 -9.66667
      vertex 51.6094 -85.8377 -9.66667
    endloop
  endfacet
  facet normal 0.713405 -0.289004 -0.638381
    outer loop
      vertex 52.5318 -83.3196 -9.66667
      vertex 51.903 -82.9047 -10.5572
      vertex 52.9666 -82.2463 -9.66667
    endloop
  endfacet
  facet normal 0.713409 -0.288997 -0.63838
    outer loop
      vertex 51.903 -82.9047 -10.5572
      vertex 52.5318 -83.3196 -9.66667
      vertex 51.6516 -84.7062 -10.0226
    endloop
  endfacet
  facet normal 0.686376 -0.261513 -0.678601
    outer loop
      vertex 52.5318 -83.3196 -9.66667
      vertex 52.1194 -84.402 -9.66667
      vertex 51.6516 -84.7062 -10.0226
    endloop
  endfacet
  facet normal 0.854866 -0.267883 -0.444346
    outer loop
      vertex 53.6476 -80.3489 -9.79002
      vertex 53.7402 -80.258 -9.66667
      vertex 53.5744 -80.7871 -9.66667
    endloop
  endfacet
  facet normal 0.232727 -0.409628 -0.882068
    outer loop
      vertex 42 -84.0762 -15.6954
      vertex 42.1968 -84.1162 -15.6249
      vertex 42 -84.2728 -15.6041
    endloop
  endfacet
  facet normal 0.233373 -0.410371 -0.881552
    outer loop
      vertex 42 -84.2728 -15.6041
      vertex 42.1968 -84.1162 -15.6249
      vertex 42 -84.7106 -15.4003
    endloop
  endfacet
  facet normal 0.319621 -0.419199 -0.849773
    outer loop
      vertex 44.1322 -84.3184 -14.7972
      vertex 43.3722 -86.7381 -13.8894
      vertex 42.1968 -84.1162 -15.6249
    endloop
  endfacet
  facet normal 0.310108 -0.424165 -0.850833
    outer loop
      vertex 42 -84.7106 -15.4003
      vertex 43.3722 -86.7381 -13.8894
      vertex 42 -86.6814 -14.4178
    endloop
  endfacet
  facet normal 0.310103 -0.424168 -0.850833
    outer loop
      vertex 43.3722 -86.7381 -13.8894
      vertex 42 -84.7106 -15.4003
      vertex 42.1968 -84.1162 -15.6249
    endloop
  endfacet
  facet normal 0.280876 -0.401729 -0.871621
    outer loop
      vertex 42 -88.0059 -13.7474
      vertex 42.8658 -88.8 -13.1024
      vertex 42 -88.8 -13.3814
    endloop
  endfacet
  facet normal 0.280923 -0.401683 -0.871627
    outer loop
      vertex 42.8658 -88.8 -13.1024
      vertex 42 -88.0059 -13.7474
      vertex 43.3722 -86.7381 -13.8894
    endloop
  endfacet
  facet normal 0.30901 -0.429498 -0.848554
    outer loop
      vertex 42 -86.6814 -14.4178
      vertex 43.3722 -86.7381 -13.8894
      vertex 42 -88.0059 -13.7474
    endloop
  endfacet
  facet normal 0.310187 -0.418036 -0.853833
    outer loop
      vertex 43.158 -81.6542 -16.4811
      vertex 45.0265 -81.9959 -15.635
      vertex 42.1968 -84.1162 -15.6249
    endloop
  endfacet
  facet normal 0.317336 -0.427541 -0.846467
    outer loop
      vertex 45.0265 -81.9959 -15.635
      vertex 44.1322 -84.3184 -14.7972
      vertex 42.1968 -84.1162 -15.6249
    endloop
  endfacet
  facet normal 0.386011 -0.444989 -0.808072
    outer loop
      vertex 46.8991 -82.1453 -14.6582
      vertex 46.0723 -84.2962 -13.8687
      vertex 45.0265 -81.9959 -15.635
    endloop
  endfacet
  facet normal 0.391369 -0.441883 -0.807199
    outer loop
      vertex 45.0265 -81.9959 -15.635
      vertex 46.0723 -84.2962 -13.8687
      vertex 44.1322 -84.3184 -14.7972
    endloop
  endfacet
  facet normal 0.374796 -0.407366 -0.832815
    outer loop
      vertex 46.0723 -84.2962 -13.8687
      vertex 45.4281 -86.5794 -13.0418
      vertex 43.3722 -86.7381 -13.8894
    endloop
  endfacet
  facet normal 0.393987 -0.428755 -0.812984
    outer loop
      vertex 44.1322 -84.3184 -14.7972
      vertex 46.0723 -84.2962 -13.8687
      vertex 43.3722 -86.7381 -13.8894
    endloop
  endfacet
  facet normal 0.462583 -0.437747 -0.770969
    outer loop
      vertex 48.7718 -82.1088 -13.5553
      vertex 48.0561 -84.0807 -12.8651
      vertex 46.8991 -82.1453 -14.6582
    endloop
  endfacet
  facet normal 0.441028 -0.453755 -0.774339
    outer loop
      vertex 46.8991 -82.1453 -14.6582
      vertex 48.0561 -84.0807 -12.8651
      vertex 46.0723 -84.2962 -13.8687
    endloop
  endfacet
  facet normal 0.414273 -0.377132 -0.828341
    outer loop
      vertex 48.0561 -84.0807 -12.8651
      vertex 47.5726 -86.1805 -12.1509
      vertex 45.4281 -86.5794 -13.0418
    endloop
  endfacet
  facet normal 0.4464 -0.413377 -0.793629
    outer loop
      vertex 46.0723 -84.2962 -13.8687
      vertex 48.0561 -84.0807 -12.8651
      vertex 45.4281 -86.5794 -13.0418
    endloop
  endfacet
  facet normal 0.546886 -0.402949 -0.733858
    outer loop
      vertex 50.6504 -81.7783 -12.3368
      vertex 50.0654 -83.6171 -11.7631
      vertex 48.7718 -82.1088 -13.5553
    endloop
  endfacet
  facet normal 0.507539 -0.442903 -0.739082
    outer loop
      vertex 48.7718 -82.1088 -13.5553
      vertex 50.0654 -83.6171 -11.7631
      vertex 48.0561 -84.0807 -12.8651
    endloop
  endfacet
  facet normal 0.477868 -0.34232 -0.808987
    outer loop
      vertex 50.0654 -83.6171 -11.7631
      vertex 49.7102 -85.5498 -11.1551
      vertex 47.5726 -86.1805 -12.1509
    endloop
  endfacet
  facet normal 0.510668 -0.379921 -0.771283
    outer loop
      vertex 48.0561 -84.0807 -12.8651
      vertex 50.0654 -83.6171 -11.7631
      vertex 47.5726 -86.1805 -12.1509
    endloop
  endfacet
  facet normal 0.645752 -0.352215 -0.677458
    outer loop
      vertex 52.3545 -81.1531 -11.0375
      vertex 51.903 -82.9047 -10.5572
      vertex 50.6504 -81.7783 -12.3368
    endloop
  endfacet
  facet normal 0.606188 -0.406189 -0.683773
    outer loop
      vertex 50.6504 -81.7783 -12.3368
      vertex 51.903 -82.9047 -10.5572
      vertex 50.0654 -83.6171 -11.7631
    endloop
  endfacet
  facet normal 0.575334 -0.305447 -0.758744
    outer loop
      vertex 51.903 -82.9047 -10.5572
      vertex 51.6516 -84.7062 -10.0226
      vertex 49.7102 -85.5498 -11.1551
    endloop
  endfacet
  facet normal 0.604441 -0.338023 -0.721381
    outer loop
      vertex 50.0654 -83.6171 -11.7631
      vertex 51.903 -82.9047 -10.5572
      vertex 49.7102 -85.5498 -11.1551
    endloop
  endfacet
  facet normal 0.68121 -0.462741 -0.567295
    outer loop
      vertex 51.4354 -80.0091 -12.8373
      vertex 53.0043 -79.4331 -11.4232
      vertex 50.6504 -81.7783 -12.3368
    endloop
  endfacet
  facet normal 0.644471 -0.390846 -0.657189
    outer loop
      vertex 53.0043 -79.4331 -11.4232
      vertex 52.3545 -81.1531 -11.0375
      vertex 50.6504 -81.7783 -12.3368
    endloop
  endfacet
  facet normal 0.799459 -0.331648 -0.500873
    outer loop
      vertex 54.0935 -78.7349 -10.147
      vertex 53.6476 -80.3489 -9.79002
      vertex 53.0043 -79.4331 -11.4232
    endloop
  endfacet
  facet normal 0.752855 -0.401393 -0.521625
    outer loop
      vertex 53.0043 -79.4331 -11.4232
      vertex 53.6476 -80.3489 -9.79002
      vertex 52.3545 -81.1531 -11.0375
    endloop
  endfacet
  facet normal 0.714434 -0.297583 -0.633268
    outer loop
      vertex 51.903 -82.9047 -10.5572
      vertex 53.5744 -80.7871 -9.66667
      vertex 52.9666 -82.2463 -9.66667
    endloop
  endfacet
  facet normal 0.714445 -0.2976 -0.633247
    outer loop
      vertex 53.5744 -80.7871 -9.66667
      vertex 51.903 -82.9047 -10.5572
      vertex 53.6476 -80.3489 -9.79002
    endloop
  endfacet
  facet normal 0.753946 -0.347253 -0.557657
    outer loop
      vertex 52.3545 -81.1531 -11.0375
      vertex 53.6476 -80.3489 -9.79002
      vertex 51.903 -82.9047 -10.5572
    endloop
  endfacet
  facet normal 0.82497 -0.458109 -0.331001
    outer loop
      vertex 53.8206 -77.7748 -11.6838
      vertex 54.6914 -77.1742 -10.3447
      vertex 53.0043 -79.4331 -11.4232
    endloop
  endfacet
  facet normal 0.797171 -0.3662 -0.480017
    outer loop
      vertex 54.6914 -77.1742 -10.3447
      vertex 54.0935 -78.7349 -10.147
      vertex 53.0043 -79.4331 -11.4232
    endloop
  endfacet
  facet normal 0.912936 -0.316764 -0.25731
    outer loop
      vertex 54.6914 -77.1742 -10.3447
      vertex 54.9859 -76.8762 -9.66667
      vertex 54.6747 -77.7731 -9.66667
    endloop
  endfacet
  facet normal 0.874421 -0.374145 -0.308873
    outer loop
      vertex 54.0935 -78.7349 -10.147
      vertex 54.6747 -77.7731 -9.66667
      vertex 54.384 -78.4525 -9.66667
    endloop
  endfacet
  facet normal 0.874416 -0.374119 -0.30892
    outer loop
      vertex 54.6747 -77.7731 -9.66667
      vertex 54.0935 -78.7349 -10.147
      vertex 54.6914 -77.1742 -10.3447
    endloop
  endfacet
  facet normal 0.85551 -0.284001 -0.432951
    outer loop
      vertex 53.8617 -79.892 -9.66667
      vertex 53.7402 -80.258 -9.66667
      vertex 53.6476 -80.3489 -9.79002
    endloop
  endfacet
  facet normal 0.882197 -0.320091 -0.345355
    outer loop
      vertex 53.8617 -79.892 -9.66667
      vertex 54.0935 -78.7349 -10.147
      vertex 54.384 -78.4525 -9.66667
    endloop
  endfacet
  facet normal 0.882158 -0.320116 -0.345433
    outer loop
      vertex 54.0935 -78.7349 -10.147
      vertex 53.8617 -79.892 -9.66667
      vertex 53.6476 -80.3489 -9.79002
    endloop
  endfacet
  facet normal 0.898265 -0.428985 -0.0953459
    outer loop
      vertex 55.4526 -75.7317 -9.66667
      vertex 55.3964 -75.6825 -10.4175
      vertex 55.591 -75.4419 -9.66667
    endloop
  endfacet
  facet normal 0.898186 -0.42915 -0.0953508
    outer loop
      vertex 55.3964 -75.6825 -10.4175
      vertex 55.4526 -75.7317 -9.66667
      vertex 54.6914 -77.1742 -10.3447
    endloop
  endfacet
  facet normal 0.901168 -0.367475 -0.229911
    outer loop
      vertex 55.4526 -75.7317 -9.66667
      vertex 54.9859 -76.8762 -9.66667
      vertex 54.6914 -77.1742 -10.3447
    endloop
  endfacet
  facet normal 0.160727 -0.369468 -0.915238
    outer loop
      vertex 42 -78.5158 -18.1643
      vertex 42.4122 -78.6875 -18.0226
      vertex 42 -78.9337 -17.9956
    endloop
  endfacet
  facet normal 0.167645 -0.38042 -0.909492
    outer loop
      vertex 42 -78.9337 -17.9956
      vertex 42.4122 -78.6875 -18.0226
      vertex 42 -79.5804 -17.7251
    endloop
  endfacet
  facet normal 0.221244 -0.405277 -0.887018
    outer loop
      vertex 44.2566 -79.3322 -17.268
      vertex 43.158 -81.6542 -16.4811
      vertex 42.4122 -78.6875 -18.0226
    endloop
  endfacet
  facet normal 0.231693 -0.402007 -0.885838
    outer loop
      vertex 42 -79.5804 -17.7251
      vertex 43.158 -81.6542 -16.4811
      vertex 42 -81.3364 -16.9282
    endloop
  endfacet
  facet normal 0.231596 -0.402062 -0.885839
    outer loop
      vertex 43.158 -81.6542 -16.4811
      vertex 42 -79.5804 -17.7251
      vertex 42.4122 -78.6875 -18.0226
    endloop
  endfacet
  facet normal 0.235961 -0.399988 -0.885625
    outer loop
      vertex 42 -82.4776 -16.4174
      vertex 42.1968 -84.1162 -15.6249
      vertex 42 -84.0762 -15.6954
    endloop
  endfacet
  facet normal 0.235728 -0.400036 -0.885666
    outer loop
      vertex 42.1968 -84.1162 -15.6249
      vertex 42 -82.4776 -16.4174
      vertex 43.158 -81.6542 -16.4811
    endloop
  endfacet
  facet normal 0.233636 -0.397235 -0.887479
    outer loop
      vertex 42 -81.3364 -16.9282
      vertex 43.158 -81.6542 -16.4811
      vertex 42 -82.4776 -16.4174
    endloop
  endfacet
  facet normal 0.216185 -0.4076 -0.887202
    outer loop
      vertex 43.6344 -76.3935 -18.7787
      vertex 45.4619 -77.1712 -17.9761
      vertex 42.4122 -78.6875 -18.0226
    endloop
  endfacet
  facet normal 0.218146 -0.411617 -0.884864
    outer loop
      vertex 45.4619 -77.1712 -17.9761
      vertex 44.2566 -79.3322 -17.268
      vertex 42.4122 -78.6875 -18.0226
    endloop
  endfacet
  facet normal 0.281031 -0.440099 -0.852839
    outer loop
      vertex 47.2681 -77.8204 -17.0459
      vertex 46.0896 -79.8401 -16.392
      vertex 45.4619 -77.1712 -17.9761
    endloop
  endfacet
  facet normal 0.285698 -0.438553 -0.852084
    outer loop
      vertex 45.4619 -77.1712 -17.9761
      vertex 46.0896 -79.8401 -16.392
      vertex 44.2566 -79.3322 -17.268
    endloop
  endfacet
  facet normal 0.300758 -0.444588 -0.843733
    outer loop
      vertex 46.0896 -79.8401 -16.392
      vertex 45.0265 -81.9959 -15.635
      vertex 43.158 -81.6542 -16.4811
    endloop
  endfacet
  facet normal 0.290606 -0.42758 -0.855993
    outer loop
      vertex 44.2566 -79.3322 -17.268
      vertex 46.0896 -79.8401 -16.392
      vertex 43.158 -81.6542 -16.4811
    endloop
  endfacet
  facet normal 0.355547 -0.47801 -0.803176
    outer loop
      vertex 49.0359 -78.2953 -15.9807
      vertex 47.9053 -80.1612 -15.3707
      vertex 47.2681 -77.8204 -17.0459
    endloop
  endfacet
  facet normal 0.366786 -0.47332 -0.800897
    outer loop
      vertex 47.2681 -77.8204 -17.0459
      vertex 47.9053 -80.1612 -15.3707
      vertex 46.0896 -79.8401 -16.392
    endloop
  endfacet
  facet normal 0.376493 -0.476281 -0.794613
    outer loop
      vertex 47.9053 -80.1612 -15.3707
      vertex 46.8991 -82.1453 -14.6582
      vertex 45.0265 -81.9959 -15.635
    endloop
  endfacet
  facet normal 0.370152 -0.464943 -0.804248
    outer loop
      vertex 46.0896 -79.8401 -16.392
      vertex 47.9053 -80.1612 -15.3707
      vertex 45.0265 -81.9959 -15.635
    endloop
  endfacet
  facet normal 0.468647 -0.507426 -0.72311
    outer loop
      vertex 50.7411 -78.51 -14.7249
      vertex 49.6834 -80.2611 -14.1816
      vertex 49.0359 -78.2953 -15.9807
    endloop
  endfacet
  facet normal 0.456673 -0.514077 -0.726068
    outer loop
      vertex 49.0359 -78.2953 -15.9807
      vertex 49.6834 -80.2611 -14.1816
      vertex 47.9053 -80.1612 -15.3707
    endloop
  endfacet
  facet normal 0.452543 -0.478366 -0.752576
    outer loop
      vertex 49.6834 -80.2611 -14.1816
      vertex 48.7718 -82.1088 -13.5553
      vertex 46.8991 -82.1453 -14.6582
    endloop
  endfacet
  facet normal 0.462559 -0.497988 -0.733517
    outer loop
      vertex 47.9053 -80.1612 -15.3707
      vertex 49.6834 -80.2611 -14.1816
      vertex 46.8991 -82.1453 -14.6582
    endloop
  endfacet
  facet normal 0.604591 -0.500364 -0.619762
    outer loop
      vertex 52.398 -78.3223 -13.2601
      vertex 51.4354 -80.0091 -12.8373
      vertex 50.7411 -78.51 -14.7249
    endloop
  endfacet
  facet normal 0.561396 -0.534984 -0.631369
    outer loop
      vertex 50.7411 -78.51 -14.7249
      vertex 51.4354 -80.0091 -12.8373
      vertex 49.6834 -80.2611 -14.1816
    endloop
  endfacet
  facet normal 0.5415 -0.442488 -0.71483
    outer loop
      vertex 51.4354 -80.0091 -12.8373
      vertex 50.6504 -81.7783 -12.3368
      vertex 48.7718 -82.1088 -13.5553
    endloop
  endfacet
  facet normal 0.570806 -0.501889 -0.649837
    outer loop
      vertex 49.6834 -80.2611 -14.1816
      vertex 51.4354 -80.0091 -12.8373
      vertex 48.7718 -82.1088 -13.5553
    endloop
  endfacet
  facet normal 0.605665 -0.57303 -0.552092
    outer loop
      vertex 51.9324 -76.8488 -15.1422
      vertex 53.4987 -76.7199 -13.5577
      vertex 50.7411 -78.51 -14.7249
    endloop
  endfacet
  facet normal 0.597005 -0.523056 -0.608274
    outer loop
      vertex 53.4987 -76.7199 -13.5577
      vertex 52.398 -78.3223 -13.2601
      vertex 50.7411 -78.51 -14.7249
    endloop
  endfacet
  facet normal 0.772105 -0.487844 -0.407262
    outer loop
      vertex 54.7313 -76.2038 -11.8391
      vertex 53.8206 -77.7748 -11.6838
      vertex 53.4987 -76.7199 -13.5577
    endloop
  endfacet
  facet normal 0.701282 -0.562945 -0.437373
    outer loop
      vertex 53.4987 -76.7199 -13.5577
      vertex 53.8206 -77.7748 -11.6838
      vertex 52.398 -78.3223 -13.2601
    endloop
  endfacet
  facet normal 0.686431 -0.430049 -0.586404
    outer loop
      vertex 53.8206 -77.7748 -11.6838
      vertex 53.0043 -79.4331 -11.4232
      vertex 51.4354 -80.0091 -12.8373
    endloop
  endfacet
  facet normal 0.714811 -0.523998 -0.46311
    outer loop
      vertex 52.398 -78.3223 -13.2601
      vertex 53.8206 -77.7748 -11.6838
      vertex 51.4354 -80.0091 -12.8373
    endloop
  endfacet
  facet normal 0.759972 -0.58642 -0.280276
    outer loop
      vertex 54.683 -75.1321 -13.6686
      vertex 55.7032 -74.6685 -11.8723
      vertex 53.4987 -76.7199 -13.5577
    endloop
  endfacet
  facet normal 0.769351 -0.49574 -0.402916
    outer loop
      vertex 55.7032 -74.6685 -11.8723
      vertex 54.7313 -76.2038 -11.8391
      vertex 53.4987 -76.7199 -13.5577
    endloop
  endfacet
  facet normal 0.870636 -0.470316 -0.144205
    outer loop
      vertex 55.7032 -74.6685 -11.8723
      vertex 56.1876 -74.22 -10.4105
      vertex 55.3964 -75.6825 -10.4175
    endloop
  endfacet
  facet normal 0.82708 -0.527754 -0.193425
    outer loop
      vertex 55.7032 -74.6685 -11.8723
      vertex 55.3964 -75.6825 -10.4175
      vertex 54.7313 -76.2038 -11.8391
    endloop
  endfacet
  facet normal 0.836954 -0.413077 -0.358992
    outer loop
      vertex 55.3964 -75.6825 -10.4175
      vertex 54.6914 -77.1742 -10.3447
      vertex 53.8206 -77.7748 -11.6838
    endloop
  endfacet
  facet normal 0.837543 -0.505915 -0.206328
    outer loop
      vertex 54.7313 -76.2038 -11.8391
      vertex 55.3964 -75.6825 -10.4175
      vertex 53.8206 -77.7748 -11.6838
    endloop
  endfacet
  facet normal 0.839824 -0.540552 -0.0499976
    outer loop
      vertex 56.7293 -73.0882 -11.7221
      vertex 57.0656 -72.7015 -10.254
      vertex 55.7032 -74.6685 -11.8723
    endloop
  endfacet
  facet normal 0.863573 -0.485168 -0.137308
    outer loop
      vertex 57.0656 -72.7015 -10.254
      vertex 56.1876 -74.22 -10.4105
      vertex 55.7032 -74.6685 -11.8723
    endloop
  endfacet
  facet normal 0.875864 -0.47946 0.0545988
    outer loop
      vertex 57.0656 -72.7015 -10.254
      vertex 57.0909 -72.5884 -9.66667
      vertex 56.5142 -73.6419 -9.66667
    endloop
  endfacet
  facet normal 0.865289 -0.501182 0.00958561
    outer loop
      vertex 56.1876 -74.22 -10.4105
      vertex 56.5142 -73.6419 -9.66667
      vertex 56.2802 -74.0459 -9.66667
    endloop
  endfacet
  facet normal 0.865232 -0.501277 0.00968438
    outer loop
      vertex 56.5142 -73.6419 -9.66667
      vertex 56.1876 -74.22 -10.4105
      vertex 57.0656 -72.7015 -10.254
    endloop
  endfacet
  facet normal 0.897832 -0.429988 -0.0949122
    outer loop
      vertex 56.101 -74.377 -9.66667
      vertex 55.591 -75.4419 -9.66667
      vertex 55.3964 -75.6825 -10.4175
    endloop
  endfacet
  facet normal 0.879453 -0.475983 0.00192422
    outer loop
      vertex 56.101 -74.377 -9.66667
      vertex 56.1876 -74.22 -10.4105
      vertex 56.2802 -74.0459 -9.66667
    endloop
  endfacet
  facet normal 0.879535 -0.47583 0.001966
    outer loop
      vertex 56.1876 -74.22 -10.4105
      vertex 56.101 -74.377 -9.66667
      vertex 55.3964 -75.6825 -10.4175
    endloop
  endfacet
  facet normal 0.130042 -0.40396 -0.905487
    outer loop
      vertex 42 -72.5455 -20.6499
      vertex 43.1276 -73.2358 -20.18
      vertex 42 -73.6898 -20.1394
    endloop
  endfacet
  facet normal 0.114401 -0.366705 -0.923277
    outer loop
      vertex 42 -73.6898 -20.1394
      vertex 43.1276 -73.2358 -20.18
      vertex 42 -75.1423 -19.5625
    endloop
  endfacet
  facet normal 0.168617 -0.377082 -0.910702
    outer loop
      vertex 44.9487 -74.2618 -19.418
      vertex 43.6344 -76.3935 -18.7787
      vertex 43.1276 -73.2358 -20.18
    endloop
  endfacet
  facet normal 0.145467 -0.381759 -0.912743
    outer loop
      vertex 42 -75.1423 -19.5625
      vertex 43.6344 -76.3935 -18.7787
      vertex 42 -75.5937 -19.3737
    endloop
  endfacet
  facet normal 0.145518 -0.381702 -0.912759
    outer loop
      vertex 43.6344 -76.3935 -18.7787
      vertex 42 -75.1423 -19.5625
      vertex 43.1276 -73.2358 -20.18
    endloop
  endfacet
  facet normal 0.153914 -0.382398 -0.911088
    outer loop
      vertex 42 -77.2011 -18.7161
      vertex 42.4122 -78.6875 -18.0226
      vertex 42 -78.5158 -18.1643
    endloop
  endfacet
  facet normal 0.154039 -0.382361 -0.911083
    outer loop
      vertex 42.4122 -78.6875 -18.0226
      vertex 42 -77.2011 -18.7161
      vertex 43.6344 -76.3935 -18.7787
    endloop
  endfacet
  facet normal 0.149935 -0.374366 -0.915079
    outer loop
      vertex 42 -75.5937 -19.3737
      vertex 43.6344 -76.3935 -18.7787
      vertex 42 -77.2011 -18.7161
    endloop
  endfacet
  facet normal 0.207744 -0.401781 -0.89186
    outer loop
      vertex 44.5712 -71.1604 -20.7787
      vertex 46.3517 -72.2904 -19.8549
      vertex 43.1276 -73.2358 -20.18
    endloop
  endfacet
  facet normal 0.192794 -0.341106 -0.920042
    outer loop
      vertex 46.3517 -72.2904 -19.8549
      vertex 44.9487 -74.2618 -19.418
      vertex 43.1276 -73.2358 -20.18
    endloop
  endfacet
  facet normal 0.281669 -0.366366 -0.886814
    outer loop
      vertex 48.1475 -73.2899 -18.8716
      vertex 46.762 -75.1626 -18.538
      vertex 46.3517 -72.2904 -19.8549
    endloop
  endfacet
  facet normal 0.24771 -0.374328 -0.893599
    outer loop
      vertex 46.3517 -72.2904 -19.8549
      vertex 46.762 -75.1626 -18.538
      vertex 44.9487 -74.2618 -19.418
    endloop
  endfacet
  facet normal 0.223734 -0.394178 -0.891385
    outer loop
      vertex 46.762 -75.1626 -18.538
      vertex 45.4619 -77.1712 -17.9761
      vertex 43.6344 -76.3935 -18.7787
    endloop
  endfacet
  facet normal 0.227866 -0.405918 -0.885047
    outer loop
      vertex 44.9487 -74.2618 -19.418
      vertex 46.762 -75.1626 -18.538
      vertex 43.6344 -76.3935 -18.7787
    endloop
  endfacet
  facet normal 0.3201 -0.386271 -0.865061
    outer loop
      vertex 49.9278 -74.1439 -17.8315
      vertex 48.5472 -75.9276 -17.5459
      vertex 48.1475 -73.2899 -18.8716
    endloop
  endfacet
  facet normal 0.315307 -0.387586 -0.866232
    outer loop
      vertex 48.1475 -73.2899 -18.8716
      vertex 48.5472 -75.9276 -17.5459
      vertex 46.762 -75.1626 -18.538
    endloop
  endfacet
  facet normal 0.290144 -0.42285 -0.858495
    outer loop
      vertex 48.5472 -75.9276 -17.5459
      vertex 47.2681 -77.8204 -17.0459
      vertex 45.4619 -77.1712 -17.9761
    endloop
  endfacet
  facet normal 0.291836 -0.428159 -0.855284
    outer loop
      vertex 46.762 -75.1626 -18.538
      vertex 48.5472 -75.9276 -17.5459
      vertex 45.4619 -77.1712 -17.9761
    endloop
  endfacet
  facet normal 0.368552 -0.4263 -0.826098
    outer loop
      vertex 51.6505 -74.8261 -16.7109
      vertex 50.2814 -76.5252 -16.4449
      vertex 49.9278 -74.1439 -17.8315
    endloop
  endfacet
  facet normal 0.376944 -0.423642 -0.823675
    outer loop
      vertex 49.9278 -74.1439 -17.8315
      vertex 50.2814 -76.5252 -16.4449
      vertex 48.5472 -75.9276 -17.5459
    endloop
  endfacet
  facet normal 0.3614 -0.466073 -0.807568
    outer loop
      vertex 50.2814 -76.5252 -16.4449
      vertex 49.0359 -78.2953 -15.9807
      vertex 47.2681 -77.8204 -17.0459
    endloop
  endfacet
  facet normal 0.358895 -0.457449 -0.813594
    outer loop
      vertex 48.5472 -75.9276 -17.5459
      vertex 50.2814 -76.5252 -16.4449
      vertex 47.2681 -77.8204 -17.0459
    endloop
  endfacet
  facet normal 0.489318 -0.490859 -0.720851
    outer loop
      vertex 53.2484 -75.2162 -15.3606
      vertex 51.9324 -76.8488 -15.1422
      vertex 51.6505 -74.8261 -16.7109
    endloop
  endfacet
  facet normal 0.475484 -0.496797 -0.726022
    outer loop
      vertex 51.6505 -74.8261 -16.7109
      vertex 51.9324 -76.8488 -15.1422
      vertex 50.2814 -76.5252 -16.4449
    endloop
  endfacet
  facet normal 0.465468 -0.514677 -0.720033
    outer loop
      vertex 51.9324 -76.8488 -15.1422
      vertex 50.7411 -78.51 -14.7249
      vertex 49.0359 -78.2953 -15.9807
    endloop
  endfacet
  facet normal 0.465856 -0.516254 -0.718652
    outer loop
      vertex 50.2814 -76.5252 -16.4449
      vertex 51.9324 -76.8488 -15.1422
      vertex 49.0359 -78.2953 -15.9807
    endloop
  endfacet
  facet normal 0.523254 -0.474546 -0.707822
    outer loop
      vertex 53.1049 -73.1641 -16.75
      vertex 54.6448 -73.5633 -15.344
      vertex 51.6505 -74.8261 -16.7109
    endloop
  endfacet
  facet normal 0.518785 -0.430864 -0.738389
    outer loop
      vertex 54.6448 -73.5633 -15.344
      vertex 53.2484 -75.2162 -15.3606
      vertex 51.6505 -74.8261 -16.7109
    endloop
  endfacet
  facet normal 0.711566 -0.504708 -0.488819
    outer loop
      vertex 55.9172 -73.4953 -13.562
      vertex 54.683 -75.1321 -13.6686
      vertex 54.6448 -73.5633 -15.344
    endloop
  endfacet
  facet normal 0.652301 -0.545794 -0.52594
    outer loop
      vertex 54.6448 -73.5633 -15.344
      vertex 54.683 -75.1321 -13.6686
      vertex 53.2484 -75.2162 -15.3606
    endloop
  endfacet
  facet normal 0.631473 -0.511691 -0.582593
    outer loop
      vertex 54.683 -75.1321 -13.6686
      vertex 53.4987 -76.7199 -13.5577
      vertex 51.9324 -76.8488 -15.1422
    endloop
  endfacet
  facet normal 0.635217 -0.580224 -0.509744
    outer loop
      vertex 53.2484 -75.2162 -15.3606
      vertex 54.683 -75.1321 -13.6686
      vertex 51.9324 -76.8488 -15.1422
    endloop
  endfacet
  facet normal 0.732375 -0.536903 -0.418763
    outer loop
      vertex 56.0202 -71.8426 -15.1447
      vertex 57.1062 -71.788 -13.3154
      vertex 54.6448 -73.5633 -15.344
    endloop
  endfacet
  facet normal 0.738465 -0.440551 -0.510475
    outer loop
      vertex 57.1062 -71.788 -13.3154
      vertex 55.9172 -73.4953 -13.562
      vertex 54.6448 -73.5633 -15.344
    endloop
  endfacet
  facet normal 0.847312 -0.491675 -0.200794
    outer loop
      vertex 57.1062 -71.788 -13.3154
      vertex 57.7413 -71.4501 -11.4628
      vertex 56.7293 -73.0882 -11.7221
    endloop
  endfacet
  facet normal 0.812388 -0.530941 -0.241097
    outer loop
      vertex 57.1062 -71.788 -13.3154
      vertex 56.7293 -73.0882 -11.7221
      vertex 55.9172 -73.4953 -13.562
    endloop
  endfacet
  facet normal 0.805582 -0.491645 -0.33064
    outer loop
      vertex 56.7293 -73.0882 -11.7221
      vertex 55.7032 -74.6685 -11.8723
      vertex 54.683 -75.1321 -13.6686
    endloop
  endfacet
  facet normal 0.785885 -0.578326 -0.218915
    outer loop
      vertex 55.9172 -73.4953 -13.562
      vertex 56.7293 -73.0882 -11.7221
      vertex 54.683 -75.1321 -13.6686
    endloop
  endfacet
  facet normal 0.859728 -0.480676 -0.17268
    outer loop
      vertex 58.1918 -69.9519 -13.0215
      vertex 58.7017 -69.6864 -11.2219
      vertex 57.1062 -71.788 -13.3154
    endloop
  endfacet
  facet normal 0.869435 -0.443785 -0.217113
    outer loop
      vertex 58.7017 -69.6864 -11.2219
      vertex 57.7413 -71.4501 -11.4628
      vertex 57.1062 -71.788 -13.3154
    endloop
  endfacet
  facet normal 0.891332 -0.453157 0.0132538
    outer loop
      vertex 58.7017 -69.6864 -11.2219
      vertex 58.8465 -69.3597 -9.78975
      vertex 57.9671 -71.0962 -10.0213
    endloop
  endfacet
  facet normal 0.879238 -0.475925 -0.0208824
    outer loop
      vertex 58.7017 -69.6864 -11.2219
      vertex 57.9671 -71.0962 -10.0213
      vertex 57.7413 -71.4501 -11.4628
    endloop
  endfacet
  facet normal 0.874071 -0.480168 -0.0737477
    outer loop
      vertex 57.9671 -71.0962 -10.0213
      vertex 57.0656 -72.7015 -10.254
      vertex 56.7293 -73.0882 -11.7221
    endloop
  endfacet
  facet normal 0.851047 -0.525071 -0.00440088
    outer loop
      vertex 57.7413 -71.4501 -11.4628
      vertex 57.9671 -71.0962 -10.0213
      vertex 56.7293 -73.0882 -11.7221
    endloop
  endfacet
  facet normal 0.886705 -0.43797 0.148112
    outer loop
      vertex 58.8465 -69.3597 -9.78975
      vertex 58.8415 -69.3282 -9.66667
      vertex 58.6991 -69.6165 -9.66667
    endloop
  endfacet
  facet normal 0.882562 -0.459972 0.0975232
    outer loop
      vertex 57.9671 -71.0962 -10.0213
      vertex 58.6991 -69.6165 -9.66667
      vertex 57.9645 -71.026 -9.66667
    endloop
  endfacet
  facet normal 0.882596 -0.459945 0.0973415
    outer loop
      vertex 58.6991 -69.6165 -9.66667
      vertex 57.9671 -71.0962 -10.0213
      vertex 58.8465 -69.3597 -9.78975
    endloop
  endfacet
  facet normal 0.879352 -0.473187 0.0532407
    outer loop
      vertex 57.5018 -71.8248 -9.66667
      vertex 57.0909 -72.5884 -9.66667
      vertex 57.0656 -72.7015 -10.254
    endloop
  endfacet
  facet normal 0.860534 -0.498459 0.10498
    outer loop
      vertex 57.5018 -71.8248 -9.66667
      vertex 57.9671 -71.0962 -10.0213
      vertex 57.9645 -71.026 -9.66667
    endloop
  endfacet
  facet normal 0.860531 -0.498469 0.104956
    outer loop
      vertex 57.9671 -71.0962 -10.0213
      vertex 57.5018 -71.8248 -9.66667
      vertex 57.0656 -72.7015 -10.254
    endloop
  endfacet
  facet normal 0.177195 -0.439926 -0.880379
    outer loop
      vertex 42 -67.6572 -23.0988
      vertex 42.7735 -66.6 -23.4714
      vertex 42.8207 -66.6 -23.4619
    endloop
  endfacet
  facet normal 0.17624 -0.439389 -0.880839
    outer loop
      vertex 42.7735 -66.6 -23.4714
      vertex 42 -67.6572 -23.0988
      vertex 42 -66.8024 -23.5252
    endloop
  endfacet
  facet normal 0.180318 -0.457687 -0.870637
    outer loop
      vertex 42 -66.6 -23.6316
      vertex 42.7735 -66.6 -23.4714
      vertex 42 -66.8024 -23.5252
    endloop
  endfacet
  facet normal 0.34875 -0.348944 -0.869834
    outer loop
      vertex 45.6863 -66.6 -22.3169
      vertex 44.4494 -67.9773 -22.2603
      vertex 42.8507 -66.6 -23.4538
    endloop
  endfacet
  facet normal 0.471663 -0.257047 -0.843482
    outer loop
      vertex 48.5019 -66.6 -20.8496
      vertex 47.6665 -67.5196 -21.0365
      vertex 46.607 -66.6 -21.9092
    endloop
  endfacet
  facet normal 0.473123 -0.158428 -0.866635
    outer loop
      vertex 51.2756 -66.6 -19.3673
      vertex 50.8189 -67.1138 -19.5227
      vertex 50.7988 -66.6 -19.6276
    endloop
  endfacet
  facet normal 0.495613 -0.155088 -0.854585
    outer loop
      vertex 50.7988 -66.6 -19.6276
      vertex 50.8189 -67.1138 -19.5227
      vertex 50.1765 -66.6 -19.9885
    endloop
  endfacet
  facet normal 0.445161 -0.22348 -0.867115
    outer loop
      vertex 50.8189 -67.1138 -19.5227
      vertex 49.3411 -68.7604 -19.857
      vertex 47.6665 -67.5196 -21.0365
    endloop
  endfacet
  facet normal 0.445175 -0.228351 -0.865838
    outer loop
      vertex 47.6665 -67.5196 -21.0365
      vertex 50.1765 -66.6 -19.9885
      vertex 50.8189 -67.1138 -19.5227
    endloop
  endfacet
  facet normal 0.445201 -0.228474 -0.865792
    outer loop
      vertex 50.1765 -66.6 -19.9885
      vertex 47.6665 -67.5196 -21.0365
      vertex 48.5019 -66.6 -20.8496
    endloop
  endfacet
  facet normal 0.431205 -0.136085 -0.891932
    outer loop
      vertex 52.564 -68.2449 -18.4669
      vertex 53.7955 -66.6 -18.1225
      vertex 53.9487 -66.7051 -18.0324
    endloop
  endfacet
  facet normal 0.431024 -0.135927 -0.892044
    outer loop
      vertex 53.7955 -66.6 -18.1225
      vertex 52.564 -68.2449 -18.4669
      vertex 52.3621 -66.6 -18.8151
    endloop
  endfacet
  facet normal 0.449118 -0.131935 -0.883678
    outer loop
      vertex 52.564 -68.2449 -18.4669
      vertex 51.2756 -66.6 -19.3673
      vertex 52.3621 -66.6 -18.8151
    endloop
  endfacet
  facet normal 0.449117 -0.131935 -0.883678
    outer loop
      vertex 51.2756 -66.6 -19.3673
      vertex 52.564 -68.2449 -18.4669
      vertex 50.8189 -67.1138 -19.5227
    endloop
  endfacet
  facet normal 0.415306 -0.209155 -0.885311
    outer loop
      vertex 52.564 -68.2449 -18.4669
      vertex 51.0983 -69.8579 -18.7734
      vertex 49.3411 -68.7604 -19.857
    endloop
  endfacet
  facet normal 0.414372 -0.191244 -0.889787
    outer loop
      vertex 50.8189 -67.1138 -19.5227
      vertex 52.564 -68.2449 -18.4669
      vertex 49.3411 -68.7604 -19.857
    endloop
  endfacet
  facet normal 0.450884 -0.138601 -0.881756
    outer loop
      vertex 55.6649 -67.5641 -17.0198
      vertex 54.3283 -69.1709 -17.4507
      vertex 53.9487 -66.7051 -18.0324
    endloop
  endfacet
  facet normal 0.436905 -0.142269 -0.888185
    outer loop
      vertex 53.9487 -66.7051 -18.0324
      vertex 54.3283 -69.1709 -17.4507
      vertex 52.564 -68.2449 -18.4669
    endloop
  endfacet
  facet normal 0.408149 -0.207133 -0.889106
    outer loop
      vertex 54.3283 -69.1709 -17.4507
      vertex 52.8756 -70.7946 -17.7393
      vertex 51.0983 -69.8579 -18.7734
    endloop
  endfacet
  facet normal 0.407542 -0.201061 -0.890777
    outer loop
      vertex 52.564 -68.2449 -18.4669
      vertex 54.3283 -69.1709 -17.4507
      vertex 51.0983 -69.8579 -18.7734
    endloop
  endfacet
  facet normal 0.185692 -0.452203 -0.872371
    outer loop
      vertex 42 -69.3279 -22.2431
      vertex 42.8514 -69.9581 -21.7352
      vertex 42 -71.1905 -21.2776
    endloop
  endfacet
  facet normal 0.229977 -0.471022 -0.851615
    outer loop
      vertex 42 -67.6572 -23.0988
      vertex 42.8507 -66.6 -23.4538
      vertex 44.4494 -67.9773 -22.2603
    endloop
  endfacet
  facet normal 0.229985 -0.470995 -0.851628
    outer loop
      vertex 42 -67.6572 -23.0988
      vertex 44.4494 -67.9773 -22.2603
      vertex 42 -68.5318 -22.6151
    endloop
  endfacet
  facet normal 0.229942 -0.471001 -0.851636
    outer loop
      vertex 42.8507 -66.6 -23.4538
      vertex 42 -67.6572 -23.0988
      vertex 42.8207 -66.6 -23.4619
    endloop
  endfacet
  facet normal 0.221462 -0.412828 -0.883475
    outer loop
      vertex 42 -68.5318 -22.6151
      vertex 42.8514 -69.9581 -21.7352
      vertex 42 -69.3279 -22.2431
    endloop
  endfacet
  facet normal 0.221433 -0.412845 -0.883474
    outer loop
      vertex 42.8514 -69.9581 -21.7352
      vertex 42 -68.5318 -22.6151
      vertex 44.4494 -67.9773 -22.2603
    endloop
  endfacet
  facet normal 0.305934 -0.392106 -0.867558
    outer loop
      vertex 46.0999 -69.278 -21.0904
      vertex 44.5712 -71.1604 -20.7787
      vertex 44.4494 -67.9773 -22.2603
    endloop
  endfacet
  facet normal 0.210861 -0.405854 -0.889281
    outer loop
      vertex 44.4494 -67.9773 -22.2603
      vertex 44.5712 -71.1604 -20.7787
      vertex 42.8514 -69.9581 -21.7352
    endloop
  endfacet
  facet normal 0.154243 -0.371315 -0.915606
    outer loop
      vertex 42 -71.9426 -20.8944
      vertex 43.1276 -73.2358 -20.18
      vertex 42 -72.5455 -20.6499
    endloop
  endfacet
  facet normal 0.154176 -0.371368 -0.915596
    outer loop
      vertex 43.1276 -73.2358 -20.18
      vertex 42 -71.9426 -20.8944
      vertex 44.5712 -71.1604 -20.7787
    endloop
  endfacet
  facet normal 0.175438 -0.446936 -0.877194
    outer loop
      vertex 42 -71.1905 -21.2776
      vertex 44.5712 -71.1604 -20.7787
      vertex 42 -71.9426 -20.8944
    endloop
  endfacet
  facet normal 0.175439 -0.446915 -0.877205
    outer loop
      vertex 44.5712 -71.1604 -20.7787
      vertex 42 -71.1905 -21.2776
      vertex 42.8514 -69.9581 -21.7352
    endloop
  endfacet
  facet normal 0.375774 -0.372382 -0.848602
    outer loop
      vertex 47.6665 -67.5196 -21.0365
      vertex 45.6863 -66.6 -22.3169
      vertex 46.607 -66.6 -21.9092
    endloop
  endfacet
  facet normal 0.375789 -0.372355 -0.848607
    outer loop
      vertex 45.6863 -66.6 -22.3169
      vertex 47.6665 -67.5196 -21.0365
      vertex 44.4494 -67.9773 -22.2603
    endloop
  endfacet
  facet normal 0.376233 -0.308414 -0.873687
    outer loop
      vertex 47.6665 -67.5196 -21.0365
      vertex 46.0999 -69.278 -21.0904
      vertex 44.4494 -67.9773 -22.2603
    endloop
  endfacet
  facet normal 0.402631 -0.283851 -0.87024
    outer loop
      vertex 49.3411 -68.7604 -19.857
      vertex 47.8294 -70.4724 -19.998
      vertex 47.6665 -67.5196 -21.0365
    endloop
  endfacet
  facet normal 0.358357 -0.292088 -0.886716
    outer loop
      vertex 47.6665 -67.5196 -21.0365
      vertex 47.8294 -70.4724 -19.998
      vertex 46.0999 -69.278 -21.0904
    endloop
  endfacet
  facet normal 0.281823 -0.300786 -0.9111
    outer loop
      vertex 47.8294 -70.4724 -19.998
      vertex 46.3517 -72.2904 -19.8549
      vertex 44.5712 -71.1604 -20.7787
    endloop
  endfacet
  facet normal 0.290796 -0.381451 -0.877458
    outer loop
      vertex 46.0999 -69.278 -21.0904
      vertex 47.8294 -70.4724 -19.998
      vertex 44.5712 -71.1604 -20.7787
    endloop
  endfacet
  facet normal 0.384935 -0.258473 -0.886012
    outer loop
      vertex 51.0983 -69.8579 -18.7734
      vertex 49.6046 -71.5295 -18.9347
      vertex 49.3411 -68.7604 -19.857
    endloop
  endfacet
  facet normal 0.377456 -0.260097 -0.88875
    outer loop
      vertex 49.3411 -68.7604 -19.857
      vertex 49.6046 -71.5295 -18.9347
      vertex 47.8294 -70.4724 -19.998
    endloop
  endfacet
  facet normal 0.324035 -0.300363 -0.897097
    outer loop
      vertex 49.6046 -71.5295 -18.9347
      vertex 48.1475 -73.2899 -18.8716
      vertex 46.3517 -72.2904 -19.8549
    endloop
  endfacet
  facet normal 0.328365 -0.336375 -0.882626
    outer loop
      vertex 47.8294 -70.4724 -19.998
      vertex 49.6046 -71.5295 -18.9347
      vertex 46.3517 -72.2904 -19.8549
    endloop
  endfacet
  facet normal 0.376975 -0.264635 -0.887614
    outer loop
      vertex 52.8756 -70.7946 -17.7393
      vertex 51.3842 -72.4435 -17.8811
      vertex 51.0983 -69.8579 -18.7734
    endloop
  endfacet
  facet normal 0.388511 -0.261918 -0.883435
    outer loop
      vertex 51.0983 -69.8579 -18.7734
      vertex 51.3842 -72.4435 -17.8811
      vertex 49.6046 -71.5295 -18.9347
    endloop
  endfacet
  facet normal 0.353908 -0.328666 -0.87563
    outer loop
      vertex 51.3842 -72.4435 -17.8811
      vertex 49.9278 -74.1439 -17.8315
      vertex 48.1475 -73.2899 -18.8716
    endloop
  endfacet
  facet normal 0.353278 -0.323871 -0.877669
    outer loop
      vertex 49.6046 -71.5295 -18.9347
      vertex 51.3842 -72.4435 -17.8811
      vertex 48.1475 -73.2899 -18.8716
    endloop
  endfacet
  facet normal 0.437499 -0.310073 -0.844067
    outer loop
      vertex 54.5705 -71.495 -16.6035
      vertex 53.1049 -73.1641 -16.75
      vertex 52.8756 -70.7946 -17.7393
    endloop
  endfacet
  facet normal 0.426701 -0.312974 -0.848513
    outer loop
      vertex 52.8756 -70.7946 -17.7393
      vertex 53.1049 -73.1641 -16.75
      vertex 51.3842 -72.4435 -17.8811
    endloop
  endfacet
  facet normal 0.399515 -0.36935 -0.839028
    outer loop
      vertex 53.1049 -73.1641 -16.75
      vertex 51.6505 -74.8261 -16.7109
      vertex 49.9278 -74.1439 -17.8315
    endloop
  endfacet
  facet normal 0.399104 -0.366352 -0.840537
    outer loop
      vertex 51.3842 -72.4435 -17.8811
      vertex 53.1049 -73.1641 -16.75
      vertex 49.9278 -74.1439 -17.8315
    endloop
  endfacet
  facet normal 0.480583 -0.282403 -0.830234
    outer loop
      vertex 54.3283 -69.1709 -17.4507
      vertex 55.9603 -69.7742 -16.3008
      vertex 52.8756 -70.7946 -17.7393
    endloop
  endfacet
  facet normal 0.473207 -0.232724 -0.849656
    outer loop
      vertex 55.9603 -69.7742 -16.3008
      vertex 54.5705 -71.495 -16.6035
      vertex 52.8756 -70.7946 -17.7393
    endloop
  endfacet
  facet normal 0.672257 -0.346268 -0.654346
    outer loop
      vertex 57.2797 -70.0119 -14.8195
      vertex 56.0202 -71.8426 -15.1447
      vertex 55.9603 -69.7742 -16.3008
    endloop
  endfacet
  facet normal 0.612557 -0.372055 -0.697388
    outer loop
      vertex 55.9603 -69.7742 -16.3008
      vertex 56.0202 -71.8426 -15.1447
      vertex 54.5705 -71.495 -16.6035
    endloop
  endfacet
  facet normal 0.571428 -0.372034 -0.731478
    outer loop
      vertex 56.0202 -71.8426 -15.1447
      vertex 54.6448 -73.5633 -15.344
      vertex 53.1049 -73.1641 -16.75
    endloop
  endfacet
  facet normal 0.578452 -0.448099 -0.681616
    outer loop
      vertex 54.5705 -71.495 -16.6035
      vertex 56.0202 -71.8426 -15.1447
      vertex 53.1049 -73.1641 -16.75
    endloop
  endfacet
  facet normal 0.71706 -0.333062 -0.612286
    outer loop
      vertex 57.155 -67.956 -15.8907
      vertex 58.3254 -68.027 -14.4814
      vertex 55.9603 -69.7742 -16.3008
    endloop
  endfacet
  facet normal 0.701089 -0.255988 -0.665541
    outer loop
      vertex 58.3254 -68.027 -14.4814
      vertex 57.2797 -70.0119 -14.8195
      vertex 55.9603 -69.7742 -16.3008
    endloop
  endfacet
  facet normal 0.845547 -0.358647 -0.395503
    outer loop
      vertex 58.3254 -68.027 -14.4814
      vertex 59.143 -67.9438 -12.8089
      vertex 58.1918 -69.9519 -13.0215
    endloop
  endfacet
  facet normal 0.833694 -0.369273 -0.410598
    outer loop
      vertex 58.3254 -68.027 -14.4814
      vertex 58.1918 -69.9519 -13.0215
      vertex 57.2797 -70.0119 -14.8195
    endloop
  endfacet
  facet normal 0.794651 -0.39622 -0.459934
    outer loop
      vertex 58.1918 -69.9519 -13.0215
      vertex 57.1062 -71.788 -13.3154
      vertex 56.0202 -71.8426 -15.1447
    endloop
  endfacet
  facet normal 0.790789 -0.475613 -0.385285
    outer loop
      vertex 57.2797 -70.0119 -14.8195
      vertex 58.1918 -69.9519 -13.0215
      vertex 56.0202 -71.8426 -15.1447
    endloop
  endfacet
  facet normal 0.871705 -0.229488 -0.432972
    outer loop
      vertex 58.7877 -66.6 -14.307
      vertex 59.2311 -66.6 -13.4143
      vertex 58.3254 -68.027 -14.4814
    endloop
  endfacet
  facet normal 0.87584 -0.244793 -0.415909
    outer loop
      vertex 59.143 -67.9438 -12.8089
      vertex 59.2311 -66.6 -13.4143
      vertex 59.5561 -66.6 -12.7299
    endloop
  endfacet
  facet normal 0.87581 -0.244814 -0.41596
    outer loop
      vertex 59.2311 -66.6 -13.4143
      vertex 59.143 -67.9438 -12.8089
      vertex 58.3254 -68.027 -14.4814
    endloop
  endfacet
  facet normal 0.923598 -0.29324 -0.246934
    outer loop
      vertex 59.7382 -66.6 -11.9533
      vertex 59.9642 -66.6 -11.108
      vertex 59.5949 -67.7544 -11.1184
    endloop
  endfacet
  facet normal 0.936096 -0.274904 -0.219435
    outer loop
      vertex 59.143 -67.9438 -12.8089
      vertex 59.7382 -66.6 -11.9533
      vertex 59.5949 -67.7544 -11.1184
    endloop
  endfacet
  facet normal 0.936094 -0.274862 -0.219499
    outer loop
      vertex 59.7382 -66.6 -11.9533
      vertex 59.143 -67.9438 -12.8089
      vertex 59.5561 -66.6 -12.7299
    endloop
  endfacet
  facet normal 0.894372 -0.403095 -0.193942
    outer loop
      vertex 59.5949 -67.7544 -11.1184
      vertex 58.7017 -69.6864 -11.2219
      vertex 58.1918 -69.9519 -13.0215
    endloop
  endfacet
  facet normal 0.894368 -0.403116 -0.193916
    outer loop
      vertex 59.143 -67.9438 -12.8089
      vertex 59.5949 -67.7544 -11.1184
      vertex 58.1918 -69.9519 -13.0215
    endloop
  endfacet
  facet normal 0.944355 -0.324694 -0.0526081
    outer loop
      vertex 59.9807 -66.6 -10.314
      vertex 60.0142 -66.6 -9.71265
      vertex 59.7132 -67.4757 -9.71106
    endloop
  endfacet
  facet normal 0.952308 -0.304499 -0.0197494
    outer loop
      vertex 59.5949 -67.7544 -11.1184
      vertex 59.9807 -66.6 -10.314
      vertex 59.7132 -67.4757 -9.71106
    endloop
  endfacet
  facet normal 0.952315 -0.304473 -0.0197899
    outer loop
      vertex 59.9807 -66.6 -10.314
      vertex 59.5949 -67.7544 -11.1184
      vertex 59.9642 -66.6 -11.108
    endloop
  endfacet
  facet normal 0.908418 -0.418048 0.00351737
    outer loop
      vertex 59.7132 -67.4757 -9.71106
      vertex 58.8465 -69.3597 -9.78975
      vertex 58.7017 -69.6864 -11.2219
    endloop
  endfacet
  facet normal 0.907528 -0.419936 0.00687502
    outer loop
      vertex 59.5949 -67.7544 -11.1184
      vertex 59.7132 -67.4757 -9.71106
      vertex 58.7017 -69.6864 -11.2219
    endloop
  endfacet
  facet normal 0.934734 -0.320976 0.152469
    outer loop
      vertex 59.7107 -67.462 -9.66667
      vertex 60.0142 -66.6 -9.71265
      vertex 60.0067 -66.6 -9.66667
    endloop
  endfacet
  facet normal 0.934829 -0.321049 0.151733
    outer loop
      vertex 60.0142 -66.6 -9.71265
      vertex 59.7107 -67.462 -9.66667
      vertex 59.7132 -67.4757 -9.71106
    endloop
  endfacet
  facet normal 0.905211 -0.40141 0.139507
    outer loop
      vertex 58.8465 -69.3597 -9.78975
      vertex 58.9301 -69.1284 -9.66667
      vertex 58.8415 -69.3282 -9.66667
    endloop
  endfacet
  facet normal 0.890946 -0.41735 0.178983
    outer loop
      vertex 58.9301 -69.1284 -9.66667
      vertex 59.7132 -67.4757 -9.71106
      vertex 59.7107 -67.462 -9.66667
    endloop
  endfacet
  facet normal 0.890922 -0.417334 0.179139
    outer loop
      vertex 59.7132 -67.4757 -9.71106
      vertex 58.9301 -69.1284 -9.66667
      vertex 58.8465 -69.3597 -9.78975
    endloop
  endfacet
  facet normal 0.496864 -0.106646 -0.861251
    outer loop
      vertex 54.0347 -66.6 -17.9958
      vertex 54.311 -66.6 -17.8364
      vertex 53.9487 -66.7051 -18.0324
    endloop
  endfacet
  facet normal 0.487361 -0.053794 -0.871542
    outer loop
      vertex 55.6649 -67.5641 -17.0198
      vertex 54.311 -66.6 -17.8364
      vertex 56.2867 -66.6 -16.7316
    endloop
  endfacet
  facet normal 0.487212 -0.0540598 -0.871609
    outer loop
      vertex 54.311 -66.6 -17.8364
      vertex 55.6649 -67.5641 -17.0198
      vertex 53.9487 -66.7051 -18.0324
    endloop
  endfacet
  facet normal 0.62756 -0.109788 -0.770789
    outer loop
      vertex 57.7279 -66.6 -15.6174
      vertex 57.155 -67.956 -15.8907
      vertex 56.883 -66.6 -16.3053
    endloop
  endfacet
  facet normal 0.576567 -0.130933 -0.806491
    outer loop
      vertex 57.155 -67.956 -15.8907
      vertex 56.2867 -66.6 -16.7316
      vertex 56.883 -66.6 -16.3053
    endloop
  endfacet
  facet normal 0.576656 -0.130845 -0.806441
    outer loop
      vertex 56.2867 -66.6 -16.7316
      vertex 57.155 -67.956 -15.8907
      vertex 55.6649 -67.5641 -17.0198
    endloop
  endfacet
  facet normal 0.528607 -0.159273 -0.833791
    outer loop
      vertex 57.155 -67.956 -15.8907
      vertex 55.9603 -69.7742 -16.3008
      vertex 54.3283 -69.1709 -17.4507
    endloop
  endfacet
  facet normal 0.545835 -0.238655 -0.803186
    outer loop
      vertex 55.6649 -67.5641 -17.0198
      vertex 57.155 -67.956 -15.8907
      vertex 54.3283 -69.1709 -17.4507
    endloop
  endfacet
  facet normal 0.754346 -0.166784 -0.634938
    outer loop
      vertex 58.3254 -68.027 -14.4814
      vertex 58.332 -66.6 -14.8484
      vertex 58.7877 -66.6 -14.307
    endloop
  endfacet
  facet normal 0.754379 -0.166775 -0.634901
    outer loop
      vertex 58.332 -66.6 -14.8484
      vertex 58.3254 -68.027 -14.4814
      vertex 57.155 -67.956 -15.8907
    endloop
  endfacet
  facet normal 0.769938 -0.203389 -0.604837
    outer loop
      vertex 57.7279 -66.6 -15.6174
      vertex 58.332 -66.6 -14.8484
      vertex 57.155 -67.956 -15.8907
    endloop
  endfacet
endsolid OpenSCAD_Model
