solid OpenSCAD_Model
  facet normal 1 -0 0
    outer loop
      vertex 42 -67.0328 22.3707
      vertex 42 -66.6 9.66667
      vertex 42 -66.6 22.4185
    endloop
  endfacet
  facet normal 1 -0 0
    outer loop
      vertex 42 -68.3 22.2248
      vertex 42 -66.6 9.66667
      vertex 42 -67.0328 22.3707
    endloop
  endfacet
  facet normal 1 -0 0
    outer loop
      vertex 42 -69.6132 22.0162
      vertex 42 -66.6 9.66667
      vertex 42 -68.3 22.2248
    endloop
  endfacet
  facet normal 1 -0 0
    outer loop
      vertex 42 -71.4342 21.7178
      vertex 42 -66.6 9.66667
      vertex 42 -69.6132 22.0162
    endloop
  endfacet
  facet normal 1 -0 0
    outer loop
      vertex 42 -72.244 21.5554
      vertex 42 -66.6 9.66667
      vertex 42 -71.4342 21.7178
    endloop
  endfacet
  facet normal 1 -0 0
    outer loop
      vertex 42 -73.8676 21.202
      vertex 42 -66.6 9.66667
      vertex 42 -72.244 21.5554
    endloop
  endfacet
  facet normal 1 -0 0
    outer loop
      vertex 42 -74.8971 20.9658
      vertex 42 -66.6 9.66667
      vertex 42 -73.8676 21.202
    endloop
  endfacet
  facet normal 1 -0 0
    outer loop
      vertex 42 -77.1921 20.3792
      vertex 42 -66.6 9.66667
      vertex 42 -74.8971 20.9658
    endloop
  endfacet
  facet normal 1 -0 0
    outer loop
      vertex 42 -77.6127 20.2732
      vertex 42 -66.6 9.66667
      vertex 42 -77.1921 20.3792
    endloop
  endfacet
  facet normal 1 -0 0
    outer loop
      vertex 42 -77.8087 20.2166
      vertex 42 -66.6 9.66667
      vertex 42 -77.6127 20.2732
    endloop
  endfacet
  facet normal 1 -0 0
    outer loop
      vertex 42 -78.3861 20.0508
      vertex 42 -66.6 9.66667
      vertex 42 -77.8087 20.2166
    endloop
  endfacet
  facet normal 1 -0 0
    outer loop
      vertex 42 -79.8285 19.6119
      vertex 42 -66.6 9.66667
      vertex 42 -78.3861 20.0508
    endloop
  endfacet
  facet normal 1 -0 0
    outer loop
      vertex 42 -80.3463 19.457
      vertex 42 -66.6 9.66667
      vertex 42 -79.8285 19.6119
    endloop
  endfacet
  facet normal 1 -0 0
    outer loop
      vertex 42 -81.4204 19.1214
      vertex 42 -66.6 9.66667
      vertex 42 -80.3463 19.457
    endloop
  endfacet
  facet normal 1 0 0
    outer loop
      vertex 42 -88.8 9.66667
      vertex 42 -81.4204 19.1214
      vertex 42 -83.151 18.566
    endloop
  endfacet
  facet normal 1 0 0
    outer loop
      vertex 42 -88.8 9.66667
      vertex 42 -83.151 18.566
      vertex 42 -84.0255 18.2698
    endloop
  endfacet
  facet normal 1 0 0
    outer loop
      vertex 42 -88.8 9.66667
      vertex 42 -84.0255 18.2698
      vertex 42 -86.056 17.6164
    endloop
  endfacet
  facet normal 1 0 0
    outer loop
      vertex 42 -88.8 9.66667
      vertex 42 -86.056 17.6164
      vertex 42 -86.6462 17.4032
    endloop
  endfacet
  facet normal 1 0 0
    outer loop
      vertex 42 -88.8 9.66667
      vertex 42 -86.6462 17.4032
      vertex 42 -88.8 16.5924
    endloop
  endfacet
  facet normal 1 0 0
    outer loop
      vertex 42 -81.4204 19.1214
      vertex 42 -88.8 9.66667
      vertex 42 -66.6 9.66667
    endloop
  endfacet
  facet normal 0 0 -1
    outer loop
      vertex 21 -88.8 9.66667
      vertex 42 -66.6 9.66667
      vertex 42 -88.8 9.66667
    endloop
  endfacet
  facet normal -0 0 -1
    outer loop
      vertex 42 -66.6 9.66667
      vertex 21 -88.8 9.66667
      vertex 21 -66.6 9.66667
    endloop
  endfacet
  facet normal -1 0 0
    outer loop
      vertex 21 -66.6 9.66667
      vertex 21 -66.911 22.562
      vertex 21 -66.6 22.6651
    endloop
  endfacet
  facet normal -1 0 0
    outer loop
      vertex 21 -66.6 9.66667
      vertex 21 -70.0654 21.5145
      vertex 21 -66.911 22.562
    endloop
  endfacet
  facet normal -1 0 0
    outer loop
      vertex 21 -66.6 9.66667
      vertex 21 -70.1035 21.5016
      vertex 21 -70.0654 21.5145
    endloop
  endfacet
  facet normal -1 0 0
    outer loop
      vertex 21 -66.6 9.66667
      vertex 21 -70.1236 21.495
      vertex 21 -70.1035 21.5016
    endloop
  endfacet
  facet normal -1 0 0
    outer loop
      vertex 21 -66.6 9.66667
      vertex 21 -70.1869 21.4747
      vertex 21 -70.1236 21.495
    endloop
  endfacet
  facet normal -1 0 0
    outer loop
      vertex 21 -66.6 9.66667
      vertex 21 -72.4729 20.703
      vertex 21 -70.1869 21.4747
    endloop
  endfacet
  facet normal -1 0 0
    outer loop
      vertex 21 -66.6 9.66667
      vertex 21 -73.2422 20.4581
      vertex 21 -72.4729 20.703
    endloop
  endfacet
  facet normal -1 0 0
    outer loop
      vertex 21 -66.6 9.66667
      vertex 21 -74.7948 19.9558
      vertex 21 -73.2422 20.4581
    endloop
  endfacet
  facet normal -1 0 0
    outer loop
      vertex 21 -66.6 9.66667
      vertex 21 -76.3047 19.4592
      vertex 21 -74.7948 19.9558
    endloop
  endfacet
  facet normal -1 0 0
    outer loop
      vertex 21 -66.6 9.66667
      vertex 21 -76.994 19.2248
      vertex 21 -76.3047 19.4592
    endloop
  endfacet
  facet normal -1 0 0
    outer loop
      vertex 21 -66.6 9.66667
      vertex 21 -78.7796 18.6329
      vertex 21 -76.994 19.2248
    endloop
  endfacet
  facet normal -1 0 0
    outer loop
      vertex 21 -66.6 9.66667
      vertex 21 -79.1507 18.5037
      vertex 21 -78.7796 18.6329
    endloop
  endfacet
  facet normal -1 0 0
    outer loop
      vertex 21 -66.6 9.66667
      vertex 21 -79.2982 18.4541
      vertex 21 -79.1507 18.5037
    endloop
  endfacet
  facet normal -1 0 0
    outer loop
      vertex 21 -66.6 9.66667
      vertex 21 -79.6554 18.3238
      vertex 21 -79.2982 18.4541
    endloop
  endfacet
  facet normal -1 0 0
    outer loop
      vertex 21 -66.6 9.66667
      vertex 21 -82.2676 17.3656
      vertex 21 -79.6554 18.3238
    endloop
  endfacet
  facet normal -1 0 0
    outer loop
      vertex 21 -88.8 9.66667
      vertex 21 -82.2676 17.3656
      vertex 21 -66.6 9.66667
    endloop
  endfacet
  facet normal -1 0 0
    outer loop
      vertex 21 -82.2676 17.3656
      vertex 21 -88.8 9.66667
      vertex 21 -83.3101 16.9563
    endloop
  endfacet
  facet normal -1 0 0
    outer loop
      vertex 21 -83.3101 16.9563
      vertex 21 -88.8 9.66667
      vertex 21 -85.1994 16.2097
    endloop
  endfacet
  facet normal -1 0 0
    outer loop
      vertex 21 -85.1994 16.2097
      vertex 21 -88.8 9.66667
      vertex 21 -85.3238 16.1585
    endloop
  endfacet
  facet normal -1 0 0
    outer loop
      vertex 21 -85.3238 16.1585
      vertex 21 -88.8 9.66667
      vertex 21 -85.5908 16.0456
    endloop
  endfacet
  facet normal -1 0 0
    outer loop
      vertex 21 -85.5908 16.0456
      vertex 21 -88.8 9.66667
      vertex 21 -88.1077 14.9318
    endloop
  endfacet
  facet normal -1 0 0
    outer loop
      vertex 21 -88.1077 14.9318
      vertex 21 -88.8 9.66667
      vertex 21 -88.8 14.6155
    endloop
  endfacet
  facet normal 0 1 0
    outer loop
      vertex 42 -66.6 9.66667
      vertex 32.3661 -66.6 24.3048
      vertex 32.5002 -66.6 24.3042
    endloop
  endfacet
  facet normal 0 1 0
    outer loop
      vertex 32.3661 -66.6 24.3048
      vertex 21 -66.6 9.66667
      vertex 30.2348 -66.6 24.2957
    endloop
  endfacet
  facet normal -0 1 0
    outer loop
      vertex 30.1008 -66.6 24.2946
      vertex 30.2348 -66.6 24.2957
      vertex 21 -66.6 9.66667
    endloop
  endfacet
  facet normal 0 1 0
    outer loop
      vertex 42 -66.6 9.66667
      vertex 32.5002 -66.6 24.3042
      vertex 34.5618 -66.6 24.1232
    endloop
  endfacet
  facet normal 0 1 0
    outer loop
      vertex 42 -66.6 9.66667
      vertex 34.5618 -66.6 24.1232
      vertex 34.903 -66.6 24.0921
    endloop
  endfacet
  facet normal 0 1 0
    outer loop
      vertex 32.3661 -66.6 24.3048
      vertex 42 -66.6 9.66667
      vertex 21 -66.6 9.66667
    endloop
  endfacet
  facet normal 0 1 0
    outer loop
      vertex 42 -66.6 9.66667
      vertex 34.903 -66.6 24.0921
      vertex 36.7059 -66.6 23.7924
    endloop
  endfacet
  facet normal 0 1 0
    outer loop
      vertex 30.2348 -66.6 24.2957
      vertex 30.1008 -66.6 24.2946
      vertex 30.1081 -66.6 24.2952
    endloop
  endfacet
  facet normal 0 1 0
    outer loop
      vertex 27.7066 -66.6 24.088
      vertex 21 -66.6 9.66667
      vertex 25.4431 -66.6 23.7349
    endloop
  endfacet
  facet normal 0 1 0
    outer loop
      vertex 42 -66.6 9.66667
      vertex 36.7059 -66.6 23.7924
      vertex 37.3426 -66.6 23.6898
    endloop
  endfacet
  facet normal -0 1 0
    outer loop
      vertex 25.0873 -66.6 23.6669
      vertex 25.4431 -66.6 23.7349
      vertex 21 -66.6 9.66667
    endloop
  endfacet
  facet normal 0 1 0
    outer loop
      vertex 42 -66.6 9.66667
      vertex 37.3426 -66.6 23.6898
      vertex 38.7781 -66.6 23.3212
    endloop
  endfacet
  facet normal 0 1 0
    outer loop
      vertex 30.1008 -66.6 24.2946
      vertex 21 -66.6 9.66667
      vertex 27.7066 -66.6 24.088
    endloop
  endfacet
  facet normal 0 1 0
    outer loop
      vertex 25.0873 -66.6 23.6669
      vertex 21 -66.6 9.66667
      vertex 22.7699 -66.6 23.1598
    endloop
  endfacet
  facet normal 0 1 0
    outer loop
      vertex 42 -66.6 9.66667
      vertex 38.7781 -66.6 23.3212
      vertex 39.8621 -66.6 23.0794
    endloop
  endfacet
  facet normal 0 1 0
    outer loop
      vertex 42 -66.6 9.66667
      vertex 39.8621 -66.6 23.0794
      vertex 40.7664 -66.6 22.7737
    endloop
  endfacet
  facet normal 0 1 0
    outer loop
      vertex 22.7699 -66.6 23.1598
      vertex 21 -66.6 9.66667
      vertex 22.5412 -66.6 23.0936
    endloop
  endfacet
  facet normal 0 1 -0
    outer loop
      vertex 42 -66.6 9.66667
      vertex 40.7664 -66.6 22.7737
      vertex 42 -66.6 22.4185
    endloop
  endfacet
  facet normal 0 1 0
    outer loop
      vertex 25.4431 -66.6 23.7349
      vertex 25.0873 -66.6 23.6669
      vertex 25.2682 -66.6 23.707
    endloop
  endfacet
  facet normal 0 1 0
    outer loop
      vertex 22.5412 -66.6 23.0936
      vertex 21 -66.6 9.66667
      vertex 21 -66.6 22.6651
    endloop
  endfacet
  facet normal 0 -1 0
    outer loop
      vertex 34.6664 -88.8 17.3485
      vertex 34.8205 -88.8 17.353
      vertex 34.7953 -88.8 17.3525
    endloop
  endfacet
  facet normal 0 -1 0
    outer loop
      vertex 42 -88.8 9.66667
      vertex 34.8205 -88.8 17.353
      vertex 34.6664 -88.8 17.3485
    endloop
  endfacet
  facet normal 0 -1 0
    outer loop
      vertex 42 -88.8 9.66667
      vertex 34.6664 -88.8 17.3485
      vertex 32.2345 -88.8 17.2523
    endloop
  endfacet
  facet normal 0 -1 0
    outer loop
      vertex 34.8205 -88.8 17.353
      vertex 42 -88.8 9.66667
      vertex 36.8835 -88.8 17.2749
    endloop
  endfacet
  facet normal 0 -1 0
    outer loop
      vertex 42 -88.8 9.66667
      vertex 32.2345 -88.8 17.2523
      vertex 31.672 -88.8 17.1847
    endloop
  endfacet
  facet normal 0 -1 0
    outer loop
      vertex 36.8835 -88.8 17.2749
      vertex 42 -88.8 9.66667
      vertex 37.4236 -88.8 17.246
    endloop
  endfacet
  facet normal 0 -1 0
    outer loop
      vertex 42 -88.8 9.66667
      vertex 31.672 -88.8 17.1847
      vertex 29.686 -88.8 16.9693
    endloop
  endfacet
  facet normal 0 -1 0
    outer loop
      vertex 37.4236 -88.8 17.246
      vertex 42 -88.8 9.66667
      vertex 38.8952 -88.8 17.0894
    endloop
  endfacet
  facet normal 0 -1 0
    outer loop
      vertex 38.8952 -88.8 17.0894
      vertex 42 -88.8 9.66667
      vertex 40.0537 -88.8 16.9423
    endloop
  endfacet
  facet normal 0 -1 0
    outer loop
      vertex 21 -88.8 9.66667
      vertex 29.686 -88.8 16.9693
      vertex 28.7126 -88.8 16.7769
    endloop
  endfacet
  facet normal 0 -1 0
    outer loop
      vertex 40.0537 -88.8 16.9423
      vertex 42 -88.8 9.66667
      vertex 40.818 -88.8 16.8078
    endloop
  endfacet
  facet normal 0 -1 0
    outer loop
      vertex 21 -88.8 9.66667
      vertex 28.7126 -88.8 16.7769
      vertex 27.1771 -88.8 16.4946
    endloop
  endfacet
  facet normal 0 -1 0
    outer loop
      vertex 21 -88.8 9.66667
      vertex 27.1771 -88.8 16.4946
      vertex 25.8861 -88.8 16.1544
    endloop
  endfacet
  facet normal 0 -1 0
    outer loop
      vertex 21 -88.8 9.66667
      vertex 25.8861 -88.8 16.1544
      vertex 24.6973 -88.8 15.8484
    endloop
  endfacet
  facet normal 0 -1 0
    outer loop
      vertex 21 -88.8 9.66667
      vertex 24.6973 -88.8 15.8484
      vertex 23.7439 -88.8 15.5414
    endloop
  endfacet
  facet normal 0 -1 0
    outer loop
      vertex 21 -88.8 9.66667
      vertex 23.7439 -88.8 15.5414
      vertex 22.2438 -88.8 15.0694
    endloop
  endfacet
  facet normal 0 -1 0
    outer loop
      vertex 21 -88.8 9.66667
      vertex 22.2438 -88.8 15.0694
      vertex 21 -88.8 14.6155
    endloop
  endfacet
  facet normal 0 -1 -0
    outer loop
      vertex 29.686 -88.8 16.9693
      vertex 21 -88.8 9.66667
      vertex 42 -88.8 9.66667
    endloop
  endfacet
  facet normal 0 -1 0
    outer loop
      vertex 40.818 -88.8 16.8078
      vertex 42 -88.8 9.66667
      vertex 42 -88.8 16.5924
    endloop
  endfacet
  facet normal 0.20847 -0.332282 0.919853
    outer loop
      vertex 42 -86.6462 17.4032
      vertex 42 -86.056 17.6164
      vertex 41.8282 -86.1433 17.6238
    endloop
  endfacet
  facet normal 0.162603 -0.345682 0.924156
    outer loop
      vertex 39.5144 -87.2036 17.6343
      vertex 40.818 -88.8 16.8078
      vertex 41.8282 -86.1433 17.6238
    endloop
  endfacet
  facet normal 0.162632 -0.34566 0.924159
    outer loop
      vertex 40.818 -88.8 16.8078
      vertex 39.5144 -87.2036 17.6343
      vertex 40.0537 -88.8 16.9423
    endloop
  endfacet
  facet normal 0.168073 -0.347277 0.922578
    outer loop
      vertex 40.818 -88.8 16.8078
      vertex 42 -86.6462 17.4032
      vertex 41.8282 -86.1433 17.6238
    endloop
  endfacet
  facet normal 0.168122 -0.347299 0.922561
    outer loop
      vertex 42 -86.6462 17.4032
      vertex 40.818 -88.8 16.8078
      vertex 42 -88.8 16.5924
    endloop
  endfacet
  facet normal 0.0988987 -0.355591 0.929395
    outer loop
      vertex 37.1822 -88.0697 17.5511
      vertex 38.8952 -88.8 17.0894
      vertex 39.5144 -87.2036 17.6343
    endloop
  endfacet
  facet normal 0.0989015 -0.355585 0.929396
    outer loop
      vertex 38.8952 -88.8 17.0894
      vertex 37.1822 -88.0697 17.5511
      vertex 37.4236 -88.8 17.246
    endloop
  endfacet
  facet normal 0.117454 -0.361296 0.925024
    outer loop
      vertex 40.0537 -88.8 16.9423
      vertex 39.5144 -87.2036 17.6343
      vertex 38.8952 -88.8 17.0894
    endloop
  endfacet
  facet normal 0.0351862 -0.366086 0.929915
    outer loop
      vertex 34.8096 -88.7664 17.3666
      vertex 36.8835 -88.8 17.2749
      vertex 37.1822 -88.0697 17.5511
    endloop
  endfacet
  facet normal 0.0352186 -0.365122 0.930293
    outer loop
      vertex 36.8835 -88.8 17.2749
      vertex 34.8096 -88.7664 17.3666
      vertex 34.8205 -88.8 17.353
    endloop
  endfacet
  facet normal 0.0496188 -0.371002 0.927305
    outer loop
      vertex 37.4236 -88.8 17.246
      vertex 37.1822 -88.0697 17.5511
      vertex 36.8835 -88.8 17.2749
    endloop
  endfacet
  facet normal -0.0287362 -0.376369 0.926024
    outer loop
      vertex 34.7953 -88.8 17.3525
      vertex 34.8096 -88.7664 17.3666
      vertex 34.6664 -88.8 17.3485
    endloop
  endfacet
  facet normal -0.0183474 -0.380238 0.924707
    outer loop
      vertex 34.8205 -88.8 17.353
      vertex 34.8096 -88.7664 17.3666
      vertex 34.7953 -88.8 17.3525
    endloop
  endfacet
  facet normal -0.236102 -0.376167 0.895965
    outer loop
      vertex 26.6411 -87.2629 16.9987
      vertex 25.8861 -88.8 16.1544
      vertex 27.1771 -88.8 16.4946
    endloop
  endfacet
  facet normal -0.236086 -0.376176 0.895966
    outer loop
      vertex 25.8861 -88.8 16.1544
      vertex 26.6411 -87.2629 16.9987
      vertex 24.2598 -87.5888 16.2344
    endloop
  endfacet
  facet normal -0.231553 -0.370328 0.899578
    outer loop
      vertex 24.6973 -88.8 15.8484
      vertex 25.8861 -88.8 16.1544
      vertex 24.2598 -87.5888 16.2344
    endloop
  endfacet
  facet normal -0.276968 -0.385595 0.880116
    outer loop
      vertex 21.923 -87.9456 15.3427
      vertex 23.7439 -88.8 15.5414
      vertex 24.2598 -87.5888 16.2344
    endloop
  endfacet
  facet normal -0.276938 -0.385521 0.880158
    outer loop
      vertex 23.7439 -88.8 15.5414
      vertex 21.923 -87.9456 15.3427
      vertex 22.2438 -88.8 15.0694
    endloop
  endfacet
  facet normal -0.28319 -0.382568 0.879457
    outer loop
      vertex 24.6973 -88.8 15.8484
      vertex 24.2598 -87.5888 16.2344
      vertex 23.7439 -88.8 15.5414
    endloop
  endfacet
  facet normal -0.275083 -0.365917 0.889064
    outer loop
      vertex 21 -85.3238 16.1585
      vertex 23.2219 -84.822 17.0525
      vertex 21 -85.1994 16.2097
    endloop
  endfacet
  facet normal -0.275038 -0.366045 0.889025
    outer loop
      vertex 23.2219 -84.822 17.0525
      vertex 21 -85.3238 16.1585
      vertex 24.2598 -87.5888 16.2344
    endloop
  endfacet
  facet normal -0.280342 -0.373843 0.88411
    outer loop
      vertex 21 -85.5908 16.0456
      vertex 24.2598 -87.5888 16.2344
      vertex 21 -85.3238 16.1585
    endloop
  endfacet
  facet normal -0.280309 -0.373785 0.884145
    outer loop
      vertex 24.2598 -87.5888 16.2344
      vertex 21 -85.5908 16.0456
      vertex 21.923 -87.9456 15.3427
    endloop
  endfacet
  facet normal -0.318526 -0.383597 0.86683
    outer loop
      vertex 21.923 -87.9456 15.3427
      vertex 21 -85.5908 16.0456
      vertex 21 -88.1077 14.9318
    endloop
  endfacet
  facet normal -0.315034 -0.394404 0.863249
    outer loop
      vertex 21 -88.8 14.6155
      vertex 21.923 -87.9456 15.3427
      vertex 21 -88.1077 14.9318
    endloop
  endfacet
  facet normal -0.315025 -0.394412 0.863248
    outer loop
      vertex 21.923 -87.9456 15.3427
      vertex 21 -88.8 14.6155
      vertex 22.2438 -88.8 15.0694
    endloop
  endfacet
  facet normal 0.162743 -0.294254 0.941769
    outer loop
      vertex 40.2088 -81.0966 19.5321
      vertex 42 -81.4204 19.1214
      vertex 42 -80.3463 19.457
    endloop
  endfacet
  facet normal 0.162737 -0.294279 0.941763
    outer loop
      vertex 42 -81.4204 19.1214
      vertex 40.2088 -81.0966 19.5321
      vertex 41.0182 -83.6009 18.6097
    endloop
  endfacet
  facet normal 0.179448 -0.300618 0.936711
    outer loop
      vertex 42 -83.151 18.566
      vertex 42 -81.4204 19.1214
      vertex 41.0182 -83.6009 18.6097
    endloop
  endfacet
  facet normal 0.192964 -0.300566 0.934037
    outer loop
      vertex 42 -84.0255 18.2698
      vertex 41.8282 -86.1433 17.6238
      vertex 42 -86.056 17.6164
    endloop
  endfacet
  facet normal 0.193347 -0.300572 0.933956
    outer loop
      vertex 41.8282 -86.1433 17.6238
      vertex 42 -84.0255 18.2698
      vertex 41.0182 -83.6009 18.6097
    endloop
  endfacet
  facet normal 0.185867 -0.315215 0.930641
    outer loop
      vertex 42 -84.0255 18.2698
      vertex 42 -83.151 18.566
      vertex 41.0182 -83.6009 18.6097
    endloop
  endfacet
  facet normal 0.117742 -0.298581 0.947094
    outer loop
      vertex 38.6622 -84.5508 18.6354
      vertex 40.2088 -81.0966 19.5321
      vertex 37.817 -81.9646 19.5558
    endloop
  endfacet
  facet normal 0.133023 -0.304414 0.943206
    outer loop
      vertex 41.0182 -83.6009 18.6097
      vertex 40.2088 -81.0966 19.5321
      vertex 38.6622 -84.5508 18.6354
    endloop
  endfacet
  facet normal 0.145443 -0.308077 0.940178
    outer loop
      vertex 39.5144 -87.2036 17.6343
      vertex 41.8282 -86.1433 17.6238
      vertex 38.6622 -84.5508 18.6354
    endloop
  endfacet
  facet normal 0.138943 -0.319252 0.937429
    outer loop
      vertex 41.8282 -86.1433 17.6238
      vertex 41.0182 -83.6009 18.6097
      vertex 38.6622 -84.5508 18.6354
    endloop
  endfacet
  facet normal 0.0643321 -0.309867 0.948601
    outer loop
      vertex 36.2902 -85.338 18.5574
      vertex 37.817 -81.9646 19.5558
      vertex 35.4059 -82.6862 19.4836
    endloop
  endfacet
  facet normal 0.0728036 -0.313196 0.946894
    outer loop
      vertex 38.6622 -84.5508 18.6354
      vertex 37.817 -81.9646 19.5558
      vertex 36.2902 -85.338 18.5574
    endloop
  endfacet
  facet normal 0.0851091 -0.319828 0.943645
    outer loop
      vertex 37.1822 -88.0697 17.5511
      vertex 39.5144 -87.2036 17.6343
      vertex 36.2902 -85.338 18.5574
    endloop
  endfacet
  facet normal 0.0785162 -0.329803 0.940779
    outer loop
      vertex 39.5144 -87.2036 17.6343
      vertex 38.6622 -84.5508 18.6354
      vertex 36.2902 -85.338 18.5574
    endloop
  endfacet
  facet normal 0.00470931 -0.319662 0.94752
    outer loop
      vertex 33.888 -85.9863 18.3778
      vertex 35.4059 -82.6862 19.4836
      vertex 32.9693 -83.2755 19.2969
    endloop
  endfacet
  facet normal 0.0169147 -0.324659 0.94568
    outer loop
      vertex 36.2902 -85.338 18.5574
      vertex 35.4059 -82.6862 19.4836
      vertex 33.888 -85.9863 18.3778
    endloop
  endfacet
  facet normal 0.0249349 -0.334402 0.9421
    outer loop
      vertex 34.8096 -88.7664 17.3666
      vertex 37.1822 -88.0697 17.5511
      vertex 33.888 -85.9863 18.3778
    endloop
  endfacet
  facet normal 0.0213051 -0.339459 0.94038
    outer loop
      vertex 37.1822 -88.0697 17.5511
      vertex 36.2902 -85.338 18.5574
      vertex 33.888 -85.9863 18.3778
    endloop
  endfacet
  facet normal -0.0608393 -0.329417 0.942222
    outer loop
      vertex 31.4667 -86.5084 18.0696
      vertex 32.9693 -83.2755 19.2969
      vertex 30.5183 -83.7487 18.9732
    endloop
  endfacet
  facet normal -0.0475082 -0.335138 0.940971
    outer loop
      vertex 33.888 -85.9863 18.3778
      vertex 32.9693 -83.2755 19.2969
      vertex 31.4667 -86.5084 18.0696
    endloop
  endfacet
  facet normal -0.037107 -0.346731 0.93723
    outer loop
      vertex 31.4667 -86.5084 18.0696
      vertex 34.6664 -88.8 17.3485
      vertex 34.8096 -88.7664 17.3666
    endloop
  endfacet
  facet normal -0.0370752 -0.346691 0.937246
    outer loop
      vertex 34.6664 -88.8 17.3485
      vertex 31.4667 -86.5084 18.0696
      vertex 32.2345 -88.8 17.2523
    endloop
  endfacet
  facet normal -0.0426017 -0.353951 0.934293
    outer loop
      vertex 34.8096 -88.7664 17.3666
      vertex 33.888 -85.9863 18.3778
      vertex 31.4667 -86.5084 18.0696
    endloop
  endfacet
  facet normal -0.133788 -0.337057 0.93193
    outer loop
      vertex 29.0463 -86.9222 17.6141
      vertex 30.5183 -83.7487 18.9732
      vertex 28.0682 -84.1296 18.4837
    endloop
  endfacet
  facet normal -0.11631 -0.344934 0.931393
    outer loop
      vertex 31.4667 -86.5084 18.0696
      vertex 30.5183 -83.7487 18.9732
      vertex 29.0463 -86.9222 17.6141
    endloop
  endfacet
  facet normal -0.100858 -0.353674 0.929915
    outer loop
      vertex 29.686 -88.8 16.9693
      vertex 31.672 -88.8 17.1847
      vertex 29.0463 -86.9222 17.6141
    endloop
  endfacet
  facet normal -0.11101 -0.366638 0.923717
    outer loop
      vertex 31.4667 -86.5084 18.0696
      vertex 31.672 -88.8 17.1847
      vertex 32.2345 -88.8 17.2523
    endloop
  endfacet
  facet normal -0.11115 -0.366643 0.923698
    outer loop
      vertex 31.672 -88.8 17.1847
      vertex 31.4667 -86.5084 18.0696
      vertex 29.0463 -86.9222 17.6141
    endloop
  endfacet
  facet normal -0.196543 -0.345393 0.917646
    outer loop
      vertex 26.6411 -87.2629 16.9987
      vertex 28.0682 -84.1296 18.4837
      vertex 25.6327 -84.4701 17.8339
    endloop
  endfacet
  facet normal -0.185198 -0.35072 0.917985
    outer loop
      vertex 29.0463 -86.9222 17.6141
      vertex 28.0682 -84.1296 18.4837
      vertex 26.6411 -87.2629 16.9987
    endloop
  endfacet
  facet normal -0.16871 -0.359781 0.917657
    outer loop
      vertex 27.1771 -88.8 16.4946
      vertex 28.7126 -88.8 16.7769
      vertex 26.6411 -87.2629 16.9987
    endloop
  endfacet
  facet normal -0.179856 -0.373724 0.909935
    outer loop
      vertex 29.0463 -86.9222 17.6141
      vertex 28.7126 -88.8 16.7769
      vertex 29.686 -88.8 16.9693
    endloop
  endfacet
  facet normal -0.17988 -0.373719 0.909933
    outer loop
      vertex 28.7126 -88.8 16.7769
      vertex 29.0463 -86.9222 17.6141
      vertex 26.6411 -87.2629 16.9987
    endloop
  endfacet
  facet normal -0.208105 -0.343169 0.91593
    outer loop
      vertex 28.0682 -84.1296 18.4837
      vertex 27.0979 -81.3718 19.2965
      vertex 24.6272 -81.7002 18.6121
    endloop
  endfacet
  facet normal -0.199662 -0.331535 0.922074
    outer loop
      vertex 25.6327 -84.4701 17.8339
      vertex 28.0682 -84.1296 18.4837
      vertex 24.6272 -81.7002 18.6121
    endloop
  endfacet
  facet normal -0.245613 -0.342483 0.906851
    outer loop
      vertex 23.2219 -84.822 17.0525
      vertex 24.6272 -81.7002 18.6121
      vertex 22.1801 -82.0609 17.8131
    endloop
  endfacet
  facet normal -0.243863 -0.343345 0.906998
    outer loop
      vertex 25.6327 -84.4701 17.8339
      vertex 24.6272 -81.7002 18.6121
      vertex 23.2219 -84.822 17.0525
    endloop
  endfacet
  facet normal -0.240776 -0.357169 0.902473
    outer loop
      vertex 24.2598 -87.5888 16.2344
      vertex 26.6411 -87.2629 16.9987
      vertex 23.2219 -84.822 17.0525
    endloop
  endfacet
  facet normal -0.240505 -0.356794 0.902693
    outer loop
      vertex 26.6411 -87.2629 16.9987
      vertex 25.6327 -84.4701 17.8339
      vertex 23.2219 -84.822 17.0525
    endloop
  endfacet
  facet normal -0.255145 -0.32801 0.909566
    outer loop
      vertex 24.6272 -81.7002 18.6121
      vertex 23.6499 -78.9196 19.3407
      vertex 21.1665 -79.2692 18.518
    endloop
  endfacet
  facet normal -0.250728 -0.321585 0.913082
    outer loop
      vertex 22.1801 -82.0609 17.8131
      vertex 24.6272 -81.7002 18.6121
      vertex 21.1665 -79.2692 18.518
    endloop
  endfacet
  facet normal -0.2881 -0.328163 0.899615
    outer loop
      vertex 21.1665 -79.2692 18.518
      vertex 21 -79.2982 18.4541
      vertex 21 -79.6554 18.3238
    endloop
  endfacet
  facet normal -0.283764 -0.330327 0.900201
    outer loop
      vertex 21 -79.6554 18.3238
      vertex 22.1801 -82.0609 17.8131
      vertex 21.1665 -79.2692 18.518
    endloop
  endfacet
  facet normal -0.283554 -0.330245 0.900298
    outer loop
      vertex 22.1801 -82.0609 17.8131
      vertex 21 -79.6554 18.3238
      vertex 21 -82.2676 17.3656
    endloop
  endfacet
  facet normal -0.27883 -0.352942 0.893133
    outer loop
      vertex 23.2219 -84.822 17.0525
      vertex 21 -83.3101 16.9563
      vertex 21 -85.1994 16.2097
    endloop
  endfacet
  facet normal -0.277606 -0.351092 0.894242
    outer loop
      vertex 21 -83.3101 16.9563
      vertex 22.1801 -82.0609 17.8131
      vertex 21 -82.2676 17.3656
    endloop
  endfacet
  facet normal -0.277614 -0.351085 0.894243
    outer loop
      vertex 22.1801 -82.0609 17.8131
      vertex 21 -83.3101 16.9563
      vertex 23.2219 -84.822 17.0525
    endloop
  endfacet
  facet normal -0.30055 -0.313595 0.900737
    outer loop
      vertex 21.1665 -79.2692 18.518
      vertex 21 -78.7796 18.6329
      vertex 21 -79.1507 18.5037
    endloop
  endfacet
  facet normal -0.294575 -0.30459 0.905787
    outer loop
      vertex 21.1665 -79.2692 18.518
      vertex 21 -79.1507 18.5037
      vertex 21 -79.2982 18.4541
    endloop
  endfacet
  facet normal 0.194822 -0.242893 0.950288
    outer loop
      vertex 40.8773 -75.3692 21.0753
      vertex 42 -77.1921 20.3792
      vertex 42 -74.8971 20.9658
    endloop
  endfacet
  facet normal 0.194789 -0.242914 0.95029
    outer loop
      vertex 42 -77.1921 20.3792
      vertex 40.8773 -75.3692 21.0753
      vertex 41.7668 -77.7171 20.2928
    endloop
  endfacet
  facet normal 0.187518 -0.240045 0.952479
    outer loop
      vertex 42 -77.6127 20.2732
      vertex 42 -77.1921 20.3792
      vertex 41.7668 -77.7171 20.2928
    endloop
  endfacet
  facet normal 0.201441 -0.270338 0.941456
    outer loop
      vertex 42 -78.3861 20.0508
      vertex 42 -77.8087 20.2166
      vertex 41.7668 -77.7171 20.2928
    endloop
  endfacet
  facet normal 0.20078 -0.271789 0.941179
    outer loop
      vertex 42 -77.8087 20.2166
      vertex 42 -77.6127 20.2732
      vertex 41.7668 -77.7171 20.2928
    endloop
  endfacet
  facet normal 0.150207 -0.263882 0.952787
    outer loop
      vertex 39.3675 -78.6445 20.4062
      vertex 40.8773 -75.3692 21.0753
      vertex 38.4791 -76.2234 21.2168
    endloop
  endfacet
  facet normal 0.146494 -0.262374 0.953782
    outer loop
      vertex 41.7668 -77.7171 20.2928
      vertex 40.8773 -75.3692 21.0753
      vertex 39.3675 -78.6445 20.4062
    endloop
  endfacet
  facet normal 0.158202 -0.282992 0.945985
    outer loop
      vertex 42 -79.8285 19.6119
      vertex 40.2088 -81.0966 19.5321
      vertex 42 -80.3463 19.457
    endloop
  endfacet
  facet normal 0.158174 -0.282953 0.946001
    outer loop
      vertex 40.2088 -81.0966 19.5321
      vertex 42 -79.8285 19.6119
      vertex 39.3675 -78.6445 20.4062
    endloop
  endfacet
  facet normal 0.155805 -0.287533 0.945013
    outer loop
      vertex 39.3675 -78.6445 20.4062
      vertex 42 -78.3861 20.0508
      vertex 41.7668 -77.7171 20.2928
    endloop
  endfacet
  facet normal 0.155806 -0.287551 0.945007
    outer loop
      vertex 42 -78.3861 20.0508
      vertex 39.3675 -78.6445 20.4062
      vertex 42 -79.8285 19.6119
    endloop
  endfacet
  facet normal 0.10694 -0.281018 0.953726
    outer loop
      vertex 36.9532 -79.4387 20.4405
      vertex 38.4791 -76.2234 21.2168
      vertex 36.0614 -76.9388 21.2771
    endloop
  endfacet
  facet normal 0.105845 -0.280561 0.953982
    outer loop
      vertex 39.3675 -78.6445 20.4062
      vertex 38.4791 -76.2234 21.2168
      vertex 36.9532 -79.4387 20.4405
    endloop
  endfacet
  facet normal 0.115689 -0.29287 0.949128
    outer loop
      vertex 37.817 -81.9646 19.5558
      vertex 40.2088 -81.0966 19.5321
      vertex 36.9532 -79.4387 20.4405
    endloop
  endfacet
  facet normal 0.11194 -0.299367 0.947549
    outer loop
      vertex 40.2088 -81.0966 19.5321
      vertex 39.3675 -78.6445 20.4062
      vertex 36.9532 -79.4387 20.4405
    endloop
  endfacet
  facet normal 0.047479 -0.295974 0.954015
    outer loop
      vertex 34.5179 -80.0935 20.3752
      vertex 36.0614 -76.9388 21.2771
      vertex 33.6189 -77.5137 21.2203
    endloop
  endfacet
  facet normal 0.054907 -0.299206 0.952607
    outer loop
      vertex 36.9532 -79.4387 20.4405
      vertex 36.0614 -76.9388 21.2771
      vertex 34.5179 -80.0935 20.3752
    endloop
  endfacet
  facet normal 0.0628941 -0.305222 0.950202
    outer loop
      vertex 35.4059 -82.6862 19.4836
      vertex 37.817 -81.9646 19.5558
      vertex 34.5179 -80.0935 20.3752
    endloop
  endfacet
  facet normal 0.0584959 -0.312118 0.948241
    outer loop
      vertex 37.817 -81.9646 19.5558
      vertex 36.9532 -79.4387 20.4405
      vertex 34.5179 -80.0935 20.3752
    endloop
  endfacet
  facet normal -0.0293316 -0.305258 0.951818
    outer loop
      vertex 32.0563 -80.6129 20.1782
      vertex 33.6189 -77.5137 21.2203
      vertex 31.1474 -77.9544 21.0028
    endloop
  endfacet
  facet normal -0.00964609 -0.314325 0.949266
    outer loop
      vertex 34.5179 -80.0935 20.3752
      vertex 33.6189 -77.5137 21.2203
      vertex 32.0563 -80.6129 20.1782
    endloop
  endfacet
  facet normal 0.00300649 -0.313296 0.949651
    outer loop
      vertex 32.9693 -83.2755 19.2969
      vertex 35.4059 -82.6862 19.4836
      vertex 32.0563 -80.6129 20.1782
    endloop
  endfacet
  facet normal -0.0065815 -0.327205 0.94493
    outer loop
      vertex 35.4059 -82.6862 19.4836
      vertex 34.5179 -80.0935 20.3752
      vertex 32.0563 -80.6129 20.1782
    endloop
  endfacet
  facet normal -0.10584 -0.308898 0.945188
    outer loop
      vertex 29.5781 -81.0252 19.8235
      vertex 31.1474 -77.9544 21.0028
      vertex 28.6557 -78.3044 20.6094
    endloop
  endfacet
  facet normal -0.0817202 -0.320641 0.943669
    outer loop
      vertex 32.0563 -80.6129 20.1782
      vertex 31.1474 -77.9544 21.0028
      vertex 29.5781 -81.0252 19.8235
    endloop
  endfacet
  facet normal -0.0636824 -0.317383 0.946157
    outer loop
      vertex 30.5183 -83.7487 18.9732
      vertex 32.9693 -83.2755 19.2969
      vertex 29.5781 -81.0252 19.8235
    endloop
  endfacet
  facet normal -0.0781548 -0.337317 0.938141
    outer loop
      vertex 32.9693 -83.2755 19.2969
      vertex 32.0563 -80.6129 20.1782
      vertex 29.5781 -81.0252 19.8235
    endloop
  endfacet
  facet normal -0.170061 -0.313502 0.934235
    outer loop
      vertex 27.0979 -81.3718 19.2965
      vertex 28.6557 -78.3044 20.6094
      vertex 26.1526 -78.6124 20.0504
    endloop
  endfacet
  facet normal -0.153526 -0.321903 0.934242
    outer loop
      vertex 29.5781 -81.0252 19.8235
      vertex 28.6557 -78.3044 20.6094
      vertex 27.0979 -81.3718 19.2965
    endloop
  endfacet
  facet normal -0.136661 -0.323988 0.936139
    outer loop
      vertex 28.0682 -84.1296 18.4837
      vertex 30.5183 -83.7487 18.9732
      vertex 27.0979 -81.3718 19.2965
    endloop
  endfacet
  facet normal -0.149481 -0.341327 0.927982
    outer loop
      vertex 30.5183 -83.7487 18.9732
      vertex 29.5781 -81.0252 19.8235
      vertex 27.0979 -81.3718 19.2965
    endloop
  endfacet
  facet normal -0.184075 -0.306702 0.933836
    outer loop
      vertex 28.6557 -78.3044 20.6094
      vertex 27.7589 -75.5517 21.3367
      vertex 25.2437 -75.8145 20.7546
    endloop
  endfacet
  facet normal -0.173887 -0.293108 0.940133
    outer loop
      vertex 26.1526 -78.6124 20.0504
      vertex 28.6557 -78.3044 20.6094
      vertex 25.2437 -75.8145 20.7546
    endloop
  endfacet
  facet normal -0.23171 -0.302118 0.924681
    outer loop
      vertex 23.6499 -78.9196 19.3407
      vertex 25.2437 -75.8145 20.7546
      vertex 22.7131 -76.0862 20.0317
    endloop
  endfacet
  facet normal -0.224803 -0.305877 0.92515
    outer loop
      vertex 26.1526 -78.6124 20.0504
      vertex 25.2437 -75.8145 20.7546
      vertex 23.6499 -78.9196 19.3407
    endloop
  endfacet
  facet normal -0.213771 -0.317234 0.92394
    outer loop
      vertex 24.6272 -81.7002 18.6121
      vertex 27.0979 -81.3718 19.2965
      vertex 23.6499 -78.9196 19.3407
    endloop
  endfacet
  facet normal -0.220527 -0.326645 0.91906
    outer loop
      vertex 27.0979 -81.3718 19.2965
      vertex 26.1526 -78.6124 20.0504
      vertex 23.6499 -78.9196 19.3407
    endloop
  endfacet
  facet normal -0.237831 -0.299251 0.924059
    outer loop
      vertex 25.2437 -75.8145 20.7546
      vertex 24.3754 -72.9459 21.4601
      vertex 21.8182 -73.1597 20.7327
    endloop
  endfacet
  facet normal -0.233328 -0.293417 0.927073
    outer loop
      vertex 22.7131 -76.0862 20.0317
      vertex 25.2437 -75.8145 20.7546
      vertex 21.8182 -73.1597 20.7327
    endloop
  endfacet
  facet normal -0.277002 -0.295769 0.914216
    outer loop
      vertex 21.8182 -73.1597 20.7327
      vertex 21 -73.2422 20.4581
      vertex 21 -74.7948 19.9558
    endloop
  endfacet
  facet normal -0.267497 -0.30105 0.915322
    outer loop
      vertex 21 -74.7948 19.9558
      vertex 22.7131 -76.0862 20.0317
      vertex 21.8182 -73.1597 20.7327
    endloop
  endfacet
  facet normal -0.267494 -0.301046 0.915324
    outer loop
      vertex 22.7131 -76.0862 20.0317
      vertex 21 -74.7948 19.9558
      vertex 21 -76.3047 19.4592
    endloop
  endfacet
  facet normal -0.260811 -0.303758 0.916356
    outer loop
      vertex 21 -78.7796 18.6329
      vertex 23.6499 -78.9196 19.3407
      vertex 21 -76.994 19.2248
    endloop
  endfacet
  facet normal -0.260811 -0.303748 0.91636
    outer loop
      vertex 23.6499 -78.9196 19.3407
      vertex 21 -78.7796 18.6329
      vertex 21.1665 -79.2692 18.518
    endloop
  endfacet
  facet normal -0.265455 -0.310399 0.91279
    outer loop
      vertex 21 -76.994 19.2248
      vertex 22.7131 -76.0862 20.0317
      vertex 21 -76.3047 19.4592
    endloop
  endfacet
  facet normal -0.265466 -0.31038 0.912794
    outer loop
      vertex 22.7131 -76.0862 20.0317
      vertex 21 -76.994 19.2248
      vertex 23.6499 -78.9196 19.3407
    endloop
  endfacet
  facet normal -0.289867 -0.306112 0.906792
    outer loop
      vertex 21.8182 -73.1597 20.7327
      vertex 21 -70.1869 21.4747
      vertex 21 -72.4729 20.703
    endloop
  endfacet
  facet normal -0.277829 -0.291399 0.915367
    outer loop
      vertex 21.8182 -73.1597 20.7327
      vertex 21 -72.4729 20.703
      vertex 21 -73.2422 20.4581
    endloop
  endfacet
  facet normal 0.26216 -0.156053 0.952323
    outer loop
      vertex 42 -71.4342 21.7178
      vertex 42 -69.6132 22.0162
      vertex 41.3243 -69.9013 22.155
    endloop
  endfacet
  facet normal 0.199963 -0.199385 0.959302
    outer loop
      vertex 39.9366 -73.04 21.7919
      vertex 41.3243 -69.9013 22.155
      vertex 38.9694 -70.7032 22.4792
    endloop
  endfacet
  facet normal 0.185006 -0.193264 0.963547
    outer loop
      vertex 39.9366 -73.04 21.7919
      vertex 42 -71.4342 21.7178
      vertex 41.3243 -69.9013 22.155
    endloop
  endfacet
  facet normal 0.184984 -0.193235 0.963557
    outer loop
      vertex 42 -71.4342 21.7178
      vertex 39.9366 -73.04 21.7919
      vertex 42 -72.244 21.5554
    endloop
  endfacet
  facet normal 0.185804 -0.219728 0.957704
    outer loop
      vertex 42 -73.8676 21.202
      vertex 40.8773 -75.3692 21.0753
      vertex 42 -74.8971 20.9658
    endloop
  endfacet
  facet normal 0.185705 -0.219656 0.957739
    outer loop
      vertex 40.8773 -75.3692 21.0753
      vertex 42 -73.8676 21.202
      vertex 39.9366 -73.04 21.7919
    endloop
  endfacet
  facet normal 0.190489 -0.20879 0.959229
    outer loop
      vertex 42 -73.8676 21.202
      vertex 42 -72.244 21.5554
      vertex 39.9366 -73.04 21.7919
    endloop
  endfacet
  facet normal 0.149798 -0.227185 0.962262
    outer loop
      vertex 37.5491 -73.8007 21.969
      vertex 38.9694 -70.7032 22.4792
      vertex 36.6043 -71.3427 22.6964
    endloop
  endfacet
  facet normal 0.142984 -0.22434 0.963964
    outer loop
      vertex 39.9366 -73.04 21.7919
      vertex 38.9694 -70.7032 22.4792
      vertex 37.5491 -73.8007 21.969
    endloop
  endfacet
  facet normal 0.143138 -0.242936 0.959424
    outer loop
      vertex 38.4791 -76.2234 21.2168
      vertex 40.8773 -75.3692 21.0753
      vertex 37.5491 -73.8007 21.969
    endloop
  endfacet
  facet normal 0.146553 -0.236335 0.960556
    outer loop
      vertex 40.8773 -75.3692 21.0753
      vertex 39.9366 -73.04 21.7919
      vertex 37.5491 -73.8007 21.969
    endloop
  endfacet
  facet normal 0.0917847 -0.245786 0.964969
    outer loop
      vertex 35.145 -74.4176 22.052
      vertex 36.6043 -71.3427 22.6964
      vertex 34.2265 -71.8404 22.7958
    endloop
  endfacet
  facet normal 0.0969149 -0.247997 0.963901
    outer loop
      vertex 37.5491 -73.8007 21.969
      vertex 36.6043 -71.3427 22.6964
      vertex 35.145 -74.4176 22.052
    endloop
  endfacet
  facet normal 0.100522 -0.258738 0.960703
    outer loop
      vertex 36.0614 -76.9388 21.2771
      vertex 38.4791 -76.2234 21.2168
      vertex 35.145 -74.4176 22.052
    endloop
  endfacet
  facet normal 0.099845 -0.259878 0.960466
    outer loop
      vertex 38.4791 -76.2234 21.2168
      vertex 37.5491 -73.8007 21.969
      vertex 35.145 -74.4176 22.052
    endloop
  endfacet
  facet normal 0.0178147 -0.260286 0.965367
    outer loop
      vertex 32.7141 -74.8984 21.9992
      vertex 34.2265 -71.8404 22.7958
      vertex 31.8199 -72.2206 22.7377
    endloop
  endfacet
  facet normal 0.0318204 -0.266665 0.963264
    outer loop
      vertex 35.145 -74.4176 22.052
      vertex 34.2265 -71.8404 22.7958
      vertex 32.7141 -74.8984 21.9992
    endloop
  endfacet
  facet normal 0.0416464 -0.271925 0.961417
    outer loop
      vertex 33.6189 -77.5137 21.2203
      vertex 36.0614 -76.9388 21.2771
      vertex 32.7141 -74.8984 21.9992
    endloop
  endfacet
  facet normal 0.0349474 -0.281983 0.958783
    outer loop
      vertex 36.0614 -76.9388 21.2771
      vertex 35.145 -74.4176 22.052
      vertex 32.7141 -74.8984 21.9992
    endloop
  endfacet
  facet normal -0.0649434 -0.27349 0.95968
    outer loop
      vertex 30.2501 -75.2607 21.7651
      vertex 31.8199 -72.2206 22.7377
      vertex 29.3754 -72.5065 22.4908
    endloop
  endfacet
  facet normal -0.049751 -0.280937 0.958436
    outer loop
      vertex 32.7141 -74.8984 21.9992
      vertex 31.8199 -72.2206 22.7377
      vertex 30.2501 -75.2607 21.7651
    endloop
  endfacet
  facet normal -0.0339711 -0.282604 0.958635
    outer loop
      vertex 31.1474 -77.9544 21.0028
      vertex 33.6189 -77.5137 21.2203
      vertex 30.2501 -75.2607 21.7651
    endloop
  endfacet
  facet normal -0.0464398 -0.29985 0.952855
    outer loop
      vertex 33.6189 -77.5137 21.2203
      vertex 32.7141 -74.8984 21.9992
      vertex 30.2501 -75.2607 21.7651
    endloop
  endfacet
  facet normal -0.142921 -0.283513 0.948258
    outer loop
      vertex 27.7589 -75.5517 21.3367
      vertex 29.3754 -72.5065 22.4908
      vertex 26.8962 -72.7374 22.0481
    endloop
  endfacet
  facet normal -0.129063 -0.290787 0.948043
    outer loop
      vertex 30.2501 -75.2607 21.7651
      vertex 29.3754 -72.5065 22.4908
      vertex 27.7589 -75.5517 21.3367
    endloop
  endfacet
  facet normal -0.10989 -0.287211 0.951543
    outer loop
      vertex 28.6557 -78.3044 20.6094
      vertex 31.1474 -77.9544 21.0028
      vertex 27.7589 -75.5517 21.3367
    endloop
  endfacet
  facet normal -0.12605 -0.308779 0.942744
    outer loop
      vertex 31.1474 -77.9544 21.0028
      vertex 30.2501 -75.2607 21.7651
      vertex 27.7589 -75.5517 21.3367
    endloop
  endfacet
  facet normal -0.145259 -0.291741 0.945403
    outer loop
      vertex 29.3754 -72.5065 22.4908
      vertex 28.5336 -69.6725 23.236
      vertex 26.0751 -69.8399 22.8066
    endloop
  endfacet
  facet normal -0.14225 -0.2882 0.946945
    outer loop
      vertex 26.8962 -72.7374 22.0481
      vertex 29.3754 -72.5065 22.4908
      vertex 26.0751 -69.8399 22.8066
    endloop
  endfacet
  facet normal -0.20024 -0.295394 0.934156
    outer loop
      vertex 24.3754 -72.9459 21.4601
      vertex 26.0751 -69.8399 22.8066
      vertex 23.5602 -69.9769 22.2242
    endloop
  endfacet
  facet normal -0.193193 -0.299347 0.934381
    outer loop
      vertex 26.8962 -72.7374 22.0481
      vertex 26.0751 -69.8399 22.8066
      vertex 24.3754 -72.9459 21.4601
    endloop
  endfacet
  facet normal -0.187309 -0.28769 0.939228
    outer loop
      vertex 25.2437 -75.8145 20.7546
      vertex 27.7589 -75.5517 21.3367
      vertex 24.3754 -72.9459 21.4601
    endloop
  endfacet
  facet normal -0.19372 -0.295832 0.935391
    outer loop
      vertex 27.7589 -75.5517 21.3367
      vertex 26.8962 -72.7374 22.0481
      vertex 24.3754 -72.9459 21.4601
    endloop
  endfacet
  facet normal -0.203233 -0.308941 0.929114
    outer loop
      vertex 26.0751 -69.8399 22.8066
      vertex 25.3179 -66.8339 23.6405
      vertex 22.8264 -66.8983 23.0741
    endloop
  endfacet
  facet normal -0.199109 -0.304598 0.931437
    outer loop
      vertex 23.5602 -69.9769 22.2242
      vertex 26.0751 -69.8399 22.8066
      vertex 22.8264 -66.8983 23.0741
    endloop
  endfacet
  facet normal -0.255171 -0.304721 0.917624
    outer loop
      vertex 22.8264 -66.8983 23.0741
      vertex 21 -66.911 22.562
      vertex 21 -70.0654 21.5145
    endloop
  endfacet
  facet normal -0.243808 -0.311649 0.918386
    outer loop
      vertex 21 -70.0654 21.5145
      vertex 23.5602 -69.9769 22.2242
      vertex 22.8264 -66.8983 23.0741
    endloop
  endfacet
  facet normal -0.243884 -0.311015 0.91858
    outer loop
      vertex 23.5602 -69.9769 22.2242
      vertex 21 -70.0654 21.5145
      vertex 21 -70.1035 21.5016
    endloop
  endfacet
  facet normal -0.238412 -0.29657 0.924773
    outer loop
      vertex 21 -70.1869 21.4747
      vertex 24.3754 -72.9459 21.4601
      vertex 21 -70.1236 21.495
    endloop
  endfacet
  facet normal -0.238292 -0.296424 0.924851
    outer loop
      vertex 24.3754 -72.9459 21.4601
      vertex 21 -70.1869 21.4747
      vertex 21.8182 -73.1597 20.7327
    endloop
  endfacet
  facet normal -0.245026 -0.30246 0.92113
    outer loop
      vertex 21 -70.1236 21.495
      vertex 23.5602 -69.9769 22.2242
      vertex 21 -70.1035 21.5016
    endloop
  endfacet
  facet normal -0.24479 -0.304147 0.920637
    outer loop
      vertex 23.5602 -69.9769 22.2242
      vertex 21 -70.1236 21.495
      vertex 24.3754 -72.9459 21.4601
    endloop
  endfacet
  facet normal -0.26415 -0.312203 0.912554
    outer loop
      vertex 22.8264 -66.8983 23.0741
      vertex 22.7699 -66.6 23.1598
      vertex 22.5412 -66.6 23.0936
    endloop
  endfacet
  facet normal -0.25517 -0.304254 0.917779
    outer loop
      vertex 21 -66.911 22.562
      vertex 22.5412 -66.6 23.0936
      vertex 21 -66.6 22.6651
    endloop
  endfacet
  facet normal -0.255236 -0.304026 0.917836
    outer loop
      vertex 22.5412 -66.6 23.0936
      vertex 21 -66.911 22.562
      vertex 22.8264 -66.8983 23.0741
    endloop
  endfacet
  facet normal 0.317805 -0.12328 0.940108
    outer loop
      vertex 40.3267 -67.6664 22.7825
      vertex 40.7664 -66.6 22.7737
      vertex 39.8621 -66.6 23.0794
    endloop
  endfacet
  facet normal 0.275151 -0.105539 0.955591
    outer loop
      vertex 40.7664 -66.6 22.7737
      vertex 42 -67.0328 22.3707
      vertex 42 -66.6 22.4185
    endloop
  endfacet
  facet normal 0.275143 -0.105562 0.955591
    outer loop
      vertex 42 -67.0328 22.3707
      vertex 40.7664 -66.6 22.7737
      vertex 40.3267 -67.6664 22.7825
    endloop
  endfacet
  facet normal 0.260453 -0.151467 0.953531
    outer loop
      vertex 42 -68.3 22.2248
      vertex 41.3243 -69.9013 22.155
      vertex 42 -69.6132 22.0162
    endloop
  endfacet
  facet normal 0.260452 -0.151467 0.953531
    outer loop
      vertex 41.3243 -69.9013 22.155
      vertex 42 -68.3 22.2248
      vertex 40.3267 -67.6664 22.7825
    endloop
  endfacet
  facet normal 0.27657 -0.109919 0.954687
    outer loop
      vertex 42 -68.3 22.2248
      vertex 42 -67.0328 22.3707
      vertex 40.3267 -67.6664 22.7825
    endloop
  endfacet
  facet normal 0.244321 -0.186965 0.9515
    outer loop
      vertex 38.0035 -68.3181 23.1825
      vertex 38.7781 -66.6 23.3212
      vertex 37.3426 -66.6 23.6898
    endloop
  endfacet
  facet normal 0.214384 -0.17418 0.961093
    outer loop
      vertex 38.7781 -66.6 23.3212
      vertex 40.3267 -67.6664 22.7825
      vertex 39.8621 -66.6 23.0794
    endloop
  endfacet
  facet normal 0.214351 -0.174227 0.961092
    outer loop
      vertex 40.3267 -67.6664 22.7825
      vertex 38.7781 -66.6 23.3212
      vertex 38.0035 -68.3181 23.1825
    endloop
  endfacet
  facet normal 0.200594 -0.201469 0.958735
    outer loop
      vertex 38.9694 -70.7032 22.4792
      vertex 41.3243 -69.9013 22.155
      vertex 38.0035 -68.3181 23.1825
    endloop
  endfacet
  facet normal 0.214339 -0.174177 0.961104
    outer loop
      vertex 41.3243 -69.9013 22.155
      vertex 40.3267 -67.6664 22.7825
      vertex 38.0035 -68.3181 23.1825
    endloop
  endfacet
  facet normal 0.159722 -0.226455 0.960837
    outer loop
      vertex 35.6701 -68.8105 23.4436
      vertex 36.7059 -66.6 23.7924
      vertex 34.903 -66.6 24.0921
    endloop
  endfacet
  facet normal 0.155033 -0.224435 0.962078
    outer loop
      vertex 36.7059 -66.6 23.7924
      vertex 38.0035 -68.3181 23.1825
      vertex 37.3426 -66.6 23.6898
    endloop
  endfacet
  facet normal 0.155017 -0.224447 0.962078
    outer loop
      vertex 38.0035 -68.3181 23.1825
      vertex 36.7059 -66.6 23.7924
      vertex 35.6701 -68.8105 23.4436
    endloop
  endfacet
  facet normal 0.150111 -0.22846 0.961911
    outer loop
      vertex 36.6043 -71.3427 22.6964
      vertex 38.9694 -70.7032 22.4792
      vertex 35.6701 -68.8105 23.4436
    endloop
  endfacet
  facet normal 0.154458 -0.221375 0.962879
    outer loop
      vertex 38.9694 -70.7032 22.4792
      vertex 38.0035 -68.3181 23.1825
      vertex 35.6701 -68.8105 23.4436
    endloop
  endfacet
  facet normal 0.0846592 -0.251019 0.964273
    outer loop
      vertex 33.3222 -69.1904 23.5577
      vertex 34.5618 -66.6 24.1232
      vertex 32.5002 -66.6 24.3042
    endloop
  endfacet
  facet normal 0.0878376 -0.252233 0.963672
    outer loop
      vertex 34.5618 -66.6 24.1232
      vertex 35.6701 -68.8105 23.4436
      vertex 34.903 -66.6 24.0921
    endloop
  endfacet
  facet normal 0.0876575 -0.252321 0.963665
    outer loop
      vertex 35.6701 -68.8105 23.4436
      vertex 34.5618 -66.6 24.1232
      vertex 33.3222 -69.1904 23.5577
    endloop
  endfacet
  facet normal 0.0918417 -0.246074 0.96489
    outer loop
      vertex 34.2265 -71.8404 22.7958
      vertex 36.6043 -71.3427 22.6964
      vertex 33.3222 -69.1904 23.5577
    endloop
  endfacet
  facet normal 0.0876179 -0.252055 0.963738
    outer loop
      vertex 36.6043 -71.3427 22.6964
      vertex 35.6701 -68.8105 23.4436
      vertex 33.3222 -69.1904 23.5577
    endloop
  endfacet
  facet normal -0.00410904 -0.271697 0.962374
    outer loop
      vertex 30.2348 -66.6 24.2957
      vertex 30.9466 -69.4664 23.4895
      vertex 32.3661 -66.6 24.3048
    endloop
  endfacet
  facet normal -0.00368129 -0.271599 0.962404
    outer loop
      vertex 30.9466 -69.4664 23.4895
      vertex 30.2348 -66.6 24.2957
      vertex 30.1105 -66.6093 24.2926
    endloop
  endfacet
  facet normal 0.00430089 -0.275647 0.961249
    outer loop
      vertex 32.3661 -66.6 24.3048
      vertex 33.3222 -69.1904 23.5577
      vertex 32.5002 -66.6 24.3042
    endloop
  endfacet
  facet normal 0.00442377 -0.275605 0.961261
    outer loop
      vertex 33.3222 -69.1904 23.5577
      vertex 32.3661 -66.6 24.3048
      vertex 30.9466 -69.4664 23.4895
    endloop
  endfacet
  facet normal 0.0174607 -0.258134 0.965951
    outer loop
      vertex 31.8199 -72.2206 22.7377
      vertex 34.2265 -71.8404 22.7958
      vertex 30.9466 -69.4664 23.4895
    endloop
  endfacet
  facet normal 0.00434154 -0.274944 0.96145
    outer loop
      vertex 34.2265 -71.8404 22.7958
      vertex 33.3222 -69.1904 23.5577
      vertex 30.9466 -69.4664 23.4895
    endloop
  endfacet
  facet normal -0.0825479 -0.286727 0.954449
    outer loop
      vertex 28.5336 -69.6725 23.236
      vertex 30.1105 -66.6093 24.2926
      vertex 27.7385 -66.7353 24.0496
    endloop
  endfacet
  facet normal -0.0754322 -0.290228 0.95398
    outer loop
      vertex 30.9466 -69.4664 23.4895
      vertex 30.1105 -66.6093 24.2926
      vertex 28.5336 -69.6725 23.236
    endloop
  endfacet
  facet normal -0.0651836 -0.271829 0.960135
    outer loop
      vertex 29.3754 -72.5065 22.4908
      vertex 31.8199 -72.2206 22.7377
      vertex 28.5336 -69.6725 23.236
    endloop
  endfacet
  facet normal -0.0760464 -0.284937 0.955525
    outer loop
      vertex 31.8199 -72.2206 22.7377
      vertex 30.9466 -69.4664 23.4895
      vertex 28.5336 -69.6725 23.236
    endloop
  endfacet
  facet normal -0.0784658 -0.287146 0.954668
    outer loop
      vertex 30.1105 -66.6093 24.2926
      vertex 30.1081 -66.6 24.2952
      vertex 30.1008 -66.6 24.2946
    endloop
  endfacet
  facet normal -0.0822123 -0.290751 0.95326
    outer loop
      vertex 30.1008 -66.6 24.2946
      vertex 27.7385 -66.7353 24.0496
      vertex 30.1105 -66.6093 24.2926
    endloop
  endfacet
  facet normal -0.0822776 -0.29001 0.95348
    outer loop
      vertex 27.7385 -66.7353 24.0496
      vertex 30.1008 -66.6 24.2946
      vertex 27.7066 -66.6 24.088
    endloop
  endfacet
  facet normal -0.150283 -0.29978 0.942097
    outer loop
      vertex 25.3179 -66.8339 23.6405
      vertex 25.4431 -66.6 23.7349
      vertex 25.2682 -66.6 23.707
    endloop
  endfacet
  facet normal -0.146938 -0.301975 0.941924
    outer loop
      vertex 25.4431 -66.6 23.7349
      vertex 27.7385 -66.7353 24.0496
      vertex 27.7066 -66.6 24.088
    endloop
  endfacet
  facet normal -0.146931 -0.301558 0.942058
    outer loop
      vertex 27.7385 -66.7353 24.0496
      vertex 25.4431 -66.6 23.7349
      vertex 25.3179 -66.8339 23.6405
    endloop
  endfacet
  facet normal -0.144494 -0.298142 0.943522
    outer loop
      vertex 26.0751 -69.8399 22.8066
      vertex 28.5336 -69.6725 23.236
      vertex 25.3179 -66.8339 23.6405
    endloop
  endfacet
  facet normal -0.147001 -0.300806 0.942288
    outer loop
      vertex 28.5336 -69.6725 23.236
      vertex 27.7385 -66.7353 24.0496
      vertex 25.3179 -66.8339 23.6405
    endloop
  endfacet
  facet normal -0.203548 -0.305659 0.930129
    outer loop
      vertex 25.0873 -66.6 23.6669
      vertex 22.8264 -66.8983 23.0741
      vertex 25.3179 -66.8339 23.6405
    endloop
  endfacet
  facet normal -0.203527 -0.305762 0.9301
    outer loop
      vertex 22.8264 -66.8983 23.0741
      vertex 25.0873 -66.6 23.6669
      vertex 22.7699 -66.6 23.1598
    endloop
  endfacet
  facet normal -0.205906 -0.307844 0.928889
    outer loop
      vertex 25.3179 -66.8339 23.6405
      vertex 25.2682 -66.6 23.707
      vertex 25.0873 -66.6 23.6669
    endloop
  endfacet
  facet normal -0.00379957 -0.270153 0.96281
    outer loop
      vertex 30.1105 -66.6093 24.2926
      vertex 30.2348 -66.6 24.2957
      vertex 30.1081 -66.6 24.2952
    endloop
  endfacet
endsolid OpenSCAD_Model
