solid OpenSCAD_Model
  facet normal 1 -0 0
    outer loop
      vertex 24.8 -81.0798 19.7974
      vertex 24.8 -78.6192 0
      vertex 24.8 -78.6192 20.1808
    endloop
  endfacet
  facet normal 1 -0 0
    outer loop
      vertex 24.8 -85.7664 19.0167
      vertex 24.8 -78.6192 0
      vertex 24.8 -81.0798 19.7974
    endloop
  endfacet
  facet normal 1 0 0
    outer loop
      vertex 24.8 -78.6192 0
      vertex 24.8 -85.7664 19.0167
      vertex 24.8 -85.7664 0
    endloop
  endfacet
  facet normal 0 0 -1
    outer loop
      vertex 1.60876 -85.7664 0
      vertex 24.8 -78.6192 0
      vertex 24.8 -85.7664 0
    endloop
  endfacet
  facet normal 0 0 -1
    outer loop
      vertex 0.833161 -79.3375 0
      vertex 24.8 -78.6192 0
      vertex 1.60876 -85.7664 0
    endloop
  endfacet
  facet normal 0 0 -1
    outer loop
      vertex 0.785215 -78.6192 0
      vertex 0.833161 -79.3375 0
      vertex 0.83316 -79.3375 0
    endloop
  endfacet
  facet normal 0 0 -1
    outer loop
      vertex 0.833161 -79.3375 0
      vertex 0.785215 -78.6192 0
      vertex 24.8 -78.6192 0
    endloop
  endfacet
  facet normal 0 1 0
    outer loop
      vertex 24.8 -78.6192 0
      vertex 21.1081 -78.6192 20.5051
      vertex 21.4162 -78.6192 20.5279
    endloop
  endfacet
  facet normal 0 1 0
    outer loop
      vertex 21.1081 -78.6192 20.5051
      vertex 17.6518 -78.6192 20.2108
      vertex 17.8695 -78.6192 20.2664
    endloop
  endfacet
  facet normal 0 1 0
    outer loop
      vertex 24.8 -78.6192 0
      vertex 21.4162 -78.6192 20.5279
      vertex 24.5543 -78.6192 20.206
    endloop
  endfacet
  facet normal 0 1 -0
    outer loop
      vertex 24.8 -78.6192 0
      vertex 24.5543 -78.6192 20.206
      vertex 24.8 -78.6192 20.1808
    endloop
  endfacet
  facet normal 0 1 0
    outer loop
      vertex 21.1081 -78.6192 20.5051
      vertex 24.8 -78.6192 0
      vertex 17.6518 -78.6192 20.2108
    endloop
  endfacet
  facet normal -0 1 0
    outer loop
      vertex 14.2838 -78.6192 19.3259
      vertex 17.6518 -78.6192 20.2108
      vertex 24.8 -78.6192 0
    endloop
  endfacet
  facet normal 0 1 0
    outer loop
      vertex 17.6518 -78.6192 20.2108
      vertex 14.2838 -78.6192 19.3259
      vertex 14.4137 -78.6192 19.3848
    endloop
  endfacet
  facet normal -0 1 0
    outer loop
      vertex 11.1024 -78.6192 17.869
      vertex 14.2838 -78.6192 19.3259
      vertex 24.8 -78.6192 0
    endloop
  endfacet
  facet normal 0 1 0
    outer loop
      vertex 14.2838 -78.6192 19.3259
      vertex 11.1024 -78.6192 17.869
      vertex 11.1559 -78.6192 17.9058
    endloop
  endfacet
  facet normal 0 1 0
    outer loop
      vertex 11.1024 -78.6192 17.869
      vertex 24.8 -78.6192 0
      vertex 8.44824 -78.6192 16.0431
    endloop
  endfacet
  facet normal -0 1 0
    outer loop
      vertex 5.70163 -78.6192 13.3858
      vertex 8.44824 -78.6192 16.0431
      vertex 24.8 -78.6192 0
    endloop
  endfacet
  facet normal 0 1 0
    outer loop
      vertex 8.44824 -78.6192 16.0431
      vertex 5.70163 -78.6192 13.3858
      vertex 8.20497 -78.6192 15.8741
    endloop
  endfacet
  facet normal 0 1 0
    outer loop
      vertex 8.20497 -78.6192 15.8741
      vertex 5.70163 -78.6192 13.3858
      vertex 8.19927 -78.6192 15.8702
    endloop
  endfacet
  facet normal -0 1 0
    outer loop
      vertex 3.64992 -78.6192 10.4901
      vertex 5.70163 -78.6192 13.3858
      vertex 24.8 -78.6192 0
    endloop
  endfacet
  facet normal 0 1 0
    outer loop
      vertex 5.70163 -78.6192 13.3858
      vertex 3.64992 -78.6192 10.4901
      vertex 5.64609 -78.6192 13.3305
    endloop
  endfacet
  facet normal -0 1 0
    outer loop
      vertex 2.11669 -78.6192 7.26734
      vertex 3.64992 -78.6192 10.4901
      vertex 24.8 -78.6192 0
    endloop
  endfacet
  facet normal 0 1 0
    outer loop
      vertex 3.64992 -78.6192 10.4901
      vertex 2.11669 -78.6192 7.26734
      vertex 3.57115 -78.6192 10.3781
    endloop
  endfacet
  facet normal -0 1 0
    outer loop
      vertex 1.15553 -78.6192 3.80928
      vertex 2.11669 -78.6192 7.26734
      vertex 24.8 -78.6192 0
    endloop
  endfacet
  facet normal 0 1 0
    outer loop
      vertex 2.11669 -78.6192 7.26734
      vertex 1.15553 -78.6192 3.80928
      vertex 2.04006 -78.6192 7.10344
    endloop
  endfacet
  facet normal -0 1 0
    outer loop
      vertex 0.804304 -78.6192 0.217797
      vertex 1.15553 -78.6192 3.80928
      vertex 24.8 -78.6192 0
    endloop
  endfacet
  facet normal 0 1 0
    outer loop
      vertex 1.15553 -78.6192 3.80928
      vertex 0.804304 -78.6192 0.217797
      vertex 1.10145 -78.6192 3.60789
    endloop
  endfacet
  facet normal 0 1 0
    outer loop
      vertex 0.785215 -78.6192 0
      vertex 0.804304 -78.6192 0.217797
      vertex 24.8 -78.6192 0
    endloop
  endfacet
  facet normal 0 1 0
    outer loop
      vertex 0.804304 -78.6192 0.217797
      vertex 0.785215 -78.6192 0
      vertex 0.785215 -78.6192 9.53674e-07
    endloop
  endfacet
  facet normal 0 -1 0
    outer loop
      vertex 19.0788 -85.7664 19.2833
      vertex 22.3465 -85.7664 19.3188
      vertex 21.1814 -85.7664 19.4383
    endloop
  endfacet
  facet normal 0 -1 0
    outer loop
      vertex 15.8554 -85.7664 18.6888
      vertex 19.0788 -85.7664 19.2833
      vertex 17.823 -85.7664 19.1907
    endloop
  endfacet
  facet normal 0 -1 0
    outer loop
      vertex 19.0788 -85.7664 19.2833
      vertex 24.8 -85.7664 0
      vertex 22.3465 -85.7664 19.3188
    endloop
  endfacet
  facet normal -0 -1 -0
    outer loop
      vertex 24.8 -85.7664 19.0167
      vertex 22.3465 -85.7664 19.3188
      vertex 24.8 -85.7664 0
    endloop
  endfacet
  facet normal 0 -1 -0
    outer loop
      vertex 19.0788 -85.7664 19.2833
      vertex 15.8554 -85.7664 18.6888
      vertex 24.8 -85.7664 0
    endloop
  endfacet
  facet normal 0 -1 0
    outer loop
      vertex 12.7686 -85.7664 17.547
      vertex 15.8554 -85.7664 18.6888
      vertex 14.5506 -85.7664 18.3559
    endloop
  endfacet
  facet normal 0 -1 -0
    outer loop
      vertex 15.8554 -85.7664 18.6888
      vertex 12.7686 -85.7664 17.547
      vertex 24.8 -85.7664 0
    endloop
  endfacet
  facet normal 0 -1 0
    outer loop
      vertex 9.90905 -85.7664 15.8846
      vertex 12.7686 -85.7664 17.547
      vertex 11.4657 -85.7664 16.9555
    endloop
  endfacet
  facet normal 0 -1 -0
    outer loop
      vertex 12.7686 -85.7664 17.547
      vertex 9.90905 -85.7664 15.8846
      vertex 24.8 -85.7664 0
    endloop
  endfacet
  facet normal 0 -1 0
    outer loop
      vertex 7.36323 -85.7664 13.7435
      vertex 9.90905 -85.7664 15.8846
      vertex 8.6653 -85.7664 15.0289
    endloop
  endfacet
  facet normal 0 -1 -0
    outer loop
      vertex 9.90905 -85.7664 15.8846
      vertex 7.36323 -85.7664 13.7435
      vertex 24.8 -85.7664 0
    endloop
  endfacet
  facet normal 0 -1 0
    outer loop
      vertex 5.21109 -85.7664 11.1804
      vertex 7.36323 -85.7664 13.7435
      vertex 6.23867 -85.7664 12.6333
    endloop
  endfacet
  facet normal 0 -1 -0
    outer loop
      vertex 7.36323 -85.7664 13.7435
      vertex 5.21109 -85.7664 11.1804
      vertex 24.8 -85.7664 0
    endloop
  endfacet
  facet normal 0 -1 0
    outer loop
      vertex 3.52334 -85.7664 8.26616
      vertex 5.21109 -85.7664 11.1804
      vertex 4.26392 -85.7664 9.84118
    endloop
  endfacet
  facet normal 0 -1 -0
    outer loop
      vertex 5.21109 -85.7664 11.1804
      vertex 3.52334 -85.7664 8.26616
      vertex 24.8 -85.7664 0
    endloop
  endfacet
  facet normal 0 -1 0
    outer loop
      vertex 2.35867 -85.7664 5.08454
      vertex 3.52334 -85.7664 8.26616
      vertex 2.80524 -85.7664 6.73896
    endloop
  endfacet
  facet normal 0 -1 -0
    outer loop
      vertex 3.52334 -85.7664 8.26616
      vertex 2.35867 -85.7664 5.08454
      vertex 24.8 -85.7664 0
    endloop
  endfacet
  facet normal 0 -1 0
    outer loop
      vertex 1.76118 -85.7664 1.73018
      vertex 2.35867 -85.7664 5.08454
      vertex 1.91037 -85.7664 3.4237
    endloop
  endfacet
  facet normal 0 -1 -0
    outer loop
      vertex 2.35867 -85.7664 5.08454
      vertex 1.76118 -85.7664 1.73018
      vertex 24.8 -85.7664 0
    endloop
  endfacet
  facet normal 0 -1 0
    outer loop
      vertex 1.60876 -85.7664 0
      vertex 1.76118 -85.7664 1.73018
      vertex 1.60876 -85.7664 9.53674e-07
    endloop
  endfacet
  facet normal 0 -1 -0
    outer loop
      vertex 1.76118 -85.7664 1.73018
      vertex 1.60876 -85.7664 0
      vertex 24.8 -85.7664 0
    endloop
  endfacet
  facet normal 0 -1 0
    outer loop
      vertex 22.3465 -85.7664 19.3188
      vertex 24.8 -85.7664 19.0167
      vertex 24.5232 -85.7664 19.0956
    endloop
  endfacet
  facet normal 0.270673 -0.158183 0.949586
    outer loop
      vertex 24.8 -85.7664 19.0167
      vertex 24.8 -81.0798 19.7974
      vertex 24.5232 -85.7664 19.0956
    endloop
  endfacet
  facet normal 0.100825 -0.153173 0.983042
    outer loop
      vertex 24.5543 -78.6192 20.206
      vertex 24.8 -81.0798 19.7974
      vertex 24.8 -78.6192 20.1808
    endloop
  endfacet
  facet normal 0.100826 -0.153173 0.983042
    outer loop
      vertex 22.3465 -85.7664 19.3188
      vertex 24.8 -81.0798 19.7974
      vertex 24.5543 -78.6192 20.206
    endloop
  endfacet
  facet normal 0.100802 -0.153161 0.983047
    outer loop
      vertex 24.8 -81.0798 19.7974
      vertex 22.3465 -85.7664 19.3188
      vertex 24.5232 -85.7664 19.0956
    endloop
  endfacet
  facet normal 0.100838 -0.153177 0.98304
    outer loop
      vertex 21.4162 -78.6192 20.5279
      vertex 22.3465 -85.7664 19.3188
      vertex 24.5543 -78.6192 20.206
    endloop
  endfacet
  facet normal 0.100827 -0.153178 0.983041
    outer loop
      vertex 22.3465 -85.7664 19.3188
      vertex 21.4162 -78.6192 20.5279
      vertex 21.1814 -85.7664 19.4383
    endloop
  endfacet
  facet normal -0.0729878 -0.147964 0.986296
    outer loop
      vertex 21.1081 -78.6192 20.5051
      vertex 21.1814 -85.7664 19.4383
      vertex 21.4162 -78.6192 20.5279
    endloop
  endfacet
  facet normal -0.0727095 -0.147964 0.986316
    outer loop
      vertex 21.1814 -85.7664 19.4383
      vertex 21.1081 -78.6192 20.5051
      vertex 19.0788 -85.7664 19.2833
    endloop
  endfacet
  facet normal -0.0726962 -0.147968 0.986317
    outer loop
      vertex 17.8695 -78.6192 20.2664
      vertex 19.0788 -85.7664 19.2833
      vertex 21.1081 -78.6192 20.5051
    endloop
  endfacet
  facet normal -0.0727286 -0.147973 0.986314
    outer loop
      vertex 19.0788 -85.7664 19.2833
      vertex 17.8695 -78.6192 20.2664
      vertex 17.823 -85.7664 19.1907
    endloop
  endfacet
  facet normal -0.244921 -0.142739 0.958978
    outer loop
      vertex 17.6518 -78.6192 20.2108
      vertex 17.823 -85.7664 19.1907
      vertex 17.8695 -78.6192 20.2664
    endloop
  endfacet
  facet normal -0.244637 -0.142742 0.95905
    outer loop
      vertex 17.823 -85.7664 19.1907
      vertex 17.6518 -78.6192 20.2108
      vertex 15.8554 -85.7664 18.6888
    endloop
  endfacet
  facet normal -0.244642 -0.142741 0.959049
    outer loop
      vertex 14.4137 -78.6192 19.3848
      vertex 15.8554 -85.7664 18.6888
      vertex 17.6518 -78.6192 20.2108
    endloop
  endfacet
  facet normal -0.244684 -0.142748 0.959037
    outer loop
      vertex 15.8554 -85.7664 18.6888
      vertex 14.4137 -78.6192 19.3848
      vertex 14.5506 -85.7664 18.3559
    endloop
  endfacet
  facet normal -0.409024 -0.137696 0.902075
    outer loop
      vertex 14.2838 -78.6192 19.3259
      vertex 14.5506 -85.7664 18.3559
      vertex 14.4137 -78.6192 19.3848
    endloop
  endfacet
  facet normal -0.4094 -0.137687 0.901906
    outer loop
      vertex 14.5506 -85.7664 18.3559
      vertex 14.2838 -78.6192 19.3259
      vertex 12.7686 -85.7664 17.547
    endloop
  endfacet
  facet normal -0.409463 -0.137667 0.90188
    outer loop
      vertex 11.1559 -78.6192 17.9058
      vertex 12.7686 -85.7664 17.547
      vertex 14.2838 -78.6192 19.3259
    endloop
  endfacet
  facet normal -0.409446 -0.137664 0.901888
    outer loop
      vertex 12.7686 -85.7664 17.547
      vertex 11.1559 -78.6192 17.9058
      vertex 11.4657 -85.7664 16.9555
    endloop
  endfacet
  facet normal -0.568991 -0.0736058 0.819043
    outer loop
      vertex 8.44824 -78.6192 16.0431
      vertex 8.20497 -78.6192 15.8741
      vertex 8.20008 -78.6426 15.8686
    endloop
  endfacet
  facet normal -0.563061 -0.0757597 0.822935
    outer loop
      vertex 8.20008 -78.6426 15.8686
      vertex 8.20497 -78.6192 15.8741
      vertex 8.19927 -78.6192 15.8702
    endloop
  endfacet
  facet normal -0.561696 -0.132923 0.816596
    outer loop
      vertex 11.1024 -78.6192 17.869
      vertex 11.4657 -85.7664 16.9555
      vertex 11.1559 -78.6192 17.9058
    endloop
  endfacet
  facet normal -0.561752 -0.132921 0.816558
    outer loop
      vertex 11.4657 -85.7664 16.9555
      vertex 11.1024 -78.6192 17.869
      vertex 9.90905 -85.7664 15.8846
    endloop
  endfacet
  facet normal -0.561745 -0.132923 0.816562
    outer loop
      vertex 8.44824 -78.6192 16.0431
      vertex 9.90905 -85.7664 15.8846
      vertex 11.1024 -78.6192 17.869
    endloop
  endfacet
  facet normal -0.561778 -0.132929 0.816538
    outer loop
      vertex 9.90905 -85.7664 15.8846
      vertex 8.44824 -78.6192 16.0431
      vertex 8.6653 -85.7664 15.0289
    endloop
  endfacet
  facet normal -0.561681 -0.132936 0.816604
    outer loop
      vertex 8.6653 -85.7664 15.0289
      vertex 8.44824 -78.6192 16.0431
      vertex 8.20008 -78.6426 15.8686
    endloop
  endfacet
  facet normal -0.703359 -0.0726963 0.707108
    outer loop
      vertex 5.70163 -78.6192 13.3858
      vertex 8.20008 -78.6426 15.8686
      vertex 8.19927 -78.6192 15.8702
    endloop
  endfacet
  facet normal -0.70334 -0.0731007 0.707085
    outer loop
      vertex 8.20008 -78.6426 15.8686
      vertex 5.70163 -78.6192 13.3858
      vertex 5.65811 -78.8824 13.3153
    endloop
  endfacet
  facet normal -0.703694 -0.072952 0.706748
    outer loop
      vertex 5.65811 -78.8824 13.3153
      vertex 5.70163 -78.6192 13.3858
      vertex 5.64609 -78.6192 13.3305
    endloop
  endfacet
  facet normal -0.696695 -0.128684 0.705731
    outer loop
      vertex 8.6653 -85.7664 15.0289
      vertex 8.20008 -78.6426 15.8686
      vertex 7.36323 -85.7664 13.7435
    endloop
  endfacet
  facet normal -0.696717 -0.128675 0.705711
    outer loop
      vertex 5.65811 -78.8824 13.3153
      vertex 7.36323 -85.7664 13.7435
      vertex 8.20008 -78.6426 15.8686
    endloop
  endfacet
  facet normal -0.696708 -0.128673 0.70572
    outer loop
      vertex 7.36323 -85.7664 13.7435
      vertex 5.65811 -78.8824 13.3153
      vertex 6.23867 -85.7664 12.6333
    endloop
  endfacet
  facet normal -0.816133 -0.0703953 0.57356
    outer loop
      vertex 3.64992 -78.6192 10.4901
      vertex 5.65811 -78.8824 13.3153
      vertex 5.64609 -78.6192 13.3305
    endloop
  endfacet
  facet normal -0.816134 -0.0703252 0.573567
    outer loop
      vertex 5.65811 -78.8824 13.3153
      vertex 3.64992 -78.6192 10.4901
      vertex 3.59617 -79.0769 10.3575
    endloop
  endfacet
  facet normal -0.815929 -0.0704299 0.573846
    outer loop
      vertex 3.59617 -79.0769 10.3575
      vertex 3.64992 -78.6192 10.4901
      vertex 3.57115 -78.6192 10.3781
    endloop
  endfacet
  facet normal -0.810026 -0.125071 0.5729
    outer loop
      vertex 6.23867 -85.7664 12.6333
      vertex 5.65811 -78.8824 13.3153
      vertex 5.21109 -85.7664 11.1804
    endloop
  endfacet
  facet normal -0.810028 -0.125076 0.572896
    outer loop
      vertex 5.21109 -85.7664 11.1804
      vertex 3.59617 -79.0769 10.3575
      vertex 4.26392 -85.7664 9.84118
    endloop
  endfacet
  facet normal -0.810022 -0.125073 0.572906
    outer loop
      vertex 3.59617 -79.0769 10.3575
      vertex 5.21109 -85.7664 11.1804
      vertex 5.65811 -78.8824 13.3153
    endloop
  endfacet
  facet normal -0.903751 -0.0684214 0.422556
    outer loop
      vertex 2.11669 -78.6192 7.26734
      vertex 3.59617 -79.0769 10.3575
      vertex 3.57115 -78.6192 10.3781
    endloop
  endfacet
  facet normal -0.903751 -0.0684232 0.422555
    outer loop
      vertex 3.59617 -79.0769 10.3575
      vertex 2.11669 -78.6192 7.26734
      vertex 2.0769 -79.2202 7.08492
    endloop
  endfacet
  facet normal -0.903757 -0.0684191 0.422543
    outer loop
      vertex 2.0769 -79.2202 7.08492
      vertex 2.11669 -78.6192 7.26734
      vertex 2.04006 -78.6192 7.10344
    endloop
  endfacet
  facet normal -0.898165 -0.122252 0.42232
    outer loop
      vertex 4.26392 -85.7664 9.84118
      vertex 3.59617 -79.0769 10.3575
      vertex 3.52334 -85.7664 8.26616
    endloop
  endfacet
  facet normal -0.898164 -0.12225 0.422323
    outer loop
      vertex 3.52334 -85.7664 8.26616
      vertex 2.0769 -79.2202 7.08492
      vertex 2.80524 -85.7664 6.73896
    endloop
  endfacet
  facet normal -0.898165 -0.122251 0.422319
    outer loop
      vertex 2.0769 -79.2202 7.08492
      vertex 3.52334 -85.7664 8.26616
      vertex 3.59617 -79.0769 10.3575
    endloop
  endfacet
  facet normal -0.963616 -0.0670409 0.258745
    outer loop
      vertex 1.15553 -78.6192 3.80928
      vertex 2.0769 -79.2202 7.08492
      vertex 2.04006 -78.6192 7.10344
    endloop
  endfacet
  facet normal -0.963616 -0.0670401 0.258745
    outer loop
      vertex 2.0769 -79.2202 7.08492
      vertex 1.15553 -78.6192 3.80928
      vertex 1.14648 -79.308 3.59711
    endloop
  endfacet
  facet normal -0.963611 -0.0670454 0.258762
    outer loop
      vertex 1.14648 -79.308 3.59711
      vertex 1.15553 -78.6192 3.80928
      vertex 1.10145 -78.6192 3.60789
    endloop
  endfacet
  facet normal -0.958435 -0.120309 0.258706
    outer loop
      vertex 2.35867 -85.7664 5.08454
      vertex 2.80524 -85.7664 6.73896
      vertex 2.0769 -79.2202 7.08492
    endloop
  endfacet
  facet normal -0.958435 -0.120309 0.258704
    outer loop
      vertex 2.35867 -85.7664 5.08454
      vertex 1.14648 -79.308 3.59711
      vertex 1.91037 -85.7664 3.4237
    endloop
  endfacet
  facet normal -0.958435 -0.120309 0.258704
    outer loop
      vertex 1.14648 -79.308 3.59711
      vertex 2.35867 -85.7664 5.08454
      vertex 2.0769 -79.2202 7.08492
    endloop
  endfacet
  facet normal -0.993986 -0.0663449 0.0871241
    outer loop
      vertex 0.804304 -78.6192 0.217797
      vertex 1.14648 -79.308 3.59711
      vertex 1.10145 -78.6192 3.60789
    endloop
  endfacet
  facet normal -0.993986 -0.0663478 0.0871235
    outer loop
      vertex 1.14648 -79.308 3.59711
      vertex 0.804304 -78.6192 0.217797
      vertex 0.83316 -79.3375 9.53674e-07
    endloop
  endfacet
  facet normal -0.993986 -0.0663465 0.0871191
    outer loop
      vertex 0.83316 -79.3375 9.53674e-07
      vertex 0.804304 -78.6192 0.217797
      vertex 0.785215 -78.6192 9.53674e-07
    endloop
  endfacet
  facet normal -0.989026 -0.11932 0.0871278
    outer loop
      vertex 1.76118 -85.7664 1.73018
      vertex 1.91037 -85.7664 3.4237
      vertex 1.14648 -79.308 3.59711
    endloop
  endfacet
  facet normal -0.989026 -0.119319 0.0871281
    outer loop
      vertex 1.76118 -85.7664 1.73018
      vertex 0.83316 -79.3375 9.53674e-07
      vertex 1.60876 -85.7664 9.53674e-07
    endloop
  endfacet
  facet normal -0.989026 -0.119319 0.0871259
    outer loop
      vertex 0.83316 -79.3375 9.53674e-07
      vertex 1.76118 -85.7664 1.73018
      vertex 1.14648 -79.308 3.59711
    endloop
  endfacet
  facet normal -0.99778 -0.0665997 0
    outer loop
      vertex 0.83316 -79.3375 0
      vertex 0.785215 -78.6192 9.53674e-07
      vertex 0.785215 -78.6192 0
    endloop
  endfacet
  facet normal -0.99778 -0.0665997 0
    outer loop
      vertex 0.785215 -78.6192 9.53674e-07
      vertex 0.83316 -79.3375 0
      vertex 0.83316 -79.3375 9.53674e-07
    endloop
  endfacet
  facet normal -0.687766 -0.0829738 -0.721175
    outer loop
      vertex 1.60876 -85.7664 0
      vertex 0.83316 -79.3375 9.53674e-07
      vertex 0.833161 -79.3375 0
    endloop
  endfacet
  facet normal -0.992801 -0.119774 0
    outer loop
      vertex 0.83316 -79.3375 9.53674e-07
      vertex 1.60876 -85.7664 0
      vertex 1.60876 -85.7664 9.53674e-07
    endloop
  endfacet
  facet normal 0 -1 0
    outer loop
      vertex 0.83316 -79.3375 0
      vertex 0.833161 -79.3375 0
      vertex 0.83316 -79.3375 9.53674e-07
    endloop
  endfacet
endsolid OpenSCAD_Model
