solid OpenSCAD_Model
  facet normal -0 0 1
    outer loop
      vertex 24.8 -150.091 0
      vertex 39.0731 -151.063 0
      vertex 39.005 -150.091 0
    endloop
  endfacet
  facet normal 0 0 1
    outer loop
      vertex 39.0731 -151.063 0
      vertex 24.8 -150.091 0
      vertex 37.8466 -157.238 0
    endloop
  endfacet
  facet normal 0 0 1
    outer loop
      vertex 37.8466 -157.238 0
      vertex 24.8 -150.091 0
      vertex 24.8 -157.238 0
    endloop
  endfacet
  facet normal -1 0 0
    outer loop
      vertex 24.8 -152.41 -15.6811
      vertex 24.8 -150.091 0
      vertex 24.8 -150.091 -15.8413
    endloop
  endfacet
  facet normal -1 0 0
    outer loop
      vertex 24.8 -157.238 -14.761
      vertex 24.8 -150.091 0
      vertex 24.8 -152.41 -15.6811
    endloop
  endfacet
  facet normal -1 -0 0
    outer loop
      vertex 24.8 -150.091 0
      vertex 24.8 -157.238 -14.761
      vertex 24.8 -157.238 0
    endloop
  endfacet
  facet normal 0 1 -0
    outer loop
      vertex 38.985 -150.091 -0.228393
      vertex 24.8 -150.091 0
      vertex 39.005 -150.091 0
    endloop
  endfacet
  facet normal 0 1 -0
    outer loop
      vertex 38.7631 -150.091 -2.75971
      vertex 24.8 -150.091 0
      vertex 38.985 -150.091 -0.228393
    endloop
  endfacet
  facet normal 0 1 -0
    outer loop
      vertex 38.702 -150.091 -2.98728
      vertex 24.8 -150.091 0
      vertex 38.7631 -150.091 -2.75971
    endloop
  endfacet
  facet normal 0 1 -0
    outer loop
      vertex 38.0442 -150.091 -5.43748
      vertex 24.8 -150.091 0
      vertex 38.702 -150.091 -2.98728
    endloop
  endfacet
  facet normal 0 1 -0
    outer loop
      vertex 37.9372 -150.091 -5.6665
      vertex 24.8 -150.091 0
      vertex 38.0442 -150.091 -5.43748
    endloop
  endfacet
  facet normal 0 1 -0
    outer loop
      vertex 36.8692 -150.091 -7.95363
      vertex 24.8 -150.091 0
      vertex 37.9372 -150.091 -5.6665
    endloop
  endfacet
  facet normal 0 1 -0
    outer loop
      vertex 36.7084 -150.091 -8.1832
      vertex 24.8 -150.091 0
      vertex 36.8692 -150.091 -7.95363
    endloop
  endfacet
  facet normal 0 1 -0
    outer loop
      vertex 35.2725 -150.091 -10.233
      vertex 24.8 -150.091 0
      vertex 36.7084 -150.091 -8.1832
    endloop
  endfacet
  facet normal 0 1 -0
    outer loop
      vertex 35.048 -150.091 -10.4576
      vertex 24.8 -150.091 0
      vertex 35.2725 -150.091 -10.233
    endloop
  endfacet
  facet normal 0 1 -0
    outer loop
      vertex 33.3005 -150.091 -12.2069
      vertex 24.8 -150.091 0
      vertex 35.048 -150.091 -10.4576
    endloop
  endfacet
  facet normal 0 1 -0
    outer loop
      vertex 33.0032 -150.091 -12.4159
      vertex 24.8 -150.091 0
      vertex 33.3005 -150.091 -12.2069
    endloop
  endfacet
  facet normal 0 1 -0
    outer loop
      vertex 31.0114 -150.091 -13.8155
      vertex 24.8 -150.091 0
      vertex 33.0032 -150.091 -12.4159
    endloop
  endfacet
  facet normal 0 1 -0
    outer loop
      vertex 30.6343 -150.091 -13.9928
      vertex 24.8 -150.091 0
      vertex 31.0114 -150.091 -13.8155
    endloop
  endfacet
  facet normal 0 1 -0
    outer loop
      vertex 28.4727 -150.091 -15.0093
      vertex 24.8 -150.091 0
      vertex 30.6343 -150.091 -13.9928
    endloop
  endfacet
  facet normal 0 1 -0
    outer loop
      vertex 28.0141 -150.091 -15.1346
      vertex 24.8 -150.091 0
      vertex 28.4727 -150.091 -15.0093
    endloop
  endfacet
  facet normal 0 1 -0
    outer loop
      vertex 25.7601 -150.091 -15.7507
      vertex 24.8 -150.091 0
      vertex 28.0141 -150.091 -15.1346
    endloop
  endfacet
  facet normal 0 1 -0
    outer loop
      vertex 25.2247 -150.091 -15.8012
      vertex 24.8 -150.091 0
      vertex 25.7601 -150.091 -15.7507
    endloop
  endfacet
  facet normal 0 1 0
    outer loop
      vertex 24.8 -150.091 0
      vertex 25.2247 -150.091 -15.8012
      vertex 24.8 -150.091 -15.8413
    endloop
  endfacet
  facet normal 0 -1 0
    outer loop
      vertex 24.8 -157.238 0
      vertex 37.7861 -157.238 -0.708763
      vertex 37.8466 -157.238 0
    endloop
  endfacet
  facet normal 0 -1 0
    outer loop
      vertex 24.8 -157.238 0
      vertex 37.629 -157.238 -2.54684
      vertex 37.7861 -157.238 -0.708763
    endloop
  endfacet
  facet normal 0 -1 0
    outer loop
      vertex 24.8 -157.238 0
      vertex 37.4463 -157.238 -3.24509
      vertex 37.629 -157.238 -2.54684
    endloop
  endfacet
  facet normal 0 -1 0
    outer loop
      vertex 24.8 -157.238 0
      vertex 36.9819 -157.238 -5.02025
      vertex 37.4463 -157.238 -3.24509
    endloop
  endfacet
  facet normal 0 -1 0
    outer loop
      vertex 24.8 -157.238 0
      vertex 36.6731 -157.238 -5.69908
      vertex 36.9819 -157.238 -5.02025
    endloop
  endfacet
  facet normal 0 -1 0
    outer loop
      vertex 24.8 -157.238 0
      vertex 35.923 -157.238 -7.34857
      vertex 36.6731 -157.238 -5.69908
    endloop
  endfacet
  facet normal 0 -1 0
    outer loop
      vertex 24.8 -157.238 0
      vertex 35.4822 -157.238 -7.99543
      vertex 35.923 -157.238 -7.34857
    endloop
  endfacet
  facet normal 0 -1 0
    outer loop
      vertex 24.8 -157.238 0
      vertex 34.4816 -157.238 -9.46369
      vertex 35.4822 -157.238 -7.99543
    endloop
  endfacet
  facet normal 0 -1 0
    outer loop
      vertex 24.8 -157.238 0
      vertex 33.9023 -157.238 -10.0609
      vertex 34.4816 -157.238 -9.46369
    endloop
  endfacet
  facet normal 0 -1 0
    outer loop
      vertex 24.8 -157.238 0
      vertex 32.6977 -157.238 -11.3028
      vertex 33.9023 -157.238 -10.0609
    endloop
  endfacet
  facet normal 0 -1 0
    outer loop
      vertex 24.8 -157.238 0
      vertex 31.9757 -157.238 -11.8269
      vertex 32.6977 -157.238 -11.3028
    endloop
  endfacet
  facet normal 0 -1 0
    outer loop
      vertex 24.8 -157.238 0
      vertex 30.6214 -157.238 -12.8101
      vertex 31.9757 -157.238 -11.8269
    endloop
  endfacet
  facet normal 0 -1 0
    outer loop
      vertex 24.8 -157.238 0
      vertex 29.7574 -157.238 -13.2322
      vertex 30.6214 -157.238 -12.8101
    endloop
  endfacet
  facet normal 0 -1 0
    outer loop
      vertex 24.8 -157.238 0
      vertex 28.312 -157.238 -13.9385
      vertex 29.7574 -157.238 -13.2322
    endloop
  endfacet
  facet normal 0 -1 0
    outer loop
      vertex 24.8 -157.238 0
      vertex 27.3143 -157.238 -14.2258
      vertex 28.312 -157.238 -13.9385
    endloop
  endfacet
  facet normal 0 -1 0
    outer loop
      vertex 24.8 -157.238 0
      vertex 25.8364 -157.238 -14.6513
      vertex 27.3143 -157.238 -14.2258
    endloop
  endfacet
  facet normal -0 -1 0
    outer loop
      vertex 25.8364 -157.238 -14.6513
      vertex 24.8 -157.238 0
      vertex 24.8 -157.238 -14.761
    endloop
  endfacet
  facet normal 0.0938007 -0.0686172 -0.993224
    outer loop
      vertex 24.8 -152.41 -15.6811
      vertex 25.2247 -150.091 -15.8012
      vertex 26.0663 -152.29 -15.5698
    endloop
  endfacet
  facet normal 0.09378 -0.0686135 -0.993226
    outer loop
      vertex 25.2247 -150.091 -15.8012
      vertex 24.8 -152.41 -15.6811
      vertex 24.8 -150.091 -15.8413
    endloop
  endfacet
  facet normal 0.0936836 -0.0686629 -0.993231
    outer loop
      vertex 25.7601 -150.091 -15.7507
      vertex 26.0663 -152.29 -15.5698
      vertex 25.2247 -150.091 -15.8012
    endloop
  endfacet
  facet normal 0.103418 -0.186203 -0.977053
    outer loop
      vertex 24.8 -152.41 -15.6811
      vertex 25.8364 -157.238 -14.6513
      vertex 24.8 -157.238 -14.761
    endloop
  endfacet
  facet normal 0.10352 -0.18618 -0.977047
    outer loop
      vertex 25.8364 -157.238 -14.6513
      vertex 24.8 -152.41 -15.6811
      vertex 26.0663 -152.29 -15.5698
    endloop
  endfacet
  facet normal 0.263418 -0.042595 -0.963741
    outer loop
      vertex 26.0663 -152.29 -15.5698
      vertex 28.0141 -150.091 -15.1346
      vertex 28.7164 -152.04 -14.8565
    endloop
  endfacet
  facet normal 0.263425 -0.042601 -0.963739
    outer loop
      vertex 28.0141 -150.091 -15.1346
      vertex 26.0663 -152.29 -15.5698
      vertex 25.7601 -150.091 -15.7507
    endloop
  endfacet
  facet normal 0.263323 -0.0426329 -0.963765
    outer loop
      vertex 28.4727 -150.091 -15.0093
      vertex 28.7164 -152.04 -14.8565
      vertex 28.0141 -150.091 -15.1346
    endloop
  endfacet
  facet normal 0.271745 -0.187835 -0.94386
    outer loop
      vertex 26.0663 -152.29 -15.5698
      vertex 27.3143 -157.238 -14.2258
      vertex 25.8364 -157.238 -14.6513
    endloop
  endfacet
  facet normal 0.271792 -0.187835 -0.943847
    outer loop
      vertex 27.3143 -157.238 -14.2258
      vertex 28.7164 -152.04 -14.8565
      vertex 28.312 -157.238 -13.9385
    endloop
  endfacet
  facet normal 0.271767 -0.187829 -0.943855
    outer loop
      vertex 28.7164 -152.04 -14.8565
      vertex 27.3143 -157.238 -14.2258
      vertex 26.0663 -152.29 -15.5698
    endloop
  endfacet
  facet normal 0.425419 -0.0176578 -0.904824
    outer loop
      vertex 28.7164 -152.04 -14.8565
      vertex 30.6343 -150.091 -13.9928
      vertex 31.2031 -151.806 -13.6919
    endloop
  endfacet
  facet normal 0.425482 -0.0177334 -0.904793
    outer loop
      vertex 30.6343 -150.091 -13.9928
      vertex 28.7164 -152.04 -14.8565
      vertex 28.4727 -150.091 -15.0093
    endloop
  endfacet
  facet normal 0.425419 -0.017658 -0.904824
    outer loop
      vertex 31.0114 -150.091 -13.8155
      vertex 31.2031 -151.806 -13.6919
      vertex 30.6343 -150.091 -13.9928
    endloop
  endfacet
  facet normal 0.431098 -0.189344 -0.882215
    outer loop
      vertex 28.7164 -152.04 -14.8565
      vertex 29.7574 -157.238 -13.2322
      vertex 28.312 -157.238 -13.9385
    endloop
  endfacet
  facet normal 0.431015 -0.189376 -0.882249
    outer loop
      vertex 29.7574 -157.238 -13.2322
      vertex 31.2031 -151.806 -13.6919
      vertex 30.6214 -157.238 -12.8101
    endloop
  endfacet
  facet normal 0.431007 -0.189374 -0.882253
    outer loop
      vertex 31.2031 -151.806 -13.6919
      vertex 29.7574 -157.238 -13.2322
      vertex 28.7164 -152.04 -14.8565
    endloop
  endfacet
  facet normal 0.57494 0.00527539 -0.818179
    outer loop
      vertex 31.2031 -151.806 -13.6919
      vertex 33.0032 -150.091 -12.4159
      vertex 33.4506 -151.594 -12.1112
    endloop
  endfacet
  facet normal 0.574926 0.00529745 -0.818189
    outer loop
      vertex 33.0032 -150.091 -12.4159
      vertex 31.2031 -151.806 -13.6919
      vertex 31.0114 -150.091 -13.8155
    endloop
  endfacet
  facet normal 0.575097 0.00534457 -0.818068
    outer loop
      vertex 33.3005 -150.091 -12.2069
      vertex 33.4506 -151.594 -12.1112
      vertex 33.0032 -150.091 -12.4159
    endloop
  endfacet
  facet normal 0.576706 -0.190713 -0.794379
    outer loop
      vertex 31.2031 -151.806 -13.6919
      vertex 31.9757 -157.238 -11.8269
      vertex 30.6214 -157.238 -12.8101
    endloop
  endfacet
  facet normal 0.576661 -0.19073 -0.794408
    outer loop
      vertex 31.2031 -151.806 -13.6919
      vertex 32.6977 -157.238 -11.3028
      vertex 31.9757 -157.238 -11.8269
    endloop
  endfacet
  facet normal 0.576694 -0.190712 -0.794388
    outer loop
      vertex 32.6977 -157.238 -11.3028
      vertex 31.2031 -151.806 -13.6919
      vertex 33.4506 -151.594 -12.1112
    endloop
  endfacet
  facet normal 0.70725 0.0256184 -0.706499
    outer loop
      vertex 33.4506 -151.594 -12.1112
      vertex 35.048 -150.091 -10.4576
      vertex 35.3906 -151.411 -10.1625
    endloop
  endfacet
  facet normal 0.707238 0.0256443 -0.70651
    outer loop
      vertex 35.048 -150.091 -10.4576
      vertex 33.4506 -151.594 -12.1112
      vertex 33.3005 -150.091 -12.2069
    endloop
  endfacet
  facet normal 0.707034 0.0255129 -0.706719
    outer loop
      vertex 35.2725 -150.091 -10.233
      vertex 35.3906 -151.411 -10.1625
      vertex 35.048 -150.091 -10.4576
    endloop
  endfacet
  facet normal 0.704471 -0.191847 -0.683312
    outer loop
      vertex 33.4506 -151.594 -12.1112
      vertex 33.9023 -157.238 -10.0609
      vertex 32.6977 -157.238 -11.3028
    endloop
  endfacet
  facet normal 0.704455 -0.191843 -0.683329
    outer loop
      vertex 33.9023 -157.238 -10.0609
      vertex 35.3906 -151.411 -10.1625
      vertex 34.4816 -157.238 -9.46369
    endloop
  endfacet
  facet normal 0.704472 -0.191847 -0.683311
    outer loop
      vertex 35.3906 -151.411 -10.1625
      vertex 33.9023 -157.238 -10.0609
      vertex 33.4506 -151.594 -12.1112
    endloop
  endfacet
  facet normal 0.818259 0.0426926 -0.573262
    outer loop
      vertex 35.3906 -151.411 -10.1625
      vertex 36.7084 -150.091 -8.1832
      vertex 36.9644 -151.262 -7.905
    endloop
  endfacet
  facet normal 0.818293 0.0425973 -0.57322
    outer loop
      vertex 36.7084 -150.091 -8.1832
      vertex 35.3906 -151.411 -10.1625
      vertex 35.2725 -150.091 -10.233
    endloop
  endfacet
  facet normal 0.818315 0.042724 -0.57318
    outer loop
      vertex 36.8692 -150.091 -7.95363
      vertex 36.9644 -151.262 -7.905
      vertex 36.7084 -150.091 -8.1832
    endloop
  endfacet
  facet normal 0.810857 -0.192762 -0.552588
    outer loop
      vertex 35.3906 -151.411 -10.1625
      vertex 35.4822 -157.238 -7.99543
      vertex 34.4816 -157.238 -9.46369
    endloop
  endfacet
  facet normal 0.810873 -0.192756 -0.552566
    outer loop
      vertex 35.4822 -157.238 -7.99543
      vertex 36.9644 -151.262 -7.905
      vertex 35.923 -157.238 -7.34857
    endloop
  endfacet
  facet normal 0.810871 -0.192755 -0.55257
    outer loop
      vertex 36.9644 -151.262 -7.905
      vertex 35.4822 -157.238 -7.99543
      vertex 35.3906 -151.411 -10.1625
    endloop
  endfacet
  facet normal 0.904671 0.0559579 -0.422421
    outer loop
      vertex 36.9644 -151.262 -7.905
      vertex 37.9372 -150.091 -5.6665
      vertex 38.1239 -151.153 -5.40734
    endloop
  endfacet
  facet normal 0.904659 0.0560036 -0.42244
    outer loop
      vertex 37.9372 -150.091 -5.6665
      vertex 36.9644 -151.262 -7.905
      vertex 36.8692 -150.091 -7.95363
    endloop
  endfacet
  facet normal 0.904579 0.0558917 -0.422627
    outer loop
      vertex 38.0442 -150.091 -5.43748
      vertex 38.1239 -151.153 -5.40734
      vertex 37.9372 -150.091 -5.6665
    endloop
  endfacet
  facet normal 0.893102 -0.193451 -0.406135
    outer loop
      vertex 36.9644 -151.262 -7.905
      vertex 36.6731 -157.238 -5.69908
      vertex 35.923 -157.238 -7.34857
    endloop
  endfacet
  facet normal 0.893051 -0.193446 -0.406249
    outer loop
      vertex 36.6731 -157.238 -5.69908
      vertex 38.1239 -151.153 -5.40734
      vertex 36.9819 -157.238 -5.02025
    endloop
  endfacet
  facet normal 0.893089 -0.193459 -0.40616
    outer loop
      vertex 38.1239 -151.153 -5.40734
      vertex 36.6731 -157.238 -5.69908
      vertex 36.9644 -151.262 -7.905
    endloop
  endfacet
  facet normal 0.963764 0.0649533 -0.258726
    outer loop
      vertex 38.1239 -151.153 -5.40734
      vertex 38.702 -150.091 -2.98728
      vertex 38.834 -151.086 -2.74537
    endloop
  endfacet
  facet normal 0.963759 0.0649842 -0.258738
    outer loop
      vertex 38.702 -150.091 -2.98728
      vertex 38.1239 -151.153 -5.40734
      vertex 38.0442 -150.091 -5.43748
    endloop
  endfacet
  facet normal 0.963757 0.0649445 -0.258758
    outer loop
      vertex 38.7631 -150.091 -2.75971
      vertex 38.834 -151.086 -2.74537
      vertex 38.702 -150.091 -2.98728
    endloop
  endfacet
  facet normal 0.949079 -0.193913 -0.248289
    outer loop
      vertex 38.1239 -151.153 -5.40734
      vertex 37.4463 -157.238 -3.24509
      vertex 36.9819 -157.238 -5.02025
    endloop
  endfacet
  facet normal 0.949069 -0.193909 -0.248328
    outer loop
      vertex 37.4463 -157.238 -3.24509
      vertex 38.834 -151.086 -2.74537
      vertex 37.629 -157.238 -2.54684
    endloop
  endfacet
  facet normal 0.949078 -0.193914 -0.248293
    outer loop
      vertex 38.834 -151.086 -2.74537
      vertex 37.4463 -157.238 -3.24509
      vertex 38.1239 -151.153 -5.40734
    endloop
  endfacet
  facet normal 0.993763 0.0695989 -0.0871319
    outer loop
      vertex 38.834 -151.086 -2.74537
      vertex 38.985 -150.091 -0.228393
      vertex 39.0731 -151.063 0
    endloop
  endfacet
  facet normal 0.993767 0.0695566 -0.0871155
    outer loop
      vertex 38.985 -150.091 -0.228393
      vertex 38.834 -151.086 -2.74537
      vertex 38.7631 -150.091 -2.75971
    endloop
  endfacet
  facet normal 0.99377 0.0696253 -0.0870228
    outer loop
      vertex 39.005 -150.091 0
      vertex 39.0731 -151.063 0
      vertex 38.985 -150.091 -0.228393
    endloop
  endfacet
  facet normal 0.97741 -0.194142 -0.083539
    outer loop
      vertex 38.834 -151.086 -2.74537
      vertex 37.7861 -157.238 -0.708763
      vertex 37.629 -157.238 -2.54684
    endloop
  endfacet
  facet normal 0.97742 -0.194139 -0.0834325
    outer loop
      vertex 37.7861 -157.238 -0.708763
      vertex 39.0731 -151.063 0
      vertex 37.8466 -157.238 0
    endloop
  endfacet
  facet normal 0.977416 -0.19413 -0.0834988
    outer loop
      vertex 39.0731 -151.063 0
      vertex 37.7861 -157.238 -0.708763
      vertex 38.834 -151.086 -2.74537
    endloop
  endfacet
endsolid OpenSCAD_Model
