solid OpenSCAD_Model
  facet normal -0 0 1
    outer loop
      vertex 24.8 -92.9136 0
      vertex 39.5938 -100.061 0
      vertex 39.691 -92.9136 0
    endloop
  endfacet
  facet normal 0 0 1
    outer loop
      vertex 39.5938 -100.061 0
      vertex 24.8 -92.9136 0
      vertex 24.8 -100.061 0
    endloop
  endfacet
  facet normal -1 0 0
    outer loop
      vertex 24.8 -100.061 -18.3155
      vertex 24.8 -92.9136 0
      vertex 24.8 -92.9136 -18.3548
    endloop
  endfacet
  facet normal -1 -0 0
    outer loop
      vertex 24.8 -92.9136 0
      vertex 24.8 -100.061 -18.3155
      vertex 24.8 -100.061 0
    endloop
  endfacet
  facet normal 0 1 -0
    outer loop
      vertex 39.5126 -92.9136 -2.04997
      vertex 24.8 -92.9136 0
      vertex 39.691 -92.9136 0
    endloop
  endfacet
  facet normal 0 1 -0
    outer loop
      vertex 39.4072 -92.9136 -3.26178
      vertex 24.8 -92.9136 0
      vertex 39.5126 -92.9136 -2.04997
    endloop
  endfacet
  facet normal 0 1 -0
    outer loop
      vertex 38.8736 -92.9136 -5.26468
      vertex 24.8 -92.9136 0
      vertex 39.4072 -92.9136 -3.26178
    endloop
  endfacet
  facet normal 0 1 -0
    outer loop
      vertex 38.5646 -92.9136 -6.42452
      vertex 24.8 -92.9136 0
      vertex 38.8736 -92.9136 -5.26468
    endloop
  endfacet
  facet normal 0 1 -0
    outer loop
      vertex 37.6809 -92.9136 -8.33045
      vertex 24.8 -92.9136 0
      vertex 38.5646 -92.9136 -6.42452
    endloop
  endfacet
  facet normal 0 1 -0
    outer loop
      vertex 37.1887 -92.9136 -9.39218
      vertex 24.8 -92.9136 0
      vertex 37.6809 -92.9136 -8.33045
    endloop
  endfacet
  facet normal 0 1 -0
    outer loop
      vertex 35.9652 -92.9136 -11.1495
      vertex 24.8 -92.9136 0
      vertex 37.1887 -92.9136 -9.39218
    endloop
  endfacet
  facet normal 0 1 -0
    outer loop
      vertex 35.3212 -92.9136 -12.0746
      vertex 24.8 -92.9136 0
      vertex 35.9652 -92.9136 -11.1495
    endloop
  endfacet
  facet normal 0 1 -0
    outer loop
      vertex 33.775 -92.9136 -13.6298
      vertex 24.8 -92.9136 0
      vertex 35.3212 -92.9136 -12.0746
    endloop
  endfacet
  facet normal 0 1 -0
    outer loop
      vertex 33.0188 -92.9136 -14.3904
      vertex 24.8 -92.9136 0
      vertex 33.775 -92.9136 -13.6298
    endloop
  endfacet
  facet normal 0 1 -0
    outer loop
      vertex 31.1755 -92.9136 -15.6887
      vertex 24.8 -92.9136 0
      vertex 33.0188 -92.9136 -14.3904
    endloop
  endfacet
  facet normal 0 1 -0
    outer loop
      vertex 30.3515 -92.9136 -16.2691
      vertex 24.8 -92.9136 0
      vertex 31.1755 -92.9136 -15.6887
    endloop
  endfacet
  facet normal 0 1 -0
    outer loop
      vertex 28.247 -92.9136 -17.2563
      vertex 24.8 -92.9136 0
      vertex 30.3515 -92.9136 -16.2691
    endloop
  endfacet
  facet normal 0 1 -0
    outer loop
      vertex 27.4002 -92.9136 -17.6536
      vertex 24.8 -92.9136 0
      vertex 28.247 -92.9136 -17.2563
    endloop
  endfacet
  facet normal 0 1 -0
    outer loop
      vertex 25.0823 -92.9136 -18.2786
      vertex 24.8 -92.9136 0
      vertex 27.4002 -92.9136 -17.6536
    endloop
  endfacet
  facet normal 0 1 0
    outer loop
      vertex 24.8 -92.9136 0
      vertex 25.0823 -92.9136 -18.2786
      vertex 24.8 -92.9136 -18.3548
    endloop
  endfacet
  facet normal 0 -1 0
    outer loop
      vertex 24.8 -100.061 0
      vertex 39.5773 -100.061 -0.190514
      vertex 39.5938 -100.061 0
    endloop
  endfacet
  facet normal 0 -1 0
    outer loop
      vertex 24.8 -100.061 0
      vertex 39.3103 -100.061 -3.25882
      vertex 39.5773 -100.061 -0.190514
    endloop
  endfacet
  facet normal 0 -1 0
    outer loop
      vertex 24.8 -100.061 0
      vertex 39.2591 -100.061 -3.45111
      vertex 39.3103 -100.061 -3.25882
    endloop
  endfacet
  facet normal 0 -1 0
    outer loop
      vertex 24.8 -100.061 0
      vertex 38.4685 -100.061 -6.41869
      vertex 39.2591 -100.061 -3.45111
    endloop
  endfacet
  facet normal 0 -1 0
    outer loop
      vertex 24.8 -100.061 0
      vertex 38.3757 -100.061 -6.61883
      vertex 38.4685 -100.061 -6.41869
    endloop
  endfacet
  facet normal 0 -1 0
    outer loop
      vertex 24.8 -100.061 0
      vertex 37.0938 -100.061 -9.38365
      vertex 38.3757 -100.061 -6.61883
    endloop
  endfacet
  facet normal 0 -1 0
    outer loop
      vertex 24.8 -100.061 0
      vertex 36.9478 -100.061 -9.59334
      vertex 37.0938 -100.061 -9.38365
    endloop
  endfacet
  facet normal 0 -1 0
    outer loop
      vertex 24.8 -100.061 0
      vertex 35.228 -100.061 -12.0637
      vertex 36.9478 -100.061 -9.59334
    endloop
  endfacet
  facet normal 0 -1 0
    outer loop
      vertex 24.8 -100.061 0
      vertex 35.0146 -100.061 -12.2783
      vertex 35.228 -100.061 -12.0637
    endloop
  endfacet
  facet normal 0 -1 0
    outer loop
      vertex 24.8 -100.061 0
      vertex 32.9278 -100.061 -14.3773
      vertex 35.0146 -100.061 -12.2783
    endloop
  endfacet
  facet normal 0 -1 0
    outer loop
      vertex 24.8 -100.061 0
      vertex 32.6328 -100.061 -14.5851
      vertex 32.9278 -100.061 -14.3773
    endloop
  endfacet
  facet normal 0 -1 0
    outer loop
      vertex 24.8 -100.061 0
      vertex 30.2629 -100.061 -16.2543
      vertex 32.6328 -100.061 -14.5851
    endloop
  endfacet
  facet normal 0 -1 0
    outer loop
      vertex 24.8 -100.061 0
      vertex 29.8753 -100.061 -16.4361
      vertex 30.2629 -100.061 -16.2543
    endloop
  endfacet
  facet normal 0 -1 0
    outer loop
      vertex 24.8 -100.061 0
      vertex 27.3142 -100.061 -17.6376
      vertex 29.8753 -100.061 -16.4361
    endloop
  endfacet
  facet normal 0 -1 0
    outer loop
      vertex 24.8 -100.061 0
      vertex 26.8291 -100.061 -17.7684
      vertex 27.3142 -100.061 -17.6376
    endloop
  endfacet
  facet normal -0 -1 0
    outer loop
      vertex 26.8291 -100.061 -17.7684
      vertex 24.8 -100.061 0
      vertex 24.8 -100.061 -18.3155
    endloop
  endfacet
  facet normal 0.260326 -0.00529745 -0.965506
    outer loop
      vertex 24.8 -100.061 -18.3155
      vertex 25.0823 -92.9136 -18.2786
      vertex 26.8291 -100.061 -17.7684
    endloop
  endfacet
  facet normal 0.260595 -0.00530844 -0.965434
    outer loop
      vertex 25.0823 -92.9136 -18.2786
      vertex 24.8 -100.061 -18.3155
      vertex 24.8 -92.9136 -18.3548
    endloop
  endfacet
  facet normal 0.260334 -0.00529378 -0.965504
    outer loop
      vertex 26.8291 -100.061 -17.7684
      vertex 27.4002 -92.9136 -17.6536
      vertex 27.3142 -100.061 -17.6376
    endloop
  endfacet
  facet normal 0.260339 -0.0052942 -0.965503
    outer loop
      vertex 27.4002 -92.9136 -17.6536
      vertex 26.8291 -100.061 -17.7684
      vertex 25.0823 -92.9136 -18.2786
    endloop
  endfacet
  facet normal 0.424708 -0.00713214 -0.905302
    outer loop
      vertex 27.3142 -100.061 -17.6376
      vertex 28.247 -92.9136 -17.2563
      vertex 29.8753 -100.061 -16.4361
    endloop
  endfacet
  facet normal 0.424741 -0.00713718 -0.905287
    outer loop
      vertex 28.247 -92.9136 -17.2563
      vertex 27.3142 -100.061 -17.6376
      vertex 27.4002 -92.9136 -17.6536
    endloop
  endfacet
  facet normal 0.424638 -0.00713853 -0.905335
    outer loop
      vertex 29.8753 -100.061 -16.4361
      vertex 30.3515 -92.9136 -16.2691
      vertex 30.2629 -100.061 -16.2543
    endloop
  endfacet
  facet normal 0.424675 -0.0071414 -0.905318
    outer loop
      vertex 30.3515 -92.9136 -16.2691
      vertex 29.8753 -100.061 -16.4361
      vertex 28.247 -92.9136 -17.2563
    endloop
  endfacet
  facet normal 0.575815 -0.00882739 -0.817532
    outer loop
      vertex 30.2629 -100.061 -16.2543
      vertex 31.1755 -92.9136 -15.6887
      vertex 32.6328 -100.061 -14.5851
    endloop
  endfacet
  facet normal 0.575835 -0.00883093 -0.817518
    outer loop
      vertex 31.1755 -92.9136 -15.6887
      vertex 30.2629 -100.061 -16.2543
      vertex 30.3515 -92.9136 -16.2691
    endloop
  endfacet
  facet normal 0.575855 -0.00883008 -0.817504
    outer loop
      vertex 32.6328 -100.061 -14.5851
      vertex 33.0188 -92.9136 -14.3904
      vertex 32.9278 -100.061 -14.3773
    endloop
  endfacet
  facet normal 0.575816 -0.0088272 -0.817532
    outer loop
      vertex 33.0188 -92.9136 -14.3904
      vertex 32.6328 -100.061 -14.5851
      vertex 31.1755 -92.9136 -15.6887
    endloop
  endfacet
  facet normal 0.709127 -0.0103228 -0.705005
    outer loop
      vertex 32.9278 -100.061 -14.3773
      vertex 33.775 -92.9136 -13.6298
      vertex 35.0146 -100.061 -12.2783
    endloop
  endfacet
  facet normal 0.709117 -0.0103206 -0.705015
    outer loop
      vertex 33.775 -92.9136 -13.6298
      vertex 32.9278 -100.061 -14.3773
      vertex 33.0188 -92.9136 -14.3904
    endloop
  endfacet
  facet normal 0.709049 -0.0103211 -0.705084
    outer loop
      vertex 35.0146 -100.061 -12.2783
      vertex 35.3212 -92.9136 -12.0746
      vertex 35.228 -100.061 -12.0637
    endloop
  endfacet
  facet normal 0.709118 -0.010326 -0.705014
    outer loop
      vertex 35.3212 -92.9136 -12.0746
      vertex 35.0146 -100.061 -12.2783
      vertex 33.775 -92.9136 -13.6298
    endloop
  endfacet
  facet normal 0.82065 -0.0115688 -0.571315
    outer loop
      vertex 35.228 -100.061 -12.0637
      vertex 35.9652 -92.9136 -11.1495
      vertex 36.9478 -100.061 -9.59334
    endloop
  endfacet
  facet normal 0.820662 -0.0115724 -0.571297
    outer loop
      vertex 35.9652 -92.9136 -11.1495
      vertex 35.228 -100.061 -12.0637
      vertex 35.3212 -92.9136 -12.0746
    endloop
  endfacet
  facet normal 0.820614 -0.0115776 -0.571366
    outer loop
      vertex 36.9478 -100.061 -9.59334
      vertex 37.1887 -92.9136 -9.39218
      vertex 37.0938 -100.061 -9.38365
    endloop
  endfacet
  facet normal 0.820628 -0.0115786 -0.571346
    outer loop
      vertex 37.1887 -92.9136 -9.39218
      vertex 36.9478 -100.061 -9.59334
      vertex 35.9652 -92.9136 -11.1495
    endloop
  endfacet
  facet normal 0.907159 -0.0125382 -0.420601
    outer loop
      vertex 37.0938 -100.061 -9.38365
      vertex 37.6809 -92.9136 -8.33045
      vertex 38.3757 -100.061 -6.61883
    endloop
  endfacet
  facet normal 0.907181 -0.0125471 -0.420554
    outer loop
      vertex 37.6809 -92.9136 -8.33045
      vertex 37.0938 -100.061 -9.38365
      vertex 37.1887 -92.9136 -9.39218
    endloop
  endfacet
  facet normal 0.907149 -0.0125401 -0.420623
    outer loop
      vertex 38.3757 -100.061 -6.61883
      vertex 38.5646 -92.9136 -6.42452
      vertex 38.4685 -100.061 -6.41869
    endloop
  endfacet
  facet normal 0.907155 -0.0125406 -0.42061
    outer loop
      vertex 38.5646 -92.9136 -6.42452
      vertex 38.3757 -100.061 -6.61883
      vertex 37.6809 -92.9136 -8.33045
    endloop
  endfacet
  facet normal 0.966212 -0.0132017 -0.257411
    outer loop
      vertex 38.4685 -100.061 -6.41869
      vertex 38.8736 -92.9136 -5.26468
      vertex 39.2591 -100.061 -3.45111
    endloop
  endfacet
  facet normal 0.966211 -0.0132011 -0.257414
    outer loop
      vertex 38.8736 -92.9136 -5.26468
      vertex 38.4685 -100.061 -6.41869
      vertex 38.5646 -92.9136 -6.42452
    endloop
  endfacet
  facet normal 0.966247 -0.0132063 -0.257277
    outer loop
      vertex 39.2591 -100.061 -3.45111
      vertex 39.4072 -92.9136 -3.26178
      vertex 39.3103 -100.061 -3.25882
    endloop
  endfacet
  facet normal 0.966212 -0.013202 -0.257412
    outer loop
      vertex 39.4072 -92.9136 -3.26178
      vertex 39.2591 -100.061 -3.45111
      vertex 38.8736 -92.9136 -5.26468
    endloop
  endfacet
  facet normal 0.996144 -0.013534 -0.0866832
    outer loop
      vertex 39.3103 -100.061 -3.25882
      vertex 39.5126 -92.9136 -2.04997
      vertex 39.5773 -100.061 -0.190514
    endloop
  endfacet
  facet normal 0.996147 -0.013541 -0.0866422
    outer loop
      vertex 39.5126 -92.9136 -2.04997
      vertex 39.3103 -100.061 -3.25882
      vertex 39.4072 -92.9136 -3.26178
    endloop
  endfacet
  facet normal 0.996179 -0.0135474 -0.0862769
    outer loop
      vertex 39.5773 -100.061 -0.190514
      vertex 39.691 -92.9136 0
      vertex 39.5938 -100.061 0
    endloop
  endfacet
  facet normal 0.996143 -0.0135358 -0.08669
    outer loop
      vertex 39.691 -92.9136 0
      vertex 39.5773 -100.061 -0.190514
      vertex 39.5126 -92.9136 -2.04997
    endloop
  endfacet
endsolid OpenSCAD_Model
