solid OpenSCAD_Model
  facet normal 1 0 0
    outer loop
      vertex 24.8 -114.355 0
      vertex 24.8 -114.743 -17.4418
      vertex 24.8 -114.355 -17.4685
    endloop
  endfacet
  facet normal 1 0 0
    outer loop
      vertex 24.8 -114.355 0
      vertex 24.8 -117.677 -17.5419
      vertex 24.8 -114.743 -17.4418
    endloop
  endfacet
  facet normal 1 -0 0
    outer loop
      vertex 24.8 -121.502 0
      vertex 24.8 -117.677 -17.5419
      vertex 24.8 -114.355 0
    endloop
  endfacet
  facet normal 1 0 0
    outer loop
      vertex 24.8 -117.677 -17.5419
      vertex 24.8 -121.502 0
      vertex 24.8 -121.502 -17.6725
    endloop
  endfacet
  facet normal -0 0 1
    outer loop
      vertex 2.78228 -116.82 0
      vertex 24.8 -121.502 0
      vertex 24.8 -114.355 0
    endloop
  endfacet
  facet normal 0 0 1
    outer loop
      vertex 24.8 -121.502 0
      vertex 2.78228 -116.82 0
      vertex 3.21769 -121.502 0
    endloop
  endfacet
  facet normal -0 0 1
    outer loop
      vertex 2.67138 -114.355 0
      vertex 2.78228 -116.82 0
      vertex 24.8 -114.355 0
    endloop
  endfacet
  facet normal 0 1 0
    outer loop
      vertex 24.8 -114.355 0
      vertex 2.89115 -114.355 -2.51248
      vertex 2.67138 -114.355 0
    endloop
  endfacet
  facet normal 0 1 -0
    outer loop
      vertex 3.60379 -114.355 -5.60117
      vertex 2.89115 -114.355 -2.51248
      vertex 24.8 -114.355 0
    endloop
  endfacet
  facet normal 0 1 0
    outer loop
      vertex 2.89115 -114.355 -2.51248
      vertex 3.60379 -114.355 -5.60117
      vertex 2.94687 -114.355 -3.14948
    endloop
  endfacet
  facet normal 0 1 -0
    outer loop
      vertex 4.84946 -114.355 -8.52705
      vertex 3.60379 -114.355 -5.60117
      vertex 24.8 -114.355 0
    endloop
  endfacet
  facet normal 0 1 0
    outer loop
      vertex 3.60379 -114.355 -5.60117
      vertex 4.84946 -114.355 -8.52705
      vertex 3.76468 -114.355 -6.20164
    endloop
  endfacet
  facet normal 0 1 -0
    outer loop
      vertex 6.5943 -114.355 -11.1953
      vertex 4.84946 -114.355 -8.52705
      vertex 24.8 -114.355 0
    endloop
  endfacet
  facet normal 0 1 0
    outer loop
      vertex 4.84946 -114.355 -8.52705
      vertex 6.5943 -114.355 -11.1953
      vertex 5.09913 -114.355 -9.06228
    endloop
  endfacet
  facet normal 0 1 -0
    outer loop
      vertex 8.78705 -114.355 -13.5179
      vertex 6.5943 -114.355 -11.1953
      vertex 24.8 -114.355 0
    endloop
  endfacet
  facet normal 0 1 0
    outer loop
      vertex 6.5943 -114.355 -11.1953
      vertex 8.78705 -114.355 -13.5179
      vertex 6.90841 -114.355 -11.6434
    endloop
  endfacet
  facet normal 0 1 -0
    outer loop
      vertex 11.3603 -114.355 -15.4171
      vertex 8.78705 -114.355 -13.5179
      vertex 24.8 -114.355 0
    endloop
  endfacet
  facet normal 0 1 0
    outer loop
      vertex 8.78705 -114.355 -13.5179
      vertex 11.3603 -114.355 -15.4171
      vertex 9.13599 -114.355 -13.8661
    endloop
  endfacet
  facet normal 0 1 -0
    outer loop
      vertex 14.2325 -114.355 -16.8287
      vertex 11.3603 -114.355 -15.4171
      vertex 24.8 -114.355 0
    endloop
  endfacet
  facet normal 0 1 0
    outer loop
      vertex 11.3603 -114.355 -15.4171
      vertex 14.2325 -114.355 -16.8287
      vertex 11.7125 -114.355 -15.6628
    endloop
  endfacet
  facet normal 0 1 -0
    outer loop
      vertex 17.3113 -114.355 -17.7049
      vertex 14.2325 -114.355 -16.8287
      vertex 24.8 -114.355 0
    endloop
  endfacet
  facet normal 0 1 0
    outer loop
      vertex 23.6833 -114.355 -17.7531
      vertex 24.8 -114.355 0
      vertex 24.8 -114.355 -17.4685
    endloop
  endfacet
  facet normal 0 1 0
    outer loop
      vertex 14.2325 -114.355 -16.8287
      vertex 17.3113 -114.355 -17.7049
      vertex 14.5582 -114.355 -16.9794
    endloop
  endfacet
  facet normal 0 1 0
    outer loop
      vertex 23.6833 -114.355 -17.7531
      vertex 24.8 -114.355 -17.4685
      vertex 23.8104 -114.355 -17.7412
    endloop
  endfacet
  facet normal 0 1 0
    outer loop
      vertex 24.8 -114.355 0
      vertex 23.6833 -114.355 -17.7531
      vertex 20.4962 -114.355 -18.0163
    endloop
  endfacet
  facet normal 0 1 0
    outer loop
      vertex 24.8 -114.355 0
      vertex 20.4962 -114.355 -18.0163
      vertex 17.3113 -114.355 -17.7049
    endloop
  endfacet
  facet normal 0 1 0
    outer loop
      vertex 17.3113 -114.355 -17.7049
      vertex 20.4962 -114.355 -18.0163
      vertex 17.5853 -114.355 -17.7771
    endloop
  endfacet
  facet normal -0 1 0
    outer loop
      vertex 20.4962 -114.355 -18.0163
      vertex 23.6833 -114.355 -17.7531
      vertex 20.701 -114.355 -18.0331
    endloop
  endfacet
  facet normal 0 -1 0
    outer loop
      vertex 3.32165 -121.502 -1.18321
      vertex 24.8 -121.502 0
      vertex 3.21769 -121.502 0
    endloop
  endfacet
  facet normal 0 -1 0
    outer loop
      vertex 3.80433 -121.502 -4.2873
      vertex 3.32165 -121.502 -1.18321
      vertex 3.49262 -121.502 -3.12897
    endloop
  endfacet
  facet normal 0 -1 0
    outer loop
      vertex 3.32165 -121.502 -1.18321
      vertex 3.80433 -121.502 -4.2873
      vertex 24.8 -121.502 0
    endloop
  endfacet
  facet normal 0 -1 0
    outer loop
      vertex 4.82837 -121.502 -7.27196
      vertex 3.80433 -121.502 -4.2873
      vertex 4.30909 -121.502 -6.16306
    endloop
  endfacet
  facet normal 0 -1 0
    outer loop
      vertex 3.80433 -121.502 -4.2873
      vertex 4.82837 -121.502 -7.27196
      vertex 24.8 -121.502 0
    endloop
  endfacet
  facet normal 0 -1 0
    outer loop
      vertex 6.36819 -121.502 -10.0425
      vertex 4.82837 -121.502 -7.27196
      vertex 5.64239 -121.502 -9.01025
    endloop
  endfacet
  facet normal 0 -1 0
    outer loop
      vertex 4.82837 -121.502 -7.27196
      vertex 6.36819 -121.502 -10.0425
      vertex 24.8 -121.502 0
    endloop
  endfacet
  facet normal 0 -1 0
    outer loop
      vertex 8.38083 -121.502 -12.5091
      vertex 6.36819 -121.502 -10.0425
      vertex 7.45216 -121.502 -11.5841
    endloop
  endfacet
  facet normal 0 -1 0
    outer loop
      vertex 6.36819 -121.502 -10.0425
      vertex 8.38083 -121.502 -12.5091
      vertex 24.8 -121.502 0
    endloop
  endfacet
  facet normal 0 -1 0
    outer loop
      vertex 10.8067 -121.502 -14.5901
      vertex 8.38083 -121.502 -12.5091
      vertex 9.68358 -121.502 -13.8066
    endloop
  endfacet
  facet normal 0 -1 0
    outer loop
      vertex 8.38083 -121.502 -12.5091
      vertex 10.8067 -121.502 -14.5901
      vertex 24.8 -121.502 0
    endloop
  endfacet
  facet normal 0 -1 0
    outer loop
      vertex 13.5714 -121.502 -16.2153
      vertex 10.8067 -121.502 -14.5901
      vertex 12.2691 -121.502 -15.6101
    endloop
  endfacet
  facet normal 0 -1 0
    outer loop
      vertex 10.8067 -121.502 -14.5901
      vertex 13.5714 -121.502 -16.2153
      vertex 24.8 -121.502 0
    endloop
  endfacet
  facet normal 0 -1 0
    outer loop
      vertex 16.5877 -121.502 -17.3294
      vertex 13.5714 -121.502 -16.2153
      vertex 15.1302 -121.502 -16.9398
    endloop
  endfacet
  facet normal 0 -1 0
    outer loop
      vertex 13.5714 -121.502 -16.2153
      vertex 16.5877 -121.502 -17.3294
      vertex 24.8 -121.502 0
    endloop
  endfacet
  facet normal 0 -1 0
    outer loop
      vertex 19.7587 -121.502 -17.8936
      vertex 24.8 -121.502 0
      vertex 16.5877 -121.502 -17.3294
    endloop
  endfacet
  facet normal 0 -1 0
    outer loop
      vertex 19.7587 -121.502 -17.8936
      vertex 16.5877 -121.502 -17.3294
      vertex 18.1802 -121.502 -17.7551
    endloop
  endfacet
  facet normal 0 -1 0
    outer loop
      vertex 24.8 -121.502 0
      vertex 19.7587 -121.502 -17.8936
      vertex 22.9816 -121.502 -17.8881
    endloop
  endfacet
  facet normal 0 -1 0
    outer loop
      vertex 24.8 -121.502 -17.6725
      vertex 22.9816 -121.502 -17.8881
      vertex 24.4736 -121.502 -17.7593
    endloop
  endfacet
  facet normal 0 -1 -0
    outer loop
      vertex 24.8 -121.502 0
      vertex 22.9816 -121.502 -17.8881
      vertex 24.8 -121.502 -17.6725
    endloop
  endfacet
  facet normal 0 -1 0
    outer loop
      vertex 22.9816 -121.502 -17.8881
      vertex 19.7587 -121.502 -17.8936
      vertex 21.3266 -121.502 -18.0311
    endloop
  endfacet
  facet normal 0.0932436 -0.062995 -0.993648
    outer loop
      vertex 20.6878 -115.131 -17.985
      vertex 23.6833 -114.355 -17.7531
      vertex 23.7971 -114.838 -17.7118
    endloop
  endfacet
  facet normal 0.0932895 -0.0631767 -0.993633
    outer loop
      vertex 23.6833 -114.355 -17.7531
      vertex 20.6878 -115.131 -17.985
      vertex 20.701 -114.355 -18.0331
    endloop
  endfacet
  facet normal 0.0930339 -0.0630458 -0.993665
    outer loop
      vertex 23.8104 -114.355 -17.7412
      vertex 23.7971 -114.838 -17.7118
      vertex 23.6833 -114.355 -17.7531
    endloop
  endfacet
  facet normal 0.0860733 0.0158384 -0.996163
    outer loop
      vertex 22.9816 -121.502 -17.8881
      vertex 21.3266 -121.502 -18.0311
      vertex 20.6878 -115.131 -17.985
    endloop
  endfacet
  facet normal 0.0859964 0.0158305 -0.99617
    outer loop
      vertex 22.9816 -121.502 -17.8881
      vertex 23.7971 -114.838 -17.7118
      vertex 24.4736 -121.502 -17.7593
    endloop
  endfacet
  facet normal 0.0860373 0.0158254 -0.996166
    outer loop
      vertex 23.7971 -114.838 -17.7118
      vertex 22.9816 -121.502 -17.8881
      vertex 20.6878 -115.131 -17.985
    endloop
  endfacet
  facet normal 0.265081 -0.0661961 -0.961951
    outer loop
      vertex 24.8 -114.743 -17.4418
      vertex 23.8104 -114.355 -17.7412
      vertex 24.8 -114.355 -17.4685
    endloop
  endfacet
  facet normal 0.265211 -0.0658557 -0.961939
    outer loop
      vertex 23.8104 -114.355 -17.7412
      vertex 24.8 -114.743 -17.4418
      vertex 23.7971 -114.838 -17.7118
    endloop
  endfacet
  facet normal 0.256859 0.032979 -0.965886
    outer loop
      vertex 24.4736 -121.502 -17.7593
      vertex 24.8 -117.677 -17.5419
      vertex 24.8 -121.502 -17.6725
    endloop
  endfacet
  facet normal 0.256955 0.0329694 -0.965861
    outer loop
      vertex 24.8 -117.677 -17.5419
      vertex 24.4736 -121.502 -17.7593
      vertex 23.7971 -114.838 -17.7118
    endloop
  endfacet
  facet normal 0.25691 0.0329529 -0.965873
    outer loop
      vertex 24.8 -114.743 -17.4418
      vertex 24.8 -117.677 -17.5419
      vertex 23.7971 -114.838 -17.7118
    endloop
  endfacet
  facet normal -0.995198 -0.0447661 -0.0870438
    outer loop
      vertex 2.78228 -116.82 0
      vertex 2.89115 -114.355 -2.51248
      vertex 3.05431 -116.795 -3.12306
    endloop
  endfacet
  facet normal -0.995197 -0.0447738 -0.0870512
    outer loop
      vertex 2.89115 -114.355 -2.51248
      vertex 2.78228 -116.82 0
      vertex 2.67138 -114.355 0
    endloop
  endfacet
  facet normal -0.995198 -0.0447639 -0.0870524
    outer loop
      vertex 2.94687 -114.355 -3.14948
      vertex 3.05431 -116.795 -3.12306
      vertex 2.89115 -114.355 -2.51248
    endloop
  endfacet
  facet normal -0.991915 -0.0922447 -0.0871523
    outer loop
      vertex 3.32165 -121.502 -1.18321
      vertex 3.21769 -121.502 0
      vertex 2.78228 -116.82 0
    endloop
  endfacet
  facet normal -0.991913 -0.0922563 -0.0871574
    outer loop
      vertex 3.32165 -121.502 -1.18321
      vertex 3.05431 -116.795 -3.12306
      vertex 3.49262 -121.502 -3.12897
    endloop
  endfacet
  facet normal -0.991916 -0.0922484 -0.087138
    outer loop
      vertex 3.05431 -116.795 -3.12306
      vertex 3.32165 -121.502 -1.18321
      vertex 2.78228 -116.82 0
    endloop
  endfacet
  facet normal -0.964932 -0.045301 -0.258562
    outer loop
      vertex 3.05431 -116.795 -3.12306
      vertex 3.60379 -114.355 -5.60117
      vertex 3.86212 -116.718 -6.15123
    endloop
  endfacet
  facet normal -0.964936 -0.0452884 -0.25855
    outer loop
      vertex 3.60379 -114.355 -5.60117
      vertex 3.05431 -116.795 -3.12306
      vertex 2.94687 -114.355 -3.14948
    endloop
  endfacet
  facet normal -0.964936 -0.0453054 -0.258545
    outer loop
      vertex 3.76468 -114.355 -6.20164
      vertex 3.86212 -116.718 -6.15123
      vertex 3.60379 -114.355 -5.60117
    endloop
  endfacet
  facet normal -0.961794 -0.0892361 -0.258822
    outer loop
      vertex 3.80433 -121.502 -4.2873
      vertex 3.49262 -121.502 -3.12897
      vertex 3.05431 -116.795 -3.12306
    endloop
  endfacet
  facet normal -0.961797 -0.0892209 -0.258816
    outer loop
      vertex 3.80433 -121.502 -4.2873
      vertex 3.86212 -116.718 -6.15123
      vertex 4.30909 -121.502 -6.16306
    endloop
  endfacet
  facet normal -0.96179 -0.0892306 -0.258841
    outer loop
      vertex 3.86212 -116.718 -6.15123
      vertex 3.80433 -121.502 -4.2873
      vertex 3.05431 -116.795 -3.12306
    endloop
  endfacet
  facet normal -0.905275 -0.0463299 -0.422293
    outer loop
      vertex 3.86212 -116.718 -6.15123
      vertex 4.84946 -114.355 -8.52705
      vertex 5.18117 -116.594 -8.9925
    endloop
  endfacet
  facet normal -0.905271 -0.0463384 -0.4223
    outer loop
      vertex 4.84946 -114.355 -8.52705
      vertex 3.86212 -116.718 -6.15123
      vertex 3.76468 -114.355 -6.20164
    endloop
  endfacet
  facet normal -0.905277 -0.0463315 -0.422287
    outer loop
      vertex 5.09913 -114.355 -9.06228
      vertex 5.18117 -116.594 -8.9925
      vertex 4.84946 -114.355 -8.52705
    endloop
  endfacet
  facet normal -0.902476 -0.0832734 -0.422615
    outer loop
      vertex 4.82837 -121.502 -7.27196
      vertex 4.30909 -121.502 -6.16306
      vertex 3.86212 -116.718 -6.15123
    endloop
  endfacet
  facet normal -0.902474 -0.0832798 -0.422617
    outer loop
      vertex 4.82837 -121.502 -7.27196
      vertex 5.18117 -116.594 -8.9925
      vertex 5.64239 -121.502 -9.01025
    endloop
  endfacet
  facet normal -0.902479 -0.0832759 -0.422607
    outer loop
      vertex 5.18117 -116.594 -8.9925
      vertex 4.82837 -121.502 -7.27196
      vertex 3.86212 -116.718 -6.15123
    endloop
  endfacet
  facet normal -0.81792 -0.0478444 -0.573339
    outer loop
      vertex 5.18117 -116.594 -8.9925
      vertex 6.5943 -114.355 -11.1953
      vertex 6.97138 -116.425 -11.5605
    endloop
  endfacet
  facet normal -0.817923 -0.0478382 -0.573335
    outer loop
      vertex 6.5943 -114.355 -11.1953
      vertex 5.18117 -116.594 -8.9925
      vertex 5.09913 -114.355 -9.06228
    endloop
  endfacet
  facet normal -0.817916 -0.0478427 -0.573345
    outer loop
      vertex 6.90841 -114.355 -11.6434
      vertex 6.97138 -116.425 -11.5605
      vertex 6.5943 -114.355 -11.1953
    endloop
  endfacet
  facet normal -0.815751 -0.0745843 -0.573574
    outer loop
      vertex 6.36819 -121.502 -10.0425
      vertex 5.64239 -121.502 -9.01025
      vertex 5.18117 -116.594 -8.9925
    endloop
  endfacet
  facet normal -0.815743 -0.0745827 -0.573586
    outer loop
      vertex 6.36819 -121.502 -10.0425
      vertex 6.97138 -116.425 -11.5605
      vertex 7.45216 -121.502 -11.5841
    endloop
  endfacet
  facet normal -0.815745 -0.0745812 -0.573583
    outer loop
      vertex 6.97138 -116.425 -11.5605
      vertex 6.36819 -121.502 -10.0425
      vertex 5.18117 -116.594 -8.9925
    endloop
  endfacet
  facet normal -0.70546 -0.0497586 -0.707001
    outer loop
      vertex 6.97138 -116.425 -11.5605
      vertex 8.78705 -114.355 -13.5179
      vertex 9.17835 -116.217 -13.7773
    endloop
  endfacet
  facet normal -0.705451 -0.0497745 -0.707009
    outer loop
      vertex 8.78705 -114.355 -13.5179
      vertex 6.97138 -116.425 -11.5605
      vertex 6.90841 -114.355 -11.6434
    endloop
  endfacet
  facet normal -0.705481 -0.0497658 -0.70698
    outer loop
      vertex 9.13599 -114.355 -13.8661
      vertex 9.17835 -116.217 -13.7773
      vertex 8.78705 -114.355 -13.5179
    endloop
  endfacet
  facet normal -0.704285 -0.0634074 -0.70708
    outer loop
      vertex 8.38083 -121.502 -12.5091
      vertex 7.45216 -121.502 -11.5841
      vertex 6.97138 -116.425 -11.5605
    endloop
  endfacet
  facet normal -0.704258 -0.0634047 -0.707107
    outer loop
      vertex 8.38083 -121.502 -12.5091
      vertex 9.17835 -116.217 -13.7773
      vertex 9.68358 -121.502 -13.8066
    endloop
  endfacet
  facet normal -0.70427 -0.0634001 -0.707096
    outer loop
      vertex 9.17835 -116.217 -13.7773
      vertex 8.38083 -121.502 -12.5091
      vertex 6.97138 -116.425 -11.5605
    endloop
  endfacet
  facet normal -0.571233 -0.0519985 -0.819139
    outer loop
      vertex 9.17835 -116.217 -13.7773
      vertex 11.3603 -114.355 -15.4171
      vertex 11.735 -115.976 -15.5755
    endloop
  endfacet
  facet normal -0.571197 -0.0520609 -0.819161
    outer loop
      vertex 11.3603 -114.355 -15.4171
      vertex 9.17835 -116.217 -13.7773
      vertex 9.13599 -114.355 -13.8661
    endloop
  endfacet
  facet normal -0.571374 -0.0520407 -0.819038
    outer loop
      vertex 11.7125 -114.355 -15.6628
      vertex 11.735 -115.976 -15.5755
      vertex 11.3603 -114.355 -15.4171
    endloop
  endfacet
  facet normal -0.571428 -0.0500856 -0.819122
    outer loop
      vertex 10.8067 -121.502 -14.5901
      vertex 9.68358 -121.502 -13.8066
      vertex 9.17835 -116.217 -13.7773
    endloop
  endfacet
  facet normal -0.571358 -0.0500939 -0.819171
    outer loop
      vertex 10.8067 -121.502 -14.5901
      vertex 11.735 -115.976 -15.5755
      vertex 12.2691 -121.502 -15.6101
    endloop
  endfacet
  facet normal -0.571411 -0.0500785 -0.819134
    outer loop
      vertex 11.735 -115.976 -15.5755
      vertex 10.8067 -121.502 -14.5901
      vertex 9.17835 -116.217 -13.7773
    endloop
  endfacet
  facet normal -0.419296 -0.0545759 -0.906208
    outer loop
      vertex 11.735 -115.976 -15.5755
      vertex 14.2325 -114.355 -16.8287
      vertex 14.5637 -115.709 -16.9004
    endloop
  endfacet
  facet normal -0.419269 -0.0546245 -0.906217
    outer loop
      vertex 14.2325 -114.355 -16.8287
      vertex 11.735 -115.976 -15.5755
      vertex 11.7125 -114.355 -15.6628
    endloop
  endfacet
  facet normal -0.419298 -0.0545764 -0.906207
    outer loop
      vertex 14.5582 -114.355 -16.9794
      vertex 14.5637 -115.709 -16.9004
      vertex 14.2325 -114.355 -16.8287
    endloop
  endfacet
  facet normal -0.421174 -0.0350327 -0.906303
    outer loop
      vertex 13.5714 -121.502 -16.2153
      vertex 12.2691 -121.502 -15.6101
      vertex 11.735 -115.976 -15.5755
    endloop
  endfacet
  facet normal -0.421222 -0.0350276 -0.906281
    outer loop
      vertex 13.5714 -121.502 -16.2153
      vertex 14.5637 -115.709 -16.9004
      vertex 15.1302 -121.502 -16.9398
    endloop
  endfacet
  facet normal -0.421183 -0.0350363 -0.906299
    outer loop
      vertex 14.5637 -115.709 -16.9004
      vertex 13.5714 -121.502 -16.2153
      vertex 11.735 -115.976 -15.5755
    endloop
  endfacet
  facet normal -0.254403 -0.0573577 -0.965396
    outer loop
      vertex 14.5637 -115.709 -16.9004
      vertex 17.3113 -114.355 -17.7049
      vertex 17.5785 -115.424 -17.7118
    endloop
  endfacet
  facet normal -0.254402 -0.05736 -0.965396
    outer loop
      vertex 17.3113 -114.355 -17.7049
      vertex 14.5637 -115.709 -16.9004
      vertex 14.5582 -114.355 -16.9794
    endloop
  endfacet
  facet normal -0.254387 -0.0573534 -0.9654
    outer loop
      vertex 17.5853 -114.355 -17.7771
      vertex 17.5785 -115.424 -17.7118
      vertex 17.3113 -114.355 -17.7049
    endloop
  endfacet
  facet normal -0.258195 -0.0186795 -0.965912
    outer loop
      vertex 16.5877 -121.502 -17.3294
      vertex 15.1302 -121.502 -16.9398
      vertex 14.5637 -115.709 -16.9004
    endloop
  endfacet
  facet normal -0.258203 -0.0186799 -0.96591
    outer loop
      vertex 16.5877 -121.502 -17.3294
      vertex 17.5785 -115.424 -17.7118
      vertex 18.1802 -121.502 -17.7551
    endloop
  endfacet
  facet normal -0.258198 -0.0186807 -0.965911
    outer loop
      vertex 17.5785 -115.424 -17.7118
      vertex 16.5877 -121.502 -17.3294
      vertex 14.5637 -115.709 -16.9004
    endloop
  endfacet
  facet normal -0.0817282 -0.0603057 -0.994828
    outer loop
      vertex 17.5785 -115.424 -17.7118
      vertex 20.4962 -114.355 -18.0163
      vertex 20.6878 -115.131 -17.985
    endloop
  endfacet
  facet normal -0.0817491 -0.0602493 -0.99483
    outer loop
      vertex 20.4962 -114.355 -18.0163
      vertex 17.5785 -115.424 -17.7118
      vertex 17.5853 -114.355 -17.7771
    endloop
  endfacet
  facet normal -0.081608 -0.0602765 -0.99484
    outer loop
      vertex 20.701 -114.355 -18.0331
      vertex 20.6878 -115.131 -17.985
      vertex 20.4962 -114.355 -18.0163
    endloop
  endfacet
  facet normal -0.0874056 -0.00155606 -0.996172
    outer loop
      vertex 19.7587 -121.502 -17.8936
      vertex 18.1802 -121.502 -17.7551
      vertex 17.5785 -115.424 -17.7118
    endloop
  endfacet
  facet normal -0.0873615 -0.00155122 -0.996175
    outer loop
      vertex 19.7587 -121.502 -17.8936
      vertex 20.6878 -115.131 -17.985
      vertex 21.3266 -121.502 -18.0311
    endloop
  endfacet
  facet normal -0.0873833 -0.00154801 -0.996174
    outer loop
      vertex 20.6878 -115.131 -17.985
      vertex 19.7587 -121.502 -17.8936
      vertex 17.5785 -115.424 -17.7118
    endloop
  endfacet
endsolid OpenSCAD_Model
