solid OpenSCAD_Model
  facet normal 0 0 -1
    outer loop
      vertex 24.8 -171.533 0
      vertex 33.9835 -171.964 0
      vertex 32.4984 -173.379 0
    endloop
  endfacet
  facet normal 0 0 -1
    outer loop
      vertex 24.8 -171.533 0
      vertex 30.9802 -175.581 0
      vertex 29.982 -176.425 0
    endloop
  endfacet
  facet normal 0 0 -1
    outer loop
      vertex 30.9802 -175.581 0
      vertex 24.8 -171.533 0
      vertex 31.6231 -174.579 0
    endloop
  endfacet
  facet normal -0 0 -1
    outer loop
      vertex 29.982 -176.425 0
      vertex 28.2593 -177.792 0
      vertex 24.8 -171.533 0
    endloop
  endfacet
  facet normal 0 0 -1
    outer loop
      vertex 31.6231 -174.579 0
      vertex 24.8 -171.533 0
      vertex 32.4984 -173.379 0
    endloop
  endfacet
  facet normal -0 0 -1
    outer loop
      vertex 28.2593 -177.792 0
      vertex 26.8453 -178.31 0
      vertex 24.8 -171.533 0
    endloop
  endfacet
  facet normal 0 0 -1
    outer loop
      vertex 24.8 -171.533 0
      vertex 26.8453 -178.31 0
      vertex 24.9082 -178.621 0
    endloop
  endfacet
  facet normal 0 0 -1
    outer loop
      vertex 24.8 -171.533 0
      vertex 24.9082 -178.621 0
      vertex 24.9081 -178.621 0
    endloop
  endfacet
  facet normal 0 0 -1
    outer loop
      vertex 24.8 -171.533 0
      vertex 24.9081 -178.621 0
      vertex 24.8 -178.624 0
    endloop
  endfacet
  facet normal 0 0 -1
    outer loop
      vertex 33.9835 -171.964 0
      vertex 24.8 -171.533 0
      vertex 34.3686 -171.533 0
    endloop
  endfacet
  facet normal -1 0 0
    outer loop
      vertex 24.8 -171.533 0
      vertex 24.8 -172.803 9.28615
      vertex 24.8 -171.533 10.974
    endloop
  endfacet
  facet normal -1 0 0
    outer loop
      vertex 24.8 -172.922 9.1171
      vertex 24.8 -172.803 9.28615
      vertex 24.8 -171.533 0
    endloop
  endfacet
  facet normal -1 0 0
    outer loop
      vertex 24.8 -172.803 9.28615
      vertex 24.8 -172.922 9.1171
      vertex 24.8 -172.831 9.24937
    endloop
  endfacet
  facet normal -1 0 0
    outer loop
      vertex 24.8 -171.533 0
      vertex 24.8 -174.105 7.34662
      vertex 24.8 -172.922 9.1171
    endloop
  endfacet
  facet normal -1 0 0
    outer loop
      vertex 24.8 -171.533 0
      vertex 24.8 -174.544 6.91854
      vertex 24.8 -174.105 7.34662
    endloop
  endfacet
  facet normal -1 0 0
    outer loop
      vertex 24.8 -171.533 0
      vertex 24.8 -175.223 6.25808
      vertex 24.8 -174.544 6.91854
    endloop
  endfacet
  facet normal -1 0 0
    outer loop
      vertex 24.8 -171.533 0
      vertex 24.8 -175.698 5.97976
      vertex 24.8 -175.223 6.25808
    endloop
  endfacet
  facet normal -1 0 0
    outer loop
      vertex 24.8 -176.493 5.35831
      vertex 24.8 -175.698 5.97976
      vertex 24.8 -171.533 0
    endloop
  endfacet
  facet normal -1 0 0
    outer loop
      vertex 24.8 -175.698 5.97976
      vertex 24.8 -176.493 5.35831
      vertex 24.8 -176.164 5.70664
    endloop
  endfacet
  facet normal -1 0 0
    outer loop
      vertex 24.8 -171.533 0
      vertex 24.8 -176.914 4.91314
      vertex 24.8 -176.493 5.35831
    endloop
  endfacet
  facet normal -1 0 0
    outer loop
      vertex 24.8 -171.533 0
      vertex 24.8 -177.354 4.3416
      vertex 24.8 -176.914 4.91314
    endloop
  endfacet
  facet normal -1 0 0
    outer loop
      vertex 24.8 -178.242 2.89534
      vertex 24.8 -177.354 4.3416
      vertex 24.8 -171.533 0
    endloop
  endfacet
  facet normal -1 0 0
    outer loop
      vertex 24.8 -177.354 4.3416
      vertex 24.8 -178.242 2.89534
      vertex 24.8 -178.118 3.34799
    endloop
  endfacet
  facet normal -1 0 0
    outer loop
      vertex 24.8 -171.533 0
      vertex 24.8 -178.503 1.94945
      vertex 24.8 -178.242 2.89534
    endloop
  endfacet
  facet normal -1 0 0
    outer loop
      vertex 24.8 -171.533 0
      vertex 24.8 -178.592 0.594863
      vertex 24.8 -178.503 1.94945
    endloop
  endfacet
  facet normal -1 0 0
    outer loop
      vertex 24.8 -171.533 0
      vertex 24.8 -178.611 0.293147
      vertex 24.8 -178.592 0.594863
    endloop
  endfacet
  facet normal -1 0 0
    outer loop
      vertex 24.8 -171.533 0
      vertex 24.8 -178.617 0.185848
      vertex 24.8 -178.611 0.293147
    endloop
  endfacet
  facet normal -1 0 0
    outer loop
      vertex 24.8 -171.533 0
      vertex 24.8 -178.62 0.128223
      vertex 24.8 -178.617 0.185848
    endloop
  endfacet
  facet normal -1 0 0
    outer loop
      vertex 24.8 -171.533 0
      vertex 24.8 -178.622 0.0904192
      vertex 24.8 -178.62 0.128223
    endloop
  endfacet
  facet normal -1 0 0
    outer loop
      vertex 24.8 -171.533 0
      vertex 24.8 -178.623 0.062272
      vertex 24.8 -178.622 0.0904192
    endloop
  endfacet
  facet normal -1 0 0
    outer loop
      vertex 24.8 -171.533 0
      vertex 24.8 -178.624 0.0392797
      vertex 24.8 -178.623 0.062272
    endloop
  endfacet
  facet normal -1 0 0
    outer loop
      vertex 24.8 -171.533 0
      vertex 24.8 -178.624 0.0190359
      vertex 24.8 -178.624 0.0392797
    endloop
  endfacet
  facet normal -1 0 0
    outer loop
      vertex 24.8 -178.624 0
      vertex 24.8 -178.624 0.0190359
      vertex 24.8 -171.533 0
    endloop
  endfacet
  facet normal 0 0 0
    outer loop
      vertex 24.8 -178.624 0.0190359
      vertex 24.8 -178.624 0
      vertex 24.8 -178.624 1.90735e-06
    endloop
  endfacet
  facet normal 0 1 0
    outer loop
      vertex 24.8 -171.533 0
      vertex 25.9483 -171.533 10.7292
      vertex 26.2011 -171.533 10.6753
    endloop
  endfacet
  facet normal 0 1 0
    outer loop
      vertex 24.8 -171.533 0
      vertex 26.2011 -171.533 10.6753
      vertex 27.5948 -171.533 10.129
    endloop
  endfacet
  facet normal 0 1 0
    outer loop
      vertex 24.8 -171.533 0
      vertex 27.5948 -171.533 10.129
      vertex 28.0043 -171.533 9.96845
    endloop
  endfacet
  facet normal 0 1 0
    outer loop
      vertex 24.8 -171.533 0
      vertex 28.0043 -171.533 9.96845
      vertex 29.1074 -171.533 9.31457
    endloop
  endfacet
  facet normal 0 1 0
    outer loop
      vertex 24.8 -171.533 0
      vertex 29.1074 -171.533 9.31457
      vertex 29.6274 -171.533 9.00633
    endloop
  endfacet
  facet normal 0 1 0
    outer loop
      vertex 24.8 -171.533 0
      vertex 29.6274 -171.533 9.00633
      vertex 30.4645 -171.533 8.30798
    endloop
  endfacet
  facet normal 0 1 0
    outer loop
      vertex 24.8 -171.533 0
      vertex 30.4645 -171.533 8.30798
      vertex 31.0405 -171.533 7.82744
    endloop
  endfacet
  facet normal 0 1 0
    outer loop
      vertex 24.8 -171.533 0
      vertex 31.0405 -171.533 7.82744
      vertex 31.6468 -171.533 7.13066
    endloop
  endfacet
  facet normal 0 1 0
    outer loop
      vertex 24.8 -171.533 0
      vertex 31.6468 -171.533 7.13066
      vertex 32.2213 -171.533 6.47047
    endloop
  endfacet
  facet normal 0 1 0
    outer loop
      vertex 24.8 -171.533 0
      vertex 32.2213 -171.533 6.47047
      vertex 32.6364 -171.533 5.80379
    endloop
  endfacet
  facet normal 0 1 0
    outer loop
      vertex 24.8 -171.533 0
      vertex 32.6364 -171.533 5.80379
      vertex 33.1535 -171.533 4.97322
    endloop
  endfacet
  facet normal 0 1 0
    outer loop
      vertex 24.8 -171.533 0
      vertex 33.1535 -171.533 4.97322
      vertex 33.416 -171.533 4.3488
    endloop
  endfacet
  facet normal 0 1 0
    outer loop
      vertex 24.8 -171.533 0
      vertex 33.416 -171.533 4.3488
      vertex 33.8264 -171.533 3.37231
    endloop
  endfacet
  facet normal 0 1 0
    outer loop
      vertex 24.8 -171.533 0
      vertex 33.8264 -171.533 3.37231
      vertex 33.9686 -171.533 2.78811
    endloop
  endfacet
  facet normal 0 1 0
    outer loop
      vertex 24.8 -171.533 0
      vertex 33.9686 -171.533 2.78811
      vertex 34.2327 -171.533 1.7031
    endloop
  endfacet
  facet normal 0 1 0
    outer loop
      vertex 24.8 -171.533 0
      vertex 34.2327 -171.533 1.7031
      vertex 34.2772 -171.533 1.14611
    endloop
  endfacet
  facet normal 0 1 0
    outer loop
      vertex 24.8 -171.533 0
      vertex 34.2772 -171.533 1.14611
      vertex 34.3686 -171.533 1.90735e-06
    endloop
  endfacet
  facet normal 0 1 0
    outer loop
      vertex 24.8 -171.533 0
      vertex 34.3686 -171.533 1.90735e-06
      vertex 34.3686 -171.533 0
    endloop
  endfacet
  facet normal 0 1 0
    outer loop
      vertex 25.9483 -171.533 10.7292
      vertex 24.8 -171.533 0
      vertex 24.8 -171.533 10.974
    endloop
  endfacet
  facet normal 0 -1 0
    outer loop
      vertex 24.9081 -178.621 0
      vertex 24.9082 -178.621 0
      vertex 24.9081 -178.621 1.90735e-06
    endloop
  endfacet
  facet normal 0.745698 -0.666284 0
    outer loop
      vertex 33.9835 -171.964 1.90735e-06
      vertex 34.3686 -171.533 0
      vertex 34.3686 -171.533 1.90735e-06
    endloop
  endfacet
  facet normal 0.745698 -0.666284 0
    outer loop
      vertex 34.3686 -171.533 0
      vertex 33.9835 -171.964 1.90735e-06
      vertex 33.9835 -171.964 0
    endloop
  endfacet
  facet normal 0.689813 -0.723987 0
    outer loop
      vertex 32.4984 -173.379 0
      vertex 33.9835 -171.964 1.90735e-06
      vertex 32.4984 -173.379 1.90735e-06
    endloop
  endfacet
  facet normal 0.689813 -0.723987 0
    outer loop
      vertex 33.9835 -171.964 1.90735e-06
      vertex 32.4984 -173.379 0
      vertex 33.9835 -171.964 0
    endloop
  endfacet
  facet normal 0.807911 -0.589304 0
    outer loop
      vertex 32.4984 -173.379 0
      vertex 31.6231 -174.579 1.90735e-06
      vertex 31.6231 -174.579 0
    endloop
  endfacet
  facet normal 0.807911 -0.589304 0
    outer loop
      vertex 32.4984 -173.379 0
      vertex 32.4984 -173.379 1.90735e-06
      vertex 31.6231 -174.579 1.90735e-06
    endloop
  endfacet
  facet normal 0.841653 -0.540019 0
    outer loop
      vertex 30.9802 -175.581 1.90735e-06
      vertex 31.6231 -174.579 0
      vertex 31.6231 -174.579 1.90735e-06
    endloop
  endfacet
  facet normal 0.841653 -0.540019 0
    outer loop
      vertex 31.6231 -174.579 0
      vertex 30.9802 -175.581 1.90735e-06
      vertex 30.9802 -175.581 0
    endloop
  endfacet
  facet normal 0.645661 -0.763624 0
    outer loop
      vertex 29.982 -176.425 0
      vertex 30.9802 -175.581 1.90735e-06
      vertex 29.982 -176.425 1.90735e-06
    endloop
  endfacet
  facet normal 0.645661 -0.763624 0
    outer loop
      vertex 30.9802 -175.581 1.90735e-06
      vertex 29.982 -176.425 0
      vertex 30.9802 -175.581 0
    endloop
  endfacet
  facet normal 0.621596 -0.783338 0
    outer loop
      vertex 29.982 -176.425 0
      vertex 28.2593 -177.792 1.90735e-06
      vertex 28.2593 -177.792 0
    endloop
  endfacet
  facet normal 0.621596 -0.783338 0
    outer loop
      vertex 28.2593 -177.792 1.90735e-06
      vertex 29.982 -176.425 0
      vertex 29.982 -176.425 1.90735e-06
    endloop
  endfacet
  facet normal 0.343981 -0.938976 0
    outer loop
      vertex 26.8453 -178.31 0
      vertex 28.2593 -177.792 1.90735e-06
      vertex 26.8453 -178.31 1.90735e-06
    endloop
  endfacet
  facet normal 0.343981 -0.938976 0
    outer loop
      vertex 28.2593 -177.792 1.90735e-06
      vertex 26.8453 -178.31 0
      vertex 28.2593 -177.792 0
    endloop
  endfacet
  facet normal 0.0189369 -0.117957 0.992838
    outer loop
      vertex 24.9082 -178.621 0
      vertex 26.8453 -178.31 1.90735e-06
      vertex 24.9081 -178.621 1.90735e-06
    endloop
  endfacet
  facet normal 0.158519 -0.987356 0
    outer loop
      vertex 26.8453 -178.31 1.90735e-06
      vertex 24.9082 -178.621 0
      vertex 26.8453 -178.31 0
    endloop
  endfacet
  facet normal 0.744383 -0.665109 0.0593632
    outer loop
      vertex 34.2772 -171.533 1.14611
      vertex 33.9835 -171.964 1.90735e-06
      vertex 34.3686 -171.533 1.90735e-06
    endloop
  endfacet
  facet normal 0.744832 -0.664632 0.059069
    outer loop
      vertex 33.9835 -171.964 1.90735e-06
      vertex 34.2772 -171.533 1.14611
      vertex 33.8436 -171.978 1.60655
    endloop
  endfacet
  facet normal 0.745037 -0.664362 0.0595238
    outer loop
      vertex 34.2772 -171.533 1.14611
      vertex 34.2327 -171.533 1.7031
      vertex 33.8436 -171.978 1.60655
    endloop
  endfacet
  facet normal 0.688793 -0.722917 0.0543589
    outer loop
      vertex 32.4984 -173.379 1.90735e-06
      vertex 33.9835 -171.964 1.90735e-06
      vertex 32.3868 -173.389 1.28112
    endloop
  endfacet
  facet normal 0.688513 -0.723236 0.053654
    outer loop
      vertex 33.9835 -171.964 1.90735e-06
      vertex 33.8436 -171.978 1.60655
      vertex 32.3868 -173.389 1.28112
    endloop
  endfacet
  facet normal 0.806185 -0.588045 0.0653296
    outer loop
      vertex 31.6231 -174.579 1.90735e-06
      vertex 32.4984 -173.379 1.90735e-06
      vertex 31.5278 -174.588 1.09502
    endloop
  endfacet
  facet normal 0.806302 -0.587849 0.0656496
    outer loop
      vertex 32.4984 -173.379 1.90735e-06
      vertex 32.3868 -173.389 1.28112
      vertex 31.5278 -174.588 1.09502
    endloop
  endfacet
  facet normal 0.839659 -0.538739 0.0687976
    outer loop
      vertex 30.9802 -175.581 1.90735e-06
      vertex 31.6231 -174.579 1.90735e-06
      vertex 30.8933 -175.589 0.99795
    endloop
  endfacet
  facet normal 0.8396 -0.538851 0.068642
    outer loop
      vertex 31.6231 -174.579 1.90735e-06
      vertex 31.5278 -174.588 1.09502
      vertex 30.8933 -175.589 0.99795
    endloop
  endfacet
  facet normal 0.644857 -0.762673 0.0498902
    outer loop
      vertex 29.982 -176.425 1.90735e-06
      vertex 30.9802 -175.581 1.90735e-06
      vertex 29.9074 -176.432 0.857237
    endloop
  endfacet
  facet normal 0.644927 -0.762604 0.050046
    outer loop
      vertex 30.9802 -175.581 1.90735e-06
      vertex 30.8933 -175.589 0.99795
      vertex 29.9074 -176.432 0.857237
    endloop
  endfacet
  facet normal 0.620898 -0.782458 0.0473802
    outer loop
      vertex 28.2593 -177.792 1.90735e-06
      vertex 29.982 -176.425 1.90735e-06
      vertex 28.2085 -177.797 0.583143
    endloop
  endfacet
  facet normal 0.620945 -0.782405 0.0476481
    outer loop
      vertex 29.982 -176.425 1.90735e-06
      vertex 29.9074 -176.432 0.857237
      vertex 28.2085 -177.797 0.583143
    endloop
  endfacet
  facet normal 0.343879 -0.938696 0.024417
    outer loop
      vertex 26.8453 -178.31 1.90735e-06
      vertex 28.2593 -177.792 1.90735e-06
      vertex 26.8157 -178.312 0.339987
    endloop
  endfacet
  facet normal 0.343367 -0.938947 0.0218615
    outer loop
      vertex 28.2593 -177.792 1.90735e-06
      vertex 28.2085 -177.797 0.583143
      vertex 26.8157 -178.312 0.339987
    endloop
  endfacet
  facet normal 0.158506 -0.987326 0.00799192
    outer loop
      vertex 26.8453 -178.31 1.90735e-06
      vertex 26.8157 -178.312 0.339987
      vertex 24.9081 -178.621 1.90735e-06
    endloop
  endfacet
  facet normal 0.721888 -0.66933 0.175713
    outer loop
      vertex 33.9686 -171.533 2.78811
      vertex 33.8436 -171.978 1.60655
      vertex 34.2327 -171.533 1.7031
    endloop
  endfacet
  facet normal 0.721721 -0.66949 0.175791
    outer loop
      vertex 33.8436 -171.978 1.60655
      vertex 33.9686 -171.533 2.78811
      vertex 33.428 -172.017 3.16429
    endloop
  endfacet
  facet normal 0.721692 -0.669554 0.175667
    outer loop
      vertex 33.9686 -171.533 2.78811
      vertex 33.8264 -171.533 3.37231
      vertex 33.428 -172.017 3.16429
    endloop
  endfacet
  facet normal 0.668193 -0.726679 0.159545
    outer loop
      vertex 32.3868 -173.389 1.28112
      vertex 33.8436 -171.978 1.60655
      vertex 32.0554 -173.421 2.52331
    endloop
  endfacet
  facet normal 0.668303 -0.726454 0.160113
    outer loop
      vertex 33.8436 -171.978 1.60655
      vertex 33.428 -172.017 3.16429
      vertex 32.0554 -173.421 2.52331
    endloop
  endfacet
  facet normal 0.782986 -0.591049 0.193889
    outer loop
      vertex 31.5278 -174.588 1.09502
      vertex 32.3868 -173.389 1.28112
      vertex 31.2445 -174.615 2.15677
    endloop
  endfacet
  facet normal 0.782946 -0.591182 0.19365
    outer loop
      vertex 32.3868 -173.389 1.28112
      vertex 32.0554 -173.421 2.52331
      vertex 31.2445 -174.615 2.15677
    endloop
  endfacet
  facet normal 0.817741 -0.538141 0.204216
    outer loop
      vertex 30.8933 -175.589 0.99795
      vertex 31.5278 -174.588 1.09502
      vertex 30.6352 -175.614 1.96558
    endloop
  endfacet
  facet normal 0.817802 -0.537929 0.20453
    outer loop
      vertex 31.5278 -174.588 1.09502
      vertex 31.2445 -174.615 2.15677
      vertex 30.6352 -175.614 1.96558
    endloop
  endfacet
  facet normal 0.630264 -0.761962 0.148934
    outer loop
      vertex 29.9074 -176.432 0.857237
      vertex 30.8933 -175.589 0.99795
      vertex 29.6856 -176.453 1.68842
    endloop
  endfacet
  facet normal 0.630114 -0.762194 0.148381
    outer loop
      vertex 30.8933 -175.589 0.99795
      vertex 30.6352 -175.614 1.96558
      vertex 29.6856 -176.453 1.68842
    endloop
  endfacet
  facet normal 0.605927 -0.782704 0.142222
    outer loop
      vertex 28.2085 -177.797 0.583143
      vertex 29.9074 -176.432 0.857237
      vertex 28.0577 -177.811 1.14857
    endloop
  endfacet
  facet normal 0.605922 -0.782764 0.141913
    outer loop
      vertex 29.9074 -176.432 0.857237
      vertex 29.6856 -176.453 1.68842
      vertex 28.0577 -177.811 1.14857
    endloop
  endfacet
  facet normal 0.336249 -0.939595 0.0640064
    outer loop
      vertex 26.8157 -178.312 0.339987
      vertex 28.2085 -177.797 0.583143
      vertex 26.7278 -178.321 0.669641
    endloop
  endfacet
  facet normal 0.336322 -0.9394 0.066438
    outer loop
      vertex 28.2085 -177.797 0.583143
      vertex 28.0577 -177.811 1.14857
      vertex 26.7278 -178.321 0.669641
    endloop
  endfacet
  facet normal 0.15728 -0.987441 0.0149791
    outer loop
      vertex 26.8157 -178.312 0.339987
      vertex 26.7278 -178.321 0.669641
      vertex 24.9081 -178.621 1.90735e-06
    endloop
  endfacet
  facet normal 0.676647 -0.679177 0.284372
    outer loop
      vertex 33.428 -172.017 3.16429
      vertex 33.416 -171.533 4.3488
      vertex 32.7495 -172.081 4.62589
    endloop
  endfacet
  facet normal 0.676634 -0.679188 0.284376
    outer loop
      vertex 33.416 -171.533 4.3488
      vertex 33.428 -172.017 3.16429
      vertex 33.8264 -171.533 3.37231
    endloop
  endfacet
  facet normal 0.676651 -0.679138 0.284457
    outer loop
      vertex 33.416 -171.533 4.3488
      vertex 33.1535 -171.533 4.97322
      vertex 32.7495 -172.081 4.62589
    endloop
  endfacet
  facet normal 0.628594 -0.733096 0.259694
    outer loop
      vertex 32.0554 -173.421 2.52331
      vertex 33.428 -172.017 3.16429
      vertex 31.5144 -173.472 3.68884
    endloop
  endfacet
  facet normal 0.628594 -0.733092 0.259704
    outer loop
      vertex 33.428 -172.017 3.16429
      vertex 32.7495 -172.081 4.62589
      vertex 31.5144 -173.472 3.68884
    endloop
  endfacet
  facet normal 0.73684 -0.597518 0.316291
    outer loop
      vertex 31.2445 -174.615 2.15677
      vertex 32.0554 -173.421 2.52331
      vertex 30.782 -174.658 3.15299
    endloop
  endfacet
  facet normal 0.736843 -0.59774 0.315863
    outer loop
      vertex 32.0554 -173.421 2.52331
      vertex 31.5144 -173.472 3.68884
      vertex 30.782 -174.658 3.15299
    endloop
  endfacet
  facet normal 0.774028 -0.53645 0.336305
    outer loop
      vertex 30.6352 -175.614 1.96558
      vertex 31.2445 -174.615 2.15677
      vertex 30.2137 -175.653 2.87348
    endloop
  endfacet
  facet normal 0.774025 -0.536529 0.336187
    outer loop
      vertex 31.2445 -174.615 2.15677
      vertex 30.782 -174.658 3.15299
      vertex 30.2137 -175.653 2.87348
    endloop
  endfacet
  facet normal 0.600593 -0.760899 0.245604
    outer loop
      vertex 29.6856 -176.453 1.68842
      vertex 30.6352 -175.614 1.96558
      vertex 29.3236 -176.487 2.46831
    endloop
  endfacet
  facet normal 0.600657 -0.760661 0.246185
    outer loop
      vertex 30.6352 -175.614 1.96558
      vertex 30.2137 -175.653 2.87348
      vertex 29.3236 -176.487 2.46831
    endloop
  endfacet
  facet normal 0.576054 -0.783358 0.233478
    outer loop
      vertex 28.0577 -177.811 1.14857
      vertex 29.6856 -176.453 1.68842
      vertex 27.8114 -177.834 1.67909
    endloop
  endfacet
  facet normal 0.576087 -0.783402 0.233248
    outer loop
      vertex 29.6856 -176.453 1.68842
      vertex 29.3236 -176.487 2.46831
      vertex 27.8114 -177.834 1.67909
    endloop
  endfacet
  facet normal 0.321247 -0.940631 0.109609
    outer loop
      vertex 26.7278 -178.321 0.669641
      vertex 28.0577 -177.811 1.14857
      vertex 26.5842 -178.334 0.978949
    endloop
  endfacet
  facet normal 0.321411 -0.940711 0.108435
    outer loop
      vertex 28.0577 -177.811 1.14857
      vertex 27.8114 -177.834 1.67909
      vertex 26.5842 -178.334 0.978949
    endloop
  endfacet
  facet normal 0.152157 -0.987927 0.0291186
    outer loop
      vertex 26.7278 -178.321 0.669641
      vertex 26.5842 -178.334 0.978949
      vertex 24.9081 -178.621 1.90735e-06
    endloop
  endfacet
  facet normal 0.612158 -0.692834 0.381109
    outer loop
      vertex 32.7495 -172.081 4.62589
      vertex 32.6364 -171.533 5.80379
      vertex 31.8286 -172.168 5.94693
    endloop
  endfacet
  facet normal 0.612145 -0.692843 0.381112
    outer loop
      vertex 32.6364 -171.533 5.80379
      vertex 32.7495 -172.081 4.62589
      vertex 33.1535 -171.533 4.97322
    endloop
  endfacet
  facet normal 0.612152 -0.692817 0.381149
    outer loop
      vertex 32.6364 -171.533 5.80379
      vertex 32.2213 -171.533 6.47047
      vertex 31.8286 -172.168 5.94693
    endloop
  endfacet
  facet normal 0.571195 -0.74266 0.349561
    outer loop
      vertex 31.5144 -173.472 3.68884
      vertex 32.7495 -172.081 4.62589
      vertex 30.78 -173.541 4.74228
    endloop
  endfacet
  facet normal 0.571243 -0.742746 0.3493
    outer loop
      vertex 32.7495 -172.081 4.62589
      vertex 31.8286 -172.168 5.94693
      vertex 30.78 -173.541 4.74228
    endloop
  endfacet
  facet normal 0.670095 -0.6069 0.427369
    outer loop
      vertex 30.782 -174.658 3.15299
      vertex 31.5144 -173.472 3.68884
      vertex 30.1543 -174.717 4.05341
    endloop
  endfacet
  facet normal 0.67009 -0.606885 0.427399
    outer loop
      vertex 31.5144 -173.472 3.68884
      vertex 30.78 -173.541 4.74228
      vertex 30.1543 -174.717 4.05341
    endloop
  endfacet
  facet normal 0.709533 -0.534313 0.459426
    outer loop
      vertex 30.2137 -175.653 2.87348
      vertex 30.782 -174.658 3.15299
      vertex 29.6417 -175.707 3.69407
    endloop
  endfacet
  facet normal 0.709507 -0.534191 0.459608
    outer loop
      vertex 30.782 -174.658 3.15299
      vertex 30.1543 -174.717 4.05341
      vertex 29.6417 -175.707 3.69407
    endloop
  endfacet
  facet normal 0.556677 -0.758605 0.338571
    outer loop
      vertex 29.3236 -176.487 2.46831
      vertex 30.2137 -175.653 2.87348
      vertex 28.8322 -176.533 3.1732
    endloop
  endfacet
  facet normal 0.556697 -0.758792 0.338118
    outer loop
      vertex 30.2137 -175.653 2.87348
      vertex 29.6417 -175.707 3.69407
      vertex 28.8322 -176.533 3.1732
    endloop
  endfacet
  facet normal 0.531607 -0.784248 0.319919
    outer loop
      vertex 27.8114 -177.834 1.67909
      vertex 29.3236 -176.487 2.46831
      vertex 27.4771 -177.865 2.1586
    endloop
  endfacet
  facet normal 0.531737 -0.784329 0.319505
    outer loop
      vertex 29.3236 -176.487 2.46831
      vertex 28.8322 -176.533 3.1732
      vertex 27.4771 -177.865 2.1586
    endloop
  endfacet
  facet normal 0.300867 -0.94247 0.1457
    outer loop
      vertex 26.5842 -178.334 0.978949
      vertex 27.8114 -177.834 1.67909
      vertex 26.3893 -178.353 1.25851
    endloop
  endfacet
  facet normal 0.300056 -0.942328 0.148269
    outer loop
      vertex 27.8114 -177.834 1.67909
      vertex 27.4771 -177.865 2.1586
      vertex 26.3893 -178.353 1.25851
    endloop
  endfacet
  facet normal 0.148139 -0.988307 0.0361083
    outer loop
      vertex 26.5842 -178.334 0.978949
      vertex 26.3893 -178.353 1.25851
      vertex 24.9081 -178.621 1.90735e-06
    endloop
  endfacet
  facet normal 0.531344 -0.709837 0.46239
    outer loop
      vertex 31.8286 -172.168 5.94693
      vertex 31.6468 -171.533 7.13066
      vertex 30.6933 -172.275 7.08727
    endloop
  endfacet
  facet normal 0.531356 -0.70983 0.462388
    outer loop
      vertex 31.6468 -171.533 7.13066
      vertex 31.8286 -172.168 5.94693
      vertex 32.2213 -171.533 6.47047
    endloop
  endfacet
  facet normal 0.531355 -0.709851 0.462357
    outer loop
      vertex 31.6468 -171.533 7.13066
      vertex 31.0405 -171.533 7.82744
      vertex 30.6933 -172.275 7.08727
    endloop
  endfacet
  facet normal 0.498813 -0.754765 0.426046
    outer loop
      vertex 30.78 -173.541 4.74228
      vertex 31.8286 -172.168 5.94693
      vertex 29.8747 -173.626 5.65162
    endloop
  endfacet
  facet normal 0.498887 -0.754824 0.425855
    outer loop
      vertex 31.8286 -172.168 5.94693
      vertex 30.6933 -172.275 7.08727
      vertex 29.8747 -173.626 5.65162
    endloop
  endfacet
  facet normal 0.585133 -0.61853 0.524443
    outer loop
      vertex 30.1543 -174.717 4.05341
      vertex 30.78 -173.541 4.74228
      vertex 29.3805 -174.79 4.83066
    endloop
  endfacet
  facet normal 0.585056 -0.618428 0.524649
    outer loop
      vertex 30.78 -173.541 4.74228
      vertex 29.8747 -173.626 5.65162
      vertex 29.3805 -174.79 4.83066
    endloop
  endfacet
  facet normal 0.624967 -0.531223 0.57203
    outer loop
      vertex 29.6417 -175.707 3.69407
      vertex 30.1543 -174.717 4.05341
      vertex 28.9364 -175.774 4.40242
    endloop
  endfacet
  facet normal 0.624898 -0.531073 0.572245
    outer loop
      vertex 30.1543 -174.717 4.05341
      vertex 29.3805 -174.79 4.83066
      vertex 28.9364 -175.774 4.40242
    endloop
  endfacet
  facet normal 0.49847 -0.756021 0.424218
    outer loop
      vertex 28.8322 -176.533 3.1732
      vertex 29.6417 -175.707 3.69407
      vertex 28.2264 -176.591 3.78167
    endloop
  endfacet
  facet normal 0.498365 -0.755802 0.42473
    outer loop
      vertex 29.6417 -175.707 3.69407
      vertex 28.9364 -175.774 4.40242
      vertex 28.2264 -176.591 3.78167
    endloop
  endfacet
  facet normal 0.47406 -0.785421 0.397972
    outer loop
      vertex 27.4771 -177.865 2.1586
      vertex 28.8322 -176.533 3.1732
      vertex 27.065 -177.904 2.57252
    endloop
  endfacet
  facet normal 0.47435 -0.78554 0.39739
    outer loop
      vertex 28.8322 -176.533 3.1732
      vertex 28.2264 -176.591 3.78167
      vertex 27.065 -177.904 2.57252
    endloop
  endfacet
  facet normal 0.271424 -0.944679 0.184147
    outer loop
      vertex 26.3893 -178.353 1.25851
      vertex 27.4771 -177.865 2.1586
      vertex 26.149 -178.375 1.49984
    endloop
  endfacet
  facet normal 0.272421 -0.944769 0.182206
    outer loop
      vertex 27.4771 -177.865 2.1586
      vertex 27.065 -177.904 2.57252
      vertex 26.149 -178.375 1.49984
    endloop
  endfacet
  facet normal 0.138462 -0.989219 0.0476922
    outer loop
      vertex 26.3893 -178.353 1.25851
      vertex 26.149 -178.375 1.49984
      vertex 24.9081 -178.621 1.90735e-06
    endloop
  endfacet
  facet normal 0.438297 -0.729261 0.525427
    outer loop
      vertex 30.6933 -172.275 7.08727
      vertex 30.4645 -171.533 8.30798
      vertex 29.3781 -172.399 8.01227
    endloop
  endfacet
  facet normal 0.438344 -0.729237 0.525421
    outer loop
      vertex 30.4645 -171.533 8.30798
      vertex 30.6933 -172.275 7.08727
      vertex 31.0405 -171.533 7.82744
    endloop
  endfacet
  facet normal 0.438313 -0.729272 0.525399
    outer loop
      vertex 30.4645 -171.533 8.30798
      vertex 29.6274 -171.533 9.00633
      vertex 29.3781 -172.399 8.01227
    endloop
  endfacet
  facet normal 0.414918 -0.768691 0.486783
    outer loop
      vertex 29.8747 -173.626 5.65162
      vertex 30.6933 -172.275 7.08727
      vertex 28.8259 -173.725 6.38925
    endloop
  endfacet
  facet normal 0.414879 -0.768671 0.486847
    outer loop
      vertex 30.6933 -172.275 7.08727
      vertex 29.3781 -172.399 8.01227
      vertex 28.8259 -173.725 6.38925
    endloop
  endfacet
  facet normal 0.484986 -0.632131 0.604317
    outer loop
      vertex 29.3805 -174.79 4.83066
      vertex 29.8747 -173.626 5.65162
      vertex 28.4841 -174.875 5.46114
    endloop
  endfacet
  facet normal 0.484846 -0.632011 0.604554
    outer loop
      vertex 29.8747 -173.626 5.65162
      vertex 28.8259 -173.725 6.38925
      vertex 28.4841 -174.875 5.46114
    endloop
  endfacet
  facet normal 0.521524 -0.527306 0.670792
    outer loop
      vertex 28.9364 -175.774 4.40242
      vertex 29.3805 -174.79 4.83066
      vertex 28.1195 -175.851 4.97701
    endloop
  endfacet
  facet normal 0.521649 -0.527487 0.670552
    outer loop
      vertex 29.3805 -174.79 4.83066
      vertex 28.4841 -174.875 5.46114
      vertex 28.1195 -175.851 4.97701
    endloop
  endfacet
  facet normal 0.425003 -0.752078 0.503738
    outer loop
      vertex 28.2264 -176.591 3.78167
      vertex 28.9364 -175.774 4.40242
      vertex 27.5246 -176.657 4.27524
    endloop
  endfacet
  facet normal 0.425077 -0.752168 0.50354
    outer loop
      vertex 28.9364 -175.774 4.40242
      vertex 28.1195 -175.851 4.97701
      vertex 27.5246 -176.657 4.27524
    endloop
  endfacet
  facet normal 0.402968 -0.786867 0.467394
    outer loop
      vertex 27.065 -177.904 2.57252
      vertex 28.2264 -176.591 3.78167
      vertex 26.5877 -177.949 2.90827
    endloop
  endfacet
  facet normal 0.402838 -0.786826 0.467575
    outer loop
      vertex 28.2264 -176.591 3.78167
      vertex 27.5246 -176.657 4.27524
      vertex 26.5877 -177.949 2.90827
    endloop
  endfacet
  facet normal 0.240257 -0.947526 0.210883
    outer loop
      vertex 26.149 -178.375 1.49984
      vertex 27.065 -177.904 2.57252
      vertex 25.8707 -178.402 1.69559
    endloop
  endfacet
  facet normal 0.238923 -0.947465 0.212664
    outer loop
      vertex 27.065 -177.904 2.57252
      vertex 26.5877 -177.949 2.90827
      vertex 25.8707 -178.402 1.69559
    endloop
  endfacet
  facet normal 0.132878 -0.989746 0.0523981
    outer loop
      vertex 26.149 -178.375 1.49984
      vertex 25.8707 -178.402 1.69559
      vertex 24.9081 -178.621 1.90735e-06
    endloop
  endfacet
  facet normal 0.337071 -0.750156 0.568901
    outer loop
      vertex 29.3781 -172.399 8.01227
      vertex 29.1074 -171.533 9.31457
      vertex 27.9229 -172.536 8.69382
    endloop
  endfacet
  facet normal 0.337222 -0.750095 0.568892
    outer loop
      vertex 29.1074 -171.533 9.31457
      vertex 29.3781 -172.399 8.01227
      vertex 29.6274 -171.533 9.00633
    endloop
  endfacet
  facet normal 0.337162 -0.750197 0.568794
    outer loop
      vertex 29.1074 -171.533 9.31457
      vertex 28.0043 -171.533 9.96845
      vertex 27.9229 -172.536 8.69382
    endloop
  endfacet
  facet normal 0.322785 -0.783798 0.530538
    outer loop
      vertex 28.8259 -173.725 6.38925
      vertex 29.3781 -172.399 8.01227
      vertex 27.6655 -173.835 6.93274
    endloop
  endfacet
  facet normal 0.322441 -0.783678 0.530925
    outer loop
      vertex 29.3781 -172.399 8.01227
      vertex 27.9229 -172.536 8.69382
      vertex 27.6655 -173.835 6.93274
    endloop
  endfacet
  facet normal 0.372749 -0.647343 0.664834
    outer loop
      vertex 28.4841 -174.875 5.46114
      vertex 28.8259 -173.725 6.38925
      vertex 27.4923 -174.969 5.92568
    endloop
  endfacet
  facet normal 0.372749 -0.647344 0.664834
    outer loop
      vertex 28.8259 -173.725 6.38925
      vertex 27.6655 -173.835 6.93274
      vertex 27.4923 -174.969 5.92568
    endloop
  endfacet
  facet normal 0.40137 -0.522935 0.751958
    outer loop
      vertex 28.1195 -175.851 4.97701
      vertex 28.4841 -174.875 5.46114
      vertex 27.2156 -175.936 5.40037
    endloop
  endfacet
  facet normal 0.401632 -0.523228 0.751614
    outer loop
      vertex 28.4841 -174.875 5.46114
      vertex 27.4923 -174.969 5.92568
      vertex 27.2156 -175.936 5.40037
    endloop
  endfacet
  facet normal 0.338121 -0.747449 0.571834
    outer loop
      vertex 27.5246 -176.657 4.27524
      vertex 28.1195 -175.851 4.97701
      vertex 26.7482 -176.73 4.6389
    endloop
  endfacet
  facet normal 0.338119 -0.747448 0.571837
    outer loop
      vertex 28.1195 -175.851 4.97701
      vertex 27.2156 -175.936 5.40037
      vertex 26.7482 -176.73 4.6389
    endloop
  endfacet
  facet normal 0.320624 -0.788233 0.525252
    outer loop
      vertex 26.5877 -177.949 2.90827
      vertex 27.5246 -176.657 4.27524
      vertex 26.0595 -177.999 3.15566
    endloop
  endfacet
  facet normal 0.320286 -0.788145 0.525589
    outer loop
      vertex 27.5246 -176.657 4.27524
      vertex 26.7482 -176.73 4.6389
      vertex 26.0595 -177.999 3.15566
    endloop
  endfacet
  facet normal 0.200398 -0.950703 0.236652
    outer loop
      vertex 25.8707 -178.402 1.69559
      vertex 26.5877 -177.949 2.90827
      vertex 25.5628 -178.431 1.83982
    endloop
  endfacet
  facet normal 0.2007 -0.950711 0.236365
    outer loop
      vertex 26.5877 -177.949 2.90827
      vertex 26.0595 -177.999 3.15566
      vertex 25.5628 -178.431 1.83982
    endloop
  endfacet
  facet normal 0.121078 -0.990874 0.0592429
    outer loop
      vertex 25.8707 -178.402 1.69559
      vertex 25.5628 -178.431 1.83982
      vertex 24.9081 -178.621 1.90735e-06
    endloop
  endfacet
  facet normal 0.232056 -0.771587 0.592287
    outer loop
      vertex 27.9229 -172.536 8.69382
      vertex 27.5948 -171.533 10.129
      vertex 26.3721 -172.682 9.11122
    endloop
  endfacet
  facet normal 0.232215 -0.771537 0.592289
    outer loop
      vertex 27.5948 -171.533 10.129
      vertex 27.9229 -172.536 8.69382
      vertex 28.0043 -171.533 9.96845
    endloop
  endfacet
  facet normal 0.232137 -0.771614 0.59222
    outer loop
      vertex 26.3721 -172.682 9.11122
      vertex 27.5948 -171.533 10.129
      vertex 26.2011 -171.533 10.6753
    endloop
  endfacet
  facet normal 0.224882 -0.799558 0.556898
    outer loop
      vertex 27.6655 -173.835 6.93274
      vertex 27.9229 -172.536 8.69382
      vertex 26.4288 -173.951 7.26559
    endloop
  endfacet
  facet normal 0.22512 -0.799621 0.556711
    outer loop
      vertex 26.4288 -173.951 7.26559
      vertex 27.9229 -172.536 8.69382
      vertex 26.3721 -172.682 9.11122
    endloop
  endfacet
  facet normal 0.251704 -0.663849 0.704237
    outer loop
      vertex 27.4923 -174.969 5.92568
      vertex 27.6655 -173.835 6.93274
      vertex 26.4352 -175.068 6.21018
    endloop
  endfacet
  facet normal 0.251793 -0.663894 0.704163
    outer loop
      vertex 26.4352 -175.068 6.21018
      vertex 27.6655 -173.835 6.93274
      vertex 26.4288 -173.951 7.26559
    endloop
  endfacet
  facet normal 0.26758 -0.51794 0.812489
    outer loop
      vertex 27.2156 -175.936 5.40037
      vertex 27.4923 -174.969 5.92568
      vertex 26.2522 -176.027 5.65964
    endloop
  endfacet
  facet normal 0.26723 -0.517612 0.812814
    outer loop
      vertex 27.4923 -174.969 5.92568
      vertex 26.4352 -175.068 6.21018
      vertex 26.2522 -176.027 5.65964
    endloop
  endfacet
  facet normal 0.238633 -0.741671 0.626879
    outer loop
      vertex 26.7482 -176.73 4.6389
      vertex 27.2156 -175.936 5.40037
      vertex 25.9207 -176.808 4.86162
    endloop
  endfacet
  facet normal 0.238735 -0.741745 0.626754
    outer loop
      vertex 27.2156 -175.936 5.40037
      vertex 26.2522 -176.027 5.65964
      vertex 25.9207 -176.808 4.86162
    endloop
  endfacet
  facet normal 0.227706 -0.789594 0.569816
    outer loop
      vertex 26.0595 -177.999 3.15566
      vertex 26.7482 -176.73 4.6389
      vertex 25.4966 -178.052 3.30716
    endloop
  endfacet
  facet normal 0.227779 -0.789611 0.569764
    outer loop
      vertex 26.7482 -176.73 4.6389
      vertex 25.9207 -176.808 4.86162
      vertex 25.4966 -178.052 3.30716
    endloop
  endfacet
  facet normal 0.158366 -0.954279 0.253517
    outer loop
      vertex 25.5628 -178.431 1.83982
      vertex 26.0595 -177.999 3.15566
      vertex 25.2346 -178.462 1.92815
    endloop
  endfacet
  facet normal 0.158126 -0.954277 0.253678
    outer loop
      vertex 26.0595 -177.999 3.15566
      vertex 25.4966 -178.052 3.30716
      vertex 25.2346 -178.462 1.92815
    endloop
  endfacet
  facet normal 0.110655 -0.991857 0.0630534
    outer loop
      vertex 25.5628 -178.431 1.83982
      vertex 25.2346 -178.462 1.92815
      vertex 24.9081 -178.621 1.90735e-06
    endloop
  endfacet
  facet normal 0.127352 -0.792637 0.596245
    outer loop
      vertex 26.3721 -172.682 9.11122
      vertex 25.9483 -171.533 10.7292
      vertex 24.8 -172.803 9.28615
    endloop
  endfacet
  facet normal 0.12759 -0.789167 0.60078
    outer loop
      vertex 26.3721 -172.682 9.11122
      vertex 24.8 -172.803 9.28615
      vertex 24.8 -172.831 9.24937
    endloop
  endfacet
  facet normal 0.127122 -0.792691 0.596222
    outer loop
      vertex 25.9483 -171.533 10.7292
      vertex 26.3721 -172.682 9.11122
      vertex 26.2011 -171.533 10.6753
    endloop
  endfacet
  facet normal 0.127136 -0.79258 0.596366
    outer loop
      vertex 25.9483 -171.533 10.7292
      vertex 24.8 -171.533 10.974
      vertex 24.8 -172.803 9.28615
    endloop
  endfacet
  facet normal 0.126979 -0.815519 0.564628
    outer loop
      vertex 26.4288 -173.951 7.26559
      vertex 26.3721 -172.682 9.11122
      vertex 25.1533 -174.072 7.37767
    endloop
  endfacet
  facet normal 0.126858 -0.817199 0.562222
    outer loop
      vertex 24.8 -172.922 9.1171
      vertex 26.3721 -172.682 9.11122
      vertex 24.8 -172.831 9.24937
    endloop
  endfacet
  facet normal 0.126599 -0.815439 0.56483
    outer loop
      vertex 26.3721 -172.682 9.11122
      vertex 24.8 -172.922 9.1171
      vertex 25.1533 -174.072 7.37767
    endloop
  endfacet
  facet normal 0.1277 -0.680774 0.721276
    outer loop
      vertex 26.4352 -175.068 6.21018
      vertex 26.4288 -173.951 7.26559
      vertex 25.345 -175.171 6.30598
    endloop
  endfacet
  facet normal 0.127958 -0.680885 0.721125
    outer loop
      vertex 25.345 -175.171 6.30598
      vertex 26.4288 -173.951 7.26559
      vertex 25.1533 -174.072 7.37767
    endloop
  endfacet
  facet normal 0.123137 -0.511649 0.850325
    outer loop
      vertex 26.2522 -176.027 5.65964
      vertex 26.4352 -175.068 6.21018
      vertex 25.2587 -176.121 5.74695
    endloop
  endfacet
  facet normal 0.123059 -0.511584 0.850375
    outer loop
      vertex 26.4352 -175.068 6.21018
      vertex 25.345 -175.171 6.30598
      vertex 25.2587 -176.121 5.74695
    endloop
  endfacet
  facet normal 0.128263 -0.734895 0.665941
    outer loop
      vertex 25.9207 -176.808 4.86162
      vertex 26.2522 -176.027 5.65964
      vertex 25.0672 -176.889 4.93662
    endloop
  endfacet
  facet normal 0.12806 -0.734767 0.666121
    outer loop
      vertex 26.2522 -176.027 5.65964
      vertex 25.2587 -176.121 5.74695
      vertex 25.0672 -176.889 4.93662
    endloop
  endfacet
  facet normal 0.127512 -0.791071 0.598288
    outer loop
      vertex 25.4966 -178.052 3.30716
      vertex 25.9207 -176.808 4.86162
      vertex 24.916 -178.107 3.35818
    endloop
  endfacet
  facet normal 0.127646 -0.791098 0.598222
    outer loop
      vertex 25.9207 -176.808 4.86162
      vertex 25.0672 -176.889 4.93662
      vertex 24.916 -178.107 3.35818
    endloop
  endfacet
  facet normal 0.110935 -0.958176 0.263803
    outer loop
      vertex 25.2346 -178.462 1.92815
      vertex 25.4966 -178.052 3.30716
      vertex 24.8961 -178.493 1.9579
    endloop
  endfacet
  facet normal 0.113837 -0.958189 0.262516
    outer loop
      vertex 25.4966 -178.052 3.30716
      vertex 24.916 -178.107 3.35818
      vertex 24.8961 -178.493 1.9579
    endloop
  endfacet
  facet normal 0.096712 -0.993153 0.0655214
    outer loop
      vertex 24.9081 -178.621 1.90735e-06
      vertex 25.2346 -178.462 1.92815
      vertex 24.8961 -178.493 1.9579
    endloop
  endfacet
  facet normal 0.0288247 -0.831123 0.55534
    outer loop
      vertex 25.1533 -174.072 7.37767
      vertex 24.8 -172.922 9.1171
      vertex 24.8 -174.105 7.34662
    endloop
  endfacet
  facet normal 0.0018754 -0.697986 0.716109
    outer loop
      vertex 24.8 -174.544 6.91854
      vertex 25.345 -175.171 6.30598
      vertex 25.1533 -174.072 7.37767
    endloop
  endfacet
  facet normal 0.00352511 -0.697248 0.716821
    outer loop
      vertex 25.345 -175.171 6.30598
      vertex 24.8 -174.544 6.91854
      vertex 24.8 -175.223 6.25808
    endloop
  endfacet
  facet normal 0.00228816 -0.698144 0.715953
    outer loop
      vertex 25.1533 -174.072 7.37767
      vertex 24.8 -174.105 7.34662
      vertex 24.8 -174.544 6.91854
    endloop
  endfacet
  facet normal -0.0279465 -0.505074 0.862623
    outer loop
      vertex 24.8 -175.698 5.97976
      vertex 25.2587 -176.121 5.74695
      vertex 25.345 -175.171 6.30598
    endloop
  endfacet
  facet normal -0.0284041 -0.505443 0.862392
    outer loop
      vertex 25.2587 -176.121 5.74695
      vertex 24.8 -175.698 5.97976
      vertex 24.8 -176.164 5.70664
    endloop
  endfacet
  facet normal -0.0275853 -0.505354 0.862471
    outer loop
      vertex 25.345 -175.171 6.30598
      vertex 24.8 -175.223 6.25808
      vertex 24.8 -175.698 5.97976
    endloop
  endfacet
  facet normal 0.00725302 -0.726646 0.686974
    outer loop
      vertex 24.8 -176.493 5.35831
      vertex 25.0672 -176.889 4.93662
      vertex 25.2587 -176.121 5.74695
    endloop
  endfacet
  facet normal 0.0075993 -0.726534 0.687088
    outer loop
      vertex 25.0672 -176.889 4.93662
      vertex 24.8 -176.493 5.35831
      vertex 24.8 -176.914 4.91314
    endloop
  endfacet
  facet normal 0.00780843 -0.726968 0.686627
    outer loop
      vertex 25.2587 -176.121 5.74695
      vertex 24.8 -176.164 5.70664
      vertex 24.8 -176.493 5.35831
    endloop
  endfacet
  facet normal 0.0220715 -0.792527 0.609437
    outer loop
      vertex 24.8 -177.354 4.3416
      vertex 24.916 -178.107 3.35818
      vertex 25.0672 -176.889 4.93662
    endloop
  endfacet
  facet normal 0.021623 -0.79256 0.60941
    outer loop
      vertex 24.916 -178.107 3.35818
      vertex 24.8 -177.354 4.3416
      vertex 24.8 -178.118 3.34799
    endloop
  endfacet
  facet normal 0.0205287 -0.79222 0.60989
    outer loop
      vertex 25.0672 -176.889 4.93662
      vertex 24.8 -176.914 4.91314
      vertex 24.8 -177.354 4.3416
    endloop
  endfacet
  facet normal 0.0651958 -0.962229 0.264321
    outer loop
      vertex 24.8 -178.242 2.89534
      vertex 24.8961 -178.493 1.9579
      vertex 24.916 -178.107 3.35818
    endloop
  endfacet
  facet normal 0.0766947 -0.961136 0.265207
    outer loop
      vertex 24.8961 -178.493 1.9579
      vertex 24.8 -178.242 2.89534
      vertex 24.8 -178.503 1.94945
    endloop
  endfacet
  facet normal 0.0680903 -0.962227 0.263595
    outer loop
      vertex 24.916 -178.107 3.35818
      vertex 24.8 -178.118 3.34799
      vertex 24.8 -178.242 2.89534
    endloop
  endfacet
  facet normal 0.0976014 -0.993084 0.0652483
    outer loop
      vertex 24.8 -178.592 0.594863
      vertex 24.8961 -178.493 1.9579
      vertex 24.8 -178.503 1.94945
    endloop
  endfacet
  facet normal 0.0940565 -0.993408 0.0655218
    outer loop
      vertex 24.8961 -178.493 1.9579
      vertex 24.8 -178.592 0.594863
      vertex 24.9081 -178.621 1.90735e-06
    endloop
  endfacet
  facet normal 0.0778714 -0.994992 0.0626578
    outer loop
      vertex 24.9081 -178.621 1.90735e-06
      vertex 24.8 -178.592 0.594863
      vertex 24.8 -178.611 0.293147
    endloop
  endfacet
  facet normal 0.0589378 -0.996705 0.0557342
    outer loop
      vertex 24.9081 -178.621 1.90735e-06
      vertex 24.8 -178.611 0.293147
      vertex 24.8 -178.617 0.185848
    endloop
  endfacet
  facet normal 0.0523574 -0.997278 0.051919
    outer loop
      vertex 24.9081 -178.621 1.90735e-06
      vertex 24.8 -178.617 0.185848
      vertex 24.8 -178.62 0.128223
    endloop
  endfacet
  facet normal 0.0533506 -0.997181 0.0527556
    outer loop
      vertex 24.9081 -178.621 1.90735e-06
      vertex 24.8 -178.62 0.128223
      vertex 24.8 -178.622 0.0904192
    endloop
  endfacet
  facet normal 0.0389126 -0.998613 0.0354782
    outer loop
      vertex 24.9081 -178.621 1.90735e-06
      vertex 24.8 -178.622 0.0904192
      vertex 24.8 -178.623 0.062272
    endloop
  endfacet
  facet normal 0.0434728 -0.998111 0.0434107
    outer loop
      vertex 24.9081 -178.621 1.90735e-06
      vertex 24.8 -178.623 0.062272
      vertex 24.8 -178.624 0.0392797
    endloop
  endfacet
  facet normal 0.0277414 -0.999615 0
    outer loop
      vertex 24.9081 -178.621 1.90735e-06
      vertex 24.8 -178.624 0.0392797
      vertex 24.8 -178.624 0.0190359
    endloop
  endfacet
  facet normal 0.0277414 -0.999615 0
    outer loop
      vertex 24.9081 -178.621 1.90735e-06
      vertex 24.8 -178.624 0.0190359
      vertex 24.8 -178.624 1.90735e-06
    endloop
  endfacet
  facet normal 0.0277414 -0.999615 0
    outer loop
      vertex 24.9081 -178.621 0
      vertex 24.8 -178.624 1.90735e-06
      vertex 24.8 -178.624 0
    endloop
  endfacet
  facet normal 0.0277414 -0.999615 0
    outer loop
      vertex 24.8 -178.624 1.90735e-06
      vertex 24.9081 -178.621 0
      vertex 24.9081 -178.621 1.90735e-06
    endloop
  endfacet
endsolid OpenSCAD_Model
