solid OpenSCAD_Model
  facet normal 1 0 0
    outer loop
      vertex 24.8 -164.386 0
      vertex 24.8 -165.392 -13.0895
      vertex 24.8 -164.386 -13.2644
    endloop
  endfacet
  facet normal 1 0 0
    outer loop
      vertex 24.8 -164.386 0
      vertex 24.8 -167.085 -12.7952
      vertex 24.8 -165.392 -13.0895
    endloop
  endfacet
  facet normal 1 0 0
    outer loop
      vertex 24.8 -164.386 0
      vertex 24.8 -168.262 -12.4025
      vertex 24.8 -167.085 -12.7952
    endloop
  endfacet
  facet normal 1 0 0
    outer loop
      vertex 24.8 -164.386 0
      vertex 24.8 -169.901 -11.8558
      vertex 24.8 -168.262 -12.4025
    endloop
  endfacet
  facet normal 1 0 0
    outer loop
      vertex 24.8 -164.386 0
      vertex 24.8 -170.42 -11.6052
      vertex 24.8 -169.901 -11.8558
    endloop
  endfacet
  facet normal 1 -0 0
    outer loop
      vertex 24.8 -171.533 -10.974
      vertex 24.8 -170.42 -11.6052
      vertex 24.8 -164.386 0
    endloop
  endfacet
  facet normal 1 0 0
    outer loop
      vertex 24.8 -171.533 -10.974
      vertex 24.8 -164.386 0
      vertex 24.8 -171.533 0
    endloop
  endfacet
  facet normal 1 0 0
    outer loop
      vertex 24.8 -170.42 -11.6052
      vertex 24.8 -171.533 -10.974
      vertex 24.8 -171.421 -11.122
    endloop
  endfacet
  facet normal 0 0 1
    outer loop
      vertex 24.8 -164.386 0
      vertex 12.5009 -171.533 0
      vertex 24.8 -171.533 0
    endloop
  endfacet
  facet normal 0 0 1
    outer loop
      vertex 24.8 -164.386 0
      vertex 12.2265 -171.087 0
      vertex 12.5009 -171.533 0
    endloop
  endfacet
  facet normal -0 0 1
    outer loop
      vertex 11.0048 -168.386 0
      vertex 12.2265 -171.087 0
      vertex 24.8 -164.386 0
    endloop
  endfacet
  facet normal -0 0 1
    outer loop
      vertex 10.3766 -165.331 0
      vertex 11.0048 -168.386 0
      vertex 24.8 -164.386 0
    endloop
  endfacet
  facet normal -0 0 1
    outer loop
      vertex 9.9838 -164.386 0
      vertex 10.3766 -165.331 0
      vertex 24.8 -164.386 0
    endloop
  endfacet
  facet normal 0 1 0
    outer loop
      vertex 24.8 -164.386 0
      vertex 10.1348 -164.386 -1.66771
      vertex 9.9838 -164.386 0
    endloop
  endfacet
  facet normal 0 1 -0
    outer loop
      vertex 10.6558 -164.386 -4.02091
      vertex 10.1348 -164.386 -1.66771
      vertex 24.8 -164.386 0
    endloop
  endfacet
  facet normal 0 1 0
    outer loop
      vertex 10.1348 -164.386 -1.66771
      vertex 10.6558 -164.386 -4.02091
      vertex 10.1986 -164.386 -2.37303
    endloop
  endfacet
  facet normal 0 1 -0
    outer loop
      vertex 11.6082 -164.386 -6.26672
      vertex 10.6558 -164.386 -4.02091
      vertex 24.8 -164.386 0
    endloop
  endfacet
  facet normal 0 1 0
    outer loop
      vertex 10.6558 -164.386 -4.02091
      vertex 11.6082 -164.386 -6.26672
      vertex 10.8355 -164.386 -4.6689
    endloop
  endfacet
  facet normal 0 1 0
    outer loop
      vertex 24.8 -164.386 0
      vertex 11.8726 -164.386 -6.81346
      vertex 11.6082 -164.386 -6.26672
    endloop
  endfacet
  facet normal 0 1 0
    outer loop
      vertex 24.8 -164.386 0
      vertex 12.9718 -164.386 -8.32295
      vertex 11.8726 -164.386 -6.81346
    endloop
  endfacet
  facet normal 0 1 0
    outer loop
      vertex 24.8 -164.386 0
      vertex 13.2743 -164.386 -8.73832
      vertex 12.9718 -164.386 -8.32295
    endloop
  endfacet
  facet normal 0 1 0
    outer loop
      vertex 24.8 -164.386 0
      vertex 14.7082 -164.386 -10.1107
      vertex 13.2743 -164.386 -8.73832
    endloop
  endfacet
  facet normal 0 1 0
    outer loop
      vertex 24.8 -164.386 0
      vertex 14.9931 -164.386 -10.3834
      vertex 14.7082 -164.386 -10.1107
    endloop
  endfacet
  facet normal 0 1 0
    outer loop
      vertex 24.8 -164.386 0
      vertex 16.7614 -164.386 -11.559
      vertex 14.9931 -164.386 -10.3834
    endloop
  endfacet
  facet normal 0 1 0
    outer loop
      vertex 24.8 -164.386 0
      vertex 16.9718 -164.386 -11.6989
      vertex 16.7614 -164.386 -11.559
    endloop
  endfacet
  facet normal 0 1 0
    outer loop
      vertex 24.8 -164.386 0
      vertex 19.0598 -164.386 -12.6094
      vertex 16.9718 -164.386 -11.6989
    endloop
  endfacet
  facet normal 0 1 -0
    outer loop
      vertex 20.403 -164.386 -12.9501
      vertex 19.0598 -164.386 -12.6094
      vertex 24.8 -164.386 0
    endloop
  endfacet
  facet normal 0 1 0
    outer loop
      vertex 19.0598 -164.386 -12.6094
      vertex 20.403 -164.386 -12.9501
      vertex 19.1454 -164.386 -12.6466
    endloop
  endfacet
  facet normal 0 1 -0
    outer loop
      vertex 21.505 -164.386 -13.2136
      vertex 20.403 -164.386 -12.9501
      vertex 24.8 -164.386 0
    endloop
  endfacet
  facet normal 0 1 0
    outer loop
      vertex 20.403 -164.386 -12.9501
      vertex 21.505 -164.386 -13.2136
      vertex 21.4303 -164.386 -13.2083
    endloop
  endfacet
  facet normal 0 1 0
    outer loop
      vertex 23.9979 -164.386 -13.3481
      vertex 24.8 -164.386 0
      vertex 24.8 -164.386 -13.2644
    endloop
  endfacet
  facet normal 0 1 0
    outer loop
      vertex 24.8 -164.386 0
      vertex 23.9979 -164.386 -13.3481
      vertex 21.505 -164.386 -13.2136
    endloop
  endfacet
  facet normal 0 1 0
    outer loop
      vertex 21.505 -164.386 -13.2136
      vertex 23.9979 -164.386 -13.3481
      vertex 23.7547 -164.386 -13.3734
    endloop
  endfacet
  facet normal 0 -1 0
    outer loop
      vertex 12.557 -171.533 -0.608161
      vertex 24.8 -171.533 0
      vertex 12.5009 -171.533 0
    endloop
  endfacet
  facet normal 0 -1 0
    outer loop
      vertex 12.8643 -171.533 -2.65201
      vertex 12.557 -171.533 -0.608161
      vertex 12.6878 -171.533 -2.02786
    endloop
  endfacet
  facet normal 0 -1 0
    outer loop
      vertex 12.557 -171.533 -0.608161
      vertex 12.8643 -171.533 -2.65201
      vertex 24.8 -171.533 0
    endloop
  endfacet
  facet normal 0 -1 0
    outer loop
      vertex 13.2412 -171.533 -3.98535
      vertex 24.8 -171.533 0
      vertex 12.8643 -171.533 -2.65201
    endloop
  endfacet
  facet normal 0 -1 0
    outer loop
      vertex 13.5663 -171.533 -4.64404
      vertex 24.8 -171.533 0
      vertex 13.2412 -171.533 -3.98535
    endloop
  endfacet
  facet normal 0 -1 0
    outer loop
      vertex 14.1396 -171.533 -5.80539
      vertex 24.8 -171.533 0
      vertex 13.5663 -171.533 -4.64404
    endloop
  endfacet
  facet normal 0 -1 0
    outer loop
      vertex 14.6585 -171.533 -6.50149
      vertex 24.8 -171.533 0
      vertex 14.1396 -171.533 -5.80539
    endloop
  endfacet
  facet normal 0 -1 0
    outer loop
      vertex 15.3487 -171.533 -7.42727
      vertex 24.8 -171.533 0
      vertex 14.6585 -171.533 -6.50149
    endloop
  endfacet
  facet normal 0 -1 0
    outer loop
      vertex 16.115 -171.533 -8.14018
      vertex 24.8 -171.533 0
      vertex 15.3487 -171.533 -7.42727
    endloop
  endfacet
  facet normal 0 -1 0
    outer loop
      vertex 16.8233 -171.533 -8.79916
      vertex 24.8 -171.533 0
      vertex 16.115 -171.533 -8.14018
    endloop
  endfacet
  facet normal 0 -1 0
    outer loop
      vertex 17.8875 -171.533 -9.48105
      vertex 24.8 -171.533 0
      vertex 16.8233 -171.533 -8.79916
    endloop
  endfacet
  facet normal 0 -1 0
    outer loop
      vertex 18.51 -171.533 -9.87994
      vertex 24.8 -171.533 0
      vertex 17.8875 -171.533 -9.48105
    endloop
  endfacet
  facet normal 0 -1 0
    outer loop
      vertex 19.9068 -171.533 -10.4573
      vertex 24.8 -171.533 0
      vertex 18.51 -171.533 -9.87994
    endloop
  endfacet
  facet normal 0 -1 0
    outer loop
      vertex 20.3495 -171.533 -10.6403
      vertex 24.8 -171.533 0
      vertex 19.9068 -171.533 -10.4573
    endloop
  endfacet
  facet normal 0 -1 0
    outer loop
      vertex 22.0868 -171.533 -11.0208
      vertex 24.8 -171.533 0
      vertex 20.3495 -171.533 -10.6403
    endloop
  endfacet
  facet normal 0 -1 0
    outer loop
      vertex 23.6196 -171.533 -11.1177
      vertex 24.8 -171.533 0
      vertex 22.0868 -171.533 -11.0208
    endloop
  endfacet
  facet normal 0 -1 0
    outer loop
      vertex 23.6196 -171.533 -11.1177
      vertex 22.0868 -171.533 -11.0208
      vertex 22.2801 -171.533 -11.0631
    endloop
  endfacet
  facet normal 0 -1 -0
    outer loop
      vertex 24.8 -171.533 0
      vertex 23.6196 -171.533 -11.1177
      vertex 24.8 -171.533 -10.974
    endloop
  endfacet
  facet normal 0 -1 0
    outer loop
      vertex 24.8 -171.533 -10.974
      vertex 23.6196 -171.533 -11.1177
      vertex 24.3366 -171.533 -11.0728
    endloop
  endfacet
  facet normal 0 -1 0
    outer loop
      vertex 24.3366 -171.533 -11.0728
      vertex 23.6196 -171.533 -11.1177
      vertex 24.257 -171.533 -11.0898
    endloop
  endfacet
  facet normal 0.102112 -0.17037 -0.980075
    outer loop
      vertex 23.8285 -167.176 -12.8806
      vertex 24.8 -165.392 -13.0895
      vertex 24.8 -167.085 -12.7952
    endloop
  endfacet
  facet normal 0.102182 -0.170406 -0.980062
    outer loop
      vertex 23.7547 -164.386 -13.3734
      vertex 24.8 -165.392 -13.0895
      vertex 23.8285 -167.176 -12.8806
    endloop
  endfacet
  facet normal 0.101954 -0.170639 -0.980045
    outer loop
      vertex 24.8 -165.392 -13.0895
      vertex 23.7547 -164.386 -13.3734
      vertex 23.9979 -164.386 -13.3481
    endloop
  endfacet
  facet normal 0.10227 -0.170389 -0.980055
    outer loop
      vertex 24.8 -164.386 -13.2644
      vertex 24.8 -165.392 -13.0895
      vertex 23.9979 -164.386 -13.3481
    endloop
  endfacet
  facet normal 0.112547 -0.314408 -0.942592
    outer loop
      vertex 24.0919 -169.968 -11.918
      vertex 24.8 -168.262 -12.4025
      vertex 24.8 -169.901 -11.8558
    endloop
  endfacet
  facet normal 0.112456 -0.314377 -0.942614
    outer loop
      vertex 24.8 -168.262 -12.4025
      vertex 24.0919 -169.968 -11.918
      vertex 23.8285 -167.176 -12.8806
    endloop
  endfacet
  facet normal 0.112317 -0.314491 -0.942592
    outer loop
      vertex 24.8 -167.085 -12.7952
      vertex 24.8 -168.262 -12.4025
      vertex 23.8285 -167.176 -12.8806
    endloop
  endfacet
  facet normal 0.119686 -0.431594 -0.894093
    outer loop
      vertex 24.234 -171.475 -11.1717
      vertex 24.8 -170.42 -11.6052
      vertex 24.8 -171.421 -11.122
    endloop
  endfacet
  facet normal 0.119527 -0.43153 -0.894145
    outer loop
      vertex 24.8 -170.42 -11.6052
      vertex 24.234 -171.475 -11.1717
      vertex 24.0919 -169.968 -11.918
    endloop
  endfacet
  facet normal 0.119384 -0.431707 -0.894078
    outer loop
      vertex 24.8 -169.901 -11.8558
      vertex 24.8 -170.42 -11.6052
      vertex 24.0919 -169.968 -11.918
    endloop
  endfacet
  facet normal 0.12746 -0.792194 -0.596811
    outer loop
      vertex 24.3366 -171.533 -11.0728
      vertex 24.257 -171.533 -11.0898
      vertex 24.234 -171.475 -11.1717
    endloop
  endfacet
  facet normal 0.127606 -0.790888 -0.598509
    outer loop
      vertex 24.3366 -171.533 -11.0728
      vertex 24.8 -171.421 -11.122
      vertex 24.8 -171.533 -10.974
    endloop
  endfacet
  facet normal 0.127983 -0.791851 -0.597153
    outer loop
      vertex 24.8 -171.421 -11.122
      vertex 24.3366 -171.533 -11.0728
      vertex 24.234 -171.475 -11.1717
    endloop
  endfacet
  facet normal -0.920208 -0.382464 -0.083301
    outer loop
      vertex 10.3766 -165.331 0
      vertex 10.1348 -164.386 -1.66771
      vertex 10.5798 -165.312 -2.33194
    endloop
  endfacet
  facet normal -0.920196 -0.38249 -0.0833176
    outer loop
      vertex 10.1348 -164.386 -1.66771
      vertex 10.3766 -165.331 0
      vertex 9.9838 -164.386 0
    endloop
  endfacet
  facet normal -0.920197 -0.382505 -0.0832368
    outer loop
      vertex 10.1986 -164.386 -2.37303
      vertex 10.5798 -165.312 -2.33194
      vertex 10.1348 -164.386 -1.66771
    endloop
  endfacet
  facet normal -0.975822 -0.200658 -0.0866457
    outer loop
      vertex 11.1997 -168.368 -2.23669
      vertex 11.0048 -168.386 0
      vertex 10.3766 -165.331 0
    endloop
  endfacet
  facet normal -0.975823 -0.200644 -0.0866658
    outer loop
      vertex 10.5798 -165.312 -2.33194
      vertex 11.1997 -168.368 -2.23669
      vertex 10.3766 -165.331 0
    endloop
  endfacet
  facet normal -0.908026 -0.410713 -0.0824817
    outer loop
      vertex 12.4068 -171.07 -2.06954
      vertex 12.2265 -171.087 0
      vertex 11.0048 -168.386 0
    endloop
  endfacet
  facet normal -0.908015 -0.410749 -0.0824279
    outer loop
      vertex 11.1997 -168.368 -2.23669
      vertex 12.4068 -171.07 -2.06954
      vertex 11.0048 -168.386 0
    endloop
  endfacet
  facet normal -0.849094 -0.522402 -0.078325
    outer loop
      vertex 12.557 -171.533 -0.608161
      vertex 12.5009 -171.533 0
      vertex 12.2265 -171.087 0
    endloop
  endfacet
  facet normal -0.849116 -0.522381 -0.0782309
    outer loop
      vertex 12.557 -171.533 -0.608161
      vertex 12.4068 -171.07 -2.06954
      vertex 12.6878 -171.533 -2.02786
    endloop
  endfacet
  facet normal -0.849062 -0.522464 -0.0782627
    outer loop
      vertex 12.4068 -171.07 -2.06954
      vertex 12.557 -171.533 -0.608161
      vertex 12.2265 -171.087 0
    endloop
  endfacet
  facet normal -0.892052 -0.378157 -0.24747
    outer loop
      vertex 10.5798 -165.312 -2.33194
      vertex 10.6558 -164.386 -4.02091
      vertex 11.1829 -165.255 -4.59303
    endloop
  endfacet
  facet normal -0.892029 -0.378197 -0.247491
    outer loop
      vertex 10.6558 -164.386 -4.02091
      vertex 10.5798 -165.312 -2.33194
      vertex 10.1986 -164.386 -2.37303
    endloop
  endfacet
  facet normal -0.892052 -0.378214 -0.247383
    outer loop
      vertex 10.8355 -164.386 -4.6689
      vertex 11.1829 -165.255 -4.59303
      vertex 10.6558 -164.386 -4.02091
    endloop
  endfacet
  facet normal -0.94546 -0.199802 -0.257264
    outer loop
      vertex 11.7782 -168.313 -4.40543
      vertex 11.1997 -168.368 -2.23669
      vertex 10.5798 -165.312 -2.33194
    endloop
  endfacet
  facet normal -0.945465 -0.199833 -0.257221
    outer loop
      vertex 11.1829 -165.255 -4.59303
      vertex 11.7782 -168.313 -4.40543
      vertex 10.5798 -165.312 -2.33194
    endloop
  endfacet
  facet normal -0.879524 -0.408064 -0.24479
    outer loop
      vertex 12.9421 -171.02 -4.07621
      vertex 12.4068 -171.07 -2.06954
      vertex 11.1997 -168.368 -2.23669
    endloop
  endfacet
  facet normal -0.879529 -0.407953 -0.244956
    outer loop
      vertex 11.7782 -168.313 -4.40543
      vertex 12.9421 -171.02 -4.07621
      vertex 11.1997 -168.368 -2.23669
    endloop
  endfacet
  facet normal -0.822035 -0.519829 -0.232459
    outer loop
      vertex 12.8643 -171.533 -2.65201
      vertex 12.6878 -171.533 -2.02786
      vertex 12.4068 -171.07 -2.06954
    endloop
  endfacet
  facet normal -0.821793 -0.520282 -0.232299
    outer loop
      vertex 12.8643 -171.533 -2.65201
      vertex 12.9421 -171.02 -4.07621
      vertex 13.2412 -171.533 -3.98535
    endloop
  endfacet
  facet normal -0.821961 -0.52005 -0.232225
    outer loop
      vertex 12.9421 -171.02 -4.07621
      vertex 12.8643 -171.533 -2.65201
      vertex 12.4068 -171.07 -2.06954
    endloop
  endfacet
  facet normal -0.836453 -0.369739 -0.404523
    outer loop
      vertex 11.1829 -165.255 -4.59303
      vertex 11.6082 -164.386 -6.26672
      vertex 12.1678 -165.162 -6.71456
    endloop
  endfacet
  facet normal -0.83647 -0.369712 -0.404514
    outer loop
      vertex 11.6082 -164.386 -6.26672
      vertex 11.1829 -165.255 -4.59303
      vertex 10.8355 -164.386 -4.6689
    endloop
  endfacet
  facet normal -0.836456 -0.369752 -0.404505
    outer loop
      vertex 11.8726 -164.386 -6.81346
      vertex 12.1678 -165.162 -6.71456
      vertex 11.6082 -164.386 -6.26672
    endloop
  endfacet
  facet normal -0.885692 -0.198174 -0.419853
    outer loop
      vertex 12.7229 -168.224 -6.44031
      vertex 11.7782 -168.313 -4.40543
      vertex 11.1829 -165.255 -4.59303
    endloop
  endfacet
  facet normal -0.88569 -0.198169 -0.41986
    outer loop
      vertex 12.1678 -165.162 -6.71456
      vertex 12.7229 -168.224 -6.44031
      vertex 11.1829 -165.255 -4.59303
    endloop
  endfacet
  facet normal -0.823338 -0.402647 -0.399987
    outer loop
      vertex 13.8162 -170.937 -5.95902
      vertex 12.9421 -171.02 -4.07621
      vertex 11.7782 -168.313 -4.40543
    endloop
  endfacet
  facet normal -0.823356 -0.402736 -0.39986
    outer loop
      vertex 12.7229 -168.224 -6.44031
      vertex 13.8162 -170.937 -5.95902
      vertex 11.7782 -168.313 -4.40543
    endloop
  endfacet
  facet normal -0.768524 -0.515262 -0.379309
    outer loop
      vertex 13.5663 -171.533 -4.64404
      vertex 13.2412 -171.533 -3.98535
      vertex 12.9421 -171.02 -4.07621
    endloop
  endfacet
  facet normal -0.768683 -0.514914 -0.37946
    outer loop
      vertex 13.5663 -171.533 -4.64404
      vertex 13.8162 -170.937 -5.95902
      vertex 14.1396 -171.533 -5.80539
    endloop
  endfacet
  facet normal -0.768551 -0.515075 -0.379508
    outer loop
      vertex 13.8162 -170.937 -5.95902
      vertex 13.5663 -171.533 -4.64404
      vertex 12.9421 -171.02 -4.07621
    endloop
  endfacet
  facet normal -0.754975 -0.357371 -0.549817
    outer loop
      vertex 12.1678 -165.162 -6.71456
      vertex 12.9718 -164.386 -8.32295
      vertex 13.5046 -165.036 -8.63207
    endloop
  endfacet
  facet normal -0.755023 -0.357292 -0.549803
    outer loop
      vertex 12.9718 -164.386 -8.32295
      vertex 12.1678 -165.162 -6.71456
      vertex 11.8726 -164.386 -6.81346
    endloop
  endfacet
  facet normal -0.754973 -0.357368 -0.549822
    outer loop
      vertex 13.2743 -164.386 -8.73832
      vertex 13.5046 -165.036 -8.63207
      vertex 12.9718 -164.386 -8.32295
    endloop
  endfacet
  facet normal -0.798391 -0.19574 -0.569436
    outer loop
      vertex 14.005 -168.103 -8.2795
      vertex 12.7229 -168.224 -6.44031
      vertex 12.1678 -165.162 -6.71456
    endloop
  endfacet
  facet normal -0.798381 -0.195723 -0.569456
    outer loop
      vertex 13.5046 -165.036 -8.63207
      vertex 14.005 -168.103 -8.2795
      vertex 12.1678 -165.162 -6.71456
    endloop
  endfacet
  facet normal -0.741348 -0.395004 -0.542563
    outer loop
      vertex 15.0025 -170.826 -7.66077
      vertex 13.8162 -170.937 -5.95902
      vertex 12.7229 -168.224 -6.44031
    endloop
  endfacet
  facet normal -0.741292 -0.394875 -0.542734
    outer loop
      vertex 14.005 -168.103 -8.2795
      vertex 15.0025 -170.826 -7.66077
      vertex 12.7229 -168.224 -6.44031
    endloop
  endfacet
  facet normal -0.690796 -0.507575 -0.514946
    outer loop
      vertex 14.6585 -171.533 -6.50149
      vertex 14.1396 -171.533 -5.80539
      vertex 13.8162 -170.937 -5.95902
    endloop
  endfacet
  facet normal -0.690498 -0.508138 -0.514789
    outer loop
      vertex 14.6585 -171.533 -6.50149
      vertex 15.0025 -170.826 -7.66077
      vertex 15.3487 -171.533 -7.42727
    endloop
  endfacet
  facet normal -0.690805 -0.507823 -0.514688
    outer loop
      vertex 15.0025 -170.826 -7.66077
      vertex 14.6585 -171.533 -6.50149
      vertex 13.8162 -170.937 -5.95902
    endloop
  endfacet
  facet normal -0.649993 -0.341151 -0.679061
    outer loop
      vertex 13.5046 -165.036 -8.63207
      vertex 14.7082 -164.386 -10.1107
      vertex 15.1525 -164.881 -10.2873
    endloop
  endfacet
  facet normal -0.649928 -0.341275 -0.679062
    outer loop
      vertex 14.7082 -164.386 -10.1107
      vertex 13.5046 -165.036 -8.63207
      vertex 13.2743 -164.386 -8.73832
    endloop
  endfacet
  facet normal -0.649989 -0.341145 -0.679068
    outer loop
      vertex 14.9931 -164.386 -10.3834
      vertex 15.1525 -164.881 -10.2873
      vertex 14.7082 -164.386 -10.1107
    endloop
  endfacet
  facet normal -0.686309 -0.192599 -0.701346
    outer loop
      vertex 15.5856 -167.954 -9.86713
      vertex 14.005 -168.103 -8.2795
      vertex 13.5046 -165.036 -8.63207
    endloop
  endfacet
  facet normal -0.686325 -0.19262 -0.701324
    outer loop
      vertex 15.1525 -164.881 -10.2873
      vertex 15.5856 -167.954 -9.86713
      vertex 13.5046 -165.036 -8.63207
    endloop
  endfacet
  facet normal -0.635734 -0.384918 -0.66909
    outer loop
      vertex 16.465 -170.688 -9.12975
      vertex 15.0025 -170.826 -7.66077
      vertex 14.005 -168.103 -8.2795
    endloop
  endfacet
  facet normal -0.635749 -0.384942 -0.669061
    outer loop
      vertex 15.5856 -167.954 -9.86713
      vertex 16.465 -170.688 -9.12975
      vertex 14.005 -168.103 -8.2795
    endloop
  endfacet
  facet normal -0.590398 -0.498696 -0.634613
    outer loop
      vertex 16.115 -171.533 -8.14018
      vertex 15.3487 -171.533 -7.42727
      vertex 15.0025 -170.826 -7.66077
    endloop
  endfacet
  facet normal -0.590433 -0.498641 -0.634623
    outer loop
      vertex 16.115 -171.533 -8.14018
      vertex 16.465 -170.688 -9.12975
      vertex 16.8233 -171.533 -8.79916
    endloop
  endfacet
  facet normal -0.590393 -0.498673 -0.634635
    outer loop
      vertex 16.465 -170.688 -9.12975
      vertex 16.115 -171.533 -8.14018
      vertex 15.0025 -170.826 -7.66077
    endloop
  endfacet
  facet normal -0.524233 -0.321719 -0.788464
    outer loop
      vertex 15.1525 -164.881 -10.2873
      vertex 16.7614 -164.386 -11.559
      vertex 17.0615 -164.701 -11.63
    endloop
  endfacet
  facet normal -0.524173 -0.321864 -0.788445
    outer loop
      vertex 16.7614 -164.386 -11.559
      vertex 15.1525 -164.881 -10.2873
      vertex 14.9931 -164.386 -10.3834
    endloop
  endfacet
  facet normal -0.524253 -0.321743 -0.788441
    outer loop
      vertex 16.9718 -164.386 -11.6989
      vertex 17.0615 -164.701 -11.63
      vertex 16.7614 -164.386 -11.559
    endloop
  endfacet
  facet normal -0.552902 -0.188888 -0.811555
    outer loop
      vertex 17.4167 -167.781 -11.1549
      vertex 15.5856 -167.954 -9.86713
      vertex 15.1525 -164.881 -10.2873
    endloop
  endfacet
  facet normal -0.552957 -0.188947 -0.811503
    outer loop
      vertex 17.0615 -164.701 -11.63
      vertex 17.4167 -167.781 -11.1549
      vertex 15.1525 -164.881 -10.2873
    endloop
  endfacet
  facet normal -0.509915 -0.37307 -0.775116
    outer loop
      vertex 18.1592 -170.528 -10.3213
      vertex 16.465 -170.688 -9.12975
      vertex 15.5856 -167.954 -9.86713
    endloop
  endfacet
  facet normal -0.509894 -0.373045 -0.775142
    outer loop
      vertex 17.4167 -167.781 -11.1549
      vertex 18.1592 -170.528 -10.3213
      vertex 15.5856 -167.954 -9.86713
    endloop
  endfacet
  facet normal -0.471087 -0.487388 -0.735208
    outer loop
      vertex 17.8875 -171.533 -9.48105
      vertex 16.8233 -171.533 -8.79916
      vertex 16.465 -170.688 -9.12975
    endloop
  endfacet
  facet normal -0.471122 -0.487331 -0.735223
    outer loop
      vertex 17.8875 -171.533 -9.48105
      vertex 18.1592 -170.528 -10.3213
      vertex 18.51 -171.533 -9.87994
    endloop
  endfacet
  facet normal -0.471075 -0.487355 -0.735237
    outer loop
      vertex 18.1592 -170.528 -10.3213
      vertex 17.8875 -171.533 -9.48105
      vertex 16.465 -170.688 -9.12975
    endloop
  endfacet
  facet normal -0.381173 -0.300406 -0.874336
    outer loop
      vertex 17.0615 -164.701 -11.63
      vertex 19.0598 -164.386 -12.6094
      vertex 19.1737 -164.502 -12.6192
    endloop
  endfacet
  facet normal -0.38132 -0.299856 -0.874461
    outer loop
      vertex 19.0598 -164.386 -12.6094
      vertex 17.0615 -164.701 -11.63
      vertex 16.9718 -164.386 -11.6989
    endloop
  endfacet
  facet normal -0.380278 -0.299467 -0.875048
    outer loop
      vertex 19.1454 -164.386 -12.6466
      vertex 19.1737 -164.502 -12.6192
      vertex 19.0598 -164.386 -12.6094
    endloop
  endfacet
  facet normal -0.402527 -0.184721 -0.896577
    outer loop
      vertex 19.4426 -167.59 -12.1038
      vertex 17.4167 -167.781 -11.1549
      vertex 17.0615 -164.701 -11.63
    endloop
  endfacet
  facet normal -0.402499 -0.184695 -0.896595
    outer loop
      vertex 19.1737 -164.502 -12.6192
      vertex 19.4426 -167.59 -12.1038
      vertex 17.0615 -164.701 -11.63
    endloop
  endfacet
  facet normal -0.367724 -0.359634 -0.857579
    outer loop
      vertex 20.0337 -170.351 -11.1993
      vertex 18.1592 -170.528 -10.3213
      vertex 17.4167 -167.781 -11.1549
    endloop
  endfacet
  facet normal -0.367755 -0.359666 -0.857553
    outer loop
      vertex 19.4426 -167.59 -12.1038
      vertex 20.0337 -170.351 -11.1993
      vertex 17.4167 -167.781 -11.1549
    endloop
  endfacet
  facet normal -0.336235 -0.474602 -0.813449
    outer loop
      vertex 19.9068 -171.533 -10.4573
      vertex 18.51 -171.533 -9.87994
      vertex 18.1592 -170.528 -10.3213
    endloop
  endfacet
  facet normal -0.336264 -0.474551 -0.813466
    outer loop
      vertex 19.9068 -171.533 -10.4573
      vertex 20.0337 -170.351 -11.1993
      vertex 20.3495 -171.533 -10.6403
    endloop
  endfacet
  facet normal -0.336216 -0.474565 -0.813479
    outer loop
      vertex 20.0337 -170.351 -11.1993
      vertex 19.9068 -171.533 -10.4573
      vertex 18.1592 -170.528 -10.3213
    endloop
  endfacet
  facet normal -0.225504 -0.275729 -0.93441
    outer loop
      vertex 20.403 -164.386 -12.9501
      vertex 19.1737 -164.502 -12.6192
      vertex 19.1454 -164.386 -12.6466
    endloop
  endfacet
  facet normal -0.239739 -0.1801 -0.953986
    outer loop
      vertex 21.6017 -167.386 -12.6849
      vertex 19.4426 -167.59 -12.1038
      vertex 19.1737 -164.502 -12.6192
    endloop
  endfacet
  facet normal -0.23977 -0.180135 -0.953972
    outer loop
      vertex 21.6017 -167.386 -12.6849
      vertex 20.403 -164.386 -12.9501
      vertex 21.4303 -164.386 -13.2083
    endloop
  endfacet
  facet normal -0.239788 -0.180142 -0.953966
    outer loop
      vertex 20.403 -164.386 -12.9501
      vertex 21.6017 -167.386 -12.6849
      vertex 19.1737 -164.502 -12.6192
    endloop
  endfacet
  facet normal -0.213509 -0.345119 -0.913951
    outer loop
      vertex 22.0315 -170.163 -11.737
      vertex 20.0337 -170.351 -11.1993
      vertex 19.4426 -167.59 -12.1038
    endloop
  endfacet
  facet normal -0.213399 -0.345018 -0.914015
    outer loop
      vertex 21.6017 -167.386 -12.6849
      vertex 22.0315 -170.163 -11.737
      vertex 19.4426 -167.59 -12.1038
    endloop
  endfacet
  facet normal -0.189884 -0.46075 -0.866979
    outer loop
      vertex 22.0868 -171.533 -11.0208
      vertex 20.3495 -171.533 -10.6403
      vertex 20.0337 -170.351 -11.1993
    endloop
  endfacet
  facet normal -0.189715 -0.460876 -0.866949
    outer loop
      vertex 22.0868 -171.533 -11.0208
      vertex 22.0315 -170.163 -11.737
      vertex 22.2801 -171.533 -11.0631
    endloop
  endfacet
  facet normal -0.189955 -0.460862 -0.866904
    outer loop
      vertex 22.0315 -170.163 -11.737
      vertex 22.0868 -171.533 -11.0208
      vertex 20.0337 -170.351 -11.1993
    endloop
  endfacet
  facet normal -0.0697719 -0.175317 -0.982037
    outer loop
      vertex 21.6017 -167.386 -12.6849
      vertex 21.505 -164.386 -13.2136
      vertex 23.8285 -167.176 -12.8806
    endloop
  endfacet
  facet normal -0.0696765 -0.175315 -0.982044
    outer loop
      vertex 21.505 -164.386 -13.2136
      vertex 21.6017 -167.386 -12.6849
      vertex 21.4303 -164.386 -13.2083
    endloop
  endfacet
  facet normal -0.069756 -0.175304 -0.98204
    outer loop
      vertex 23.7547 -164.386 -13.3734
      vertex 23.8285 -167.176 -12.8806
      vertex 21.505 -164.386 -13.2136
    endloop
  endfacet
  facet normal -0.0516012 -0.329752 -0.942656
    outer loop
      vertex 24.0919 -169.968 -11.918
      vertex 22.0315 -170.163 -11.737
      vertex 21.6017 -167.386 -12.6849
    endloop
  endfacet
  facet normal -0.0517321 -0.329865 -0.94261
    outer loop
      vertex 23.8285 -167.176 -12.8806
      vertex 24.0919 -169.968 -11.918
      vertex 21.6017 -167.386 -12.6849
    endloop
  endfacet
  facet normal -0.0364442 -0.446412 -0.894085
    outer loop
      vertex 22.0315 -170.163 -11.737
      vertex 23.6196 -171.533 -11.1177
      vertex 22.2801 -171.533 -11.0631
    endloop
  endfacet
  facet normal -0.0364405 -0.446408 -0.894087
    outer loop
      vertex 23.6196 -171.533 -11.1177
      vertex 22.0315 -170.163 -11.737
      vertex 24.234 -171.475 -11.1717
    endloop
  endfacet
  facet normal -0.0363177 -0.44624 -0.894176
    outer loop
      vertex 24.0919 -169.968 -11.918
      vertex 24.234 -171.475 -11.1717
      vertex 22.0315 -170.163 -11.737
    endloop
  endfacet
  facet normal 0.0254972 -0.812427 -0.582505
    outer loop
      vertex 24.234 -171.475 -11.1717
      vertex 24.257 -171.533 -11.0898
      vertex 23.6196 -171.533 -11.1177
    endloop
  endfacet
endsolid OpenSCAD_Model
