solid OpenSCAD_Model
  facet normal -0 0 1
    outer loop
      vertex 24.8 -121.502 0
      vertex 39.9299 -125.871 0
      vertex 39.4601 -121.502 0
    endloop
  endfacet
  facet normal 0 0 1
    outer loop
      vertex 39.9299 -125.871 0
      vertex 24.8 -121.502 0
      vertex 24.8 -128.65 0
    endloop
  endfacet
  facet normal 0 0 1
    outer loop
      vertex 39.9299 -125.871 0
      vertex 24.8 -128.65 0
      vertex 39.5518 -128.65 0
    endloop
  endfacet
  facet normal -1 0 0
    outer loop
      vertex 24.8 -124.717 -17.7822
      vertex 24.8 -121.502 0
      vertex 24.8 -121.502 -17.6725
    endloop
  endfacet
  facet normal -1 0 0
    outer loop
      vertex 24.8 -128.65 0
      vertex 24.8 -124.717 -17.7822
      vertex 24.8 -126.553 -17.8114
    endloop
  endfacet
  facet normal -1 0 0
    outer loop
      vertex 24.8 -128.65 0
      vertex 24.8 -126.553 -17.8114
      vertex 24.8 -127.299 -17.8232
    endloop
  endfacet
  facet normal -1 0 0
    outer loop
      vertex 24.8 -128.65 0
      vertex 24.8 -127.299 -17.8232
      vertex 24.8 -128.65 -17.6861
    endloop
  endfacet
  facet normal -1 0 0
    outer loop
      vertex 24.8 -124.717 -17.7822
      vertex 24.8 -128.65 0
      vertex 24.8 -121.502 0
    endloop
  endfacet
  facet normal 0 1 -0
    outer loop
      vertex 39.3633 -121.502 -1.10005
      vertex 24.8 -121.502 0
      vertex 39.4601 -121.502 0
    endloop
  endfacet
  facet normal 0 1 -0
    outer loop
      vertex 39.1844 -121.502 -3.13316
      vertex 24.8 -121.502 0
      vertex 39.3633 -121.502 -1.10005
    endloop
  endfacet
  facet normal 0 1 -0
    outer loop
      vertex 38.8941 -121.502 -4.21043
      vertex 24.8 -121.502 0
      vertex 39.1844 -121.502 -3.13316
    endloop
  endfacet
  facet normal 0 1 -0
    outer loop
      vertex 38.3658 -121.502 -6.17094
      vertex 24.8 -121.502 0
      vertex 38.8941 -121.502 -4.21043
    endloop
  endfacet
  facet normal 0 1 -0
    outer loop
      vertex 37.8817 -121.502 -7.20325
      vertex 24.8 -121.502 0
      vertex 38.3658 -121.502 -6.17094
    endloop
  endfacet
  facet normal 0 1 -0
    outer loop
      vertex 37.0292 -121.502 -9.02086
      vertex 24.8 -121.502 0
      vertex 37.8817 -121.502 -7.20325
    endloop
  endfacet
  facet normal 0 1 -0
    outer loop
      vertex 36.3514 -121.502 -9.98329
      vertex 24.8 -121.502 0
      vertex 37.0292 -121.502 -9.02086
    endloop
  endfacet
  facet normal 0 1 -0
    outer loop
      vertex 35.2154 -121.502 -11.5962
      vertex 24.8 -121.502 0
      vertex 36.3514 -121.502 -9.98329
    endloop
  endfacet
  facet normal 0 1 -0
    outer loop
      vertex 34.3463 -121.502 -12.4602
      vertex 24.8 -121.502 0
      vertex 35.2154 -121.502 -11.5962
    endloop
  endfacet
  facet normal 0 1 -0
    outer loop
      vertex 32.9797 -121.502 -13.8187
      vertex 24.8 -121.502 0
      vertex 34.3463 -121.502 -12.4602
    endloop
  endfacet
  facet normal 0 1 -0
    outer loop
      vertex 31.926 -121.502 -14.552
      vertex 24.8 -121.502 0
      vertex 32.9797 -121.502 -13.8187
    endloop
  endfacet
  facet normal 0 1 -0
    outer loop
      vertex 30.3902 -121.502 -15.6207
      vertex 24.8 -121.502 0
      vertex 31.926 -121.502 -14.552
    endloop
  endfacet
  facet normal 0 1 -0
    outer loop
      vertex 29.1652 -121.502 -16.1882
      vertex 24.8 -121.502 0
      vertex 30.3902 -121.502 -15.6207
    endloop
  endfacet
  facet normal 0 1 -0
    outer loop
      vertex 27.5258 -121.502 -16.9476
      vertex 24.8 -121.502 0
      vertex 29.1652 -121.502 -16.1882
    endloop
  endfacet
  facet normal 0 1 -0
    outer loop
      vertex 26.1515 -121.502 -17.3131
      vertex 24.8 -121.502 0
      vertex 27.5258 -121.502 -16.9476
    endloop
  endfacet
  facet normal 0 1 0
    outer loop
      vertex 24.8 -121.502 0
      vertex 26.1515 -121.502 -17.3131
      vertex 24.8 -121.502 -17.6725
    endloop
  endfacet
  facet normal 0 -1 0
    outer loop
      vertex 24.8 -128.65 0
      vertex 39.3405 -128.65 -2.45809
      vertex 39.5518 -128.65 0
    endloop
  endfacet
  facet normal 0 -1 0
    outer loop
      vertex 24.8 -128.65 0
      vertex 39.2859 -128.65 -3.09246
      vertex 39.3405 -128.65 -2.45809
    endloop
  endfacet
  facet normal 0 -1 0
    outer loop
      vertex 24.8 -128.65 0
      vertex 38.6541 -128.65 -5.49257
      vertex 39.2859 -128.65 -3.09246
    endloop
  endfacet
  facet normal 0 -1 0
    outer loop
      vertex 24.8 -128.65 0
      vertex 38.4959 -128.65 -6.09346
      vertex 38.6541 -128.65 -5.49257
    endloop
  endfacet
  facet normal 0 -1 0
    outer loop
      vertex 24.8 -128.65 0
      vertex 37.4519 -128.65 -8.37357
      vertex 38.4959 -128.65 -6.09346
    endloop
  endfacet
  facet normal 0 -1 0
    outer loop
      vertex 24.8 -128.65 0
      vertex 37.2044 -128.65 -8.91401
      vertex 37.4519 -128.65 -8.37357
    endloop
  endfacet
  facet normal 0 -1 0
    outer loop
      vertex 24.8 -128.65 0
      vertex 35.764 -128.65 -11.0113
      vertex 37.2044 -128.65 -8.91401
    endloop
  endfacet
  facet normal 0 -1 0
    outer loop
      vertex 24.8 -128.65 0
      vertex 35.4489 -128.65 -11.4701
      vertex 35.764 -128.65 -11.0113
    endloop
  endfacet
  facet normal 0 -1 0
    outer loop
      vertex 24.8 -128.65 0
      vertex 33.6364 -128.65 -13.3211
      vertex 35.4489 -128.65 -11.4701
    endloop
  endfacet
  facet normal 0 -1 0
    outer loop
      vertex 24.8 -128.65 0
      vertex 33.2803 -128.65 -13.6848
      vertex 33.6364 -128.65 -13.3211
    endloop
  endfacet
  facet normal 0 -1 0
    outer loop
      vertex 24.8 -128.65 0
      vertex 31.1303 -128.65 -15.2268
      vertex 33.2803 -128.65 -13.6848
    endloop
  endfacet
  facet normal 0 -1 0
    outer loop
      vertex 24.8 -128.65 0
      vertex 30.7619 -128.65 -15.4911
      vertex 31.1303 -128.65 -15.2268
    endloop
  endfacet
  facet normal 0 -1 0
    outer loop
      vertex 24.8 -128.65 0
      vertex 28.3206 -128.65 -16.6637
      vertex 30.7619 -128.65 -15.4911
    endloop
  endfacet
  facet normal 0 -1 0
    outer loop
      vertex 24.8 -128.65 0
      vertex 27.9679 -128.65 -16.8331
      vertex 28.3206 -128.65 -16.6637
    endloop
  endfacet
  facet normal 0 -1 0
    outer loop
      vertex 24.8 -128.65 0
      vertex 25.2939 -128.65 -17.581
      vertex 27.9679 -128.65 -16.8331
    endloop
  endfacet
  facet normal 0 -1 0
    outer loop
      vertex 24.8 -128.65 -17.6861
      vertex 25.2939 -128.65 -17.581
      vertex 24.8 -128.65 0
    endloop
  endfacet
  facet normal 0 -1 0
    outer loop
      vertex 25.2939 -128.65 -17.581
      vertex 24.8 -128.65 -17.6861
      vertex 24.9813 -128.65 -17.6684
    endloop
  endfacet
  facet normal 0.0859738 0.0157572 -0.996173
    outer loop
      vertex 24.8 -126.553 -17.8114
      vertex 25.0596 -127.274 -17.8004
      vertex 24.8 -127.299 -17.8232
    endloop
  endfacet
  facet normal 0.0862111 0.0158429 -0.996151
    outer loop
      vertex 24.8 -124.717 -17.7822
      vertex 25.0596 -127.274 -17.8004
      vertex 24.8 -126.553 -17.8114
    endloop
  endfacet
  facet normal 0.0966744 -0.100489 -0.99023
    outer loop
      vertex 24.8 -127.299 -17.8232
      vertex 24.9813 -128.65 -17.6684
      vertex 24.8 -128.65 -17.6861
    endloop
  endfacet
  facet normal 0.0966472 -0.100493 -0.990233
    outer loop
      vertex 24.9813 -128.65 -17.6684
      vertex 24.8 -127.299 -17.8232
      vertex 25.0596 -127.274 -17.8004
    endloop
  endfacet
  facet normal 0.256859 0.0329526 -0.965887
    outer loop
      vertex 24.8 -124.717 -17.7822
      vertex 28.0895 -126.988 -16.9849
      vertex 25.0596 -127.274 -17.8004
    endloop
  endfacet
  facet normal 0.25686 0.0329551 -0.965886
    outer loop
      vertex 28.0895 -126.988 -16.9849
      vertex 24.8 -124.717 -17.7822
      vertex 26.1515 -121.502 -17.3131
    endloop
  endfacet
  facet normal 0.256855 0.0329574 -0.965888
    outer loop
      vertex 26.1515 -121.502 -17.3131
      vertex 24.8 -124.717 -17.7822
      vertex 24.8 -121.502 -17.6725
    endloop
  endfacet
  facet normal 0.25688 0.0329622 -0.965881
    outer loop
      vertex 27.5258 -121.502 -16.9476
      vertex 28.0895 -126.988 -16.9849
      vertex 26.1515 -121.502 -17.3131
    endloop
  endfacet
  facet normal 0.267716 -0.10709 -0.957528
    outer loop
      vertex 25.0596 -127.274 -17.8004
      vertex 25.2939 -128.65 -17.581
      vertex 24.9813 -128.65 -17.6684
    endloop
  endfacet
  facet normal 0.267808 -0.107049 -0.957507
    outer loop
      vertex 25.2939 -128.65 -17.581
      vertex 28.0895 -126.988 -16.9849
      vertex 27.9679 -128.65 -16.8331
    endloop
  endfacet
  facet normal 0.267819 -0.107068 -0.957502
    outer loop
      vertex 28.0895 -126.988 -16.9849
      vertex 25.2939 -128.65 -17.581
      vertex 25.0596 -127.274 -17.8004
    endloop
  endfacet
  facet normal 0.419826 0.0492917 -0.906265
    outer loop
      vertex 28.0895 -126.988 -16.9849
      vertex 29.1652 -121.502 -16.1882
      vertex 30.9323 -126.72 -15.6534
    endloop
  endfacet
  facet normal 0.419803 0.0492977 -0.906275
    outer loop
      vertex 29.1652 -121.502 -16.1882
      vertex 28.0895 -126.988 -16.9849
      vertex 27.5258 -121.502 -16.9476
    endloop
  endfacet
  facet normal 0.419838 0.0492965 -0.906259
    outer loop
      vertex 30.3902 -121.502 -15.6207
      vertex 30.9323 -126.72 -15.6534
      vertex 29.1652 -121.502 -16.1882
    endloop
  endfacet
  facet normal 0.430161 -0.113275 -0.895618
    outer loop
      vertex 28.0895 -126.988 -16.9849
      vertex 28.3206 -128.65 -16.6637
      vertex 27.9679 -128.65 -16.8331
    endloop
  endfacet
  facet normal 0.430177 -0.113271 -0.89561
    outer loop
      vertex 28.0895 -126.988 -16.9849
      vertex 30.7619 -128.65 -15.4911
      vertex 28.3206 -128.65 -16.6637
    endloop
  endfacet
  facet normal 0.430165 -0.113294 -0.895613
    outer loop
      vertex 30.7619 -128.65 -15.4911
      vertex 28.0895 -126.988 -16.9849
      vertex 30.9323 -126.72 -15.6534
    endloop
  endfacet
  facet normal 0.570013 0.0643444 -0.819113
    outer loop
      vertex 30.9323 -126.72 -15.6534
      vertex 31.926 -121.502 -14.552
      vertex 33.5018 -126.478 -13.8463
    endloop
  endfacet
  facet normal 0.569995 0.0643503 -0.819124
    outer loop
      vertex 31.926 -121.502 -14.552
      vertex 30.9323 -126.72 -15.6534
      vertex 30.3902 -121.502 -15.6207
    endloop
  endfacet
  facet normal 0.570033 0.0643532 -0.819097
    outer loop
      vertex 32.9797 -121.502 -13.8187
      vertex 33.5018 -126.478 -13.8463
      vertex 31.926 -121.502 -14.552
    endloop
  endfacet
  facet normal 0.578789 -0.118944 -0.806756
    outer loop
      vertex 30.9323 -126.72 -15.6534
      vertex 31.1303 -128.65 -15.2268
      vertex 30.7619 -128.65 -15.4911
    endloop
  endfacet
  facet normal 0.578671 -0.118974 -0.806837
    outer loop
      vertex 30.9323 -126.72 -15.6534
      vertex 33.2803 -128.65 -13.6848
      vertex 31.1303 -128.65 -15.2268
    endloop
  endfacet
  facet normal 0.578653 -0.119004 -0.806845
    outer loop
      vertex 33.2803 -128.65 -13.6848
      vertex 30.9323 -126.72 -15.6534
      vertex 33.5018 -126.478 -13.8463
    endloop
  endfacet
  facet normal 0.702887 0.0776633 -0.707049
    outer loop
      vertex 33.5018 -126.478 -13.8463
      vertex 34.3463 -121.502 -12.4602
      vertex 35.7198 -126.269 -11.6184
    endloop
  endfacet
  facet normal 0.702872 0.0776697 -0.707063
    outer loop
      vertex 34.3463 -121.502 -12.4602
      vertex 33.5018 -126.478 -13.8463
      vertex 32.9797 -121.502 -13.8187
    endloop
  endfacet
  facet normal 0.702893 0.0776664 -0.707042
    outer loop
      vertex 35.2154 -121.502 -11.5962
      vertex 35.7198 -126.269 -11.6184
      vertex 34.3463 -121.502 -12.4602
    endloop
  endfacet
  facet normal 0.709025 -0.123924 -0.694209
    outer loop
      vertex 33.5018 -126.478 -13.8463
      vertex 33.6364 -128.65 -13.3211
      vertex 33.2803 -128.65 -13.6848
    endloop
  endfacet
  facet normal 0.708992 -0.123907 -0.694246
    outer loop
      vertex 33.6364 -128.65 -13.3211
      vertex 35.7198 -126.269 -11.6184
      vertex 35.4489 -128.65 -11.4701
    endloop
  endfacet
  facet normal 0.709005 -0.12393 -0.694228
    outer loop
      vertex 35.7198 -126.269 -11.6184
      vertex 33.6364 -128.65 -13.3211
      vertex 33.5018 -126.478 -13.8463
    endloop
  endfacet
  facet normal 0.814342 0.0888343 -0.573546
    outer loop
      vertex 35.7198 -126.269 -11.6184
      vertex 36.3514 -121.502 -9.98329
      vertex 37.519 -126.099 -9.0375
    endloop
  endfacet
  facet normal 0.814338 0.0888368 -0.573552
    outer loop
      vertex 36.3514 -121.502 -9.98329
      vertex 35.7198 -126.269 -11.6184
      vertex 35.2154 -121.502 -11.5962
    endloop
  endfacet
  facet normal 0.81436 0.0888442 -0.57352
    outer loop
      vertex 37.0292 -121.502 -9.02086
      vertex 37.519 -126.099 -9.0375
      vertex 36.3514 -121.502 -9.98329
    endloop
  endfacet
  facet normal 0.817535 -0.127987 -0.561476
    outer loop
      vertex 35.7198 -126.269 -11.6184
      vertex 35.764 -128.65 -11.0113
      vertex 35.4489 -128.65 -11.4701
    endloop
  endfacet
  facet normal 0.817534 -0.128002 -0.561475
    outer loop
      vertex 35.764 -128.65 -11.0113
      vertex 37.519 -126.099 -9.0375
      vertex 37.2044 -128.65 -8.91401
    endloop
  endfacet
  facet normal 0.817528 -0.12799 -0.561486
    outer loop
      vertex 37.519 -126.099 -9.0375
      vertex 35.764 -128.65 -11.0113
      vertex 35.7198 -126.269 -11.6184
    endloop
  endfacet
  facet normal 0.901055 0.0975277 -0.422596
    outer loop
      vertex 37.519 -126.099 -9.0375
      vertex 37.8817 -121.502 -7.20325
      vertex 38.8447 -125.974 -6.18201
    endloop
  endfacet
  facet normal 0.901047 0.0975343 -0.422612
    outer loop
      vertex 37.8817 -121.502 -7.20325
      vertex 37.519 -126.099 -9.0375
      vertex 37.0292 -121.502 -9.02086
    endloop
  endfacet
  facet normal 0.901073 0.0975406 -0.422556
    outer loop
      vertex 38.3658 -121.502 -6.17094
      vertex 38.8447 -125.974 -6.18201
      vertex 37.8817 -121.502 -7.20325
    endloop
  endfacet
  facet normal 0.901341 -0.131139 -0.412778
    outer loop
      vertex 37.519 -126.099 -9.0375
      vertex 37.4519 -128.65 -8.37357
      vertex 37.2044 -128.65 -8.91401
    endloop
  endfacet
  facet normal 0.901371 -0.131145 -0.412713
    outer loop
      vertex 37.4519 -128.65 -8.37357
      vertex 38.8447 -125.974 -6.18201
      vertex 38.4959 -128.65 -6.09346
    endloop
  endfacet
  facet normal 0.901365 -0.131127 -0.412731
    outer loop
      vertex 38.8447 -125.974 -6.18201
      vertex 37.4519 -128.65 -8.37357
      vertex 37.519 -126.099 -9.0375
    endloop
  endfacet
  facet normal 0.960372 0.103487 -0.258796
    outer loop
      vertex 38.8447 -125.974 -6.18201
      vertex 38.8941 -121.502 -4.21043
      vertex 39.6565 -125.897 -3.13869
    endloop
  endfacet
  facet normal 0.960373 0.103486 -0.258793
    outer loop
      vertex 38.8941 -121.502 -4.21043
      vertex 38.8447 -125.974 -6.18201
      vertex 38.3658 -121.502 -6.17094
    endloop
  endfacet
  facet normal 0.960372 0.103486 -0.258799
    outer loop
      vertex 39.1844 -121.502 -3.13316
      vertex 39.6565 -125.897 -3.13869
      vertex 38.8941 -121.502 -4.21043
    endloop
  endfacet
  facet normal 0.95842 -0.133274 -0.252329
    outer loop
      vertex 38.8447 -125.974 -6.18201
      vertex 38.6541 -128.65 -5.49257
      vertex 38.4959 -128.65 -6.09346
    endloop
  endfacet
  facet normal 0.958431 -0.133258 -0.252295
    outer loop
      vertex 38.6541 -128.65 -5.49257
      vertex 39.6565 -125.897 -3.13869
      vertex 39.2859 -128.65 -3.09246
    endloop
  endfacet
  facet normal 0.958432 -0.133264 -0.252288
    outer loop
      vertex 39.6565 -125.897 -3.13869
      vertex 38.6541 -128.65 -5.49257
      vertex 38.8447 -125.974 -6.18201
    endloop
  endfacet
  facet normal 0.990484 0.106507 -0.0871598
    outer loop
      vertex 39.6565 -125.897 -3.13869
      vertex 39.3633 -121.502 -1.10005
      vertex 39.9299 -125.871 0
    endloop
  endfacet
  facet normal 0.990485 0.106505 -0.087156
    outer loop
      vertex 39.3633 -121.502 -1.10005
      vertex 39.6565 -125.897 -3.13869
      vertex 39.1844 -121.502 -3.13316
    endloop
  endfacet
  facet normal 0.990485 0.106507 -0.0871587
    outer loop
      vertex 39.4601 -121.502 0
      vertex 39.9299 -125.871 0
      vertex 39.3633 -121.502 -1.10005
    endloop
  endfacet
  facet normal 0.987286 -0.134332 -0.0849754
    outer loop
      vertex 39.6565 -125.897 -3.13869
      vertex 39.3405 -128.65 -2.45809
      vertex 39.2859 -128.65 -3.09246
    endloop
  endfacet
  facet normal 0.987296 -0.134328 -0.084869
    outer loop
      vertex 39.3405 -128.65 -2.45809
      vertex 39.9299 -125.871 0
      vertex 39.5518 -128.65 0
    endloop
  endfacet
  facet normal 0.987297 -0.134312 -0.0848873
    outer loop
      vertex 39.9299 -125.871 0
      vertex 39.3405 -128.65 -2.45809
      vertex 39.6565 -125.897 -3.13869
    endloop
  endfacet
endsolid OpenSCAD_Model
