solid OpenSCAD_Model
  facet normal 0 0 1
    outer loop
      vertex 49.05 -21.4416 0
      vertex 48.6901 -28.5888 0
      vertex 49.5987 -24.5154 0
    endloop
  endfacet
  facet normal -0 0 1
    outer loop
      vertex 24.8 -21.4416 0
      vertex 48.6901 -28.5888 0
      vertex 49.05 -21.4416 0
    endloop
  endfacet
  facet normal 0 0 1
    outer loop
      vertex 48.6901 -28.5888 0
      vertex 24.8 -21.4416 0
      vertex 24.8 -28.5888 0
    endloop
  endfacet
  facet normal 0 0 -1
    outer loop
      vertex 24.9983 -26.8431 -24.71
      vertex 24.997 -26.8311 -24.71
      vertex 25.0086 -26.835 -24.71
    endloop
  endfacet
  facet normal 0 0 -1
    outer loop
      vertex 24.9953 -26.832 -24.71
      vertex 24.9983 -26.8431 -24.71
      vertex 24.9959 -26.8451 -24.71
    endloop
  endfacet
  facet normal 0 0 -1
    outer loop
      vertex 24.9983 -26.8431 -24.71
      vertex 24.9953 -26.832 -24.71
      vertex 24.997 -26.8311 -24.71
    endloop
  endfacet
  facet normal 0 -0 -1
    outer loop
      vertex 24.9953 -26.832 -24.71
      vertex 24.9959 -26.8451 -24.71
      vertex 24.9851 -26.8373 -24.71
    endloop
  endfacet
  facet normal -1 0 0
    outer loop
      vertex 24.8 -28.5888 0
      vertex 24.8 -21.4416 -23.5848
      vertex 24.8 -26.3199 -24.5842
    endloop
  endfacet
  facet normal -1 0 0
    outer loop
      vertex 24.8 -28.5888 -24.509
      vertex 24.8 -26.3199 -24.5842
      vertex 24.8 -26.8547 -24.6937
    endloop
  endfacet
  facet normal -1 0 0
    outer loop
      vertex 24.8 -26.3199 -24.5842
      vertex 24.8 -28.5888 -24.509
      vertex 24.8 -28.5888 0
    endloop
  endfacet
  facet normal -1 0 0
    outer loop
      vertex 24.8 -21.4416 -23.5848
      vertex 24.8 -28.5888 0
      vertex 24.8 -21.4416 0
    endloop
  endfacet
  facet normal 0 1 -0
    outer loop
      vertex 48.9401 -21.4416 -1.24175
      vertex 24.8 -21.4416 0
      vertex 49.05 -21.4416 0
    endloop
  endfacet
  facet normal 0 1 -0
    outer loop
      vertex 48.6798 -21.4416 -4.17986
      vertex 24.8 -21.4416 0
      vertex 48.9401 -21.4416 -1.24175
    endloop
  endfacet
  facet normal 0 1 -0
    outer loop
      vertex 48.3475 -21.4416 -5.40423
      vertex 24.8 -21.4416 0
      vertex 48.6798 -21.4416 -4.17986
    endloop
  endfacet
  facet normal 0 1 -0
    outer loop
      vertex 47.5818 -21.4416 -8.22553
      vertex 24.8 -21.4416 0
      vertex 48.3475 -21.4416 -5.40423
    endloop
  endfacet
  facet normal 0 1 -0
    outer loop
      vertex 47.0183 -21.4416 -9.41686
      vertex 24.8 -21.4416 0
      vertex 47.5818 -21.4416 -8.22553
    endloop
  endfacet
  facet normal 0 1 -0
    outer loop
      vertex 45.7928 -21.4416 -12.0078
      vertex 24.8 -21.4416 0
      vertex 47.0183 -21.4416 -9.41686
    endloop
  endfacet
  facet normal 0 1 -0
    outer loop
      vertex 44.985 -21.4416 -13.1427
      vertex 24.8 -21.4416 0
      vertex 45.7928 -21.4416 -12.0078
    endloop
  endfacet
  facet normal 0 1 -0
    outer loop
      vertex 43.3731 -21.4416 -15.4072
      vertex 24.8 -21.4416 0
      vertex 44.985 -21.4416 -13.1427
    endloop
  endfacet
  facet normal 0 1 -0
    outer loop
      vertex 42.3076 -21.4416 -16.4514
      vertex 24.8 -21.4416 0
      vertex 43.3731 -21.4416 -15.4072
    endloop
  endfacet
  facet normal 0 1 -0
    outer loop
      vertex 40.4027 -21.4416 -18.3182
      vertex 24.8 -21.4416 0
      vertex 42.3076 -21.4416 -16.4514
    endloop
  endfacet
  facet normal 0 1 -0
    outer loop
      vertex 39.0714 -21.4416 -19.2259
      vertex 24.8 -21.4416 0
      vertex 40.4027 -21.4416 -18.3182
    endloop
  endfacet
  facet normal 0 1 -0
    outer loop
      vertex 36.9793 -21.4416 -20.6523
      vertex 24.8 -21.4416 0
      vertex 39.0714 -21.4416 -19.2259
    endloop
  endfacet
  facet normal 0 1 -0
    outer loop
      vertex 35.3847 -21.4416 -21.3675
      vertex 24.8 -21.4416 0
      vertex 36.9793 -21.4416 -20.6523
    endloop
  endfacet
  facet normal 0 1 -0
    outer loop
      vertex 33.2133 -21.4416 -22.3415
      vertex 24.8 -21.4416 0
      vertex 35.3847 -21.4416 -21.3675
    endloop
  endfacet
  facet normal 0 1 -0
    outer loop
      vertex 31.3738 -21.4416 -22.8015
      vertex 24.8 -21.4416 0
      vertex 33.2133 -21.4416 -22.3415
    endloop
  endfacet
  facet normal 0 1 -0
    outer loop
      vertex 29.2246 -21.4416 -23.339
      vertex 24.8 -21.4416 0
      vertex 31.3738 -21.4416 -22.8015
    endloop
  endfacet
  facet normal 0 1 -0
    outer loop
      vertex 27.1773 -21.4416 -23.4803
      vertex 24.8 -21.4416 0
      vertex 29.2246 -21.4416 -23.339
    endloop
  endfacet
  facet normal 0 1 0
    outer loop
      vertex 27.1773 -21.4416 -23.4803
      vertex 24.8 -21.4416 -23.5848
      vertex 24.8 -21.4416 0
    endloop
  endfacet
  facet normal -0 1 0
    outer loop
      vertex 24.8 -21.4416 -23.5848
      vertex 27.1773 -21.4416 -23.4803
      vertex 25.1375 -21.4416 -23.621
    endloop
  endfacet
  facet normal 0 -1 0
    outer loop
      vertex 24.8 -28.5888 0
      vertex 48.4397 -28.5888 -2.93625
      vertex 48.6901 -28.5888 0
    endloop
  endfacet
  facet normal 0 -1 0
    outer loop
      vertex 24.8 -28.5888 0
      vertex 48.331 -28.5888 -4.21113
      vertex 48.4397 -28.5888 -2.93625
    endloop
  endfacet
  facet normal 0 -1 0
    outer loop
      vertex 24.8 -28.5888 0
      vertex 47.5804 -28.5888 -7.08646
      vertex 48.331 -28.5888 -4.21113
    endloop
  endfacet
  facet normal 0 -1 0
    outer loop
      vertex 24.8 -28.5888 0
      vertex 47.264 -28.5888 -8.29832
      vertex 47.5804 -28.5888 -7.08646
    endloop
  endfacet
  facet normal 0 -1 0
    outer loop
      vertex 24.8 -28.5888 0
      vertex 46.0169 -28.5888 -11.0454
      vertex 47.264 -28.5888 -8.29832
    endloop
  endfacet
  facet normal 0 -1 0
    outer loop
      vertex 24.8 -28.5888 0
      vertex 45.5195 -28.5888 -12.1409
      vertex 46.0169 -28.5888 -11.0454
    endloop
  endfacet
  facet normal 0 -1 0
    outer loop
      vertex 24.8 -28.5888 0
      vertex 43.7851 -28.5888 -14.6882
      vertex 45.5195 -28.5888 -12.1409
    endloop
  endfacet
  facet normal 0 -1 0
    outer loop
      vertex 24.8 -28.5888 0
      vertex 43.1474 -28.5888 -15.6248
      vertex 43.7851 -28.5888 -14.6882
    endloop
  endfacet
  facet normal 0 -1 0
    outer loop
      vertex 24.8 -28.5888 0
      vertex 40.9434 -28.5888 -17.896
      vertex 43.1474 -28.5888 -15.6248
    endloop
  endfacet
  facet normal 0 -1 0
    outer loop
      vertex 24.8 -28.5888 0
      vertex 40.2161 -28.5888 -18.6455
      vertex 40.9434 -28.5888 -17.896
    endloop
  endfacet
  facet normal 0 -1 0
    outer loop
      vertex 24.8 -28.5888 0
      vertex 37.572 -28.5888 -20.5601
      vertex 40.2161 -28.5888 -18.6455
    endloop
  endfacet
  facet normal 0 -1 0
    outer loop
      vertex 24.8 -28.5888 0
      vertex 36.8106 -28.5888 -21.1114
      vertex 37.572 -28.5888 -20.5601
    endloop
  endfacet
  facet normal 0 -1 0
    outer loop
      vertex 24.8 -28.5888 0
      vertex 33.7715 -28.5888 -22.5866
      vertex 36.8106 -28.5888 -21.1114
    endloop
  endfacet
  facet normal 0 -1 0
    outer loop
      vertex 24.8 -28.5888 0
      vertex 33.0306 -28.5888 -22.9463
      vertex 33.7715 -28.5888 -22.5866
    endloop
  endfacet
  facet normal 0 -1 0
    outer loop
      vertex 24.8 -28.5888 0
      vertex 29.6598 -28.5888 -23.9012
      vertex 33.0306 -28.5888 -22.9463
    endloop
  endfacet
  facet normal 0 -1 0
    outer loop
      vertex 24.8 -28.5888 0
      vertex 28.9876 -28.5888 -24.0916
      vertex 29.6598 -28.5888 -23.9012
    endloop
  endfacet
  facet normal 0 -1 0
    outer loop
      vertex 24.8 -28.5888 0
      vertex 25.369 -28.5888 -24.4527
      vertex 28.9876 -28.5888 -24.0916
    endloop
  endfacet
  facet normal 0 -1 0
    outer loop
      vertex 24.8 -28.5888 -24.509
      vertex 25.369 -28.5888 -24.4527
      vertex 24.8 -28.5888 0
    endloop
  endfacet
  facet normal 0 -1 0
    outer loop
      vertex 25.369 -28.5888 -24.4527
      vertex 24.8 -28.5888 -24.509
      vertex 24.8026 -28.5888 -24.5092
    endloop
  endfacet
  facet normal 0.0674968 0.195912 -0.978296
    outer loop
      vertex 25.0086 -26.835 -24.71
      vertex 27.1773 -21.4416 -23.4803
      vertex 29.2689 -26.4332 -24.3356
    endloop
  endfacet
  facet normal 0.0674802 0.195918 -0.978296
    outer loop
      vertex 27.1773 -21.4416 -23.4803
      vertex 25.0086 -26.835 -24.71
      vertex 25.1375 -21.4416 -23.621
    endloop
  endfacet
  facet normal 0.0658885 0.195976 -0.978393
    outer loop
      vertex 25.1375 -21.4416 -23.621
      vertex 25.0086 -26.835 -24.71
      vertex 24.997 -26.8311 -24.71
    endloop
  endfacet
  facet normal 0.0675195 0.195921 -0.978293
    outer loop
      vertex 29.2246 -21.4416 -23.339
      vertex 29.2689 -26.4332 -24.3356
      vertex 27.1773 -21.4416 -23.4803
    endloop
  endfacet
  facet normal 0.102999 -0.123599 -0.986972
    outer loop
      vertex 25.369 -28.5888 -24.4527
      vertex 24.9959 -26.8451 -24.71
      vertex 24.9983 -26.8431 -24.71
    endloop
  endfacet
  facet normal 0.0984865 -0.124613 -0.987305
    outer loop
      vertex 24.9959 -26.8451 -24.71
      vertex 25.369 -28.5888 -24.4527
      vertex 24.8026 -28.5888 -24.5092
    endloop
  endfacet
  facet normal 0.098523 -0.124601 -0.987303
    outer loop
      vertex 25.0086 -26.835 -24.71
      vertex 28.9876 -28.5888 -24.0916
      vertex 25.369 -28.5888 -24.4527
    endloop
  endfacet
  facet normal 0.0985178 -0.124613 -0.987302
    outer loop
      vertex 28.9876 -28.5888 -24.0916
      vertex 25.0086 -26.835 -24.71
      vertex 29.2689 -26.4332 -24.3356
    endloop
  endfacet
  facet normal 0.0980651 -0.1247 -0.987336
    outer loop
      vertex 25.0086 -26.835 -24.71
      vertex 25.369 -28.5888 -24.4527
      vertex 24.9983 -26.8431 -24.71
    endloop
  endfacet
  facet normal 0.238085 0.192198 -0.952037
    outer loop
      vertex 29.2689 -26.4332 -24.3356
      vertex 31.3738 -21.4416 -22.8015
      vertex 33.4112 -26.0424 -23.2208
    endloop
  endfacet
  facet normal 0.238097 0.192192 -0.952036
    outer loop
      vertex 31.3738 -21.4416 -22.8015
      vertex 29.2689 -26.4332 -24.3356
      vertex 29.2246 -21.4416 -23.339
    endloop
  endfacet
  facet normal 0.238075 0.192194 -0.952041
    outer loop
      vertex 33.2133 -21.4416 -22.3415
      vertex 33.4112 -26.0424 -23.2208
      vertex 31.3738 -21.4416 -22.8015
    endloop
  endfacet
  facet normal 0.269727 -0.142988 -0.952261
    outer loop
      vertex 29.2689 -26.4332 -24.3356
      vertex 29.6598 -28.5888 -23.9012
      vertex 28.9876 -28.5888 -24.0916
    endloop
  endfacet
  facet normal 0.26976 -0.142981 -0.952253
    outer loop
      vertex 29.2689 -26.4332 -24.3356
      vertex 33.0306 -28.5888 -22.9463
      vertex 29.6598 -28.5888 -23.9012
    endloop
  endfacet
  facet normal 0.269764 -0.142973 -0.952253
    outer loop
      vertex 33.0306 -28.5888 -22.9463
      vertex 29.2689 -26.4332 -24.3356
      vertex 33.4112 -26.0424 -23.2208
    endloop
  endfacet
  facet normal 0.401909 0.188553 -0.896057
    outer loop
      vertex 33.4112 -26.0424 -23.2208
      vertex 35.3847 -21.4416 -21.3675
      vertex 37.2978 -25.6758 -21.4004
    endloop
  endfacet
  facet normal 0.401931 0.188541 -0.896049
    outer loop
      vertex 35.3847 -21.4416 -21.3675
      vertex 33.4112 -26.0424 -23.2208
      vertex 33.2133 -21.4416 -22.3415
    endloop
  endfacet
  facet normal 0.401897 0.188548 -0.896063
    outer loop
      vertex 36.9793 -21.4416 -20.6523
      vertex 37.2978 -25.6758 -21.4004
      vertex 35.3847 -21.4416 -21.3675
    endloop
  endfacet
  facet normal 0.431103 -0.160158 -0.887975
    outer loop
      vertex 33.4112 -26.0424 -23.2208
      vertex 33.7715 -28.5888 -22.5866
      vertex 33.0306 -28.5888 -22.9463
    endloop
  endfacet
  facet normal 0.431042 -0.160174 -0.888002
    outer loop
      vertex 33.4112 -26.0424 -23.2208
      vertex 36.8106 -28.5888 -21.1114
      vertex 33.7715 -28.5888 -22.5866
    endloop
  endfacet
  facet normal 0.431032 -0.160189 -0.888004
    outer loop
      vertex 36.8106 -28.5888 -21.1114
      vertex 33.4112 -26.0424 -23.2208
      vertex 37.2978 -25.6758 -21.4004
    endloop
  endfacet
  facet normal 0.553614 0.185084 -0.811945
    outer loop
      vertex 37.2978 -25.6758 -21.4004
      vertex 39.0714 -21.4416 -19.2259
      vertex 40.8106 -25.3444 -18.9297
    endloop
  endfacet
  facet normal 0.553594 0.185098 -0.811956
    outer loop
      vertex 39.0714 -21.4416 -19.2259
      vertex 37.2978 -25.6758 -21.4004
      vertex 36.9793 -21.4416 -20.6523
    endloop
  endfacet
  facet normal 0.553603 0.185079 -0.811955
    outer loop
      vertex 40.4027 -21.4416 -18.3182
      vertex 40.8106 -25.3444 -18.9297
      vertex 39.0714 -21.4416 -19.2259
    endloop
  endfacet
  facet normal 0.577349 -0.17567 -0.797376
    outer loop
      vertex 37.2978 -25.6758 -21.4004
      vertex 37.572 -28.5888 -20.5601
      vertex 36.8106 -28.5888 -21.1114
    endloop
  endfacet
  facet normal 0.577371 -0.175663 -0.797361
    outer loop
      vertex 37.2978 -25.6758 -21.4004
      vertex 40.2161 -28.5888 -18.6455
      vertex 37.572 -28.5888 -20.5601
    endloop
  endfacet
  facet normal 0.577384 -0.175645 -0.797356
    outer loop
      vertex 40.2161 -28.5888 -18.6455
      vertex 37.2978 -25.6758 -21.4004
      vertex 40.8106 -25.3444 -18.9297
    endloop
  endfacet
  facet normal 0.688249 0.181962 -0.702284
    outer loop
      vertex 40.8106 -25.3444 -18.9297
      vertex 42.3076 -21.4416 -16.4514
      vertex 43.8429 -25.0584 -15.8839
    endloop
  endfacet
  facet normal 0.688243 0.181968 -0.702289
    outer loop
      vertex 42.3076 -21.4416 -16.4514
      vertex 40.8106 -25.3444 -18.9297
      vertex 40.4027 -21.4416 -18.3182
    endloop
  endfacet
  facet normal 0.688247 0.181961 -0.702286
    outer loop
      vertex 43.3731 -21.4416 -15.4072
      vertex 43.8429 -25.0584 -15.8839
      vertex 42.3076 -21.4416 -16.4514
    endloop
  endfacet
  facet normal 0.704716 -0.189034 -0.683843
    outer loop
      vertex 40.8106 -25.3444 -18.9297
      vertex 40.9434 -28.5888 -17.896
      vertex 40.2161 -28.5888 -18.6455
    endloop
  endfacet
  facet normal 0.704707 -0.189019 -0.683856
    outer loop
      vertex 40.9434 -28.5888 -17.896
      vertex 43.8429 -25.0584 -15.8839
      vertex 43.1474 -28.5888 -15.6248
    endloop
  endfacet
  facet normal 0.704716 -0.189034 -0.683843
    outer loop
      vertex 43.8429 -25.0584 -15.8839
      vertex 40.9434 -28.5888 -17.896
      vertex 40.8106 -25.3444 -18.9297
    endloop
  endfacet
  facet normal 0.801474 0.179311 -0.570515
    outer loop
      vertex 43.8429 -25.0584 -15.8839
      vertex 44.985 -21.4416 -13.1427
      vertex 46.3026 -24.8263 -12.3555
    endloop
  endfacet
  facet normal 0.801483 0.179301 -0.570506
    outer loop
      vertex 44.985 -21.4416 -13.1427
      vertex 43.8429 -25.0584 -15.8839
      vertex 43.3731 -21.4416 -15.4072
    endloop
  endfacet
  facet normal 0.801491 0.179324 -0.570486
    outer loop
      vertex 45.7928 -21.4416 -12.0078
      vertex 46.3026 -24.8263 -12.3555
      vertex 44.985 -21.4416 -13.1427
    endloop
  endfacet
  facet normal 0.809889 -0.200021 -0.551427
    outer loop
      vertex 43.8429 -25.0584 -15.8839
      vertex 43.7851 -28.5888 -14.6882
      vertex 43.1474 -28.5888 -15.6248
    endloop
  endfacet
  facet normal 0.809886 -0.200016 -0.551433
    outer loop
      vertex 43.7851 -28.5888 -14.6882
      vertex 46.3026 -24.8263 -12.3555
      vertex 45.5195 -28.5888 -12.1409
    endloop
  endfacet
  facet normal 0.809888 -0.200021 -0.551428
    outer loop
      vertex 46.3026 -24.8263 -12.3555
      vertex 43.7851 -28.5888 -14.6882
      vertex 43.8429 -25.0584 -15.8839
    endloop
  endfacet
  facet normal 0.889674 0.177221 -0.4208
    outer loop
      vertex 46.3026 -24.8263 -12.3555
      vertex 47.0183 -21.4416 -9.41686
      vertex 48.115 -24.6554 -8.45167
    endloop
  endfacet
  facet normal 0.889669 0.177229 -0.420808
    outer loop
      vertex 47.0183 -21.4416 -9.41686
      vertex 46.3026 -24.8263 -12.3555
      vertex 45.7928 -21.4416 -12.0078
    endloop
  endfacet
  facet normal 0.889669 0.177215 -0.420814
    outer loop
      vertex 47.5818 -21.4416 -8.22553
      vertex 48.115 -24.6554 -8.45167
      vertex 47.0183 -21.4416 -9.41686
    endloop
  endfacet
  facet normal 0.890545 -0.208414 -0.404342
    outer loop
      vertex 46.3026 -24.8263 -12.3555
      vertex 46.0169 -28.5888 -11.0454
      vertex 45.5195 -28.5888 -12.1409
    endloop
  endfacet
  facet normal 0.890563 -0.208437 -0.404291
    outer loop
      vertex 46.0169 -28.5888 -11.0454
      vertex 48.115 -24.6554 -8.45167
      vertex 47.264 -28.5888 -8.29832
    endloop
  endfacet
  facet normal 0.890554 -0.208409 -0.404327
    outer loop
      vertex 48.115 -24.6554 -8.45167
      vertex 46.0169 -28.5888 -11.0454
      vertex 46.3026 -24.8263 -12.3555
    endloop
  endfacet
  facet normal 0.950056 0.175783 -0.257862
    outer loop
      vertex 48.115 -24.6554 -8.45167
      vertex 48.3475 -21.4416 -5.40423
      vertex 49.2249 -24.5507 -4.29103
    endloop
  endfacet
  facet normal 0.950063 0.175768 -0.257847
    outer loop
      vertex 48.3475 -21.4416 -5.40423
      vertex 48.115 -24.6554 -8.45167
      vertex 47.5818 -21.4416 -8.22553
    endloop
  endfacet
  facet normal 0.950059 0.175788 -0.257851
    outer loop
      vertex 48.6798 -21.4416 -4.17986
      vertex 49.2249 -24.5507 -4.29103
      vertex 48.3475 -21.4416 -5.40423
    endloop
  endfacet
  facet normal 0.94513 -0.214101 -0.24676
    outer loop
      vertex 48.115 -24.6554 -8.45167
      vertex 47.5804 -28.5888 -7.08646
      vertex 47.264 -28.5888 -8.29832
    endloop
  endfacet
  facet normal 0.945138 -0.214104 -0.246727
    outer loop
      vertex 47.5804 -28.5888 -7.08646
      vertex 49.2249 -24.5507 -4.29103
      vertex 48.331 -28.5888 -4.21113
    endloop
  endfacet
  facet normal 0.945137 -0.214095 -0.246739
    outer loop
      vertex 49.2249 -24.5507 -4.29103
      vertex 47.5804 -28.5888 -7.08646
      vertex 48.115 -24.6554 -8.45167
    endloop
  endfacet
  facet normal 0.980722 0.175037 -0.0868725
    outer loop
      vertex 49.2249 -24.5507 -4.29103
      vertex 48.9401 -21.4416 -1.24175
      vertex 49.5987 -24.5154 0
    endloop
  endfacet
  facet normal 0.980718 0.17505 -0.0868861
    outer loop
      vertex 48.9401 -21.4416 -1.24175
      vertex 49.2249 -24.5507 -4.29103
      vertex 48.6798 -21.4416 -4.17986
    endloop
  endfacet
  facet normal 0.980723 0.175068 -0.086798
    outer loop
      vertex 49.05 -21.4416 0
      vertex 49.5987 -24.5154 0
      vertex 48.9401 -21.4416 -1.24175
    endloop
  endfacet
  facet normal 0.972653 -0.216954 -0.0829312
    outer loop
      vertex 49.2249 -24.5507 -4.29103
      vertex 48.4397 -28.5888 -2.93625
      vertex 48.331 -28.5888 -4.21113
    endloop
  endfacet
  facet normal 0.972651 -0.216956 -0.0829465
    outer loop
      vertex 48.4397 -28.5888 -2.93625
      vertex 49.5987 -24.5154 0
      vertex 48.6901 -28.5888 0
    endloop
  endfacet
  facet normal 0.972651 -0.216958 -0.0829447
    outer loop
      vertex 49.5987 -24.5154 0
      vertex 48.4397 -28.5888 -2.93625
      vertex 49.2249 -24.5507 -4.29103
    endloop
  endfacet
  facet normal -0.104702 0.201502 -0.973876
    outer loop
      vertex 24.8 -26.8547 -24.6937
      vertex 24.9953 -26.832 -24.71
      vertex 24.9851 -26.8373 -24.71
    endloop
  endfacet
  facet normal -0.104504 0.19949 -0.974311
    outer loop
      vertex 24.9953 -26.832 -24.71
      vertex 24.8 -26.8547 -24.6937
      vertex 24.8 -26.3199 -24.5842
    endloop
  endfacet
  facet normal -0.105423 0.199133 -0.974285
    outer loop
      vertex 24.8 -26.3199 -24.5842
      vertex 24.997 -26.8311 -24.71
      vertex 24.9953 -26.832 -24.71
    endloop
  endfacet
  facet normal -0.104262 0.199588 -0.974317
    outer loop
      vertex 24.997 -26.8311 -24.71
      vertex 24.8 -26.3199 -24.5842
      vertex 25.1375 -21.4416 -23.621
    endloop
  endfacet
  facet normal -0.104502 0.199599 -0.974289
    outer loop
      vertex 25.1375 -21.4416 -23.621
      vertex 24.8 -26.3199 -24.5842
      vertex 24.8 -21.4416 -23.5848
    endloop
  endfacet
  facet normal -0.0773154 -0.105596 -0.991399
    outer loop
      vertex 24.8 -26.8547 -24.6937
      vertex 24.9959 -26.8451 -24.71
      vertex 24.8026 -28.5888 -24.5092
    endloop
  endfacet
  facet normal -0.0762676 -0.105603 -0.991479
    outer loop
      vertex 24.8 -26.8547 -24.6937
      vertex 24.8026 -28.5888 -24.5092
      vertex 24.8 -28.5888 -24.509
    endloop
  endfacet
  facet normal -0.0772378 -0.106945 -0.99126
    outer loop
      vertex 24.9959 -26.8451 -24.71
      vertex 24.8 -26.8547 -24.6937
      vertex 24.9851 -26.8373 -24.71
    endloop
  endfacet
endsolid OpenSCAD_Model
