solid OpenSCAD_Model
  facet normal 0 0 -1
    outer loop
      vertex 24.8 -135.797 0
      vertex 38.1991 -138.59 0
      vertex 24.8 -142.944 0
    endloop
  endfacet
  facet normal 0 0 -1
    outer loop
      vertex 24.8 -142.944 0
      vertex 38.1991 -138.59 0
      vertex 38.5042 -142.944 0
    endloop
  endfacet
  facet normal 0 0 -1
    outer loop
      vertex 38.1991 -138.59 0
      vertex 24.8 -135.797 0
      vertex 38.5792 -135.797 0
    endloop
  endfacet
  facet normal -1 0 0
    outer loop
      vertex 24.8 -135.797 0
      vertex 24.8 -138.316 16.6376
      vertex 24.8 -135.797 16.9194
    endloop
  endfacet
  facet normal -1 0 0
    outer loop
      vertex 24.8 -135.797 0
      vertex 24.8 -139.854 16.4655
      vertex 24.8 -138.316 16.6376
    endloop
  endfacet
  facet normal -1 0 0
    outer loop
      vertex 24.8 -142.944 0
      vertex 24.8 -139.854 16.4655
      vertex 24.8 -135.797 0
    endloop
  endfacet
  facet normal -1 0 0
    outer loop
      vertex 24.8 -139.854 16.4655
      vertex 24.8 -142.944 0
      vertex 24.8 -142.944 16.3289
    endloop
  endfacet
  facet normal 0 1 0
    outer loop
      vertex 24.8 -135.797 0
      vertex 25.5316 -135.797 16.7148
      vertex 27.445 -135.797 16.1797
    endloop
  endfacet
  facet normal 0 1 0
    outer loop
      vertex 24.8 -135.797 0
      vertex 27.445 -135.797 16.1797
      vertex 28.2834 -135.797 15.7769
    endloop
  endfacet
  facet normal 0 1 0
    outer loop
      vertex 24.8 -135.797 0
      vertex 28.2834 -135.797 15.7769
      vertex 30.1305 -135.797 14.8898
    endloop
  endfacet
  facet normal 0 1 0
    outer loop
      vertex 24.8 -135.797 0
      vertex 30.1305 -135.797 14.8898
      vertex 30.8383 -135.797 14.3821
    endloop
  endfacet
  facet normal 0 1 0
    outer loop
      vertex 24.8 -135.797 0
      vertex 30.8383 -135.797 14.3821
      vertex 32.5511 -135.797 13.1536
    endloop
  endfacet
  facet normal 0 1 0
    outer loop
      vertex 24.8 -135.797 0
      vertex 32.5511 -135.797 13.1536
      vertex 33.1236 -135.797 12.569
    endloop
  endfacet
  facet normal 0 1 0
    outer loop
      vertex 24.8 -135.797 0
      vertex 33.1236 -135.797 12.569
      vertex 34.6355 -135.797 11.0248
    endloop
  endfacet
  facet normal 0 1 0
    outer loop
      vertex 24.8 -135.797 0
      vertex 34.6355 -135.797 11.0248
      vertex 35.0733 -135.797 10.3874
    endloop
  endfacet
  facet normal 0 1 0
    outer loop
      vertex 24.8 -135.797 0
      vertex 35.0733 -135.797 10.3874
      vertex 36.3229 -135.797 8.568
    endloop
  endfacet
  facet normal 0 1 0
    outer loop
      vertex 24.8 -135.797 0
      vertex 36.3229 -135.797 8.568
      vertex 36.6299 -135.797 7.89762
    endloop
  endfacet
  facet normal 0 1 0
    outer loop
      vertex 24.8 -135.797 0
      vertex 36.6299 -135.797 7.89762
      vertex 37.5643 -135.797 5.85693
    endloop
  endfacet
  facet normal 0 1 0
    outer loop
      vertex 24.8 -135.797 0
      vertex 37.5643 -135.797 5.85693
      vertex 37.7454 -135.797 5.1689
    endloop
  endfacet
  facet normal 0 1 0
    outer loop
      vertex 24.8 -135.797 0
      vertex 37.7454 -135.797 5.1689
      vertex 38.3237 -135.797 2.97242
    endloop
  endfacet
  facet normal 0 1 0
    outer loop
      vertex 24.8 -135.797 0
      vertex 38.3237 -135.797 2.97242
      vertex 38.3833 -135.797 2.27837
    endloop
  endfacet
  facet normal 0 1 0
    outer loop
      vertex 24.8 -135.797 0
      vertex 38.3833 -135.797 2.27837
      vertex 38.5792 -135.797 1.6979e-06
    endloop
  endfacet
  facet normal 0 1 0
    outer loop
      vertex 24.8 -135.797 0
      vertex 38.5792 -135.797 1.6979e-06
      vertex 38.5792 -135.797 0
    endloop
  endfacet
  facet normal 0 1 0
    outer loop
      vertex 25.5316 -135.797 16.7148
      vertex 24.8 -135.797 0
      vertex 24.8 -135.797 16.9194
    endloop
  endfacet
  facet normal 0 -1 0
    outer loop
      vertex 24.8 -142.944 0
      vertex 26.877 -142.944 15.7613
      vertex 24.8 -142.944 16.3289
    endloop
  endfacet
  facet normal 0 -1 -0
    outer loop
      vertex 26.877 -142.944 15.7613
      vertex 24.8 -142.944 0
      vertex 27.5788 -142.944 15.5695
    endloop
  endfacet
  facet normal 0 -1 -0
    outer loop
      vertex 27.5788 -142.944 15.5695
      vertex 24.8 -142.944 0
      vertex 29.505 -142.944 14.6637
    endloop
  endfacet
  facet normal 0 -1 -0
    outer loop
      vertex 29.505 -142.944 14.6637
      vertex 24.8 -142.944 0
      vertex 30.2122 -142.944 14.3312
    endloop
  endfacet
  facet normal 0 -1 -0
    outer loop
      vertex 30.2122 -142.944 14.3312
      vertex 24.8 -142.944 0
      vertex 31.9074 -142.944 13.14
    endloop
  endfacet
  facet normal 0 -1 -0
    outer loop
      vertex 31.9074 -142.944 13.14
      vertex 24.8 -142.944 0
      vertex 32.5868 -142.944 12.6625
    endloop
  endfacet
  facet normal 0 -1 -0
    outer loop
      vertex 32.5868 -142.944 12.6625
      vertex 24.8 -142.944 0
      vertex 34.0154 -142.944 11.2325
    endloop
  endfacet
  facet normal 0 -1 -0
    outer loop
      vertex 34.0154 -142.944 11.2325
      vertex 24.8 -142.944 0
      vertex 34.6323 -142.944 10.6149
    endloop
  endfacet
  facet normal 0 -1 -0
    outer loop
      vertex 34.6323 -142.944 10.6149
      vertex 24.8 -142.944 0
      vertex 35.7678 -142.944 8.99408
    endloop
  endfacet
  facet normal 0 -1 -0
    outer loop
      vertex 35.7678 -142.944 8.99408
      vertex 24.8 -142.944 0
      vertex 36.2887 -142.944 8.25048
    endloop
  endfacet
  facet normal 0 -1 -0
    outer loop
      vertex 36.2887 -142.944 8.25048
      vertex 24.8 -142.944 0
      vertex 37.1121 -142.944 6.48717
    endloop
  endfacet
  facet normal 0 -1 -0
    outer loop
      vertex 37.1121 -142.944 6.48717
      vertex 24.8 -142.944 0
      vertex 37.5075 -142.944 5.64042
    endloop
  endfacet
  facet normal 0 -1 -0
    outer loop
      vertex 37.5075 -142.944 5.64042
      vertex 24.8 -142.944 0
      vertex 38.0063 -142.944 3.78226
    endloop
  endfacet
  facet normal 0 -1 -0
    outer loop
      vertex 38.0063 -142.944 3.78226
      vertex 24.8 -142.944 0
      vertex 38.2532 -142.944 2.86271
    endloop
  endfacet
  facet normal 0 -1 -0
    outer loop
      vertex 38.2532 -142.944 2.86271
      vertex 24.8 -142.944 0
      vertex 38.4203 -142.944 0.956565
    endloop
  endfacet
  facet normal 0 -1 0
    outer loop
      vertex 38.5042 -142.944 0
      vertex 38.4203 -142.944 0.956565
      vertex 24.8 -142.944 0
    endloop
  endfacet
  facet normal 0 -1 0
    outer loop
      vertex 38.4203 -142.944 0.956565
      vertex 38.5042 -142.944 0
      vertex 38.5042 -142.944 1.90735e-06
    endloop
  endfacet
  facet normal 0.990866 -0.134847 0
    outer loop
      vertex 38.5792 -135.797 0
      vertex 38.1991 -138.59 1.90735e-06
      vertex 38.1991 -138.59 0
    endloop
  endfacet
  facet normal 0.990866 -0.134847 0
    outer loop
      vertex 38.1991 -138.59 1.90735e-06
      vertex 38.5792 -135.797 0
      vertex 38.5792 -135.797 1.6979e-06
    endloop
  endfacet
  facet normal 0.997554 0.0699021 0
    outer loop
      vertex 38.5042 -142.944 1.90735e-06
      vertex 38.1991 -138.59 0
      vertex 38.1991 -138.59 1.90735e-06
    endloop
  endfacet
  facet normal 0.997554 0.0699021 0
    outer loop
      vertex 38.1991 -138.59 0
      vertex 38.5042 -142.944 1.90735e-06
      vertex 38.5042 -142.944 0
    endloop
  endfacet
  facet normal 0.98729 -0.13436 0.0848897
    outer loop
      vertex 38.3833 -135.797 2.27837
      vertex 38.1991 -138.59 1.90735e-06
      vertex 38.5792 -135.797 1.6979e-06
    endloop
  endfacet
  facet normal 0.987288 -0.134367 0.0848981
    outer loop
      vertex 38.1991 -138.59 1.90735e-06
      vertex 38.3833 -135.797 2.27837
      vertex 37.9443 -138.614 2.92511
    endloop
  endfacet
  facet normal 0.987294 -0.134395 0.0847817
    outer loop
      vertex 38.3833 -135.797 2.27837
      vertex 38.3237 -135.797 2.97242
      vertex 37.9443 -138.614 2.92511
    endloop
  endfacet
  facet normal 0.993757 0.069636 0.0871623
    outer loop
      vertex 38.4203 -142.944 0.956565
      vertex 38.5042 -142.944 1.90735e-06
      vertex 38.1991 -138.59 1.90735e-06
    endloop
  endfacet
  facet normal 0.993761 0.069639 0.0871169
    outer loop
      vertex 38.4203 -142.944 0.956565
      vertex 37.9443 -138.614 2.92511
      vertex 38.2532 -142.944 2.86271
    endloop
  endfacet
  facet normal 0.99376 0.0696303 0.0871356
    outer loop
      vertex 37.9443 -138.614 2.92511
      vertex 38.4203 -142.944 0.956565
      vertex 38.1991 -138.59 1.90735e-06
    endloop
  endfacet
  facet normal 0.958412 -0.133319 0.252335
    outer loop
      vertex 37.7454 -135.797 5.1689
      vertex 37.9443 -138.614 2.92511
      vertex 38.3237 -135.797 2.97242
    endloop
  endfacet
  facet normal 0.958429 -0.133282 0.25229
    outer loop
      vertex 37.9443 -138.614 2.92511
      vertex 37.7454 -135.797 5.1689
      vertex 37.1877 -138.686 5.76133
    endloop
  endfacet
  facet normal 0.958432 -0.133286 0.252274
    outer loop
      vertex 37.7454 -135.797 5.1689
      vertex 37.5643 -135.797 5.85693
      vertex 37.1877 -138.686 5.76133
    endloop
  endfacet
  facet normal 0.963749 0.0650242 0.258767
    outer loop
      vertex 38.0063 -142.944 3.78226
      vertex 38.2532 -142.944 2.86271
      vertex 37.9443 -138.614 2.92511
    endloop
  endfacet
  facet normal 0.963763 0.0650378 0.25871
    outer loop
      vertex 38.0063 -142.944 3.78226
      vertex 37.1877 -138.686 5.76133
      vertex 37.5075 -142.944 5.64042
    endloop
  endfacet
  facet normal 0.963755 0.0650199 0.258745
    outer loop
      vertex 37.1877 -138.686 5.76133
      vertex 38.0063 -142.944 3.78226
      vertex 37.9443 -138.614 2.92511
    endloop
  endfacet
  facet normal 0.901365 -0.131156 0.412721
    outer loop
      vertex 36.6299 -135.797 7.89762
      vertex 37.1877 -138.686 5.76133
      vertex 37.5643 -135.797 5.85693
    endloop
  endfacet
  facet normal 0.901363 -0.131159 0.412724
    outer loop
      vertex 37.1877 -138.686 5.76133
      vertex 36.6299 -135.797 7.89762
      vertex 35.9523 -138.802 8.4225
    endloop
  endfacet
  facet normal 0.901344 -0.131147 0.41277
    outer loop
      vertex 36.6299 -135.797 7.89762
      vertex 36.3229 -135.797 8.568
      vertex 35.9523 -138.802 8.4225
    endloop
  endfacet
  facet normal 0.904661 0.0559495 0.422442
    outer loop
      vertex 37.5075 -142.944 5.64042
      vertex 37.1877 -138.686 5.76133
      vertex 37.1121 -142.944 6.48717
    endloop
  endfacet
  facet normal 0.904662 0.0559294 0.422443
    outer loop
      vertex 37.1121 -142.944 6.48717
      vertex 35.9523 -138.802 8.4225
      vertex 36.2887 -142.944 8.25048
    endloop
  endfacet
  facet normal 0.904673 0.055945 0.422417
    outer loop
      vertex 35.9523 -138.802 8.4225
      vertex 37.1121 -142.944 6.48717
      vertex 37.1877 -138.686 5.76133
    endloop
  endfacet
  facet normal 0.817522 -0.12801 0.56149
    outer loop
      vertex 35.0733 -135.797 10.3874
      vertex 35.9523 -138.802 8.4225
      vertex 36.3229 -135.797 8.568
    endloop
  endfacet
  facet normal 0.817513 -0.12802 0.561501
    outer loop
      vertex 35.9523 -138.802 8.4225
      vertex 35.0733 -135.797 10.3874
      vertex 34.2755 -138.96 10.8278
    endloop
  endfacet
  facet normal 0.817509 -0.128018 0.561508
    outer loop
      vertex 35.0733 -135.797 10.3874
      vertex 34.6355 -135.797 11.0248
      vertex 34.2755 -138.96 10.8278
    endloop
  endfacet
  facet normal 0.81829 0.0426526 0.573221
    outer loop
      vertex 36.2887 -142.944 8.25048
      vertex 35.9523 -138.802 8.4225
      vertex 35.7678 -142.944 8.99408
    endloop
  endfacet
  facet normal 0.818267 0.0426485 0.573254
    outer loop
      vertex 35.7678 -142.944 8.99408
      vertex 34.2755 -138.96 10.8278
      vertex 34.6323 -142.944 10.6149
    endloop
  endfacet
  facet normal 0.818274 0.0426564 0.573243
    outer loop
      vertex 34.2755 -138.96 10.8278
      vertex 35.7678 -142.944 8.99408
      vertex 35.9523 -138.802 8.4225
    endloop
  endfacet
  facet normal 0.709031 -0.123936 0.694201
    outer loop
      vertex 33.1236 -135.797 12.569
      vertex 34.2755 -138.96 10.8278
      vertex 34.6355 -135.797 11.0248
    endloop
  endfacet
  facet normal 0.709006 -0.123957 0.694222
    outer loop
      vertex 34.2755 -138.96 10.8278
      vertex 33.1236 -135.797 12.569
      vertex 32.2085 -139.155 12.904
    endloop
  endfacet
  facet normal 0.708954 -0.123937 0.69428
    outer loop
      vertex 33.1236 -135.797 12.569
      vertex 32.5511 -135.797 13.1536
      vertex 32.2085 -139.155 12.904
    endloop
  endfacet
  facet normal 0.707276 0.0255893 0.706474
    outer loop
      vertex 34.6323 -142.944 10.6149
      vertex 34.2755 -138.96 10.8278
      vertex 34.0154 -142.944 11.2325
    endloop
  endfacet
  facet normal 0.707222 0.025578 0.706529
    outer loop
      vertex 34.0154 -142.944 11.2325
      vertex 32.2085 -139.155 12.904
      vertex 32.5868 -142.944 12.6625
    endloop
  endfacet
  facet normal 0.70724 0.0255953 0.70651
    outer loop
      vertex 32.2085 -139.155 12.904
      vertex 34.0154 -142.944 11.2325
      vertex 34.2755 -138.96 10.8278
    endloop
  endfacet
  facet normal 0.578688 -0.119011 0.806819
    outer loop
      vertex 30.8383 -135.797 14.3821
      vertex 32.2085 -139.155 12.904
      vertex 32.5511 -135.797 13.1536
    endloop
  endfacet
  facet normal 0.578676 -0.11902 0.806826
    outer loop
      vertex 32.2085 -139.155 12.904
      vertex 30.8383 -135.797 14.3821
      vertex 29.8138 -139.381 14.5882
    endloop
  endfacet
  facet normal 0.578711 -0.119031 0.806799
    outer loop
      vertex 30.8383 -135.797 14.3821
      vertex 30.1305 -135.797 14.8898
      vertex 29.8138 -139.381 14.5882
    endloop
  endfacet
  facet normal 0.575005 0.00526401 0.818133
    outer loop
      vertex 32.5868 -142.944 12.6625
      vertex 32.2085 -139.155 12.904
      vertex 31.9074 -142.944 13.14
    endloop
  endfacet
  facet normal 0.574933 0.00527286 0.818183
    outer loop
      vertex 29.8138 -139.381 14.5882
      vertex 31.9074 -142.944 13.14
      vertex 32.2085 -139.155 12.904
    endloop
  endfacet
  facet normal 0.574931 0.00527048 0.818185
    outer loop
      vertex 31.9074 -142.944 13.14
      vertex 29.8138 -139.381 14.5882
      vertex 30.2122 -142.944 14.3312
    endloop
  endfacet
  facet normal 0.430135 -0.113377 0.895617
    outer loop
      vertex 28.2834 -135.797 15.7769
      vertex 29.8138 -139.381 14.5882
      vertex 30.1305 -135.797 14.8898
    endloop
  endfacet
  facet normal 0.43017 -0.113357 0.895603
    outer loop
      vertex 29.8138 -139.381 14.5882
      vertex 28.2834 -135.797 15.7769
      vertex 27.1644 -139.631 15.8291
    endloop
  endfacet
  facet normal 0.43026 -0.113384 0.895556
    outer loop
      vertex 28.2834 -135.797 15.7769
      vertex 27.445 -135.797 16.1797
      vertex 27.1644 -139.631 15.8291
    endloop
  endfacet
  facet normal 0.425416 -0.0176969 0.904825
    outer loop
      vertex 30.2122 -142.944 14.3312
      vertex 29.8138 -139.381 14.5882
      vertex 29.505 -142.944 14.6637
    endloop
  endfacet
  facet normal 0.425455 -0.0177007 0.904807
    outer loop
      vertex 27.1644 -139.631 15.8291
      vertex 29.505 -142.944 14.6637
      vertex 29.8138 -139.381 14.5882
    endloop
  endfacet
  facet normal 0.425482 -0.0176773 0.904794
    outer loop
      vertex 29.505 -142.944 14.6637
      vertex 27.1644 -139.631 15.8291
      vertex 27.5788 -142.944 15.5695
    endloop
  endfacet
  facet normal 0.267776 -0.107116 0.957508
    outer loop
      vertex 24.8 -138.316 16.6376
      vertex 27.445 -135.797 16.1797
      vertex 25.5316 -135.797 16.7148
    endloop
  endfacet
  facet normal 0.267814 -0.107158 0.957493
    outer loop
      vertex 27.445 -135.797 16.1797
      vertex 24.8 -138.316 16.6376
      vertex 27.1644 -139.631 15.8291
    endloop
  endfacet
  facet normal 0.267823 -0.107142 0.957492
    outer loop
      vertex 27.1644 -139.631 15.8291
      vertex 24.8 -138.316 16.6376
      vertex 24.8 -139.854 16.4655
    endloop
  endfacet
  facet normal 0.267778 -0.107116 0.957508
    outer loop
      vertex 25.5316 -135.797 16.7148
      vertex 24.8 -135.797 16.9194
      vertex 24.8 -138.316 16.6376
    endloop
  endfacet
  facet normal 0.26339 -0.0425718 0.96375
    outer loop
      vertex 27.5788 -142.944 15.5695
      vertex 27.1644 -139.631 15.8291
      vertex 26.877 -142.944 15.7613
    endloop
  endfacet
  facet normal 0.263416 -0.0425739 0.963743
    outer loop
      vertex 24.8 -139.854 16.4655
      vertex 26.877 -142.944 15.7613
      vertex 27.1644 -139.631 15.8291
    endloop
  endfacet
  facet normal 0.263373 -0.0426047 0.963753
    outer loop
      vertex 26.877 -142.944 15.7613
      vertex 24.8 -139.854 16.4655
      vertex 24.8 -142.944 16.3289
    endloop
  endfacet
endsolid OpenSCAD_Model
