solid OpenSCAD_Model
  facet normal 0 0 -1
    outer loop
      vertex 24.8 -35.736 0
      vertex 46.1724 -42.8832 0
      vertex 24.8 -42.8832 0
    endloop
  endfacet
  facet normal 0 0 -1
    outer loop
      vertex 46.1724 -42.8832 0
      vertex 24.8 -35.736 0
      vertex 46.738 -37.3407 0
    endloop
  endfacet
  facet normal 0 0 -1
    outer loop
      vertex 46.738 -37.3407 0
      vertex 24.8 -35.736 0
      vertex 47.096 -35.736 0
    endloop
  endfacet
  facet normal -1 0 0
    outer loop
      vertex 24.8 -35.736 0
      vertex 24.8 -36.7364 23.4812
      vertex 24.8 -35.736 23.6075
    endloop
  endfacet
  facet normal -1 0 0
    outer loop
      vertex 24.8 -35.736 0
      vertex 24.8 -39.4102 23.1437
      vertex 24.8 -36.7364 23.4812
    endloop
  endfacet
  facet normal -1 0 0
    outer loop
      vertex 24.8 -42.8832 0
      vertex 24.8 -39.4102 23.1437
      vertex 24.8 -35.736 0
    endloop
  endfacet
  facet normal -1 0 0
    outer loop
      vertex 24.8 -39.4102 23.1437
      vertex 24.8 -42.8832 0
      vertex 24.8 -42.8832 22.9646
    endloop
  endfacet
  facet normal 0 1 0
    outer loop
      vertex 29.1196 -35.736 22.9811
      vertex 25.2339 -35.736 23.5642
      vertex 28.0551 -35.736 23.2826
    endloop
  endfacet
  facet normal 0 1 0
    outer loop
      vertex 24.8 -35.736 0
      vertex 25.2339 -35.736 23.5642
      vertex 29.1196 -35.736 22.9811
    endloop
  endfacet
  facet normal 0 1 0
    outer loop
      vertex 24.8 -35.736 0
      vertex 29.1196 -35.736 22.9811
      vertex 31.9622 -35.736 22.1757
    endloop
  endfacet
  facet normal 0 1 0
    outer loop
      vertex 24.8 -35.736 0
      vertex 31.9622 -35.736 22.1757
      vertex 32.8518 -35.736 21.744
    endloop
  endfacet
  facet normal 0 1 0
    outer loop
      vertex 24.8 -35.736 0
      vertex 32.8518 -35.736 21.744
      vertex 35.6154 -35.736 20.4025
    endloop
  endfacet
  facet normal 0 1 0
    outer loop
      vertex 24.8 -35.736 0
      vertex 35.6154 -35.736 20.4025
      vertex 36.3277 -35.736 19.8868
    endloop
  endfacet
  facet normal 0 1 0
    outer loop
      vertex 24.8 -35.736 0
      vertex 36.3277 -35.736 19.8868
      vertex 38.9065 -35.736 18.0194
    endloop
  endfacet
  facet normal 0 1 0
    outer loop
      vertex 24.8 -35.736 0
      vertex 38.9065 -35.736 18.0194
      vertex 39.4506 -35.736 17.4588
    endloop
  endfacet
  facet normal 0 1 0
    outer loop
      vertex 24.8 -35.736 0
      vertex 39.4506 -35.736 17.4588
      vertex 41.7394 -35.736 15.1001
    endloop
  endfacet
  facet normal 0 1 0
    outer loop
      vertex 24.8 -35.736 0
      vertex 41.7394 -35.736 15.1001
      vertex 42.1315 -35.736 14.5243
    endloop
  endfacet
  facet normal 0 1 0
    outer loop
      vertex 24.8 -35.736 0
      vertex 42.1315 -35.736 14.5243
      vertex 44.0318 -35.736 11.7332
    endloop
  endfacet
  facet normal 0 1 0
    outer loop
      vertex 24.8 -35.736 0
      vertex 44.0318 -35.736 11.7332
      vertex 44.2916 -35.736 11.1611
    endloop
  endfacet
  facet normal 0 1 0
    outer loop
      vertex 24.8 -35.736 0
      vertex 44.2916 -35.736 11.1611
      vertex 45.7178 -35.736 8.01967
    endloop
  endfacet
  facet normal 0 1 0
    outer loop
      vertex 24.8 -35.736 0
      vertex 45.7178 -35.736 8.01967
      vertex 45.8639 -35.736 7.46001
    endloop
  endfacet
  facet normal 0 1 0
    outer loop
      vertex 24.8 -35.736 0
      vertex 45.8639 -35.736 7.46001
      vertex 46.749 -35.736 4.06973
    endloop
  endfacet
  facet normal 0 1 0
    outer loop
      vertex 24.8 -35.736 0
      vertex 46.749 -35.736 4.06973
      vertex 46.7956 -35.736 3.52305
    endloop
  endfacet
  facet normal 0 1 0
    outer loop
      vertex 24.8 -35.736 0
      vertex 46.7956 -35.736 3.52305
      vertex 47.096 -35.736 0
    endloop
  endfacet
  facet normal 0 1 0
    outer loop
      vertex 25.2339 -35.736 23.5642
      vertex 24.8 -35.736 0
      vertex 24.8 -35.736 23.6075
    endloop
  endfacet
  facet normal 0 -1 0
    outer loop
      vertex 24.8 -42.8832 0
      vertex 26.2501 -42.8832 22.8301
      vertex 24.8 -42.8832 22.9646
    endloop
  endfacet
  facet normal 0 -1 -0
    outer loop
      vertex 26.2501 -42.8832 22.8301
      vertex 24.8 -42.8832 0
      vertex 27.3698 -42.8832 22.7263
    endloop
  endfacet
  facet normal 0 -1 -0
    outer loop
      vertex 27.3698 -42.8832 22.7263
      vertex 24.8 -42.8832 0
      vertex 30.0201 -42.8832 21.9972
    endloop
  endfacet
  facet normal 0 -1 -0
    outer loop
      vertex 30.0201 -42.8832 21.9972
      vertex 24.8 -42.8832 0
      vertex 31.2119 -42.8832 21.6693
    endloop
  endfacet
  facet normal 0 -1 -0
    outer loop
      vertex 31.2119 -42.8832 21.6693
      vertex 24.8 -42.8832 0
      vertex 33.5991 -42.8832 20.5337
    endloop
  endfacet
  facet normal 0 -1 -0
    outer loop
      vertex 33.5991 -42.8832 20.5337
      vertex 24.8 -42.8832 0
      vertex 34.8117 -42.8832 19.9568
    endloop
  endfacet
  facet normal 0 -1 -0
    outer loop
      vertex 34.8117 -42.8832 19.9568
      vertex 24.8 -42.8832 0
      vertex 36.8868 -42.8832 18.4785
    endloop
  endfacet
  facet normal 0 -1 -0
    outer loop
      vertex 36.8868 -42.8832 18.4785
      vertex 24.8 -42.8832 0
      vertex 38.061 -42.8832 17.6419
    endloop
  endfacet
  facet normal 0 -1 -0
    outer loop
      vertex 38.061 -42.8832 17.6419
      vertex 24.8 -42.8832 0
      vertex 39.7895 -42.8832 15.8858
    endloop
  endfacet
  facet normal 0 -1 -0
    outer loop
      vertex 39.7895 -42.8832 15.8858
      vertex 24.8 -42.8832 0
      vertex 40.8627 -42.8832 14.7954
    endloop
  endfacet
  facet normal 0 -1 -0
    outer loop
      vertex 40.8627 -42.8832 14.7954
      vertex 24.8 -42.8832 0
      vertex 42.2221 -42.8832 12.8246
    endloop
  endfacet
  facet normal 0 -1 -0
    outer loop
      vertex 42.2221 -42.8832 12.8246
      vertex 24.8 -42.8832 0
      vertex 43.1331 -42.8832 11.5038
    endloop
  endfacet
  facet normal 0 -1 -0
    outer loop
      vertex 43.1331 -42.8832 11.5038
      vertex 24.8 -42.8832 0
      vertex 44.1103 -42.8832 9.37752
    endloop
  endfacet
  facet normal 0 -1 -0
    outer loop
      vertex 44.1103 -42.8832 9.37752
      vertex 24.8 -42.8832 0
      vertex 44.8047 -42.8832 7.86655
    endloop
  endfacet
  facet normal 0 -1 -0
    outer loop
      vertex 44.8047 -42.8832 7.86655
      vertex 24.8 -42.8832 0
      vertex 45.393 -42.8832 5.63953
    endloop
  endfacet
  facet normal 0 -1 -0
    outer loop
      vertex 45.393 -42.8832 5.63953
      vertex 24.8 -42.8832 0
      vertex 45.8279 -42.8832 3.99317
    endloop
  endfacet
  facet normal 0 -1 -0
    outer loop
      vertex 45.8279 -42.8832 3.99317
      vertex 24.8 -42.8832 0
      vertex 46.0243 -42.8832 1.71627
    endloop
  endfacet
  facet normal 0 -1 -0
    outer loop
      vertex 46.0243 -42.8832 1.71627
      vertex 24.8 -42.8832 0
      vertex 46.1724 -42.8832 0
    endloop
  endfacet
  facet normal 0.972644 -0.216992 0.0829345
    outer loop
      vertex 46.7956 -35.736 3.52305
      vertex 46.738 -37.3407 0
      vertex 47.096 -35.736 0
    endloop
  endfacet
  facet normal 0.972651 -0.216964 0.0829216
    outer loop
      vertex 46.738 -37.3407 0
      vertex 46.7956 -35.736 3.52305
      vertex 46.3864 -37.3739 4.03732
    endloop
  endfacet
  facet normal 0.972652 -0.216967 0.0829106
    outer loop
      vertex 46.7956 -35.736 3.52305
      vertex 46.749 -35.736 4.06973
      vertex 46.3864 -37.3739 4.03732
    endloop
  endfacet
  facet normal 0.991188 -0.101149 0.0855314
    outer loop
      vertex 46.1724 -42.8832 0
      vertex 46.738 -37.3407 0
      vertex 46.0243 -42.8832 1.71627
    endloop
  endfacet
  facet normal 0.991189 -0.101166 0.0854976
    outer loop
      vertex 46.0243 -42.8832 1.71627
      vertex 46.3864 -37.3739 4.03732
      vertex 45.8279 -42.8832 3.99317
    endloop
  endfacet
  facet normal 0.99119 -0.101162 0.0854884
    outer loop
      vertex 46.3864 -37.3739 4.03732
      vertex 46.0243 -42.8832 1.71627
      vertex 46.738 -37.3407 0
    endloop
  endfacet
  facet normal 0.94513 -0.214116 0.246745
    outer loop
      vertex 45.8639 -35.736 7.46001
      vertex 46.3864 -37.3739 4.03732
      vertex 46.749 -35.736 4.06973
    endloop
  endfacet
  facet normal 0.945132 -0.214111 0.246743
    outer loop
      vertex 46.3864 -37.3739 4.03732
      vertex 45.8639 -35.736 7.46001
      vertex 45.3421 -37.4724 7.95197
    endloop
  endfacet
  facet normal 0.945135 -0.214116 0.246729
    outer loop
      vertex 45.8639 -35.736 7.46001
      vertex 45.7178 -35.736 8.01967
      vertex 45.3421 -37.4724 7.95197
    endloop
  endfacet
  facet normal 0.962032 -0.0995616 0.254129
    outer loop
      vertex 45.8279 -42.8832 3.99317
      vertex 46.3864 -37.3739 4.03732
      vertex 45.393 -42.8832 5.63953
    endloop
  endfacet
  facet normal 0.962031 -0.0995608 0.254135
    outer loop
      vertex 45.393 -42.8832 5.63953
      vertex 45.3421 -37.4724 7.95197
      vertex 44.8047 -42.8832 7.86655
    endloop
  endfacet
  facet normal 0.962031 -0.0995602 0.254133
    outer loop
      vertex 45.3421 -37.4724 7.95197
      vertex 45.393 -42.8832 5.63953
      vertex 46.3864 -37.3739 4.03732
    endloop
  endfacet
  facet normal 0.890552 -0.20845 0.404308
    outer loop
      vertex 44.2916 -35.736 11.1611
      vertex 45.3421 -37.4724 7.95197
      vertex 45.7178 -35.736 8.01967
    endloop
  endfacet
  facet normal 0.890553 -0.208447 0.404307
    outer loop
      vertex 45.3421 -37.4724 7.95197
      vertex 44.2916 -35.736 11.1611
      vertex 43.6369 -37.6333 11.625
    endloop
  endfacet
  facet normal 0.89052 -0.208413 0.4044
    outer loop
      vertex 44.2916 -35.736 11.1611
      vertex 44.0318 -35.736 11.7332
      vertex 43.6369 -37.6333 11.625
    endloop
  endfacet
  facet normal 0.904407 -0.0963873 0.415641
    outer loop
      vertex 44.8047 -42.8832 7.86655
      vertex 45.3421 -37.4724 7.95197
      vertex 44.1103 -42.8832 9.37752
    endloop
  endfacet
  facet normal 0.904404 -0.0963857 0.415648
    outer loop
      vertex 44.1103 -42.8832 9.37752
      vertex 43.6369 -37.6333 11.625
      vertex 43.1331 -42.8832 11.5038
    endloop
  endfacet
  facet normal 0.904405 -0.0963851 0.415647
    outer loop
      vertex 43.6369 -37.6333 11.625
      vertex 44.1103 -42.8832 9.37752
      vertex 45.3421 -37.4724 7.95197
    endloop
  endfacet
  facet normal 0.809899 -0.200017 0.551414
    outer loop
      vertex 42.1315 -35.736 14.5243
      vertex 43.6369 -37.6333 11.625
      vertex 44.0318 -35.736 11.7332
    endloop
  endfacet
  facet normal 0.809879 -0.200055 0.551428
    outer loop
      vertex 43.6369 -37.6333 11.625
      vertex 42.1315 -35.736 14.5243
      vertex 41.3226 -37.8516 14.9448
    endloop
  endfacet
  facet normal 0.80985 -0.200033 0.55148
    outer loop
      vertex 42.1315 -35.736 14.5243
      vertex 41.7394 -35.736 15.1001
      vertex 41.3226 -37.8516 14.9448
    endloop
  endfacet
  facet normal 0.819713 -0.0917153 0.565384
    outer loop
      vertex 43.1331 -42.8832 11.5038
      vertex 43.6369 -37.6333 11.625
      vertex 42.2221 -42.8832 12.8246
    endloop
  endfacet
  facet normal 0.819699 -0.0917106 0.565405
    outer loop
      vertex 42.2221 -42.8832 12.8246
      vertex 41.3226 -37.8516 14.9448
      vertex 40.8627 -42.8832 14.7954
    endloop
  endfacet
  facet normal 0.819702 -0.0917084 0.565401
    outer loop
      vertex 41.3226 -37.8516 14.9448
      vertex 42.2221 -42.8832 12.8246
      vertex 43.6369 -37.6333 11.625
    endloop
  endfacet
  facet normal 0.704721 -0.189037 0.683837
    outer loop
      vertex 39.4506 -35.736 17.4588
      vertex 41.3226 -37.8516 14.9448
      vertex 41.7394 -35.736 15.1001
    endloop
  endfacet
  facet normal 0.704716 -0.189047 0.68384
    outer loop
      vertex 41.3226 -37.8516 14.9448
      vertex 39.4506 -35.736 17.4588
      vertex 38.4696 -38.1207 17.8105
    endloop
  endfacet
  facet normal 0.704654 -0.18901 0.683914
    outer loop
      vertex 39.4506 -35.736 17.4588
      vertex 38.9065 -35.736 18.0194
      vertex 38.4696 -38.1207 17.8105
    endloop
  endfacet
  facet normal 0.710086 -0.0856551 0.698885
    outer loop
      vertex 40.8627 -42.8832 14.7954
      vertex 41.3226 -37.8516 14.9448
      vertex 39.7895 -42.8832 15.8858
    endloop
  endfacet
  facet normal 0.710065 -0.0856626 0.698906
    outer loop
      vertex 39.7895 -42.8832 15.8858
      vertex 38.4696 -38.1207 17.8105
      vertex 38.061 -42.8832 17.6419
    endloop
  endfacet
  facet normal 0.710081 -0.0856524 0.698891
    outer loop
      vertex 38.4696 -38.1207 17.8105
      vertex 39.7895 -42.8832 15.8858
      vertex 41.3226 -37.8516 14.9448
    endloop
  endfacet
  facet normal 0.577392 -0.175632 0.797353
    outer loop
      vertex 36.3277 -35.736 19.8868
      vertex 38.4696 -38.1207 17.8105
      vertex 38.9065 -35.736 18.0194
    endloop
  endfacet
  facet normal 0.577369 -0.175661 0.797363
    outer loop
      vertex 38.4696 -38.1207 17.8105
      vertex 36.3277 -35.736 19.8868
      vertex 35.1644 -38.4325 20.1351
    endloop
  endfacet
  facet normal 0.577317 -0.175634 0.797407
    outer loop
      vertex 36.3277 -35.736 19.8868
      vertex 35.6154 -35.736 20.4025
      vertex 35.1644 -38.4325 20.1351
    endloop
  endfacet
  facet normal 0.578482 -0.0783743 0.811921
    outer loop
      vertex 38.061 -42.8832 17.6419
      vertex 38.4696 -38.1207 17.8105
      vertex 36.8868 -42.8832 18.4785
    endloop
  endfacet
  facet normal 0.578448 -0.0783593 0.811947
    outer loop
      vertex 35.1644 -38.4325 20.1351
      vertex 36.8868 -42.8832 18.4785
      vertex 38.4696 -38.1207 17.8105
    endloop
  endfacet
  facet normal 0.578436 -0.0783665 0.811955
    outer loop
      vertex 36.8868 -42.8832 18.4785
      vertex 35.1644 -38.4325 20.1351
      vertex 34.8117 -42.8832 19.9568
    endloop
  endfacet
  facet normal 0.431051 -0.160154 0.888001
    outer loop
      vertex 32.8518 -35.736 21.744
      vertex 35.1644 -38.4325 20.1351
      vertex 35.6154 -35.736 20.4025
    endloop
  endfacet
  facet normal 0.431041 -0.160165 0.888004
    outer loop
      vertex 35.1644 -38.4325 20.1351
      vertex 32.8518 -35.736 21.744
      vertex 31.5076 -38.7775 21.8479
    endloop
  endfacet
  facet normal 0.43095 -0.160123 0.888055
    outer loop
      vertex 32.8518 -35.736 21.744
      vertex 31.9622 -35.736 22.1757
      vertex 31.5076 -38.7775 21.8479
    endloop
  endfacet
  facet normal 0.428557 -0.0700483 0.900795
    outer loop
      vertex 34.8117 -42.8832 19.9568
      vertex 35.1644 -38.4325 20.1351
      vertex 33.5991 -42.8832 20.5337
    endloop
  endfacet
  facet normal 0.428535 -0.0700392 0.900807
    outer loop
      vertex 31.5076 -38.7775 21.8479
      vertex 33.5991 -42.8832 20.5337
      vertex 35.1644 -38.4325 20.1351
    endloop
  endfacet
  facet normal 0.42852 -0.0700486 0.900813
    outer loop
      vertex 33.5991 -42.8832 20.5337
      vertex 31.5076 -38.7775 21.8479
      vertex 31.2119 -42.8832 21.6693
    endloop
  endfacet
  facet normal 0.269802 -0.142955 0.952245
    outer loop
      vertex 29.1196 -35.736 22.9811
      vertex 31.5076 -38.7775 21.8479
      vertex 31.9622 -35.736 22.1757
    endloop
  endfacet
  facet normal 0.26977 -0.142982 0.95225
    outer loop
      vertex 31.5076 -38.7775 21.8479
      vertex 29.1196 -35.736 22.9811
      vertex 27.6103 -39.1451 22.8968
    endloop
  endfacet
  facet normal 0.269713 -0.142957 0.95227
    outer loop
      vertex 29.1196 -35.736 22.9811
      vertex 28.0551 -35.736 23.2826
      vertex 27.6103 -39.1451 22.8968
    endloop
  endfacet
  facet normal 0.26478 -0.060934 0.962382
    outer loop
      vertex 31.2119 -42.8832 21.6693
      vertex 31.5076 -38.7775 21.8479
      vertex 30.0201 -42.8832 21.9972
    endloop
  endfacet
  facet normal 0.264759 -0.0609261 0.962388
    outer loop
      vertex 27.6103 -39.1451 22.8968
      vertex 30.0201 -42.8832 21.9972
      vertex 31.5076 -38.7775 21.8479
    endloop
  endfacet
  facet normal 0.264754 -0.0609295 0.962389
    outer loop
      vertex 30.0201 -42.8832 21.9972
      vertex 27.6103 -39.1451 22.8968
      vertex 27.3698 -42.8832 22.7263
    endloop
  endfacet
  facet normal 0.0985474 -0.124655 0.987294
    outer loop
      vertex 24.8 -36.7364 23.4812
      vertex 28.0551 -35.736 23.2826
      vertex 25.2339 -35.736 23.5642
    endloop
  endfacet
  facet normal 0.0985269 -0.124586 0.987305
    outer loop
      vertex 28.0551 -35.736 23.2826
      vertex 24.8 -36.7364 23.4812
      vertex 27.6103 -39.1451 22.8968
    endloop
  endfacet
  facet normal 0.0984957 -0.124622 0.987303
    outer loop
      vertex 27.6103 -39.1451 22.8968
      vertex 24.8 -36.7364 23.4812
      vertex 24.8 -39.4102 23.1437
    endloop
  endfacet
  facet normal 0.098525 -0.124646 0.987297
    outer loop
      vertex 25.2339 -35.736 23.5642
      vertex 24.8 -35.736 23.6075
      vertex 24.8 -36.7364 23.4812
    endloop
  endfacet
  facet normal 0.0921861 -0.0512879 0.99442
    outer loop
      vertex 27.3698 -42.8832 22.7263
      vertex 27.6103 -39.1451 22.8968
      vertex 26.2501 -42.8832 22.8301
    endloop
  endfacet
  facet normal 0.0922037 -0.0512943 0.994418
    outer loop
      vertex 24.8 -39.4102 23.1437
      vertex 26.2501 -42.8832 22.8301
      vertex 27.6103 -39.1451 22.8968
    endloop
  endfacet
  facet normal 0.0922343 -0.0512813 0.994416
    outer loop
      vertex 26.2501 -42.8832 22.8301
      vertex 24.8 -39.4102 23.1437
      vertex 24.8 -42.8832 22.9646
    endloop
  endfacet
endsolid OpenSCAD_Model
