solid OpenSCAD_Model
  facet normal 1 -0 0
    outer loop
      vertex 24.8 -172.803 9.28615
      vertex 24.8 -171.533 0
      vertex 24.8 -171.533 10.974
    endloop
  endfacet
  facet normal 1 0 0
    outer loop
      vertex 24.8 -172.922 9.1171
      vertex 24.8 -172.803 9.28615
      vertex 24.8 -172.831 9.24937
    endloop
  endfacet
  facet normal 1 0 0
    outer loop
      vertex 24.8 -172.803 9.28615
      vertex 24.8 -172.922 9.1171
      vertex 24.8 -171.533 0
    endloop
  endfacet
  facet normal 1 -0 0
    outer loop
      vertex 24.8 -174.105 7.34662
      vertex 24.8 -171.533 0
      vertex 24.8 -172.922 9.1171
    endloop
  endfacet
  facet normal 1 -0 0
    outer loop
      vertex 24.8 -174.544 6.91854
      vertex 24.8 -171.533 0
      vertex 24.8 -174.105 7.34662
    endloop
  endfacet
  facet normal 1 -0 0
    outer loop
      vertex 24.8 -175.223 6.25808
      vertex 24.8 -171.533 0
      vertex 24.8 -174.544 6.91854
    endloop
  endfacet
  facet normal 1 -0 0
    outer loop
      vertex 24.8 -175.698 5.97976
      vertex 24.8 -171.533 0
      vertex 24.8 -175.223 6.25808
    endloop
  endfacet
  facet normal 1 0 0
    outer loop
      vertex 24.8 -176.493 5.35831
      vertex 24.8 -175.698 5.97976
      vertex 24.8 -176.164 5.70664
    endloop
  endfacet
  facet normal 1 0 0
    outer loop
      vertex 24.8 -175.698 5.97976
      vertex 24.8 -176.493 5.35831
      vertex 24.8 -171.533 0
    endloop
  endfacet
  facet normal 1 -0 0
    outer loop
      vertex 24.8 -176.914 4.91314
      vertex 24.8 -171.533 0
      vertex 24.8 -176.493 5.35831
    endloop
  endfacet
  facet normal 1 -0 0
    outer loop
      vertex 24.8 -177.354 4.3416
      vertex 24.8 -171.533 0
      vertex 24.8 -176.914 4.91314
    endloop
  endfacet
  facet normal 1 0 0
    outer loop
      vertex 24.8 -178.242 2.89534
      vertex 24.8 -177.354 4.3416
      vertex 24.8 -178.118 3.34799
    endloop
  endfacet
  facet normal 1 0 0
    outer loop
      vertex 24.8 -177.354 4.3416
      vertex 24.8 -178.242 2.89534
      vertex 24.8 -171.533 0
    endloop
  endfacet
  facet normal 1 -0 0
    outer loop
      vertex 24.8 -178.503 1.94945
      vertex 24.8 -171.533 0
      vertex 24.8 -178.242 2.89534
    endloop
  endfacet
  facet normal 1 -0 0
    outer loop
      vertex 24.8 -178.592 0.594863
      vertex 24.8 -171.533 0
      vertex 24.8 -178.503 1.94945
    endloop
  endfacet
  facet normal 1 -0 0
    outer loop
      vertex 24.8 -178.611 0.293147
      vertex 24.8 -171.533 0
      vertex 24.8 -178.592 0.594863
    endloop
  endfacet
  facet normal 1 -0 0
    outer loop
      vertex 24.8 -178.617 0.185848
      vertex 24.8 -171.533 0
      vertex 24.8 -178.611 0.293147
    endloop
  endfacet
  facet normal 1 -0 0
    outer loop
      vertex 24.8 -178.62 0.128223
      vertex 24.8 -171.533 0
      vertex 24.8 -178.617 0.185848
    endloop
  endfacet
  facet normal 1 -0 0
    outer loop
      vertex 24.8 -178.622 0.0904192
      vertex 24.8 -171.533 0
      vertex 24.8 -178.62 0.128223
    endloop
  endfacet
  facet normal 1 -0 0
    outer loop
      vertex 24.8 -178.623 0.062272
      vertex 24.8 -171.533 0
      vertex 24.8 -178.622 0.0904192
    endloop
  endfacet
  facet normal 1 -0 0
    outer loop
      vertex 24.8 -178.624 0.0392797
      vertex 24.8 -171.533 0
      vertex 24.8 -178.623 0.062272
    endloop
  endfacet
  facet normal 1 -0 0
    outer loop
      vertex 24.8 -178.624 0.0190359
      vertex 24.8 -171.533 0
      vertex 24.8 -178.624 0.0392797
    endloop
  endfacet
  facet normal 1 -0 0
    outer loop
      vertex 24.8 -178.624 1.90735e-06
      vertex 24.8 -171.533 0
      vertex 24.8 -178.624 0.0190359
    endloop
  endfacet
  facet normal 1 0 0
    outer loop
      vertex 24.8 -171.533 0
      vertex 24.8 -178.624 1.90735e-06
      vertex 24.8 -178.624 0
    endloop
  endfacet
  facet normal 0 0 -1
    outer loop
      vertex 22.9469 -178.677 0
      vertex 24.8 -171.533 0
      vertex 24.8 -178.624 0
    endloop
  endfacet
  facet normal 0 0 -1
    outer loop
      vertex 20.1524 -177.352 0
      vertex 22.9469 -178.677 0
      vertex 21.5727 -178.422 0
    endloop
  endfacet
  facet normal 0 0 -1
    outer loop
      vertex 22.9469 -178.677 0
      vertex 20.1524 -177.352 0
      vertex 24.8 -171.533 0
    endloop
  endfacet
  facet normal 0 0 -1
    outer loop
      vertex 20.1524 -177.352 0
      vertex 19.5371 -176.661 0
      vertex 24.8 -171.533 0
    endloop
  endfacet
  facet normal 0 0 -1
    outer loop
      vertex 19.5371 -176.661 0
      vertex 19.0669 -175.763 0
      vertex 24.8 -171.533 0
    endloop
  endfacet
  facet normal 0 0 -1
    outer loop
      vertex 19.0669 -175.763 0
      vertex 17.8083 -174.765 0
      vertex 24.8 -171.533 0
    endloop
  endfacet
  facet normal 0 0 -1
    outer loop
      vertex 17.8083 -174.765 0
      vertex 15.5618 -173.702 0
      vertex 24.8 -171.533 0
    endloop
  endfacet
  facet normal 0 0 -1
    outer loop
      vertex 15.5618 -173.702 0
      vertex 13.1117 -172.524 0
      vertex 12.5009 -171.533 0
    endloop
  endfacet
  facet normal 0 0 -1
    outer loop
      vertex 15.5618 -173.702 0
      vertex 12.5009 -171.533 0
      vertex 24.8 -171.533 0
    endloop
  endfacet
  facet normal 0 1 0
    outer loop
      vertex 24.8 -171.533 10.974
      vertex 23.6196 -171.533 11.1177
      vertex 24.1933 -171.533 11.0926
    endloop
  endfacet
  facet normal 0 1 0
    outer loop
      vertex 24.8 -171.533 10.974
      vertex 24.1933 -171.533 11.0926
      vertex 24.257 -171.533 11.0898
    endloop
  endfacet
  facet normal 0 1 -0
    outer loop
      vertex 24.8 -171.533 0
      vertex 23.6196 -171.533 11.1177
      vertex 24.8 -171.533 10.974
    endloop
  endfacet
  facet normal 0 1 0
    outer loop
      vertex 23.6196 -171.533 11.1177
      vertex 24.8 -171.533 0
      vertex 22.4342 -171.533 11.0694
    endloop
  endfacet
  facet normal -0 1 0
    outer loop
      vertex 20.7183 -171.533 10.7211
      vertex 22.4342 -171.533 11.0694
      vertex 24.8 -171.533 0
    endloop
  endfacet
  facet normal 0 1 0
    outer loop
      vertex 22.4342 -171.533 11.0694
      vertex 20.7183 -171.533 10.7211
      vertex 22.2801 -171.533 11.0631
    endloop
  endfacet
  facet normal -0 1 0
    outer loop
      vertex 19.0581 -171.533 10.1065
      vertex 20.7183 -171.533 10.7211
      vertex 24.8 -171.533 0
    endloop
  endfacet
  facet normal 0 1 0
    outer loop
      vertex 20.7183 -171.533 10.7211
      vertex 19.0581 -171.533 10.1065
      vertex 20.3495 -171.533 10.6403
    endloop
  endfacet
  facet normal -0 1 0
    outer loop
      vertex 17.4932 -171.533 9.22841
      vertex 19.0581 -171.533 10.1065
      vertex 24.8 -171.533 0
    endloop
  endfacet
  facet normal 0 1 0
    outer loop
      vertex 19.0581 -171.533 10.1065
      vertex 17.4932 -171.533 9.22841
      vertex 18.51 -171.533 9.87994
    endloop
  endfacet
  facet normal -0 1 0
    outer loop
      vertex 16.0659 -171.533 8.09451
      vertex 17.4932 -171.533 9.22841
      vertex 24.8 -171.533 0
    endloop
  endfacet
  facet normal 0 1 0
    outer loop
      vertex 17.4932 -171.533 9.22841
      vertex 16.0659 -171.533 8.09451
      vertex 16.8233 -171.533 8.79916
    endloop
  endfacet
  facet normal -0 1 0
    outer loop
      vertex 14.8206 -171.533 6.71883
      vertex 16.0659 -171.533 8.09451
      vertex 24.8 -171.533 0
    endloop
  endfacet
  facet normal 0 1 0
    outer loop
      vertex 16.0659 -171.533 8.09451
      vertex 14.8206 -171.533 6.71883
      vertex 15.3487 -171.533 7.42727
    endloop
  endfacet
  facet normal -0 1 0
    outer loop
      vertex 13.803 -171.533 5.12343
      vertex 14.8206 -171.533 6.71883
      vertex 24.8 -171.533 0
    endloop
  endfacet
  facet normal 0 1 0
    outer loop
      vertex 14.8206 -171.533 6.71883
      vertex 13.803 -171.533 5.12343
      vertex 14.1396 -171.533 5.80539
    endloop
  endfacet
  facet normal -0 1 0
    outer loop
      vertex 13.0588 -171.533 3.33998
      vertex 13.803 -171.533 5.12343
      vertex 24.8 -171.533 0
    endloop
  endfacet
  facet normal 0 1 0
    outer loop
      vertex 13.803 -171.533 5.12343
      vertex 13.0588 -171.533 3.33998
      vertex 13.2412 -171.533 3.98535
    endloop
  endfacet
  facet normal -0 1 0
    outer loop
      vertex 12.631 -171.533 1.41125
      vertex 13.0588 -171.533 3.33998
      vertex 24.8 -171.533 0
    endloop
  endfacet
  facet normal 0 1 0
    outer loop
      vertex 13.0588 -171.533 3.33998
      vertex 12.631 -171.533 1.41125
      vertex 12.6878 -171.533 2.02787
    endloop
  endfacet
  facet normal 0 1 0
    outer loop
      vertex 12.631 -171.533 1.41125
      vertex 24.8 -171.533 0
      vertex 12.5009 -171.533 1.90735e-06
    endloop
  endfacet
  facet normal 0 1 0
    outer loop
      vertex 12.5009 -171.533 1.90735e-06
      vertex 24.8 -171.533 0
      vertex 12.5009 -171.533 0
    endloop
  endfacet
  facet normal 0.110455 -0.790801 0.602024
    outer loop
      vertex 24.8 -172.831 9.24937
      vertex 24.8 -172.803 9.28615
      vertex 24.7726 -172.833 9.25177
    endloop
  endfacet
  facet normal 0.12718 -0.792576 0.596363
    outer loop
      vertex 24.257 -171.533 11.0898
      vertex 24.8 -172.803 9.28615
      vertex 24.8 -171.533 10.974
    endloop
  endfacet
  facet normal 0.121812 -0.793921 0.595694
    outer loop
      vertex 24.8 -172.803 9.28615
      vertex 24.257 -171.533 11.0898
      vertex 24.7726 -172.833 9.25177
    endloop
  endfacet
  facet normal 0.109127 -0.818935 0.563416
    outer loop
      vertex 24.8 -172.922 9.1171
      vertex 24.8 -172.831 9.24937
      vertex 24.7726 -172.833 9.25177
    endloop
  endfacet
  facet normal -0.0364155 -0.447135 0.893725
    outer loop
      vertex 23.6196 -171.533 11.1177
      vertex 22.4342 -171.533 11.0694
      vertex 22.3026 -171.657 11.002
    endloop
  endfacet
  facet normal -0.0365397 -0.447029 0.893773
    outer loop
      vertex 22.3026 -171.657 11.002
      vertex 22.4342 -171.533 11.0694
      vertex 22.2801 -171.533 11.0631
    endloop
  endfacet
  facet normal 0.0255837 -0.812766 0.582029
    outer loop
      vertex 24.1933 -171.533 11.0926
      vertex 24.7726 -172.833 9.25177
      vertex 24.257 -171.533 11.0898
    endloop
  endfacet
  facet normal 0.0255867 -0.812765 0.582029
    outer loop
      vertex 24.7726 -172.833 9.25177
      vertex 24.1933 -171.533 11.0926
      vertex 23.1732 -172.984 9.11122
    endloop
  endfacet
  facet normal 0.0253846 -0.812732 0.582085
    outer loop
      vertex 23.1732 -172.984 9.11122
      vertex 23.6196 -171.533 11.1177
      vertex 22.3026 -171.657 11.002
    endloop
  endfacet
  facet normal 0.0254663 -0.812739 0.582072
    outer loop
      vertex 23.6196 -171.533 11.1177
      vertex 23.1732 -172.984 9.11122
      vertex 24.1933 -171.533 11.0926
    endloop
  endfacet
  facet normal 0.0296814 -0.831118 0.555304
    outer loop
      vertex 23.8779 -174.192 7.26559
      vertex 24.8 -172.922 9.1171
      vertex 24.7726 -172.833 9.25177
    endloop
  endfacet
  facet normal 0.0296149 -0.831104 0.555328
    outer loop
      vertex 24.8 -172.922 9.1171
      vertex 23.8779 -174.192 7.26559
      vertex 24.8 -174.105 7.34662
    endloop
  endfacet
  facet normal 0.0296673 -0.831115 0.555308
    outer loop
      vertex 23.8779 -174.192 7.26559
      vertex 24.7726 -172.833 9.25177
      vertex 23.1732 -172.984 9.11122
    endloop
  endfacet
  facet normal 0.00224494 -0.697251 0.716824
    outer loop
      vertex 24.8 -175.223 6.25808
      vertex 24.8 -174.544 6.91854
      vertex 24.2548 -175.274 6.21018
    endloop
  endfacet
  facet normal 0.00295504 -0.698143 0.715952
    outer loop
      vertex 23.8779 -174.192 7.26559
      vertex 24.8 -174.544 6.91854
      vertex 24.8 -174.105 7.34662
    endloop
  endfacet
  facet normal 0.00331589 -0.69766 0.716421
    outer loop
      vertex 24.8 -174.544 6.91854
      vertex 23.8779 -174.192 7.26559
      vertex 24.2548 -175.274 6.21018
    endloop
  endfacet
  facet normal -0.0275901 -0.505455 0.862412
    outer loop
      vertex 24.8 -176.164 5.70664
      vertex 24.8 -175.698 5.97976
      vertex 24.2652 -176.215 5.65964
    endloop
  endfacet
  facet normal -0.0285014 -0.505341 0.862449
    outer loop
      vertex 24.2548 -175.274 6.21018
      vertex 24.8 -175.698 5.97976
      vertex 24.8 -175.223 6.25808
    endloop
  endfacet
  facet normal -0.0281608 -0.505013 0.862652
    outer loop
      vertex 24.8 -175.698 5.97976
      vertex 24.2548 -175.274 6.21018
      vertex 24.2652 -176.215 5.65964
    endloop
  endfacet
  facet normal 0.00777996 -0.726533 0.687087
    outer loop
      vertex 24.8 -176.914 4.91314
      vertex 24.8 -176.493 5.35831
      vertex 24.2138 -176.969 4.86162
    endloop
  endfacet
  facet normal 0.0089826 -0.726961 0.68662
    outer loop
      vertex 24.2652 -176.215 5.65964
      vertex 24.8 -176.493 5.35831
      vertex 24.8 -176.164 5.70664
    endloop
  endfacet
  facet normal 0.00880117 -0.727125 0.686449
    outer loop
      vertex 24.8 -176.493 5.35831
      vertex 24.2652 -176.215 5.65964
      vertex 24.2138 -176.969 4.86162
    endloop
  endfacet
  facet normal 0.0215034 -0.792562 0.609412
    outer loop
      vertex 24.8 -178.118 3.34799
      vertex 24.8 -177.354 4.3416
      vertex 24.3354 -178.162 3.30716
    endloop
  endfacet
  facet normal 0.0207276 -0.792217 0.609888
    outer loop
      vertex 24.2138 -176.969 4.86162
      vertex 24.8 -177.354 4.3416
      vertex 24.8 -176.914 4.91314
    endloop
  endfacet
  facet normal 0.0204789 -0.792358 0.609712
    outer loop
      vertex 24.8 -177.354 4.3416
      vertex 24.2138 -176.969 4.86162
      vertex 24.3354 -178.162 3.30716
    endloop
  endfacet
  facet normal 0.0639852 -0.962 0.265445
    outer loop
      vertex 24.8 -178.503 1.94945
      vertex 24.8 -178.242 2.89534
      vertex 24.5576 -178.525 1.92815
    endloop
  endfacet
  facet normal 0.0679632 -0.962236 0.263597
    outer loop
      vertex 24.3354 -178.162 3.30716
      vertex 24.8 -178.242 2.89534
      vertex 24.8 -178.118 3.34799
    endloop
  endfacet
  facet normal 0.0686138 -0.962001 0.264285
    outer loop
      vertex 24.8 -178.242 2.89534
      vertex 24.3354 -178.162 3.30716
      vertex 24.5576 -178.525 1.92815
    endloop
  endfacet
  facet normal 0.0844996 -0.99428 0.0653268
    outer loop
      vertex 24.8 -178.592 0.594863
      vertex 24.8 -178.503 1.94945
      vertex 24.5576 -178.525 1.92815
    endloop
  endfacet
  facet normal -0.189772 -0.461458 0.866627
    outer loop
      vertex 20.7183 -171.533 10.7211
      vertex 22.3026 -171.657 11.002
      vertex 22.2801 -171.533 11.0631
    endloop
  endfacet
  facet normal -0.189783 -0.460771 0.86699
    outer loop
      vertex 22.3026 -171.657 11.002
      vertex 20.7183 -171.533 10.7211
      vertex 20.4299 -171.834 10.498
    endloop
  endfacet
  facet normal -0.189956 -0.460632 0.867026
    outer loop
      vertex 20.4299 -171.834 10.498
      vertex 20.7183 -171.533 10.7211
      vertex 20.3495 -171.533 10.6403
    endloop
  endfacet
  facet normal -0.0700874 -0.831404 0.55123
    outer loop
      vertex 23.1732 -172.984 9.11122
      vertex 22.3026 -171.657 11.002
      vertex 21.6223 -173.13 8.69382
    endloop
  endfacet
  facet normal -0.0697501 -0.83147 0.551173
    outer loop
      vertex 21.6223 -173.13 8.69382
      vertex 22.3026 -171.657 11.002
      vertex 20.4299 -171.834 10.498
    endloop
  endfacet
  facet normal -0.0625534 -0.84585 0.529741
    outer loop
      vertex 23.8779 -174.192 7.26559
      vertex 23.1732 -172.984 9.11122
      vertex 22.6412 -174.309 6.93274
    endloop
  endfacet
  facet normal -0.0629663 -0.845782 0.5298
    outer loop
      vertex 22.6412 -174.309 6.93274
      vertex 23.1732 -172.984 9.11122
      vertex 21.6223 -173.13 8.69382
    endloop
  endfacet
  facet normal -0.118142 -0.714149 0.689952
    outer loop
      vertex 24.2548 -175.274 6.21018
      vertex 23.8779 -174.192 7.26559
      vertex 23.1978 -175.374 5.92568
    endloop
  endfacet
  facet normal -0.118132 -0.714153 0.68995
    outer loop
      vertex 23.1978 -175.374 5.92568
      vertex 23.8779 -174.192 7.26559
      vertex 22.6412 -174.309 6.93274
    endloop
  endfacet
  facet normal -0.181655 -0.498075 0.847893
    outer loop
      vertex 24.2652 -176.215 5.65964
      vertex 24.2548 -175.274 6.21018
      vertex 23.3018 -176.305 5.40037
    endloop
  endfacet
  facet normal -0.181011 -0.498556 0.847748
    outer loop
      vertex 23.3018 -176.305 5.40037
      vertex 24.2548 -175.274 6.21018
      vertex 23.1978 -175.374 5.92568
    endloop
  endfacet
  facet normal -0.116955 -0.71811 0.686031
    outer loop
      vertex 24.2138 -176.969 4.86162
      vertex 24.2652 -176.215 5.65964
      vertex 23.3863 -177.047 4.6389
    endloop
  endfacet
  facet normal -0.117652 -0.717724 0.686317
    outer loop
      vertex 23.3863 -177.047 4.6389
      vertex 24.2652 -176.215 5.65964
      vertex 23.3018 -176.305 5.40037
    endloop
  endfacet
  facet normal -0.0873586 -0.793555 0.602195
    outer loop
      vertex 24.3354 -178.162 3.30716
      vertex 24.2138 -176.969 4.86162
      vertex 23.7725 -178.215 3.15566
    endloop
  endfacet
  facet normal -0.0872752 -0.793571 0.602186
    outer loop
      vertex 23.7725 -178.215 3.15566
      vertex 24.2138 -176.969 4.86162
      vertex 23.3863 -177.047 4.6389
    endloop
  endfacet
  facet normal 0.0218579 -0.965953 0.257792
    outer loop
      vertex 24.5576 -178.525 1.92815
      vertex 24.3354 -178.162 3.30716
      vertex 24.2294 -178.556 1.83982
    endloop
  endfacet
  facet normal 0.0215612 -0.965954 0.257814
    outer loop
      vertex 24.2294 -178.556 1.83982
      vertex 24.3354 -178.162 3.30716
      vertex 23.7725 -178.215 3.15566
    endloop
  endfacet
  facet normal 0.0767688 -0.994995 0.0639573
    outer loop
      vertex 24.2294 -178.556 1.83982
      vertex 24.8 -178.592 0.594863
      vertex 24.5576 -178.525 1.92815
    endloop
  endfacet
  facet normal 0.0739557 -0.99529 0.0626765
    outer loop
      vertex 24.8 -178.592 0.594863
      vertex 24.2294 -178.556 1.83982
      vertex 24.8 -178.611 0.293147
    endloop
  endfacet
  facet normal -0.336274 -0.474427 0.813535
    outer loop
      vertex 19.0581 -171.533 10.1065
      vertex 20.4299 -171.834 10.498
      vertex 20.3495 -171.533 10.6403
    endloop
  endfacet
  facet normal -0.336299 -0.474952 0.813218
    outer loop
      vertex 20.4299 -171.834 10.498
      vertex 19.0581 -171.533 10.1065
      vertex 18.6728 -171.999 9.675
    endloop
  endfacet
  facet normal -0.336145 -0.475073 0.813211
    outer loop
      vertex 18.6728 -171.999 9.675
      vertex 19.0581 -171.533 10.1065
      vertex 18.51 -171.533 9.87994
    endloop
  endfacet
  facet normal -0.156509 -0.848273 0.505903
    outer loop
      vertex 21.6223 -173.13 8.69382
      vertex 20.4299 -171.834 10.498
      vertex 20.1672 -173.268 8.01227
    endloop
  endfacet
  facet normal -0.157314 -0.848124 0.505902
    outer loop
      vertex 20.1672 -173.268 8.01227
      vertex 20.4299 -171.834 10.498
      vertex 18.6728 -171.999 9.675
    endloop
  endfacet
  facet normal -0.148492 -0.859331 0.489388
    outer loop
      vertex 22.6412 -174.309 6.93274
      vertex 21.6223 -173.13 8.69382
      vertex 21.4808 -174.418 6.38925
    endloop
  endfacet
  facet normal -0.147723 -0.859452 0.489409
    outer loop
      vertex 21.4808 -174.418 6.38925
      vertex 21.6223 -173.13 8.69382
      vertex 20.1672 -173.268 8.01227
    endloop
  endfacet
  facet normal -0.232746 -0.729651 0.642992
    outer loop
      vertex 23.1978 -175.374 5.92568
      vertex 22.6412 -174.309 6.93274
      vertex 22.206 -175.467 5.46114
    endloop
  endfacet
  facet normal -0.23261 -0.729698 0.642988
    outer loop
      vertex 22.206 -175.467 5.46114
      vertex 22.6412 -174.309 6.93274
      vertex 21.4808 -174.418 6.38925
    endloop
  endfacet
  facet normal -0.330589 -0.491526 0.805676
    outer loop
      vertex 23.3018 -176.305 5.40037
      vertex 23.1978 -175.374 5.92568
      vertex 22.3979 -176.391 4.97701
    endloop
  endfacet
  facet normal -0.331341 -0.490965 0.805708
    outer loop
      vertex 22.3979 -176.391 4.97701
      vertex 23.1978 -175.374 5.92568
      vertex 22.206 -175.467 5.46114
    endloop
  endfacet
  facet normal -0.243857 -0.70797 0.662807
    outer loop
      vertex 23.3863 -177.047 4.6389
      vertex 23.3018 -176.305 5.40037
      vertex 22.6098 -177.12 4.27524
    endloop
  endfacet
  facet normal -0.242939 -0.708472 0.662607
    outer loop
      vertex 22.6098 -177.12 4.27524
      vertex 23.3018 -176.305 5.40037
      vertex 22.3979 -176.391 4.97701
    endloop
  endfacet
  facet normal -0.194178 -0.794638 0.575191
    outer loop
      vertex 23.7725 -178.215 3.15566
      vertex 23.3863 -177.047 4.6389
      vertex 23.2443 -178.265 2.90827
    endloop
  endfacet
  facet normal -0.194671 -0.794539 0.575162
    outer loop
      vertex 23.2443 -178.265 2.90827
      vertex 23.3863 -177.047 4.6389
      vertex 22.6098 -177.12 4.27524
    endloop
  endfacet
  facet normal -0.0226912 -0.969659 0.243408
    outer loop
      vertex 23.9215 -178.585 1.69559
      vertex 24.2294 -178.556 1.83982
      vertex 23.7725 -178.215 3.15566
    endloop
  endfacet
  facet normal -0.0222363 -0.969657 0.243454
    outer loop
      vertex 23.9215 -178.585 1.69559
      vertex 23.7725 -178.215 3.15566
      vertex 23.2443 -178.265 2.90827
    endloop
  endfacet
  facet normal 0.0658434 -0.996042 0.0597104
    outer loop
      vertex 23.9215 -178.585 1.69559
      vertex 24.8 -178.611 0.293147
      vertex 24.2294 -178.556 1.83982
    endloop
  endfacet
  facet normal 0.0594742 -0.996673 0.0557325
    outer loop
      vertex 24.8 -178.611 0.293147
      vertex 23.9215 -178.585 1.69559
      vertex 24.8 -178.617 0.185848
    endloop
  endfacet
  facet normal -0.470973 -0.487787 0.735016
    outer loop
      vertex 17.4932 -171.533 9.22841
      vertex 18.6728 -171.999 9.675
      vertex 18.51 -171.533 9.87994
    endloop
  endfacet
  facet normal -0.470959 -0.487669 0.735103
    outer loop
      vertex 18.6728 -171.999 9.675
      vertex 17.4932 -171.533 9.22841
      vertex 17.0847 -172.149 8.55804
    endloop
  endfacet
  facet normal -0.471025 -0.487617 0.735095
    outer loop
      vertex 17.0847 -172.149 8.55804
      vertex 17.4932 -171.533 9.22841
      vertex 16.8233 -171.533 8.79916
    endloop
  endfacet
  facet normal -0.233909 -0.862768 0.448238
    outer loop
      vertex 18.852 -173.392 7.08727
      vertex 20.1672 -173.268 8.01227
      vertex 18.6728 -171.999 9.675
    endloop
  endfacet
  facet normal -0.233782 -0.862792 0.44826
    outer loop
      vertex 18.852 -173.392 7.08727
      vertex 18.6728 -171.999 9.675
      vertex 17.0847 -172.149 8.55804
    endloop
  endfacet
  facet normal -0.224349 -0.871552 0.435965
    outer loop
      vertex 20.432 -174.517 5.65162
      vertex 21.4808 -174.418 6.38925
      vertex 20.1672 -173.268 8.01227
    endloop
  endfacet
  facet normal -0.224438 -0.871537 0.435947
    outer loop
      vertex 20.432 -174.517 5.65162
      vertex 20.1672 -173.268 8.01227
      vertex 18.852 -173.392 7.08727
    endloop
  endfacet
  facet normal -0.33598 -0.743662 0.578
    outer loop
      vertex 22.206 -175.467 5.46114
      vertex 21.4808 -174.418 6.38925
      vertex 21.3095 -175.552 4.83066
    endloop
  endfacet
  facet normal -0.336295 -0.743554 0.577956
    outer loop
      vertex 21.3095 -175.552 4.83066
      vertex 21.4808 -174.418 6.38925
      vertex 20.432 -174.517 5.65162
    endloop
  endfacet
  facet normal -0.472448 -0.484035 0.736548
    outer loop
      vertex 22.3979 -176.391 4.97701
      vertex 22.206 -175.467 5.46114
      vertex 21.581 -176.468 4.40242
    endloop
  endfacet
  facet normal -0.472106 -0.484297 0.736595
    outer loop
      vertex 21.581 -176.468 4.40242
      vertex 22.206 -175.467 5.46114
      vertex 21.3095 -175.552 4.83066
    endloop
  endfacet
  facet normal -0.365929 -0.698437 0.615045
    outer loop
      vertex 22.6098 -177.12 4.27524
      vertex 22.3979 -176.391 4.97701
      vertex 21.9081 -177.187 3.78167
    endloop
  endfacet
  facet normal -0.366849 -0.697924 0.61508
    outer loop
      vertex 21.9081 -177.187 3.78167
      vertex 22.3979 -176.391 4.97701
      vertex 21.581 -176.468 4.40242
    endloop
  endfacet
  facet normal -0.296718 -0.795387 0.528505
    outer loop
      vertex 22.7669 -178.31 2.57252
      vertex 23.2443 -178.265 2.90827
      vertex 22.6098 -177.12 4.27524
    endloop
  endfacet
  facet normal -0.29592 -0.795557 0.528697
    outer loop
      vertex 22.7669 -178.31 2.57252
      vertex 22.6098 -177.12 4.27524
      vertex 21.9081 -177.187 3.78167
    endloop
  endfacet
  facet normal -0.061874 -0.973034 0.22221
    outer loop
      vertex 23.6431 -178.612 1.49984
      vertex 23.9215 -178.585 1.69559
      vertex 23.2443 -178.265 2.90827
    endloop
  endfacet
  facet normal -0.0641132 -0.973033 0.221576
    outer loop
      vertex 23.6431 -178.612 1.49984
      vertex 23.2443 -178.265 2.90827
      vertex 22.7669 -178.31 2.57252
    endloop
  endfacet
  facet normal 0.0580617 -0.996802 0.0549133
    outer loop
      vertex 23.6431 -178.612 1.49984
      vertex 24.8 -178.617 0.185848
      vertex 23.9215 -178.585 1.69559
    endloop
  endfacet
  facet normal 0.0546521 -0.997155 0.0519126
    outer loop
      vertex 24.8 -178.617 0.185848
      vertex 23.6431 -178.612 1.49984
      vertex 24.8 -178.62 0.128223
    endloop
  endfacet
  facet normal -0.590334 -0.49888 0.634526
    outer loop
      vertex 16.0659 -171.533 8.09451
      vertex 17.0847 -172.149 8.55804
      vertex 16.8233 -171.533 8.79916
    endloop
  endfacet
  facet normal -0.590292 -0.498637 0.634757
    outer loop
      vertex 17.0847 -172.149 8.55804
      vertex 16.0659 -171.533 8.09451
      vertex 15.7138 -172.279 7.18105
    endloop
  endfacet
  facet normal -0.590488 -0.498476 0.634701
    outer loop
      vertex 15.7138 -172.279 7.18105
      vertex 16.0659 -171.533 8.09451
      vertex 15.3487 -171.533 7.42727
    endloop
  endfacet
  facet normal -0.299267 -0.875208 0.380066
    outer loop
      vertex 17.7167 -173.499 5.94693
      vertex 18.852 -173.392 7.08727
      vertex 17.0847 -172.149 8.55804
    endloop
  endfacet
  facet normal -0.298884 -0.875282 0.380197
    outer loop
      vertex 17.7167 -173.499 5.94693
      vertex 17.0847 -172.149 8.55804
      vertex 15.7138 -172.279 7.18105
    endloop
  endfacet
  facet normal -0.290354 -0.881865 0.371496
    outer loop
      vertex 19.5267 -174.602 4.74228
      vertex 20.432 -174.517 5.65162
      vertex 18.852 -173.392 7.08727
    endloop
  endfacet
  facet normal -0.290117 -0.881905 0.371585
    outer loop
      vertex 19.5267 -174.602 4.74228
      vertex 18.852 -173.392 7.08727
      vertex 17.7167 -173.499 5.94693
    endloop
  endfacet
  facet normal -0.427175 -0.755806 0.496265
    outer loop
      vertex 20.5357 -175.625 4.05341
      vertex 21.3095 -175.552 4.83066
      vertex 20.432 -174.517 5.65162
    endloop
  endfacet
  facet normal -0.427441 -0.755711 0.496181
    outer loop
      vertex 20.5357 -175.625 4.05341
      vertex 20.432 -174.517 5.65162
      vertex 19.5267 -174.602 4.74228
    endloop
  endfacet
  facet normal -0.599837 -0.477827 0.641776
    outer loop
      vertex 21.581 -176.468 4.40242
      vertex 21.3095 -175.552 4.83066
      vertex 20.8757 -176.534 3.69407
    endloop
  endfacet
  facet normal -0.599615 -0.47801 0.641848
    outer loop
      vertex 20.8757 -176.534 3.69407
      vertex 21.3095 -175.552 4.83066
      vertex 20.5357 -175.625 4.05341
    endloop
  endfacet
  facet normal -0.48105 -0.687983 0.543388
    outer loop
      vertex 21.9081 -177.187 3.78167
      vertex 21.581 -176.468 4.40242
      vertex 21.3023 -177.244 3.1732
    endloop
  endfacet
  facet normal -0.481333 -0.687817 0.543347
    outer loop
      vertex 21.3023 -177.244 3.1732
      vertex 21.581 -176.468 4.40242
      vertex 20.8757 -176.534 3.69407
    endloop
  endfacet
  facet normal -0.389541 -0.796257 0.462853
    outer loop
      vertex 22.3548 -178.349 2.1586
      vertex 22.7669 -178.31 2.57252
      vertex 21.9081 -177.187 3.78167
    endloop
  endfacet
  facet normal -0.389845 -0.796186 0.462719
    outer loop
      vertex 22.3548 -178.349 2.1586
      vertex 21.9081 -177.187 3.78167
      vertex 21.3023 -177.244 3.1732
    endloop
  endfacet
  facet normal -0.102556 -0.976205 0.191068
    outer loop
      vertex 23.4029 -178.634 1.25851
      vertex 23.6431 -178.612 1.49984
      vertex 22.7669 -178.31 2.57252
    endloop
  endfacet
  facet normal -0.100519 -0.976222 0.192058
    outer loop
      vertex 23.4029 -178.634 1.25851
      vertex 22.7669 -178.31 2.57252
      vertex 22.3548 -178.349 2.1586
    endloop
  endfacet
  facet normal 0.0463087 -0.997918 0.0448798
    outer loop
      vertex 23.4029 -178.634 1.25851
      vertex 24.8 -178.62 0.128223
      vertex 23.6431 -178.612 1.49984
    endloop
  endfacet
  facet normal 0.0526749 -0.997217 0.0527575
    outer loop
      vertex 24.8 -178.62 0.128223
      vertex 23.4029 -178.634 1.25851
      vertex 24.8 -178.622 0.0904192
    endloop
  endfacet
  facet normal -0.690631 -0.507922 0.514825
    outer loop
      vertex 14.8206 -171.533 6.71883
      vertex 15.7138 -172.279 7.18105
      vertex 15.3487 -171.533 7.42727
    endloop
  endfacet
  facet normal -0.690667 -0.508109 0.514591
    outer loop
      vertex 15.7138 -172.279 7.18105
      vertex 14.8206 -171.533 6.71883
      vertex 14.6018 -172.383 5.58587
    endloop
  endfacet
  facet normal -0.6904 -0.508345 0.514716
    outer loop
      vertex 14.6018 -172.383 5.58587
      vertex 14.8206 -171.533 6.71883
      vertex 14.1396 -171.533 5.80539
    endloop
  endfacet
  facet normal -0.352094 -0.885306 0.303749
    outer loop
      vertex 16.7958 -173.586 4.62589
      vertex 17.7167 -173.499 5.94693
      vertex 15.7138 -172.279 7.18105
    endloop
  endfacet
  facet normal -0.352576 -0.885202 0.303493
    outer loop
      vertex 16.7958 -173.586 4.62589
      vertex 15.7138 -172.279 7.18105
      vertex 14.6018 -172.383 5.58587
    endloop
  endfacet
  facet normal -0.343693 -0.89029 0.298763
    outer loop
      vertex 18.7923 -174.672 3.68884
      vertex 19.5267 -174.602 4.74228
      vertex 17.7167 -173.499 5.94693
    endloop
  endfacet
  facet normal -0.344123 -0.890207 0.298515
    outer loop
      vertex 18.7923 -174.672 3.68884
      vertex 17.7167 -173.499 5.94693
      vertex 16.7958 -173.586 4.62589
    endloop
  endfacet
  facet normal -0.502874 -0.765847 0.400745
    outer loop
      vertex 19.908 -175.684 3.15299
      vertex 20.5357 -175.625 4.05341
      vertex 19.5267 -174.602 4.74228
    endloop
  endfacet
  facet normal -0.502262 -0.766086 0.401055
    outer loop
      vertex 19.908 -175.684 3.15299
      vertex 19.5267 -174.602 4.74228
      vertex 18.7923 -174.672 3.68884
    endloop
  endfacet
  facet normal -0.708202 -0.472331 0.524741
    outer loop
      vertex 20.8757 -176.534 3.69407
      vertex 20.5357 -175.625 4.05341
      vertex 20.3037 -176.588 2.87348
    endloop
  endfacet
  facet normal -0.708279 -0.472262 0.5247
    outer loop
      vertex 20.3037 -176.588 2.87348
      vertex 20.5357 -175.625 4.05341
      vertex 19.908 -175.684 3.15299
    endloop
  endfacet
  facet normal -0.580965 -0.678684 0.449298
    outer loop
      vertex 21.3023 -177.244 3.1732
      vertex 20.8757 -176.534 3.69407
      vertex 20.8109 -177.29 2.46831
    endloop
  endfacet
  facet normal -0.580632 -0.678894 0.44941
    outer loop
      vertex 20.8109 -177.29 2.46831
      vertex 20.8757 -176.534 3.69407
      vertex 20.3037 -176.588 2.87348
    endloop
  endfacet
  facet normal -0.470554 -0.796612 0.379458
    outer loop
      vertex 22.0206 -178.38 1.67909
      vertex 22.3548 -178.349 2.1586
      vertex 21.3023 -177.244 3.1732
    endloop
  endfacet
  facet normal -0.470139 -0.796722 0.379741
    outer loop
      vertex 22.0206 -178.38 1.67909
      vertex 21.3023 -177.244 3.1732
      vertex 20.8109 -177.29 2.46831
    endloop
  endfacet
  facet normal -0.130747 -0.978797 0.157675
    outer loop
      vertex 23.208 -178.653 0.978949
      vertex 23.4029 -178.634 1.25851
      vertex 22.3548 -178.349 2.1586
    endloop
  endfacet
  facet normal -0.133044 -0.978756 0.156002
    outer loop
      vertex 23.208 -178.653 0.978949
      vertex 22.3548 -178.349 2.1586
      vertex 22.0206 -178.38 1.67909
    endloop
  endfacet
  facet normal 0.041258 -0.998384 0.0390902
    outer loop
      vertex 23.208 -178.653 0.978949
      vertex 24.8 -178.622 0.0904192
      vertex 23.4029 -178.634 1.25851
    endloop
  endfacet
  facet normal 0.039246 -0.9986 0.0354778
    outer loop
      vertex 24.8 -178.622 0.0904192
      vertex 23.208 -178.653 0.978949
      vertex 24.8 -178.623 0.062272
    endloop
  endfacet
  facet normal -0.768282 -0.515698 0.379207
    outer loop
      vertex 13.803 -171.533 5.12343
      vertex 14.6018 -172.383 5.58587
      vertex 14.1396 -171.533 5.80539
    endloop
  endfacet
  facet normal -0.768262 -0.515537 0.379467
    outer loop
      vertex 14.6018 -172.383 5.58587
      vertex 13.803 -171.533 5.12343
      vertex 13.7824 -172.461 3.82096
    endloop
  endfacet
  facet normal -0.768451 -0.51535 0.379337
    outer loop
      vertex 13.7824 -172.461 3.82096
      vertex 13.803 -171.533 5.12343
      vertex 13.2412 -171.533 3.98535
    endloop
  endfacet
  facet normal -0.392604 -0.892669 0.221368
    outer loop
      vertex 16.1172 -173.65 3.16429
      vertex 16.7958 -173.586 4.62589
      vertex 14.6018 -172.383 5.58587
    endloop
  endfacet
  facet normal -0.392307 -0.892744 0.221592
    outer loop
      vertex 16.1172 -173.65 3.16429
      vertex 14.6018 -172.383 5.58587
      vertex 13.7824 -172.461 3.82096
    endloop
  endfacet
  facet normal -0.385341 -0.896622 0.218129
    outer loop
      vertex 18.2512 -174.723 2.52331
      vertex 18.7923 -174.672 3.68884
      vertex 16.7958 -173.586 4.62589
    endloop
  endfacet
  facet normal -0.38531 -0.89663 0.218155
    outer loop
      vertex 18.2512 -174.723 2.52331
      vertex 16.7958 -173.586 4.62589
      vertex 16.1172 -173.65 3.16429
    endloop
  endfacet
  facet normal -0.560608 -0.773963 0.294449
    outer loop
      vertex 19.4455 -175.728 2.15677
      vertex 19.908 -175.684 3.15299
      vertex 18.7923 -174.672 3.68884
    endloop
  endfacet
  facet normal -0.560879 -0.773842 0.29425
    outer loop
      vertex 19.4455 -175.728 2.15677
      vertex 18.7923 -174.672 3.68884
      vertex 18.2512 -174.723 2.52331
    endloop
  endfacet
  facet normal -0.793655 -0.467696 0.389066
    outer loop
      vertex 20.3037 -176.588 2.87348
      vertex 19.908 -175.684 3.15299
      vertex 19.8822 -176.628 1.96558
    endloop
  endfacet
  facet normal -0.793615 -0.467737 0.389098
    outer loop
      vertex 19.8822 -176.628 1.96558
      vertex 19.908 -175.684 3.15299
      vertex 19.4455 -175.728 2.15677
    endloop
  endfacet
  facet normal -0.660671 -0.671274 0.336012
    outer loop
      vertex 20.4488 -177.324 1.68842
      vertex 20.8109 -177.29 2.46831
      vertex 20.3037 -176.588 2.87348
    endloop
  endfacet
  facet normal -0.660384 -0.671476 0.336173
    outer loop
      vertex 20.4488 -177.324 1.68842
      vertex 20.3037 -176.588 2.87348
      vertex 19.8822 -176.628 1.96558
    endloop
  endfacet
  facet normal -0.533886 -0.796999 0.282415
    outer loop
      vertex 21.7743 -178.403 1.14857
      vertex 22.0206 -178.38 1.67909
      vertex 20.8109 -177.29 2.46831
    endloop
  endfacet
  facet normal -0.533739 -0.797046 0.282561
    outer loop
      vertex 21.7743 -178.403 1.14857
      vertex 20.8109 -177.29 2.46831
      vertex 20.4488 -177.324 1.68842
    endloop
  endfacet
  facet normal -0.157951 -0.98078 0.114552
    outer loop
      vertex 23.0644 -178.666 0.669641
      vertex 23.208 -178.653 0.978949
      vertex 22.0206 -178.38 1.67909
    endloop
  endfacet
  facet normal -0.157089 -0.980813 0.115452
    outer loop
      vertex 23.0644 -178.666 0.669641
      vertex 22.0206 -178.38 1.67909
      vertex 21.7743 -178.403 1.14857
    endloop
  endfacet
  facet normal 0.0339339 -0.99908 0.0262364
    outer loop
      vertex 23.0644 -178.666 0.669641
      vertex 24.8 -178.623 0.062272
      vertex 23.208 -178.653 0.978949
    endloop
  endfacet
  facet normal 0.0399259 -0.998259 0.0434171
    outer loop
      vertex 24.8 -178.623 0.062272
      vertex 23.0644 -178.666 0.669641
      vertex 24.8 -178.624 0.0392797
    endloop
  endfacet
  facet normal -0.821747 -0.520376 0.232249
    outer loop
      vertex 13.0588 -171.533 3.33998
      vertex 13.7824 -172.461 3.82096
      vertex 13.2412 -171.533 3.98535
    endloop
  endfacet
  facet normal -0.821747 -0.52039 0.232221
    outer loop
      vertex 13.7824 -172.461 3.82096
      vertex 13.0588 -171.533 3.33998
      vertex 13.2806 -172.508 1.93995
    endloop
  endfacet
  facet normal -0.821644 -0.520509 0.23232
    outer loop
      vertex 13.2806 -172.508 1.93995
      vertex 13.0588 -171.533 3.33998
      vertex 12.6878 -171.533 2.02787
    endloop
  endfacet
  facet normal -0.419418 -0.897797 0.13435
    outer loop
      vertex 15.7017 -173.689 1.60655
      vertex 16.1172 -173.65 3.16429
      vertex 13.7824 -172.461 3.82096
    endloop
  endfacet
  facet normal -0.41944 -0.89779 0.134327
    outer loop
      vertex 15.7017 -173.689 1.60655
      vertex 13.7824 -172.461 3.82096
      vertex 13.2806 -172.508 1.93995
    endloop
  endfacet
  facet normal -0.413154 -0.900944 0.132675
    outer loop
      vertex 17.9199 -174.754 1.28112
      vertex 18.2512 -174.723 2.52331
      vertex 16.1172 -173.65 3.16429
    endloop
  endfacet
  facet normal -0.413094 -0.900962 0.132742
    outer loop
      vertex 17.9199 -174.754 1.28112
      vertex 16.1172 -173.65 3.16429
      vertex 15.7017 -173.689 1.60655
    endloop
  endfacet
  facet normal -0.600637 -0.779161 0.179288
    outer loop
      vertex 19.1623 -175.754 1.09502
      vertex 19.4455 -175.728 2.15677
      vertex 18.2512 -174.723 2.52331
    endloop
  endfacet
  facet normal -0.600362 -0.779308 0.179569
    outer loop
      vertex 19.1623 -175.754 1.09502
      vertex 18.2512 -174.723 2.52331
      vertex 17.9199 -174.754 1.28112
    endloop
  endfacet
  facet normal -0.852711 -0.464519 0.238969
    outer loop
      vertex 19.6241 -176.652 0.99795
      vertex 19.8822 -176.628 1.96558
      vertex 19.4455 -175.728 2.15677
    endloop
  endfacet
  facet normal -0.85282 -0.464384 0.238844
    outer loop
      vertex 19.6241 -176.652 0.99795
      vertex 19.4455 -175.728 2.15677
      vertex 19.1623 -175.754 1.09502
    endloop
  endfacet
  facet normal -0.716395 -0.665997 0.207909
    outer loop
      vertex 20.2271 -177.345 0.857237
      vertex 20.4488 -177.324 1.68842
      vertex 19.8822 -176.628 1.96558
    endloop
  endfacet
  facet normal -0.716675 -0.665769 0.207675
    outer loop
      vertex 20.2271 -177.345 0.857237
      vertex 19.8822 -176.628 1.96558
      vertex 19.6241 -176.652 0.99795
    endloop
  endfacet
  facet normal -0.577607 -0.79727 0.175301
    outer loop
      vertex 21.6234 -178.418 0.583143
      vertex 21.7743 -178.403 1.14857
      vertex 20.4488 -177.324 1.68842
    endloop
  endfacet
  facet normal -0.578243 -0.797013 0.174371
    outer loop
      vertex 21.6234 -178.418 0.583143
      vertex 20.4488 -177.324 1.68842
      vertex 20.2271 -177.345 0.857237
    endloop
  endfacet
  facet normal -0.173137 -0.98219 0.0729808
    outer loop
      vertex 22.9765 -178.675 0.339987
      vertex 23.0644 -178.666 0.669641
      vertex 21.7743 -178.403 1.14857
    endloop
  endfacet
  facet normal -0.173541 -0.982164 0.0723698
    outer loop
      vertex 22.9765 -178.675 0.339987
      vertex 21.7743 -178.403 1.14857
      vertex 21.6234 -178.418 0.583143
    endloop
  endfacet
  facet normal 0.0310821 -0.999336 0.0189954
    outer loop
      vertex 22.9765 -178.675 0.339987
      vertex 24.8 -178.624 0.0392797
      vertex 23.0644 -178.666 0.669641
    endloop
  endfacet
  facet normal 0.0279573 -0.999609 0
    outer loop
      vertex 24.8 -178.624 0.0392797
      vertex 22.9765 -178.675 0.339987
      vertex 24.8 -178.624 0.0190359
    endloop
  endfacet
  facet normal -0.848702 -0.523061 0.0781783
    outer loop
      vertex 12.631 -171.533 1.41125
      vertex 13.2806 -172.508 1.93995
      vertex 12.6878 -171.533 2.02787
    endloop
  endfacet
  facet normal -0.848707 -0.523049 0.0782059
    outer loop
      vertex 13.2806 -172.508 1.93995
      vertex 12.631 -171.533 1.41125
      vertex 13.1117 -172.524 1.90735e-06
    endloop
  endfacet
  facet normal -0.848683 -0.523083 0.0782383
    outer loop
      vertex 13.1117 -172.524 1.90735e-06
      vertex 12.631 -171.533 1.41125
      vertex 12.5009 -171.533 1.90735e-06
    endloop
  endfacet
  facet normal -0.432961 -0.900289 0.0449878
    outer loop
      vertex 15.5618 -173.702 1.90735e-06
      vertex 15.7017 -173.689 1.60655
      vertex 13.2806 -172.508 1.93995
    endloop
  endfacet
  facet normal -0.432873 -0.900325 0.0451133
    outer loop
      vertex 15.5618 -173.702 1.90735e-06
      vertex 13.2806 -172.508 1.93995
      vertex 13.1117 -172.524 1.90735e-06
    endloop
  endfacet
  facet normal -0.427014 -0.903127 0.0449522
    outer loop
      vertex 17.8083 -174.765 1.90735e-06
      vertex 17.9199 -174.754 1.28112
      vertex 15.7017 -173.689 1.60655
    endloop
  endfacet
  facet normal -0.42729 -0.903018 0.044516
    outer loop
      vertex 17.8083 -174.765 1.90735e-06
      vertex 15.7017 -173.689 1.60655
      vertex 15.5618 -173.702 1.90735e-06
    endloop
  endfacet
  facet normal -0.620357 -0.781985 0.0604738
    outer loop
      vertex 19.0669 -175.763 1.90735e-06
      vertex 19.1623 -175.754 1.09502
      vertex 17.9199 -174.754 1.28112
    endloop
  endfacet
  facet normal -0.620171 -0.782112 0.0607394
    outer loop
      vertex 19.0669 -175.763 1.90735e-06
      vertex 17.9199 -174.754 1.28112
      vertex 17.8083 -174.765 1.90735e-06
    endloop
  endfacet
  facet normal -0.882774 -0.46274 0.0811324
    outer loop
      vertex 19.5371 -176.661 1.90735e-06
      vertex 19.6241 -176.652 0.99795
      vertex 19.1623 -175.754 1.09502
    endloop
  endfacet
  facet normal -0.883013 -0.462353 0.0807299
    outer loop
      vertex 19.5371 -176.661 1.90735e-06
      vertex 19.1623 -175.754 1.09502
      vertex 19.0669 -175.763 1.90735e-06
    endloop
  endfacet
  facet normal -0.745405 -0.662887 0.0703681
    outer loop
      vertex 20.1524 -177.352 1.90735e-06
      vertex 20.2271 -177.345 0.857237
      vertex 19.6241 -176.652 0.99795
    endloop
  endfacet
  facet normal -0.74495 -0.66334 0.0709262
    outer loop
      vertex 20.1524 -177.352 1.90735e-06
      vertex 19.6241 -176.652 0.99795
      vertex 19.5371 -176.661 1.90735e-06
    endloop
  endfacet
  facet normal -0.60116 -0.79704 0.0577338
    outer loop
      vertex 21.5727 -178.422 1.90735e-06
      vertex 21.6234 -178.418 0.583143
      vertex 20.2271 -177.345 0.857237
    endloop
  endfacet
  facet normal -0.600674 -0.797325 0.0588539
    outer loop
      vertex 21.5727 -178.422 1.90735e-06
      vertex 20.2271 -177.345 0.857237
      vertex 20.1524 -177.352 1.90735e-06
    endloop
  endfacet
  facet normal -0.18279 -0.982913 0.0216963
    outer loop
      vertex 22.9469 -178.677 1.90735e-06
      vertex 22.9765 -178.675 0.339987
      vertex 21.6234 -178.418 0.583143
    endloop
  endfacet
  facet normal -0.182401 -0.982964 0.0226011
    outer loop
      vertex 22.9469 -178.677 1.90735e-06
      vertex 21.6234 -178.418 0.583143
      vertex 21.5727 -178.422 1.90735e-06
    endloop
  endfacet
  facet normal 0.028554 -0.999586 0.00339419
    outer loop
      vertex 22.9469 -178.677 1.90735e-06
      vertex 24.8 -178.624 0.0190359
      vertex 22.9765 -178.675 0.339987
    endloop
  endfacet
  facet normal 0.028589 -0.999591 0
    outer loop
      vertex 24.8 -178.624 0.0190359
      vertex 22.9469 -178.677 1.90735e-06
      vertex 24.8 -178.624 1.90735e-06
    endloop
  endfacet
  facet normal -0.851292 -0.524692 0
    outer loop
      vertex 13.1117 -172.524 0
      vertex 12.5009 -171.533 1.90735e-06
      vertex 12.5009 -171.533 0
    endloop
  endfacet
  facet normal -0.851292 -0.524692 0
    outer loop
      vertex 12.5009 -171.533 1.90735e-06
      vertex 13.1117 -172.524 0
      vertex 13.1117 -172.524 1.90735e-06
    endloop
  endfacet
  facet normal -0.433315 -0.901243 0
    outer loop
      vertex 13.1117 -172.524 0
      vertex 15.5618 -173.702 1.90735e-06
      vertex 13.1117 -172.524 1.90735e-06
    endloop
  endfacet
  facet normal -0.433315 -0.901243 -0
    outer loop
      vertex 15.5618 -173.702 1.90735e-06
      vertex 13.1117 -172.524 0
      vertex 15.5618 -173.702 0
    endloop
  endfacet
  facet normal -0.427714 -0.903914 0
    outer loop
      vertex 15.5618 -173.702 0
      vertex 17.8083 -174.765 1.90735e-06
      vertex 15.5618 -173.702 1.90735e-06
    endloop
  endfacet
  facet normal -0.427714 -0.903914 -0
    outer loop
      vertex 17.8083 -174.765 1.90735e-06
      vertex 15.5618 -173.702 0
      vertex 17.8083 -174.765 0
    endloop
  endfacet
  facet normal -0.621318 -0.783558 0
    outer loop
      vertex 17.8083 -174.765 0
      vertex 19.0669 -175.763 1.90735e-06
      vertex 17.8083 -174.765 1.90735e-06
    endloop
  endfacet
  facet normal -0.621318 -0.783558 -0
    outer loop
      vertex 19.0669 -175.763 1.90735e-06
      vertex 17.8083 -174.765 0
      vertex 19.0669 -175.763 0
    endloop
  endfacet
  facet normal -0.885905 -0.463867 0
    outer loop
      vertex 19.5371 -176.661 0
      vertex 19.0669 -175.763 1.90735e-06
      vertex 19.0669 -175.763 0
    endloop
  endfacet
  facet normal -0.885905 -0.463867 0
    outer loop
      vertex 19.0669 -175.763 1.90735e-06
      vertex 19.5371 -176.661 0
      vertex 19.5371 -176.661 1.90735e-06
    endloop
  endfacet
  facet normal -0.746831 -0.665014 0
    outer loop
      vertex 20.1524 -177.352 0
      vertex 19.5371 -176.661 1.90735e-06
      vertex 19.5371 -176.661 0
    endloop
  endfacet
  facet normal -0.746831 -0.665014 0
    outer loop
      vertex 19.5371 -176.661 1.90735e-06
      vertex 20.1524 -177.352 0
      vertex 20.1524 -177.352 1.90735e-06
    endloop
  endfacet
  facet normal -0.601717 -0.798709 -0
    outer loop
      vertex 20.1524 -177.352 1.90735e-06
      vertex 20.1524 -177.352 0
      vertex 21.5727 -178.422 0
    endloop
  endfacet
  facet normal -0.601717 -0.798709 0
    outer loop
      vertex 20.1524 -177.352 1.90735e-06
      vertex 21.5727 -178.422 0
      vertex 21.5727 -178.422 1.90735e-06
    endloop
  endfacet
  facet normal -0.182448 -0.983216 0
    outer loop
      vertex 21.5727 -178.422 0
      vertex 22.9469 -178.677 1.90735e-06
      vertex 21.5727 -178.422 1.90735e-06
    endloop
  endfacet
  facet normal -0.182448 -0.983216 -0
    outer loop
      vertex 22.9469 -178.677 1.90735e-06
      vertex 21.5727 -178.422 0
      vertex 22.9469 -178.677 0
    endloop
  endfacet
  facet normal 0.028589 -0.999591 0
    outer loop
      vertex 22.9469 -178.677 0
      vertex 24.8 -178.624 1.90735e-06
      vertex 22.9469 -178.677 1.90735e-06
    endloop
  endfacet
  facet normal 0.028589 -0.999591 0
    outer loop
      vertex 24.8 -178.624 1.90735e-06
      vertex 22.9469 -178.677 0
      vertex 24.8 -178.624 0
    endloop
  endfacet
endsolid OpenSCAD_Model
