solid OpenSCAD_Model
  facet normal 1 0 0
    outer loop
      vertex 24.8 -121.502 0
      vertex 24.8 -124.717 -17.7822
      vertex 24.8 -121.502 -17.6725
    endloop
  endfacet
  facet normal 1 -0 0
    outer loop
      vertex 24.8 -128.65 0
      vertex 24.8 -124.717 -17.7822
      vertex 24.8 -121.502 0
    endloop
  endfacet
  facet normal 1 0 0
    outer loop
      vertex 24.8 -124.717 -17.7822
      vertex 24.8 -128.65 0
      vertex 24.8 -126.553 -17.8114
    endloop
  endfacet
  facet normal 1 0 0
    outer loop
      vertex 24.8 -126.553 -17.8114
      vertex 24.8 -128.65 0
      vertex 24.8 -127.299 -17.8232
    endloop
  endfacet
  facet normal 1 0 0
    outer loop
      vertex 24.8 -127.299 -17.8232
      vertex 24.8 -128.65 0
      vertex 24.8 -128.65 -17.6861
    endloop
  endfacet
  facet normal 0 0 1
    outer loop
      vertex 24.8 -121.502 0
      vertex 3.88231 -128.65 0
      vertex 24.8 -128.65 0
    endloop
  endfacet
  facet normal 0 -0 1
    outer loop
      vertex 3.88231 -128.65 0
      vertex 24.8 -121.502 0
      vertex 3.21769 -121.502 0
    endloop
  endfacet
  facet normal 0 1 0
    outer loop
      vertex 24.8 -121.502 0
      vertex 3.32165 -121.502 -1.18321
      vertex 3.21769 -121.502 0
    endloop
  endfacet
  facet normal 0 1 -0
    outer loop
      vertex 3.80433 -121.502 -4.2873
      vertex 3.32165 -121.502 -1.18321
      vertex 24.8 -121.502 0
    endloop
  endfacet
  facet normal 0 1 0
    outer loop
      vertex 3.32165 -121.502 -1.18321
      vertex 3.80433 -121.502 -4.2873
      vertex 3.49262 -121.502 -3.12897
    endloop
  endfacet
  facet normal 0 1 -0
    outer loop
      vertex 4.82837 -121.502 -7.27196
      vertex 3.80433 -121.502 -4.2873
      vertex 24.8 -121.502 0
    endloop
  endfacet
  facet normal 0 1 0
    outer loop
      vertex 3.80433 -121.502 -4.2873
      vertex 4.82837 -121.502 -7.27196
      vertex 4.30909 -121.502 -6.16306
    endloop
  endfacet
  facet normal 0 1 -0
    outer loop
      vertex 6.36819 -121.502 -10.0425
      vertex 4.82837 -121.502 -7.27196
      vertex 24.8 -121.502 0
    endloop
  endfacet
  facet normal 0 1 0
    outer loop
      vertex 4.82837 -121.502 -7.27196
      vertex 6.36819 -121.502 -10.0425
      vertex 5.64239 -121.502 -9.01025
    endloop
  endfacet
  facet normal 0 1 -0
    outer loop
      vertex 8.38083 -121.502 -12.5091
      vertex 6.36819 -121.502 -10.0425
      vertex 24.8 -121.502 0
    endloop
  endfacet
  facet normal 0 1 0
    outer loop
      vertex 6.36819 -121.502 -10.0425
      vertex 8.38083 -121.502 -12.5091
      vertex 7.45216 -121.502 -11.5841
    endloop
  endfacet
  facet normal 0 1 -0
    outer loop
      vertex 10.8067 -121.502 -14.5901
      vertex 8.38083 -121.502 -12.5091
      vertex 24.8 -121.502 0
    endloop
  endfacet
  facet normal 0 1 0
    outer loop
      vertex 8.38083 -121.502 -12.5091
      vertex 10.8067 -121.502 -14.5901
      vertex 9.68358 -121.502 -13.8066
    endloop
  endfacet
  facet normal 0 1 -0
    outer loop
      vertex 13.5714 -121.502 -16.2153
      vertex 10.8067 -121.502 -14.5901
      vertex 24.8 -121.502 0
    endloop
  endfacet
  facet normal 0 1 0
    outer loop
      vertex 10.8067 -121.502 -14.5901
      vertex 13.5714 -121.502 -16.2153
      vertex 12.2691 -121.502 -15.6101
    endloop
  endfacet
  facet normal 0 1 -0
    outer loop
      vertex 16.5877 -121.502 -17.3294
      vertex 13.5714 -121.502 -16.2153
      vertex 24.8 -121.502 0
    endloop
  endfacet
  facet normal 0 1 0
    outer loop
      vertex 13.5714 -121.502 -16.2153
      vertex 16.5877 -121.502 -17.3294
      vertex 15.1302 -121.502 -16.9398
    endloop
  endfacet
  facet normal 0 1 0
    outer loop
      vertex 22.9816 -121.502 -17.8881
      vertex 24.8 -121.502 0
      vertex 24.8 -121.502 -17.6725
    endloop
  endfacet
  facet normal 0 1 0
    outer loop
      vertex 19.7587 -121.502 -17.8936
      vertex 24.8 -121.502 0
      vertex 22.9816 -121.502 -17.8881
    endloop
  endfacet
  facet normal 0 1 0
    outer loop
      vertex 22.9816 -121.502 -17.8881
      vertex 24.8 -121.502 -17.6725
      vertex 24.4736 -121.502 -17.7593
    endloop
  endfacet
  facet normal 0 1 0
    outer loop
      vertex 24.8 -121.502 0
      vertex 19.7587 -121.502 -17.8936
      vertex 16.5877 -121.502 -17.3294
    endloop
  endfacet
  facet normal 0 1 0
    outer loop
      vertex 16.5877 -121.502 -17.3294
      vertex 19.7587 -121.502 -17.8936
      vertex 18.1802 -121.502 -17.7551
    endloop
  endfacet
  facet normal -0 1 0
    outer loop
      vertex 19.7587 -121.502 -17.8936
      vertex 22.9816 -121.502 -17.8881
      vertex 21.3266 -121.502 -18.0311
    endloop
  endfacet
  facet normal 0 -1 0
    outer loop
      vertex 4.14497 -128.65 -2.98932
      vertex 24.8 -128.65 0
      vertex 3.88231 -128.65 0
    endloop
  endfacet
  facet normal 0 -1 0
    outer loop
      vertex 4.94295 -128.65 -6.05478
      vertex 4.14497 -128.65 -2.98932
      vertex 4.15803 -128.65 -3.13795
    endloop
  endfacet
  facet normal 0 -1 0
    outer loop
      vertex 4.14497 -128.65 -2.98932
      vertex 4.94295 -128.65 -6.05478
      vertex 24.8 -128.65 0
    endloop
  endfacet
  facet normal 0 -1 0
    outer loop
      vertex 6.27191 -128.65 -8.94627
      vertex 4.94295 -128.65 -6.05478
      vertex 4.97684 -128.65 -6.18074
    endloop
  endfacet
  facet normal 0 -1 0
    outer loop
      vertex 4.94295 -128.65 -6.05478
      vertex 6.27191 -128.65 -8.94627
      vertex 24.8 -128.65 0
    endloop
  endfacet
  facet normal 0 -1 0
    outer loop
      vertex 8.0966 -128.65 -11.5714
      vertex 6.27191 -128.65 -8.94627
      vertex 6.31397 -128.65 -9.03609
    endloop
  endfacet
  facet normal 0 -1 0
    outer loop
      vertex 6.27191 -128.65 -8.94627
      vertex 8.0966 -128.65 -11.5714
      vertex 24.8 -128.65 0
    endloop
  endfacet
  facet normal 0 -1 0
    outer loop
      vertex 10.3648 -128.65 -13.8443
      vertex 8.0966 -128.65 -11.5714
      vertex 8.12893 -128.65 -11.6174
    endloop
  endfacet
  facet normal 0 -1 0
    outer loop
      vertex 8.0966 -128.65 -11.5714
      vertex 10.3648 -128.65 -13.8443
      vertex 24.8 -128.65 0
    endloop
  endfacet
  facet normal 0 -1 0
    outer loop
      vertex 10.479 -128.65 -13.9245
      vertex 10.3648 -128.65 -13.8443
      vertex 10.3667 -128.65 -13.8462
    endloop
  endfacet
  facet normal 0 -1 0
    outer loop
      vertex 10.3648 -128.65 -13.8443
      vertex 10.479 -128.65 -13.9245
      vertex 24.8 -128.65 0
    endloop
  endfacet
  facet normal 0 -1 0
    outer loop
      vertex 12.9892 -128.65 -15.6567
      vertex 10.479 -128.65 -13.9245
      vertex 12.9392 -128.65 -15.6337
    endloop
  endfacet
  facet normal 0 -1 0
    outer loop
      vertex 10.479 -128.65 -13.9245
      vertex 12.9892 -128.65 -15.6567
      vertex 24.8 -128.65 0
    endloop
  endfacet
  facet normal 0 -1 0
    outer loop
      vertex 15.8914 -128.65 -16.9688
      vertex 12.9892 -128.65 -15.6567
      vertex 15.7766 -128.65 -16.9389
    endloop
  endfacet
  facet normal 0 -1 0
    outer loop
      vertex 12.9892 -128.65 -15.6567
      vertex 15.8914 -128.65 -16.9688
      vertex 24.8 -128.65 0
    endloop
  endfacet
  facet normal 0 -1 0
    outer loop
      vertex 18.9772 -128.65 -17.7394
      vertex 24.8 -128.65 0
      vertex 15.8914 -128.65 -16.9688
    endloop
  endfacet
  facet normal 0 -1 0
    outer loop
      vertex 18.9772 -128.65 -17.7394
      vertex 15.8914 -128.65 -16.9688
      vertex 18.7916 -128.65 -17.7247
    endloop
  endfacet
  facet normal 0 -1 0
    outer loop
      vertex 22.1457 -128.65 -17.9448
      vertex 24.8 -128.65 0
      vertex 18.9772 -128.65 -17.7394
    endloop
  endfacet
  facet normal 0 -1 -0
    outer loop
      vertex 24.8 -128.65 0
      vertex 22.1457 -128.65 -17.9448
      vertex 24.8 -128.65 -17.6861
    endloop
  endfacet
  facet normal -0 -1 0
    outer loop
      vertex 22.1457 -128.65 -17.9448
      vertex 18.9772 -128.65 -17.7394
      vertex 21.8914 -128.65 -17.9695
    endloop
  endfacet
  facet normal 0.0860603 0.015757 -0.996165
    outer loop
      vertex 21.9348 -127.569 -18.075
      vertex 24.8 -126.553 -17.8114
      vertex 24.8 -127.299 -17.8232
    endloop
  endfacet
  facet normal 0.0860295 0.0158444 -0.996167
    outer loop
      vertex 24.8 -126.553 -17.8114
      vertex 21.9348 -127.569 -18.075
      vertex 22.9816 -121.502 -17.8881
    endloop
  endfacet
  facet normal 0.0860733 0.0158367 -0.996163
    outer loop
      vertex 22.9816 -121.502 -17.8881
      vertex 21.9348 -127.569 -18.075
      vertex 21.3266 -121.502 -18.0311
    endloop
  endfacet
  facet normal 0.0860261 0.0158432 -0.996167
    outer loop
      vertex 22.9816 -121.502 -17.8881
      vertex 24.8 -124.717 -17.7822
      vertex 24.8 -126.553 -17.8114
    endloop
  endfacet
  facet normal 0.0859964 0.0158263 -0.99617
    outer loop
      vertex 24.8 -124.717 -17.7822
      vertex 22.9816 -121.502 -17.8881
      vertex 24.4736 -121.502 -17.7593
    endloop
  endfacet
  facet normal 0.0961849 -0.100507 -0.990276
    outer loop
      vertex 21.9348 -127.569 -18.075
      vertex 22.1457 -128.65 -17.9448
      vertex 21.8914 -128.65 -17.9695
    endloop
  endfacet
  facet normal 0.0965138 -0.100491 -0.990246
    outer loop
      vertex 22.1457 -128.65 -17.9448
      vertex 24.8 -127.299 -17.8232
      vertex 24.8 -128.65 -17.6861
    endloop
  endfacet
  facet normal 0.0964909 -0.100445 -0.990253
    outer loop
      vertex 24.8 -127.299 -17.8232
      vertex 22.1457 -128.65 -17.9448
      vertex 21.9348 -127.569 -18.075
    endloop
  endfacet
  facet normal 0.25686 0.0329573 -0.965887
    outer loop
      vertex 24.8 -121.502 -17.6725
      vertex 24.8 -124.717 -17.7822
      vertex 24.4736 -121.502 -17.7593
    endloop
  endfacet
  facet normal -0.991916 -0.0922288 -0.0871558
    outer loop
      vertex 3.88231 -128.65 0
      vertex 3.32165 -121.502 -1.18321
      vertex 4.14497 -128.65 -2.98932
    endloop
  endfacet
  facet normal -0.991917 -0.0922283 -0.0871524
    outer loop
      vertex 3.32165 -121.502 -1.18321
      vertex 3.88231 -128.65 0
      vertex 3.21769 -121.502 0
    endloop
  endfacet
  facet normal -0.991916 -0.0922283 -0.0871589
    outer loop
      vertex 4.14497 -128.65 -2.98932
      vertex 3.49262 -121.502 -3.12897
      vertex 4.15803 -128.65 -3.13795
    endloop
  endfacet
  facet normal -0.991916 -0.0922283 -0.0871577
    outer loop
      vertex 3.49262 -121.502 -3.12897
      vertex 4.14497 -128.65 -2.98932
      vertex 3.32165 -121.502 -1.18321
    endloop
  endfacet
  facet normal -0.961797 -0.0892085 -0.25882
    outer loop
      vertex 4.15803 -128.65 -3.13795
      vertex 3.80433 -121.502 -4.2873
      vertex 4.94295 -128.65 -6.05478
    endloop
  endfacet
  facet normal -0.961797 -0.0892089 -0.258822
    outer loop
      vertex 3.80433 -121.502 -4.2873
      vertex 4.15803 -128.65 -3.13795
      vertex 3.49262 -121.502 -3.12897
    endloop
  endfacet
  facet normal -0.961808 -0.0892099 -0.258778
    outer loop
      vertex 4.94295 -128.65 -6.05478
      vertex 4.30909 -121.502 -6.16306
      vertex 4.97684 -128.65 -6.18074
    endloop
  endfacet
  facet normal -0.961798 -0.0892096 -0.258816
    outer loop
      vertex 4.30909 -121.502 -6.16306
      vertex 4.94295 -128.65 -6.05478
      vertex 3.80433 -121.502 -4.2873
    endloop
  endfacet
  facet normal -0.902474 -0.0832627 -0.42262
    outer loop
      vertex 4.97684 -128.65 -6.18074
      vertex 4.82837 -121.502 -7.27196
      vertex 6.27191 -128.65 -8.94627
    endloop
  endfacet
  facet normal -0.902476 -0.083262 -0.422615
    outer loop
      vertex 4.82837 -121.502 -7.27196
      vertex 4.97684 -128.65 -6.18074
      vertex 4.30909 -121.502 -6.16306
    endloop
  endfacet
  facet normal -0.902481 -0.0832636 -0.422605
    outer loop
      vertex 6.27191 -128.65 -8.94627
      vertex 5.64239 -121.502 -9.01025
      vertex 6.31397 -128.65 -9.03609
    endloop
  endfacet
  facet normal -0.902475 -0.0832632 -0.422618
    outer loop
      vertex 5.64239 -121.502 -9.01025
      vertex 6.27191 -128.65 -8.94627
      vertex 4.82837 -121.502 -7.27196
    endloop
  endfacet
  facet normal -0.815753 -0.0745691 -0.573573
    outer loop
      vertex 6.31397 -128.65 -9.03609
      vertex 6.36819 -121.502 -10.0425
      vertex 8.0966 -128.65 -11.5714
    endloop
  endfacet
  facet normal -0.815752 -0.0745693 -0.573575
    outer loop
      vertex 6.36819 -121.502 -10.0425
      vertex 6.31397 -128.65 -9.03609
      vertex 5.64239 -121.502 -9.01025
    endloop
  endfacet
  facet normal -0.815866 -0.0745746 -0.573412
    outer loop
      vertex 8.0966 -128.65 -11.5714
      vertex 7.45216 -121.502 -11.5841
      vertex 8.12893 -128.65 -11.6174
    endloop
  endfacet
  facet normal -0.815744 -0.0745639 -0.573587
    outer loop
      vertex 7.45216 -121.502 -11.5841
      vertex 8.0966 -128.65 -11.5714
      vertex 6.36819 -121.502 -10.0425
    endloop
  endfacet
  facet normal -0.704265 -0.0633909 -0.707102
    outer loop
      vertex 8.12893 -128.65 -11.6174
      vertex 8.38083 -121.502 -12.5091
      vertex 10.3648 -128.65 -13.8443
    endloop
  endfacet
  facet normal -0.704286 -0.0633875 -0.707081
    outer loop
      vertex 8.38083 -121.502 -12.5091
      vertex 8.12893 -128.65 -11.6174
      vertex 7.45216 -121.502 -11.5841
    endloop
  endfacet
  facet normal -0.705678 -0.0635308 -0.705678
    outer loop
      vertex 10.3648 -128.65 -13.8443
      vertex 9.68358 -121.502 -13.8066
      vertex 10.3667 -128.65 -13.8462
    endloop
  endfacet
  facet normal -0.704259 -0.0633879 -0.707108
    outer loop
      vertex 9.68358 -121.502 -13.8066
      vertex 10.3648 -128.65 -13.8443
      vertex 8.38083 -121.502 -12.5091
    endloop
  endfacet
  facet normal -0.571395 -0.0500808 -0.819146
    outer loop
      vertex 10.479 -128.65 -13.9245
      vertex 10.8067 -121.502 -14.5901
      vertex 12.9372 -128.418 -15.6534
    endloop
  endfacet
  facet normal -0.571223 -0.0500997 -0.819264
    outer loop
      vertex 10.3667 -128.65 -13.8462
      vertex 10.8067 -121.502 -14.5901
      vertex 10.479 -128.65 -13.9245
    endloop
  endfacet
  facet normal -0.571428 -0.0500723 -0.819123
    outer loop
      vertex 10.8067 -121.502 -14.5901
      vertex 10.3667 -128.65 -13.8462
      vertex 9.68358 -121.502 -13.8066
    endloop
  endfacet
  facet normal -0.571359 -0.0500658 -0.819172
    outer loop
      vertex 12.2691 -121.502 -15.6101
      vertex 12.9372 -128.418 -15.6534
      vertex 10.8067 -121.502 -14.5901
    endloop
  endfacet
  facet normal -0.568976 -0.0744474 -0.818977
    outer loop
      vertex 12.9372 -128.418 -15.6534
      vertex 12.9392 -128.65 -15.6337
      vertex 10.479 -128.65 -13.9245
    endloop
  endfacet
  facet normal -0.421175 -0.0350119 -0.906303
    outer loop
      vertex 12.9372 -128.418 -15.6534
      vertex 13.5714 -121.502 -16.2153
      vertex 15.7801 -128.15 -16.9849
    endloop
  endfacet
  facet normal -0.421174 -0.0350121 -0.906304
    outer loop
      vertex 13.5714 -121.502 -16.2153
      vertex 12.9372 -128.418 -15.6534
      vertex 12.2691 -121.502 -15.6101
    endloop
  endfacet
  facet normal -0.421222 -0.0350299 -0.906281
    outer loop
      vertex 15.1302 -121.502 -16.9398
      vertex 15.7801 -128.15 -16.9849
      vertex 13.5714 -121.502 -16.2153
    endloop
  endfacet
  facet normal -0.41655 -0.0804841 -0.905543
    outer loop
      vertex 12.9892 -128.65 -15.6567
      vertex 12.9392 -128.65 -15.6337
      vertex 12.9372 -128.418 -15.6534
    endloop
  endfacet
  facet normal -0.416552 -0.0803948 -0.90555
    outer loop
      vertex 12.9892 -128.65 -15.6567
      vertex 15.7801 -128.15 -16.9849
      vertex 15.7766 -128.65 -16.9389
    endloop
  endfacet
  facet normal -0.416536 -0.0804809 -0.90555
    outer loop
      vertex 15.7801 -128.15 -16.9849
      vertex 12.9892 -128.65 -15.6567
      vertex 12.9372 -128.418 -15.6534
    endloop
  endfacet
  facet normal -0.258211 -0.0186859 -0.965908
    outer loop
      vertex 15.7801 -128.15 -16.9849
      vertex 16.5877 -121.502 -17.3294
      vertex 18.81 -127.864 -17.8004
    endloop
  endfacet
  facet normal -0.258195 -0.0186881 -0.965912
    outer loop
      vertex 16.5877 -121.502 -17.3294
      vertex 15.7801 -128.15 -16.9849
      vertex 15.1302 -121.502 -16.9398
    endloop
  endfacet
  facet normal -0.258203 -0.0186829 -0.96591
    outer loop
      vertex 18.1802 -121.502 -17.7551
      vertex 18.81 -127.864 -17.8004
      vertex 16.5877 -121.502 -17.3294
    endloop
  endfacet
  facet normal -0.25109 -0.0869351 -0.964052
    outer loop
      vertex 15.7801 -128.15 -16.9849
      vertex 15.8914 -128.65 -16.9688
      vertex 15.7766 -128.65 -16.9389
    endloop
  endfacet
  facet normal -0.251256 -0.086962 -0.964006
    outer loop
      vertex 15.8914 -128.65 -16.9688
      vertex 18.81 -127.864 -17.8004
      vertex 18.7916 -128.65 -17.7247
    endloop
  endfacet
  facet normal -0.251254 -0.0869701 -0.964006
    outer loop
      vertex 18.81 -127.864 -17.8004
      vertex 15.8914 -128.65 -16.9688
      vertex 15.7801 -128.15 -16.9849
    endloop
  endfacet
  facet normal -0.0873939 -0.00156125 -0.996173
    outer loop
      vertex 18.81 -127.864 -17.8004
      vertex 19.7587 -121.502 -17.8936
      vertex 21.9348 -127.569 -18.075
    endloop
  endfacet
  facet normal -0.0874056 -0.00155949 -0.996172
    outer loop
      vertex 19.7587 -121.502 -17.8936
      vertex 18.81 -127.864 -17.8004
      vertex 18.1802 -121.502 -17.7551
    endloop
  endfacet
  facet normal -0.0873615 -0.00154956 -0.996175
    outer loop
      vertex 21.3266 -121.502 -18.0311
      vertex 21.9348 -127.569 -18.075
      vertex 19.7587 -121.502 -17.8936
    endloop
  endfacet
  facet normal -0.0786076 -0.0937468 -0.992488
    outer loop
      vertex 18.81 -127.864 -17.8004
      vertex 18.9772 -128.65 -17.7394
      vertex 18.7916 -128.65 -17.7247
    endloop
  endfacet
  facet normal -0.0783668 -0.0937175 -0.99251
    outer loop
      vertex 18.9772 -128.65 -17.7394
      vertex 21.9348 -127.569 -18.075
      vertex 21.8914 -128.65 -17.9695
    endloop
  endfacet
  facet normal -0.0783738 -0.0936988 -0.992511
    outer loop
      vertex 21.9348 -127.569 -18.075
      vertex 18.9772 -128.65 -17.7394
      vertex 18.81 -127.864 -17.8004
    endloop
  endfacet
endsolid OpenSCAD_Model
