solid OpenSCAD_Model
  facet normal 0 0 1
    outer loop
      vertex 24.8 -157.238 0
      vertex 37.1162 -162.809 0
      vertex 37.4214 -159.38 0
    endloop
  endfacet
  facet normal -0 0 1
    outer loop
      vertex 24.8 -157.238 0
      vertex 37.4214 -159.38 0
      vertex 37.8466 -157.238 0
    endloop
  endfacet
  facet normal 0 0 1
    outer loop
      vertex 37.1162 -162.809 0
      vertex 24.8 -157.238 0
      vertex 24.8 -164.386 0
    endloop
  endfacet
  facet normal 0 0 1
    outer loop
      vertex 37.1162 -162.809 0
      vertex 24.8 -164.386 0
      vertex 36.8845 -164.386 0
    endloop
  endfacet
  facet normal -1 0 0
    outer loop
      vertex 24.8 -157.498 -14.7114
      vertex 24.8 -157.238 0
      vertex 24.8 -157.238 -14.761
    endloop
  endfacet
  facet normal -1 0 0
    outer loop
      vertex 24.8 -160.57 -14.1261
      vertex 24.8 -157.238 0
      vertex 24.8 -157.498 -14.7114
    endloop
  endfacet
  facet normal -1 0 0
    outer loop
      vertex 24.8 -162.457 -13.688
      vertex 24.8 -157.238 0
      vertex 24.8 -160.57 -14.1261
    endloop
  endfacet
  facet normal -1 0 0
    outer loop
      vertex 24.8 -164.386 0
      vertex 24.8 -162.457 -13.688
      vertex 24.8 -163.971 -13.3365
    endloop
  endfacet
  facet normal -1 0 0
    outer loop
      vertex 24.8 -164.386 0
      vertex 24.8 -163.971 -13.3365
      vertex 24.8 -164.386 -13.2644
    endloop
  endfacet
  facet normal -1 0 0
    outer loop
      vertex 24.8 -162.457 -13.688
      vertex 24.8 -164.386 0
      vertex 24.8 -157.238 0
    endloop
  endfacet
  facet normal 0 1 -0
    outer loop
      vertex 37.7861 -157.238 -0.708763
      vertex 24.8 -157.238 0
      vertex 37.8466 -157.238 0
    endloop
  endfacet
  facet normal 0 1 -0
    outer loop
      vertex 37.629 -157.238 -2.54684
      vertex 24.8 -157.238 0
      vertex 37.7861 -157.238 -0.708763
    endloop
  endfacet
  facet normal 0 1 -0
    outer loop
      vertex 37.4463 -157.238 -3.24509
      vertex 24.8 -157.238 0
      vertex 37.629 -157.238 -2.54684
    endloop
  endfacet
  facet normal 0 1 -0
    outer loop
      vertex 36.9819 -157.238 -5.02025
      vertex 24.8 -157.238 0
      vertex 37.4463 -157.238 -3.24509
    endloop
  endfacet
  facet normal 0 1 -0
    outer loop
      vertex 36.6731 -157.238 -5.69908
      vertex 24.8 -157.238 0
      vertex 36.9819 -157.238 -5.02025
    endloop
  endfacet
  facet normal 0 1 -0
    outer loop
      vertex 35.923 -157.238 -7.34857
      vertex 24.8 -157.238 0
      vertex 36.6731 -157.238 -5.69908
    endloop
  endfacet
  facet normal 0 1 -0
    outer loop
      vertex 35.4822 -157.238 -7.99543
      vertex 24.8 -157.238 0
      vertex 35.923 -157.238 -7.34857
    endloop
  endfacet
  facet normal 0 1 -0
    outer loop
      vertex 34.4816 -157.238 -9.46369
      vertex 24.8 -157.238 0
      vertex 35.4822 -157.238 -7.99543
    endloop
  endfacet
  facet normal 0 1 -0
    outer loop
      vertex 33.9023 -157.238 -10.0609
      vertex 24.8 -157.238 0
      vertex 34.4816 -157.238 -9.46369
    endloop
  endfacet
  facet normal 0 1 -0
    outer loop
      vertex 32.6977 -157.238 -11.3028
      vertex 24.8 -157.238 0
      vertex 33.9023 -157.238 -10.0609
    endloop
  endfacet
  facet normal 0 1 -0
    outer loop
      vertex 31.9757 -157.238 -11.8269
      vertex 24.8 -157.238 0
      vertex 32.6977 -157.238 -11.3028
    endloop
  endfacet
  facet normal 0 1 -0
    outer loop
      vertex 30.6214 -157.238 -12.8101
      vertex 24.8 -157.238 0
      vertex 31.9757 -157.238 -11.8269
    endloop
  endfacet
  facet normal 0 1 -0
    outer loop
      vertex 29.7574 -157.238 -13.2322
      vertex 24.8 -157.238 0
      vertex 30.6214 -157.238 -12.8101
    endloop
  endfacet
  facet normal 0 1 -0
    outer loop
      vertex 28.312 -157.238 -13.9385
      vertex 24.8 -157.238 0
      vertex 29.7574 -157.238 -13.2322
    endloop
  endfacet
  facet normal 0 1 -0
    outer loop
      vertex 27.3143 -157.238 -14.2258
      vertex 24.8 -157.238 0
      vertex 28.312 -157.238 -13.9385
    endloop
  endfacet
  facet normal 0 1 -0
    outer loop
      vertex 25.8364 -157.238 -14.6513
      vertex 24.8 -157.238 0
      vertex 27.3143 -157.238 -14.2258
    endloop
  endfacet
  facet normal 0 1 0
    outer loop
      vertex 24.8 -157.238 0
      vertex 25.8364 -157.238 -14.6513
      vertex 24.8 -157.238 -14.761
    endloop
  endfacet
  facet normal 0 -1 0
    outer loop
      vertex 24.8 -164.386 0
      vertex 36.7836 -164.386 -1.17477
      vertex 36.8845 -164.386 0
    endloop
  endfacet
  facet normal 0 -1 0
    outer loop
      vertex 24.8 -164.386 0
      vertex 36.6883 -164.386 -2.28495
      vertex 36.7836 -164.386 -1.17477
    endloop
  endfacet
  facet normal 0 -1 0
    outer loop
      vertex 24.8 -164.386 0
      vertex 36.3813 -164.386 -3.45247
      vertex 36.6883 -164.386 -2.28495
    endloop
  endfacet
  facet normal 0 -1 0
    outer loop
      vertex 24.8 -164.386 0
      vertex 36.1049 -164.386 -4.50379
      vertex 36.3813 -164.386 -3.45247
    endloop
  endfacet
  facet normal 0 -1 0
    outer loop
      vertex 24.8 -164.386 0
      vertex 35.5796 -164.386 -5.65293
      vertex 36.1049 -164.386 -4.50379
    endloop
  endfacet
  facet normal 0 -1 0
    outer loop
      vertex 24.8 -164.386 0
      vertex 35.1504 -164.386 -6.59204
      vertex 35.5796 -164.386 -5.65293
    endloop
  endfacet
  facet normal 0 -1 0
    outer loop
      vertex 24.8 -164.386 0
      vertex 34.389 -164.386 -7.70345
      vertex 35.1504 -164.386 -6.59204
    endloop
  endfacet
  facet normal 0 -1 0
    outer loop
      vertex 24.8 -164.386 0
      vertex 33.8513 -164.386 -8.48843
      vertex 34.389 -164.386 -7.70345
    endloop
  endfacet
  facet normal 0 -1 0
    outer loop
      vertex 24.8 -164.386 0
      vertex 32.8343 -164.386 -9.53118
      vertex 33.8513 -164.386 -8.48843
    endloop
  endfacet
  facet normal 0 -1 0
    outer loop
      vertex 24.8 -164.386 0
      vertex 32.2439 -164.386 -10.1366
      vertex 32.8343 -164.386 -9.53118
    endloop
  endfacet
  facet normal 0 -1 0
    outer loop
      vertex 24.8 -164.386 0
      vertex 30.9556 -164.386 -11.0664
      vertex 32.2439 -164.386 -10.1366
    endloop
  endfacet
  facet normal 0 -1 0
    outer loop
      vertex 24.8 -164.386 0
      vertex 30.3736 -164.386 -11.4865
      vertex 30.9556 -164.386 -11.0664
    endloop
  endfacet
  facet normal 0 -1 0
    outer loop
      vertex 24.8 -164.386 0
      vertex 28.8083 -164.386 -12.2464
      vertex 30.3736 -164.386 -11.4865
    endloop
  endfacet
  facet normal 0 -1 0
    outer loop
      vertex 24.8 -164.386 0
      vertex 28.2941 -164.386 -12.496
      vertex 28.8083 -164.386 -12.2464
    endloop
  endfacet
  facet normal 0 -1 0
    outer loop
      vertex 24.8 -164.386 0
      vertex 26.462 -164.386 -13.0193
      vertex 28.2941 -164.386 -12.496
    endloop
  endfacet
  facet normal 0 -1 0
    outer loop
      vertex 24.8 -164.386 -13.2644
      vertex 26.462 -164.386 -13.0193
      vertex 24.8 -164.386 0
    endloop
  endfacet
  facet normal 0 -1 0
    outer loop
      vertex 26.462 -164.386 -13.0193
      vertex 24.8 -164.386 -13.2644
      vertex 26.0659 -164.386 -13.1324
    endloop
  endfacet
  facet normal 0.103283 -0.18616 -0.977076
    outer loop
      vertex 24.8 -157.498 -14.7114
      vertex 25.6856 -160.487 -14.0483
      vertex 24.8 -160.57 -14.1261
    endloop
  endfacet
  facet normal 0.103356 -0.186137 -0.977072
    outer loop
      vertex 24.8 -157.498 -14.7114
      vertex 25.8364 -157.238 -14.6513
      vertex 25.6856 -160.487 -14.0483
    endloop
  endfacet
  facet normal 0.103415 -0.186385 -0.977019
    outer loop
      vertex 25.8364 -157.238 -14.6513
      vertex 24.8 -157.498 -14.7114
      vertex 24.8 -157.238 -14.761
    endloop
  endfacet
  facet normal 0.106374 -0.224868 -0.968565
    outer loop
      vertex 24.8 -162.457 -13.688
      vertex 26.068 -163.851 -13.2251
      vertex 24.8 -163.971 -13.3365
    endloop
  endfacet
  facet normal 0.106303 -0.224931 -0.968559
    outer loop
      vertex 24.8 -162.457 -13.688
      vertex 25.6856 -160.487 -14.0483
      vertex 26.068 -163.851 -13.2251
    endloop
  endfacet
  facet normal 0.106166 -0.224874 -0.968587
    outer loop
      vertex 25.6856 -160.487 -14.0483
      vertex 24.8 -162.457 -13.688
      vertex 24.8 -160.57 -14.1261
    endloop
  endfacet
  facet normal 0.102197 -0.170275 -0.980083
    outer loop
      vertex 24.8 -163.971 -13.3365
      vertex 26.0659 -164.386 -13.1324
      vertex 24.8 -164.386 -13.2644
    endloop
  endfacet
  facet normal 0.102215 -0.170222 -0.98009
    outer loop
      vertex 26.0659 -164.386 -13.1324
      vertex 24.8 -163.971 -13.3365
      vertex 26.068 -163.851 -13.2251
    endloop
  endfacet
  facet normal 0.271792 -0.187812 -0.943852
    outer loop
      vertex 25.6856 -160.487 -14.0483
      vertex 27.3143 -157.238 -14.2258
      vertex 28.0768 -160.261 -13.4047
    endloop
  endfacet
  facet normal 0.271748 -0.187791 -0.943869
    outer loop
      vertex 27.3143 -157.238 -14.2258
      vertex 25.6856 -160.487 -14.0483
      vertex 25.8364 -157.238 -14.6513
    endloop
  endfacet
  facet normal 0.271794 -0.187811 -0.943851
    outer loop
      vertex 28.312 -157.238 -13.9385
      vertex 28.0768 -160.261 -13.4047
      vertex 27.3143 -157.238 -14.2258
    endloop
  endfacet
  facet normal 0.272155 -0.199422 -0.941362
    outer loop
      vertex 28.3191 -163.639 -12.6192
      vertex 26.068 -163.851 -13.2251
      vertex 25.6856 -160.487 -14.0483
    endloop
  endfacet
  facet normal 0.272213 -0.199372 -0.941356
    outer loop
      vertex 28.0768 -160.261 -13.4047
      vertex 28.3191 -163.639 -12.6192
      vertex 25.6856 -160.487 -14.0483
    endloop
  endfacet
  facet normal 0.27078 -0.165381 -0.948329
    outer loop
      vertex 26.068 -163.851 -13.2251
      vertex 26.462 -164.386 -13.0193
      vertex 26.0659 -164.386 -13.1324
    endloop
  endfacet
  facet normal 0.270859 -0.165463 -0.948292
    outer loop
      vertex 26.462 -164.386 -13.0193
      vertex 28.3191 -163.639 -12.6192
      vertex 28.2941 -164.386 -12.496
    endloop
  endfacet
  facet normal 0.27082 -0.165349 -0.948323
    outer loop
      vertex 28.3191 -163.639 -12.6192
      vertex 26.462 -164.386 -13.0193
      vertex 26.068 -163.851 -13.2251
    endloop
  endfacet
  facet normal 0.431084 -0.189314 -0.882228
    outer loop
      vertex 28.0768 -160.261 -13.4047
      vertex 29.7574 -157.238 -13.2322
      vertex 30.3204 -160.049 -12.3539
    endloop
  endfacet
  facet normal 0.431099 -0.189323 -0.882219
    outer loop
      vertex 29.7574 -157.238 -13.2322
      vertex 28.0768 -160.261 -13.4047
      vertex 28.312 -157.238 -13.9385
    endloop
  endfacet
  facet normal 0.431019 -0.189335 -0.882256
    outer loop
      vertex 30.6214 -157.238 -12.8101
      vertex 30.3204 -160.049 -12.3539
      vertex 29.7574 -157.238 -13.2322
    endloop
  endfacet
  facet normal 0.431049 -0.174923 -0.885211
    outer loop
      vertex 30.4313 -163.44 -11.63
      vertex 28.3191 -163.639 -12.6192
      vertex 28.0768 -160.261 -13.4047
    endloop
  endfacet
  facet normal 0.431108 -0.174869 -0.885193
    outer loop
      vertex 30.3204 -160.049 -12.3539
      vertex 30.4313 -163.44 -11.63
      vertex 28.0768 -160.261 -13.4047
    endloop
  endfacet
  facet normal 0.430999 -0.160862 -0.887898
    outer loop
      vertex 28.3191 -163.639 -12.6192
      vertex 28.8083 -164.386 -12.2464
      vertex 28.2941 -164.386 -12.496
    endloop
  endfacet
  facet normal 0.431028 -0.160971 -0.887864
    outer loop
      vertex 28.8083 -164.386 -12.2464
      vertex 30.4313 -163.44 -11.63
      vertex 30.3736 -164.386 -11.4865
    endloop
  endfacet
  facet normal 0.430985 -0.160873 -0.887903
    outer loop
      vertex 30.4313 -163.44 -11.63
      vertex 28.8083 -164.386 -12.2464
      vertex 28.3191 -163.639 -12.6192
    endloop
  endfacet
  facet normal 0.576713 -0.190653 -0.794389
    outer loop
      vertex 32.3483 -159.858 -10.9276
      vertex 30.6214 -157.238 -12.8101
      vertex 31.9757 -157.238 -11.8269
    endloop
  endfacet
  facet normal 0.576691 -0.190676 -0.7944
    outer loop
      vertex 30.6214 -157.238 -12.8101
      vertex 32.3483 -159.858 -10.9276
      vertex 30.3204 -160.049 -12.3539
    endloop
  endfacet
  facet normal 0.576668 -0.190669 -0.794418
    outer loop
      vertex 32.6977 -157.238 -11.3028
      vertex 32.3483 -159.858 -10.9276
      vertex 31.9757 -157.238 -11.8269
    endloop
  endfacet
  facet normal 0.57816 -0.152215 -0.8016
    outer loop
      vertex 32.3403 -163.26 -10.2873
      vertex 30.4313 -163.44 -11.63
      vertex 30.3204 -160.049 -12.3539
    endloop
  endfacet
  facet normal 0.578141 -0.152233 -0.80161
    outer loop
      vertex 32.3483 -159.858 -10.9276
      vertex 32.3403 -163.26 -10.2873
      vertex 30.3204 -160.049 -12.3539
    endloop
  endfacet
  facet normal 0.578043 -0.156733 -0.800812
    outer loop
      vertex 30.4313 -163.44 -11.63
      vertex 30.9556 -164.386 -11.0664
      vertex 30.3736 -164.386 -11.4865
    endloop
  endfacet
  facet normal 0.577999 -0.156668 -0.800857
    outer loop
      vertex 30.9556 -164.386 -11.0664
      vertex 32.3403 -163.26 -10.2873
      vertex 32.2439 -164.386 -10.1366
    endloop
  endfacet
  facet normal 0.578036 -0.15674 -0.800817
    outer loop
      vertex 32.3403 -163.26 -10.2873
      vertex 30.9556 -164.386 -11.0664
      vertex 30.4313 -163.44 -11.63
    endloop
  endfacet
  facet normal 0.704469 -0.191795 -0.683329
    outer loop
      vertex 32.3483 -159.858 -10.9276
      vertex 33.9023 -157.238 -10.0609
      vertex 34.0987 -159.693 -9.16936
    endloop
  endfacet
  facet normal 0.704477 -0.191804 -0.683318
    outer loop
      vertex 33.9023 -157.238 -10.0609
      vertex 32.3483 -159.858 -10.9276
      vertex 32.6977 -157.238 -11.3028
    endloop
  endfacet
  facet normal 0.704462 -0.191798 -0.683335
    outer loop
      vertex 34.4816 -157.238 -9.46369
      vertex 34.0987 -159.693 -9.16936
      vertex 33.9023 -157.238 -10.0609
    endloop
  endfacet
  facet normal 0.70866 -0.132111 -0.693071
    outer loop
      vertex 32.3483 -159.858 -10.9276
      vertex 33.9882 -163.104 -8.63207
      vertex 32.3403 -163.26 -10.2873
    endloop
  endfacet
  facet normal 0.708644 -0.132129 -0.693084
    outer loop
      vertex 34.0987 -159.693 -9.16936
      vertex 33.9882 -163.104 -8.63207
      vertex 32.3483 -159.858 -10.9276
    endloop
  endfacet
  facet normal 0.707512 -0.152914 -0.689959
    outer loop
      vertex 32.3403 -163.26 -10.2873
      vertex 32.8343 -164.386 -9.53118
      vertex 32.2439 -164.386 -10.1366
    endloop
  endfacet
  facet normal 0.707478 -0.15286 -0.690007
    outer loop
      vertex 32.8343 -164.386 -9.53118
      vertex 33.9882 -163.104 -8.63207
      vertex 33.8513 -164.386 -8.48843
    endloop
  endfacet
  facet normal 0.707508 -0.152918 -0.689963
    outer loop
      vertex 33.9882 -163.104 -8.63207
      vertex 32.8343 -164.386 -9.53118
      vertex 32.3403 -163.26 -10.2873
    endloop
  endfacet
  facet normal 0.810855 -0.192705 -0.552611
    outer loop
      vertex 34.0987 -159.693 -9.16936
      vertex 35.4822 -157.238 -7.99543
      vertex 35.5187 -159.559 -7.1325
    endloop
  endfacet
  facet normal 0.810864 -0.192719 -0.552593
    outer loop
      vertex 35.4822 -157.238 -7.99543
      vertex 34.0987 -159.693 -9.16936
      vertex 34.4816 -157.238 -9.46369
    endloop
  endfacet
  facet normal 0.810884 -0.192691 -0.552573
    outer loop
      vertex 35.923 -157.238 -7.34857
      vertex 35.5187 -159.559 -7.1325
      vertex 35.4822 -157.238 -7.99543
    endloop
  endfacet
  facet normal 0.818402 -0.115192 -0.562983
    outer loop
      vertex 34.0987 -159.693 -9.16936
      vertex 35.325 -162.978 -6.71456
      vertex 33.9882 -163.104 -8.63207
    endloop
  endfacet
  facet normal 0.818407 -0.115184 -0.562976
    outer loop
      vertex 35.5187 -159.559 -7.1325
      vertex 35.325 -162.978 -6.71456
      vertex 34.0987 -159.693 -9.16936
    endloop
  endfacet
  facet normal 0.815711 -0.149711 -0.55875
    outer loop
      vertex 33.9882 -163.104 -8.63207
      vertex 34.389 -164.386 -7.70345
      vertex 33.8513 -164.386 -8.48843
    endloop
  endfacet
  facet normal 0.815669 -0.149772 -0.558795
    outer loop
      vertex 34.389 -164.386 -7.70345
      vertex 35.325 -162.978 -6.71456
      vertex 35.1504 -164.386 -6.59204
    endloop
  endfacet
  facet normal 0.815665 -0.149764 -0.558803
    outer loop
      vertex 35.325 -162.978 -6.71456
      vertex 34.389 -164.386 -7.70345
      vertex 33.9882 -163.104 -8.63207
    endloop
  endfacet
  facet normal 0.893119 -0.193396 -0.406123
    outer loop
      vertex 35.5187 -159.559 -7.1325
      vertex 36.6731 -157.238 -5.69908
      vertex 36.5649 -159.46 -4.87891
    endloop
  endfacet
  facet normal 0.893114 -0.193383 -0.406141
    outer loop
      vertex 36.6731 -157.238 -5.69908
      vertex 35.5187 -159.559 -7.1325
      vertex 35.923 -157.238 -7.34857
    endloop
  endfacet
  facet normal 0.893052 -0.193439 -0.40625
    outer loop
      vertex 36.6731 -157.238 -5.69908
      vertex 36.9819 -157.238 -5.02025
      vertex 36.5649 -159.46 -4.87891
    endloop
  endfacet
  facet normal 0.903997 -0.101969 -0.415202
    outer loop
      vertex 35.5187 -159.559 -7.1325
      vertex 36.3099 -162.885 -4.59303
      vertex 35.325 -162.978 -6.71456
    endloop
  endfacet
  facet normal 0.904002 -0.101961 -0.415192
    outer loop
      vertex 36.5649 -159.46 -4.87891
      vertex 36.3099 -162.885 -4.59303
      vertex 35.5187 -159.559 -7.1325
    endloop
  endfacet
  facet normal 0.899589 -0.14733 -0.411138
    outer loop
      vertex 35.325 -162.978 -6.71456
      vertex 35.5796 -164.386 -5.65293
      vertex 35.1504 -164.386 -6.59204
    endloop
  endfacet
  facet normal 0.899559 -0.147306 -0.411211
    outer loop
      vertex 35.5796 -164.386 -5.65293
      vertex 36.3099 -162.885 -4.59303
      vertex 36.1049 -164.386 -4.50379
    endloop
  endfacet
  facet normal 0.899575 -0.147349 -0.41116
    outer loop
      vertex 36.3099 -162.885 -4.59303
      vertex 35.5796 -164.386 -5.65293
      vertex 35.325 -162.978 -6.71456
    endloop
  endfacet
  facet normal 0.949076 -0.193876 -0.248329
    outer loop
      vertex 36.5649 -159.46 -4.87891
      vertex 37.4463 -157.238 -3.24509
      vertex 37.2056 -159.4 -2.47709
    endloop
  endfacet
  facet normal 0.94908 -0.193906 -0.248289
    outer loop
      vertex 37.4463 -157.238 -3.24509
      vertex 36.5649 -159.46 -4.87891
      vertex 36.9819 -157.238 -5.02025
    endloop
  endfacet
  facet normal 0.949076 -0.193876 -0.24833
    outer loop
      vertex 37.4463 -157.238 -3.24509
      vertex 37.629 -157.238 -2.54684
      vertex 37.2056 -159.4 -2.47709
    endloop
  endfacet
  facet normal 0.962611 -0.092908 -0.254457
    outer loop
      vertex 36.5649 -159.46 -4.87891
      vertex 36.9131 -162.828 -2.33194
      vertex 36.3099 -162.885 -4.59303
    endloop
  endfacet
  facet normal 0.96261 -0.0929108 -0.254461
    outer loop
      vertex 37.2056 -159.4 -2.47709
      vertex 36.9131 -162.828 -2.33194
      vertex 36.5649 -159.46 -4.87891
    endloop
  endfacet
  facet normal 0.956823 -0.145635 -0.251556
    outer loop
      vertex 36.3099 -162.885 -4.59303
      vertex 36.3813 -164.386 -3.45247
      vertex 36.1049 -164.386 -4.50379
    endloop
  endfacet
  facet normal 0.956811 -0.145644 -0.251594
    outer loop
      vertex 36.3813 -164.386 -3.45247
      vertex 36.9131 -162.828 -2.33194
      vertex 36.6883 -164.386 -2.28495
    endloop
  endfacet
  facet normal 0.956813 -0.145654 -0.251581
    outer loop
      vertex 36.9131 -162.828 -2.33194
      vertex 36.3813 -164.386 -3.45247
      vertex 36.3099 -162.885 -4.59303
    endloop
  endfacet
  facet normal 0.97742 -0.194074 -0.0835842
    outer loop
      vertex 37.2056 -159.4 -2.47709
      vertex 37.7861 -157.238 -0.708763
      vertex 37.4214 -159.38 0
    endloop
  endfacet
  facet normal 0.977416 -0.19411 -0.0835395
    outer loop
      vertex 37.7861 -157.238 -0.708763
      vertex 37.2056 -159.4 -2.47709
      vertex 37.629 -157.238 -2.54684
    endloop
  endfacet
  facet normal 0.977441 -0.194028 -0.0834344
    outer loop
      vertex 37.7861 -157.238 -0.708763
      vertex 37.8466 -157.238 0
      vertex 37.4214 -159.38 0
    endloop
  endfacet
  facet normal 0.992399 -0.0883074 -0.0857133
    outer loop
      vertex 37.2056 -159.4 -2.47709
      vertex 37.1162 -162.809 0
      vertex 36.9131 -162.828 -2.33194
    endloop
  endfacet
  facet normal 0.992394 -0.0883286 -0.0857426
    outer loop
      vertex 37.2056 -159.4 -2.47709
      vertex 37.4214 -159.38 0
      vertex 37.1162 -162.809 0
    endloop
  endfacet
  facet normal 0.985836 -0.144796 -0.0846261
    outer loop
      vertex 36.9131 -162.828 -2.33194
      vertex 36.7836 -164.386 -1.17477
      vertex 36.6883 -164.386 -2.28495
    endloop
  endfacet
  facet normal 0.985825 -0.144842 -0.0846717
    outer loop
      vertex 36.7836 -164.386 -1.17477
      vertex 37.1162 -162.809 0
      vertex 36.8845 -164.386 0
    endloop
  endfacet
  facet normal 0.985825 -0.144836 -0.0846803
    outer loop
      vertex 37.1162 -162.809 0
      vertex 36.7836 -164.386 -1.17477
      vertex 36.9131 -162.828 -2.33194
    endloop
  endfacet
endsolid OpenSCAD_Model
