solid OpenSCAD_Model
  facet normal 0 0 -1
    outer loop
      vertex 24.8 -50.0304 0
      vertex 44.3436 -57.1776 0
      vertex 24.8 -57.1776 0
    endloop
  endfacet
  facet normal 0 0 -1
    outer loop
      vertex 44.3436 -57.1776 0
      vertex 24.8 -50.0304 0
      vertex 45.4423 -50.0304 0
    endloop
  endfacet
  facet normal -1 0 0
    outer loop
      vertex 24.8 -50.0304 0
      vertex 24.8 -51.9657 22.4962
      vertex 24.8 -50.0304 22.596
    endloop
  endfacet
  facet normal -1 0 0
    outer loop
      vertex 24.8 -50.0304 0
      vertex 24.8 -56.9279 22.1304
      vertex 24.8 -51.9657 22.4962
    endloop
  endfacet
  facet normal -1 0 0
    outer loop
      vertex 24.8 -57.1776 0
      vertex 24.8 -56.9279 22.1304
      vertex 24.8 -50.0304 0
    endloop
  endfacet
  facet normal -1 0 0
    outer loop
      vertex 24.8 -56.9279 22.1304
      vertex 24.8 -57.1776 0
      vertex 24.8 -57.1776 22.112
    endloop
  endfacet
  facet normal 0 1 0
    outer loop
      vertex 27.4306 -50.0304 22.2571
      vertex 24.8 -50.0304 22.596
      vertex 26.9101 -50.0304 22.4003
    endloop
  endfacet
  facet normal 0 1 0
    outer loop
      vertex 24.8 -50.0304 0
      vertex 27.4306 -50.0304 22.2571
      vertex 30.697 -50.0304 21.3585
    endloop
  endfacet
  facet normal 0 1 0
    outer loop
      vertex 24.8 -50.0304 0
      vertex 30.697 -50.0304 21.3585
      vertex 31.0853 -50.0304 21.1738
    endloop
  endfacet
  facet normal 0 1 0
    outer loop
      vertex 24.8 -50.0304 0
      vertex 31.0853 -50.0304 21.1738
      vertex 34.2452 -50.0304 19.6706
    endloop
  endfacet
  facet normal 0 1 0
    outer loop
      vertex 24.8 -50.0304 0
      vertex 34.2452 -50.0304 19.6706
      vertex 34.5115 -50.0304 19.4809
    endloop
  endfacet
  facet normal 0 1 0
    outer loop
      vertex 24.8 -50.0304 0
      vertex 34.5115 -50.0304 19.4809
      vertex 37.448 -50.0304 17.3889
    endloop
  endfacet
  facet normal 0 1 0
    outer loop
      vertex 24.8 -50.0304 0
      vertex 37.448 -50.0304 17.3889
      vertex 37.6118 -50.0304 17.2225
    endloop
  endfacet
  facet normal 0 1 0
    outer loop
      vertex 24.8 -50.0304 0
      vertex 37.6118 -50.0304 17.2225
      vertex 40.2095 -50.0304 14.5832
    endloop
  endfacet
  facet normal 0 1 0
    outer loop
      vertex 24.8 -50.0304 0
      vertex 40.2095 -50.0304 14.5832
      vertex 40.296 -50.0304 14.4578
    endloop
  endfacet
  facet normal 0 1 0
    outer loop
      vertex 24.8 -50.0304 0
      vertex 40.296 -50.0304 14.4578
      vertex 42.4473 -50.0304 11.3388
    endloop
  endfacet
  facet normal 0 1 0
    outer loop
      vertex 24.8 -50.0304 0
      vertex 42.4473 -50.0304 11.3388
      vertex 42.4833 -50.0304 11.2606
    endloop
  endfacet
  facet normal 0 1 0
    outer loop
      vertex 24.8 -50.0304 0
      vertex 42.4833 -50.0304 11.2606
      vertex 44.0949 -50.0304 7.75372
    endloop
  endfacet
  facet normal 0 1 0
    outer loop
      vertex 24.8 -50.0304 0
      vertex 44.0949 -50.0304 7.75372
      vertex 44.1043 -50.0304 7.71808
    endloop
  endfacet
  facet normal 0 1 0
    outer loop
      vertex 24.8 -50.0304 0
      vertex 44.1043 -50.0304 7.71808
      vertex 45.1035 -50.0304 3.9359
    endloop
  endfacet
  facet normal 0 1 0
    outer loop
      vertex 24.8 -50.0304 0
      vertex 45.1035 -50.0304 3.9359
      vertex 45.104 -50.0304 3.92947
    endloop
  endfacet
  facet normal 0 1 0
    outer loop
      vertex 24.8 -50.0304 0
      vertex 45.104 -50.0304 3.92947
      vertex 45.3159 -50.0304 1.47346
    endloop
  endfacet
  facet normal 0 1 0
    outer loop
      vertex 24.8 -50.0304 0
      vertex 45.3159 -50.0304 1.47346
      vertex 45.442 -50.0304 0.0035953
    endloop
  endfacet
  facet normal 0 1 0
    outer loop
      vertex 24.8 -50.0304 0
      vertex 45.442 -50.0304 0.0035953
      vertex 45.4423 -50.0304 0
    endloop
  endfacet
  facet normal 0 1 0
    outer loop
      vertex 27.4306 -50.0304 22.2571
      vertex 24.8 -50.0304 0
      vertex 24.8 -50.0304 22.596
    endloop
  endfacet
  facet normal 0 -1 0
    outer loop
      vertex 24.8 -57.1776 22.112
      vertex 28.3534 -57.1776 21.3906
      vertex 26.2528 -57.1776 21.9742
    endloop
  endfacet
  facet normal 0 -1 0
    outer loop
      vertex 24.8 -57.1776 0
      vertex 28.3534 -57.1776 21.3906
      vertex 24.8 -57.1776 22.112
    endloop
  endfacet
  facet normal 0 -1 -0
    outer loop
      vertex 28.3534 -57.1776 21.3906
      vertex 24.8 -57.1776 0
      vertex 29.9537 -57.1776 20.946
    endloop
  endfacet
  facet normal 0 -1 -0
    outer loop
      vertex 29.9537 -57.1776 20.946
      vertex 24.8 -57.1776 0
      vertex 31.8304 -57.1776 20.0466
    endloop
  endfacet
  facet normal 0 -1 -0
    outer loop
      vertex 31.8304 -57.1776 20.0466
      vertex 24.8 -57.1776 0
      vertex 33.4192 -57.1776 19.2853
    endloop
  endfacet
  facet normal 0 -1 -0
    outer loop
      vertex 33.4192 -57.1776 19.2853
      vertex 24.8 -57.1776 0
      vertex 35.0371 -57.1776 18.1255
    endloop
  endfacet
  facet normal 0 -1 -0
    outer loop
      vertex 35.0371 -57.1776 18.1255
      vertex 24.8 -57.1776 0
      vertex 36.5458 -57.1776 17.044
    endloop
  endfacet
  facet normal 0 -1 -0
    outer loop
      vertex 36.5458 -57.1776 17.044
      vertex 24.8 -57.1776 0
      vertex 37.8824 -57.1776 15.6782
    endloop
  endfacet
  facet normal 0 -1 -0
    outer loop
      vertex 37.8824 -57.1776 15.6782
      vertex 24.8 -57.1776 0
      vertex 39.2403 -57.1776 14.2908
    endloop
  endfacet
  facet normal 0 -1 -0
    outer loop
      vertex 39.2403 -57.1776 14.2908
      vertex 24.8 -57.1776 0
      vertex 40.2835 -57.1776 12.7703
    endloop
  endfacet
  facet normal 0 -1 -0
    outer loop
      vertex 40.2835 -57.1776 12.7703
      vertex 24.8 -57.1776 0
      vertex 41.423 -57.1776 11.1095
    endloop
  endfacet
  facet normal 0 -1 -0
    outer loop
      vertex 41.423 -57.1776 11.1095
      vertex 24.8 -57.1776 0
      vertex 42.168 -57.1776 9.48018
    endloop
  endfacet
  facet normal 0 -1 -0
    outer loop
      vertex 42.168 -57.1776 9.48018
      vertex 24.8 -57.1776 0
      vertex 43.0295 -57.1776 7.59596
    endloop
  endfacet
  facet normal 0 -1 -0
    outer loop
      vertex 43.0295 -57.1776 7.59596
      vertex 24.8 -57.1776 0
      vertex 43.4757 -57.1776 5.89844
    endloop
  endfacet
  facet normal 0 -1 -0
    outer loop
      vertex 43.4757 -57.1776 5.89844
      vertex 24.8 -57.1776 0
      vertex 44.0127 -57.1776 3.85551
    endloop
  endfacet
  facet normal 0 -1 -0
    outer loop
      vertex 44.0127 -57.1776 3.85551
      vertex 24.8 -57.1776 0
      vertex 44.1612 -57.1776 2.12588
    endloop
  endfacet
  facet normal 0 -1 -0
    outer loop
      vertex 44.1612 -57.1776 2.12588
      vertex 24.8 -57.1776 0
      vertex 44.3436 -57.1776 0
    endloop
  endfacet
  facet normal 0.9912 -0.101036 0.0855189
    outer loop
      vertex 45.3159 -50.0304 1.47346
      vertex 45.104 -50.0304 3.92947
      vertex 45.1014 -50.0506 3.93574
    endloop
  endfacet
  facet normal 0.991615 -0.103699 0.0771085
    outer loop
      vertex 45.104 -50.0304 3.92947
      vertex 45.1035 -50.0304 3.9359
      vertex 45.1014 -50.0506 3.93574
    endloop
  endfacet
  facet normal 0.984855 -0.151397 0.0845003
    outer loop
      vertex 44.3436 -57.1776 0
      vertex 45.442 -50.0304 0.0035953
      vertex 44.1612 -57.1776 2.12588
    endloop
  endfacet
  facet normal 0.985045 -0.151426 0.0821944
    outer loop
      vertex 45.442 -50.0304 0.0035953
      vertex 44.3436 -57.1776 0
      vertex 45.4423 -50.0304 0
    endloop
  endfacet
  facet normal 0.984851 -0.151394 0.0845526
    outer loop
      vertex 44.1612 -57.1776 2.12588
      vertex 45.3159 -50.0304 1.47346
      vertex 45.1014 -50.0506 3.93574
    endloop
  endfacet
  facet normal 0.98485 -0.151395 0.0845558
    outer loop
      vertex 44.1612 -57.1776 2.12588
      vertex 45.1014 -50.0506 3.93574
      vertex 44.0127 -57.1776 3.85551
    endloop
  endfacet
  facet normal 0.984855 -0.1514 0.0844909
    outer loop
      vertex 45.3159 -50.0304 1.47346
      vertex 44.1612 -57.1776 2.12588
      vertex 45.442 -50.0304 0.0035953
    endloop
  endfacet
  facet normal 0.961787 -0.102 0.254091
    outer loop
      vertex 44.1043 -50.0304 7.71808
      vertex 45.1014 -50.0506 3.93574
      vertex 45.1035 -50.0304 3.9359
    endloop
  endfacet
  facet normal 0.962083 -0.0990079 0.254153
    outer loop
      vertex 45.1014 -50.0506 3.93574
      vertex 44.1043 -50.0304 7.71808
      vertex 44.0834 -50.1467 7.75189
    endloop
  endfacet
  facet normal 0.962171 -0.0991347 0.253771
    outer loop
      vertex 44.1043 -50.0304 7.71808
      vertex 44.0949 -50.0304 7.75372
      vertex 44.0834 -50.1467 7.75189
    endloop
  endfacet
  facet normal 0.956361 -0.148921 0.251387
    outer loop
      vertex 44.0127 -57.1776 3.85551
      vertex 45.1014 -50.0506 3.93574
      vertex 43.4757 -57.1776 5.89844
    endloop
  endfacet
  facet normal 0.956361 -0.148929 0.251383
    outer loop
      vertex 43.4757 -57.1776 5.89844
      vertex 44.0834 -50.1467 7.75189
      vertex 43.0295 -57.1776 7.59596
    endloop
  endfacet
  facet normal 0.956365 -0.148926 0.251371
    outer loop
      vertex 44.0834 -50.1467 7.75189
      vertex 43.4757 -57.1776 5.89844
      vertex 45.1014 -50.0506 3.93574
    endloop
  endfacet
  facet normal 0.90445 -0.0959742 0.415643
    outer loop
      vertex 42.4833 -50.0304 11.2606
      vertex 44.0834 -50.1467 7.75189
      vertex 44.0949 -50.0304 7.75372
    endloop
  endfacet
  facet normal 0.904392 -0.0965541 0.415636
    outer loop
      vertex 44.0834 -50.1467 7.75189
      vertex 42.4833 -50.0304 11.2606
      vertex 42.4211 -50.3035 11.3325
    endloop
  endfacet
  facet normal 0.904142 -0.0963411 0.416229
    outer loop
      vertex 42.4833 -50.0304 11.2606
      vertex 42.4473 -50.0304 11.3388
      vertex 42.4211 -50.3035 11.3325
    endloop
  endfacet
  facet normal 0.899966 -0.144027 0.411481
    outer loop
      vertex 43.0295 -57.1776 7.59596
      vertex 44.0834 -50.1467 7.75189
      vertex 42.168 -57.1776 9.48018
    endloop
  endfacet
  facet normal 0.899958 -0.144021 0.411502
    outer loop
      vertex 42.168 -57.1776 9.48018
      vertex 42.4211 -50.3035 11.3325
      vertex 41.423 -57.1776 11.1095
    endloop
  endfacet
  facet normal 0.899959 -0.14402 0.4115
    outer loop
      vertex 42.4211 -50.3035 11.3325
      vertex 42.168 -57.1776 9.48018
      vertex 44.0834 -50.1467 7.75189
    endloop
  endfacet
  facet normal 0.819713 -0.0916823 0.565389
    outer loop
      vertex 40.296 -50.0304 14.4578
      vertex 42.4211 -50.3035 11.3325
      vertex 42.4473 -50.0304 11.3388
    endloop
  endfacet
  facet normal 0.819695 -0.0918332 0.56539
    outer loop
      vertex 42.4211 -50.3035 11.3325
      vertex 40.296 -50.0304 14.4578
      vertex 40.165 -50.5163 14.5688
    endloop
  endfacet
  facet normal 0.819682 -0.091825 0.565411
    outer loop
      vertex 40.296 -50.0304 14.4578
      vertex 40.2095 -50.0304 14.5832
      vertex 40.165 -50.5163 14.5688
    endloop
  endfacet
  facet normal 0.816825 -0.136782 0.560436
    outer loop
      vertex 41.423 -57.1776 11.1095
      vertex 42.4211 -50.3035 11.3325
      vertex 40.2835 -57.1776 12.7703
    endloop
  endfacet
  facet normal 0.816835 -0.136779 0.560422
    outer loop
      vertex 40.2835 -57.1776 12.7703
      vertex 40.165 -50.5163 14.5688
      vertex 39.2403 -57.1776 14.2908
    endloop
  endfacet
  facet normal 0.816826 -0.136782 0.560434
    outer loop
      vertex 40.165 -50.5163 14.5688
      vertex 40.2835 -57.1776 12.7703
      vertex 42.4211 -50.3035 11.3325
    endloop
  endfacet
  facet normal 0.710077 -0.0857426 0.698884
    outer loop
      vertex 37.6118 -50.0304 17.2225
      vertex 40.165 -50.5163 14.5688
      vertex 40.2095 -50.0304 14.5832
    endloop
  endfacet
  facet normal 0.710084 -0.0856948 0.698883
    outer loop
      vertex 40.165 -50.5163 14.5688
      vertex 37.6118 -50.0304 17.2225
      vertex 37.3838 -50.7787 17.3624
    endloop
  endfacet
  facet normal 0.710033 -0.0856688 0.698938
    outer loop
      vertex 37.6118 -50.0304 17.2225
      vertex 37.448 -50.0304 17.3889
      vertex 37.3838 -50.7787 17.3624
    endloop
  endfacet
  facet normal 0.708845 -0.127353 0.693773
    outer loop
      vertex 39.2403 -57.1776 14.2908
      vertex 40.165 -50.5163 14.5688
      vertex 37.8824 -57.1776 15.6782
    endloop
  endfacet
  facet normal 0.708886 -0.127355 0.69373
    outer loop
      vertex 37.8824 -57.1776 15.6782
      vertex 37.3838 -50.7787 17.3624
      vertex 36.5458 -57.1776 17.044
    endloop
  endfacet
  facet normal 0.708862 -0.127362 0.693753
    outer loop
      vertex 37.3838 -50.7787 17.3624
      vertex 37.8824 -57.1776 15.6782
      vertex 40.165 -50.5163 14.5688
    endloop
  endfacet
  facet normal 0.578443 -0.0783812 0.811949
    outer loop
      vertex 34.5115 -50.0304 19.4809
      vertex 37.3838 -50.7787 17.3624
      vertex 37.448 -50.0304 17.3889
    endloop
  endfacet
  facet normal 0.578449 -0.0783505 0.811947
    outer loop
      vertex 37.3838 -50.7787 17.3624
      vertex 34.5115 -50.0304 19.4809
      vertex 34.1618 -51.0826 19.6285
    endloop
  endfacet
  facet normal 0.578413 -0.0783347 0.811974
    outer loop
      vertex 34.5115 -50.0304 19.4809
      vertex 34.2452 -50.0304 19.6706
      vertex 34.1618 -51.0826 19.6285
    endloop
  endfacet
  facet normal 0.578683 -0.115953 0.807267
    outer loop
      vertex 36.5458 -57.1776 17.044
      vertex 37.3838 -50.7787 17.3624
      vertex 35.0371 -57.1776 18.1255
    endloop
  endfacet
  facet normal 0.578698 -0.115959 0.807256
    outer loop
      vertex 34.1618 -51.0826 19.6285
      vertex 35.0371 -57.1776 18.1255
      vertex 37.3838 -50.7787 17.3624
    endloop
  endfacet
  facet normal 0.57869 -0.115962 0.807262
    outer loop
      vertex 35.0371 -57.1776 18.1255
      vertex 34.1618 -51.0826 19.6285
      vertex 33.4192 -57.1776 19.2853
    endloop
  endfacet
  facet normal 0.428527 -0.0700089 0.900813
    outer loop
      vertex 31.0853 -50.0304 21.1738
      vertex 34.1618 -51.0826 19.6285
      vertex 34.2452 -50.0304 19.6706
    endloop
  endfacet
  facet normal 0.428513 -0.0700549 0.900816
    outer loop
      vertex 34.1618 -51.0826 19.6285
      vertex 31.0853 -50.0304 21.1738
      vertex 30.597 -51.4189 21.2981
    endloop
  endfacet
  facet normal 0.42849 -0.0700461 0.900827
    outer loop
      vertex 31.0853 -50.0304 21.1738
      vertex 30.697 -50.0304 21.3585
      vertex 30.597 -51.4189 21.2981
    endloop
  endfacet
  facet normal 0.429827 -0.10288 0.897031
    outer loop
      vertex 33.4192 -57.1776 19.2853
      vertex 34.1618 -51.0826 19.6285
      vertex 31.8304 -57.1776 20.0466
    endloop
  endfacet
  facet normal 0.429835 -0.102883 0.897027
    outer loop
      vertex 30.597 -51.4189 21.2981
      vertex 31.8304 -57.1776 20.0466
      vertex 34.1618 -51.0826 19.6285
    endloop
  endfacet
  facet normal 0.429885 -0.102867 0.897004
    outer loop
      vertex 31.8304 -57.1776 20.0466
      vertex 30.597 -51.4189 21.2981
      vertex 29.9537 -57.1776 20.946
    endloop
  endfacet
  facet normal 0.264757 -0.0609319 0.962388
    outer loop
      vertex 27.4306 -50.0304 22.2571
      vertex 30.597 -51.4189 21.2981
      vertex 30.697 -50.0304 21.3585
    endloop
  endfacet
  facet normal 0.264775 -0.0608897 0.962386
    outer loop
      vertex 30.597 -51.4189 21.2981
      vertex 27.4306 -50.0304 22.2571
      vertex 26.7977 -51.7773 22.3207
    endloop
  endfacet
  facet normal 0.264772 -0.0608886 0.962387
    outer loop
      vertex 27.4306 -50.0304 22.2571
      vertex 26.9101 -50.0304 22.4003
      vertex 26.7977 -51.7773 22.3207
    endloop
  endfacet
  facet normal 0.266635 -0.0884656 0.959729
    outer loop
      vertex 29.9537 -57.1776 20.946
      vertex 30.597 -51.4189 21.2981
      vertex 28.3534 -57.1776 21.3906
    endloop
  endfacet
  facet normal 0.26666 -0.0884755 0.959721
    outer loop
      vertex 26.7977 -51.7773 22.3207
      vertex 28.3534 -57.1776 21.3906
      vertex 30.597 -51.4189 21.2981
    endloop
  endfacet
  facet normal 0.266636 -0.0884832 0.959727
    outer loop
      vertex 28.3534 -57.1776 21.3906
      vertex 26.7977 -51.7773 22.3207
      vertex 26.2528 -57.1776 21.9742
    endloop
  endfacet
  facet normal 0.0922268 -0.0512462 0.994418
    outer loop
      vertex 24.8 -50.0304 22.596
      vertex 26.7977 -51.7773 22.3207
      vertex 26.9101 -50.0304 22.4003
    endloop
  endfacet
  facet normal 0.092197 -0.0512805 0.994419
    outer loop
      vertex 26.7977 -51.7773 22.3207
      vertex 24.8 -50.0304 22.596
      vertex 24.8 -51.9657 22.4962
    endloop
  endfacet
  facet normal 0.0941666 -0.0732066 0.992861
    outer loop
      vertex 24.8 -56.9279 22.1304
      vertex 26.2528 -57.1776 21.9742
      vertex 26.7977 -51.7773 22.3207
    endloop
  endfacet
  facet normal 0.0941744 -0.0731626 0.992864
    outer loop
      vertex 26.2528 -57.1776 21.9742
      vertex 24.8 -56.9279 22.1304
      vertex 24.8 -57.1776 22.112
    endloop
  endfacet
  facet normal 0.0941269 -0.0731914 0.992866
    outer loop
      vertex 26.7977 -51.7773 22.3207
      vertex 24.8 -51.9657 22.4962
      vertex 24.8 -56.9279 22.1304
    endloop
  endfacet
endsolid OpenSCAD_Model
