solid OpenSCAD_Model
  facet normal 0 0 1
    outer loop
      vertex 24.9938 -26.8436 24.71
      vertex 24.9987 -26.8316 24.71
      vertex 24.997 -26.831 24.71
    endloop
  endfacet
  facet normal 0 0 1
    outer loop
      vertex 24.9987 -26.8316 24.71
      vertex 24.9959 -26.8451 24.71
      vertex 25.0086 -26.835 24.71
    endloop
  endfacet
  facet normal 0 0 1
    outer loop
      vertex 24.9987 -26.8316 24.71
      vertex 24.9938 -26.8436 24.71
      vertex 24.9959 -26.8451 24.71
    endloop
  endfacet
  facet normal 0 -0 1
    outer loop
      vertex 24.9938 -26.8436 24.71
      vertex 24.997 -26.831 24.71
      vertex 24.9851 -26.8373 24.71
    endloop
  endfacet
  facet normal 0 0 -1
    outer loop
      vertex 48.6901 -28.5888 0
      vertex 49.05 -21.4416 0
      vertex 49.5987 -24.5154 0
    endloop
  endfacet
  facet normal 0 0 -1
    outer loop
      vertex 24.8 -21.4416 0
      vertex 48.6901 -28.5888 0
      vertex 24.8 -28.5888 0
    endloop
  endfacet
  facet normal 0 0 -1
    outer loop
      vertex 48.6901 -28.5888 0
      vertex 24.8 -21.4416 0
      vertex 49.05 -21.4416 0
    endloop
  endfacet
  facet normal -1 0 0
    outer loop
      vertex 24.8 -28.5888 0
      vertex 24.8 -21.4416 23.5848
      vertex 24.8 -21.4416 0
    endloop
  endfacet
  facet normal -1 0 -0
    outer loop
      vertex 24.8 -27.3103 24.6452
      vertex 24.8 -21.4416 23.5848
      vertex 24.8 -28.5888 0
    endloop
  endfacet
  facet normal -1 0 0
    outer loop
      vertex 24.8 -21.4416 23.5848
      vertex 24.8 -27.3103 24.6452
      vertex 24.8 -26.8547 24.6937
    endloop
  endfacet
  facet normal -1 0 0
    outer loop
      vertex 24.8 -27.3103 24.6452
      vertex 24.8 -28.5888 0
      vertex 24.8 -28.5888 24.509
    endloop
  endfacet
  facet normal 0 1 0
    outer loop
      vertex 27.178 -21.4416 23.4802
      vertex 24.8 -21.4416 23.5848
      vertex 25.1375 -21.4416 23.621
    endloop
  endfacet
  facet normal 0 1 0
    outer loop
      vertex 24.8 -21.4416 0
      vertex 27.178 -21.4416 23.4802
      vertex 29.2246 -21.4416 23.339
    endloop
  endfacet
  facet normal 0 1 0
    outer loop
      vertex 24.8 -21.4416 0
      vertex 29.2246 -21.4416 23.339
      vertex 31.0692 -21.4416 22.8777
    endloop
  endfacet
  facet normal 0 1 0
    outer loop
      vertex 24.8 -21.4416 0
      vertex 31.0692 -21.4416 22.8777
      vertex 33.2133 -21.4416 22.3415
    endloop
  endfacet
  facet normal 0 1 0
    outer loop
      vertex 24.8 -21.4416 0
      vertex 33.2133 -21.4416 22.3415
      vertex 34.8222 -21.4416 21.6198
    endloop
  endfacet
  facet normal 0 1 0
    outer loop
      vertex 24.8 -21.4416 0
      vertex 34.8222 -21.4416 21.6198
      vertex 36.9793 -21.4416 20.6523
    endloop
  endfacet
  facet normal 0 1 0
    outer loop
      vertex 24.8 -21.4416 0
      vertex 36.9793 -21.4416 20.6523
      vertex 38.3298 -21.4416 19.7315
    endloop
  endfacet
  facet normal 0 1 0
    outer loop
      vertex 24.8 -21.4416 0
      vertex 38.3298 -21.4416 19.7315
      vertex 40.4027 -21.4416 18.3182
    endloop
  endfacet
  facet normal 0 1 0
    outer loop
      vertex 24.8 -21.4416 0
      vertex 40.4027 -21.4416 18.3182
      vertex 41.4875 -21.4416 17.2551
    endloop
  endfacet
  facet normal 0 1 0
    outer loop
      vertex 24.8 -21.4416 0
      vertex 41.4875 -21.4416 17.2551
      vertex 43.3731 -21.4416 15.4073
    endloop
  endfacet
  facet normal 0 1 0
    outer loop
      vertex 24.8 -21.4416 0
      vertex 43.3731 -21.4416 15.4073
      vertex 44.1964 -21.4416 14.2506
    endloop
  endfacet
  facet normal 0 1 0
    outer loop
      vertex 24.8 -21.4416 0
      vertex 44.1964 -21.4416 14.2506
      vertex 45.7928 -21.4416 12.0078
    endloop
  endfacet
  facet normal 0 1 0
    outer loop
      vertex 24.8 -21.4416 0
      vertex 45.7928 -21.4416 12.0078
      vertex 46.3659 -21.4416 10.7961
    endloop
  endfacet
  facet normal 0 1 0
    outer loop
      vertex 24.8 -21.4416 0
      vertex 46.3659 -21.4416 10.7961
      vertex 47.5818 -21.4416 8.22553
    endloop
  endfacet
  facet normal 0 1 0
    outer loop
      vertex 24.8 -21.4416 0
      vertex 47.5818 -21.4416 8.22553
      vertex 47.918 -21.4416 6.9867
    endloop
  endfacet
  facet normal 0 1 0
    outer loop
      vertex 24.8 -21.4416 0
      vertex 47.918 -21.4416 6.9867
      vertex 48.6798 -21.4416 4.17986
    endloop
  endfacet
  facet normal 0 1 0
    outer loop
      vertex 24.8 -21.4416 0
      vertex 48.6798 -21.4416 4.17986
      vertex 48.7903 -21.4416 2.93288
    endloop
  endfacet
  facet normal 0 1 0
    outer loop
      vertex 24.8 -21.4416 0
      vertex 48.7903 -21.4416 2.93288
      vertex 49.05 -21.4416 0
    endloop
  endfacet
  facet normal 0 1 0
    outer loop
      vertex 27.178 -21.4416 23.4802
      vertex 24.8 -21.4416 0
      vertex 24.8 -21.4416 23.5848
    endloop
  endfacet
  facet normal 0 -1 0
    outer loop
      vertex 24.8 -28.5888 24.509
      vertex 28.3339 -28.5888 24.1569
      vertex 24.8026 -28.5888 24.5092
    endloop
  endfacet
  facet normal 0 -1 0
    outer loop
      vertex 24.8 -28.5888 0
      vertex 28.3339 -28.5888 24.1569
      vertex 24.8 -28.5888 24.509
    endloop
  endfacet
  facet normal 0 -1 -0
    outer loop
      vertex 28.3339 -28.5888 24.1569
      vertex 24.8 -28.5888 0
      vertex 28.9876 -28.5888 24.0916
    endloop
  endfacet
  facet normal 0 -1 -0
    outer loop
      vertex 28.9876 -28.5888 24.0916
      vertex 24.8 -28.5888 0
      vertex 32.2838 -28.5888 23.1578
    endloop
  endfacet
  facet normal 0 -1 -0
    outer loop
      vertex 32.2838 -28.5888 23.1578
      vertex 24.8 -28.5888 0
      vertex 33.0306 -28.5888 22.9463
    endloop
  endfacet
  facet normal 0 -1 -0
    outer loop
      vertex 33.0306 -28.5888 22.9463
      vertex 24.8 -28.5888 0
      vertex 36.0104 -28.5888 21.4999
    endloop
  endfacet
  facet normal 0 -1 -0
    outer loop
      vertex 36.0104 -28.5888 21.4999
      vertex 24.8 -28.5888 0
      vertex 36.8106 -28.5888 21.1114
    endloop
  endfacet
  facet normal 0 -1 -0
    outer loop
      vertex 36.8106 -28.5888 21.1114
      vertex 24.8 -28.5888 0
      vertex 39.411 -28.5888 19.2285
    endloop
  endfacet
  facet normal 0 -1 -0
    outer loop
      vertex 39.411 -28.5888 19.2285
      vertex 24.8 -28.5888 0
      vertex 40.2161 -28.5888 18.6455
    endloop
  endfacet
  facet normal 0 -1 -0
    outer loop
      vertex 40.2161 -28.5888 18.6455
      vertex 24.8 -28.5888 0
      vertex 42.3906 -28.5888 16.4047
    endloop
  endfacet
  facet normal 0 -1 -0
    outer loop
      vertex 42.3906 -28.5888 16.4047
      vertex 24.8 -28.5888 0
      vertex 43.1474 -28.5888 15.6248
    endloop
  endfacet
  facet normal 0 -1 -0
    outer loop
      vertex 43.1474 -28.5888 15.6248
      vertex 24.8 -28.5888 0
      vertex 44.8641 -28.5888 13.1035
    endloop
  endfacet
  facet normal 0 -1 -0
    outer loop
      vertex 44.8641 -28.5888 13.1035
      vertex 24.8 -28.5888 0
      vertex 45.5195 -28.5888 12.1409
    endloop
  endfacet
  facet normal 0 -1 -0
    outer loop
      vertex 45.5195 -28.5888 12.1409
      vertex 24.8 -28.5888 0
      vertex 46.7577 -28.5888 9.41346
    endloop
  endfacet
  facet normal 0 -1 -0
    outer loop
      vertex 46.7577 -28.5888 9.41346
      vertex 24.8 -28.5888 0
      vertex 47.264 -28.5888 8.29832
    endloop
  endfacet
  facet normal 0 -1 -0
    outer loop
      vertex 47.264 -28.5888 8.29832
      vertex 24.8 -28.5888 0
      vertex 48.0115 -28.5888 5.43509
    endloop
  endfacet
  facet normal 0 -1 -0
    outer loop
      vertex 48.0115 -28.5888 5.43509
      vertex 24.8 -28.5888 0
      vertex 48.331 -28.5888 4.21113
    endloop
  endfacet
  facet normal 0 -1 -0
    outer loop
      vertex 48.331 -28.5888 4.21113
      vertex 24.8 -28.5888 0
      vertex 48.5811 -28.5888 1.27896
    endloop
  endfacet
  facet normal 0 -1 -0
    outer loop
      vertex 48.5811 -28.5888 1.27896
      vertex 24.8 -28.5888 0
      vertex 48.6901 -28.5888 0
    endloop
  endfacet
  facet normal 0.980719 0.175067 0.0868405
    outer loop
      vertex 48.7903 -21.4416 2.93288
      vertex 49.5987 -24.5154 0
      vertex 49.05 -21.4416 0
    endloop
  endfacet
  facet normal 0.980722 0.175037 0.0868725
    outer loop
      vertex 49.5987 -24.5154 0
      vertex 48.7903 -21.4416 2.93288
      vertex 49.2249 -24.5507 4.29103
    endloop
  endfacet
  facet normal 0.980716 0.175051 0.0869053
    outer loop
      vertex 49.2249 -24.5507 4.29103
      vertex 48.7903 -21.4416 2.93288
      vertex 48.6798 -21.4416 4.17986
    endloop
  endfacet
  facet normal 0.972655 -0.216957 0.082895
    outer loop
      vertex 48.6901 -28.5888 0
      vertex 49.5987 -24.5154 0
      vertex 48.5811 -28.5888 1.27896
    endloop
  endfacet
  facet normal 0.97265 -0.216954 0.0829624
    outer loop
      vertex 48.5811 -28.5888 1.27896
      vertex 49.2249 -24.5507 4.29103
      vertex 48.331 -28.5888 4.21113
    endloop
  endfacet
  facet normal 0.972654 -0.216942 0.0829452
    outer loop
      vertex 49.2249 -24.5507 4.29103
      vertex 48.5811 -28.5888 1.27896
      vertex 49.5987 -24.5154 0
    endloop
  endfacet
  facet normal 0.950058 0.175788 0.257854
    outer loop
      vertex 47.918 -21.4416 6.9867
      vertex 49.2249 -24.5507 4.29103
      vertex 48.6798 -21.4416 4.17986
    endloop
  endfacet
  facet normal 0.950057 0.17578 0.257862
    outer loop
      vertex 49.2249 -24.5507 4.29103
      vertex 47.918 -21.4416 6.9867
      vertex 48.115 -24.6554 8.45167
    endloop
  endfacet
  facet normal 0.950067 0.175768 0.257834
    outer loop
      vertex 48.115 -24.6554 8.45167
      vertex 47.918 -21.4416 6.9867
      vertex 47.5818 -21.4416 8.22553
    endloop
  endfacet
  facet normal 0.94514 -0.214104 0.246717
    outer loop
      vertex 48.331 -28.5888 4.21113
      vertex 49.2249 -24.5507 4.29103
      vertex 48.0115 -28.5888 5.43509
    endloop
  endfacet
  facet normal 0.945134 -0.214102 0.246745
    outer loop
      vertex 48.0115 -28.5888 5.43509
      vertex 48.115 -24.6554 8.45167
      vertex 47.264 -28.5888 8.29832
    endloop
  endfacet
  facet normal 0.945136 -0.214097 0.246739
    outer loop
      vertex 48.115 -24.6554 8.45167
      vertex 48.0115 -28.5888 5.43509
      vertex 49.2249 -24.5507 4.29103
    endloop
  endfacet
  facet normal 0.889666 0.177215 0.420819
    outer loop
      vertex 46.3659 -21.4416 10.7961
      vertex 48.115 -24.6554 8.45167
      vertex 47.5818 -21.4416 8.22553
    endloop
  endfacet
  facet normal 0.889672 0.177232 0.4208
    outer loop
      vertex 48.115 -24.6554 8.45167
      vertex 46.3659 -21.4416 10.7961
      vertex 46.3026 -24.8263 12.3555
    endloop
  endfacet
  facet normal 0.889676 0.177229 0.420792
    outer loop
      vertex 46.3026 -24.8263 12.3555
      vertex 46.3659 -21.4416 10.7961
      vertex 45.7928 -21.4416 12.0078
    endloop
  endfacet
  facet normal 0.890546 -0.208435 0.404329
    outer loop
      vertex 47.264 -28.5888 8.29832
      vertex 48.115 -24.6554 8.45167
      vertex 46.7577 -28.5888 9.41346
    endloop
  endfacet
  facet normal 0.890565 -0.208416 0.404298
    outer loop
      vertex 46.7577 -28.5888 9.41346
      vertex 46.3026 -24.8263 12.3555
      vertex 45.5195 -28.5888 12.1409
    endloop
  endfacet
  facet normal 0.890549 -0.208437 0.404323
    outer loop
      vertex 46.3026 -24.8263 12.3555
      vertex 46.7577 -28.5888 9.41346
      vertex 48.115 -24.6554 8.45167
    endloop
  endfacet
  facet normal 0.801488 0.179324 0.57049
    outer loop
      vertex 44.1964 -21.4416 14.2506
      vertex 46.3026 -24.8263 12.3555
      vertex 45.7928 -21.4416 12.0078
    endloop
  endfacet
  facet normal 0.801476 0.179302 0.570515
    outer loop
      vertex 46.3026 -24.8263 12.3555
      vertex 44.1964 -21.4416 14.2506
      vertex 43.8429 -25.0584 15.8839
    endloop
  endfacet
  facet normal 0.801503 0.179285 0.570483
    outer loop
      vertex 43.8429 -25.0584 15.8839
      vertex 44.1964 -21.4416 14.2506
      vertex 43.3731 -21.4416 15.4073
    endloop
  endfacet
  facet normal 0.809891 -0.200016 0.551426
    outer loop
      vertex 45.5195 -28.5888 12.1409
      vertex 46.3026 -24.8263 12.3555
      vertex 44.8641 -28.5888 13.1035
    endloop
  endfacet
  facet normal 0.809885 -0.20002 0.551433
    outer loop
      vertex 44.8641 -28.5888 13.1035
      vertex 43.8429 -25.0584 15.8839
      vertex 43.1474 -28.5888 15.6248
    endloop
  endfacet
  facet normal 0.809889 -0.200015 0.551429
    outer loop
      vertex 43.8429 -25.0584 15.8839
      vertex 44.8641 -28.5888 13.1035
      vertex 46.3026 -24.8263 12.3555
    endloop
  endfacet
  facet normal 0.688229 0.181943 0.702308
    outer loop
      vertex 41.4875 -21.4416 17.2551
      vertex 43.8429 -25.0584 15.8839
      vertex 43.3731 -21.4416 15.4073
    endloop
  endfacet
  facet normal 0.688248 0.181964 0.702284
    outer loop
      vertex 43.8429 -25.0584 15.8839
      vertex 41.4875 -21.4416 17.2551
      vertex 40.8106 -25.3444 18.9297
    endloop
  endfacet
  facet normal 0.688242 0.181968 0.70229
    outer loop
      vertex 40.8106 -25.3444 18.9297
      vertex 41.4875 -21.4416 17.2551
      vertex 40.4027 -21.4416 18.3182
    endloop
  endfacet
  facet normal 0.704718 -0.18902 0.683845
    outer loop
      vertex 43.1474 -28.5888 15.6248
      vertex 43.8429 -25.0584 15.8839
      vertex 42.3906 -28.5888 16.4047
    endloop
  endfacet
  facet normal 0.704705 -0.189033 0.683855
    outer loop
      vertex 42.3906 -28.5888 16.4047
      vertex 40.8106 -25.3444 18.9297
      vertex 40.2161 -28.5888 18.6455
    endloop
  endfacet
  facet normal 0.704718 -0.18902 0.683845
    outer loop
      vertex 40.8106 -25.3444 18.9297
      vertex 42.3906 -28.5888 16.4047
      vertex 43.8429 -25.0584 15.8839
    endloop
  endfacet
  facet normal 0.553594 0.185079 0.811961
    outer loop
      vertex 38.3298 -21.4416 19.7315
      vertex 40.8106 -25.3444 18.9297
      vertex 40.4027 -21.4416 18.3182
    endloop
  endfacet
  facet normal 0.553613 0.185094 0.811944
    outer loop
      vertex 40.8106 -25.3444 18.9297
      vertex 38.3298 -21.4416 19.7315
      vertex 37.2978 -25.6758 21.4004
    endloop
  endfacet
  facet normal 0.553604 0.185098 0.811949
    outer loop
      vertex 37.2978 -25.6758 21.4004
      vertex 38.3298 -21.4416 19.7315
      vertex 36.9793 -21.4416 20.6523
    endloop
  endfacet
  facet normal 0.577389 -0.175646 0.797352
    outer loop
      vertex 40.2161 -28.5888 18.6455
      vertex 40.8106 -25.3444 18.9297
      vertex 39.411 -28.5888 19.2285
    endloop
  endfacet
  facet normal 0.577384 -0.175643 0.797356
    outer loop
      vertex 37.2978 -25.6758 21.4004
      vertex 39.411 -28.5888 19.2285
      vertex 40.8106 -25.3444 18.9297
    endloop
  endfacet
  facet normal 0.577359 -0.175671 0.797368
    outer loop
      vertex 39.411 -28.5888 19.2285
      vertex 37.2978 -25.6758 21.4004
      vertex 36.8106 -28.5888 21.1114
    endloop
  endfacet
  facet normal 0.4019 0.188548 0.896061
    outer loop
      vertex 34.8222 -21.4416 21.6198
      vertex 37.2978 -25.6758 21.4004
      vertex 36.9793 -21.4416 20.6523
    endloop
  endfacet
  facet normal 0.401909 0.188553 0.896057
    outer loop
      vertex 37.2978 -25.6758 21.4004
      vertex 34.8222 -21.4416 21.6198
      vertex 33.4112 -26.0424 23.2208
    endloop
  endfacet
  facet normal 0.401937 0.18854 0.896046
    outer loop
      vertex 33.4112 -26.0424 23.2208
      vertex 34.8222 -21.4416 21.6198
      vertex 33.2133 -21.4416 22.3415
    endloop
  endfacet
  facet normal 0.43111 -0.160199 0.887964
    outer loop
      vertex 36.8106 -28.5888 21.1114
      vertex 37.2978 -25.6758 21.4004
      vertex 36.0104 -28.5888 21.4999
    endloop
  endfacet
  facet normal 0.431031 -0.160162 0.888009
    outer loop
      vertex 33.4112 -26.0424 23.2208
      vertex 36.0104 -28.5888 21.4999
      vertex 37.2978 -25.6758 21.4004
    endloop
  endfacet
  facet normal 0.43104 -0.160152 0.888007
    outer loop
      vertex 36.0104 -28.5888 21.4999
      vertex 33.4112 -26.0424 23.2208
      vertex 33.0306 -28.5888 22.9463
    endloop
  endfacet
  facet normal 0.238087 0.192194 0.952038
    outer loop
      vertex 31.0692 -21.4416 22.8777
      vertex 33.4112 -26.0424 23.2208
      vertex 33.2133 -21.4416 22.3415
    endloop
  endfacet
  facet normal 0.238086 0.192193 0.952038
    outer loop
      vertex 33.4112 -26.0424 23.2208
      vertex 31.0692 -21.4416 22.8777
      vertex 29.2689 -26.4332 24.3356
    endloop
  endfacet
  facet normal 0.238087 0.192193 0.952038
    outer loop
      vertex 29.2689 -26.4332 24.3356
      vertex 31.0692 -21.4416 22.8777
      vertex 29.2246 -21.4416 23.339
    endloop
  endfacet
  facet normal 0.269692 -0.142964 0.952275
    outer loop
      vertex 33.0306 -28.5888 22.9463
      vertex 33.4112 -26.0424 23.2208
      vertex 32.2838 -28.5888 23.1578
    endloop
  endfacet
  facet normal 0.269766 -0.142996 0.952249
    outer loop
      vertex 29.2689 -26.4332 24.3356
      vertex 32.2838 -28.5888 23.1578
      vertex 33.4112 -26.0424 23.2208
    endloop
  endfacet
  facet normal 0.269768 -0.142992 0.952249
    outer loop
      vertex 32.2838 -28.5888 23.1578
      vertex 29.2689 -26.4332 24.3356
      vertex 28.9876 -28.5888 24.0916
    endloop
  endfacet
  facet normal 0.0674949 0.195921 0.978294
    outer loop
      vertex 27.178 -21.4416 23.4802
      vertex 29.2689 -26.4332 24.3356
      vertex 29.2246 -21.4416 23.339
    endloop
  endfacet
  facet normal 0.0674958 0.195921 0.978294
    outer loop
      vertex 27.178 -21.4416 23.4802
      vertex 25.0086 -26.835 24.71
      vertex 29.2689 -26.4332 24.3356
    endloop
  endfacet
  facet normal 0.0673113 0.195995 0.978292
    outer loop
      vertex 25.0086 -26.835 24.71
      vertex 27.178 -21.4416 23.4802
      vertex 24.9987 -26.8316 24.71
    endloop
  endfacet
  facet normal 0.0675049 0.195917 0.978294
    outer loop
      vertex 25.1375 -21.4416 23.621
      vertex 24.9987 -26.8316 24.71
      vertex 27.178 -21.4416 23.4802
    endloop
  endfacet
  facet normal 0.0691253 0.195855 0.978194
    outer loop
      vertex 24.9987 -26.8316 24.71
      vertex 25.1375 -21.4416 23.621
      vertex 24.997 -26.831 24.71
    endloop
  endfacet
  facet normal 0.0986233 -0.124625 0.98729
    outer loop
      vertex 28.9876 -28.5888 24.0916
      vertex 29.2689 -26.4332 24.3356
      vertex 28.3339 -28.5888 24.1569
    endloop
  endfacet
  facet normal 0.0985151 -0.124579 0.987307
    outer loop
      vertex 25.0086 -26.835 24.71
      vertex 28.3339 -28.5888 24.1569
      vertex 29.2689 -26.4332 24.3356
    endloop
  endfacet
  facet normal 0.099154 -0.124679 0.98723
    outer loop
      vertex 24.8026 -28.5888 24.5092
      vertex 25.0086 -26.835 24.71
      vertex 24.9959 -26.8451 24.71
    endloop
  endfacet
  facet normal 0.0984984 -0.12461 0.987305
    outer loop
      vertex 25.0086 -26.835 24.71
      vertex 24.8026 -28.5888 24.5092
      vertex 28.3339 -28.5888 24.1569
    endloop
  endfacet
  facet normal -0.104502 0.199593 0.974291
    outer loop
      vertex 24.8 -21.4416 23.5848
      vertex 24.997 -26.831 24.71
      vertex 25.1375 -21.4416 23.621
    endloop
  endfacet
  facet normal -0.104624 0.199586 0.974279
    outer loop
      vertex 24.8 -26.8547 24.6937
      vertex 24.997 -26.831 24.71
      vertex 24.8 -21.4416 23.5848
    endloop
  endfacet
  facet normal -0.104374 0.197152 0.974801
    outer loop
      vertex 24.997 -26.831 24.71
      vertex 24.8 -26.8547 24.6937
      vertex 24.9851 -26.8373 24.71
    endloop
  endfacet
  facet normal -0.0758352 -0.106169 0.991452
    outer loop
      vertex 24.8 -27.3103 24.6452
      vertex 24.9959 -26.8451 24.71
      vertex 24.9938 -26.8436 24.71
    endloop
  endfacet
  facet normal -0.0771312 -0.105618 0.991411
    outer loop
      vertex 24.9959 -26.8451 24.71
      vertex 24.8 -27.3103 24.6452
      vertex 24.8026 -28.5888 24.5092
    endloop
  endfacet
  facet normal -0.0762675 -0.105623 0.991477
    outer loop
      vertex 24.8026 -28.5888 24.5092
      vertex 24.8 -27.3103 24.6452
      vertex 24.8 -28.5888 24.509
    endloop
  endfacet
  facet normal -0.0772632 -0.106697 0.991285
    outer loop
      vertex 24.8 -26.8547 24.6937
      vertex 24.9938 -26.8436 24.71
      vertex 24.9851 -26.8373 24.71
    endloop
  endfacet
  facet normal -0.0773395 -0.105538 0.991403
    outer loop
      vertex 24.9938 -26.8436 24.71
      vertex 24.8 -26.8547 24.6937
      vertex 24.8 -27.3103 24.6452
    endloop
  endfacet
endsolid OpenSCAD_Model
