solid OpenSCAD_Model
  facet normal 0 0 -1
    outer loop
      vertex 24.8 -164.386 0
      vertex 36.6522 -165.967 0
      vertex 35.9572 -168.849 0
    endloop
  endfacet
  facet normal 0 0 -1
    outer loop
      vertex 34.3686 -171.533 0
      vertex 35.9572 -168.849 0
      vertex 35.3564 -170.426 0
    endloop
  endfacet
  facet normal -0 0 -1
    outer loop
      vertex 35.9572 -168.849 0
      vertex 34.3686 -171.533 0
      vertex 24.8 -164.386 0
    endloop
  endfacet
  facet normal 0 0 -1
    outer loop
      vertex 24.8 -164.386 0
      vertex 34.3686 -171.533 0
      vertex 24.8 -171.533 0
    endloop
  endfacet
  facet normal 0 0 -1
    outer loop
      vertex 36.6522 -165.967 0
      vertex 24.8 -164.386 0
      vertex 36.8845 -164.386 0
    endloop
  endfacet
  facet normal -1 0 0
    outer loop
      vertex 24.8 -164.386 0
      vertex 24.8 -165.734 13.0301
      vertex 24.8 -164.386 13.2644
    endloop
  endfacet
  facet normal -1 0 0
    outer loop
      vertex 24.8 -164.386 0
      vertex 24.8 -167.085 12.7953
      vertex 24.8 -165.734 13.0301
    endloop
  endfacet
  facet normal -1 0 0
    outer loop
      vertex 24.8 -164.386 0
      vertex 24.8 -168.886 12.1946
      vertex 24.8 -167.085 12.7953
    endloop
  endfacet
  facet normal -1 0 0
    outer loop
      vertex 24.8 -164.386 0
      vertex 24.8 -169.901 11.8558
      vertex 24.8 -168.886 12.1946
    endloop
  endfacet
  facet normal -1 0 0
    outer loop
      vertex 24.8 -164.386 0
      vertex 24.8 -170.973 11.3385
      vertex 24.8 -169.901 11.8558
    endloop
  endfacet
  facet normal -1 0 0
    outer loop
      vertex 24.8 -171.533 10.974
      vertex 24.8 -170.973 11.3385
      vertex 24.8 -164.386 0
    endloop
  endfacet
  facet normal -1 0 0
    outer loop
      vertex 24.8 -171.533 10.974
      vertex 24.8 -164.386 0
      vertex 24.8 -171.533 0
    endloop
  endfacet
  facet normal -1 0 0
    outer loop
      vertex 24.8 -170.973 11.3385
      vertex 24.8 -171.533 10.974
      vertex 24.8 -171.421 11.122
    endloop
  endfacet
  facet normal 0 1 0
    outer loop
      vertex 24.8 -164.386 0
      vertex 25.7081 -164.386 13.1697
      vertex 26.0659 -164.386 13.1324
    endloop
  endfacet
  facet normal 0 1 0
    outer loop
      vertex 24.8 -164.386 0
      vertex 26.0659 -164.386 13.1324
      vertex 27.8111 -164.386 12.634
    endloop
  endfacet
  facet normal 0 1 0
    outer loop
      vertex 24.8 -164.386 0
      vertex 27.8111 -164.386 12.634
      vertex 28.2941 -164.386 12.496
    endloop
  endfacet
  facet normal 0 1 0
    outer loop
      vertex 24.8 -164.386 0
      vertex 28.2941 -164.386 12.496
      vertex 29.8002 -164.386 11.7649
    endloop
  endfacet
  facet normal 0 1 0
    outer loop
      vertex 24.8 -164.386 0
      vertex 29.8002 -164.386 11.7649
      vertex 30.3736 -164.386 11.4865
    endloop
  endfacet
  facet normal 0 1 0
    outer loop
      vertex 24.8 -164.386 0
      vertex 30.3736 -164.386 11.4865
      vertex 31.6263 -164.386 10.5823
    endloop
  endfacet
  facet normal 0 1 0
    outer loop
      vertex 24.8 -164.386 0
      vertex 31.6263 -164.386 10.5823
      vertex 32.2439 -164.386 10.1366
    endloop
  endfacet
  facet normal 0 1 0
    outer loop
      vertex 24.8 -164.386 0
      vertex 32.2439 -164.386 10.1366
      vertex 33.2427 -164.386 9.11246
    endloop
  endfacet
  facet normal 0 1 0
    outer loop
      vertex 24.8 -164.386 0
      vertex 33.2427 -164.386 9.11246
      vertex 33.8513 -164.386 8.48844
    endloop
  endfacet
  facet normal 0 1 0
    outer loop
      vertex 24.8 -164.386 0
      vertex 33.8513 -164.386 8.48844
      vertex 34.6052 -164.386 7.38786
    endloop
  endfacet
  facet normal 0 1 0
    outer loop
      vertex 24.8 -164.386 0
      vertex 34.6052 -164.386 7.38786
      vertex 35.1504 -164.386 6.59204
    endloop
  endfacet
  facet normal 0 1 0
    outer loop
      vertex 24.8 -164.386 0
      vertex 35.1504 -164.386 6.59204
      vertex 35.6735 -164.386 5.44758
    endloop
  endfacet
  facet normal 0 1 0
    outer loop
      vertex 24.8 -164.386 0
      vertex 35.6735 -164.386 5.44758
      vertex 36.1049 -164.386 4.5038
    endloop
  endfacet
  facet normal 0 1 0
    outer loop
      vertex 24.8 -164.386 0
      vertex 36.1049 -164.386 4.5038
      vertex 36.4115 -164.386 3.33749
    endloop
  endfacet
  facet normal 0 1 0
    outer loop
      vertex 24.8 -164.386 0
      vertex 36.4115 -164.386 3.33749
      vertex 36.6883 -164.386 2.28496
    endloop
  endfacet
  facet normal 0 1 0
    outer loop
      vertex 24.8 -164.386 0
      vertex 36.6883 -164.386 2.28496
      vertex 36.7892 -164.386 1.11029
    endloop
  endfacet
  facet normal 0 1 0
    outer loop
      vertex 24.8 -164.386 0
      vertex 36.7892 -164.386 1.11029
      vertex 36.8845 -164.386 1.90735e-06
    endloop
  endfacet
  facet normal 0 1 0
    outer loop
      vertex 24.8 -164.386 0
      vertex 36.8845 -164.386 1.90735e-06
      vertex 36.8845 -164.386 0
    endloop
  endfacet
  facet normal 0 1 0
    outer loop
      vertex 25.7081 -164.386 13.1697
      vertex 24.8 -164.386 0
      vertex 24.8 -164.386 13.2644
    endloop
  endfacet
  facet normal 0 -1 0
    outer loop
      vertex 24.8 -171.533 0
      vertex 25.9483 -171.533 10.7292
      vertex 24.8 -171.533 10.974
    endloop
  endfacet
  facet normal 0 -1 -0
    outer loop
      vertex 25.9483 -171.533 10.7292
      vertex 24.8 -171.533 0
      vertex 26.2011 -171.533 10.6753
    endloop
  endfacet
  facet normal 0 -1 -0
    outer loop
      vertex 26.2011 -171.533 10.6753
      vertex 24.8 -171.533 0
      vertex 27.5948 -171.533 10.129
    endloop
  endfacet
  facet normal 0 -1 -0
    outer loop
      vertex 27.5948 -171.533 10.129
      vertex 24.8 -171.533 0
      vertex 28.0043 -171.533 9.96845
    endloop
  endfacet
  facet normal 0 -1 -0
    outer loop
      vertex 28.0043 -171.533 9.96845
      vertex 24.8 -171.533 0
      vertex 29.1074 -171.533 9.31457
    endloop
  endfacet
  facet normal 0 -1 -0
    outer loop
      vertex 29.1074 -171.533 9.31457
      vertex 24.8 -171.533 0
      vertex 29.6274 -171.533 9.00633
    endloop
  endfacet
  facet normal 0 -1 -0
    outer loop
      vertex 29.6274 -171.533 9.00633
      vertex 24.8 -171.533 0
      vertex 30.4645 -171.533 8.30798
    endloop
  endfacet
  facet normal 0 -1 -0
    outer loop
      vertex 30.4645 -171.533 8.30798
      vertex 24.8 -171.533 0
      vertex 31.0405 -171.533 7.82744
    endloop
  endfacet
  facet normal 0 -1 -0
    outer loop
      vertex 31.0405 -171.533 7.82744
      vertex 24.8 -171.533 0
      vertex 31.6468 -171.533 7.13066
    endloop
  endfacet
  facet normal 0 -1 -0
    outer loop
      vertex 31.6468 -171.533 7.13066
      vertex 24.8 -171.533 0
      vertex 32.2213 -171.533 6.47047
    endloop
  endfacet
  facet normal 0 -1 -0
    outer loop
      vertex 32.2213 -171.533 6.47047
      vertex 24.8 -171.533 0
      vertex 32.6364 -171.533 5.80379
    endloop
  endfacet
  facet normal 0 -1 -0
    outer loop
      vertex 32.6364 -171.533 5.80379
      vertex 24.8 -171.533 0
      vertex 33.1535 -171.533 4.97322
    endloop
  endfacet
  facet normal 0 -1 -0
    outer loop
      vertex 33.1535 -171.533 4.97322
      vertex 24.8 -171.533 0
      vertex 33.416 -171.533 4.3488
    endloop
  endfacet
  facet normal 0 -1 -0
    outer loop
      vertex 33.416 -171.533 4.3488
      vertex 24.8 -171.533 0
      vertex 33.8264 -171.533 3.37231
    endloop
  endfacet
  facet normal 0 -1 -0
    outer loop
      vertex 33.8264 -171.533 3.37231
      vertex 24.8 -171.533 0
      vertex 33.9686 -171.533 2.78811
    endloop
  endfacet
  facet normal 0 -1 -0
    outer loop
      vertex 33.9686 -171.533 2.78811
      vertex 24.8 -171.533 0
      vertex 34.2327 -171.533 1.7031
    endloop
  endfacet
  facet normal 0 -1 -0
    outer loop
      vertex 34.2327 -171.533 1.7031
      vertex 24.8 -171.533 0
      vertex 34.2772 -171.533 1.14611
    endloop
  endfacet
  facet normal 0 -1 -0
    outer loop
      vertex 34.2772 -171.533 1.14611
      vertex 24.8 -171.533 0
      vertex 34.3686 -171.533 1.90735e-06
    endloop
  endfacet
  facet normal 0 -1 -0
    outer loop
      vertex 34.3686 -171.533 1.90735e-06
      vertex 24.8 -171.533 0
      vertex 34.3686 -171.533 0
    endloop
  endfacet
  facet normal 0.989377 -0.145371 0
    outer loop
      vertex 36.6522 -165.967 1.90735e-06
      vertex 36.8845 -164.386 0
      vertex 36.8845 -164.386 1.90735e-06
    endloop
  endfacet
  facet normal 0.989377 -0.145371 0
    outer loop
      vertex 36.8845 -164.386 0
      vertex 36.6522 -165.967 1.90735e-06
      vertex 36.6522 -165.967 0
    endloop
  endfacet
  facet normal 0.972133 -0.234432 0
    outer loop
      vertex 35.9572 -168.849 1.90735e-06
      vertex 36.6522 -165.967 0
      vertex 36.6522 -165.967 1.90735e-06
    endloop
  endfacet
  facet normal 0.972133 -0.234432 0
    outer loop
      vertex 36.6522 -165.967 0
      vertex 35.9572 -168.849 1.90735e-06
      vertex 35.9572 -168.849 0
    endloop
  endfacet
  facet normal 0.93448 -0.356015 0
    outer loop
      vertex 35.3564 -170.426 1.90735e-06
      vertex 35.9572 -168.849 0
      vertex 35.9572 -168.849 1.90735e-06
    endloop
  endfacet
  facet normal 0.93448 -0.356015 0
    outer loop
      vertex 35.9572 -168.849 0
      vertex 35.3564 -170.426 1.90735e-06
      vertex 35.3564 -170.426 0
    endloop
  endfacet
  facet normal 0.746136 -0.665793 0
    outer loop
      vertex 34.3686 -171.533 1.90735e-06
      vertex 35.3564 -170.426 0
      vertex 35.3564 -170.426 1.90735e-06
    endloop
  endfacet
  facet normal 0.746136 -0.665793 0
    outer loop
      vertex 35.3564 -170.426 0
      vertex 34.3686 -171.533 1.90735e-06
      vertex 34.3686 -171.533 0
    endloop
  endfacet
  facet normal 0.985829 -0.14485 0.0846172
    outer loop
      vertex 36.7892 -164.386 1.11029
      vertex 36.6522 -165.967 1.90735e-06
      vertex 36.8845 -164.386 1.90735e-06
    endloop
  endfacet
  facet normal 0.985815 -0.144901 0.0846912
    outer loop
      vertex 36.6522 -165.967 1.90735e-06
      vertex 36.7892 -164.386 1.11029
      vertex 36.4574 -165.985 2.2367
    endloop
  endfacet
  facet normal 0.985815 -0.14491 0.084678
    outer loop
      vertex 36.7892 -164.386 1.11029
      vertex 36.6883 -164.386 2.28496
      vertex 36.4574 -165.985 2.2367
    endloop
  endfacet
  facet normal 0.968824 -0.233634 0.0824384
    outer loop
      vertex 35.9572 -168.849 1.90735e-06
      vertex 36.6522 -165.967 1.90735e-06
      vertex 35.777 -168.866 2.06955
    endloop
  endfacet
  facet normal 0.968828 -0.233593 0.082498
    outer loop
      vertex 36.6522 -165.967 1.90735e-06
      vertex 36.4574 -165.985 2.2367
      vertex 35.777 -168.866 2.06955
    endloop
  endfacet
  facet normal 0.931616 -0.354924 0.0782311
    outer loop
      vertex 35.3564 -170.426 1.90735e-06
      vertex 35.9572 -168.849 1.90735e-06
      vertex 35.1874 -170.442 1.93995
    endloop
  endfacet
  facet normal 0.931607 -0.354956 0.0782013
    outer loop
      vertex 35.9572 -168.849 1.90735e-06
      vertex 35.777 -168.866 2.06955
      vertex 35.1874 -170.442 1.93995
    endloop
  endfacet
  facet normal 0.744819 -0.664618 0.0593979
    outer loop
      vertex 34.3686 -171.533 1.90735e-06
      vertex 35.3564 -170.426 1.90735e-06
      vertex 34.2772 -171.533 1.14611
    endloop
  endfacet
  facet normal 0.74478 -0.664652 0.0595033
    outer loop
      vertex 34.2772 -171.533 1.14611
      vertex 35.1874 -170.442 1.93995
      vertex 34.2327 -171.533 1.7031
    endloop
  endfacet
  facet normal 0.744822 -0.664614 0.0594042
    outer loop
      vertex 35.1874 -170.442 1.93995
      vertex 34.2772 -171.533 1.14611
      vertex 35.3564 -170.426 1.90735e-06
    endloop
  endfacet
  facet normal 0.956787 -0.145757 0.251621
    outer loop
      vertex 36.4115 -164.386 3.33749
      vertex 36.4574 -165.985 2.2367
      vertex 36.6883 -164.386 2.28496
    endloop
  endfacet
  facet normal 0.95682 -0.145695 0.251533
    outer loop
      vertex 36.4574 -165.985 2.2367
      vertex 36.4115 -164.386 3.33749
      vertex 35.8789 -166.04 4.40543
    endloop
  endfacet
  facet normal 0.95682 -0.145698 0.251529
    outer loop
      vertex 36.4115 -164.386 3.33749
      vertex 36.1049 -164.386 4.5038
      vertex 35.8789 -166.04 4.40543
    endloop
  endfacet
  facet normal 0.940304 -0.236281 0.24495
    outer loop
      vertex 35.777 -168.866 2.06955
      vertex 36.4574 -165.985 2.2367
      vertex 35.2417 -168.916 4.07621
    endloop
  endfacet
  facet normal 0.940315 -0.23636 0.244831
    outer loop
      vertex 36.4574 -165.985 2.2367
      vertex 35.8789 -166.04 4.40543
      vertex 35.2417 -168.916 4.07621
    endloop
  endfacet
  facet normal 0.904539 -0.357508 0.232372
    outer loop
      vertex 35.1874 -170.442 1.93995
      vertex 35.777 -168.866 2.06955
      vertex 34.6856 -170.489 3.82096
    endloop
  endfacet
  facet normal 0.904542 -0.357491 0.232389
    outer loop
      vertex 35.777 -168.866 2.06955
      vertex 35.2417 -168.916 4.07621
      vertex 34.6856 -170.489 3.82096
    endloop
  endfacet
  facet normal 0.721638 -0.669616 0.175652
    outer loop
      vertex 34.2327 -171.533 1.7031
      vertex 35.1874 -170.442 1.93995
      vertex 33.9686 -171.533 2.78811
    endloop
  endfacet
  facet normal 0.721749 -0.669488 0.175681
    outer loop
      vertex 33.9686 -171.533 2.78811
      vertex 34.6856 -170.489 3.82096
      vertex 33.8264 -171.533 3.37231
    endloop
  endfacet
  facet normal 0.72167 -0.669544 0.175792
    outer loop
      vertex 34.6856 -170.489 3.82096
      vertex 33.9686 -171.533 2.78811
      vertex 35.1874 -170.442 1.93995
    endloop
  endfacet
  facet normal 0.89956 -0.147369 0.411187
    outer loop
      vertex 35.6735 -164.386 5.44758
      vertex 35.8789 -166.04 4.40543
      vertex 36.1049 -164.386 4.5038
    endloop
  endfacet
  facet normal 0.899564 -0.147365 0.41118
    outer loop
      vertex 35.8789 -166.04 4.40543
      vertex 35.6735 -164.386 5.44758
      vertex 34.9342 -166.129 6.44031
    endloop
  endfacet
  facet normal 0.899568 -0.147374 0.411167
    outer loop
      vertex 35.6735 -164.386 5.44758
      vertex 35.1504 -164.386 6.59204
      vertex 34.9342 -166.129 6.44031
    endloop
  endfacet
  facet normal 0.884163 -0.241661 0.39982
    outer loop
      vertex 35.2417 -168.916 4.07621
      vertex 35.8789 -166.04 4.40543
      vertex 34.3676 -168.999 5.95903
    endloop
  endfacet
  facet normal 0.884142 -0.241609 0.399898
    outer loop
      vertex 35.8789 -166.04 4.40543
      vertex 34.9342 -166.129 6.44031
      vertex 34.3676 -168.999 5.95903
    endloop
  endfacet
  facet normal 0.851259 -0.362509 0.379401
    outer loop
      vertex 34.6856 -170.489 3.82096
      vertex 35.2417 -168.916 4.07621
      vertex 33.8662 -170.566 5.58587
    endloop
  endfacet
  facet normal 0.851267 -0.362688 0.379213
    outer loop
      vertex 35.2417 -168.916 4.07621
      vertex 34.3676 -168.999 5.95903
      vertex 33.8662 -170.566 5.58587
    endloop
  endfacet
  facet normal 0.676688 -0.679125 0.284399
    outer loop
      vertex 33.8264 -171.533 3.37231
      vertex 34.6856 -170.489 3.82096
      vertex 33.416 -171.533 4.3488
    endloop
  endfacet
  facet normal 0.676748 -0.679024 0.284498
    outer loop
      vertex 33.416 -171.533 4.3488
      vertex 33.8662 -170.566 5.58587
      vertex 33.1535 -171.533 4.97322
    endloop
  endfacet
  facet normal 0.676694 -0.679058 0.284545
    outer loop
      vertex 33.8662 -170.566 5.58587
      vertex 33.416 -171.533 4.3488
      vertex 34.6856 -170.489 3.82096
    endloop
  endfacet
  facet normal 0.815662 -0.149817 0.558793
    outer loop
      vertex 34.6052 -164.386 7.38786
      vertex 34.9342 -166.129 6.44031
      vertex 35.1504 -164.386 6.59204
    endloop
  endfacet
  facet normal 0.815667 -0.149813 0.558787
    outer loop
      vertex 34.9342 -166.129 6.44031
      vertex 34.6052 -164.386 7.38786
      vertex 33.652 -166.25 8.27951
    endloop
  endfacet
  facet normal 0.815688 -0.149842 0.558748
    outer loop
      vertex 34.6052 -164.386 7.38786
      vertex 33.8513 -164.386 8.48844
      vertex 33.652 -166.25 8.27951
    endloop
  endfacet
  facet normal 0.802054 -0.249352 0.542709
    outer loop
      vertex 34.3676 -168.999 5.95903
      vertex 34.9342 -166.129 6.44031
      vertex 33.1813 -169.111 7.66077
    endloop
  endfacet
  facet normal 0.80204 -0.249331 0.54274
    outer loop
      vertex 34.9342 -166.129 6.44031
      vertex 33.652 -166.25 8.27951
      vertex 33.1813 -169.111 7.66077
    endloop
  endfacet
  facet normal 0.773367 -0.37004 0.514757
    outer loop
      vertex 33.8662 -170.566 5.58587
      vertex 34.3676 -168.999 5.95903
      vertex 32.7542 -170.671 7.18105
    endloop
  endfacet
  facet normal 0.773365 -0.370031 0.514767
    outer loop
      vertex 34.3676 -168.999 5.95903
      vertex 33.1813 -169.111 7.66077
      vertex 32.7542 -170.671 7.18105
    endloop
  endfacet
  facet normal 0.61224 -0.692728 0.381171
    outer loop
      vertex 33.1535 -171.533 4.97322
      vertex 33.8662 -170.566 5.58587
      vertex 32.6364 -171.533 5.80379
    endloop
  endfacet
  facet normal 0.612229 -0.692723 0.381197
    outer loop
      vertex 32.6364 -171.533 5.80379
      vertex 32.7542 -170.671 7.18105
      vertex 32.2213 -171.533 6.47047
    endloop
  endfacet
  facet normal 0.612236 -0.692718 0.381193
    outer loop
      vertex 32.7542 -170.671 7.18105
      vertex 32.6364 -171.533 5.80379
      vertex 33.8662 -170.566 5.58587
    endloop
  endfacet
  facet normal 0.70747 -0.152982 0.689988
    outer loop
      vertex 33.2427 -164.386 9.11246
      vertex 33.652 -166.25 8.27951
      vertex 33.8513 -164.386 8.48844
    endloop
  endfacet
  facet normal 0.707472 -0.152981 0.689986
    outer loop
      vertex 33.652 -166.25 8.27951
      vertex 33.2427 -164.386 9.11246
      vertex 32.0714 -166.399 9.86713
    endloop
  endfacet
  facet normal 0.70748 -0.15299 0.689975
    outer loop
      vertex 33.2427 -164.386 9.11246
      vertex 32.2439 -164.386 10.1366
      vertex 32.0714 -166.399 9.86713
    endloop
  endfacet
  facet normal 0.696504 -0.259288 0.669068
    outer loop
      vertex 33.1813 -169.111 7.66077
      vertex 33.652 -166.25 8.27951
      vertex 31.7188 -169.249 9.12976
    endloop
  endfacet
  facet normal 0.696495 -0.259279 0.669081
    outer loop
      vertex 33.652 -166.25 8.27951
      vertex 32.0714 -166.399 9.86713
      vertex 31.7188 -169.249 9.12976
    endloop
  endfacet
  facet normal 0.673196 -0.379478 0.634668
    outer loop
      vertex 32.7542 -170.671 7.18105
      vertex 33.1813 -169.111 7.66077
      vertex 31.3833 -170.8 8.55804
    endloop
  endfacet
  facet normal 0.673225 -0.379547 0.634596
    outer loop
      vertex 33.1813 -169.111 7.66077
      vertex 31.7188 -169.249 9.12976
      vertex 31.3833 -170.8 8.55804
    endloop
  endfacet
  facet normal 0.531422 -0.709743 0.462445
    outer loop
      vertex 32.2213 -171.533 6.47047
      vertex 32.7542 -170.671 7.18105
      vertex 31.6468 -171.533 7.13066
    endloop
  endfacet
  facet normal 0.531548 -0.709597 0.462524
    outer loop
      vertex 31.6468 -171.533 7.13066
      vertex 31.3833 -170.8 8.55804
      vertex 31.0405 -171.533 7.82744
    endloop
  endfacet
  facet normal 0.531385 -0.709703 0.462548
    outer loop
      vertex 31.3833 -170.8 8.55804
      vertex 31.6468 -171.533 7.13066
      vertex 32.7542 -170.671 7.18105
    endloop
  endfacet
  facet normal 0.577961 -0.156736 0.800872
    outer loop
      vertex 31.6263 -164.386 10.5823
      vertex 32.0714 -166.399 9.86713
      vertex 32.2439 -164.386 10.1366
    endloop
  endfacet
  facet normal 0.578037 -0.156702 0.800823
    outer loop
      vertex 32.0714 -166.399 9.86713
      vertex 31.6263 -164.386 10.5823
      vertex 30.2404 -166.572 11.1549
    endloop
  endfacet
  facet normal 0.578036 -0.156701 0.800824
    outer loop
      vertex 31.6263 -164.386 10.5823
      vertex 30.3736 -164.386 11.4865
      vertex 30.2404 -166.572 11.1549
    endloop
  endfacet
  facet normal 0.57062 -0.271151 0.775158
    outer loop
      vertex 31.7188 -169.249 9.12976
      vertex 32.0714 -166.399 9.86713
      vertex 30.0246 -169.408 10.3213
    endloop
  endfacet
  facet normal 0.570729 -0.271242 0.775046
    outer loop
      vertex 32.0714 -166.399 9.86713
      vertex 30.2404 -166.572 11.1549
      vertex 30.0246 -169.408 10.3213
    endloop
  endfacet
  facet normal 0.55395 -0.390804 0.735127
    outer loop
      vertex 31.3833 -170.8 8.55804
      vertex 31.7188 -169.249 9.12976
      vertex 29.7952 -170.95 9.675
    endloop
  endfacet
  facet normal 0.553822 -0.390593 0.735335
    outer loop
      vertex 31.7188 -169.249 9.12976
      vertex 30.0246 -169.408 10.3213
      vertex 29.7952 -170.95 9.675
    endloop
  endfacet
  facet normal 0.438516 -0.728986 0.525627
    outer loop
      vertex 31.0405 -171.533 7.82744
      vertex 31.3833 -170.8 8.55804
      vertex 30.4645 -171.533 8.30798
    endloop
  endfacet
  facet normal 0.438477 -0.729032 0.525595
    outer loop
      vertex 30.4645 -171.533 8.30798
      vertex 29.7952 -170.95 9.675
      vertex 29.6274 -171.533 9.00633
    endloop
  endfacet
  facet normal 0.438529 -0.728994 0.525604
    outer loop
      vertex 29.7952 -170.95 9.675
      vertex 30.4645 -171.533 8.30798
      vertex 31.3833 -170.8 8.55804
    endloop
  endfacet
  facet normal 0.431072 -0.160946 0.887847
    outer loop
      vertex 29.8002 -164.386 11.7649
      vertex 30.2404 -166.572 11.1549
      vertex 30.3736 -164.386 11.4865
    endloop
  endfacet
  facet normal 0.431036 -0.160958 0.887863
    outer loop
      vertex 30.2404 -166.572 11.1549
      vertex 29.8002 -164.386 11.7649
      vertex 28.2145 -166.763 12.1038
    endloop
  endfacet
  facet normal 0.431002 -0.160932 0.887884
    outer loop
      vertex 29.8002 -164.386 11.7649
      vertex 28.2941 -164.386 12.496
      vertex 28.2145 -166.763 12.1038
    endloop
  endfacet
  facet normal 0.428531 -0.284662 0.857513
    outer loop
      vertex 30.0246 -169.408 10.3213
      vertex 30.2404 -166.572 11.1549
      vertex 28.1501 -169.585 11.1993
    endloop
  endfacet
  facet normal 0.428494 -0.284635 0.857541
    outer loop
      vertex 30.2404 -166.572 11.1549
      vertex 28.2145 -166.763 12.1038
      vertex 28.1501 -169.585 11.1993
    endloop
  endfacet
  facet normal 0.419109 -0.403293 0.813451
    outer loop
      vertex 29.7952 -170.95 9.675
      vertex 30.0246 -169.408 10.3213
      vertex 28.0381 -171.116 10.498
    endloop
  endfacet
  facet normal 0.419099 -0.403279 0.813463
    outer loop
      vertex 30.0246 -169.408 10.3213
      vertex 28.1501 -169.585 11.1993
      vertex 28.0381 -171.116 10.498
    endloop
  endfacet
  facet normal 0.33736 -0.749856 0.569126
    outer loop
      vertex 29.6274 -171.533 9.00633
      vertex 29.7952 -170.95 9.675
      vertex 29.1074 -171.533 9.31457
    endloop
  endfacet
  facet normal 0.337302 -0.749954 0.569031
    outer loop
      vertex 29.1074 -171.533 9.31457
      vertex 28.0381 -171.116 10.498
      vertex 28.0043 -171.533 9.96845
    endloop
  endfacet
  facet normal 0.337394 -0.749872 0.569085
    outer loop
      vertex 28.0381 -171.116 10.498
      vertex 29.1074 -171.533 9.31457
      vertex 29.7952 -170.95 9.675
    endloop
  endfacet
  facet normal 0.270931 -0.165534 0.948259
    outer loop
      vertex 27.8111 -164.386 12.634
      vertex 28.2145 -166.763 12.1038
      vertex 28.2941 -164.386 12.496
    endloop
  endfacet
  facet normal 0.270779 -0.165568 0.948296
    outer loop
      vertex 28.2145 -166.763 12.1038
      vertex 27.8111 -164.386 12.634
      vertex 26.0553 -166.966 12.6849
    endloop
  endfacet
  facet normal 0.270814 -0.165592 0.948282
    outer loop
      vertex 27.8111 -164.386 12.634
      vertex 26.0659 -164.386 13.1324
      vertex 26.0553 -166.966 12.6849
    endloop
  endfacet
  facet normal 0.274283 -0.299188 0.913923
    outer loop
      vertex 28.1501 -169.585 11.1993
      vertex 28.2145 -166.763 12.1038
      vertex 26.1523 -169.774 11.737
    endloop
  endfacet
  facet normal 0.274104 -0.299076 0.914013
    outer loop
      vertex 26.1523 -169.774 11.737
      vertex 28.2145 -166.763 12.1038
      vertex 26.0553 -166.966 12.6849
    endloop
  endfacet
  facet normal 0.272751 -0.417086 0.866976
    outer loop
      vertex 28.0381 -171.116 10.498
      vertex 28.1501 -169.585 11.1993
      vertex 26.1654 -171.293 11.002
    endloop
  endfacet
  facet normal 0.272796 -0.417134 0.866938
    outer loop
      vertex 26.1654 -171.293 11.002
      vertex 28.1501 -169.585 11.1993
      vertex 26.1523 -169.774 11.737
    endloop
  endfacet
  facet normal 0.232316 -0.771309 0.592547
    outer loop
      vertex 28.0043 -171.533 9.96845
      vertex 28.0381 -171.116 10.498
      vertex 27.5948 -171.533 10.129
    endloop
  endfacet
  facet normal 0.232135 -0.77162 0.592213
    outer loop
      vertex 27.5948 -171.533 10.129
      vertex 26.1654 -171.293 11.002
      vertex 26.2011 -171.533 10.6753
    endloop
  endfacet
  facet normal 0.232364 -0.771325 0.592508
    outer loop
      vertex 26.1654 -171.293 11.002
      vertex 27.5948 -171.533 10.129
      vertex 28.0381 -171.116 10.498
    endloop
  endfacet
  facet normal 0.102171 -0.170327 0.980076
    outer loop
      vertex 24.8 -165.734 13.0301
      vertex 26.0659 -164.386 13.1324
      vertex 25.7081 -164.386 13.1697
    endloop
  endfacet
  facet normal 0.102262 -0.17041 0.980053
    outer loop
      vertex 26.0659 -164.386 13.1324
      vertex 24.8 -165.734 13.0301
      vertex 26.0553 -166.966 12.6849
    endloop
  endfacet
  facet normal 0.10234 -0.170331 0.980058
    outer loop
      vertex 26.0553 -166.966 12.6849
      vertex 24.8 -165.734 13.0301
      vertex 24.8 -167.085 12.7953
    endloop
  endfacet
  facet normal 0.102205 -0.170349 0.980069
    outer loop
      vertex 25.7081 -164.386 13.1697
      vertex 24.8 -164.386 13.2644
      vertex 24.8 -165.734 13.0301
    endloop
  endfacet
  facet normal 0.112574 -0.314313 0.942621
    outer loop
      vertex 24.8 -168.886 12.1946
      vertex 26.1523 -169.774 11.737
      vertex 26.0553 -166.966 12.6849
    endloop
  endfacet
  facet normal 0.11235 -0.314616 0.942547
    outer loop
      vertex 26.1523 -169.774 11.737
      vertex 24.8 -168.886 12.1946
      vertex 24.8 -169.901 11.8558
    endloop
  endfacet
  facet normal 0.1127 -0.314386 0.942582
    outer loop
      vertex 26.0553 -166.966 12.6849
      vertex 24.8 -167.085 12.7953
      vertex 24.8 -168.886 12.1946
    endloop
  endfacet
  facet normal 0.119203 -0.431622 0.894144
    outer loop
      vertex 24.8 -170.973 11.3385
      vertex 26.1654 -171.293 11.002
      vertex 26.1523 -169.774 11.737
    endloop
  endfacet
  facet normal 0.119068 -0.432019 0.89397
    outer loop
      vertex 26.1654 -171.293 11.002
      vertex 24.8 -170.973 11.3385
      vertex 24.8 -171.421 11.122
    endloop
  endfacet
  facet normal 0.119082 -0.431509 0.894215
    outer loop
      vertex 26.1523 -169.774 11.737
      vertex 24.8 -169.901 11.8558
      vertex 24.8 -170.973 11.3385
    endloop
  endfacet
  facet normal 0.127121 -0.792694 0.596219
    outer loop
      vertex 26.2011 -171.533 10.6753
      vertex 26.1654 -171.293 11.002
      vertex 25.9483 -171.533 10.7292
    endloop
  endfacet
  facet normal 0.127593 -0.790889 0.59851
    outer loop
      vertex 25.9483 -171.533 10.7292
      vertex 24.8 -171.421 11.122
      vertex 24.8 -171.533 10.974
    endloop
  endfacet
  facet normal 0.126721 -0.792588 0.596444
    outer loop
      vertex 24.8 -171.421 11.122
      vertex 25.9483 -171.533 10.7292
      vertex 26.1654 -171.293 11.002
    endloop
  endfacet
endsolid OpenSCAD_Model
