solid OpenSCAD_Model
  facet normal 0 0 1
    outer loop
      vertex 24.8 -21.4416 0
      vertex 47.8517 -14.7276 0
      vertex 47.6794 -14.2944 0
    endloop
  endfacet
  facet normal 0 0 1
    outer loop
      vertex 24.8 -21.4416 0
      vertex 47.6794 -14.2944 0
      vertex 24.8 -14.2944 0
    endloop
  endfacet
  facet normal 0 0 1
    outer loop
      vertex 47.8517 -14.7276 0
      vertex 24.8 -21.4416 0
      vertex 49.05 -21.4416 0
    endloop
  endfacet
  facet normal -1 0 0
    outer loop
      vertex 24.8 -21.4416 0
      vertex 24.8 -14.2944 -21.57
      vertex 24.8 -16.2999 -22.4043
    endloop
  endfacet
  facet normal -1 0 0
    outer loop
      vertex 24.8 -21.4416 0
      vertex 24.8 -16.2999 -22.4043
      vertex 24.8 -16.9022 -22.6548
    endloop
  endfacet
  facet normal -1 0 0
    outer loop
      vertex 24.8 -21.4416 0
      vertex 24.8 -16.9022 -22.6548
      vertex 24.8 -21.4416 -23.5848
    endloop
  endfacet
  facet normal -1 0 0
    outer loop
      vertex 24.8 -14.2944 -21.57
      vertex 24.8 -21.4416 0
      vertex 24.8 -14.2944 0
    endloop
  endfacet
  facet normal 0 1 -0
    outer loop
      vertex 47.647 -14.2944 -0.357806
      vertex 24.8 -14.2944 0
      vertex 47.6794 -14.2944 0
    endloop
  endfacet
  facet normal 0 1 -0
    outer loop
      vertex 47.3264 -14.2944 -3.90628
      vertex 24.8 -14.2944 0
      vertex 47.647 -14.2944 -0.357806
    endloop
  endfacet
  facet normal 0 1 -0
    outer loop
      vertex 47.2219 -14.2944 -4.28325
      vertex 24.8 -14.2944 0
      vertex 47.3264 -14.2944 -3.90628
    endloop
  endfacet
  facet normal 0 1 -0
    outer loop
      vertex 46.2806 -14.2944 -7.67991
      vertex 24.8 -14.2944 0
      vertex 47.2219 -14.2944 -4.28325
    endloop
  endfacet
  facet normal 0 1 -0
    outer loop
      vertex 46.0729 -14.2944 -8.10948
      vertex 24.8 -14.2944 0
      vertex 46.2806 -14.2944 -7.67991
    endloop
  endfacet
  facet normal 0 1 -0
    outer loop
      vertex 44.5811 -14.2944 -11.1941
      vertex 24.8 -14.2944 0
      vertex 46.0729 -14.2944 -8.10948
    endloop
  endfacet
  facet normal 0 1 -0
    outer loop
      vertex 44.2182 -14.2944 -11.6916
      vertex 24.8 -14.2944 0
      vertex 44.5811 -14.2944 -11.1941
    endloop
  endfacet
  facet normal 0 1 -0
    outer loop
      vertex 42.2906 -14.2944 -14.3335
      vertex 24.8 -14.2944 0
      vertex 44.2182 -14.2944 -11.6916
    endloop
  endfacet
  facet normal 0 1 -0
    outer loop
      vertex 41.709 -14.2944 -14.8872
      vertex 24.8 -14.2944 0
      vertex 42.2906 -14.2944 -14.3335
    endloop
  endfacet
  facet normal 0 1 -0
    outer loop
      vertex 39.4918 -14.2944 -16.9983
      vertex 24.8 -14.2944 0
      vertex 41.709 -14.2944 -14.8872
    endloop
  endfacet
  facet normal 0 1 -0
    outer loop
      vertex 38.6291 -14.2944 -17.5658
      vertex 24.8 -14.2944 0
      vertex 39.4918 -14.2944 -16.9983
    endloop
  endfacet
  facet normal 0 1 -0
    outer loop
      vertex 36.2837 -14.2944 -19.1085
      vertex 24.8 -14.2944 0
      vertex 38.6291 -14.2944 -17.5658
    endloop
  endfacet
  facet normal 0 1 -0
    outer loop
      vertex 35.0914 -14.2944 -19.6173
      vertex 24.8 -14.2944 0
      vertex 36.2837 -14.2944 -19.1085
    endloop
  endfacet
  facet normal 0 1 -0
    outer loop
      vertex 32.7761 -14.2944 -20.6054
      vertex 24.8 -14.2944 0
      vertex 35.0914 -14.2944 -19.6173
    endloop
  endfacet
  facet normal 0 1 -0
    outer loop
      vertex 31.2325 -14.2944 -20.9598
      vertex 24.8 -14.2944 0
      vertex 32.7761 -14.2944 -20.6054
    endloop
  endfacet
  facet normal 0 1 -0
    outer loop
      vertex 29.0853 -14.2944 -21.4529
      vertex 24.8 -14.2944 0
      vertex 31.2325 -14.2944 -20.9598
    endloop
  endfacet
  facet normal 0 1 -0
    outer loop
      vertex 27.2034 -14.2944 -21.5453
      vertex 24.8 -14.2944 0
      vertex 29.0853 -14.2944 -21.4529
    endloop
  endfacet
  facet normal 0 1 0
    outer loop
      vertex 27.2034 -14.2944 -21.5453
      vertex 24.8 -14.2944 -21.57
      vertex 24.8 -14.2944 0
    endloop
  endfacet
  facet normal -0 1 0
    outer loop
      vertex 24.8 -14.2944 -21.57
      vertex 27.2034 -14.2944 -21.5453
      vertex 25.3293 -14.2944 -21.6373
    endloop
  endfacet
  facet normal 0 -1 0
    outer loop
      vertex 24.8 -21.4416 0
      vertex 48.9401 -21.4416 -1.24175
      vertex 49.05 -21.4416 0
    endloop
  endfacet
  facet normal 0 -1 0
    outer loop
      vertex 24.8 -21.4416 0
      vertex 48.6798 -21.4416 -4.17986
      vertex 48.9401 -21.4416 -1.24175
    endloop
  endfacet
  facet normal 0 -1 0
    outer loop
      vertex 24.8 -21.4416 0
      vertex 48.3475 -21.4416 -5.40423
      vertex 48.6798 -21.4416 -4.17986
    endloop
  endfacet
  facet normal 0 -1 0
    outer loop
      vertex 24.8 -21.4416 0
      vertex 47.5818 -21.4416 -8.22553
      vertex 48.3475 -21.4416 -5.40423
    endloop
  endfacet
  facet normal 0 -1 0
    outer loop
      vertex 24.8 -21.4416 0
      vertex 47.0183 -21.4416 -9.41686
      vertex 47.5818 -21.4416 -8.22553
    endloop
  endfacet
  facet normal 0 -1 0
    outer loop
      vertex 24.8 -21.4416 0
      vertex 45.7928 -21.4416 -12.0078
      vertex 47.0183 -21.4416 -9.41686
    endloop
  endfacet
  facet normal 0 -1 0
    outer loop
      vertex 24.8 -21.4416 0
      vertex 44.985 -21.4416 -13.1427
      vertex 45.7928 -21.4416 -12.0078
    endloop
  endfacet
  facet normal 0 -1 0
    outer loop
      vertex 24.8 -21.4416 0
      vertex 43.3731 -21.4416 -15.4072
      vertex 44.985 -21.4416 -13.1427
    endloop
  endfacet
  facet normal 0 -1 0
    outer loop
      vertex 24.8 -21.4416 0
      vertex 42.3076 -21.4416 -16.4514
      vertex 43.3731 -21.4416 -15.4072
    endloop
  endfacet
  facet normal 0 -1 0
    outer loop
      vertex 24.8 -21.4416 0
      vertex 40.4027 -21.4416 -18.3182
      vertex 42.3076 -21.4416 -16.4514
    endloop
  endfacet
  facet normal 0 -1 0
    outer loop
      vertex 24.8 -21.4416 0
      vertex 39.0714 -21.4416 -19.2259
      vertex 40.4027 -21.4416 -18.3182
    endloop
  endfacet
  facet normal 0 -1 0
    outer loop
      vertex 24.8 -21.4416 0
      vertex 36.9793 -21.4416 -20.6523
      vertex 39.0714 -21.4416 -19.2259
    endloop
  endfacet
  facet normal 0 -1 0
    outer loop
      vertex 24.8 -21.4416 0
      vertex 35.3847 -21.4416 -21.3675
      vertex 36.9793 -21.4416 -20.6523
    endloop
  endfacet
  facet normal 0 -1 0
    outer loop
      vertex 24.8 -21.4416 0
      vertex 33.2133 -21.4416 -22.3415
      vertex 35.3847 -21.4416 -21.3675
    endloop
  endfacet
  facet normal 0 -1 0
    outer loop
      vertex 24.8 -21.4416 0
      vertex 31.3738 -21.4416 -22.8015
      vertex 33.2133 -21.4416 -22.3415
    endloop
  endfacet
  facet normal 0 -1 0
    outer loop
      vertex 24.8 -21.4416 0
      vertex 29.2246 -21.4416 -23.339
      vertex 31.3738 -21.4416 -22.8015
    endloop
  endfacet
  facet normal 0 -1 0
    outer loop
      vertex 24.8 -21.4416 0
      vertex 27.1773 -21.4416 -23.4803
      vertex 29.2246 -21.4416 -23.339
    endloop
  endfacet
  facet normal 0 -1 0
    outer loop
      vertex 24.8 -21.4416 -23.5848
      vertex 27.1773 -21.4416 -23.4803
      vertex 24.8 -21.4416 0
    endloop
  endfacet
  facet normal 0 -1 0
    outer loop
      vertex 27.1773 -21.4416 -23.4803
      vertex 24.8 -21.4416 -23.5848
      vertex 25.1375 -21.4416 -23.621
    endloop
  endfacet
  facet normal 0.0453652 0.379767 -0.923969
    outer loop
      vertex 25.257 -16.8591 -22.695
      vertex 27.2034 -14.2944 -21.5453
      vertex 29.1806 -16.4889 -22.3502
    endloop
  endfacet
  facet normal 0.0453578 0.379772 -0.923968
    outer loop
      vertex 27.2034 -14.2944 -21.5453
      vertex 25.257 -16.8591 -22.695
      vertex 25.3293 -14.2944 -21.6373
    endloop
  endfacet
  facet normal 0.0453662 0.379768 -0.923969
    outer loop
      vertex 29.0853 -14.2944 -21.4529
      vertex 29.1806 -16.4889 -22.3502
      vertex 27.2034 -14.2944 -21.5453
    endloop
  endfacet
  facet normal 0.0674801 0.195927 -0.978294
    outer loop
      vertex 25.257 -16.8591 -22.695
      vertex 27.1773 -21.4416 -23.4803
      vertex 25.1375 -21.4416 -23.621
    endloop
  endfacet
  facet normal 0.0675196 0.195915 -0.978294
    outer loop
      vertex 27.1773 -21.4416 -23.4803
      vertex 29.1806 -16.4889 -22.3502
      vertex 29.2246 -21.4416 -23.339
    endloop
  endfacet
  facet normal 0.0674846 0.195929 -0.978293
    outer loop
      vertex 29.1806 -16.4889 -22.3502
      vertex 27.1773 -21.4416 -23.4803
      vertex 25.257 -16.8591 -22.695
    endloop
  endfacet
  facet normal 0.20721 0.37796 -0.902336
    outer loop
      vertex 29.1806 -16.4889 -22.3502
      vertex 31.2325 -14.2944 -20.9598
      vertex 32.9849 -16.1301 -21.3263
    endloop
  endfacet
  facet normal 0.20722 0.377952 -0.902337
    outer loop
      vertex 31.2325 -14.2944 -20.9598
      vertex 29.1806 -16.4889 -22.3502
      vertex 29.0853 -14.2944 -21.4529
    endloop
  endfacet
  facet normal 0.207175 0.37793 -0.902356
    outer loop
      vertex 32.7761 -14.2944 -20.6054
      vertex 32.9849 -16.1301 -21.3263
      vertex 31.2325 -14.2944 -20.9598
    endloop
  endfacet
  facet normal 0.238098 0.192188 -0.952036
    outer loop
      vertex 31.3738 -21.4416 -22.8015
      vertex 29.2246 -21.4416 -23.339
      vertex 29.1806 -16.4889 -22.3502
    endloop
  endfacet
  facet normal 0.238074 0.192203 -0.952039
    outer loop
      vertex 31.3738 -21.4416 -22.8015
      vertex 32.9849 -16.1301 -21.3263
      vertex 33.2133 -21.4416 -22.3415
    endloop
  endfacet
  facet normal 0.238107 0.192192 -0.952033
    outer loop
      vertex 32.9849 -16.1301 -21.3263
      vertex 31.3738 -21.4416 -22.8015
      vertex 29.1806 -16.4889 -22.3502
    endloop
  endfacet
  facet normal 0.363701 0.376059 -0.852233
    outer loop
      vertex 32.9849 -16.1301 -21.3263
      vertex 35.0914 -14.2944 -19.6173
      vertex 36.5544 -15.7934 -19.6544
    endloop
  endfacet
  facet normal 0.363708 0.376051 -0.852234
    outer loop
      vertex 35.0914 -14.2944 -19.6173
      vertex 32.9849 -16.1301 -21.3263
      vertex 32.7761 -14.2944 -20.6054
    endloop
  endfacet
  facet normal 0.363686 0.376045 -0.852246
    outer loop
      vertex 36.2837 -14.2944 -19.1085
      vertex 36.5544 -15.7934 -19.6544
      vertex 35.0914 -14.2944 -19.6173
    endloop
  endfacet
  facet normal 0.40193 0.188547 -0.896048
    outer loop
      vertex 35.3847 -21.4416 -21.3675
      vertex 33.2133 -21.4416 -22.3415
      vertex 32.9849 -16.1301 -21.3263
    endloop
  endfacet
  facet normal 0.401897 0.188546 -0.896063
    outer loop
      vertex 35.3847 -21.4416 -21.3675
      vertex 36.5544 -15.7934 -19.6544
      vertex 36.9793 -21.4416 -20.6523
    endloop
  endfacet
  facet normal 0.401915 0.18854 -0.896056
    outer loop
      vertex 36.5544 -15.7934 -19.6544
      vertex 35.3847 -21.4416 -21.3675
      vertex 32.9849 -16.1301 -21.3263
    endloop
  endfacet
  facet normal 0.509596 0.374209 -0.774777
    outer loop
      vertex 36.5544 -15.7934 -19.6544
      vertex 38.6291 -14.2944 -17.5658
      vertex 39.7806 -15.489 -17.3854
    endloop
  endfacet
  facet normal 0.509614 0.374185 -0.774777
    outer loop
      vertex 38.6291 -14.2944 -17.5658
      vertex 36.5544 -15.7934 -19.6544
      vertex 36.2837 -14.2944 -19.1085
    endloop
  endfacet
  facet normal 0.509633 0.374252 -0.774732
    outer loop
      vertex 39.4918 -14.2944 -16.9983
      vertex 39.7806 -15.489 -17.3854
      vertex 38.6291 -14.2944 -17.5658
    endloop
  endfacet
  facet normal 0.553594 0.185098 -0.811956
    outer loop
      vertex 39.0714 -21.4416 -19.2259
      vertex 36.9793 -21.4416 -20.6523
      vertex 36.5544 -15.7934 -19.6544
    endloop
  endfacet
  facet normal 0.553601 0.185093 -0.811952
    outer loop
      vertex 39.0714 -21.4416 -19.2259
      vertex 39.7806 -15.489 -17.3854
      vertex 40.4027 -21.4416 -18.3182
    endloop
  endfacet
  facet normal 0.55359 0.185096 -0.811959
    outer loop
      vertex 39.7806 -15.489 -17.3854
      vertex 39.0714 -21.4416 -19.2259
      vertex 36.5544 -15.7934 -19.6544
    endloop
  endfacet
  facet normal 0.639934 0.372509 -0.672103
    outer loop
      vertex 39.7806 -15.489 -17.3854
      vertex 41.709 -14.2944 -14.8872
      vertex 42.5656 -15.2263 -14.5881
    endloop
  endfacet
  facet normal 0.63994 0.372498 -0.672103
    outer loop
      vertex 41.709 -14.2944 -14.8872
      vertex 39.7806 -15.489 -17.3854
      vertex 39.4918 -14.2944 -16.9983
    endloop
  endfacet
  facet normal 0.639907 0.372469 -0.67215
    outer loop
      vertex 42.2906 -14.2944 -14.3335
      vertex 42.5656 -15.2263 -14.5881
      vertex 41.709 -14.2944 -14.8872
    endloop
  endfacet
  facet normal 0.688241 0.181979 -0.702288
    outer loop
      vertex 42.3076 -21.4416 -16.4514
      vertex 40.4027 -21.4416 -18.3182
      vertex 39.7806 -15.489 -17.3854
    endloop
  endfacet
  facet normal 0.688246 0.18197 -0.702285
    outer loop
      vertex 42.3076 -21.4416 -16.4514
      vertex 42.5656 -15.2263 -14.5881
      vertex 43.3731 -21.4416 -15.4072
    endloop
  endfacet
  facet normal 0.688233 0.181974 -0.702297
    outer loop
      vertex 42.5656 -15.2263 -14.5881
      vertex 42.3076 -21.4416 -16.4514
      vertex 39.7806 -15.489 -17.3854
    endloop
  endfacet
  facet normal 0.750226 0.37088 -0.547366
    outer loop
      vertex 42.5656 -15.2263 -14.5881
      vertex 44.2182 -14.2944 -11.6916
      vertex 44.8246 -15.0132 -11.3475
    endloop
  endfacet
  facet normal 0.750202 0.370925 -0.547367
    outer loop
      vertex 44.2182 -14.2944 -11.6916
      vertex 42.5656 -15.2263 -14.5881
      vertex 42.2906 -14.2944 -14.3335
    endloop
  endfacet
  facet normal 0.750258 0.370951 -0.547274
    outer loop
      vertex 44.5811 -14.2944 -11.1941
      vertex 44.8246 -15.0132 -11.3475
      vertex 44.2182 -14.2944 -11.6916
    endloop
  endfacet
  facet normal 0.801481 0.179315 -0.570504
    outer loop
      vertex 44.985 -21.4416 -13.1427
      vertex 43.3731 -21.4416 -15.4072
      vertex 42.5656 -15.2263 -14.5881
    endloop
  endfacet
  facet normal 0.801493 0.179313 -0.570487
    outer loop
      vertex 44.985 -21.4416 -13.1427
      vertex 44.8246 -15.0132 -11.3475
      vertex 45.7928 -21.4416 -12.0078
    endloop
  endfacet
  facet normal 0.801483 0.179317 -0.5705
    outer loop
      vertex 44.8246 -15.0132 -11.3475
      vertex 44.985 -21.4416 -13.1427
      vertex 42.5656 -15.2263 -14.5881
    endloop
  endfacet
  facet normal 0.836505 0.36961 -0.404533
    outer loop
      vertex 44.8246 -15.0132 -11.3475
      vertex 46.0729 -14.2944 -8.10948
      vertex 46.4891 -14.8562 -7.76215
    endloop
  endfacet
  facet normal 0.836467 0.369693 -0.404537
    outer loop
      vertex 46.0729 -14.2944 -8.10948
      vertex 44.8246 -15.0132 -11.3475
      vertex 44.5811 -14.2944 -11.1941
    endloop
  endfacet
  facet normal 0.836517 0.369663 -0.404461
    outer loop
      vertex 46.2806 -14.2944 -7.67991
      vertex 46.4891 -14.8562 -7.76215
      vertex 46.0729 -14.2944 -8.10948
    endloop
  endfacet
  facet normal 0.88967 0.17722 -0.420809
    outer loop
      vertex 47.0183 -21.4416 -9.41686
      vertex 45.7928 -21.4416 -12.0078
      vertex 44.8246 -15.0132 -11.3475
    endloop
  endfacet
  facet normal 0.889666 0.177231 -0.420813
    outer loop
      vertex 47.0183 -21.4416 -9.41686
      vertex 46.4891 -14.8562 -7.76215
      vertex 47.5818 -21.4416 -8.22553
    endloop
  endfacet
  facet normal 0.889676 0.177226 -0.420793
    outer loop
      vertex 46.4891 -14.8562 -7.76215
      vertex 47.0183 -21.4416 -9.41686
      vertex 44.8246 -15.0132 -11.3475
    endloop
  endfacet
  facet normal 0.895724 0.368855 -0.248242
    outer loop
      vertex 46.4891 -14.8562 -7.76215
      vertex 47.2219 -14.2944 -4.28325
      vertex 47.5085 -14.76 -3.94094
    endloop
  endfacet
  facet normal 0.895757 0.368779 -0.248237
    outer loop
      vertex 47.2219 -14.2944 -4.28325
      vertex 46.4891 -14.8562 -7.76215
      vertex 46.2806 -14.2944 -7.67991
    endloop
  endfacet
  facet normal 0.895726 0.36881 -0.248304
    outer loop
      vertex 47.3264 -14.2944 -3.90628
      vertex 47.5085 -14.76 -3.94094
      vertex 47.2219 -14.2944 -4.28325
    endloop
  endfacet
  facet normal 0.950061 0.175785 -0.257846
    outer loop
      vertex 48.3475 -21.4416 -5.40423
      vertex 47.5818 -21.4416 -8.22553
      vertex 46.4891 -14.8562 -7.76215
    endloop
  endfacet
  facet normal 0.950062 0.175768 -0.257852
    outer loop
      vertex 48.3475 -21.4416 -5.40423
      vertex 47.5085 -14.76 -3.94094
      vertex 48.6798 -21.4416 -4.17986
    endloop
  endfacet
  facet normal 0.950055 0.175773 -0.257875
    outer loop
      vertex 47.5085 -14.76 -3.94094
      vertex 48.3475 -21.4416 -5.40423
      vertex 46.4891 -14.8562 -7.76215
    endloop
  endfacet
  facet normal 0.925891 0.368411 -0.0836608
    outer loop
      vertex 47.5085 -14.76 -3.94094
      vertex 47.647 -14.2944 -0.357806
      vertex 47.8517 -14.7276 0
    endloop
  endfacet
  facet normal 0.925912 0.368359 -0.083655
    outer loop
      vertex 47.647 -14.2944 -0.357806
      vertex 47.5085 -14.76 -3.94094
      vertex 47.3264 -14.2944 -3.90628
    endloop
  endfacet
  facet normal 0.925928 0.368277 -0.0838445
    outer loop
      vertex 47.6794 -14.2944 0
      vertex 47.8517 -14.7276 0
      vertex 47.647 -14.2944 -0.357806
    endloop
  endfacet
  facet normal 0.980722 0.17503 -0.0868864
    outer loop
      vertex 48.9401 -21.4416 -1.24175
      vertex 48.6798 -21.4416 -4.17986
      vertex 47.5085 -14.76 -3.94094
    endloop
  endfacet
  facet normal 0.980728 0.175038 -0.0867985
    outer loop
      vertex 48.9401 -21.4416 -1.24175
      vertex 47.8517 -14.7276 0
      vertex 49.05 -21.4416 0
    endloop
  endfacet
  facet normal 0.980722 0.175046 -0.0868461
    outer loop
      vertex 47.8517 -14.7276 0
      vertex 48.9401 -21.4416 -1.24175
      vertex 47.5085 -14.76 -3.94094
    endloop
  endfacet
  facet normal -0.116636 0.381396 -0.917024
    outer loop
      vertex 24.8 -16.2999 -22.4043
      vertex 25.257 -16.8591 -22.695
      vertex 24.8 -16.9022 -22.6548
    endloop
  endfacet
  facet normal -0.11654 0.381465 -0.917007
    outer loop
      vertex 24.8 -16.2999 -22.4043
      vertex 25.3293 -14.2944 -21.6373
      vertex 25.257 -16.8591 -22.695
    endloop
  endfacet
  facet normal -0.116595 0.381476 -0.916996
    outer loop
      vertex 25.3293 -14.2944 -21.6373
      vertex 24.8 -16.2999 -22.4043
      vertex 24.8 -14.2944 -21.57
    endloop
  endfacet
  facet normal -0.104501 0.199605 -0.974288
    outer loop
      vertex 24.8 -16.9022 -22.6548
      vertex 25.1375 -21.4416 -23.621
      vertex 24.8 -21.4416 -23.5848
    endloop
  endfacet
  facet normal -0.104528 0.199603 -0.974286
    outer loop
      vertex 25.1375 -21.4416 -23.621
      vertex 24.8 -16.9022 -22.6548
      vertex 25.257 -16.8591 -22.695
    endloop
  endfacet
endsolid OpenSCAD_Model
