solid OpenSCAD_Model
  facet normal 1 0 0
    outer loop
      vertex 24.8 -114.355 -17.4685
      vertex 24.8 -107.208 0
      vertex 24.8 -114.355 0
    endloop
  endfacet
  facet normal 1 0 0
    outer loop
      vertex 24.8 -107.208 0
      vertex 24.8 -114.355 -17.4685
      vertex 24.8 -107.208 -17.9592
    endloop
  endfacet
  facet normal 0 0 1
    outer loop
      vertex 24.8 -107.208 0
      vertex 2.67138 -114.355 0
      vertex 24.8 -114.355 0
    endloop
  endfacet
  facet normal 0 -0 1
    outer loop
      vertex 2.67138 -114.355 0
      vertex 24.8 -107.208 0
      vertex 2.3498 -107.208 0
    endloop
  endfacet
  facet normal 0 1 0
    outer loop
      vertex 24.8 -107.208 0
      vertex 2.41308 -107.208 -0.723462
      vertex 2.3498 -107.208 0
    endloop
  endfacet
  facet normal 0 1 -0
    outer loop
      vertex 2.82247 -107.208 -3.93751
      vertex 2.41308 -107.208 -0.723462
      vertex 24.8 -107.208 0
    endloop
  endfacet
  facet normal 0 1 0
    outer loop
      vertex 2.41308 -107.208 -0.723462
      vertex 2.82247 -107.208 -3.93751
      vertex 2.63206 -107.208 -3.22691
    endloop
  endfacet
  facet normal 0 1 -0
    outer loop
      vertex 3.79043 -107.208 -7.04103
      vertex 2.82247 -107.208 -3.93751
      vertex 24.8 -107.208 0
    endloop
  endfacet
  facet normal 0 1 0
    outer loop
      vertex 2.82247 -107.208 -3.93751
      vertex 3.79043 -107.208 -7.04103
      vertex 3.46998 -107.208 -6.35409
    endloop
  endfacet
  facet normal 0 1 -0
    outer loop
      vertex 5.29224 -107.208 -9.93416
      vertex 3.79043 -107.208 -7.04103
      vertex 24.8 -107.208 0
    endloop
  endfacet
  facet normal 0 1 0
    outer loop
      vertex 3.79043 -107.208 -7.04103
      vertex 5.29224 -107.208 -9.93416
      vertex 4.83724 -107.208 -9.28505
    endloop
  endfacet
  facet normal 0 1 -0
    outer loop
      vertex 7.28472 -107.208 -12.5221
      vertex 5.29224 -107.208 -9.93416
      vertex 24.8 -107.208 0
    endloop
  endfacet
  facet normal 0 1 0
    outer loop
      vertex 5.29224 -107.208 -9.93416
      vertex 7.28472 -107.208 -12.5221
      vertex 6.69099 -107.208 -11.9296
    endloop
  endfacet
  facet normal 0 1 -0
    outer loop
      vertex 9.70727 -107.208 -14.7188
      vertex 7.28472 -107.208 -12.5221
      vertex 24.8 -107.208 0
    endloop
  endfacet
  facet normal 0 1 0
    outer loop
      vertex 7.28472 -107.208 -12.5221
      vertex 9.70727 -107.208 -14.7188
      vertex 8.97333 -107.208 -14.207
    endloop
  endfacet
  facet normal 0 1 -0
    outer loop
      vertex 12.4836 -107.208 -16.4505
      vertex 9.70727 -107.208 -14.7188
      vertex 24.8 -107.208 0
    endloop
  endfacet
  facet normal 0 1 0
    outer loop
      vertex 9.70727 -107.208 -14.7188
      vertex 12.4836 -107.208 -16.4505
      vertex 11.6132 -107.208 -16.0478
    endloop
  endfacet
  facet normal 0 1 -0
    outer loop
      vertex 15.5246 -107.208 -17.6592
      vertex 12.4836 -107.208 -16.4505
      vertex 24.8 -107.208 0
    endloop
  endfacet
  facet normal 0 1 0
    outer loop
      vertex 12.4836 -107.208 -16.4505
      vertex 15.5246 -107.208 -17.6592
      vertex 14.5288 -107.208 -17.3968
    endloop
  endfacet
  facet normal 0 1 0
    outer loop
      vertex 21.9985 -107.208 -18.366
      vertex 24.8 -107.208 0
      vertex 24.8 -107.208 -17.9592
    endloop
  endfacet
  facet normal 0 1 0
    outer loop
      vertex 21.9985 -107.208 -18.366
      vertex 24.8 -107.208 -17.9592
      vertex 24.0085 -107.208 -18.1773
    endloop
  endfacet
  facet normal -0 1 0
    outer loop
      vertex 18.7311 -107.208 -18.3046
      vertex 24.8 -107.208 0
      vertex 21.9985 -107.208 -18.366
    endloop
  endfacet
  facet normal 0 1 0
    outer loop
      vertex 15.5246 -107.208 -17.6592
      vertex 18.7311 -107.208 -18.3046
      vertex 17.6303 -107.208 -18.2141
    endloop
  endfacet
  facet normal 0 1 0
    outer loop
      vertex 24.8 -107.208 0
      vertex 18.7311 -107.208 -18.3046
      vertex 15.5246 -107.208 -17.6592
    endloop
  endfacet
  facet normal 0 1 0
    outer loop
      vertex 18.7311 -107.208 -18.3046
      vertex 21.9985 -107.208 -18.366
      vertex 20.8226 -107.208 -18.4764
    endloop
  endfacet
  facet normal 0 -1 0
    outer loop
      vertex 2.89115 -114.355 -2.51248
      vertex 24.8 -114.355 0
      vertex 2.67138 -114.355 0
    endloop
  endfacet
  facet normal 0 -1 0
    outer loop
      vertex 3.60379 -114.355 -5.60117
      vertex 2.89115 -114.355 -2.51248
      vertex 2.94687 -114.355 -3.14948
    endloop
  endfacet
  facet normal 0 -1 0
    outer loop
      vertex 2.89115 -114.355 -2.51248
      vertex 3.60379 -114.355 -5.60117
      vertex 24.8 -114.355 0
    endloop
  endfacet
  facet normal 0 -1 0
    outer loop
      vertex 4.84946 -114.355 -8.52705
      vertex 3.60379 -114.355 -5.60117
      vertex 3.76468 -114.355 -6.20164
    endloop
  endfacet
  facet normal 0 -1 0
    outer loop
      vertex 3.60379 -114.355 -5.60117
      vertex 4.84946 -114.355 -8.52705
      vertex 24.8 -114.355 0
    endloop
  endfacet
  facet normal 0 -1 0
    outer loop
      vertex 6.5943 -114.355 -11.1953
      vertex 4.84946 -114.355 -8.52705
      vertex 5.09913 -114.355 -9.06228
    endloop
  endfacet
  facet normal 0 -1 0
    outer loop
      vertex 4.84946 -114.355 -8.52705
      vertex 6.5943 -114.355 -11.1953
      vertex 24.8 -114.355 0
    endloop
  endfacet
  facet normal 0 -1 0
    outer loop
      vertex 8.78705 -114.355 -13.5179
      vertex 6.5943 -114.355 -11.1953
      vertex 6.90841 -114.355 -11.6434
    endloop
  endfacet
  facet normal 0 -1 0
    outer loop
      vertex 6.5943 -114.355 -11.1953
      vertex 8.78705 -114.355 -13.5179
      vertex 24.8 -114.355 0
    endloop
  endfacet
  facet normal 0 -1 0
    outer loop
      vertex 11.3603 -114.355 -15.4171
      vertex 8.78705 -114.355 -13.5179
      vertex 9.13599 -114.355 -13.8661
    endloop
  endfacet
  facet normal 0 -1 0
    outer loop
      vertex 8.78705 -114.355 -13.5179
      vertex 11.3603 -114.355 -15.4171
      vertex 24.8 -114.355 0
    endloop
  endfacet
  facet normal 0 -1 0
    outer loop
      vertex 14.2325 -114.355 -16.8287
      vertex 11.3603 -114.355 -15.4171
      vertex 11.7125 -114.355 -15.6628
    endloop
  endfacet
  facet normal 0 -1 0
    outer loop
      vertex 11.3603 -114.355 -15.4171
      vertex 14.2325 -114.355 -16.8287
      vertex 24.8 -114.355 0
    endloop
  endfacet
  facet normal 0 -1 0
    outer loop
      vertex 17.3113 -114.355 -17.7049
      vertex 14.2325 -114.355 -16.8287
      vertex 14.5582 -114.355 -16.9794
    endloop
  endfacet
  facet normal 0 -1 0
    outer loop
      vertex 14.2325 -114.355 -16.8287
      vertex 17.3113 -114.355 -17.7049
      vertex 24.8 -114.355 0
    endloop
  endfacet
  facet normal 0 -1 0
    outer loop
      vertex 20.4962 -114.355 -18.0163
      vertex 24.8 -114.355 0
      vertex 17.3113 -114.355 -17.7049
    endloop
  endfacet
  facet normal -0 -1 0
    outer loop
      vertex 23.6833 -114.355 -17.7531
      vertex 24.8 -114.355 0
      vertex 20.4962 -114.355 -18.0163
    endloop
  endfacet
  facet normal 0 -1 0
    outer loop
      vertex 24.8 -114.355 -17.4685
      vertex 23.6833 -114.355 -17.7531
      vertex 23.8104 -114.355 -17.7412
    endloop
  endfacet
  facet normal 0 -1 0
    outer loop
      vertex 20.4962 -114.355 -18.0163
      vertex 17.3113 -114.355 -17.7049
      vertex 17.5853 -114.355 -17.7771
    endloop
  endfacet
  facet normal 0 -1 -0
    outer loop
      vertex 24.8 -114.355 0
      vertex 23.6833 -114.355 -17.7531
      vertex 24.8 -114.355 -17.4685
    endloop
  endfacet
  facet normal 0 -1 0
    outer loop
      vertex 23.6833 -114.355 -17.7531
      vertex 20.4962 -114.355 -18.0163
      vertex 20.701 -114.355 -18.0331
    endloop
  endfacet
  facet normal 0.0932892 -0.0632184 -0.99363
    outer loop
      vertex 20.701 -114.355 -18.0331
      vertex 21.9985 -107.208 -18.366
      vertex 23.6833 -114.355 -17.7531
    endloop
  endfacet
  facet normal 0.0932875 -0.0632181 -0.99363
    outer loop
      vertex 21.9985 -107.208 -18.366
      vertex 20.701 -114.355 -18.0331
      vertex 20.8226 -107.208 -18.4764
    endloop
  endfacet
  facet normal 0.093033 -0.0632101 -0.993655
    outer loop
      vertex 23.6833 -114.355 -17.7531
      vertex 24.0085 -107.208 -18.1773
      vertex 23.8104 -114.355 -17.7412
    endloop
  endfacet
  facet normal 0.0932826 -0.06322 -0.993631
    outer loop
      vertex 24.0085 -107.208 -18.1773
      vertex 23.6833 -114.355 -17.7531
      vertex 21.9985 -107.208 -18.366
    endloop
  endfacet
  facet normal 0.265072 -0.0660467 -0.961964
    outer loop
      vertex 24.8 -114.355 -17.4685
      vertex 24.0085 -107.208 -18.1773
      vertex 24.8 -107.208 -17.9592
    endloop
  endfacet
  facet normal 0.265084 -0.0660451 -0.961961
    outer loop
      vertex 24.0085 -107.208 -18.1773
      vertex 24.8 -114.355 -17.4685
      vertex 23.8104 -114.355 -17.7412
    endloop
  endfacet
  facet normal -0.995197 -0.0447793 -0.0870512
    outer loop
      vertex 2.67138 -114.355 0
      vertex 2.41308 -107.208 -0.723462
      vertex 2.89115 -114.355 -2.51248
    endloop
  endfacet
  facet normal -0.995197 -0.044779 -0.0870482
    outer loop
      vertex 2.41308 -107.208 -0.723462
      vertex 2.67138 -114.355 0
      vertex 2.3498 -107.208 0
    endloop
  endfacet
  facet normal -0.995197 -0.0447794 -0.0870524
    outer loop
      vertex 2.89115 -114.355 -2.51248
      vertex 2.63206 -107.208 -3.22691
      vertex 2.94687 -114.355 -3.14948
    endloop
  endfacet
  facet normal -0.995197 -0.0447793 -0.0870512
    outer loop
      vertex 2.63206 -107.208 -3.22691
      vertex 2.89115 -114.355 -2.51248
      vertex 2.41308 -107.208 -0.723462
    endloop
  endfacet
  facet normal -0.964935 -0.0453034 -0.25855
    outer loop
      vertex 2.94687 -114.355 -3.14948
      vertex 2.82247 -107.208 -3.93751
      vertex 3.60379 -114.355 -5.60117
    endloop
  endfacet
  facet normal -0.964932 -0.0453044 -0.25856
    outer loop
      vertex 2.82247 -107.208 -3.93751
      vertex 2.94687 -114.355 -3.14948
      vertex 2.63206 -107.208 -3.22691
    endloop
  endfacet
  facet normal -0.964936 -0.0453032 -0.258545
    outer loop
      vertex 3.60379 -114.355 -5.60117
      vertex 3.46998 -107.208 -6.35409
      vertex 3.76468 -114.355 -6.20164
    endloop
  endfacet
  facet normal -0.964935 -0.0453036 -0.258549
    outer loop
      vertex 3.46998 -107.208 -6.35409
      vertex 3.60379 -114.355 -5.60117
      vertex 2.82247 -107.208 -3.93751
    endloop
  endfacet
  facet normal -0.905271 -0.046336 -0.4223
    outer loop
      vertex 3.76468 -114.355 -6.20164
      vertex 3.79043 -107.208 -7.04103
      vertex 4.84946 -114.355 -8.52705
    endloop
  endfacet
  facet normal -0.905271 -0.0463359 -0.422299
    outer loop
      vertex 3.79043 -107.208 -7.04103
      vertex 3.76468 -114.355 -6.20164
      vertex 3.46998 -107.208 -6.35409
    endloop
  endfacet
  facet normal -0.905277 -0.046335 -0.422287
    outer loop
      vertex 4.84946 -114.355 -8.52705
      vertex 4.83724 -107.208 -9.28505
      vertex 5.09913 -114.355 -9.06228
    endloop
  endfacet
  facet normal -0.905272 -0.0463362 -0.422299
    outer loop
      vertex 4.83724 -107.208 -9.28505
      vertex 4.84946 -114.355 -8.52705
      vertex 3.79043 -107.208 -7.04103
    endloop
  endfacet
  facet normal -0.817923 -0.0478424 -0.573335
    outer loop
      vertex 5.09913 -114.355 -9.06228
      vertex 5.29224 -107.208 -9.93416
      vertex 6.5943 -114.355 -11.1953
    endloop
  endfacet
  facet normal -0.817925 -0.0478421 -0.573332
    outer loop
      vertex 5.29224 -107.208 -9.93416
      vertex 5.09913 -114.355 -9.06228
      vertex 4.83724 -107.208 -9.28505
    endloop
  endfacet
  facet normal -0.817916 -0.0478414 -0.573345
    outer loop
      vertex 6.5943 -114.355 -11.1953
      vertex 6.69099 -107.208 -11.9296
      vertex 6.90841 -114.355 -11.6434
    endloop
  endfacet
  facet normal -0.81792 -0.0478409 -0.57334
    outer loop
      vertex 6.69099 -107.208 -11.9296
      vertex 6.5943 -114.355 -11.1953
      vertex 5.29224 -107.208 -9.93416
    endloop
  endfacet
  facet normal -0.705451 -0.0497804 -0.707009
    outer loop
      vertex 6.90841 -114.355 -11.6434
      vertex 7.28472 -107.208 -12.5221
      vertex 8.78705 -114.355 -13.5179
    endloop
  endfacet
  facet normal -0.705498 -0.0497722 -0.706962
    outer loop
      vertex 7.28472 -107.208 -12.5221
      vertex 6.90841 -114.355 -11.6434
      vertex 6.69099 -107.208 -11.9296
    endloop
  endfacet
  facet normal -0.70548 -0.0497779 -0.706979
    outer loop
      vertex 8.78705 -114.355 -13.5179
      vertex 8.97333 -107.208 -14.207
      vertex 9.13599 -114.355 -13.8661
    endloop
  endfacet
  facet normal -0.705453 -0.0497812 -0.707006
    outer loop
      vertex 8.97333 -107.208 -14.207
      vertex 8.78705 -114.355 -13.5179
      vertex 7.28472 -107.208 -12.5221
    endloop
  endfacet
  facet normal -0.571196 -0.0520757 -0.81916
    outer loop
      vertex 9.13599 -114.355 -13.8661
      vertex 9.70727 -107.208 -14.7188
      vertex 11.3603 -114.355 -15.4171
    endloop
  endfacet
  facet normal -0.571217 -0.0520723 -0.819146
    outer loop
      vertex 9.70727 -107.208 -14.7188
      vertex 9.13599 -114.355 -13.8661
      vertex 8.97333 -107.208 -14.207
    endloop
  endfacet
  facet normal -0.571373 -0.0520592 -0.819038
    outer loop
      vertex 11.3603 -114.355 -15.4171
      vertex 11.6132 -107.208 -16.0478
      vertex 11.7125 -114.355 -15.6628
    endloop
  endfacet
  facet normal -0.571197 -0.0520761 -0.819159
    outer loop
      vertex 11.6132 -107.208 -16.0478
      vertex 11.3603 -114.355 -15.4171
      vertex 9.70727 -107.208 -14.7188
    endloop
  endfacet
  facet normal -0.419269 -0.0546423 -0.906216
    outer loop
      vertex 11.7125 -114.355 -15.6628
      vertex 12.4836 -107.208 -16.4505
      vertex 14.2325 -114.355 -16.8287
    endloop
  endfacet
  facet normal -0.41927 -0.054642 -0.906216
    outer loop
      vertex 12.4836 -107.208 -16.4505
      vertex 11.7125 -114.355 -15.6628
      vertex 11.6132 -107.208 -16.0478
    endloop
  endfacet
  facet normal -0.419296 -0.054649 -0.906203
    outer loop
      vertex 14.2325 -114.355 -16.8287
      vertex 14.5288 -107.208 -17.3968
      vertex 14.5582 -114.355 -16.9794
    endloop
  endfacet
  facet normal -0.419294 -0.0546492 -0.906204
    outer loop
      vertex 14.5288 -107.208 -17.3968
      vertex 14.2325 -114.355 -16.8287
      vertex 12.4836 -107.208 -16.4505
    endloop
  endfacet
  facet normal -0.254401 -0.0574255 -0.965392
    outer loop
      vertex 14.5582 -114.355 -16.9794
      vertex 15.5246 -107.208 -17.6592
      vertex 17.3113 -114.355 -17.7049
    endloop
  endfacet
  facet normal -0.254388 -0.0574276 -0.965396
    outer loop
      vertex 15.5246 -107.208 -17.6592
      vertex 14.5582 -114.355 -16.9794
      vertex 14.5288 -107.208 -17.3968
    endloop
  endfacet
  facet normal -0.254385 -0.057427 -0.965396
    outer loop
      vertex 17.3113 -114.355 -17.7049
      vertex 17.6303 -107.208 -18.2141
      vertex 17.5853 -114.355 -17.7771
    endloop
  endfacet
  facet normal -0.254403 -0.0574259 -0.965392
    outer loop
      vertex 17.6303 -107.208 -18.2141
      vertex 17.3113 -114.355 -17.7049
      vertex 15.5246 -107.208 -17.6592
    endloop
  endfacet
  facet normal -0.0817487 -0.0603194 -0.994826
    outer loop
      vertex 17.5853 -114.355 -17.7771
      vertex 18.7311 -107.208 -18.3046
      vertex 20.4962 -114.355 -18.0163
    endloop
  endfacet
  facet normal -0.0817873 -0.060313 -0.994823
    outer loop
      vertex 18.7311 -107.208 -18.3046
      vertex 17.5853 -114.355 -17.7771
      vertex 17.6303 -107.208 -18.2141
    endloop
  endfacet
  facet normal -0.0816078 -0.0603173 -0.994838
    outer loop
      vertex 20.4962 -114.355 -18.0163
      vertex 20.8226 -107.208 -18.4764
      vertex 20.701 -114.355 -18.0331
    endloop
  endfacet
  facet normal -0.0817172 -0.0603118 -0.994829
    outer loop
      vertex 20.8226 -107.208 -18.4764
      vertex 20.4962 -114.355 -18.0163
      vertex 18.7311 -107.208 -18.3046
    endloop
  endfacet
endsolid OpenSCAD_Model
