solid OpenSCAD_Model
  facet normal 0 0 -1
    outer loop
      vertex 3.02887 -9.21114 -3.67
      vertex 5.31734 -8.24404 -3.67
      vertex 5.86398 -9.45016 -3.67
    endloop
  endfacet
  facet normal -0 0 -1
    outer loop
      vertex 5.31734 -8.24404 -3.67
      vertex 3.02887 -9.21114 -3.67
      vertex 4.85857 -7.81293 -3.67
    endloop
  endfacet
  facet normal -0 0 -1
    outer loop
      vertex 4.85857 -7.81293 -3.67
      vertex 3.45297 -7.94215 -3.67
      vertex 4.4078 -7.31213 -3.67
    endloop
  endfacet
  facet normal 0 0 -1
    outer loop
      vertex 3.13277 -10.89 -3.67
      vertex 5.86398 -9.45016 -3.67
      vertex 6.89339 -10.89 -3.67
    endloop
  endfacet
  facet normal -0 0 -1
    outer loop
      vertex 5.86398 -9.45016 -3.67
      vertex 3.13277 -10.89 -3.67
      vertex 3.02887 -9.21114 -3.67
    endloop
  endfacet
  facet normal 0 0 -1
    outer loop
      vertex 4.85857 -7.81293 -3.67
      vertex 3.02887 -9.21114 -3.67
      vertex 3.45297 -7.94215 -3.67
    endloop
  endfacet
  facet normal 0 0 -1
    outer loop
      vertex 3.01325 -8.71019 -3.67
      vertex 3.45297 -7.94215 -3.67
      vertex 3.02887 -9.21114 -3.67
    endloop
  endfacet
  facet normal 0 0 -1
    outer loop
      vertex 3.45297 -7.94215 -3.67
      vertex 3.01325 -8.71019 -3.67
      vertex 3.1009 -8.14105 -3.67
    endloop
  endfacet
  facet normal 0 1 0
    outer loop
      vertex 5.98044 -7.26 3.3948
      vertex 4.62681 -7.26 3.66104
      vertex 5.41881 -7.26 3.66539
    endloop
  endfacet
  facet normal 0 1 0
    outer loop
      vertex 6.29677 -7.26 -3.08881
      vertex 4.62681 -7.26 3.66104
      vertex 5.98044 -7.26 3.3948
    endloop
  endfacet
  facet normal 0 1 0
    outer loop
      vertex 4.62681 -7.26 3.66104
      vertex 3.25963 -7.26 3.40874
      vertex 3.86234 -7.26 3.65571
    endloop
  endfacet
  facet normal 0 1 0
    outer loop
      vertex 4.62681 -7.26 3.66104
      vertex 6.29677 -7.26 -3.08881
      vertex 3.25963 -7.26 3.40874
    endloop
  endfacet
  facet normal 0 1 0
    outer loop
      vertex 7.15307 -7.26 2.6482
      vertex 5.98044 -7.26 3.3948
      vertex 6.84508 -7.26 3.01294
    endloop
  endfacet
  facet normal 0 1 -0
    outer loop
      vertex 6.29677 -7.26 -3.08881
      vertex 5.98044 -7.26 3.3948
      vertex 7.15307 -7.26 2.6482
    endloop
  endfacet
  facet normal 0 1 0
    outer loop
      vertex 3.25963 -7.26 3.40874
      vertex 1.62994 -7.26 2.26663
      vertex 2.42839 -7.26 3.04723
    endloop
  endfacet
  facet normal 0 1 -0
    outer loop
      vertex 4.99356 -7.26 -3.51901
      vertex 3.25963 -7.26 3.40874
      vertex 6.29677 -7.26 -3.08881
    endloop
  endfacet
  facet normal 0 1 0
    outer loop
      vertex 8.00004 -7.26 1.51871
      vertex 7.15307 -7.26 2.6482
      vertex 7.90142 -7.26 1.84209
    endloop
  endfacet
  facet normal 0 1 0
    outer loop
      vertex 6.29677 -7.26 -3.08881
      vertex 7.15307 -7.26 2.6482
      vertex 8.00004 -7.26 1.51871
    endloop
  endfacet
  facet normal 0 1 0
    outer loop
      vertex 3.25963 -7.26 3.40874
      vertex 4.99356 -7.26 -3.51901
      vertex 1.62994 -7.26 2.26663
    endloop
  endfacet
  facet normal 0 1 0
    outer loop
      vertex 1.62994 -7.26 2.26663
      vertex 3.67111 -7.26 -3.60375
      vertex 1.3117 -7.26 1.96549
    endloop
  endfacet
  facet normal 0 1 -0
    outer loop
      vertex 8.39315 -7.26 0.140204
      vertex 8.00004 -7.26 1.51871
      vertex 8.43012 -7.26 0.371611
    endloop
  endfacet
  facet normal 0 1 -0
    outer loop
      vertex 8.07209 -7.26 -1.34668
      vertex 8.00004 -7.26 1.51871
      vertex 8.39315 -7.26 0.140204
    endloop
  endfacet
  facet normal 0 1 0
    outer loop
      vertex 1.3117 -7.26 1.96549
      vertex 3.67111 -7.26 -3.60375
      vertex 0.701097 -7.26 1.00232
    endloop
  endfacet
  facet normal -0 1 -0
    outer loop
      vertex 2.40941 -7.26 -3.36573
      vertex 0.701097 -7.26 1.00232
      vertex 3.67111 -7.26 -3.60375
    endloop
  endfacet
  facet normal 0 1 0
    outer loop
      vertex 8.07209 -7.26 -1.34668
      vertex 8.39315 -7.26 0.140204
      vertex 8.20505 -7.26 -1.1581
    endloop
  endfacet
  facet normal 0 1 0
    outer loop
      vertex 8.00004 -7.26 1.51871
      vertex 8.07209 -7.26 -1.34668
      vertex 6.29677 -7.26 -3.08881
    endloop
  endfacet
  facet normal 0 1 0
    outer loop
      vertex 0.701097 -7.26 1.00232
      vertex 0.351589 -7.26 -0.392531
      vertex 0.516494 -7.26 0.694943
    endloop
  endfacet
  facet normal 0 1 0
    outer loop
      vertex 0.701097 -7.26 1.00232
      vertex 2.40941 -7.26 -3.36573
      vertex 0.351589 -7.26 -0.392531
    endloop
  endfacet
  facet normal 0 1 0
    outer loop
      vertex 6.29677 -7.26 -3.08881
      vertex 8.07209 -7.26 -1.34668
      vertex 7.29627 -7.26 -2.45436
    endloop
  endfacet
  facet normal 0 1 -0
    outer loop
      vertex 3.67111 -7.26 -3.60375
      vertex 1.62994 -7.26 2.26663
      vertex 4.99356 -7.26 -3.51901
    endloop
  endfacet
  facet normal -0 1 -0
    outer loop
      vertex 0.547325 -7.26 -1.69635
      vertex 0.351589 -7.26 -0.392531
      vertex 2.40941 -7.26 -3.36573
    endloop
  endfacet
  facet normal 0 1 0
    outer loop
      vertex 0.351589 -7.26 -0.392531
      vertex 0.547325 -7.26 -1.69635
      vertex 0.279904 -7.26 -0.719245
    endloop
  endfacet
  facet normal 0 1 0
    outer loop
      vertex 4.99356 -7.26 -3.51901
      vertex 6.29677 -7.26 -3.08881
      vertex 5.93559 -7.26 -3.32238
    endloop
  endfacet
  facet normal -0 1 -0
    outer loop
      vertex 1.28058 -7.26 -2.75834
      vertex 0.547325 -7.26 -1.69635
      vertex 2.40941 -7.26 -3.36573
    endloop
  endfacet
  facet normal 0 1 0
    outer loop
      vertex 1.28058 -7.26 -2.75834
      vertex 2.40941 -7.26 -3.36573
      vertex 1.60844 -7.26 -3.05761
    endloop
  endfacet
  facet normal 0 1 0
    outer loop
      vertex 0.547325 -7.26 -1.69635
      vertex 1.28058 -7.26 -2.75834
      vertex 0.657049 -7.26 -2.04796
    endloop
  endfacet
  facet normal 0 1 0
    outer loop
      vertex 2.40941 -7.26 -3.36573
      vertex 3.67111 -7.26 -3.60375
      vertex 2.9197 -7.26 -3.55343
    endloop
  endfacet
  facet normal -0 1 0
    outer loop
      vertex 3.67111 -7.26 -3.60375
      vertex 4.99356 -7.26 -3.51901
      vertex 4.39285 -7.26 -3.66237
    endloop
  endfacet
  facet normal 0 -1 0
    outer loop
      vertex 3.10245 -10.89 3.12015
      vertex 4.69533 -10.89 3.61342
      vertex 4.32822 -10.89 3.61264
    endloop
  endfacet
  facet normal 0 -1 0
    outer loop
      vertex 4.69533 -10.89 3.61342
      vertex 6.33641 -10.89 3.48303
      vertex 6.07485 -10.89 3.60402
    endloop
  endfacet
  facet normal 0 -1 0
    outer loop
      vertex 6.89339 -10.89 -3.67
      vertex 4.69533 -10.89 3.61342
      vertex 3.10245 -10.89 3.12015
    endloop
  endfacet
  facet normal 0 -1 0
    outer loop
      vertex 1.80487 -10.89 2.14302
      vertex 3.10245 -10.89 3.12015
      vertex 2.71625 -10.89 2.96151
    endloop
  endfacet
  facet normal 0 -1 0
    outer loop
      vertex 4.69533 -10.89 3.61342
      vertex 6.89339 -10.89 -3.67
      vertex 6.33641 -10.89 3.48303
    endloop
  endfacet
  facet normal 0 -1 0
    outer loop
      vertex 6.33641 -10.89 3.48303
      vertex 7.77038 -10.89 2.76854
      vertex 7.64742 -10.89 2.90852
    endloop
  endfacet
  facet normal 0 -1 -0
    outer loop
      vertex 3.10245 -10.89 3.12015
      vertex 1.80487 -10.89 2.14302
      vertex 3.13277 -10.89 -3.67
    endloop
  endfacet
  facet normal 0 -1 0
    outer loop
      vertex 1.27713 -10.89 1.48994
      vertex 1.80487 -10.89 2.14302
      vertex 1.49066 -10.89 1.84545
    endloop
  endfacet
  facet normal -0 -1 0
    outer loop
      vertex 7.0429 -10.89 -3.59461
      vertex 6.33641 -10.89 3.48303
      vertex 6.89339 -10.89 -3.67
    endloop
  endfacet
  facet normal 0 -1 0
    outer loop
      vertex 7.77038 -10.89 2.76854
      vertex 8.82386 -10.89 1.5814
      vertex 8.79467 -10.89 1.66639
    endloop
  endfacet
  facet normal 0 -1 -0
    outer loop
      vertex 1.80487 -10.89 2.14302
      vertex 1.27713 -10.89 1.48994
      vertex 3.13277 -10.89 -3.67
    endloop
  endfacet
  facet normal 0 -1 0
    outer loop
      vertex 0.605727 -10.89 0.118822
      vertex 1.27713 -10.89 1.48994
      vertex 0.690639 -10.89 0.50613
    endloop
  endfacet
  facet normal 0 -1 0
    outer loop
      vertex 3.10245 -10.89 3.12015
      vertex 3.13277 -10.89 -3.67
      vertex 6.89339 -10.89 -3.67
    endloop
  endfacet
  facet normal 0 -1 0
    outer loop
      vertex 2.43301 -10.89 -3.43599
      vertex 1.27713 -10.89 1.48994
      vertex 0.605727 -10.89 0.118822
    endloop
  endfacet
  facet normal 0 -1 0
    outer loop
      vertex 8.82386 -10.89 1.5814
      vertex 9.36276 -10.89 0.102934
      vertex 9.36626 -10.89 0.125912
    endloop
  endfacet
  facet normal 0 -1 0
    outer loop
      vertex 0.550388 -10.89 -1.33184
      vertex 0.605727 -10.89 0.118822
      vertex 0.432653 -10.89 -0.955301
    endloop
  endfacet
  facet normal 0 -1 0
    outer loop
      vertex 6.33641 -10.89 3.48303
      vertex 7.0429 -10.89 -3.59461
      vertex 7.77038 -10.89 2.76854
    endloop
  endfacet
  facet normal 0 -1 0
    outer loop
      vertex 2.43301 -10.89 -3.43599
      vertex 0.605727 -10.89 0.118822
      vertex 0.550388 -10.89 -1.33184
    endloop
  endfacet
  facet normal -0 -1 0
    outer loop
      vertex 9.20993 -10.89 -1.24873
      vertex 8.82386 -10.89 1.5814
      vertex 7.0429 -10.89 -3.59461
    endloop
  endfacet
  facet normal 0 -1 0
    outer loop
      vertex 9.20993 -10.89 -1.24873
      vertex 9.07574 -10.89 -1.63572
      vertex 9.18403 -10.89 -1.46445
    endloop
  endfacet
  facet normal 0 -1 0
    outer loop
      vertex 1.19514 -10.89 -2.6051
      vertex 0.550388 -10.89 -1.33184
      vertex 0.903825 -10.89 -2.33945
    endloop
  endfacet
  facet normal 0 -1 0
    outer loop
      vertex 2.43301 -10.89 -3.43599
      vertex 0.550388 -10.89 -1.33184
      vertex 1.19514 -10.89 -2.6051
    endloop
  endfacet
  facet normal 0 -1 0
    outer loop
      vertex 8.82386 -10.89 1.5814
      vertex 9.20993 -10.89 -1.24873
      vertex 9.36276 -10.89 0.102934
    endloop
  endfacet
  facet normal 0 -1 0
    outer loop
      vertex 9.20993 -10.89 -1.24873
      vertex 7.0429 -10.89 -3.59461
      vertex 9.07574 -10.89 -1.63572
    endloop
  endfacet
  facet normal 0 -1 0
    outer loop
      vertex 2.43301 -10.89 -3.43599
      vertex 1.19514 -10.89 -2.6051
      vertex 2.08642 -10.89 -3.31087
    endloop
  endfacet
  facet normal 0 -1 0
    outer loop
      vertex 1.27713 -10.89 1.48994
      vertex 2.43301 -10.89 -3.43599
      vertex 3.13277 -10.89 -3.67
    endloop
  endfacet
  facet normal 0 -1 0
    outer loop
      vertex 9.07574 -10.89 -1.63572
      vertex 7.0429 -10.89 -3.59461
      vertex 8.33794 -10.89 -2.78319
    endloop
  endfacet
  facet normal 0 -1 0
    outer loop
      vertex 8.33794 -10.89 -2.78319
      vertex 7.0429 -10.89 -3.59461
      vertex 8.32351 -10.89 -2.80423
    endloop
  endfacet
  facet normal 0 -1 -0
    outer loop
      vertex 7.77038 -10.89 2.76854
      vertex 7.0429 -10.89 -3.59461
      vertex 8.82386 -10.89 1.5814
    endloop
  endfacet
  facet normal 0 -1 0
    outer loop
      vertex 7.0429 -10.89 -3.59461
      vertex 6.89339 -10.89 -3.67
      vertex 6.94177 -10.89 -3.66168
    endloop
  endfacet
  facet normal -0.685552 -0.0717272 0.724482
    outer loop
      vertex 1.62994 -7.26 2.26663
      vertex 1.41958 -8.9347 1.90177
      vertex 2.60478 -8.90838 3.02589
    endloop
  endfacet
  facet normal -0.685553 -0.0717271 0.724481
    outer loop
      vertex 1.41958 -8.9347 1.90177
      vertex 1.62994 -7.26 2.26663
      vertex 1.3117 -7.26 1.96549
    endloop
  endfacet
  facet normal -0.696612 -0.0837677 0.712541
    outer loop
      vertex 2.60478 -8.90838 3.02589
      vertex 2.42839 -7.26 3.04723
      vertex 1.62994 -7.26 2.26663
    endloop
  endfacet
  facet normal -0.842232 -0.0745699 0.533934
    outer loop
      vertex 1.41958 -8.9347 1.90177
      vertex 1.3117 -7.26 1.96549
      vertex 0.701097 -7.26 1.00232
    endloop
  endfacet
  facet normal -0.853727 -0.0908909 0.512727
    outer loop
      vertex 0.620708 -8.93283 0.571925
      vertex 0.701097 -7.26 1.00232
      vertex 0.516494 -7.26 0.694943
    endloop
  endfacet
  facet normal -0.853727 -0.090891 0.512728
    outer loop
      vertex 0.701097 -7.26 1.00232
      vertex 0.620708 -8.93283 0.571925
      vertex 1.41958 -8.9347 1.90177
    endloop
  endfacet
  facet normal -0.857967 -0.0478501 0.511471
    outer loop
      vertex 0.690639 -10.89 0.50613
      vertex 1.27713 -10.89 1.48994
      vertex 0.620708 -8.93283 0.571925
    endloop
  endfacet
  facet normal -0.856341 -0.0459488 0.514362
    outer loop
      vertex 1.27713 -10.89 1.48994
      vertex 1.41958 -8.9347 1.90177
      vertex 0.620708 -8.93283 0.571925
    endloop
  endfacet
  facet normal -0.856349 -0.0459456 0.514349
    outer loop
      vertex 1.41958 -8.9347 1.90177
      vertex 1.27713 -10.89 1.48994
      vertex 1.49066 -10.89 1.84545
    endloop
  endfacet
  facet normal -0.9861 -0.0724286 0.149533
    outer loop
      vertex 0.620708 -8.93283 0.571925
      vertex 0.516494 -7.26 0.694943
      vertex 0.351589 -7.26 -0.392531
    endloop
  endfacet
  facet normal -0.976215 -0.0335583 0.214193
    outer loop
      vertex 0.305202 -8.90391 -0.861502
      vertex 0.351589 -7.26 -0.392531
      vertex 0.279904 -7.26 -0.719245
    endloop
  endfacet
  facet normal -0.976215 -0.0335584 0.214194
    outer loop
      vertex 0.351589 -7.26 -0.392531
      vertex 0.305202 -8.90391 -0.861502
      vertex 0.620708 -8.93283 0.571925
    endloop
  endfacet
  facet normal -0.975936 -0.0420637 0.213961
    outer loop
      vertex 0.605727 -10.89 0.118822
      vertex 0.620708 -8.93283 0.571925
      vertex 0.305202 -8.90391 -0.861502
    endloop
  endfacet
  facet normal -0.975936 -0.0420637 0.213961
    outer loop
      vertex 0.620708 -8.93283 0.571925
      vertex 0.605727 -10.89 0.118822
      vertex 0.690639 -10.89 0.50613
    endloop
  endfacet
  facet normal -0.984796 -0.0706903 0.158681
    outer loop
      vertex 0.432653 -10.89 -0.955301
      vertex 0.605727 -10.89 0.118822
      vertex 0.305202 -8.90391 -0.861502
    endloop
  endfacet
  facet normal -0.953373 -0.047101 -0.298098
    outer loop
      vertex 0.550388 -10.89 -1.33184
      vertex 0.305202 -8.90391 -0.861502
      vertex 0.73682 -8.88193 -2.24537
    endloop
  endfacet
  facet normal -0.953373 -0.0471011 -0.298097
    outer loop
      vertex 0.305202 -8.90391 -0.861502
      vertex 0.550388 -10.89 -1.33184
      vertex 0.432653 -10.89 -0.955301
    endloop
  endfacet
  facet normal -0.941767 -0.062847 -0.330341
    outer loop
      vertex 0.73682 -8.88193 -2.24537
      vertex 0.903825 -10.89 -2.33945
      vertex 0.550388 -10.89 -1.33184
    endloop
  endfacet
  facet normal -0.372237 -0.0556185 0.92647
    outer loop
      vertex 4.32822 -10.89 3.61264
      vertex 4.1333 -8.79556 3.66006
      vertex 3.10245 -10.89 3.12015
    endloop
  endfacet
  facet normal -0.379475 -0.0513613 0.923775
    outer loop
      vertex 2.60478 -8.90838 3.02589
      vertex 3.10245 -10.89 3.12015
      vertex 4.1333 -8.79556 3.66006
    endloop
  endfacet
  facet normal -0.379463 -0.0513578 0.92378
    outer loop
      vertex 3.10245 -10.89 3.12015
      vertex 2.60478 -8.90838 3.02589
      vertex 2.71625 -10.89 2.96151
    endloop
  endfacet
  facet normal -0.666904 -0.0616403 0.74259
    outer loop
      vertex 2.71625 -10.89 2.96151
      vertex 2.60478 -8.90838 3.02589
      vertex 1.80487 -10.89 2.14302
    endloop
  endfacet
  facet normal -0.686903 -0.0458641 0.7253
    outer loop
      vertex 1.41958 -8.9347 1.90177
      vertex 1.80487 -10.89 2.14302
      vertex 2.60478 -8.90838 3.02589
    endloop
  endfacet
  facet normal -0.686896 -0.045862 0.725307
    outer loop
      vertex 1.80487 -10.89 2.14302
      vertex 1.41958 -8.9347 1.90177
      vertex 1.49066 -10.89 1.84545
    endloop
  endfacet
  facet normal -0.00212667 -0.0228333 0.999737
    outer loop
      vertex 4.1333 -8.79556 3.66006
      vertex 4.69533 -10.89 3.61342
      vertex 5.74534 -8.56916 3.66866
    endloop
  endfacet
  facet normal -0.00212415 -0.0228326 0.999737
    outer loop
      vertex 4.69533 -10.89 3.61342
      vertex 4.1333 -8.79556 3.66006
      vertex 4.32822 -10.89 3.61264
    endloop
  endfacet
  facet normal 0.00681135 -0.0268742 0.999616
    outer loop
      vertex 6.07485 -10.89 3.60402
      vertex 5.74534 -8.56916 3.66866
      vertex 4.69533 -10.89 3.61342
    endloop
  endfacet
  facet normal -0.00549234 0.00112785 0.999984
    outer loop
      vertex 4.62681 -7.26 3.66104
      vertex 5.74534 -8.56916 3.66866
      vertex 5.41881 -7.26 3.66539
    endloop
  endfacet
  facet normal -0.00549308 0.00112721 0.999984
    outer loop
      vertex 5.74534 -8.56916 3.66866
      vertex 4.62681 -7.26 3.66104
      vertex 4.1333 -8.79556 3.66006
    endloop
  endfacet
  facet normal -0.00697197 0.00160252 0.999974
    outer loop
      vertex 4.1333 -8.79556 3.66006
      vertex 4.62681 -7.26 3.66104
      vertex 3.86234 -7.26 3.65571
    endloop
  endfacet
  facet normal -0.378387 -0.064153 0.923422
    outer loop
      vertex 3.25963 -7.26 3.40874
      vertex 4.1333 -8.79556 3.66006
      vertex 3.86234 -7.26 3.65571
    endloop
  endfacet
  facet normal -0.378385 -0.064152 0.923423
    outer loop
      vertex 4.1333 -8.79556 3.66006
      vertex 3.25963 -7.26 3.40874
      vertex 2.60478 -8.90838 3.02589
    endloop
  endfacet
  facet normal -0.398228 -0.0544679 0.915668
    outer loop
      vertex 2.60478 -8.90838 3.02589
      vertex 3.25963 -7.26 3.40874
      vertex 2.42839 -7.26 3.04723
    endloop
  endfacet
  facet normal 0.431418 0.109841 0.89544
    outer loop
      vertex 5.74534 -8.56916 3.66866
      vertex 5.98044 -7.26 3.3948
      vertex 5.41881 -7.26 3.66539
    endloop
  endfacet
  facet normal 0.401174 0.11797 0.908373
    outer loop
      vertex 5.98044 -7.26 3.3948
      vertex 7.15537 -8.24843 3.00427
      vertex 6.84508 -7.26 3.01294
    endloop
  endfacet
  facet normal 0.401179 0.117976 0.908371
    outer loop
      vertex 7.15537 -8.24843 3.00427
      vertex 5.98044 -7.26 3.3948
      vertex 5.74534 -8.56916 3.66866
    endloop
  endfacet
  facet normal -0.344733 0.0530904 -0.937198
    outer loop
      vertex 1.82588 -8.82944 -3.24
      vertex 3.1009 -8.14105 -3.67
      vertex 3.01325 -8.71019 -3.67
    endloop
  endfacet
  facet normal -0.34473 0.0531005 -0.937199
    outer loop
      vertex 3.1009 -8.14105 -3.67
      vertex 2.40941 -7.26 -3.36573
      vertex 2.9197 -7.26 -3.55343
    endloop
  endfacet
  facet normal -0.344736 0.0530953 -0.937197
    outer loop
      vertex 3.1009 -8.14105 -3.67
      vertex 1.82588 -8.82944 -3.24
      vertex 2.40941 -7.26 -3.36573
    endloop
  endfacet
  facet normal -0.358417 0.0586209 -0.931719
    outer loop
      vertex 2.40941 -7.26 -3.36573
      vertex 1.82588 -8.82944 -3.24
      vertex 1.60844 -7.26 -3.05761
    endloop
  endfacet
  facet normal -0.0663539 0.117452 -0.990859
    outer loop
      vertex 2.9197 -7.26 -3.55343
      vertex 3.45297 -7.94215 -3.67
      vertex 3.1009 -8.14105 -3.67
    endloop
  endfacet
  facet normal -0.0663553 0.117451 -0.990859
    outer loop
      vertex 3.45297 -7.94215 -3.67
      vertex 2.9197 -7.26 -3.55343
      vertex 3.67111 -7.26 -3.60375
    endloop
  endfacet
  facet normal -0.0803515 0.121756 -0.989302
    outer loop
      vertex 4.4078 -7.31213 -3.67
      vertex 3.67111 -7.26 -3.60375
      vertex 4.39285 -7.26 -3.66237
    endloop
  endfacet
  facet normal -0.08035 0.121775 -0.9893
    outer loop
      vertex 3.67111 -7.26 -3.60375
      vertex 4.4078 -7.31213 -3.67
      vertex 3.45297 -7.94215 -3.67
    endloop
  endfacet
  facet normal 0.227225 0.204525 -0.952123
    outer loop
      vertex 4.4078 -7.31213 -3.67
      vertex 4.99356 -7.26 -3.51901
      vertex 4.85857 -7.81293 -3.67
    endloop
  endfacet
  facet normal 0.227225 0.204522 -0.952124
    outer loop
      vertex 4.99356 -7.26 -3.51901
      vertex 4.4078 -7.31213 -3.67
      vertex 4.39285 -7.26 -3.66237
    endloop
  endfacet
  facet normal 0.199668 0.212463 -0.956552
    outer loop
      vertex 5.31734 -8.24404 -3.67
      vertex 5.93559 -7.26 -3.32238
      vertex 6.2043 -8.02605 -3.43644
    endloop
  endfacet
  facet normal 0.199661 0.212467 -0.956553
    outer loop
      vertex 5.31734 -8.24404 -3.67
      vertex 4.99356 -7.26 -3.51901
      vertex 5.93559 -7.26 -3.32238
    endloop
  endfacet
  facet normal 0.199656 0.212466 -0.956554
    outer loop
      vertex 4.99356 -7.26 -3.51901
      vertex 5.31734 -8.24404 -3.67
      vertex 4.85857 -7.81293 -3.67
    endloop
  endfacet
  facet normal 0.229303 0.103925 -0.967791
    outer loop
      vertex 6.2043 -8.02605 -3.43644
      vertex 5.86398 -9.45016 -3.67
      vertex 5.31734 -8.24404 -3.67
    endloop
  endfacet
  facet normal 0.168253 0.120292 -0.978377
    outer loop
      vertex 5.86398 -9.45016 -3.67
      vertex 6.94177 -10.89 -3.66168
      vertex 6.89339 -10.89 -3.67
    endloop
  endfacet
  facet normal 0.168213 0.120262 -0.978387
    outer loop
      vertex 6.94177 -10.89 -3.66168
      vertex 5.86398 -9.45016 -3.67
      vertex 6.2043 -8.02605 -3.43644
    endloop
  endfacet
  facet normal 0.541135 0.203514 -0.815938
    outer loop
      vertex 6.2043 -8.02605 -3.43644
      vertex 7.0429 -10.89 -3.59461
      vertex 6.94177 -10.89 -3.66168
    endloop
  endfacet
  facet normal 0.541113 0.203508 -0.815954
    outer loop
      vertex 7.0429 -10.89 -3.59461
      vertex 6.2043 -8.02605 -3.43644
      vertex 7.48522 -7.74123 -2.51594
    endloop
  endfacet
  facet normal 0.513187 0.212753 -0.83149
    outer loop
      vertex 7.48522 -7.74123 -2.51594
      vertex 8.32351 -10.89 -2.80423
      vertex 7.0429 -10.89 -3.59461
    endloop
  endfacet
  facet normal 0.843641 0.0611414 -0.533415
    outer loop
      vertex 9.18349 -10.8822 -1.46441
      vertex 9.18403 -10.89 -1.46445
      vertex 9.07574 -10.89 -1.63572
    endloop
  endfacet
  facet normal 0.726845 0.12409 0.675498
    outer loop
      vertex 8.79467 -10.89 1.66639
      vertex 8.14458 -7.92408 1.82105
      vertex 7.77038 -10.89 2.76854
    endloop
  endfacet
  facet normal 0.746299 0.115252 0.655557
    outer loop
      vertex 7.77038 -10.89 2.76854
      vertex 7.15537 -8.24843 3.00427
      vertex 7.64742 -10.89 2.90852
    endloop
  endfacet
  facet normal 0.746315 0.115258 0.655538
    outer loop
      vertex 7.15537 -8.24843 3.00427
      vertex 7.77038 -10.89 2.76854
      vertex 8.14458 -7.92408 1.82105
    endloop
  endfacet
  facet normal 0.401026 0.0415289 0.915125
    outer loop
      vertex 7.64742 -10.89 2.90852
      vertex 7.15537 -8.24843 3.00427
      vertex 6.33641 -10.89 3.48303
    endloop
  endfacet
  facet normal 0.419593 0.0343112 0.907063
    outer loop
      vertex 5.74534 -8.56916 3.66866
      vertex 6.33641 -10.89 3.48303
      vertex 7.15537 -8.24843 3.00427
    endloop
  endfacet
  facet normal 0.419583 0.0343083 0.907068
    outer loop
      vertex 6.33641 -10.89 3.48303
      vertex 5.74534 -8.56916 3.66866
      vertex 6.07485 -10.89 3.60402
    endloop
  endfacet
  facet normal 0.929089 0.187004 0.319098
    outer loop
      vertex 8.82386 -10.89 1.5814
      vertex 8.14458 -7.92408 1.82105
      vertex 8.79467 -10.89 1.66639
    endloop
  endfacet
  facet normal 0.92909 0.187005 0.319093
    outer loop
      vertex 8.14458 -7.92408 1.82105
      vertex 8.82386 -10.89 1.5814
      vertex 8.60091 -7.67605 0.347016
    endloop
  endfacet
  facet normal 0.919007 0.195286 0.342476
    outer loop
      vertex 8.82386 -10.89 1.5814
      vertex 9.36626 -10.89 0.125912
      vertex 8.60091 -7.67605 0.347016
    endloop
  endfacet
  facet normal 0.879981 0.341731 0.32993
    outer loop
      vertex 8.00004 -7.26 1.51871
      vertex 8.60091 -7.67605 0.347016
      vertex 8.43012 -7.26 0.371611
    endloop
  endfacet
  facet normal 0.879979 0.341739 0.329926
    outer loop
      vertex 8.60091 -7.67605 0.347016
      vertex 8.00004 -7.26 1.51871
      vertex 8.14458 -7.92408 1.82105
    endloop
  endfacet
  facet normal 0.905322 0.322746 0.276093
    outer loop
      vertex 8.14458 -7.92408 1.82105
      vertex 8.00004 -7.26 1.51871
      vertex 7.90142 -7.26 1.84209
    endloop
  endfacet
  facet normal 0.711527 0.239605 0.660544
    outer loop
      vertex 7.15307 -7.26 2.6482
      vertex 8.14458 -7.92408 1.82105
      vertex 7.90142 -7.26 1.84209
    endloop
  endfacet
  facet normal 0.711528 0.239608 0.660543
    outer loop
      vertex 8.14458 -7.92408 1.82105
      vertex 7.15307 -7.26 2.6482
      vertex 7.15537 -8.24843 3.00427
    endloop
  endfacet
  facet normal 0.743915 0.228021 0.628169
    outer loop
      vertex 7.15537 -8.24843 3.00427
      vertex 7.15307 -7.26 2.6482
      vertex 6.84508 -7.26 3.01294
    endloop
  endfacet
  facet normal 0.912157 0.383058 -0.145728
    outer loop
      vertex 8.43012 -7.26 0.371611
      vertex 8.60091 -7.67605 0.347016
      vertex 8.39315 -7.26 0.140204
    endloop
  endfacet
  facet normal 0.911503 0.389517 -0.13206
    outer loop
      vertex 8.39315 -7.26 0.140204
      vertex 8.35076 -7.61225 -1.19136
      vertex 8.20505 -7.26 -1.1581
    endloop
  endfacet
  facet normal 0.911499 0.389524 -0.132061
    outer loop
      vertex 8.35076 -7.61225 -1.19136
      vertex 8.39315 -7.26 0.140204
      vertex 8.60091 -7.67605 0.347016
    endloop
  endfacet
  facet normal 0.51064 0.30344 -0.80447
    outer loop
      vertex 6.2043 -8.02605 -3.43644
      vertex 7.29627 -7.26 -2.45436
      vertex 7.48522 -7.74123 -2.51594
    endloop
  endfacet
  facet normal 0.510651 0.303424 -0.804469
    outer loop
      vertex 7.29627 -7.26 -2.45436
      vertex 6.2043 -8.02605 -3.43644
      vertex 6.29677 -7.26 -3.08881
    endloop
  endfacet
  facet normal 0.517866 0.300888 -0.8008
    outer loop
      vertex 6.29677 -7.26 -3.08881
      vertex 6.2043 -8.02605 -3.43644
      vertex 5.93559 -7.26 -3.32238
    endloop
  endfacet
  facet normal 0.760786 0.365351 -0.536399
    outer loop
      vertex 8.20505 -7.26 -1.1581
      vertex 8.35076 -7.61225 -1.19136
      vertex 8.07209 -7.26 -1.34668
    endloop
  endfacet
  facet normal 0.761793 0.367397 -0.533565
    outer loop
      vertex 7.48522 -7.74123 -2.51594
      vertex 8.07209 -7.26 -1.34668
      vertex 8.35076 -7.61225 -1.19136
    endloop
  endfacet
  facet normal 0.761797 0.367389 -0.533564
    outer loop
      vertex 8.07209 -7.26 -1.34668
      vertex 7.48522 -7.74123 -2.51594
      vertex 7.29627 -7.26 -2.45436
    endloop
  endfacet
  facet normal 0.814179 0.251056 -0.52353
    outer loop
      vertex 9.07574 -10.89 -1.63572
      vertex 8.35076 -7.61225 -1.19136
      vertex 9.18349 -10.8822 -1.46441
    endloop
  endfacet
  facet normal 0.814192 0.251056 -0.523509
    outer loop
      vertex 8.35076 -7.61225 -1.19136
      vertex 9.07574 -10.89 -1.63572
      vertex 8.33794 -10.89 -2.78319
    endloop
  endfacet
  facet normal 0.796032 0.261887 -0.545664
    outer loop
      vertex 8.33794 -10.89 -2.78319
      vertex 7.48522 -7.74123 -2.51594
      vertex 8.35076 -7.61225 -1.19136
    endloop
  endfacet
  facet normal 0.795903 0.261869 -0.54586
    outer loop
      vertex 7.48522 -7.74123 -2.51594
      vertex 8.33794 -10.89 -2.78319
      vertex 8.32351 -10.89 -2.80423
    endloop
  endfacet
  facet normal 0.960027 0.238675 -0.146231
    outer loop
      vertex 9.36276 -10.89 0.102934
      vertex 8.60091 -7.67605 0.347016
      vertex 9.36626 -10.89 0.125912
    endloop
  endfacet
  facet normal 0.96003 0.238674 -0.146209
    outer loop
      vertex 8.60091 -7.67605 0.347016
      vertex 9.36276 -10.89 0.102934
      vertex 8.35076 -7.61225 -1.19136
    endloop
  endfacet
  facet normal 0.961124 0.253834 -0.108672
    outer loop
      vertex 9.20993 -10.89 -1.24873
      vertex 8.35076 -7.61225 -1.19136
      vertex 9.36276 -10.89 0.102934
    endloop
  endfacet
  facet normal 0.961127 0.253834 -0.108644
    outer loop
      vertex 8.35076 -7.61225 -1.19136
      vertex 9.20993 -10.89 -1.24873
      vertex 9.18349 -10.8822 -1.46441
    endloop
  endfacet
  facet normal 0.990491 0.0691823 -0.118921
    outer loop
      vertex 9.20993 -10.89 -1.24873
      vertex 9.18403 -10.89 -1.46445
      vertex 9.18349 -10.8822 -1.46441
    endloop
  endfacet
  facet normal -0.317089 -0.0196238 -0.948193
    outer loop
      vertex 3.02887 -9.21114 -3.67
      vertex 3.13277 -10.89 -3.67
      vertex 2.43301 -10.89 -3.43599
    endloop
  endfacet
  facet normal -0.339535 -0.0105898 -0.940534
    outer loop
      vertex 2.08642 -10.89 -3.31087
      vertex 3.02887 -9.21114 -3.67
      vertex 2.43301 -10.89 -3.43599
    endloop
  endfacet
  facet normal -0.339544 -0.0105842 -0.940531
    outer loop
      vertex 3.02887 -9.21114 -3.67
      vertex 2.08642 -10.89 -3.31087
      vertex 1.82588 -8.82944 -3.24
    endloop
  endfacet
  facet normal -0.339545 -0.0105873 -0.94053
    outer loop
      vertex 3.02887 -9.21114 -3.67
      vertex 1.82588 -8.82944 -3.24
      vertex 3.01325 -8.71019 -3.67
    endloop
  endfacet
  facet normal -0.619974 -0.0514625 -0.782933
    outer loop
      vertex 1.82588 -8.82944 -3.24
      vertex 2.08642 -10.89 -3.31087
      vertex 1.19514 -10.89 -2.6051
    endloop
  endfacet
  facet normal -0.673654 -0.0214152 -0.738737
    outer loop
      vertex 0.73682 -8.88193 -2.24537
      vertex 1.19514 -10.89 -2.6051
      vertex 0.903825 -10.89 -2.33945
    endloop
  endfacet
  facet normal -0.673652 -0.0214145 -0.738738
    outer loop
      vertex 1.19514 -10.89 -2.6051
      vertex 0.73682 -8.88193 -2.24537
      vertex 1.82588 -8.82944 -3.24
    endloop
  endfacet
  facet normal -0.674151 -0.00757116 -0.738555
    outer loop
      vertex 1.82588 -8.82944 -3.24
      vertex 1.28058 -7.26 -2.75834
      vertex 1.60844 -7.26 -3.05761
    endloop
  endfacet
  facet normal -0.674151 -0.00757115 -0.738555
    outer loop
      vertex 1.28058 -7.26 -2.75834
      vertex 1.82588 -8.82944 -3.24
      vertex 0.73682 -8.88193 -2.24537
    endloop
  endfacet
  facet normal -0.75085 0.0432865 -0.659053
    outer loop
      vertex 1.28058 -7.26 -2.75834
      vertex 0.73682 -8.88193 -2.24537
      vertex 0.657049 -7.26 -2.04796
    endloop
  endfacet
  facet normal -0.954544 -0.0106917 -0.297877
    outer loop
      vertex 0.73682 -8.88193 -2.24537
      vertex 0.547325 -7.26 -1.69635
      vertex 0.657049 -7.26 -2.04796
    endloop
  endfacet
  facet normal -0.954542 -0.0106888 -0.297884
    outer loop
      vertex 0.547325 -7.26 -1.69635
      vertex 0.73682 -8.88193 -2.24537
      vertex 0.305202 -8.90391 -0.861502
    endloop
  endfacet
  facet normal -0.964498 0.00800031 -0.263971
    outer loop
      vertex 0.547325 -7.26 -1.69635
      vertex 0.305202 -8.90391 -0.861502
      vertex 0.279904 -7.26 -0.719245
    endloop
  endfacet
endsolid OpenSCAD_Model
