solid OpenSCAD_Model
  facet normal 0 -1 0
    outer loop
      vertex 4.22018 -3.63 3.17179
      vertex 4.47814 -3.63 3.10393
      vertex 4.27899 -3.63 3.17862
    endloop
  endfacet
  facet normal 0 -1 0
    outer loop
      vertex 2.93996 -3.63 2.99349
      vertex 4.47814 -3.63 3.10393
      vertex 4.22018 -3.63 3.17179
    endloop
  endfacet
  facet normal 0 -1 0
    outer loop
      vertex 2.4201 -3.63 2.72248
      vertex 4.47814 -3.63 3.10393
      vertex 2.93996 -3.63 2.99349
    endloop
  endfacet
  facet normal 0 -1 0
    outer loop
      vertex 5.61748 -3.63 2.4992
      vertex 4.47814 -3.63 3.10393
      vertex 2.4201 -3.63 2.72248
    endloop
  endfacet
  facet normal 0 -1 0
    outer loop
      vertex 4.47814 -3.63 3.10393
      vertex 5.61748 -3.63 2.4992
      vertex 5.47638 -3.63 2.65086
    endloop
  endfacet
  facet normal 0 -1 0
    outer loop
      vertex 1.52262 -3.63 2.08486
      vertex 2.4201 -3.63 2.72248
      vertex 1.80686 -3.63 2.37661
    endloop
  endfacet
  facet normal 0 -1 0
    outer loop
      vertex 4.78139 -3.63 -2.58027
      vertex 2.4201 -3.63 2.72248
      vertex 1.52262 -3.63 2.08486
    endloop
  endfacet
  facet normal 0 -1 0
    outer loop
      vertex 2.4201 -3.63 2.72248
      vertex 6.42409 -3.63 1.32667
      vertex 5.61748 -3.63 2.4992
    endloop
  endfacet
  facet normal 0 -1 0
    outer loop
      vertex 0.884704 -3.63 1.43752
      vertex 1.52262 -3.63 2.08486
      vertex 0.941604 -3.63 1.53032
    endloop
  endfacet
  facet normal 0 -1 0
    outer loop
      vertex 4.16288 -3.63 -2.82616
      vertex 1.52262 -3.63 2.08486
      vertex 0.884704 -3.63 1.43752
    endloop
  endfacet
  facet normal 0 -1 0
    outer loop
      vertex 5.61748 -3.63 2.4992
      vertex 6.42409 -3.63 1.32667
      vertex 6.31624 -3.63 1.6506
    endloop
  endfacet
  facet normal 0 -1 0
    outer loop
      vertex 0.288641 -3.63 0.335181
      vertex 0.884704 -3.63 1.43752
      vertex 0.337604 -3.63 0.568574
    endloop
  endfacet
  facet normal 0 -1 0
    outer loop
      vertex 0.327479 -3.63 0.552022
      vertex 0.337604 -3.63 0.568574
      vertex 0.328301 -3.63 0.553555
    endloop
  endfacet
  facet normal 0 -1 0
    outer loop
      vertex 0.337604 -3.63 0.568574
      vertex 0.327479 -3.63 0.552022
      vertex 0.288641 -3.63 0.335181
    endloop
  endfacet
  facet normal 0 -1 0
    outer loop
      vertex 2.4201 -3.63 2.72248
      vertex 4.78139 -3.63 -2.58027
      vertex 5.63863 -3.63 -2.02099
    endloop
  endfacet
  facet normal 0 -1 0
    outer loop
      vertex 2.62388 -3.63 -2.98643
      vertex 0.884704 -3.63 1.43752
      vertex 0.288641 -3.63 0.335181
    endloop
  endfacet
  facet normal 0 -1 0
    outer loop
      vertex 6.42409 -3.63 1.32667
      vertex 6.62133 -3.63 0.0327273
      vertex 6.6788 -3.63 0.38388
    endloop
  endfacet
  facet normal 0 -1 0
    outer loop
      vertex 0.409051 -3.63 -1.59157
      vertex 0.288641 -3.63 0.335181
      vertex 0.128839 -3.63 -0.561854
    endloop
  endfacet
  facet normal 0 -1 0
    outer loop
      vertex 2.4201 -3.63 2.72248
      vertex 6.62133 -3.63 0.0327273
      vertex 6.42409 -3.63 1.32667
    endloop
  endfacet
  facet normal 0 -1 0
    outer loop
      vertex 6.62133 -3.63 0.0327273
      vertex 6.31024 -3.63 -1.11653
      vertex 6.45332 -3.63 -0.92035
    endloop
  endfacet
  facet normal 0 -1 0
    outer loop
      vertex 0.288641 -3.63 0.335181
      vertex 0.409051 -3.63 -1.59157
      vertex 1.95627 -3.63 -2.84976
    endloop
  endfacet
  facet normal 0 -1 0
    outer loop
      vertex 1.05975 -3.63 -2.41157
      vertex 0.409051 -3.63 -1.59157
      vertex 0.422967 -3.63 -1.647
    endloop
  endfacet
  facet normal 0 -1 0
    outer loop
      vertex 2.4201 -3.63 2.72248
      vertex 6.31024 -3.63 -1.11653
      vertex 6.62133 -3.63 0.0327273
    endloop
  endfacet
  facet normal 0 -1 0
    outer loop
      vertex 6.31024 -3.63 -1.11653
      vertex 5.63863 -3.63 -2.02099
      vertex 5.67903 -3.63 -1.99528
    endloop
  endfacet
  facet normal 0 -1 0
    outer loop
      vertex 0.409051 -3.63 -1.59157
      vertex 1.05975 -3.63 -2.41157
      vertex 1.95627 -3.63 -2.84976
    endloop
  endfacet
  facet normal 0 -1 0
    outer loop
      vertex 1.95627 -3.63 -2.84976
      vertex 1.05975 -3.63 -2.41157
      vertex 1.15886 -3.63 -2.51591
    endloop
  endfacet
  facet normal 0 -1 0
    outer loop
      vertex 2.4201 -3.63 2.72248
      vertex 5.63863 -3.63 -2.02099
      vertex 6.31024 -3.63 -1.11653
    endloop
  endfacet
  facet normal 0 -1 0
    outer loop
      vertex 1.52262 -3.63 2.08486
      vertex 4.16288 -3.63 -2.82616
      vertex 4.78139 -3.63 -2.58027
    endloop
  endfacet
  facet normal 0 -1 0
    outer loop
      vertex 4.78139 -3.63 -2.58027
      vertex 4.16288 -3.63 -2.82616
      vertex 4.57554 -3.63 -2.71644
    endloop
  endfacet
  facet normal 0 -1 0
    outer loop
      vertex 0.288641 -3.63 0.335181
      vertex 1.95627 -3.63 -2.84976
      vertex 2.62388 -3.63 -2.98643
    endloop
  endfacet
  facet normal 0 -1 0
    outer loop
      vertex 2.62388 -3.63 -2.98643
      vertex 1.95627 -3.63 -2.84976
      vertex 2.21474 -3.63 -2.96412
    endloop
  endfacet
  facet normal 0 -1 0
    outer loop
      vertex 0.884704 -3.63 1.43752
      vertex 2.62388 -3.63 -2.98643
      vertex 4.16288 -3.63 -2.82616
    endloop
  endfacet
  facet normal 0 -1 0
    outer loop
      vertex 4.16288 -3.63 -2.82616
      vertex 2.62388 -3.63 -2.98643
      vertex 3.38682 -3.63 -3.03377
    endloop
  endfacet
  facet normal 0.457699 0.633306 -0.624047
    outer loop
      vertex 4.45455 -1.00467 -1.33273
      vertex 4.44189 -1.61631 -1.96273
      vertex 3.71943 -1.51536 -2.39016
    endloop
  endfacet
  facet normal 0.570154 0.511092 -0.643202
    outer loop
      vertex 4.45455 -1.00467 -1.33273
      vertex 3.71943 -1.51536 -2.39016
      vertex 3.41308 -0.499525 -1.85453
    endloop
  endfacet
  facet normal 0.512239 0.3408 -0.788331
    outer loop
      vertex 4.44189 -1.61631 -1.96273
      vertex 4.97727 -2.37824 -1.94424
      vertex 4.19182 -2.71123 -2.59856
    endloop
  endfacet
  facet normal 0.513581 0.34015 -0.787739
    outer loop
      vertex 4.44189 -1.61631 -1.96273
      vertex 4.19182 -2.71123 -2.59856
      vertex 3.71943 -1.51536 -2.39016
    endloop
  endfacet
  facet normal 0.68257 0.517449 -0.516086
    outer loop
      vertex 4.45455 -1.00467 -1.33273
      vertex 5.43747 -2.01569 -1.04642
      vertex 4.44189 -1.61631 -1.96273
    endloop
  endfacet
  facet normal 0.691866 0.472909 -0.545599
    outer loop
      vertex 5.43747 -2.01569 -1.04642
      vertex 4.97727 -2.37824 -1.94424
      vertex 4.44189 -1.61631 -1.96273
    endloop
  endfacet
  facet normal -0.7425 0.128242 -0.657455
    outer loop
      vertex 1.04018 -1.26088 -2.05139
      vertex 1.09572 -2.10835 -2.27942
      vertex 0.449205 -2.21875 -1.57081
    endloop
  endfacet
  facet normal -0.844508 0.297674 -0.445192
    outer loop
      vertex 0.792918 -0.946966 -1.37245
      vertex 1.04018 -1.26088 -2.05139
      vertex 0.449205 -2.21875 -1.57081
    endloop
  endfacet
  facet normal -0.344835 0.309859 -0.886045
    outer loop
      vertex 1.79037 -0.742388 -2.16203
      vertex 1.9678 -1.96685 -2.65929
      vertex 1.04018 -1.26088 -2.05139
    endloop
  endfacet
  facet normal -0.418896 0.210235 -0.883362
    outer loop
      vertex 1.9678 -1.96685 -2.65929
      vertex 1.09572 -2.10835 -2.27942
      vertex 1.04018 -1.26088 -2.05139
    endloop
  endfacet
  facet normal -0.539373 0.672168 -0.507216
    outer loop
      vertex 1.79037 -0.742388 -2.16203
      vertex 1.04018 -1.26088 -2.05139
      vertex 0.792918 -0.946966 -1.37245
    endloop
  endfacet
  facet normal -0.584967 0.54942 -0.596617
    outer loop
      vertex 1.43255 -0.231267 -1.34051
      vertex 1.79037 -0.742388 -2.16203
      vertex 0.792918 -0.946966 -1.37245
    endloop
  endfacet
  facet normal -0.766783 0.36798 0.525961
    outer loop
      vertex 1.28957 -1.94314 1.50718
      vertex 0.839017 -1.37091 0.44998
      vertex 0.773098 -2.58359 1.20231
    endloop
  endfacet
  facet normal -0.780513 0.359646 0.511325
    outer loop
      vertex 0.773098 -2.58359 1.20231
      vertex 0.839017 -1.37091 0.44998
      vertex 0.391447 -2.33949 0.448048
    endloop
  endfacet
  facet normal -0.706139 0.115269 0.698627
    outer loop
      vertex 0.923721 -3.50464 1.50652
      vertex 1.68634 -3.11863 2.21365
      vertex 0.773098 -2.58359 1.20231
    endloop
  endfacet
  facet normal -0.671362 0.201955 0.713083
    outer loop
      vertex 1.68634 -3.11863 2.21365
      vertex 1.28957 -1.94314 1.50718
      vertex 0.773098 -2.58359 1.20231
    endloop
  endfacet
  facet normal -0.87837 0.0814854 0.470985
    outer loop
      vertex 0.328301 -3.63 0.553555
      vertex 0.391447 -2.33949 0.448048
      vertex 0.327479 -3.63 0.552022
    endloop
  endfacet
  facet normal -0.878441 0.0814781 0.470853
    outer loop
      vertex 0.391447 -2.33949 0.448048
      vertex 0.328301 -3.63 0.553555
      vertex 0.773098 -2.58359 1.20231
    endloop
  endfacet
  facet normal -0.849608 0.0348708 0.52626
    outer loop
      vertex 0.337604 -3.63 0.568574
      vertex 0.773098 -2.58359 1.20231
      vertex 0.328301 -3.63 0.553555
    endloop
  endfacet
  facet normal -0.849611 0.0348747 0.526256
    outer loop
      vertex 0.773098 -2.58359 1.20231
      vertex 0.337604 -3.63 0.568574
      vertex 0.923721 -3.50464 1.50652
    endloop
  endfacet
  facet normal 0.23929 0.904442 0.353165
    outer loop
      vertex 3.50157 -0.739539 1.06885
      vertex 4.08476 -0.605332 0.330005
      vertex 2.84891 -0.340734 0.489742
    endloop
  endfacet
  facet normal 0.240826 0.887106 0.393759
    outer loop
      vertex 4.08476 -0.605332 0.330005
      vertex 2.89221 -0.0117903 -0.277822
      vertex 2.84891 -0.340734 0.489742
    endloop
  endfacet
  facet normal -0.164835 0.90991 0.380648
    outer loop
      vertex 2.84891 -0.340734 0.489742
      vertex 2.89221 -0.0117903 -0.277822
      vertex 2.00498 -0.432602 0.343892
    endloop
  endfacet
  facet normal -0.186073 0.916293 0.35466
    outer loop
      vertex 2.00498 -0.432602 0.343892
      vertex 2.89221 -0.0117903 -0.277822
      vertex 1.94927 -0.104031 -0.534227
    endloop
  endfacet
  facet normal -0.185088 0.804677 0.564125
    outer loop
      vertex 2.78274 -1.05314 1.48422
      vertex 2.84891 -0.340734 0.489742
      vertex 2.00498 -0.432602 0.343892
    endloop
  endfacet
  facet normal -0.0188825 0.813384 0.581421
    outer loop
      vertex 3.50157 -0.739539 1.06885
      vertex 2.84891 -0.340734 0.489742
      vertex 2.78274 -1.05314 1.48422
    endloop
  endfacet
  facet normal 0.157787 0.720995 0.674736
    outer loop
      vertex 3.55243 -2.13094 2.45592
      vertex 4.48827 -1.82443 1.90955
      vertex 2.78274 -1.05314 1.48422
    endloop
  endfacet
  facet normal 0.124657 0.676106 0.726183
    outer loop
      vertex 4.48827 -1.82443 1.90955
      vertex 3.50157 -0.739539 1.06885
      vertex 2.78274 -1.05314 1.48422
    endloop
  endfacet
  facet normal -0.272893 0.754593 0.596757
    outer loop
      vertex 2.78274 -1.05314 1.48422
      vertex 2.00498 -0.432602 0.343892
      vertex 1.99915 -1.43384 1.60728
    endloop
  endfacet
  facet normal -0.378517 0.726263 0.573818
    outer loop
      vertex 1.99915 -1.43384 1.60728
      vertex 2.00498 -0.432602 0.343892
      vertex 1.44017 -0.793572 0.428185
    endloop
  endfacet
  facet normal -0.150932 0.571413 0.806664
    outer loop
      vertex 2.5612 -2.60679 2.54332
      vertex 2.78274 -1.05314 1.48422
      vertex 1.99915 -1.43384 1.60728
    endloop
  endfacet
  facet normal -0.20406 0.571109 0.795106
    outer loop
      vertex 3.55243 -2.13094 2.45592
      vertex 2.78274 -1.05314 1.48422
      vertex 2.5612 -2.60679 2.54332
    endloop
  endfacet
  facet normal -0.128744 0.359041 0.9244
    outer loop
      vertex 2.93996 -3.63 2.99349
      vertex 4.22018 -3.63 3.17179
      vertex 2.5612 -2.60679 2.54332
    endloop
  endfacet
  facet normal -0.106248 0.389557 0.914853
    outer loop
      vertex 3.55243 -2.13094 2.45592
      vertex 4.22018 -3.63 3.17179
      vertex 4.27899 -3.63 3.17862
    endloop
  endfacet
  facet normal -0.106329 0.389523 0.914858
    outer loop
      vertex 4.22018 -3.63 3.17179
      vertex 3.55243 -2.13094 2.45592
      vertex 2.5612 -2.60679 2.54332
    endloop
  endfacet
  facet normal -0.422904 0.432724 0.79618
    outer loop
      vertex 2.5612 -2.60679 2.54332
      vertex 1.99915 -1.43384 1.60728
      vertex 1.28957 -1.94314 1.50718
    endloop
  endfacet
  facet normal -0.492341 0.320238 0.809351
    outer loop
      vertex 1.68634 -3.11863 2.21365
      vertex 2.5612 -2.60679 2.54332
      vertex 1.28957 -1.94314 1.50718
    endloop
  endfacet
  facet normal -0.451566 0.21394 0.866209
    outer loop
      vertex 2.5612 -2.60679 2.54332
      vertex 2.4201 -3.63 2.72248
      vertex 2.93996 -3.63 2.99349
    endloop
  endfacet
  facet normal -0.451575 0.213941 0.866204
    outer loop
      vertex 2.4201 -3.63 2.72248
      vertex 2.5612 -2.60679 2.54332
      vertex 1.68634 -3.11863 2.21365
    endloop
  endfacet
  facet normal -0.48495 0.159713 0.859834
    outer loop
      vertex 1.80686 -3.63 2.37661
      vertex 2.4201 -3.63 2.72248
      vertex 1.68634 -3.11863 2.21365
    endloop
  endfacet
  facet normal -0.71524 0.0534926 0.696829
    outer loop
      vertex 1.80686 -3.63 2.37661
      vertex 1.68634 -3.11863 2.21365
      vertex 1.52262 -3.63 2.08486
    endloop
  endfacet
  facet normal -0.689911 0.0388291 0.722852
    outer loop
      vertex 0.923721 -3.50464 1.50652
      vertex 1.52262 -3.63 2.08486
      vertex 1.68634 -3.11863 2.21365
    endloop
  endfacet
  facet normal -0.689912 0.0388175 0.722851
    outer loop
      vertex 1.52262 -3.63 2.08486
      vertex 0.923721 -3.50464 1.50652
      vertex 0.941604 -3.63 1.53032
    endloop
  endfacet
  facet normal 0.388465 0.341373 0.855897
    outer loop
      vertex 5.47638 -3.63 2.65086
      vertex 5.36185 -3.36729 2.59806
      vertex 4.47814 -3.63 3.10393
    endloop
  endfacet
  facet normal 0.666127 0.41496 0.619745
    outer loop
      vertex 5.47638 -3.63 2.65086
      vertex 5.61748 -3.63 2.4992
      vertex 5.36185 -3.36729 2.59806
    endloop
  endfacet
  facet normal 0.687155 0.455718 0.565808
    outer loop
      vertex 5.61748 -3.63 2.4992
      vertex 6.08816 -3.19877 1.58025
      vertex 5.36185 -3.36729 2.59806
    endloop
  endfacet
  facet normal 0.687141 0.455738 0.56581
    outer loop
      vertex 6.08816 -3.19877 1.58025
      vertex 5.61748 -3.63 2.4992
      vertex 6.31624 -3.63 1.6506
    endloop
  endfacet
  facet normal 0.61171 0.584328 0.533265
    outer loop
      vertex 5.36185 -3.36729 2.59806
      vertex 6.08816 -3.19877 1.58025
      vertex 4.48827 -1.82443 1.90955
    endloop
  endfacet
  facet normal 0.614935 0.590671 0.522459
    outer loop
      vertex 6.08816 -3.19877 1.58025
      vertex 5.14535 -1.69883 0.994167
      vertex 4.48827 -1.82443 1.90955
    endloop
  endfacet
  facet normal 0.295057 0.5237 0.799175
    outer loop
      vertex 5.36185 -3.36729 2.59806
      vertex 4.48827 -1.82443 1.90955
      vertex 3.55243 -2.13094 2.45592
    endloop
  endfacet
  facet normal 0.298258 0.527927 0.795195
    outer loop
      vertex 3.55243 -2.13094 2.45592
      vertex 4.47814 -3.63 3.10393
      vertex 5.36185 -3.36729 2.59806
    endloop
  endfacet
  facet normal 0.298238 0.52792 0.795207
    outer loop
      vertex 4.47814 -3.63 3.10393
      vertex 3.55243 -2.13094 2.45592
      vertex 4.27899 -3.63 3.17862
    endloop
  endfacet
  facet normal 0.787022 0.57847 0.214405
    outer loop
      vertex 6.08816 -3.19877 1.58025
      vertex 6.40679 -3.17443 0.344975
      vertex 5.14535 -1.69883 0.994167
    endloop
  endfacet
  facet normal 0.785124 0.59393 0.175577
    outer loop
      vertex 6.40679 -3.17443 0.344975
      vertex 5.4463 -1.78884 -0.0471067
      vertex 5.14535 -1.69883 0.994167
    endloop
  endfacet
  facet normal 0.67079 0.730028 0.130767
    outer loop
      vertex 5.14535 -1.69883 0.994167
      vertex 5.4463 -1.78884 -0.0471067
      vertex 4.08476 -0.605332 0.330005
    endloop
  endfacet
  facet normal 0.673013 0.719066 0.173196
    outer loop
      vertex 5.4463 -1.78884 -0.0471067
      vertex 4.37519 -0.670509 -0.527964
      vertex 4.08476 -0.605332 0.330005
    endloop
  endfacet
  facet normal 0.454944 0.741125 0.49372
    outer loop
      vertex 5.14535 -1.69883 0.994167
      vertex 4.08476 -0.605332 0.330005
      vertex 3.50157 -0.739539 1.06885
    endloop
  endfacet
  facet normal 0.467319 0.766465 0.440618
    outer loop
      vertex 4.48827 -1.82443 1.90955
      vertex 5.14535 -1.69883 0.994167
      vertex 3.50157 -0.739539 1.06885
    endloop
  endfacet
  facet normal 0.745791 0.648198 -0.153735
    outer loop
      vertex 5.4463 -1.78884 -0.0471067
      vertex 5.43747 -2.01569 -1.04642
      vertex 4.37519 -0.670509 -0.527964
    endloop
  endfacet
  facet normal 0.730225 0.653481 -0.199334
    outer loop
      vertex 5.43747 -2.01569 -1.04642
      vertex 4.45455 -1.00467 -1.33273
      vertex 4.37519 -0.670509 -0.527964
    endloop
  endfacet
  facet normal 0.515409 0.808242 -0.284779
    outer loop
      vertex 4.37519 -0.670509 -0.527964
      vertex 4.45455 -1.00467 -1.33273
      vertex 3.21323 -0.106638 -1.0306
    endloop
  endfacet
  facet normal 0.523697 0.81131 -0.259843
    outer loop
      vertex 4.45455 -1.00467 -1.33273
      vertex 3.41308 -0.499525 -1.85453
      vertex 3.21323 -0.106638 -1.0306
    endloop
  endfacet
  facet normal 0.413884 0.908211 0.0620678
    outer loop
      vertex 4.37519 -0.670509 -0.527964
      vertex 3.21323 -0.106638 -1.0306
      vertex 2.89221 -0.0117903 -0.277822
    endloop
  endfacet
  facet normal 0.414957 0.907022 0.0715633
    outer loop
      vertex 4.08476 -0.605332 0.330005
      vertex 4.37519 -0.670509 -0.527964
      vertex 2.89221 -0.0117903 -0.277822
    endloop
  endfacet
  facet normal 0.193769 0.902955 -0.38357
    outer loop
      vertex 3.21323 -0.106638 -1.0306
      vertex 3.41308 -0.499525 -1.85453
      vertex 2.23748 -0.0038414 -1.28153
    endloop
  endfacet
  facet normal 0.112618 0.854088 -0.507789
    outer loop
      vertex 3.41308 -0.499525 -1.85453
      vertex 2.53847 -0.569691 -2.16652
      vertex 2.23748 -0.0038414 -1.28153
    endloop
  endfacet
  facet normal 0.122871 0.989785 -0.0723117
    outer loop
      vertex 2.89221 -0.0117903 -0.277822
      vertex 3.21323 -0.106638 -1.0306
      vertex 2.23748 -0.0038414 -1.28153
    endloop
  endfacet
  facet normal -0.120196 0.988997 0.0862376
    outer loop
      vertex 2.89221 -0.0117903 -0.277822
      vertex 2.23748 -0.0038414 -1.28153
      vertex 1.94927 -0.104031 -0.534227
    endloop
  endfacet
  facet normal -0.187516 0.797379 -0.573607
    outer loop
      vertex 2.23748 -0.0038414 -1.28153
      vertex 2.53847 -0.569691 -2.16652
      vertex 1.79037 -0.742388 -2.16203
    endloop
  endfacet
  facet normal -0.183011 0.797004 -0.57558
    outer loop
      vertex 2.23748 -0.0038414 -1.28153
      vertex 1.79037 -0.742388 -2.16203
      vertex 1.43255 -0.231267 -1.34051
    endloop
  endfacet
  facet normal -0.273414 0.96161 0.0234746
    outer loop
      vertex 1.94927 -0.104031 -0.534227
      vertex 2.23748 -0.0038414 -1.28153
      vertex 1.43255 -0.231267 -1.34051
    endloop
  endfacet
  facet normal -0.424913 0.89571 0.130965
    outer loop
      vertex 1.94927 -0.104031 -0.534227
      vertex 1.43255 -0.231267 -1.34051
      vertex 1.26608 -0.430987 -0.51467
    endloop
  endfacet
  facet normal -0.682584 0.63099 0.368687
    outer loop
      vertex 1.44017 -0.793572 0.428185
      vertex 1.26608 -0.430987 -0.51467
      vertex 0.61525 -1.12292 -0.5354
    endloop
  endfacet
  facet normal -0.649949 0.688875 0.320964
    outer loop
      vertex 0.839017 -1.37091 0.44998
      vertex 1.44017 -0.793572 0.428185
      vertex 0.61525 -1.12292 -0.5354
    endloop
  endfacet
  facet normal -0.453295 0.800722 0.391623
    outer loop
      vertex 1.44017 -0.793572 0.428185
      vertex 2.00498 -0.432602 0.343892
      vertex 1.26608 -0.430987 -0.51467
    endloop
  endfacet
  facet normal -0.397381 0.850899 0.343597
    outer loop
      vertex 2.00498 -0.432602 0.343892
      vertex 1.94927 -0.104031 -0.534227
      vertex 1.26608 -0.430987 -0.51467
    endloop
  endfacet
  facet normal -0.745814 0.666067 0.0107421
    outer loop
      vertex 1.26608 -0.430987 -0.51467
      vertex 1.43255 -0.231267 -1.34051
      vertex 0.792918 -0.946966 -1.37245
    endloop
  endfacet
  facet normal -0.728213 0.68527 -0.0105181
    outer loop
      vertex 1.26608 -0.430987 -0.51467
      vertex 0.792918 -0.946966 -1.37245
      vertex 0.61525 -1.12292 -0.5354
    endloop
  endfacet
  facet normal -0.90859 0.306724 0.283522
    outer loop
      vertex 0.839017 -1.37091 0.44998
      vertex 0.61525 -1.12292 -0.5354
      vertex 0.218183 -2.28104 -0.554968
    endloop
  endfacet
  facet normal -0.89335 0.412451 0.178355
    outer loop
      vertex 0.391447 -2.33949 0.448048
      vertex 0.839017 -1.37091 0.44998
      vertex 0.218183 -2.28104 -0.554968
    endloop
  endfacet
  facet normal -0.949614 0.278935 -0.142926
    outer loop
      vertex 0.61525 -1.12292 -0.5354
      vertex 0.792918 -0.946966 -1.37245
      vertex 0.449205 -2.21875 -1.57081
    endloop
  endfacet
  facet normal -0.927493 0.321227 -0.191233
    outer loop
      vertex 0.61525 -1.12292 -0.5354
      vertex 0.449205 -2.21875 -1.57081
      vertex 0.218183 -2.28104 -0.554968
    endloop
  endfacet
  facet normal -0.982691 0.0648415 0.173532
    outer loop
      vertex 0.391447 -2.33949 0.448048
      vertex 0.218183 -2.28104 -0.554968
      vertex 0.128577 -3.62095 -0.561729
    endloop
  endfacet
  facet normal -0.982389 0.0628714 0.175953
    outer loop
      vertex 0.288641 -3.63 0.335181
      vertex 0.391447 -2.33949 0.448048
      vertex 0.128577 -3.62095 -0.561729
    endloop
  endfacet
  facet normal -0.982389 0.0628713 0.175954
    outer loop
      vertex 0.391447 -2.33949 0.448048
      vertex 0.288641 -3.63 0.335181
      vertex 0.327479 -3.63 0.552022
    endloop
  endfacet
  facet normal -0.975022 0.0321975 -0.219764
    outer loop
      vertex 0.449205 -2.21875 -1.57081
      vertex 0.420525 -3.56067 -1.64017
      vertex 0.218183 -2.28104 -0.554968
    endloop
  endfacet
  facet normal -0.964087 0.0657713 -0.257315
    outer loop
      vertex 0.218183 -2.28104 -0.554968
      vertex 0.420525 -3.56067 -1.64017
      vertex 0.128577 -3.62095 -0.561729
    endloop
  endfacet
  facet normal -0.969851 -0.010174 -0.243486
    outer loop
      vertex 0.420525 -3.56067 -1.64017
      vertex 0.422967 -3.63 -1.647
      vertex 0.409051 -3.63 -1.59157
    endloop
  endfacet
  facet normal -0.964625 -0.0243664 -0.262498
    outer loop
      vertex 0.409051 -3.63 -1.59157
      vertex 0.128577 -3.62095 -0.561729
      vertex 0.420525 -3.56067 -1.64017
    endloop
  endfacet
  facet normal -0.964626 -0.0243005 -0.262499
    outer loop
      vertex 0.128577 -3.62095 -0.561729
      vertex 0.409051 -3.63 -1.59157
      vertex 0.128839 -3.63 -0.561854
    endloop
  endfacet
  facet normal -0.768305 0.0494059 -0.638174
    outer loop
      vertex 0.449205 -2.21875 -1.57081
      vertex 1.1368 -3.45151 -2.49405
      vertex 0.420525 -3.56067 -1.64017
    endloop
  endfacet
  facet normal -0.742596 0.0834745 -0.664517
    outer loop
      vertex 1.09572 -2.10835 -2.27942
      vertex 1.1368 -3.45151 -2.49405
      vertex 0.449205 -2.21875 -1.57081
    endloop
  endfacet
  facet normal -0.767902 0.035947 -0.639557
    outer loop
      vertex 1.05975 -3.63 -2.41157
      vertex 0.420525 -3.56067 -1.64017
      vertex 1.1368 -3.45151 -2.49405
    endloop
  endfacet
  facet normal -0.767902 0.0359579 -0.639558
    outer loop
      vertex 0.420525 -3.56067 -1.64017
      vertex 1.05975 -3.63 -2.41157
      vertex 0.422967 -3.63 -1.647
    endloop
  endfacet
  facet normal -0.725034 -0.00526329 -0.688692
    outer loop
      vertex 1.1368 -3.45151 -2.49405
      vertex 1.15886 -3.63 -2.51591
      vertex 1.05975 -3.63 -2.41157
    endloop
  endfacet
  facet normal -0.385369 0.0651022 -0.920463
    outer loop
      vertex 1.1368 -3.45151 -2.49405
      vertex 1.95627 -3.63 -2.84976
      vertex 1.15886 -3.63 -2.51591
    endloop
  endfacet
  facet normal -0.385366 0.0651157 -0.920464
    outer loop
      vertex 1.95627 -3.63 -2.84976
      vertex 1.1368 -3.45151 -2.49405
      vertex 2.14574 -3.27216 -2.90377
    endloop
  endfacet
  facet normal -0.403445 0.0759894 -0.911843
    outer loop
      vertex 2.14574 -3.27216 -2.90377
      vertex 2.21474 -3.63 -2.96412
      vertex 1.95627 -3.63 -2.84976
    endloop
  endfacet
  facet normal 0.85536 0.49876 -0.139989
    outer loop
      vertex 6.6788 -3.63 0.38388
      vertex 6.62133 -3.63 0.0327273
      vertex 6.40679 -3.17443 0.344975
    endloop
  endfacet
  facet normal 0.850878 0.5035 -0.149984
    outer loop
      vertex 6.62133 -3.63 0.0327273
      vertex 6.26896 -3.31644 -0.913684
      vertex 6.40679 -3.17443 0.344975
    endloop
  endfacet
  facet normal 0.85089 0.503476 -0.149996
    outer loop
      vertex 6.26896 -3.31644 -0.913684
      vertex 6.62133 -3.63 0.0327273
      vertex 6.45332 -3.63 -0.92035
    endloop
  endfacet
  facet normal 0.828299 0.51366 0.223775
    outer loop
      vertex 6.42409 -3.63 1.32667
      vertex 6.40679 -3.17443 0.344975
      vertex 6.08816 -3.19877 1.58025
    endloop
  endfacet
  facet normal 0.828295 0.513665 0.223777
    outer loop
      vertex 6.40679 -3.17443 0.344975
      vertex 6.42409 -3.63 1.32667
      vertex 6.6788 -3.63 0.38388
    endloop
  endfacet
  facet normal 0.830169 0.484172 0.276398
    outer loop
      vertex 6.31624 -3.63 1.6506
      vertex 6.42409 -3.63 1.32667
      vertex 6.08816 -3.19877 1.58025
    endloop
  endfacet
  facet normal 0.726224 0.438249 -0.529657
    outer loop
      vertex 6.45332 -3.63 -0.92035
      vertex 6.31024 -3.63 -1.11653
      vertex 6.26896 -3.31644 -0.913684
    endloop
  endfacet
  facet normal 0.730968 0.435896 -0.525054
    outer loop
      vertex 6.31024 -3.63 -1.11653
      vertex 5.67233 -3.61677 -1.99363
      vertex 6.26896 -3.31644 -0.913684
    endloop
  endfacet
  facet normal 0.73104 0.435707 -0.525109
    outer loop
      vertex 5.67233 -3.61677 -1.99363
      vertex 6.31024 -3.63 -1.11653
      vertex 5.67903 -3.63 -1.99528
    endloop
  endfacet
  facet normal 0.740141 0.419496 -0.525561
    outer loop
      vertex 6.26896 -3.31644 -0.913684
      vertex 5.67233 -3.61677 -1.99363
      vertex 5.43747 -2.01569 -1.04642
    endloop
  endfacet
  facet normal 0.722836 0.42731 -0.54306
    outer loop
      vertex 5.43747 -2.01569 -1.04642
      vertex 5.67233 -3.61677 -1.99363
      vertex 4.97727 -2.37824 -1.94424
    endloop
  endfacet
  facet normal 0.841594 0.525058 -0.126628
    outer loop
      vertex 5.4463 -1.78884 -0.0471067
      vertex 6.26896 -3.31644 -0.913684
      vertex 5.43747 -2.01569 -1.04642
    endloop
  endfacet
  facet normal 0.831919 0.533863 -0.151333
    outer loop
      vertex 6.40679 -3.17443 0.344975
      vertex 6.26896 -3.31644 -0.913684
      vertex 5.4463 -1.78884 -0.0471067
    endloop
  endfacet
  facet normal 0.502355 0.352855 -0.789388
    outer loop
      vertex 5.67233 -3.61677 -1.99363
      vertex 5.67903 -3.63 -1.99528
      vertex 5.63863 -3.63 -2.02099
    endloop
  endfacet
  facet normal 0.517345 0.321952 -0.792907
    outer loop
      vertex 5.63863 -3.63 -2.02099
      vertex 4.97727 -2.37824 -1.94424
      vertex 5.67233 -3.61677 -1.99363
    endloop
  endfacet
  facet normal 0.517321 0.321941 -0.792927
    outer loop
      vertex 4.97727 -2.37824 -1.94424
      vertex 5.63863 -3.63 -2.02099
      vertex 4.78139 -3.63 -2.58027
    endloop
  endfacet
  facet normal 0.522756 0.319718 -0.790257
    outer loop
      vertex 4.19182 -2.71123 -2.59856
      vertex 4.78139 -3.63 -2.58027
      vertex 4.57554 -3.63 -2.71644
    endloop
  endfacet
  facet normal 0.522768 0.319726 -0.790246
    outer loop
      vertex 4.78139 -3.63 -2.58027
      vertex 4.19182 -2.71123 -2.59856
      vertex 4.97727 -2.37824 -1.94424
    endloop
  endfacet
  facet normal 0.25165 0.227558 -0.940686
    outer loop
      vertex 4.16288 -3.63 -2.82616
      vertex 3.38682 -3.63 -3.03377
      vertex 3.21469 -3.02552 -2.93359
    endloop
  endfacet
  facet normal 0.250347 0.225361 -0.941562
    outer loop
      vertex 4.16288 -3.63 -2.82616
      vertex 4.19182 -2.71123 -2.59856
      vertex 4.57554 -3.63 -2.71644
    endloop
  endfacet
  facet normal 0.250348 0.22536 -0.941562
    outer loop
      vertex 4.19182 -2.71123 -2.59856
      vertex 4.16288 -3.63 -2.82616
      vertex 3.21469 -3.02552 -2.93359
    endloop
  endfacet
  facet normal -0.061265 0.146188 -0.987358
    outer loop
      vertex 2.62388 -3.63 -2.98643
      vertex 3.21469 -3.02552 -2.93359
      vertex 3.38682 -3.63 -3.03377
    endloop
  endfacet
  facet normal -0.0612766 0.146199 -0.987356
    outer loop
      vertex 3.21469 -3.02552 -2.93359
      vertex 2.62388 -3.63 -2.98643
      vertex 2.14574 -3.27216 -2.90377
    endloop
  endfacet
  facet normal -0.0537818 0.155969 -0.986297
    outer loop
      vertex 2.62388 -3.63 -2.98643
      vertex 2.21474 -3.63 -2.96412
      vertex 2.14574 -3.27216 -2.90377
    endloop
  endfacet
  facet normal -0.0677216 0.174746 -0.982282
    outer loop
      vertex 3.21469 -3.02552 -2.93359
      vertex 2.14574 -3.27216 -2.90377
      vertex 1.9678 -1.96685 -2.65929
    endloop
  endfacet
  facet normal -0.0622449 0.180997 -0.981512
    outer loop
      vertex 2.85544 -1.74559 -2.67478
      vertex 3.21469 -3.02552 -2.93359
      vertex 1.9678 -1.96685 -2.65929
    endloop
  endfacet
  facet normal 0.238681 0.256388 -0.936641
    outer loop
      vertex 4.19182 -2.71123 -2.59856
      vertex 3.21469 -3.02552 -2.93359
      vertex 2.85544 -1.74559 -2.67478
    endloop
  endfacet
  facet normal 0.239653 0.257782 -0.93601
    outer loop
      vertex 3.71943 -1.51536 -2.39016
      vertex 4.19182 -2.71123 -2.59856
      vertex 2.85544 -1.74559 -2.67478
    endloop
  endfacet
  facet normal -0.106129 0.360897 -0.926547
    outer loop
      vertex 2.85544 -1.74559 -2.67478
      vertex 1.9678 -1.96685 -2.65929
      vertex 1.79037 -0.742388 -2.16203
    endloop
  endfacet
  facet normal -0.0918989 0.374101 -0.922823
    outer loop
      vertex 2.53847 -0.569691 -2.16652
      vertex 2.85544 -1.74559 -2.67478
      vertex 1.79037 -0.742388 -2.16203
    endloop
  endfacet
  facet normal 0.176937 0.430296 -0.885177
    outer loop
      vertex 3.71943 -1.51536 -2.39016
      vertex 2.85544 -1.74559 -2.67478
      vertex 2.53847 -0.569691 -2.16652
    endloop
  endfacet
  facet normal 0.252475 0.509786 -0.82242
    outer loop
      vertex 3.41308 -0.499525 -1.85453
      vertex 3.71943 -1.51536 -2.39016
      vertex 2.53847 -0.569691 -2.16652
    endloop
  endfacet
  facet normal -0.393146 0.13335 -0.909755
    outer loop
      vertex 2.14574 -3.27216 -2.90377
      vertex 1.1368 -3.45151 -2.49405
      vertex 1.09572 -2.10835 -2.27942
    endloop
  endfacet
  facet normal -0.412158 0.113142 -0.90406
    outer loop
      vertex 1.9678 -1.96685 -2.65929
      vertex 2.14574 -3.27216 -2.90377
      vertex 1.09572 -2.10835 -2.27942
    endloop
  endfacet
  facet normal -0.98403 -0.0309092 0.1753
    outer loop
      vertex 0.128839 -3.63 -0.561854
      vertex 0.288641 -3.63 0.335181
      vertex 0.128577 -3.62095 -0.561729
    endloop
  endfacet
  facet normal -0.852296 -0.0223688 0.522582
    outer loop
      vertex 0.941604 -3.63 1.53032
      vertex 0.923721 -3.50464 1.50652
      vertex 0.884704 -3.63 1.43752
    endloop
  endfacet
  facet normal -0.845862 -0.0298664 0.532566
    outer loop
      vertex 0.884704 -3.63 1.43752
      vertex 0.923721 -3.50464 1.50652
      vertex 0.337604 -3.63 0.568574
    endloop
  endfacet
  facet normal -0.525853 0.617718 0.584725
    outer loop
      vertex 1.99915 -1.43384 1.60728
      vertex 1.44017 -0.793572 0.428185
      vertex 1.28957 -1.94314 1.50718
    endloop
  endfacet
  facet normal -0.560241 0.60472 0.566078
    outer loop
      vertex 1.28957 -1.94314 1.50718
      vertex 1.44017 -0.793572 0.428185
      vertex 0.839017 -1.37091 0.44998
    endloop
  endfacet
endsolid OpenSCAD_Model
