solid OpenSCAD_Model
  facet normal 1 0 0
    outer loop
      vertex 20.2267 -6.28441 -7.61852
      vertex 20.2267 -4.72247 -5.76569
      vertex 20.2267 -4.55752 -5.47
    endloop
  endfacet
  facet normal 1 0 0
    outer loop
      vertex 20.2267 -4.72247 -5.76569
      vertex 20.2267 -6.28441 -7.61852
      vertex 20.2267 -4.77616 -5.85932
    endloop
  endfacet
  facet normal 1 0 0
    outer loop
      vertex 20.2267 -4.77616 -5.85932
      vertex 20.2267 -6.28441 -7.61852
      vertex 20.2267 -5.38382 -6.76406
    endloop
  endfacet
  facet normal 1 0 -0
    outer loop
      vertex 20.2267 -5.39903 -6.78349
      vertex 20.2267 -5.38382 -6.76406
      vertex 20.2267 -6.28441 -7.61852
    endloop
  endfacet
  facet normal 1 0 0
    outer loop
      vertex 20.2267 -5.38382 -6.76406
      vertex 20.2267 -5.39903 -6.78349
      vertex 20.2267 -5.38524 -6.7661
    endloop
  endfacet
  facet normal 1 0 0
    outer loop
      vertex 20.2267 -4.55752 -5.47
      vertex 20.2267 -6.38472 -7.70035
      vertex 20.2267 -6.28441 -7.61852
    endloop
  endfacet
  facet normal 1 -0 0
    outer loop
      vertex 20.2267 -19.328 -5.47
      vertex 20.2267 -6.38472 -7.70035
      vertex 20.2267 -4.55752 -5.47
    endloop
  endfacet
  facet normal 1 0 0
    outer loop
      vertex 20.2267 -6.38472 -7.70035
      vertex 20.2267 -19.328 -5.47
      vertex 20.2267 -7.30105 -8.43481
    endloop
  endfacet
  facet normal 1 0 0
    outer loop
      vertex 20.2267 -7.30105 -8.43481
      vertex 20.2267 -19.328 -5.47
      vertex 20.2267 -7.54288 -8.60348
    endloop
  endfacet
  facet normal 1 0 0
    outer loop
      vertex 20.2267 -7.54288 -8.60348
      vertex 20.2267 -19.328 -5.47
      vertex 20.2267 -8.43172 -9.21205
    endloop
  endfacet
  facet normal 1 0 0
    outer loop
      vertex 20.2267 -8.43172 -9.21205
      vertex 20.2267 -19.328 -5.47
      vertex 20.2267 -8.86022 -9.46776
    endloop
  endfacet
  facet normal 1 0 0
    outer loop
      vertex 20.2267 -8.86022 -9.46776
      vertex 20.2267 -19.328 -5.47
      vertex 20.2267 -9.67779 -9.94613
    endloop
  endfacet
  facet normal 1 0 0
    outer loop
      vertex 20.2267 -9.67779 -9.94613
      vertex 20.2267 -19.328 -5.47
      vertex 20.2267 -10.3444 -10.2852
    endloop
  endfacet
  facet normal 1 0 0
    outer loop
      vertex 20.2267 -10.3444 -10.2852
      vertex 20.2267 -19.328 -5.47
      vertex 20.2267 -11.0414 -10.6323
    endloop
  endfacet
  facet normal 1 0 0
    outer loop
      vertex 20.2267 -11.0414 -10.6323
      vertex 20.2267 -19.328 -5.47
      vertex 20.2267 -12.0047 -11.0462
    endloop
  endfacet
  facet normal 1 0 0
    outer loop
      vertex 20.2267 -12.0047 -11.0462
      vertex 20.2267 -19.328 -5.47
      vertex 20.2267 -12.5255 -11.2648
    endloop
  endfacet
  facet normal 1 0 0
    outer loop
      vertex 20.2267 -12.5255 -11.2648
      vertex 20.2267 -19.328 -5.47
      vertex 20.2267 -13.8518 -11.739
    endloop
  endfacet
  facet normal 1 0 0
    outer loop
      vertex 20.2267 -13.8518 -11.739
      vertex 20.2267 -19.328 -5.47
      vertex 20.2267 -14.1341 -11.8373
    endloop
  endfacet
  facet normal 1 0 0
    outer loop
      vertex 20.2267 -14.1341 -11.8373
      vertex 20.2267 -19.328 -5.47
      vertex 20.2267 -15.7321 -12.3012
    endloop
  endfacet
  facet normal 1 0 -0
    outer loop
      vertex 20.2267 -15.9062 -12.3424
      vertex 20.2267 -15.7321 -12.3012
      vertex 20.2267 -19.328 -5.47
    endloop
  endfacet
  facet normal 1 0 0
    outer loop
      vertex 20.2267 -15.7321 -12.3012
      vertex 20.2267 -15.9062 -12.3424
      vertex 20.2267 -15.8903 -12.3392
    endloop
  endfacet
  facet normal 1 0 0
    outer loop
      vertex 20.2267 -15.9062 -12.3424
      vertex 20.2267 -19.328 -5.47
      vertex 20.2267 -17.2818 -12.6076
    endloop
  endfacet
  facet normal 1 0 0
    outer loop
      vertex 20.2267 -17.2818 -12.6076
      vertex 20.2267 -19.328 -5.47
      vertex 20.2267 -17.5417 -12.647
    endloop
  endfacet
  facet normal 1 0 0
    outer loop
      vertex 20.2267 -17.5417 -12.647
      vertex 20.2267 -19.328 -5.47
      vertex 20.2267 -19.328 -12.9092
    endloop
  endfacet
  facet normal 0 0 1
    outer loop
      vertex 19.4559 -4.24088 -5.47
      vertex 20.2267 -19.328 -5.47
      vertex 20.2267 -4.55752 -5.47
    endloop
  endfacet
  facet normal 0 0 1
    outer loop
      vertex 18.0378 -3.66684 -5.47
      vertex 20.2267 -19.328 -5.47
      vertex 19.4559 -4.24088 -5.47
    endloop
  endfacet
  facet normal 0 0 1
    outer loop
      vertex 6.0833 -16.4988 -5.47
      vertex 18.0378 -3.66684 -5.47
      vertex 17.0853 -3.29788 -5.47
    endloop
  endfacet
  facet normal 0 0 1
    outer loop
      vertex 5.07558 -14.0392 -5.47
      vertex 17.0853 -3.29788 -5.47
      vertex 16.2115 -2.96629 -5.47
    endloop
  endfacet
  facet normal 0 0 1
    outer loop
      vertex 5.07558 -14.0392 -5.47
      vertex 16.2115 -2.96629 -5.47
      vertex 14.9928 -2.60533 -5.47
    endloop
  endfacet
  facet normal 0 0 1
    outer loop
      vertex 4.52382 -12.3306 -5.47
      vertex 14.9928 -2.60533 -5.47
      vertex 14.2912 -2.40234 -5.47
    endloop
  endfacet
  facet normal 0 0 1
    outer loop
      vertex 4.52382 -12.3306 -5.47
      vertex 14.2912 -2.40234 -5.47
      vertex 13.1864 -2.11013 -5.47
    endloop
  endfacet
  facet normal -0 0 1
    outer loop
      vertex 10.3242 -1.86728 -5.47
      vertex 13.1864 -2.11013 -5.47
      vertex 11.7168 -1.73457 -5.47
    endloop
  endfacet
  facet normal 0 0 1
    outer loop
      vertex 10.3242 -1.86728 -5.47
      vertex 11.7168 -1.73457 -5.47
      vertex 11.6446 -1.71829 -5.47
    endloop
  endfacet
  facet normal 0 0 1
    outer loop
      vertex 10.3242 -1.86728 -5.47
      vertex 11.6446 -1.71829 -5.47
      vertex 11.5125 -1.69003 -5.47
    endloop
  endfacet
  facet normal -0 0 1
    outer loop
      vertex 10.1603 -1.89586 -5.47
      vertex 13.1864 -2.11013 -5.47
      vertex 10.3242 -1.86728 -5.47
    endloop
  endfacet
  facet normal 0 0 1
    outer loop
      vertex 4.12165 -11.0269 -5.47
      vertex 13.1864 -2.11013 -5.47
      vertex 10.1603 -1.89586 -5.47
    endloop
  endfacet
  facet normal 0 0 1
    outer loop
      vertex 4.12165 -11.0269 -5.47
      vertex 10.1603 -1.89586 -5.47
      vertex 9.22873 -2.07844 -5.47
    endloop
  endfacet
  facet normal 0 0 1
    outer loop
      vertex 3.81106 -9.41845 -5.47
      vertex 9.22873 -2.07844 -5.47
      vertex 8.95891 -2.14003 -5.47
    endloop
  endfacet
  facet normal 0 0 1
    outer loop
      vertex 3.76144 -8.52341 -5.47
      vertex 8.95891 -2.14003 -5.47
      vertex 8.30843 -2.30454 -5.47
    endloop
  endfacet
  facet normal 0 0 1
    outer loop
      vertex 3.75672 -8.28134 -5.47
      vertex 8.30843 -2.30454 -5.47
      vertex 7.98272 -2.40026 -5.47
    endloop
  endfacet
  facet normal 0 0 1
    outer loop
      vertex 3.76395 -7.67443 -5.47
      vertex 7.98272 -2.40026 -5.47
      vertex 7.52629 -2.54745 -5.47
    endloop
  endfacet
  facet normal 0 0 1
    outer loop
      vertex 14.9928 -2.60533 -5.47
      vertex 4.83516 -13.3315 -5.47
      vertex 5.07558 -14.0392 -5.47
    endloop
  endfacet
  facet normal 0 0 1
    outer loop
      vertex 3.76395 -7.67443 -5.47
      vertex 7.52629 -2.54745 -5.47
      vertex 7.17721 -2.67815 -5.47
    endloop
  endfacet
  facet normal 0 0 1
    outer loop
      vertex 3.81814 -6.94432 -5.47
      vertex 7.17721 -2.67815 -5.47
      vertex 6.8554 -2.8096 -5.47
    endloop
  endfacet
  facet normal 0 0 1
    outer loop
      vertex 3.81814 -6.94432 -5.47
      vertex 6.8554 -2.8096 -5.47
      vertex 6.50465 -2.97598 -5.47
    endloop
  endfacet
  facet normal 0 0 1
    outer loop
      vertex 20.2267 -19.328 -5.47
      vertex 6.42871 -17.2925 -5.47
      vertex 7.40415 -19.328 -5.47
    endloop
  endfacet
  facet normal 0 0 1
    outer loop
      vertex 3.91921 -6.30408 -5.47
      vertex 6.50465 -2.97598 -5.47
      vertex 6.27574 -3.09415 -5.47
    endloop
  endfacet
  facet normal 0 0 1
    outer loop
      vertex 20.2267 -19.328 -5.47
      vertex 6.0833 -16.4988 -5.47
      vertex 6.42871 -17.2925 -5.47
    endloop
  endfacet
  facet normal 0 0 1
    outer loop
      vertex 3.91921 -6.30408 -5.47
      vertex 6.27574 -3.09415 -5.47
      vertex 5.93809 -3.29682 -5.47
    endloop
  endfacet
  facet normal 0 0 1
    outer loop
      vertex 4.06592 -5.73304 -5.47
      vertex 5.93809 -3.29682 -5.47
      vertex 5.77218 -3.40525 -5.47
    endloop
  endfacet
  facet normal 0 0 1
    outer loop
      vertex 4.06592 -5.73304 -5.47
      vertex 5.77218 -3.40525 -5.47
      vertex 5.45783 -3.64475 -5.47
    endloop
  endfacet
  facet normal 0 0 1
    outer loop
      vertex 5.17821 -3.89434 -5.47
      vertex 5.45783 -3.64475 -5.47
      vertex 5.37233 -3.71309 -5.47
    endloop
  endfacet
  facet normal 0 0 1
    outer loop
      vertex 5.45783 -3.64475 -5.47
      vertex 5.17821 -3.89434 -5.47
      vertex 4.06592 -5.73304 -5.47
    endloop
  endfacet
  facet normal 0 0 1
    outer loop
      vertex 18.0378 -3.66684 -5.47
      vertex 6.0833 -16.4988 -5.47
      vertex 20.2267 -19.328 -5.47
    endloop
  endfacet
  facet normal 0 0 1
    outer loop
      vertex 4.81108 -4.30024 -5.47
      vertex 5.17821 -3.89434 -5.47
      vertex 5.07191 -3.99883 -5.47
    endloop
  endfacet
  facet normal 0 0 1
    outer loop
      vertex 17.0853 -3.29788 -5.47
      vertex 5.07558 -14.0392 -5.47
      vertex 6.0833 -16.4988 -5.47
    endloop
  endfacet
  facet normal 0 0 1
    outer loop
      vertex 5.17821 -3.89434 -5.47
      vertex 4.81108 -4.30024 -5.47
      vertex 4.06592 -5.73304 -5.47
    endloop
  endfacet
  facet normal 0 0 1
    outer loop
      vertex 4.50582 -4.74144 -5.47
      vertex 4.81108 -4.30024 -5.47
      vertex 4.724 -4.41136 -5.47
    endloop
  endfacet
  facet normal 0 0 1
    outer loop
      vertex 14.9928 -2.60533 -5.47
      vertex 4.52382 -12.3306 -5.47
      vertex 4.83516 -13.3315 -5.47
    endloop
  endfacet
  facet normal 0 0 1
    outer loop
      vertex 4.81108 -4.30024 -5.47
      vertex 4.50582 -4.74144 -5.47
      vertex 4.06592 -5.73304 -5.47
    endloop
  endfacet
  facet normal 0 0 1
    outer loop
      vertex 4.25996 -5.21601 -5.47
      vertex 4.50582 -4.74144 -5.47
      vertex 4.43055 -4.86893 -5.47
    endloop
  endfacet
  facet normal 0 0 1
    outer loop
      vertex 4.06592 -5.73304 -5.47
      vertex 4.50582 -4.74144 -5.47
      vertex 4.25996 -5.21601 -5.47
    endloop
  endfacet
  facet normal 0 0 1
    outer loop
      vertex 4.06592 -5.73304 -5.47
      vertex 4.25996 -5.21601 -5.47
      vertex 4.19132 -5.3755 -5.47
    endloop
  endfacet
  facet normal 0 0 1
    outer loop
      vertex 13.1864 -2.11013 -5.47
      vertex 4.12165 -11.0269 -5.47
      vertex 4.52382 -12.3306 -5.47
    endloop
  endfacet
  facet normal 0 0 1
    outer loop
      vertex 5.93809 -3.29682 -5.47
      vertex 4.06592 -5.73304 -5.47
      vertex 3.91921 -6.30408 -5.47
    endloop
  endfacet
  facet normal 0 0 1
    outer loop
      vertex 3.91921 -6.30408 -5.47
      vertex 4.06592 -5.73304 -5.47
      vertex 4.00281 -5.94548 -5.47
    endloop
  endfacet
  facet normal 0 0 1
    outer loop
      vertex 6.50465 -2.97598 -5.47
      vertex 3.91921 -6.30408 -5.47
      vertex 3.8646 -6.59866 -5.47
    endloop
  endfacet
  facet normal 0 0 1
    outer loop
      vertex 8.95891 -2.14003 -5.47
      vertex 3.76144 -8.52341 -5.47
      vertex 3.81106 -9.41845 -5.47
    endloop
  endfacet
  facet normal 0 0 1
    outer loop
      vertex 6.50465 -2.97598 -5.47
      vertex 3.8646 -6.59866 -5.47
      vertex 3.81814 -6.94432 -5.47
    endloop
  endfacet
  facet normal 0 0 1
    outer loop
      vertex 4.12165 -11.0269 -5.47
      vertex 3.8202 -9.53355 -5.47
      vertex 3.89556 -10.2031 -5.47
    endloop
  endfacet
  facet normal 0 0 1
    outer loop
      vertex 7.17721 -2.67815 -5.47
      vertex 3.81814 -6.94432 -5.47
      vertex 3.77986 -7.36327 -5.47
    endloop
  endfacet
  facet normal 0 0 1
    outer loop
      vertex 4.12165 -11.0269 -5.47
      vertex 3.81106 -9.41845 -5.47
      vertex 3.8202 -9.53355 -5.47
    endloop
  endfacet
  facet normal 0 0 1
    outer loop
      vertex 7.17721 -2.67815 -5.47
      vertex 3.77986 -7.36327 -5.47
      vertex 3.76395 -7.67443 -5.47
    endloop
  endfacet
  facet normal 0 0 1
    outer loop
      vertex 7.98272 -2.40026 -5.47
      vertex 3.76395 -7.67443 -5.47
      vertex 3.75672 -8.28134 -5.47
    endloop
  endfacet
  facet normal 0 0 1
    outer loop
      vertex 9.22873 -2.07844 -5.47
      vertex 3.81106 -9.41845 -5.47
      vertex 4.12165 -11.0269 -5.47
    endloop
  endfacet
  facet normal 0 0 1
    outer loop
      vertex 8.30843 -2.30454 -5.47
      vertex 3.75672 -8.28134 -5.47
      vertex 3.76144 -8.52341 -5.47
    endloop
  endfacet
  facet normal 0 -1 0
    outer loop
      vertex 7.46073 -19.328 -5.56828
      vertex 20.2267 -19.328 -5.47
      vertex 7.40415 -19.328 -5.47
    endloop
  endfacet
  facet normal 0 -1 0
    outer loop
      vertex 8.05313 -19.328 -6.46751
      vertex 7.46073 -19.328 -5.56828
      vertex 7.66416 -19.328 -5.91563
    endloop
  endfacet
  facet normal 0 -1 0
    outer loop
      vertex 7.46073 -19.328 -5.56828
      vertex 8.05313 -19.328 -6.46751
      vertex 20.2267 -19.328 -5.47
    endloop
  endfacet
  facet normal 0 -1 0
    outer loop
      vertex 8.33142 -19.328 -6.8553
      vertex 20.2267 -19.328 -5.47
      vertex 8.05313 -19.328 -6.46751
    endloop
  endfacet
  facet normal 0 -1 0
    outer loop
      vertex 8.73113 -19.328 -7.32782
      vertex 20.2267 -19.328 -5.47
      vertex 8.33142 -19.328 -6.8553
    endloop
  endfacet
  facet normal 0 -1 0
    outer loop
      vertex 9.10015 -19.328 -7.75581
      vertex 20.2267 -19.328 -5.47
      vertex 8.73113 -19.328 -7.32782
    endloop
  endfacet
  facet normal 0 -1 0
    outer loop
      vertex 9.49286 -19.328 -8.14711
      vertex 20.2267 -19.328 -5.47
      vertex 9.10015 -19.328 -7.75581
    endloop
  endfacet
  facet normal 0 -1 0
    outer loop
      vertex 9.96953 -19.328 -8.61247
      vertex 20.2267 -19.328 -5.47
      vertex 9.49286 -19.328 -8.14711
    endloop
  endfacet
  facet normal 0 -1 0
    outer loop
      vertex 10.3369 -19.328 -8.92266
      vertex 20.2267 -19.328 -5.47
      vertex 9.96953 -19.328 -8.61247
    endloop
  endfacet
  facet normal 0 -1 0
    outer loop
      vertex 10.9388 -19.328 -9.41988
      vertex 20.2267 -19.328 -5.47
      vertex 10.3369 -19.328 -8.92266
    endloop
  endfacet
  facet normal 0 -1 0
    outer loop
      vertex 11.262 -19.328 -9.65115
      vertex 20.2267 -19.328 -5.47
      vertex 10.9388 -19.328 -9.41988
    endloop
  endfacet
  facet normal 0 -1 0
    outer loop
      vertex 12.0074 -19.328 -10.1718
      vertex 20.2267 -19.328 -5.47
      vertex 11.262 -19.328 -9.65115
    endloop
  endfacet
  facet normal 0 -1 0
    outer loop
      vertex 12.2673 -19.328 -10.3287
      vertex 20.2267 -19.328 -5.47
      vertex 12.0074 -19.328 -10.1718
    endloop
  endfacet
  facet normal 0 -1 0
    outer loop
      vertex 13.1743 -19.328 -10.8613
      vertex 20.2267 -19.328 -5.47
      vertex 12.2673 -19.328 -10.3287
    endloop
  endfacet
  facet normal 0 -1 0
    outer loop
      vertex 13.3519 -19.328 -10.9507
      vertex 20.2267 -19.328 -5.47
      vertex 13.1743 -19.328 -10.8613
    endloop
  endfacet
  facet normal 0 -1 0
    outer loop
      vertex 14.4385 -19.328 -11.4805
      vertex 20.2267 -19.328 -5.47
      vertex 13.3519 -19.328 -10.9507
    endloop
  endfacet
  facet normal 0 -1 0
    outer loop
      vertex 14.5151 -19.328 -11.512
      vertex 20.2267 -19.328 -5.47
      vertex 14.4385 -19.328 -11.4805
    endloop
  endfacet
  facet normal 0 -1 0
    outer loop
      vertex 15.3218 -19.328 -11.8319
      vertex 20.2267 -19.328 -5.47
      vertex 14.5151 -19.328 -11.512
    endloop
  endfacet
  facet normal 0 -1 0
    outer loop
      vertex 15.7461 -19.328 -11.9949
      vertex 20.2267 -19.328 -5.47
      vertex 15.3218 -19.328 -11.8319
    endloop
  endfacet
  facet normal 0 -1 0
    outer loop
      vertex 15.7742 -19.328 -12.0054
      vertex 20.2267 -19.328 -5.47
      vertex 15.7461 -19.328 -11.9949
    endloop
  endfacet
  facet normal 0 -1 0
    outer loop
      vertex 17.0286 -19.328 -12.3757
      vertex 20.2267 -19.328 -5.47
      vertex 15.7742 -19.328 -12.0054
    endloop
  endfacet
  facet normal 0 -1 0
    outer loop
      vertex 17.1466 -19.328 -12.4094
      vertex 20.2267 -19.328 -5.47
      vertex 17.0286 -19.328 -12.3757
    endloop
  endfacet
  facet normal 0 -1 0
    outer loop
      vertex 18.3759 -19.328 -12.668
      vertex 20.2267 -19.328 -5.47
      vertex 17.1466 -19.328 -12.4094
    endloop
  endfacet
  facet normal 0 -1 0
    outer loop
      vertex 18.5949 -19.328 -12.712
      vertex 20.2267 -19.328 -5.47
      vertex 18.3759 -19.328 -12.668
    endloop
  endfacet
  facet normal 0 -1 0
    outer loop
      vertex 19.7853 -19.328 -12.8646
      vertex 20.2267 -19.328 -5.47
      vertex 18.5949 -19.328 -12.712
    endloop
  endfacet
  facet normal 0 -1 0
    outer loop
      vertex 20.2267 -19.328 -12.9092
      vertex 19.7853 -19.328 -12.8646
      vertex 20.1154 -19.328 -12.9039
    endloop
  endfacet
  facet normal 0 -1 0
    outer loop
      vertex 19.7853 -19.328 -12.8646
      vertex 20.2267 -19.328 -12.9092
      vertex 20.2267 -19.328 -5.47
    endloop
  endfacet
  facet normal -0.140515 0.805821 -0.575246
    outer loop
      vertex 10.3242 -1.86728 -5.47
      vertex 11.1972 -2.04245 -5.92863
      vertex 10.1603 -1.89586 -5.47
    endloop
  endfacet
  facet normal -0.12321 0.826013 -0.550019
    outer loop
      vertex 11.5125 -1.69003 -5.47
      vertex 11.1972 -2.04245 -5.92863
      vertex 10.3242 -1.86728 -5.47
    endloop
  endfacet
  facet normal -0.173922 0.761937 -0.623861
    outer loop
      vertex 9.22873 -2.07844 -5.47
      vertex 10.8188 -2.4654 -6.38589
      vertex 8.95891 -2.14003 -5.47
    endloop
  endfacet
  facet normal -0.153985 0.785619 -0.599243
    outer loop
      vertex 10.8188 -2.4654 -6.38589
      vertex 10.1603 -1.89586 -5.47
      vertex 11.1972 -2.04245 -5.92863
    endloop
  endfacet
  facet normal -0.153976 0.785623 -0.599239
    outer loop
      vertex 10.1603 -1.89586 -5.47
      vertex 10.8188 -2.4654 -6.38589
      vertex 9.22873 -2.07844 -5.47
    endloop
  endfacet
  facet normal -0.209969 0.71447 -0.667417
    outer loop
      vertex 8.30843 -2.30454 -5.47
      vertex 10.4127 -2.91926 -6.79006
      vertex 7.98272 -2.40026 -5.47
    endloop
  endfacet
  facet normal -0.187528 0.741489 -0.644226
    outer loop
      vertex 10.4127 -2.91926 -6.79006
      vertex 8.95891 -2.14003 -5.47
      vertex 10.8188 -2.4654 -6.38589
    endloop
  endfacet
  facet normal -0.187527 0.74149 -0.644225
    outer loop
      vertex 8.95891 -2.14003 -5.47
      vertex 10.4127 -2.91926 -6.79006
      vertex 8.30843 -2.30454 -5.47
    endloop
  endfacet
  facet normal -0.248469 0.663623 -0.705597
    outer loop
      vertex 7.52629 -2.54745 -5.47
      vertex 9.98131 -3.40141 -7.13767
      vertex 7.17721 -2.67815 -5.47
    endloop
  endfacet
  facet normal -0.223729 0.69374 -0.684595
    outer loop
      vertex 9.98131 -3.40141 -7.13767
      vertex 7.98272 -2.40026 -5.47
      vertex 10.4127 -2.91926 -6.79006
    endloop
  endfacet
  facet normal -0.22372 0.693747 -0.68459
    outer loop
      vertex 7.98272 -2.40026 -5.47
      vertex 9.98131 -3.40141 -7.13767
      vertex 7.52629 -2.54745 -5.47
    endloop
  endfacet
  facet normal -0.289196 0.609662 -0.738023
    outer loop
      vertex 6.8554 -2.8096 -5.47
      vertex 9.52691 -3.90926 -7.42524
      vertex 6.50465 -2.97598 -5.47
    endloop
  endfacet
  facet normal -0.26245 0.642496 -0.719944
    outer loop
      vertex 9.52691 -3.90926 -7.42524
      vertex 7.17721 -2.67815 -5.47
      vertex 9.98131 -3.40141 -7.13767
    endloop
  endfacet
  facet normal -0.262444 0.642503 -0.71994
    outer loop
      vertex 7.17721 -2.67815 -5.47
      vertex 9.52691 -3.90926 -7.42524
      vertex 6.8554 -2.8096 -5.47
    endloop
  endfacet
  facet normal -0.33188 0.552915 -0.764291
    outer loop
      vertex 6.27574 -3.09415 -5.47
      vertex 9.05184 -4.44022 -7.64927
      vertex 5.93809 -3.29682 -5.47
    endloop
  endfacet
  facet normal -0.303523 0.58794 -0.7498
    outer loop
      vertex 9.05184 -4.44022 -7.64927
      vertex 6.50465 -2.97598 -5.47
      vertex 9.52691 -3.90926 -7.42524
    endloop
  endfacet
  facet normal -0.303516 0.587948 -0.749797
    outer loop
      vertex 6.50465 -2.97598 -5.47
      vertex 9.05184 -4.44022 -7.64927
      vertex 6.27574 -3.09415 -5.47
    endloop
  endfacet
  facet normal -0.376218 0.493796 -0.783981
    outer loop
      vertex 5.77218 -3.40525 -5.47
      vertex 8.55842 -4.99168 -7.80629
      vertex 5.45783 -3.64475 -5.47
    endloop
  endfacet
  facet normal -0.346652 0.53044 -0.773605
    outer loop
      vertex 8.55842 -4.99168 -7.80629
      vertex 5.93809 -3.29682 -5.47
      vertex 9.05184 -4.44022 -7.64927
    endloop
  endfacet
  facet normal -0.346661 0.530431 -0.773608
    outer loop
      vertex 5.93809 -3.29682 -5.47
      vertex 8.55842 -4.99168 -7.80629
      vertex 5.77218 -3.40525 -5.47
    endloop
  endfacet
  facet normal -0.413457 0.442815 -0.795593
    outer loop
      vertex 5.37233 -3.71309 -5.47
      vertex 8.22043 -5.36944 -7.87201
      vertex 5.17821 -3.89434 -5.47
    endloop
  endfacet
  facet normal -0.384579 0.481143 -0.787782
    outer loop
      vertex 8.22043 -5.36944 -7.87201
      vertex 5.45783 -3.64475 -5.47
      vertex 8.55842 -4.99168 -7.80629
    endloop
  endfacet
  facet normal -0.384578 0.481144 -0.787782
    outer loop
      vertex 5.45783 -3.64475 -5.47
      vertex 8.22043 -5.36944 -7.87201
      vertex 5.37233 -3.71309 -5.47
    endloop
  endfacet
  facet normal -0.452632 0.391692 -0.801063
    outer loop
      vertex 5.07191 -3.99883 -5.47
      vertex 7.70159 -5.94931 -7.90959
      vertex 4.81108 -4.30024 -5.47
    endloop
  endfacet
  facet normal -0.42213 0.429442 -0.798365
    outer loop
      vertex 7.70159 -5.94931 -7.90959
      vertex 5.17821 -3.89434 -5.47
      vertex 8.22043 -5.36944 -7.87201
    endloop
  endfacet
  facet normal -0.422129 0.429442 -0.798365
    outer loop
      vertex 5.17821 -3.89434 -5.47
      vertex 7.70159 -5.94931 -7.90959
      vertex 5.07191 -3.99883 -5.47
    endloop
  endfacet
  facet normal -0.498912 0.329777 -0.801457
    outer loop
      vertex 4.724 -4.41136 -5.47
      vertex 7.18275 -6.52918 -7.87201
      vertex 4.50582 -4.74144 -5.47
    endloop
  endfacet
  facet normal -0.468614 0.367224 -0.80346
    outer loop
      vertex 7.18275 -6.52918 -7.87201
      vertex 4.81108 -4.30024 -5.47
      vertex 7.70159 -5.94931 -7.90959
    endloop
  endfacet
  facet normal -0.468609 0.367229 -0.80346
    outer loop
      vertex 4.81108 -4.30024 -5.47
      vertex 7.18275 -6.52918 -7.87201
      vertex 4.724 -4.41136 -5.47
    endloop
  endfacet
  facet normal -0.544976 0.267856 -0.794515
    outer loop
      vertex 4.43055 -4.86893 -5.47
      vertex 6.67839 -7.09288 -7.76161
      vertex 4.25996 -5.21601 -5.47
    endloop
  endfacet
  facet normal -0.515498 0.304353 -0.801019
    outer loop
      vertex 4.43055 -4.86893 -5.47
      vertex 7.18275 -6.52918 -7.87201
      vertex 6.67839 -7.09288 -7.76161
    endloop
  endfacet
  facet normal -0.515499 0.30435 -0.801019
    outer loop
      vertex 7.18275 -6.52918 -7.87201
      vertex 4.43055 -4.86893 -5.47
      vertex 4.50582 -4.74144 -5.47
    endloop
  endfacet
  facet normal -0.590072 0.206956 -0.780374
    outer loop
      vertex 4.19132 -5.3755 -5.47
      vertex 6.19083 -7.63779 -7.58187
      vertex 4.06592 -5.73304 -5.47
    endloop
  endfacet
  facet normal -0.561904 0.241831 -0.791064
    outer loop
      vertex 4.19132 -5.3755 -5.47
      vertex 6.67839 -7.09288 -7.76161
      vertex 6.19083 -7.63779 -7.58187
    endloop
  endfacet
  facet normal -0.561905 0.241828 -0.791063
    outer loop
      vertex 6.67839 -7.09288 -7.76161
      vertex 4.19132 -5.3755 -5.47
      vertex 4.25996 -5.21601 -5.47
    endloop
  endfacet
  facet normal -0.633721 0.147739 -0.759323
    outer loop
      vertex 4.00281 -5.94548 -5.47
      vertex 5.72239 -8.16134 -7.33627
      vertex 3.91921 -6.30408 -5.47
    endloop
  endfacet
  facet normal -0.607282 0.180395 -0.773735
    outer loop
      vertex 4.00281 -5.94548 -5.47
      vertex 6.19083 -7.63779 -7.58187
      vertex 5.72239 -8.16134 -7.33627
    endloop
  endfacet
  facet normal -0.607276 0.180405 -0.773738
    outer loop
      vertex 6.19083 -7.63779 -7.58187
      vertex 4.00281 -5.94548 -5.47
      vertex 4.06592 -5.73304 -5.47
    endloop
  endfacet
  facet normal -0.675516 0.0907958 -0.731734
    outer loop
      vertex 3.8646 -6.59866 -5.47
      vertex 5.2754 -8.66091 -7.0283
      vertex 3.81814 -6.94432 -5.47
    endloop
  endfacet
  facet normal -0.651159 0.120716 -0.749279
    outer loop
      vertex 3.8646 -6.59866 -5.47
      vertex 5.72239 -8.16134 -7.33627
      vertex 5.2754 -8.66091 -7.0283
    endloop
  endfacet
  facet normal -0.65116 0.120714 -0.749279
    outer loop
      vertex 5.72239 -8.16134 -7.33627
      vertex 3.8646 -6.59866 -5.47
      vertex 3.91921 -6.30408 -5.47
    endloop
  endfacet
  facet normal -0.715164 0.0365672 -0.698
    outer loop
      vertex 3.77986 -7.36327 -5.47
      vertex 4.85218 -9.13392 -6.66145
      vertex 3.76395 -7.67443 -5.47
    endloop
  endfacet
  facet normal -0.693161 0.0633462 -0.717994
    outer loop
      vertex 3.77986 -7.36327 -5.47
      vertex 5.2754 -8.66091 -7.0283
      vertex 4.85218 -9.13392 -6.66145
    endloop
  endfacet
  facet normal -0.693166 0.0633355 -0.71799
    outer loop
      vertex 5.2754 -8.66091 -7.0283
      vertex 3.77986 -7.36327 -5.47
      vertex 3.81814 -6.94432 -5.47
    endloop
  endfacet
  facet normal -0.752486 -0.0146723 -0.658445
    outer loop
      vertex 4.45506 -9.57776 -6.23919
      vertex 3.76144 -8.52341 -5.47
      vertex 3.75672 -8.28134 -5.47
    endloop
  endfacet
  facet normal -0.732989 0.00873196 -0.680184
    outer loop
      vertex 4.85218 -9.13392 -6.66145
      vertex 3.75672 -8.28134 -5.47
      vertex 3.76395 -7.67443 -5.47
    endloop
  endfacet
  facet normal -0.732992 0.00872482 -0.680181
    outer loop
      vertex 3.75672 -8.28134 -5.47
      vertex 4.85218 -9.13392 -6.66145
      vertex 4.45506 -9.57776 -6.23919
    endloop
  endfacet
  facet normal -0.787218 -0.0625123 -0.613498
    outer loop
      vertex 4.08635 -9.98984 -5.76502
      vertex 3.8202 -9.53355 -5.47
      vertex 3.81106 -9.41845 -5.47
    endloop
  endfacet
  facet normal -0.770381 -0.0427091 -0.636152
    outer loop
      vertex 4.45506 -9.57776 -6.23919
      vertex 3.81106 -9.41845 -5.47
      vertex 3.76144 -8.52341 -5.47
    endloop
  endfacet
  facet normal -0.770381 -0.0427036 -0.636152
    outer loop
      vertex 3.81106 -9.41845 -5.47
      vertex 4.45506 -9.57776 -6.23919
      vertex 4.08635 -9.98984 -5.76502
    endloop
  endfacet
  facet normal -0.805106 -0.0906173 -0.586168
    outer loop
      vertex 4.08635 -9.98984 -5.76502
      vertex 3.89556 -10.2031 -5.47
      vertex 3.8202 -9.53355 -5.47
    endloop
  endfacet
  facet normal 0.234197 0.809462 -0.538445
    outer loop
      vertex 14.9928 -2.60533 -5.47
      vertex 15.999 -3.17757 -5.89262
      vertex 14.2912 -2.40234 -5.47
    endloop
  endfacet
  facet normal 0.241132 0.814129 -0.528252
    outer loop
      vertex 16.2115 -2.96629 -5.47
      vertex 15.999 -3.17757 -5.89262
      vertex 14.9928 -2.60533 -5.47
    endloop
  endfacet
  facet normal 0.197057 0.771102 -0.605451
    outer loop
      vertex 13.1864 -2.11013 -5.47
      vertex 15.5921 -3.5822 -6.56184
      vertex 11.7168 -1.73457 -5.47
    endloop
  endfacet
  facet normal 0.205555 0.777113 -0.594847
    outer loop
      vertex 15.5921 -3.5822 -6.56184
      vertex 14.2912 -2.40234 -5.47
      vertex 15.999 -3.17757 -5.89262
    endloop
  endfacet
  facet normal 0.205538 0.777107 -0.594861
    outer loop
      vertex 14.2912 -2.40234 -5.47
      vertex 15.5921 -3.5822 -6.56184
      vertex 13.1864 -2.11013 -5.47
    endloop
  endfacet
  facet normal 0.155862 0.728572 -0.667001
    outer loop
      vertex 11.6446 -1.71829 -5.47
      vertex 11.1972 -2.04245 -5.92863
      vertex 11.5125 -1.69003 -5.47
    endloop
  endfacet
  facet normal 0.155886 0.728556 -0.667013
    outer loop
      vertex 11.1972 -2.04245 -5.92863
      vertex 11.6446 -1.71829 -5.47
      vertex 15.1436 -4.02817 -7.17526
    endloop
  endfacet
  facet normal 0.165948 0.73595 -0.656384
    outer loop
      vertex 15.1436 -4.02817 -7.17526
      vertex 11.7168 -1.73457 -5.47
      vertex 15.5921 -3.5822 -6.56184
    endloop
  endfacet
  facet normal 0.165945 0.735948 -0.656386
    outer loop
      vertex 11.7168 -1.73457 -5.47
      vertex 15.1436 -4.02817 -7.17526
      vertex 11.6446 -1.71829 -5.47
    endloop
  endfacet
  facet normal 0.110966 0.682123 -0.722769
    outer loop
      vertex 11.1972 -2.04245 -5.92863
      vertex 14.6565 -4.51249 -7.72866
      vertex 10.8188 -2.4654 -6.38589
    endloop
  endfacet
  facet normal 0.122556 0.690877 -0.712509
    outer loop
      vertex 15.1436 -4.02817 -7.17526
      vertex 14.6565 -4.51249 -7.72866
      vertex 11.1972 -2.04245 -5.92863
    endloop
  endfacet
  facet normal 0.0624706 0.631988 -0.772456
    outer loop
      vertex 10.8188 -2.4654 -6.38589
      vertex 14.1339 -5.03219 -8.21782
      vertex 10.4127 -2.91926 -6.79006
    endloop
  endfacet
  facet normal 0.0755659 0.642083 -0.762902
    outer loop
      vertex 14.6565 -4.51249 -7.72866
      vertex 14.1339 -5.03219 -8.21782
      vertex 10.8188 -2.4654 -6.38589
    endloop
  endfacet
  facet normal 0.0107151 0.578457 -0.815642
    outer loop
      vertex 10.4127 -2.91926 -6.79006
      vertex 13.5786 -5.58429 -8.63852
      vertex 9.98131 -3.40141 -7.13767
    endloop
  endfacet
  facet normal 0.0251683 0.589761 -0.807186
    outer loop
      vertex 14.1339 -5.03219 -8.21782
      vertex 13.5786 -5.58429 -8.63852
      vertex 10.4127 -2.91926 -6.79006
    endloop
  endfacet
  facet normal -0.0440322 0.521803 -0.851929
    outer loop
      vertex 9.98131 -3.40141 -7.13767
      vertex 12.9938 -6.16582 -8.98656
      vertex 9.52691 -3.90926 -7.42524
    endloop
  endfacet
  facet normal -0.0283581 0.534179 -0.844895
    outer loop
      vertex 13.5786 -5.58429 -8.63852
      vertex 12.9938 -6.16582 -8.98656
      vertex 9.98131 -3.40141 -7.13767
    endloop
  endfacet
  facet normal -0.10141 0.462398 -0.880854
    outer loop
      vertex 9.52691 -3.90926 -7.42524
      vertex 12.3823 -6.77382 -9.2577
      vertex 9.05184 -4.44022 -7.64927
    endloop
  endfacet
  facet normal -0.0847088 0.47565 -0.875547
    outer loop
      vertex 12.9938 -6.16582 -8.98656
      vertex 12.3823 -6.77382 -9.2577
      vertex 9.52691 -3.90926 -7.42524
    endloop
  endfacet
  facet normal -0.16091 0.400786 -0.90193
    outer loop
      vertex 9.05184 -4.44022 -7.64927
      vertex 11.7473 -7.40529 -9.44773
      vertex 8.55842 -4.99168 -7.80629
    endloop
  endfacet
  facet normal -0.143434 0.414655 -0.898603
    outer loop
      vertex 12.3823 -6.77382 -9.2577
      vertex 11.7473 -7.40529 -9.44773
      vertex 9.05184 -4.44022 -7.64927
    endloop
  endfacet
  facet normal -0.211251 0.34792 -0.913414
    outer loop
      vertex 8.55842 -4.99168 -7.80629
      vertex 11.3122 -7.83785 -9.52728
      vertex 8.22043 -5.36944 -7.87201
    endloop
  endfacet
  facet normal -0.194302 0.363035 -0.911292
    outer loop
      vertex 11.7473 -7.40529 -9.44773
      vertex 11.3122 -7.83785 -9.52728
      vertex 8.55842 -4.99168 -7.80629
    endloop
  endfacet
  facet normal -0.263202 0.295028 -0.918522
    outer loop
      vertex 8.22043 -5.36944 -7.87201
      vertex 10.6445 -8.50185 -9.57275
      vertex 7.70159 -5.94931 -7.90959
    endloop
  endfacet
  facet normal -0.245006 0.309294 -0.918863
    outer loop
      vertex 11.3122 -7.83785 -9.52728
      vertex 10.6445 -8.50185 -9.57275
      vertex 8.22043 -5.36944 -7.87201
    endloop
  endfacet
  facet normal -0.324964 0.231333 -0.916997
    outer loop
      vertex 7.70159 -5.94931 -7.90959
      vertex 9.97668 -9.16586 -9.52728
      vertex 7.18275 -6.52918 -7.87201
    endloop
  endfacet
  facet normal -0.306736 0.245525 -0.919581
    outer loop
      vertex 10.6445 -8.50185 -9.57275
      vertex 9.97668 -9.16586 -9.52728
      vertex 7.70159 -5.94931 -7.90959
    endloop
  endfacet
  facet normal -0.386313 0.168024 -0.906934
    outer loop
      vertex 7.18275 -6.52918 -7.87201
      vertex 9.32753 -9.81133 -9.39366
      vertex 6.67839 -7.09288 -7.76161
    endloop
  endfacet
  facet normal -0.368491 0.181865 -0.911669
    outer loop
      vertex 9.97668 -9.16586 -9.52728
      vertex 9.32753 -9.81133 -9.39366
      vertex 7.18275 -6.52918 -7.87201
    endloop
  endfacet
  facet normal -0.44623 0.106159 -0.8886
    outer loop
      vertex 6.67839 -7.09288 -7.76161
      vertex 8.70001 -10.4353 -9.17612
      vertex 6.19083 -7.63779 -7.58187
    endloop
  endfacet
  facet normal -0.429088 0.119379 -0.895339
    outer loop
      vertex 9.32753 -9.81133 -9.39366
      vertex 8.70001 -10.4353 -9.17612
      vertex 6.67839 -7.09288 -7.76161
    endloop
  endfacet
  facet normal -0.504052 0.046427 -0.862424
    outer loop
      vertex 6.19083 -7.63779 -7.58187
      vertex 8.0971 -11.0348 -8.87888
      vertex 5.72239 -8.16134 -7.33627
    endloop
  endfacet
  facet normal -0.487838 0.0587825 -0.870953
    outer loop
      vertex 8.70001 -10.4353 -9.17612
      vertex 8.0971 -11.0348 -8.87888
      vertex 6.19083 -7.63779 -7.58187
    endloop
  endfacet
  facet normal -0.559256 -0.0106144 -0.828927
    outer loop
      vertex 5.72239 -8.16134 -7.33627
      vertex 7.52179 -11.6069 -8.50616
      vertex 5.2754 -8.66091 -7.0283
    endloop
  endfacet
  facet normal -0.544188 0.000662169 -0.838963
    outer loop
      vertex 8.0971 -11.0348 -8.87888
      vertex 7.52179 -11.6069 -8.50616
      vertex 5.72239 -8.16134 -7.33627
    endloop
  endfacet
  facet normal -0.611451 -0.0645564 -0.788644
    outer loop
      vertex 5.2754 -8.66091 -7.0283
      vertex 6.97708 -12.1485 -8.06216
      vertex 4.85218 -9.13392 -6.66145
    endloop
  endfacet
  facet normal -0.597729 -0.0545422 -0.799841
    outer loop
      vertex 7.52179 -11.6069 -8.50616
      vertex 6.97708 -12.1485 -8.06216
      vertex 5.2754 -8.66091 -7.0283
    endloop
  endfacet
  facet normal -0.660379 -0.115112 -0.742057
    outer loop
      vertex 4.85218 -9.13392 -6.66145
      vertex 6.46595 -12.6567 -7.55112
      vertex 4.45506 -9.57776 -6.23919
    endloop
  endfacet
  facet normal -0.648102 -0.106452 -0.754077
    outer loop
      vertex 6.97708 -12.1485 -8.06216
      vertex 6.46595 -12.6567 -7.55112
      vertex 4.85218 -9.13392 -6.66145
    endloop
  endfacet
  facet normal -0.705796 -0.162032 -0.689635
    outer loop
      vertex 4.45506 -9.57776 -6.23919
      vertex 5.9914 -13.1286 -6.97725
      vertex 4.08635 -9.98984 -5.76502
    endloop
  endfacet
  facet normal -0.695072 -0.154807 -0.702075
    outer loop
      vertex 6.46595 -12.6567 -7.55112
      vertex 5.9914 -13.1286 -6.97725
      vertex 4.45506 -9.57776 -6.23919
    endloop
  endfacet
  facet normal -0.747539 -0.20516 -0.631739
    outer loop
      vertex 4.08635 -9.98984 -5.76502
      vertex 4.12165 -11.0269 -5.47
      vertex 3.89556 -10.2031 -5.47
    endloop
  endfacet
  facet normal -0.747536 -0.205161 -0.631742
    outer loop
      vertex 4.12165 -11.0269 -5.47
      vertex 4.08635 -9.98984 -5.76502
      vertex 5.55642 -13.5611 -6.34476
    endloop
  endfacet
  facet normal -0.738427 -0.199392 -0.644181
    outer loop
      vertex 5.9914 -13.1286 -6.97725
      vertex 5.55642 -13.5611 -6.34476
      vertex 4.08635 -9.98984 -5.76502
    endloop
  endfacet
  facet normal -0.785411 -0.24431 -0.56872
    outer loop
      vertex 5.164 -13.9513 -5.65788
      vertex 4.83516 -13.3315 -5.47
      vertex 4.52382 -12.3306 -5.47
    endloop
  endfacet
  facet normal -0.777927 -0.239978 -0.580725
    outer loop
      vertex 5.55642 -13.5611 -6.34476
      vertex 4.52382 -12.3306 -5.47
      vertex 4.12165 -11.0269 -5.47
    endloop
  endfacet
  facet normal -0.777918 -0.239956 -0.580744
    outer loop
      vertex 4.52382 -12.3306 -5.47
      vertex 5.55642 -13.5611 -6.34476
      vertex 5.164 -13.9513 -5.65788
    endloop
  endfacet
  facet normal -0.813316 -0.2763 -0.51203
    outer loop
      vertex 5.164 -13.9513 -5.65788
      vertex 5.07558 -14.0392 -5.47
      vertex 4.83516 -13.3315 -5.47
    endloop
  endfacet
  facet normal 0.33134 0.818492 -0.469346
    outer loop
      vertex 20.2267 -4.77616 -5.85932
      vertex 19.4559 -4.24088 -5.47
      vertex 20.2267 -4.72247 -5.76569
    endloop
  endfacet
  facet normal 0.331318 0.818483 -0.469377
    outer loop
      vertex 19.4559 -4.24088 -5.47
      vertex 20.2267 -4.77616 -5.85932
      vertex 18.0378 -3.66684 -5.47
    endloop
  endfacet
  facet normal 0.337677 0.82201 -0.458556
    outer loop
      vertex 20.2267 -4.55752 -5.47
      vertex 20.2267 -4.72247 -5.76569
      vertex 19.4559 -4.24088 -5.47
    endloop
  endfacet
  facet normal 0.298045 0.785402 -0.542507
    outer loop
      vertex 17.0853 -3.29788 -5.47
      vertex 15.999 -3.17757 -5.89262
      vertex 16.2115 -2.96629 -5.47
    endloop
  endfacet
  facet normal 0.29579 0.784016 -0.545736
    outer loop
      vertex 20.2267 -5.38524 -6.7661
      vertex 17.0853 -3.29788 -5.47
      vertex 20.2267 -5.38382 -6.76406
    endloop
  endfacet
  facet normal 0.298044 0.785403 -0.542506
    outer loop
      vertex 17.0853 -3.29788 -5.47
      vertex 20.2267 -5.38524 -6.7661
      vertex 15.999 -3.17757 -5.89262
    endloop
  endfacet
  facet normal 0.306107 0.790291 -0.530791
    outer loop
      vertex 20.2267 -5.38382 -6.76406
      vertex 18.0378 -3.66684 -5.47
      vertex 20.2267 -4.77616 -5.85932
    endloop
  endfacet
  facet normal 0.30613 0.7903 -0.530764
    outer loop
      vertex 18.0378 -3.66684 -5.47
      vertex 20.2267 -5.38382 -6.76406
      vertex 17.0853 -3.29788 -5.47
    endloop
  endfacet
  facet normal 0.260422 0.747928 -0.610561
    outer loop
      vertex 15.999 -3.17757 -5.89262
      vertex 19.7368 -5.82126 -7.53682
      vertex 15.5921 -3.5822 -6.56184
    endloop
  endfacet
  facet normal 0.269748 0.754498 -0.598305
    outer loop
      vertex 19.7368 -5.82126 -7.53682
      vertex 20.2267 -5.38524 -6.7661
      vertex 20.2267 -5.39903 -6.78349
    endloop
  endfacet
  facet normal 0.270207 0.754225 -0.598442
    outer loop
      vertex 20.2267 -5.38524 -6.7661
      vertex 19.7368 -5.82126 -7.53682
      vertex 15.999 -3.17757 -5.89262
    endloop
  endfacet
  facet normal 0.218655 0.706263 -0.673337
    outer loop
      vertex 15.5921 -3.5822 -6.56184
      vertex 19.186 -6.29609 -8.24138
      vertex 15.1436 -4.02817 -7.17526
    endloop
  endfacet
  facet normal 0.230204 0.714035 -0.661181
    outer loop
      vertex 19.7368 -5.82126 -7.53682
      vertex 19.186 -6.29609 -8.24138
      vertex 15.5921 -3.5822 -6.56184
    endloop
  endfacet
  facet normal 0.173021 0.660655 -0.730479
    outer loop
      vertex 15.1436 -4.02817 -7.17526
      vertex 18.5877 -6.81175 -8.877
      vertex 14.6565 -4.51249 -7.72866
    endloop
  endfacet
  facet normal 0.186252 0.669856 -0.718751
    outer loop
      vertex 19.186 -6.29609 -8.24138
      vertex 18.5877 -6.81175 -8.877
      vertex 15.1436 -4.02817 -7.17526
    endloop
  endfacet
  facet normal 0.123737 0.611302 -0.781664
    outer loop
      vertex 14.6565 -4.51249 -7.72866
      vertex 17.9458 -7.36508 -9.43884
      vertex 14.1339 -5.03219 -8.21782
    endloop
  endfacet
  facet normal 0.138568 0.621869 -0.770764
    outer loop
      vertex 18.5877 -6.81175 -8.877
      vertex 17.9458 -7.36508 -9.43884
      vertex 14.6565 -4.51249 -7.72866
    endloop
  endfacet
  facet normal 0.0710191 0.558388 -0.826534
    outer loop
      vertex 14.1339 -5.03219 -8.21782
      vertex 17.2638 -7.95291 -9.92206
      vertex 13.5786 -5.58429 -8.63852
    endloop
  endfacet
  facet normal 0.087307 0.570196 -0.816856
    outer loop
      vertex 17.9458 -7.36508 -9.43884
      vertex 17.2638 -7.95291 -9.92206
      vertex 14.1339 -5.03219 -8.21782
    endloop
  endfacet
  facet normal 0.0151853 0.502196 -0.86462
    outer loop
      vertex 13.5786 -5.58429 -8.63852
      vertex 16.5455 -8.57207 -10.3218
      vertex 12.9938 -6.16582 -8.98656
    endloop
  endfacet
  facet normal 0.0327113 0.515046 -0.856538
    outer loop
      vertex 17.2638 -7.95291 -9.92206
      vertex 16.5455 -8.57207 -10.3218
      vertex 13.5786 -5.58429 -8.63852
    endloop
  endfacet
  facet normal -0.0434439 0.443026 -0.895456
    outer loop
      vertex 12.9938 -6.16582 -8.98656
      vertex 15.7945 -9.21941 -10.6332
      vertex 12.3823 -6.77382 -9.2577
    endloop
  endfacet
  facet normal -0.0249156 0.456688 -0.889278
    outer loop
      vertex 16.5455 -8.57207 -10.3218
      vertex 15.7945 -9.21941 -10.6332
      vertex 12.9938 -6.16582 -8.98656
    endloop
  endfacet
  facet normal -0.104393 0.381384 -0.918503
    outer loop
      vertex 12.3823 -6.77382 -9.2577
      vertex 15.0145 -9.89175 -10.8515
      vertex 11.7473 -7.40529 -9.44773
    endloop
  endfacet
  facet normal -0.0850825 0.395621 -0.914464
    outer loop
      vertex 15.7945 -9.21941 -10.6332
      vertex 15.0145 -9.89175 -10.8515
      vertex 12.3823 -6.77382 -9.2577
    endloop
  endfacet
  facet normal -0.155879 0.328135 -0.931681
    outer loop
      vertex 11.7473 -7.40529 -9.44773
      vertex 14.4802 -10.3523 -10.9429
      vertex 11.3122 -7.83785 -9.52728
    endloop
  endfacet
  facet normal -0.137456 0.34382 -0.928921
    outer loop
      vertex 15.0145 -9.89175 -10.8515
      vertex 14.4802 -10.3523 -10.9429
      vertex 11.7473 -7.40529 -9.44773
    endloop
  endfacet
  facet normal -0.209469 0.274895 -0.938379
    outer loop
      vertex 11.3122 -7.83785 -9.52728
      vertex 13.6601 -11.0593 -10.9951
      vertex 10.6445 -8.50185 -9.57275
    endloop
  endfacet
  facet normal -0.189663 0.289279 -0.938267
    outer loop
      vertex 14.4802 -10.3523 -10.9429
      vertex 13.6601 -11.0593 -10.9951
      vertex 11.3122 -7.83785 -9.52728
    endloop
  endfacet
  facet normal -0.273071 0.210357 -0.938713
    outer loop
      vertex 10.6445 -8.50185 -9.57275
      vertex 12.8399 -11.7662 -10.9429
      vertex 9.97668 -9.16586 -9.52728
    endloop
  endfacet
  facet normal -0.253395 0.224526 -0.940946
    outer loop
      vertex 13.6601 -11.0593 -10.9951
      vertex 12.8399 -11.7662 -10.9429
      vertex 10.6445 -8.50185 -9.57275
    endloop
  endfacet
  facet normal -0.336431 0.145754 -0.93036
    outer loop
      vertex 9.97668 -9.16586 -9.52728
      vertex 12.0426 -12.4535 -10.7894
      vertex 9.32753 -9.81133 -9.39366
    endloop
  endfacet
  facet normal -0.317396 0.159419 -0.934797
    outer loop
      vertex 12.8399 -11.7662 -10.9429
      vertex 12.0426 -12.4535 -10.7894
      vertex 9.97668 -9.16586 -9.52728
    endloop
  endfacet
  facet normal -0.398461 0.0822502 -0.91349
    outer loop
      vertex 9.32753 -9.81133 -9.39366
      vertex 11.2719 -13.1178 -10.5395
      vertex 8.70001 -10.4353 -9.17612
    endloop
  endfacet
  facet normal -0.380315 0.0951588 -0.919948
    outer loop
      vertex 12.0426 -12.4535 -10.7894
      vertex 11.2719 -13.1178 -10.5395
      vertex 9.32753 -9.81133 -9.39366
    endloop
  endfacet
  facet normal -0.458482 0.0205775 -0.888465
    outer loop
      vertex 8.70001 -10.4353 -9.17612
      vertex 10.5314 -13.7561 -10.1981
      vertex 8.0971 -11.0348 -8.87888
    endloop
  endfacet
  facet normal -0.44144 0.0325113 -0.896702
    outer loop
      vertex 11.2719 -13.1178 -10.5395
      vertex 10.5314 -13.7561 -10.1981
      vertex 8.70001 -10.4353 -9.17612
    endloop
  endfacet
  facet normal -0.515948 -0.0386706 -0.855746
    outer loop
      vertex 8.0971 -11.0348 -8.87888
      vertex 9.82475 -14.3652 -9.77002
      vertex 7.52179 -11.6069 -8.50616
    endloop
  endfacet
  facet normal -0.500218 -0.0279141 -0.865449
    outer loop
      vertex 10.5314 -13.7561 -10.1981
      vertex 9.82475 -14.3652 -9.77002
      vertex 8.0971 -11.0348 -8.87888
    endloop
  endfacet
  facet normal -0.570454 -0.0950654 -0.815809
    outer loop
      vertex 7.52179 -11.6069 -8.50616
      vertex 9.15572 -14.9419 -9.26006
      vertex 6.97708 -12.1485 -8.06216
    endloop
  endfacet
  facet normal -0.556231 -0.0856574 -0.826602
    outer loop
      vertex 9.82475 -14.3652 -9.77002
      vertex 9.15572 -14.9419 -9.26006
      vertex 7.52179 -11.6069 -8.50616
    endloop
  endfacet
  facet normal -0.621649 -0.148211 -0.769146
    outer loop
      vertex 6.97708 -12.1485 -8.06216
      vertex 8.52795 -15.483 -8.67308
      vertex 6.46595 -12.6567 -7.55112
    endloop
  endfacet
  facet normal -0.60904 -0.140241 -0.780642
    outer loop
      vertex 9.15572 -14.9419 -9.26006
      vertex 8.52795 -15.483 -8.67308
      vertex 6.97708 -12.1485 -8.06216
    endloop
  endfacet
  facet normal -0.669309 -0.197842 -0.716159
    outer loop
      vertex 6.46595 -12.6567 -7.55112
      vertex 7.9451 -15.9854 -8.01394
      vertex 5.9914 -13.1286 -6.97725
    endloop
  endfacet
  facet normal -0.658353 -0.191329 -0.727986
    outer loop
      vertex 8.52795 -15.483 -8.67308
      vertex 7.9451 -15.9854 -8.01394
      vertex 6.46595 -12.6567 -7.55112
    endloop
  endfacet
  facet normal -0.71324 -0.243732 -0.657179
    outer loop
      vertex 5.9914 -13.1286 -6.97725
      vertex 7.41085 -16.4459 -7.28748
      vertex 5.55642 -13.5611 -6.34476
    endloop
  endfacet
  facet normal -0.703939 -0.23865 -0.668967
    outer loop
      vertex 7.9451 -15.9854 -8.01394
      vertex 7.41085 -16.4459 -7.28748
      vertex 5.9914 -13.1286 -6.97725
    endloop
  endfacet
  facet normal -0.753195 -0.285613 -0.592556
    outer loop
      vertex 5.55642 -13.5611 -6.34476
      vertex 6.92888 -16.8614 -6.49854
      vertex 5.164 -13.9513 -5.65788
    endloop
  endfacet
  facet normal -0.745534 -0.281897 -0.603915
    outer loop
      vertex 7.41085 -16.4459 -7.28748
      vertex 6.92888 -16.8614 -6.49854
      vertex 5.55642 -13.5611 -6.34476
    endloop
  endfacet
  facet normal -0.788967 -0.323247 -0.522535
    outer loop
      vertex 5.164 -13.9513 -5.65788
      vertex 6.0833 -16.4988 -5.47
      vertex 5.07558 -14.0392 -5.47
    endloop
  endfacet
  facet normal -0.788931 -0.323238 -0.522595
    outer loop
      vertex 6.0833 -16.4988 -5.47
      vertex 5.164 -13.9513 -5.65788
      vertex 6.50285 -17.2286 -5.65197
    endloop
  endfacet
  facet normal -0.782872 -0.320782 -0.533114
    outer loop
      vertex 6.92888 -16.8614 -6.49854
      vertex 6.50285 -17.2286 -5.65197
      vertex 5.164 -13.9513 -5.65788
    endloop
  endfacet
  facet normal -0.815608 -0.354944 -0.456944
    outer loop
      vertex 6.50285 -17.2286 -5.65197
      vertex 6.42871 -17.2925 -5.47
      vertex 6.0833 -16.4988 -5.47
    endloop
  endfacet
  facet normal 0.46645 0.606904 -0.643499
    outer loop
      vertex 20.2267 -5.39903 -6.78349
      vertex 20.2267 -6.28441 -7.61852
      vertex 19.7368 -5.82126 -7.53682
    endloop
  endfacet
  facet normal 0.41709 0.568422 -0.709177
    outer loop
      vertex 19.186 -6.29609 -8.24138
      vertex 20.2267 -6.38472 -7.70035
      vertex 20.2267 -7.30105 -8.43481
    endloop
  endfacet
  facet normal 0.417083 0.568448 -0.70916
    outer loop
      vertex 20.2267 -6.38472 -7.70035
      vertex 19.186 -6.29609 -8.24138
      vertex 19.7368 -5.82126 -7.53682
    endloop
  endfacet
  facet normal 0.424158 0.572439 -0.701715
    outer loop
      vertex 20.2267 -6.28441 -7.61852
      vertex 20.2267 -6.38472 -7.70035
      vertex 19.7368 -5.82126 -7.53682
    endloop
  endfacet
  facet normal 0.363113 0.526387 -0.768808
    outer loop
      vertex 18.5877 -6.81175 -8.877
      vertex 20.2267 -7.54288 -8.60348
      vertex 20.2267 -8.43172 -9.21205
    endloop
  endfacet
  facet normal 0.363108 0.526373 -0.76882
    outer loop
      vertex 20.2267 -7.54288 -8.60348
      vertex 18.5877 -6.81175 -8.877
      vertex 19.186 -6.29609 -8.24138
    endloop
  endfacet
  facet normal 0.371372 0.531159 -0.761547
    outer loop
      vertex 20.2267 -7.30105 -8.43481
      vertex 20.2267 -7.54288 -8.60348
      vertex 19.186 -6.29609 -8.24138
    endloop
  endfacet
  facet normal 0.304859 0.480976 -0.822024
    outer loop
      vertex 17.9458 -7.36508 -9.43884
      vertex 20.2267 -8.86022 -9.46776
      vertex 20.2267 -9.67779 -9.94613
    endloop
  endfacet
  facet normal 0.304868 0.480989 -0.822013
    outer loop
      vertex 20.2267 -8.86022 -9.46776
      vertex 17.9458 -7.36508 -9.43884
      vertex 18.5877 -6.81175 -8.877
    endloop
  endfacet
  facet normal 0.314194 0.486495 -0.815233
    outer loop
      vertex 20.2267 -8.43172 -9.21205
      vertex 20.2267 -8.86022 -9.46776
      vertex 18.5877 -6.81175 -8.877
    endloop
  endfacet
  facet normal 0.242621 0.432455 -0.868399
    outer loop
      vertex 17.2638 -7.95291 -9.92206
      vertex 20.2267 -10.3444 -10.2852
      vertex 20.2267 -11.0414 -10.6323
    endloop
  endfacet
  facet normal 0.242592 0.432423 -0.868423
    outer loop
      vertex 20.2267 -10.3444 -10.2852
      vertex 17.2638 -7.95291 -9.92206
      vertex 17.9458 -7.36508 -9.43884
    endloop
  endfacet
  facet normal 0.252952 0.438625 -0.862336
    outer loop
      vertex 20.2267 -9.67779 -9.94613
      vertex 20.2267 -10.3444 -10.2852
      vertex 17.9458 -7.36508 -9.43884
    endloop
  endfacet
  facet normal 0.176625 0.380943 -0.907572
    outer loop
      vertex 16.5455 -8.57207 -10.3218
      vertex 20.2267 -12.0047 -11.0462
      vertex 20.2267 -12.5255 -11.2648
    endloop
  endfacet
  facet normal 0.176663 0.380979 -0.907549
    outer loop
      vertex 20.2267 -12.0047 -11.0462
      vertex 16.5455 -8.57207 -10.3218
      vertex 17.2638 -7.95291 -9.92206
    endloop
  endfacet
  facet normal 0.187857 0.387743 -0.902422
    outer loop
      vertex 20.2267 -11.0414 -10.6323
      vertex 20.2267 -12.0047 -11.0462
      vertex 17.2638 -7.95291 -9.92206
    endloop
  endfacet
  facet normal 0.107456 0.326941 -0.938916
    outer loop
      vertex 15.7945 -9.21941 -10.6332
      vertex 20.2267 -13.8518 -11.739
      vertex 20.2267 -14.1341 -11.8373
    endloop
  endfacet
  facet normal 0.107482 0.326963 -0.938905
    outer loop
      vertex 20.2267 -13.8518 -11.739
      vertex 15.7945 -9.21941 -10.6332
      vertex 16.5455 -8.57207 -10.3218
    endloop
  endfacet
  facet normal 0.119487 0.334253 -0.934879
    outer loop
      vertex 20.2267 -12.5255 -11.2648
      vertex 20.2267 -13.8518 -11.739
      vertex 16.5455 -8.57207 -10.3218
    endloop
  endfacet
  facet normal 0.0357186 0.270893 -0.961946
    outer loop
      vertex 15.7945 -9.21941 -10.6332
      vertex 20.1523 -15.7867 -12.3208
      vertex 15.0145 -9.89175 -10.8515
    endloop
  endfacet
  facet normal 0.0483431 0.278465 -0.959229
    outer loop
      vertex 20.1523 -15.7867 -12.3208
      vertex 20.2267 -14.1341 -11.8373
      vertex 20.2267 -15.7321 -12.3012
    endloop
  endfacet
  facet normal 0.0481914 0.278473 -0.959234
    outer loop
      vertex 20.2267 -14.1341 -11.8373
      vertex 20.1523 -15.7867 -12.3208
      vertex 15.7945 -9.21941 -10.6332
    endloop
  endfacet
  facet normal -0.0253737 0.22284 -0.974525
    outer loop
      vertex 15.0145 -9.89175 -10.8515
      vertex 19.5071 -16.2597 -12.4246
      vertex 14.4802 -10.3523 -10.9429
    endloop
  endfacet
  facet normal -0.0129661 0.231174 -0.972826
    outer loop
      vertex 20.1523 -15.7867 -12.3208
      vertex 19.5071 -16.2597 -12.4246
      vertex 15.0145 -9.89175 -10.8515
    endloop
  endfacet
  facet normal -0.0878858 0.174357 -0.980753
    outer loop
      vertex 14.4802 -10.3523 -10.9429
      vertex 18.5166 -16.9858 -12.4839
      vertex 13.6601 -11.0593 -10.9951
    endloop
  endfacet
  facet normal -0.0748674 0.182198 -0.980407
    outer loop
      vertex 19.5071 -16.2597 -12.4246
      vertex 18.5166 -16.9858 -12.4839
      vertex 14.4802 -10.3523 -10.9429
    endloop
  endfacet
  facet normal -0.162457 0.116139 -0.979857
    outer loop
      vertex 13.6601 -11.0593 -10.9951
      vertex 17.5262 -17.7119 -12.4246
      vertex 12.8399 -11.7662 -10.9429
    endloop
  endfacet
  facet normal -0.149553 0.123876 -0.980963
    outer loop
      vertex 18.5166 -16.9858 -12.4839
      vertex 17.5262 -17.7119 -12.4246
      vertex 13.6601 -11.0593 -10.9951
    endloop
  endfacet
  facet normal -0.23678 0.0580766 -0.969826
    outer loop
      vertex 12.8399 -11.7662 -10.9429
      vertex 16.5634 -18.4178 -12.2503
      vertex 12.0426 -12.4535 -10.7894
    endloop
  endfacet
  facet normal -0.224152 0.0656394 -0.972341
    outer loop
      vertex 17.5262 -17.7119 -12.4246
      vertex 16.5634 -18.4178 -12.2503
      vertex 12.8399 -11.7662 -10.9429
    endloop
  endfacet
  facet normal -0.309441 0.00128274 -0.950918
    outer loop
      vertex 12.0426 -12.4535 -10.7894
      vertex 15.6326 -19.1001 -11.9666
      vertex 11.2719 -13.1178 -10.5395
    endloop
  endfacet
  facet normal -0.297263 0.00854083 -0.954758
    outer loop
      vertex 16.5634 -18.4178 -12.2503
      vertex 15.6326 -19.1001 -11.9666
      vertex 12.0426 -12.4535 -10.7894
    endloop
  endfacet
  facet normal -0.379776 -0.0537128 -0.923518
    outer loop
      vertex 14.4385 -19.328 -11.4805
      vertex 11.2719 -13.1178 -10.5395
      vertex 14.5151 -19.328 -11.512
    endloop
  endfacet
  facet normal -0.379601 -0.0536122 -0.923595
    outer loop
      vertex 11.2719 -13.1178 -10.5395
      vertex 14.4385 -19.328 -11.4805
      vertex 10.5314 -13.7561 -10.1981
    endloop
  endfacet
  facet normal -0.368226 -0.0466567 -0.928565
    outer loop
      vertex 14.5151 -19.328 -11.512
      vertex 15.6326 -19.1001 -11.9666
      vertex 15.3218 -19.328 -11.8319
    endloop
  endfacet
  facet normal -0.368185 -0.0468685 -0.92857
    outer loop
      vertex 15.6326 -19.1001 -11.9666
      vertex 14.5151 -19.328 -11.512
      vertex 11.2719 -13.1178 -10.5395
    endloop
  endfacet
  facet normal -0.447076 -0.106347 -0.888152
    outer loop
      vertex 13.1743 -19.328 -10.8613
      vertex 10.5314 -13.7561 -10.1981
      vertex 13.3519 -19.328 -10.9507
    endloop
  endfacet
  facet normal -0.446684 -0.106134 -0.888375
    outer loop
      vertex 10.5314 -13.7561 -10.1981
      vertex 13.1743 -19.328 -10.8613
      vertex 9.82475 -14.3652 -9.77002
    endloop
  endfacet
  facet normal -0.436063 -0.0999353 -0.89435
    outer loop
      vertex 14.4385 -19.328 -11.4805
      vertex 13.3519 -19.328 -10.9507
      vertex 10.5314 -13.7561 -10.1981
    endloop
  endfacet
  facet normal -0.510487 -0.156054 -0.845606
    outer loop
      vertex 12.0074 -19.328 -10.1718
      vertex 9.82475 -14.3652 -9.77002
      vertex 12.2673 -19.328 -10.3287
    endloop
  endfacet
  facet normal -0.510256 -0.15594 -0.845767
    outer loop
      vertex 9.82475 -14.3652 -9.77002
      vertex 12.0074 -19.328 -10.1718
      vertex 9.15572 -14.9419 -9.26006
    endloop
  endfacet
  facet normal -0.500603 -0.150412 -0.85251
    outer loop
      vertex 13.1743 -19.328 -10.8613
      vertex 12.2673 -19.328 -10.3287
      vertex 9.82475 -14.3652 -9.77002
    endloop
  endfacet
  facet normal -0.569852 -0.202644 -0.796369
    outer loop
      vertex 10.9388 -19.328 -9.41988
      vertex 9.15572 -14.9419 -9.26006
      vertex 11.262 -19.328 -9.65115
    endloop
  endfacet
  facet normal -0.569901 -0.202665 -0.796329
    outer loop
      vertex 9.15572 -14.9419 -9.26006
      vertex 10.9388 -19.328 -9.41988
      vertex 8.52795 -15.483 -8.67308
    endloop
  endfacet
  facet normal -0.561303 -0.197894 -0.803602
    outer loop
      vertex 12.0074 -19.328 -10.1718
      vertex 11.262 -19.328 -9.65115
      vertex 9.15572 -14.9419 -9.26006
    endloop
  endfacet
  facet normal -0.625296 -0.246112 -0.740563
    outer loop
      vertex 9.96953 -19.328 -8.61247
      vertex 8.52795 -15.483 -8.67308
      vertex 10.3369 -19.328 -8.92266
    endloop
  endfacet
  facet normal -0.625321 -0.246121 -0.740539
    outer loop
      vertex 8.52795 -15.483 -8.67308
      vertex 9.96953 -19.328 -8.61247
      vertex 7.9451 -15.9854 -8.01394
    endloop
  endfacet
  facet normal -0.617924 -0.24216 -0.748016
    outer loop
      vertex 10.9388 -19.328 -9.41988
      vertex 10.3369 -19.328 -8.92266
      vertex 8.52795 -15.483 -8.67308
    endloop
  endfacet
  facet normal -0.676325 -0.286124 -0.678762
    outer loop
      vertex 9.10015 -19.328 -7.75581
      vertex 7.9451 -15.9854 -8.01394
      vertex 9.49286 -19.328 -8.14711
    endloop
  endfacet
  facet normal -0.67633 -0.286125 -0.678757
    outer loop
      vertex 7.9451 -15.9854 -8.01394
      vertex 9.10015 -19.328 -7.75581
      vertex 7.41085 -16.4459 -7.28748
    endloop
  endfacet
  facet normal -0.670028 -0.282908 -0.686313
    outer loop
      vertex 9.96953 -19.328 -8.61247
      vertex 9.49286 -19.328 -8.14711
      vertex 7.9451 -15.9854 -8.01394
    endloop
  endfacet
  facet normal -0.722677 -0.322499 -0.611336
    outer loop
      vertex 8.73113 -19.328 -7.32782
      vertex 6.92888 -16.8614 -6.49854
      vertex 7.41085 -16.4459 -7.28748
    endloop
  endfacet
  facet normal -0.722683 -0.322507 -0.611326
    outer loop
      vertex 6.92888 -16.8614 -6.49854
      vertex 8.73113 -19.328 -7.32782
      vertex 8.33142 -19.328 -6.8553
    endloop
  endfacet
  facet normal -0.717522 -0.320035 -0.618659
    outer loop
      vertex 9.10015 -19.328 -7.75581
      vertex 8.73113 -19.328 -7.32782
      vertex 7.41085 -16.4459 -7.28748
    endloop
  endfacet
  facet normal -0.764132 -0.355058 -0.53855
    outer loop
      vertex 8.05313 -19.328 -6.46751
      vertex 6.50285 -17.2286 -5.65197
      vertex 6.92888 -16.8614 -6.49854
    endloop
  endfacet
  facet normal -0.764127 -0.355049 -0.538563
    outer loop
      vertex 6.50285 -17.2286 -5.65197
      vertex 8.05313 -19.328 -6.46751
      vertex 7.66416 -19.328 -5.91563
    endloop
  endfacet
  facet normal -0.760056 -0.353287 -0.545439
    outer loop
      vertex 8.33142 -19.328 -6.8553
      vertex 8.05313 -19.328 -6.46751
      vertex 6.92888 -16.8614 -6.49854
    endloop
  endfacet
  facet normal -0.800362 -0.383544 -0.460776
    outer loop
      vertex 7.46073 -19.328 -5.56828
      vertex 6.42871 -17.2925 -5.47
      vertex 6.50285 -17.2286 -5.65197
    endloop
  endfacet
  facet normal -0.800364 -0.383546 -0.460771
    outer loop
      vertex 6.42871 -17.2925 -5.47
      vertex 7.46073 -19.328 -5.56828
      vertex 7.40415 -19.328 -5.47
    endloop
  endfacet
  facet normal -0.797319 -0.382402 -0.46696
    outer loop
      vertex 7.66416 -19.328 -5.91563
      vertex 7.46073 -19.328 -5.56828
      vertex 6.50285 -17.2286 -5.65197
    endloop
  endfacet
  facet normal 0.0844499 0.232725 -0.968869
    outer loop
      vertex 20.2267 -15.7321 -12.3012
      vertex 20.2267 -15.8903 -12.3392
      vertex 20.1523 -15.7867 -12.3208
    endloop
  endfacet
  facet normal 0.0191671 0.189268 -0.981738
    outer loop
      vertex 19.5071 -16.2597 -12.4246
      vertex 20.2267 -15.9062 -12.3424
      vertex 20.2267 -17.2818 -12.6076
    endloop
  endfacet
  facet normal 0.0191226 0.189355 -0.981722
    outer loop
      vertex 20.2267 -15.9062 -12.3424
      vertex 19.5071 -16.2597 -12.4246
      vertex 20.1523 -15.7867 -12.3208
    endloop
  endfacet
  facet normal 0.0322701 0.197199 -0.979832
    outer loop
      vertex 20.2267 -15.8903 -12.3392
      vertex 20.2267 -15.9062 -12.3424
      vertex 20.1523 -15.7867 -12.3208
    endloop
  endfacet
  facet normal -0.047062 0.145067 -0.988302
    outer loop
      vertex 20.1154 -19.328 -12.9039
      vertex 20.2267 -17.5417 -12.647
      vertex 20.2267 -19.328 -12.9092
    endloop
  endfacet
  facet normal -0.0471013 0.145069 -0.9883
    outer loop
      vertex 18.5166 -16.9858 -12.4839
      vertex 20.2267 -17.5417 -12.647
      vertex 20.1154 -19.328 -12.9039
    endloop
  endfacet
  facet normal -0.0471248 0.144999 -0.988309
    outer loop
      vertex 20.2267 -17.5417 -12.647
      vertex 18.5166 -16.9858 -12.4839
      vertex 19.5071 -16.2597 -12.4246
    endloop
  endfacet
  facet normal -0.0385151 0.149773 -0.98797
    outer loop
      vertex 20.2267 -17.2818 -12.6076
      vertex 20.2267 -17.5417 -12.647
      vertex 19.5071 -16.2597 -12.4246
    endloop
  endfacet
  facet normal -0.126613 0.0919547 -0.987681
    outer loop
      vertex 18.5949 -19.328 -12.712
      vertex 18.5166 -16.9858 -12.4839
      vertex 19.7853 -19.328 -12.8646
    endloop
  endfacet
  facet normal -0.126555 0.0919573 -0.987688
    outer loop
      vertex 18.5166 -16.9858 -12.4839
      vertex 18.5949 -19.328 -12.712
      vertex 17.5262 -17.7119 -12.4246
    endloop
  endfacet
  facet normal -0.117664 0.0969052 -0.988314
    outer loop
      vertex 20.1154 -19.328 -12.9039
      vertex 19.7853 -19.328 -12.8646
      vertex 18.5166 -16.9858 -12.4839
    endloop
  endfacet
  facet normal -0.2057 0.0391194 -0.977833
    outer loop
      vertex 17.1466 -19.328 -12.4094
      vertex 17.5262 -17.7119 -12.4246
      vertex 18.3759 -19.328 -12.668
    endloop
  endfacet
  facet normal -0.205703 0.03912 -0.977832
    outer loop
      vertex 17.5262 -17.7119 -12.4246
      vertex 17.1466 -19.328 -12.4094
      vertex 16.5634 -18.4178 -12.2503
    endloop
  endfacet
  facet normal -0.196786 0.044051 -0.979456
    outer loop
      vertex 18.5949 -19.328 -12.712
      vertex 18.3759 -19.328 -12.668
      vertex 17.5262 -17.7119 -12.4246
    endloop
  endfacet
  facet normal -0.2831 -0.012567 -0.959008
    outer loop
      vertex 15.7742 -19.328 -12.0054
      vertex 16.5634 -18.4178 -12.2503
      vertex 17.0286 -19.328 -12.3757
    endloop
  endfacet
  facet normal -0.283064 -0.0126015 -0.959018
    outer loop
      vertex 16.5634 -18.4178 -12.2503
      vertex 15.7742 -19.328 -12.0054
      vertex 15.6326 -19.1001 -11.9666
    endloop
  endfacet
  facet normal -0.274605 -0.00787851 -0.961525
    outer loop
      vertex 17.1466 -19.328 -12.4094
      vertex 17.0286 -19.328 -12.3757
      vertex 16.5634 -18.4178 -12.2503
    endloop
  endfacet
  facet normal -0.357908 -0.0625565 -0.931659
    outer loop
      vertex 15.6326 -19.1001 -11.9666
      vertex 15.7461 -19.328 -11.9949
      vertex 15.3218 -19.328 -11.8319
    endloop
  endfacet
  facet normal -0.34944 -0.0579034 -0.935168
    outer loop
      vertex 15.7742 -19.328 -12.0054
      vertex 15.7461 -19.328 -11.9949
      vertex 15.6326 -19.1001 -11.9666
    endloop
  endfacet
endsolid OpenSCAD_Model
