solid OpenSCAD_Model
  facet normal 1 -0 0
    outer loop
      vertex 41.1486 -52.2043 0.0299997
      vertex 41.1486 -43.5036 -24.25
      vertex 41.1486 -43.5036 0.0299997
    endloop
  endfacet
  facet normal 1 0 0
    outer loop
      vertex 41.1486 -43.5036 -24.25
      vertex 41.1486 -52.2043 0.0299997
      vertex 41.1486 -52.2043 -24.25
    endloop
  endfacet
  facet normal -0 0 1
    outer loop
      vertex 30.8614 -43.5036 0.0299997
      vertex 41.1486 -52.2043 0.0299997
      vertex 41.1486 -43.5036 0.0299997
    endloop
  endfacet
  facet normal 0 0 1
    outer loop
      vertex 41.1486 -52.2043 0.0299997
      vertex 30.8614 -43.5036 0.0299997
      vertex 30.8614 -52.2043 0.0299997
    endloop
  endfacet
  facet normal 0 0 -1
    outer loop
      vertex 30.8614 -52.2043 -24.25
      vertex 41.1486 -43.5036 -24.25
      vertex 41.1486 -52.2043 -24.25
    endloop
  endfacet
  facet normal -0 0 -1
    outer loop
      vertex 41.1486 -43.5036 -24.25
      vertex 30.8614 -52.2043 -24.25
      vertex 30.8614 -43.5036 -24.25
    endloop
  endfacet
  facet normal -1 0 0
    outer loop
      vertex 30.8614 -52.2043 -24.25
      vertex 30.8614 -43.5036 0.0299997
      vertex 30.8614 -43.5036 -24.25
    endloop
  endfacet
  facet normal -1 -0 0
    outer loop
      vertex 30.8614 -43.5036 0.0299997
      vertex 30.8614 -52.2043 -24.25
      vertex 30.8614 -52.2043 0.0299997
    endloop
  endfacet
  facet normal 0 1 -0
    outer loop
      vertex 41.1486 -43.5036 -24.25
      vertex 30.8614 -43.5036 0.0299997
      vertex 41.1486 -43.5036 0.0299997
    endloop
  endfacet
  facet normal 0 1 0
    outer loop
      vertex 30.8614 -43.5036 0.0299997
      vertex 41.1486 -43.5036 -24.25
      vertex 30.8614 -43.5036 -24.25
    endloop
  endfacet
  facet normal 0 -1 0
    outer loop
      vertex 30.8614 -52.2043 -24.25
      vertex 41.1486 -52.2043 0.0299997
      vertex 30.8614 -52.2043 0.0299997
    endloop
  endfacet
  facet normal 0 -1 -0
    outer loop
      vertex 41.1486 -52.2043 0.0299997
      vertex 30.8614 -52.2043 -24.25
      vertex 41.1486 -52.2043 -24.25
    endloop
  endfacet
endsolid OpenSCAD_Model
