solid OpenSCAD_Model
  facet normal 1 -0 0
    outer loop
      vertex 72.01 -43.5036 24.31
      vertex 72.01 -34.8029 0.0299997
      vertex 72.01 -34.8029 24.31
    endloop
  endfacet
  facet normal 1 0 0
    outer loop
      vertex 72.01 -34.8029 0.0299997
      vertex 72.01 -43.5036 24.31
      vertex 72.01 -43.5036 0.0299997
    endloop
  endfacet
  facet normal -0 0 1
    outer loop
      vertex 61.7229 -34.8029 24.31
      vertex 72.01 -43.5036 24.31
      vertex 72.01 -34.8029 24.31
    endloop
  endfacet
  facet normal 0 0 1
    outer loop
      vertex 72.01 -43.5036 24.31
      vertex 61.7229 -34.8029 24.31
      vertex 61.7229 -43.5036 24.31
    endloop
  endfacet
  facet normal 0 0 -1
    outer loop
      vertex 61.7229 -43.5036 0.0299997
      vertex 72.01 -34.8029 0.0299997
      vertex 72.01 -43.5036 0.0299997
    endloop
  endfacet
  facet normal -0 0 -1
    outer loop
      vertex 72.01 -34.8029 0.0299997
      vertex 61.7229 -43.5036 0.0299997
      vertex 61.7229 -34.8029 0.0299997
    endloop
  endfacet
  facet normal -1 0 0
    outer loop
      vertex 61.7229 -43.5036 0.0299997
      vertex 61.7229 -34.8029 24.31
      vertex 61.7229 -34.8029 0.0299997
    endloop
  endfacet
  facet normal -1 -0 0
    outer loop
      vertex 61.7229 -34.8029 24.31
      vertex 61.7229 -43.5036 0.0299997
      vertex 61.7229 -43.5036 24.31
    endloop
  endfacet
  facet normal 0 1 -0
    outer loop
      vertex 72.01 -34.8029 0.0299997
      vertex 61.7229 -34.8029 24.31
      vertex 72.01 -34.8029 24.31
    endloop
  endfacet
  facet normal 0 1 0
    outer loop
      vertex 61.7229 -34.8029 24.31
      vertex 72.01 -34.8029 0.0299997
      vertex 61.7229 -34.8029 0.0299997
    endloop
  endfacet
  facet normal 0 -1 0
    outer loop
      vertex 61.7229 -43.5036 0.0299997
      vertex 72.01 -43.5036 24.31
      vertex 61.7229 -43.5036 24.31
    endloop
  endfacet
  facet normal 0 -1 -0
    outer loop
      vertex 72.01 -43.5036 24.31
      vertex 61.7229 -43.5036 0.0299997
      vertex 72.01 -43.5036 0.0299997
    endloop
  endfacet
endsolid OpenSCAD_Model
