solid OpenSCAD_Model
  facet normal 1 -0 0
    outer loop
      vertex 72.01 -104.409 0.0299997
      vertex 72.01 -95.7079 -24.25
      vertex 72.01 -95.7079 0.0299997
    endloop
  endfacet
  facet normal 1 0 0
    outer loop
      vertex 72.01 -95.7079 -24.25
      vertex 72.01 -104.409 0.0299997
      vertex 72.01 -104.409 -24.25
    endloop
  endfacet
  facet normal -0 0 1
    outer loop
      vertex 61.7229 -95.7079 0.0299997
      vertex 72.01 -104.409 0.0299997
      vertex 72.01 -95.7079 0.0299997
    endloop
  endfacet
  facet normal 0 0 1
    outer loop
      vertex 72.01 -104.409 0.0299997
      vertex 61.7229 -95.7079 0.0299997
      vertex 61.7229 -104.409 0.0299997
    endloop
  endfacet
  facet normal 0 0 -1
    outer loop
      vertex 61.7229 -104.409 -24.25
      vertex 72.01 -95.7079 -24.25
      vertex 72.01 -104.409 -24.25
    endloop
  endfacet
  facet normal -0 0 -1
    outer loop
      vertex 72.01 -95.7079 -24.25
      vertex 61.7229 -104.409 -24.25
      vertex 61.7229 -95.7079 -24.25
    endloop
  endfacet
  facet normal -1 0 0
    outer loop
      vertex 61.7229 -104.409 -24.25
      vertex 61.7229 -95.7079 0.0299997
      vertex 61.7229 -95.7079 -24.25
    endloop
  endfacet
  facet normal -1 -0 0
    outer loop
      vertex 61.7229 -95.7079 0.0299997
      vertex 61.7229 -104.409 -24.25
      vertex 61.7229 -104.409 0.0299997
    endloop
  endfacet
  facet normal 0 1 -0
    outer loop
      vertex 72.01 -95.7079 -24.25
      vertex 61.7229 -95.7079 0.0299997
      vertex 72.01 -95.7079 0.0299997
    endloop
  endfacet
  facet normal 0 1 0
    outer loop
      vertex 61.7229 -95.7079 0.0299997
      vertex 72.01 -95.7079 -24.25
      vertex 61.7229 -95.7079 -24.25
    endloop
  endfacet
  facet normal 0 -1 0
    outer loop
      vertex 61.7229 -104.409 -24.25
      vertex 72.01 -104.409 0.0299997
      vertex 61.7229 -104.409 0.0299997
    endloop
  endfacet
  facet normal 0 -1 -0
    outer loop
      vertex 72.01 -104.409 0.0299997
      vertex 61.7229 -104.409 -24.25
      vertex 72.01 -104.409 -24.25
    endloop
  endfacet
endsolid OpenSCAD_Model
