solid OpenSCAD_Model
  facet normal 1 -0 0
    outer loop
      vertex 41.1486 -95.7079 24.31
      vertex 41.1486 -87.0071 0.0299997
      vertex 41.1486 -87.0071 24.31
    endloop
  endfacet
  facet normal 1 0 0
    outer loop
      vertex 41.1486 -87.0071 0.0299997
      vertex 41.1486 -95.7079 24.31
      vertex 41.1486 -95.7079 0.0299997
    endloop
  endfacet
  facet normal -0 0 1
    outer loop
      vertex 30.8614 -87.0071 24.31
      vertex 41.1486 -95.7079 24.31
      vertex 41.1486 -87.0071 24.31
    endloop
  endfacet
  facet normal 0 0 1
    outer loop
      vertex 41.1486 -95.7079 24.31
      vertex 30.8614 -87.0071 24.31
      vertex 30.8614 -95.7079 24.31
    endloop
  endfacet
  facet normal 0 0 -1
    outer loop
      vertex 30.8614 -95.7079 0.0299997
      vertex 41.1486 -87.0071 0.0299997
      vertex 41.1486 -95.7079 0.0299997
    endloop
  endfacet
  facet normal -0 0 -1
    outer loop
      vertex 41.1486 -87.0071 0.0299997
      vertex 30.8614 -95.7079 0.0299997
      vertex 30.8614 -87.0071 0.0299997
    endloop
  endfacet
  facet normal -1 0 0
    outer loop
      vertex 30.8614 -95.7079 0.0299997
      vertex 30.8614 -87.0071 24.31
      vertex 30.8614 -87.0071 0.0299997
    endloop
  endfacet
  facet normal -1 -0 0
    outer loop
      vertex 30.8614 -87.0071 24.31
      vertex 30.8614 -95.7079 0.0299997
      vertex 30.8614 -95.7079 24.31
    endloop
  endfacet
  facet normal 0 1 -0
    outer loop
      vertex 41.1486 -87.0071 0.0299997
      vertex 30.8614 -87.0071 24.31
      vertex 41.1486 -87.0071 24.31
    endloop
  endfacet
  facet normal 0 1 0
    outer loop
      vertex 30.8614 -87.0071 24.31
      vertex 41.1486 -87.0071 0.0299997
      vertex 30.8614 -87.0071 0.0299997
    endloop
  endfacet
  facet normal 0 -1 0
    outer loop
      vertex 30.8614 -95.7079 0.0299997
      vertex 41.1486 -95.7079 24.31
      vertex 30.8614 -95.7079 24.31
    endloop
  endfacet
  facet normal 0 -1 -0
    outer loop
      vertex 41.1486 -95.7079 24.31
      vertex 30.8614 -95.7079 0.0299997
      vertex 41.1486 -95.7079 0.0299997
    endloop
  endfacet
endsolid OpenSCAD_Model
