solid OpenSCAD_Model
  facet normal 1 -0 0
    outer loop
      vertex 51.4357 -113.109 0.0299997
      vertex 51.4357 -104.409 -24.25
      vertex 51.4357 -104.409 0.0299997
    endloop
  endfacet
  facet normal 1 0 0
    outer loop
      vertex 51.4357 -104.409 -24.25
      vertex 51.4357 -113.109 0.0299997
      vertex 51.4357 -113.109 -24.25
    endloop
  endfacet
  facet normal -0 0 1
    outer loop
      vertex 41.1486 -104.409 0.0299997
      vertex 51.4357 -113.109 0.0299997
      vertex 51.4357 -104.409 0.0299997
    endloop
  endfacet
  facet normal 0 0 1
    outer loop
      vertex 51.4357 -113.109 0.0299997
      vertex 41.1486 -104.409 0.0299997
      vertex 41.1486 -113.109 0.0299997
    endloop
  endfacet
  facet normal 0 0 -1
    outer loop
      vertex 41.1486 -113.109 -24.25
      vertex 51.4357 -104.409 -24.25
      vertex 51.4357 -113.109 -24.25
    endloop
  endfacet
  facet normal -0 0 -1
    outer loop
      vertex 51.4357 -104.409 -24.25
      vertex 41.1486 -113.109 -24.25
      vertex 41.1486 -104.409 -24.25
    endloop
  endfacet
  facet normal -1 0 0
    outer loop
      vertex 41.1486 -113.109 -24.25
      vertex 41.1486 -104.409 0.0299997
      vertex 41.1486 -104.409 -24.25
    endloop
  endfacet
  facet normal -1 -0 0
    outer loop
      vertex 41.1486 -104.409 0.0299997
      vertex 41.1486 -113.109 -24.25
      vertex 41.1486 -113.109 0.0299997
    endloop
  endfacet
  facet normal 0 1 -0
    outer loop
      vertex 51.4357 -104.409 -24.25
      vertex 41.1486 -104.409 0.0299997
      vertex 51.4357 -104.409 0.0299997
    endloop
  endfacet
  facet normal 0 1 0
    outer loop
      vertex 41.1486 -104.409 0.0299997
      vertex 51.4357 -104.409 -24.25
      vertex 41.1486 -104.409 -24.25
    endloop
  endfacet
  facet normal 0 -1 0
    outer loop
      vertex 41.1486 -113.109 -24.25
      vertex 51.4357 -113.109 0.0299997
      vertex 41.1486 -113.109 0.0299997
    endloop
  endfacet
  facet normal 0 -1 -0
    outer loop
      vertex 51.4357 -113.109 0.0299997
      vertex 41.1486 -113.109 -24.25
      vertex 51.4357 -113.109 -24.25
    endloop
  endfacet
endsolid OpenSCAD_Model
