solid OpenSCAD_Model
  facet normal 1 -0 0
    outer loop
      vertex 30.8614 -121.81 0.0299997
      vertex 30.8614 -113.109 -24.25
      vertex 30.8614 -113.109 0.0299997
    endloop
  endfacet
  facet normal 1 0 0
    outer loop
      vertex 30.8614 -113.109 -24.25
      vertex 30.8614 -121.81 0.0299997
      vertex 30.8614 -121.81 -24.25
    endloop
  endfacet
  facet normal -0 0 1
    outer loop
      vertex 20.5743 -113.109 0.0299997
      vertex 30.8614 -121.81 0.0299997
      vertex 30.8614 -113.109 0.0299997
    endloop
  endfacet
  facet normal 0 0 1
    outer loop
      vertex 30.8614 -121.81 0.0299997
      vertex 20.5743 -113.109 0.0299997
      vertex 20.5743 -121.81 0.0299997
    endloop
  endfacet
  facet normal 0 0 -1
    outer loop
      vertex 20.5743 -121.81 -24.25
      vertex 30.8614 -113.109 -24.25
      vertex 30.8614 -121.81 -24.25
    endloop
  endfacet
  facet normal -0 0 -1
    outer loop
      vertex 30.8614 -113.109 -24.25
      vertex 20.5743 -121.81 -24.25
      vertex 20.5743 -113.109 -24.25
    endloop
  endfacet
  facet normal -1 0 0
    outer loop
      vertex 20.5743 -121.81 -24.25
      vertex 20.5743 -113.109 0.0299997
      vertex 20.5743 -113.109 -24.25
    endloop
  endfacet
  facet normal -1 -0 0
    outer loop
      vertex 20.5743 -113.109 0.0299997
      vertex 20.5743 -121.81 -24.25
      vertex 20.5743 -121.81 0.0299997
    endloop
  endfacet
  facet normal 0 1 -0
    outer loop
      vertex 30.8614 -113.109 -24.25
      vertex 20.5743 -113.109 0.0299997
      vertex 30.8614 -113.109 0.0299997
    endloop
  endfacet
  facet normal 0 1 0
    outer loop
      vertex 20.5743 -113.109 0.0299997
      vertex 30.8614 -113.109 -24.25
      vertex 20.5743 -113.109 -24.25
    endloop
  endfacet
  facet normal 0 -1 0
    outer loop
      vertex 20.5743 -121.81 -24.25
      vertex 30.8614 -121.81 0.0299997
      vertex 20.5743 -121.81 0.0299997
    endloop
  endfacet
  facet normal 0 -1 -0
    outer loop
      vertex 30.8614 -121.81 0.0299997
      vertex 20.5743 -121.81 -24.25
      vertex 30.8614 -121.81 -24.25
    endloop
  endfacet
endsolid OpenSCAD_Model
