solid OpenSCAD_Model
  facet normal 1 -0 0
    outer loop
      vertex 33.3333 -76.2717 16.8389
      vertex 33.3333 -71.6 8.33333
      vertex 33.3333 -71.6 17.4226
    endloop
  endfacet
  facet normal 1 -0 0
    outer loop
      vertex 33.3333 -80.2868 15.9992
      vertex 33.3333 -71.6 8.33333
      vertex 33.3333 -76.2717 16.8389
    endloop
  endfacet
  facet normal 1 -0 0
    outer loop
      vertex 33.3333 -86.8186 14.6331
      vertex 33.3333 -71.6 8.33333
      vertex 33.3333 -80.2868 15.9992
    endloop
  endfacet
  facet normal 1 -0 0
    outer loop
      vertex 33.3333 -88.0388 14.3298
      vertex 33.3333 -71.6 8.33333
      vertex 33.3333 -86.8186 14.6331
    endloop
  endfacet
  facet normal 1 -0 0
    outer loop
      vertex 33.3333 -88.8272 14.1339
      vertex 33.3333 -71.6 8.33333
      vertex 33.3333 -88.0388 14.3298
    endloop
  endfacet
  facet normal 1 0 0
    outer loop
      vertex 33.3333 -107.4 8.33333
      vertex 33.3333 -88.8272 14.1339
      vertex 33.3333 -99.2299 13.9816
    endloop
  endfacet
  facet normal 1 0 0
    outer loop
      vertex 33.3333 -107.4 8.33333
      vertex 33.3333 -99.2299 13.9816
      vertex 33.3333 -101.383 13.95
    endloop
  endfacet
  facet normal 1 0 0
    outer loop
      vertex 33.3333 -107.4 8.33333
      vertex 33.3333 -101.383 13.95
      vertex 33.3333 -107.4 13.3204
    endloop
  endfacet
  facet normal 1 0 0
    outer loop
      vertex 33.3333 -88.8272 14.1339
      vertex 33.3333 -107.4 8.33333
      vertex 33.3333 -71.6 8.33333
    endloop
  endfacet
  facet normal 0 0 -1
    outer loop
      vertex 16.6667 -107.4 8.33333
      vertex 33.3333 -71.6 8.33333
      vertex 33.3333 -107.4 8.33333
    endloop
  endfacet
  facet normal -0 0 -1
    outer loop
      vertex 33.3333 -71.6 8.33333
      vertex 16.6667 -107.4 8.33333
      vertex 16.6667 -71.6 8.33333
    endloop
  endfacet
  facet normal -1 0 0
    outer loop
      vertex 16.6667 -71.6 8.33333
      vertex 16.6667 -77.8439 20.0749
      vertex 16.6667 -71.6 20.6132
    endloop
  endfacet
  facet normal -1 0 0
    outer loop
      vertex 16.6667 -71.6 8.33333
      vertex 16.6667 -82.5387 19.3762
      vertex 16.6667 -77.8439 20.0749
    endloop
  endfacet
  facet normal -1 0 0
    outer loop
      vertex 16.6667 -71.6 8.33333
      vertex 16.6667 -90.3994 18.2062
      vertex 16.6667 -82.5387 19.3762
    endloop
  endfacet
  facet normal -1 0 0
    outer loop
      vertex 16.6667 -107.4 8.33333
      vertex 16.6667 -90.3994 18.2062
      vertex 16.6667 -71.6 8.33333
    endloop
  endfacet
  facet normal -1 -0 0
    outer loop
      vertex 16.6667 -90.3994 18.2062
      vertex 16.6667 -107.4 8.33333
      vertex 16.6667 -94.7111 18.2086
    endloop
  endfacet
  facet normal -1 -0 0
    outer loop
      vertex 16.6667 -94.7111 18.2086
      vertex 16.6667 -107.4 8.33333
      vertex 16.6667 -102.955 18.2132
    endloop
  endfacet
  facet normal -1 0 0
    outer loop
      vertex 16.6667 -102.955 18.2132
      vertex 16.6667 -107.4 8.33333
      vertex 16.6667 -106.977 17.974
    endloop
  endfacet
  facet normal -1 0 0
    outer loop
      vertex 16.6667 -106.977 17.974
      vertex 16.6667 -107.4 8.33333
      vertex 16.6667 -107.4 17.9488
    endloop
  endfacet
  facet normal 0 1 0
    outer loop
      vertex 16.6667 -71.6 8.33333
      vertex 21.5884 -71.6 21.2325
      vertex 23.275 -71.6 21.0697
    endloop
  endfacet
  facet normal 0 1 0
    outer loop
      vertex 21.5884 -71.6 21.2325
      vertex 16.6667 -71.6 8.33333
      vertex 19.7103 -71.6 21.0829
    endloop
  endfacet
  facet normal 0 1 0
    outer loop
      vertex 16.6667 -71.6 8.33333
      vertex 23.275 -71.6 21.0697
      vertex 25.2459 -71.6 20.8795
    endloop
  endfacet
  facet normal 0 1 0
    outer loop
      vertex 19.7103 -71.6 21.0829
      vertex 16.6667 -71.6 8.33333
      vertex 17.9203 -71.6 20.9404
    endloop
  endfacet
  facet normal 0 1 0
    outer loop
      vertex 16.6667 -71.6 8.33333
      vertex 25.2459 -71.6 20.8795
      vertex 26.7827 -71.6 20.4516
    endloop
  endfacet
  facet normal 0 1 0
    outer loop
      vertex 33.3333 -71.6 8.33333
      vertex 26.7827 -71.6 20.4516
      vertex 28.7821 -71.6 19.8949
    endloop
  endfacet
  facet normal 0 1 0
    outer loop
      vertex 33.3333 -71.6 8.33333
      vertex 28.7821 -71.6 19.8949
      vertex 30.1359 -71.6 19.2469
    endloop
  endfacet
  facet normal 0 1 0
    outer loop
      vertex 33.3333 -71.6 8.33333
      vertex 30.1359 -71.6 19.2469
      vertex 32.091 -71.6 18.311
    endloop
  endfacet
  facet normal 0 1 0
    outer loop
      vertex 33.3333 -71.6 8.33333
      vertex 32.091 -71.6 18.311
      vertex 33.241 -71.6 17.4886
    endloop
  endfacet
  facet normal 0 1 -0
    outer loop
      vertex 33.3333 -71.6 8.33333
      vertex 33.241 -71.6 17.4886
      vertex 33.3333 -71.6 17.4226
    endloop
  endfacet
  facet normal 0 1 0
    outer loop
      vertex 26.7827 -71.6 20.4516
      vertex 33.3333 -71.6 8.33333
      vertex 16.6667 -71.6 8.33333
    endloop
  endfacet
  facet normal 0 1 0
    outer loop
      vertex 17.9203 -71.6 20.9404
      vertex 16.6667 -71.6 8.33333
      vertex 16.6667 -71.6 20.6132
    endloop
  endfacet
  facet normal 0 -1 0
    outer loop
      vertex 16.6667 -107.4 8.33333
      vertex 20.8194 -107.4 18.4645
      vertex 19.6508 -107.4 18.3685
    endloop
  endfacet
  facet normal 0 -1 0
    outer loop
      vertex 16.6667 -107.4 8.33333
      vertex 19.6508 -107.4 18.3685
      vertex 17.6291 -107.4 18.2024
    endloop
  endfacet
  facet normal 0 -1 -0
    outer loop
      vertex 20.8194 -107.4 18.4645
      vertex 16.6667 -107.4 8.33333
      vertex 22.7632 -107.4 18.282
    endloop
  endfacet
  facet normal 0 -1 0
    outer loop
      vertex 16.6667 -107.4 8.33333
      vertex 17.6291 -107.4 18.2024
      vertex 16.6667 -107.4 17.9488
    endloop
  endfacet
  facet normal 0 -1 -0
    outer loop
      vertex 22.7632 -107.4 18.282
      vertex 16.6667 -107.4 8.33333
      vertex 24.0032 -107.4 18.1656
    endloop
  endfacet
  facet normal 0 -1 -0
    outer loop
      vertex 24.0032 -107.4 18.1656
      vertex 16.6667 -107.4 8.33333
      vertex 25.8142 -107.4 17.6665
    endloop
  endfacet
  facet normal 0 -1 -0
    outer loop
      vertex 25.8142 -107.4 17.6665
      vertex 16.6667 -107.4 8.33333
      vertex 27.0841 -107.4 17.3165
    endloop
  endfacet
  facet normal 0 -1 -0
    outer loop
      vertex 27.0841 -107.4 17.3165
      vertex 16.6667 -107.4 8.33333
      vertex 28.7175 -107.4 16.5397
    endloop
  endfacet
  facet normal 0 -1 0
    outer loop
      vertex 33.3333 -107.4 8.33333
      vertex 28.7175 -107.4 16.5397
      vertex 16.6667 -107.4 8.33333
    endloop
  endfacet
  facet normal 0 -1 0
    outer loop
      vertex 28.7175 -107.4 16.5397
      vertex 33.3333 -107.4 8.33333
      vertex 29.9694 -107.4 15.9443
    endloop
  endfacet
  facet normal 0 -1 0
    outer loop
      vertex 29.9694 -107.4 15.9443
      vertex 33.3333 -107.4 8.33333
      vertex 31.391 -107.4 14.9327
    endloop
  endfacet
  facet normal 0 -1 0
    outer loop
      vertex 31.391 -107.4 14.9327
      vertex 33.3333 -107.4 8.33333
      vertex 32.5727 -107.4 14.0919
    endloop
  endfacet
  facet normal 0 -1 0
    outer loop
      vertex 32.5727 -107.4 14.0919
      vertex 33.3333 -107.4 8.33333
      vertex 33.3333 -107.4 13.3204
    endloop
  endfacet
  facet normal 0.706288 -0.170713 0.687033
    outer loop
      vertex 33.3333 -88.8272 14.1339
      vertex 33.3333 -88.0388 14.3298
      vertex 33.0706 -88.852 14.3978
    endloop
  endfacet
  facet normal 0.706374 -0.170749 0.686936
    outer loop
      vertex 33.3333 -88.0388 14.3298
      vertex 33.3333 -86.8186 14.6331
      vertex 33.0706 -88.852 14.3978
    endloop
  endfacet
  facet normal 0.709139 -0.0103468 0.704993
    outer loop
      vertex 33.3333 -101.383 13.95
      vertex 33.3333 -99.2299 13.9816
      vertex 32.9104 -101.423 14.3748
    endloop
  endfacet
  facet normal 0.709163 -0.010321 0.704969
    outer loop
      vertex 33.0706 -88.852 14.3978
      vertex 33.3333 -99.2299 13.9816
      vertex 33.3333 -88.8272 14.1339
    endloop
  endfacet
  facet normal 0.709084 -0.0103263 0.705049
    outer loop
      vertex 33.3333 -99.2299 13.9816
      vertex 33.0706 -88.852 14.3978
      vertex 32.9104 -101.423 14.3748
    endloop
  endfacet
  facet normal 0.710226 -0.0732668 0.700151
    outer loop
      vertex 32.5727 -107.4 14.0919
      vertex 33.3333 -101.383 13.95
      vertex 32.9104 -101.423 14.3748
    endloop
  endfacet
  facet normal 0.710206 -0.0732638 0.700172
    outer loop
      vertex 33.3333 -101.383 13.95
      vertex 32.5727 -107.4 14.0919
      vertex 33.3333 -107.4 13.3204
    endloop
  endfacet
  facet normal 0.578674 -0.101113 0.809267
    outer loop
      vertex 33.241 -71.6 17.4886
      vertex 33.3333 -76.2717 16.8389
      vertex 33.3333 -71.6 17.4226
    endloop
  endfacet
  facet normal 0.578713 -0.101108 0.809239
    outer loop
      vertex 33.3333 -76.2717 16.8389
      vertex 33.241 -71.6 17.4886
      vertex 31.7682 -76.4194 17.9397
    endloop
  endfacet
  facet normal 0.578712 -0.101108 0.80924
    outer loop
      vertex 33.241 -71.6 17.4886
      vertex 32.091 -71.6 18.311
      vertex 31.7682 -76.4194 17.9397
    endloop
  endfacet
  facet normal 0.577692 -0.167101 0.798968
    outer loop
      vertex 30.3988 -89.104 16.2769
      vertex 33.3333 -86.8186 14.6331
      vertex 33.3333 -80.2868 15.9992
    endloop
  endfacet
  facet normal 0.577685 -0.167088 0.798975
    outer loop
      vertex 33.3333 -86.8186 14.6331
      vertex 30.3988 -89.104 16.2769
      vertex 33.0706 -88.852 14.3978
    endloop
  endfacet
  facet normal 0.577709 -0.16709 0.798958
    outer loop
      vertex 31.7682 -76.4194 17.9397
      vertex 33.3333 -80.2868 15.9992
      vertex 33.3333 -76.2717 16.8389
    endloop
  endfacet
  facet normal 0.577693 -0.167101 0.798967
    outer loop
      vertex 33.3333 -80.2868 15.9992
      vertex 31.7682 -76.4194 17.9397
      vertex 30.3988 -89.104 16.2769
    endloop
  endfacet
  facet normal 0.575822 -0.00883381 0.817527
    outer loop
      vertex 32.9104 -101.423 14.3748
      vertex 33.0706 -88.852 14.3978
      vertex 30.2428 -101.674 16.251
    endloop
  endfacet
  facet normal 0.575812 -0.00883061 0.817534
    outer loop
      vertex 33.0706 -88.852 14.3978
      vertex 30.3988 -89.104 16.2769
      vertex 30.2428 -101.674 16.251
    endloop
  endfacet
  facet normal 0.578275 -0.0711404 0.812735
    outer loop
      vertex 32.5727 -107.4 14.0919
      vertex 32.9104 -101.423 14.3748
      vertex 31.391 -107.4 14.9327
    endloop
  endfacet
  facet normal 0.578301 -0.0711488 0.812715
    outer loop
      vertex 30.2428 -101.674 16.251
      vertex 31.391 -107.4 14.9327
      vertex 32.9104 -101.423 14.3748
    endloop
  endfacet
  facet normal 0.578315 -0.0711436 0.812705
    outer loop
      vertex 31.391 -107.4 14.9327
      vertex 30.2428 -101.674 16.251
      vertex 29.9694 -107.4 15.9443
    endloop
  endfacet
  facet normal 0.4297 -0.097938 0.897645
    outer loop
      vertex 30.1359 -71.6 19.2469
      vertex 31.7682 -76.4194 17.9397
      vertex 32.091 -71.6 18.311
    endloop
  endfacet
  facet normal 0.429674 -0.0979495 0.897656
    outer loop
      vertex 31.7682 -76.4194 17.9397
      vertex 30.1359 -71.6 19.2469
      vertex 28.5101 -76.7267 19.4657
    endloop
  endfacet
  facet normal 0.429667 -0.097947 0.897659
    outer loop
      vertex 30.1359 -71.6 19.2469
      vertex 28.7821 -71.6 19.8949
      vertex 28.5101 -76.7267 19.4657
    endloop
  endfacet
  facet normal 0.431049 -0.162877 0.887506
    outer loop
      vertex 30.3988 -89.104 16.2769
      vertex 31.7682 -76.4194 17.9397
      vertex 27.4426 -89.3829 17.6615
    endloop
  endfacet
  facet normal 0.431046 -0.162875 0.887508
    outer loop
      vertex 31.7682 -76.4194 17.9397
      vertex 28.5101 -76.7267 19.4657
      vertex 27.4426 -89.3829 17.6615
    endloop
  endfacet
  facet normal 0.424694 -0.00713602 0.905309
    outer loop
      vertex 30.2428 -101.674 16.251
      vertex 30.3988 -89.104 16.2769
      vertex 27.2915 -101.953 17.6333
    endloop
  endfacet
  facet normal 0.424694 -0.00713606 0.905309
    outer loop
      vertex 30.3988 -89.104 16.2769
      vertex 27.4426 -89.3829 17.6615
      vertex 27.2915 -101.953 17.6333
    endloop
  endfacet
  facet normal 0.428482 -0.0687152 0.900934
    outer loop
      vertex 29.9694 -107.4 15.9443
      vertex 30.2428 -101.674 16.251
      vertex 28.7175 -107.4 16.5397
    endloop
  endfacet
  facet normal 0.428469 -0.0687115 0.90094
    outer loop
      vertex 27.2915 -101.953 17.6333
      vertex 28.7175 -107.4 16.5397
      vertex 30.2428 -101.674 16.251
    endloop
  endfacet
  facet normal 0.428463 -0.0687134 0.900943
    outer loop
      vertex 28.7175 -107.4 16.5397
      vertex 27.2915 -101.953 17.6333
      vertex 27.0841 -107.4 17.3165
    endloop
  endfacet
  facet normal 0.267031 -0.0944576 0.959048
    outer loop
      vertex 26.7827 -71.6 20.4516
      vertex 28.5101 -76.7267 19.4657
      vertex 28.7821 -71.6 19.8949
    endloop
  endfacet
  facet normal 0.267014 -0.094464 0.959052
    outer loop
      vertex 28.5101 -76.7267 19.4657
      vertex 26.7827 -71.6 20.4516
      vertex 25.0377 -77.0543 20.4002
    endloop
  endfacet
  facet normal 0.267033 -0.0944698 0.959046
    outer loop
      vertex 26.7827 -71.6 20.4516
      vertex 25.2459 -71.6 20.8795
      vertex 25.0377 -77.0543 20.4002
    endloop
  endfacet
  facet normal 0.270528 -0.158192 0.949626
    outer loop
      vertex 27.4426 -89.3829 17.6615
      vertex 28.5101 -76.7267 19.4657
      vertex 24.2921 -89.6801 18.5095
    endloop
  endfacet
  facet normal 0.270492 -0.158181 0.949638
    outer loop
      vertex 28.5101 -76.7267 19.4657
      vertex 25.0377 -77.0543 20.4002
      vertex 24.2921 -89.6801 18.5095
    endloop
  endfacet
  facet normal 0.260351 -0.00529559 0.9655
    outer loop
      vertex 27.2915 -101.953 17.6333
      vertex 27.4426 -89.3829 17.6615
      vertex 24.1459 -102.249 18.4799
    endloop
  endfacet
  facet normal 0.260376 -0.00530241 0.965493
    outer loop
      vertex 27.4426 -89.3829 17.6615
      vertex 24.2921 -89.6801 18.5095
      vertex 24.1459 -102.249 18.4799
    endloop
  endfacet
  facet normal 0.265125 -0.0660423 0.96195
    outer loop
      vertex 27.0841 -107.4 17.3165
      vertex 27.2915 -101.953 17.6333
      vertex 25.8142 -107.4 17.6665
    endloop
  endfacet
  facet normal 0.265112 -0.0660388 0.961953
    outer loop
      vertex 24.1459 -102.249 18.4799
      vertex 25.8142 -107.4 17.6665
      vertex 27.2915 -101.953 17.6333
    endloop
  endfacet
  facet normal 0.265108 -0.0660402 0.961954
    outer loop
      vertex 25.8142 -107.4 17.6665
      vertex 24.1459 -102.249 18.4799
      vertex 24.0032 -107.4 18.1656
    endloop
  endfacet
  facet normal 0.0956614 -0.0907598 0.991268
    outer loop
      vertex 23.275 -71.6 21.0697
      vertex 25.0377 -77.0543 20.4002
      vertex 25.2459 -71.6 20.8795
    endloop
  endfacet
  facet normal 0.0956689 -0.0907573 0.991267
    outer loop
      vertex 25.0377 -77.0543 20.4002
      vertex 23.275 -71.6 21.0697
      vertex 21.4565 -77.3921 20.7149
    endloop
  endfacet
  facet normal 0.0956824 -0.0907615 0.991265
    outer loop
      vertex 23.275 -71.6 21.0697
      vertex 21.5884 -71.6 21.2325
      vertex 21.4565 -77.3921 20.7149
    endloop
  endfacet
  facet normal 0.100823 -0.153164 0.983044
    outer loop
      vertex 24.2921 -89.6801 18.5095
      vertex 25.0377 -77.0543 20.4002
      vertex 21.0428 -89.9866 18.795
    endloop
  endfacet
  facet normal 0.100833 -0.153167 0.983043
    outer loop
      vertex 25.0377 -77.0543 20.4002
      vertex 21.4565 -77.3921 20.7149
      vertex 21.0428 -89.9866 18.795
    endloop
  endfacet
  facet normal 0.0878599 -0.00336788 0.996127
    outer loop
      vertex 24.1459 -102.249 18.4799
      vertex 24.2921 -89.6801 18.5095
      vertex 20.9018 -102.555 18.765
    endloop
  endfacet
  facet normal 0.0878422 -0.00336317 0.996129
    outer loop
      vertex 24.2921 -89.6801 18.5095
      vertex 21.0428 -89.9866 18.795
      vertex 20.9018 -102.555 18.765
    endloop
  endfacet
  facet normal 0.0932732 -0.0632127 0.993632
    outer loop
      vertex 24.0032 -107.4 18.1656
      vertex 24.1459 -102.249 18.4799
      vertex 22.7632 -107.4 18.282
    endloop
  endfacet
  facet normal 0.0932857 -0.063216 0.99363
    outer loop
      vertex 20.9018 -102.555 18.765
      vertex 22.7632 -107.4 18.282
      vertex 24.1459 -102.249 18.4799
    endloop
  endfacet
  facet normal 0.0932902 -0.0632142 0.99363
    outer loop
      vertex 22.7632 -107.4 18.282
      vertex 20.9018 -102.555 18.765
      vertex 20.8194 -107.4 18.4645
    endloop
  endfacet
  facet normal -0.0791028 -0.0869423 0.993068
    outer loop
      vertex 19.7103 -71.6 21.0829
      vertex 21.4565 -77.3921 20.7149
      vertex 21.5884 -71.6 21.2325
    endloop
  endfacet
  facet normal -0.0790668 -0.0869317 0.993072
    outer loop
      vertex 21.4565 -77.3921 20.7149
      vertex 19.7103 -71.6 21.0829
      vertex 17.8753 -77.7299 20.4002
    endloop
  endfacet
  facet normal -0.0790574 -0.0869345 0.993072
    outer loop
      vertex 19.7103 -71.6 21.0829
      vertex 17.9203 -71.6 20.9404
      vertex 17.8753 -77.7299 20.4002
    endloop
  endfacet
  facet normal -0.0727055 -0.147965 0.986316
    outer loop
      vertex 21.0428 -89.9866 18.795
      vertex 21.4565 -77.3921 20.7149
      vertex 17.7935 -90.2931 18.5095
    endloop
  endfacet
  facet normal -0.0727164 -0.147962 0.986316
    outer loop
      vertex 21.4565 -77.3921 20.7149
      vertex 17.8753 -77.7299 20.4002
      vertex 17.7935 -90.2931 18.5095
    endloop
  endfacet
  facet normal -0.0874143 -0.00139713 0.996171
    outer loop
      vertex 20.9018 -102.555 18.765
      vertex 21.0428 -89.9866 18.795
      vertex 17.6577 -102.861 18.4799
    endloop
  endfacet
  facet normal -0.0873966 -0.00140185 0.996173
    outer loop
      vertex 21.0428 -89.9866 18.795
      vertex 17.7935 -90.2931 18.5095
      vertex 17.6577 -102.861 18.4799
    endloop
  endfacet
  facet normal -0.0817247 -0.060312 0.994828
    outer loop
      vertex 20.8194 -107.4 18.4645
      vertex 20.9018 -102.555 18.765
      vertex 19.6508 -107.4 18.3685
    endloop
  endfacet
  facet normal -0.0817395 -0.0603082 0.994827
    outer loop
      vertex 17.6577 -102.861 18.4799
      vertex 19.6508 -107.4 18.3685
      vertex 20.9018 -102.555 18.765
    endloop
  endfacet
  facet normal -0.0817337 -0.0603056 0.994828
    outer loop
      vertex 19.6508 -107.4 18.3685
      vertex 17.6577 -102.861 18.4799
      vertex 17.6291 -107.4 18.2024
    endloop
  endfacet
  facet normal -0.251674 -0.0831261 0.964236
    outer loop
      vertex 16.6667 -71.6 20.6132
      vertex 17.8753 -77.7299 20.4002
      vertex 17.9203 -71.6 20.9404
    endloop
  endfacet
  facet normal -0.251686 -0.0831285 0.964232
    outer loop
      vertex 17.8753 -77.7299 20.4002
      vertex 16.6667 -71.6 20.6132
      vertex 16.6667 -77.8439 20.0749
    endloop
  endfacet
  facet normal -0.244632 -0.14274 0.959052
    outer loop
      vertex 16.6667 -82.5387 19.3762
      vertex 17.7935 -90.2931 18.5095
      vertex 17.8753 -77.7299 20.4002
    endloop
  endfacet
  facet normal -0.244678 -0.142745 0.959039
    outer loop
      vertex 17.7935 -90.2931 18.5095
      vertex 16.6667 -82.5387 19.3762
      vertex 16.6667 -90.3994 18.2062
    endloop
  endfacet
  facet normal -0.244668 -0.142729 0.959044
    outer loop
      vertex 17.8753 -77.7299 20.4002
      vertex 16.6667 -77.8439 20.0749
      vertex 16.6667 -82.5387 19.3762
    endloop
  endfacet
  facet normal -0.259955 0.000534658 0.965621
    outer loop
      vertex 16.6667 -94.7111 18.2086
      vertex 17.6577 -102.861 18.4799
      vertex 17.7935 -90.2931 18.5095
    endloop
  endfacet
  facet normal -0.259923 0.00053881 0.965629
    outer loop
      vertex 17.6577 -102.861 18.4799
      vertex 16.6667 -94.7111 18.2086
      vertex 16.6667 -102.955 18.2132
    endloop
  endfacet
  facet normal -0.259965 0.000537487 0.965618
    outer loop
      vertex 17.7935 -90.2931 18.5095
      vertex 16.6667 -90.3994 18.2062
      vertex 16.6667 -94.7111 18.2086
    endloop
  endfacet
  facet normal -0.254351 -0.0574192 0.965406
    outer loop
      vertex 16.6667 -106.977 17.974
      vertex 17.6291 -107.4 18.2024
      vertex 17.6577 -102.861 18.4799
    endloop
  endfacet
  facet normal -0.254388 -0.0575126 0.965391
    outer loop
      vertex 17.6291 -107.4 18.2024
      vertex 16.6667 -106.977 17.974
      vertex 16.6667 -107.4 17.9488
    endloop
  endfacet
  facet normal -0.254365 -0.0574153 0.965402
    outer loop
      vertex 17.6577 -102.861 18.4799
      vertex 16.6667 -102.955 18.2132
      vertex 16.6667 -106.977 17.974
    endloop
  endfacet
endsolid OpenSCAD_Model
