solid OpenSCAD_Model
  facet normal 1 0 0
    outer loop
      vertex 33.3333 -143.2 -8.33333
      vertex 33.3333 -143.487 -11.9349
      vertex 33.3333 -143.2 -11.9245
    endloop
  endfacet
  facet normal 1 0 0
    outer loop
      vertex 33.3333 -143.2 -8.33333
      vertex 33.3333 -150.42 -12.186
      vertex 33.3333 -143.487 -11.9349
    endloop
  endfacet
  facet normal 1 -0 0
    outer loop
      vertex 33.3333 -152.473 -11.9853
      vertex 33.3333 -150.42 -12.186
      vertex 33.3333 -143.2 -8.33333
    endloop
  endfacet
  facet normal 1 0 0
    outer loop
      vertex 33.3333 -150.42 -12.186
      vertex 33.3333 -152.473 -11.9853
      vertex 33.3333 -151.2 -12.191
    endloop
  endfacet
  facet normal 1 0 0
    outer loop
      vertex 33.3333 -151.2 -12.191
      vertex 33.3333 -152.473 -11.9853
      vertex 33.3333 -151.605 -12.1936
    endloop
  endfacet
  facet normal 1 0 0
    outer loop
      vertex 33.3333 -143.2 -8.33333
      vertex 33.3333 -159.765 -9.93816
      vertex 33.3333 -152.473 -11.9853
    endloop
  endfacet
  facet normal 1 0 0
    outer loop
      vertex 33.3333 -143.2 -8.33333
      vertex 33.3333 -161.808 -9.54877
      vertex 33.3333 -159.765 -9.93816
    endloop
  endfacet
  facet normal 1 0 0
    outer loop
      vertex 33.3333 -143.2 -8.33333
      vertex 33.3333 -163.166 -9.28988
      vertex 33.3333 -161.808 -9.54877
    endloop
  endfacet
  facet normal 1 -0 0
    outer loop
      vertex 33.3333 -166.967 -8.33333
      vertex 33.3333 -163.166 -9.28988
      vertex 33.3333 -143.2 -8.33333
    endloop
  endfacet
  facet normal 1 0 0
    outer loop
      vertex 33.3333 -163.166 -9.28988
      vertex 33.3333 -166.967 -8.33333
      vertex 33.3333 -165.523 -8.76734
    endloop
  endfacet
  facet normal 1 0 0
    outer loop
      vertex 33.3333 -165.523 -8.76734
      vertex 33.3333 -166.967 -8.33333
      vertex 33.3333 -166.28 -8.59962
    endloop
  endfacet
  facet normal -0 0 1
    outer loop
      vertex 16.6667 -143.2 -8.33333
      vertex 33.3333 -166.967 -8.33333
      vertex 33.3333 -143.2 -8.33333
    endloop
  endfacet
  facet normal 0 0 1
    outer loop
      vertex 16.6667 -171.94 -8.33333
      vertex 33.3333 -166.967 -8.33333
      vertex 16.6667 -143.2 -8.33333
    endloop
  endfacet
  facet normal 0 -0 1
    outer loop
      vertex 18.3538 -172.61 -8.33333
      vertex 33.3333 -166.967 -8.33333
      vertex 16.6667 -171.94 -8.33333
    endloop
  endfacet
  facet normal 0 -0 1
    outer loop
      vertex 19.8786 -173.023 -8.33333
      vertex 33.3333 -166.967 -8.33333
      vertex 18.3538 -172.61 -8.33333
    endloop
  endfacet
  facet normal 0 -0 1
    outer loop
      vertex 20.8527 -173.203 -8.33333
      vertex 33.3333 -166.967 -8.33333
      vertex 19.8786 -173.023 -8.33333
    endloop
  endfacet
  facet normal 0 -0 1
    outer loop
      vertex 22.1916 -173.398 -8.33333
      vertex 33.3333 -166.967 -8.33333
      vertex 20.8527 -173.203 -8.33333
    endloop
  endfacet
  facet normal 0 -0 1
    outer loop
      vertex 24.0617 -173.472 -8.33333
      vertex 33.3333 -166.967 -8.33333
      vertex 22.1916 -173.398 -8.33333
    endloop
  endfacet
  facet normal 0 -0 1
    outer loop
      vertex 25.5385 -173.35 -8.33333
      vertex 33.3333 -166.967 -8.33333
      vertex 24.0617 -173.472 -8.33333
    endloop
  endfacet
  facet normal 0 0 1
    outer loop
      vertex 32.142 -169.83 -8.33333
      vertex 31.2779 -171.026 -8.33333
      vertex 31.4216 -170.918 -8.33333
    endloop
  endfacet
  facet normal 0 0 1
    outer loop
      vertex 33.3333 -166.967 -8.33333
      vertex 26.8339 -173.094 -8.33333
      vertex 32.843 -168.284 -8.33333
    endloop
  endfacet
  facet normal 0 0 1
    outer loop
      vertex 30.2608 -171.637 -8.33333
      vertex 29.205 -172.233 -8.33333
      vertex 29.4586 -172.119 -8.33333
    endloop
  endfacet
  facet normal 0 0 1
    outer loop
      vertex 32.843 -168.284 -8.33333
      vertex 30.2608 -171.637 -8.33333
      vertex 32.5117 -169.174 -8.33333
    endloop
  endfacet
  facet normal 0 0 1
    outer loop
      vertex 32.5117 -169.174 -8.33333
      vertex 30.2608 -171.637 -8.33333
      vertex 32.142 -169.83 -8.33333
    endloop
  endfacet
  facet normal 0 -0 1
    outer loop
      vertex 30.2608 -171.637 -8.33333
      vertex 32.843 -168.284 -8.33333
      vertex 29.205 -172.233 -8.33333
    endloop
  endfacet
  facet normal 0 0 1
    outer loop
      vertex 28.0642 -172.722 -8.33333
      vertex 26.8339 -173.094 -8.33333
      vertex 27.8703 -172.802 -8.33333
    endloop
  endfacet
  facet normal 0 0 1
    outer loop
      vertex 32.843 -168.284 -8.33333
      vertex 28.0642 -172.722 -8.33333
      vertex 28.6926 -172.464 -8.33333
    endloop
  endfacet
  facet normal 0 0 1
    outer loop
      vertex 26.8339 -173.094 -8.33333
      vertex 25.5385 -173.35 -8.33333
      vertex 26.396 -173.217 -8.33333
    endloop
  endfacet
  facet normal 0 0 1
    outer loop
      vertex 25.5385 -173.35 -8.33333
      vertex 24.0617 -173.472 -8.33333
      vertex 24.9592 -173.44 -8.33333
    endloop
  endfacet
  facet normal 0 -0 1
    outer loop
      vertex 28.0642 -172.722 -8.33333
      vertex 32.843 -168.284 -8.33333
      vertex 26.8339 -173.094 -8.33333
    endloop
  endfacet
  facet normal 0 0 1
    outer loop
      vertex 24.0617 -173.472 -8.33333
      vertex 22.1916 -173.398 -8.33333
      vertex 23.4702 -173.493 -8.33333
    endloop
  endfacet
  facet normal 0 -0 1
    outer loop
      vertex 29.205 -172.233 -8.33333
      vertex 32.843 -168.284 -8.33333
      vertex 28.6926 -172.464 -8.33333
    endloop
  endfacet
  facet normal 0 0 1
    outer loop
      vertex 22.1916 -173.398 -8.33333
      vertex 20.8527 -173.203 -8.33333
      vertex 21.8309 -173.372 -8.33333
    endloop
  endfacet
  facet normal 0 0 1
    outer loop
      vertex 32.142 -169.83 -8.33333
      vertex 31.4216 -170.918 -8.33333
      vertex 31.607 -170.779 -8.33333
    endloop
  endfacet
  facet normal 0 -0 1
    outer loop
      vertex 31.2779 -171.026 -8.33333
      vertex 32.142 -169.83 -8.33333
      vertex 30.2608 -171.637 -8.33333
    endloop
  endfacet
  facet normal 0 0 1
    outer loop
      vertex 18.3538 -172.61 -8.33333
      vertex 16.6667 -171.94 -8.33333
      vertex 17.3547 -172.339 -8.33333
    endloop
  endfacet
  facet normal 0 -0 1
    outer loop
      vertex 26.8339 -173.094 -8.33333
      vertex 33.3333 -166.967 -8.33333
      vertex 25.5385 -173.35 -8.33333
    endloop
  endfacet
  facet normal 0 0 1
    outer loop
      vertex 17.3547 -172.339 -8.33333
      vertex 16.6667 -171.94 -8.33333
      vertex 16.861 -172.17 -8.33333
    endloop
  endfacet
  facet normal -1 0 0
    outer loop
      vertex 16.6667 -146.04 -15.4094
      vertex 16.6667 -143.2 -8.33333
      vertex 16.6667 -143.2 -15.7668
    endloop
  endfacet
  facet normal -1 0 0
    outer loop
      vertex 16.6667 -149.894 -14.7864
      vertex 16.6667 -143.2 -8.33333
      vertex 16.6667 -146.04 -15.4094
    endloop
  endfacet
  facet normal -1 0 0
    outer loop
      vertex 16.6667 -153.177 -14.2557
      vertex 16.6667 -143.2 -8.33333
      vertex 16.6667 -149.894 -14.7864
    endloop
  endfacet
  facet normal -1 0 0
    outer loop
      vertex 16.6667 -156.565 -13.5726
      vertex 16.6667 -143.2 -8.33333
      vertex 16.6667 -153.177 -14.2557
    endloop
  endfacet
  facet normal -1 0 0
    outer loop
      vertex 16.6667 -161.337 -12.6106
      vertex 16.6667 -143.2 -8.33333
      vertex 16.6667 -156.565 -13.5726
    endloop
  endfacet
  facet normal -1 0 0
    outer loop
      vertex 16.6667 -161.948 -12.4015
      vertex 16.6667 -143.2 -8.33333
      vertex 16.6667 -161.337 -12.6106
    endloop
  endfacet
  facet normal -1 0 0
    outer loop
      vertex 16.6667 -163.314 -11.933
      vertex 16.6667 -143.2 -8.33333
      vertex 16.6667 -161.948 -12.4015
    endloop
  endfacet
  facet normal -1 0 0
    outer loop
      vertex 16.6667 -164.286 -11.5366
      vertex 16.6667 -143.2 -8.33333
      vertex 16.6667 -163.314 -11.933
    endloop
  endfacet
  facet normal -1 0 0
    outer loop
      vertex 16.6667 -164.738 -11.3523
      vertex 16.6667 -143.2 -8.33333
      vertex 16.6667 -164.286 -11.5366
    endloop
  endfacet
  facet normal -1 0 0
    outer loop
      vertex 16.6667 -171.94 -8.33333
      vertex 16.6667 -164.738 -11.3523
      vertex 16.6667 -166.82 -10.8675
    endloop
  endfacet
  facet normal -1 0 0
    outer loop
      vertex 16.6667 -169.035 -10.0579
      vertex 16.6667 -166.82 -10.8675
      vertex 16.6667 -167.852 -10.6274
    endloop
  endfacet
  facet normal -1 0 0
    outer loop
      vertex 16.6667 -171.94 -8.33333
      vertex 16.6667 -166.82 -10.8675
      vertex 16.6667 -169.035 -10.0579
    endloop
  endfacet
  facet normal -1 0 0
    outer loop
      vertex 16.6667 -170.807 -9.17956
      vertex 16.6667 -169.035 -10.0579
      vertex 16.6667 -170.669 -9.27161
    endloop
  endfacet
  facet normal -1 0 0
    outer loop
      vertex 16.6667 -169.035 -10.0579
      vertex 16.6667 -170.807 -9.17956
      vertex 16.6667 -171.883 -8.3779
    endloop
  endfacet
  facet normal -1 0 0
    outer loop
      vertex 16.6667 -171.883 -8.3779
      vertex 16.6667 -170.807 -9.17956
      vertex 16.6667 -171.163 -8.94368
    endloop
  endfacet
  facet normal -1 0 0
    outer loop
      vertex 16.6667 -171.94 -8.33333
      vertex 16.6667 -169.035 -10.0579
      vertex 16.6667 -171.883 -8.3779
    endloop
  endfacet
  facet normal -1 0 0
    outer loop
      vertex 16.6667 -164.738 -11.3523
      vertex 16.6667 -171.94 -8.33333
      vertex 16.6667 -143.2 -8.33333
    endloop
  endfacet
  facet normal 0 1 0
    outer loop
      vertex 33.2587 -143.2 -11.9992
      vertex 33.3333 -143.2 -8.33333
      vertex 33.3333 -143.2 -11.9245
    endloop
  endfacet
  facet normal 0 1 0
    outer loop
      vertex 32.6124 -143.2 -12.6462
      vertex 33.3333 -143.2 -8.33333
      vertex 33.2587 -143.2 -11.9992
    endloop
  endfacet
  facet normal 0 1 0
    outer loop
      vertex 33.3333 -143.2 -8.33333
      vertex 32.6124 -143.2 -12.6462
      vertex 30.951 -143.2 -13.8136
    endloop
  endfacet
  facet normal 0 1 0
    outer loop
      vertex 30.2408 -143.2 -14.3127
      vertex 33.3333 -143.2 -8.33333
      vertex 30.951 -143.2 -13.8136
    endloop
  endfacet
  facet normal 0 1 0
    outer loop
      vertex 28.3483 -143.2 -15.2026
      vertex 33.3333 -143.2 -8.33333
      vertex 30.2408 -143.2 -14.3127
    endloop
  endfacet
  facet normal 0 1 0
    outer loop
      vertex 33.3333 -143.2 -8.33333
      vertex 28.3483 -143.2 -15.2026
      vertex 16.6667 -143.2 -8.33333
    endloop
  endfacet
  facet normal 0 1 -0
    outer loop
      vertex 27.6108 -143.2 -15.5494
      vertex 16.6667 -143.2 -8.33333
      vertex 28.3483 -143.2 -15.2026
    endloop
  endfacet
  facet normal 0 1 -0
    outer loop
      vertex 25.5308 -143.2 -16.1179
      vertex 16.6667 -143.2 -8.33333
      vertex 27.6108 -143.2 -15.5494
    endloop
  endfacet
  facet normal 0 1 0
    outer loop
      vertex 16.6667 -143.2 -8.33333
      vertex 16.7018 -143.2 -15.7758
      vertex 16.6667 -143.2 -15.7668
    endloop
  endfacet
  facet normal 0 1 -0
    outer loop
      vertex 24.8006 -143.2 -16.3175
      vertex 16.6667 -143.2 -8.33333
      vertex 25.5308 -143.2 -16.1179
    endloop
  endfacet
  facet normal 0 1 0
    outer loop
      vertex 16.6667 -143.2 -8.33333
      vertex 24.8006 -143.2 -16.3175
      vertex 22.5873 -143.2 -16.5264
    endloop
  endfacet
  facet normal 0 1 -0
    outer loop
      vertex 21.8945 -143.2 -16.5918
      vertex 16.6667 -143.2 -8.33333
      vertex 22.5873 -143.2 -16.5264
    endloop
  endfacet
  facet normal 0 1 0
    outer loop
      vertex 16.6667 -143.2 -8.33333
      vertex 18.9805 -143.2 -16.362
      vertex 16.7018 -143.2 -15.7758
    endloop
  endfacet
  facet normal -0 1 -0
    outer loop
      vertex 18.9805 -143.2 -16.362
      vertex 16.6667 -143.2 -8.33333
      vertex 19.6122 -143.2 -16.4118
    endloop
  endfacet
  facet normal 0 1 0
    outer loop
      vertex 16.6667 -143.2 -8.33333
      vertex 21.8945 -143.2 -16.5918
      vertex 19.6122 -143.2 -16.4118
    endloop
  endfacet
  facet normal 0.0937626 -0.068638 -0.993226
    outer loop
      vertex 23.333 -152.548 -15.81
      vertex 22.5873 -143.2 -16.5264
      vertex 26.0663 -152.29 -15.5698
    endloop
  endfacet
  facet normal 0.0937601 -0.0686382 -0.993226
    outer loop
      vertex 22.5873 -143.2 -16.5264
      vertex 23.333 -152.548 -15.81
      vertex 21.8945 -143.2 -16.5918
    endloop
  endfacet
  facet normal 0.0937447 -0.068645 -0.993227
    outer loop
      vertex 24.8006 -143.2 -16.3175
      vertex 26.0663 -152.29 -15.5698
      vertex 22.5873 -143.2 -16.5264
    endloop
  endfacet
  facet normal 0.103367 -0.186183 -0.977062
    outer loop
      vertex 23.333 -152.548 -15.81
      vertex 25.6856 -160.487 -14.0483
      vertex 23.2194 -160.719 -14.265
    endloop
  endfacet
  facet normal 0.103435 -0.186162 -0.977059
    outer loop
      vertex 26.0663 -152.29 -15.5698
      vertex 25.6856 -160.487 -14.0483
      vertex 23.333 -152.548 -15.81
    endloop
  endfacet
  facet normal 0.106322 -0.224886 -0.968567
    outer loop
      vertex 26.068 -163.851 -13.2251
      vertex 23.7464 -164.07 -13.4291
      vertex 23.2194 -160.719 -14.265
    endloop
  endfacet
  facet normal 0.106266 -0.224936 -0.968562
    outer loop
      vertex 25.6856 -160.487 -14.0483
      vertex 26.068 -163.851 -13.2251
      vertex 23.2194 -160.719 -14.265
    endloop
  endfacet
  facet normal 0.102199 -0.170372 -0.980066
    outer loop
      vertex 26.0553 -166.966 -12.6849
      vertex 23.8285 -167.176 -12.8806
      vertex 23.7464 -164.07 -13.4291
    endloop
  endfacet
  facet normal 0.102191 -0.170379 -0.980065
    outer loop
      vertex 26.068 -163.851 -13.2251
      vertex 26.0553 -166.966 -12.6849
      vertex 23.7464 -164.07 -13.4291
    endloop
  endfacet
  facet normal 0.112407 -0.314382 -0.942618
    outer loop
      vertex 26.1523 -169.774 -11.737
      vertex 24.0919 -169.968 -11.918
      vertex 23.8285 -167.176 -12.8806
    endloop
  endfacet
  facet normal 0.112484 -0.314319 -0.94263
    outer loop
      vertex 26.0553 -166.966 -12.6849
      vertex 26.1523 -169.774 -11.737
      vertex 23.8285 -167.176 -12.8806
    endloop
  endfacet
  facet normal 0.119232 -0.431568 -0.894166
    outer loop
      vertex 26.1654 -171.293 -11.002
      vertex 24.234 -171.475 -11.1717
      vertex 24.0919 -169.968 -11.918
    endloop
  endfacet
  facet normal 0.119188 -0.431623 -0.894145
    outer loop
      vertex 26.1523 -169.774 -11.737
      vertex 26.1654 -171.293 -11.002
      vertex 24.0919 -169.968 -11.918
    endloop
  endfacet
  facet normal 0.127228 -0.792605 -0.596314
    outer loop
      vertex 26.3721 -172.682 -9.11121
      vertex 24.7726 -172.833 -9.25177
      vertex 24.234 -171.475 -11.1717
    endloop
  endfacet
  facet normal 0.127084 -0.792699 -0.59622
    outer loop
      vertex 26.1654 -171.293 -11.002
      vertex 26.3721 -172.682 -9.11121
      vertex 24.234 -171.475 -11.1717
    endloop
  endfacet
  facet normal 0.126697 -0.815505 -0.564711
    outer loop
      vertex 25.5385 -173.35 -8.33333
      vertex 24.9592 -173.44 -8.33333
      vertex 24.7726 -172.833 -9.25177
    endloop
  endfacet
  facet normal 0.126486 -0.815503 -0.564762
    outer loop
      vertex 25.5385 -173.35 -8.33333
      vertex 26.3721 -172.682 -9.11121
      vertex 26.396 -173.217 -8.33333
    endloop
  endfacet
  facet normal 0.126613 -0.81555 -0.564666
    outer loop
      vertex 26.3721 -172.682 -9.11121
      vertex 25.5385 -173.35 -8.33333
      vertex 24.7726 -172.833 -9.25177
    endloop
  endfacet
  facet normal 0.263418 -0.0425925 -0.963741
    outer loop
      vertex 26.0663 -152.29 -15.5698
      vertex 25.5308 -143.2 -16.1179
      vertex 28.7164 -152.04 -14.8565
    endloop
  endfacet
  facet normal 0.263437 -0.0425911 -0.963736
    outer loop
      vertex 25.5308 -143.2 -16.1179
      vertex 26.0663 -152.29 -15.5698
      vertex 24.8006 -143.2 -16.3175
    endloop
  endfacet
  facet normal 0.263408 -0.0425966 -0.963744
    outer loop
      vertex 27.6108 -143.2 -15.5494
      vertex 28.7164 -152.04 -14.8565
      vertex 25.5308 -143.2 -16.1179
    endloop
  endfacet
  facet normal 0.271792 -0.187817 -0.94385
    outer loop
      vertex 26.0663 -152.29 -15.5698
      vertex 28.0768 -160.261 -13.4047
      vertex 25.6856 -160.487 -14.0483
    endloop
  endfacet
  facet normal 0.271767 -0.187825 -0.943856
    outer loop
      vertex 28.7164 -152.04 -14.8565
      vertex 28.0768 -160.261 -13.4047
      vertex 26.0663 -152.29 -15.5698
    endloop
  endfacet
  facet normal 0.272155 -0.199422 -0.941362
    outer loop
      vertex 28.3191 -163.639 -12.6192
      vertex 26.068 -163.851 -13.2251
      vertex 25.6856 -160.487 -14.0483
    endloop
  endfacet
  facet normal 0.272213 -0.199372 -0.941356
    outer loop
      vertex 28.0768 -160.261 -13.4047
      vertex 28.3191 -163.639 -12.6192
      vertex 25.6856 -160.487 -14.0483
    endloop
  endfacet
  facet normal 0.270778 -0.165557 -0.948299
    outer loop
      vertex 26.068 -163.851 -13.2251
      vertex 28.2145 -166.763 -12.1038
      vertex 26.0553 -166.966 -12.6849
    endloop
  endfacet
  facet normal 0.270827 -0.165518 -0.948291
    outer loop
      vertex 28.3191 -163.639 -12.6192
      vertex 28.2145 -166.763 -12.1038
      vertex 26.068 -163.851 -13.2251
    endloop
  endfacet
  facet normal 0.274282 -0.299054 -0.913967
    outer loop
      vertex 28.1501 -169.585 -11.1993
      vertex 26.1523 -169.774 -11.737
      vertex 26.0553 -166.966 -12.6849
    endloop
  endfacet
  facet normal 0.274105 -0.299199 -0.913973
    outer loop
      vertex 28.2145 -166.763 -12.1038
      vertex 28.1501 -169.585 -11.1993
      vertex 26.0553 -166.966 -12.6849
    endloop
  endfacet
  facet normal 0.272749 -0.41714 -0.86695
    outer loop
      vertex 28.0381 -171.116 -10.498
      vertex 26.1654 -171.293 -11.002
      vertex 26.1523 -169.774 -11.737
    endloop
  endfacet
  facet normal 0.272797 -0.417083 -0.866962
    outer loop
      vertex 28.1501 -169.585 -11.1993
      vertex 28.0381 -171.116 -10.498
      vertex 26.1523 -169.774 -11.737
    endloop
  endfacet
  facet normal 0.23204 -0.77164 -0.592224
    outer loop
      vertex 27.9229 -172.536 -8.69382
      vertex 26.3721 -172.682 -9.11121
      vertex 26.1654 -171.293 -11.002
    endloop
  endfacet
  facet normal 0.232334 -0.771456 -0.592348
    outer loop
      vertex 28.0381 -171.116 -10.498
      vertex 27.9229 -172.536 -8.69382
      vertex 26.1654 -171.293 -11.002
    endloop
  endfacet
  facet normal 0.224611 -0.799651 -0.556874
    outer loop
      vertex 26.8339 -173.094 -8.33333
      vertex 26.396 -173.217 -8.33333
      vertex 26.3721 -172.682 -9.11121
    endloop
  endfacet
  facet normal 0.225225 -0.799393 -0.556997
    outer loop
      vertex 26.8339 -173.094 -8.33333
      vertex 27.9229 -172.536 -8.69382
      vertex 27.8703 -172.802 -8.33333
    endloop
  endfacet
  facet normal 0.225186 -0.799359 -0.557061
    outer loop
      vertex 27.9229 -172.536 -8.69382
      vertex 26.8339 -173.094 -8.33333
      vertex 26.3721 -172.682 -9.11121
    endloop
  endfacet
  facet normal 0.425423 -0.0177105 -0.904821
    outer loop
      vertex 28.7164 -152.04 -14.8565
      vertex 28.3483 -143.2 -15.2026
      vertex 31.2031 -151.806 -13.6919
    endloop
  endfacet
  facet normal 0.42547 -0.0177076 -0.904799
    outer loop
      vertex 28.3483 -143.2 -15.2026
      vertex 28.7164 -152.04 -14.8565
      vertex 27.6108 -143.2 -15.5494
    endloop
  endfacet
  facet normal 0.425461 -0.0176948 -0.904804
    outer loop
      vertex 30.2408 -143.2 -14.3127
      vertex 31.2031 -151.806 -13.6919
      vertex 28.3483 -143.2 -15.2026
    endloop
  endfacet
  facet normal 0.431084 -0.189336 -0.882224
    outer loop
      vertex 28.7164 -152.04 -14.8565
      vertex 30.3204 -160.049 -12.3539
      vertex 28.0768 -160.261 -13.4047
    endloop
  endfacet
  facet normal 0.431007 -0.189362 -0.882256
    outer loop
      vertex 31.2031 -151.806 -13.6919
      vertex 30.3204 -160.049 -12.3539
      vertex 28.7164 -152.04 -14.8565
    endloop
  endfacet
  facet normal 0.431049 -0.174923 -0.885211
    outer loop
      vertex 30.4313 -163.44 -11.63
      vertex 28.3191 -163.639 -12.6192
      vertex 28.0768 -160.261 -13.4047
    endloop
  endfacet
  facet normal 0.431108 -0.174869 -0.885193
    outer loop
      vertex 30.3204 -160.049 -12.3539
      vertex 30.4313 -163.44 -11.63
      vertex 28.0768 -160.261 -13.4047
    endloop
  endfacet
  facet normal 0.431036 -0.160914 -0.887871
    outer loop
      vertex 28.3191 -163.639 -12.6192
      vertex 30.2404 -166.572 -11.1549
      vertex 28.2145 -166.763 -12.1038
    endloop
  endfacet
  facet normal 0.430986 -0.160955 -0.887888
    outer loop
      vertex 30.4313 -163.44 -11.63
      vertex 30.2404 -166.572 -11.1549
      vertex 28.3191 -163.639 -12.6192
    endloop
  endfacet
  facet normal 0.428533 -0.28463 -0.857523
    outer loop
      vertex 28.2145 -166.763 -12.1038
      vertex 30.0246 -169.408 -10.3213
      vertex 28.1501 -169.585 -11.1993
    endloop
  endfacet
  facet normal 0.428492 -0.284664 -0.857532
    outer loop
      vertex 30.2404 -166.572 -11.1549
      vertex 30.0246 -169.408 -10.3213
      vertex 28.2145 -166.763 -12.1038
    endloop
  endfacet
  facet normal 0.419111 -0.403278 -0.813458
    outer loop
      vertex 28.1501 -169.585 -11.1993
      vertex 29.7952 -170.95 -9.675
      vertex 28.0381 -171.116 -10.498
    endloop
  endfacet
  facet normal 0.419097 -0.403293 -0.813457
    outer loop
      vertex 30.0246 -169.408 -10.3213
      vertex 29.7952 -170.95 -9.675
      vertex 28.1501 -169.585 -11.1993
    endloop
  endfacet
  facet normal 0.336674 -0.750258 -0.569002
    outer loop
      vertex 28.0381 -171.116 -10.498
      vertex 28.6926 -172.464 -8.33333
      vertex 27.9229 -172.536 -8.69382
    endloop
  endfacet
  facet normal 0.337963 -0.749664 -0.569021
    outer loop
      vertex 28.6926 -172.464 -8.33333
      vertex 28.0381 -171.116 -10.498
      vertex 29.205 -172.233 -8.33333
    endloop
  endfacet
  facet normal 0.337178 -0.750073 -0.568948
    outer loop
      vertex 29.205 -172.233 -8.33333
      vertex 29.7952 -170.95 -9.675
      vertex 29.4586 -172.119 -8.33333
    endloop
  endfacet
  facet normal 0.337316 -0.750063 -0.568879
    outer loop
      vertex 29.7952 -170.95 -9.675
      vertex 29.205 -172.233 -8.33333
      vertex 28.0381 -171.116 -10.498
    endloop
  endfacet
  facet normal 0.323212 -0.783385 -0.530887
    outer loop
      vertex 27.9229 -172.536 -8.69382
      vertex 28.0642 -172.722 -8.33333
      vertex 27.8703 -172.802 -8.33333
    endloop
  endfacet
  facet normal 0.321902 -0.784043 -0.530713
    outer loop
      vertex 28.6926 -172.464 -8.33333
      vertex 28.0642 -172.722 -8.33333
      vertex 27.9229 -172.536 -8.69382
    endloop
  endfacet
  facet normal 0.574966 0.00525239 -0.81816
    outer loop
      vertex 31.2031 -151.806 -13.6919
      vertex 33.3333 -151.2 -12.191
      vertex 33.3333 -151.605 -12.1936
    endloop
  endfacet
  facet normal 0.574963 0.00527279 -0.818163
    outer loop
      vertex 31.2031 -151.806 -13.6919
      vertex 30.951 -143.2 -13.8136
      vertex 33.3333 -151.2 -12.191
    endloop
  endfacet
  facet normal 0.574969 0.00527304 -0.818158
    outer loop
      vertex 30.951 -143.2 -13.8136
      vertex 31.2031 -151.806 -13.6919
      vertex 30.2408 -143.2 -14.3127
    endloop
  endfacet
  facet normal 0.574899 0.00524492 -0.818207
    outer loop
      vertex 30.951 -143.2 -13.8136
      vertex 33.3333 -150.42 -12.186
      vertex 33.3333 -151.2 -12.191
    endloop
  endfacet
  facet normal 0.574914 0.00525231 -0.818197
    outer loop
      vertex 33.3333 -150.42 -12.186
      vertex 30.951 -143.2 -13.8136
      vertex 32.6124 -143.2 -12.6462
    endloop
  endfacet
  facet normal 0.576689 -0.1907 -0.794394
    outer loop
      vertex 31.2031 -151.806 -13.6919
      vertex 32.3483 -159.858 -10.9276
      vertex 30.3204 -160.049 -12.3539
    endloop
  endfacet
  facet normal 0.576707 -0.190694 -0.794383
    outer loop
      vertex 31.2031 -151.806 -13.6919
      vertex 33.3333 -152.473 -11.9853
      vertex 32.3483 -159.858 -10.9276
    endloop
  endfacet
  facet normal 0.576726 -0.190634 -0.794384
    outer loop
      vertex 33.3333 -152.473 -11.9853
      vertex 31.2031 -151.806 -13.6919
      vertex 33.3333 -151.605 -12.1936
    endloop
  endfacet
  facet normal 0.57816 -0.152215 -0.8016
    outer loop
      vertex 32.3403 -163.26 -10.2873
      vertex 30.4313 -163.44 -11.63
      vertex 30.3204 -160.049 -12.3539
    endloop
  endfacet
  facet normal 0.578141 -0.152233 -0.80161
    outer loop
      vertex 32.3483 -159.858 -10.9276
      vertex 32.3403 -163.26 -10.2873
      vertex 30.3204 -160.049 -12.3539
    endloop
  endfacet
  facet normal 0.578037 -0.156711 -0.800822
    outer loop
      vertex 30.4313 -163.44 -11.63
      vertex 32.0714 -166.399 -9.86713
      vertex 30.2404 -166.572 -11.1549
    endloop
  endfacet
  facet normal 0.578036 -0.156711 -0.800822
    outer loop
      vertex 32.3403 -163.26 -10.2873
      vertex 32.0714 -166.399 -9.86713
      vertex 30.4313 -163.44 -11.63
    endloop
  endfacet
  facet normal 0.570613 -0.271257 -0.775127
    outer loop
      vertex 30.2404 -166.572 -11.1549
      vertex 31.7188 -169.249 -9.12975
      vertex 30.0246 -169.408 -10.3213
    endloop
  endfacet
  facet normal 0.570739 -0.271146 -0.775072
    outer loop
      vertex 32.0714 -166.399 -9.86713
      vertex 31.7188 -169.249 -9.12975
      vertex 30.2404 -166.572 -11.1549
    endloop
  endfacet
  facet normal 0.553993 -0.39057 -0.735219
    outer loop
      vertex 30.0246 -169.408 -10.3213
      vertex 31.3833 -170.8 -8.55804
      vertex 29.7952 -170.95 -9.675
    endloop
  endfacet
  facet normal 0.553786 -0.390808 -0.735248
    outer loop
      vertex 31.7188 -169.249 -9.12975
      vertex 31.3833 -170.8 -8.55804
      vertex 30.0246 -169.408 -10.3213
    endloop
  endfacet
  facet normal 0.438187 -0.729281 -0.525491
    outer loop
      vertex 29.7952 -170.95 -9.675
      vertex 30.2608 -171.637 -8.33333
      vertex 29.4586 -172.119 -8.33333
    endloop
  endfacet
  facet normal 0.437543 -0.728356 -0.527308
    outer loop
      vertex 30.2608 -171.637 -8.33333
      vertex 31.3833 -170.8 -8.55804
      vertex 31.2779 -171.026 -8.33333
    endloop
  endfacet
  facet normal 0.438466 -0.729108 -0.525499
    outer loop
      vertex 31.3833 -170.8 -8.55804
      vertex 30.2608 -171.637 -8.33333
      vertex 29.7952 -170.95 -9.675
    endloop
  endfacet
  facet normal 0.707258 0.0255539 -0.706493
    outer loop
      vertex 33.3333 -143.487 -11.9349
      vertex 32.6124 -143.2 -12.6462
      vertex 33.2587 -143.2 -11.9992
    endloop
  endfacet
  facet normal 0.707265 0.0255876 -0.706486
    outer loop
      vertex 32.6124 -143.2 -12.6462
      vertex 33.3333 -143.487 -11.9349
      vertex 33.3333 -150.42 -12.186
    endloop
  endfacet
  facet normal 0.707348 0.0255978 -0.706401
    outer loop
      vertex 33.3333 -143.2 -11.9245
      vertex 33.3333 -143.487 -11.9349
      vertex 33.2587 -143.2 -11.9992
    endloop
  endfacet
  facet normal 0.70449 -0.191828 -0.683298
    outer loop
      vertex 33.3333 -152.473 -11.9853
      vertex 33.3333 -159.765 -9.93816
      vertex 32.3483 -159.858 -10.9276
    endloop
  endfacet
  facet normal 0.70866 -0.132127 -0.693068
    outer loop
      vertex 32.3403 -163.26 -10.2873
      vertex 33.3333 -161.808 -9.54877
      vertex 33.3333 -163.166 -9.28988
    endloop
  endfacet
  facet normal 0.70865 -0.132113 -0.693081
    outer loop
      vertex 33.3333 -161.808 -9.54877
      vertex 32.3403 -163.26 -10.2873
      vertex 32.3483 -159.858 -10.9276
    endloop
  endfacet
  facet normal 0.708665 -0.132097 -0.693069
    outer loop
      vertex 33.3333 -159.765 -9.93816
      vertex 33.3333 -161.808 -9.54877
      vertex 32.3483 -159.858 -10.9276
    endloop
  endfacet
  facet normal 0.707482 -0.152875 -0.689998
    outer loop
      vertex 32.0714 -166.399 -9.86713
      vertex 33.3333 -165.523 -8.76734
      vertex 33.3333 -166.28 -8.59962
    endloop
  endfacet
  facet normal 0.707505 -0.152962 -0.689956
    outer loop
      vertex 33.3333 -165.523 -8.76734
      vertex 32.0714 -166.399 -9.86713
      vertex 32.3403 -163.26 -10.2873
    endloop
  endfacet
  facet normal 0.707506 -0.152961 -0.689955
    outer loop
      vertex 33.3333 -163.166 -9.28988
      vertex 33.3333 -165.523 -8.76734
      vertex 32.3403 -163.26 -10.2873
    endloop
  endfacet
  facet normal 0.696534 -0.259283 -0.669039
    outer loop
      vertex 31.7188 -169.249 -9.12975
      vertex 32.843 -168.284 -8.33333
      vertex 32.5117 -169.174 -8.33333
    endloop
  endfacet
  facet normal 0.696532 -0.259276 -0.669044
    outer loop
      vertex 32.843 -168.284 -8.33333
      vertex 31.7188 -169.249 -9.12975
      vertex 32.0714 -166.399 -9.86713
    endloop
  endfacet
  facet normal 0.696492 -0.259337 -0.669062
    outer loop
      vertex 33.3333 -166.967 -8.33333
      vertex 32.0714 -166.399 -9.86713
      vertex 33.3333 -166.28 -8.59962
    endloop
  endfacet
  facet normal 0.696507 -0.2593 -0.66906
    outer loop
      vertex 32.0714 -166.399 -9.86713
      vertex 33.3333 -166.967 -8.33333
      vertex 32.843 -168.284 -8.33333
    endloop
  endfacet
  facet normal 0.673172 -0.379501 -0.63468
    outer loop
      vertex 31.3833 -170.8 -8.55804
      vertex 32.142 -169.83 -8.33333
      vertex 31.607 -170.779 -8.33333
    endloop
  endfacet
  facet normal 0.673209 -0.379546 -0.634613
    outer loop
      vertex 32.142 -169.83 -8.33333
      vertex 31.3833 -170.8 -8.55804
      vertex 31.7188 -169.249 -9.12975
    endloop
  endfacet
  facet normal 0.673293 -0.379446 -0.634584
    outer loop
      vertex 32.5117 -169.174 -8.33333
      vertex 32.142 -169.83 -8.33333
      vertex 31.7188 -169.249 -9.12975
    endloop
  endfacet
  facet normal 0.532564 -0.708606 -0.462875
    outer loop
      vertex 31.3833 -170.8 -8.55804
      vertex 31.4216 -170.918 -8.33333
      vertex 31.2779 -171.026 -8.33333
    endloop
  endfacet
  facet normal 0.531686 -0.709169 -0.463021
    outer loop
      vertex 31.607 -170.779 -8.33333
      vertex 31.4216 -170.918 -8.33333
      vertex 31.3833 -170.8 -8.55804
    endloop
  endfacet
  facet normal -0.589165 -0.497717 -0.636524
    outer loop
      vertex 16.6667 -171.883 -8.3779
      vertex 16.861 -172.17 -8.33333
      vertex 16.6667 -171.94 -8.33333
    endloop
  endfacet
  facet normal -0.590658 -0.498426 -0.634583
    outer loop
      vertex 16.861 -172.17 -8.33333
      vertex 16.6667 -171.883 -8.3779
      vertex 17.0847 -172.149 -8.55804
    endloop
  endfacet
  facet normal -0.590686 -0.498557 -0.634453
    outer loop
      vertex 16.6667 -171.163 -8.94368
      vertex 17.0847 -172.149 -8.55804
      vertex 16.6667 -171.883 -8.3779
    endloop
  endfacet
  facet normal -0.299569 -0.875131 -0.380007
    outer loop
      vertex 17.0847 -172.149 -8.55804
      vertex 17.3547 -172.339 -8.33333
      vertex 16.861 -172.17 -8.33333
    endloop
  endfacet
  facet normal -0.524445 -0.321475 -0.788424
    outer loop
      vertex 16.6667 -164.286 -11.5366
      vertex 17.0615 -164.701 -11.63
      vertex 16.6667 -164.738 -11.3523
    endloop
  endfacet
  facet normal -0.52448 -0.321517 -0.788383
    outer loop
      vertex 16.6667 -163.314 -11.933
      vertex 17.0615 -164.701 -11.63
      vertex 16.6667 -164.286 -11.5366
    endloop
  endfacet
  facet normal -0.552922 -0.188813 -0.811558
    outer loop
      vertex 16.6667 -166.82 -10.8675
      vertex 17.4167 -167.781 -11.1549
      vertex 16.6667 -167.852 -10.6274
    endloop
  endfacet
  facet normal -0.553049 -0.188948 -0.811441
    outer loop
      vertex 16.6667 -166.82 -10.8675
      vertex 17.0615 -164.701 -11.63
      vertex 17.4167 -167.781 -11.1549
    endloop
  endfacet
  facet normal -0.553053 -0.188946 -0.811438
    outer loop
      vertex 17.0615 -164.701 -11.63
      vertex 16.6667 -166.82 -10.8675
      vertex 16.6667 -164.738 -11.3523
    endloop
  endfacet
  facet normal -0.509926 -0.373002 -0.775142
    outer loop
      vertex 16.6667 -169.035 -10.0579
      vertex 18.1592 -170.528 -10.3213
      vertex 16.6667 -170.669 -9.27161
    endloop
  endfacet
  facet normal -0.509965 -0.373049 -0.775094
    outer loop
      vertex 16.6667 -169.035 -10.0579
      vertex 17.4167 -167.781 -11.1549
      vertex 18.1592 -170.528 -10.3213
    endloop
  endfacet
  facet normal -0.509846 -0.373147 -0.775124
    outer loop
      vertex 17.4167 -167.781 -11.1549
      vertex 16.6667 -169.035 -10.0579
      vertex 16.6667 -167.852 -10.6274
    endloop
  endfacet
  facet normal -0.471106 -0.48729 -0.73526
    outer loop
      vertex 16.6667 -171.163 -8.94368
      vertex 18.6728 -171.999 -9.675
      vertex 17.0847 -172.149 -8.55804
    endloop
  endfacet
  facet normal -0.471095 -0.487211 -0.73532
    outer loop
      vertex 18.6728 -171.999 -9.675
      vertex 16.6667 -171.163 -8.94368
      vertex 16.6667 -170.807 -9.17956
    endloop
  endfacet
  facet normal -0.471195 -0.487482 -0.735076
    outer loop
      vertex 16.6667 -170.807 -9.17956
      vertex 18.1592 -170.528 -10.3213
      vertex 18.6728 -171.999 -9.675
    endloop
  endfacet
  facet normal -0.470131 -0.489761 -0.734242
    outer loop
      vertex 18.1592 -170.528 -10.3213
      vertex 16.6667 -170.807 -9.17956
      vertex 16.6667 -170.669 -9.27161
    endloop
  endfacet
  facet normal -0.234007 -0.862717 -0.448286
    outer loop
      vertex 18.3538 -172.61 -8.33333
      vertex 17.3547 -172.339 -8.33333
      vertex 17.0847 -172.149 -8.55804
    endloop
  endfacet
  facet normal -0.233945 -0.862637 -0.448471
    outer loop
      vertex 18.6728 -171.999 -9.675
      vertex 18.3538 -172.61 -8.33333
      vertex 17.0847 -172.149 -8.55804
    endloop
  endfacet
  facet normal -0.233673 -0.862724 -0.448446
    outer loop
      vertex 18.3538 -172.61 -8.33333
      vertex 18.6728 -171.999 -9.675
      vertex 19.8786 -173.023 -8.33333
    endloop
  endfacet
  facet normal -0.408285 -0.145673 -0.901157
    outer loop
      vertex 16.6667 -149.894 -14.7864
      vertex 17.9496 -153.056 -14.8565
      vertex 16.6667 -153.177 -14.2557
    endloop
  endfacet
  facet normal -0.408283 -0.145672 -0.901157
    outer loop
      vertex 16.6667 -146.04 -15.4094
      vertex 17.9496 -153.056 -14.8565
      vertex 16.6667 -149.894 -14.7864
    endloop
  endfacet
  facet normal -0.403121 -0.180849 -0.897099
    outer loop
      vertex 16.6667 -156.565 -13.5726
      vertex 18.3621 -161.177 -13.4047
      vertex 16.6667 -161.337 -12.6106
    endloop
  endfacet
  facet normal -0.403128 -0.180851 -0.897095
    outer loop
      vertex 16.6667 -156.565 -13.5726
      vertex 17.9496 -153.056 -14.8565
      vertex 18.3621 -161.177 -13.4047
    endloop
  endfacet
  facet normal -0.403072 -0.180879 -0.897115
    outer loop
      vertex 17.9496 -153.056 -14.8565
      vertex 16.6667 -156.565 -13.5726
      vertex 16.6667 -153.177 -14.2557
    endloop
  endfacet
  facet normal -0.381344 -0.299596 -0.874539
    outer loop
      vertex 16.6667 -163.314 -11.933
      vertex 19.1737 -164.502 -12.6192
      vertex 17.0615 -164.701 -11.63
    endloop
  endfacet
  facet normal -0.381445 -0.299893 -0.874394
    outer loop
      vertex 19.1737 -164.502 -12.6192
      vertex 16.6667 -163.314 -11.933
      vertex 16.6667 -161.948 -12.4015
    endloop
  endfacet
  facet normal -0.381225 -0.299662 -0.874569
    outer loop
      vertex 16.6667 -161.948 -12.4015
      vertex 18.3621 -161.177 -13.4047
      vertex 19.1737 -164.502 -12.6192
    endloop
  endfacet
  facet normal -0.381406 -0.299314 -0.874609
    outer loop
      vertex 18.3621 -161.177 -13.4047
      vertex 16.6667 -161.948 -12.4015
      vertex 16.6667 -161.337 -12.6106
    endloop
  endfacet
  facet normal -0.402527 -0.184721 -0.896577
    outer loop
      vertex 19.4426 -167.59 -12.1038
      vertex 17.4167 -167.781 -11.1549
      vertex 17.0615 -164.701 -11.63
    endloop
  endfacet
  facet normal -0.402499 -0.184695 -0.896595
    outer loop
      vertex 19.1737 -164.502 -12.6192
      vertex 19.4426 -167.59 -12.1038
      vertex 17.0615 -164.701 -11.63
    endloop
  endfacet
  facet normal -0.367724 -0.359634 -0.857579
    outer loop
      vertex 20.0337 -170.351 -11.1993
      vertex 18.1592 -170.528 -10.3213
      vertex 17.4167 -167.781 -11.1549
    endloop
  endfacet
  facet normal -0.367755 -0.359666 -0.857553
    outer loop
      vertex 19.4426 -167.59 -12.1038
      vertex 20.0337 -170.351 -11.1993
      vertex 17.4167 -167.781 -11.1549
    endloop
  endfacet
  facet normal -0.336355 -0.474771 -0.813301
    outer loop
      vertex 20.4299 -171.834 -10.498
      vertex 18.6728 -171.999 -9.675
      vertex 18.1592 -170.528 -10.3213
    endloop
  endfacet
  facet normal -0.336228 -0.474524 -0.813497
    outer loop
      vertex 20.0337 -170.351 -11.1993
      vertex 20.4299 -171.834 -10.498
      vertex 18.1592 -170.528 -10.3213
    endloop
  endfacet
  facet normal -0.156692 -0.847963 -0.506366
    outer loop
      vertex 18.6728 -171.999 -9.675
      vertex 20.8527 -173.203 -8.33333
      vertex 19.8786 -173.023 -8.33333
    endloop
  endfacet
  facet normal -0.156731 -0.847983 -0.50632
    outer loop
      vertex 20.8527 -173.203 -8.33333
      vertex 18.6728 -171.999 -9.675
      vertex 21.6223 -173.13 -8.69382
    endloop
  endfacet
  facet normal -0.157131 -0.848364 -0.505558
    outer loop
      vertex 20.4299 -171.834 -10.498
      vertex 21.6223 -173.13 -8.69382
      vertex 18.6728 -171.999 -9.675
    endloop
  endfacet
  facet normal -0.148349 -0.85867 -0.490589
    outer loop
      vertex 21.6223 -173.13 -8.69382
      vertex 21.8309 -173.372 -8.33333
      vertex 20.8527 -173.203 -8.33333
    endloop
  endfacet
  facet normal -0.247333 -0.120985 -0.961347
    outer loop
      vertex 16.6667 -146.04 -15.4094
      vertex 20.5998 -152.806 -15.5698
      vertex 17.9496 -153.056 -14.8565
    endloop
  endfacet
  facet normal -0.24731 -0.120972 -0.961355
    outer loop
      vertex 20.5998 -152.806 -15.5698
      vertex 16.6667 -146.04 -15.4094
      vertex 16.7018 -143.2 -15.7758
    endloop
  endfacet
  facet normal -0.24655 -0.121006 -0.961546
    outer loop
      vertex 16.7018 -143.2 -15.7758
      vertex 16.6667 -146.04 -15.4094
      vertex 16.6667 -143.2 -15.7668
    endloop
  endfacet
  facet normal -0.24731 -0.120972 -0.961355
    outer loop
      vertex 18.9805 -143.2 -16.362
      vertex 20.5998 -152.806 -15.5698
      vertex 16.7018 -143.2 -15.7758
    endloop
  endfacet
  facet normal -0.239472 -0.182635 -0.953571
    outer loop
      vertex 20.7533 -160.952 -14.0483
      vertex 18.3621 -161.177 -13.4047
      vertex 17.9496 -153.056 -14.8565
    endloop
  endfacet
  facet normal -0.23943 -0.182621 -0.953584
    outer loop
      vertex 20.5998 -152.806 -15.5698
      vertex 20.7533 -160.952 -14.0483
      vertex 17.9496 -153.056 -14.8565
    endloop
  endfacet
  facet normal -0.225413 -0.275769 -0.93442
    outer loop
      vertex 21.4248 -164.289 -13.2251
      vertex 19.1737 -164.502 -12.6192
      vertex 18.3621 -161.177 -13.4047
    endloop
  endfacet
  facet normal -0.225527 -0.275879 -0.93436
    outer loop
      vertex 20.7533 -160.952 -14.0483
      vertex 21.4248 -164.289 -13.2251
      vertex 18.3621 -161.177 -13.4047
    endloop
  endfacet
  facet normal -0.239739 -0.1801 -0.953986
    outer loop
      vertex 21.6017 -167.386 -12.6849
      vertex 19.4426 -167.59 -12.1038
      vertex 19.1737 -164.502 -12.6192
    endloop
  endfacet
  facet normal -0.239732 -0.180095 -0.953989
    outer loop
      vertex 21.4248 -164.289 -13.2251
      vertex 21.6017 -167.386 -12.6849
      vertex 19.1737 -164.502 -12.6192
    endloop
  endfacet
  facet normal -0.213509 -0.345119 -0.913951
    outer loop
      vertex 22.0315 -170.163 -11.737
      vertex 20.0337 -170.351 -11.1993
      vertex 19.4426 -167.59 -12.1038
    endloop
  endfacet
  facet normal -0.213399 -0.345018 -0.914015
    outer loop
      vertex 21.6017 -167.386 -12.6849
      vertex 22.0315 -170.163 -11.737
      vertex 19.4426 -167.59 -12.1038
    endloop
  endfacet
  facet normal -0.189796 -0.460713 -0.867018
    outer loop
      vertex 22.3026 -171.657 -11.002
      vertex 20.4299 -171.834 -10.498
      vertex 20.0337 -170.351 -11.1993
    endloop
  endfacet
  facet normal -0.189938 -0.460937 -0.866868
    outer loop
      vertex 22.0315 -170.163 -11.737
      vertex 22.3026 -171.657 -11.002
      vertex 20.0337 -170.351 -11.1993
    endloop
  endfacet
  facet normal -0.0700205 -0.831535 -0.551041
    outer loop
      vertex 23.1732 -172.984 -9.11121
      vertex 21.6223 -173.13 -8.69382
      vertex 20.4299 -171.834 -10.498
    endloop
  endfacet
  facet normal -0.0698023 -0.831362 -0.551329
    outer loop
      vertex 22.3026 -171.657 -11.002
      vertex 23.1732 -172.984 -9.11121
      vertex 20.4299 -171.834 -10.498
    endloop
  endfacet
  facet normal -0.0608859 -0.844675 -0.531805
    outer loop
      vertex 22.1916 -173.398 -8.33333
      vertex 21.8309 -173.372 -8.33333
      vertex 21.6223 -173.13 -8.69382
    endloop
  endfacet
  facet normal -0.0628885 -0.845929 -0.529575
    outer loop
      vertex 23.1732 -172.984 -9.11121
      vertex 22.1916 -173.398 -8.33333
      vertex 21.6223 -173.13 -8.69382
    endloop
  endfacet
  facet normal -0.0628542 -0.845951 -0.529544
    outer loop
      vertex 22.1916 -173.398 -8.33333
      vertex 23.1732 -172.984 -9.11121
      vertex 23.4702 -173.493 -8.33333
    endloop
  endfacet
  facet normal -0.0782435 -0.0950312 -0.992395
    outer loop
      vertex 20.5998 -152.806 -15.5698
      vertex 19.6122 -143.2 -16.4118
      vertex 23.333 -152.548 -15.81
    endloop
  endfacet
  facet normal -0.0782354 -0.0950304 -0.992395
    outer loop
      vertex 19.6122 -143.2 -16.4118
      vertex 20.5998 -152.806 -15.5698
      vertex 18.9805 -143.2 -16.362
    endloop
  endfacet
  facet normal -0.0782678 -0.0950407 -0.992392
    outer loop
      vertex 21.8945 -143.2 -16.5918
      vertex 23.333 -152.548 -15.81
      vertex 19.6122 -143.2 -16.4118
    endloop
  endfacet
  facet normal -0.0687286 -0.184421 -0.980441
    outer loop
      vertex 23.2194 -160.719 -14.265
      vertex 20.7533 -160.952 -14.0483
      vertex 20.5998 -152.806 -15.5698
    endloop
  endfacet
  facet normal -0.0687541 -0.184429 -0.980438
    outer loop
      vertex 23.333 -152.548 -15.81
      vertex 23.2194 -160.719 -14.265
      vertex 20.5998 -152.806 -15.5698
    endloop
  endfacet
  facet normal -0.0612496 -0.25066 -0.966136
    outer loop
      vertex 23.7464 -164.07 -13.4291
      vertex 21.4248 -164.289 -13.2251
      vertex 20.7533 -160.952 -14.0483
    endloop
  endfacet
  facet normal -0.0612168 -0.25063 -0.966145
    outer loop
      vertex 23.2194 -160.719 -14.265
      vertex 23.7464 -164.07 -13.4291
      vertex 20.7533 -160.952 -14.0483
    endloop
  endfacet
  facet normal -0.0697759 -0.17528 -0.982043
    outer loop
      vertex 23.8285 -167.176 -12.8806
      vertex 21.6017 -167.386 -12.6849
      vertex 21.4248 -164.289 -13.2251
    endloop
  endfacet
  facet normal -0.0697596 -0.175267 -0.982046
    outer loop
      vertex 23.7464 -164.07 -13.4291
      vertex 23.8285 -167.176 -12.8806
      vertex 21.4248 -164.289 -13.2251
    endloop
  endfacet
  facet normal -0.0516012 -0.329752 -0.942656
    outer loop
      vertex 24.0919 -169.968 -11.918
      vertex 22.0315 -170.163 -11.737
      vertex 21.6017 -167.386 -12.6849
    endloop
  endfacet
  facet normal -0.0517321 -0.329865 -0.94261
    outer loop
      vertex 23.8285 -167.176 -12.8806
      vertex 24.0919 -169.968 -11.918
      vertex 21.6017 -167.386 -12.6849
    endloop
  endfacet
  facet normal -0.0364835 -0.446467 -0.894056
    outer loop
      vertex 24.234 -171.475 -11.1717
      vertex 22.3026 -171.657 -11.002
      vertex 22.0315 -170.163 -11.737
    endloop
  endfacet
  facet normal -0.0363177 -0.44624 -0.894176
    outer loop
      vertex 24.0919 -169.968 -11.918
      vertex 24.234 -171.475 -11.1717
      vertex 22.0315 -170.163 -11.737
    endloop
  endfacet
  facet normal 0.0255665 -0.812689 -0.582136
    outer loop
      vertex 24.7726 -172.833 -9.25177
      vertex 23.1732 -172.984 -9.11121
      vertex 22.3026 -171.657 -11.002
    endloop
  endfacet
  facet normal 0.0254501 -0.812771 -0.582027
    outer loop
      vertex 24.234 -171.475 -11.1717
      vertex 24.7726 -172.833 -9.25177
      vertex 22.3026 -171.657 -11.002
    endloop
  endfacet
  facet normal 0.0295106 -0.831215 -0.555167
    outer loop
      vertex 24.0617 -173.472 -8.33333
      vertex 23.4702 -173.493 -8.33333
      vertex 23.1732 -172.984 -9.11121
    endloop
  endfacet
  facet normal 0.0296666 -0.831128 -0.55529
    outer loop
      vertex 24.7726 -172.833 -9.25177
      vertex 24.0617 -173.472 -8.33333
      vertex 23.1732 -172.984 -9.11121
    endloop
  endfacet
  facet normal 0.0296331 -0.831117 -0.555308
    outer loop
      vertex 24.0617 -173.472 -8.33333
      vertex 24.7726 -172.833 -9.25177
      vertex 24.9592 -173.44 -8.33333
    endloop
  endfacet
endsolid OpenSCAD_Model
