solid OpenSCAD_Model
  facet normal 0 0 1
    outer loop
      vertex 37.3333 -24.5 -7.66667
      vertex 51.7129 -21.6469 -7.66667
      vertex 51.6643 -20.8434 -7.66667
    endloop
  endfacet
  facet normal 0 0 1
    outer loop
      vertex 37.3333 -24.5 -7.66667
      vertex 51.6643 -20.8434 -7.66667
      vertex 51.47 -18.014 -7.66667
    endloop
  endfacet
  facet normal 0 0 1
    outer loop
      vertex 37.3333 -10.9621 -7.66667
      vertex 51.47 -18.014 -7.66667
      vertex 51.069 -14.7135 -7.66667
    endloop
  endfacet
  facet normal 0 0 1
    outer loop
      vertex 41.8922 -7.88528 -7.66667
      vertex 51.069 -14.7135 -7.66667
      vertex 50.4644 -10.1717 -7.66667
    endloop
  endfacet
  facet normal 0 0 1
    outer loop
      vertex 49.4573 -8.25993 -7.66667
      vertex 50.4644 -10.1717 -7.66667
      vertex 50.4253 -9.96324 -7.66667
    endloop
  endfacet
  facet normal 0 0 1
    outer loop
      vertex 50.3411 -9.63057 -7.66667
      vertex 50.4253 -9.96324 -7.66667
      vertex 50.3864 -9.77908 -7.66667
    endloop
  endfacet
  facet normal 0 0 1
    outer loop
      vertex 50.4253 -9.96324 -7.66667
      vertex 50.3411 -9.63057 -7.66667
      vertex 49.9607 -8.86451 -7.66667
    endloop
  endfacet
  facet normal 0 0 1
    outer loop
      vertex 50.2189 -9.31821 -7.66667
      vertex 50.3411 -9.63057 -7.66667
      vertex 50.2989 -9.50683 -7.66667
    endloop
  endfacet
  facet normal 0 0 1
    outer loop
      vertex 50.3411 -9.63057 -7.66667
      vertex 50.2189 -9.31821 -7.66667
      vertex 49.9607 -8.86451 -7.66667
    endloop
  endfacet
  facet normal 0 0 1
    outer loop
      vertex 49.9607 -8.86451 -7.66667
      vertex 50.2189 -9.31821 -7.66667
      vertex 50.1485 -9.17024 -7.66667
    endloop
  endfacet
  facet normal 0 0 1
    outer loop
      vertex 50.4253 -9.96324 -7.66667
      vertex 49.9607 -8.86451 -7.66667
      vertex 49.4573 -8.25993 -7.66667
    endloop
  endfacet
  facet normal 0 0 1
    outer loop
      vertex 49.4573 -8.25993 -7.66667
      vertex 49.9607 -8.86451 -7.66667
      vertex 49.8078 -8.64468 -7.66667
    endloop
  endfacet
  facet normal 0 0 1
    outer loop
      vertex 50.4644 -10.1717 -7.66667
      vertex 49.4573 -8.25993 -7.66667
      vertex 49.1951 -8.01084 -7.66667
    endloop
  endfacet
  facet normal 0 0 1
    outer loop
      vertex 50.4644 -10.1717 -7.66667
      vertex 49.1951 -8.01084 -7.66667
      vertex 48.2687 -7.35765 -7.66667
    endloop
  endfacet
  facet normal 0 0 1
    outer loop
      vertex 50.4644 -10.1717 -7.66667
      vertex 48.2687 -7.35765 -7.66667
      vertex 45.2248 -6.64108 -7.66667
    endloop
  endfacet
  facet normal 0 0 1
    outer loop
      vertex 45.2248 -6.64108 -7.66667
      vertex 48.2687 -7.35765 -7.66667
      vertex 47.6354 -6.98632 -7.66667
    endloop
  endfacet
  facet normal 0 0 1
    outer loop
      vertex 45.2248 -6.64108 -7.66667
      vertex 47.6354 -6.98632 -7.66667
      vertex 47.2036 -6.7934 -7.66667
    endloop
  endfacet
  facet normal 0 0 1
    outer loop
      vertex 46.551 -6.61887 -7.66667
      vertex 47.2036 -6.7934 -7.66667
      vertex 46.9142 -6.69338 -7.66667
    endloop
  endfacet
  facet normal 0 0 1
    outer loop
      vertex 46.3029 -6.58851 -7.66667
      vertex 47.2036 -6.7934 -7.66667
      vertex 46.551 -6.61887 -7.66667
    endloop
  endfacet
  facet normal 0 0 1
    outer loop
      vertex 47.2036 -6.7934 -7.66667
      vertex 46.3029 -6.58851 -7.66667
      vertex 45.2248 -6.64108 -7.66667
    endloop
  endfacet
  facet normal 0 0 1
    outer loop
      vertex 50.4644 -10.1717 -7.66667
      vertex 45.2248 -6.64108 -7.66667
      vertex 42.9682 -7.27219 -7.66667
    endloop
  endfacet
  facet normal 0 0 1
    outer loop
      vertex 43.3703 -7.07066 -7.66667
      vertex 45.2248 -6.64108 -7.66667
      vertex 44.3732 -6.73821 -7.66667
    endloop
  endfacet
  facet normal 0 0 1
    outer loop
      vertex 43.9267 -6.84443 -7.66667
      vertex 44.3732 -6.73821 -7.66667
      vertex 44.2343 -6.76144 -7.66667
    endloop
  endfacet
  facet normal 0 0 1
    outer loop
      vertex 43.9267 -6.84443 -7.66667
      vertex 44.2343 -6.76144 -7.66667
      vertex 44.1187 -6.78698 -7.66667
    endloop
  endfacet
  facet normal 0 0 1
    outer loop
      vertex 43.9267 -6.84443 -7.66667
      vertex 44.1187 -6.78698 -7.66667
      vertex 44.015 -6.81582 -7.66667
    endloop
  endfacet
  facet normal 0 0 1
    outer loop
      vertex 44.3732 -6.73821 -7.66667
      vertex 43.9267 -6.84443 -7.66667
      vertex 43.635 -6.95758 -7.66667
    endloop
  endfacet
  facet normal 0 0 1
    outer loop
      vertex 43.3703 -7.07066 -7.66667
      vertex 44.3732 -6.73821 -7.66667
      vertex 43.635 -6.95758 -7.66667
    endloop
  endfacet
  facet normal 0 0 1
    outer loop
      vertex 45.2248 -6.64108 -7.66667
      vertex 43.3703 -7.07066 -7.66667
      vertex 42.9682 -7.27219 -7.66667
    endloop
  endfacet
  facet normal 0 0 1
    outer loop
      vertex 50.4644 -10.1717 -7.66667
      vertex 42.9682 -7.27219 -7.66667
      vertex 42.5619 -7.48896 -7.66667
    endloop
  endfacet
  facet normal 0 0 1
    outer loop
      vertex 50.4644 -10.1717 -7.66667
      vertex 42.5619 -7.48896 -7.66667
      vertex 41.8922 -7.88528 -7.66667
    endloop
  endfacet
  facet normal 0 0 1
    outer loop
      vertex 51.069 -14.7135 -7.66667
      vertex 41.8922 -7.88528 -7.66667
      vertex 41.0724 -8.39248 -7.66667
    endloop
  endfacet
  facet normal 0 0 1
    outer loop
      vertex 51.069 -14.7135 -7.66667
      vertex 41.0724 -8.39248 -7.66667
      vertex 39.3167 -9.57821 -7.66667
    endloop
  endfacet
  facet normal -0 0 1
    outer loop
      vertex 37.3333 -10.9621 -7.66667
      vertex 51.069 -14.7135 -7.66667
      vertex 39.3167 -9.57821 -7.66667
    endloop
  endfacet
  facet normal 0 0 1
    outer loop
      vertex 51.47 -18.014 -7.66667
      vertex 37.3333 -10.9621 -7.66667
      vertex 37.3333 -24.5 -7.66667
    endloop
  endfacet
  facet normal 0 0 1
    outer loop
      vertex 51.7129 -21.6469 -7.66667
      vertex 37.3333 -24.5 -7.66667
      vertex 51.8004 -24.5 -7.66667
    endloop
  endfacet
  facet normal -1 0 0
    outer loop
      vertex 37.3333 -24.5 -7.66667
      vertex 37.3333 -12.1961 -8.76048
      vertex 37.3333 -13.0288 -9.47295
    endloop
  endfacet
  facet normal -1 0 0
    outer loop
      vertex 37.3333 -24.5 -7.66667
      vertex 37.3333 -13.0288 -9.47295
      vertex 37.3333 -13.9883 -10.219
    endloop
  endfacet
  facet normal -1 0 0
    outer loop
      vertex 37.3333 -24.5 -7.66667
      vertex 37.3333 -13.9883 -10.219
      vertex 37.3333 -14.3076 -10.4583
    endloop
  endfacet
  facet normal -1 0 0
    outer loop
      vertex 37.3333 -24.5 -7.66667
      vertex 37.3333 -14.3076 -10.4583
      vertex 37.3333 -15.0162 -10.9493
    endloop
  endfacet
  facet normal -1 0 0
    outer loop
      vertex 37.3333 -24.5 -7.66667
      vertex 37.3333 -15.0162 -10.9493
      vertex 37.3333 -15.2209 -11.0858
    endloop
  endfacet
  facet normal -1 0 0
    outer loop
      vertex 37.3333 -24.5 -7.66667
      vertex 37.3333 -15.2209 -11.0858
      vertex 37.3333 -15.8455 -11.4692
    endloop
  endfacet
  facet normal -1 0 0
    outer loop
      vertex 37.3333 -24.5 -7.66667
      vertex 37.3333 -15.8455 -11.4692
      vertex 37.3333 -16.007 -11.5645
    endloop
  endfacet
  facet normal -1 0 0
    outer loop
      vertex 37.3333 -24.5 -7.66667
      vertex 37.3333 -16.007 -11.5645
      vertex 37.3333 -16.2634 -11.7068
    endloop
  endfacet
  facet normal -1 0 0
    outer loop
      vertex 37.3333 -24.5 -7.66667
      vertex 37.3333 -16.2634 -11.7068
      vertex 37.3333 -16.3254 -11.7398
    endloop
  endfacet
  facet normal -1 0 0
    outer loop
      vertex 37.3333 -24.5 -7.66667
      vertex 37.3333 -16.3254 -11.7398
      vertex 37.3333 -16.7156 -11.9374
    endloop
  endfacet
  facet normal -1 0 0
    outer loop
      vertex 37.3333 -24.5 -7.66667
      vertex 37.3333 -16.7156 -11.9374
      vertex 37.3333 -16.8048 -11.9808
    endloop
  endfacet
  facet normal -1 0 0
    outer loop
      vertex 37.3333 -24.5 -7.66667
      vertex 37.3333 -16.8048 -11.9808
      vertex 37.3333 -21.0162 -13.942
    endloop
  endfacet
  facet normal -1 0 0
    outer loop
      vertex 37.3333 -24.5 -7.66667
      vertex 37.3333 -21.0162 -13.942
      vertex 37.3333 -21.5955 -14.2018
    endloop
  endfacet
  facet normal -1 0 0
    outer loop
      vertex 37.3333 -24.5 -7.66667
      vertex 37.3333 -21.5955 -14.2018
      vertex 37.3333 -23.6406 -15.0318
    endloop
  endfacet
  facet normal -1 0 0
    outer loop
      vertex 37.3333 -24.5 -7.66667
      vertex 37.3333 -23.6406 -15.0318
      vertex 37.3333 -23.8022 -15.0947
    endloop
  endfacet
  facet normal -1 0 0
    outer loop
      vertex 37.3333 -24.5 -7.66667
      vertex 37.3333 -23.8022 -15.0947
      vertex 37.3333 -24.5 -15.3485
    endloop
  endfacet
  facet normal -1 0 0
    outer loop
      vertex 37.3333 -12.1961 -8.76048
      vertex 37.3333 -24.5 -7.66667
      vertex 37.3333 -10.9621 -7.66667
    endloop
  endfacet
  facet normal 0 -1 0
    outer loop
      vertex 51.1621 -24.5 -8.48815
      vertex 51.8004 -24.5 -7.66667
      vertex 37.3333 -24.5 -7.66667
    endloop
  endfacet
  facet normal 0 -1 0
    outer loop
      vertex 51.8004 -24.5 -7.66667
      vertex 51.1621 -24.5 -8.48815
      vertex 51.2832 -24.5 -8.35061
    endloop
  endfacet
  facet normal 0 -1 0
    outer loop
      vertex 37.3333 -24.5 -7.66667
      vertex 50.3097 -24.5 -9.41777
      vertex 51.1621 -24.5 -8.48815
    endloop
  endfacet
  facet normal 0 -1 0
    outer loop
      vertex 37.3333 -24.5 -7.66667
      vertex 49.8419 -24.5 -9.83821
      vertex 50.3097 -24.5 -9.41777
    endloop
  endfacet
  facet normal 0 -1 0
    outer loop
      vertex 37.3333 -24.5 -7.66667
      vertex 46.2038 -24.5 -12.9611
      vertex 49.8419 -24.5 -9.83821
    endloop
  endfacet
  facet normal 0 -1 0
    outer loop
      vertex 45.0223 -24.5 -13.6395
      vertex 46.2038 -24.5 -12.9611
      vertex 37.3333 -24.5 -7.66667
    endloop
  endfacet
  facet normal 0 -1 0
    outer loop
      vertex 46.2038 -24.5 -12.9611
      vertex 45.0223 -24.5 -13.6395
      vertex 46.1704 -24.5 -12.9866
    endloop
  endfacet
  facet normal 0 -1 0
    outer loop
      vertex 46.1704 -24.5 -12.9866
      vertex 45.8375 -24.5 -13.2249
      vertex 45.8667 -24.5 -13.2069
    endloop
  endfacet
  facet normal 0 -1 0
    outer loop
      vertex 46.1704 -24.5 -12.9866
      vertex 45.523 -24.5 -13.4046
      vertex 45.8375 -24.5 -13.2249
    endloop
  endfacet
  facet normal 0 -1 0
    outer loop
      vertex 45.8375 -24.5 -13.2249
      vertex 45.523 -24.5 -13.4046
      vertex 45.5668 -24.5 -13.382
    endloop
  endfacet
  facet normal 0 -1 0
    outer loop
      vertex 46.1704 -24.5 -12.9866
      vertex 45.1095 -24.5 -13.6036
      vertex 45.523 -24.5 -13.4046
    endloop
  endfacet
  facet normal 0 -1 0
    outer loop
      vertex 46.1704 -24.5 -12.9866
      vertex 45.0223 -24.5 -13.6395
      vertex 45.1095 -24.5 -13.6036
    endloop
  endfacet
  facet normal 0 -1 0
    outer loop
      vertex 37.3333 -24.5 -7.66667
      vertex 44.1711 -24.5 -13.9611
      vertex 45.0223 -24.5 -13.6395
    endloop
  endfacet
  facet normal 0 -1 0
    outer loop
      vertex 37.3333 -24.5 -7.66667
      vertex 44.0326 -24.5 -14.0045
      vertex 44.1711 -24.5 -13.9611
    endloop
  endfacet
  facet normal 0 -1 0
    outer loop
      vertex 37.3333 -24.5 -7.66667
      vertex 42.591 -24.5 -14.4102
      vertex 44.0326 -24.5 -14.0045
    endloop
  endfacet
  facet normal 0 -1 0
    outer loop
      vertex 37.3333 -24.5 -7.66667
      vertex 42.287 -24.5 -14.4786
      vertex 42.591 -24.5 -14.4102
    endloop
  endfacet
  facet normal 0 -1 0
    outer loop
      vertex 37.3333 -24.5 -7.66667
      vertex 38.6863 -24.5 -15.1751
      vertex 42.287 -24.5 -14.4786
    endloop
  endfacet
  facet normal 0 -1 0
    outer loop
      vertex 37.3333 -24.5 -7.66667
      vertex 38.5771 -24.5 -15.1921
      vertex 38.6863 -24.5 -15.1751
    endloop
  endfacet
  facet normal -0 -1 0
    outer loop
      vertex 38.5771 -24.5 -15.1921
      vertex 37.3333 -24.5 -7.66667
      vertex 37.3333 -24.5 -15.3485
    endloop
  endfacet
  facet normal -0.402023 0.595272 -0.695721
    outer loop
      vertex 37.3333 -13.0288 -9.47295
      vertex 39.3167 -9.57821 -7.66667
      vertex 41.0724 -8.39248 -7.66667
    endloop
  endfacet
  facet normal -0.402019 0.595272 -0.695724
    outer loop
      vertex 39.3167 -9.57821 -7.66667
      vertex 37.3333 -13.0288 -9.47295
      vertex 37.3333 -12.1961 -8.76048
    endloop
  endfacet
  facet normal -0.420019 0.601973 -0.679126
    outer loop
      vertex 39.3167 -9.57821 -7.66667
      vertex 37.3333 -12.1961 -8.76048
      vertex 37.3333 -10.9621 -7.66667
    endloop
  endfacet
  facet normal -0.334491 0.565221 -0.754083
    outer loop
      vertex 37.3333 -14.3076 -10.4583
      vertex 41.8922 -7.88528 -7.66667
      vertex 42.5619 -7.48896 -7.66667
    endloop
  endfacet
  facet normal -0.334414 0.565191 -0.754139
    outer loop
      vertex 41.8922 -7.88528 -7.66667
      vertex 37.3333 -14.3076 -10.4583
      vertex 37.3333 -13.9883 -10.219
    endloop
  endfacet
  facet normal -0.355031 0.573845 -0.738007
    outer loop
      vertex 37.3333 -13.9883 -10.219
      vertex 41.0724 -8.39248 -7.66667
      vertex 41.8922 -7.88528 -7.66667
    endloop
  endfacet
  facet normal -0.355015 0.57384 -0.738019
    outer loop
      vertex 41.0724 -8.39248 -7.66667
      vertex 37.3333 -13.9883 -10.219
      vertex 37.3333 -13.0288 -9.47295
    endloop
  endfacet
  facet normal -0.267993 0.53471 -0.801414
    outer loop
      vertex 37.3333 -15.2209 -11.0858
      vertex 42.9682 -7.27219 -7.66667
      vertex 43.3703 -7.07066 -7.66667
    endloop
  endfacet
  facet normal -0.267639 0.534555 -0.801636
    outer loop
      vertex 42.9682 -7.27219 -7.66667
      vertex 37.3333 -15.2209 -11.0858
      vertex 37.3333 -15.0162 -10.9493
    endloop
  endfacet
  facet normal -0.29073 0.544927 -0.786467
    outer loop
      vertex 37.3333 -15.0162 -10.9493
      vertex 42.5619 -7.48896 -7.66667
      vertex 42.9682 -7.27219 -7.66667
    endloop
  endfacet
  facet normal -0.290764 0.54494 -0.786445
    outer loop
      vertex 42.5619 -7.48896 -7.66667
      vertex 37.3333 -15.0162 -10.9493
      vertex 37.3333 -14.3076 -10.4583
    endloop
  endfacet
  facet normal -0.19342 0.498636 -0.844956
    outer loop
      vertex 37.3333 -16.007 -11.5645
      vertex 43.635 -6.95758 -7.66667
      vertex 43.9267 -6.84443 -7.66667
    endloop
  endfacet
  facet normal -0.193376 0.498616 -0.844978
    outer loop
      vertex 43.635 -6.95758 -7.66667
      vertex 37.3333 -16.007 -11.5645
      vertex 37.3333 -15.8455 -11.4692
    endloop
  endfacet
  facet normal -0.218078 0.510481 -0.831776
    outer loop
      vertex 37.3333 -15.8455 -11.4692
      vertex 43.3703 -7.07066 -7.66667
      vertex 43.635 -6.95758 -7.66667
    endloop
  endfacet
  facet normal -0.218193 0.510533 -0.831714
    outer loop
      vertex 43.3703 -7.07066 -7.66667
      vertex 37.3333 -15.8455 -11.4692
      vertex 37.3333 -15.2209 -11.0858
    endloop
  endfacet
  facet normal -0.129486 0.465894 -0.875315
    outer loop
      vertex 37.3333 -16.2634 -11.7068
      vertex 44.1187 -6.78698 -7.66667
      vertex 37.3333 -16.3254 -11.7398
    endloop
  endfacet
  facet normal -0.129584 0.465946 -0.875273
    outer loop
      vertex 44.1187 -6.78698 -7.66667
      vertex 37.3333 -16.2634 -11.7068
      vertex 44.015 -6.81582 -7.66667
    endloop
  endfacet
  facet normal -0.155535 0.479361 -0.863726
    outer loop
      vertex 37.3333 -16.007 -11.5645
      vertex 44.015 -6.81582 -7.66667
      vertex 37.3333 -16.2634 -11.7068
    endloop
  endfacet
  facet normal -0.155273 0.479223 -0.86385
    outer loop
      vertex 44.015 -6.81582 -7.66667
      vertex 37.3333 -16.007 -11.5645
      vertex 43.9267 -6.84443 -7.66667
    endloop
  endfacet
  facet normal -0.0743553 0.436299 -0.896724
    outer loop
      vertex 37.3333 -16.7156 -11.9374
      vertex 44.3732 -6.73821 -7.66667
      vertex 37.3333 -16.8048 -11.9808
    endloop
  endfacet
  facet normal -0.0728258 0.43545 -0.897262
    outer loop
      vertex 44.3732 -6.73821 -7.66667
      vertex 37.3333 -16.7156 -11.9374
      vertex 44.2343 -6.76144 -7.66667
    endloop
  endfacet
  facet normal -0.0990685 0.449558 -0.88774
    outer loop
      vertex 37.3333 -16.3254 -11.7398
      vertex 44.2343 -6.76144 -7.66667
      vertex 37.3333 -16.7156 -11.9374
    endloop
  endfacet
  facet normal -0.0993582 0.449719 -0.887627
    outer loop
      vertex 44.2343 -6.76144 -7.66667
      vertex 37.3333 -16.3254 -11.7398
      vertex 44.1187 -6.78698 -7.66667
    endloop
  endfacet
  facet normal -0.0198418 0.409125 -0.912263
    outer loop
      vertex 37.3333 -21.0162 -13.942
      vertex 46.3029 -6.58851 -7.66667
      vertex 37.3333 -21.5955 -14.2018
    endloop
  endfacet
  facet normal -0.0199524 0.409181 -0.912235
    outer loop
      vertex 46.3029 -6.58851 -7.66667
      vertex 37.3333 -21.0162 -13.942
      vertex 45.2248 -6.64108 -7.66667
    endloop
  endfacet
  facet normal -0.0480758 0.421669 -0.905474
    outer loop
      vertex 37.3333 -16.8048 -11.9808
      vertex 45.2248 -6.64108 -7.66667
      vertex 37.3333 -21.0162 -13.942
    endloop
  endfacet
  facet normal -0.0480952 0.421681 -0.905468
    outer loop
      vertex 45.2248 -6.64108 -7.66667
      vertex 37.3333 -16.8048 -11.9808
      vertex 44.3732 -6.73821 -7.66667
    endloop
  endfacet
  facet normal 0.0745621 0.361715 -0.929302
    outer loop
      vertex 37.3333 -23.6406 -15.0318
      vertex 46.9142 -6.69338 -7.66667
      vertex 37.3333 -23.8022 -15.0947
    endloop
  endfacet
  facet normal 0.0742393 0.361881 -0.929264
    outer loop
      vertex 46.9142 -6.69338 -7.66667
      vertex 37.3333 -23.6406 -15.0318
      vertex 46.551 -6.61887 -7.66667
    endloop
  endfacet
  facet normal 0.0458801 0.375661 -0.925621
    outer loop
      vertex 37.3333 -21.5955 -14.2018
      vertex 46.551 -6.61887 -7.66667
      vertex 37.3333 -23.6406 -15.0318
    endloop
  endfacet
  facet normal 0.0459641 0.375616 -0.925635
    outer loop
      vertex 46.551 -6.61887 -7.66667
      vertex 37.3333 -21.5955 -14.2018
      vertex 46.3029 -6.58851 -7.66667
    endloop
  endfacet
  facet normal 0.145661 0.326024 -0.934072
    outer loop
      vertex 38.6863 -24.5 -15.1751
      vertex 47.2036 -6.7934 -7.66667
      vertex 47.6354 -6.98632 -7.66667
    endloop
  endfacet
  facet normal 0.145414 0.326142 -0.93407
    outer loop
      vertex 47.2036 -6.7934 -7.66667
      vertex 38.6863 -24.5 -15.1751
      vertex 38.5771 -24.5 -15.1921
    endloop
  endfacet
  facet normal 0.117329 0.339483 -0.933266
    outer loop
      vertex 38.5771 -24.5 -15.1921
      vertex 46.9142 -6.69338 -7.66667
      vertex 47.2036 -6.7934 -7.66667
    endloop
  endfacet
  facet normal 0.117354 0.339446 -0.933276
    outer loop
      vertex 37.3333 -23.8022 -15.0947
      vertex 38.5771 -24.5 -15.1921
      vertex 37.3333 -24.5 -15.3485
    endloop
  endfacet
  facet normal 0.117366 0.339466 -0.933267
    outer loop
      vertex 38.5771 -24.5 -15.1921
      vertex 37.3333 -23.8022 -15.0947
      vertex 46.9142 -6.69338 -7.66667
    endloop
  endfacet
  facet normal 0.209475 0.297092 -0.931588
    outer loop
      vertex 42.591 -24.5 -14.4102
      vertex 48.2687 -7.35765 -7.66667
      vertex 49.1951 -8.01084 -7.66667
    endloop
  endfacet
  facet normal 0.209604 0.297044 -0.931574
    outer loop
      vertex 48.2687 -7.35765 -7.66667
      vertex 42.591 -24.5 -14.4102
      vertex 42.287 -24.5 -14.4786
    endloop
  endfacet
  facet normal 0.180664 0.30812 -0.934036
    outer loop
      vertex 42.287 -24.5 -14.4786
      vertex 47.6354 -6.98632 -7.66667
      vertex 48.2687 -7.35765 -7.66667
    endloop
  endfacet
  facet normal 0.180675 0.308117 -0.934035
    outer loop
      vertex 47.6354 -6.98632 -7.66667
      vertex 42.287 -24.5 -14.4786
      vertex 38.6863 -24.5 -15.1751
    endloop
  endfacet
  facet normal 0.288499 0.262935 -0.92067
    outer loop
      vertex 44.0326 -24.5 -14.0045
      vertex 49.8078 -8.64468 -7.66667
      vertex 44.1711 -24.5 -13.9611
    endloop
  endfacet
  facet normal 0.288586 0.262896 -0.920654
    outer loop
      vertex 49.8078 -8.64468 -7.66667
      vertex 44.0326 -24.5 -14.0045
      vertex 49.4573 -8.25993 -7.66667
    endloop
  endfacet
  facet normal 0.260514 0.274243 -0.925701
    outer loop
      vertex 42.591 -24.5 -14.4102
      vertex 49.4573 -8.25993 -7.66667
      vertex 44.0326 -24.5 -14.0045
    endloop
  endfacet
  facet normal 0.260526 0.274238 -0.9257
    outer loop
      vertex 49.4573 -8.25993 -7.66667
      vertex 42.591 -24.5 -14.4102
      vertex 49.1951 -8.01084 -7.66667
    endloop
  endfacet
  facet normal 0.370767 0.226905 -0.900581
    outer loop
      vertex 45.0223 -24.5 -13.6395
      vertex 50.1485 -9.17024 -7.66667
      vertex 45.1095 -24.5 -13.6036
    endloop
  endfacet
  facet normal 0.369973 0.227262 -0.900817
    outer loop
      vertex 50.1485 -9.17024 -7.66667
      vertex 45.0223 -24.5 -13.6395
      vertex 49.9607 -8.86451 -7.66667
    endloop
  endfacet
  facet normal 0.343225 0.238621 -0.908436
    outer loop
      vertex 44.1711 -24.5 -13.9611
      vertex 49.9607 -8.86451 -7.66667
      vertex 45.0223 -24.5 -13.6395
    endloop
  endfacet
  facet normal 0.343135 0.238663 -0.908459
    outer loop
      vertex 49.9607 -8.86451 -7.66667
      vertex 44.1711 -24.5 -13.9611
      vertex 49.8078 -8.64468 -7.66667
    endloop
  endfacet
  facet normal 0.450144 0.190483 -0.872403
    outer loop
      vertex 45.523 -24.5 -13.4046
      vertex 50.2989 -9.50683 -7.66667
      vertex 45.5668 -24.5 -13.382
    endloop
  endfacet
  facet normal 0.449657 0.190715 -0.872603
    outer loop
      vertex 50.2989 -9.50683 -7.66667
      vertex 45.523 -24.5 -13.4046
      vertex 50.2189 -9.31821 -7.66667
    endloop
  endfacet
  facet normal 0.424697 0.202166 -0.882474
    outer loop
      vertex 45.1095 -24.5 -13.6036
      vertex 50.2189 -9.31821 -7.66667
      vertex 45.523 -24.5 -13.4046
    endloop
  endfacet
  facet normal 0.424809 0.202112 -0.882433
    outer loop
      vertex 50.2189 -9.31821 -7.66667
      vertex 45.1095 -24.5 -13.6036
      vertex 50.1485 -9.17024 -7.66667
    endloop
  endfacet
  facet normal 0.518217 0.157278 -0.840663
    outer loop
      vertex 45.8375 -24.5 -13.2249
      vertex 50.3864 -9.77908 -7.66667
      vertex 45.8667 -24.5 -13.2069
    endloop
  endfacet
  facet normal 0.517238 0.157773 -0.841173
    outer loop
      vertex 50.3864 -9.77908 -7.66667
      vertex 45.8375 -24.5 -13.2249
      vertex 50.3411 -9.63057 -7.66667
    endloop
  endfacet
  facet normal 0.494739 0.168817 -0.852487
    outer loop
      vertex 45.5668 -24.5 -13.382
      vertex 50.3411 -9.63057 -7.66667
      vertex 45.8375 -24.5 -13.2249
    endloop
  endfacet
  facet normal 0.494848 0.168762 -0.852435
    outer loop
      vertex 50.3411 -9.63057 -7.66667
      vertex 45.5668 -24.5 -13.382
      vertex 50.2989 -9.50683 -7.66667
    endloop
  endfacet
  facet normal 0.602977 0.112533 -0.789782
    outer loop
      vertex 46.1704 -24.5 -12.9866
      vertex 50.4644 -10.1717 -7.66667
      vertex 46.2038 -24.5 -12.9611
    endloop
  endfacet
  facet normal 0.602214 0.112955 -0.790303
    outer loop
      vertex 50.4644 -10.1717 -7.66667
      vertex 46.1704 -24.5 -12.9866
      vertex 50.4253 -9.96324 -7.66667
    endloop
  endfacet
  facet normal 0.582684 0.123418 -0.803273
    outer loop
      vertex 45.8667 -24.5 -13.2069
      vertex 50.4253 -9.96324 -7.66667
      vertex 46.1704 -24.5 -12.9866
    endloop
  endfacet
  facet normal 0.583123 0.123173 -0.802992
    outer loop
      vertex 50.4253 -9.96324 -7.66667
      vertex 45.8667 -24.5 -13.2069
      vertex 50.3864 -9.77908 -7.66667
    endloop
  endfacet
  facet normal 0.666261 0.0809509 -0.741312
    outer loop
      vertex 49.8419 -24.5 -9.83821
      vertex 51.47 -18.014 -7.66667
      vertex 50.3097 -24.5 -9.41777
    endloop
  endfacet
  facet normal 0.666265 0.080949 -0.741309
    outer loop
      vertex 51.47 -18.014 -7.66667
      vertex 49.8419 -24.5 -9.83821
      vertex 51.069 -14.7135 -7.66667
    endloop
  endfacet
  facet normal 0.6489 0.0863762 -0.755955
    outer loop
      vertex 46.2038 -24.5 -12.9611
      vertex 51.069 -14.7135 -7.66667
      vertex 49.8419 -24.5 -9.83821
    endloop
  endfacet
  facet normal 0.648896 0.0863804 -0.755958
    outer loop
      vertex 51.069 -14.7135 -7.66667
      vertex 46.2038 -24.5 -12.9611
      vertex 50.4644 -10.1717 -7.66667
    endloop
  endfacet
  facet normal 0.749767 0.0453285 -0.660148
    outer loop
      vertex 51.1621 -24.5 -8.48815
      vertex 51.7129 -21.6469 -7.66667
      vertex 51.2832 -24.5 -8.35061
    endloop
  endfacet
  facet normal 0.749729 0.0453477 -0.660189
    outer loop
      vertex 51.7129 -21.6469 -7.66667
      vertex 51.1621 -24.5 -8.48815
      vertex 51.6643 -20.8434 -7.66667
    endloop
  endfacet
  facet normal 0.736114 0.0505377 -0.674968
    outer loop
      vertex 50.3097 -24.5 -9.41777
      vertex 51.6643 -20.8434 -7.66667
      vertex 51.1621 -24.5 -8.48815
    endloop
  endfacet
  facet normal 0.736101 0.0505494 -0.674982
    outer loop
      vertex 51.6643 -20.8434 -7.66667
      vertex 50.3097 -24.5 -9.41777
      vertex 51.47 -18.014 -7.66667
    endloop
  endfacet
  facet normal 0.797379 0.0244543 -0.602983
    outer loop
      vertex 51.8004 -24.5 -7.66667
      vertex 51.2832 -24.5 -8.35061
      vertex 51.7129 -21.6469 -7.66667
    endloop
  endfacet
endsolid OpenSCAD_Model
