solid OpenSCAD_Model
  facet normal 1 0 0
    outer loop
      vertex 37.3333 -98 -7.66667
      vertex 37.3333 -98.3564 -18.2308
      vertex 37.3333 -98 -18.199
    endloop
  endfacet
  facet normal 1 0 0
    outer loop
      vertex 37.3333 -98 -7.66667
      vertex 37.3333 -101.871 -18.7886
      vertex 37.3333 -98.3564 -18.2308
    endloop
  endfacet
  facet normal 1 0 0
    outer loop
      vertex 37.3333 -98 -7.66667
      vertex 37.3333 -109.056 -19.9281
      vertex 37.3333 -101.871 -18.7886
    endloop
  endfacet
  facet normal 1 -0 0
    outer loop
      vertex 37.3333 -122.5 -7.66667
      vertex 37.3333 -109.056 -19.9281
      vertex 37.3333 -98 -7.66667
    endloop
  endfacet
  facet normal 1 0 0
    outer loop
      vertex 37.3333 -109.056 -19.9281
      vertex 37.3333 -122.5 -7.66667
      vertex 37.3333 -109.705 -20.1157
    endloop
  endfacet
  facet normal 1 0 0
    outer loop
      vertex 37.3333 -109.705 -20.1157
      vertex 37.3333 -122.5 -7.66667
      vertex 37.3333 -111.156 -20.5245
    endloop
  endfacet
  facet normal 1 0 0
    outer loop
      vertex 37.3333 -111.156 -20.5245
      vertex 37.3333 -122.5 -7.66667
      vertex 37.3333 -112.065 -20.7367
    endloop
  endfacet
  facet normal 1 0 0
    outer loop
      vertex 37.3333 -112.065 -20.7367
      vertex 37.3333 -122.5 -7.66667
      vertex 37.3333 -112.56 -20.8512
    endloop
  endfacet
  facet normal 1 0 0
    outer loop
      vertex 37.3333 -112.56 -20.8512
      vertex 37.3333 -122.5 -7.66667
      vertex 37.3333 -113.203 -20.9657
    endloop
  endfacet
  facet normal 1 0 0
    outer loop
      vertex 37.3333 -113.203 -20.9657
      vertex 37.3333 -122.5 -7.66667
      vertex 37.3333 -113.805 -21.0716
    endloop
  endfacet
  facet normal 1 0 0
    outer loop
      vertex 37.3333 -113.805 -21.0716
      vertex 37.3333 -122.5 -7.66667
      vertex 37.3333 -114.503 -21.1693
    endloop
  endfacet
  facet normal 1 0 0
    outer loop
      vertex 37.3333 -114.503 -21.1693
      vertex 37.3333 -122.5 -7.66667
      vertex 37.3333 -115.696 -21.3345
    endloop
  endfacet
  facet normal 1 0 0
    outer loop
      vertex 37.3333 -115.696 -21.3345
      vertex 37.3333 -122.5 -7.66667
      vertex 37.3333 -116.331 -21.398
    endloop
  endfacet
  facet normal 1 0 0
    outer loop
      vertex 37.3333 -116.331 -21.398
      vertex 37.3333 -122.5 -7.66667
      vertex 37.3333 -117.853 -21.5485
    endloop
  endfacet
  facet normal 1 0 0
    outer loop
      vertex 37.3333 -117.853 -21.5485
      vertex 37.3333 -122.5 -7.66667
      vertex 37.3333 -118.742 -21.659
    endloop
  endfacet
  facet normal 1 0 0
    outer loop
      vertex 37.3333 -118.742 -21.659
      vertex 37.3333 -122.5 -7.66667
      vertex 37.3333 -119.209 -21.7162
    endloop
  endfacet
  facet normal 1 0 0
    outer loop
      vertex 37.3333 -119.209 -21.7162
      vertex 37.3333 -122.5 -7.66667
      vertex 37.3333 -121.362 -21.8836
    endloop
  endfacet
  facet normal 1 0 0
    outer loop
      vertex 37.3333 -121.362 -21.8836
      vertex 37.3333 -122.5 -7.66667
      vertex 37.3333 -122.5 -21.9708
    endloop
  endfacet
  facet normal -0 0 1
    outer loop
      vertex 18.6667 -98 -7.66667
      vertex 37.3333 -122.5 -7.66667
      vertex 37.3333 -98 -7.66667
    endloop
  endfacet
  facet normal 0 0 1
    outer loop
      vertex 37.3333 -122.5 -7.66667
      vertex 18.6667 -98 -7.66667
      vertex 18.6667 -122.5 -7.66667
    endloop
  endfacet
  facet normal -1 0 0
    outer loop
      vertex 18.6667 -99.2787 -22.1977
      vertex 18.6667 -98 -7.66667
      vertex 18.6667 -98 -22.2273
    endloop
  endfacet
  facet normal -1 0 0
    outer loop
      vertex 18.6667 -101.372 -22.1491
      vertex 18.6667 -98 -7.66667
      vertex 18.6667 -99.2787 -22.1977
    endloop
  endfacet
  facet normal -1 0 0
    outer loop
      vertex 18.6667 -106.937 -21.9245
      vertex 18.6667 -98 -7.66667
      vertex 18.6667 -101.372 -22.1491
    endloop
  endfacet
  facet normal -1 0 0
    outer loop
      vertex 18.6667 -113.729 -21.6505
      vertex 18.6667 -98 -7.66667
      vertex 18.6667 -106.937 -21.9245
    endloop
  endfacet
  facet normal -1 0 0
    outer loop
      vertex 18.6667 -122.5 -7.66667
      vertex 18.6667 -113.729 -21.6505
      vertex 18.6667 -114.597 -21.5897
    endloop
  endfacet
  facet normal -1 0 0
    outer loop
      vertex 18.6667 -122.5 -7.66667
      vertex 18.6667 -114.597 -21.5897
      vertex 18.6667 -115.735 -21.5114
    endloop
  endfacet
  facet normal -1 0 0
    outer loop
      vertex 18.6667 -122.5 -7.66667
      vertex 18.6667 -115.735 -21.5114
      vertex 18.6667 -116.78 -21.4138
    endloop
  endfacet
  facet normal -1 0 0
    outer loop
      vertex 18.6667 -122.5 -7.66667
      vertex 18.6667 -116.78 -21.4138
      vertex 18.6667 -117.224 -21.3726
    endloop
  endfacet
  facet normal -1 0 0
    outer loop
      vertex 18.6667 -122.5 -7.66667
      vertex 18.6667 -117.224 -21.3726
      vertex 18.6667 -117.833 -21.2988
    endloop
  endfacet
  facet normal -1 0 0
    outer loop
      vertex 18.6667 -122.5 -7.66667
      vertex 18.6667 -117.833 -21.2988
      vertex 18.6667 -118.237 -21.2503
    endloop
  endfacet
  facet normal -1 0 0
    outer loop
      vertex 18.6667 -122.5 -7.66667
      vertex 18.6667 -118.237 -21.2503
      vertex 18.6667 -119.403 -21.0694
    endloop
  endfacet
  facet normal -1 0 0
    outer loop
      vertex 18.6667 -122.5 -7.66667
      vertex 18.6667 -119.403 -21.0694
      vertex 18.6667 -120.825 -20.8509
    endloop
  endfacet
  facet normal -1 0 0
    outer loop
      vertex 18.6667 -122.5 -7.66667
      vertex 18.6667 -120.825 -20.8509
      vertex 18.6667 -121.603 -20.6962
    endloop
  endfacet
  facet normal -1 0 0
    outer loop
      vertex 18.6667 -122.5 -7.66667
      vertex 18.6667 -121.603 -20.6962
      vertex 18.6667 -122.5 -20.5192
    endloop
  endfacet
  facet normal -1 0 0
    outer loop
      vertex 18.6667 -113.729 -21.6505
      vertex 18.6667 -122.5 -7.66667
      vertex 18.6667 -98 -7.66667
    endloop
  endfacet
  facet normal 0 1 0
    outer loop
      vertex 34.3384 -98 -20.5245
      vertex 37.3333 -98 -7.66667
      vertex 37.3333 -98 -18.199
    endloop
  endfacet
  facet normal 0 1 0
    outer loop
      vertex 30.8823 -98 -21.7878
      vertex 37.3333 -98 -7.66667
      vertex 34.3384 -98 -20.5245
    endloop
  endfacet
  facet normal 0 1 0
    outer loop
      vertex 32.4763 -98 -21.3925
      vertex 34.3384 -98 -20.5245
      vertex 34.2785 -98 -20.5627
    endloop
  endfacet
  facet normal 0 1 0
    outer loop
      vertex 33.7687 -98 -20.8793
      vertex 34.2785 -98 -20.5627
      vertex 33.8265 -98 -20.8512
    endloop
  endfacet
  facet normal 0 1 0
    outer loop
      vertex 33.2795 -98 -21.1076
      vertex 34.2785 -98 -20.5627
      vertex 33.7687 -98 -20.8793
    endloop
  endfacet
  facet normal 0 1 0
    outer loop
      vertex 33.2795 -98 -21.1076
      vertex 33.7687 -98 -20.8793
      vertex 33.3736 -98 -21.0716
    endloop
  endfacet
  facet normal 0 1 0
    outer loop
      vertex 34.2785 -98 -20.5627
      vertex 33.2795 -98 -21.1076
      vertex 32.4763 -98 -21.3925
    endloop
  endfacet
  facet normal 0 1 0
    outer loop
      vertex 32.4763 -98 -21.3925
      vertex 33.2795 -98 -21.1076
      vertex 32.6878 -98 -21.3345
    endloop
  endfacet
  facet normal 0 1 0
    outer loop
      vertex 34.3384 -98 -20.5245
      vertex 32.4763 -98 -21.3925
      vertex 30.8823 -98 -21.7878
    endloop
  endfacet
  facet normal 0 1 0
    outer loop
      vertex 30.8823 -98 -21.7878
      vertex 32.4763 -98 -21.3925
      vertex 31.2973 -98 -21.7162
    endloop
  endfacet
  facet normal 0 1 0
    outer loop
      vertex 29.0067 -98 -22.1116
      vertex 37.3333 -98 -7.66667
      vertex 30.8823 -98 -21.7878
    endloop
  endfacet
  facet normal 0 1 0
    outer loop
      vertex 37.3333 -98 -7.66667
      vertex 29.0067 -98 -22.1116
      vertex 18.6667 -98 -7.66667
    endloop
  endfacet
  facet normal 0 1 -0
    outer loop
      vertex 27.7566 -98 -22.2098
      vertex 18.6667 -98 -7.66667
      vertex 29.0067 -98 -22.1116
    endloop
  endfacet
  facet normal 0 1 -0
    outer loop
      vertex 23.6017 -98 -22.5367
      vertex 18.6667 -98 -7.66667
      vertex 27.7566 -98 -22.2098
    endloop
  endfacet
  facet normal 0 1 -0
    outer loop
      vertex 21.2977 -98 -22.5456
      vertex 18.6667 -98 -7.66667
      vertex 22.8671 -98 -22.5395
    endloop
  endfacet
  facet normal -0 1 -0
    outer loop
      vertex 19.5638 -98 -22.4044
      vertex 18.6667 -98 -7.66667
      vertex 20.6844 -98 -22.4957
    endloop
  endfacet
  facet normal 0 1 0
    outer loop
      vertex 18.6667 -98 -7.66667
      vertex 23.6017 -98 -22.5367
      vertex 22.8671 -98 -22.5395
    endloop
  endfacet
  facet normal 0 1 0
    outer loop
      vertex 18.6667 -98 -7.66667
      vertex 19.5638 -98 -22.4044
      vertex 18.6667 -98 -22.2273
    endloop
  endfacet
  facet normal 0 1 0
    outer loop
      vertex 18.6667 -98 -7.66667
      vertex 21.2977 -98 -22.5456
      vertex 20.6844 -98 -22.4957
    endloop
  endfacet
  facet normal 0 -1 0
    outer loop
      vertex 19.1091 -122.5 -20.7568
      vertex 18.6667 -122.5 -7.66667
      vertex 18.6667 -122.5 -20.5192
    endloop
  endfacet
  facet normal 0 -1 0
    outer loop
      vertex 20.1264 -122.5 -21.2028
      vertex 18.6667 -122.5 -7.66667
      vertex 19.1091 -122.5 -20.7568
    endloop
  endfacet
  facet normal 0 -1 0
    outer loop
      vertex 20.1264 -122.5 -21.2028
      vertex 19.1091 -122.5 -20.7568
      vertex 19.2834 -122.5 -20.8509
    endloop
  endfacet
  facet normal 0 -1 0
    outer loop
      vertex 18.6667 -122.5 -7.66667
      vertex 20.1264 -122.5 -21.2028
      vertex 21.1183 -122.5 -21.4991
    endloop
  endfacet
  facet normal 0 -1 0
    outer loop
      vertex 20.5753 -122.5 -21.3597
      vertex 20.1264 -122.5 -21.2028
      vertex 20.2395 -122.5 -21.2503
    endloop
  endfacet
  facet normal 0 -1 0
    outer loop
      vertex 20.1264 -122.5 -21.2028
      vertex 20.5753 -122.5 -21.3597
      vertex 21.1183 -122.5 -21.4991
    endloop
  endfacet
  facet normal 0 -1 0
    outer loop
      vertex 21.1183 -122.5 -21.4991
      vertex 20.5753 -122.5 -21.3597
      vertex 20.6146 -122.5 -21.3726
    endloop
  endfacet
  facet normal 0 -1 0
    outer loop
      vertex 18.6667 -122.5 -7.66667
      vertex 21.1183 -122.5 -21.4991
      vertex 21.1667 -122.5 -21.5114
    endloop
  endfacet
  facet normal 0 -1 0
    outer loop
      vertex 23.8475 -122.5 -22.0109
      vertex 18.6667 -122.5 -7.66667
      vertex 21.1667 -122.5 -21.5114
    endloop
  endfacet
  facet normal 0 -1 0
    outer loop
      vertex 26.0294 -122.5 -22.4044
      vertex 18.6667 -122.5 -7.66667
      vertex 23.8475 -122.5 -22.0109
    endloop
  endfacet
  facet normal 0 -1 0
    outer loop
      vertex 27.932 -122.5 -22.5456
      vertex 18.6667 -122.5 -7.66667
      vertex 26.2505 -122.5 -22.4207
    endloop
  endfacet
  facet normal -0 -1 0
    outer loop
      vertex 36.4282 -122.5 -22.1116
      vertex 37.3333 -122.5 -7.66667
      vertex 33.6547 -122.5 -22.3098
    endloop
  endfacet
  facet normal 0 -1 -0
    outer loop
      vertex 37.3333 -122.5 -7.66667
      vertex 36.4282 -122.5 -22.1116
      vertex 37.3333 -122.5 -21.9708
    endloop
  endfacet
  facet normal 0 -1 0
    outer loop
      vertex 18.6667 -122.5 -7.66667
      vertex 26.0294 -122.5 -22.4044
      vertex 26.2505 -122.5 -22.4207
    endloop
  endfacet
  facet normal 0 -1 0
    outer loop
      vertex 18.6667 -122.5 -7.66667
      vertex 27.932 -122.5 -22.5456
      vertex 37.3333 -122.5 -7.66667
    endloop
  endfacet
  facet normal 0 -1 0
    outer loop
      vertex 37.3333 -122.5 -7.66667
      vertex 30.4645 -122.5 -22.5367
      vertex 33.6547 -122.5 -22.3098
    endloop
  endfacet
  facet normal 0 -1 0
    outer loop
      vertex 37.3333 -122.5 -7.66667
      vertex 28.5251 -122.5 -22.5435
      vertex 30.4645 -122.5 -22.5367
    endloop
  endfacet
  facet normal 0 -1 0
    outer loop
      vertex 37.3333 -122.5 -7.66667
      vertex 27.932 -122.5 -22.5456
      vertex 28.5251 -122.5 -22.5435
    endloop
  endfacet
  facet normal -0.193681 -0.0226644 -0.980803
    outer loop
      vertex 18.6667 -99.2787 -22.1977
      vertex 19.5638 -98 -22.4044
      vertex 19.9344 -101.167 -22.4044
    endloop
  endfacet
  facet normal -0.193626 -0.0227044 -0.980813
    outer loop
      vertex 19.5638 -98 -22.4044
      vertex 18.6667 -99.2787 -22.1977
      vertex 18.6667 -98 -22.2273
    endloop
  endfacet
  facet normal -0.193833 -0.0227705 -0.98077
    outer loop
      vertex 19.9344 -101.167 -22.4044
      vertex 18.6667 -101.372 -22.1491
      vertex 18.6667 -99.2787 -22.1977
    endloop
  endfacet
  facet normal -0.0810915 -0.0094775 -0.996662
    outer loop
      vertex 21.6357 -100.892 -22.5456
      vertex 20.6844 -98 -22.4957
      vertex 21.2977 -98 -22.5456
    endloop
  endfacet
  facet normal -0.0811809 -0.00950705 -0.996654
    outer loop
      vertex 19.9344 -101.167 -22.4044
      vertex 20.6844 -98 -22.4957
      vertex 21.6357 -100.892 -22.5456
    endloop
  endfacet
  facet normal -0.0812015 -0.00950214 -0.996652
    outer loop
      vertex 20.6844 -98 -22.4957
      vertex 19.9344 -101.167 -22.4044
      vertex 19.5638 -98 -22.4044
    endloop
  endfacet
  facet normal 0.00381157 0.000444356 -0.999993
    outer loop
      vertex 23.8963 -100.527 -22.5367
      vertex 22.8671 -98 -22.5395
      vertex 23.6017 -98 -22.5367
    endloop
  endfacet
  facet normal 0.00386192 0.000464863 -0.999992
    outer loop
      vertex 21.6357 -100.892 -22.5456
      vertex 22.8671 -98 -22.5395
      vertex 23.8963 -100.527 -22.5367
    endloop
  endfacet
  facet normal 0.00388681 0.000454267 -0.999992
    outer loop
      vertex 22.8671 -98 -22.5395
      vertex 21.6357 -100.892 -22.5456
      vertex 21.2977 -98 -22.5456
    endloop
  endfacet
  facet normal 0.0783092 0.00907193 -0.996888
    outer loop
      vertex 29.2002 -99.6703 -22.1116
      vertex 27.7566 -98 -22.2098
      vertex 29.0067 -98 -22.1116
    endloop
  endfacet
  facet normal 0.0784178 0.00916631 -0.996878
    outer loop
      vertex 23.8963 -100.527 -22.5367
      vertex 27.7566 -98 -22.2098
      vertex 29.2002 -99.6703 -22.1116
    endloop
  endfacet
  facet normal 0.0784325 0.00914374 -0.996877
    outer loop
      vertex 27.7566 -98 -22.2098
      vertex 23.8963 -100.527 -22.5367
      vertex 23.6017 -98 -22.5367
    endloop
  endfacet
  facet normal 0.169985 0.0196372 -0.985251
    outer loop
      vertex 31.4483 -99.3071 -21.7162
      vertex 30.8823 -98 -21.7878
      vertex 31.2973 -98 -21.7162
    endloop
  endfacet
  facet normal 0.170103 0.0196893 -0.98523
    outer loop
      vertex 29.2002 -99.6703 -22.1116
      vertex 30.8823 -98 -21.7878
      vertex 31.4483 -99.3071 -21.7162
    endloop
  endfacet
  facet normal 0.170089 0.0197043 -0.985232
    outer loop
      vertex 30.8823 -98 -21.7878
      vertex 29.2002 -99.6703 -22.1116
      vertex 29.0067 -98 -22.1116
    endloop
  endfacet
  facet normal 0.264345 0.0304826 -0.963946
    outer loop
      vertex 32.8131 -99.0866 -21.3345
      vertex 32.4763 -98 -21.3925
      vertex 32.6878 -98 -21.3345
    endloop
  endfacet
  facet normal 0.264629 0.030575 -0.963865
    outer loop
      vertex 31.4483 -99.3071 -21.7162
      vertex 32.4763 -98 -21.3925
      vertex 32.8131 -99.0866 -21.3345
    endloop
  endfacet
  facet normal 0.264633 0.0305712 -0.963864
    outer loop
      vertex 32.4763 -98 -21.3925
      vertex 31.4483 -99.3071 -21.7162
      vertex 31.2973 -98 -21.7162
    endloop
  endfacet
  facet normal 0.357013 0.0411447 -0.933193
    outer loop
      vertex 33.4863 -98.9779 -21.0716
      vertex 33.2795 -98 -21.1076
      vertex 33.3736 -98 -21.0716
    endloop
  endfacet
  facet normal 0.357666 0.0412921 -0.932936
    outer loop
      vertex 32.8131 -99.0866 -21.3345
      vertex 33.2795 -98 -21.1076
      vertex 33.4863 -98.9779 -21.0716
    endloop
  endfacet
  facet normal 0.357744 0.0412528 -0.932908
    outer loop
      vertex 33.2795 -98 -21.1076
      vertex 32.8131 -99.0866 -21.3345
      vertex 32.6878 -98 -21.3345
    endloop
  endfacet
  facet normal 0.436674 0.0503132 -0.898212
    outer loop
      vertex 33.9309 -98.9061 -20.8512
      vertex 33.7687 -98 -20.8793
      vertex 33.8265 -98 -20.8512
    endloop
  endfacet
  facet normal 0.43704 0.0503844 -0.89803
    outer loop
      vertex 33.4863 -98.9779 -21.0716
      vertex 33.7687 -98 -20.8793
      vertex 33.9309 -98.9061 -20.8512
    endloop
  endfacet
  facet normal 0.437074 0.0503715 -0.898014
    outer loop
      vertex 33.7687 -98 -20.8793
      vertex 33.4863 -98.9779 -21.0716
      vertex 33.3736 -98 -21.0716
    endloop
  endfacet
  facet normal 0.536667 0.0618055 -0.841528
    outer loop
      vertex 34.4334 -98.8249 -20.5245
      vertex 34.2785 -98 -20.5627
      vertex 34.3384 -98 -20.5245
    endloop
  endfacet
  facet normal 0.536985 0.0618748 -0.84132
    outer loop
      vertex 33.9309 -98.9061 -20.8512
      vertex 34.2785 -98 -20.5627
      vertex 34.4334 -98.8249 -20.5245
    endloop
  endfacet
  facet normal 0.536991 0.0618716 -0.841316
    outer loop
      vertex 34.2785 -98 -20.5627
      vertex 33.9309 -98.9061 -20.8512
      vertex 33.8265 -98 -20.8512
    endloop
  endfacet
  facet normal 0.611793 0.0704574 -0.787874
    outer loop
      vertex 34.3384 -98 -20.5245
      vertex 37.3333 -98.3564 -18.2308
      vertex 34.4334 -98.8249 -20.5245
    endloop
  endfacet
  facet normal 0.611788 0.0703001 -0.787892
    outer loop
      vertex 37.3333 -98.3564 -18.2308
      vertex 34.3384 -98 -20.5245
      vertex 37.3333 -98 -18.199
    endloop
  endfacet
  facet normal -0.191124 -0.039581 -0.980768
    outer loop
      vertex 18.6667 -106.937 -21.9245
      vertex 19.9344 -101.167 -22.4044
      vertex 22.3452 -112.808 -22.4044
    endloop
  endfacet
  facet normal -0.191114 -0.0395832 -0.980769
    outer loop
      vertex 19.9344 -101.167 -22.4044
      vertex 18.6667 -106.937 -21.9245
      vertex 18.6667 -101.372 -22.1491
    endloop
  endfacet
  facet normal -0.191101 -0.0395659 -0.980773
    outer loop
      vertex 22.3452 -112.808 -22.4044
      vertex 18.6667 -113.729 -21.6505
      vertex 18.6667 -106.937 -21.9245
    endloop
  endfacet
  facet normal -0.0800384 -0.016575 -0.996654
    outer loop
      vertex 24.0168 -112.39 -22.5456
      vertex 19.9344 -101.167 -22.4044
      vertex 21.6357 -100.892 -22.5456
    endloop
  endfacet
  facet normal -0.0800422 -0.0165764 -0.996654
    outer loop
      vertex 22.3452 -112.808 -22.4044
      vertex 19.9344 -101.167 -22.4044
      vertex 24.0168 -112.39 -22.5456
    endloop
  endfacet
  facet normal 0.00380958 0.000789038 -0.999992
    outer loop
      vertex 26.2382 -111.834 -22.5367
      vertex 21.6357 -100.892 -22.5456
      vertex 23.8963 -100.527 -22.5367
    endloop
  endfacet
  facet normal 0.00380902 0.000788803 -0.999992
    outer loop
      vertex 24.0168 -112.39 -22.5456
      vertex 21.6357 -100.892 -22.5456
      vertex 26.2382 -111.834 -22.5367
    endloop
  endfacet
  facet normal 0.077311 0.0160187 -0.996878
    outer loop
      vertex 31.4501 -110.529 -22.1116
      vertex 23.8963 -100.527 -22.5367
      vertex 29.2002 -99.6703 -22.1116
    endloop
  endfacet
  facet normal 0.0773 0.0160103 -0.996879
    outer loop
      vertex 26.2382 -111.834 -22.5367
      vertex 23.8963 -100.527 -22.5367
      vertex 31.4501 -110.529 -22.1116
    endloop
  endfacet
  facet normal 0.167671 0.0347446 -0.985231
    outer loop
      vertex 33.6591 -109.976 -21.7162
      vertex 29.2002 -99.6703 -22.1116
      vertex 31.4483 -99.3071 -21.7162
    endloop
  endfacet
  facet normal 0.167656 0.0347379 -0.985233
    outer loop
      vertex 31.4501 -110.529 -22.1116
      vertex 29.2002 -99.6703 -22.1116
      vertex 33.6591 -109.976 -21.7162
    endloop
  endfacet
  facet normal 0.260836 0.0540584 -0.963868
    outer loop
      vertex 35.0003 -109.64 -21.3345
      vertex 31.4483 -99.3071 -21.7162
      vertex 32.8131 -99.0866 -21.3345
    endloop
  endfacet
  facet normal 0.26078 0.0540386 -0.963885
    outer loop
      vertex 33.6591 -109.976 -21.7162
      vertex 31.4483 -99.3071 -21.7162
      vertex 35.0003 -109.64 -21.3345
    endloop
  endfacet
  facet normal 0.352538 0.0730626 -0.932941
    outer loop
      vertex 35.6618 -109.475 -21.0716
      vertex 32.8131 -99.0866 -21.3345
      vertex 33.4863 -98.9779 -21.0716
    endloop
  endfacet
  facet normal 0.352551 0.0730665 -0.932936
    outer loop
      vertex 35.0003 -109.64 -21.3345
      vertex 32.8131 -99.0866 -21.3345
      vertex 35.6618 -109.475 -21.0716
    endloop
  endfacet
  facet normal 0.430763 0.0892795 -0.898038
    outer loop
      vertex 36.0986 -109.365 -20.8512
      vertex 33.4863 -98.9779 -21.0716
      vertex 33.9309 -98.9061 -20.8512
    endloop
  endfacet
  facet normal 0.430676 0.0892565 -0.898082
    outer loop
      vertex 35.6618 -109.475 -21.0716
      vertex 33.4863 -98.9779 -21.0716
      vertex 36.0986 -109.365 -20.8512
    endloop
  endfacet
  facet normal 0.529267 0.109693 -0.841334
    outer loop
      vertex 36.5924 -109.242 -20.5245
      vertex 33.9309 -98.9061 -20.8512
      vertex 34.4334 -98.8249 -20.5245
    endloop
  endfacet
  facet normal 0.529293 0.109701 -0.841317
    outer loop
      vertex 36.0986 -109.365 -20.8512
      vertex 33.9309 -98.9061 -20.8512
      vertex 36.5924 -109.242 -20.5245
    endloop
  endfacet
  facet normal 0.602986 0.125046 -0.78789
    outer loop
      vertex 37.3333 -101.871 -18.7886
      vertex 34.4334 -98.8249 -20.5245
      vertex 37.3333 -98.3564 -18.2308
    endloop
  endfacet
  facet normal 0.60291 0.124966 -0.787961
    outer loop
      vertex 36.5924 -109.242 -20.5245
      vertex 37.3333 -101.871 -18.7886
      vertex 37.3333 -109.056 -19.9281
    endloop
  endfacet
  facet normal 0.602931 0.124961 -0.787946
    outer loop
      vertex 37.3333 -101.871 -18.7886
      vertex 36.5924 -109.242 -20.5245
      vertex 34.4334 -98.8249 -20.5245
    endloop
  endfacet
  facet normal -0.467963 -0.172239 -0.866801
    outer loop
      vertex 18.6667 -121.603 -20.6962
      vertex 19.2834 -122.5 -20.8509
      vertex 19.1091 -122.5 -20.7568
    endloop
  endfacet
  facet normal -0.468088 -0.17234 -0.866714
    outer loop
      vertex 19.2834 -122.5 -20.8509
      vertex 18.6667 -121.603 -20.6962
      vertex 18.6667 -120.825 -20.8509
    endloop
  endfacet
  facet normal -0.466158 -0.171271 -0.867965
    outer loop
      vertex 19.1091 -122.5 -20.7568
      vertex 18.6667 -122.5 -20.5192
      vertex 18.6667 -121.603 -20.6962
    endloop
  endfacet
  facet normal -0.38333 -0.141359 -0.91273
    outer loop
      vertex 18.6667 -119.403 -21.0694
      vertex 20.2395 -122.5 -21.2503
      vertex 20.1264 -122.5 -21.2028
    endloop
  endfacet
  facet normal -0.383732 -0.141575 -0.912528
    outer loop
      vertex 20.2395 -122.5 -21.2503
      vertex 18.6667 -119.403 -21.0694
      vertex 18.6667 -118.237 -21.2503
    endloop
  endfacet
  facet normal -0.381405 -0.140425 -0.91368
    outer loop
      vertex 18.6667 -120.825 -20.8509
      vertex 20.1264 -122.5 -21.2028
      vertex 19.2834 -122.5 -20.8509
    endloop
  endfacet
  facet normal -0.381375 -0.140396 -0.913697
    outer loop
      vertex 20.1264 -122.5 -21.2028
      vertex 18.6667 -120.825 -20.8509
      vertex 18.6667 -119.403 -21.0694
    endloop
  endfacet
  facet normal -0.309826 -0.114388 -0.943887
    outer loop
      vertex 18.6667 -117.833 -21.2988
      vertex 20.6146 -122.5 -21.3726
      vertex 20.5753 -122.5 -21.3597
    endloop
  endfacet
  facet normal -0.309813 -0.114383 -0.943892
    outer loop
      vertex 20.6146 -122.5 -21.3726
      vertex 18.6667 -117.833 -21.2988
      vertex 18.6667 -117.224 -21.3726
    endloop
  endfacet
  facet normal -0.307761 -0.113546 -0.944664
    outer loop
      vertex 18.6667 -118.237 -21.2503
      vertex 20.5753 -122.5 -21.3597
      vertex 20.2395 -122.5 -21.2503
    endloop
  endfacet
  facet normal -0.307484 -0.113419 -0.94477
    outer loop
      vertex 20.5753 -122.5 -21.3597
      vertex 18.6667 -118.237 -21.2503
      vertex 18.6667 -117.833 -21.2988
    endloop
  endfacet
  facet normal -0.245287 -0.0907368 -0.965195
    outer loop
      vertex 18.6667 -116.78 -21.4138
      vertex 21.1667 -122.5 -21.5114
      vertex 21.1183 -122.5 -21.4991
    endloop
  endfacet
  facet normal -0.24403 -0.090181 -0.965566
    outer loop
      vertex 21.1667 -122.5 -21.5114
      vertex 18.6667 -116.78 -21.4138
      vertex 18.6667 -115.735 -21.5114
    endloop
  endfacet
  facet normal -0.242599 -0.0895674 -0.965983
    outer loop
      vertex 18.6667 -117.224 -21.3726
      vertex 21.1183 -122.5 -21.4991
      vertex 20.6146 -122.5 -21.3726
    endloop
  endfacet
  facet normal -0.242737 -0.0896325 -0.965943
    outer loop
      vertex 21.1183 -122.5 -21.4991
      vertex 18.6667 -117.224 -21.3726
      vertex 18.6667 -116.78 -21.4138
    endloop
  endfacet
  facet normal -0.183819 -0.0685782 -0.980565
    outer loop
      vertex 18.6667 -114.597 -21.5897
      vertex 22.3452 -112.808 -22.4044
      vertex 25.7204 -121.855 -22.4044
    endloop
  endfacet
  facet normal -0.183768 -0.0686849 -0.980567
    outer loop
      vertex 22.3452 -112.808 -22.4044
      vertex 18.6667 -114.597 -21.5897
      vertex 18.6667 -113.729 -21.6505
    endloop
  endfacet
  facet normal -0.182754 -0.0675367 -0.980836
    outer loop
      vertex 18.6667 -115.735 -21.5114
      vertex 23.8475 -122.5 -22.0109
      vertex 21.1667 -122.5 -21.5114
    endloop
  endfacet
  facet normal -0.182802 -0.0675739 -0.980825
    outer loop
      vertex 23.8475 -122.5 -22.0109
      vertex 18.6667 -115.735 -21.5114
      vertex 25.7204 -121.855 -22.4044
    endloop
  endfacet
  facet normal -0.182729 -0.0674869 -0.980844
    outer loop
      vertex 25.7204 -121.855 -22.4044
      vertex 18.6667 -115.735 -21.5114
      vertex 18.6667 -114.597 -21.5897
    endloop
  endfacet
  facet normal -0.0769749 -0.0288299 -0.996616
    outer loop
      vertex 27.3513 -121.293 -22.5456
      vertex 22.3452 -112.808 -22.4044
      vertex 24.0168 -112.39 -22.5456
    endloop
  endfacet
  facet normal -0.0764596 -0.0285251 -0.996665
    outer loop
      vertex 25.7204 -121.855 -22.4044
      vertex 22.3452 -112.808 -22.4044
      vertex 27.3513 -121.293 -22.5456
    endloop
  endfacet
  facet normal 0.00366139 0.00137865 -0.999992
    outer loop
      vertex 29.5186 -120.546 -22.5367
      vertex 24.0168 -112.39 -22.5456
      vertex 26.2382 -111.834 -22.5367
    endloop
  endfacet
  facet normal 0.00363696 0.00136218 -0.999992
    outer loop
      vertex 27.3513 -121.293 -22.5456
      vertex 24.0168 -112.39 -22.5456
      vertex 29.5186 -120.546 -22.5367
    endloop
  endfacet
  facet normal 0.074215 0.0283183 -0.99684
    outer loop
      vertex 34.6034 -118.793 -22.1116
      vertex 26.2382 -111.834 -22.5367
      vertex 31.4501 -110.529 -22.1116
    endloop
  endfacet
  facet normal 0.0737662 0.0277758 -0.996889
    outer loop
      vertex 29.5186 -120.546 -22.5367
      vertex 26.2382 -111.834 -22.5367
      vertex 34.6034 -118.793 -22.1116
    endloop
  endfacet
  facet normal 0.160861 0.0617428 -0.985044
    outer loop
      vertex 36.7585 -118.051 -21.7162
      vertex 31.4501 -110.529 -22.1116
      vertex 33.6591 -109.976 -21.7162
    endloop
  endfacet
  facet normal 0.159778 0.0609667 -0.985268
    outer loop
      vertex 34.6034 -118.793 -22.1116
      vertex 31.4501 -110.529 -22.1116
      vertex 36.7585 -118.051 -21.7162
    endloop
  endfacet
  facet normal 0.250072 0.0963422 -0.963422
    outer loop
      vertex 33.6591 -109.976 -21.7162
      vertex 37.3333 -115.696 -21.3345
      vertex 37.3333 -116.331 -21.398
    endloop
  endfacet
  facet normal 0.250055 0.0963305 -0.963428
    outer loop
      vertex 37.3333 -115.696 -21.3345
      vertex 33.6591 -109.976 -21.7162
      vertex 35.0003 -109.64 -21.3345
    endloop
  endfacet
  facet normal 0.248403 0.0953189 -0.963955
    outer loop
      vertex 36.7585 -118.051 -21.7162
      vertex 37.3333 -116.331 -21.398
      vertex 37.3333 -117.853 -21.5485
    endloop
  endfacet
  facet normal 0.24837 0.0953312 -0.963963
    outer loop
      vertex 37.3333 -116.331 -21.398
      vertex 36.7585 -118.051 -21.7162
      vertex 33.6591 -109.976 -21.7162
    endloop
  endfacet
  facet normal 0.337946 0.130464 -0.932079
    outer loop
      vertex 35.0003 -109.64 -21.3345
      vertex 37.3333 -113.805 -21.0716
      vertex 37.3333 -114.503 -21.1693
    endloop
  endfacet
  facet normal 0.337907 0.130441 -0.932097
    outer loop
      vertex 37.3333 -113.805 -21.0716
      vertex 35.0003 -109.64 -21.3345
      vertex 35.6618 -109.475 -21.0716
    endloop
  endfacet
  facet normal 0.335427 0.129219 -0.933162
    outer loop
      vertex 37.3333 -115.696 -21.3345
      vertex 35.0003 -109.64 -21.3345
      vertex 37.3333 -114.503 -21.1693
    endloop
  endfacet
  facet normal 0.412925 0.15967 -0.89666
    outer loop
      vertex 35.6618 -109.475 -21.0716
      vertex 37.3333 -112.56 -20.8512
      vertex 37.3333 -113.203 -20.9657
    endloop
  endfacet
  facet normal 0.412436 0.159385 -0.896935
    outer loop
      vertex 37.3333 -112.56 -20.8512
      vertex 35.6618 -109.475 -21.0716
      vertex 36.0986 -109.365 -20.8512
    endloop
  endfacet
  facet normal 0.409462 0.158064 -0.89853
    outer loop
      vertex 37.3333 -113.805 -21.0716
      vertex 35.6618 -109.475 -21.0716
      vertex 37.3333 -113.203 -20.9657
    endloop
  endfacet
  facet normal 0.506502 0.196014 -0.839663
    outer loop
      vertex 36.0986 -109.365 -20.8512
      vertex 37.3333 -111.156 -20.5245
      vertex 37.3333 -112.065 -20.7367
    endloop
  endfacet
  facet normal 0.506616 0.196109 -0.839572
    outer loop
      vertex 37.3333 -111.156 -20.5245
      vertex 36.0986 -109.365 -20.8512
      vertex 36.5924 -109.242 -20.5245
    endloop
  endfacet
  facet normal 0.503762 0.194678 -0.84162
    outer loop
      vertex 37.3333 -112.56 -20.8512
      vertex 36.0986 -109.365 -20.8512
      vertex 37.3333 -112.065 -20.7367
    endloop
  endfacet
  facet normal 0.575434 0.22711 -0.785683
    outer loop
      vertex 37.3333 -109.705 -20.1157
      vertex 36.5924 -109.242 -20.5245
      vertex 37.3333 -109.056 -19.9281
    endloop
  endfacet
  facet normal 0.573765 0.222102 -0.78833
    outer loop
      vertex 37.3333 -111.156 -20.5245
      vertex 36.5924 -109.242 -20.5245
      vertex 37.3333 -109.705 -20.1157
    endloop
  endfacet
  facet normal -0.176846 -0.0847216 -0.980585
    outer loop
      vertex 26.0294 -122.5 -22.4044
      vertex 23.8475 -122.5 -22.0109
      vertex 25.7204 -121.855 -22.4044
    endloop
  endfacet
  facet normal -0.0740279 -0.0356156 -0.99662
    outer loop
      vertex 26.2505 -122.5 -22.4207
      vertex 27.3513 -121.293 -22.5456
      vertex 27.932 -122.5 -22.5456
    endloop
  endfacet
  facet normal -0.0740054 -0.0356362 -0.996621
    outer loop
      vertex 27.3513 -121.293 -22.5456
      vertex 26.2505 -122.5 -22.4207
      vertex 25.7204 -121.855 -22.4044
    endloop
  endfacet
  facet normal -0.0734772 -0.0352007 -0.996675
    outer loop
      vertex 26.0294 -122.5 -22.4044
      vertex 25.7204 -121.855 -22.4044
      vertex 26.2505 -122.5 -22.4207
    endloop
  endfacet
  facet normal 0.00350621 0.0016973 -0.999992
    outer loop
      vertex 28.5251 -122.5 -22.5435
      vertex 29.5186 -120.546 -22.5367
      vertex 30.4645 -122.5 -22.5367
    endloop
  endfacet
  facet normal 0.00352469 0.0016879 -0.999992
    outer loop
      vertex 29.5186 -120.546 -22.5367
      vertex 28.5251 -122.5 -22.5435
      vertex 27.3513 -121.293 -22.5456
    endloop
  endfacet
  facet normal 0.00354069 0.00170346 -0.999992
    outer loop
      vertex 27.932 -122.5 -22.5456
      vertex 27.3513 -121.293 -22.5456
      vertex 28.5251 -122.5 -22.5435
    endloop
  endfacet
  facet normal 0.0712364 0.0350667 -0.996843
    outer loop
      vertex 33.6547 -122.5 -22.3098
      vertex 34.6034 -118.793 -22.1116
      vertex 36.4282 -122.5 -22.1116
    endloop
  endfacet
  facet normal 0.07125 0.0350632 -0.996842
    outer loop
      vertex 34.6034 -118.793 -22.1116
      vertex 33.6547 -122.5 -22.3098
      vertex 29.5186 -120.546 -22.5367
    endloop
  endfacet
  facet normal 0.0709031 0.034323 -0.996893
    outer loop
      vertex 30.4645 -122.5 -22.5367
      vertex 29.5186 -120.546 -22.5367
      vertex 33.6547 -122.5 -22.3098
    endloop
  endfacet
  facet normal 0.154345 0.0765891 -0.985044
    outer loop
      vertex 34.6034 -118.793 -22.1116
      vertex 37.3333 -119.209 -21.7162
      vertex 37.3333 -121.362 -21.8836
    endloop
  endfacet
  facet normal 0.154349 0.0766146 -0.985041
    outer loop
      vertex 37.3333 -119.209 -21.7162
      vertex 34.6034 -118.793 -22.1116
      vertex 36.7585 -118.051 -21.7162
    endloop
  endfacet
  facet normal 0.153275 0.0754989 -0.985295
    outer loop
      vertex 36.4282 -122.5 -22.1116
      vertex 37.3333 -121.362 -21.8836
      vertex 37.3333 -122.5 -21.9708
    endloop
  endfacet
  facet normal 0.153312 0.0754691 -0.985292
    outer loop
      vertex 37.3333 -121.362 -21.8836
      vertex 36.4282 -122.5 -22.1116
      vertex 34.6034 -118.793 -22.1116
    endloop
  endfacet
  facet normal 0.239827 0.119748 -0.963402
    outer loop
      vertex 37.3333 -118.742 -21.659
      vertex 36.7585 -118.051 -21.7162
      vertex 37.3333 -117.853 -21.5485
    endloop
  endfacet
  facet normal 0.237896 0.118085 -0.964086
    outer loop
      vertex 37.3333 -119.209 -21.7162
      vertex 36.7585 -118.051 -21.7162
      vertex 37.3333 -118.742 -21.659
    endloop
  endfacet
endsolid OpenSCAD_Model
