solid OpenSCAD_Model
  facet normal 1 0 0
    outer loop
      vertex 37.3333 -7.14953 1.12646
      vertex 37.3333 -7.04492 0.714473
      vertex 37.3333 -7.05443 0.785991
    endloop
  endfacet
  facet normal 1 0 0
    outer loop
      vertex 37.3333 -7.04492 0.714473
      vertex 37.3333 -7.14953 1.12646
      vertex 37.3333 -7.05297 0.163999
    endloop
  endfacet
  facet normal 1 0 0
    outer loop
      vertex 37.3333 -7.14953 1.12646
      vertex 37.3333 -7.05443 0.785991
      vertex 37.3333 -7.06959 0.874037
    endloop
  endfacet
  facet normal 1 0 0
    outer loop
      vertex 37.3333 -7.14953 1.12646
      vertex 37.3333 -7.06959 0.874037
      vertex 37.3333 -7.07899 0.916698
    endloop
  endfacet
  facet normal 1 0 0
    outer loop
      vertex 37.3333 -7.23923 1.40372
      vertex 37.3333 -7.05297 0.163999
      vertex 37.3333 -7.14953 1.12646
    endloop
  endfacet
  facet normal 1 0 0
    outer loop
      vertex 37.3333 -7.05297 0.163999
      vertex 37.3333 -7.23923 1.40372
      vertex 37.3333 -7.05942 -0.261157
    endloop
  endfacet
  facet normal 1 0 0
    outer loop
      vertex 37.3333 -7.05942 -0.261157
      vertex 37.3333 -7.23923 1.40372
      vertex 37.3333 -7.13001 -0.998288
    endloop
  endfacet
  facet normal 1 0 0
    outer loop
      vertex 37.3333 -8.39349 3.66688
      vertex 37.3333 -7.13001 -0.998288
      vertex 37.3333 -7.23923 1.40372
    endloop
  endfacet
  facet normal 1 0 0
    outer loop
      vertex 37.3333 -7.13001 -0.998288
      vertex 37.3333 -8.39349 3.66688
      vertex 37.3333 -7.18622 -1.56349
    endloop
  endfacet
  facet normal 1 0 0
    outer loop
      vertex 37.3333 -8.41434 -4.87646
      vertex 37.3333 -7.18622 -1.56349
      vertex 37.3333 -8.39349 3.66688
    endloop
  endfacet
  facet normal 1 0 0
    outer loop
      vertex 37.3333 -7.18622 -1.56349
      vertex 37.3333 -8.20891 -4.55505
      vertex 37.3333 -7.30785 -2.30417
    endloop
  endfacet
  facet normal 1 0 -0
    outer loop
      vertex 37.3333 -7.78916 -3.835
      vertex 37.3333 -7.30785 -2.30417
      vertex 37.3333 -8.20891 -4.55505
    endloop
  endfacet
  facet normal 1 0 -0
    outer loop
      vertex 37.3333 -7.55893 -3.34178
      vertex 37.3333 -7.30785 -2.30417
      vertex 37.3333 -7.78916 -3.835
    endloop
  endfacet
  facet normal 1 0 0
    outer loop
      vertex 37.3333 -7.40251 -2.85932
      vertex 37.3333 -7.55893 -3.34178
      vertex 37.3333 -7.44437 -3.0136
    endloop
  endfacet
  facet normal 1 0 0
    outer loop
      vertex 37.3333 -7.55893 -3.34178
      vertex 37.3333 -7.78916 -3.835
      vertex 37.3333 -7.6209 -3.49699
    endloop
  endfacet
  facet normal 1 0 0
    outer loop
      vertex 37.3333 -7.44437 -3.0136
      vertex 37.3333 -7.55893 -3.34178
      vertex 37.3333 -7.47615 -3.12637
    endloop
  endfacet
  facet normal 1 0 0
    outer loop
      vertex 37.3333 -7.30785 -2.30417
      vertex 37.3333 -7.55893 -3.34178
      vertex 37.3333 -7.40251 -2.85932
    endloop
  endfacet
  facet normal 1 0 0
    outer loop
      vertex 37.3333 -7.78916 -3.835
      vertex 37.3333 -8.20891 -4.55505
      vertex 37.3333 -7.91165 -4.0718
    endloop
  endfacet
  facet normal 1 0 0
    outer loop
      vertex 37.3333 -7.18622 -1.56349
      vertex 37.3333 -8.41434 -4.87646
      vertex 37.3333 -8.20891 -4.55505
    endloop
  endfacet
  facet normal 1 0 0
    outer loop
      vertex 37.3333 -8.39349 3.66688
      vertex 37.3333 -8.83648 -5.44962
      vertex 37.3333 -8.41434 -4.87646
    endloop
  endfacet
  facet normal 1 0 0
    outer loop
      vertex 37.3333 -8.39349 3.66688
      vertex 37.3333 -9.10563 -5.8014
      vertex 37.3333 -8.83648 -5.44962
    endloop
  endfacet
  facet normal 1 0 0
    outer loop
      vertex 37.3333 -8.39349 3.66688
      vertex 37.3333 -9.44712 -6.20201
      vertex 37.3333 -9.10563 -5.8014
    endloop
  endfacet
  facet normal 1 0 0
    outer loop
      vertex 37.3333 -8.39349 3.66688
      vertex 37.3333 -9.64658 -6.42719
      vertex 37.3333 -9.44712 -6.20201
    endloop
  endfacet
  facet normal 1 0 0
    outer loop
      vertex 37.3333 -8.39349 3.66688
      vertex 37.3333 -10.066 -6.85231
      vertex 37.3333 -9.64658 -6.42719
    endloop
  endfacet
  facet normal 1 0 0
    outer loop
      vertex 37.3333 -8.39349 3.66688
      vertex 37.3333 -10.2924 -7.07311
      vertex 37.3333 -10.066 -6.85231
    endloop
  endfacet
  facet normal 1 0 0
    outer loop
      vertex 37.3333 -24.5 7.66667
      vertex 37.3333 -8.39349 3.66688
      vertex 37.3333 -10.3225 7.606
    endloop
  endfacet
  facet normal 1 -0 0
    outer loop
      vertex 37.3333 -24.5 7.66667
      vertex 37.3333 -10.3225 7.606
      vertex 37.3333 -10.3574 7.66667
    endloop
  endfacet
  facet normal 1 0 0
    outer loop
      vertex 37.3333 -8.39349 3.66688
      vertex 37.3333 -10.9621 -7.66667
      vertex 37.3333 -10.2924 -7.07311
    endloop
  endfacet
  facet normal 1 0 0
    outer loop
      vertex 37.3333 -24.5 -7.66667
      vertex 37.3333 -8.39349 3.66688
      vertex 37.3333 -24.5 7.66667
    endloop
  endfacet
  facet normal 1 0 0
    outer loop
      vertex 37.3333 -8.39349 3.66688
      vertex 37.3333 -24.5 -7.66667
      vertex 37.3333 -10.9621 -7.66667
    endloop
  endfacet
  facet normal -0 0 1
    outer loop
      vertex 37.1765 -10.4958 7.66667
      vertex 37.3333 -24.5 7.66667
      vertex 37.3333 -10.3574 7.66667
    endloop
  endfacet
  facet normal -0 0 1
    outer loop
      vertex 22.075 -24.3236 7.66667
      vertex 37.3333 -24.5 7.66667
      vertex 37.1765 -10.4958 7.66667
    endloop
  endfacet
  facet normal 0 0 1
    outer loop
      vertex 37.3333 -24.5 7.66667
      vertex 22.075 -24.3236 7.66667
      vertex 21.9919 -24.5 7.66667
    endloop
  endfacet
  facet normal 0 0 -1
    outer loop
      vertex 37.3333 -24.5 -7.66667
      vertex 35.6834 -12.1133 -7.66667
      vertex 37.3333 -10.9621 -7.66667
    endloop
  endfacet
  facet normal 0 0 -1
    outer loop
      vertex 37.3333 -24.5 -7.66667
      vertex 35.1695 -12.4909 -7.66667
      vertex 35.6834 -12.1133 -7.66667
    endloop
  endfacet
  facet normal 0 0 -1
    outer loop
      vertex 37.3333 -24.5 -7.66667
      vertex 33.5391 -13.7126 -7.66667
      vertex 35.1695 -12.4909 -7.66667
    endloop
  endfacet
  facet normal 0 0 -1
    outer loop
      vertex 37.3333 -24.5 -7.66667
      vertex 33.0592 -14.088 -7.66667
      vertex 33.5391 -13.7126 -7.66667
    endloop
  endfacet
  facet normal 0 0 -1
    outer loop
      vertex 37.3333 -24.5 -7.66667
      vertex 31.0036 -15.7195 -7.66667
      vertex 33.0592 -14.088 -7.66667
    endloop
  endfacet
  facet normal 0 0 -1
    outer loop
      vertex 37.3333 -24.5 -7.66667
      vertex 30.3738 -16.2356 -7.66667
      vertex 31.0036 -15.7195 -7.66667
    endloop
  endfacet
  facet normal 0 0 -1
    outer loop
      vertex 37.3333 -24.5 -7.66667
      vertex 26.0598 -19.8098 -7.66667
      vertex 30.3738 -16.2356 -7.66667
    endloop
  endfacet
  facet normal 0 0 -1
    outer loop
      vertex 37.3333 -24.5 -7.66667
      vertex 25.7262 -20.0943 -7.66667
      vertex 26.0598 -19.8098 -7.66667
    endloop
  endfacet
  facet normal 0 0 -1
    outer loop
      vertex 20.9256 -24.5 -7.66667
      vertex 25.7262 -20.0943 -7.66667
      vertex 37.3333 -24.5 -7.66667
    endloop
  endfacet
  facet normal 0 0 -1
    outer loop
      vertex 25.7262 -20.0943 -7.66667
      vertex 20.9256 -24.5 -7.66667
      vertex 21.1595 -24.0174 -7.66667
    endloop
  endfacet
  facet normal 0 -1 0
    outer loop
      vertex 19.7127 -24.5 2.64056
      vertex 37.3333 -24.5 7.66667
      vertex 21.9919 -24.5 7.66667
    endloop
  endfacet
  facet normal 0 -1 0
    outer loop
      vertex 19.4123 -24.5 -0.494868
      vertex 19.7127 -24.5 2.64056
      vertex 19.7022 -24.5 2.60385
    endloop
  endfacet
  facet normal 0 -1 0
    outer loop
      vertex 19.389 -24.5 1.27156
      vertex 19.7022 -24.5 2.60385
      vertex 19.4452 -24.5 1.73567
    endloop
  endfacet
  facet normal 0 -1 0
    outer loop
      vertex 19.389 -24.5 1.27156
      vertex 19.4452 -24.5 1.73567
      vertex 19.444 -24.5 1.72941
    endloop
  endfacet
  facet normal 0 -1 0
    outer loop
      vertex 19.4155 -24.5 1.58319
      vertex 19.444 -24.5 1.72941
      vertex 19.4168 -24.5 1.59385
    endloop
  endfacet
  facet normal 0 -1 0
    outer loop
      vertex 19.444 -24.5 1.72941
      vertex 19.4155 -24.5 1.58319
      vertex 19.389 -24.5 1.27156
    endloop
  endfacet
  facet normal 0 -1 0
    outer loop
      vertex 19.389 -24.5 1.27156
      vertex 19.4155 -24.5 1.58319
      vertex 19.3879 -24.5 1.35466
    endloop
  endfacet
  facet normal 0 -1 0
    outer loop
      vertex 19.7022 -24.5 2.60385
      vertex 19.389 -24.5 1.27156
      vertex 19.4123 -24.5 -0.494868
    endloop
  endfacet
  facet normal 0 -1 0
    outer loop
      vertex 19.7127 -24.5 2.64056
      vertex 19.4123 -24.5 -0.494868
      vertex 19.4215 -24.5 -0.604103
    endloop
  endfacet
  facet normal 0 -1 -0
    outer loop
      vertex 19.7127 -24.5 2.64056
      vertex 19.4215 -24.5 -0.604103
      vertex 37.3333 -24.5 7.66667
    endloop
  endfacet
  facet normal 0 -1 0
    outer loop
      vertex 37.3333 -24.5 -7.66667
      vertex 19.4215 -24.5 -0.604103
      vertex 19.6246 -24.5 -2.94744
    endloop
  endfacet
  facet normal 0 -1 0
    outer loop
      vertex 37.3333 -24.5 -7.66667
      vertex 19.6246 -24.5 -2.94744
      vertex 19.6391 -24.5 -3.04712
    endloop
  endfacet
  facet normal 0 -1 0
    outer loop
      vertex 37.3333 -24.5 -7.66667
      vertex 19.6391 -24.5 -3.04712
      vertex 19.9819 -24.5 -5.34341
    endloop
  endfacet
  facet normal 0 -1 0
    outer loop
      vertex 20.9256 -24.5 -7.66667
      vertex 19.9819 -24.5 -5.34341
      vertex 19.9863 -24.5 -5.36113
    endloop
  endfacet
  facet normal 0 -1 0
    outer loop
      vertex 20.1103 -24.5 -5.84811
      vertex 19.9863 -24.5 -5.36113
      vertex 20.1023 -24.5 -5.82519
    endloop
  endfacet
  facet normal 0 -1 0
    outer loop
      vertex 20.3511 -24.5 -6.50923
      vertex 19.9863 -24.5 -5.36113
      vertex 20.1103 -24.5 -5.84811
    endloop
  endfacet
  facet normal 0 -1 0
    outer loop
      vertex 20.3511 -24.5 -6.50923
      vertex 20.1103 -24.5 -5.84811
      vertex 20.3368 -24.5 -6.47809
    endloop
  endfacet
  facet normal 0 -1 0
    outer loop
      vertex 20.9256 -24.5 -7.66667
      vertex 19.9863 -24.5 -5.36113
      vertex 20.3511 -24.5 -6.50923
    endloop
  endfacet
  facet normal 0 -1 0
    outer loop
      vertex 20.8193 -24.5 -7.4892
      vertex 20.3511 -24.5 -6.50923
      vertex 20.8001 -24.5 -7.45624
    endloop
  endfacet
  facet normal 0 -1 0
    outer loop
      vertex 20.9256 -24.5 -7.66667
      vertex 20.3511 -24.5 -6.50923
      vertex 20.8193 -24.5 -7.4892
    endloop
  endfacet
  facet normal 0 -1 0
    outer loop
      vertex 19.9819 -24.5 -5.34341
      vertex 20.9256 -24.5 -7.66667
      vertex 37.3333 -24.5 -7.66667
    endloop
  endfacet
  facet normal 0 -1 0
    outer loop
      vertex 19.4215 -24.5 -0.604103
      vertex 37.3333 -24.5 -7.66667
      vertex 37.3333 -24.5 7.66667
    endloop
  endfacet
  facet normal -0.607646 0.688431 0.396015
    outer loop
      vertex 37.3333 -10.3225 7.606
      vertex 37.1765 -10.4958 7.66667
      vertex 37.3333 -10.3574 7.66667
    endloop
  endfacet
  facet normal -0.632589 0.689935 0.351882
    outer loop
      vertex 37.3333 -7.23923 1.40372
      vertex 20.1018 -23.6637 2.62956
      vertex 37.3333 -8.39349 3.66688
    endloop
  endfacet
  facet normal -0.635201 0.693641 0.33968
    outer loop
      vertex 37.3333 -8.39349 3.66688
      vertex 37.1765 -10.4958 7.66667
      vertex 37.3333 -10.3225 7.606
    endloop
  endfacet
  facet normal -0.635162 0.693668 0.339696
    outer loop
      vertex 37.1765 -10.4958 7.66667
      vertex 37.3333 -8.39349 3.66688
      vertex 22.075 -24.3236 7.66667
    endloop
  endfacet
  facet normal -0.635164 0.693669 0.339691
    outer loop
      vertex 22.075 -24.3236 7.66667
      vertex 37.3333 -8.39349 3.66688
      vertex 20.1018 -23.6637 2.62956
    endloop
  endfacet
  facet normal -0.661141 0.711128 0.239142
    outer loop
      vertex 37.3333 -7.07899 0.916698
      vertex 19.8711 -23.5865 1.72779
      vertex 37.3333 -7.14953 1.12646
    endloop
  endfacet
  facet normal -0.66273 0.712498 0.23051
    outer loop
      vertex 37.3333 -7.14953 1.12646
      vertex 20.1018 -23.6637 2.62956
      vertex 37.3333 -7.23923 1.40372
    endloop
  endfacet
  facet normal -0.662724 0.712494 0.230541
    outer loop
      vertex 20.1018 -23.6637 2.62956
      vertex 37.3333 -7.14953 1.12646
      vertex 19.8711 -23.5865 1.72779
    endloop
  endfacet
  facet normal -0.678433 0.724008 0.124662
    outer loop
      vertex 37.3333 -7.05443 0.785991
      vertex 19.8465 -23.5783 1.58654
      vertex 37.3333 -7.06959 0.874037
    endloop
  endfacet
  facet normal -0.674328 0.721134 0.158896
    outer loop
      vertex 37.3333 -7.06959 0.874037
      vertex 19.8711 -23.5865 1.72779
      vertex 37.3333 -7.07899 0.916698
    endloop
  endfacet
  facet normal -0.674274 0.721097 0.159293
    outer loop
      vertex 19.8711 -23.5865 1.72779
      vertex 37.3333 -7.06959 0.874037
      vertex 19.8465 -23.5783 1.58654
    endloop
  endfacet
  facet normal -0.68127 0.725645 0.0964916
    outer loop
      vertex 37.3333 -7.04492 0.714473
      vertex 19.8465 -23.5783 1.58654
      vertex 37.3333 -7.05443 0.785991
    endloop
  endfacet
  facet normal -0.681293 0.725657 0.0962418
    outer loop
      vertex 19.8465 -23.5783 1.58654
      vertex 37.3333 -7.04492 0.714473
      vertex 19.8217 -23.57 1.3484
    endloop
  endfacet
  facet normal -0.686476 0.727069 -0.0110303
    outer loop
      vertex 37.3333 -7.05942 -0.261157
      vertex 19.8427 -23.577 -0.492597
      vertex 37.3333 -7.05297 0.163999
    endloop
  endfacet
  facet normal -0.686486 0.727065 -0.0106324
    outer loop
      vertex 19.8427 -23.577 -0.492597
      vertex 37.3333 -7.04492 0.714473
      vertex 37.3333 -7.05297 0.163999
    endloop
  endfacet
  facet normal -0.686488 0.727064 -0.0105952
    outer loop
      vertex 37.3333 -7.04492 0.714473
      vertex 19.8427 -23.577 -0.492597
      vertex 19.8217 -23.57 1.3484
    endloop
  endfacet
  facet normal -0.684162 0.72575 -0.0721767
    outer loop
      vertex 37.3333 -7.18622 -1.56349
      vertex 20.0258 -23.6383 -2.9348
      vertex 37.3333 -7.13001 -0.998288
    endloop
  endfacet
  facet normal -0.684448 0.725741 -0.0694993
    outer loop
      vertex 37.3333 -7.13001 -0.998288
      vertex 19.8427 -23.577 -0.492597
      vertex 37.3333 -7.05942 -0.261157
    endloop
  endfacet
  facet normal -0.684447 0.725739 -0.0695315
    outer loop
      vertex 19.8427 -23.577 -0.492597
      vertex 37.3333 -7.13001 -0.998288
      vertex 20.0258 -23.6383 -2.9348
    endloop
  endfacet
  facet normal -0.678297 0.724334 -0.123508
    outer loop
      vertex 37.3333 -7.40251 -2.85932
      vertex 20.3341 -23.7414 -5.32318
      vertex 37.3333 -7.30785 -2.30417
    endloop
  endfacet
  facet normal -0.67911 0.724335 -0.118946
    outer loop
      vertex 37.3333 -7.30785 -2.30417
      vertex 20.0258 -23.6383 -2.9348
      vertex 37.3333 -7.18622 -1.56349
    endloop
  endfacet
  facet normal -0.679112 0.724336 -0.11893
    outer loop
      vertex 20.0258 -23.6383 -2.9348
      vertex 37.3333 -7.30785 -2.30417
      vertex 20.3341 -23.7414 -5.32318
    endloop
  endfacet
  facet normal -0.662988 0.720563 -0.203064
    outer loop
      vertex 37.3333 -7.47615 -3.12637
      vertex 20.438 -23.7761 -5.80414
      vertex 37.3333 -7.44437 -3.0136
    endloop
  endfacet
  facet normal -0.664688 0.721052 -0.195639
    outer loop
      vertex 37.3333 -7.44437 -3.0136
      vertex 20.3341 -23.7414 -5.32318
      vertex 37.3333 -7.40251 -2.85932
    endloop
  endfacet
  facet normal -0.664693 0.721054 -0.195613
    outer loop
      vertex 20.3341 -23.7414 -5.32318
      vertex 37.3333 -7.44437 -3.0136
      vertex 20.438 -23.7761 -5.80414
    endloop
  endfacet
  facet normal -0.641764 0.712231 -0.284369
    outer loop
      vertex 37.3333 -7.6209 -3.49699
      vertex 20.6405 -23.8439 -6.45685
      vertex 37.3333 -7.55893 -3.34178
    endloop
  endfacet
  facet normal -0.644849 0.713443 -0.274169
    outer loop
      vertex 37.3333 -7.55893 -3.34178
      vertex 20.438 -23.7761 -5.80414
      vertex 37.3333 -7.47615 -3.12637
    endloop
  endfacet
  facet normal -0.644849 0.713443 -0.27417
    outer loop
      vertex 20.438 -23.7761 -5.80414
      vertex 37.3333 -7.55893 -3.34178
      vertex 20.6405 -23.8439 -6.45685
    endloop
  endfacet
  facet normal -0.615515 0.700018 -0.3621
    outer loop
      vertex 37.3333 -7.91165 -4.0718
      vertex 21.041 -23.9778 -7.43673
      vertex 37.3333 -7.78916 -3.835
    endloop
  endfacet
  facet normal -0.620383 0.702116 -0.349511
    outer loop
      vertex 37.3333 -7.78916 -3.835
      vertex 20.6405 -23.8439 -6.45685
      vertex 37.3333 -7.6209 -3.49699
    endloop
  endfacet
  facet normal -0.620384 0.702117 -0.349509
    outer loop
      vertex 20.6405 -23.8439 -6.45685
      vertex 37.3333 -7.78916 -3.835
      vertex 21.041 -23.9778 -7.43673
    endloop
  endfacet
  facet normal -0.583459 0.684308 -0.437377
    outer loop
      vertex 26.0598 -19.8098 -7.66667
      vertex 37.3333 -8.20891 -4.55505
      vertex 37.3333 -8.41434 -4.87646
    endloop
  endfacet
  facet normal -0.583666 0.684397 -0.436961
    outer loop
      vertex 37.3333 -8.20891 -4.55505
      vertex 26.0598 -19.8098 -7.66667
      vertex 25.7262 -20.0943 -7.66667
    endloop
  endfacet
  facet normal -0.590517 0.687389 -0.422831
    outer loop
      vertex 25.7262 -20.0943 -7.66667
      vertex 37.3333 -7.91165 -4.0718
      vertex 37.3333 -8.20891 -4.55505
    endloop
  endfacet
  facet normal -0.590519 0.68739 -0.422827
    outer loop
      vertex 37.3333 -7.91165 -4.0718
      vertex 25.7262 -20.0943 -7.66667
      vertex 21.041 -23.9778 -7.43673
    endloop
  endfacet
  facet normal -0.590546 0.687428 -0.422727
    outer loop
      vertex 21.041 -23.9778 -7.43673
      vertex 25.7262 -20.0943 -7.66667
      vertex 21.1595 -24.0174 -7.66667
    endloop
  endfacet
  facet normal -0.545455 0.665654 -0.509297
    outer loop
      vertex 31.0036 -15.7195 -7.66667
      vertex 37.3333 -8.83648 -5.44962
      vertex 37.3333 -9.10563 -5.8014
    endloop
  endfacet
  facet normal -0.545493 0.665669 -0.509237
    outer loop
      vertex 37.3333 -8.83648 -5.44962
      vertex 31.0036 -15.7195 -7.66667
      vertex 30.3738 -16.2356 -7.66667
    endloop
  endfacet
  facet normal -0.554965 0.66981 -0.493324
    outer loop
      vertex 30.3738 -16.2356 -7.66667
      vertex 37.3333 -8.41434 -4.87646
      vertex 37.3333 -8.83648 -5.44962
    endloop
  endfacet
  facet normal -0.554938 0.669801 -0.493367
    outer loop
      vertex 37.3333 -8.41434 -4.87646
      vertex 30.3738 -16.2356 -7.66667
      vertex 26.0598 -19.8098 -7.66667
    endloop
  endfacet
  facet normal -0.505319 0.64596 -0.572179
    outer loop
      vertex 33.5391 -13.7126 -7.66667
      vertex 37.3333 -9.44712 -6.20201
      vertex 37.3333 -9.64658 -6.42719
    endloop
  endfacet
  facet normal -0.50529 0.645948 -0.572218
    outer loop
      vertex 37.3333 -9.44712 -6.20201
      vertex 33.5391 -13.7126 -7.66667
      vertex 33.0592 -14.088 -7.66667
    endloop
  endfacet
  facet normal -0.51703 0.651415 -0.555282
    outer loop
      vertex 33.0592 -14.088 -7.66667
      vertex 37.3333 -9.10563 -5.8014
      vertex 37.3333 -9.44712 -6.20201
    endloop
  endfacet
  facet normal -0.517014 0.651409 -0.555304
    outer loop
      vertex 37.3333 -9.10563 -5.8014
      vertex 33.0592 -14.088 -7.66667
      vertex 31.0036 -15.7195 -7.66667
    endloop
  endfacet
  facet normal -0.45645 0.62122 -0.636976
    outer loop
      vertex 35.6834 -12.1133 -7.66667
      vertex 37.3333 -10.066 -6.85231
      vertex 37.3333 -10.2924 -7.07311
    endloop
  endfacet
  facet normal -0.456459 0.621224 -0.636967
    outer loop
      vertex 37.3333 -10.066 -6.85231
      vertex 35.6834 -12.1133 -7.66667
      vertex 35.1695 -12.4909 -7.66667
    endloop
  endfacet
  facet normal -0.470661 0.628087 -0.619665
    outer loop
      vertex 35.1695 -12.4909 -7.66667
      vertex 37.3333 -9.64658 -6.42719
      vertex 37.3333 -10.066 -6.85231
    endloop
  endfacet
  facet normal -0.470636 0.628079 -0.619693
    outer loop
      vertex 37.3333 -9.64658 -6.42719
      vertex 35.1695 -12.4909 -7.66667
      vertex 33.5391 -13.7126 -7.66667
    endloop
  endfacet
  facet normal -0.420001 0.601946 -0.679161
    outer loop
      vertex 37.3333 -10.9621 -7.66667
      vertex 35.6834 -12.1133 -7.66667
      vertex 37.3333 -10.2924 -7.07311
    endloop
  endfacet
  facet normal -0.836919 0.39438 0.379515
    outer loop
      vertex 19.7127 -24.5 2.64056
      vertex 22.075 -24.3236 7.66667
      vertex 20.1018 -23.6637 2.62956
    endloop
  endfacet
  facet normal -0.836956 0.39428 0.379536
    outer loop
      vertex 22.075 -24.3236 7.66667
      vertex 19.7127 -24.5 2.64056
      vertex 21.9919 -24.5 7.66667
    endloop
  endfacet
  facet normal -0.874589 0.409991 0.258845
    outer loop
      vertex 19.4452 -24.5 1.73567
      vertex 20.1018 -23.6637 2.62956
      vertex 19.8711 -23.5865 1.72779
    endloop
  endfacet
  facet normal -0.874597 0.40994 0.2589
    outer loop
      vertex 20.1018 -23.6637 2.62956
      vertex 19.4452 -24.5 1.73567
      vertex 19.7022 -24.5 2.60385
    endloop
  endfacet
  facet normal -0.876453 0.411079 0.250688
    outer loop
      vertex 20.1018 -23.6637 2.62956
      vertex 19.7022 -24.5 2.60385
      vertex 19.7127 -24.5 2.64056
    endloop
  endfacet
  facet normal -0.891095 0.416855 0.179392
    outer loop
      vertex 19.4168 -24.5 1.59385
      vertex 19.8711 -23.5865 1.72779
      vertex 19.8465 -23.5783 1.58654
    endloop
  endfacet
  facet normal -0.891158 0.416971 0.17881
    outer loop
      vertex 19.8711 -23.5865 1.72779
      vertex 19.4168 -24.5 1.59385
      vertex 19.444 -24.5 1.72941
    endloop
  endfacet
  facet normal -0.892409 0.417542 0.171069
    outer loop
      vertex 19.8711 -23.5865 1.72779
      vertex 19.444 -24.5 1.72941
      vertex 19.4452 -24.5 1.73567
    endloop
  endfacet
  facet normal -0.900632 0.420831 0.10846
    outer loop
      vertex 19.3879 -24.5 1.35466
      vertex 19.8465 -23.5783 1.58654
      vertex 19.8217 -23.57 1.3484
    endloop
  endfacet
  facet normal -0.900631 0.420753 0.108771
    outer loop
      vertex 19.8465 -23.5783 1.58654
      vertex 19.3879 -24.5 1.35466
      vertex 19.4155 -24.5 1.58319
    endloop
  endfacet
  facet normal -0.900528 0.4207 0.10982
    outer loop
      vertex 19.8465 -23.5783 1.58654
      vertex 19.4155 -24.5 1.58319
      vertex 19.4168 -24.5 1.59385
    endloop
  endfacet
  facet normal -0.906233 0.422611 -0.0119536
    outer loop
      vertex 19.389 -24.5 1.27156
      vertex 19.8427 -23.577 -0.492597
      vertex 19.4123 -24.5 -0.494868
    endloop
  endfacet
  facet normal -0.906226 0.422625 -0.0119441
    outer loop
      vertex 19.8427 -23.577 -0.492597
      vertex 19.389 -24.5 1.27156
      vertex 19.8217 -23.57 1.3484
    endloop
  endfacet
  facet normal -0.906224 0.422629 -0.0119957
    outer loop
      vertex 19.389 -24.5 1.27156
      vertex 19.3879 -24.5 1.35466
      vertex 19.8217 -23.57 1.3484
    endloop
  endfacet
  facet normal -0.903334 0.421733 -0.0782931
    outer loop
      vertex 19.4215 -24.5 -0.604103
      vertex 20.0258 -23.6383 -2.9348
      vertex 19.6246 -24.5 -2.94744
    endloop
  endfacet
  facet normal -0.90335 0.421694 -0.0783118
    outer loop
      vertex 20.0258 -23.6383 -2.9348
      vertex 19.4215 -24.5 -0.604103
      vertex 19.8427 -23.577 -0.492597
    endloop
  endfacet
  facet normal -0.903608 0.421545 -0.0761038
    outer loop
      vertex 19.4215 -24.5 -0.604103
      vertex 19.4123 -24.5 -0.494868
      vertex 19.8427 -23.577 -0.492597
    endloop
  endfacet
  facet normal -0.897466 0.420245 -0.133977
    outer loop
      vertex 19.6391 -24.5 -3.04712
      vertex 20.3341 -23.7414 -5.32318
      vertex 19.9819 -24.5 -5.34341
    endloop
  endfacet
  facet normal -0.897476 0.42022 -0.133989
    outer loop
      vertex 20.3341 -23.7414 -5.32318
      vertex 19.6391 -24.5 -3.04712
      vertex 20.0258 -23.6383 -2.9348
    endloop
  endfacet
  facet normal -0.898053 0.420042 -0.130636
    outer loop
      vertex 19.6391 -24.5 -3.04712
      vertex 19.6246 -24.5 -2.94744
      vertex 20.0258 -23.6383 -2.9348
    endloop
  endfacet
  facet normal -0.882392 0.415613 -0.220569
    outer loop
      vertex 19.9863 -24.5 -5.36113
      vertex 20.438 -23.7761 -5.80414
      vertex 20.1023 -24.5 -5.82519
    endloop
  endfacet
  facet normal -0.882393 0.415592 -0.220604
    outer loop
      vertex 20.438 -23.7761 -5.80414
      vertex 19.9863 -24.5 -5.36113
      vertex 20.3341 -23.7414 -5.32318
    endloop
  endfacet
  facet normal -0.882711 0.415667 -0.219183
    outer loop
      vertex 19.9863 -24.5 -5.36113
      vertex 19.9819 -24.5 -5.34341
      vertex 20.3341 -23.7414 -5.32318
    endloop
  endfacet
  facet normal -0.859251 0.407737 -0.308931
    outer loop
      vertex 20.1103 -24.5 -5.84811
      vertex 20.6405 -23.8439 -6.45685
      vertex 20.3368 -24.5 -6.47809
    endloop
  endfacet
  facet normal -0.859251 0.407736 -0.308932
    outer loop
      vertex 20.6405 -23.8439 -6.45685
      vertex 20.1103 -24.5 -5.84811
      vertex 20.438 -23.7761 -5.80414
    endloop
  endfacet
  facet normal -0.861813 0.408403 -0.300807
    outer loop
      vertex 20.1103 -24.5 -5.84811
      vertex 20.1023 -24.5 -5.82519
      vertex 20.438 -23.7761 -5.80414
    endloop
  endfacet
  facet normal -0.829236 0.39723 -0.393161
    outer loop
      vertex 20.3511 -24.5 -6.50923
      vertex 21.041 -23.9778 -7.43673
      vertex 20.8001 -24.5 -7.45624
    endloop
  endfacet
  facet normal -0.829247 0.397165 -0.393205
    outer loop
      vertex 21.041 -23.9778 -7.43673
      vertex 20.3511 -24.5 -6.50923
      vertex 20.6405 -23.8439 -6.45685
    endloop
  endfacet
  facet normal -0.833586 0.398248 -0.382796
    outer loop
      vertex 20.3511 -24.5 -6.50923
      vertex 20.3368 -24.5 -6.47809
      vertex 20.6405 -23.8439 -6.45685
    endloop
  endfacet
  facet normal -0.792137 0.383922 -0.47447
    outer loop
      vertex 20.8193 -24.5 -7.4892
      vertex 21.1595 -24.0174 -7.66667
      vertex 20.9256 -24.5 -7.66667
    endloop
  endfacet
  facet normal -0.792168 0.383979 -0.474374
    outer loop
      vertex 21.1595 -24.0174 -7.66667
      vertex 20.8193 -24.5 -7.4892
      vertex 21.041 -23.9778 -7.43673
    endloop
  endfacet
  facet normal -0.797401 0.385209 -0.464505
    outer loop
      vertex 20.8193 -24.5 -7.4892
      vertex 20.8001 -24.5 -7.45624
      vertex 21.041 -23.9778 -7.43673
    endloop
  endfacet
endsolid OpenSCAD_Model
