solid OpenSCAD_Model
  facet normal 1 0 0
    outer loop
      vertex 18.6667 -49 7.66667
      vertex 18.6667 -37.0315 13.5227
      vertex 18.6667 -37.199 13.6761
    endloop
  endfacet
  facet normal 1 0 0
    outer loop
      vertex 18.6667 -37.5616 13.9904
      vertex 18.6667 -37.199 13.6761
      vertex 18.6667 -37.4147 13.8792
    endloop
  endfacet
  facet normal 1 0 0
    outer loop
      vertex 18.6667 -38.0408 14.3236
      vertex 18.6667 -37.199 13.6761
      vertex 18.6667 -37.5616 13.9904
    endloop
  endfacet
  facet normal 1 0 0
    outer loop
      vertex 18.6667 -38.0408 14.3236
      vertex 18.6667 -37.5616 13.9904
      vertex 18.6667 -37.7621 14.1465
    endloop
  endfacet
  facet normal 1 0 0
    outer loop
      vertex 18.6667 -37.199 13.6761
      vertex 18.6667 -38.0408 14.3236
      vertex 18.6667 -49 7.66667
    endloop
  endfacet
  facet normal 1 0 0
    outer loop
      vertex 18.6667 -37.0315 13.5227
      vertex 18.6667 -49 7.66667
      vertex 18.6667 -32.958 9.12197
    endloop
  endfacet
  facet normal 1 0 0
    outer loop
      vertex 18.6667 -38.8275 14.7901
      vertex 18.6667 -38.0408 14.3236
      vertex 18.6667 -38.4525 14.5929
    endloop
  endfacet
  facet normal 1 0 0
    outer loop
      vertex 18.6667 -38.0408 14.3236
      vertex 18.6667 -38.8275 14.7901
      vertex 18.6667 -49 7.66667
    endloop
  endfacet
  facet normal 1 0 0
    outer loop
      vertex 18.6667 -49 7.66667
      vertex 18.6667 -38.8275 14.7901
      vertex 18.6667 -39.4593 15.1326
    endloop
  endfacet
  facet normal 1 0 0
    outer loop
      vertex 18.6667 -49 7.66667
      vertex 18.6667 -39.4593 15.1326
      vertex 18.6667 -39.9239 15.3386
    endloop
  endfacet
  facet normal 1 0 0
    outer loop
      vertex 18.6667 -49 7.66667
      vertex 18.6667 -39.9239 15.3386
      vertex 18.6667 -40.8708 15.7717
    endloop
  endfacet
  facet normal 1 0 0
    outer loop
      vertex 18.6667 -49 7.66667
      vertex 18.6667 -40.8708 15.7717
      vertex 18.6667 -41.4551 15.9935
    endloop
  endfacet
  facet normal 1 0 0
    outer loop
      vertex 18.6667 -49 7.66667
      vertex 18.6667 -41.4551 15.9935
      vertex 18.6667 -43.0445 16.6168
    endloop
  endfacet
  facet normal 1 0 0
    outer loop
      vertex 18.6667 -49 7.66667
      vertex 18.6667 -43.0445 16.6168
      vertex 18.6667 -43.8782 16.8862
    endloop
  endfacet
  facet normal 1 0 0
    outer loop
      vertex 18.6667 -49 7.66667
      vertex 18.6667 -43.8782 16.8862
      vertex 18.6667 -47.8464 18.2168
    endloop
  endfacet
  facet normal 1 0 0
    outer loop
      vertex 18.6667 -49 7.66667
      vertex 18.6667 -47.8464 18.2168
      vertex 18.6667 -47.8669 18.2226
    endloop
  endfacet
  facet normal 1 0 0
    outer loop
      vertex 18.6667 -49 7.66667
      vertex 18.6667 -47.8669 18.2226
      vertex 18.6667 -48.3815 18.3715
    endloop
  endfacet
  facet normal 1 0 0
    outer loop
      vertex 18.6667 -49 7.66667
      vertex 18.6667 -48.3815 18.3715
      vertex 18.6667 -49 18.4967
    endloop
  endfacet
  facet normal 1 0 0
    outer loop
      vertex 18.6667 -32.958 9.12197
      vertex 18.6667 -49 7.66667
      vertex 18.6667 -31.5574 7.66667
    endloop
  endfacet
  facet normal 0 0 -1
    outer loop
      vertex 18.6667 -49 7.66667
      vertex 16.4963 -36.1637 7.66667
      vertex 18.6667 -31.5574 7.66667
    endloop
  endfacet
  facet normal 0 0 -1
    outer loop
      vertex 18.6667 -49 7.66667
      vertex 11.3473 -46.965 7.66667
      vertex 16.4963 -36.1637 7.66667
    endloop
  endfacet
  facet normal 0 -0 -1
    outer loop
      vertex 11.3473 -46.965 7.66667
      vertex 18.6667 -49 7.66667
      vertex 10.7428 -49 7.66667
    endloop
  endfacet
  facet normal 0 -1 0
    outer loop
      vertex 18.2069 -49 18.262
      vertex 18.6667 -49 18.4967
      vertex 18.2833 -49 18.3089
    endloop
  endfacet
  facet normal 0 -1 0
    outer loop
      vertex 18.6667 -49 7.66667
      vertex 18.2069 -49 18.262
      vertex 16.2351 -49 17.0762
    endloop
  endfacet
  facet normal 0 -1 0
    outer loop
      vertex 18.6667 -49 7.66667
      vertex 16.2351 -49 17.0762
      vertex 16.1803 -49 17.035
    endloop
  endfacet
  facet normal 0 -1 0
    outer loop
      vertex 18.6667 -49 7.66667
      vertex 16.1803 -49 17.035
      vertex 15.2841 -49 16.372
    endloop
  endfacet
  facet normal 0 -1 0
    outer loop
      vertex 18.6667 -49 7.66667
      vertex 15.2841 -49 16.372
      vertex 15.2422 -49 16.3339
    endloop
  endfacet
  facet normal 0 -1 0
    outer loop
      vertex 14.6256 -49 15.7752
      vertex 15.2422 -49 16.3339
      vertex 14.6584 -49 15.8116
    endloop
  endfacet
  facet normal 0 -1 -0
    outer loop
      vertex 15.2422 -49 16.3339
      vertex 14.6256 -49 15.7752
      vertex 18.6667 -49 7.66667
    endloop
  endfacet
  facet normal 0 -1 0
    outer loop
      vertex 14.1843 -49 15.2861
      vertex 14.6256 -49 15.7752
      vertex 14.2083 -49 15.3191
    endloop
  endfacet
  facet normal 0 -1 -0
    outer loop
      vertex 14.6256 -49 15.7752
      vertex 14.1843 -49 15.2861
      vertex 18.6667 -49 7.66667
    endloop
  endfacet
  facet normal 0 -1 0
    outer loop
      vertex 13.8851 -49 14.8772
      vertex 14.1843 -49 15.2861
      vertex 13.8977 -49 14.8981
    endloop
  endfacet
  facet normal 0 -1 -0
    outer loop
      vertex 14.1843 -49 15.2861
      vertex 13.8851 -49 14.8772
      vertex 18.6667 -49 7.66667
    endloop
  endfacet
  facet normal 0 -1 0
    outer loop
      vertex 13.7267 -49 14.6112
      vertex 13.8851 -49 14.8772
      vertex 13.7408 -49 14.6402
    endloop
  endfacet
  facet normal 0 -1 -0
    outer loop
      vertex 13.8851 -49 14.8772
      vertex 13.7267 -49 14.6112
      vertex 18.6667 -49 7.66667
    endloop
  endfacet
  facet normal 0 -1 0
    outer loop
      vertex 18.6667 -49 7.66667
      vertex 13.7267 -49 14.6112
      vertex 13.5674 -49 14.2896
    endloop
  endfacet
  facet normal 0 -1 0
    outer loop
      vertex 18.6667 -49 7.66667
      vertex 13.5674 -49 14.2896
      vertex 13.1537 -49 13.31
    endloop
  endfacet
  facet normal 0 -1 0
    outer loop
      vertex 18.6667 -49 7.66667
      vertex 13.1537 -49 13.31
      vertex 10.7428 -49 7.66667
    endloop
  endfacet
  facet normal 0 -1 0
    outer loop
      vertex 18.2069 -49 18.262
      vertex 18.6667 -49 7.66667
      vertex 18.6667 -49 18.4967
    endloop
  endfacet
  facet normal -0.404139 0.249018 0.880149
    outer loop
      vertex 18.6667 -47.8464 18.2168
      vertex 18.454 -48.3404 18.2589
      vertex 18.6667 -47.8669 18.2226
    endloop
  endfacet
  facet normal -0.414007 0.25301 0.874405
    outer loop
      vertex 18.6667 -47.8669 18.2226
      vertex 18.454 -48.3404 18.2589
      vertex 18.6667 -48.3815 18.3715
    endloop
  endfacet
  facet normal -0.468894 0.271586 0.840464
    outer loop
      vertex 18.6667 -43.0445 16.6168
      vertex 16.5108 -47.9643 17.0038
      vertex 18.6667 -43.8782 16.8862
    endloop
  endfacet
  facet normal -0.482482 0.278467 0.830462
    outer loop
      vertex 16.5108 -47.9643 17.0038
      vertex 18.6667 -47.8464 18.2168
      vertex 18.6667 -43.8782 16.8862
    endloop
  endfacet
  facet normal -0.482477 0.278512 0.83045
    outer loop
      vertex 18.6667 -47.8464 18.2168
      vertex 16.5108 -47.9643 17.0038
      vertex 18.454 -48.3404 18.2589
    endloop
  endfacet
  facet normal -0.541727 0.298305 0.785841
    outer loop
      vertex 18.6667 -40.8708 15.7717
      vertex 15.6102 -47.79 16.2912
      vertex 18.6667 -41.4551 15.9935
    endloop
  endfacet
  facet normal -0.554322 0.303866 0.77485
    outer loop
      vertex 15.6102 -47.79 16.2912
      vertex 18.6667 -43.0445 16.6168
      vertex 18.6667 -41.4551 15.9935
    endloop
  endfacet
  facet normal -0.554306 0.303854 0.774866
    outer loop
      vertex 18.6667 -43.0445 16.6168
      vertex 15.6102 -47.79 16.2912
      vertex 16.5108 -47.9643 17.0038
    endloop
  endfacet
  facet normal -0.607092 0.322092 0.726427
    outer loop
      vertex 18.6667 -39.4593 15.1326
      vertex 15.0183 -47.6754 15.7265
      vertex 18.6667 -39.9239 15.3386
    endloop
  endfacet
  facet normal -0.618465 0.326854 0.71461
    outer loop
      vertex 15.0183 -47.6754 15.7265
      vertex 18.6667 -40.8708 15.7717
      vertex 18.6667 -39.9239 15.3386
    endloop
  endfacet
  facet normal -0.618476 0.326859 0.714598
    outer loop
      vertex 18.6667 -40.8708 15.7717
      vertex 15.0183 -47.6754 15.7265
      vertex 15.6102 -47.79 16.2912
    endloop
  endfacet
  facet normal -0.671219 0.345008 0.656075
    outer loop
      vertex 18.6667 -38.4525 14.5929
      vertex 14.5928 -47.5931 15.2317
      vertex 18.6667 -38.8275 14.7901
    endloop
  endfacet
  facet normal -0.681066 0.348962 0.64372
    outer loop
      vertex 14.5928 -47.5931 15.2317
      vertex 18.6667 -39.4593 15.1326
      vertex 18.6667 -38.8275 14.7901
    endloop
  endfacet
  facet normal -0.681065 0.348962 0.64372
    outer loop
      vertex 18.6667 -39.4593 15.1326
      vertex 14.5928 -47.5931 15.2317
      vertex 15.0183 -47.6754 15.7265
    endloop
  endfacet
  facet normal -0.731278 0.365818 0.575683
    outer loop
      vertex 18.6667 -37.7621 14.1465
      vertex 14.2993 -47.5363 14.8097
      vertex 18.6667 -38.0408 14.3236
    endloop
  endfacet
  facet normal -0.73903 0.368774 0.563773
    outer loop
      vertex 14.2993 -47.5363 14.8097
      vertex 18.6667 -38.4525 14.5929
      vertex 18.6667 -38.0408 14.3236
    endloop
  endfacet
  facet normal -0.739091 0.368801 0.563676
    outer loop
      vertex 18.6667 -38.4525 14.5929
      vertex 14.2993 -47.5363 14.8097
      vertex 14.5928 -47.5931 15.2317
    endloop
  endfacet
  facet normal -0.775989 0.38069 0.502907
    outer loop
      vertex 18.6667 -37.4147 13.8792
      vertex 14.1511 -47.5076 14.5517
      vertex 18.6667 -37.5616 13.9904
    endloop
  endfacet
  facet normal -0.782087 0.382826 0.491715
    outer loop
      vertex 14.1511 -47.5076 14.5517
      vertex 18.6667 -37.7621 14.1465
      vertex 18.6667 -37.5616 13.9904
    endloop
  endfacet
  facet normal -0.782041 0.382809 0.491803
    outer loop
      vertex 18.6667 -37.7621 14.1465
      vertex 14.1511 -47.5076 14.5517
      vertex 14.2993 -47.5363 14.8097
    endloop
  endfacet
  facet normal -0.813831 0.392468 0.428542
    outer loop
      vertex 18.6667 -37.0315 13.5227
      vertex 13.9873 -47.4759 14.2014
      vertex 18.6667 -37.199 13.6761
    endloop
  endfacet
  facet normal -0.818332 0.394001 0.418444
    outer loop
      vertex 13.9873 -47.4759 14.2014
      vertex 18.6667 -37.4147 13.8792
      vertex 18.6667 -37.199 13.6761
    endloop
  endfacet
  facet normal -0.818381 0.39402 0.418331
    outer loop
      vertex 18.6667 -37.4147 13.8792
      vertex 13.9873 -47.4759 14.2014
      vertex 14.1511 -47.5076 14.5517
    endloop
  endfacet
  facet normal -0.836931 0.394346 0.379524
    outer loop
      vertex 18.6667 -31.5574 7.66667
      vertex 16.4963 -36.1637 7.66667
      vertex 18.6667 -32.958 9.12197
    endloop
  endfacet
  facet normal -0.838597 0.399775 0.370048
    outer loop
      vertex 16.4963 -36.1637 7.66667
      vertex 18.6667 -37.0315 13.5227
      vertex 18.6667 -32.958 9.12197
    endloop
  endfacet
  facet normal -0.838602 0.399763 0.370049
    outer loop
      vertex 11.3473 -46.965 7.66667
      vertex 18.6667 -37.0315 13.5227
      vertex 16.4963 -36.1637 7.66667
    endloop
  endfacet
  facet normal -0.838602 0.399765 0.370046
    outer loop
      vertex 18.6667 -37.0315 13.5227
      vertex 11.3473 -46.965 7.66667
      vertex 13.9873 -47.4759 14.2014
    endloop
  endfacet
  facet normal -0.433114 0.178827 0.883421
    outer loop
      vertex 18.454 -48.3404 18.2589
      vertex 18.6667 -49 18.4967
      vertex 18.6667 -48.3815 18.3715
    endloop
  endfacet
  facet normal -0.432788 0.178979 0.88355
    outer loop
      vertex 18.6667 -49 18.4967
      vertex 18.454 -48.3404 18.2589
      vertex 18.2833 -49 18.3089
    endloop
  endfacet
  facet normal -0.505637 0.193374 0.840796
    outer loop
      vertex 16.5108 -47.9643 17.0038
      vertex 18.2069 -49 18.262
      vertex 18.454 -48.3404 18.2589
    endloop
  endfacet
  facet normal -0.505637 0.193374 0.840796
    outer loop
      vertex 18.2069 -49 18.262
      vertex 16.5108 -47.9643 17.0038
      vertex 16.2351 -49 17.0762
    endloop
  endfacet
  facet normal -0.513005 0.19611 0.835684
    outer loop
      vertex 18.454 -48.3404 18.2589
      vertex 18.2069 -49 18.262
      vertex 18.2833 -49 18.3089
    endloop
  endfacet
  facet normal -0.581539 0.209256 0.786145
    outer loop
      vertex 15.6102 -47.79 16.2912
      vertex 16.1803 -49 17.035
      vertex 16.5108 -47.9643 17.0038
    endloop
  endfacet
  facet normal -0.58157 0.209231 0.786129
    outer loop
      vertex 16.1803 -49 17.035
      vertex 15.6102 -47.79 16.2912
      vertex 15.2841 -49 16.372
    endloop
  endfacet
  facet normal -0.587406 0.210982 0.781307
    outer loop
      vertex 16.5108 -47.9643 17.0038
      vertex 16.1803 -49 17.035
      vertex 16.2351 -49 17.0762
    endloop
  endfacet
  facet normal -0.64988 0.223287 0.726497
    outer loop
      vertex 15.0183 -47.6754 15.7265
      vertex 15.2422 -49 16.3339
      vertex 15.6102 -47.79 16.2912
    endloop
  endfacet
  facet normal -0.649931 0.223261 0.72646
    outer loop
      vertex 15.2422 -49 16.3339
      vertex 15.0183 -47.6754 15.7265
      vertex 14.6584 -49 15.8116
    endloop
  endfacet
  facet normal -0.65554 0.224811 0.720921
    outer loop
      vertex 15.6102 -47.79 16.2912
      vertex 15.2422 -49 16.3339
      vertex 15.2841 -49 16.372
    endloop
  endfacet
  facet normal -0.716861 0.236657 0.655823
    outer loop
      vertex 14.2083 -49 15.3191
      vertex 15.0183 -47.6754 15.7265
      vertex 14.5928 -47.5931 15.2317
    endloop
  endfacet
  facet normal -0.716838 0.236632 0.655857
    outer loop
      vertex 15.0183 -47.6754 15.7265
      vertex 14.2083 -49 15.3191
      vertex 14.6256 -49 15.7752
    endloop
  endfacet
  facet normal -0.721573 0.237828 0.650208
    outer loop
      vertex 15.0183 -47.6754 15.7265
      vertex 14.6256 -49 15.7752
      vertex 14.6584 -49 15.8116
    endloop
  endfacet
  facet normal -0.779203 0.248543 0.575387
    outer loop
      vertex 13.8977 -49 14.8981
      vertex 14.5928 -47.5931 15.2317
      vertex 14.2993 -47.5363 14.8097
    endloop
  endfacet
  facet normal -0.779131 0.248477 0.575512
    outer loop
      vertex 14.5928 -47.5931 15.2317
      vertex 13.8977 -49 14.8981
      vertex 14.1843 -49 15.2861
    endloop
  endfacet
  facet normal -0.783176 0.249423 0.569582
    outer loop
      vertex 14.5928 -47.5931 15.2317
      vertex 14.1843 -49 15.2861
      vertex 14.2083 -49 15.3191
    endloop
  endfacet
  facet normal -0.825446 0.256748 0.502712
    outer loop
      vertex 13.7408 -49 14.6402
      vertex 14.2993 -47.5363 14.8097
      vertex 14.1511 -47.5076 14.5517
    endloop
  endfacet
  facet normal -0.825497 0.256779 0.502613
    outer loop
      vertex 14.2993 -47.5363 14.8097
      vertex 13.7408 -49 14.6402
      vertex 13.8851 -49 14.8772
    endloop
  endfacet
  facet normal -0.827595 0.257203 0.498933
    outer loop
      vertex 14.2993 -47.5363 14.8097
      vertex 13.8851 -49 14.8772
      vertex 13.8977 -49 14.8981
    endloop
  endfacet
  facet normal -0.864623 0.262984 0.428096
    outer loop
      vertex 13.5674 -49 14.2896
      vertex 14.1511 -47.5076 14.5517
      vertex 13.9873 -47.4759 14.2014
    endloop
  endfacet
  facet normal -0.864563 0.262933 0.428249
    outer loop
      vertex 14.1511 -47.5076 14.5517
      vertex 13.5674 -49 14.2896
      vertex 13.7267 -49 14.6112
    endloop
  endfacet
  facet normal -0.867545 0.263524 0.421806
    outer loop
      vertex 14.1511 -47.5076 14.5517
      vertex 13.7267 -49 14.6112
      vertex 13.7408 -49 14.6402
    endloop
  endfacet
  facet normal -0.887095 0.263513 0.378978
    outer loop
      vertex 13.1537 -49 13.31
      vertex 11.3473 -46.965 7.66667
      vertex 10.7428 -49 7.66667
    endloop
  endfacet
  facet normal -0.887087 0.263533 0.378982
    outer loop
      vertex 11.3473 -46.965 7.66667
      vertex 13.1537 -49 13.31
      vertex 13.9873 -47.4759 14.2014
    endloop
  endfacet
  facet normal -0.887945 0.266336 0.374993
    outer loop
      vertex 13.9873 -47.4759 14.2014
      vertex 13.1537 -49 13.31
      vertex 13.5674 -49 14.2896
    endloop
  endfacet
endsolid OpenSCAD_Model
