solid OpenSCAD_Model
  facet normal -0 0 1
    outer loop
      vertex 33.3333 -71.6 8.33333
      vertex 40.2566 -75.6186 8.33333
      vertex 40.7366 -71.6 8.33333
    endloop
  endfacet
  facet normal 0 0 1
    outer loop
      vertex 40.2566 -75.6186 8.33333
      vertex 33.3333 -71.6 8.33333
      vertex 38.899 -82.5246 8.33333
    endloop
  endfacet
  facet normal 0 0 1
    outer loop
      vertex 33.3333 -107.4 8.33333
      vertex 37.6298 -96.5185 8.33333
      vertex 37.7418 -88.4114 8.33333
    endloop
  endfacet
  facet normal 0 0 1
    outer loop
      vertex 37.6298 -96.5185 8.33333
      vertex 33.3333 -107.4 8.33333
      vertex 37.568 -100.983 8.33333
    endloop
  endfacet
  facet normal 0 0 1
    outer loop
      vertex 38.899 -82.5246 8.33333
      vertex 33.3333 -71.6 8.33333
      vertex 37.7418 -88.4114 8.33333
    endloop
  endfacet
  facet normal 0 0 1
    outer loop
      vertex 33.3333 -107.4 8.33333
      vertex 37.7418 -88.4114 8.33333
      vertex 33.3333 -71.6 8.33333
    endloop
  endfacet
  facet normal 0 0 1
    outer loop
      vertex 37.568 -100.983 8.33333
      vertex 33.3333 -107.4 8.33333
      vertex 37.0268 -107.4 8.33333
    endloop
  endfacet
  facet normal 0 0 -1
    outer loop
      vertex 33.3333 -71.6 -8.33333
      vertex 40.2566 -75.6186 -8.33333
      vertex 38.9611 -82.2088 -8.33333
    endloop
  endfacet
  facet normal 0 0 -1
    outer loop
      vertex 33.3333 -71.6 -8.33333
      vertex 38.9611 -82.2088 -8.33333
      vertex 37.7418 -88.4114 -8.33333
    endloop
  endfacet
  facet normal 0 0 -1
    outer loop
      vertex 33.3333 -107.4 -8.33333
      vertex 37.568 -100.983 -8.33333
      vertex 37.2214 -105.093 -8.33333
    endloop
  endfacet
  facet normal -0 0 -1
    outer loop
      vertex 37.568 -100.983 -8.33333
      vertex 33.3333 -107.4 -8.33333
      vertex 37.6798 -92.9016 -8.33333
    endloop
  endfacet
  facet normal 0 0 -1
    outer loop
      vertex 33.3333 -107.4 -8.33333
      vertex 37.2214 -105.093 -8.33333
      vertex 37.0268 -107.4 -8.33333
    endloop
  endfacet
  facet normal -0 0 -1
    outer loop
      vertex 37.6798 -92.9016 -8.33333
      vertex 33.3333 -107.4 -8.33333
      vertex 37.7418 -88.4114 -8.33333
    endloop
  endfacet
  facet normal 0 0 -1
    outer loop
      vertex 33.3333 -71.6 -8.33333
      vertex 37.7418 -88.4114 -8.33333
      vertex 33.3333 -107.4 -8.33333
    endloop
  endfacet
  facet normal 0 0 -1
    outer loop
      vertex 40.2566 -75.6186 -8.33333
      vertex 33.3333 -71.6 -8.33333
      vertex 40.7366 -71.6 -8.33333
    endloop
  endfacet
  facet normal -1 0 0
    outer loop
      vertex 33.3333 -107.4 -8.33333
      vertex 33.3333 -71.6 8.33333
      vertex 33.3333 -71.6 -8.33333
    endloop
  endfacet
  facet normal -1 -0 0
    outer loop
      vertex 33.3333 -71.6 8.33333
      vertex 33.3333 -107.4 -8.33333
      vertex 33.3333 -107.4 8.33333
    endloop
  endfacet
  facet normal 0 1 0
    outer loop
      vertex 41.2545 -71.6 7.20511
      vertex 33.3333 -71.6 8.33333
      vertex 40.7366 -71.6 8.33333
    endloop
  endfacet
  facet normal 0 1 0
    outer loop
      vertex 41.5558 -71.6 6.0632
      vertex 33.3333 -71.6 8.33333
      vertex 41.2545 -71.6 7.20511
    endloop
  endfacet
  facet normal 0 1 0
    outer loop
      vertex 42.1909 -71.6 3.65676
      vertex 33.3333 -71.6 8.33333
      vertex 41.5558 -71.6 6.0632
    endloop
  endfacet
  facet normal 0 1 0
    outer loop
      vertex 42.2906 -71.6 2.50075
      vertex 33.3333 -71.6 8.33333
      vertex 42.1909 -71.6 3.65676
    endloop
  endfacet
  facet normal 0 1 0
    outer loop
      vertex 42.5061 -71.6 6.6455e-07
      vertex 33.3333 -71.6 8.33333
      vertex 42.2906 -71.6 2.50075
    endloop
  endfacet
  facet normal 0 1 -0
    outer loop
      vertex 42.4068 -71.6 -1.15255
      vertex 33.3333 -71.6 8.33333
      vertex 42.5061 -71.6 6.6455e-07
    endloop
  endfacet
  facet normal 0 1 0
    outer loop
      vertex 33.3333 -71.6 -8.33333
      vertex 42.4068 -71.6 -1.15255
      vertex 42.1909 -71.6 -3.65676
    endloop
  endfacet
  facet normal 0 1 0
    outer loop
      vertex 33.3333 -71.6 -8.33333
      vertex 42.1909 -71.6 -3.65676
      vertex 41.8921 -71.6 -4.78894
    endloop
  endfacet
  facet normal 0 1 0
    outer loop
      vertex 33.3333 -71.6 -8.33333
      vertex 41.8921 -71.6 -4.78894
      vertex 41.2545 -71.6 -7.20511
    endloop
  endfacet
  facet normal 0 1 0
    outer loop
      vertex 33.3333 -71.6 -8.33333
      vertex 41.2545 -71.6 -7.20511
      vertex 40.7528 -71.6 -8.29799
    endloop
  endfacet
  facet normal 0 1 0
    outer loop
      vertex 33.3333 -71.6 -8.33333
      vertex 40.7528 -71.6 -8.29799
      vertex 40.7366 -71.6 -8.33333
    endloop
  endfacet
  facet normal 0 1 0
    outer loop
      vertex 42.4068 -71.6 -1.15255
      vertex 33.3333 -71.6 -8.33333
      vertex 33.3333 -71.6 8.33333
    endloop
  endfacet
  facet normal 0 -1 0
    outer loop
      vertex 33.3333 -107.4 8.33333
      vertex 37.3052 -107.4 7.72868
      vertex 37.0268 -107.4 8.33333
    endloop
  endfacet
  facet normal 0 -1 0
    outer loop
      vertex 33.3333 -107.4 8.33333
      vertex 37.972 -107.4 6.28086
      vertex 37.3052 -107.4 7.72868
    endloop
  endfacet
  facet normal 0 -1 0
    outer loop
      vertex 33.3333 -107.4 8.33333
      vertex 38.3761 -107.4 4.75446
      vertex 37.972 -107.4 6.28086
    endloop
  endfacet
  facet normal 0 -1 0
    outer loop
      vertex 33.3333 -107.4 8.33333
      vertex 38.7908 -107.4 3.18804
      vertex 38.3761 -107.4 4.75446
    endloop
  endfacet
  facet normal 0 -1 0
    outer loop
      vertex 33.3333 -107.4 8.33333
      vertex 38.9257 -107.4 1.62797
      vertex 38.7908 -107.4 3.18804
    endloop
  endfacet
  facet normal 0 -1 0
    outer loop
      vertex 33.3333 -107.4 8.33333
      vertex 39.0665 -107.4 9.53674e-07
      vertex 38.9257 -107.4 1.62797
    endloop
  endfacet
  facet normal 0 -1 0
    outer loop
      vertex 33.3333 -107.4 8.33333
      vertex 38.9316 -107.4 -1.55979
      vertex 39.0665 -107.4 9.53674e-07
    endloop
  endfacet
  facet normal 0 -1 0
    outer loop
      vertex 33.3333 -107.4 -8.33333
      vertex 38.9316 -107.4 -1.55979
      vertex 33.3333 -107.4 8.33333
    endloop
  endfacet
  facet normal 0 -1 0
    outer loop
      vertex 38.9316 -107.4 -1.55979
      vertex 33.3333 -107.4 -8.33333
      vertex 38.7908 -107.4 -3.18804
    endloop
  endfacet
  facet normal 0 -1 0
    outer loop
      vertex 38.7908 -107.4 -3.18804
      vertex 33.3333 -107.4 -8.33333
      vertex 38.3869 -107.4 -4.71378
    endloop
  endfacet
  facet normal 0 -1 0
    outer loop
      vertex 38.3869 -107.4 -4.71378
      vertex 33.3333 -107.4 -8.33333
      vertex 37.972 -107.4 -6.28086
    endloop
  endfacet
  facet normal 0 -1 0
    outer loop
      vertex 37.972 -107.4 -6.28086
      vertex 33.3333 -107.4 -8.33333
      vertex 37.3011 -107.4 -7.73757
    endloop
  endfacet
  facet normal 0 -1 0
    outer loop
      vertex 37.3011 -107.4 -7.73757
      vertex 33.3333 -107.4 -8.33333
      vertex 37.0268 -107.4 -8.33333
    endloop
  endfacet
  facet normal 0.903512 -0.107914 -0.414754
    outer loop
      vertex 40.2566 -75.6186 -8.33333
      vertex 40.7528 -71.6 -8.29799
      vertex 40.8362 -75.564 -7.08492
    endloop
  endfacet
  facet normal 0.903729 -0.107946 -0.414273
    outer loop
      vertex 40.7528 -71.6 -8.29799
      vertex 40.2566 -75.6186 -8.33333
      vertex 40.7366 -71.6 -8.33333
    endloop
  endfacet
  facet normal 0.903506 -0.107918 -0.414766
    outer loop
      vertex 41.2545 -71.6 -7.20511
      vertex 40.8362 -75.564 -7.08492
      vertex 40.7528 -71.6 -8.29799
    endloop
  endfacet
  facet normal 0.89576 -0.176088 -0.408174
    outer loop
      vertex 38.9611 -82.2088 -8.33333
      vertex 38.6263 -88.3279 -6.42827
      vertex 37.7418 -88.4114 -8.33333
    endloop
  endfacet
  facet normal 0.895761 -0.176088 -0.408174
    outer loop
      vertex 40.8362 -75.564 -7.08492
      vertex 38.9611 -82.2088 -8.33333
      vertex 40.2566 -75.6186 -8.33333
    endloop
  endfacet
  facet normal 0.89576 -0.176088 -0.408176
    outer loop
      vertex 38.9611 -82.2088 -8.33333
      vertex 40.8362 -75.564 -7.08492
      vertex 38.6263 -88.3279 -6.42827
    endloop
  endfacet
  facet normal 0.907158 -0.0125498 -0.420604
    outer loop
      vertex 37.6798 -92.9016 -8.33333
      vertex 38.4572 -100.899 -6.41801
      vertex 37.568 -100.983 -8.33333
    endloop
  endfacet
  facet normal 0.907146 -0.0125257 -0.42063
    outer loop
      vertex 38.6263 -88.3279 -6.42827
      vertex 37.6798 -92.9016 -8.33333
      vertex 37.7418 -88.4114 -8.33333
    endloop
  endfacet
  facet normal 0.907164 -0.012546 -0.42059
    outer loop
      vertex 37.6798 -92.9016 -8.33333
      vertex 38.6263 -88.3279 -6.42827
      vertex 38.4572 -100.899 -6.41801
    endloop
  endfacet
  facet normal 0.905691 -0.0763968 -0.416998
    outer loop
      vertex 37.2214 -105.093 -8.33333
      vertex 37.3011 -107.4 -7.73757
      vertex 37.0268 -107.4 -8.33333
    endloop
  endfacet
  facet normal 0.905645 -0.0763739 -0.417102
    outer loop
      vertex 38.4572 -100.899 -6.41801
      vertex 37.2214 -105.093 -8.33333
      vertex 37.568 -100.983 -8.33333
    endloop
  endfacet
  facet normal 0.905658 -0.0763923 -0.41707
    outer loop
      vertex 37.972 -107.4 -6.28086
      vertex 37.2214 -105.093 -8.33333
      vertex 38.4572 -100.899 -6.41801
    endloop
  endfacet
  facet normal 0.905641 -0.0764249 -0.417101
    outer loop
      vertex 37.2214 -105.093 -8.33333
      vertex 37.972 -107.4 -6.28086
      vertex 37.3011 -107.4 -7.73757
    endloop
  endfacet
  facet normal 0.961125 -0.109106 -0.253641
    outer loop
      vertex 40.8362 -75.564 -7.08492
      vertex 41.8921 -71.6 -4.78894
      vertex 41.7666 -75.4762 -3.59711
    endloop
  endfacet
  facet normal 0.961127 -0.109113 -0.253631
    outer loop
      vertex 41.8921 -71.6 -4.78894
      vertex 40.8362 -75.564 -7.08492
      vertex 41.2545 -71.6 -7.20511
    endloop
  endfacet
  facet normal 0.961121 -0.109111 -0.253655
    outer loop
      vertex 41.8921 -71.6 -4.78894
      vertex 42.1909 -71.6 -3.65676
      vertex 41.7666 -75.4762 -3.59711
    endloop
  endfacet
  facet normal 0.951953 -0.177651 -0.249452
    outer loop
      vertex 40.8362 -75.564 -7.08492
      vertex 39.4704 -88.2483 -3.26372
      vertex 38.6263 -88.3279 -6.42827
    endloop
  endfacet
  facet normal 0.951948 -0.177655 -0.249467
    outer loop
      vertex 40.8362 -75.564 -7.08492
      vertex 41.7666 -75.4762 -3.59711
      vertex 39.4704 -88.2483 -3.26372
    endloop
  endfacet
  facet normal 0.966205 -0.013207 -0.257437
    outer loop
      vertex 38.6263 -88.3279 -6.42827
      vertex 39.3001 -100.82 -3.25851
      vertex 38.4572 -100.899 -6.41801
    endloop
  endfacet
  facet normal 0.966217 -0.0131953 -0.257393
    outer loop
      vertex 39.4704 -88.2483 -3.26372
      vertex 39.3001 -100.82 -3.25851
      vertex 38.6263 -88.3279 -6.42827
    endloop
  endfacet
  facet normal 0.963799 -0.0773162 -0.255175
    outer loop
      vertex 38.4572 -100.899 -6.41801
      vertex 38.3869 -107.4 -4.71378
      vertex 37.972 -107.4 -6.28086
    endloop
  endfacet
  facet normal 0.963806 -0.0773323 -0.255143
    outer loop
      vertex 38.3869 -107.4 -4.71378
      vertex 39.3001 -100.82 -3.25851
      vertex 38.7908 -107.4 -3.18804
    endloop
  endfacet
  facet normal 0.963794 -0.0773201 -0.25519
    outer loop
      vertex 39.3001 -100.82 -3.25851
      vertex 38.3869 -107.4 -4.71378
      vertex 38.4572 -100.899 -6.41801
    endloop
  endfacet
  facet normal 0.99029 -0.109732 -0.085349
    outer loop
      vertex 41.7666 -75.4762 -3.59711
      vertex 42.4068 -71.6 -1.15255
      vertex 42.0799 -75.4466 9.53674e-07
    endloop
  endfacet
  facet normal 0.99029 -0.109714 -0.0853776
    outer loop
      vertex 42.4068 -71.6 -1.15255
      vertex 41.7666 -75.4762 -3.59711
      vertex 42.1909 -71.6 -3.65676
    endloop
  endfacet
  facet normal 0.990293 -0.109724 -0.0853204
    outer loop
      vertex 42.4068 -71.6 -1.15255
      vertex 42.5061 -71.6 6.6455e-07
      vertex 42.0799 -75.4466 9.53674e-07
    endloop
  endfacet
  facet normal 0.980364 -0.178443 -0.0839334
    outer loop
      vertex 41.7666 -75.4762 -3.59711
      vertex 39.7547 -88.2215 9.53674e-07
      vertex 39.4704 -88.2483 -3.26372
    endloop
  endfacet
  facet normal 0.980366 -0.178439 -0.0839192
    outer loop
      vertex 41.7666 -75.4762 -3.59711
      vertex 42.0799 -75.4466 9.53674e-07
      vertex 39.7547 -88.2215 9.53674e-07
    endloop
  endfacet
  facet normal 0.996147 -0.01353 -0.0866473
    outer loop
      vertex 39.4704 -88.2483 -3.26372
      vertex 39.5839 -100.793 9.53674e-07
      vertex 39.3001 -100.82 -3.25851
    endloop
  endfacet
  facet normal 0.996146 -0.0135339 -0.0866623
    outer loop
      vertex 39.7547 -88.2215 9.53674e-07
      vertex 39.5839 -100.793 9.53674e-07
      vertex 39.4704 -88.2483 -3.26372
    endloop
  endfacet
  facet normal 0.993262 -0.0777996 -0.0858906
    outer loop
      vertex 39.3001 -100.82 -3.25851
      vertex 38.9316 -107.4 -1.55979
      vertex 38.7908 -107.4 -3.18804
    endloop
  endfacet
  facet normal 0.993263 -0.0777833 -0.0859032
    outer loop
      vertex 38.9316 -107.4 -1.55979
      vertex 39.5839 -100.793 9.53674e-07
      vertex 39.0665 -107.4 9.53674e-07
    endloop
  endfacet
  facet normal 0.993265 -0.0777928 -0.0858638
    outer loop
      vertex 39.5839 -100.793 9.53674e-07
      vertex 38.9316 -107.4 -1.55979
      vertex 39.3001 -100.82 -3.25851
    endloop
  endfacet
  facet normal 0.990292 -0.109724 0.0853376
    outer loop
      vertex 42.2906 -71.6 2.50075
      vertex 42.0799 -75.4466 9.53674e-07
      vertex 42.5061 -71.6 6.6455e-07
    endloop
  endfacet
  facet normal 0.99029 -0.109731 0.0853491
    outer loop
      vertex 42.0799 -75.4466 9.53674e-07
      vertex 42.2906 -71.6 2.50075
      vertex 41.7666 -75.4762 3.59711
    endloop
  endfacet
  facet normal 0.990287 -0.109714 0.0854072
    outer loop
      vertex 42.2906 -71.6 2.50075
      vertex 42.1909 -71.6 3.65676
      vertex 41.7666 -75.4762 3.59711
    endloop
  endfacet
  facet normal 0.980365 -0.178439 0.0839335
    outer loop
      vertex 39.7547 -88.2215 9.53674e-07
      vertex 42.0799 -75.4466 9.53674e-07
      vertex 39.4704 -88.2483 3.26372
    endloop
  endfacet
  facet normal 0.980365 -0.178443 0.0839192
    outer loop
      vertex 42.0799 -75.4466 9.53674e-07
      vertex 41.7666 -75.4762 3.59711
      vertex 39.4704 -88.2483 3.26372
    endloop
  endfacet
  facet normal 0.996147 -0.0135339 0.0866473
    outer loop
      vertex 39.5839 -100.793 9.53674e-07
      vertex 39.7547 -88.2215 9.53674e-07
      vertex 39.3001 -100.82 3.25851
    endloop
  endfacet
  facet normal 0.996146 -0.01353 0.0866624
    outer loop
      vertex 39.7547 -88.2215 9.53674e-07
      vertex 39.4704 -88.2483 3.26372
      vertex 39.3001 -100.82 3.25851
    endloop
  endfacet
  facet normal 0.993262 -0.0777832 0.0859054
    outer loop
      vertex 39.0665 -107.4 9.53674e-07
      vertex 39.5839 -100.793 9.53674e-07
      vertex 38.9257 -107.4 1.62797
    endloop
  endfacet
  facet normal 0.993263 -0.0777996 0.0858879
    outer loop
      vertex 38.9257 -107.4 1.62797
      vertex 39.3001 -100.82 3.25851
      vertex 38.7908 -107.4 3.18804
    endloop
  endfacet
  facet normal 0.993265 -0.0777938 0.0858639
    outer loop
      vertex 39.3001 -100.82 3.25851
      vertex 38.9257 -107.4 1.62797
      vertex 39.5839 -100.793 9.53674e-07
    endloop
  endfacet
  facet normal 0.961121 -0.109111 0.253656
    outer loop
      vertex 41.5558 -71.6 6.0632
      vertex 41.7666 -75.4762 3.59711
      vertex 42.1909 -71.6 3.65676
    endloop
  endfacet
  facet normal 0.961126 -0.109101 0.253641
    outer loop
      vertex 41.7666 -75.4762 3.59711
      vertex 41.5558 -71.6 6.0632
      vertex 40.8362 -75.564 7.08492
    endloop
  endfacet
  facet normal 0.961135 -0.109113 0.253601
    outer loop
      vertex 41.5558 -71.6 6.0632
      vertex 41.2545 -71.6 7.20511
      vertex 40.8362 -75.564 7.08492
    endloop
  endfacet
  facet normal 0.951952 -0.177656 0.249451
    outer loop
      vertex 39.4704 -88.2483 3.26372
      vertex 41.7666 -75.4762 3.59711
      vertex 38.6263 -88.3279 6.42827
    endloop
  endfacet
  facet normal 0.951949 -0.177651 0.249467
    outer loop
      vertex 41.7666 -75.4762 3.59711
      vertex 40.8362 -75.564 7.08492
      vertex 38.6263 -88.3279 6.42827
    endloop
  endfacet
  facet normal 0.966205 -0.0131952 0.257437
    outer loop
      vertex 39.3001 -100.82 3.25851
      vertex 39.4704 -88.2483 3.26372
      vertex 38.4572 -100.899 6.41801
    endloop
  endfacet
  facet normal 0.966217 -0.0132071 0.257393
    outer loop
      vertex 39.4704 -88.2483 3.26372
      vertex 38.6263 -88.3279 6.42827
      vertex 38.4572 -100.899 6.41801
    endloop
  endfacet
  facet normal 0.963801 -0.0773321 0.25516
    outer loop
      vertex 38.7908 -107.4 3.18804
      vertex 39.3001 -100.82 3.25851
      vertex 38.3761 -107.4 4.75446
    endloop
  endfacet
  facet normal 0.963803 -0.0773161 0.255158
    outer loop
      vertex 38.3761 -107.4 4.75446
      vertex 38.4572 -100.899 6.41801
      vertex 37.972 -107.4 6.28086
    endloop
  endfacet
  facet normal 0.963794 -0.0773243 0.25519
    outer loop
      vertex 38.4572 -100.899 6.41801
      vertex 38.3761 -107.4 4.75446
      vertex 39.3001 -100.82 3.25851
    endloop
  endfacet
  facet normal 0.903513 -0.107918 0.41475
    outer loop
      vertex 40.7366 -71.6 8.33333
      vertex 40.8362 -75.564 7.08492
      vertex 41.2545 -71.6 7.20511
    endloop
  endfacet
  facet normal 0.903511 -0.10792 0.414754
    outer loop
      vertex 40.8362 -75.564 7.08492
      vertex 40.7366 -71.6 8.33333
      vertex 40.2566 -75.6186 8.33333
    endloop
  endfacet
  facet normal 0.895756 -0.176088 0.408185
    outer loop
      vertex 38.899 -82.5246 8.33333
      vertex 38.6263 -88.3279 6.42827
      vertex 40.8362 -75.564 7.08492
    endloop
  endfacet
  facet normal 0.895761 -0.176085 0.408175
    outer loop
      vertex 38.6263 -88.3279 6.42827
      vertex 38.899 -82.5246 8.33333
      vertex 37.7418 -88.4114 8.33333
    endloop
  endfacet
  facet normal 0.89576 -0.176091 0.408174
    outer loop
      vertex 40.8362 -75.564 7.08492
      vertex 40.2566 -75.6186 8.33333
      vertex 38.899 -82.5246 8.33333
    endloop
  endfacet
  facet normal 0.907168 -0.012546 0.420582
    outer loop
      vertex 37.6298 -96.5185 8.33333
      vertex 38.4572 -100.899 6.41801
      vertex 38.6263 -88.3279 6.42827
    endloop
  endfacet
  facet normal 0.907158 -0.0125574 0.420603
    outer loop
      vertex 38.4572 -100.899 6.41801
      vertex 37.6298 -96.5185 8.33333
      vertex 37.568 -100.983 8.33333
    endloop
  endfacet
  facet normal 0.907146 -0.0125323 0.420629
    outer loop
      vertex 38.6263 -88.3279 6.42827
      vertex 37.7418 -88.4114 8.33333
      vertex 37.6298 -96.5185 8.33333
    endloop
  endfacet
  facet normal 0.905645 -0.0763919 0.417099
    outer loop
      vertex 37.972 -107.4 6.28086
      vertex 38.4572 -100.899 6.41801
      vertex 37.3052 -107.4 7.72868
    endloop
  endfacet
  facet normal 0.905688 -0.0763843 0.417007
    outer loop
      vertex 37.3052 -107.4 7.72868
      vertex 37.568 -100.983 8.33333
      vertex 37.0268 -107.4 8.33333
    endloop
  endfacet
  facet normal 0.905644 -0.0763914 0.417101
    outer loop
      vertex 37.568 -100.983 8.33333
      vertex 37.3052 -107.4 7.72868
      vertex 38.4572 -100.899 6.41801
    endloop
  endfacet
endsolid OpenSCAD_Model
