solid OpenSCAD_Model
  facet normal 1 0 0
    outer loop
      vertex 14 -38.8998 -7.65878
      vertex 14 -37.0667 -4.68512
      vertex 14 -37.0403 -4.6
    endloop
  endfacet
  facet normal 1 0 0
    outer loop
      vertex 14 -37.0667 -4.68512
      vertex 14 -37.5551 -6.01406
      vertex 14 -37.3862 -5.68692
    endloop
  endfacet
  facet normal 1 0 0
    outer loop
      vertex 14 -37.0667 -4.68512
      vertex 14 -37.9972 -6.66796
      vertex 14 -37.5551 -6.01406
    endloop
  endfacet
  facet normal 1 0 0
    outer loop
      vertex 14 -37.5551 -6.01406
      vertex 14 -37.9972 -6.66796
      vertex 14 -37.658 -6.20784
    endloop
  endfacet
  facet normal 1 0 0
    outer loop
      vertex 14 -37.0667 -4.68512
      vertex 14 -38.1892 -6.9214
      vertex 14 -37.9972 -6.66796
    endloop
  endfacet
  facet normal 1 0 0
    outer loop
      vertex 14 -37.0667 -4.68512
      vertex 14 -38.8998 -7.65878
      vertex 14 -38.1892 -6.9214
    endloop
  endfacet
  facet normal 1 0 0
    outer loop
      vertex 14 -37.0403 -4.6
      vertex 14 -39.2448 -8.00727
      vertex 14 -38.8998 -7.65878
    endloop
  endfacet
  facet normal 1 0 0
    outer loop
      vertex 14 -37.0403 -4.6
      vertex 14 -40.5637 -9.10311
      vertex 14 -39.2448 -8.00727
    endloop
  endfacet
  facet normal 1 -0 0
    outer loop
      vertex 14 -55.125 -4.6
      vertex 14 -40.5637 -9.10311
      vertex 14 -37.0403 -4.6
    endloop
  endfacet
  facet normal 1 0 0
    outer loop
      vertex 14 -40.5637 -9.10311
      vertex 14 -55.125 -4.6
      vertex 14 -41.0346 -9.4842
    endloop
  endfacet
  facet normal 1 0 0
    outer loop
      vertex 14 -41.0346 -9.4842
      vertex 14 -55.125 -4.6
      vertex 14 -43.021 -10.8448
    endloop
  endfacet
  facet normal 1 0 0
    outer loop
      vertex 14 -43.021 -10.8448
      vertex 14 -55.125 -4.6
      vertex 14 -43.4256 -11.1149
    endloop
  endfacet
  facet normal 1 0 0
    outer loop
      vertex 14 -43.4256 -11.1149
      vertex 14 -55.125 -4.6
      vertex 14 -45.077 -12.0781
    endloop
  endfacet
  facet normal 1 0 0
    outer loop
      vertex 14 -45.077 -12.0781
      vertex 14 -55.125 -4.6
      vertex 14 -45.2422 -12.1719
    endloop
  endfacet
  facet normal 1 0 0
    outer loop
      vertex 14 -45.2422 -12.1719
      vertex 14 -55.125 -4.6
      vertex 14 -47.3401 -13.2078
    endloop
  endfacet
  facet normal 1 0 -0
    outer loop
      vertex 14 -47.4784 -13.2667
      vertex 14 -47.3401 -13.2078
      vertex 14 -55.125 -4.6
    endloop
  endfacet
  facet normal 1 0 0
    outer loop
      vertex 14 -47.3401 -13.2078
      vertex 14 -47.4784 -13.2667
      vertex 14 -47.3511 -13.2131
    endloop
  endfacet
  facet normal 1 0 0
    outer loop
      vertex 14 -47.4784 -13.2667
      vertex 14 -55.125 -4.6
      vertex 14 -49.3451 -13.8
    endloop
  endfacet
  facet normal 1 0 0
    outer loop
      vertex 14 -49.3451 -13.8
      vertex 14 -55.125 -4.6
      vertex 14 -55.125 -13.8
    endloop
  endfacet
  facet normal -0 0 1
    outer loop
      vertex 9.52372 -46.6121 -4.6
      vertex 14 -55.125 -4.6
      vertex 14 -37.0403 -4.6
    endloop
  endfacet
  facet normal -0 0 1
    outer loop
      vertex 7.05996 -54.9799 -4.6
      vertex 14 -55.125 -4.6
      vertex 9.52372 -46.6121 -4.6
    endloop
  endfacet
  facet normal 0 0 1
    outer loop
      vertex 14 -55.125 -4.6
      vertex 7.05996 -54.9799 -4.6
      vertex 7.01726 -55.125 -4.6
    endloop
  endfacet
  facet normal 0 0 -1
    outer loop
      vertex 14 -55.125 -13.8
      vertex 13.7117 -50.1846 -13.8
      vertex 14 -49.3451 -13.8
    endloop
  endfacet
  facet normal 0 -0 -1
    outer loop
      vertex 13.7117 -50.1846 -13.8
      vertex 14 -55.125 -13.8
      vertex 12.0352 -55.125 -13.8
    endloop
  endfacet
  facet normal 0 -1 0
    outer loop
      vertex 7.02046 -55.125 -4.62295
      vertex 14 -55.125 -4.6
      vertex 7.01726 -55.125 -4.6
    endloop
  endfacet
  facet normal 0 -1 0
    outer loop
      vertex 7.23327 -55.125 -6.13521
      vertex 14 -55.125 -4.6
      vertex 7.02046 -55.125 -4.62295
    endloop
  endfacet
  facet normal 0 -1 0
    outer loop
      vertex 7.29104 -55.125 -6.38345
      vertex 14 -55.125 -4.6
      vertex 7.23327 -55.125 -6.13521
    endloop
  endfacet
  facet normal 0 -1 0
    outer loop
      vertex 7.36302 -55.125 -6.68904
      vertex 14 -55.125 -4.6
      vertex 7.29104 -55.125 -6.38345
    endloop
  endfacet
  facet normal 0 -1 0
    outer loop
      vertex 7.47533 -55.125 -7.02482
      vertex 14 -55.125 -4.6
      vertex 7.36302 -55.125 -6.68904
    endloop
  endfacet
  facet normal 0 -1 0
    outer loop
      vertex 7.61597 -55.125 -7.44018
      vertex 14 -55.125 -4.6
      vertex 7.47533 -55.125 -7.02482
    endloop
  endfacet
  facet normal 0 -1 0
    outer loop
      vertex 7.83672 -55.125 -7.94116
      vertex 14 -55.125 -4.6
      vertex 7.61597 -55.125 -7.44018
    endloop
  endfacet
  facet normal 0 -1 0
    outer loop
      vertex 8.11589 -55.125 -8.56683
      vertex 14 -55.125 -4.6
      vertex 7.83672 -55.125 -7.94116
    endloop
  endfacet
  facet normal 0 -1 0
    outer loop
      vertex 8.48281 -55.125 -9.22681
      vertex 14 -55.125 -4.6
      vertex 8.11589 -55.125 -8.56683
    endloop
  endfacet
  facet normal 0 -1 0
    outer loop
      vertex 8.95536 -55.125 -10.0659
      vertex 14 -55.125 -4.6
      vertex 8.48281 -55.125 -9.22681
    endloop
  endfacet
  facet normal 0 -1 0
    outer loop
      vertex 9.43093 -55.125 -10.7616
      vertex 14 -55.125 -4.6
      vertex 8.95536 -55.125 -10.0659
    endloop
  endfacet
  facet normal 0 -1 0
    outer loop
      vertex 10.0609 -55.125 -11.6709
      vertex 14 -55.125 -4.6
      vertex 9.43093 -55.125 -10.7616
    endloop
  endfacet
  facet normal 0 -1 0
    outer loop
      vertex 10.4105 -55.125 -12.0994
      vertex 14 -55.125 -4.6
      vertex 10.0609 -55.125 -11.6709
    endloop
  endfacet
  facet normal 0 -1 0
    outer loop
      vertex 14 -55.125 -13.8
      vertex 10.4105 -55.125 -12.0994
      vertex 10.8887 -55.125 -12.6772
    endloop
  endfacet
  facet normal 0 -1 0
    outer loop
      vertex 14 -55.125 -13.8
      vertex 10.8887 -55.125 -12.6772
      vertex 11.2828 -55.125 -13.0777
    endloop
  endfacet
  facet normal 0 -1 0
    outer loop
      vertex 14 -55.125 -13.8
      vertex 11.2828 -55.125 -13.0777
      vertex 11.8367 -55.125 -13.6323
    endloop
  endfacet
  facet normal 0 -1 0
    outer loop
      vertex 14 -55.125 -13.8
      vertex 11.8367 -55.125 -13.6323
      vertex 12.0352 -55.125 -13.8
    endloop
  endfacet
  facet normal 0 -1 0
    outer loop
      vertex 10.4105 -55.125 -12.0994
      vertex 14 -55.125 -13.8
      vertex 14 -55.125 -4.6
    endloop
  endfacet
  facet normal -0.897484 0.420196 -0.134011
    outer loop
      vertex 14 -37.3862 -5.68692
      vertex 9.7013 -46.6464 -5.93378
      vertex 14 -37.0667 -4.68512
    endloop
  endfacet
  facet normal -0.898122 0.420009 -0.130266
    outer loop
      vertex 14 -37.0667 -4.68512
      vertex 9.52372 -46.6121 -4.6
      vertex 14 -37.0403 -4.6
    endloop
  endfacet
  facet normal -0.898109 0.420002 -0.130376
    outer loop
      vertex 9.52372 -46.6121 -4.6
      vertex 14 -37.0667 -4.68512
      vertex 9.7013 -46.6464 -5.93378
    endloop
  endfacet
  facet normal -0.882351 0.415628 -0.220704
    outer loop
      vertex 14 -37.658 -6.20784
      vertex 9.82072 -46.6695 -6.46991
      vertex 14 -37.5551 -6.01406
    endloop
  endfacet
  facet normal -0.883674 0.415937 -0.214745
    outer loop
      vertex 14 -37.5551 -6.01406
      vertex 9.7013 -46.6464 -5.93378
      vertex 14 -37.3862 -5.68692
    endloop
  endfacet
  facet normal -0.883673 0.415936 -0.214754
    outer loop
      vertex 9.7013 -46.6464 -5.93378
      vertex 14 -37.5551 -6.01406
      vertex 9.82072 -46.6695 -6.46991
    endloop
  endfacet
  facet normal -0.859254 0.407751 -0.308903
    outer loop
      vertex 14 -38.1892 -6.9214
      vertex 10.0536 -46.7146 -7.19748
      vertex 14 -37.9972 -6.66796
    endloop
  endfacet
  facet normal -0.861723 0.408399 -0.301071
    outer loop
      vertex 14 -37.9972 -6.66796
      vertex 9.82072 -46.6695 -6.46991
      vertex 14 -37.658 -6.20784
    endloop
  endfacet
  facet normal -0.861707 0.40839 -0.301129
    outer loop
      vertex 9.82072 -46.6695 -6.46991
      vertex 14 -37.9972 -6.66796
      vertex 10.0536 -46.7146 -7.19748
    endloop
  endfacet
  facet normal -0.829272 0.397147 -0.393169
    outer loop
      vertex 14 -39.2448 -8.00727
      vertex 10.5139 -46.8037 -8.28976
      vertex 14 -38.8998 -7.65878
    endloop
  endfacet
  facet normal -0.83324 0.39813 -0.383671
    outer loop
      vertex 14 -38.8998 -7.65878
      vertex 10.0536 -46.7146 -7.19748
      vertex 14 -38.1892 -6.9214
    endloop
  endfacet
  facet normal -0.833257 0.398142 -0.383622
    outer loop
      vertex 10.0536 -46.7146 -7.19748
      vertex 14 -38.8998 -7.65878
      vertex 10.5139 -46.8037 -8.28976
    endloop
  endfacet
  facet normal -0.792154 0.383944 -0.474426
    outer loop
      vertex 14 -41.0346 -9.4842
      vertex 11.2875 -46.9534 -9.74508
      vertex 14 -40.5637 -9.10311
    endloop
  endfacet
  facet normal -0.79783 0.385282 -0.463707
    outer loop
      vertex 14 -40.5637 -9.10311
      vertex 10.5139 -46.8037 -8.28976
      vertex 14 -39.2448 -8.00727
    endloop
  endfacet
  facet normal -0.797822 0.385275 -0.463727
    outer loop
      vertex 10.5139 -46.8037 -8.28976
      vertex 14 -40.5637 -9.10311
      vertex 11.2875 -46.9534 -9.74508
    endloop
  endfacet
  facet normal -0.748197 0.368377 -0.551815
    outer loop
      vertex 14 -43.4256 -11.1149
      vertex 12.3071 -47.1507 -11.3063
      vertex 14 -43.021 -10.8448
    endloop
  endfacet
  facet normal -0.755658 0.370124 -0.540361
    outer loop
      vertex 14 -43.021 -10.8448
      vertex 11.2875 -46.9534 -9.74508
      vertex 14 -41.0346 -9.4842
    endloop
  endfacet
  facet normal -0.755684 0.370159 -0.5403
    outer loop
      vertex 11.2875 -46.9534 -9.74508
      vertex 14 -43.021 -10.8448
      vertex 12.3071 -47.1507 -11.3063
    endloop
  endfacet
  facet normal -0.701995 0.351644 -0.619313
    outer loop
      vertex 14 -45.2422 -12.1719
      vertex 13.0714 -47.2987 -12.287
      vertex 14 -45.077 -12.0781
    endloop
  endfacet
  facet normal -0.710953 0.35431 -0.607462
    outer loop
      vertex 14 -45.077 -12.0781
      vertex 12.3071 -47.1507 -11.3063
      vertex 14 -43.4256 -11.1149
    endloop
  endfacet
  facet normal -0.710926 0.354268 -0.607518
    outer loop
      vertex 12.3071 -47.1507 -11.3063
      vertex 14 -45.077 -12.0781
      vertex 13.0714 -47.2987 -12.287
    endloop
  endfacet
  facet normal -0.646021 0.331328 -0.687662
    outer loop
      vertex 14 -47.3511 -13.2131
      vertex 13.9475 -47.4682 -13.2202
      vertex 14 -47.3401 -13.2078
    endloop
  endfacet
  facet normal -0.656034 0.334363 -0.676624
    outer loop
      vertex 13.0714 -47.2987 -12.287
      vertex 14 -47.3401 -13.2078
      vertex 13.9475 -47.4682 -13.2202
    endloop
  endfacet
  facet normal -0.656098 0.33413 -0.676678
    outer loop
      vertex 14 -47.3401 -13.2078
      vertex 13.0714 -47.2987 -12.287
      vertex 14 -45.2422 -12.1719
    endloop
  endfacet
  facet normal -0.595316 0.3118 -0.740526
    outer loop
      vertex 14 -47.4784 -13.2667
      vertex 13.9475 -47.4682 -13.2202
      vertex 14 -47.3511 -13.2131
    endloop
  endfacet
  facet normal -0.950662 0.279907 -0.13377
    outer loop
      vertex 9.7013 -46.6464 -5.93378
      vertex 7.05996 -54.9799 -4.6
      vertex 9.52372 -46.6121 -4.6
    endloop
  endfacet
  facet normal -0.950661 0.279906 -0.133775
    outer loop
      vertex 7.23327 -55.125 -6.13521
      vertex 7.05996 -54.9799 -4.6
      vertex 9.7013 -46.6464 -5.93378
    endloop
  endfacet
  facet normal -0.950648 0.27995 -0.133778
    outer loop
      vertex 7.05996 -54.9799 -4.6
      vertex 7.23327 -55.125 -6.13521
      vertex 7.02046 -55.125 -4.62295
    endloop
  endfacet
  facet normal -0.950855 0.279817 -0.132581
    outer loop
      vertex 7.02046 -55.125 -4.62295
      vertex 7.01726 -55.125 -4.6
      vertex 7.05996 -54.9799 -4.6
    endloop
  endfacet
  facet normal -0.93513 0.277516 -0.220265
    outer loop
      vertex 7.29104 -55.125 -6.38345
      vertex 9.82072 -46.6695 -6.46991
      vertex 7.36302 -55.125 -6.68904
    endloop
  endfacet
  facet normal -0.935133 0.277517 -0.220253
    outer loop
      vertex 9.82072 -46.6695 -6.46991
      vertex 7.29104 -55.125 -6.38345
      vertex 9.7013 -46.6464 -5.93378
    endloop
  endfacet
  facet normal -0.935708 0.277548 -0.217756
    outer loop
      vertex 7.29104 -55.125 -6.38345
      vertex 7.23327 -55.125 -6.13521
      vertex 9.7013 -46.6464 -5.93378
    endloop
  endfacet
  facet normal -0.911197 0.273 -0.308529
    outer loop
      vertex 7.47533 -55.125 -7.02482
      vertex 10.0536 -46.7146 -7.19748
      vertex 7.61597 -55.125 -7.44018
    endloop
  endfacet
  facet normal -0.911184 0.272995 -0.308573
    outer loop
      vertex 10.0536 -46.7146 -7.19748
      vertex 7.47533 -55.125 -7.02482
      vertex 9.82072 -46.6695 -6.46991
    endloop
  endfacet
  facet normal -0.912311 0.273083 -0.305145
    outer loop
      vertex 7.47533 -55.125 -7.02482
      vertex 7.36302 -55.125 -6.68904
      vertex 9.82072 -46.6695 -6.46991
    endloop
  endfacet
  facet normal -0.880138 0.266712 -0.392712
    outer loop
      vertex 7.83672 -55.125 -7.94116
      vertex 10.5139 -46.8037 -8.28976
      vertex 8.11589 -55.125 -8.56683
    endloop
  endfacet
  facet normal -0.880156 0.266719 -0.392665
    outer loop
      vertex 10.5139 -46.8037 -8.28976
      vertex 7.83672 -55.125 -7.94116
      vertex 10.0536 -46.7146 -7.19748
    endloop
  endfacet
  facet normal -0.881923 0.266826 -0.388607
    outer loop
      vertex 7.83672 -55.125 -7.94116
      vertex 7.61597 -55.125 -7.44018
      vertex 10.0536 -46.7146 -7.19748
    endloop
  endfacet
  facet normal -0.841639 0.258809 -0.473985
    outer loop
      vertex 8.48281 -55.125 -9.22681
      vertex 11.2875 -46.9534 -9.74508
      vertex 8.95536 -55.125 -10.0659
    endloop
  endfacet
  facet normal -0.84163 0.258805 -0.474004
    outer loop
      vertex 11.2875 -46.9534 -9.74508
      vertex 8.48281 -55.125 -9.22681
      vertex 10.5139 -46.8037 -8.28976
    endloop
  endfacet
  facet normal -0.844206 0.258909 -0.469342
    outer loop
      vertex 8.48281 -55.125 -9.22681
      vertex 8.11589 -55.125 -8.56683
      vertex 10.5139 -46.8037 -8.28976
    endloop
  endfacet
  facet normal -0.796017 0.249437 -0.551487
    outer loop
      vertex 9.43093 -55.125 -10.7616
      vertex 12.3071 -47.1507 -11.3063
      vertex 10.0609 -55.125 -11.6709
    endloop
  endfacet
  facet normal -0.79606 0.249457 -0.551416
    outer loop
      vertex 12.3071 -47.1507 -11.3063
      vertex 9.43093 -55.125 -10.7616
      vertex 11.2875 -46.9534 -9.74508
    endloop
  endfacet
  facet normal -0.799417 0.249605 -0.54647
    outer loop
      vertex 9.43093 -55.125 -10.7616
      vertex 8.95536 -55.125 -10.0659
      vertex 11.2875 -46.9534 -9.74508
    endloop
  endfacet
  facet normal -0.747966 0.239466 -0.619033
    outer loop
      vertex 10.4105 -55.125 -12.0994
      vertex 13.0714 -47.2987 -12.287
      vertex 10.8887 -55.125 -12.6772
    endloop
  endfacet
  facet normal -0.747954 0.239462 -0.61905
    outer loop
      vertex 13.0714 -47.2987 -12.287
      vertex 10.4105 -55.125 -12.0994
      vertex 12.3071 -47.1507 -11.3063
    endloop
  endfacet
  facet normal -0.7522 0.239939 -0.613697
    outer loop
      vertex 10.4105 -55.125 -12.0994
      vertex 10.0609 -55.125 -11.6709
      vertex 12.3071 -47.1507 -11.3063
    endloop
  endfacet
  facet normal -0.689082 0.227004 -0.688212
    outer loop
      vertex 11.2828 -55.125 -13.0777
      vertex 13.9475 -47.4682 -13.2202
      vertex 11.8367 -55.125 -13.6323
    endloop
  endfacet
  facet normal -0.689111 0.227015 -0.688179
    outer loop
      vertex 13.9475 -47.4682 -13.2202
      vertex 11.2828 -55.125 -13.0777
      vertex 13.0714 -47.2987 -12.287
    endloop
  endfacet
  facet normal -0.694068 0.227622 -0.682977
    outer loop
      vertex 11.2828 -55.125 -13.0777
      vertex 10.8887 -55.125 -12.6772
      vertex 13.0714 -47.2987 -12.287
    endloop
  endfacet
  facet normal -0.62387 0.214686 -0.751462
    outer loop
      vertex 14 -49.3451 -13.8
      vertex 13.9475 -47.4682 -13.2202
      vertex 14 -47.4784 -13.2667
    endloop
  endfacet
  facet normal -0.624594 0.214497 -0.750915
    outer loop
      vertex 13.9475 -47.4682 -13.2202
      vertex 14 -49.3451 -13.8
      vertex 13.7117 -50.1846 -13.8
    endloop
  endfacet
  facet normal -0.630415 0.213928 -0.746198
    outer loop
      vertex 11.8367 -55.125 -13.6323
      vertex 13.7117 -50.1846 -13.8
      vertex 12.0352 -55.125 -13.8
    endloop
  endfacet
  facet normal -0.630542 0.21398 -0.746076
    outer loop
      vertex 13.7117 -50.1846 -13.8
      vertex 11.8367 -55.125 -13.6323
      vertex 13.9475 -47.4682 -13.2202
    endloop
  endfacet
endsolid OpenSCAD_Model
