solid OpenSCAD_Model
  facet normal -0 0 1
    outer loop
      vertex 33.3333 -143.2 8.33333
      vertex 36.6658 -151.29 8.33333
      vertex 36.244 -143.2 8.33333
    endloop
  endfacet
  facet normal 0 0 1
    outer loop
      vertex 36.6658 -151.29 8.33333
      vertex 33.3333 -143.2 8.33333
      vertex 35.9936 -154.118 8.33333
    endloop
  endfacet
  facet normal 0 0 1
    outer loop
      vertex 35.9936 -154.118 8.33333
      vertex 33.3333 -143.2 8.33333
      vertex 34.6815 -159.638 8.33333
    endloop
  endfacet
  facet normal 0 0 1
    outer loop
      vertex 34.6815 -159.638 8.33333
      vertex 33.3333 -143.2 8.33333
      vertex 34.2931 -162.398 8.33333
    endloop
  endfacet
  facet normal 0 0 1
    outer loop
      vertex 33.3333 -166.967 8.33333
      vertex 34.2931 -162.398 8.33333
      vertex 33.3333 -143.2 8.33333
    endloop
  endfacet
  facet normal 0 0 1
    outer loop
      vertex 34.2931 -162.398 8.33333
      vertex 33.3333 -166.967 8.33333
      vertex 34.1965 -163.084 8.33333
    endloop
  endfacet
  facet normal 0 0 1
    outer loop
      vertex 34.1965 -163.084 8.33333
      vertex 33.3333 -166.967 8.33333
      vertex 33.7034 -165.769 8.33333
    endloop
  endfacet
  facet normal 0 0 1
    outer loop
      vertex 33.7034 -165.769 8.33333
      vertex 33.5297 -166.44 8.33333
      vertex 33.5985 -166.255 8.33333
    endloop
  endfacet
  facet normal 0 0 1
    outer loop
      vertex 33.7034 -165.769 8.33333
      vertex 33.3333 -166.967 8.33333
      vertex 33.5297 -166.44 8.33333
    endloop
  endfacet
  facet normal 0 0 -1
    outer loop
      vertex 33.3333 -143.2 -8.33333
      vertex 36.5703 -149.459 -8.33333
      vertex 36.6658 -151.29 -8.33333
    endloop
  endfacet
  facet normal 0 0 -1
    outer loop
      vertex 33.3333 -143.2 -8.33333
      vertex 36.6658 -151.29 -8.33333
      vertex 35.4679 -156.33 -8.33333
    endloop
  endfacet
  facet normal 0 0 -1
    outer loop
      vertex 33.3333 -143.2 -8.33333
      vertex 35.4679 -156.33 -8.33333
      vertex 34.6815 -159.638 -8.33333
    endloop
  endfacet
  facet normal 0 0 -1
    outer loop
      vertex 33.3333 -143.2 -8.33333
      vertex 34.6815 -159.638 -8.33333
      vertex 34.5163 -160.812 -8.33333
    endloop
  endfacet
  facet normal 0 0 -1
    outer loop
      vertex 34.1172 -163.516 -8.33333
      vertex 34.5163 -160.812 -8.33333
      vertex 34.1965 -163.084 -8.33333
    endloop
  endfacet
  facet normal -0 0 -1
    outer loop
      vertex 34.5163 -160.812 -8.33333
      vertex 34.1172 -163.516 -8.33333
      vertex 33.3333 -143.2 -8.33333
    endloop
  endfacet
  facet normal 0 0 -1
    outer loop
      vertex 33.3333 -166.967 -8.33333
      vertex 34.1172 -163.516 -8.33333
      vertex 33.7034 -165.769 -8.33333
    endloop
  endfacet
  facet normal 0 0 -1
    outer loop
      vertex 33.3333 -166.967 -8.33333
      vertex 33.7034 -165.769 -8.33333
      vertex 33.6169 -166.17 -8.33333
    endloop
  endfacet
  facet normal 0 0 -1
    outer loop
      vertex 33.3333 -166.967 -8.33333
      vertex 33.6169 -166.17 -8.33333
      vertex 33.5984 -166.255 -8.33333
    endloop
  endfacet
  facet normal -0 0 -1
    outer loop
      vertex 34.1172 -163.516 -8.33333
      vertex 33.3333 -166.967 -8.33333
      vertex 33.3333 -143.2 -8.33333
    endloop
  endfacet
  facet normal 0 0 -1
    outer loop
      vertex 36.5703 -149.459 -8.33333
      vertex 33.3333 -143.2 -8.33333
      vertex 36.244 -143.2 -8.33333
    endloop
  endfacet
  facet normal -1 0 0
    outer loop
      vertex 33.3333 -166.967 -8.33333
      vertex 33.3333 -143.2 8.33333
      vertex 33.3333 -143.2 -8.33333
    endloop
  endfacet
  facet normal -1 0 0
    outer loop
      vertex 33.3333 -166.967 -8.33333
      vertex 33.3333 -166.967 8.33333
      vertex 33.3333 -143.2 8.33333
    endloop
  endfacet
  facet normal -1 0 0
    outer loop
      vertex 33.3333 -172.026 -3.36828
      vertex 33.3333 -166.967 -8.33333
      vertex 33.3333 -168.187 -7.86062
    endloop
  endfacet
  facet normal -1 0 0
    outer loop
      vertex 33.3333 -166.967 -8.33333
      vertex 33.3333 -172.545 0.521681
      vertex 33.3333 -166.967 8.33333
    endloop
  endfacet
  facet normal -1 0 -0
    outer loop
      vertex 33.3333 -172.389 1.86816
      vertex 33.3333 -166.967 8.33333
      vertex 33.3333 -172.545 0.521681
    endloop
  endfacet
  facet normal -1 0 0
    outer loop
      vertex 33.3333 -169.434 -7.20016
      vertex 33.3333 -168.187 -7.86062
      vertex 33.3333 -169.096 -7.44265
    endloop
  endfacet
  facet normal -1 0 0
    outer loop
      vertex 33.3333 -166.967 -8.33333
      vertex 33.3333 -172.509 -0.997152
      vertex 33.3333 -172.545 0.521681
    endloop
  endfacet
  facet normal -1 0 0
    outer loop
      vertex 33.3333 -171.289 -5.12776
      vertex 33.3333 -168.187 -7.86062
      vertex 33.3333 -169.434 -7.20016
    endloop
  endfacet
  facet normal -1 0 0
    outer loop
      vertex 33.3333 -168.187 7.86062
      vertex 33.3333 -171.601 4.38316
      vertex 33.3333 -168.852 7.5549
    endloop
  endfacet
  facet normal -1 0 0
    outer loop
      vertex 33.3333 -171.289 -5.12776
      vertex 33.3333 -169.434 -7.20016
      vertex 33.3333 -170.616 -6.35032
    endloop
  endfacet
  facet normal -1 0 0
    outer loop
      vertex 33.3333 -168.187 -7.86062
      vertex 33.3333 -171.289 -5.12776
      vertex 33.3333 -172.026 -3.36828
    endloop
  endfacet
  facet normal -1 0 0
    outer loop
      vertex 33.3333 -170.071 6.74241
      vertex 33.3333 -170.985 5.68029
      vertex 33.3333 -170.616 6.35032
    endloop
  endfacet
  facet normal -1 0 0
    outer loop
      vertex 33.3333 -166.967 -8.33333
      vertex 33.3333 -172.026 -3.36828
      vertex 33.3333 -172.142 -2.99301
    endloop
  endfacet
  facet normal -1 0 0
    outer loop
      vertex 33.3333 -168.852 7.5549
      vertex 33.3333 -170.071 6.74241
      vertex 33.3333 -169.096 7.44265
    endloop
  endfacet
  facet normal -1 0 0
    outer loop
      vertex 33.3333 -170.071 6.74241
      vertex 33.3333 -171.289 5.12776
      vertex 33.3333 -170.985 5.68029
    endloop
  endfacet
  facet normal -1 0 -0
    outer loop
      vertex 33.3333 -171.289 5.12776
      vertex 33.3333 -168.852 7.5549
      vertex 33.3333 -171.601 4.38316
    endloop
  endfacet
  facet normal -1 0 -0
    outer loop
      vertex 33.3333 -170.071 6.74241
      vertex 33.3333 -168.852 7.5549
      vertex 33.3333 -171.289 5.12776
    endloop
  endfacet
  facet normal -1 0 0
    outer loop
      vertex 33.3333 -171.601 4.38316
      vertex 33.3333 -172.389 1.86816
      vertex 33.3333 -172.026 3.36829
    endloop
  endfacet
  facet normal -1 0 0
    outer loop
      vertex 33.3333 -172.142 -2.99301
      vertex 33.3333 -172.026 -3.36828
      vertex 33.3333 -172.114 -3.12006
    endloop
  endfacet
  facet normal -1 0 0
    outer loop
      vertex 33.3333 -166.967 -8.33333
      vertex 33.3333 -172.142 -2.99301
      vertex 33.3333 -172.509 -0.997152
    endloop
  endfacet
  facet normal -1 0 0
    outer loop
      vertex 33.3333 -172.026 3.36829
      vertex 33.3333 -172.389 1.86816
      vertex 33.3333 -172.089 3.19025
    endloop
  endfacet
  facet normal -1 0 0
    outer loop
      vertex 33.3333 -172.089 3.19025
      vertex 33.3333 -172.389 1.86816
      vertex 33.3333 -172.114 3.12007
    endloop
  endfacet
  facet normal -1 0 0
    outer loop
      vertex 33.3333 -172.509 -0.997152
      vertex 33.3333 -172.142 -2.99301
      vertex 33.3333 -172.472 -1.49256
    endloop
  endfacet
  facet normal -1 0 -0
    outer loop
      vertex 33.3333 -171.601 4.38316
      vertex 33.3333 -166.967 8.33333
      vertex 33.3333 -172.389 1.86816
    endloop
  endfacet
  facet normal -1 0 0
    outer loop
      vertex 33.3333 -166.967 8.33333
      vertex 33.3333 -171.601 4.38316
      vertex 33.3333 -168.187 7.86062
    endloop
  endfacet
  facet normal -1 0 0
    outer loop
      vertex 33.3333 -172.389 1.86816
      vertex 33.3333 -172.545 0.521681
      vertex 33.3333 -172.472 1.49257
    endloop
  endfacet
  facet normal -1 0 -0
    outer loop
      vertex 33.3333 -172.545 0.521681
      vertex 33.3333 -172.509 -0.997152
      vertex 33.3333 -172.584 1.90735e-06
    endloop
  endfacet
  facet normal 0 1 0
    outer loop
      vertex 36.3095 -143.2 8.23985
      vertex 33.3333 -143.2 8.33333
      vertex 36.244 -143.2 8.33333
    endloop
  endfacet
  facet normal 0 1 0
    outer loop
      vertex 37.1075 -143.2 6.53081
      vertex 33.3333 -143.2 8.33333
      vertex 36.3095 -143.2 8.23985
    endloop
  endfacet
  facet normal 0 1 0
    outer loop
      vertex 37.5267 -143.2 5.63315
      vertex 33.3333 -143.2 8.33333
      vertex 37.1075 -143.2 6.53081
    endloop
  endfacet
  facet normal 0 1 0
    outer loop
      vertex 38.01 -143.2 3.83294
      vertex 33.3333 -143.2 8.33333
      vertex 37.5267 -143.2 5.63315
    endloop
  endfacet
  facet normal 0 1 0
    outer loop
      vertex 38.2715 -143.2 2.85902
      vertex 33.3333 -143.2 8.33333
      vertex 38.01 -143.2 3.83294
    endloop
  endfacet
  facet normal 0 1 0
    outer loop
      vertex 38.4333 -143.2 1.01281
      vertex 33.3333 -143.2 8.33333
      vertex 38.2715 -143.2 2.85902
    endloop
  endfacet
  facet normal 0 1 0
    outer loop
      vertex 38.3601 -143.2 -1.8476
      vertex 38.4333 -143.2 1.01281
      vertex 38.5221 -143.2 1.90735e-06
    endloop
  endfacet
  facet normal 0 1 0
    outer loop
      vertex 38.4333 -143.2 1.01281
      vertex 38.3601 -143.2 -1.8476
      vertex 33.3333 -143.2 -8.33333
    endloop
  endfacet
  facet normal 0 1 0
    outer loop
      vertex 33.3333 -143.2 -8.33333
      vertex 38.3601 -143.2 -1.8476
      vertex 38.2715 -143.2 -2.85902
    endloop
  endfacet
  facet normal 0 1 0
    outer loop
      vertex 33.3333 -143.2 -8.33333
      vertex 38.2715 -143.2 -2.85902
      vertex 37.7871 -143.2 -4.66334
    endloop
  endfacet
  facet normal 0 1 0
    outer loop
      vertex 33.3333 -143.2 -8.33333
      vertex 37.7871 -143.2 -4.66334
      vertex 37.5267 -143.2 -5.63315
    endloop
  endfacet
  facet normal 0 1 0
    outer loop
      vertex 33.3333 -143.2 -8.33333
      vertex 37.5267 -143.2 -5.63315
      vertex 36.7256 -143.2 -7.34885
    endloop
  endfacet
  facet normal 0 1 0
    outer loop
      vertex 33.3333 -143.2 -8.33333
      vertex 36.7256 -143.2 -7.34885
      vertex 36.3095 -143.2 -8.23984
    endloop
  endfacet
  facet normal 0 1 0
    outer loop
      vertex 33.3333 -143.2 -8.33333
      vertex 36.3095 -143.2 -8.23984
      vertex 36.244 -143.2 -8.33333
    endloop
  endfacet
  facet normal 0 1 0
    outer loop
      vertex 38.4333 -143.2 1.01281
      vertex 33.3333 -143.2 -8.33333
      vertex 33.3333 -143.2 8.33333
    endloop
  endfacet
  facet normal 0.707285 -0.153938 -0.689964
    outer loop
      vertex 33.6169 -166.17 -8.33333
      vertex 33.652 -166.25 -8.2795
      vertex 33.5984 -166.255 -8.33333
    endloop
  endfacet
  facet normal 0.708428 -0.152816 -0.689041
    outer loop
      vertex 33.7034 -165.769 -8.33333
      vertex 33.652 -166.25 -8.2795
      vertex 33.6169 -166.17 -8.33333
    endloop
  endfacet
  facet normal 0.696323 -0.259263 -0.669266
    outer loop
      vertex 33.652 -166.25 -8.2795
      vertex 33.3333 -166.967 -8.33333
      vertex 33.5984 -166.255 -8.33333
    endloop
  endfacet
  facet normal 0.696377 -0.259292 -0.669198
    outer loop
      vertex 33.3333 -166.967 -8.33333
      vertex 33.652 -166.25 -8.2795
      vertex 33.3333 -168.187 -7.86062
    endloop
  endfacet
  facet normal 0.81828 0.0426792 -0.573234
    outer loop
      vertex 36.9644 -151.262 -7.905
      vertex 36.6658 -151.29 -8.33333
      vertex 36.5703 -149.459 -8.33333
    endloop
  endfacet
  facet normal 0.818252 0.0426579 -0.573275
    outer loop
      vertex 36.3095 -143.2 -8.23984
      vertex 36.5703 -149.459 -8.33333
      vertex 36.244 -143.2 -8.33333
    endloop
  endfacet
  facet normal 0.818241 0.0426577 -0.57329
    outer loop
      vertex 36.5703 -149.459 -8.33333
      vertex 36.3095 -143.2 -8.23984
      vertex 36.9644 -151.262 -7.905
    endloop
  endfacet
  facet normal 0.810836 -0.192757 -0.552621
    outer loop
      vertex 35.4679 -156.33 -8.33333
      vertex 35.5187 -159.559 -7.1325
      vertex 34.6815 -159.638 -8.33333
    endloop
  endfacet
  facet normal 0.810826 -0.192716 -0.55265
    outer loop
      vertex 36.9644 -151.262 -7.905
      vertex 35.4679 -156.33 -8.33333
      vertex 36.6658 -151.29 -8.33333
    endloop
  endfacet
  facet normal 0.810876 -0.192737 -0.552569
    outer loop
      vertex 35.4679 -156.33 -8.33333
      vertex 36.9644 -151.262 -7.905
      vertex 35.5187 -159.559 -7.1325
    endloop
  endfacet
  facet normal 0.818397 -0.115195 -0.562989
    outer loop
      vertex 34.5163 -160.812 -8.33333
      vertex 35.325 -162.978 -6.71456
      vertex 34.1965 -163.084 -8.33333
    endloop
  endfacet
  facet normal 0.818396 -0.115161 -0.562997
    outer loop
      vertex 35.5187 -159.559 -7.1325
      vertex 34.5163 -160.812 -8.33333
      vertex 34.6815 -159.638 -8.33333
    endloop
  endfacet
  facet normal 0.818405 -0.115185 -0.562979
    outer loop
      vertex 34.5163 -160.812 -8.33333
      vertex 35.5187 -159.559 -7.1325
      vertex 35.325 -162.978 -6.71456
    endloop
  endfacet
  facet normal 0.815653 -0.149808 -0.558809
    outer loop
      vertex 34.9342 -166.129 -6.44031
      vertex 33.7034 -165.769 -8.33333
      vertex 34.1172 -163.516 -8.33333
    endloop
  endfacet
  facet normal 0.815676 -0.149701 -0.558804
    outer loop
      vertex 33.7034 -165.769 -8.33333
      vertex 34.9342 -166.129 -6.44031
      vertex 33.652 -166.25 -8.2795
    endloop
  endfacet
  facet normal 0.81566 -0.149727 -0.55882
    outer loop
      vertex 35.325 -162.978 -6.71456
      vertex 34.1172 -163.516 -8.33333
      vertex 34.1965 -163.084 -8.33333
    endloop
  endfacet
  facet normal 0.815662 -0.149797 -0.558798
    outer loop
      vertex 34.1172 -163.516 -8.33333
      vertex 35.325 -162.978 -6.71456
      vertex 34.9342 -166.129 -6.44031
    endloop
  endfacet
  facet normal 0.802059 -0.249328 -0.542713
    outer loop
      vertex 34.3676 -168.999 -5.95902
      vertex 33.3333 -168.187 -7.86062
      vertex 33.652 -166.25 -8.2795
    endloop
  endfacet
  facet normal 0.801954 -0.249567 -0.542758
    outer loop
      vertex 33.3333 -168.187 -7.86062
      vertex 34.3676 -168.999 -5.95902
      vertex 33.3333 -169.096 -7.44265
    endloop
  endfacet
  facet normal 0.802034 -0.249354 -0.542737
    outer loop
      vertex 34.9342 -166.129 -6.44031
      vertex 34.3676 -168.999 -5.95902
      vertex 33.652 -166.25 -8.2795
    endloop
  endfacet
  facet normal 0.773265 -0.370153 -0.514828
    outer loop
      vertex 33.3333 -169.434 -7.20016
      vertex 33.8662 -170.566 -5.58586
      vertex 33.3333 -170.616 -6.35032
    endloop
  endfacet
  facet normal 0.773437 -0.369501 -0.515037
    outer loop
      vertex 34.3676 -168.999 -5.95902
      vertex 33.3333 -169.434 -7.20016
      vertex 33.3333 -169.096 -7.44265
    endloop
  endfacet
  facet normal 0.773353 -0.37004 -0.514778
    outer loop
      vertex 33.3333 -169.434 -7.20016
      vertex 34.3676 -168.999 -5.95902
      vertex 33.8662 -170.566 -5.58586
    endloop
  endfacet
  facet normal 0.612072 -0.692772 -0.38136
    outer loop
      vertex 33.3333 -170.616 -6.35032
      vertex 33.8662 -170.566 -5.58586
      vertex 33.3333 -171.289 -5.12776
    endloop
  endfacet
  facet normal 0.904672 0.0559371 -0.422421
    outer loop
      vertex 36.9644 -151.262 -7.905
      vertex 36.7256 -143.2 -7.34885
      vertex 38.1239 -151.153 -5.40734
    endloop
  endfacet
  facet normal 0.904646 0.0559402 -0.422477
    outer loop
      vertex 36.7256 -143.2 -7.34885
      vertex 36.9644 -151.262 -7.905
      vertex 36.3095 -143.2 -8.23984
    endloop
  endfacet
  facet normal 0.904675 0.0559395 -0.422414
    outer loop
      vertex 37.5267 -143.2 -5.63315
      vertex 38.1239 -151.153 -5.40734
      vertex 36.7256 -143.2 -7.34885
    endloop
  endfacet
  facet normal 0.893113 -0.193431 -0.406119
    outer loop
      vertex 36.9644 -151.262 -7.905
      vertex 36.5649 -159.46 -4.87891
      vertex 35.5187 -159.559 -7.1325
    endloop
  endfacet
  facet normal 0.893091 -0.193446 -0.406161
    outer loop
      vertex 36.9644 -151.262 -7.905
      vertex 38.1239 -151.153 -5.40734
      vertex 36.5649 -159.46 -4.87891
    endloop
  endfacet
  facet normal 0.903997 -0.101969 -0.415202
    outer loop
      vertex 35.5187 -159.559 -7.1325
      vertex 36.3099 -162.885 -4.59303
      vertex 35.325 -162.978 -6.71456
    endloop
  endfacet
  facet normal 0.904002 -0.101961 -0.415192
    outer loop
      vertex 36.5649 -159.46 -4.87891
      vertex 36.3099 -162.885 -4.59303
      vertex 35.5187 -159.559 -7.1325
    endloop
  endfacet
  facet normal 0.899565 -0.147355 -0.411181
    outer loop
      vertex 35.325 -162.978 -6.71456
      vertex 35.8789 -166.04 -4.40543
      vertex 34.9342 -166.129 -6.44031
    endloop
  endfacet
  facet normal 0.899577 -0.147338 -0.411161
    outer loop
      vertex 36.3099 -162.885 -4.59303
      vertex 35.8789 -166.04 -4.40543
      vertex 35.325 -162.978 -6.71456
    endloop
  endfacet
  facet normal 0.884174 -0.241605 -0.39983
    outer loop
      vertex 34.9342 -166.129 -6.44031
      vertex 35.2417 -168.916 -4.07621
      vertex 34.3676 -168.999 -5.95902
    endloop
  endfacet
  facet normal 0.88413 -0.241662 -0.399891
    outer loop
      vertex 35.8789 -166.04 -4.40543
      vertex 35.2417 -168.916 -4.07621
      vertex 34.9342 -166.129 -6.44031
    endloop
  endfacet
  facet normal 0.851195 -0.362701 -0.379363
    outer loop
      vertex 34.3676 -168.999 -5.95902
      vertex 34.6856 -170.489 -3.82095
      vertex 33.8662 -170.566 -5.58586
    endloop
  endfacet
  facet normal 0.851326 -0.362511 -0.37925
    outer loop
      vertex 35.2417 -168.916 -4.07621
      vertex 34.6856 -170.489 -3.82095
      vertex 34.3676 -168.999 -5.95902
    endloop
  endfacet
  facet normal 0.676762 -0.679038 -0.284431
    outer loop
      vertex 33.8662 -170.566 -5.58586
      vertex 33.3333 -172.026 -3.36828
      vertex 33.3333 -171.289 -5.12776
    endloop
  endfacet
  facet normal 0.676938 -0.678914 -0.284307
    outer loop
      vertex 33.3333 -172.026 -3.36828
      vertex 33.8662 -170.566 -5.58586
      vertex 33.428 -172.017 -3.16429
    endloop
  endfacet
  facet normal 0.676619 -0.679149 -0.284506
    outer loop
      vertex 33.8662 -170.566 -5.58586
      vertex 34.6856 -170.489 -3.82095
      vertex 33.428 -172.017 -3.16429
    endloop
  endfacet
  facet normal 0.629116 -0.732633 -0.259736
    outer loop
      vertex 33.3333 -172.026 -3.36828
      vertex 33.428 -172.017 -3.16429
      vertex 33.3333 -172.114 -3.12006
    endloop
  endfacet
  facet normal 0.96376 0.0650178 -0.258726
    outer loop
      vertex 38.1239 -151.153 -5.40734
      vertex 37.7871 -143.2 -4.66334
      vertex 38.834 -151.086 -2.74537
    endloop
  endfacet
  facet normal 0.963747 0.0650216 -0.258772
    outer loop
      vertex 37.7871 -143.2 -4.66334
      vertex 38.1239 -151.153 -5.40734
      vertex 37.5267 -143.2 -5.63315
    endloop
  endfacet
  facet normal 0.963757 0.065015 -0.258737
    outer loop
      vertex 38.2715 -143.2 -2.85902
      vertex 38.834 -151.086 -2.74537
      vertex 37.7871 -143.2 -4.66334
    endloop
  endfacet
  facet normal 0.949069 -0.193911 -0.248326
    outer loop
      vertex 38.1239 -151.153 -5.40734
      vertex 37.2056 -159.4 -2.47709
      vertex 36.5649 -159.46 -4.87891
    endloop
  endfacet
  facet normal 0.94908 -0.193901 -0.248294
    outer loop
      vertex 38.1239 -151.153 -5.40734
      vertex 38.834 -151.086 -2.74537
      vertex 37.2056 -159.4 -2.47709
    endloop
  endfacet
  facet normal 0.962611 -0.092908 -0.254457
    outer loop
      vertex 36.5649 -159.46 -4.87891
      vertex 36.9131 -162.828 -2.33194
      vertex 36.3099 -162.885 -4.59303
    endloop
  endfacet
  facet normal 0.96261 -0.0929108 -0.254461
    outer loop
      vertex 37.2056 -159.4 -2.47709
      vertex 36.9131 -162.828 -2.33194
      vertex 36.5649 -159.46 -4.87891
    endloop
  endfacet
  facet normal 0.956824 -0.145667 -0.251534
    outer loop
      vertex 36.3099 -162.885 -4.59303
      vertex 36.4574 -165.985 -2.23669
      vertex 35.8789 -166.04 -4.40543
    endloop
  endfacet
  facet normal 0.956807 -0.145702 -0.251578
    outer loop
      vertex 36.9131 -162.828 -2.33194
      vertex 36.4574 -165.985 -2.23669
      vertex 36.3099 -162.885 -4.59303
    endloop
  endfacet
  facet normal 0.940284 -0.236366 -0.244941
    outer loop
      vertex 35.8789 -166.04 -4.40543
      vertex 35.777 -168.866 -2.06954
      vertex 35.2417 -168.916 -4.07621
    endloop
  endfacet
  facet normal 0.940333 -0.236281 -0.244837
    outer loop
      vertex 35.8789 -166.04 -4.40543
      vertex 36.4574 -165.985 -2.23669
      vertex 35.777 -168.866 -2.06954
    endloop
  endfacet
  facet normal 0.904545 -0.357491 -0.232376
    outer loop
      vertex 35.2417 -168.916 -4.07621
      vertex 35.1874 -170.442 -1.93995
      vertex 34.6856 -170.489 -3.82095
    endloop
  endfacet
  facet normal 0.904536 -0.357506 -0.232386
    outer loop
      vertex 35.2417 -168.916 -4.07621
      vertex 35.777 -168.866 -2.06954
      vertex 35.1874 -170.442 -1.93995
    endloop
  endfacet
  facet normal 0.721693 -0.669522 -0.175783
    outer loop
      vertex 34.6856 -170.489 -3.82095
      vertex 33.8436 -171.978 -1.60655
      vertex 33.428 -172.017 -3.16429
    endloop
  endfacet
  facet normal 0.72168 -0.669533 -0.175795
    outer loop
      vertex 34.6856 -170.489 -3.82095
      vertex 35.1874 -170.442 -1.93995
      vertex 33.8436 -171.978 -1.60655
    endloop
  endfacet
  facet normal 0.668868 -0.725961 -0.159991
    outer loop
      vertex 33.3333 -172.114 -3.12006
      vertex 33.428 -172.017 -3.16429
      vertex 33.3333 -172.142 -2.99301
    endloop
  endfacet
  facet normal 0.667928 -0.726854 -0.15986
    outer loop
      vertex 33.3333 -172.142 -2.99301
      vertex 33.8436 -171.978 -1.60655
      vertex 33.3333 -172.472 -1.49256
    endloop
  endfacet
  facet normal 0.668655 -0.726107 -0.160216
    outer loop
      vertex 33.8436 -171.978 -1.60655
      vertex 33.3333 -172.142 -2.99301
      vertex 33.428 -172.017 -3.16429
    endloop
  endfacet
  facet normal 0.99376 0.0696382 -0.087132
    outer loop
      vertex 38.834 -151.086 -2.74537
      vertex 38.3601 -143.2 -1.8476
      vertex 39.0731 -151.063 1.90735e-06
    endloop
  endfacet
  facet normal 0.993767 0.0696298 -0.0870536
    outer loop
      vertex 38.3601 -143.2 -1.8476
      vertex 38.834 -151.086 -2.74537
      vertex 38.2715 -143.2 -2.85902
    endloop
  endfacet
  facet normal 0.99376 0.0696377 -0.0871341
    outer loop
      vertex 38.5221 -143.2 1.90735e-06
      vertex 39.0731 -151.063 1.90735e-06
      vertex 38.3601 -143.2 -1.8476
    endloop
  endfacet
  facet normal 0.977408 -0.194134 -0.0835826
    outer loop
      vertex 38.834 -151.086 -2.74537
      vertex 37.4214 -159.38 1.90735e-06
      vertex 37.2056 -159.4 -2.47709
    endloop
  endfacet
  facet normal 0.97742 -0.194109 -0.0834993
    outer loop
      vertex 38.834 -151.086 -2.74537
      vertex 39.0731 -151.063 1.90735e-06
      vertex 37.4214 -159.38 1.90735e-06
    endloop
  endfacet
  facet normal 0.992399 -0.0883074 -0.0857133
    outer loop
      vertex 37.2056 -159.4 -2.47709
      vertex 37.1162 -162.809 1.90735e-06
      vertex 36.9131 -162.828 -2.33194
    endloop
  endfacet
  facet normal 0.992394 -0.0883286 -0.0857425
    outer loop
      vertex 37.2056 -159.4 -2.47709
      vertex 37.4214 -159.38 1.90735e-06
      vertex 37.1162 -162.809 1.90735e-06
    endloop
  endfacet
  facet normal 0.985822 -0.144855 -0.0846923
    outer loop
      vertex 36.9131 -162.828 -2.33194
      vertex 36.6522 -165.967 1.90735e-06
      vertex 36.4574 -165.985 -2.23669
    endloop
  endfacet
  facet normal 0.985824 -0.144846 -0.08468
    outer loop
      vertex 36.9131 -162.828 -2.33194
      vertex 37.1162 -162.809 1.90735e-06
      vertex 36.6522 -165.967 1.90735e-06
    endloop
  endfacet
  facet normal 0.968834 -0.233591 -0.0824399
    outer loop
      vertex 36.4574 -165.985 -2.23669
      vertex 35.9572 -168.849 1.90735e-06
      vertex 35.777 -168.866 -2.06954
    endloop
  endfacet
  facet normal 0.968819 -0.233633 -0.0824971
    outer loop
      vertex 36.4574 -165.985 -2.23669
      vertex 36.6522 -165.967 1.90735e-06
      vertex 35.9572 -168.849 1.90735e-06
    endloop
  endfacet
  facet normal 0.931604 -0.354957 -0.0782297
    outer loop
      vertex 35.777 -168.866 -2.06954
      vertex 35.3564 -170.426 1.90735e-06
      vertex 35.1874 -170.442 -1.93995
    endloop
  endfacet
  facet normal 0.931618 -0.354925 -0.0782028
    outer loop
      vertex 35.777 -168.866 -2.06954
      vertex 35.9572 -168.849 1.90735e-06
      vertex 35.3564 -170.426 1.90735e-06
    endloop
  endfacet
  facet normal 0.744921 -0.664532 -0.0590774
    outer loop
      vertex 35.1874 -170.442 -1.93995
      vertex 33.9835 -171.964 1.90735e-06
      vertex 33.8436 -171.978 -1.60655
    endloop
  endfacet
  facet normal 0.744696 -0.664755 -0.059392
    outer loop
      vertex 35.1874 -170.442 -1.93995
      vertex 35.3564 -170.426 1.90735e-06
      vertex 33.9835 -171.964 1.90735e-06
    endloop
  endfacet
  facet normal 0.688266 -0.723444 -0.054031
    outer loop
      vertex 33.3333 -172.472 -1.49256
      vertex 33.8436 -171.978 -1.60655
      vertex 33.3333 -172.509 -0.997152
    endloop
  endfacet
  facet normal 0.68908 -0.722644 -0.054353
    outer loop
      vertex 33.3333 -172.509 -0.997152
      vertex 33.9835 -171.964 1.90735e-06
      vertex 33.3333 -172.584 1.90735e-06
    endloop
  endfacet
  facet normal 0.688507 -0.723242 -0.0536533
    outer loop
      vertex 33.9835 -171.964 1.90735e-06
      vertex 33.3333 -172.509 -0.997152
      vertex 33.8436 -171.978 -1.60655
    endloop
  endfacet
  facet normal 0.99376 0.0696378 0.0871299
    outer loop
      vertex 38.4333 -143.2 1.01281
      vertex 39.0731 -151.063 1.90735e-06
      vertex 38.5221 -143.2 1.90735e-06
    endloop
  endfacet
  facet normal 0.99376 0.0696375 0.0871318
    outer loop
      vertex 39.0731 -151.063 1.90735e-06
      vertex 38.4333 -143.2 1.01281
      vertex 38.834 -151.086 2.74538
    endloop
  endfacet
  facet normal 0.993764 0.0696291 0.0870925
    outer loop
      vertex 38.834 -151.086 2.74538
      vertex 38.4333 -143.2 1.01281
      vertex 38.2715 -143.2 2.85902
    endloop
  endfacet
  facet normal 0.977413 -0.194108 0.0835834
    outer loop
      vertex 37.4214 -159.38 1.90735e-06
      vertex 39.0731 -151.063 1.90735e-06
      vertex 37.2056 -159.4 2.47709
    endloop
  endfacet
  facet normal 0.977415 -0.194133 0.0834985
    outer loop
      vertex 39.0731 -151.063 1.90735e-06
      vertex 38.834 -151.086 2.74538
      vertex 37.2056 -159.4 2.47709
    endloop
  endfacet
  facet normal 0.992397 -0.0883288 0.0857131
    outer loop
      vertex 37.1162 -162.809 1.90735e-06
      vertex 37.4214 -159.38 1.90735e-06
      vertex 36.9131 -162.828 2.33194
    endloop
  endfacet
  facet normal 0.992396 -0.0883085 0.085743
    outer loop
      vertex 37.4214 -159.38 1.90735e-06
      vertex 37.2056 -159.4 2.47709
      vertex 36.9131 -162.828 2.33194
    endloop
  endfacet
  facet normal 0.985823 -0.144845 0.0846923
    outer loop
      vertex 36.6522 -165.967 1.90735e-06
      vertex 37.1162 -162.809 1.90735e-06
      vertex 36.4574 -165.985 2.2367
    endloop
  endfacet
  facet normal 0.985823 -0.144854 0.0846799
    outer loop
      vertex 37.1162 -162.809 1.90735e-06
      vertex 36.9131 -162.828 2.33194
      vertex 36.4574 -165.985 2.2367
    endloop
  endfacet
  facet normal 0.968824 -0.233634 0.0824384
    outer loop
      vertex 35.9572 -168.849 1.90735e-06
      vertex 36.6522 -165.967 1.90735e-06
      vertex 35.777 -168.866 2.06955
    endloop
  endfacet
  facet normal 0.968828 -0.233593 0.082498
    outer loop
      vertex 36.6522 -165.967 1.90735e-06
      vertex 36.4574 -165.985 2.2367
      vertex 35.777 -168.866 2.06955
    endloop
  endfacet
  facet normal 0.931616 -0.354924 0.0782311
    outer loop
      vertex 35.3564 -170.426 1.90735e-06
      vertex 35.9572 -168.849 1.90735e-06
      vertex 35.1874 -170.442 1.93995
    endloop
  endfacet
  facet normal 0.931607 -0.354956 0.0782013
    outer loop
      vertex 35.9572 -168.849 1.90735e-06
      vertex 35.777 -168.866 2.06955
      vertex 35.1874 -170.442 1.93995
    endloop
  endfacet
  facet normal 0.744711 -0.664769 0.0590573
    outer loop
      vertex 33.9835 -171.964 1.90735e-06
      vertex 35.3564 -170.426 1.90735e-06
      vertex 33.8436 -171.978 1.60655
    endloop
  endfacet
  facet normal 0.74487 -0.664559 0.0594089
    outer loop
      vertex 35.3564 -170.426 1.90735e-06
      vertex 35.1874 -170.442 1.93995
      vertex 33.8436 -171.978 1.60655
    endloop
  endfacet
  facet normal 0.689092 -0.722657 0.0540249
    outer loop
      vertex 33.9835 -171.964 1.90735e-06
      vertex 33.3333 -172.545 0.521681
      vertex 33.3333 -172.584 1.90735e-06
    endloop
  endfacet
  facet normal 0.68821 -0.723469 0.0543968
    outer loop
      vertex 33.3333 -172.545 0.521681
      vertex 33.8436 -171.978 1.60655
      vertex 33.3333 -172.472 1.49257
    endloop
  endfacet
  facet normal 0.688962 -0.722806 0.0536968
    outer loop
      vertex 33.8436 -171.978 1.60655
      vertex 33.3333 -172.545 0.521681
      vertex 33.9835 -171.964 1.90735e-06
    endloop
  endfacet
  facet normal 0.963749 0.0650142 0.258769
    outer loop
      vertex 38.01 -143.2 3.83294
      vertex 38.834 -151.086 2.74538
      vertex 38.2715 -143.2 2.85902
    endloop
  endfacet
  facet normal 0.96376 0.0650211 0.258727
    outer loop
      vertex 38.834 -151.086 2.74538
      vertex 38.01 -143.2 3.83294
      vertex 38.1239 -151.153 5.40734
    endloop
  endfacet
  facet normal 0.963756 0.0650232 0.258738
    outer loop
      vertex 38.1239 -151.153 5.40734
      vertex 38.01 -143.2 3.83294
      vertex 37.5267 -143.2 5.63315
    endloop
  endfacet
  facet normal 0.949072 -0.193901 0.248326
    outer loop
      vertex 37.2056 -159.4 2.47709
      vertex 38.834 -151.086 2.74538
      vertex 36.5649 -159.46 4.87892
    endloop
  endfacet
  facet normal 0.949078 -0.193911 0.248294
    outer loop
      vertex 38.834 -151.086 2.74538
      vertex 38.1239 -151.153 5.40734
      vertex 36.5649 -159.46 4.87892
    endloop
  endfacet
  facet normal 0.962611 -0.0929108 0.254457
    outer loop
      vertex 36.9131 -162.828 2.33194
      vertex 37.2056 -159.4 2.47709
      vertex 36.3099 -162.885 4.59303
    endloop
  endfacet
  facet normal 0.96261 -0.0929089 0.25446
    outer loop
      vertex 37.2056 -159.4 2.47709
      vertex 36.5649 -159.46 4.87892
      vertex 36.3099 -162.885 4.59303
    endloop
  endfacet
  facet normal 0.956819 -0.145701 0.251533
    outer loop
      vertex 36.4574 -165.985 2.2367
      vertex 36.9131 -162.828 2.33194
      vertex 35.8789 -166.04 4.40543
    endloop
  endfacet
  facet normal 0.956811 -0.145668 0.25158
    outer loop
      vertex 36.9131 -162.828 2.33194
      vertex 36.3099 -162.885 4.59303
      vertex 35.8789 -166.04 4.40543
    endloop
  endfacet
  facet normal 0.940304 -0.236281 0.24495
    outer loop
      vertex 35.777 -168.866 2.06955
      vertex 36.4574 -165.985 2.2367
      vertex 35.2417 -168.916 4.07621
    endloop
  endfacet
  facet normal 0.940315 -0.23636 0.244831
    outer loop
      vertex 36.4574 -165.985 2.2367
      vertex 35.8789 -166.04 4.40543
      vertex 35.2417 -168.916 4.07621
    endloop
  endfacet
  facet normal 0.904539 -0.357508 0.232372
    outer loop
      vertex 35.1874 -170.442 1.93995
      vertex 35.777 -168.866 2.06955
      vertex 34.6856 -170.489 3.82096
    endloop
  endfacet
  facet normal 0.904542 -0.357491 0.232389
    outer loop
      vertex 35.777 -168.866 2.06955
      vertex 35.2417 -168.916 4.07621
      vertex 34.6856 -170.489 3.82096
    endloop
  endfacet
  facet normal 0.721683 -0.669533 0.17578
    outer loop
      vertex 33.8436 -171.978 1.60655
      vertex 35.1874 -170.442 1.93995
      vertex 33.428 -172.017 3.16429
    endloop
  endfacet
  facet normal 0.721687 -0.669525 0.175796
    outer loop
      vertex 35.1874 -170.442 1.93995
      vertex 34.6856 -170.489 3.82096
      vertex 33.428 -172.017 3.16429
    endloop
  endfacet
  facet normal 0.667753 -0.726847 0.160623
    outer loop
      vertex 33.8436 -171.978 1.60655
      vertex 33.3333 -172.389 1.86816
      vertex 33.3333 -172.472 1.49257
    endloop
  endfacet
  facet normal 0.669068 -0.725894 0.159453
    outer loop
      vertex 33.3333 -172.389 1.86816
      vertex 33.428 -172.017 3.16429
      vertex 33.3333 -172.114 3.12007
    endloop
  endfacet
  facet normal 0.667617 -0.727128 0.159913
    outer loop
      vertex 33.428 -172.017 3.16429
      vertex 33.3333 -172.389 1.86816
      vertex 33.8436 -171.978 1.60655
    endloop
  endfacet
  facet normal 0.904652 0.0559363 0.422465
    outer loop
      vertex 37.1075 -143.2 6.53081
      vertex 38.1239 -151.153 5.40734
      vertex 37.5267 -143.2 5.63315
    endloop
  endfacet
  facet normal 0.904671 0.055945 0.422421
    outer loop
      vertex 38.1239 -151.153 5.40734
      vertex 37.1075 -143.2 6.53081
      vertex 36.9644 -151.262 7.905
    endloop
  endfacet
  facet normal 0.904673 0.0559444 0.422418
    outer loop
      vertex 36.9644 -151.262 7.905
      vertex 37.1075 -143.2 6.53081
      vertex 36.3095 -143.2 8.23985
    endloop
  endfacet
  facet normal 0.89311 -0.193447 0.406119
    outer loop
      vertex 36.5649 -159.46 4.87892
      vertex 38.1239 -151.153 5.40734
      vertex 35.5187 -159.559 7.1325
    endloop
  endfacet
  facet normal 0.893093 -0.193432 0.406163
    outer loop
      vertex 38.1239 -151.153 5.40734
      vertex 36.9644 -151.262 7.905
      vertex 35.5187 -159.559 7.1325
    endloop
  endfacet
  facet normal 0.903997 -0.101962 0.415202
    outer loop
      vertex 36.3099 -162.885 4.59303
      vertex 36.5649 -159.46 4.87892
      vertex 35.325 -162.978 6.71456
    endloop
  endfacet
  facet normal 0.904001 -0.101969 0.415193
    outer loop
      vertex 36.5649 -159.46 4.87892
      vertex 35.5187 -159.559 7.1325
      vertex 35.325 -162.978 6.71456
    endloop
  endfacet
  facet normal 0.899567 -0.147338 0.411183
    outer loop
      vertex 35.8789 -166.04 4.40543
      vertex 36.3099 -162.885 4.59303
      vertex 34.9342 -166.129 6.44031
    endloop
  endfacet
  facet normal 0.899575 -0.147355 0.411159
    outer loop
      vertex 36.3099 -162.885 4.59303
      vertex 35.325 -162.978 6.71456
      vertex 34.9342 -166.129 6.44031
    endloop
  endfacet
  facet normal 0.884163 -0.241661 0.39982
    outer loop
      vertex 35.2417 -168.916 4.07621
      vertex 35.8789 -166.04 4.40543
      vertex 34.3676 -168.999 5.95903
    endloop
  endfacet
  facet normal 0.884142 -0.241609 0.399898
    outer loop
      vertex 35.8789 -166.04 4.40543
      vertex 34.9342 -166.129 6.44031
      vertex 34.3676 -168.999 5.95903
    endloop
  endfacet
  facet normal 0.851259 -0.362509 0.379401
    outer loop
      vertex 34.6856 -170.489 3.82096
      vertex 35.2417 -168.916 4.07621
      vertex 33.8662 -170.566 5.58587
    endloop
  endfacet
  facet normal 0.851267 -0.362688 0.379213
    outer loop
      vertex 35.2417 -168.916 4.07621
      vertex 34.3676 -168.999 5.95903
      vertex 33.8662 -170.566 5.58587
    endloop
  endfacet
  facet normal 0.676684 -0.679128 0.2844
    outer loop
      vertex 33.3333 -172.026 3.36829
      vertex 34.6856 -170.489 3.82096
      vertex 33.3333 -171.601 4.38316
    endloop
  endfacet
  facet normal 0.67676 -0.679136 0.284201
    outer loop
      vertex 34.6856 -170.489 3.82096
      vertex 33.3333 -172.026 3.36829
      vertex 33.428 -172.017 3.16429
    endloop
  endfacet
  facet normal 0.676695 -0.67906 0.284538
    outer loop
      vertex 33.3333 -171.601 4.38316
      vertex 33.8662 -170.566 5.58587
      vertex 33.3333 -171.289 5.12776
    endloop
  endfacet
  facet normal 0.67669 -0.679063 0.284542
    outer loop
      vertex 33.8662 -170.566 5.58587
      vertex 33.3333 -171.601 4.38316
      vertex 34.6856 -170.489 3.82096
    endloop
  endfacet
  facet normal 0.628576 -0.732651 0.26099
    outer loop
      vertex 33.428 -172.017 3.16429
      vertex 33.3333 -172.089 3.19025
      vertex 33.3333 -172.114 3.12007
    endloop
  endfacet
  facet normal 0.628572 -0.733202 0.259446
    outer loop
      vertex 33.428 -172.017 3.16429
      vertex 33.3333 -172.026 3.36829
      vertex 33.3333 -172.089 3.19025
    endloop
  endfacet
  facet normal 0.818223 0.0426543 0.573316
    outer loop
      vertex 36.244 -143.2 8.33333
      vertex 36.9644 -151.262 7.905
      vertex 36.3095 -143.2 8.23985
    endloop
  endfacet
  facet normal 0.818281 0.0426639 0.573234
    outer loop
      vertex 36.9644 -151.262 7.905
      vertex 36.244 -143.2 8.33333
      vertex 36.6658 -151.29 8.33333
    endloop
  endfacet
  facet normal 0.810837 -0.192736 0.552626
    outer loop
      vertex 35.9936 -154.118 8.33333
      vertex 35.5187 -159.559 7.1325
      vertex 36.9644 -151.262 7.905
    endloop
  endfacet
  facet normal 0.810839 -0.192736 0.552624
    outer loop
      vertex 35.5187 -159.559 7.1325
      vertex 35.9936 -154.118 8.33333
      vertex 34.6815 -159.638 8.33333
    endloop
  endfacet
  facet normal 0.810824 -0.192728 0.552648
    outer loop
      vertex 36.9644 -151.262 7.905
      vertex 36.6658 -151.29 8.33333
      vertex 35.9936 -154.118 8.33333
    endloop
  endfacet
  facet normal 0.81841 -0.115184 0.562973
    outer loop
      vertex 34.2931 -162.398 8.33333
      vertex 35.325 -162.978 6.71456
      vertex 35.5187 -159.559 7.1325
    endloop
  endfacet
  facet normal 0.818394 -0.115243 0.562984
    outer loop
      vertex 35.325 -162.978 6.71456
      vertex 34.2931 -162.398 8.33333
      vertex 34.1965 -163.084 8.33333
    endloop
  endfacet
  facet normal 0.818396 -0.115168 0.562996
    outer loop
      vertex 35.5187 -159.559 7.1325
      vertex 34.6815 -159.638 8.33333
      vertex 34.2931 -162.398 8.33333
    endloop
  endfacet
  facet normal 0.815669 -0.149797 0.558789
    outer loop
      vertex 34.9342 -166.129 6.44031
      vertex 35.325 -162.978 6.71456
      vertex 33.652 -166.25 8.27951
    endloop
  endfacet
  facet normal 0.815654 -0.149795 0.558811
    outer loop
      vertex 33.7034 -165.769 8.33333
      vertex 35.325 -162.978 6.71456
      vertex 34.1965 -163.084 8.33333
    endloop
  endfacet
  facet normal 0.815594 -0.149694 0.558925
    outer loop
      vertex 35.325 -162.978 6.71456
      vertex 33.7034 -165.769 8.33333
      vertex 33.652 -166.25 8.27951
    endloop
  endfacet
  facet normal 0.802016 -0.249353 0.542764
    outer loop
      vertex 33.3333 -168.852 7.5549
      vertex 34.3676 -168.999 5.95903
      vertex 34.9342 -166.129 6.44031
    endloop
  endfacet
  facet normal 0.801931 -0.249682 0.542739
    outer loop
      vertex 34.3676 -168.999 5.95903
      vertex 33.3333 -168.852 7.5549
      vertex 33.3333 -169.096 7.44265
    endloop
  endfacet
  facet normal 0.802039 -0.249333 0.542739
    outer loop
      vertex 33.3333 -168.187 7.86062
      vertex 34.9342 -166.129 6.44031
      vertex 33.652 -166.25 8.27951
    endloop
  endfacet
  facet normal 0.802086 -0.249456 0.542614
    outer loop
      vertex 34.9342 -166.129 6.44031
      vertex 33.3333 -168.187 7.86062
      vertex 33.3333 -168.852 7.5549
    endloop
  endfacet
  facet normal 0.773385 -0.370039 0.51473
    outer loop
      vertex 33.3333 -170.071 6.74241
      vertex 33.8662 -170.566 5.58587
      vertex 34.3676 -168.999 5.95903
    endloop
  endfacet
  facet normal 0.773204 -0.370348 0.514779
    outer loop
      vertex 33.8662 -170.566 5.58587
      vertex 33.3333 -170.071 6.74241
      vertex 33.3333 -170.616 6.35032
    endloop
  endfacet
  facet normal 0.773337 -0.369834 0.514949
    outer loop
      vertex 34.3676 -168.999 5.95903
      vertex 33.3333 -169.096 7.44265
      vertex 33.3333 -170.071 6.74241
    endloop
  endfacet
  facet normal 0.612221 -0.692755 0.381151
    outer loop
      vertex 33.8662 -170.566 5.58587
      vertex 33.3333 -170.985 5.68029
      vertex 33.3333 -171.289 5.12776
    endloop
  endfacet
  facet normal 0.612176 -0.692631 0.381447
    outer loop
      vertex 33.8662 -170.566 5.58587
      vertex 33.3333 -170.616 6.35032
      vertex 33.3333 -170.985 5.68029
    endloop
  endfacet
  facet normal 0.707945 -0.152805 0.68954
    outer loop
      vertex 33.652 -166.25 8.27951
      vertex 33.7034 -165.769 8.33333
      vertex 33.5985 -166.255 8.33333
    endloop
  endfacet
  facet normal 0.69771 -0.260019 0.667526
    outer loop
      vertex 33.3333 -166.967 8.33333
      vertex 33.652 -166.25 8.27951
      vertex 33.5297 -166.44 8.33333
    endloop
  endfacet
  facet normal 0.696367 -0.259296 0.669208
    outer loop
      vertex 33.652 -166.25 8.27951
      vertex 33.3333 -166.967 8.33333
      vertex 33.3333 -168.187 7.86062
    endloop
  endfacet
  facet normal 0.69691 -0.259175 0.668689
    outer loop
      vertex 33.652 -166.25 8.27951
      vertex 33.5985 -166.255 8.33333
      vertex 33.5297 -166.44 8.33333
    endloop
  endfacet
endsolid OpenSCAD_Model
