solid OpenSCAD_Model
  facet normal 1 0 0
    outer loop
      vertex 18.6667 -145.091 4.53429
      vertex 18.6667 -144.684 7.66667
      vertex 18.6667 -145.091 7.2003
    endloop
  endfacet
  facet normal 1 0 0
    outer loop
      vertex 18.6667 -145.091 4.17174
      vertex 18.6667 -144.684 7.66667
      vertex 18.6667 -145.091 4.53429
    endloop
  endfacet
  facet normal 1 0 0
    outer loop
      vertex 18.6667 -144.684 7.66667
      vertex 18.6667 -145.091 4.17174
      vertex 18.6667 -145.091 0.469599
    endloop
  endfacet
  facet normal 1 0 0
    outer loop
      vertex 18.6667 -145.091 0.469599
      vertex 18.6667 -122.5 7.66667
      vertex 18.6667 -144.684 7.66667
    endloop
  endfacet
  facet normal 1 0 0
    outer loop
      vertex 18.6667 -122.5 7.66667
      vertex 18.6667 -145.091 0.469599
      vertex 18.6667 -122.5 -7.66667
    endloop
  endfacet
  facet normal 1 -0 0
    outer loop
      vertex 18.6667 -145.091 -2.71363
      vertex 18.6667 -122.5 -7.66667
      vertex 18.6667 -145.091 0.469599
    endloop
  endfacet
  facet normal 1 -0 0
    outer loop
      vertex 18.6667 -145.091 -7.35121
      vertex 18.6667 -122.5 -7.66667
      vertex 18.6667 -145.091 -2.71363
    endloop
  endfacet
  facet normal 1 0 0
    outer loop
      vertex 18.6667 -122.5 -7.66667
      vertex 18.6667 -145.091 -7.35121
      vertex 18.6667 -145.091 -7.66667
    endloop
  endfacet
  facet normal 0 0 1
    outer loop
      vertex 18.6667 -122.5 7.66667
      vertex 17.2278 -141.993 7.66667
      vertex 18.6667 -144.684 7.66667
    endloop
  endfacet
  facet normal 0 0 1
    outer loop
      vertex 18.6667 -122.5 7.66667
      vertex 13.5915 -135.197 7.66667
      vertex 17.2278 -141.993 7.66667
    endloop
  endfacet
  facet normal 0 0 1
    outer loop
      vertex 18.6667 -122.5 7.66667
      vertex 12.4793 -132.806 7.66667
      vertex 13.5915 -135.197 7.66667
    endloop
  endfacet
  facet normal 0 0 1
    outer loop
      vertex 18.6667 -122.5 7.66667
      vertex 9.93915 -127.293 7.66667
      vertex 12.4793 -132.806 7.66667
    endloop
  endfacet
  facet normal 0 0 1
    outer loop
      vertex 18.6667 -122.5 7.66667
      vertex 8.77302 -124.086 7.66667
      vertex 9.93915 -127.293 7.66667
    endloop
  endfacet
  facet normal 0 -0 1
    outer loop
      vertex 8.77302 -124.086 7.66667
      vertex 18.6667 -122.5 7.66667
      vertex 8.20175 -122.5 7.66667
    endloop
  endfacet
  facet normal 0 0 -1
    outer loop
      vertex 12.6786 -136.153 -7.66667
      vertex 18.6667 -145.091 -7.66667
      vertex 18.4805 -145.201 -7.66667
    endloop
  endfacet
  facet normal 0 0 -1
    outer loop
      vertex 12.6786 -136.153 -7.66667
      vertex 18.4805 -145.201 -7.66667
      vertex 18.2511 -145.336 -7.66667
    endloop
  endfacet
  facet normal 0 0 -1
    outer loop
      vertex 12.6786 -136.153 -7.66667
      vertex 18.2511 -145.336 -7.66667
      vertex 18.0265 -145.469 -7.66667
    endloop
  endfacet
  facet normal 0 0 -1
    outer loop
      vertex 12.6786 -136.153 -7.66667
      vertex 18.0265 -145.469 -7.66667
      vertex 17.8187 -145.591 -7.66667
    endloop
  endfacet
  facet normal 0 0 -1
    outer loop
      vertex 12.6786 -136.153 -7.66667
      vertex 17.8187 -145.591 -7.66667
      vertex 17.7798 -145.614 -7.66667
    endloop
  endfacet
  facet normal 0 0 -1
    outer loop
      vertex 12.6786 -136.153 -7.66667
      vertex 17.7798 -145.614 -7.66667
      vertex 17.7501 -145.632 -7.66667
    endloop
  endfacet
  facet normal 0 0 -1
    outer loop
      vertex 18.6667 -145.091 -7.66667
      vertex 12.6786 -136.153 -7.66667
      vertex 18.6667 -122.5 -7.66667
    endloop
  endfacet
  facet normal 0 0 -1
    outer loop
      vertex 12.4503 -135.727 -7.66667
      vertex 18.6667 -122.5 -7.66667
      vertex 12.6786 -136.153 -7.66667
    endloop
  endfacet
  facet normal 0 0 -1
    outer loop
      vertex 8.90973 -128.048 -7.66667
      vertex 18.6667 -122.5 -7.66667
      vertex 12.4503 -135.727 -7.66667
    endloop
  endfacet
  facet normal 0 0 -1
    outer loop
      vertex 8.75036 -127.703 -7.66667
      vertex 18.6667 -122.5 -7.66667
      vertex 8.90973 -128.048 -7.66667
    endloop
  endfacet
  facet normal -0 0 -1
    outer loop
      vertex 18.6667 -122.5 -7.66667
      vertex 8.75036 -127.703 -7.66667
      vertex 6.87495 -122.5 -7.66667
    endloop
  endfacet
  facet normal 0 1 0
    outer loop
      vertex 18.6667 -122.5 7.66667
      vertex 6.36968 -122.5 3.45659
      vertex 8.20175 -122.5 7.66667
    endloop
  endfacet
  facet normal 0 1 0
    outer loop
      vertex 18.6667 -122.5 7.66667
      vertex 6.20404 -122.5 2.87724
      vertex 6.36968 -122.5 3.45659
    endloop
  endfacet
  facet normal 0 1 0
    outer loop
      vertex 5.9744 -122.5 0.602117
      vertex 6.20404 -122.5 2.87724
      vertex 18.6667 -122.5 7.66667
    endloop
  endfacet
  facet normal -0 1 0
    outer loop
      vertex 5.97821 -122.5 1.93414
      vertex 6.20404 -122.5 2.87724
      vertex 5.9744 -122.5 0.602117
    endloop
  endfacet
  facet normal 0 1 0
    outer loop
      vertex 6.20404 -122.5 2.87724
      vertex 5.97821 -122.5 1.93414
      vertex 6.0318 -122.5 2.2712
    endloop
  endfacet
  facet normal 0 1 0
    outer loop
      vertex 6.0318 -122.5 2.2712
      vertex 5.97821 -122.5 1.93414
      vertex 6.01434 -122.5 2.18124
    endloop
  endfacet
  facet normal 0 1 0
    outer loop
      vertex 6.01434 -122.5 2.18124
      vertex 5.97821 -122.5 1.93414
      vertex 5.99588 -122.5 2.08553
    endloop
  endfacet
  facet normal 0 1 0
    outer loop
      vertex 5.97821 -122.5 1.93414
      vertex 5.9744 -122.5 0.602117
      vertex 5.95945 -122.5 1.77248
    endloop
  endfacet
  facet normal 0 1 0
    outer loop
      vertex 18.6667 -122.5 7.66667
      vertex 5.99026 -122.5 -0.647524
      vertex 5.9744 -122.5 0.602117
    endloop
  endfacet
  facet normal 0 1 -0
    outer loop
      vertex 18.6667 -122.5 -7.66667
      vertex 5.99026 -122.5 -0.647524
      vertex 18.6667 -122.5 7.66667
    endloop
  endfacet
  facet normal 0 1 0
    outer loop
      vertex 5.99026 -122.5 -0.647524
      vertex 18.6667 -122.5 -7.66667
      vertex 6.12142 -122.5 -2.21336
    endloop
  endfacet
  facet normal 0 1 0
    outer loop
      vertex 6.12142 -122.5 -2.21336
      vertex 18.6667 -122.5 -7.66667
      vertex 6.25835 -122.5 -3.85782
    endloop
  endfacet
  facet normal 0 1 0
    outer loop
      vertex 6.25835 -122.5 -3.85782
      vertex 18.6667 -122.5 -7.66667
      vertex 6.48357 -122.5 -5.41895
    endloop
  endfacet
  facet normal 0 1 0
    outer loop
      vertex 6.48357 -122.5 -5.41895
      vertex 18.6667 -122.5 -7.66667
      vertex 6.70994 -122.5 -6.99738
    endloop
  endfacet
  facet normal 0 1 0
    outer loop
      vertex 6.70994 -122.5 -6.99738
      vertex 18.6667 -122.5 -7.66667
      vertex 6.78692 -122.5 -7.31628
    endloop
  endfacet
  facet normal 0 1 -0
    outer loop
      vertex 6.87495 -122.5 -7.66667
      vertex 6.78692 -122.5 -7.31628
      vertex 18.6667 -122.5 -7.66667
    endloop
  endfacet
  facet normal 0 1 0
    outer loop
      vertex 6.78692 -122.5 -7.31628
      vertex 6.87495 -122.5 -7.66667
      vertex 6.8621 -122.5 -7.62961
    endloop
  endfacet
  facet normal -0.870683 -0.313616 0.378889
    outer loop
      vertex 6.36968 -122.5 3.45659
      vertex 8.77302 -124.086 7.66667
      vertex 8.20175 -122.5 7.66667
    endloop
  endfacet
  facet normal -0.870683 -0.313613 0.37889
    outer loop
      vertex 8.77302 -124.086 7.66667
      vertex 6.36968 -122.5 3.45659
      vertex 8.29959 -127.858 3.45659
    endloop
  endfacet
  facet normal -0.868984 -0.31598 0.380819
    outer loop
      vertex 8.77302 -124.086 7.66667
      vertex 8.29959 -127.858 3.45659
      vertex 9.93915 -127.293 7.66667
    endloop
  endfacet
  facet normal -0.908952 -0.327218 0.258329
    outer loop
      vertex 6.20404 -122.5 2.87724
      vertex 6.0318 -122.5 2.2712
      vertex 7.99809 -127.962 2.2712
    endloop
  endfacet
  facet normal -0.908535 -0.327247 0.259756
    outer loop
      vertex 6.20404 -122.5 2.87724
      vertex 8.29959 -127.858 3.45659
      vertex 6.36968 -122.5 3.45659
    endloop
  endfacet
  facet normal -0.908527 -0.32724 0.259791
    outer loop
      vertex 8.29959 -127.858 3.45659
      vertex 6.20404 -122.5 2.87724
      vertex 7.99809 -127.962 2.2712
    endloop
  endfacet
  facet normal -0.925774 -0.333257 0.178558
    outer loop
      vertex 6.01434 -122.5 2.18124
      vertex 5.99588 -122.5 2.08553
      vertex 7.96603 -127.973 2.08553
    endloop
  endfacet
  facet normal -0.925583 -0.333205 0.179643
    outer loop
      vertex 6.01434 -122.5 2.18124
      vertex 7.99809 -127.962 2.2712
      vertex 6.0318 -122.5 2.2712
    endloop
  endfacet
  facet normal -0.925595 -0.333211 0.179565
    outer loop
      vertex 7.99809 -127.962 2.2712
      vertex 6.01434 -122.5 2.18124
      vertex 7.96603 -127.973 2.08553
    endloop
  endfacet
  facet normal -0.935337 -0.336694 0.108542
    outer loop
      vertex 5.97821 -122.5 1.93414
      vertex 5.95945 -122.5 1.77248
      vertex 7.93353 -127.984 1.77248
    endloop
  endfacet
  facet normal -0.935272 -0.336676 0.109163
    outer loop
      vertex 5.97821 -122.5 1.93414
      vertex 7.96603 -127.973 2.08553
      vertex 5.99588 -122.5 2.08553
    endloop
  endfacet
  facet normal -0.935294 -0.33669 0.10893
    outer loop
      vertex 7.96603 -127.973 2.08553
      vertex 5.97821 -122.5 1.93414
      vertex 7.93353 -127.984 1.77248
    endloop
  endfacet
  facet normal -0.940833 -0.338659 -0.0119407
    outer loop
      vertex 7.96102 -127.975 -0.647524
      vertex 5.9744 -122.5 0.602117
      vertex 5.99026 -122.5 -0.647524
    endloop
  endfacet
  facet normal -0.940834 -0.338658 -0.0119469
    outer loop
      vertex 7.93353 -127.984 1.77248
      vertex 5.9744 -122.5 0.602117
      vertex 7.96102 -127.975 -0.647524
    endloop
  endfacet
  facet normal -0.940828 -0.338671 -0.012018
    outer loop
      vertex 5.9744 -122.5 0.602117
      vertex 7.93353 -127.984 1.77248
      vertex 5.95945 -122.5 1.77248
    endloop
  endfacet
  facet normal -0.93797 -0.337805 -0.0781024
    outer loop
      vertex 8.20025 -127.892 -3.85782
      vertex 6.12142 -122.5 -2.21336
      vertex 6.25835 -122.5 -3.85782
    endloop
  endfacet
  facet normal -0.937982 -0.337649 -0.0786278
    outer loop
      vertex 7.96102 -127.975 -0.647524
      vertex 6.12142 -122.5 -2.21336
      vertex 8.20025 -127.892 -3.85782
    endloop
  endfacet
  facet normal -0.937992 -0.337636 -0.0785695
    outer loop
      vertex 6.12142 -122.5 -2.21336
      vertex 7.96102 -127.975 -0.647524
      vertex 5.99026 -122.5 -0.647524
    endloop
  endfacet
  facet normal -0.932317 -0.336017 -0.133708
    outer loop
      vertex 8.60318 -127.753 -6.99738
      vertex 6.48357 -122.5 -5.41895
      vertex 6.70994 -122.5 -6.99738
    endloop
  endfacet
  facet normal -0.932292 -0.335765 -0.134516
    outer loop
      vertex 8.20025 -127.892 -3.85782
      vertex 6.48357 -122.5 -5.41895
      vertex 8.60318 -127.753 -6.99738
    endloop
  endfacet
  facet normal -0.932295 -0.335761 -0.1345
    outer loop
      vertex 6.48357 -122.5 -5.41895
      vertex 8.20025 -127.892 -3.85782
      vertex 6.25835 -122.5 -3.85782
    endloop
  endfacet
  facet normal -0.917667 -0.330767 -0.220184
    outer loop
      vertex 8.73893 -127.707 -7.62961
      vertex 6.78692 -122.5 -7.31628
      vertex 6.8621 -122.5 -7.62961
    endloop
  endfacet
  facet normal -0.917421 -0.330598 -0.221458
    outer loop
      vertex 8.73893 -127.707 -7.62961
      vertex 6.70994 -122.5 -6.99738
      vertex 6.78692 -122.5 -7.31628
    endloop
  endfacet
  facet normal -0.91749 -0.330674 -0.221059
    outer loop
      vertex 6.70994 -122.5 -6.99738
      vertex 8.73893 -127.707 -7.62961
      vertex 8.60318 -127.753 -6.99738
    endloop
  endfacet
  facet normal -0.894374 -0.322375 -0.310111
    outer loop
      vertex 8.75036 -127.703 -7.66667
      vertex 6.8621 -122.5 -7.62961
      vertex 6.87495 -122.5 -7.66667
    endloop
  endfacet
  facet normal -0.89423 -0.322319 -0.310586
    outer loop
      vertex 6.8621 -122.5 -7.62961
      vertex 8.75036 -127.703 -7.66667
      vertex 8.73893 -127.707 -7.62961
    endloop
  endfacet
  facet normal -0.840383 -0.387212 0.379241
    outer loop
      vertex 8.29959 -127.858 3.45659
      vertex 12.4793 -132.806 7.66667
      vertex 9.93915 -127.293 7.66667
    endloop
  endfacet
  facet normal -0.840383 -0.387219 0.379233
    outer loop
      vertex 12.4793 -132.806 7.66667
      vertex 8.29959 -127.858 3.45659
      vertex 12.0175 -135.927 3.45659
    endloop
  endfacet
  facet normal -0.838307 -0.389948 0.381028
    outer loop
      vertex 12.4793 -132.806 7.66667
      vertex 12.0175 -135.927 3.45659
      vertex 13.5915 -135.197 7.66667
    endloop
  endfacet
  facet normal -0.877418 -0.404047 0.258617
    outer loop
      vertex 8.29959 -127.858 3.45659
      vertex 7.99809 -127.962 2.2712
      vertex 11.7281 -136.062 2.2712
    endloop
  endfacet
  facet normal -0.876962 -0.404073 0.260119
    outer loop
      vertex 12.0175 -135.927 3.45659
      vertex 8.29959 -127.858 3.45659
      vertex 11.7281 -136.062 2.2712
    endloop
  endfacet
  facet normal -0.893704 -0.411533 0.178699
    outer loop
      vertex 7.99809 -127.962 2.2712
      vertex 7.96603 -127.973 2.08553
      vertex 11.6973 -136.076 2.08553
    endloop
  endfacet
  facet normal -0.893606 -0.411501 0.179265
    outer loop
      vertex 11.7281 -136.062 2.2712
      vertex 7.99809 -127.962 2.2712
      vertex 11.6973 -136.076 2.08553
    endloop
  endfacet
  facet normal -0.903 -0.415753 0.108356
    outer loop
      vertex 7.96603 -127.973 2.08553
      vertex 7.93353 -127.984 1.77248
      vertex 11.6661 -136.091 1.77248
    endloop
  endfacet
  facet normal -0.902823 -0.415732 0.1099
    outer loop
      vertex 11.6973 -136.076 2.08553
      vertex 7.96603 -127.973 2.08553
      vertex 11.6661 -136.091 1.77248
    endloop
  endfacet
  facet normal -0.908252 -0.418255 -0.0118728
    outer loop
      vertex 11.6925 -136.078 -0.647524
      vertex 7.93353 -127.984 1.77248
      vertex 7.96102 -127.975 -0.647524
    endloop
  endfacet
  facet normal -0.908281 -0.418184 -0.0121549
    outer loop
      vertex 11.6661 -136.091 1.77248
      vertex 7.93353 -127.984 1.77248
      vertex 11.6925 -136.078 -0.647524
    endloop
  endfacet
  facet normal -0.905489 -0.417091 -0.0782603
    outer loop
      vertex 11.9221 -135.972 -3.85782
      vertex 7.96102 -127.975 -0.647524
      vertex 8.20025 -127.892 -3.85782
    endloop
  endfacet
  facet normal -0.905511 -0.416993 -0.0785306
    outer loop
      vertex 11.6925 -136.078 -0.647524
      vertex 7.96102 -127.975 -0.647524
      vertex 11.9221 -135.972 -3.85782
    endloop
  endfacet
  facet normal -0.899978 -0.414872 -0.133871
    outer loop
      vertex 12.309 -135.792 -6.99738
      vertex 8.20025 -127.892 -3.85782
      vertex 8.60318 -127.753 -6.99738
    endloop
  endfacet
  facet normal -0.9 -0.414562 -0.134678
    outer loop
      vertex 11.9221 -135.972 -3.85782
      vertex 8.20025 -127.892 -3.85782
      vertex 12.309 -135.792 -6.99738
    endloop
  endfacet
  facet normal -0.885874 -0.408481 -0.219932
    outer loop
      vertex 12.4393 -135.732 -7.62961
      vertex 8.60318 -127.753 -6.99738
      vertex 8.73893 -127.707 -7.62961
    endloop
  endfacet
  facet normal -0.885641 -0.408263 -0.221272
    outer loop
      vertex 12.309 -135.792 -6.99738
      vertex 8.60318 -127.753 -6.99738
      vertex 12.4393 -135.732 -7.62961
    endloop
  endfacet
  facet normal -0.863304 -0.398796 -0.309302
    outer loop
      vertex 8.90973 -128.048 -7.66667
      vertex 8.73893 -127.707 -7.62961
      vertex 8.75036 -127.703 -7.66667
    endloop
  endfacet
  facet normal -0.86339 -0.398085 -0.309976
    outer loop
      vertex 12.4393 -135.732 -7.62961
      vertex 8.90973 -128.048 -7.66667
      vertex 12.4503 -135.727 -7.66667
    endloop
  endfacet
  facet normal -0.861763 -0.397363 -0.315385
    outer loop
      vertex 8.90973 -128.048 -7.66667
      vertex 12.4393 -135.732 -7.62961
      vertex 8.73893 -127.707 -7.62961
    endloop
  endfacet
  facet normal -0.815397 -0.43629 0.380498
    outer loop
      vertex 12.0175 -135.927 3.45659
      vertex 17.2278 -141.993 7.66667
      vertex 13.5915 -135.197 7.66667
    endloop
  endfacet
  facet normal -0.815398 -0.4363 0.380485
    outer loop
      vertex 17.2278 -141.993 7.66667
      vertex 12.0175 -135.927 3.45659
      vertex 17.3399 -145.874 3.45659
    endloop
  endfacet
  facet normal -0.815501 -0.436055 0.380544
    outer loop
      vertex 17.2278 -141.993 7.66667
      vertex 18.6667 -145.091 7.2003
      vertex 18.6667 -144.684 7.66667
    endloop
  endfacet
  facet normal -0.815622 -0.43607 0.380267
    outer loop
      vertex 18.6667 -145.091 7.2003
      vertex 17.2278 -141.993 7.66667
      vertex 17.3399 -145.874 3.45659
    endloop
  endfacet
  facet normal -0.851429 -0.455626 0.259757
    outer loop
      vertex 12.0175 -135.927 3.45659
      vertex 11.7281 -136.062 2.2712
      vertex 17.0655 -146.036 2.2712
    endloop
  endfacet
  facet normal -0.851536 -0.455636 0.259387
    outer loop
      vertex 17.3399 -145.874 3.45659
      vertex 12.0175 -135.927 3.45659
      vertex 17.0655 -146.036 2.2712
    endloop
  endfacet
  facet normal -0.867469 -0.46421 0.178903
    outer loop
      vertex 11.7281 -136.062 2.2712
      vertex 11.6973 -136.076 2.08553
      vertex 17.0363 -146.053 2.08553
    endloop
  endfacet
  facet normal -0.867465 -0.464208 0.178928
    outer loop
      vertex 17.0655 -146.036 2.2712
      vertex 11.7281 -136.062 2.2712
      vertex 17.0363 -146.053 2.08553
    endloop
  endfacet
  facet normal -0.876342 -0.469004 0.109813
    outer loop
      vertex 11.6973 -136.076 2.08553
      vertex 11.6661 -136.091 1.77248
      vertex 17.0067 -146.07 1.77248
    endloop
  endfacet
  facet normal -0.876504 -0.469044 0.108348
    outer loop
      vertex 17.0363 -146.053 2.08553
      vertex 11.6973 -136.076 2.08553
      vertex 17.0067 -146.07 1.77248
    endloop
  endfacet
  facet normal -0.881638 -0.471771 -0.0121521
    outer loop
      vertex 17.0318 -146.056 -0.647524
      vertex 11.6661 -136.091 1.77248
      vertex 11.6925 -136.078 -0.647524
    endloop
  endfacet
  facet normal -0.881612 -0.471825 -0.0118735
    outer loop
      vertex 17.0067 -146.07 1.77248
      vertex 11.6661 -136.091 1.77248
      vertex 17.0318 -146.056 -0.647524
    endloop
  endfacet
  facet normal -0.878974 -0.470381 -0.0783955
    outer loop
      vertex 17.2495 -145.927 -3.85782
      vertex 11.6925 -136.078 -0.647524
      vertex 11.9221 -135.972 -3.85782
    endloop
  endfacet
  facet normal -0.878981 -0.470349 -0.0785066
    outer loop
      vertex 17.0318 -146.056 -0.647524
      vertex 11.6925 -136.078 -0.647524
      vertex 17.2495 -145.927 -3.85782
    endloop
  endfacet
  facet normal -0.873714 -0.467484 -0.134473
    outer loop
      vertex 17.6162 -145.711 -6.99738
      vertex 11.9221 -135.972 -3.85782
      vertex 12.309 -135.792 -6.99738
    endloop
  endfacet
  facet normal -0.87371 -0.467564 -0.134217
    outer loop
      vertex 17.2495 -145.927 -3.85782
      vertex 11.9221 -135.972 -3.85782
      vertex 17.6162 -145.711 -6.99738
    endloop
  endfacet
  facet normal -0.859936 -0.460126 -0.220896
    outer loop
      vertex 17.7397 -145.638 -7.62961
      vertex 12.309 -135.792 -6.99738
      vertex 12.4393 -135.732 -7.62961
    endloop
  endfacet
  facet normal -0.859901 -0.460093 -0.221098
    outer loop
      vertex 17.6162 -145.711 -6.99738
      vertex 12.309 -135.792 -6.99738
      vertex 17.7397 -145.638 -7.62961
    endloop
  endfacet
  facet normal -0.838162 -0.449184 -0.309382
    outer loop
      vertex 12.6786 -136.153 -7.66667
      vertex 12.4393 -135.732 -7.62961
      vertex 12.4503 -135.727 -7.66667
    endloop
  endfacet
  facet normal -0.83885 -0.448806 -0.308065
    outer loop
      vertex 17.7397 -145.638 -7.62961
      vertex 12.6786 -136.153 -7.66667
      vertex 17.7501 -145.632 -7.66667
    endloop
  endfacet
  facet normal -0.83632 -0.447489 -0.316738
    outer loop
      vertex 12.6786 -136.153 -7.66667
      vertex 17.7397 -145.638 -7.62961
      vertex 12.4393 -135.732 -7.62961
    endloop
  endfacet
  facet normal 0.508239 -0.861216 0
    outer loop
      vertex 18.6667 -145.091 7.2003
      vertex 17.3399 -145.874 3.45659
      vertex 18.6667 -145.091 4.53429
    endloop
  endfacet
  facet normal 0.508239 -0.861216 0
    outer loop
      vertex 18.6667 -145.091 4.53429
      vertex 17.3399 -145.874 3.45659
      vertex 18.6667 -145.091 4.17174
    endloop
  endfacet
  facet normal 0.508239 -0.861216 0
    outer loop
      vertex 17.3399 -145.874 3.45659
      vertex 18.6667 -145.091 0.469599
      vertex 18.6667 -145.091 4.17174
    endloop
  endfacet
  facet normal 0.508293 -0.861184 3.18329e-05
    outer loop
      vertex 18.6667 -145.091 0.469599
      vertex 17.3399 -145.874 3.45659
      vertex 17.0318 -146.056 -0.647524
    endloop
  endfacet
  facet normal 0.516375 -0.856359 -0.00249965
    outer loop
      vertex 17.0655 -146.036 2.2712
      vertex 17.0067 -146.07 1.77248
      vertex 17.3399 -145.874 3.45659
    endloop
  endfacet
  facet normal 0.506047 -0.862506 0.00025897
    outer loop
      vertex 17.3399 -145.874 3.45659
      vertex 17.0067 -146.07 1.77248
      vertex 17.0318 -146.056 -0.647524
    endloop
  endfacet
  facet normal 0.510731 -0.859739 -0.0016038
    outer loop
      vertex 17.0363 -146.053 2.08553
      vertex 17.0067 -146.07 1.77248
      vertex 17.0655 -146.036 2.2712
    endloop
  endfacet
  facet normal 0.508309 -0.861175 0
    outer loop
      vertex 17.0318 -146.056 -0.647524
      vertex 18.6667 -145.091 -2.71363
      vertex 18.6667 -145.091 0.469599
    endloop
  endfacet
  facet normal 0.50817 -0.861257 -0.000147458
    outer loop
      vertex 18.6667 -145.091 -2.71363
      vertex 17.0318 -146.056 -0.647524
      vertex 17.2495 -145.927 -3.85782
    endloop
  endfacet
  facet normal 0.506294 -0.86236 -0.00143232
    outer loop
      vertex 18.0265 -145.469 -7.66667
      vertex 17.6162 -145.711 -6.99738
      vertex 17.8187 -145.591 -7.66667
    endloop
  endfacet
  facet normal 0.508145 -0.861271 9.63087e-05
    outer loop
      vertex 17.6162 -145.711 -6.99738
      vertex 18.0265 -145.469 -7.66667
      vertex 17.2495 -145.927 -3.85782
    endloop
  endfacet
  facet normal 0.509529 -0.860453 0.000476964
    outer loop
      vertex 18.2511 -145.336 -7.66667
      vertex 17.2495 -145.927 -3.85782
      vertex 18.0265 -145.469 -7.66667
    endloop
  endfacet
  facet normal 0.507184 -0.861838 -0.0003545
    outer loop
      vertex 18.4805 -145.201 -7.66667
      vertex 17.2495 -145.927 -3.85782
      vertex 18.2511 -145.336 -7.66667
    endloop
  endfacet
  facet normal 0.50841 -0.861115 0.000179513
    outer loop
      vertex 18.4805 -145.201 -7.66667
      vertex 18.6667 -145.091 -7.35121
      vertex 17.2495 -145.927 -3.85782
    endloop
  endfacet
  facet normal 0.508636 -0.860982 0
    outer loop
      vertex 18.6667 -145.091 -7.35121
      vertex 18.4805 -145.201 -7.66667
      vertex 18.6667 -145.091 -7.66667
    endloop
  endfacet
  facet normal 0.508082 -0.861309 0
    outer loop
      vertex 18.6667 -145.091 -2.71363
      vertex 17.2495 -145.927 -3.85782
      vertex 18.6667 -145.091 -7.35121
    endloop
  endfacet
  facet normal 0.518289 -0.855177 0.00699257
    outer loop
      vertex 17.7798 -145.614 -7.66667
      vertex 17.7397 -145.638 -7.62961
      vertex 17.7501 -145.632 -7.66667
    endloop
  endfacet
  facet normal 0.514581 -0.85744 0.00151467
    outer loop
      vertex 17.7397 -145.638 -7.62961
      vertex 17.7798 -145.614 -7.66667
      vertex 17.6162 -145.711 -6.99738
    endloop
  endfacet
  facet normal 0.508953 -0.860794 -0.000347156
    outer loop
      vertex 17.8187 -145.591 -7.66667
      vertex 17.6162 -145.711 -6.99738
      vertex 17.7798 -145.614 -7.66667
    endloop
  endfacet
endsolid OpenSCAD_Model
