solid OpenSCAD_Model
  facet normal 1 0 0
    outer loop
      vertex 14 -36.7801 2.80209
      vertex 14 -36.75 -3.66487
      vertex 14 -36.75 2.75298
    endloop
  endfacet
  facet normal 1 0 0
    outer loop
      vertex 14 -38.5105 4.6
      vertex 14 -36.75 -3.66487
      vertex 14 -36.7801 2.80209
    endloop
  endfacet
  facet normal 1 0 0
    outer loop
      vertex 14 -36.75 -3.66487
      vertex 14 -38.5105 4.6
      vertex 14 -37.0403 -4.6
    endloop
  endfacet
  facet normal 1 0 0
    outer loop
      vertex 14 -55.125 -4.6
      vertex 14 -38.5105 4.6
      vertex 14 -55.125 4.6
    endloop
  endfacet
  facet normal 1 0 0
    outer loop
      vertex 14 -38.5105 4.6
      vertex 14 -55.125 -4.6
      vertex 14 -37.0403 -4.6
    endloop
  endfacet
  facet normal -0 0 1
    outer loop
      vertex 11.923 -42.9188 4.6
      vertex 14 -55.125 4.6
      vertex 14 -38.5105 4.6
    endloop
  endfacet
  facet normal -0 0 1
    outer loop
      vertex 10.1084 -46.7252 4.6
      vertex 14 -55.125 4.6
      vertex 11.923 -42.9188 4.6
    endloop
  endfacet
  facet normal 0 0 1
    outer loop
      vertex 14 -55.125 4.6
      vertex 10.1084 -46.7252 4.6
      vertex 7.61325 -55.125 4.6
    endloop
  endfacet
  facet normal 0 0 -1
    outer loop
      vertex 14 -55.125 -4.6
      vertex 9.52372 -46.6121 -4.6
      vertex 14 -37.0403 -4.6
    endloop
  endfacet
  facet normal 0 0 -1
    outer loop
      vertex 14 -55.125 -4.6
      vertex 7.05996 -54.9799 -4.6
      vertex 9.52372 -46.6121 -4.6
    endloop
  endfacet
  facet normal 0 -0 -1
    outer loop
      vertex 7.05996 -54.9799 -4.6
      vertex 14 -55.125 -4.6
      vertex 7.01726 -55.125 -4.6
    endloop
  endfacet
  facet normal 0 1 0
    outer loop
      vertex 13.8487 -36.75 2.22714
      vertex 13.7169 -36.75 1.75115
      vertex 13.7345 -36.75 1.84143
    endloop
  endfacet
  facet normal 0 1 0
    outer loop
      vertex 13.6898 -36.75 0.259492
      vertex 13.8487 -36.75 2.22714
      vertex 14 -36.75 2.75298
    endloop
  endfacet
  facet normal 0 1 0
    outer loop
      vertex 13.8487 -36.75 2.22714
      vertex 13.6869 -36.75 1.53864
      vertex 13.7169 -36.75 1.75115
    endloop
  endfacet
  facet normal 0 1 0
    outer loop
      vertex 13.7169 -36.75 1.75115
      vertex 13.6869 -36.75 1.53864
      vertex 13.7048 -36.75 1.69095
    endloop
  endfacet
  facet normal 0 1 0
    outer loop
      vertex 13.8487 -36.75 2.22714
      vertex 13.6746 -36.75 1.43717
      vertex 13.6869 -36.75 1.53864
    endloop
  endfacet
  facet normal 0 1 0
    outer loop
      vertex 13.8487 -36.75 2.22714
      vertex 13.6898 -36.75 0.259492
      vertex 13.6746 -36.75 1.43717
    endloop
  endfacet
  facet normal 0 1 0
    outer loop
      vertex 14 -36.75 2.75298
      vertex 13.7001 -36.75 -0.525014
      vertex 13.6898 -36.75 0.259492
    endloop
  endfacet
  facet normal 0 1 0
    outer loop
      vertex 14 -36.75 2.75298
      vertex 13.8315 -36.75 -2.08408
      vertex 13.7001 -36.75 -0.525014
    endloop
  endfacet
  facet normal 0 1 -0
    outer loop
      vertex 14 -36.75 -3.66487
      vertex 13.8315 -36.75 -2.08408
      vertex 14 -36.75 2.75298
    endloop
  endfacet
  facet normal 0 1 0
    outer loop
      vertex 13.8315 -36.75 -2.08408
      vertex 14 -36.75 -3.66487
      vertex 13.9219 -36.75 -3.12721
    endloop
  endfacet
  facet normal 0 -1 0
    outer loop
      vertex 6.94303 -55.125 3.0312
      vertex 14 -55.125 4.6
      vertex 7.61325 -55.125 4.6
    endloop
  endfacet
  facet normal 0 -1 0
    outer loop
      vertex 6.81376 -55.125 2.56224
      vertex 14 -55.125 4.6
      vertex 6.94303 -55.125 3.0312
    endloop
  endfacet
  facet normal 0 -1 0
    outer loop
      vertex 6.64092 -55.125 1.91829
      vertex 6.81376 -55.125 2.56224
      vertex 6.65472 -55.125 1.99201
    endloop
  endfacet
  facet normal 0 -1 0
    outer loop
      vertex 6.61006 -55.125 1.70482
      vertex 6.81376 -55.125 2.56224
      vertex 6.64092 -55.125 1.91829
    endloop
  endfacet
  facet normal 0 -1 0
    outer loop
      vertex 6.61006 -55.125 1.70482
      vertex 6.64092 -55.125 1.91829
      vertex 6.62406 -55.125 1.8292
    endloop
  endfacet
  facet normal 0 -1 -0
    outer loop
      vertex 6.81376 -55.125 2.56224
      vertex 6.61006 -55.125 1.70482
      vertex 14 -55.125 4.6
    endloop
  endfacet
  facet normal 0 -1 0
    outer loop
      vertex 6.59297 -55.125 1.55466
      vertex 14 -55.125 4.6
      vertex 6.61006 -55.125 1.70482
    endloop
  endfacet
  facet normal 0 -1 0
    outer loop
      vertex 6.60481 -55.125 0.59281
      vertex 14 -55.125 4.6
      vertex 6.59297 -55.125 1.55466
    endloop
  endfacet
  facet normal 0 -1 0
    outer loop
      vertex 6.61926 -55.125 -0.567939
      vertex 14 -55.125 4.6
      vertex 6.60481 -55.125 0.59281
    endloop
  endfacet
  facet normal 0 -1 0
    outer loop
      vertex 14 -55.125 -4.6
      vertex 6.61926 -55.125 -0.567939
      vertex 6.72212 -55.125 -1.84189
    endloop
  endfacet
  facet normal 0 -1 0
    outer loop
      vertex 14 -55.125 -4.6
      vertex 6.72212 -55.125 -1.84189
      vertex 6.84804 -55.125 -3.38323
    endloop
  endfacet
  facet normal 0 -1 0
    outer loop
      vertex 14 -55.125 -4.6
      vertex 6.84804 -55.125 -3.38323
      vertex 7.01726 -55.125 -4.6
    endloop
  endfacet
  facet normal 0 -1 0
    outer loop
      vertex 6.61926 -55.125 -0.567939
      vertex 14 -55.125 -4.6
      vertex 14 -55.125 4.6
    endloop
  endfacet
  facet normal -0.836939 0.394329 0.379523
    outer loop
      vertex 14 -36.7801 2.80209
      vertex 11.923 -42.9188 4.6
      vertex 14 -38.5105 4.6
    endloop
  endfacet
  facet normal -0.836927 0.394332 0.379547
    outer loop
      vertex 11.923 -42.9188 4.6
      vertex 14 -36.7801 2.80209
      vertex 9.43423 -46.5947 2.93119
    endloop
  endfacet
  facet normal -0.838598 0.399779 0.370041
    outer loop
      vertex 11.923 -42.9188 4.6
      vertex 9.43423 -46.5947 2.93119
      vertex 10.1084 -46.7252 4.6
    endloop
  endfacet
  facet normal -0.874581 0.409948 0.258944
    outer loop
      vertex 13.7345 -36.75 1.84143
      vertex 9.16901 -46.5434 1.92597
      vertex 13.8487 -36.75 2.22714
    endloop
  endfacet
  facet normal -0.87599 0.411233 0.252049
    outer loop
      vertex 13.8487 -36.75 2.22714
      vertex 14 -36.7801 2.80209
      vertex 14 -36.75 2.75298
    endloop
  endfacet
  facet normal -0.876139 0.410903 0.252071
    outer loop
      vertex 9.16901 -46.5434 1.92597
      vertex 14 -36.7801 2.80209
      vertex 13.8487 -36.75 2.22714
    endloop
  endfacet
  facet normal -0.876127 0.410892 0.252129
    outer loop
      vertex 14 -36.7801 2.80209
      vertex 9.16901 -46.5434 1.92597
      vertex 9.43423 -46.5947 2.93119
    endloop
  endfacet
  facet normal -0.891115 0.416933 0.179111
    outer loop
      vertex 13.7048 -36.75 1.69095
      vertex 9.14081 -46.538 1.76853
      vertex 13.7169 -36.75 1.75115
    endloop
  endfacet
  facet normal -0.891967 0.417322 0.173888
    outer loop
      vertex 9.14081 -46.538 1.76853
      vertex 13.7345 -36.75 1.84143
      vertex 13.7169 -36.75 1.75115
    endloop
  endfacet
  facet normal -0.891938 0.417307 0.174073
    outer loop
      vertex 13.7345 -36.75 1.84143
      vertex 9.14081 -46.538 1.76853
      vertex 9.16901 -46.5434 1.92597
    endloop
  endfacet
  facet normal -0.900582 0.420756 0.109167
    outer loop
      vertex 13.6746 -36.75 1.43717
      vertex 9.11221 -46.5324 1.50307
      vertex 13.6869 -36.75 1.53864
    endloop
  endfacet
  facet normal -0.900899 0.420916 0.105877
    outer loop
      vertex 9.11221 -46.5324 1.50307
      vertex 13.7048 -36.75 1.69095
      vertex 13.6869 -36.75 1.53864
    endloop
  endfacet
  facet normal -0.900894 0.420912 0.105939
    outer loop
      vertex 13.7048 -36.75 1.69095
      vertex 9.11221 -46.5324 1.50307
      vertex 9.14081 -46.538 1.76853
    endloop
  endfacet
  facet normal -0.906236 0.422605 -0.0118982
    outer loop
      vertex 13.7001 -36.75 -0.525014
      vertex 9.1364 -46.5371 -0.5491
      vertex 13.6898 -36.75 0.259492
    endloop
  endfacet
  facet normal -0.906248 0.422584 -0.0116967
    outer loop
      vertex 13.6898 -36.75 0.259492
      vertex 9.11221 -46.5324 1.50307
      vertex 13.6746 -36.75 1.43717
    endloop
  endfacet
  facet normal -0.906246 0.422589 -0.0116502
    outer loop
      vertex 9.11221 -46.5324 1.50307
      vertex 13.6898 -36.75 0.259492
      vertex 9.1364 -46.5371 -0.5491
    endloop
  endfacet
  facet normal -0.903358 0.421682 -0.078287
    outer loop
      vertex 13.9219 -36.75 -3.12721
      vertex 9.34684 -46.5778 -3.27143
      vertex 13.8315 -36.75 -2.08408
    endloop
  endfacet
  facet normal -0.903607 0.421537 -0.0761571
    outer loop
      vertex 13.8315 -36.75 -2.08408
      vertex 9.1364 -46.5371 -0.5491
      vertex 13.7001 -36.75 -0.525014
    endloop
  endfacet
  facet normal -0.903607 0.421538 -0.0761523
    outer loop
      vertex 9.1364 -46.5371 -0.5491
      vertex 13.8315 -36.75 -2.08408
      vertex 9.34684 -46.5778 -3.27143
    endloop
  endfacet
  facet normal -0.89801 0.420194 -0.130444
    outer loop
      vertex 14 -37.0403 -4.6
      vertex 13.9219 -36.75 -3.12721
      vertex 14 -36.75 -3.66487
    endloop
  endfacet
  facet normal -0.898105 0.420001 -0.130411
    outer loop
      vertex 14 -37.0403 -4.6
      vertex 9.34684 -46.5778 -3.27143
      vertex 13.9219 -36.75 -3.12721
    endloop
  endfacet
  facet normal -0.898104 0.420001 -0.130413
    outer loop
      vertex 9.34684 -46.5778 -3.27143
      vertex 14 -37.0403 -4.6
      vertex 9.52372 -46.6121 -4.6
    endloop
  endfacet
  facet normal -0.887095 0.263512 0.378977
    outer loop
      vertex 6.94303 -55.125 3.0312
      vertex 10.1084 -46.7252 4.6
      vertex 9.43423 -46.5947 2.93119
    endloop
  endfacet
  facet normal -0.887093 0.26351 0.378983
    outer loop
      vertex 10.1084 -46.7252 4.6
      vertex 6.94303 -55.125 3.0312
      vertex 7.61325 -55.125 4.6
    endloop
  endfacet
  facet normal -0.926526 0.273448 0.258412
    outer loop
      vertex 6.65472 -55.125 1.99201
      vertex 9.43423 -46.5947 2.93119
      vertex 9.16901 -46.5434 1.92597
    endloop
  endfacet
  facet normal -0.926525 0.273448 0.258413
    outer loop
      vertex 9.43423 -46.5947 2.93119
      vertex 6.65472 -55.125 1.99201
      vertex 6.81376 -55.125 2.56224
    endloop
  endfacet
  facet normal -0.92721 0.27378 0.255588
    outer loop
      vertex 9.43423 -46.5947 2.93119
      vertex 6.81376 -55.125 2.56224
      vertex 6.94303 -55.125 3.0312
    endloop
  endfacet
  facet normal -0.943863 0.277897 0.178592
    outer loop
      vertex 6.62406 -55.125 1.8292
      vertex 9.16901 -46.5434 1.92597
      vertex 9.14081 -46.538 1.76853
    endloop
  endfacet
  facet normal -0.943858 0.277895 0.178622
    outer loop
      vertex 9.16901 -46.5434 1.92597
      vertex 6.62406 -55.125 1.8292
      vertex 6.64092 -55.125 1.91829
    endloop
  endfacet
  facet normal -0.944183 0.277993 0.176746
    outer loop
      vertex 9.16901 -46.5434 1.92597
      vertex 6.64092 -55.125 1.91829
      vertex 6.65472 -55.125 1.99201
    endloop
  endfacet
  facet normal -0.953748 0.280279 0.108667
    outer loop
      vertex 6.59297 -55.125 1.55466
      vertex 9.14081 -46.538 1.76853
      vertex 9.11221 -46.5324 1.50307
    endloop
  endfacet
  facet normal -0.953759 0.280285 0.108549
    outer loop
      vertex 9.14081 -46.538 1.76853
      vertex 6.59297 -55.125 1.55466
      vertex 6.61006 -55.125 1.70482
    endloop
  endfacet
  facet normal -0.95388 0.28033 0.107367
    outer loop
      vertex 9.14081 -46.538 1.76853
      vertex 6.61006 -55.125 1.70482
      vertex 6.62406 -55.125 1.8292
    endloop
  endfacet
  facet normal -0.959553 0.281274 -0.0119453
    outer loop
      vertex 6.60481 -55.125 0.59281
      vertex 9.1364 -46.5371 -0.5491
      vertex 6.61926 -55.125 -0.567939
    endloop
  endfacet
  facet normal -0.959553 0.281273 -0.0119549
    outer loop
      vertex 9.1364 -46.5371 -0.5491
      vertex 6.60481 -55.125 0.59281
      vertex 9.11221 -46.5324 1.50307
    endloop
  endfacet
  facet normal -0.959559 0.281259 -0.0118118
    outer loop
      vertex 6.60481 -55.125 0.59281
      vertex 6.59297 -55.125 1.55466
      vertex 9.11221 -46.5324 1.50307
    endloop
  endfacet
  facet normal -0.956611 0.28069 -0.0781505
    outer loop
      vertex 6.72212 -55.125 -1.84189
      vertex 9.34684 -46.5778 -3.27143
      vertex 6.84804 -55.125 -3.38323
    endloop
  endfacet
  facet normal -0.956612 0.280692 -0.0781439
    outer loop
      vertex 9.34684 -46.5778 -3.27143
      vertex 6.72212 -55.125 -1.84189
      vertex 9.1364 -46.5371 -0.5491
    endloop
  endfacet
  facet normal -0.956716 0.280586 -0.0772461
    outer loop
      vertex 6.72212 -55.125 -1.84189
      vertex 6.61926 -55.125 -0.567939
      vertex 9.1364 -46.5371 -0.5491
    endloop
  endfacet
  facet normal -0.950659 0.279906 -0.133793
    outer loop
      vertex 9.52372 -46.6121 -4.6
      vertex 7.05996 -54.9799 -4.6
      vertex 9.34684 -46.5778 -3.27143
    endloop
  endfacet
  facet normal -0.950898 0.27983 -0.132244
    outer loop
      vertex 6.84804 -55.125 -3.38323
      vertex 7.05996 -54.9799 -4.6
      vertex 7.01726 -55.125 -4.6
    endloop
  endfacet
  facet normal -0.950923 0.279735 -0.13226
    outer loop
      vertex 7.05996 -54.9799 -4.6
      vertex 6.84804 -55.125 -3.38323
      vertex 9.34684 -46.5778 -3.27143
    endloop
  endfacet
endsolid OpenSCAD_Model
