solid OpenSCAD_Model
  facet normal 0 0 1
    outer loop
      vertex 33.3333 -35.8 -8.33333
      vertex 43.8134 -50.1721 -8.33333
      vertex 44.0164 -48.2681 -8.33333
    endloop
  endfacet
  facet normal 0 0 1
    outer loop
      vertex 33.3333 -35.8 -8.33333
      vertex 44.0164 -48.2681 -8.33333
      vertex 45.1651 -37.4891 -8.33333
    endloop
  endfacet
  facet normal 0 0 1
    outer loop
      vertex 43.8134 -50.1721 -8.33333
      vertex 33.3333 -35.8 -8.33333
      vertex 42.2296 -60.0693 -8.33333
    endloop
  endfacet
  facet normal 0 0 1
    outer loop
      vertex 33.3333 -71.6 -8.33333
      vertex 40.7504 -71.4845 -8.33333
      vertex 41.7734 -62.9201 -8.33333
    endloop
  endfacet
  facet normal -0 0 1
    outer loop
      vertex 33.3333 -35.8 -8.33333
      vertex 45.4253 -36.3772 -8.33333
      vertex 45.5604 -35.8 -8.33333
    endloop
  endfacet
  facet normal 0 0 1
    outer loop
      vertex 33.3333 -35.8 -8.33333
      vertex 45.1651 -37.4891 -8.33333
      vertex 45.4253 -36.3772 -8.33333
    endloop
  endfacet
  facet normal 0 0 1
    outer loop
      vertex 33.3333 -71.6 -8.33333
      vertex 42.2296 -60.0693 -8.33333
      vertex 33.3333 -35.8 -8.33333
    endloop
  endfacet
  facet normal 0 0 1
    outer loop
      vertex 42.2296 -60.0693 -8.33333
      vertex 33.3333 -71.6 -8.33333
      vertex 41.7734 -62.9201 -8.33333
    endloop
  endfacet
  facet normal 0 0 1
    outer loop
      vertex 40.7504 -71.4845 -8.33333
      vertex 33.3333 -71.6 -8.33333
      vertex 40.7366 -71.6 -8.33333
    endloop
  endfacet
  facet normal -1 0 0
    outer loop
      vertex 33.3333 -38.6052 -20.9927
      vertex 33.3333 -35.8 -8.33333
      vertex 33.3333 -35.8 -21.4987
    endloop
  endfacet
  facet normal -1 0 0
    outer loop
      vertex 33.3333 -47.2417 -20.3212
      vertex 33.3333 -35.8 -8.33333
      vertex 33.3333 -38.6052 -20.9927
    endloop
  endfacet
  facet normal -1 0 0
    outer loop
      vertex 33.3333 -51.1607 -20.0165
      vertex 33.3333 -35.8 -8.33333
      vertex 33.3333 -47.2417 -20.3212
    endloop
  endfacet
  facet normal -1 0 0
    outer loop
      vertex 33.3333 -57.8828 -19.2456
      vertex 33.3333 -35.8 -8.33333
      vertex 33.3333 -51.1607 -20.0165
    endloop
  endfacet
  facet normal -1 0 0
    outer loop
      vertex 33.3333 -71.6 -8.33333
      vertex 33.3333 -57.8828 -19.2456
      vertex 33.3333 -63.7162 -18.4076
    endloop
  endfacet
  facet normal -1 0 0
    outer loop
      vertex 33.3333 -71.6 -8.33333
      vertex 33.3333 -63.7162 -18.4076
      vertex 33.3333 -68.0176 -17.8702
    endloop
  endfacet
  facet normal -1 0 0
    outer loop
      vertex 33.3333 -71.6 -8.33333
      vertex 33.3333 -68.0176 -17.8702
      vertex 33.3333 -71.6 -17.4226
    endloop
  endfacet
  facet normal -1 0 0
    outer loop
      vertex 33.3333 -57.8828 -19.2456
      vertex 33.3333 -71.6 -8.33333
      vertex 33.3333 -35.8 -8.33333
    endloop
  endfacet
  facet normal 0 1 -0
    outer loop
      vertex 45.4691 -35.8 -8.53433
      vertex 33.3333 -35.8 -8.33333
      vertex 45.5604 -35.8 -8.33333
    endloop
  endfacet
  facet normal 0 1 -0
    outer loop
      vertex 44.0185 -35.8 -11.7296
      vertex 33.3333 -35.8 -8.33333
      vertex 45.4691 -35.8 -8.53433
    endloop
  endfacet
  facet normal 0 1 -0
    outer loop
      vertex 43.6669 -35.8 -12.2459
      vertex 33.3333 -35.8 -8.33333
      vertex 44.0185 -35.8 -11.7296
    endloop
  endfacet
  facet normal 0 1 -0
    outer loop
      vertex 41.7268 -35.8 -15.0954
      vertex 33.3333 -35.8 -8.33333
      vertex 43.6669 -35.8 -12.2459
    endloop
  endfacet
  facet normal 0 1 -0
    outer loop
      vertex 41.2386 -35.8 -15.5985
      vertex 33.3333 -35.8 -8.33333
      vertex 41.7268 -35.8 -15.0954
    endloop
  endfacet
  facet normal 0 1 -0
    outer loop
      vertex 38.8948 -35.8 -18.0138
      vertex 33.3333 -35.8 -8.33333
      vertex 41.2386 -35.8 -15.5985
    endloop
  endfacet
  facet normal 0 1 -0
    outer loop
      vertex 38.251 -35.8 -18.48
      vertex 33.3333 -35.8 -8.33333
      vertex 38.8948 -35.8 -18.0138
    endloop
  endfacet
  facet normal 0 1 -0
    outer loop
      vertex 35.6047 -35.8 -20.3962
      vertex 33.3333 -35.8 -8.33333
      vertex 38.251 -35.8 -18.48
    endloop
  endfacet
  facet normal 0 1 -0
    outer loop
      vertex 34.7919 -35.8 -20.7907
      vertex 33.3333 -35.8 -8.33333
      vertex 35.6047 -35.8 -20.3962
    endloop
  endfacet
  facet normal 0 1 0
    outer loop
      vertex 33.3333 -35.8 -8.33333
      vertex 34.7919 -35.8 -20.7907
      vertex 33.3333 -35.8 -21.4987
    endloop
  endfacet
  facet normal 0 -1 0
    outer loop
      vertex 33.3333 -71.6 -8.33333
      vertex 39.7239 -71.6 -10.5396
      vertex 40.7366 -71.6 -8.33333
    endloop
  endfacet
  facet normal 0 -1 0
    outer loop
      vertex 33.3333 -71.6 -8.33333
      vertex 39.0145 -71.6 -11.5698
      vertex 39.7239 -71.6 -10.5396
    endloop
  endfacet
  facet normal 0 -1 0
    outer loop
      vertex 33.3333 -71.6 -8.33333
      vertex 37.6436 -71.6 -13.5608
      vertex 39.0145 -71.6 -11.5698
    endloop
  endfacet
  facet normal 0 -1 0
    outer loop
      vertex 33.3333 -71.6 -8.33333
      vertex 36.7225 -71.6 -14.4988
      vertex 37.6436 -71.6 -13.5608
    endloop
  endfacet
  facet normal 0 -1 0
    outer loop
      vertex 33.3333 -71.6 -8.33333
      vertex 35.0741 -71.6 -16.1777
      vertex 36.7225 -71.6 -14.4988
    endloop
  endfacet
  facet normal 0 -1 0
    outer loop
      vertex 33.3333 -71.6 -8.33333
      vertex 33.9417 -71.6 -16.9875
      vertex 35.0741 -71.6 -16.1777
    endloop
  endfacet
  facet normal -0 -1 0
    outer loop
      vertex 33.9417 -71.6 -16.9875
      vertex 33.3333 -71.6 -8.33333
      vertex 33.3333 -71.6 -17.4226
    endloop
  endfacet
  facet normal 0.431011 -0.160165 -0.888018
    outer loop
      vertex 33.3333 -38.6052 -20.9927
      vertex 34.7919 -35.8 -20.7907
      vertex 35.1644 -38.4325 -20.1351
    endloop
  endfacet
  facet normal 0.431035 -0.160178 -0.888005
    outer loop
      vertex 34.7919 -35.8 -20.7907
      vertex 33.3333 -38.6052 -20.9927
      vertex 33.3333 -35.8 -21.4987
    endloop
  endfacet
  facet normal 0.431009 -0.160165 -0.88802
    outer loop
      vertex 35.6047 -35.8 -20.3962
      vertex 35.1644 -38.4325 -20.1351
      vertex 34.7919 -35.8 -20.7907
    endloop
  endfacet
  facet normal 0.428477 -0.0700393 -0.900834
    outer loop
      vertex 33.3333 -47.2417 -20.3212
      vertex 34.1618 -51.0826 -19.6285
      vertex 33.3333 -51.1607 -20.0165
    endloop
  endfacet
  facet normal 0.428489 -0.070036 -0.900829
    outer loop
      vertex 33.3333 -47.2417 -20.3212
      vertex 35.1644 -38.4325 -20.1351
      vertex 34.1618 -51.0826 -19.6285
    endloop
  endfacet
  facet normal 0.428507 -0.07004 -0.90082
    outer loop
      vertex 35.1644 -38.4325 -20.1351
      vertex 33.3333 -47.2417 -20.3212
      vertex 33.3333 -38.6052 -20.9927
    endloop
  endfacet
  facet normal 0.429798 -0.102874 -0.897045
    outer loop
      vertex 33.3333 -51.1607 -20.0165
      vertex 34.1618 -51.0826 -19.6285
      vertex 33.3333 -57.8828 -19.2456
    endloop
  endfacet
  facet normal 0.577375 -0.175645 -0.797363
    outer loop
      vertex 38.4696 -38.1207 -17.8105
      vertex 35.6047 -35.8 -20.3962
      vertex 38.251 -35.8 -18.48
    endloop
  endfacet
  facet normal 0.57737 -0.175653 -0.797364
    outer loop
      vertex 35.6047 -35.8 -20.3962
      vertex 38.4696 -38.1207 -17.8105
      vertex 35.1644 -38.4325 -20.1351
    endloop
  endfacet
  facet normal 0.577392 -0.17564 -0.797351
    outer loop
      vertex 38.8948 -35.8 -18.0138
      vertex 38.4696 -38.1207 -17.8105
      vertex 38.251 -35.8 -18.48
    endloop
  endfacet
  facet normal 0.578449 -0.0783618 -0.811946
    outer loop
      vertex 35.1644 -38.4325 -20.1351
      vertex 37.3838 -50.7787 -17.3624
      vertex 34.1618 -51.0826 -19.6285
    endloop
  endfacet
  facet normal 0.578448 -0.0783624 -0.811947
    outer loop
      vertex 38.4696 -38.1207 -17.8105
      vertex 37.3838 -50.7787 -17.3624
      vertex 35.1644 -38.4325 -20.1351
    endloop
  endfacet
  facet normal 0.578671 -0.115969 -0.807273
    outer loop
      vertex 33.3333 -57.8828 -19.2456
      vertex 35.719 -63.4912 -16.7298
      vertex 33.3333 -63.7162 -18.4076
    endloop
  endfacet
  facet normal 0.578686 -0.115959 -0.807264
    outer loop
      vertex 35.719 -63.4912 -16.7298
      vertex 33.3333 -57.8828 -19.2456
      vertex 34.1618 -51.0826 -19.6285
    endloop
  endfacet
  facet normal 0.578698 -0.115956 -0.807257
    outer loop
      vertex 37.3838 -50.7787 -17.3624
      vertex 35.719 -63.4912 -16.7298
      vertex 34.1618 -51.0826 -19.6285
    endloop
  endfacet
  facet normal 0.578725 -0.101109 -0.809231
    outer loop
      vertex 33.3333 -68.0176 -17.8702
      vertex 33.9417 -71.6 -16.9875
      vertex 33.3333 -71.6 -17.4226
    endloop
  endfacet
  facet normal 0.578705 -0.101115 -0.809244
    outer loop
      vertex 33.3333 -68.0176 -17.8702
      vertex 35.0741 -71.6 -16.1777
      vertex 33.9417 -71.6 -16.9875
    endloop
  endfacet
  facet normal 0.578695 -0.101123 -0.80925
    outer loop
      vertex 35.0741 -71.6 -16.1777
      vertex 33.3333 -68.0176 -17.8702
      vertex 35.719 -63.4912 -16.7298
    endloop
  endfacet
  facet normal 0.578673 -0.101107 -0.809268
    outer loop
      vertex 35.719 -63.4912 -16.7298
      vertex 33.3333 -68.0176 -17.8702
      vertex 33.3333 -63.7162 -18.4076
    endloop
  endfacet
  facet normal 0.704716 -0.189038 -0.683842
    outer loop
      vertex 38.4696 -38.1207 -17.8105
      vertex 41.2386 -35.8 -15.5985
      vertex 41.3226 -37.8516 -14.9448
    endloop
  endfacet
  facet normal 0.704712 -0.189025 -0.68385
    outer loop
      vertex 41.2386 -35.8 -15.5985
      vertex 38.4696 -38.1207 -17.8105
      vertex 38.8948 -35.8 -18.0138
    endloop
  endfacet
  facet normal 0.704714 -0.189039 -0.683843
    outer loop
      vertex 41.7268 -35.8 -15.0954
      vertex 41.3226 -37.8516 -14.9448
      vertex 41.2386 -35.8 -15.5985
    endloop
  endfacet
  facet normal 0.710085 -0.0856519 -0.698887
    outer loop
      vertex 38.4696 -38.1207 -17.8105
      vertex 40.165 -50.5163 -14.5688
      vertex 37.3838 -50.7787 -17.3624
    endloop
  endfacet
  facet normal 0.710081 -0.0856533 -0.698891
    outer loop
      vertex 41.3226 -37.8516 -14.9448
      vertex 40.165 -50.5163 -14.5688
      vertex 38.4696 -38.1207 -17.8105
    endloop
  endfacet
  facet normal 0.708856 -0.127353 -0.693761
    outer loop
      vertex 37.3838 -50.7787 -17.3624
      vertex 38.3989 -63.2384 -14.038
      vertex 35.719 -63.4912 -16.7298
    endloop
  endfacet
  facet normal 0.708863 -0.127351 -0.693754
    outer loop
      vertex 40.165 -50.5163 -14.5688
      vertex 38.3989 -63.2384 -14.038
      vertex 37.3838 -50.7787 -17.3624
    endloop
  endfacet
  facet normal 0.709698 -0.103886 -0.696805
    outer loop
      vertex 35.719 -63.4912 -16.7298
      vertex 36.7225 -71.6 -14.4988
      vertex 35.0741 -71.6 -16.1777
    endloop
  endfacet
  facet normal 0.709646 -0.103872 -0.69686
    outer loop
      vertex 36.7225 -71.6 -14.4988
      vertex 38.3989 -63.2384 -14.038
      vertex 37.6436 -71.6 -13.5608
    endloop
  endfacet
  facet normal 0.709698 -0.103886 -0.696804
    outer loop
      vertex 38.3989 -63.2384 -14.038
      vertex 36.7225 -71.6 -14.4988
      vertex 35.719 -63.4912 -16.7298
    endloop
  endfacet
  facet normal 0.809885 -0.200012 -0.551435
    outer loop
      vertex 41.3226 -37.8516 -14.9448
      vertex 43.6669 -35.8 -12.2459
      vertex 43.6369 -37.6333 -11.625
    endloop
  endfacet
  facet normal 0.80989 -0.20004 -0.551419
    outer loop
      vertex 43.6669 -35.8 -12.2459
      vertex 41.3226 -37.8516 -14.9448
      vertex 41.7268 -35.8 -15.0954
    endloop
  endfacet
  facet normal 0.809837 -0.200033 -0.551499
    outer loop
      vertex 43.6669 -35.8 -12.2459
      vertex 44.0185 -35.8 -11.7296
      vertex 43.6369 -37.6333 -11.625
    endloop
  endfacet
  facet normal 0.819701 -0.0917098 -0.565402
    outer loop
      vertex 41.3226 -37.8516 -14.9448
      vertex 42.4211 -50.3035 -11.3325
      vertex 40.165 -50.5163 -14.5688
    endloop
  endfacet
  facet normal 0.819702 -0.0917092 -0.565401
    outer loop
      vertex 43.6369 -37.6333 -11.625
      vertex 42.4211 -50.3035 -11.3325
      vertex 41.3226 -37.8516 -14.9448
    endloop
  endfacet
  facet normal 0.816828 -0.136776 -0.560432
    outer loop
      vertex 40.165 -50.5163 -14.5688
      vertex 40.5728 -63.0333 -10.9196
      vertex 38.3989 -63.2384 -14.038
    endloop
  endfacet
  facet normal 0.816826 -0.136777 -0.560435
    outer loop
      vertex 42.4211 -50.3035 -11.3325
      vertex 40.5728 -63.0333 -10.9196
      vertex 40.165 -50.5163 -14.5688
    endloop
  endfacet
  facet normal 0.818984 -0.106161 -0.56391
    outer loop
      vertex 38.3989 -63.2384 -14.038
      vertex 39.0145 -71.6 -11.5698
      vertex 37.6436 -71.6 -13.5608
    endloop
  endfacet
  facet normal 0.818962 -0.106169 -0.563941
    outer loop
      vertex 39.0145 -71.6 -11.5698
      vertex 40.5728 -63.0333 -10.9196
      vertex 39.7239 -71.6 -10.5396
    endloop
  endfacet
  facet normal 0.818966 -0.10617 -0.563935
    outer loop
      vertex 40.5728 -63.0333 -10.9196
      vertex 39.0145 -71.6 -11.5698
      vertex 38.3989 -63.2384 -14.038
    endloop
  endfacet
  facet normal 0.890558 -0.20838 -0.404332
    outer loop
      vertex 43.6369 -37.6333 -11.625
      vertex 45.4691 -35.8 -8.53433
      vertex 45.4253 -36.3772 -8.33333
    endloop
  endfacet
  facet normal 0.890557 -0.208403 -0.404323
    outer loop
      vertex 43.6369 -37.6333 -11.625
      vertex 45.4253 -36.3772 -8.33333
      vertex 45.1651 -37.4891 -8.33333
    endloop
  endfacet
  facet normal 0.890559 -0.208437 -0.404299
    outer loop
      vertex 45.4691 -35.8 -8.53433
      vertex 43.6369 -37.6333 -11.625
      vertex 44.0185 -35.8 -11.7296
    endloop
  endfacet
  facet normal 0.890479 -0.208426 -0.404481
    outer loop
      vertex 45.4691 -35.8 -8.53433
      vertex 45.5604 -35.8 -8.33333
      vertex 45.4253 -36.3772 -8.33333
    endloop
  endfacet
  facet normal 0.904409 -0.096426 -0.415628
    outer loop
      vertex 42.4211 -50.3035 -11.3325
      vertex 44.0164 -48.2681 -8.33333
      vertex 43.8134 -50.1721 -8.33333
    endloop
  endfacet
  facet normal 0.904401 -0.0963797 -0.415655
    outer loop
      vertex 44.0164 -48.2681 -8.33333
      vertex 42.4211 -50.3035 -11.3325
      vertex 43.6369 -37.6333 -11.625
    endloop
  endfacet
  facet normal 0.9044 -0.0963804 -0.415657
    outer loop
      vertex 45.1651 -37.4891 -8.33333
      vertex 44.0164 -48.2681 -8.33333
      vertex 43.6369 -37.6333 -11.625
    endloop
  endfacet
  facet normal 0.899968 -0.144018 -0.41148
    outer loop
      vertex 40.5728 -63.0333 -10.9196
      vertex 42.2296 -60.0693 -8.33333
      vertex 41.7734 -62.9201 -8.33333
    endloop
  endfacet
  facet normal 0.899968 -0.144017 -0.411481
    outer loop
      vertex 42.2296 -60.0693 -8.33333
      vertex 40.5728 -63.0333 -10.9196
      vertex 42.4211 -50.3035 -11.3325
    endloop
  endfacet
  facet normal 0.899968 -0.144017 -0.411481
    outer loop
      vertex 42.4211 -50.3035 -11.3325
      vertex 43.8134 -50.1721 -8.33333
      vertex 42.2296 -60.0693 -8.33333
    endloop
  endfacet
  facet normal 0.903521 -0.107953 -0.414725
    outer loop
      vertex 39.7239 -71.6 -10.5396
      vertex 40.7504 -71.4845 -8.33333
      vertex 40.7366 -71.6 -8.33333
    endloop
  endfacet
  facet normal 0.903522 -0.107929 -0.414727
    outer loop
      vertex 40.7504 -71.4845 -8.33333
      vertex 39.7239 -71.6 -10.5396
      vertex 40.5728 -63.0333 -10.9196
    endloop
  endfacet
  facet normal 0.903529 -0.107925 -0.414713
    outer loop
      vertex 41.7734 -62.9201 -8.33333
      vertex 40.7504 -71.4845 -8.33333
      vertex 40.5728 -63.0333 -10.9196
    endloop
  endfacet
endsolid OpenSCAD_Model
