solid OpenSCAD_Model
  facet normal 1 -0 0
    outer loop
      vertex 33.3333 -109.208 13.1311
      vertex 33.3333 -107.4 8.33333
      vertex 33.3333 -107.4 13.3204
    endloop
  endfacet
  facet normal 1 -0 0
    outer loop
      vertex 33.3333 -113.938 12.6362
      vertex 33.3333 -107.4 8.33333
      vertex 33.3333 -109.208 13.1311
    endloop
  endfacet
  facet normal 1 0 0
    outer loop
      vertex 33.3333 -124.872 13.8374
      vertex 33.3333 -107.4 8.33333
      vertex 33.3333 -113.938 12.6362
    endloop
  endfacet
  facet normal 1 -0 0
    outer loop
      vertex 33.3333 -127.067 13.8802
      vertex 33.3333 -124.872 13.8374
      vertex 33.3333 -126.494 13.9648
    endloop
  endfacet
  facet normal 1 0 0
    outer loop
      vertex 33.3333 -128.129 13.7235
      vertex 33.3333 -124.872 13.8374
      vertex 33.3333 -127.067 13.8802
    endloop
  endfacet
  facet normal 1 0 0
    outer loop
      vertex 33.3333 -124.872 13.8374
      vertex 33.3333 -128.129 13.7235
      vertex 33.3333 -107.4 8.33333
    endloop
  endfacet
  facet normal 1 0 0
    outer loop
      vertex 33.3333 -143.2 8.33333
      vertex 33.3333 -128.129 13.7235
      vertex 33.3333 -135.027 12.4922
    endloop
  endfacet
  facet normal 1 0 0
    outer loop
      vertex 33.3333 -143.2 8.33333
      vertex 33.3333 -135.027 12.4922
      vertex 33.3333 -139.049 11.7742
    endloop
  endfacet
  facet normal 1 0 0
    outer loop
      vertex 33.3333 -143.2 8.33333
      vertex 33.3333 -139.049 11.7742
      vertex 33.3333 -143.2 11.9245
    endloop
  endfacet
  facet normal 1 0 0
    outer loop
      vertex 33.3333 -128.129 13.7235
      vertex 33.3333 -143.2 8.33333
      vertex 33.3333 -107.4 8.33333
    endloop
  endfacet
  facet normal 0 0 -1
    outer loop
      vertex 16.6667 -143.2 8.33333
      vertex 33.3333 -107.4 8.33333
      vertex 33.3333 -143.2 8.33333
    endloop
  endfacet
  facet normal -0 0 -1
    outer loop
      vertex 33.3333 -107.4 8.33333
      vertex 16.6667 -143.2 8.33333
      vertex 16.6667 -107.4 8.33333
    endloop
  endfacet
  facet normal -1 0 0
    outer loop
      vertex 16.6667 -107.4 8.33333
      vertex 16.6667 -115.51 17.4664
      vertex 16.6667 -107.4 17.9488
    endloop
  endfacet
  facet normal -1 0 0
    outer loop
      vertex 16.6667 -107.4 8.33333
      vertex 16.6667 -121.876 17.3432
      vertex 16.6667 -115.51 17.4664
    endloop
  endfacet
  facet normal -1 0 0
    outer loop
      vertex 16.6667 -107.4 8.33333
      vertex 16.6667 -128.066 17.2236
      vertex 16.6667 -121.876 17.3432
    endloop
  endfacet
  facet normal -1 0 0
    outer loop
      vertex 16.6667 -143.2 8.33333
      vertex 16.6667 -128.066 17.2236
      vertex 16.6667 -107.4 8.33333
    endloop
  endfacet
  facet normal -1 0 0
    outer loop
      vertex 16.6667 -128.066 17.2236
      vertex 16.6667 -143.2 8.33333
      vertex 16.6667 -136.699 16.445
    endloop
  endfacet
  facet normal -1 0 0
    outer loop
      vertex 16.6667 -136.699 16.445
      vertex 16.6667 -143.2 8.33333
      vertex 16.6667 -140.621 16.0913
    endloop
  endfacet
  facet normal -1 0 0
    outer loop
      vertex 16.6667 -140.621 16.0913
      vertex 16.6667 -143.2 8.33333
      vertex 16.6667 -143.2 15.7668
    endloop
  endfacet
  facet normal 0 1 0
    outer loop
      vertex 16.6667 -107.4 8.33333
      vertex 20.8194 -107.4 18.4645
      vertex 22.7632 -107.4 18.282
    endloop
  endfacet
  facet normal 0 1 0
    outer loop
      vertex 20.8194 -107.4 18.4645
      vertex 16.6667 -107.4 8.33333
      vertex 19.6508 -107.4 18.3685
    endloop
  endfacet
  facet normal 0 1 0
    outer loop
      vertex 16.6667 -107.4 8.33333
      vertex 22.7632 -107.4 18.282
      vertex 24.0032 -107.4 18.1656
    endloop
  endfacet
  facet normal 0 1 0
    outer loop
      vertex 19.6508 -107.4 18.3685
      vertex 16.6667 -107.4 8.33333
      vertex 17.6291 -107.4 18.2024
    endloop
  endfacet
  facet normal 0 1 0
    outer loop
      vertex 16.6667 -107.4 8.33333
      vertex 24.0032 -107.4 18.1656
      vertex 25.8142 -107.4 17.6665
    endloop
  endfacet
  facet normal 0 1 0
    outer loop
      vertex 16.6667 -107.4 8.33333
      vertex 25.8142 -107.4 17.6665
      vertex 27.0841 -107.4 17.3165
    endloop
  endfacet
  facet normal 0 1 0
    outer loop
      vertex 16.6667 -107.4 8.33333
      vertex 27.0841 -107.4 17.3165
      vertex 28.7175 -107.4 16.5397
    endloop
  endfacet
  facet normal 0 1 0
    outer loop
      vertex 33.3333 -107.4 8.33333
      vertex 28.7175 -107.4 16.5397
      vertex 29.9694 -107.4 15.9443
    endloop
  endfacet
  facet normal 0 1 0
    outer loop
      vertex 33.3333 -107.4 8.33333
      vertex 29.9694 -107.4 15.9443
      vertex 31.391 -107.4 14.9327
    endloop
  endfacet
  facet normal 0 1 0
    outer loop
      vertex 33.3333 -107.4 8.33333
      vertex 31.391 -107.4 14.9327
      vertex 32.5727 -107.4 14.0919
    endloop
  endfacet
  facet normal 0 1 -0
    outer loop
      vertex 33.3333 -107.4 8.33333
      vertex 32.5727 -107.4 14.0919
      vertex 33.3333 -107.4 13.3204
    endloop
  endfacet
  facet normal 0 1 0
    outer loop
      vertex 28.7175 -107.4 16.5397
      vertex 33.3333 -107.4 8.33333
      vertex 16.6667 -107.4 8.33333
    endloop
  endfacet
  facet normal 0 1 0
    outer loop
      vertex 17.6291 -107.4 18.2024
      vertex 16.6667 -107.4 8.33333
      vertex 16.6667 -107.4 17.9488
    endloop
  endfacet
  facet normal 0 -1 0
    outer loop
      vertex 16.6667 -143.2 8.33333
      vertex 21.8945 -143.2 16.5918
      vertex 21.2299 -143.2 16.5394
    endloop
  endfacet
  facet normal 0 -1 0
    outer loop
      vertex 16.6667 -143.2 8.33333
      vertex 21.2299 -143.2 16.5394
      vertex 18.9805 -143.2 16.362
    endloop
  endfacet
  facet normal 0 -1 -0
    outer loop
      vertex 21.8945 -143.2 16.5918
      vertex 16.6667 -143.2 8.33333
      vertex 24.0777 -143.2 16.3857
    endloop
  endfacet
  facet normal 0 -1 0
    outer loop
      vertex 16.6667 -143.2 8.33333
      vertex 18.9805 -143.2 16.362
      vertex 18.3926 -143.2 16.2108
    endloop
  endfacet
  facet normal 0 -1 0
    outer loop
      vertex 16.6667 -143.2 8.33333
      vertex 18.3926 -143.2 16.2108
      vertex 16.6667 -143.2 15.7668
    endloop
  endfacet
  facet normal 0 -1 -0
    outer loop
      vertex 24.0777 -143.2 16.3857
      vertex 16.6667 -143.2 8.33333
      vertex 24.8006 -143.2 16.3175
    endloop
  endfacet
  facet normal 0 -1 -0
    outer loop
      vertex 24.8006 -143.2 16.3175
      vertex 16.6667 -143.2 8.33333
      vertex 26.8548 -143.2 15.756
    endloop
  endfacet
  facet normal 0 -1 -0
    outer loop
      vertex 26.8548 -143.2 15.756
      vertex 16.6667 -143.2 8.33333
      vertex 27.6108 -143.2 15.5494
    endloop
  endfacet
  facet normal 0 -1 -0
    outer loop
      vertex 27.6108 -143.2 15.5494
      vertex 16.6667 -143.2 8.33333
      vertex 29.4828 -143.2 14.6691
    endloop
  endfacet
  facet normal 0 -1 0
    outer loop
      vertex 33.3333 -143.2 8.33333
      vertex 29.4828 -143.2 14.6691
      vertex 16.6667 -143.2 8.33333
    endloop
  endfacet
  facet normal 0 -1 0
    outer loop
      vertex 29.4828 -143.2 14.6691
      vertex 33.3333 -143.2 8.33333
      vertex 30.2408 -143.2 14.3127
    endloop
  endfacet
  facet normal 0 -1 0
    outer loop
      vertex 30.2408 -143.2 14.3127
      vertex 33.3333 -143.2 8.33333
      vertex 31.887 -143.2 13.1559
    endloop
  endfacet
  facet normal 0 -1 0
    outer loop
      vertex 31.887 -143.2 13.1559
      vertex 33.3333 -143.2 8.33333
      vertex 32.6124 -143.2 12.6462
    endloop
  endfacet
  facet normal 0 -1 0
    outer loop
      vertex 32.6124 -143.2 12.6462
      vertex 33.3333 -143.2 8.33333
      vertex 33.3333 -143.2 11.9245
    endloop
  endfacet
  facet normal 0.71018 -0.0732618 0.700198
    outer loop
      vertex 33.3333 -113.938 12.6362
      vertex 33.3333 -109.208 13.1311
      vertex 32.1972 -114.045 13.7773
    endloop
  endfacet
  facet normal 0.710203 -0.0733087 0.700169
    outer loop
      vertex 32.5727 -107.4 14.0919
      vertex 33.3333 -109.208 13.1311
      vertex 33.3333 -107.4 13.3204
    endloop
  endfacet
  facet normal 0.710233 -0.0732817 0.700142
    outer loop
      vertex 33.3333 -109.208 13.1311
      vertex 32.5727 -107.4 14.0919
      vertex 32.1972 -114.045 13.7773
    endloop
  endfacet
  facet normal 0.702865 0.077678 0.707069
    outer loop
      vertex 33.3333 -124.872 13.8374
      vertex 33.3333 -113.938 12.6362
      vertex 32.1972 -114.045 13.7773
    endloop
  endfacet
  facet normal 0.708999 -0.123933 0.694234
    outer loop
      vertex 33.3333 -139.049 11.7742
      vertex 33.3333 -135.027 12.4922
      vertex 32.2085 -139.155 12.904
    endloop
  endfacet
  facet normal 0.708979 -0.123925 0.694256
    outer loop
      vertex 33.3333 -135.027 12.4922
      vertex 33.3333 -128.129 13.7235
      vertex 32.2085 -139.155 12.904
    endloop
  endfacet
  facet normal 0.707267 0.0255955 0.706483
    outer loop
      vertex 33.3333 -143.2 11.9245
      vertex 32.2085 -139.155 12.904
      vertex 32.6124 -143.2 12.6462
    endloop
  endfacet
  facet normal 0.70724 0.0255814 0.70651
    outer loop
      vertex 32.2085 -139.155 12.904
      vertex 33.3333 -143.2 11.9245
      vertex 33.3333 -139.049 11.7742
    endloop
  endfacet
  facet normal 0.578274 -0.0711554 0.812734
    outer loop
      vertex 31.391 -107.4 14.9327
      vertex 32.1972 -114.045 13.7773
      vertex 32.5727 -107.4 14.0919
    endloop
  endfacet
  facet normal 0.578327 -0.0711427 0.812697
    outer loop
      vertex 32.1972 -114.045 13.7773
      vertex 31.391 -107.4 14.9327
      vertex 29.6405 -114.287 15.5755
    endloop
  endfacet
  facet normal 0.578315 -0.0711389 0.812706
    outer loop
      vertex 31.391 -107.4 14.9327
      vertex 29.9694 -107.4 15.9443
      vertex 29.6405 -114.287 15.5755
    endloop
  endfacet
  facet normal 0.570005 0.0643587 0.819117
    outer loop
      vertex 30.9323 -126.72 15.6534
      vertex 33.3333 -124.872 13.8374
      vertex 32.1972 -114.045 13.7773
    endloop
  endfacet
  facet normal 0.570017 0.064337 0.81911
    outer loop
      vertex 33.3333 -124.872 13.8374
      vertex 30.9323 -126.72 15.6534
      vertex 33.3333 -126.494 13.9648
    endloop
  endfacet
  facet normal 0.570013 0.0643571 0.819111
    outer loop
      vertex 30.9323 -126.72 15.6534
      vertex 32.1972 -114.045 13.7773
      vertex 29.6405 -114.287 15.5755
    endloop
  endfacet
  facet normal 0.578777 -0.119038 0.806751
    outer loop
      vertex 29.8138 -139.381 14.5882
      vertex 33.3333 -128.129 13.7235
      vertex 33.3333 -127.067 13.8802
    endloop
  endfacet
  facet normal 0.578676 -0.119 0.806829
    outer loop
      vertex 33.3333 -128.129 13.7235
      vertex 29.8138 -139.381 14.5882
      vertex 32.2085 -139.155 12.904
    endloop
  endfacet
  facet normal 0.578649 -0.119124 0.80683
    outer loop
      vertex 30.9323 -126.72 15.6534
      vertex 33.3333 -127.067 13.8802
      vertex 33.3333 -126.494 13.9648
    endloop
  endfacet
  facet normal 0.578669 -0.119002 0.806834
    outer loop
      vertex 33.3333 -127.067 13.8802
      vertex 30.9323 -126.72 15.6534
      vertex 29.8138 -139.381 14.5882
    endloop
  endfacet
  facet normal 0.574907 0.00525895 0.818202
    outer loop
      vertex 32.6124 -143.2 12.6462
      vertex 32.2085 -139.155 12.904
      vertex 31.887 -143.2 13.1559
    endloop
  endfacet
  facet normal 0.574934 0.00525557 0.818183
    outer loop
      vertex 29.8138 -139.381 14.5882
      vertex 31.887 -143.2 13.1559
      vertex 32.2085 -139.155 12.904
    endloop
  endfacet
  facet normal 0.574941 0.00526103 0.818178
    outer loop
      vertex 31.887 -143.2 13.1559
      vertex 29.8138 -139.381 14.5882
      vertex 30.2408 -143.2 14.3127
    endloop
  endfacet
  facet normal 0.428482 -0.068708 0.900934
    outer loop
      vertex 28.7175 -107.4 16.5397
      vertex 29.6405 -114.287 15.5755
      vertex 29.9694 -107.4 15.9443
    endloop
  endfacet
  facet normal 0.428447 -0.068715 0.90095
    outer loop
      vertex 29.6405 -114.287 15.5755
      vertex 28.7175 -107.4 16.5397
      vertex 26.8118 -114.553 16.9004
    endloop
  endfacet
  facet normal 0.428463 -0.0687198 0.900942
    outer loop
      vertex 28.7175 -107.4 16.5397
      vertex 27.0841 -107.4 17.3165
      vertex 26.8118 -114.553 16.9004
    endloop
  endfacet
  facet normal 0.419825 0.0492985 0.906265
    outer loop
      vertex 30.9323 -126.72 15.6534
      vertex 29.6405 -114.287 15.5755
      vertex 28.0895 -126.988 16.9849
    endloop
  endfacet
  facet normal 0.419836 0.0492967 0.90626
    outer loop
      vertex 28.0895 -126.988 16.9849
      vertex 29.6405 -114.287 15.5755
      vertex 26.8118 -114.553 16.9004
    endloop
  endfacet
  facet normal 0.43017 -0.113351 0.895603
    outer loop
      vertex 29.8138 -139.381 14.5882
      vertex 30.9323 -126.72 15.6534
      vertex 27.1644 -139.631 15.8291
    endloop
  endfacet
  facet normal 0.430166 -0.11335 0.895605
    outer loop
      vertex 30.9323 -126.72 15.6534
      vertex 28.0895 -126.988 16.9849
      vertex 27.1644 -139.631 15.8291
    endloop
  endfacet
  facet normal 0.425431 -0.0177057 0.904817
    outer loop
      vertex 30.2408 -143.2 14.3127
      vertex 29.8138 -139.381 14.5882
      vertex 29.4828 -143.2 14.6691
    endloop
  endfacet
  facet normal 0.425455 -0.017708 0.904806
    outer loop
      vertex 27.1644 -139.631 15.8291
      vertex 29.4828 -143.2 14.6691
      vertex 29.8138 -139.381 14.5882
    endloop
  endfacet
  facet normal 0.425477 -0.0176909 0.904796
    outer loop
      vertex 29.4828 -143.2 14.6691
      vertex 27.1644 -139.631 15.8291
      vertex 27.6108 -143.2 15.5494
    endloop
  endfacet
  facet normal 0.265125 -0.0660507 0.961949
    outer loop
      vertex 25.8142 -107.4 17.6665
      vertex 26.8118 -114.553 16.9004
      vertex 27.0841 -107.4 17.3165
    endloop
  endfacet
  facet normal 0.265149 -0.0660467 0.961943
    outer loop
      vertex 26.8118 -114.553 16.9004
      vertex 25.8142 -107.4 17.6665
      vertex 23.7971 -114.838 17.7118
    endloop
  endfacet
  facet normal 0.265109 -0.0660357 0.961955
    outer loop
      vertex 25.8142 -107.4 17.6665
      vertex 24.0032 -107.4 18.1656
      vertex 23.7971 -114.838 17.7118
    endloop
  endfacet
  facet normal 0.256858 0.0329558 0.965887
    outer loop
      vertex 28.0895 -126.988 16.9849
      vertex 26.8118 -114.553 16.9004
      vertex 25.0596 -127.274 17.8004
    endloop
  endfacet
  facet normal 0.256851 0.0329569 0.965889
    outer loop
      vertex 25.0596 -127.274 17.8004
      vertex 26.8118 -114.553 16.9004
      vertex 23.7971 -114.838 17.7118
    endloop
  endfacet
  facet normal 0.267803 -0.107128 0.957499
    outer loop
      vertex 27.1644 -139.631 15.8291
      vertex 28.0895 -126.988 16.9849
      vertex 24.3407 -139.897 16.5891
    endloop
  endfacet
  facet normal 0.267823 -0.107134 0.957493
    outer loop
      vertex 28.0895 -126.988 16.9849
      vertex 25.0596 -127.274 17.8004
      vertex 24.3407 -139.897 16.5891
    endloop
  endfacet
  facet normal 0.263375 -0.0425865 0.963753
    outer loop
      vertex 27.6108 -143.2 15.5494
      vertex 27.1644 -139.631 15.8291
      vertex 26.8548 -143.2 15.756
    endloop
  endfacet
  facet normal 0.263404 -0.0425889 0.963745
    outer loop
      vertex 24.3407 -139.897 16.5891
      vertex 26.8548 -143.2 15.756
      vertex 27.1644 -139.631 15.8291
    endloop
  endfacet
  facet normal 0.263431 -0.0425673 0.963739
    outer loop
      vertex 26.8548 -143.2 15.756
      vertex 24.3407 -139.897 16.5891
      vertex 24.8006 -143.2 16.3175
    endloop
  endfacet
  facet normal 0.0932732 -0.063207 0.993632
    outer loop
      vertex 22.7632 -107.4 18.282
      vertex 23.7971 -114.838 17.7118
      vertex 24.0032 -107.4 18.1656
    endloop
  endfacet
  facet normal 0.0932624 -0.0632086 0.993633
    outer loop
      vertex 23.7971 -114.838 17.7118
      vertex 22.7632 -107.4 18.282
      vertex 20.6878 -115.131 17.985
    endloop
  endfacet
  facet normal 0.0932902 -0.063216 0.99363
    outer loop
      vertex 22.7632 -107.4 18.282
      vertex 20.8194 -107.4 18.4645
      vertex 20.6878 -115.131 17.985
    endloop
  endfacet
  facet normal 0.086046 0.0158325 0.996165
    outer loop
      vertex 25.0596 -127.274 17.8004
      vertex 23.7971 -114.838 17.7118
      vertex 21.9348 -127.569 18.075
    endloop
  endfacet
  facet normal 0.0860365 0.0158339 0.996166
    outer loop
      vertex 21.9348 -127.569 18.075
      vertex 23.7971 -114.838 17.7118
      vertex 20.6878 -115.131 17.985
    endloop
  endfacet
  facet normal 0.0965098 -0.10052 0.990243
    outer loop
      vertex 24.3407 -139.897 16.5891
      vertex 25.0596 -127.274 17.8004
      vertex 21.4286 -140.172 16.845
    endloop
  endfacet
  facet normal 0.0965099 -0.10052 0.990243
    outer loop
      vertex 25.0596 -127.274 17.8004
      vertex 21.9348 -127.569 18.075
      vertex 21.4286 -140.172 16.845
    endloop
  endfacet
  facet normal 0.0937037 -0.0686247 0.993232
    outer loop
      vertex 24.8006 -143.2 16.3175
      vertex 24.3407 -139.897 16.5891
      vertex 24.0777 -143.2 16.3857
    endloop
  endfacet
  facet normal 0.0937604 -0.0686289 0.993227
    outer loop
      vertex 21.4286 -140.172 16.845
      vertex 24.0777 -143.2 16.3857
      vertex 24.3407 -139.897 16.5891
    endloop
  endfacet
  facet normal 0.0937633 -0.0686264 0.993226
    outer loop
      vertex 24.0777 -143.2 16.3857
      vertex 21.4286 -140.172 16.845
      vertex 21.8945 -143.2 16.5918
    endloop
  endfacet
  facet normal -0.0817247 -0.0603111 0.994828
    outer loop
      vertex 19.6508 -107.4 18.3685
      vertex 20.6878 -115.131 17.985
      vertex 20.8194 -107.4 18.4645
    endloop
  endfacet
  facet normal -0.0817277 -0.0603115 0.994828
    outer loop
      vertex 20.6878 -115.131 17.985
      vertex 19.6508 -107.4 18.3685
      vertex 17.5785 -115.424 17.7118
    endloop
  endfacet
  facet normal -0.0817336 -0.0603099 0.994828
    outer loop
      vertex 19.6508 -107.4 18.3685
      vertex 17.6291 -107.4 18.2024
      vertex 17.5785 -115.424 17.7118
    endloop
  endfacet
  facet normal -0.0873946 -0.00155375 0.996173
    outer loop
      vertex 21.9348 -127.569 18.075
      vertex 20.6878 -115.131 17.985
      vertex 18.81 -127.864 17.8004
    endloop
  endfacet
  facet normal -0.0873826 -0.00155553 0.996174
    outer loop
      vertex 18.81 -127.864 17.8004
      vertex 20.6878 -115.131 17.985
      vertex 17.5785 -115.424 17.7118
    endloop
  endfacet
  facet normal -0.0783638 -0.0937173 0.99251
    outer loop
      vertex 21.4286 -140.172 16.845
      vertex 21.9348 -127.569 18.075
      vertex 18.5164 -140.447 16.5891
    endloop
  endfacet
  facet normal -0.0783721 -0.0937151 0.99251
    outer loop
      vertex 21.9348 -127.569 18.075
      vertex 18.81 -127.864 17.8004
      vertex 18.5164 -140.447 16.5891
    endloop
  endfacet
  facet normal -0.0782448 -0.0950227 0.992395
    outer loop
      vertex 21.8945 -143.2 16.5918
      vertex 21.4286 -140.172 16.845
      vertex 21.2299 -143.2 16.5394
    endloop
  endfacet
  facet normal -0.0782656 -0.0950212 0.992394
    outer loop
      vertex 21.4286 -140.172 16.845
      vertex 18.9805 -143.2 16.362
      vertex 21.2299 -143.2 16.5394
    endloop
  endfacet
  facet normal -0.0782276 -0.095052 0.992394
    outer loop
      vertex 18.9805 -143.2 16.362
      vertex 21.4286 -140.172 16.845
      vertex 18.5164 -140.447 16.5891
    endloop
  endfacet
  facet normal -0.254389 -0.0574216 0.965396
    outer loop
      vertex 16.6667 -107.4 17.9488
      vertex 17.5785 -115.424 17.7118
      vertex 17.6291 -107.4 18.2024
    endloop
  endfacet
  facet normal -0.254407 -0.0574235 0.965391
    outer loop
      vertex 17.5785 -115.424 17.7118
      vertex 16.6667 -107.4 17.9488
      vertex 16.6667 -115.51 17.4664
    endloop
  endfacet
  facet normal -0.258246 -0.0186858 0.965898
    outer loop
      vertex 16.6667 -121.876 17.3432
      vertex 18.81 -127.864 17.8004
      vertex 17.5785 -115.424 17.7118
    endloop
  endfacet
  facet normal -0.258186 -0.0186629 0.965915
    outer loop
      vertex 18.81 -127.864 17.8004
      vertex 16.6667 -121.876 17.3432
      vertex 16.6667 -128.066 17.2236
    endloop
  endfacet
  facet normal -0.2582 -0.0186931 0.965911
    outer loop
      vertex 17.5785 -115.424 17.7118
      vertex 16.6667 -115.51 17.4664
      vertex 16.6667 -121.876 17.3432
    endloop
  endfacet
  facet normal -0.251259 -0.0869373 0.964008
    outer loop
      vertex 16.6667 -136.699 16.445
      vertex 18.5164 -140.447 16.5891
      vertex 18.81 -127.864 17.8004
    endloop
  endfacet
  facet normal -0.25126 -0.0869376 0.964007
    outer loop
      vertex 18.5164 -140.447 16.5891
      vertex 16.6667 -136.699 16.445
      vertex 16.6667 -140.621 16.0913
    endloop
  endfacet
  facet normal -0.251239 -0.0869431 0.964012
    outer loop
      vertex 18.81 -127.864 17.8004
      vertex 16.6667 -128.066 17.2236
      vertex 16.6667 -136.699 16.445
    endloop
  endfacet
  facet normal -0.247251 -0.120987 0.961368
    outer loop
      vertex 18.9805 -143.2 16.362
      vertex 18.5164 -140.447 16.5891
      vertex 18.3926 -143.2 16.2108
    endloop
  endfacet
  facet normal -0.247342 -0.120979 0.961346
    outer loop
      vertex 16.6667 -140.621 16.0913
      vertex 18.3926 -143.2 16.2108
      vertex 18.5164 -140.447 16.5891
    endloop
  endfacet
  facet normal -0.247315 -0.120961 0.961355
    outer loop
      vertex 18.3926 -143.2 16.2108
      vertex 16.6667 -140.621 16.0913
      vertex 16.6667 -143.2 15.7668
    endloop
  endfacet
endsolid OpenSCAD_Model
