solid OpenSCAD_Model
  facet normal 0 0 1
    outer loop
      vertex 37.3333 -24.5 -7.66667
      vertex 51.8309 -28.1456 -7.66667
      vertex 51.8295 -25.5452 -7.66667
    endloop
  endfacet
  facet normal 0 0 1
    outer loop
      vertex 37.3333 -24.5 -7.66667
      vertex 51.8295 -25.5452 -7.66667
      vertex 51.8161 -25.0118 -7.66667
    endloop
  endfacet
  facet normal -0 0 1
    outer loop
      vertex 37.3333 -24.5 -7.66667
      vertex 51.8161 -25.0118 -7.66667
      vertex 51.8004 -24.5 -7.66667
    endloop
  endfacet
  facet normal 0 0 1
    outer loop
      vertex 51.8309 -28.1456 -7.66667
      vertex 37.3333 -24.5 -7.66667
      vertex 51.8301 -28.3754 -7.66667
    endloop
  endfacet
  facet normal 0 0 1
    outer loop
      vertex 51.8301 -28.3754 -7.66667
      vertex 37.3333 -24.5 -7.66667
      vertex 51.7533 -31.5568 -7.66667
    endloop
  endfacet
  facet normal 0 0 1
    outer loop
      vertex 51.7533 -31.5568 -7.66667
      vertex 37.3333 -24.5 -7.66667
      vertex 51.7504 -31.6657 -7.66667
    endloop
  endfacet
  facet normal 0 0 1
    outer loop
      vertex 51.7504 -31.6657 -7.66667
      vertex 37.3333 -24.5 -7.66667
      vertex 51.6367 -34.1621 -7.66667
    endloop
  endfacet
  facet normal 0 -0 1
    outer loop
      vertex 51.6337 -34.2087 -7.66667
      vertex 51.6367 -34.1621 -7.66667
      vertex 37.3333 -24.5 -7.66667
    endloop
  endfacet
  facet normal 0 0 -1
    outer loop
      vertex 51.6367 -34.1621 -7.66667
      vertex 51.6337 -34.2087 -7.66667
      vertex 51.6366 -34.1635 -7.66667
    endloop
  endfacet
  facet normal 0 0 1
    outer loop
      vertex 51.6337 -34.2087 -7.66667
      vertex 37.3333 -24.5 -7.66667
      vertex 48.6091 -44.5027 -7.66667
    endloop
  endfacet
  facet normal 0 0 1
    outer loop
      vertex 37.3333 -49 -7.66667
      vertex 48.6091 -44.5027 -7.66667
      vertex 37.3333 -24.5 -7.66667
    endloop
  endfacet
  facet normal 0 0 1
    outer loop
      vertex 48.6091 -44.5027 -7.66667
      vertex 37.3333 -49 -7.66667
      vertex 47.2634 -49 -7.66667
    endloop
  endfacet
  facet normal -1 0 0
    outer loop
      vertex 37.3333 -27.0529 -16.2771
      vertex 37.3333 -24.5 -7.66667
      vertex 37.3333 -24.5 -15.3485
    endloop
  endfacet
  facet normal -1 0 0
    outer loop
      vertex 37.3333 -27.1479 -16.3103
      vertex 37.3333 -24.5 -7.66667
      vertex 37.3333 -27.0529 -16.2771
    endloop
  endfacet
  facet normal -1 0 0
    outer loop
      vertex 37.3333 -29.4263 -17.0619
      vertex 37.3333 -24.5 -7.66667
      vertex 37.3333 -27.1479 -16.3103
    endloop
  endfacet
  facet normal -1 0 0
    outer loop
      vertex 37.3333 -38.2181 -17.5511
      vertex 37.3333 -24.5 -7.66667
      vertex 37.3333 -29.4263 -17.0619
    endloop
  endfacet
  facet normal -1 0 0
    outer loop
      vertex 37.3333 -49 -7.66667
      vertex 37.3333 -38.2181 -17.5511
      vertex 37.3333 -40.9772 -17.6228
    endloop
  endfacet
  facet normal -1 0 0
    outer loop
      vertex 37.3333 -49 -7.66667
      vertex 37.3333 -40.9772 -17.6228
      vertex 37.3333 -43.519 -17.6829
    endloop
  endfacet
  facet normal -1 0 0
    outer loop
      vertex 37.3333 -49 -7.66667
      vertex 37.3333 -43.519 -17.6829
      vertex 37.3333 -45.9929 -17.6616
    endloop
  endfacet
  facet normal -1 0 0
    outer loop
      vertex 37.3333 -49 -7.66667
      vertex 37.3333 -45.9929 -17.6616
      vertex 37.3333 -46.8538 -17.6524
    endloop
  endfacet
  facet normal -1 0 0
    outer loop
      vertex 37.3333 -49 -7.66667
      vertex 37.3333 -46.8538 -17.6524
      vertex 37.3333 -48.2659 -17.5883
    endloop
  endfacet
  facet normal -1 0 0
    outer loop
      vertex 37.3333 -49 -7.66667
      vertex 37.3333 -48.2659 -17.5883
      vertex 37.3333 -48.5332 -17.5757
    endloop
  endfacet
  facet normal -1 0 0
    outer loop
      vertex 37.3333 -49 -7.66667
      vertex 37.3333 -48.5332 -17.5757
      vertex 37.3333 -49 -17.5382
    endloop
  endfacet
  facet normal -1 0 0
    outer loop
      vertex 37.3333 -38.2181 -17.5511
      vertex 37.3333 -49 -7.66667
      vertex 37.3333 -24.5 -7.66667
    endloop
  endfacet
  facet normal 0 1 0
    outer loop
      vertex 51.1621 -24.5 -8.48815
      vertex 51.8004 -24.5 -7.66667
      vertex 51.2832 -24.5 -8.35061
    endloop
  endfacet
  facet normal 0 1 0
    outer loop
      vertex 51.8004 -24.5 -7.66667
      vertex 51.1621 -24.5 -8.48815
      vertex 37.3333 -24.5 -7.66667
    endloop
  endfacet
  facet normal 0 1 -0
    outer loop
      vertex 50.3097 -24.5 -9.41777
      vertex 37.3333 -24.5 -7.66667
      vertex 51.1621 -24.5 -8.48815
    endloop
  endfacet
  facet normal 0 1 -0
    outer loop
      vertex 49.8419 -24.5 -9.83821
      vertex 37.3333 -24.5 -7.66667
      vertex 50.3097 -24.5 -9.41777
    endloop
  endfacet
  facet normal 0 1 -0
    outer loop
      vertex 46.2038 -24.5 -12.9611
      vertex 37.3333 -24.5 -7.66667
      vertex 49.8419 -24.5 -9.83821
    endloop
  endfacet
  facet normal 0 1 0
    outer loop
      vertex 45.0223 -24.5 -13.6395
      vertex 46.2038 -24.5 -12.9611
      vertex 46.1704 -24.5 -12.9866
    endloop
  endfacet
  facet normal 0 1 0
    outer loop
      vertex 45.8375 -24.5 -13.2249
      vertex 46.1704 -24.5 -12.9866
      vertex 45.8667 -24.5 -13.2069
    endloop
  endfacet
  facet normal 0 1 0
    outer loop
      vertex 45.523 -24.5 -13.4046
      vertex 46.1704 -24.5 -12.9866
      vertex 45.8375 -24.5 -13.2249
    endloop
  endfacet
  facet normal 0 1 0
    outer loop
      vertex 45.523 -24.5 -13.4046
      vertex 45.8375 -24.5 -13.2249
      vertex 45.5668 -24.5 -13.382
    endloop
  endfacet
  facet normal 0 1 0
    outer loop
      vertex 45.1095 -24.5 -13.6036
      vertex 46.1704 -24.5 -12.9866
      vertex 45.523 -24.5 -13.4046
    endloop
  endfacet
  facet normal 0 1 0
    outer loop
      vertex 45.0223 -24.5 -13.6395
      vertex 46.1704 -24.5 -12.9866
      vertex 45.1095 -24.5 -13.6036
    endloop
  endfacet
  facet normal 0 1 0
    outer loop
      vertex 46.2038 -24.5 -12.9611
      vertex 45.0223 -24.5 -13.6395
      vertex 37.3333 -24.5 -7.66667
    endloop
  endfacet
  facet normal 0 1 -0
    outer loop
      vertex 44.1711 -24.5 -13.9611
      vertex 37.3333 -24.5 -7.66667
      vertex 45.0223 -24.5 -13.6395
    endloop
  endfacet
  facet normal 0 1 -0
    outer loop
      vertex 44.0326 -24.5 -14.0045
      vertex 37.3333 -24.5 -7.66667
      vertex 44.1711 -24.5 -13.9611
    endloop
  endfacet
  facet normal 0 1 -0
    outer loop
      vertex 42.591 -24.5 -14.4102
      vertex 37.3333 -24.5 -7.66667
      vertex 44.0326 -24.5 -14.0045
    endloop
  endfacet
  facet normal 0 1 -0
    outer loop
      vertex 42.287 -24.5 -14.4786
      vertex 37.3333 -24.5 -7.66667
      vertex 42.591 -24.5 -14.4102
    endloop
  endfacet
  facet normal 0 1 -0
    outer loop
      vertex 38.6863 -24.5 -15.1751
      vertex 37.3333 -24.5 -7.66667
      vertex 42.287 -24.5 -14.4786
    endloop
  endfacet
  facet normal 0 1 -0
    outer loop
      vertex 38.5771 -24.5 -15.1921
      vertex 37.3333 -24.5 -7.66667
      vertex 38.6863 -24.5 -15.1751
    endloop
  endfacet
  facet normal 0 1 0
    outer loop
      vertex 37.3333 -24.5 -7.66667
      vertex 38.5771 -24.5 -15.1921
      vertex 37.3333 -24.5 -15.3485
    endloop
  endfacet
  facet normal 0 -1 0
    outer loop
      vertex 47.052 -49 -8.45201
      vertex 47.2634 -49 -7.66667
      vertex 37.3333 -49 -7.66667
    endloop
  endfacet
  facet normal 0 -1 0
    outer loop
      vertex 47.2634 -49 -7.66667
      vertex 47.2022 -49 -7.96585
      vertex 47.2327 -49 -7.85898
    endloop
  endfacet
  facet normal 0 -1 0
    outer loop
      vertex 47.2634 -49 -7.66667
      vertex 47.052 -49 -8.45201
      vertex 47.2022 -49 -7.96585
    endloop
  endfacet
  facet normal 0 -1 0
    outer loop
      vertex 47.2022 -49 -7.96585
      vertex 47.052 -49 -8.45201
      vertex 47.0946 -49 -8.34549
    endloop
  endfacet
  facet normal 0 -1 0
    outer loop
      vertex 46.8166 -49 -8.99169
      vertex 47.052 -49 -8.45201
      vertex 37.3333 -49 -7.66667
    endloop
  endfacet
  facet normal 0 -1 0
    outer loop
      vertex 47.052 -49 -8.45201
      vertex 46.8166 -49 -8.99169
      vertex 46.9003 -49 -8.83367
    endloop
  endfacet
  facet normal 0 -1 0
    outer loop
      vertex 46.4106 -49 -9.72037
      vertex 46.8166 -49 -8.99169
      vertex 37.3333 -49 -7.66667
    endloop
  endfacet
  facet normal 0 -1 0
    outer loop
      vertex 46.8166 -49 -8.99169
      vertex 46.4106 -49 -9.72037
      vertex 46.5139 -49 -9.56612
    endloop
  endfacet
  facet normal 0 -1 0
    outer loop
      vertex 37.3333 -49 -7.66667
      vertex 46.0277 -49 -10.2947
      vertex 46.4106 -49 -9.72037
    endloop
  endfacet
  facet normal 0 -1 0
    outer loop
      vertex 37.3333 -49 -7.66667
      vertex 45.8237 -49 -10.5399
      vertex 46.0277 -49 -10.2947
    endloop
  endfacet
  facet normal 0 -1 0
    outer loop
      vertex 37.3333 -49 -7.66667
      vertex 45.0383 -49 -11.4878
      vertex 45.8237 -49 -10.5399
    endloop
  endfacet
  facet normal 0 -1 0
    outer loop
      vertex 37.3333 -49 -7.66667
      vertex 44.7665 -49 -11.7548
      vertex 45.0383 -49 -11.4878
    endloop
  endfacet
  facet normal 0 -1 0
    outer loop
      vertex 37.3333 -49 -7.66667
      vertex 43.6468 -49 -12.8574
      vertex 44.7665 -49 -11.7548
    endloop
  endfacet
  facet normal 0 -1 0
    outer loop
      vertex 37.3333 -49 -7.66667
      vertex 42.6809 -49 -13.5922
      vertex 43.6468 -49 -12.8574
    endloop
  endfacet
  facet normal 0 -1 0
    outer loop
      vertex 37.3333 -49 -7.66667
      vertex 38.0106 -49 -17.1458
      vertex 42.6809 -49 -13.5922
    endloop
  endfacet
  facet normal 0 -1 0
    outer loop
      vertex 37.3333 -49 -7.66667
      vertex 37.9514 -49 -17.1831
      vertex 38.0106 -49 -17.1458
    endloop
  endfacet
  facet normal 0 -1 0
    outer loop
      vertex 37.3333 -49 -17.5382
      vertex 37.9514 -49 -17.1831
      vertex 37.3333 -49 -7.66667
    endloop
  endfacet
  facet normal 0 -1 0
    outer loop
      vertex 37.9514 -49 -17.1831
      vertex 37.513 -49 -17.4515
      vertex 37.5639 -49 -17.4267
    endloop
  endfacet
  facet normal 0 -1 0
    outer loop
      vertex 37.9514 -49 -17.1831
      vertex 37.3333 -49 -17.5382
      vertex 37.513 -49 -17.4515
    endloop
  endfacet
  facet normal 0.144857 0.326428 -0.934056
    outer loop
      vertex 37.3333 -27.0529 -16.2771
      vertex 38.6863 -24.5 -15.1751
      vertex 37.3333 -27.1479 -16.3103
    endloop
  endfacet
  facet normal 0.145414 0.326139 -0.934071
    outer loop
      vertex 38.6863 -24.5 -15.1751
      vertex 37.3333 -27.0529 -16.2771
      vertex 38.5771 -24.5 -15.1921
    endloop
  endfacet
  facet normal 0.117353 0.33947 -0.933268
    outer loop
      vertex 38.5771 -24.5 -15.1921
      vertex 37.3333 -27.0529 -16.2771
      vertex 37.3333 -24.5 -15.3485
    endloop
  endfacet
  facet normal 0.209604 0.297041 -0.931575
    outer loop
      vertex 42.591 -24.5 -14.4102
      vertex 40.23 -30.395 -16.8211
      vertex 42.287 -24.5 -14.4786
    endloop
  endfacet
  facet normal 0.180677 0.308113 -0.934035
    outer loop
      vertex 37.3333 -27.1479 -16.3103
      vertex 42.287 -24.5 -14.4786
      vertex 40.23 -30.395 -16.8211
    endloop
  endfacet
  facet normal 0.180685 0.308119 -0.934032
    outer loop
      vertex 37.3333 -27.1479 -16.3103
      vertex 40.23 -30.395 -16.8211
      vertex 37.3333 -29.4263 -17.0619
    endloop
  endfacet
  facet normal 0.180675 0.308117 -0.934035
    outer loop
      vertex 42.287 -24.5 -14.4786
      vertex 37.3333 -27.1479 -16.3103
      vertex 38.6863 -24.5 -15.1751
    endloop
  endfacet
  facet normal 0.2885 0.262925 -0.920673
    outer loop
      vertex 44.1711 -24.5 -13.9611
      vertex 41.8792 -30.9466 -16.5203
      vertex 44.0326 -24.5 -14.0045
    endloop
  endfacet
  facet normal 0.260515 0.274236 -0.925703
    outer loop
      vertex 41.8792 -30.9466 -16.5203
      vertex 42.591 -24.5 -14.4102
      vertex 44.0326 -24.5 -14.0045
    endloop
  endfacet
  facet normal 0.260558 0.274228 -0.925693
    outer loop
      vertex 42.591 -24.5 -14.4102
      vertex 41.8792 -30.9466 -16.5203
      vertex 40.23 -30.395 -16.8211
    endloop
  endfacet
  facet normal 0.370765 0.226921 -0.900578
    outer loop
      vertex 45.1095 -24.5 -13.6036
      vertex 42.8805 -31.2814 -16.23
      vertex 45.0223 -24.5 -13.6395
    endloop
  endfacet
  facet normal 0.343225 0.238621 -0.908436
    outer loop
      vertex 42.8805 -31.2814 -16.23
      vertex 44.1711 -24.5 -13.9611
      vertex 45.0223 -24.5 -13.6395
    endloop
  endfacet
  facet normal 0.343173 0.238636 -0.908452
    outer loop
      vertex 44.1711 -24.5 -13.9611
      vertex 42.8805 -31.2814 -16.23
      vertex 41.8792 -30.9466 -16.5203
    endloop
  endfacet
  facet normal 0.450144 0.190479 -0.872403
    outer loop
      vertex 45.5668 -24.5 -13.382
      vertex 43.3743 -31.4466 -16.03
      vertex 45.523 -24.5 -13.4046
    endloop
  endfacet
  facet normal 0.424698 0.202157 -0.882476
    outer loop
      vertex 43.3743 -31.4466 -16.03
      vertex 45.1095 -24.5 -13.6036
      vertex 45.523 -24.5 -13.4046
    endloop
  endfacet
  facet normal 0.424974 0.20205 -0.882368
    outer loop
      vertex 45.1095 -24.5 -13.6036
      vertex 43.3743 -31.4466 -16.03
      vertex 42.8805 -31.2814 -16.23
    endloop
  endfacet
  facet normal 0.518216 0.157296 -0.840661
    outer loop
      vertex 45.8667 -24.5 -13.2069
      vertex 43.7005 -31.5556 -15.8624
      vertex 45.8375 -24.5 -13.2249
    endloop
  endfacet
  facet normal 0.494738 0.168827 -0.852486
    outer loop
      vertex 43.7005 -31.5556 -15.8624
      vertex 45.5668 -24.5 -13.382
      vertex 45.8375 -24.5 -13.2249
    endloop
  endfacet
  facet normal 0.494508 0.168928 -0.852599
    outer loop
      vertex 45.5668 -24.5 -13.382
      vertex 43.7005 -31.5556 -15.8624
      vertex 43.3743 -31.4466 -16.03
    endloop
  endfacet
  facet normal 0.602977 0.112535 -0.789781
    outer loop
      vertex 46.2038 -24.5 -12.9611
      vertex 44.0691 -31.6789 -15.6138
      vertex 46.1704 -24.5 -12.9866
    endloop
  endfacet
  facet normal 0.582684 0.123413 -0.803274
    outer loop
      vertex 44.0691 -31.6789 -15.6138
      vertex 45.8667 -24.5 -13.2069
      vertex 46.1704 -24.5 -12.9866
    endloop
  endfacet
  facet normal 0.58291 0.123306 -0.803126
    outer loop
      vertex 45.8667 -24.5 -13.2069
      vertex 44.0691 -31.6789 -15.6138
      vertex 43.7005 -31.5556 -15.8624
    endloop
  endfacet
  facet normal 0.666261 0.080955 -0.741311
    outer loop
      vertex 50.3097 -24.5 -9.41777
      vertex 48.7457 -33.2429 -11.7782
      vertex 49.8419 -24.5 -9.83821
    endloop
  endfacet
  facet normal 0.6489 0.086381 -0.755955
    outer loop
      vertex 48.7457 -33.2429 -11.7782
      vertex 46.2038 -24.5 -12.9611
      vertex 49.8419 -24.5 -9.83821
    endloop
  endfacet
  facet normal 0.648899 0.0863806 -0.755955
    outer loop
      vertex 46.2038 -24.5 -12.9611
      vertex 48.7457 -33.2429 -11.7782
      vertex 44.0691 -31.6789 -15.6138
    endloop
  endfacet
  facet normal 0.749766 0.0453428 -0.660147
    outer loop
      vertex 51.2832 -24.5 -8.35061
      vertex 49.9081 -33.6316 -10.5396
      vertex 51.1621 -24.5 -8.48815
    endloop
  endfacet
  facet normal 0.736114 0.0505471 -0.674968
    outer loop
      vertex 49.9081 -33.6316 -10.5396
      vertex 50.3097 -24.5 -9.41777
      vertex 51.1621 -24.5 -8.48815
    endloop
  endfacet
  facet normal 0.736115 0.0505468 -0.674966
    outer loop
      vertex 50.3097 -24.5 -9.41777
      vertex 49.9081 -33.6316 -10.5396
      vertex 48.7457 -33.2429 -11.7782
    endloop
  endfacet
  facet normal 0.808096 0.0203009 -0.588701
    outer loop
      vertex 51.8295 -25.5452 -7.66667
      vertex 50.7365 -33.9086 -9.45541
      vertex 51.8161 -25.0118 -7.66667
    endloop
  endfacet
  facet normal 0.797379 0.0244604 -0.602983
    outer loop
      vertex 51.8161 -25.0118 -7.66667
      vertex 51.2832 -24.5 -8.35061
      vertex 51.8004 -24.5 -7.66667
    endloop
  endfacet
  facet normal 0.797382 0.0244685 -0.602979
    outer loop
      vertex 51.8161 -25.0118 -7.66667
      vertex 49.9081 -33.6316 -10.5396
      vertex 51.2832 -24.5 -8.35061
    endloop
  endfacet
  facet normal 0.79737 0.0244763 -0.602995
    outer loop
      vertex 49.9081 -33.6316 -10.5396
      vertex 51.8161 -25.0118 -7.66667
      vertex 50.7365 -33.9086 -9.45541
    endloop
  endfacet
  facet normal 0.86033 -0.00299506 -0.509729
    outer loop
      vertex 51.8301 -28.3754 -7.66667
      vertex 51.1442 -34.045 -8.79103
      vertex 51.8309 -28.1456 -7.66667
    endloop
  endfacet
  facet normal 0.852351 0.000458888 -0.52297
    outer loop
      vertex 51.8309 -28.1456 -7.66667
      vertex 50.7365 -33.9086 -9.45541
      vertex 51.8295 -25.5452 -7.66667
    endloop
  endfacet
  facet normal 0.852357 0.00045452 -0.52296
    outer loop
      vertex 50.7365 -33.9086 -9.45541
      vertex 51.8309 -28.1456 -7.66667
      vertex 51.1442 -34.045 -8.79103
    endloop
  endfacet
  facet normal 0.903389 -0.0240572 -0.428147
    outer loop
      vertex 51.7504 -31.6657 -7.66667
      vertex 51.4686 -34.1535 -8.12148
      vertex 51.7533 -31.5568 -7.66667
    endloop
  endfacet
  facet normal 0.898379 -0.0216871 -0.438686
    outer loop
      vertex 51.7533 -31.5568 -7.66667
      vertex 51.1442 -34.045 -8.79103
      vertex 51.8301 -28.3754 -7.66667
    endloop
  endfacet
  facet normal 0.898344 -0.0216453 -0.438759
    outer loop
      vertex 51.1442 -34.045 -8.79103
      vertex 51.7533 -31.5568 -7.66667
      vertex 51.4686 -34.1535 -8.12148
    endloop
  endfacet
  facet normal 0.973427 -0.0695305 -0.218188
    outer loop
      vertex 51.6366 -34.1635 -7.66667
      vertex 51.6317 -34.208 -7.67435
      vertex 51.6367 -34.1621 -7.66667
    endloop
  endfacet
  facet normal 0.936865 -0.0426701 -0.347077
    outer loop
      vertex 51.6367 -34.1621 -7.66667
      vertex 51.4686 -34.1535 -8.12148
      vertex 51.7504 -31.6657 -7.66667
    endloop
  endfacet
  facet normal 0.936804 -0.0439751 -0.347079
    outer loop
      vertex 51.4686 -34.1535 -8.12148
      vertex 51.6367 -34.1621 -7.66667
      vertex 51.6317 -34.208 -7.67435
    endloop
  endfacet
  facet normal 0.96448 -0.0618803 -0.256807
    outer loop
      vertex 51.6337 -34.2087 -7.66667
      vertex 51.6317 -34.208 -7.67435
      vertex 51.6366 -34.1635 -7.66667
    endloop
  endfacet
  facet normal 0.10106 0.0552724 -0.993344
    outer loop
      vertex 40.23 -30.395 -16.8211
      vertex 37.3333 -38.2181 -17.5511
      vertex 37.3333 -29.4263 -17.0619
    endloop
  endfacet
  facet normal 0.186946 0.0232213 -0.982096
    outer loop
      vertex 37.3333 -40.9772 -17.6228
      vertex 41.8792 -30.9466 -16.5203
      vertex 37.3333 -43.519 -17.6829
    endloop
  endfacet
  facet normal 0.186901 0.0232424 -0.982104
    outer loop
      vertex 41.8792 -30.9466 -16.5203
      vertex 37.3333 -40.9772 -17.6228
      vertex 40.23 -30.395 -16.8211
    endloop
  endfacet
  facet normal 0.178837 0.0255592 -0.983547
    outer loop
      vertex 40.23 -30.395 -16.8211
      vertex 37.3333 -40.9772 -17.6228
      vertex 37.3333 -38.2181 -17.5511
    endloop
  endfacet
  facet normal 0.275331 -0.0102729 -0.961294
    outer loop
      vertex 37.3333 -45.9929 -17.6616
      vertex 42.8805 -31.2814 -16.23
      vertex 37.3333 -46.8538 -17.6524
    endloop
  endfacet
  facet normal 0.275278 -0.0102513 -0.96131
    outer loop
      vertex 42.8805 -31.2814 -16.23
      vertex 37.3333 -45.9929 -17.6616
      vertex 41.8792 -30.9466 -16.5203
    endloop
  endfacet
  facet normal 0.269227 -0.00829168 -0.963041
    outer loop
      vertex 41.8792 -30.9466 -16.5203
      vertex 37.3333 -45.9929 -17.6616
      vertex 37.3333 -43.519 -17.6829
    endloop
  endfacet
  facet normal 0.362345 -0.043886 -0.93101
    outer loop
      vertex 37.3333 -48.2659 -17.5883
      vertex 43.3743 -31.4466 -16.03
      vertex 37.3333 -48.5332 -17.5757
    endloop
  endfacet
  facet normal 0.362386 -0.0439022 -0.930994
    outer loop
      vertex 43.3743 -31.4466 -16.03
      vertex 37.3333 -48.2659 -17.5883
      vertex 42.8805 -31.2814 -16.23
    endloop
  endfacet
  facet normal 0.358034 -0.0423406 -0.932748
    outer loop
      vertex 42.8805 -31.2814 -16.23
      vertex 37.3333 -48.2659 -17.5883
      vertex 37.3333 -46.8538 -17.6524
    endloop
  endfacet
  facet normal 0.436353 -0.073081 -0.896803
    outer loop
      vertex 37.5639 -49 -17.4267
      vertex 43.3743 -31.4466 -16.03
      vertex 43.7005 -31.5556 -15.8624
    endloop
  endfacet
  facet normal 0.436829 -0.0732582 -0.896557
    outer loop
      vertex 43.3743 -31.4466 -16.03
      vertex 37.5639 -49 -17.4267
      vertex 37.513 -49 -17.4515
    endloop
  endfacet
  facet normal 0.433406 -0.0721646 -0.898305
    outer loop
      vertex 37.3333 -48.5332 -17.5757
      vertex 37.513 -49 -17.4515
      vertex 37.3333 -49 -17.5382
    endloop
  endfacet
  facet normal 0.433625 -0.0720545 -0.898208
    outer loop
      vertex 37.513 -49 -17.4515
      vertex 37.3333 -48.5332 -17.5757
      vertex 43.3743 -31.4466 -16.03
    endloop
  endfacet
  facet normal 0.529916 -0.110989 -0.840756
    outer loop
      vertex 38.0106 -49 -17.1458
      vertex 43.7005 -31.5556 -15.8624
      vertex 44.0691 -31.6789 -15.6138
    endloop
  endfacet
  facet normal 0.529788 -0.110941 -0.840843
    outer loop
      vertex 43.7005 -31.5556 -15.8624
      vertex 38.0106 -49 -17.1458
      vertex 37.9514 -49 -17.1831
    endloop
  endfacet
  facet normal 0.52895 -0.110622 -0.841412
    outer loop
      vertex 37.9514 -49 -17.1831
      vertex 37.5639 -49 -17.4267
      vertex 43.7005 -31.5556 -15.8624
    endloop
  endfacet
  facet normal 0.599495 -0.14002 -0.788036
    outer loop
      vertex 43.6468 -49 -12.8574
      vertex 44.0691 -31.6789 -15.6138
      vertex 48.7457 -33.2429 -11.7782
    endloop
  endfacet
  facet normal 0.599493 -0.140021 -0.788037
    outer loop
      vertex 44.0691 -31.6789 -15.6138
      vertex 43.6468 -49 -12.8574
      vertex 42.6809 -49 -13.5922
    endloop
  endfacet
  facet normal 0.599568 -0.14002 -0.78798
    outer loop
      vertex 42.6809 -49 -13.5922
      vertex 38.0106 -49 -17.1458
      vertex 44.0691 -31.6789 -15.6138
    endloop
  endfacet
  facet normal 0.689855 -0.175257 -0.702414
    outer loop
      vertex 45.0383 -49 -11.4878
      vertex 48.7457 -33.2429 -11.7782
      vertex 49.9081 -33.6316 -10.5396
    endloop
  endfacet
  facet normal 0.689931 -0.175274 -0.702335
    outer loop
      vertex 48.7457 -33.2429 -11.7782
      vertex 45.0383 -49 -11.4878
      vertex 44.7665 -49 -11.7548
    endloop
  endfacet
  facet normal 0.690757 -0.175481 -0.70147
    outer loop
      vertex 44.7665 -49 -11.7548
      vertex 43.6468 -49 -12.8574
      vertex 48.7457 -33.2429 -11.7782
    endloop
  endfacet
  facet normal 0.753179 -0.200157 -0.626625
    outer loop
      vertex 45.8237 -49 -10.5399
      vertex 50.7365 -33.9086 -9.45541
      vertex 46.0277 -49 -10.2947
    endloop
  endfacet
  facet normal 0.75318 -0.200158 -0.626623
    outer loop
      vertex 50.7365 -33.9086 -9.45541
      vertex 45.8237 -49 -10.5399
      vertex 49.9081 -33.6316 -10.5396
    endloop
  endfacet
  facet normal 0.75439 -0.200479 -0.625063
    outer loop
      vertex 45.8237 -49 -10.5399
      vertex 45.0383 -49 -11.4878
      vertex 49.9081 -33.6316 -10.5396
    endloop
  endfacet
  facet normal 0.810026 -0.222681 -0.542468
    outer loop
      vertex 46.4106 -49 -9.72037
      vertex 51.1442 -34.045 -8.79103
      vertex 46.5139 -49 -9.56612
    endloop
  endfacet
  facet normal 0.809888 -0.222624 -0.542697
    outer loop
      vertex 51.1442 -34.045 -8.79103
      vertex 46.4106 -49 -9.72037
      vertex 50.7365 -33.9086 -9.45541
    endloop
  endfacet
  facet normal 0.811089 -0.223002 -0.540745
    outer loop
      vertex 46.4106 -49 -9.72037
      vertex 46.0277 -49 -10.2947
      vertex 50.7365 -33.9086 -9.45541
    endloop
  endfacet
  facet normal 0.857414 -0.242042 -0.454155
    outer loop
      vertex 46.8166 -49 -8.99169
      vertex 51.4686 -34.1535 -8.12148
      vertex 46.9003 -49 -8.83367
    endloop
  endfacet
  facet normal 0.857231 -0.241962 -0.454542
    outer loop
      vertex 51.4686 -34.1535 -8.12148
      vertex 46.8166 -49 -8.99169
      vertex 51.1442 -34.045 -8.79103
    endloop
  endfacet
  facet normal 0.85832 -0.242307 -0.452298
    outer loop
      vertex 46.8166 -49 -8.99169
      vertex 46.5139 -49 -9.56612
      vertex 51.1442 -34.045 -8.79103
    endloop
  endfacet
  facet normal 0.896863 -0.258818 -0.358678
    outer loop
      vertex 47.052 -49 -8.45201
      vertex 51.6317 -34.208 -7.67435
      vertex 47.0946 -49 -8.34549
    endloop
  endfacet
  facet normal 0.896857 -0.258815 -0.358694
    outer loop
      vertex 51.6317 -34.208 -7.67435
      vertex 47.052 -49 -8.45201
      vertex 51.4686 -34.1535 -8.12148
    endloop
  endfacet
  facet normal 0.897558 -0.259067 -0.356756
    outer loop
      vertex 47.052 -49 -8.45201
      vertex 46.9003 -49 -8.83367
      vertex 51.4686 -34.1535 -8.12148
    endloop
  endfacet
  facet normal 0.924969 -0.271776 -0.265649
    outer loop
      vertex 48.6091 -44.5027 -7.66667
      vertex 51.6317 -34.208 -7.67435
      vertex 51.6337 -34.2087 -7.66667
    endloop
  endfacet
  facet normal 0.925373 -0.271918 -0.264095
    outer loop
      vertex 47.2022 -49 -7.96585
      vertex 48.6091 -44.5027 -7.66667
      vertex 47.2327 -49 -7.85898
    endloop
  endfacet
  facet normal 0.92529 -0.271869 -0.264433
    outer loop
      vertex 48.6091 -44.5027 -7.66667
      vertex 47.2022 -49 -7.96585
      vertex 51.6317 -34.208 -7.67435
    endloop
  endfacet
  facet normal 0.925811 -0.272065 -0.262399
    outer loop
      vertex 47.2022 -49 -7.96585
      vertex 47.0946 -49 -8.34549
      vertex 51.6317 -34.208 -7.67435
    endloop
  endfacet
  facet normal 0.947019 -0.283371 -0.15118
    outer loop
      vertex 47.2634 -49 -7.66667
      vertex 47.2327 -49 -7.85898
      vertex 48.6091 -44.5027 -7.66667
    endloop
  endfacet
endsolid OpenSCAD_Model
