solid OpenSCAD_Model
  facet normal 1 -0 0
    outer loop
      vertex 56 -36.75 -7.66667
      vertex 56 -18.375 -23
      vertex 56 -18.375 -7.66667
    endloop
  endfacet
  facet normal 1 0 0
    outer loop
      vertex 56 -18.375 -23
      vertex 56 -36.75 -7.66667
      vertex 56 -36.75 -23
    endloop
  endfacet
  facet normal 0 0 -1
    outer loop
      vertex 37.3333 -36.75 -23
      vertex 56 -18.375 -23
      vertex 56 -36.75 -23
    endloop
  endfacet
  facet normal -0 0 -1
    outer loop
      vertex 56 -18.375 -23
      vertex 37.3333 -36.75 -23
      vertex 37.3333 -18.375 -23
    endloop
  endfacet
  facet normal -0 0 1
    outer loop
      vertex 37.3333 -18.375 -7.66667
      vertex 56 -36.75 -7.66667
      vertex 56 -18.375 -7.66667
    endloop
  endfacet
  facet normal 0 0 1
    outer loop
      vertex 56 -36.75 -7.66667
      vertex 37.3333 -18.375 -7.66667
      vertex 37.3333 -36.75 -7.66667
    endloop
  endfacet
  facet normal -1 0 0
    outer loop
      vertex 37.3333 -36.75 -23
      vertex 37.3333 -18.375 -7.66667
      vertex 37.3333 -18.375 -23
    endloop
  endfacet
  facet normal -1 -0 0
    outer loop
      vertex 37.3333 -18.375 -7.66667
      vertex 37.3333 -36.75 -23
      vertex 37.3333 -36.75 -7.66667
    endloop
  endfacet
  facet normal 0 1 -0
    outer loop
      vertex 56 -18.375 -23
      vertex 37.3333 -18.375 -7.66667
      vertex 56 -18.375 -7.66667
    endloop
  endfacet
  facet normal 0 1 0
    outer loop
      vertex 37.3333 -18.375 -7.66667
      vertex 56 -18.375 -23
      vertex 37.3333 -18.375 -23
    endloop
  endfacet
  facet normal 0 -1 0
    outer loop
      vertex 37.3333 -36.75 -23
      vertex 56 -36.75 -7.66667
      vertex 37.3333 -36.75 -7.66667
    endloop
  endfacet
  facet normal 0 -1 -0
    outer loop
      vertex 56 -36.75 -7.66667
      vertex 37.3333 -36.75 -23
      vertex 56 -36.75 -23
    endloop
  endfacet
endsolid OpenSCAD_Model
