solid OpenSCAD_Model
  facet normal 0 0 1
    outer loop
      vertex 37.3333 -122.5 -7.66667
      vertex 51.8448 -117.443 -7.66667
      vertex 51.7141 -117.196 -7.66667
    endloop
  endfacet
  facet normal 0 0 1
    outer loop
      vertex 37.3333 -122.5 -7.66667
      vertex 51.7141 -117.196 -7.66667
      vertex 49.7866 -113.561 -7.66667
    endloop
  endfacet
  facet normal 0 0 1
    outer loop
      vertex 37.3333 -122.5 -7.66667
      vertex 49.6105 -113.121 -7.66667
      vertex 47.0128 -106.633 -7.66667
    endloop
  endfacet
  facet normal -0 0 1
    outer loop
      vertex 37.3333 -98 -7.66667
      vertex 46.8874 -106.028 -7.66667
      vertex 45.2221 -98 -7.66667
    endloop
  endfacet
  facet normal 0 0 1
    outer loop
      vertex 37.3333 -98 -7.66667
      vertex 47.0128 -106.633 -7.66667
      vertex 46.8874 -106.028 -7.66667
    endloop
  endfacet
  facet normal 0 0 1
    outer loop
      vertex 37.3333 -122.5 -7.66667
      vertex 47.0128 -106.633 -7.66667
      vertex 37.3333 -98 -7.66667
    endloop
  endfacet
  facet normal 0 0 1
    outer loop
      vertex 49.6105 -113.121 -7.66667
      vertex 37.3333 -122.5 -7.66667
      vertex 49.7866 -113.561 -7.66667
    endloop
  endfacet
  facet normal 0 0 1
    outer loop
      vertex 51.8448 -117.443 -7.66667
      vertex 37.3333 -122.5 -7.66667
      vertex 54.5146 -122.5 -7.66667
    endloop
  endfacet
  facet normal -1 0 0
    outer loop
      vertex 37.3333 -98.3564 -18.2308
      vertex 37.3333 -98 -7.66667
      vertex 37.3333 -98 -18.199
    endloop
  endfacet
  facet normal -1 0 0
    outer loop
      vertex 37.3333 -101.871 -18.7886
      vertex 37.3333 -98 -7.66667
      vertex 37.3333 -98.3564 -18.2308
    endloop
  endfacet
  facet normal -1 0 0
    outer loop
      vertex 37.3333 -109.056 -19.9281
      vertex 37.3333 -98 -7.66667
      vertex 37.3333 -101.871 -18.7886
    endloop
  endfacet
  facet normal -1 0 0
    outer loop
      vertex 37.3333 -122.5 -7.66667
      vertex 37.3333 -109.056 -19.9281
      vertex 37.3333 -109.705 -20.1157
    endloop
  endfacet
  facet normal -1 0 0
    outer loop
      vertex 37.3333 -122.5 -7.66667
      vertex 37.3333 -109.705 -20.1157
      vertex 37.3333 -111.156 -20.5245
    endloop
  endfacet
  facet normal -1 0 0
    outer loop
      vertex 37.3333 -122.5 -7.66667
      vertex 37.3333 -111.156 -20.5245
      vertex 37.3333 -112.065 -20.7367
    endloop
  endfacet
  facet normal -1 0 0
    outer loop
      vertex 37.3333 -122.5 -7.66667
      vertex 37.3333 -112.065 -20.7367
      vertex 37.3333 -112.56 -20.8512
    endloop
  endfacet
  facet normal -1 0 0
    outer loop
      vertex 37.3333 -122.5 -7.66667
      vertex 37.3333 -112.56 -20.8512
      vertex 37.3333 -113.203 -20.9657
    endloop
  endfacet
  facet normal -1 0 0
    outer loop
      vertex 37.3333 -122.5 -7.66667
      vertex 37.3333 -113.203 -20.9657
      vertex 37.3333 -113.805 -21.0716
    endloop
  endfacet
  facet normal -1 0 0
    outer loop
      vertex 37.3333 -122.5 -7.66667
      vertex 37.3333 -113.805 -21.0716
      vertex 37.3333 -114.503 -21.1693
    endloop
  endfacet
  facet normal -1 0 0
    outer loop
      vertex 37.3333 -122.5 -7.66667
      vertex 37.3333 -114.503 -21.1693
      vertex 37.3333 -115.696 -21.3345
    endloop
  endfacet
  facet normal -1 0 0
    outer loop
      vertex 37.3333 -122.5 -7.66667
      vertex 37.3333 -115.696 -21.3345
      vertex 37.3333 -116.331 -21.398
    endloop
  endfacet
  facet normal -1 0 0
    outer loop
      vertex 37.3333 -122.5 -7.66667
      vertex 37.3333 -116.331 -21.398
      vertex 37.3333 -117.853 -21.5485
    endloop
  endfacet
  facet normal -1 0 0
    outer loop
      vertex 37.3333 -122.5 -7.66667
      vertex 37.3333 -117.853 -21.5485
      vertex 37.3333 -118.742 -21.659
    endloop
  endfacet
  facet normal -1 0 0
    outer loop
      vertex 37.3333 -122.5 -7.66667
      vertex 37.3333 -118.742 -21.659
      vertex 37.3333 -119.209 -21.7162
    endloop
  endfacet
  facet normal -1 0 0
    outer loop
      vertex 37.3333 -122.5 -7.66667
      vertex 37.3333 -119.209 -21.7162
      vertex 37.3333 -121.362 -21.8836
    endloop
  endfacet
  facet normal -1 0 0
    outer loop
      vertex 37.3333 -122.5 -7.66667
      vertex 37.3333 -121.362 -21.8836
      vertex 37.3333 -122.5 -21.9708
    endloop
  endfacet
  facet normal -1 0 0
    outer loop
      vertex 37.3333 -109.056 -19.9281
      vertex 37.3333 -122.5 -7.66667
      vertex 37.3333 -98 -7.66667
    endloop
  endfacet
  facet normal 0 1 -0
    outer loop
      vertex 45.1765 -98 -8.794
      vertex 37.3333 -98 -7.66667
      vertex 45.2221 -98 -7.66667
    endloop
  endfacet
  facet normal 0 1 0
    outer loop
      vertex 45.0884 -98 -9.44825
      vertex 45.1765 -98 -8.794
      vertex 45.1715 -98 -8.91763
    endloop
  endfacet
  facet normal 0 1 0
    outer loop
      vertex 45.1765 -98 -8.794
      vertex 45.0884 -98 -9.44825
      vertex 37.3333 -98 -7.66667
    endloop
  endfacet
  facet normal 0 1 0
    outer loop
      vertex 44.931 -98 -10.0362
      vertex 45.0884 -98 -9.44825
      vertex 45.0801 -98 -9.50142
    endloop
  endfacet
  facet normal 0 1 0
    outer loop
      vertex 45.0884 -98 -9.44825
      vertex 44.931 -98 -10.0362
      vertex 37.3333 -98 -7.66667
    endloop
  endfacet
  facet normal 0 1 0
    outer loop
      vertex 44.7062 -98 -10.626
      vertex 44.931 -98 -10.0362
      vertex 44.9166 -98 -10.088
    endloop
  endfacet
  facet normal 0 1 0
    outer loop
      vertex 44.931 -98 -10.0362
      vertex 44.7062 -98 -10.626
      vertex 37.3333 -98 -7.66667
    endloop
  endfacet
  facet normal 0 1 -0
    outer loop
      vertex 44.6867 -98 -10.6758
      vertex 37.3333 -98 -7.66667
      vertex 44.7062 -98 -10.626
    endloop
  endfacet
  facet normal 0 1 -0
    outer loop
      vertex 44.2651 -98 -11.4879
      vertex 37.3333 -98 -7.66667
      vertex 44.6867 -98 -10.6758
    endloop
  endfacet
  facet normal 0 1 -0
    outer loop
      vertex 44.2298 -98 -11.5559
      vertex 37.3333 -98 -7.66667
      vertex 44.2651 -98 -11.4879
    endloop
  endfacet
  facet normal 0 1 -0
    outer loop
      vertex 43.6942 -98 -12.3702
      vertex 37.3333 -98 -7.66667
      vertex 44.2298 -98 -11.5559
    endloop
  endfacet
  facet normal 0 1 -0
    outer loop
      vertex 43.6553 -98 -12.4292
      vertex 37.3333 -98 -7.66667
      vertex 43.6942 -98 -12.3702
    endloop
  endfacet
  facet normal 0 1 -0
    outer loop
      vertex 42.5451 -98 -13.785
      vertex 37.3333 -98 -7.66667
      vertex 43.6553 -98 -12.4292
    endloop
  endfacet
  facet normal 0 1 -0
    outer loop
      vertex 42.4882 -98 -13.8545
      vertex 37.3333 -98 -7.66667
      vertex 42.5451 -98 -13.785
    endloop
  endfacet
  facet normal 0 1 -0
    outer loop
      vertex 40.8861 -98 -15.4474
      vertex 37.3333 -98 -7.66667
      vertex 42.4882 -98 -13.8545
    endloop
  endfacet
  facet normal 0 1 -0
    outer loop
      vertex 40.8507 -98 -15.4825
      vertex 37.3333 -98 -7.66667
      vertex 40.8861 -98 -15.4474
    endloop
  endfacet
  facet normal 0 1 -0
    outer loop
      vertex 39.5391 -98 -16.4862
      vertex 37.3333 -98 -7.66667
      vertex 40.8507 -98 -15.4825
    endloop
  endfacet
  facet normal 0 1 0
    outer loop
      vertex 37.3333 -98 -7.66667
      vertex 39.5391 -98 -16.4862
      vertex 37.3333 -98 -18.199
    endloop
  endfacet
  facet normal 0 -1 0
    outer loop
      vertex 52.3604 -122.5 -12.8906
      vertex 54.5146 -122.5 -7.66667
      vertex 37.3333 -122.5 -7.66667
    endloop
  endfacet
  facet normal 0 -1 0
    outer loop
      vertex 54.5146 -122.5 -7.66667
      vertex 52.3604 -122.5 -12.8906
      vertex 54.5077 -122.5 -7.82098
    endloop
  endfacet
  facet normal -0 -1 0
    outer loop
      vertex 53.2465 -122.5 -11.7878
      vertex 54.5077 -122.5 -7.82098
      vertex 52.3604 -122.5 -12.8906
    endloop
  endfacet
  facet normal -0 -1 0
    outer loop
      vertex 53.8066 -122.5 -10.8757
      vertex 54.5077 -122.5 -7.82098
      vertex 53.2465 -122.5 -11.7878
    endloop
  endfacet
  facet normal 0 -1 0
    outer loop
      vertex 54.5077 -122.5 -7.82098
      vertex 53.8066 -122.5 -10.8757
      vertex 54.44 -122.5 -9.02487
    endloop
  endfacet
  facet normal 0 -1 0
    outer loop
      vertex 54.44 -122.5 -9.02487
      vertex 54.3226 -122.5 -9.61395
      vertex 54.3573 -122.5 -9.50142
    endloop
  endfacet
  facet normal 0 -1 0
    outer loop
      vertex 54.3226 -122.5 -9.61395
      vertex 54.1239 -122.5 -10.2089
      vertex 54.1763 -122.5 -10.088
    endloop
  endfacet
  facet normal 0 -1 0
    outer loop
      vertex 54.44 -122.5 -9.02487
      vertex 54.1239 -122.5 -10.2089
      vertex 54.3226 -122.5 -9.61395
    endloop
  endfacet
  facet normal 0 -1 0
    outer loop
      vertex 54.1239 -122.5 -10.2089
      vertex 53.8066 -122.5 -10.8757
      vertex 53.9217 -122.5 -10.6758
    endloop
  endfacet
  facet normal -0 -1 0
    outer loop
      vertex 54.1239 -122.5 -10.2089
      vertex 54.44 -122.5 -9.02487
      vertex 53.8066 -122.5 -10.8757
    endloop
  endfacet
  facet normal 0 -1 0
    outer loop
      vertex 53.8066 -122.5 -10.8757
      vertex 53.2465 -122.5 -11.7878
      vertex 53.4157 -122.5 -11.5559
    endloop
  endfacet
  facet normal 0 -1 0
    outer loop
      vertex 54.5077 -122.5 -7.82098
      vertex 54.44 -122.5 -9.02487
      vertex 54.4586 -122.5 -8.91763
    endloop
  endfacet
  facet normal 0 -1 0
    outer loop
      vertex 53.2465 -122.5 -11.7878
      vertex 52.3604 -122.5 -12.8906
      vertex 52.7793 -122.5 -12.4292
    endloop
  endfacet
  facet normal 0 -1 0
    outer loop
      vertex 37.3333 -122.5 -7.66667
      vertex 51.4864 -122.5 -13.8545
      vertex 52.3604 -122.5 -12.8906
    endloop
  endfacet
  facet normal 0 -1 0
    outer loop
      vertex 37.3333 -122.5 -7.66667
      vertex 50.7038 -122.5 -14.556
      vertex 51.4864 -122.5 -13.8545
    endloop
  endfacet
  facet normal 0 -1 0
    outer loop
      vertex 37.3333 -122.5 -7.66667
      vertex 49.6716 -122.5 -15.4825
      vertex 50.7038 -122.5 -14.556
    endloop
  endfacet
  facet normal 0 -1 0
    outer loop
      vertex 37.3333 -122.5 -7.66667
      vertex 43.3774 -122.5 -19.8254
      vertex 49.6716 -122.5 -15.4825
    endloop
  endfacet
  facet normal 0 -1 0
    outer loop
      vertex 37.3333 -122.5 -7.66667
      vertex 42.365 -122.5 -20.5245
      vertex 43.3774 -122.5 -19.8254
    endloop
  endfacet
  facet normal 0 -1 0
    outer loop
      vertex 40.9488 -122.5 -21.184
      vertex 42.365 -122.5 -20.5245
      vertex 37.3333 -122.5 -7.66667
    endloop
  endfacet
  facet normal 0 -1 0
    outer loop
      vertex 42.365 -122.5 -20.5245
      vertex 40.9488 -122.5 -21.184
      vertex 41.8149 -122.5 -20.8364
    endloop
  endfacet
  facet normal -0 -1 0
    outer loop
      vertex 41.2878 -122.5 -21.0677
      vertex 41.8149 -122.5 -20.8364
      vertex 40.9488 -122.5 -21.184
    endloop
  endfacet
  facet normal 0 -1 0
    outer loop
      vertex 41.8149 -122.5 -20.8364
      vertex 41.2878 -122.5 -21.0677
      vertex 41.7887 -122.5 -20.8512
    endloop
  endfacet
  facet normal 0 -1 0
    outer loop
      vertex 41.2878 -122.5 -21.0677
      vertex 40.9488 -122.5 -21.184
      vertex 41.2788 -122.5 -21.0716
    endloop
  endfacet
  facet normal 0 -1 0
    outer loop
      vertex 40.4572 -122.5 -21.3481
      vertex 40.9488 -122.5 -21.184
      vertex 37.3333 -122.5 -7.66667
    endloop
  endfacet
  facet normal 0 -1 0
    outer loop
      vertex 40.9488 -122.5 -21.184
      vertex 40.4572 -122.5 -21.3481
      vertex 40.5119 -122.5 -21.3345
    endloop
  endfacet
  facet normal 0 -1 0
    outer loop
      vertex 37.3333 -122.5 -7.66667
      vertex 38.9669 -122.5 -21.7162
      vertex 40.4572 -122.5 -21.3481
    endloop
  endfacet
  facet normal 0 -1 0
    outer loop
      vertex 37.3333 -122.5 -7.66667
      vertex 38.5433 -122.5 -21.7825
      vertex 38.9669 -122.5 -21.7162
    endloop
  endfacet
  facet normal -0 -1 0
    outer loop
      vertex 38.5433 -122.5 -21.7825
      vertex 37.3333 -122.5 -7.66667
      vertex 37.3333 -122.5 -21.9708
    endloop
  endfacet
  facet normal 0.611793 0.0702997 -0.787888
    outer loop
      vertex 39.5391 -98 -16.4862
      vertex 37.3333 -98.3564 -18.2308
      vertex 37.3333 -98 -18.199
    endloop
  endfacet
  facet normal 0.602971 0.125032 -0.787904
    outer loop
      vertex 37.3333 -101.871 -18.7886
      vertex 40.8507 -98 -15.4825
      vertex 42.8565 -107.673 -15.4825
    endloop
  endfacet
  facet normal 0.602951 0.12506 -0.787915
    outer loop
      vertex 40.8507 -98 -15.4825
      vertex 37.3333 -101.871 -18.7886
      vertex 39.5391 -98 -16.4862
    endloop
  endfacet
  facet normal 0.602963 0.125048 -0.787908
    outer loop
      vertex 39.5391 -98 -16.4862
      vertex 37.3333 -101.871 -18.7886
      vertex 37.3333 -98.3564 -18.2308
    endloop
  endfacet
  facet normal 0.602926 0.124964 -0.787949
    outer loop
      vertex 42.8565 -107.673 -15.4825
      vertex 37.3333 -109.056 -19.9281
      vertex 37.3333 -101.871 -18.7886
    endloop
  endfacet
  facet normal 0.69765 0.144677 -0.701679
    outer loop
      vertex 44.4135 -107.284 -13.8545
      vertex 40.8861 -98 -15.4474
      vertex 42.4882 -98 -13.8545
    endloop
  endfacet
  facet normal 0.697598 0.144648 -0.701737
    outer loop
      vertex 42.8565 -107.673 -15.4825
      vertex 40.8861 -98 -15.4474
      vertex 44.4135 -107.284 -13.8545
    endloop
  endfacet
  facet normal 0.696705 0.144469 -0.70266
    outer loop
      vertex 40.8861 -98 -15.4474
      vertex 42.8565 -107.673 -15.4825
      vertex 40.8507 -98 -15.4825
    endloop
  endfacet
  facet normal 0.763931 0.158435 -0.625546
    outer loop
      vertex 45.5231 -107.006 -12.4292
      vertex 42.5451 -98 -13.785
      vertex 43.6553 -98 -12.4292
    endloop
  endfacet
  facet normal 0.763982 0.158463 -0.625476
    outer loop
      vertex 45.5231 -107.006 -12.4292
      vertex 42.4882 -98 -13.8545
      vertex 42.5451 -98 -13.785
    endloop
  endfacet
  facet normal 0.763896 0.158415 -0.625594
    outer loop
      vertex 42.4882 -98 -13.8545
      vertex 45.5231 -107.006 -12.4292
      vertex 44.4135 -107.284 -13.8545
    endloop
  endfacet
  facet normal 0.823207 0.17074 -0.541459
    outer loop
      vertex 46.0693 -106.869 -11.5559
      vertex 43.6942 -98 -12.3702
      vertex 44.2298 -98 -11.5559
    endloop
  endfacet
  facet normal 0.822645 0.170504 -0.542388
    outer loop
      vertex 46.0693 -106.869 -11.5559
      vertex 43.6553 -98 -12.4292
      vertex 43.6942 -98 -12.3702
    endloop
  endfacet
  facet normal 0.823122 0.170711 -0.541597
    outer loop
      vertex 43.6553 -98 -12.4292
      vertex 46.0693 -106.869 -11.5559
      vertex 45.5231 -107.006 -12.4292
    endloop
  endfacet
  facet normal 0.872859 0.181049 -0.453143
    outer loop
      vertex 46.5037 -106.76 -10.6758
      vertex 44.2651 -98 -11.4879
      vertex 44.6867 -98 -10.6758
    endloop
  endfacet
  facet normal 0.872869 0.181053 -0.453122
    outer loop
      vertex 46.5037 -106.76 -10.6758
      vertex 44.2298 -98 -11.5559
      vertex 44.2651 -98 -11.4879
    endloop
  endfacet
  facet normal 0.872819 0.18103 -0.453227
    outer loop
      vertex 44.2298 -98 -11.5559
      vertex 46.5037 -106.76 -10.6758
      vertex 46.0693 -106.869 -11.5559
    endloop
  endfacet
  facet normal 0.914411 0.189657 -0.357606
    outer loop
      vertex 46.7223 -106.706 -10.088
      vertex 44.7062 -98 -10.626
      vertex 44.9166 -98 -10.088
    endloop
  endfacet
  facet normal 0.91427 0.1896 -0.357997
    outer loop
      vertex 46.7223 -106.706 -10.088
      vertex 44.6867 -98 -10.6758
      vertex 44.7062 -98 -10.626
    endloop
  endfacet
  facet normal 0.914448 0.189675 -0.357504
    outer loop
      vertex 44.6867 -98 -10.6758
      vertex 46.7223 -106.706 -10.088
      vertex 46.5037 -106.76 -10.6758
    endloop
  endfacet
  facet normal 0.944595 0.195916 -0.263359
    outer loop
      vertex 46.8777 -106.667 -9.50142
      vertex 44.931 -98 -10.0362
      vertex 45.0801 -98 -9.50142
    endloop
  endfacet
  facet normal 0.944777 0.196001 -0.262641
    outer loop
      vertex 46.8777 -106.667 -9.50142
      vertex 44.9166 -98 -10.088
      vertex 44.931 -98 -10.0362
    endloop
  endfacet
  facet normal 0.944616 0.195922 -0.263279
    outer loop
      vertex 44.9166 -98 -10.088
      vertex 46.8777 -106.667 -9.50142
      vertex 46.7223 -106.706 -10.088
    endloop
  endfacet
  facet normal 0.967844 0.200756 -0.151573
    outer loop
      vertex 46.9647 -106.645 -8.91763
      vertex 45.0884 -98 -9.44825
      vertex 45.1715 -98 -8.91763
    endloop
  endfacet
  facet normal 0.967814 0.200736 -0.151794
    outer loop
      vertex 46.8777 -106.667 -9.50142
      vertex 45.0884 -98 -9.44825
      vertex 46.9647 -106.645 -8.91763
    endloop
  endfacet
  facet normal 0.96792 0.200754 -0.151095
    outer loop
      vertex 45.0884 -98 -9.44825
      vertex 46.8777 -106.667 -9.50142
      vertex 45.0801 -98 -9.50142
    endloop
  endfacet
  facet normal 0.978388 0.202953 -0.0395754
    outer loop
      vertex 46.8874 -106.028 -7.66667
      vertex 45.1765 -98 -8.794
      vertex 45.2221 -98 -7.66667
    endloop
  endfacet
  facet normal 0.978388 0.202954 -0.0395692
    outer loop
      vertex 46.8874 -106.028 -7.66667
      vertex 45.1715 -98 -8.91763
      vertex 45.1765 -98 -8.794
    endloop
  endfacet
  facet normal 0.978421 0.2028 -0.0395661
    outer loop
      vertex 46.9647 -106.645 -8.91763
      vertex 46.8874 -106.028 -7.66667
      vertex 47.0128 -106.633 -7.66667
    endloop
  endfacet
  facet normal 0.978388 0.202943 -0.0396389
    outer loop
      vertex 46.8874 -106.028 -7.66667
      vertex 46.9647 -106.645 -8.91763
      vertex 45.1715 -98 -8.91763
    endloop
  endfacet
  facet normal 0.250018 0.0963436 -0.963436
    outer loop
      vertex 38.067 -117.6 -21.3345
      vertex 37.3333 -116.331 -21.398
      vertex 37.3333 -115.696 -21.3345
    endloop
  endfacet
  facet normal 0.248298 0.0953215 -0.963982
    outer loop
      vertex 38.067 -117.6 -21.3345
      vertex 37.3333 -117.853 -21.5485
      vertex 37.3333 -116.331 -21.398
    endloop
  endfacet
  facet normal 0.337919 0.130466 -0.932089
    outer loop
      vertex 38.7124 -117.377 -21.0716
      vertex 37.3333 -114.503 -21.1693
      vertex 37.3333 -113.805 -21.0716
    endloop
  endfacet
  facet normal 0.335449 0.129264 -0.933148
    outer loop
      vertex 37.3333 -115.696 -21.3345
      vertex 38.7124 -117.377 -21.0716
      vertex 38.067 -117.6 -21.3345
    endloop
  endfacet
  facet normal 0.3354 0.12922 -0.933171
    outer loop
      vertex 38.7124 -117.377 -21.0716
      vertex 37.3333 -115.696 -21.3345
      vertex 37.3333 -114.503 -21.1693
    endloop
  endfacet
  facet normal 0.413018 0.159662 -0.896618
    outer loop
      vertex 39.1386 -117.23 -20.8512
      vertex 37.3333 -113.203 -20.9657
      vertex 37.3333 -112.56 -20.8512
    endloop
  endfacet
  facet normal 0.409936 0.158271 -0.898278
    outer loop
      vertex 37.3333 -113.805 -21.0716
      vertex 39.1386 -117.23 -20.8512
      vertex 38.7124 -117.377 -21.0716
    endloop
  endfacet
  facet normal 0.409555 0.158056 -0.898489
    outer loop
      vertex 39.1386 -117.23 -20.8512
      vertex 37.3333 -113.805 -21.0716
      vertex 37.3333 -113.203 -20.9657
    endloop
  endfacet
  facet normal 0.506398 0.196028 -0.839723
    outer loop
      vertex 39.6203 -117.064 -20.5245
      vertex 37.3333 -112.065 -20.7367
      vertex 37.3333 -111.156 -20.5245
    endloop
  endfacet
  facet normal 0.503714 0.194723 -0.841638
    outer loop
      vertex 37.3333 -112.56 -20.8512
      vertex 39.6203 -117.064 -20.5245
      vertex 39.1386 -117.23 -20.8512
    endloop
  endfacet
  facet normal 0.503658 0.194691 -0.841679
    outer loop
      vertex 39.6203 -117.064 -20.5245
      vertex 37.3333 -112.56 -20.8512
      vertex 37.3333 -112.065 -20.7367
    endloop
  endfacet
  facet normal 0.575483 0.227128 -0.785641
    outer loop
      vertex 37.3333 -109.705 -20.1157
      vertex 42.8565 -107.673 -15.4825
      vertex 45.7317 -114.958 -15.4825
    endloop
  endfacet
  facet normal 0.575495 0.227098 -0.785642
    outer loop
      vertex 42.8565 -107.673 -15.4825
      vertex 37.3333 -109.705 -20.1157
      vertex 37.3333 -109.056 -19.9281
    endloop
  endfacet
  facet normal 0.573809 0.222123 -0.788292
    outer loop
      vertex 37.3333 -111.156 -20.5245
      vertex 45.7317 -114.958 -15.4825
      vertex 39.6203 -117.064 -20.5245
    endloop
  endfacet
  facet normal 0.573804 0.222094 -0.788304
    outer loop
      vertex 45.7317 -114.958 -15.4825
      vertex 37.3333 -111.156 -20.5245
      vertex 37.3333 -109.705 -20.1157
    endloop
  endfacet
  facet normal 0.664835 0.263777 -0.698868
    outer loop
      vertex 47.2507 -114.435 -13.8545
      vertex 42.8565 -107.673 -15.4825
      vertex 44.4135 -107.284 -13.8545
    endloop
  endfacet
  facet normal 0.662408 0.261435 -0.702045
    outer loop
      vertex 45.7317 -114.958 -15.4825
      vertex 42.8565 -107.673 -15.4825
      vertex 47.2507 -114.435 -13.8545
    endloop
  endfacet
  facet normal 0.727072 0.289572 -0.622507
    outer loop
      vertex 48.3333 -114.062 -12.4292
      vertex 44.4135 -107.284 -13.8545
      vertex 45.5231 -107.006 -12.4292
    endloop
  endfacet
  facet normal 0.724931 0.287621 -0.625899
    outer loop
      vertex 47.2507 -114.435 -13.8545
      vertex 44.4135 -107.284 -13.8545
      vertex 48.3333 -114.062 -12.4292
    endloop
  endfacet
  facet normal 0.782627 0.312303 -0.538482
    outer loop
      vertex 48.8662 -113.878 -11.5559
      vertex 45.5231 -107.006 -12.4292
      vertex 46.0693 -106.869 -11.5559
    endloop
  endfacet
  facet normal 0.780766 0.310956 -0.541951
    outer loop
      vertex 48.3333 -114.062 -12.4292
      vertex 45.5231 -107.006 -12.4292
      vertex 48.8662 -113.878 -11.5559
    endloop
  endfacet
  facet normal 0.829128 0.331354 -0.450279
    outer loop
      vertex 49.29 -113.732 -10.6758
      vertex 46.0693 -106.869 -11.5559
      vertex 46.5037 -106.76 -10.6758
    endloop
  endfacet
  facet normal 0.827819 0.330336 -0.453424
    outer loop
      vertex 48.8662 -113.878 -11.5559
      vertex 46.0693 -106.869 -11.5559
      vertex 49.29 -113.732 -10.6758
    endloop
  endfacet
  facet normal 0.868106 0.347205 -0.354741
    outer loop
      vertex 49.5032 -113.659 -10.088
      vertex 46.5037 -106.76 -10.6758
      vertex 46.7223 -106.706 -10.088
    endloop
  endfacet
  facet normal 0.867195 0.346567 -0.35758
    outer loop
      vertex 49.29 -113.732 -10.6758
      vertex 46.5037 -106.76 -10.6758
      vertex 49.5032 -113.659 -10.088
    endloop
  endfacet
  facet normal 0.896158 0.35867 -0.261262
    outer loop
      vertex 49.6549 -113.606 -9.50142
      vertex 46.7223 -106.706 -10.088
      vertex 46.8777 -106.667 -9.50142
    endloop
  endfacet
  facet normal 0.895558 0.358184 -0.263971
    outer loop
      vertex 49.5032 -113.659 -10.088
      vertex 46.7223 -106.706 -10.088
      vertex 49.6549 -113.606 -9.50142
    endloop
  endfacet
  facet normal 0.917784 0.367405 -0.150619
    outer loop
      vertex 49.7397 -113.577 -8.91763
      vertex 46.8777 -106.667 -9.50142
      vertex 46.9647 -106.645 -8.91763
    endloop
  endfacet
  facet normal 0.91768 0.367284 -0.151545
    outer loop
      vertex 49.6549 -113.606 -9.50142
      vertex 46.8777 -106.667 -9.50142
      vertex 49.7397 -113.577 -8.91763
    endloop
  endfacet
  facet normal 0.927639 0.371413 -0.039231
    outer loop
      vertex 49.6105 -113.121 -7.66667
      vertex 46.9647 -106.645 -8.91763
      vertex 47.0128 -106.633 -7.66667
    endloop
  endfacet
  facet normal 0.927678 0.371282 -0.0395285
    outer loop
      vertex 49.7397 -113.577 -8.91763
      vertex 49.6105 -113.121 -7.66667
      vertex 49.7866 -113.561 -7.66667
    endloop
  endfacet
  facet normal 0.927648 0.371354 -0.0395577
    outer loop
      vertex 49.6105 -113.121 -7.66667
      vertex 49.7397 -113.577 -8.91763
      vertex 46.9647 -106.645 -8.91763
    endloop
  endfacet
  facet normal 0.154181 0.0764208 -0.985083
    outer loop
      vertex 37.3333 -121.362 -21.8836
      vertex 38.9669 -122.5 -21.7162
      vertex 38.5433 -122.5 -21.7825
    endloop
  endfacet
  facet normal 0.154295 0.0765897 -0.985052
    outer loop
      vertex 38.9669 -122.5 -21.7162
      vertex 37.3333 -121.362 -21.8836
      vertex 37.3333 -119.209 -21.7162
    endloop
  endfacet
  facet normal 0.15333 0.0754982 -0.985287
    outer loop
      vertex 38.5433 -122.5 -21.7825
      vertex 37.3333 -122.5 -21.9708
      vertex 37.3333 -121.362 -21.8836
    endloop
  endfacet
  facet normal 0.239553 0.119527 -0.963497
    outer loop
      vertex 40.4572 -122.5 -21.3481
      vertex 38.067 -117.6 -21.3345
      vertex 40.5119 -122.5 -21.3345
    endloop
  endfacet
  facet normal 0.239837 0.119666 -0.96341
    outer loop
      vertex 37.3333 -118.742 -21.659
      vertex 38.067 -117.6 -21.3345
      vertex 40.4572 -122.5 -21.3481
    endloop
  endfacet
  facet normal 0.239712 0.119751 -0.96343
    outer loop
      vertex 38.067 -117.6 -21.3345
      vertex 37.3333 -118.742 -21.659
      vertex 37.3333 -117.853 -21.5485
    endloop
  endfacet
  facet normal 0.23811 0.118194 -0.96402
    outer loop
      vertex 37.3333 -119.209 -21.7162
      vertex 40.4572 -122.5 -21.3481
      vertex 38.9669 -122.5 -21.7162
    endloop
  endfacet
  facet normal 0.237997 0.118082 -0.964061
    outer loop
      vertex 40.4572 -122.5 -21.3481
      vertex 37.3333 -119.209 -21.7162
      vertex 37.3333 -118.742 -21.659
    endloop
  endfacet
  facet normal 0.323757 0.161956 -0.932176
    outer loop
      vertex 41.2136 -122.377 -21.0716
      vertex 38.067 -117.6 -21.3345
      vertex 38.7124 -117.377 -21.0716
    endloop
  endfacet
  facet normal 0.321457 0.160718 -0.933186
    outer loop
      vertex 40.5119 -122.5 -21.3345
      vertex 41.2136 -122.377 -21.0716
      vertex 40.9488 -122.5 -21.184
    endloop
  endfacet
  facet normal 0.321519 0.160425 -0.933215
    outer loop
      vertex 41.2136 -122.377 -21.0716
      vertex 40.5119 -122.5 -21.3345
      vertex 38.067 -117.6 -21.3345
    endloop
  endfacet
  facet normal 0.395439 0.198174 -0.896859
    outer loop
      vertex 41.6228 -122.187 -20.8512
      vertex 38.7124 -117.377 -21.0716
      vertex 39.1386 -117.23 -20.8512
    endloop
  endfacet
  facet normal 0.392699 0.196444 -0.898442
    outer loop
      vertex 41.2136 -122.377 -21.0716
      vertex 38.7124 -117.377 -21.0716
      vertex 41.6228 -122.187 -20.8512
    endloop
  endfacet
  facet normal 0.48544 0.243748 -0.839604
    outer loop
      vertex 42.0852 -121.973 -20.5245
      vertex 39.1386 -117.23 -20.8512
      vertex 39.6203 -117.064 -20.5245
    endloop
  endfacet
  facet normal 0.482725 0.241917 -0.841696
    outer loop
      vertex 41.6228 -122.187 -20.8512
      vertex 39.1386 -117.23 -20.8512
      vertex 42.0852 -121.973 -20.5245
    endloop
  endfacet
  facet normal 0.549866 0.284477 -0.785315
    outer loop
      vertex 47.9522 -119.25 -15.4825
      vertex 39.6203 -117.064 -20.5245
      vertex 45.7317 -114.958 -15.4825
    endloop
  endfacet
  facet normal 0.549585 0.275957 -0.788546
    outer loop
      vertex 42.0852 -121.973 -20.5245
      vertex 39.6203 -117.064 -20.5245
      vertex 47.9522 -119.25 -15.4825
    endloop
  endfacet
  facet normal 0.634493 0.331154 -0.698395
    outer loop
      vertex 49.4104 -118.573 -13.8545
      vertex 45.7317 -114.958 -15.4825
      vertex 47.2507 -114.435 -13.8545
    endloop
  endfacet
  facet normal 0.632249 0.327099 -0.702329
    outer loop
      vertex 47.9522 -119.25 -15.4825
      vertex 45.7317 -114.958 -15.4825
      vertex 49.4104 -118.573 -13.8545
    endloop
  endfacet
  facet normal 0.693283 0.364159 -0.62189
    outer loop
      vertex 50.4496 -118.091 -12.4292
      vertex 47.2507 -114.435 -13.8545
      vertex 48.3333 -114.062 -12.4292
    endloop
  endfacet
  facet normal 0.691297 0.360801 -0.626045
    outer loop
      vertex 49.4104 -118.573 -13.8545
      vertex 47.2507 -114.435 -13.8545
      vertex 50.4496 -118.091 -12.4292
    endloop
  endfacet
  facet normal 0.745772 0.393055 -0.537896
    outer loop
      vertex 50.9612 -117.853 -11.5559
      vertex 48.3333 -114.062 -12.4292
      vertex 48.8662 -113.878 -11.5559
    endloop
  endfacet
  facet normal 0.743847 0.390718 -0.542246
    outer loop
      vertex 50.4496 -118.091 -12.4292
      vertex 48.3333 -114.062 -12.4292
      vertex 50.9612 -117.853 -11.5559
    endloop
  endfacet
  facet normal 0.78975 0.41739 -0.449534
    outer loop
      vertex 51.3681 -117.664 -10.6758
      vertex 48.8662 -113.878 -11.5559
      vertex 49.29 -113.732 -10.6758
    endloop
  endfacet
  facet normal 0.788357 0.415499 -0.453712
    outer loop
      vertex 50.9612 -117.853 -11.5559
      vertex 48.8662 -113.878 -11.5559
      vertex 51.3681 -117.664 -10.6758
    endloop
  endfacet
  facet normal 0.82655 0.437501 -0.354131
    outer loop
      vertex 51.5728 -117.569 -10.088
      vertex 49.29 -113.732 -10.6758
      vertex 49.5032 -113.659 -10.088
    endloop
  endfacet
  facet normal 0.82552 0.436295 -0.357999
    outer loop
      vertex 51.3681 -117.664 -10.6758
      vertex 49.29 -113.732 -10.6758
      vertex 51.5728 -117.569 -10.088
    endloop
  endfacet
  facet normal 0.852973 0.451774 -0.261414
    outer loop
      vertex 51.7184 -117.502 -9.50142
      vertex 49.5032 -113.659 -10.088
      vertex 49.6549 -113.606 -9.50142
    endloop
  endfacet
  facet normal 0.852663 0.451323 -0.263198
    outer loop
      vertex 51.5728 -117.569 -10.088
      vertex 49.5032 -113.659 -10.088
      vertex 51.7184 -117.502 -9.50142
    endloop
  endfacet
  facet normal 0.873591 0.463001 -0.149896
    outer loop
      vertex 51.7998 -117.464 -8.91763
      vertex 49.6549 -113.606 -9.50142
      vertex 49.7397 -113.577 -8.91763
    endloop
  endfacet
  facet normal 0.873448 0.462618 -0.151901
    outer loop
      vertex 51.7184 -117.502 -9.50142
      vertex 49.6549 -113.606 -9.50142
      vertex 51.7998 -117.464 -8.91763
    endloop
  endfacet
  facet normal 0.882802 0.468116 -0.0390846
    outer loop
      vertex 51.7141 -117.196 -7.66667
      vertex 49.7397 -113.577 -8.91763
      vertex 49.7866 -113.561 -7.66667
    endloop
  endfacet
  facet normal 0.88319 0.46734 -0.0396157
    outer loop
      vertex 51.7998 -117.464 -8.91763
      vertex 51.7141 -117.196 -7.66667
      vertex 51.8448 -117.443 -7.66667
    endloop
  endfacet
  facet normal 0.882875 0.467922 -0.0397619
    outer loop
      vertex 51.7141 -117.196 -7.66667
      vertex 51.7998 -117.464 -8.91763
      vertex 49.7397 -113.577 -8.91763
    endloop
  endfacet
  facet normal 0.317809 0.168465 -0.933069
    outer loop
      vertex 41.2788 -122.5 -21.0716
      vertex 40.9488 -122.5 -21.184
      vertex 41.2136 -122.377 -21.0716
    endloop
  endfacet
  facet normal 0.388257 0.205788 -0.898281
    outer loop
      vertex 41.2878 -122.5 -21.0677
      vertex 41.6228 -122.187 -20.8512
      vertex 41.7887 -122.5 -20.8512
    endloop
  endfacet
  facet normal 0.388287 0.205753 -0.898276
    outer loop
      vertex 41.6228 -122.187 -20.8512
      vertex 41.2878 -122.5 -21.0677
      vertex 41.2136 -122.377 -21.0716
    endloop
  endfacet
  facet normal 0.38906 0.206233 -0.897831
    outer loop
      vertex 41.2788 -122.5 -21.0716
      vertex 41.2136 -122.377 -21.0716
      vertex 41.2878 -122.5 -21.0677
    endloop
  endfacet
  facet normal 0.477136 0.253326 -0.841527
    outer loop
      vertex 41.8149 -122.5 -20.8364
      vertex 42.0852 -121.973 -20.5245
      vertex 42.365 -122.5 -20.5245
    endloop
  endfacet
  facet normal 0.477343 0.253176 -0.841454
    outer loop
      vertex 42.0852 -121.973 -20.5245
      vertex 41.8149 -122.5 -20.8364
      vertex 41.6228 -122.187 -20.8512
    endloop
  endfacet
  facet normal 0.475932 0.252259 -0.842528
    outer loop
      vertex 41.7887 -122.5 -20.8512
      vertex 41.6228 -122.187 -20.8512
      vertex 41.8149 -122.5 -20.8364
    endloop
  endfacet
  facet normal 0.543897 0.287747 -0.788275
    outer loop
      vertex 43.3774 -122.5 -19.8254
      vertex 47.9522 -119.25 -15.4825
      vertex 49.6716 -122.5 -15.4825
    endloop
  endfacet
  facet normal 0.543853 0.287817 -0.78828
    outer loop
      vertex 47.9522 -119.25 -15.4825
      vertex 43.3774 -122.5 -19.8254
      vertex 42.0852 -121.973 -20.5245
    endloop
  endfacet
  facet normal 0.544007 0.28883 -0.787803
    outer loop
      vertex 42.365 -122.5 -20.5245
      vertex 42.0852 -121.973 -20.5245
      vertex 43.3774 -122.5 -19.8254
    endloop
  endfacet
  facet normal 0.629435 0.332749 -0.702203
    outer loop
      vertex 50.7038 -122.5 -14.556
      vertex 49.4104 -118.573 -13.8545
      vertex 51.4864 -122.5 -13.8545
    endloop
  endfacet
  facet normal 0.629458 0.332753 -0.702181
    outer loop
      vertex 49.4104 -118.573 -13.8545
      vertex 50.7038 -122.5 -14.556
      vertex 47.9522 -119.25 -15.4825
    endloop
  endfacet
  facet normal 0.629806 0.333197 -0.701658
    outer loop
      vertex 49.6716 -122.5 -15.4825
      vertex 47.9522 -119.25 -15.4825
      vertex 50.7038 -122.5 -14.556
    endloop
  endfacet
  facet normal 0.689523 0.364342 -0.625949
    outer loop
      vertex 52.7793 -122.5 -12.4292
      vertex 49.4104 -118.573 -13.8545
      vertex 50.4496 -118.091 -12.4292
    endloop
  endfacet
  facet normal 0.689503 0.364308 -0.625992
    outer loop
      vertex 49.4104 -118.573 -13.8545
      vertex 52.7793 -122.5 -12.4292
      vertex 52.3604 -122.5 -12.8906
    endloop
  endfacet
  facet normal 0.689797 0.36466 -0.625462
    outer loop
      vertex 51.4864 -122.5 -13.8545
      vertex 49.4104 -118.573 -13.8545
      vertex 52.3604 -122.5 -12.8906
    endloop
  endfacet
  facet normal 0.742976 0.392433 -0.542202
    outer loop
      vertex 53.4157 -122.5 -11.5559
      vertex 50.4496 -118.091 -12.4292
      vertex 50.9612 -117.853 -11.5559
    endloop
  endfacet
  facet normal 0.743013 0.392474 -0.542121
    outer loop
      vertex 50.4496 -118.091 -12.4292
      vertex 53.4157 -122.5 -11.5559
      vertex 53.2465 -122.5 -11.7878
    endloop
  endfacet
  facet normal 0.74334 0.392778 -0.541453
    outer loop
      vertex 52.7793 -122.5 -12.4292
      vertex 50.4496 -118.091 -12.4292
      vertex 53.2465 -122.5 -11.7878
    endloop
  endfacet
  facet normal 0.788039 0.416116 -0.453697
    outer loop
      vertex 53.9217 -122.5 -10.6758
      vertex 50.9612 -117.853 -11.5559
      vertex 51.3681 -117.664 -10.6758
    endloop
  endfacet
  facet normal 0.788026 0.4161 -0.453736
    outer loop
      vertex 50.9612 -117.853 -11.5559
      vertex 53.9217 -122.5 -10.6758
      vertex 53.8066 -122.5 -10.8757
    endloop
  endfacet
  facet normal 0.788295 0.41637 -0.45302
    outer loop
      vertex 53.4157 -122.5 -11.5559
      vertex 50.9612 -117.853 -11.5559
      vertex 53.8066 -122.5 -10.8757
    endloop
  endfacet
  facet normal 0.825696 0.435956 -0.358006
    outer loop
      vertex 54.1763 -122.5 -10.088
      vertex 51.3681 -117.664 -10.6758
      vertex 51.5728 -117.569 -10.088
    endloop
  endfacet
  facet normal 0.82573 0.435991 -0.357885
    outer loop
      vertex 51.3681 -117.664 -10.6758
      vertex 54.1763 -122.5 -10.088
      vertex 54.1239 -122.5 -10.2089
    endloop
  endfacet
  facet normal 0.825805 0.436058 -0.357631
    outer loop
      vertex 53.9217 -122.5 -10.6758
      vertex 51.3681 -117.664 -10.6758
      vertex 54.1239 -122.5 -10.2089
    endloop
  endfacet
  facet normal 0.853125 0.450442 -0.263211
    outer loop
      vertex 54.3573 -122.5 -9.50142
      vertex 51.5728 -117.569 -10.088
      vertex 51.7184 -117.502 -9.50142
    endloop
  endfacet
  facet normal 0.85315 0.450472 -0.263079
    outer loop
      vertex 51.5728 -117.569 -10.088
      vertex 54.3573 -122.5 -9.50142
      vertex 54.3226 -122.5 -9.61395
    endloop
  endfacet
  facet normal 0.853109 0.45043 -0.263284
    outer loop
      vertex 54.1763 -122.5 -10.088
      vertex 51.5728 -117.569 -10.088
      vertex 54.3226 -122.5 -9.61395
    endloop
  endfacet
  facet normal 0.874097 0.461487 -0.151606
    outer loop
      vertex 54.44 -122.5 -9.02487
      vertex 51.7998 -117.464 -8.91763
      vertex 54.4586 -122.5 -8.91763
    endloop
  endfacet
  facet normal 0.874053 0.46147 -0.15191
    outer loop
      vertex 51.7998 -117.464 -8.91763
      vertex 54.44 -122.5 -9.02487
      vertex 51.7184 -117.502 -9.50142
    endloop
  endfacet
  facet normal 0.874074 0.461504 -0.151686
    outer loop
      vertex 54.3573 -122.5 -9.50142
      vertex 51.7184 -117.502 -9.50142
      vertex 54.44 -122.5 -9.02487
    endloop
  endfacet
  facet normal 0.883634 0.466507 -0.0395119
    outer loop
      vertex 54.5077 -122.5 -7.82098
      vertex 51.8448 -117.443 -7.66667
      vertex 54.5146 -122.5 -7.66667
    endloop
  endfacet
  facet normal 0.883629 0.466508 -0.0396176
    outer loop
      vertex 51.8448 -117.443 -7.66667
      vertex 54.5077 -122.5 -7.82098
      vertex 51.7998 -117.464 -8.91763
    endloop
  endfacet
  facet normal 0.883626 0.466518 -0.0395624
    outer loop
      vertex 54.4586 -122.5 -8.91763
      vertex 51.7998 -117.464 -8.91763
      vertex 54.5077 -122.5 -7.82098
    endloop
  endfacet
endsolid OpenSCAD_Model
