solid OpenSCAD_Model
  facet normal 1 0 0
    outer loop
      vertex 37.3333 -10.5222 7.94167
      vertex 37.3333 -10.3642 7.67859
      vertex 37.3333 -10.4467 7.82709
    endloop
  endfacet
  facet normal 1 0 0
    outer loop
      vertex 37.3333 -10.6343 8.09018
      vertex 37.3333 -10.3642 7.67859
      vertex 37.3333 -10.5222 7.94167
    endloop
  endfacet
  facet normal 1 0 0
    outer loop
      vertex 37.3333 -10.3642 7.67859
      vertex 37.3333 -10.6343 8.09018
      vertex 37.3333 -10.3574 7.66667
    endloop
  endfacet
  facet normal 1 0 0
    outer loop
      vertex 37.3333 -10.894 8.40304
      vertex 37.3333 -10.6343 8.09018
      vertex 37.3333 -10.7868 8.28879
    endloop
  endfacet
  facet normal 1 0 0
    outer loop
      vertex 37.3333 -10.6343 8.09018
      vertex 37.3333 -10.894 8.40304
      vertex 37.3333 -10.3574 7.66667
    endloop
  endfacet
  facet normal 1 0 0
    outer loop
      vertex 37.3333 -11.2696 8.7925
      vertex 37.3333 -10.894 8.40304
      vertex 37.3333 -11.122 8.65584
    endloop
  endfacet
  facet normal 1 0 0
    outer loop
      vertex 37.3333 -10.894 8.40304
      vertex 37.3333 -11.2696 8.7925
      vertex 37.3333 -10.3574 7.66667
    endloop
  endfacet
  facet normal 1 0 0
    outer loop
      vertex 37.3333 -11.8221 9.29253
      vertex 37.3333 -11.2696 8.7925
      vertex 37.3333 -11.6009 9.11159
    endloop
  endfacet
  facet normal 1 0 0
    outer loop
      vertex 37.3333 -11.2696 8.7925
      vertex 37.3333 -11.8221 9.29253
      vertex 37.3333 -10.3574 7.66667
    endloop
  endfacet
  facet normal 1 0 0
    outer loop
      vertex 37.3333 -24.5 7.66667
      vertex 37.3333 -11.8221 9.29253
      vertex 37.3333 -12.3593 9.75022
    endloop
  endfacet
  facet normal 1 0 0
    outer loop
      vertex 37.3333 -24.5 7.66667
      vertex 37.3333 -12.3593 9.75022
      vertex 37.3333 -12.821 10.0846
    endloop
  endfacet
  facet normal 1 0 0
    outer loop
      vertex 37.3333 -24.5 7.66667
      vertex 37.3333 -12.821 10.0846
      vertex 37.3333 -14.1311 11.0745
    endloop
  endfacet
  facet normal 1 0 0
    outer loop
      vertex 37.3333 -24.5 7.66667
      vertex 37.3333 -14.1311 11.0745
      vertex 37.3333 -14.2253 11.1362
    endloop
  endfacet
  facet normal 1 0 0
    outer loop
      vertex 37.3333 -14.5962 11.3837
      vertex 37.3333 -14.2253 11.1362
      vertex 37.3333 -14.5318 11.3451
    endloop
  endfacet
  facet normal 1 0 0
    outer loop
      vertex 37.3333 -14.2253 11.1362
      vertex 37.3333 -14.5962 11.3837
      vertex 37.3333 -24.5 7.66667
    endloop
  endfacet
  facet normal 1 0 0
    outer loop
      vertex 37.3333 -14.9469 11.5921
      vertex 37.3333 -14.5962 11.3837
      vertex 37.3333 -14.8149 11.5205
    endloop
  endfacet
  facet normal 1 0 0
    outer loop
      vertex 37.3333 -14.5962 11.3837
      vertex 37.3333 -14.9469 11.5921
      vertex 37.3333 -24.5 7.66667
    endloop
  endfacet
  facet normal 1 0 0
    outer loop
      vertex 37.3333 -15.5898 11.9408
      vertex 37.3333 -14.9469 11.5921
      vertex 37.3333 -15.4203 11.8606
    endloop
  endfacet
  facet normal 1 0 0
    outer loop
      vertex 37.3333 -14.9469 11.5921
      vertex 37.3333 -15.5898 11.9408
      vertex 37.3333 -24.5 7.66667
    endloop
  endfacet
  facet normal 1 0 0
    outer loop
      vertex 37.3333 -24.5 7.66667
      vertex 37.3333 -15.5898 11.9408
      vertex 37.3333 -16.2533 12.2699
    endloop
  endfacet
  facet normal 1 0 0
    outer loop
      vertex 37.3333 -24.5 7.66667
      vertex 37.3333 -16.2533 12.2699
      vertex 37.3333 -16.4248 12.3409
    endloop
  endfacet
  facet normal 1 0 0
    outer loop
      vertex 37.3333 -24.5 7.66667
      vertex 37.3333 -16.4248 12.3409
      vertex 37.3333 -17.1749 12.6673
    endloop
  endfacet
  facet normal 1 0 0
    outer loop
      vertex 37.3333 -24.5 7.66667
      vertex 37.3333 -17.1749 12.6673
      vertex 37.3333 -17.4487 12.7654
    endloop
  endfacet
  facet normal 1 0 0
    outer loop
      vertex 37.3333 -24.5 7.66667
      vertex 37.3333 -17.4487 12.7654
      vertex 37.3333 -18.8464 13.2942
    endloop
  endfacet
  facet normal 1 0 0
    outer loop
      vertex 37.3333 -24.5 7.66667
      vertex 37.3333 -18.8464 13.2942
      vertex 37.3333 -19.5794 13.5117
    endloop
  endfacet
  facet normal 1 0 0
    outer loop
      vertex 37.3333 -24.5 7.66667
      vertex 37.3333 -19.5794 13.5117
      vertex 37.3333 -24.5 15.0662
    endloop
  endfacet
  facet normal 1 0 0
    outer loop
      vertex 37.3333 -11.8221 9.29253
      vertex 37.3333 -24.5 7.66667
      vertex 37.3333 -10.3574 7.66667
    endloop
  endfacet
  facet normal 0 0 -1
    outer loop
      vertex 37.3333 -24.5 7.66667
      vertex 37.1765 -10.4958 7.66667
      vertex 37.3333 -10.3574 7.66667
    endloop
  endfacet
  facet normal 0 0 -1
    outer loop
      vertex 37.3333 -24.5 7.66667
      vertex 22.075 -24.3236 7.66667
      vertex 37.1765 -10.4958 7.66667
    endloop
  endfacet
  facet normal 0 -0 -1
    outer loop
      vertex 22.075 -24.3236 7.66667
      vertex 37.3333 -24.5 7.66667
      vertex 21.9919 -24.5 7.66667
    endloop
  endfacet
  facet normal 0 -1 0
    outer loop
      vertex 31.4795 -24.5 15.9585
      vertex 32.3281 -24.5 15.9378
      vertex 32.2768 -24.5 15.9444
    endloop
  endfacet
  facet normal 0 -1 0
    outer loop
      vertex 30.6818 -24.5 15.9073
      vertex 31.4795 -24.5 15.9585
      vertex 31.4516 -24.5 15.9598
    endloop
  endfacet
  facet normal 0 -1 0
    outer loop
      vertex 37.3333 -24.5 7.66667
      vertex 31.4795 -24.5 15.9585
      vertex 30.6818 -24.5 15.9073
    endloop
  endfacet
  facet normal 0 -1 0
    outer loop
      vertex 30.0663 -24.5 15.8086
      vertex 30.6818 -24.5 15.9073
      vertex 30.6575 -24.5 15.9064
    endloop
  endfacet
  facet normal 0 -1 -0
    outer loop
      vertex 30.6818 -24.5 15.9073
      vertex 30.0663 -24.5 15.8086
      vertex 37.3333 -24.5 7.66667
    endloop
  endfacet
  facet normal 0 -1 0
    outer loop
      vertex 29.763 -24.5 15.7368
      vertex 30.0663 -24.5 15.8086
      vertex 30.0491 -24.5 15.8064
    endloop
  endfacet
  facet normal 0 -1 0
    outer loop
      vertex 31.4795 -24.5 15.9585
      vertex 37.3333 -24.5 7.66667
      vertex 32.3281 -24.5 15.9378
    endloop
  endfacet
  facet normal 0 -1 0
    outer loop
      vertex 32.3281 -24.5 15.9378
      vertex 37.3333 -24.5 7.66667
      vertex 33.6462 -24.5 15.8049
    endloop
  endfacet
  facet normal 0 -1 0
    outer loop
      vertex 29.3388 -24.5 15.6029
      vertex 30.0663 -24.5 15.8086
      vertex 29.763 -24.5 15.7368
    endloop
  endfacet
  facet normal 0 -1 0
    outer loop
      vertex 29.3388 -24.5 15.6029
      vertex 29.763 -24.5 15.7368
      vertex 29.7551 -24.5 15.7352
    endloop
  endfacet
  facet normal 0 -1 -0
    outer loop
      vertex 30.0663 -24.5 15.8086
      vertex 29.3388 -24.5 15.6029
      vertex 37.3333 -24.5 7.66667
    endloop
  endfacet
  facet normal 0 -1 0
    outer loop
      vertex 37.3333 -24.5 7.66667
      vertex 29.3388 -24.5 15.6029
      vertex 29.328 -24.5 15.5999
    endloop
  endfacet
  facet normal 0 -1 0
    outer loop
      vertex 33.6462 -24.5 15.8049
      vertex 37.3333 -24.5 7.66667
      vertex 33.8284 -24.5 15.7637
    endloop
  endfacet
  facet normal 0 -1 0
    outer loop
      vertex 37.3333 -24.5 7.66667
      vertex 29.328 -24.5 15.5999
      vertex 27.3068 -24.5 14.7643
    endloop
  endfacet
  facet normal 0 -1 0
    outer loop
      vertex 26.3092 -24.5 14.24
      vertex 27.3068 -24.5 14.7643
      vertex 27.2706 -24.5 14.7507
    endloop
  endfacet
  facet normal 0 -1 0
    outer loop
      vertex 27.3068 -24.5 14.7643
      vertex 26.3092 -24.5 14.24
      vertex 24.5042 -24.5 12.5692
    endloop
  endfacet
  facet normal 0 -1 0
    outer loop
      vertex 25.655 -24.5 13.8093
      vertex 26.3092 -24.5 14.24
      vertex 26.2958 -24.5 14.2335
    endloop
  endfacet
  facet normal 0 -1 0
    outer loop
      vertex 26.3092 -24.5 14.24
      vertex 25.655 -24.5 13.8093
      vertex 24.5042 -24.5 12.5692
    endloop
  endfacet
  facet normal 0 -1 0
    outer loop
      vertex 25.1824 -24.5 13.4194
      vertex 25.655 -24.5 13.8093
      vertex 25.6477 -24.5 13.8048
    endloop
  endfacet
  facet normal 0 -1 0
    outer loop
      vertex 25.655 -24.5 13.8093
      vertex 25.1824 -24.5 13.4194
      vertex 24.5054 -24.5 12.5711
    endloop
  endfacet
  facet normal 0 -1 0
    outer loop
      vertex 24.8549 -24.5 13.0775
      vertex 25.1824 -24.5 13.4194
      vertex 25.178 -24.5 13.4159
    endloop
  endfacet
  facet normal 0 -1 0
    outer loop
      vertex 25.1824 -24.5 13.4194
      vertex 24.8549 -24.5 13.0775
      vertex 24.5054 -24.5 12.5711
    endloop
  endfacet
  facet normal 0 -1 0
    outer loop
      vertex 24.6871 -24.5 12.8623
      vertex 24.8549 -24.5 13.0775
      vertex 24.8508 -24.5 13.0732
    endloop
  endfacet
  facet normal 0 -1 0
    outer loop
      vertex 24.8549 -24.5 13.0775
      vertex 24.6871 -24.5 12.8623
      vertex 24.5054 -24.5 12.5711
    endloop
  endfacet
  facet normal 0 -1 0
    outer loop
      vertex 25.655 -24.5 13.8093
      vertex 24.5054 -24.5 12.5711
      vertex 24.5042 -24.5 12.5692
    endloop
  endfacet
  facet normal 0 -1 -0
    outer loop
      vertex 27.3068 -24.5 14.7643
      vertex 24.5042 -24.5 12.5692
      vertex 37.3333 -24.5 7.66667
    endloop
  endfacet
  facet normal 0 -1 0
    outer loop
      vertex 37.3333 -24.5 7.66667
      vertex 24.5042 -24.5 12.5692
      vertex 22.6026 -24.5 9.01343
    endloop
  endfacet
  facet normal 0 -1 0
    outer loop
      vertex 37.3333 -24.5 7.66667
      vertex 22.6026 -24.5 9.01343
      vertex 21.9919 -24.5 7.66667
    endloop
  endfacet
  facet normal 0 -1 0
    outer loop
      vertex 33.8284 -24.5 15.7637
      vertex 37.3333 -24.5 7.66667
      vertex 37.3333 -24.5 15.0662
    endloop
  endfacet
  facet normal 0.211713 0.278019 0.936954
    outer loop
      vertex 33.6462 -24.5 15.8049
      vertex 37.3333 -19.5794 13.5117
      vertex 37.3333 -18.8464 13.2942
    endloop
  endfacet
  facet normal 0.211869 0.277901 0.936954
    outer loop
      vertex 37.3333 -19.5794 13.5117
      vertex 33.6462 -24.5 15.8049
      vertex 33.8284 -24.5 15.7637
    endloop
  endfacet
  facet normal 0.186436 0.29596 0.936829
    outer loop
      vertex 37.3333 -19.5794 13.5117
      vertex 33.8284 -24.5 15.7637
      vertex 37.3333 -24.5 15.0662
    endloop
  endfacet
  facet normal 0.120609 0.334832 0.934527
    outer loop
      vertex 32.2768 -24.5 15.9444
      vertex 37.3333 -17.4487 12.7654
      vertex 37.3333 -17.1749 12.6673
    endloop
  endfacet
  facet normal 0.120226 0.335088 0.934485
    outer loop
      vertex 37.3333 -17.4487 12.7654
      vertex 32.2768 -24.5 15.9444
      vertex 32.3281 -24.5 15.9378
    endloop
  endfacet
  facet normal 0.0938834 0.352294 0.931168
    outer loop
      vertex 32.3281 -24.5 15.9378
      vertex 37.3333 -18.8464 13.2942
      vertex 37.3333 -17.4487 12.7654
    endloop
  endfacet
  facet normal 0.0938869 0.352292 0.931169
    outer loop
      vertex 37.3333 -18.8464 13.2942
      vertex 32.3281 -24.5 15.9378
      vertex 33.6462 -24.5 15.8049
    endloop
  endfacet
  facet normal 0.0432868 0.382152 0.923085
    outer loop
      vertex 31.4516 -24.5 15.9598
      vertex 37.3333 -16.4248 12.3409
      vertex 37.3333 -16.2533 12.2699
    endloop
  endfacet
  facet normal 0.0430083 0.382328 0.923025
    outer loop
      vertex 37.3333 -16.4248 12.3409
      vertex 31.4516 -24.5 15.9598
      vertex 31.4795 -24.5 15.9585
    endloop
  endfacet
  facet normal 0.0162481 0.398951 0.916828
    outer loop
      vertex 31.4795 -24.5 15.9585
      vertex 37.3333 -17.1749 12.6673
      vertex 37.3333 -16.4248 12.3409
    endloop
  endfacet
  facet normal 0.0162137 0.398974 0.916819
    outer loop
      vertex 37.3333 -17.1749 12.6673
      vertex 31.4795 -24.5 15.9585
      vertex 32.2768 -24.5 15.9444
    endloop
  endfacet
  facet normal -0.0338743 0.427451 0.903404
    outer loop
      vertex 30.6575 -24.5 15.9064
      vertex 37.3333 -15.5898 11.9408
      vertex 37.3333 -15.4203 11.8606
    endloop
  endfacet
  facet normal -0.0334643 0.427203 0.903536
    outer loop
      vertex 37.3333 -15.5898 11.9408
      vertex 30.6575 -24.5 15.9064
      vertex 30.6818 -24.5 15.9073
    endloop
  endfacet
  facet normal -0.0609006 0.443524 0.894191
    outer loop
      vertex 30.6818 -24.5 15.9073
      vertex 37.3333 -16.2533 12.2699
      vertex 37.3333 -15.5898 11.9408
    endloop
  endfacet
  facet normal -0.0609813 0.443576 0.89416
    outer loop
      vertex 37.3333 -16.2533 12.2699
      vertex 30.6818 -24.5 15.9073
      vertex 31.4516 -24.5 15.9598
    endloop
  endfacet
  facet normal -0.115968 0.473581 0.873082
    outer loop
      vertex 30.0491 -24.5 15.8064
      vertex 37.3333 -14.9469 11.5921
      vertex 37.3333 -14.8149 11.5205
    endloop
  endfacet
  facet normal -0.111901 0.471266 0.874864
    outer loop
      vertex 37.3333 -14.9469 11.5921
      vertex 30.0491 -24.5 15.8064
      vertex 30.0663 -24.5 15.8086
    endloop
  endfacet
  facet normal -0.142381 0.48832 0.860971
    outer loop
      vertex 30.0663 -24.5 15.8086
      vertex 37.3333 -15.4203 11.8606
      vertex 37.3333 -14.9469 11.5921
    endloop
  endfacet
  facet normal -0.142424 0.488345 0.86095
    outer loop
      vertex 37.3333 -15.4203 11.8606
      vertex 30.0663 -24.5 15.8086
      vertex 30.6575 -24.5 15.9064
    endloop
  endfacet
  facet normal -0.176537 0.506029 0.844256
    outer loop
      vertex 29.7551 -24.5 15.7352
      vertex 37.3333 -14.5962 11.3837
      vertex 37.3333 -14.5318 11.3451
    endloop
  endfacet
  facet normal -0.171522 0.503348 0.846889
    outer loop
      vertex 37.3333 -14.5962 11.3837
      vertex 29.7551 -24.5 15.7352
      vertex 29.763 -24.5 15.7368
    endloop
  endfacet
  facet normal -0.202019 0.519378 0.830322
    outer loop
      vertex 29.763 -24.5 15.7368
      vertex 37.3333 -14.8149 11.5205
      vertex 37.3333 -14.5962 11.3837
    endloop
  endfacet
  facet normal -0.201997 0.519367 0.830335
    outer loop
      vertex 37.3333 -14.8149 11.5205
      vertex 29.763 -24.5 15.7368
      vertex 30.0491 -24.5 15.8064
    endloop
  endfacet
  facet normal -0.23043 0.533174 0.814019
    outer loop
      vertex 29.328 -24.5 15.5999
      vertex 37.3333 -14.2253 11.1362
      vertex 37.3333 -14.1311 11.0745
    endloop
  endfacet
  facet normal -0.226746 0.531287 0.816284
    outer loop
      vertex 37.3333 -14.2253 11.1362
      vertex 29.328 -24.5 15.5999
      vertex 29.3388 -24.5 15.6029
    endloop
  endfacet
  facet normal -0.253576 0.544787 0.799316
    outer loop
      vertex 29.3388 -24.5 15.6029
      vertex 37.3333 -14.5318 11.3451
      vertex 37.3333 -14.2253 11.1362
    endloop
  endfacet
  facet normal -0.253944 0.544977 0.79907
    outer loop
      vertex 37.3333 -14.5318 11.3451
      vertex 29.3388 -24.5 15.6029
      vertex 29.7551 -24.5 15.7352
    endloop
  endfacet
  facet normal -0.291927 0.561012 0.774625
    outer loop
      vertex 27.2706 -24.5 14.7507
      vertex 37.3333 -12.821 10.0846
      vertex 37.3333 -12.3593 9.75022
    endloop
  endfacet
  facet normal -0.291224 0.560624 0.775171
    outer loop
      vertex 37.3333 -12.821 10.0846
      vertex 27.2706 -24.5 14.7507
      vertex 27.3068 -24.5 14.7643
    endloop
  endfacet
  facet normal -0.313227 0.572515 0.757704
    outer loop
      vertex 27.3068 -24.5 14.7643
      vertex 37.3333 -14.1311 11.0745
      vertex 37.3333 -12.821 10.0846
    endloop
  endfacet
  facet normal -0.313243 0.572525 0.75769
    outer loop
      vertex 37.3333 -14.1311 11.0745
      vertex 27.3068 -24.5 14.7643
      vertex 29.328 -24.5 15.5999
    endloop
  endfacet
  facet normal -0.355833 0.59171 0.723369
    outer loop
      vertex 26.2958 -24.5 14.2335
      vertex 37.3333 -11.8221 9.29253
      vertex 37.3333 -11.6009 9.11159
    endloop
  endfacet
  facet normal -0.352401 0.589939 0.726489
    outer loop
      vertex 37.3333 -11.8221 9.29253
      vertex 26.2958 -24.5 14.2335
      vertex 26.3092 -24.5 14.24
    endloop
  endfacet
  facet normal -0.37475 0.601267 0.70572
    outer loop
      vertex 26.3092 -24.5 14.24
      vertex 37.3333 -12.3593 9.75022
      vertex 37.3333 -11.8221 9.29253
    endloop
  endfacet
  facet normal -0.374836 0.601314 0.705634
    outer loop
      vertex 37.3333 -12.3593 9.75022
      vertex 26.3092 -24.5 14.24
      vertex 27.2706 -24.5 14.7507
    endloop
  endfacet
  facet normal -0.413742 0.618513 0.668026
    outer loop
      vertex 25.6477 -24.5 13.8048
      vertex 37.3333 -11.2696 8.7925
      vertex 37.3333 -11.122 8.65584
    endloop
  endfacet
  facet normal -0.412567 0.617948 0.669275
    outer loop
      vertex 37.3333 -11.2696 8.7925
      vertex 25.6477 -24.5 13.8048
      vertex 25.655 -24.5 13.8093
    endloop
  endfacet
  facet normal -0.43016 0.626248 0.650212
    outer loop
      vertex 25.655 -24.5 13.8093
      vertex 37.3333 -11.6009 9.11159
      vertex 37.3333 -11.2696 8.7925
    endloop
  endfacet
  facet normal -0.430314 0.626324 0.650036
    outer loop
      vertex 37.3333 -11.6009 9.11159
      vertex 25.655 -24.5 13.8093
      vertex 26.2958 -24.5 14.2335
    endloop
  endfacet
  facet normal -0.47111 0.643251 0.603558
    outer loop
      vertex 37.3333 -10.7868 8.28879
      vertex 25.1824 -24.5 13.4194
      vertex 37.3333 -10.894 8.40304
    endloop
  endfacet
  facet normal -0.475637 0.645162 0.597943
    outer loop
      vertex 25.1824 -24.5 13.4194
      vertex 37.3333 -10.7868 8.28879
      vertex 25.178 -24.5 13.4159
    endloop
  endfacet
  facet normal -0.485295 0.649286 0.58559
    outer loop
      vertex 37.3333 -10.894 8.40304
      vertex 25.6477 -24.5 13.8048
      vertex 37.3333 -11.122 8.65584
    endloop
  endfacet
  facet normal -0.485166 0.649239 0.58575
    outer loop
      vertex 25.6477 -24.5 13.8048
      vertex 37.3333 -10.894 8.40304
      vertex 25.1824 -24.5 13.4194
    endloop
  endfacet
  facet normal -0.538074 0.668775 0.513047
    outer loop
      vertex 37.3333 -10.6343 8.09018
      vertex 24.8508 -24.5 13.0732
      vertex 24.8549 -24.5 13.0775
    endloop
  endfacet
  facet normal -0.542674 0.670397 0.506036
    outer loop
      vertex 24.8508 -24.5 13.0732
      vertex 37.3333 -10.6343 8.09018
      vertex 37.3333 -10.5222 7.94167
    endloop
  endfacet
  facet normal -0.537791 0.668673 0.513476
    outer loop
      vertex 37.3333 -10.7868 8.28879
      vertex 24.8549 -24.5 13.0775
      vertex 25.178 -24.5 13.4159
    endloop
  endfacet
  facet normal -0.537815 0.668682 0.513439
    outer loop
      vertex 24.8549 -24.5 13.0775
      vertex 37.3333 -10.7868 8.28879
      vertex 37.3333 -10.6343 8.09018
    endloop
  endfacet
  facet normal -0.578303 0.68123 0.448877
    outer loop
      vertex 37.3333 -10.5222 7.94167
      vertex 24.6871 -24.5 12.8623
      vertex 24.8508 -24.5 13.0732
    endloop
  endfacet
  facet normal -0.578301 0.681229 0.448881
    outer loop
      vertex 24.6871 -24.5 12.8623
      vertex 37.3333 -10.5222 7.94167
      vertex 37.3333 -10.4467 7.82709
    endloop
  endfacet
  facet normal -0.607935 0.688535 0.395392
    outer loop
      vertex 37.1765 -10.4958 7.66667
      vertex 24.5054 -24.5 12.5711
      vertex 37.3333 -10.3642 7.67859
    endloop
  endfacet
  facet normal -0.608435 0.689325 0.393239
    outer loop
      vertex 37.1765 -10.4958 7.66667
      vertex 37.3333 -10.3642 7.67859
      vertex 37.3333 -10.3574 7.66667
    endloop
  endfacet
  facet normal -0.612363 0.689516 0.386755
    outer loop
      vertex 24.5054 -24.5 12.5711
      vertex 37.1765 -10.4958 7.66667
      vertex 24.5042 -24.5 12.5692
    endloop
  endfacet
  facet normal -0.614127 0.689934 0.383197
    outer loop
      vertex 37.3333 -10.4467 7.82709
      vertex 24.5054 -24.5 12.5711
      vertex 24.6871 -24.5 12.8623
    endloop
  endfacet
  facet normal -0.61408 0.689923 0.383291
    outer loop
      vertex 24.5054 -24.5 12.5711
      vertex 37.3333 -10.4467 7.82709
      vertex 37.3333 -10.3642 7.67859
    endloop
  endfacet
  facet normal -0.635166 0.693672 0.339682
    outer loop
      vertex 37.1765 -10.4958 7.66667
      vertex 22.6026 -24.5 9.01343
      vertex 24.5042 -24.5 12.5692
    endloop
  endfacet
  facet normal -0.635165 0.693671 0.339687
    outer loop
      vertex 22.6026 -24.5 9.01343
      vertex 37.1765 -10.4958 7.66667
      vertex 22.075 -24.3236 7.66667
    endloop
  endfacet
  facet normal -0.83696 0.394282 0.379527
    outer loop
      vertex 22.075 -24.3236 7.66667
      vertex 21.9919 -24.5 7.66667
      vertex 22.6026 -24.5 9.01343
    endloop
  endfacet
endsolid OpenSCAD_Model
