solid OpenSCAD_Model
  facet normal 1 0 0
    outer loop
      vertex 37.3333 -124.178 19.5869
      vertex 37.3333 -122.5 7.66667
      vertex 37.3333 -122.5 19.2447
    endloop
  endfacet
  facet normal 1 0 0
    outer loop
      vertex 37.3333 -134.078 14.2331
      vertex 37.3333 -124.178 19.5869
      vertex 37.3333 -130.368 20.9166
    endloop
  endfacet
  facet normal 1 -0 0
    outer loop
      vertex 37.3333 -134.078 21.4512
      vertex 37.3333 -130.368 20.9166
      vertex 37.3333 -134.078 21.5372
    endloop
  endfacet
  facet normal 1 0 0
    outer loop
      vertex 37.3333 -134.078 20.5434
      vertex 37.3333 -130.368 20.9166
      vertex 37.3333 -134.078 21.4512
    endloop
  endfacet
  facet normal 1 0 0
    outer loop
      vertex 37.3333 -134.078 19.6964
      vertex 37.3333 -130.368 20.9166
      vertex 37.3333 -134.078 20.5434
    endloop
  endfacet
  facet normal 1 0 0
    outer loop
      vertex 37.3333 -134.078 14.2331
      vertex 37.3333 -130.368 20.9166
      vertex 37.3333 -134.078 19.6964
    endloop
  endfacet
  facet normal 1 0 0
    outer loop
      vertex 37.3333 -134.078 13.2244
      vertex 37.3333 -124.178 19.5869
      vertex 37.3333 -134.078 14.2331
    endloop
  endfacet
  facet normal 1 0 0
    outer loop
      vertex 37.3333 -124.178 19.5869
      vertex 37.3333 -134.078 13.2244
      vertex 37.3333 -122.5 7.66667
    endloop
  endfacet
  facet normal 1 -0 0
    outer loop
      vertex 37.3333 -134.078 12.3571
      vertex 37.3333 -122.5 7.66667
      vertex 37.3333 -134.078 13.2244
    endloop
  endfacet
  facet normal 1 0 0
    outer loop
      vertex 37.3333 -122.5 7.66667
      vertex 37.3333 -134.078 12.3571
      vertex 37.3333 -134.078 7.66667
    endloop
  endfacet
  facet normal 0 0 -1
    outer loop
      vertex 31.5237 -137.506 7.66667
      vertex 37.3333 -122.5 7.66667
      vertex 37.3333 -134.078 7.66667
    endloop
  endfacet
  facet normal 0 0 -1
    outer loop
      vertex 18.6667 -122.5 7.66667
      vertex 31.5237 -137.506 7.66667
      vertex 29.1996 -138.877 7.66667
    endloop
  endfacet
  facet normal 0 0 -1
    outer loop
      vertex 18.6667 -122.5 7.66667
      vertex 29.1996 -138.877 7.66667
      vertex 25.1507 -141.266 7.66667
    endloop
  endfacet
  facet normal 0 0 -1
    outer loop
      vertex 18.6667 -122.5 7.66667
      vertex 25.1507 -141.266 7.66667
      vertex 22.5231 -142.816 7.66667
    endloop
  endfacet
  facet normal 0 0 -1
    outer loop
      vertex 18.6667 -144.684 7.66667
      vertex 22.5231 -142.816 7.66667
      vertex 18.832 -144.994 7.66667
    endloop
  endfacet
  facet normal 0 0 -1
    outer loop
      vertex 18.6667 -122.5 7.66667
      vertex 22.5231 -142.816 7.66667
      vertex 18.6667 -144.684 7.66667
    endloop
  endfacet
  facet normal 0 0 -1
    outer loop
      vertex 31.5237 -137.506 7.66667
      vertex 18.6667 -122.5 7.66667
      vertex 37.3333 -122.5 7.66667
    endloop
  endfacet
  facet normal -1 0 0
    outer loop
      vertex 18.6667 -122.5 7.66667
      vertex 18.6667 -123.094 21.8043
      vertex 18.6667 -122.5 21.8926
    endloop
  endfacet
  facet normal -1 0 0
    outer loop
      vertex 18.6667 -122.5 7.66667
      vertex 18.6667 -123.203 21.7881
      vertex 18.6667 -123.094 21.8043
    endloop
  endfacet
  facet normal -1 0 0
    outer loop
      vertex 18.6667 -122.5 7.66667
      vertex 18.6667 -124.285 21.5942
      vertex 18.6667 -123.203 21.7881
    endloop
  endfacet
  facet normal -1 0 0
    outer loop
      vertex 18.6667 -122.5 7.66667
      vertex 18.6667 -124.567 21.5318
      vertex 18.6667 -124.285 21.5942
    endloop
  endfacet
  facet normal -1 0 0
    outer loop
      vertex 18.6667 -122.5 7.66667
      vertex 18.6667 -125.093 21.3899
      vertex 18.6667 -124.567 21.5318
    endloop
  endfacet
  facet normal -1 0 0
    outer loop
      vertex 18.6667 -122.5 7.66667
      vertex 18.6667 -130.05 20.0517
      vertex 18.6667 -125.093 21.3899
    endloop
  endfacet
  facet normal -1 0 0
    outer loop
      vertex 18.6667 -122.5 7.66667
      vertex 18.6667 -132.51 19.2429
      vertex 18.6667 -130.05 20.0517
    endloop
  endfacet
  facet normal -1 0 0
    outer loop
      vertex 18.6667 -132.841 19.1179
      vertex 18.6667 -132.51 19.2429
      vertex 18.6667 -122.5 7.66667
    endloop
  endfacet
  facet normal -1 0 0
    outer loop
      vertex 18.6667 -132.51 19.2429
      vertex 18.6667 -132.841 19.1179
      vertex 18.6667 -132.605 19.2113
    endloop
  endfacet
  facet normal -1 0 0
    outer loop
      vertex 18.6667 -122.5 7.66667
      vertex 18.6667 -134.138 18.5454
      vertex 18.6667 -132.841 19.1179
    endloop
  endfacet
  facet normal -1 0 0
    outer loop
      vertex 18.6667 -122.5 7.66667
      vertex 18.6667 -134.27 18.4744
      vertex 18.6667 -134.138 18.5454
    endloop
  endfacet
  facet normal -1 0 0
    outer loop
      vertex 18.6667 -135.384 17.8545
      vertex 18.6667 -134.27 18.4744
      vertex 18.6667 -122.5 7.66667
    endloop
  endfacet
  facet normal -1 0 0
    outer loop
      vertex 18.6667 -134.27 18.4744
      vertex 18.6667 -135.384 17.8545
      vertex 18.6667 -135.223 17.9619
    endloop
  endfacet
  facet normal -1 0 0
    outer loop
      vertex 18.6667 -136.765 16.747
      vertex 18.6667 -135.384 17.8545
      vertex 18.6667 -122.5 7.66667
    endloop
  endfacet
  facet normal -1 0 0
    outer loop
      vertex 18.6667 -135.384 17.8545
      vertex 18.6667 -136.074 17.381
      vertex 18.6667 -135.97 17.4643
    endloop
  endfacet
  facet normal -1 0 0
    outer loop
      vertex 18.6667 -135.384 17.8545
      vertex 18.6667 -136.765 16.747
      vertex 18.6667 -136.074 17.381
    endloop
  endfacet
  facet normal -1 0 0
    outer loop
      vertex 18.6667 -136.074 17.381
      vertex 18.6667 -136.476 17.0331
      vertex 18.6667 -136.348 17.1601
    endloop
  endfacet
  facet normal -1 0 0
    outer loop
      vertex 18.6667 -136.074 17.381
      vertex 18.6667 -136.765 16.747
      vertex 18.6667 -136.476 17.0331
    endloop
  endfacet
  facet normal -1 0 -0
    outer loop
      vertex 18.6667 -136.765 16.747
      vertex 18.6667 -122.5 7.66667
      vertex 18.6667 -144.684 7.66667
    endloop
  endfacet
  facet normal 0 1 0
    outer loop
      vertex 23.4379 -122.5 22.5391
      vertex 21.7077 -122.5 22.5077
      vertex 23.3602 -122.5 22.5456
    endloop
  endfacet
  facet normal 0 1 0
    outer loop
      vertex 18.6667 -122.5 7.66667
      vertex 23.4379 -122.5 22.5391
      vertex 23.8475 -122.5 22.505
    endloop
  endfacet
  facet normal 0 1 0
    outer loop
      vertex 23.4379 -122.5 22.5391
      vertex 18.6667 -122.5 7.66667
      vertex 21.7077 -122.5 22.5077
    endloop
  endfacet
  facet normal -0 1 0
    outer loop
      vertex 20.6395 -122.5 22.3973
      vertex 21.7077 -122.5 22.5077
      vertex 18.6667 -122.5 7.66667
    endloop
  endfacet
  facet normal 0 1 0
    outer loop
      vertex 21.7077 -122.5 22.5077
      vertex 20.6395 -122.5 22.3973
      vertex 21.5828 -122.5 22.5049
    endloop
  endfacet
  facet normal -0 1 0
    outer loop
      vertex 19.6643 -122.5 22.2038
      vertex 20.6395 -122.5 22.3973
      vertex 18.6667 -122.5 7.66667
    endloop
  endfacet
  facet normal 0 1 0
    outer loop
      vertex 20.6395 -122.5 22.3973
      vertex 19.6643 -122.5 22.2038
      vertex 20.5302 -122.5 22.3847
    endloop
  endfacet
  facet normal 0 1 0
    outer loop
      vertex 18.6667 -122.5 7.66667
      vertex 23.8475 -122.5 22.505
      vertex 27.9769 -122.5 22.1718
    endloop
  endfacet
  facet normal 0 1 0
    outer loop
      vertex 18.6667 -122.5 7.66667
      vertex 27.9769 -122.5 22.1718
      vertex 29.0513 -122.5 22.0859
    endloop
  endfacet
  facet normal 0 1 0
    outer loop
      vertex 18.6667 -122.5 7.66667
      vertex 29.0513 -122.5 22.0859
      vertex 29.6841 -122.5 21.9784
    endloop
  endfacet
  facet normal -0 1 0
    outer loop
      vertex 18.8917 -122.5 21.9733
      vertex 19.6643 -122.5 22.2038
      vertex 18.6667 -122.5 7.66667
    endloop
  endfacet
  facet normal 0 1 0
    outer loop
      vertex 30.4193 -122.5 21.8163
      vertex 29.6841 -122.5 21.9784
      vertex 29.9384 -122.5 21.9355
    endloop
  endfacet
  facet normal 0 1 0
    outer loop
      vertex 19.6643 -122.5 22.2038
      vertex 18.8917 -122.5 21.9733
      vertex 19.5301 -122.5 22.1756
    endloop
  endfacet
  facet normal -0 1 0
    outer loop
      vertex 18.6667 -122.5 21.8926
      vertex 18.8917 -122.5 21.9733
      vertex 18.6667 -122.5 7.66667
    endloop
  endfacet
  facet normal 0 1 0
    outer loop
      vertex 29.6841 -122.5 21.9784
      vertex 30.4193 -122.5 21.8163
      vertex 18.6667 -122.5 7.66667
    endloop
  endfacet
  facet normal 0 1 0
    outer loop
      vertex 18.6667 -122.5 7.66667
      vertex 30.4193 -122.5 21.8163
      vertex 30.6527 -122.5 21.759
    endloop
  endfacet
  facet normal 0 1 0
    outer loop
      vertex 37.3333 -122.5 7.66667
      vertex 30.6527 -122.5 21.759
      vertex 32.1789 -122.5 21.2672
    endloop
  endfacet
  facet normal 0 1 0
    outer loop
      vertex 37.3333 -122.5 7.66667
      vertex 32.1789 -122.5 21.2672
      vertex 33.2768 -122.5 20.9166
    endloop
  endfacet
  facet normal 0 1 0
    outer loop
      vertex 37.3333 -122.5 7.66667
      vertex 33.2768 -122.5 20.9166
      vertex 35.9113 -122.5 19.8262
    endloop
  endfacet
  facet normal 0 1 -0
    outer loop
      vertex 37.3333 -122.5 7.66667
      vertex 35.9113 -122.5 19.8262
      vertex 37.3333 -122.5 19.2447
    endloop
  endfacet
  facet normal 0 1 0
    outer loop
      vertex 30.6527 -122.5 21.759
      vertex 37.3333 -122.5 7.66667
      vertex 18.6667 -122.5 7.66667
    endloop
  endfacet
  facet normal 0 1 0
    outer loop
      vertex 18.8917 -122.5 21.9733
      vertex 18.6667 -122.5 21.8926
      vertex 18.7721 -122.5 21.9351
    endloop
  endfacet
  facet normal 0.083324 0.030925 0.996043
    outer loop
      vertex 23.4379 -122.5 22.5391
      vertex 23.3602 -122.5 22.5456
      vertex 23.4155 -122.649 22.5456
    endloop
  endfacet
  facet normal 0.0829251 0.0309863 0.996074
    outer loop
      vertex 23.4379 -122.5 22.5391
      vertex 23.4155 -122.649 22.5456
      vertex 23.8475 -122.5 22.505
    endloop
  endfacet
  facet normal -0.0224115 -0.00829421 0.999714
    outer loop
      vertex 21.7077 -122.5 22.5077
      vertex 21.5828 -122.5 22.5049
      vertex 21.8389 -123.192 22.5049
    endloop
  endfacet
  facet normal -0.0228824 -0.0084926 0.999702
    outer loop
      vertex 23.3602 -122.5 22.5456
      vertex 21.8389 -123.192 22.5049
      vertex 23.4155 -122.649 22.5456
    endloop
  endfacet
  facet normal -0.0229281 -0.0083921 0.999702
    outer loop
      vertex 21.8389 -123.192 22.5049
      vertex 23.3602 -122.5 22.5456
      vertex 21.7077 -122.5 22.5077
    endloop
  endfacet
  facet normal -0.114418 -0.0422468 0.992534
    outer loop
      vertex 20.6395 -122.5 22.3973
      vertex 20.5302 -122.5 22.3847
      vertex 20.9046 -123.514 22.3847
    endloop
  endfacet
  facet normal -0.113264 -0.0419176 0.99268
    outer loop
      vertex 21.5828 -122.5 22.5049
      vertex 20.9046 -123.514 22.3847
      vertex 21.8389 -123.192 22.5049
    endloop
  endfacet
  facet normal -0.113233 -0.0419387 0.992683
    outer loop
      vertex 20.9046 -123.514 22.3847
      vertex 21.5828 -122.5 22.5049
      vertex 20.6395 -122.5 22.3973
    endloop
  endfacet
  facet normal -0.205055 -0.0755597 0.975829
    outer loop
      vertex 19.6643 -122.5 22.2038
      vertex 19.5301 -122.5 22.1756
      vertex 20.0165 -123.82 22.1756
    endloop
  endfacet
  facet normal -0.203881 -0.0752791 0.976097
    outer loop
      vertex 20.5302 -122.5 22.3847
      vertex 20.0165 -123.82 22.1756
      vertex 20.9046 -123.514 22.3847
    endloop
  endfacet
  facet normal -0.20392 -0.0752625 0.97609
    outer loop
      vertex 20.0165 -123.82 22.1756
      vertex 20.5302 -122.5 22.3847
      vertex 19.6643 -122.5 22.2038
    endloop
  endfacet
  facet normal -0.302366 -0.111264 0.946676
    outer loop
      vertex 18.8917 -122.5 21.9733
      vertex 18.7721 -122.5 21.9351
      vertex 19.3432 -124.052 21.9351
    endloop
  endfacet
  facet normal -0.300284 -0.11065 0.94741
    outer loop
      vertex 19.5301 -122.5 22.1756
      vertex 19.3432 -124.052 21.9351
      vertex 20.0165 -123.82 22.1756
    endloop
  endfacet
  facet normal -0.300226 -0.11066 0.947427
    outer loop
      vertex 19.3432 -124.052 21.9351
      vertex 19.5301 -122.5 22.1756
      vertex 18.8917 -122.5 21.9733
    endloop
  endfacet
  facet normal -0.371381 -0.136495 0.918393
    outer loop
      vertex 18.6667 -123.094 21.8043
      vertex 18.6667 -123.203 21.7881
      vertex 19.0199 -124.164 21.7881
    endloop
  endfacet
  facet normal -0.370869 -0.136471 0.918603
    outer loop
      vertex 18.6667 -123.094 21.8043
      vertex 19.3432 -124.052 21.9351
      vertex 18.7721 -122.5 21.9351
    endloop
  endfacet
  facet normal -0.370464 -0.136575 0.918751
    outer loop
      vertex 18.6667 -123.094 21.8043
      vertex 18.7721 -122.5 21.9351
      vertex 18.6667 -122.5 21.8926
    endloop
  endfacet
  facet normal -0.370556 -0.136229 0.918765
    outer loop
      vertex 19.3432 -124.052 21.9351
      vertex 18.6667 -123.094 21.8043
      vertex 19.0199 -124.164 21.7881
    endloop
  endfacet
  facet normal -0.432689 -0.159028 0.887407
    outer loop
      vertex 18.6667 -123.203 21.7881
      vertex 18.6667 -124.285 21.5942
      vertex 19.0199 -124.164 21.7881
    endloop
  endfacet
  facet normal 0.0803695 0.0382378 0.996031
    outer loop
      vertex 23.8475 -122.5 22.505
      vertex 26.5287 -129.193 22.5456
      vertex 27.9769 -122.5 22.1718
    endloop
  endfacet
  facet normal 0.0804135 0.0382554 0.996027
    outer loop
      vertex 26.5287 -129.193 22.5456
      vertex 23.8475 -122.5 22.505
      vertex 23.4155 -122.649 22.5456
    endloop
  endfacet
  facet normal 0.0796385 0.0384037 0.996084
    outer loop
      vertex 27.9769 -122.5 22.1718
      vertex 31.2271 -127.012 22.0859
      vertex 29.0513 -122.5 22.0859
    endloop
  endfacet
  facet normal 0.0796334 0.0384 0.996084
    outer loop
      vertex 31.2271 -127.012 22.0859
      vertex 27.9769 -122.5 22.1718
      vertex 26.5287 -129.193 22.5456
    endloop
  endfacet
  facet normal -0.0221864 -0.0105133 0.999699
    outer loop
      vertex 23.4155 -122.649 22.5456
      vertex 21.8389 -123.192 22.5049
      vertex 25.0152 -129.895 22.5049
    endloop
  endfacet
  facet normal -0.0220236 -0.0104774 0.999703
    outer loop
      vertex 26.5287 -129.193 22.5456
      vertex 23.4155 -122.649 22.5456
      vertex 25.0152 -129.895 22.5049
    endloop
  endfacet
  facet normal -0.109807 -0.0519165 0.992596
    outer loop
      vertex 21.8389 -123.192 22.5049
      vertex 20.9046 -123.514 22.3847
      vertex 24.1182 -130.311 22.3847
    endloop
  endfacet
  facet normal -0.109056 -0.0516777 0.992691
    outer loop
      vertex 25.0152 -129.895 22.5049
      vertex 21.8389 -123.192 22.5049
      vertex 24.1182 -130.311 22.3847
    endloop
  endfacet
  facet normal -0.19763 -0.0932394 0.975832
    outer loop
      vertex 20.9046 -123.514 22.3847
      vertex 20.0165 -123.82 22.1756
      vertex 23.2657 -130.707 22.1756
    endloop
  endfacet
  facet normal -0.196312 -0.0928155 0.976139
    outer loop
      vertex 24.1182 -130.311 22.3847
      vertex 20.9046 -123.514 22.3847
      vertex 23.2657 -130.707 22.1756
    endloop
  endfacet
  facet normal -0.290985 -0.137066 0.946858
    outer loop
      vertex 20.0165 -123.82 22.1756
      vertex 19.3432 -124.052 21.9351
      vertex 22.6193 -131.007 21.9351
    endloop
  endfacet
  facet normal -0.289202 -0.136442 0.947495
    outer loop
      vertex 23.2657 -130.707 22.1756
      vertex 20.0165 -123.82 22.1756
      vertex 22.6193 -131.007 21.9351
    endloop
  endfacet
  facet normal -0.358866 -0.168935 0.917974
    outer loop
      vertex 19.3432 -124.052 21.9351
      vertex 19.0199 -124.164 21.7881
      vertex 22.309 -131.151 21.7881
    endloop
  endfacet
  facet normal -0.357173 -0.168244 0.918761
    outer loop
      vertex 22.6193 -131.007 21.9351
      vertex 19.3432 -124.052 21.9351
      vertex 22.309 -131.151 21.7881
    endloop
  endfacet
  facet normal -0.419404 -0.196131 0.88636
    outer loop
      vertex 18.6667 -124.567 21.5318
      vertex 19.0199 -124.164 21.7881
      vertex 18.6667 -124.285 21.5942
    endloop
  endfacet
  facet normal -0.418673 -0.196885 0.886538
    outer loop
      vertex 19.0199 -124.164 21.7881
      vertex 18.6667 -124.567 21.5318
      vertex 21.8607 -131.359 21.5318
    endloop
  endfacet
  facet normal -0.416543 -0.196086 0.887718
    outer loop
      vertex 22.309 -131.151 21.7881
      vertex 19.0199 -124.164 21.7881
      vertex 21.8607 -131.359 21.5318
    endloop
  endfacet
  facet normal -0.486482 -0.227711 0.843494
    outer loop
      vertex 18.6667 -125.093 21.3899
      vertex 18.6667 -130.05 20.0517
      vertex 19.74 -132.343 20.0517
    endloop
  endfacet
  facet normal -0.484513 -0.227847 0.84459
    outer loop
      vertex 18.6667 -125.093 21.3899
      vertex 21.8607 -131.359 21.5318
      vertex 18.6667 -124.567 21.5318
    endloop
  endfacet
  facet normal -0.484072 -0.227615 0.844906
    outer loop
      vertex 21.8607 -131.359 21.5318
      vertex 18.6667 -125.093 21.3899
      vertex 19.74 -132.343 20.0517
    endloop
  endfacet
  facet normal -0.56038 -0.261415 0.785898
    outer loop
      vertex 18.6667 -132.51 19.2429
      vertex 18.6667 -132.605 19.2113
      vertex 18.7572 -132.799 19.2113
    endloop
  endfacet
  facet normal -0.555046 -0.259804 0.790206
    outer loop
      vertex 18.6667 -132.51 19.2429
      vertex 19.74 -132.343 20.0517
      vertex 18.6667 -130.05 20.0517
    endloop
  endfacet
  facet normal -0.554948 -0.260178 0.790152
    outer loop
      vertex 19.74 -132.343 20.0517
      vertex 18.6667 -132.51 19.2429
      vertex 18.7572 -132.799 19.2113
    endloop
  endfacet
  facet normal -0.61934 -0.288919 0.73003
    outer loop
      vertex 18.6667 -132.605 19.2113
      vertex 18.6667 -132.841 19.1179
      vertex 18.7572 -132.799 19.2113
    endloop
  endfacet
  facet normal 0.375944 0.183388 0.908314
    outer loop
      vertex 35.9113 -122.5 19.8262
      vertex 33.2768 -122.5 20.9166
      vertex 34.6929 -125.403 20.9166
    endloop
  endfacet
  facet normal 0.371938 0.185485 0.909537
    outer loop
      vertex 35.9113 -122.5 19.8262
      vertex 37.3333 -124.178 19.5869
      vertex 37.3333 -122.5 19.2447
    endloop
  endfacet
  facet normal 0.371966 0.185511 0.90952
    outer loop
      vertex 37.3333 -124.178 19.5869
      vertex 35.9113 -122.5 19.8262
      vertex 34.6929 -125.403 20.9166
    endloop
  endfacet
  facet normal 0.30338 0.146901 0.941478
    outer loop
      vertex 32.1789 -122.5 21.2672
      vertex 30.6527 -122.5 21.759
      vertex 32.5421 -126.402 21.759
    endloop
  endfacet
  facet normal 0.300892 0.146777 0.942295
    outer loop
      vertex 33.2768 -122.5 20.9166
      vertex 32.5421 -126.402 21.759
      vertex 34.6929 -125.403 20.9166
    endloop
  endfacet
  facet normal 0.300908 0.146773 0.942291
    outer loop
      vertex 32.5421 -126.402 21.759
      vertex 33.2768 -122.5 20.9166
      vertex 32.1789 -122.5 21.2672
    endloop
  endfacet
  facet normal 0.238978 0.115504 0.964131
    outer loop
      vertex 30.4193 -122.5 21.8163
      vertex 29.9384 -122.5 21.9355
      vertex 31.9558 -126.674 21.9355
    endloop
  endfacet
  facet normal 0.237134 0.114824 0.964667
    outer loop
      vertex 30.6527 -122.5 21.759
      vertex 31.9558 -126.674 21.9355
      vertex 32.5421 -126.402 21.759
    endloop
  endfacet
  facet normal 0.236847 0.114737 0.964748
    outer loop
      vertex 31.9558 -126.674 21.9355
      vertex 30.6527 -122.5 21.759
      vertex 30.4193 -122.5 21.8163
    endloop
  endfacet
  facet normal 0.166937 0.0805012 0.982676
    outer loop
      vertex 29.6841 -122.5 21.9784
      vertex 29.0513 -122.5 22.0859
      vertex 31.2271 -127.012 22.0859
    endloop
  endfacet
  facet normal 0.165717 0.0800954 0.982915
    outer loop
      vertex 29.9384 -122.5 21.9355
      vertex 31.2271 -127.012 22.0859
      vertex 31.9558 -126.674 21.9355
    endloop
  endfacet
  facet normal 0.165813 0.0801221 0.982897
    outer loop
      vertex 31.2271 -127.012 22.0859
      vertex 29.9384 -122.5 21.9355
      vertex 29.6841 -122.5 21.9784
    endloop
  endfacet
  facet normal 0.0781198 0.0416584 0.996073
    outer loop
      vertex 31.2271 -127.012 22.0859
      vertex 26.5287 -129.193 22.5456
      vertex 31.0961 -137.758 22.5456
    endloop
  endfacet
  facet normal 0.078235 0.0416566 0.996064
    outer loop
      vertex 31.2271 -127.012 22.0859
      vertex 31.0961 -137.758 22.5456
      vertex 35.5501 -135.131 22.0859
    endloop
  endfacet
  facet normal -0.0215512 -0.0114959 0.999702
    outer loop
      vertex 26.5287 -129.193 22.5456
      vertex 25.0152 -129.895 22.5049
      vertex 29.6613 -138.605 22.5049
    endloop
  endfacet
  facet normal -0.0215682 -0.0115015 0.999701
    outer loop
      vertex 31.0961 -137.758 22.5456
      vertex 26.5287 -129.193 22.5456
      vertex 29.6613 -138.605 22.5049
    endloop
  endfacet
  facet normal -0.106633 -0.0568968 0.992669
    outer loop
      vertex 25.0152 -129.895 22.5049
      vertex 24.1182 -130.311 22.3847
      vertex 28.811 -139.106 22.3847
    endloop
  endfacet
  facet normal -0.106767 -0.0569517 0.992652
    outer loop
      vertex 29.6613 -138.605 22.5049
      vertex 25.0152 -129.895 22.5049
      vertex 28.811 -139.106 22.3847
    endloop
  endfacet
  facet normal -0.191848 -0.102389 0.976069
    outer loop
      vertex 24.1182 -130.311 22.3847
      vertex 23.2657 -130.707 22.1756
      vertex 28.0028 -139.583 22.1756
    endloop
  endfacet
  facet normal -0.192042 -0.102469 0.976022
    outer loop
      vertex 28.811 -139.106 22.3847
      vertex 24.1182 -130.311 22.3847
      vertex 28.0028 -139.583 22.1756
    endloop
  endfacet
  facet normal -0.28249 -0.150784 0.947346
    outer loop
      vertex 23.2657 -130.707 22.1756
      vertex 22.6193 -131.007 21.9351
      vertex 27.3901 -139.945 21.9351
    endloop
  endfacet
  facet normal -0.282689 -0.150871 0.947272
    outer loop
      vertex 28.0028 -139.583 22.1756
      vertex 23.2657 -130.707 22.1756
      vertex 27.3901 -139.945 21.9351
    endloop
  endfacet
  facet normal -0.348747 -0.186174 0.918539
    outer loop
      vertex 22.6193 -131.007 21.9351
      vertex 22.309 -131.151 21.7881
      vertex 27.0959 -140.118 21.7881
    endloop
  endfacet
  facet normal -0.349229 -0.186406 0.918309
    outer loop
      vertex 27.3901 -139.945 21.9351
      vertex 22.6193 -131.007 21.9351
      vertex 27.0959 -140.118 21.7881
    endloop
  endfacet
  facet normal -0.406631 -0.217089 0.887425
    outer loop
      vertex 22.309 -131.151 21.7881
      vertex 21.8607 -131.359 21.5318
      vertex 26.6709 -140.369 21.5318
    endloop
  endfacet
  facet normal -0.406834 -0.217182 0.887309
    outer loop
      vertex 27.0959 -140.118 21.7881
      vertex 22.309 -131.151 21.7881
      vertex 26.6709 -140.369 21.5318
    endloop
  endfacet
  facet normal -0.472351 -0.252307 0.844527
    outer loop
      vertex 21.8607 -131.359 21.5318
      vertex 19.74 -132.343 20.0517
      vertex 24.6606 -141.555 20.0517
    endloop
  endfacet
  facet normal -0.472727 -0.252376 0.844296
    outer loop
      vertex 26.6709 -140.369 21.5318
      vertex 21.8607 -131.359 21.5318
      vertex 24.6606 -141.555 20.0517
    endloop
  endfacet
  facet normal -0.541128 -0.289102 0.789684
    outer loop
      vertex 19.74 -132.343 20.0517
      vertex 18.7572 -132.799 19.2113
      vertex 23.729 -142.105 19.2113
    endloop
  endfacet
  facet normal -0.541423 -0.289201 0.789445
    outer loop
      vertex 24.6606 -141.555 20.0517
      vertex 19.74 -132.343 20.0517
      vertex 23.729 -142.105 19.2113
    endloop
  endfacet
  facet normal -0.60344 -0.322005 0.729502
    outer loop
      vertex 18.6667 -134.138 18.5454
      vertex 18.7572 -132.799 19.2113
      vertex 18.6667 -132.841 19.1179
    endloop
  endfacet
  facet normal -0.602967 -0.32219 0.729811
    outer loop
      vertex 18.7572 -132.799 19.2113
      vertex 18.6667 -134.138 18.5454
      vertex 23.1167 -142.466 18.5454
    endloop
  endfacet
  facet normal -0.603302 -0.322319 0.729477
    outer loop
      vertex 23.729 -142.105 19.2113
      vertex 18.7572 -132.799 19.2113
      vertex 23.1167 -142.466 18.5454
    endloop
  endfacet
  facet normal -0.663217 -0.354479 0.659158
    outer loop
      vertex 18.6667 -134.27 18.4744
      vertex 18.6667 -135.223 17.9619
      vertex 22.6764 -142.725 17.9619
    endloop
  endfacet
  facet normal -0.663371 -0.354467 0.659009
    outer loop
      vertex 18.6667 -134.27 18.4744
      vertex 23.1167 -142.466 18.5454
      vertex 18.6667 -134.138 18.5454
    endloop
  endfacet
  facet normal -0.663848 -0.354731 0.658385
    outer loop
      vertex 23.1167 -142.466 18.5454
      vertex 18.6667 -134.27 18.4744
      vertex 22.6764 -142.725 17.9619
    endloop
  endfacet
  facet normal -0.719862 -0.384708 0.577753
    outer loop
      vertex 18.6667 -135.384 17.8545
      vertex 18.6667 -135.97 17.4643
      vertex 22.3729 -142.905 17.4643
    endloop
  endfacet
  facet normal -0.720256 -0.384965 0.57709
    outer loop
      vertex 18.6667 -135.384 17.8545
      vertex 22.6764 -142.725 17.9619
      vertex 18.6667 -135.223 17.9619
    endloop
  endfacet
  facet normal -0.719654 -0.384622 0.578069
    outer loop
      vertex 22.6764 -142.725 17.9619
      vertex 18.6667 -135.384 17.8545
      vertex 22.3729 -142.905 17.4643
    endloop
  endfacet
  facet normal -0.761328 -0.406939 0.504759
    outer loop
      vertex 18.6667 -136.074 17.381
      vertex 18.6667 -136.348 17.1601
      vertex 22.2196 -142.995 17.1601
    endloop
  endfacet
  facet normal -0.760112 -0.406219 0.507164
    outer loop
      vertex 18.6667 -136.074 17.381
      vertex 22.3729 -142.905 17.4643
      vertex 18.6667 -135.97 17.4643
    endloop
  endfacet
  facet normal -0.761604 -0.407064 0.50424
    outer loop
      vertex 22.3729 -142.905 17.4643
      vertex 18.6667 -136.074 17.381
      vertex 22.2196 -142.995 17.1601
    endloop
  endfacet
  facet normal -0.796261 -0.425604 0.429918
    outer loop
      vertex 18.6667 -136.476 17.0331
      vertex 18.6667 -136.765 16.747
      vertex 22.0501 -143.095 16.747
    endloop
  endfacet
  facet normal -0.796586 -0.425784 0.429137
    outer loop
      vertex 18.6667 -136.476 17.0331
      vertex 22.2196 -142.995 17.1601
      vertex 18.6667 -136.348 17.1601
    endloop
  endfacet
  facet normal -0.796325 -0.42563 0.429775
    outer loop
      vertex 22.2196 -142.995 17.1601
      vertex 18.6667 -136.476 17.0331
      vertex 22.0501 -143.095 16.747
    endloop
  endfacet
  facet normal -0.815686 -0.435986 0.380226
    outer loop
      vertex 18.6667 -144.684 7.66667
      vertex 22.0501 -143.095 16.747
      vertex 18.6667 -136.765 16.747
    endloop
  endfacet
  facet normal -0.816113 -0.435173 0.380242
    outer loop
      vertex 22.0501 -143.095 16.747
      vertex 18.6667 -144.684 7.66667
      vertex 18.832 -144.994 7.66667
    endloop
  endfacet
  facet normal 0.367319 0.195341 0.90935
    outer loop
      vertex 37.3333 -124.178 19.5869
      vertex 34.6929 -125.403 20.9166
      vertex 37.3333 -130.368 20.9166
    endloop
  endfacet
  facet normal 0.295866 0.157483 0.942158
    outer loop
      vertex 34.6929 -125.403 20.9166
      vertex 32.5421 -126.402 21.759
      vertex 36.7966 -134.395 21.759
    endloop
  endfacet
  facet normal 0.296234 0.15758 0.942027
    outer loop
      vertex 37.3333 -130.368 20.9166
      vertex 36.7966 -134.395 21.759
      vertex 37.3333 -134.078 21.5372
    endloop
  endfacet
  facet normal 0.296292 0.157569 0.94201
    outer loop
      vertex 36.7966 -134.395 21.759
      vertex 37.3333 -130.368 20.9166
      vertex 34.6929 -125.403 20.9166
    endloop
  endfacet
  facet normal 0.232864 0.123968 0.964576
    outer loop
      vertex 32.5421 -126.402 21.759
      vertex 31.9558 -126.674 21.9355
      vertex 36.2408 -134.723 21.9355
    endloop
  endfacet
  facet normal 0.233077 0.124062 0.964512
    outer loop
      vertex 36.7966 -134.395 21.759
      vertex 32.5421 -126.402 21.759
      vertex 36.2408 -134.723 21.9355
    endloop
  endfacet
  facet normal 0.162681 0.0866204 0.982869
    outer loop
      vertex 31.9558 -126.674 21.9355
      vertex 31.2271 -127.012 22.0859
      vertex 35.5501 -135.131 22.0859
    endloop
  endfacet
  facet normal 0.162814 0.0866763 0.982842
    outer loop
      vertex 36.2408 -134.723 21.9355
      vertex 31.9558 -126.674 21.9355
      vertex 35.5501 -135.131 22.0859
    endloop
  endfacet
  facet normal 0.508475 -0.861076 0
    outer loop
      vertex 35.5501 -135.131 22.0859
      vertex 37.3333 -134.078 20.5434
      vertex 37.3333 -134.078 21.4512
    endloop
  endfacet
  facet normal 0.508219 -0.861228 -0.000400051
    outer loop
      vertex 37.3333 -134.078 20.5434
      vertex 35.5501 -135.131 22.0859
      vertex 22.0501 -143.095 16.747
    endloop
  endfacet
  facet normal 0.508145 -0.861271 0
    outer loop
      vertex 22.0501 -143.095 16.747
      vertex 37.3333 -134.078 19.6964
      vertex 37.3333 -134.078 20.5434
    endloop
  endfacet
  facet normal 0.508192 -0.861244 9.69003e-06
    outer loop
      vertex 22.5231 -142.816 7.66667
      vertex 22.0501 -143.095 16.747
      vertex 18.832 -144.994 7.66667
    endloop
  endfacet
  facet normal 0.508144 -0.861272 6.31769e-06
    outer loop
      vertex 22.0501 -143.095 16.747
      vertex 22.5231 -142.816 7.66667
      vertex 37.3333 -134.078 19.6964
    endloop
  endfacet
  facet normal 0.508041 -0.861333 0.000205557
    outer loop
      vertex 31.0961 -137.758 22.5456
      vertex 22.0501 -143.095 16.747
      vertex 35.5501 -135.131 22.0859
    endloop
  endfacet
  facet normal 0.508178 -0.861252 -8.16193e-05
    outer loop
      vertex 24.6606 -141.555 20.0517
      vertex 22.0501 -143.095 16.747
      vertex 31.0961 -137.758 22.5456
    endloop
  endfacet
  facet normal 0.509115 -0.860698 -0.00108074
    outer loop
      vertex 23.729 -142.105 19.2113
      vertex 22.0501 -143.095 16.747
      vertex 24.6606 -141.555 20.0517
    endloop
  endfacet
  facet normal 0.507713 -0.861526 0.000207386
    outer loop
      vertex 23.1167 -142.466 18.5454
      vertex 22.0501 -143.095 16.747
      vertex 23.729 -142.105 19.2113
    endloop
  endfacet
  facet normal 0.503503 -0.863986 0.00356505
    outer loop
      vertex 22.6764 -142.725 17.9619
      vertex 22.0501 -143.095 16.747
      vertex 23.1167 -142.466 18.5454
    endloop
  endfacet
  facet normal 0.51806 -0.855319 -0.00657877
    outer loop
      vertex 22.3729 -142.905 17.4643
      vertex 22.0501 -143.095 16.747
      vertex 22.6764 -142.725 17.9619
    endloop
  endfacet
  facet normal 0.498096 -0.867104 0.00552703
    outer loop
      vertex 22.2196 -142.995 17.1601
      vertex 22.0501 -143.095 16.747
      vertex 22.3729 -142.905 17.4643
    endloop
  endfacet
  facet normal 0.50808 -0.86131 0.000113322
    outer loop
      vertex 25.1507 -141.266 7.66667
      vertex 37.3333 -134.078 19.6964
      vertex 22.5231 -142.816 7.66667
    endloop
  endfacet
  facet normal 0.508163 -0.861261 0
    outer loop
      vertex 37.3333 -134.078 19.6964
      vertex 25.1507 -141.266 7.66667
      vertex 37.3333 -134.078 14.2331
    endloop
  endfacet
  facet normal 0.508172 -0.861255 -2.39133e-05
    outer loop
      vertex 29.1996 -138.877 7.66667
      vertex 37.3333 -134.078 14.2331
      vertex 25.1507 -141.266 7.66667
    endloop
  endfacet
  facet normal 0.508158 -0.861264 0
    outer loop
      vertex 37.3333 -134.078 14.2331
      vertex 29.1996 -138.877 7.66667
      vertex 37.3333 -134.078 13.2244
    endloop
  endfacet
  facet normal 0.508089 -0.861305 0.00013691
    outer loop
      vertex 31.5237 -137.506 7.66667
      vertex 37.3333 -134.078 13.2244
      vertex 29.1996 -138.877 7.66667
    endloop
  endfacet
  facet normal 0.508186 -0.861247 0
    outer loop
      vertex 37.3333 -134.078 13.2244
      vertex 31.5237 -137.506 7.66667
      vertex 37.3333 -134.078 12.3571
    endloop
  endfacet
  facet normal 0.508186 -0.861247 0
    outer loop
      vertex 37.3333 -134.078 12.3571
      vertex 31.5237 -137.506 7.66667
      vertex 37.3333 -134.078 7.66667
    endloop
  endfacet
  facet normal 0.508334 -0.86116 -0.000534747
    outer loop
      vertex 37.3333 -134.078 21.4512
      vertex 36.7966 -134.395 21.759
      vertex 35.5501 -135.131 22.0859
    endloop
  endfacet
  facet normal 0.508562 -0.861026 0
    outer loop
      vertex 36.7966 -134.395 21.759
      vertex 37.3333 -134.078 21.4512
      vertex 37.3333 -134.078 21.5372
    endloop
  endfacet
  facet normal 0.509379 -0.860529 0.00486902
    outer loop
      vertex 36.2408 -134.723 21.9355
      vertex 35.5501 -135.131 22.0859
      vertex 36.7966 -134.395 21.759
    endloop
  endfacet
  facet normal 0.508384 -0.86113 -0.00127133
    outer loop
      vertex 29.6613 -138.605 22.5049
      vertex 26.6709 -140.369 21.5318
      vertex 31.0961 -137.758 22.5456
    endloop
  endfacet
  facet normal 0.508188 -0.861246 -0.0001157
    outer loop
      vertex 26.6709 -140.369 21.5318
      vertex 24.6606 -141.555 20.0517
      vertex 31.0961 -137.758 22.5456
    endloop
  endfacet
  facet normal 0.507301 -0.861763 0.00320191
    outer loop
      vertex 28.811 -139.106 22.3847
      vertex 26.6709 -140.369 21.5318
      vertex 29.6613 -138.605 22.5049
    endloop
  endfacet
  facet normal 0.508325 -0.861165 -0.000253201
    outer loop
      vertex 28.0028 -139.583 22.1756
      vertex 26.6709 -140.369 21.5318
      vertex 28.811 -139.106 22.3847
    endloop
  endfacet
  facet normal 0.510574 -0.859809 -0.00655982
    outer loop
      vertex 27.3901 -139.945 21.9351
      vertex 26.6709 -140.369 21.5318
      vertex 28.0028 -139.583 22.1756
    endloop
  endfacet
  facet normal 0.498812 -0.866446 0.0213923
    outer loop
      vertex 27.0959 -140.118 21.7881
      vertex 26.6709 -140.369 21.5318
      vertex 27.3901 -139.945 21.9351
    endloop
  endfacet
endsolid OpenSCAD_Model
