solid OpenSCAD_Model
  facet normal 1 0 0
    outer loop
      vertex 25 -171.84 0
      vertex 25 -171.907 -10.4335
      vertex 25 -171.84 -10.5232
    endloop
  endfacet
  facet normal 1 0 0
    outer loop
      vertex 25 -171.84 0
      vertex 25 -172.812 -9.23179
      vertex 25 -171.907 -10.4335
    endloop
  endfacet
  facet normal 1 0 0
    outer loop
      vertex 25 -171.84 0
      vertex 25 -172.987 -8.9791
      vertex 25 -172.812 -9.23179
    endloop
  endfacet
  facet normal 1 0 0
    outer loop
      vertex 25 -171.84 0
      vertex 25 -173.573 -8.13255
      vertex 25 -172.987 -8.9791
    endloop
  endfacet
  facet normal 1 0 0
    outer loop
      vertex 25 -171.84 0
      vertex 25 -173.987 -7.51191
      vertex 25 -173.573 -8.13255
    endloop
  endfacet
  facet normal 1 0 0
    outer loop
      vertex 25 -171.84 0
      vertex 25 -174.086 -7.36419
      vertex 25 -173.987 -7.51191
    endloop
  endfacet
  facet normal 1 0 0
    outer loop
      vertex 25 -171.84 0
      vertex 25 -174.941 -6.53164
      vertex 25 -174.086 -7.36419
    endloop
  endfacet
  facet normal 1 0 0
    outer loop
      vertex 25 -171.84 0
      vertex 25 -175.204 -6.27565
      vertex 25 -174.941 -6.53164
    endloop
  endfacet
  facet normal 1 0 0
    outer loop
      vertex 25 -171.84 0
      vertex 25 -175.903 -5.86632
      vertex 25 -175.204 -6.27565
    endloop
  endfacet
  facet normal 1 -0 0
    outer loop
      vertex 25 -176.832 -4.99721
      vertex 25 -175.903 -5.86632
      vertex 25 -171.84 0
    endloop
  endfacet
  facet normal 1 0 0
    outer loop
      vertex 25 -175.903 -5.86632
      vertex 25 -176.832 -4.99721
      vertex 25 -176.145 -5.72421
    endloop
  endfacet
  facet normal 1 0 0
    outer loop
      vertex 25 -171.84 0
      vertex 25 -176.895 -4.93071
      vertex 25 -176.832 -4.99721
    endloop
  endfacet
  facet normal 1 0 0
    outer loop
      vertex 25 -171.84 0
      vertex 25 -177.43 -4.23499
      vertex 25 -176.895 -4.93071
    endloop
  endfacet
  facet normal 1 -0 0
    outer loop
      vertex 25 -178.201 -2.98108
      vertex 25 -177.43 -4.23499
      vertex 25 -171.84 0
    endloop
  endfacet
  facet normal 1 0 0
    outer loop
      vertex 25 -177.43 -4.23499
      vertex 25 -178.201 -2.98108
      vertex 25 -178.099 -3.35079
    endloop
  endfacet
  facet normal 1 0 0
    outer loop
      vertex 25 -171.84 0
      vertex 25 -178.484 -1.94876
      vertex 25 -178.201 -2.98108
    endloop
  endfacet
  facet normal 1 0 0
    outer loop
      vertex 25 -171.84 0
      vertex 25 -178.576 -0.542572
      vertex 25 -178.484 -1.94876
    endloop
  endfacet
  facet normal 1 0 0
    outer loop
      vertex 25 -171.84 0
      vertex 25 -178.594 -0.258158
      vertex 25 -178.576 -0.542572
    endloop
  endfacet
  facet normal 1 0 0
    outer loop
      vertex 25 -171.84 0
      vertex 25 -178.6 -0.161804
      vertex 25 -178.594 -0.258158
    endloop
  endfacet
  facet normal 1 0 0
    outer loop
      vertex 25 -171.84 0
      vertex 25 -178.603 -0.111022
      vertex 25 -178.6 -0.161804
    endloop
  endfacet
  facet normal 1 0 0
    outer loop
      vertex 25 -171.84 0
      vertex 25 -178.605 -0.0780465
      vertex 25 -178.603 -0.111022
    endloop
  endfacet
  facet normal 1 0 0
    outer loop
      vertex 25 -171.84 0
      vertex 25 -178.605 -0.0536496
      vertex 25 -178.605 -0.0780465
    endloop
  endfacet
  facet normal 1 0 0
    outer loop
      vertex 25 -171.84 0
      vertex 25 -178.606 -0.0338017
      vertex 25 -178.605 -0.0536496
    endloop
  endfacet
  facet normal 1 0 0
    outer loop
      vertex 25 -171.84 0
      vertex 25 -178.606 -0.0163694
      vertex 25 -178.606 -0.0338017
    endloop
  endfacet
  facet normal 1 0 0
    outer loop
      vertex 25 -178.606 -0.0163694
      vertex 25 -171.84 0
      vertex 25 -178.606 0
    endloop
  endfacet
  facet normal 0 0 1
    outer loop
      vertex 24.9081 -178.621 0
      vertex 25 -178.606 0
      vertex 25 -171.84 0
    endloop
  endfacet
  facet normal 0 0 1
    outer loop
      vertex 25 -178.606 0
      vertex 24.9081 -178.621 0
      vertex 24.9082 -178.621 0
    endloop
  endfacet
  facet normal 0 0 1
    outer loop
      vertex 25 -171.84 0
      vertex 22.9469 -178.677 0
      vertex 24.9081 -178.621 0
    endloop
  endfacet
  facet normal -0 0 1
    outer loop
      vertex 20.1524 -177.352 0
      vertex 22.9469 -178.677 0
      vertex 25 -171.84 0
    endloop
  endfacet
  facet normal 0 0 1
    outer loop
      vertex 22.9469 -178.677 0
      vertex 20.1524 -177.352 0
      vertex 21.5727 -178.422 0
    endloop
  endfacet
  facet normal -0 0 1
    outer loop
      vertex 19.5371 -176.661 0
      vertex 20.1524 -177.352 0
      vertex 25 -171.84 0
    endloop
  endfacet
  facet normal -0 0 1
    outer loop
      vertex 19.0669 -175.763 0
      vertex 19.5371 -176.661 0
      vertex 25 -171.84 0
    endloop
  endfacet
  facet normal -0 0 1
    outer loop
      vertex 17.8083 -174.765 0
      vertex 19.0669 -175.763 0
      vertex 25 -171.84 0
    endloop
  endfacet
  facet normal -0 0 1
    outer loop
      vertex 15.5618 -173.702 0
      vertex 17.8083 -174.765 0
      vertex 25 -171.84 0
    endloop
  endfacet
  facet normal -0 0 1
    outer loop
      vertex 12.6902 -171.84 0
      vertex 15.5618 -173.702 0
      vertex 25 -171.84 0
    endloop
  endfacet
  facet normal 0 0 1
    outer loop
      vertex 15.5618 -173.702 0
      vertex 12.6902 -171.84 0
      vertex 13.1117 -172.524 0
    endloop
  endfacet
  facet normal 0 1 0
    outer loop
      vertex 25 -171.84 0
      vertex 12.7849 -171.84 -1.02765
      vertex 12.6902 -171.84 0
    endloop
  endfacet
  facet normal 0 1 -0
    outer loop
      vertex 13.1682 -171.84 -3.03899
      vertex 12.7849 -171.84 -1.02765
      vertex 25 -171.84 0
    endloop
  endfacet
  facet normal 0 1 0
    outer loop
      vertex 12.7849 -171.84 -1.02765
      vertex 13.1682 -171.84 -3.03899
      vertex 12.8745 -171.84 -2.00017
    endloop
  endfacet
  facet normal 0 1 -0
    outer loop
      vertex 13.9403 -171.84 -4.98416
      vertex 13.1682 -171.84 -3.03899
      vertex 25 -171.84 0
    endloop
  endfacet
  facet normal 0 1 0
    outer loop
      vertex 13.1682 -171.84 -3.03899
      vertex 13.9403 -171.84 -4.98416
      vertex 13.4204 -171.84 -3.93093
    endloop
  endfacet
  facet normal 0 1 0
    outer loop
      vertex 25 -171.84 0
      vertex 14.3065 -171.84 -5.72611
      vertex 13.9403 -171.84 -4.98416
    endloop
  endfacet
  facet normal 0 1 0
    outer loop
      vertex 25 -171.84 0
      vertex 15.0932 -171.84 -6.78142
      vertex 14.3065 -171.84 -5.72611
    endloop
  endfacet
  facet normal 0 1 0
    outer loop
      vertex 25 -171.84 0
      vertex 15.4991 -171.84 -7.32584
      vertex 15.0932 -171.84 -6.78142
    endloop
  endfacet
  facet normal 0 1 0
    outer loop
      vertex 25 -171.84 0
      vertex 16.5982 -171.84 -8.34841
      vertex 15.4991 -171.84 -7.32584
    endloop
  endfacet
  facet normal 0 1 0
    outer loop
      vertex 25 -171.84 0
      vertex 16.9536 -171.84 -8.679
      vertex 16.5982 -171.84 -8.34841
    endloop
  endfacet
  facet normal 0 1 0
    outer loop
      vertex 25 -171.84 0
      vertex 18.4045 -171.84 -9.60873
      vertex 16.9536 -171.84 -8.679
    endloop
  endfacet
  facet normal 0 1 0
    outer loop
      vertex 25 -171.84 0
      vertex 18.6172 -171.84 -9.74502
      vertex 18.4045 -171.84 -9.60873
    endloop
  endfacet
  facet normal 0 1 0
    outer loop
      vertex 25 -171.84 0
      vertex 20.3629 -171.84 -10.4666
      vertex 18.6172 -171.84 -9.74502
    endloop
  endfacet
  facet normal 0 1 -0
    outer loop
      vertex 20.445 -171.84 -10.4904
      vertex 20.3629 -171.84 -10.4666
      vertex 25 -171.84 0
    endloop
  endfacet
  facet normal 0 1 0
    outer loop
      vertex 20.3629 -171.84 -10.4666
      vertex 20.445 -171.84 -10.4904
      vertex 20.4358 -171.84 -10.4892
    endloop
  endfacet
  facet normal 0 1 0
    outer loop
      vertex 24.8806 -171.84 -10.5486
      vertex 25 -171.84 0
      vertex 25 -171.84 -10.5232
    endloop
  endfacet
  facet normal 0 1 0
    outer loop
      vertex 24.3788 -171.84 -10.6556
      vertex 25 -171.84 0
      vertex 24.8806 -171.84 -10.5486
    endloop
  endfacet
  facet normal 0 1 0
    outer loop
      vertex 25 -171.84 0
      vertex 24.3788 -171.84 -10.6556
      vertex 22.6869 -171.84 -10.7297
    endloop
  endfacet
  facet normal 0 1 0
    outer loop
      vertex 22.4227 -171.84 -10.7413
      vertex 25 -171.84 0
      vertex 22.6869 -171.84 -10.7297
    endloop
  endfacet
  facet normal 0 1 0
    outer loop
      vertex 25 -171.84 0
      vertex 22.4227 -171.84 -10.7413
      vertex 20.445 -171.84 -10.4904
    endloop
  endfacet
  facet normal 0.125622 -0.792484 -0.596815
    outer loop
      vertex 24.7726 -172.833 -9.25177
      vertex 25 -171.907 -10.4335
      vertex 25 -172.812 -9.23179
    endloop
  endfacet
  facet normal 0.127757 -0.792464 -0.596388
    outer loop
      vertex 24.3788 -171.84 -10.6556
      vertex 25 -171.907 -10.4335
      vertex 24.7726 -172.833 -9.25177
    endloop
  endfacet
  facet normal 0.126631 -0.794538 -0.593864
    outer loop
      vertex 25 -171.907 -10.4335
      vertex 24.3788 -171.84 -10.6556
      vertex 24.8806 -171.84 -10.5486
    endloop
  endfacet
  facet normal 0.126284 -0.794763 -0.593636
    outer loop
      vertex 25 -171.84 -10.5232
      vertex 25 -171.907 -10.4335
      vertex 24.8806 -171.84 -10.5486
    endloop
  endfacet
  facet normal 0.124661 -0.815812 -0.564722
    outer loop
      vertex 25 -172.987 -8.9791
      vertex 25 -173.573 -8.13255
      vertex 24.7726 -172.833 -9.25177
    endloop
  endfacet
  facet normal 0.124956 -0.815656 -0.564881
    outer loop
      vertex 25 -172.812 -9.23179
      vertex 25 -172.987 -8.9791
      vertex 24.7726 -172.833 -9.25177
    endloop
  endfacet
  facet normal 0.1279 -0.790911 -0.598416
    outer loop
      vertex 25 -177.43 -4.23499
      vertex 25 -178.099 -3.35079
      vertex 24.916 -178.107 -3.35817
    endloop
  endfacet
  facet normal 0.106168 -0.958966 -0.262891
    outer loop
      vertex 24.8961 -178.493 -1.95789
      vertex 25 -178.201 -2.98108
      vertex 25 -178.484 -1.94876
    endloop
  endfacet
  facet normal 0.106756 -0.958921 -0.262818
    outer loop
      vertex 25 -178.201 -2.98108
      vertex 24.8961 -178.493 -1.95789
      vertex 24.916 -178.107 -3.35817
    endloop
  endfacet
  facet normal 0.114418 -0.957654 -0.264209
    outer loop
      vertex 25 -178.099 -3.35079
      vertex 25 -178.201 -2.98108
      vertex 24.916 -178.107 -3.35817
    endloop
  endfacet
  facet normal 0.0993518 -0.992893 -0.0655208
    outer loop
      vertex 24.8961 -178.493 -1.95789
      vertex 25 -178.576 -0.542572
      vertex 24.9081 -178.621 0
    endloop
  endfacet
  facet normal 0.0917847 -0.993655 -0.06501
    outer loop
      vertex 25 -178.576 -0.542572
      vertex 24.8961 -178.493 -1.95789
      vertex 25 -178.484 -1.94876
    endloop
  endfacet
  facet normal 0.115014 -0.99138 -0.0627425
    outer loop
      vertex 25 -178.576 -0.542572
      vertex 25 -178.594 -0.258158
      vertex 24.9081 -178.621 0
    endloop
  endfacet
  facet normal 0.117817 -0.991116 -0.0617171
    outer loop
      vertex 25 -178.6 -0.161804
      vertex 24.9081 -178.621 0
      vertex 25 -178.594 -0.258158
    endloop
  endfacet
  facet normal 0.123331 -0.990638 -0.058523
    outer loop
      vertex 25 -178.6 -0.161804
      vertex 25 -178.603 -0.111022
      vertex 24.9081 -178.621 0
    endloop
  endfacet
  facet normal 0.121463 -0.990775 -0.0600916
    outer loop
      vertex 25 -178.603 -0.111022
      vertex 25 -178.605 -0.0780465
      vertex 24.9081 -178.621 0
    endloop
  endfacet
  facet normal 0.171522 -0.98518 0
    outer loop
      vertex 24.9081 -178.621 0
      vertex 25 -178.605 -0.0780465
      vertex 25 -178.605 -0.0536496
    endloop
  endfacet
  facet normal 0.143021 -0.988466 -0.049802
    outer loop
      vertex 24.9081 -178.621 0
      vertex 25 -178.605 -0.0536496
      vertex 25 -178.606 -0.0338017
    endloop
  endfacet
  facet normal 0 -0.914042 -0.40562
    outer loop
      vertex 25 -178.606 -0.0338017
      vertex 24.9082 -178.621 0
      vertex 24.9081 -178.621 0
    endloop
  endfacet
  facet normal 0.16126 -0.986912 0
    outer loop
      vertex 24.9082 -178.621 0
      vertex 25 -178.606 -0.0338017
      vertex 25 -178.606 -0.0163694
    endloop
  endfacet
  facet normal 0.16126 -0.986912 0
    outer loop
      vertex 25 -178.606 -0.0163694
      vertex 25 -178.606 0
      vertex 24.9082 -178.621 0
    endloop
  endfacet
  facet normal -0.848733 -0.523006 -0.0782078
    outer loop
      vertex 13.1117 -172.524 0
      vertex 12.7849 -171.84 -1.02765
      vertex 13.2806 -172.508 -1.93995
    endloop
  endfacet
  facet normal -0.84873 -0.523011 -0.0782121
    outer loop
      vertex 12.7849 -171.84 -1.02765
      vertex 13.1117 -172.524 0
      vertex 12.6902 -171.84 0
    endloop
  endfacet
  facet normal -0.848727 -0.523019 -0.0781947
    outer loop
      vertex 12.8745 -171.84 -2.00017
      vertex 13.2806 -172.508 -1.93995
      vertex 12.7849 -171.84 -1.02765
    endloop
  endfacet
  facet normal -0.432876 -0.900331 -0.0449806
    outer loop
      vertex 15.7017 -173.689 -1.60655
      vertex 15.5618 -173.702 0
      vertex 13.1117 -172.524 0
    endloop
  endfacet
  facet normal -0.432944 -0.900291 -0.0451192
    outer loop
      vertex 13.1117 -172.524 0
      vertex 13.2806 -172.508 -1.93995
      vertex 15.7017 -173.689 -1.60655
    endloop
  endfacet
  facet normal -0.427282 -0.902999 -0.0449744
    outer loop
      vertex 17.9199 -174.754 -1.28112
      vertex 17.8083 -174.765 0
      vertex 15.5618 -173.702 0
    endloop
  endfacet
  facet normal -0.427077 -0.90312 -0.0444982
    outer loop
      vertex 15.5618 -173.702 0
      vertex 15.7017 -173.689 -1.60655
      vertex 17.9199 -174.754 -1.28112
    endloop
  endfacet
  facet normal -0.620182 -0.782125 -0.0604596
    outer loop
      vertex 19.1623 -175.754 -1.09502
      vertex 19.0669 -175.763 0
      vertex 17.8083 -174.765 0
    endloop
  endfacet
  facet normal -0.620321 -0.781992 -0.0607513
    outer loop
      vertex 17.8083 -174.765 0
      vertex 17.9199 -174.754 -1.28112
      vertex 19.1623 -175.754 -1.09502
    endloop
  endfacet
  facet normal -0.882983 -0.462337 -0.0811474
    outer loop
      vertex 19.6241 -176.652 -0.997944
      vertex 19.5371 -176.661 0
      vertex 19.0669 -175.763 0
    endloop
  endfacet
  facet normal -0.882822 -0.46272 -0.0807161
    outer loop
      vertex 19.1623 -175.754 -1.09502
      vertex 19.6241 -176.652 -0.997944
      vertex 19.0669 -175.763 0
    endloop
  endfacet
  facet normal -0.744981 -0.663367 -0.0703354
    outer loop
      vertex 20.2271 -177.345 -0.857231
      vertex 20.1524 -177.352 0
      vertex 19.5371 -176.661 0
    endloop
  endfacet
  facet normal -0.745314 -0.662927 -0.0709545
    outer loop
      vertex 19.6241 -176.652 -0.997944
      vertex 20.2271 -177.345 -0.857231
      vertex 19.5371 -176.661 0
    endloop
  endfacet
  facet normal -0.600715 -0.797379 -0.0576978
    outer loop
      vertex 21.6234 -178.418 -0.583138
      vertex 21.5727 -178.422 0
      vertex 20.1524 -177.352 0
    endloop
  endfacet
  facet normal -0.600977 -0.797095 -0.0588787
    outer loop
      vertex 20.1524 -177.352 0
      vertex 20.2271 -177.345 -0.857231
      vertex 21.6234 -178.418 -0.583138
    endloop
  endfacet
  facet normal -0.182405 -0.982985 -0.0216634
    outer loop
      vertex 22.9765 -178.675 -0.339981
      vertex 22.9469 -178.677 0
      vertex 21.5727 -178.422 0
    endloop
  endfacet
  facet normal -0.182626 -0.982922 -0.0226204
    outer loop
      vertex 21.5727 -178.422 0
      vertex 21.6234 -178.418 -0.583138
      vertex 22.9765 -178.675 -0.339981
    endloop
  endfacet
  facet normal 0.0285421 -0.999587 -0.00339527
    outer loop
      vertex 22.9765 -178.675 -0.339981
      vertex 24.9081 -178.621 0
      vertex 22.9469 -178.677 0
    endloop
  endfacet
  facet normal -0.821769 -0.520351 -0.232228
    outer loop
      vertex 13.2806 -172.508 -1.93995
      vertex 13.1682 -171.84 -3.03899
      vertex 13.7824 -172.461 -3.82095
    endloop
  endfacet
  facet normal -0.821674 -0.520466 -0.232307
    outer loop
      vertex 13.1682 -171.84 -3.03899
      vertex 13.2806 -172.508 -1.93995
      vertex 12.8745 -171.84 -2.00017
    endloop
  endfacet
  facet normal -0.821815 -0.520215 -0.232372
    outer loop
      vertex 13.4204 -171.84 -3.93093
      vertex 13.7824 -172.461 -3.82095
      vertex 13.1682 -171.84 -3.03899
    endloop
  endfacet
  facet normal -0.419435 -0.897788 -0.134354
    outer loop
      vertex 16.1172 -173.65 -3.16429
      vertex 15.7017 -173.689 -1.60655
      vertex 13.2806 -172.508 -1.93995
    endloop
  endfacet
  facet normal -0.419426 -0.897797 -0.134324
    outer loop
      vertex 13.7824 -172.461 -3.82095
      vertex 16.1172 -173.65 -3.16429
      vertex 13.2806 -172.508 -1.93995
    endloop
  endfacet
  facet normal -0.413109 -0.900967 -0.132663
    outer loop
      vertex 18.2512 -174.723 -2.52331
      vertex 17.9199 -174.754 -1.28112
      vertex 15.7017 -173.689 -1.60655
    endloop
  endfacet
  facet normal -0.413131 -0.900944 -0.132752
    outer loop
      vertex 16.1172 -173.65 -3.16429
      vertex 18.2512 -174.723 -2.52331
      vertex 15.7017 -173.689 -1.60655
    endloop
  endfacet
  facet normal -0.600431 -0.779331 -0.179237
    outer loop
      vertex 19.4455 -175.728 -2.15677
      vertex 19.1623 -175.754 -1.09502
      vertex 17.9199 -174.754 -1.28112
    endloop
  endfacet
  facet normal -0.600538 -0.779162 -0.179612
    outer loop
      vertex 18.2512 -174.723 -2.52331
      vertex 19.4455 -175.728 -2.15677
      vertex 17.9199 -174.754 -1.28112
    endloop
  endfacet
  facet normal -0.852782 -0.464381 -0.238985
    outer loop
      vertex 19.8822 -176.628 -1.96557
      vertex 19.6241 -176.652 -0.997944
      vertex 19.1623 -175.754 -1.09502
    endloop
  endfacet
  facet normal -0.852753 -0.464513 -0.238829
    outer loop
      vertex 19.4455 -175.728 -2.15677
      vertex 19.8822 -176.628 -1.96557
      vertex 19.1623 -175.754 -1.09502
    endloop
  endfacet
  facet normal -0.716601 -0.665761 -0.207957
    outer loop
      vertex 20.4488 -177.324 -1.68842
      vertex 20.2271 -177.345 -0.857231
      vertex 19.6241 -176.652 -0.997944
    endloop
  endfacet
  facet normal -0.7165 -0.66597 -0.207634
    outer loop
      vertex 19.8822 -176.628 -1.96557
      vertex 20.4488 -177.324 -1.68842
      vertex 19.6241 -176.652 -0.997944
    endloop
  endfacet
  facet normal -0.578002 -0.796962 -0.1754
    outer loop
      vertex 21.7743 -178.403 -1.14856
      vertex 21.6234 -178.418 -0.583138
      vertex 20.2271 -177.345 -0.857231
    endloop
  endfacet
  facet normal -0.577974 -0.797223 -0.174303
    outer loop
      vertex 20.4488 -177.324 -1.68842
      vertex 21.7743 -178.403 -1.14856
      vertex 20.2271 -177.345 -0.857231
    endloop
  endfacet
  facet normal -0.173413 -0.982136 -0.0730529
    outer loop
      vertex 23.0644 -178.666 -0.669636
      vertex 22.9765 -178.675 -0.339981
      vertex 21.6234 -178.418 -0.583138
    endloop
  endfacet
  facet normal -0.17338 -0.982195 -0.0723283
    outer loop
      vertex 21.7743 -178.403 -1.14856
      vertex 23.0644 -178.666 -0.669636
      vertex 21.6234 -178.418 -0.583138
    endloop
  endfacet
  facet normal 0.0312718 -0.999331 -0.0189446
    outer loop
      vertex 23.0644 -178.666 -0.669636
      vertex 24.9081 -178.621 0
      vertex 22.9765 -178.675 -0.339981
    endloop
  endfacet
  facet normal -0.768303 -0.515465 -0.379483
    outer loop
      vertex 13.7824 -172.461 -3.82095
      vertex 13.9403 -171.84 -4.98416
      vertex 14.6018 -172.383 -5.58586
    endloop
  endfacet
  facet normal -0.76854 -0.515193 -0.37937
    outer loop
      vertex 13.9403 -171.84 -4.98416
      vertex 13.7824 -172.461 -3.82095
      vertex 13.4204 -171.84 -3.93093
    endloop
  endfacet
  facet normal -0.768262 -0.515743 -0.379187
    outer loop
      vertex 14.3065 -171.84 -5.72611
      vertex 14.6018 -172.383 -5.58586
      vertex 13.9403 -171.84 -4.98416
    endloop
  endfacet
  facet normal -0.392411 -0.892775 -0.221285
    outer loop
      vertex 16.7958 -173.586 -4.62588
      vertex 16.1172 -173.65 -3.16429
      vertex 13.7824 -172.461 -3.82095
    endloop
  endfacet
  facet normal -0.392467 -0.892656 -0.221663
    outer loop
      vertex 14.6018 -172.383 -5.58586
      vertex 16.7958 -173.586 -4.62588
      vertex 13.7824 -172.461 -3.82095
    endloop
  endfacet
  facet normal -0.385321 -0.896633 -0.218122
    outer loop
      vertex 18.7923 -174.672 -3.68883
      vertex 18.2512 -174.723 -2.52331
      vertex 16.1172 -173.65 -3.16429
    endloop
  endfacet
  facet normal -0.385325 -0.896621 -0.218163
    outer loop
      vertex 16.7958 -173.586 -4.62588
      vertex 18.7923 -174.672 -3.68883
      vertex 16.1172 -173.65 -3.16429
    endloop
  endfacet
  facet normal -0.560774 -0.773816 -0.294519
    outer loop
      vertex 19.908 -175.684 -3.15299
      vertex 19.4455 -175.728 -2.15677
      vertex 18.2512 -174.723 -2.52331
    endloop
  endfacet
  facet normal -0.560737 -0.773967 -0.294192
    outer loop
      vertex 18.7923 -174.672 -3.68883
      vertex 19.908 -175.684 -3.15299
      vertex 18.2512 -174.723 -2.52331
    endloop
  endfacet
  facet normal -0.793632 -0.467741 -0.389058
    outer loop
      vertex 20.3037 -176.588 -2.87347
      vertex 19.8822 -176.628 -1.96557
      vertex 19.4455 -175.728 -2.15677
    endloop
  endfacet
  facet normal -0.793632 -0.467702 -0.389105
    outer loop
      vertex 19.908 -175.684 -3.15299
      vertex 20.3037 -176.588 -2.87347
      vertex 19.4455 -175.728 -2.15677
    endloop
  endfacet
  facet normal -0.660502 -0.671476 -0.335942
    outer loop
      vertex 20.8109 -177.29 -2.46831
      vertex 20.4488 -177.324 -1.68842
      vertex 19.8822 -176.628 -1.96557
    endloop
  endfacet
  facet normal -0.660534 -0.671298 -0.336234
    outer loop
      vertex 20.3037 -176.588 -2.87347
      vertex 20.8109 -177.29 -2.46831
      vertex 19.8822 -176.628 -1.96557
    endloop
  endfacet
  facet normal -0.533819 -0.797056 -0.282382
    outer loop
      vertex 22.0206 -178.38 -1.67909
      vertex 21.7743 -178.403 -1.14856
      vertex 20.4488 -177.324 -1.68842
    endloop
  endfacet
  facet normal -0.533785 -0.797008 -0.282581
    outer loop
      vertex 20.8109 -177.29 -2.46831
      vertex 22.0206 -178.38 -1.67909
      vertex 20.4488 -177.324 -1.68842
    endloop
  endfacet
  facet normal -0.15751 -0.980874 -0.114352
    outer loop
      vertex 23.208 -178.653 -0.978944
      vertex 23.0644 -178.666 -0.669636
      vertex 21.7743 -178.403 -1.14856
    endloop
  endfacet
  facet normal -0.157346 -0.980758 -0.115567
    outer loop
      vertex 22.0206 -178.38 -1.67909
      vertex 23.208 -178.653 -0.978944
      vertex 21.7743 -178.403 -1.14856
    endloop
  endfacet
  facet normal 0.033917 -0.99908 -0.0262443
    outer loop
      vertex 23.208 -178.653 -0.978944
      vertex 24.9081 -178.621 0
      vertex 23.0644 -178.666 -0.669636
    endloop
  endfacet
  facet normal -0.69073 -0.507991 -0.514624
    outer loop
      vertex 14.6018 -172.383 -5.58586
      vertex 15.0932 -171.84 -6.78142
      vertex 15.7138 -172.279 -7.18105
    endloop
  endfacet
  facet normal -0.690399 -0.508393 -0.514671
    outer loop
      vertex 15.0932 -171.84 -6.78142
      vertex 14.6018 -172.383 -5.58586
      vertex 14.3065 -171.84 -5.72611
    endloop
  endfacet
  facet normal -0.690717 -0.507654 -0.514974
    outer loop
      vertex 15.4991 -171.84 -7.32584
      vertex 15.7138 -172.279 -7.18105
      vertex 15.0932 -171.84 -6.78142
    endloop
  endfacet
  facet normal -0.352356 -0.885143 -0.303921
    outer loop
      vertex 17.7167 -173.499 -5.94692
      vertex 16.7958 -173.586 -4.62588
      vertex 14.6018 -172.383 -5.58586
    endloop
  endfacet
  facet normal -0.352359 -0.885338 -0.303349
    outer loop
      vertex 15.7138 -172.279 -7.18105
      vertex 17.7167 -173.499 -5.94692
      vertex 14.6018 -172.383 -5.58586
    endloop
  endfacet
  facet normal -0.343912 -0.890157 -0.298906
    outer loop
      vertex 19.5267 -174.602 -4.74227
      vertex 18.7923 -174.672 -3.68883
      vertex 16.7958 -173.586 -4.62588
    endloop
  endfacet
  facet normal -0.343948 -0.890313 -0.298401
    outer loop
      vertex 17.7167 -173.499 -5.94692
      vertex 19.5267 -174.602 -4.74227
      vertex 16.7958 -173.586 -4.62588
    endloop
  endfacet
  facet normal -0.502564 -0.76615 -0.400554
    outer loop
      vertex 20.5357 -175.625 -4.0534
      vertex 19.908 -175.684 -3.15299
      vertex 18.7923 -174.672 -3.68883
    endloop
  endfacet
  facet normal -0.502527 -0.765825 -0.401222
    outer loop
      vertex 19.5267 -174.602 -4.74227
      vertex 20.5357 -175.625 -4.0534
      vertex 18.7923 -174.672 -3.68883
    endloop
  endfacet
  facet normal -0.708236 -0.472266 -0.524754
    outer loop
      vertex 20.8757 -176.534 -3.69407
      vertex 20.3037 -176.588 -2.87347
      vertex 19.908 -175.684 -3.15299
    endloop
  endfacet
  facet normal -0.708248 -0.472322 -0.524688
    outer loop
      vertex 20.5357 -175.625 -4.0534
      vertex 20.8757 -176.534 -3.69407
      vertex 19.908 -175.684 -3.15299
    endloop
  endfacet
  facet normal -0.580799 -0.678889 -0.449202
    outer loop
      vertex 21.3023 -177.244 -3.17319
      vertex 20.8109 -177.29 -2.46831
      vertex 20.3037 -176.588 -2.87347
    endloop
  endfacet
  facet normal -0.580774 -0.678718 -0.449492
    outer loop
      vertex 20.8757 -176.534 -3.69407
      vertex 21.3023 -177.244 -3.17319
      vertex 20.3037 -176.588 -2.87347
    endloop
  endfacet
  facet normal -0.470402 -0.796744 -0.379369
    outer loop
      vertex 22.3548 -178.349 -2.15859
      vertex 22.0206 -178.38 -1.67909
      vertex 20.8109 -177.29 -2.46831
    endloop
  endfacet
  facet normal -0.470237 -0.796632 -0.379809
    outer loop
      vertex 21.3023 -177.244 -3.17319
      vertex 22.3548 -178.349 -2.15859
      vertex 20.8109 -177.29 -2.46831
    endloop
  endfacet
  facet normal -0.131654 -0.978576 -0.158289
    outer loop
      vertex 23.4029 -178.634 -1.25851
      vertex 23.208 -178.653 -0.978944
      vertex 22.0206 -178.38 -1.67909
    endloop
  endfacet
  facet normal -0.132515 -0.978884 -0.155645
    outer loop
      vertex 22.3548 -178.349 -2.15859
      vertex 23.4029 -178.634 -1.25851
      vertex 22.0206 -178.38 -1.67909
    endloop
  endfacet
  facet normal 0.0412882 -0.998383 -0.0390684
    outer loop
      vertex 23.4029 -178.634 -1.25851
      vertex 24.9081 -178.621 0
      vertex 23.208 -178.653 -0.978944
    endloop
  endfacet
  facet normal -0.590258 -0.498712 -0.63473
    outer loop
      vertex 15.7138 -172.279 -7.18105
      vertex 16.5982 -171.84 -8.34841
      vertex 17.0847 -172.149 -8.55804
    endloop
  endfacet
  facet normal -0.590601 -0.498212 -0.634803
    outer loop
      vertex 16.5982 -171.84 -8.34841
      vertex 15.7138 -172.279 -7.18105
      vertex 15.4991 -171.84 -7.32584
    endloop
  endfacet
  facet normal -0.590288 -0.498856 -0.634588
    outer loop
      vertex 16.9536 -171.84 -8.679
      vertex 17.0847 -172.149 -8.55804
      vertex 16.5982 -171.84 -8.34841
    endloop
  endfacet
  facet normal -0.299094 -0.875336 -0.379907
    outer loop
      vertex 18.852 -173.392 -7.08726
      vertex 17.7167 -173.499 -5.94692
      vertex 15.7138 -172.279 -7.18105
    endloop
  endfacet
  facet normal -0.299025 -0.875177 -0.380327
    outer loop
      vertex 17.0847 -172.149 -8.55804
      vertex 18.852 -173.392 -7.08726
      vertex 15.7138 -172.279 -7.18105
    endloop
  endfacet
  facet normal -0.290257 -0.881936 -0.371402
    outer loop
      vertex 20.432 -174.517 -5.65162
      vertex 19.5267 -174.602 -4.74227
      vertex 17.7167 -173.499 -5.94692
    endloop
  endfacet
  facet normal -0.290196 -0.881848 -0.371659
    outer loop
      vertex 18.852 -173.392 -7.08726
      vertex 20.432 -174.517 -5.65162
      vertex 17.7167 -173.499 -5.94692
    endloop
  endfacet
  facet normal -0.427288 -0.75568 -0.496359
    outer loop
      vertex 21.3095 -175.552 -4.83066
      vertex 20.5357 -175.625 -4.0534
      vertex 19.5267 -174.602 -4.74227
    endloop
  endfacet
  facet normal -0.427349 -0.755819 -0.496095
    outer loop
      vertex 20.432 -174.517 -5.65162
      vertex 21.3095 -175.552 -4.83066
      vertex 19.5267 -174.602 -4.74227
    endloop
  endfacet
  facet normal -0.59976 -0.478005 -0.641716
    outer loop
      vertex 21.581 -176.468 -4.40242
      vertex 20.8757 -176.534 -3.69407
      vertex 20.5357 -175.625 -4.0534
    endloop
  endfacet
  facet normal -0.599691 -0.477843 -0.641901
    outer loop
      vertex 21.3095 -175.552 -4.83066
      vertex 21.581 -176.468 -4.40242
      vertex 20.5357 -175.625 -4.0534
    endloop
  endfacet
  facet normal -0.481164 -0.687825 -0.543487
    outer loop
      vertex 21.9081 -177.187 -3.78166
      vertex 21.3023 -177.244 -3.17319
      vertex 20.8757 -176.534 -3.69407
    endloop
  endfacet
  facet normal -0.48123 -0.68796 -0.543258
    outer loop
      vertex 21.581 -176.468 -4.40242
      vertex 21.9081 -177.187 -3.78166
      vertex 20.8757 -176.534 -3.69407
    endloop
  endfacet
  facet normal -0.389626 -0.796171 -0.462929
    outer loop
      vertex 22.7669 -178.31 -2.57251
      vertex 22.3548 -178.349 -2.15859
      vertex 21.3023 -177.244 -3.17319
    endloop
  endfacet
  facet normal -0.389787 -0.796245 -0.462667
    outer loop
      vertex 21.9081 -177.187 -3.78166
      vertex 22.7669 -178.31 -2.57251
      vertex 21.3023 -177.244 -3.17319
    endloop
  endfacet
  facet normal -0.10193 -0.976387 -0.190469
    outer loop
      vertex 23.6431 -178.612 -1.49983
      vertex 23.4029 -178.634 -1.25851
      vertex 22.3548 -178.349 -2.15859
    endloop
  endfacet
  facet normal -0.100882 -0.976115 -0.192409
    outer loop
      vertex 22.7669 -178.31 -2.57251
      vertex 23.6431 -178.612 -1.49983
      vertex 22.3548 -178.349 -2.15859
    endloop
  endfacet
  facet normal 0.0462192 -0.997919 -0.0449708
    outer loop
      vertex 23.6431 -178.612 -1.49983
      vertex 24.9081 -178.621 0
      vertex 23.4029 -178.634 -1.25851
    endloop
  endfacet
  facet normal -0.470789 -0.48811 -0.73492
    outer loop
      vertex 17.0847 -172.149 -8.55804
      vertex 18.4045 -171.84 -9.60873
      vertex 18.6728 -171.999 -9.675
    endloop
  endfacet
  facet normal -0.471043 -0.487606 -0.735091
    outer loop
      vertex 18.4045 -171.84 -9.60873
      vertex 17.0847 -172.149 -8.55804
      vertex 16.9536 -171.84 -8.679
    endloop
  endfacet
  facet normal -0.470835 -0.488236 -0.734806
    outer loop
      vertex 18.6172 -171.84 -9.74502
      vertex 18.6728 -171.999 -9.675
      vertex 18.4045 -171.84 -9.60873
    endloop
  endfacet
  facet normal -0.233862 -0.862812 -0.448178
    outer loop
      vertex 20.1672 -173.268 -8.01226
      vertex 18.852 -173.392 -7.08726
      vertex 17.0847 -172.149 -8.55804
    endloop
  endfacet
  facet normal -0.233819 -0.862757 -0.448308
    outer loop
      vertex 18.6728 -171.999 -9.675
      vertex 20.1672 -173.268 -8.01226
      vertex 17.0847 -172.149 -8.55804
    endloop
  endfacet
  facet normal -0.224379 -0.871524 -0.436004
    outer loop
      vertex 21.4808 -174.418 -6.38925
      vertex 20.432 -174.517 -5.65162
      vertex 18.852 -173.392 -7.08726
    endloop
  endfacet
  facet normal -0.224415 -0.871558 -0.435918
    outer loop
      vertex 20.1672 -173.268 -8.01226
      vertex 21.4808 -174.418 -6.38925
      vertex 18.852 -173.392 -7.08726
    endloop
  endfacet
  facet normal -0.336081 -0.743513 -0.578133
    outer loop
      vertex 22.206 -175.467 -5.46113
      vertex 21.3095 -175.552 -4.83066
      vertex 20.432 -174.517 -5.65162
    endloop
  endfacet
  facet normal -0.336204 -0.743683 -0.577844
    outer loop
      vertex 21.4808 -174.418 -6.38925
      vertex 22.206 -175.467 -5.46113
      vertex 20.432 -174.517 -5.65162
    endloop
  endfacet
  facet normal -0.472341 -0.484297 -0.736445
    outer loop
      vertex 22.3979 -176.391 -4.977
      vertex 21.581 -176.468 -4.40242
      vertex 21.3095 -175.552 -4.83066
    endloop
  endfacet
  facet normal -0.472192 -0.484059 -0.736696
    outer loop
      vertex 22.206 -175.467 -5.46113
      vertex 22.3979 -176.391 -4.977
      vertex 21.3095 -175.552 -4.83066
    endloop
  endfacet
  facet normal -0.366239 -0.697947 -0.615418
    outer loop
      vertex 22.6098 -177.12 -4.27523
      vertex 21.9081 -177.187 -3.78166
      vertex 21.581 -176.468 -4.40242
    endloop
  endfacet
  facet normal -0.366576 -0.69835 -0.61476
    outer loop
      vertex 22.3979 -176.391 -4.977
      vertex 22.6098 -177.12 -4.27523
      vertex 21.581 -176.468 -4.40242
    endloop
  endfacet
  facet normal -0.296546 -0.795595 -0.528288
    outer loop
      vertex 23.2443 -178.265 -2.90826
      vertex 22.7669 -178.31 -2.57251
      vertex 21.9081 -177.187 -3.78166
    endloop
  endfacet
  facet normal -0.296037 -0.795415 -0.528845
    outer loop
      vertex 22.6098 -177.12 -4.27523
      vertex 23.2443 -178.265 -2.90826
      vertex 21.9081 -177.187 -3.78166
    endloop
  endfacet
  facet normal -0.0623951 -0.972837 -0.222924
    outer loop
      vertex 23.9215 -178.585 -1.69558
      vertex 23.6431 -178.612 -1.49983
      vertex 22.7669 -178.31 -2.57251
    endloop
  endfacet
  facet normal -0.0638094 -0.973148 -0.221159
    outer loop
      vertex 23.2443 -178.265 -2.90826
      vertex 23.9215 -178.585 -1.69558
      vertex 22.7669 -178.31 -2.57251
    endloop
  endfacet
  facet normal 0.0580444 -0.996801 -0.0549378
    outer loop
      vertex 23.9215 -178.585 -1.69558
      vertex 24.9081 -178.621 0
      vertex 23.6431 -178.612 -1.49983
    endloop
  endfacet
  facet normal -0.336045 -0.47553 -0.812985
    outer loop
      vertex 20.3629 -171.84 -10.4666
      vertex 18.6728 -171.999 -9.675
      vertex 18.6172 -171.84 -9.74502
    endloop
  endfacet
  facet normal -0.156733 -0.847985 -0.506316
    outer loop
      vertex 21.6223 -173.13 -8.69382
      vertex 20.1672 -173.268 -8.01226
      vertex 18.6728 -171.999 -9.675
    endloop
  endfacet
  facet normal -0.157054 -0.848291 -0.505704
    outer loop
      vertex 20.3629 -171.84 -10.4666
      vertex 21.6223 -173.13 -8.69382
      vertex 18.6728 -171.999 -9.675
    endloop
  endfacet
  facet normal -0.156818 -0.848252 -0.505843
    outer loop
      vertex 21.6223 -173.13 -8.69382
      vertex 20.3629 -171.84 -10.4666
      vertex 20.4358 -171.84 -10.4892
    endloop
  endfacet
  facet normal -0.148301 -0.859569 -0.489027
    outer loop
      vertex 22.6412 -174.309 -6.93274
      vertex 21.4808 -174.418 -6.38925
      vertex 20.1672 -173.268 -8.01226
    endloop
  endfacet
  facet normal -0.147879 -0.859261 -0.489696
    outer loop
      vertex 21.6223 -173.13 -8.69382
      vertex 22.6412 -174.309 -6.93274
      vertex 20.1672 -173.268 -8.01226
    endloop
  endfacet
  facet normal -0.232715 -0.72972 -0.642925
    outer loop
      vertex 23.1978 -175.374 -5.92568
      vertex 22.206 -175.467 -5.46113
      vertex 21.4808 -174.418 -6.38925
    endloop
  endfacet
  facet normal -0.23264 -0.729642 -0.643041
    outer loop
      vertex 22.6412 -174.309 -6.93274
      vertex 23.1978 -175.374 -5.92568
      vertex 21.4808 -174.418 -6.38925
    endloop
  endfacet
  facet normal -0.330767 -0.490969 -0.805942
    outer loop
      vertex 23.3018 -176.305 -5.40036
      vertex 22.3979 -176.391 -4.977
      vertex 22.206 -175.467 -5.46113
    endloop
  endfacet
  facet normal -0.331184 -0.491479 -0.80546
    outer loop
      vertex 23.1978 -175.374 -5.92568
      vertex 23.3018 -176.305 -5.40036
      vertex 22.206 -175.467 -5.46113
    endloop
  endfacet
  facet normal -0.24362 -0.708451 -0.662379
    outer loop
      vertex 23.3863 -177.047 -4.6389
      vertex 22.6098 -177.12 -4.27523
      vertex 22.3979 -176.391 -4.977
    endloop
  endfacet
  facet normal -0.243152 -0.708054 -0.662976
    outer loop
      vertex 23.3018 -176.305 -5.40036
      vertex 23.3863 -177.047 -4.6389
      vertex 22.3979 -176.391 -4.977
    endloop
  endfacet
  facet normal -0.194256 -0.794516 -0.575334
    outer loop
      vertex 23.7725 -178.215 -3.15565
      vertex 23.2443 -178.265 -2.90826
      vertex 22.6098 -177.12 -4.27523
    endloop
  endfacet
  facet normal -0.194623 -0.794624 -0.57506
    outer loop
      vertex 23.3863 -177.047 -4.6389
      vertex 23.7725 -178.215 -3.15565
      vertex 22.6098 -177.12 -4.27523
    endloop
  endfacet
  facet normal -0.0226151 -0.969699 -0.243254
    outer loop
      vertex 24.2294 -178.556 -1.83981
      vertex 23.9215 -178.585 -1.69558
      vertex 23.2443 -178.265 -2.90826
    endloop
  endfacet
  facet normal -0.0222807 -0.969634 -0.243544
    outer loop
      vertex 23.7725 -178.215 -3.15565
      vertex 24.2294 -178.556 -1.83981
      vertex 23.2443 -178.265 -2.90826
    endloop
  endfacet
  facet normal 0.0659361 -0.996047 -0.0595137
    outer loop
      vertex 24.2294 -178.556 -1.83981
      vertex 24.9081 -178.621 0
      vertex 23.9215 -178.585 -1.69558
    endloop
  endfacet
  facet normal -0.0717763 -0.831886 -0.550285
    outer loop
      vertex 20.445 -171.84 -10.4904
      vertex 21.6223 -173.13 -8.69382
      vertex 20.4358 -171.84 -10.4892
    endloop
  endfacet
  facet normal -0.0700483 -0.831478 -0.551124
    outer loop
      vertex 21.6223 -173.13 -8.69382
      vertex 20.445 -171.84 -10.4904
      vertex 23.1732 -172.984 -9.11121
    endloop
  endfacet
  facet normal -0.0699368 -0.83139 -0.551271
    outer loop
      vertex 22.4227 -171.84 -10.7413
      vertex 23.1732 -172.984 -9.11121
      vertex 20.445 -171.84 -10.4904
    endloop
  endfacet
  facet normal -0.0626195 -0.845711 -0.529954
    outer loop
      vertex 23.8779 -174.192 -7.26558
      vertex 22.6412 -174.309 -6.93274
      vertex 21.6223 -173.13 -8.69382
    endloop
  endfacet
  facet normal -0.0629075 -0.845891 -0.529633
    outer loop
      vertex 23.1732 -172.984 -9.11121
      vertex 23.8779 -174.192 -7.26558
      vertex 21.6223 -173.13 -8.69382
    endloop
  endfacet
  facet normal -0.118134 -0.714153 -0.689949
    outer loop
      vertex 24.2548 -175.274 -6.21017
      vertex 23.1978 -175.374 -5.92568
      vertex 22.6412 -174.309 -6.93274
    endloop
  endfacet
  facet normal -0.118128 -0.714148 -0.689955
    outer loop
      vertex 23.8779 -174.192 -7.26558
      vertex 24.2548 -175.274 -6.21017
      vertex 22.6412 -174.309 -6.93274
    endloop
  endfacet
  facet normal -0.181548 -0.498559 -0.847631
    outer loop
      vertex 24.2652 -176.215 -5.65964
      vertex 23.3018 -176.305 -5.40036
      vertex 23.1978 -175.374 -5.92568
    endloop
  endfacet
  facet normal -0.181109 -0.498114 -0.847987
    outer loop
      vertex 24.2548 -175.274 -6.21017
      vertex 24.2652 -176.215 -5.65964
      vertex 23.1978 -175.374 -5.92568
    endloop
  endfacet
  facet normal -0.11709 -0.717736 -0.6864
    outer loop
      vertex 24.2138 -176.969 -4.86162
      vertex 23.3863 -177.047 -4.6389
      vertex 23.3018 -176.305 -5.40036
    endloop
  endfacet
  facet normal -0.117545 -0.718041 -0.686003
    outer loop
      vertex 24.2652 -176.215 -5.65964
      vertex 24.2138 -176.969 -4.86162
      vertex 23.3018 -176.305 -5.40036
    endloop
  endfacet
  facet normal -0.087359 -0.793578 -0.602165
    outer loop
      vertex 24.3354 -178.162 -3.30716
      vertex 23.7725 -178.215 -3.15565
      vertex 23.3863 -177.047 -4.6389
    endloop
  endfacet
  facet normal -0.0872812 -0.793557 -0.602203
    outer loop
      vertex 24.2138 -176.969 -4.86162
      vertex 24.3354 -178.162 -3.30716
      vertex 23.3863 -177.047 -4.6389
    endloop
  endfacet
  facet normal 0.0218195 -0.965926 -0.257896
    outer loop
      vertex 24.5576 -178.525 -1.92815
      vertex 24.2294 -178.556 -1.83981
      vertex 23.7725 -178.215 -3.15565
    endloop
  endfacet
  facet normal 0.021575 -0.96597 -0.257751
    outer loop
      vertex 24.3354 -178.162 -3.30716
      vertex 24.5576 -178.525 -1.92815
      vertex 23.7725 -178.215 -3.15565
    endloop
  endfacet
  facet normal 0.0768871 -0.995015 -0.063517
    outer loop
      vertex 24.5576 -178.525 -1.92815
      vertex 24.9081 -178.621 0
      vertex 24.2294 -178.556 -1.83981
    endloop
  endfacet
  facet normal 0.0255685 -0.812698 -0.582123
    outer loop
      vertex 23.1732 -172.984 -9.11121
      vertex 22.6869 -171.84 -10.7297
      vertex 24.7726 -172.833 -9.25177
    endloop
  endfacet
  facet normal 0.0255587 -0.8127 -0.582122
    outer loop
      vertex 22.6869 -171.84 -10.7297
      vertex 23.1732 -172.984 -9.11121
      vertex 22.4227 -171.84 -10.7413
    endloop
  endfacet
  facet normal 0.0254921 -0.812752 -0.582052
    outer loop
      vertex 24.3788 -171.84 -10.6556
      vertex 24.7726 -172.833 -9.25177
      vertex 22.6869 -171.84 -10.7297
    endloop
  endfacet
  facet normal 0.0295349 -0.830336 -0.55648
    outer loop
      vertex 23.8779 -174.192 -7.26558
      vertex 25 -173.987 -7.51191
      vertex 25 -174.086 -7.36419
    endloop
  endfacet
  facet normal 0.0299121 -0.831066 -0.555369
    outer loop
      vertex 25 -173.987 -7.51191
      vertex 23.8779 -174.192 -7.26558
      vertex 23.1732 -172.984 -9.11121
    endloop
  endfacet
  facet normal 0.0290499 -0.831551 -0.554689
    outer loop
      vertex 23.1732 -172.984 -9.11121
      vertex 25 -173.573 -8.13255
      vertex 25 -173.987 -7.51191
    endloop
  endfacet
  facet normal 0.0296401 -0.831011 -0.555466
    outer loop
      vertex 25 -173.573 -8.13255
      vertex 23.1732 -172.984 -9.11121
      vertex 24.7726 -172.833 -9.25177
    endloop
  endfacet
  facet normal 0.00255232 -0.69749 -0.71659
    outer loop
      vertex 24.2548 -175.274 -6.21017
      vertex 25 -174.941 -6.53164
      vertex 25 -175.204 -6.27565
    endloop
  endfacet
  facet normal 0.00278363 -0.697756 -0.71633
    outer loop
      vertex 25 -174.941 -6.53164
      vertex 24.2548 -175.274 -6.21017
      vertex 23.8779 -174.192 -7.26558
    endloop
  endfacet
  facet normal 0.00294134 -0.697635 -0.716447
    outer loop
      vertex 25 -174.086 -7.36419
      vertex 25 -174.941 -6.53164
      vertex 23.8779 -174.192 -7.26558
    endloop
  endfacet
  facet normal -0.0275251 -0.506185 -0.861986
    outer loop
      vertex 24.2652 -176.215 -5.65964
      vertex 25 -175.903 -5.86632
      vertex 25 -176.145 -5.72421
    endloop
  endfacet
  facet normal -0.0282139 -0.505006 -0.862655
    outer loop
      vertex 25 -175.903 -5.86632
      vertex 24.2652 -176.215 -5.65964
      vertex 24.2548 -175.274 -6.21017
    endloop
  endfacet
  facet normal -0.0283458 -0.505123 -0.862582
    outer loop
      vertex 25 -175.204 -6.27565
      vertex 25 -175.903 -5.86632
      vertex 24.2548 -175.274 -6.21017
    endloop
  endfacet
  facet normal 0.00789116 -0.72593 -0.687723
    outer loop
      vertex 24.2138 -176.969 -4.86162
      vertex 25 -176.832 -4.99721
      vertex 25 -176.895 -4.93071
    endloop
  endfacet
  facet normal 0.00831361 -0.727112 -0.686468
    outer loop
      vertex 25 -176.832 -4.99721
      vertex 24.2138 -176.969 -4.86162
      vertex 24.2652 -176.215 -5.65964
    endloop
  endfacet
  facet normal 0.00888477 -0.72679 -0.686802
    outer loop
      vertex 25 -176.145 -5.72421
      vertex 25 -176.832 -4.99721
      vertex 24.2652 -176.215 -5.65964
    endloop
  endfacet
  facet normal 0.0214836 -0.792303 -0.609749
    outer loop
      vertex 24.916 -178.107 -3.35817
      vertex 24.3354 -178.162 -3.30716
      vertex 24.2138 -176.969 -4.86162
    endloop
  endfacet
  facet normal 0.0213723 -0.792331 -0.609718
    outer loop
      vertex 24.2138 -176.969 -4.86162
      vertex 25 -177.43 -4.23499
      vertex 24.916 -178.107 -3.35817
    endloop
  endfacet
  facet normal 0.021039 -0.792542 -0.609455
    outer loop
      vertex 25 -177.43 -4.23499
      vertex 24.2138 -176.969 -4.86162
      vertex 25 -176.895 -4.93071
    endloop
  endfacet
  facet normal 0.0677418 -0.962094 -0.26417
    outer loop
      vertex 24.8961 -178.493 -1.95789
      vertex 24.5576 -178.525 -1.92815
      vertex 24.3354 -178.162 -3.30716
    endloop
  endfacet
  facet normal 0.0679208 -0.962063 -0.264236
    outer loop
      vertex 24.916 -178.107 -3.35817
      vertex 24.8961 -178.493 -1.95789
      vertex 24.3354 -178.162 -3.30716
    endloop
  endfacet
  facet normal 0.0882057 -0.993945 -0.0655213
    outer loop
      vertex 24.8961 -178.493 -1.95789
      vertex 24.9081 -178.621 0
      vertex 24.5576 -178.525 -1.92815
    endloop
  endfacet
endsolid OpenSCAD_Model
