solid OpenSCAD_Model
  facet normal 1 -0 0
    outer loop
      vertex 25 -160.551 14.1085
      vertex 25 -157.52 0
      vertex 25 -157.52 14.6861
    endloop
  endfacet
  facet normal 1 -0 0
    outer loop
      vertex 25 -161.754 13.8294
      vertex 25 -157.52 0
      vertex 25 -160.551 14.1085
    endloop
  endfacet
  facet normal 1 0 0
    outer loop
      vertex 25 -164.68 0
      vertex 25 -161.754 13.8294
      vertex 25 -163.952 13.319
    endloop
  endfacet
  facet normal 1 0 0
    outer loop
      vertex 25 -164.68 0
      vertex 25 -163.952 13.319
      vertex 25 -164.68 13.1924
    endloop
  endfacet
  facet normal 1 0 0
    outer loop
      vertex 25 -161.754 13.8294
      vertex 25 -164.68 0
      vertex 25 -157.52 0
    endloop
  endfacet
  facet normal 0 0 -1
    outer loop
      vertex 10.1061 -164.68 0
      vertex 25 -157.52 0
      vertex 25 -164.68 0
    endloop
  endfacet
  facet normal 0 0 -1
    outer loop
      vertex 9.01746 -162.059 0
      vertex 25 -157.52 0
      vertex 10.1061 -164.68 0
    endloop
  endfacet
  facet normal 0 0 -1
    outer loop
      vertex 9.01746 -162.059 0
      vertex 8.21183 -157.52 0
      vertex 25 -157.52 0
    endloop
  endfacet
  facet normal 0 1 0
    outer loop
      vertex 24.2999 -157.52 14.7602
      vertex 21.8068 -157.52 14.7677
      vertex 23.2639 -157.52 14.8699
    endloop
  endfacet
  facet normal 0 1 0
    outer loop
      vertex 25 -157.52 0
      vertex 21.8068 -157.52 14.7677
      vertex 24.2999 -157.52 14.7602
    endloop
  endfacet
  facet normal 0 1 -0
    outer loop
      vertex 25 -157.52 0
      vertex 24.2999 -157.52 14.7602
      vertex 25 -157.52 14.6861
    endloop
  endfacet
  facet normal -0 1 0
    outer loop
      vertex 19.3397 -157.52 14.3506
      vertex 21.8068 -157.52 14.7677
      vertex 25 -157.52 0
    endloop
  endfacet
  facet normal 0 1 0
    outer loop
      vertex 21.8068 -157.52 14.7677
      vertex 19.3397 -157.52 14.3506
      vertex 20.6886 -157.52 14.6893
    endloop
  endfacet
  facet normal -0 1 0
    outer loop
      vertex 16.9686 -157.52 13.5159
      vertex 19.3397 -157.52 14.3506
      vertex 25 -157.52 0
    endloop
  endfacet
  facet normal 0 1 0
    outer loop
      vertex 19.3397 -157.52 14.3506
      vertex 16.9686 -157.52 13.5159
      vertex 18.1763 -157.52 14.0585
    endloop
  endfacet
  facet normal -0 1 0
    outer loop
      vertex 14.7628 -157.52 12.2815
      vertex 16.9686 -157.52 13.5159
      vertex 25 -157.52 0
    endloop
  endfacet
  facet normal 0 1 0
    outer loop
      vertex 16.9686 -157.52 13.5159
      vertex 14.7628 -157.52 12.2815
      vertex 15.8053 -157.52 12.9931
    endloop
  endfacet
  facet normal -0 1 0
    outer loop
      vertex 12.7888 -157.52 10.6774
      vertex 14.7628 -157.52 12.2815
      vertex 25 -157.52 0
    endloop
  endfacet
  facet normal 0 1 0
    outer loop
      vertex 14.7628 -157.52 12.2815
      vertex 12.7888 -157.52 10.6774
      vertex 13.6507 -157.52 11.5225
    endloop
  endfacet
  facet normal -0 1 0
    outer loop
      vertex 11.1091 -157.52 8.74455
      vertex 12.7888 -157.52 10.6774
      vertex 25 -157.52 0
    endloop
  endfacet
  facet normal 0 1 0
    outer loop
      vertex 12.7888 -157.52 10.6774
      vertex 11.1091 -157.52 8.74455
      vertex 11.7819 -157.52 9.69001
    endloop
  endfacet
  facet normal -0 1 0
    outer loop
      vertex 9.77964 -157.52 6.5354
      vertex 11.1091 -157.52 8.74455
      vertex 25 -157.52 0
    endloop
  endfacet
  facet normal 0 1 0
    outer loop
      vertex 11.1091 -157.52 8.74455
      vertex 9.77964 -157.52 6.5354
      vertex 10.2599 -157.52 7.55108
    endloop
  endfacet
  facet normal -0 1 0
    outer loop
      vertex 8.84747 -157.52 4.11269
      vertex 9.77964 -157.52 6.5354
      vertex 25 -157.52 0
    endloop
  endfacet
  facet normal 0 1 0
    outer loop
      vertex 9.77964 -157.52 6.5354
      vertex 8.84747 -157.52 4.11269
      vertex 9.13498 -157.52 5.17212
    endloop
  endfacet
  facet normal -0 1 0
    outer loop
      vertex 8.34894 -157.52 1.54823
      vertex 8.84747 -157.52 4.11269
      vertex 25 -157.52 0
    endloop
  endfacet
  facet normal 0 1 0
    outer loop
      vertex 8.84747 -157.52 4.11269
      vertex 8.34894 -157.52 1.54823
      vertex 8.44457 -157.52 2.62809
    endloop
  endfacet
  facet normal 0 1 0
    outer loop
      vertex 8.34894 -157.52 1.54823
      vertex 25 -157.52 0
      vertex 8.21183 -157.52 1.90735e-06
    endloop
  endfacet
  facet normal 0 1 0
    outer loop
      vertex 8.21183 -157.52 1.90735e-06
      vertex 25 -157.52 0
      vertex 8.21183 -157.52 0
    endloop
  endfacet
  facet normal 0 -1 0
    outer loop
      vertex 23.352 -164.68 13.2923
      vertex 25 -164.68 13.1924
      vertex 23.7625 -164.68 13.3214
    endloop
  endfacet
  facet normal 0 -1 0
    outer loop
      vertex 21.1901 -164.68 13.0924
      vertex 23.352 -164.68 13.2923
      vertex 21.4471 -164.68 13.1569
    endloop
  endfacet
  facet normal 0 -1 -0
    outer loop
      vertex 23.352 -164.68 13.2923
      vertex 21.1901 -164.68 13.0924
      vertex 25 -164.68 0
    endloop
  endfacet
  facet normal 0 -1 0
    outer loop
      vertex 19.0781 -164.68 12.5396
      vertex 21.1901 -164.68 13.0924
      vertex 19.1892 -164.68 12.5895
    endloop
  endfacet
  facet normal 0 -1 -0
    outer loop
      vertex 21.1901 -164.68 13.0924
      vertex 19.0781 -164.68 12.5396
      vertex 25 -164.68 0
    endloop
  endfacet
  facet normal 0 -1 0
    outer loop
      vertex 25 -164.68 0
      vertex 19.0781 -164.68 12.5396
      vertex 17.2822 -164.68 11.7333
    endloop
  endfacet
  facet normal 0 -1 0
    outer loop
      vertex 25 -164.68 0
      vertex 17.2822 -164.68 11.7333
      vertex 17.0692 -164.68 11.6405
    endloop
  endfacet
  facet normal 0 -1 0
    outer loop
      vertex 15.2081 -164.68 10.4062
      vertex 17.0692 -164.68 11.6405
      vertex 17.0556 -164.68 11.6345
    endloop
  endfacet
  facet normal 0 -1 -0
    outer loop
      vertex 17.0692 -164.68 11.6405
      vertex 15.2081 -164.68 10.4062
      vertex 25 -164.68 0
    endloop
  endfacet
  facet normal 0 -1 0
    outer loop
      vertex 13.565 -164.68 8.86877
      vertex 15.2081 -164.68 10.4062
      vertex 15.0878 -164.68 10.3263
    endloop
  endfacet
  facet normal 0 -1 -0
    outer loop
      vertex 15.2081 -164.68 10.4062
      vertex 13.565 -164.68 8.86877
      vertex 25 -164.68 0
    endloop
  endfacet
  facet normal 0 -1 0
    outer loop
      vertex 12.1922 -164.68 7.06117
      vertex 13.565 -164.68 8.86877
      vertex 13.3785 -164.68 8.69026
    endloop
  endfacet
  facet normal 0 -1 -0
    outer loop
      vertex 13.565 -164.68 8.86877
      vertex 12.1922 -164.68 7.06117
      vertex 25 -164.68 0
    endloop
  endfacet
  facet normal 0 -1 0
    outer loop
      vertex 11.1381 -164.68 5.02584
      vertex 12.1922 -164.68 7.06117
      vertex 11.9845 -164.68 6.77598
    endloop
  endfacet
  facet normal 0 -1 -0
    outer loop
      vertex 12.1922 -164.68 7.06117
      vertex 11.1381 -164.68 5.02584
      vertex 25 -164.68 0
    endloop
  endfacet
  facet normal 0 -1 0
    outer loop
      vertex 10.4459 -164.68 2.81494
      vertex 11.1381 -164.68 5.02584
      vertex 10.9531 -164.68 4.64322
    endloop
  endfacet
  facet normal 0 -1 -0
    outer loop
      vertex 11.1381 -164.68 5.02584
      vertex 10.4459 -164.68 2.81494
      vertex 25 -164.68 0
    endloop
  endfacet
  facet normal 0 -1 0
    outer loop
      vertex 10.1504 -164.68 0.490052
      vertex 10.4459 -164.68 2.81494
      vertex 10.3197 -164.68 2.35998
    endloop
  endfacet
  facet normal 0 -1 -0
    outer loop
      vertex 10.4459 -164.68 2.81494
      vertex 10.1504 -164.68 0.490052
      vertex 25 -164.68 0
    endloop
  endfacet
  facet normal 0 -1 0
    outer loop
      vertex 10.1061 -164.68 0
      vertex 10.1504 -164.68 0.490052
      vertex 10.1061 -164.68 1.90735e-06
    endloop
  endfacet
  facet normal 0 -1 -0
    outer loop
      vertex 10.1504 -164.68 0.490052
      vertex 10.1061 -164.68 0
      vertex 25 -164.68 0
    endloop
  endfacet
  facet normal 0 -1 0
    outer loop
      vertex 23.352 -164.68 13.2923
      vertex 25 -164.68 0
      vertex 25 -164.68 13.1924
    endloop
  endfacet
  facet normal 0.103414 -0.186192 0.977056
    outer loop
      vertex 24.2999 -157.52 14.7602
      vertex 25 -160.551 14.1085
      vertex 25 -157.52 14.6861
    endloop
  endfacet
  facet normal 0.103442 -0.186185 0.977054
    outer loop
      vertex 25 -160.551 14.1085
      vertex 24.2999 -157.52 14.7602
      vertex 23.2194 -160.719 14.265
    endloop
  endfacet
  facet normal 0.103458 -0.18619 0.977052
    outer loop
      vertex 24.2999 -157.52 14.7602
      vertex 23.2639 -157.52 14.8699
      vertex 23.2194 -160.719 14.265
    endloop
  endfacet
  facet normal 0.106237 -0.224913 0.96857
    outer loop
      vertex 25 -163.952 13.319
      vertex 25 -161.754 13.8294
      vertex 23.7464 -164.07 13.4291
    endloop
  endfacet
  facet normal 0.106335 -0.224719 0.968604
    outer loop
      vertex 23.2194 -160.719 14.265
      vertex 25 -161.754 13.8294
      vertex 25 -160.551 14.1085
    endloop
  endfacet
  facet normal 0.10622 -0.224904 0.968574
    outer loop
      vertex 25 -161.754 13.8294
      vertex 23.2194 -160.719 14.265
      vertex 23.7464 -164.07 13.4291
    endloop
  endfacet
  facet normal 0.102119 -0.170434 0.980063
    outer loop
      vertex 23.7464 -164.07 13.4291
      vertex 25 -164.68 13.1924
      vertex 25 -163.952 13.319
    endloop
  endfacet
  facet normal 0.102165 -0.170343 0.980074
    outer loop
      vertex 25 -164.68 13.1924
      vertex 23.7464 -164.07 13.4291
      vertex 23.7625 -164.68 13.3214
    endloop
  endfacet
  facet normal -0.0687671 -0.184434 0.980436
    outer loop
      vertex 21.8068 -157.52 14.7677
      vertex 23.2194 -160.719 14.265
      vertex 23.2639 -157.52 14.8699
    endloop
  endfacet
  facet normal -0.0687289 -0.184418 0.980442
    outer loop
      vertex 23.2194 -160.719 14.265
      vertex 21.8068 -157.52 14.7677
      vertex 20.7533 -160.952 14.0483
    endloop
  endfacet
  facet normal -0.0687414 -0.184415 0.980442
    outer loop
      vertex 20.7533 -160.952 14.0483
      vertex 21.8068 -157.52 14.7677
      vertex 20.6886 -157.52 14.6893
    endloop
  endfacet
  facet normal -0.0612525 -0.250635 0.966142
    outer loop
      vertex 23.7464 -164.07 13.4291
      vertex 23.2194 -160.719 14.265
      vertex 21.4248 -164.289 13.2251
    endloop
  endfacet
  facet normal -0.0612141 -0.250654 0.96614
    outer loop
      vertex 21.4248 -164.289 13.2251
      vertex 23.2194 -160.719 14.265
      vertex 20.7533 -160.952 14.0483
    endloop
  endfacet
  facet normal -0.0696176 -0.175228 0.982063
    outer loop
      vertex 23.7625 -164.68 13.3214
      vertex 23.7464 -164.07 13.4291
      vertex 23.352 -164.68 13.2923
    endloop
  endfacet
  facet normal -0.0697749 -0.175128 0.98207
    outer loop
      vertex 21.4248 -164.289 13.2251
      vertex 23.352 -164.68 13.2923
      vertex 23.7464 -164.07 13.4291
    endloop
  endfacet
  facet normal -0.0698034 -0.175273 0.982042
    outer loop
      vertex 23.352 -164.68 13.2923
      vertex 21.4248 -164.289 13.2251
      vertex 21.4471 -164.68 13.1569
    endloop
  endfacet
  facet normal -0.239438 -0.182616 0.953583
    outer loop
      vertex 19.3397 -157.52 14.3506
      vertex 20.7533 -160.952 14.0483
      vertex 20.6886 -157.52 14.6893
    endloop
  endfacet
  facet normal -0.239473 -0.182629 0.953572
    outer loop
      vertex 20.7533 -160.952 14.0483
      vertex 19.3397 -157.52 14.3506
      vertex 18.3621 -161.177 13.4047
    endloop
  endfacet
  facet normal -0.23942 -0.182646 0.953582
    outer loop
      vertex 18.3621 -161.177 13.4047
      vertex 19.3397 -157.52 14.3506
      vertex 18.1763 -157.52 14.0585
    endloop
  endfacet
  facet normal -0.225397 -0.275861 0.934396
    outer loop
      vertex 21.4248 -164.289 13.2251
      vertex 20.7533 -160.952 14.0483
      vertex 19.1737 -164.502 12.6192
    endloop
  endfacet
  facet normal -0.225542 -0.275792 0.934382
    outer loop
      vertex 19.1737 -164.502 12.6192
      vertex 20.7533 -160.952 14.0483
      vertex 18.3621 -161.177 13.4047
    endloop
  endfacet
  facet normal -0.239445 -0.180069 0.954066
    outer loop
      vertex 21.4471 -164.68 13.1569
      vertex 21.4248 -164.289 13.2251
      vertex 21.1901 -164.68 13.0924
    endloop
  endfacet
  facet normal -0.239764 -0.179863 0.954024
    outer loop
      vertex 19.1737 -164.502 12.6192
      vertex 21.1901 -164.68 13.0924
      vertex 21.4248 -164.289 13.2251
    endloop
  endfacet
  facet normal -0.239772 -0.180055 0.953986
    outer loop
      vertex 21.1901 -164.68 13.0924
      vertex 19.1737 -164.502 12.6192
      vertex 19.1892 -164.68 12.5895
    endloop
  endfacet
  facet normal -0.403062 -0.180866 0.897122
    outer loop
      vertex 16.9686 -157.52 13.5159
      vertex 18.3621 -161.177 13.4047
      vertex 18.1763 -157.52 14.0585
    endloop
  endfacet
  facet normal -0.403063 -0.180866 0.897122
    outer loop
      vertex 18.3621 -161.177 13.4047
      vertex 16.9686 -157.52 13.5159
      vertex 16.1184 -161.389 12.3539
    endloop
  endfacet
  facet normal -0.40316 -0.180834 0.897085
    outer loop
      vertex 16.1184 -161.389 12.3539
      vertex 16.9686 -157.52 13.5159
      vertex 15.8053 -157.52 12.9931
    endloop
  endfacet
  facet normal -0.381376 -0.299682 0.874496
    outer loop
      vertex 18.3621 -161.177 13.4047
      vertex 17.2822 -164.68 11.7333
      vertex 19.1737 -164.502 12.6192
    endloop
  endfacet
  facet normal -0.381042 -0.29983 0.874591
    outer loop
      vertex 17.2822 -164.68 11.7333
      vertex 18.3621 -161.177 13.4047
      vertex 17.0692 -164.68 11.6405
    endloop
  endfacet
  facet normal -0.381254 -0.299723 0.874535
    outer loop
      vertex 16.1184 -161.389 12.3539
      vertex 17.0692 -164.68 11.6405
      vertex 18.3621 -161.177 13.4047
    endloop
  endfacet
  facet normal -0.384998 -0.300399 0.872661
    outer loop
      vertex 17.0692 -164.68 11.6405
      vertex 16.1184 -161.389 12.3539
      vertex 17.0556 -164.68 11.6345
    endloop
  endfacet
  facet normal -0.40267 -0.184653 0.896527
    outer loop
      vertex 19.1892 -164.68 12.5895
      vertex 19.1737 -164.502 12.6192
      vertex 19.0781 -164.68 12.5396
    endloop
  endfacet
  facet normal -0.40253 -0.184748 0.89657
    outer loop
      vertex 19.0781 -164.68 12.5396
      vertex 19.1737 -164.502 12.6192
      vertex 17.2822 -164.68 11.7333
    endloop
  endfacet
  facet normal -0.554653 -0.179131 0.812571
    outer loop
      vertex 14.7628 -157.52 12.2815
      vertex 16.1184 -161.389 12.3539
      vertex 15.8053 -157.52 12.9931
    endloop
  endfacet
  facet normal -0.554663 -0.179134 0.812564
    outer loop
      vertex 16.1184 -161.389 12.3539
      vertex 14.7628 -157.52 12.2815
      vertex 14.0906 -161.58 10.9276
    endloop
  endfacet
  facet normal -0.554596 -0.179159 0.812604
    outer loop
      vertex 14.0906 -161.58 10.9276
      vertex 14.7628 -157.52 12.2815
      vertex 13.6507 -157.52 11.5225
    endloop
  endfacet
  facet normal -0.524227 -0.32165 0.788497
    outer loop
      vertex 17.0556 -164.68 11.6345
      vertex 16.1184 -161.389 12.3539
      vertex 15.2081 -164.68 10.4062
    endloop
  endfacet
  facet normal -0.524294 -0.321614 0.788467
    outer loop
      vertex 14.0906 -161.58 10.9276
      vertex 15.2081 -164.68 10.4062
      vertex 16.1184 -161.389 12.3539
    endloop
  endfacet
  facet normal -0.523885 -0.321519 0.788778
    outer loop
      vertex 15.2081 -164.68 10.4062
      vertex 14.0906 -161.58 10.9276
      vertex 15.0878 -164.68 10.3263
    endloop
  endfacet
  facet normal -0.688982 -0.177613 0.702679
    outer loop
      vertex 12.7888 -157.52 10.6774
      vertex 14.0906 -161.58 10.9276
      vertex 13.6507 -157.52 11.5225
    endloop
  endfacet
  facet normal -0.688962 -0.177605 0.702701
    outer loop
      vertex 14.0906 -161.58 10.9276
      vertex 12.7888 -157.52 10.6774
      vertex 12.3401 -161.746 9.16937
    endloop
  endfacet
  facet normal -0.689028 -0.177577 0.702643
    outer loop
      vertex 12.3401 -161.746 9.16937
      vertex 12.7888 -157.52 10.6774
      vertex 11.7819 -157.52 9.69001
    endloop
  endfacet
  facet normal -0.650051 -0.340842 0.679161
    outer loop
      vertex 15.0878 -164.68 10.3263
      vertex 14.0906 -161.58 10.9276
      vertex 13.565 -164.68 8.86877
    endloop
  endfacet
  facet normal -0.65006 -0.340837 0.679156
    outer loop
      vertex 14.0906 -161.58 10.9276
      vertex 13.3785 -164.68 8.69026
      vertex 13.565 -164.68 8.86877
    endloop
  endfacet
  facet normal -0.649914 -0.340935 0.679246
    outer loop
      vertex 13.3785 -164.68 8.69026
      vertex 14.0906 -161.58 10.9276
      vertex 12.3401 -161.746 9.16937
    endloop
  endfacet
  facet normal -0.802008 -0.176247 0.570718
    outer loop
      vertex 11.1091 -157.52 8.74455
      vertex 12.3401 -161.746 9.16937
      vertex 11.7819 -157.52 9.69001
    endloop
  endfacet
  facet normal -0.802028 -0.176256 0.570688
    outer loop
      vertex 12.3401 -161.746 9.16937
      vertex 11.1091 -157.52 8.74455
      vertex 10.9202 -161.88 7.1325
    endloop
  endfacet
  facet normal -0.802035 -0.176252 0.570679
    outer loop
      vertex 10.9202 -161.88 7.1325
      vertex 11.1091 -157.52 8.74455
      vertex 10.2599 -157.52 7.55108
    endloop
  endfacet
  facet normal -0.755101 -0.357035 0.549863
    outer loop
      vertex 13.3785 -164.68 8.69026
      vertex 12.3401 -161.746 9.16937
      vertex 12.1922 -164.68 7.06117
    endloop
  endfacet
  facet normal -0.755071 -0.357027 0.549908
    outer loop
      vertex 12.1922 -164.68 7.06117
      vertex 10.9202 -161.88 7.1325
      vertex 11.9845 -164.68 6.77598
    endloop
  endfacet
  facet normal -0.755097 -0.357038 0.549866
    outer loop
      vertex 10.9202 -161.88 7.1325
      vertex 12.1922 -164.68 7.06117
      vertex 12.3401 -161.746 9.16937
    endloop
  endfacet
  facet normal -0.890049 -0.175197 0.420856
    outer loop
      vertex 9.77964 -157.52 6.5354
      vertex 10.9202 -161.88 7.1325
      vertex 10.2599 -157.52 7.55108
    endloop
  endfacet
  facet normal -0.890055 -0.175201 0.420841
    outer loop
      vertex 10.9202 -161.88 7.1325
      vertex 9.77964 -157.52 6.5354
      vertex 9.87394 -161.978 4.87892
    endloop
  endfacet
  facet normal -0.890036 -0.175213 0.420875
    outer loop
      vertex 9.87394 -161.978 4.87892
      vertex 9.77964 -157.52 6.5354
      vertex 9.13498 -157.52 5.17212
    endloop
  endfacet
  facet normal -0.836542 -0.369489 0.404567
    outer loop
      vertex 11.1381 -164.68 5.02584
      vertex 11.9845 -164.68 6.77598
      vertex 10.9202 -161.88 7.1325
    endloop
  endfacet
  facet normal -0.836603 -0.369419 0.404505
    outer loop
      vertex 11.1381 -164.68 5.02584
      vertex 9.87394 -161.978 4.87892
      vertex 10.9531 -164.68 4.64322
    endloop
  endfacet
  facet normal -0.836614 -0.369426 0.404476
    outer loop
      vertex 9.87394 -161.978 4.87892
      vertex 11.1381 -164.68 5.02584
      vertex 10.9202 -161.88 7.1325
    endloop
  endfacet
  facet normal -0.950289 -0.174482 0.257891
    outer loop
      vertex 8.84747 -157.52 4.11269
      vertex 9.87394 -161.978 4.87892
      vertex 9.13498 -157.52 5.17212
    endloop
  endfacet
  facet normal -0.950279 -0.174473 0.257931
    outer loop
      vertex 9.87394 -161.978 4.87892
      vertex 8.84747 -157.52 4.11269
      vertex 9.23322 -162.039 2.47709
    endloop
  endfacet
  facet normal -0.950291 -0.174461 0.257896
    outer loop
      vertex 9.23322 -162.039 2.47709
      vertex 8.84747 -157.52 4.11269
      vertex 8.44457 -157.52 2.62809
    endloop
  endfacet
  facet normal -0.892149 -0.377908 0.247499
    outer loop
      vertex 10.4459 -164.68 2.81494
      vertex 10.9531 -164.68 4.64322
      vertex 9.87394 -161.978 4.87892
    endloop
  endfacet
  facet normal -0.892126 -0.377985 0.247464
    outer loop
      vertex 10.4459 -164.68 2.81494
      vertex 9.23322 -162.039 2.47709
      vertex 10.3197 -164.68 2.35998
    endloop
  endfacet
  facet normal -0.892104 -0.37796 0.24758
    outer loop
      vertex 9.23322 -162.039 2.47709
      vertex 10.4459 -164.68 2.81494
      vertex 9.87394 -161.978 4.87892
    endloop
  endfacet
  facet normal -0.980892 -0.174086 0.0868656
    outer loop
      vertex 8.34894 -157.52 1.54823
      vertex 9.23322 -162.039 2.47709
      vertex 8.44457 -157.52 2.62809
    endloop
  endfacet
  facet normal -0.980893 -0.174091 0.0868436
    outer loop
      vertex 9.23322 -162.039 2.47709
      vertex 8.34894 -157.52 1.54823
      vertex 9.01746 -162.059 1.90735e-06
    endloop
  endfacet
  facet normal -0.980889 -0.174099 0.0868669
    outer loop
      vertex 9.01746 -162.059 1.90735e-06
      vertex 8.34894 -157.52 1.54823
      vertex 8.21183 -157.52 1.90735e-06
    endloop
  endfacet
  facet normal -0.920279 -0.382288 0.0833205
    outer loop
      vertex 10.1504 -164.68 0.490052
      vertex 10.3197 -164.68 2.35998
      vertex 9.23322 -162.039 2.47709
    endloop
  endfacet
  facet normal -0.920306 -0.382252 0.0831946
    outer loop
      vertex 10.1504 -164.68 0.490052
      vertex 9.01746 -162.059 1.90735e-06
      vertex 10.1061 -164.68 1.90735e-06
    endloop
  endfacet
  facet normal -0.920305 -0.382242 0.0832469
    outer loop
      vertex 9.01746 -162.059 1.90735e-06
      vertex 10.1504 -164.68 0.490052
      vertex 9.23322 -162.039 2.47709
    endloop
  endfacet
  facet normal -0.984611 -0.174759 0
    outer loop
      vertex 9.01746 -162.059 0
      vertex 8.21183 -157.52 1.90735e-06
      vertex 8.21183 -157.52 0
    endloop
  endfacet
  facet normal -0.984611 -0.174759 0
    outer loop
      vertex 8.21183 -157.52 1.90735e-06
      vertex 9.01746 -162.059 0
      vertex 9.01746 -162.059 1.90735e-06
    endloop
  endfacet
  facet normal -0.923507 -0.383581 0
    outer loop
      vertex 10.1061 -164.68 0
      vertex 9.01746 -162.059 1.90735e-06
      vertex 9.01746 -162.059 0
    endloop
  endfacet
  facet normal -0.923507 -0.383581 0
    outer loop
      vertex 9.01746 -162.059 1.90735e-06
      vertex 10.1061 -164.68 0
      vertex 10.1061 -164.68 1.90735e-06
    endloop
  endfacet
endsolid OpenSCAD_Model
