solid OpenSCAD_Model
  facet normal 1 -0 0
    outer loop
      vertex 25 -172.582 9.53749
      vertex 25 -171.84 0
      vertex 25 -171.84 10.5232
    endloop
  endfacet
  facet normal 1 -0 0
    outer loop
      vertex 25 -172.812 9.23179
      vertex 25 -171.84 0
      vertex 25 -172.582 9.53749
    endloop
  endfacet
  facet normal 1 -0 0
    outer loop
      vertex 25 -173.573 8.13255
      vertex 25 -171.84 0
      vertex 25 -172.812 9.23179
    endloop
  endfacet
  facet normal 1 -0 0
    outer loop
      vertex 25 -174.086 7.36419
      vertex 25 -171.84 0
      vertex 25 -173.573 8.13255
    endloop
  endfacet
  facet normal 1 -0 0
    outer loop
      vertex 25 -174.277 7.17841
      vertex 25 -171.84 0
      vertex 25 -174.086 7.36419
    endloop
  endfacet
  facet normal 1 -0 0
    outer loop
      vertex 25 -175.204 6.27566
      vertex 25 -171.84 0
      vertex 25 -174.277 7.17841
    endloop
  endfacet
  facet normal 1 -0 0
    outer loop
      vertex 25 -175.505 6.09947
      vertex 25 -171.84 0
      vertex 25 -175.204 6.27566
    endloop
  endfacet
  facet normal 1 0 0
    outer loop
      vertex 25 -176.331 5.52777
      vertex 25 -175.505 6.09947
      vertex 25 -176.145 5.72422
    endloop
  endfacet
  facet normal 1 0 0
    outer loop
      vertex 25 -175.505 6.09947
      vertex 25 -176.331 5.52777
      vertex 25 -171.84 0
    endloop
  endfacet
  facet normal 1 -0 0
    outer loop
      vertex 25 -176.895 4.93071
      vertex 25 -171.84 0
      vertex 25 -176.331 5.52777
    endloop
  endfacet
  facet normal 1 -0 0
    outer loop
      vertex 25 -177.006 4.78693
      vertex 25 -171.84 0
      vertex 25 -176.895 4.93071
    endloop
  endfacet
  facet normal 1 -0 0
    outer loop
      vertex 25 -177.43 4.23499
      vertex 25 -171.84 0
      vertex 25 -177.006 4.78693
    endloop
  endfacet
  facet normal 1 -0 0
    outer loop
      vertex 25 -177.998 3.48389
      vertex 25 -171.84 0
      vertex 25 -177.43 4.23499
    endloop
  endfacet
  facet normal 1 0 0
    outer loop
      vertex 25 -178.417 2.19138
      vertex 25 -177.998 3.48389
      vertex 25 -178.099 3.3508
    endloop
  endfacet
  facet normal 1 0 0
    outer loop
      vertex 25 -177.998 3.48389
      vertex 25 -178.417 2.19138
      vertex 25 -171.84 0
    endloop
  endfacet
  facet normal 1 -0 0
    outer loop
      vertex 25 -178.484 1.94876
      vertex 25 -171.84 0
      vertex 25 -178.417 2.19138
    endloop
  endfacet
  facet normal 1 -0 0
    outer loop
      vertex 25 -178.576 0.542576
      vertex 25 -171.84 0
      vertex 25 -178.484 1.94876
    endloop
  endfacet
  facet normal 1 -0 0
    outer loop
      vertex 25 -178.594 0.258162
      vertex 25 -171.84 0
      vertex 25 -178.576 0.542576
    endloop
  endfacet
  facet normal 1 -0 0
    outer loop
      vertex 25 -178.6 0.161808
      vertex 25 -171.84 0
      vertex 25 -178.594 0.258162
    endloop
  endfacet
  facet normal 1 -0 0
    outer loop
      vertex 25 -178.603 0.111026
      vertex 25 -171.84 0
      vertex 25 -178.6 0.161808
    endloop
  endfacet
  facet normal 1 -0 0
    outer loop
      vertex 25 -178.605 0.0780504
      vertex 25 -171.84 0
      vertex 25 -178.603 0.111026
    endloop
  endfacet
  facet normal 1 -0 0
    outer loop
      vertex 25 -178.605 0.0536535
      vertex 25 -171.84 0
      vertex 25 -178.605 0.0780504
    endloop
  endfacet
  facet normal 1 -0 0
    outer loop
      vertex 25 -178.606 0.0338056
      vertex 25 -171.84 0
      vertex 25 -178.605 0.0536535
    endloop
  endfacet
  facet normal 1 -0 0
    outer loop
      vertex 25 -178.606 0.0163733
      vertex 25 -171.84 0
      vertex 25 -178.606 0.0338056
    endloop
  endfacet
  facet normal 1 -0 0
    outer loop
      vertex 25 -178.606 1.90735e-06
      vertex 25 -171.84 0
      vertex 25 -178.606 0.0163733
    endloop
  endfacet
  facet normal 1 0 0
    outer loop
      vertex 25 -171.84 0
      vertex 25 -178.606 1.90735e-06
      vertex 25 -178.606 0
    endloop
  endfacet
  facet normal 0 0 -1
    outer loop
      vertex 24.9081 -178.621 0
      vertex 25 -178.606 0
      vertex 24.9082 -178.621 0
    endloop
  endfacet
  facet normal -0 0 -1
    outer loop
      vertex 25 -178.606 0
      vertex 24.9081 -178.621 0
      vertex 25 -171.84 0
    endloop
  endfacet
  facet normal 0 0 -1
    outer loop
      vertex 22.9469 -178.677 0
      vertex 25 -171.84 0
      vertex 24.9081 -178.621 0
    endloop
  endfacet
  facet normal 0 0 -1
    outer loop
      vertex 20.1524 -177.352 0
      vertex 22.9469 -178.677 0
      vertex 21.5727 -178.422 0
    endloop
  endfacet
  facet normal 0 0 -1
    outer loop
      vertex 22.9469 -178.677 0
      vertex 20.1524 -177.352 0
      vertex 25 -171.84 0
    endloop
  endfacet
  facet normal 0 0 -1
    outer loop
      vertex 20.1524 -177.352 0
      vertex 19.5371 -176.661 0
      vertex 25 -171.84 0
    endloop
  endfacet
  facet normal 0 0 -1
    outer loop
      vertex 19.5371 -176.661 0
      vertex 19.0669 -175.763 0
      vertex 25 -171.84 0
    endloop
  endfacet
  facet normal 0 0 -1
    outer loop
      vertex 19.0669 -175.763 0
      vertex 17.8083 -174.765 0
      vertex 25 -171.84 0
    endloop
  endfacet
  facet normal 0 0 -1
    outer loop
      vertex 17.8083 -174.765 0
      vertex 15.5618 -173.702 0
      vertex 25 -171.84 0
    endloop
  endfacet
  facet normal 0 0 -1
    outer loop
      vertex 12.6902 -171.84 0
      vertex 15.5618 -173.702 0
      vertex 13.1117 -172.524 0
    endloop
  endfacet
  facet normal 0 0 -1
    outer loop
      vertex 15.5618 -173.702 0
      vertex 12.6902 -171.84 0
      vertex 25 -171.84 0
    endloop
  endfacet
  facet normal 0 1 0
    outer loop
      vertex 23.9774 -171.84 10.6732
      vertex 22.2182 -171.84 10.7154
      vertex 22.4227 -171.84 10.7413
    endloop
  endfacet
  facet normal 0 1 0
    outer loop
      vertex 25 -171.84 10.5232
      vertex 23.9774 -171.84 10.6732
      vertex 24.3788 -171.84 10.6556
    endloop
  endfacet
  facet normal 0 1 0
    outer loop
      vertex 23.9774 -171.84 10.6732
      vertex 25 -171.84 10.5232
      vertex 25 -171.84 0
    endloop
  endfacet
  facet normal 0 1 0
    outer loop
      vertex 23.9774 -171.84 10.6732
      vertex 25 -171.84 0
      vertex 22.2182 -171.84 10.7154
    endloop
  endfacet
  facet normal -0 1 0
    outer loop
      vertex 20.3629 -171.84 10.4666
      vertex 22.2182 -171.84 10.7154
      vertex 25 -171.84 0
    endloop
  endfacet
  facet normal 0 1 0
    outer loop
      vertex 22.2182 -171.84 10.7154
      vertex 20.4288 -171.84 10.487
      vertex 20.4358 -171.84 10.4892
    endloop
  endfacet
  facet normal 0 1 0
    outer loop
      vertex 22.2182 -171.84 10.7154
      vertex 20.3629 -171.84 10.4666
      vertex 20.4288 -171.84 10.487
    endloop
  endfacet
  facet normal 0 1 0
    outer loop
      vertex 20.3629 -171.84 10.4666
      vertex 25 -171.84 0
      vertex 18.8045 -171.84 9.82243
    endloop
  endfacet
  facet normal -0 1 0
    outer loop
      vertex 17.2896 -171.84 8.89434
      vertex 18.8045 -171.84 9.82243
      vertex 25 -171.84 0
    endloop
  endfacet
  facet normal 0 1 0
    outer loop
      vertex 18.8045 -171.84 9.82243
      vertex 17.2896 -171.84 8.89434
      vertex 18.6172 -171.84 9.74502
    endloop
  endfacet
  facet normal -0 1 0
    outer loop
      vertex 15.9209 -171.84 7.71823
      vertex 17.2896 -171.84 8.89434
      vertex 25 -171.84 0
    endloop
  endfacet
  facet normal 0 1 0
    outer loop
      vertex 17.2896 -171.84 8.89434
      vertex 15.9209 -171.84 7.71823
      vertex 16.9536 -171.84 8.679
    endloop
  endfacet
  facet normal -0 1 0
    outer loop
      vertex 14.7416 -171.84 6.30969
      vertex 15.9209 -171.84 7.71823
      vertex 25 -171.84 0
    endloop
  endfacet
  facet normal 0 1 0
    outer loop
      vertex 15.9209 -171.84 7.71823
      vertex 14.7416 -171.84 6.30969
      vertex 15.4991 -171.84 7.32585
    endloop
  endfacet
  facet normal -0 1 0
    outer loop
      vertex 13.7962 -171.84 4.69224
      vertex 14.7416 -171.84 6.30969
      vertex 25 -171.84 0
    endloop
  endfacet
  facet normal 0 1 0
    outer loop
      vertex 14.7416 -171.84 6.30969
      vertex 13.7962 -171.84 4.69224
      vertex 14.3065 -171.84 5.72612
    endloop
  endfacet
  facet normal -0 1 0
    outer loop
      vertex 13.1286 -171.84 2.899
      vertex 13.7962 -171.84 4.69224
      vertex 25 -171.84 0
    endloop
  endfacet
  facet normal 0 1 0
    outer loop
      vertex 13.7962 -171.84 4.69224
      vertex 13.1286 -171.84 2.899
      vertex 13.4204 -171.84 3.93093
    endloop
  endfacet
  facet normal -0 1 0
    outer loop
      vertex 12.78 -171.84 0.973878
      vertex 13.1286 -171.84 2.899
      vertex 25 -171.84 0
    endloop
  endfacet
  facet normal 0 1 0
    outer loop
      vertex 13.1286 -171.84 2.899
      vertex 12.78 -171.84 0.973878
      vertex 12.8745 -171.84 2.00018
    endloop
  endfacet
  facet normal 0 1 0
    outer loop
      vertex 12.6902 -171.84 0
      vertex 12.78 -171.84 0.973878
      vertex 25 -171.84 0
    endloop
  endfacet
  facet normal 0 1 0
    outer loop
      vertex 12.78 -171.84 0.973878
      vertex 12.6902 -171.84 0
      vertex 12.6902 -171.84 1.90735e-06
    endloop
  endfacet
  facet normal 0 -1 0
    outer loop
      vertex 24.9081 -178.621 0
      vertex 24.9082 -178.621 0
      vertex 24.9081 -178.621 1.90735e-06
    endloop
  endfacet
  facet normal 0.0189412 -0.116046 0.993063
    outer loop
      vertex 24.9082 -178.621 0
      vertex 25 -178.606 1.90735e-06
      vertex 24.9081 -178.621 1.90735e-06
    endloop
  endfacet
  facet normal 0.16126 -0.986912 0
    outer loop
      vertex 25 -178.606 1.90735e-06
      vertex 24.9082 -178.621 0
      vertex 25 -178.606 0
    endloop
  endfacet
  facet normal 0.161089 -0.98694 0
    outer loop
      vertex 25 -178.606 1.90735e-06
      vertex 25 -178.606 0.0163733
      vertex 24.9081 -178.621 1.90735e-06
    endloop
  endfacet
  facet normal 0.161089 -0.98694 0
    outer loop
      vertex 25 -178.606 0.0163733
      vertex 25 -178.606 0.0338056
      vertex 24.9081 -178.621 1.90735e-06
    endloop
  endfacet
  facet normal 0.14302 -0.988466 0.049802
    outer loop
      vertex 25 -178.606 0.0338056
      vertex 25 -178.605 0.0536535
      vertex 24.9081 -178.621 1.90735e-06
    endloop
  endfacet
  facet normal 0.171522 -0.98518 0
    outer loop
      vertex 25 -178.605 0.0536535
      vertex 25 -178.605 0.0780504
      vertex 24.9081 -178.621 1.90735e-06
    endloop
  endfacet
  facet normal 0.121462 -0.990775 0.0600914
    outer loop
      vertex 25 -178.605 0.0780504
      vertex 25 -178.603 0.111026
      vertex 24.9081 -178.621 1.90735e-06
    endloop
  endfacet
  facet normal 0.12333 -0.990639 0.058523
    outer loop
      vertex 25 -178.603 0.111026
      vertex 25 -178.6 0.161808
      vertex 24.9081 -178.621 1.90735e-06
    endloop
  endfacet
  facet normal 0.117815 -0.991116 0.0617172
    outer loop
      vertex 25 -178.6 0.161808
      vertex 25 -178.594 0.258162
      vertex 24.9081 -178.621 1.90735e-06
    endloop
  endfacet
  facet normal 0.115013 -0.991381 0.0627425
    outer loop
      vertex 25 -178.594 0.258162
      vertex 25 -178.576 0.542576
      vertex 24.9081 -178.621 1.90735e-06
    endloop
  endfacet
  facet normal 0.125616 -0.79276 0.59645
    outer loop
      vertex 25 -172.812 9.23179
      vertex 25 -172.582 9.53749
      vertex 24.7726 -172.833 9.25177
    endloop
  endfacet
  facet normal 0.127142 -0.792458 0.596528
    outer loop
      vertex 24.3788 -171.84 10.6556
      vertex 25 -172.582 9.53749
      vertex 25 -171.84 10.5232
    endloop
  endfacet
  facet normal 0.126055 -0.792876 0.596202
    outer loop
      vertex 25 -172.582 9.53749
      vertex 24.3788 -171.84 10.6556
      vertex 24.7726 -172.833 9.25177
    endloop
  endfacet
  facet normal 0.124953 -0.815753 0.564743
    outer loop
      vertex 25 -173.573 8.13255
      vertex 25 -172.812 9.23179
      vertex 24.7726 -172.833 9.25177
    endloop
  endfacet
  facet normal 0.127918 -0.790046 0.599554
    outer loop
      vertex 25 -178.099 3.3508
      vertex 25 -177.998 3.48389
      vertex 24.916 -178.107 3.35818
    endloop
  endfacet
  facet normal 0.131175 -0.790719 0.597961
    outer loop
      vertex 25 -177.998 3.48389
      vertex 25 -177.43 4.23499
      vertex 24.916 -178.107 3.35818
    endloop
  endfacet
  facet normal 0.106307 -0.958459 0.26468
    outer loop
      vertex 25 -178.484 1.94876
      vertex 25 -178.417 2.19138
      vertex 24.8961 -178.493 1.9579
    endloop
  endfacet
  facet normal 0.11433 -0.95806 0.262772
    outer loop
      vertex 24.916 -178.107 3.35818
      vertex 25 -178.417 2.19138
      vertex 25 -178.099 3.3508
    endloop
  endfacet
  facet normal 0.110915 -0.958497 0.262642
    outer loop
      vertex 25 -178.417 2.19138
      vertex 24.916 -178.107 3.35818
      vertex 24.8961 -178.493 1.9579
    endloop
  endfacet
  facet normal 0.0917909 -0.993654 0.0650101
    outer loop
      vertex 24.8961 -178.493 1.9579
      vertex 25 -178.576 0.542576
      vertex 25 -178.484 1.94876
    endloop
  endfacet
  facet normal 0.0993519 -0.992893 0.0655205
    outer loop
      vertex 25 -178.576 0.542576
      vertex 24.8961 -178.493 1.9579
      vertex 24.9081 -178.621 1.90735e-06
    endloop
  endfacet
  facet normal 0.0255212 -0.812748 0.582057
    outer loop
      vertex 23.9774 -171.84 10.6732
      vertex 24.7726 -172.833 9.25177
      vertex 24.3788 -171.84 10.6556
    endloop
  endfacet
  facet normal 0.0255792 -0.812731 0.582077
    outer loop
      vertex 24.7726 -172.833 9.25177
      vertex 23.9774 -171.84 10.6732
      vertex 23.1732 -172.984 9.11122
    endloop
  endfacet
  facet normal 0.0254978 -0.812713 0.582106
    outer loop
      vertex 23.1732 -172.984 9.11122
      vertex 23.9774 -171.84 10.6732
      vertex 22.4227 -171.84 10.7413
    endloop
  endfacet
  facet normal 0.0293104 -0.83105 0.555425
    outer loop
      vertex 23.8779 -174.192 7.26559
      vertex 25 -173.573 8.13255
      vertex 24.7726 -172.833 9.25177
    endloop
  endfacet
  facet normal 0.0297591 -0.831302 0.555024
    outer loop
      vertex 25 -173.573 8.13255
      vertex 23.8779 -174.192 7.26559
      vertex 25 -174.086 7.36419
    endloop
  endfacet
  facet normal 0.0296673 -0.831115 0.555308
    outer loop
      vertex 23.8779 -174.192 7.26559
      vertex 24.7726 -172.833 9.25177
      vertex 23.1732 -172.984 9.11122
    endloop
  endfacet
  facet normal 0.00258495 -0.697672 0.716413
    outer loop
      vertex 25 -175.204 6.27566
      vertex 25 -174.277 7.17841
      vertex 24.2548 -175.274 6.21018
    endloop
  endfacet
  facet normal 0.00287668 -0.697241 0.716831
    outer loop
      vertex 23.8779 -174.192 7.26559
      vertex 25 -174.277 7.17841
      vertex 25 -174.086 7.36419
    endloop
  endfacet
  facet normal 0.00279904 -0.697754 0.716332
    outer loop
      vertex 25 -174.277 7.17841
      vertex 23.8779 -174.192 7.26559
      vertex 24.2548 -175.274 6.21018
    endloop
  endfacet
  facet normal -0.0276218 -0.505604 0.862323
    outer loop
      vertex 25 -176.145 5.72422
      vertex 25 -175.505 6.09947
      vertex 24.2652 -176.215 5.65964
    endloop
  endfacet
  facet normal -0.0283686 -0.504965 0.862674
    outer loop
      vertex 24.2548 -175.274 6.21018
      vertex 25 -175.505 6.09947
      vertex 25 -175.204 6.27566
    endloop
  endfacet
  facet normal -0.0283873 -0.505012 0.862646
    outer loop
      vertex 25 -175.505 6.09947
      vertex 24.2548 -175.274 6.21018
      vertex 24.2652 -176.215 5.65964
    endloop
  endfacet
  facet normal 0.00807696 -0.726923 0.686672
    outer loop
      vertex 25 -176.895 4.93071
      vertex 25 -176.331 5.52777
      vertex 24.2138 -176.969 4.86162
    endloop
  endfacet
  facet normal 0.00875078 -0.726129 0.687503
    outer loop
      vertex 24.2652 -176.215 5.65964
      vertex 25 -176.331 5.52777
      vertex 25 -176.145 5.72422
    endloop
  endfacet
  facet normal 0.00840875 -0.727115 0.686464
    outer loop
      vertex 25 -176.331 5.52777
      vertex 24.2652 -176.215 5.65964
      vertex 24.2138 -176.969 4.86162
    endloop
  endfacet
  facet normal 0.0229535 -0.79281 0.609036
    outer loop
      vertex 24.3354 -178.162 3.30716
      vertex 25 -177.43 4.23499
      vertex 25 -177.006 4.78693
    endloop
  endfacet
  facet normal 0.0214787 -0.79233 0.609714
    outer loop
      vertex 25 -177.43 4.23499
      vertex 24.3354 -178.162 3.30716
      vertex 24.916 -178.107 3.35818
    endloop
  endfacet
  facet normal 0.020798 -0.791387 0.610961
    outer loop
      vertex 24.2138 -176.969 4.86162
      vertex 25 -177.006 4.78693
      vertex 25 -176.895 4.93071
    endloop
  endfacet
  facet normal 0.0206346 -0.79235 0.609718
    outer loop
      vertex 25 -177.006 4.78693
      vertex 24.2138 -176.969 4.86162
      vertex 24.3354 -178.162 3.30716
    endloop
  endfacet
  facet normal 0.0677259 -0.962075 0.264242
    outer loop
      vertex 24.8961 -178.493 1.9579
      vertex 24.916 -178.107 3.35818
      vertex 24.5576 -178.525 1.92815
    endloop
  endfacet
  facet normal 0.0679211 -0.962075 0.264193
    outer loop
      vertex 24.5576 -178.525 1.92815
      vertex 24.916 -178.107 3.35818
      vertex 24.3354 -178.162 3.30716
    endloop
  endfacet
  facet normal 0.0882038 -0.993945 0.065521
    outer loop
      vertex 24.9081 -178.621 1.90735e-06
      vertex 24.8961 -178.493 1.9579
      vertex 24.5576 -178.525 1.92815
    endloop
  endfacet
  facet normal -0.0698241 -0.831371 0.551314
    outer loop
      vertex 22.2182 -171.84 10.7154
      vertex 23.1732 -172.984 9.11122
      vertex 22.4227 -171.84 10.7413
    endloop
  endfacet
  facet normal -0.0700776 -0.831424 0.551201
    outer loop
      vertex 23.1732 -172.984 9.11122
      vertex 22.2182 -171.84 10.7154
      vertex 21.6223 -173.13 8.69382
    endloop
  endfacet
  facet normal -0.0699488 -0.83145 0.551179
    outer loop
      vertex 21.6223 -173.13 8.69382
      vertex 22.2182 -171.84 10.7154
      vertex 20.4358 -171.84 10.4892
    endloop
  endfacet
  facet normal -0.0625534 -0.84585 0.529741
    outer loop
      vertex 23.8779 -174.192 7.26559
      vertex 23.1732 -172.984 9.11122
      vertex 22.6412 -174.309 6.93274
    endloop
  endfacet
  facet normal -0.0629663 -0.845782 0.5298
    outer loop
      vertex 22.6412 -174.309 6.93274
      vertex 23.1732 -172.984 9.11122
      vertex 21.6223 -173.13 8.69382
    endloop
  endfacet
  facet normal -0.118142 -0.714149 0.689952
    outer loop
      vertex 24.2548 -175.274 6.21018
      vertex 23.8779 -174.192 7.26559
      vertex 23.1978 -175.374 5.92568
    endloop
  endfacet
  facet normal -0.118132 -0.714153 0.68995
    outer loop
      vertex 23.1978 -175.374 5.92568
      vertex 23.8779 -174.192 7.26559
      vertex 22.6412 -174.309 6.93274
    endloop
  endfacet
  facet normal -0.181655 -0.498075 0.847893
    outer loop
      vertex 24.2652 -176.215 5.65964
      vertex 24.2548 -175.274 6.21018
      vertex 23.3018 -176.305 5.40037
    endloop
  endfacet
  facet normal -0.181011 -0.498556 0.847748
    outer loop
      vertex 23.3018 -176.305 5.40037
      vertex 24.2548 -175.274 6.21018
      vertex 23.1978 -175.374 5.92568
    endloop
  endfacet
  facet normal -0.116955 -0.71811 0.686031
    outer loop
      vertex 24.2138 -176.969 4.86162
      vertex 24.2652 -176.215 5.65964
      vertex 23.3863 -177.047 4.6389
    endloop
  endfacet
  facet normal -0.117652 -0.717724 0.686317
    outer loop
      vertex 23.3863 -177.047 4.6389
      vertex 24.2652 -176.215 5.65964
      vertex 23.3018 -176.305 5.40037
    endloop
  endfacet
  facet normal -0.0873586 -0.793555 0.602195
    outer loop
      vertex 24.3354 -178.162 3.30716
      vertex 24.2138 -176.969 4.86162
      vertex 23.7725 -178.215 3.15566
    endloop
  endfacet
  facet normal -0.0872752 -0.793571 0.602186
    outer loop
      vertex 23.7725 -178.215 3.15566
      vertex 24.2138 -176.969 4.86162
      vertex 23.3863 -177.047 4.6389
    endloop
  endfacet
  facet normal 0.0218579 -0.965953 0.257792
    outer loop
      vertex 24.5576 -178.525 1.92815
      vertex 24.3354 -178.162 3.30716
      vertex 24.2294 -178.556 1.83982
    endloop
  endfacet
  facet normal 0.0215612 -0.965954 0.257814
    outer loop
      vertex 24.2294 -178.556 1.83982
      vertex 24.3354 -178.162 3.30716
      vertex 23.7725 -178.215 3.15566
    endloop
  endfacet
  facet normal 0.076889 -0.995014 0.0635174
    outer loop
      vertex 24.9081 -178.621 1.90735e-06
      vertex 24.5576 -178.525 1.92815
      vertex 24.2294 -178.556 1.83982
    endloop
  endfacet
  facet normal -0.336058 -0.475487 0.813005
    outer loop
      vertex 20.3629 -171.84 10.4666
      vertex 18.8045 -171.84 9.82243
      vertex 18.6728 -171.999 9.675
    endloop
  endfacet
  facet normal -0.336009 -0.475526 0.813003
    outer loop
      vertex 18.6728 -171.999 9.675
      vertex 18.8045 -171.84 9.82243
      vertex 18.6172 -171.84 9.74502
    endloop
  endfacet
  facet normal -0.158658 -0.848519 0.504819
    outer loop
      vertex 20.4288 -171.84 10.487
      vertex 21.6223 -173.13 8.69382
      vertex 20.4358 -171.84 10.4892
    endloop
  endfacet
  facet normal -0.156558 -0.84821 0.505994
    outer loop
      vertex 21.6223 -173.13 8.69382
      vertex 20.4288 -171.84 10.487
      vertex 20.1672 -173.268 8.01227
    endloop
  endfacet
  facet normal -0.157203 -0.848097 0.505982
    outer loop
      vertex 20.1672 -173.268 8.01227
      vertex 20.3629 -171.84 10.4666
      vertex 18.6728 -171.999 9.675
    endloop
  endfacet
  facet normal -0.156636 -0.848195 0.505994
    outer loop
      vertex 20.3629 -171.84 10.4666
      vertex 20.1672 -173.268 8.01227
      vertex 20.4288 -171.84 10.487
    endloop
  endfacet
  facet normal -0.148492 -0.859331 0.489388
    outer loop
      vertex 22.6412 -174.309 6.93274
      vertex 21.6223 -173.13 8.69382
      vertex 21.4808 -174.418 6.38925
    endloop
  endfacet
  facet normal -0.147723 -0.859452 0.489409
    outer loop
      vertex 21.4808 -174.418 6.38925
      vertex 21.6223 -173.13 8.69382
      vertex 20.1672 -173.268 8.01227
    endloop
  endfacet
  facet normal -0.232746 -0.729651 0.642992
    outer loop
      vertex 23.1978 -175.374 5.92568
      vertex 22.6412 -174.309 6.93274
      vertex 22.206 -175.467 5.46114
    endloop
  endfacet
  facet normal -0.23261 -0.729698 0.642988
    outer loop
      vertex 22.206 -175.467 5.46114
      vertex 22.6412 -174.309 6.93274
      vertex 21.4808 -174.418 6.38925
    endloop
  endfacet
  facet normal -0.330589 -0.491526 0.805676
    outer loop
      vertex 23.3018 -176.305 5.40037
      vertex 23.1978 -175.374 5.92568
      vertex 22.3979 -176.391 4.97701
    endloop
  endfacet
  facet normal -0.331341 -0.490965 0.805708
    outer loop
      vertex 22.3979 -176.391 4.97701
      vertex 23.1978 -175.374 5.92568
      vertex 22.206 -175.467 5.46114
    endloop
  endfacet
  facet normal -0.243857 -0.70797 0.662807
    outer loop
      vertex 23.3863 -177.047 4.6389
      vertex 23.3018 -176.305 5.40037
      vertex 22.6098 -177.12 4.27524
    endloop
  endfacet
  facet normal -0.242939 -0.708472 0.662607
    outer loop
      vertex 22.6098 -177.12 4.27524
      vertex 23.3018 -176.305 5.40037
      vertex 22.3979 -176.391 4.97701
    endloop
  endfacet
  facet normal -0.194178 -0.794638 0.575191
    outer loop
      vertex 23.7725 -178.215 3.15566
      vertex 23.3863 -177.047 4.6389
      vertex 23.2443 -178.265 2.90827
    endloop
  endfacet
  facet normal -0.194671 -0.794539 0.575162
    outer loop
      vertex 23.2443 -178.265 2.90827
      vertex 23.3863 -177.047 4.6389
      vertex 22.6098 -177.12 4.27524
    endloop
  endfacet
  facet normal -0.0226912 -0.969659 0.243408
    outer loop
      vertex 23.9215 -178.585 1.69559
      vertex 24.2294 -178.556 1.83982
      vertex 23.7725 -178.215 3.15566
    endloop
  endfacet
  facet normal -0.0222363 -0.969657 0.243454
    outer loop
      vertex 23.9215 -178.585 1.69559
      vertex 23.7725 -178.215 3.15566
      vertex 23.2443 -178.265 2.90827
    endloop
  endfacet
  facet normal 0.0659362 -0.996047 0.0595135
    outer loop
      vertex 24.9081 -178.621 1.90735e-06
      vertex 24.2294 -178.556 1.83982
      vertex 23.9215 -178.585 1.69559
    endloop
  endfacet
  facet normal -0.470837 -0.488236 0.734805
    outer loop
      vertex 17.2896 -171.84 8.89434
      vertex 18.6728 -171.999 9.675
      vertex 18.6172 -171.84 9.74502
    endloop
  endfacet
  facet normal -0.470932 -0.487739 0.735074
    outer loop
      vertex 18.6728 -171.999 9.675
      vertex 17.2896 -171.84 8.89434
      vertex 17.0847 -172.149 8.55804
    endloop
  endfacet
  facet normal -0.471092 -0.487613 0.735055
    outer loop
      vertex 17.0847 -172.149 8.55804
      vertex 17.2896 -171.84 8.89434
      vertex 16.9536 -171.84 8.679
    endloop
  endfacet
  facet normal -0.233909 -0.862768 0.448238
    outer loop
      vertex 18.852 -173.392 7.08727
      vertex 20.1672 -173.268 8.01227
      vertex 18.6728 -171.999 9.675
    endloop
  endfacet
  facet normal -0.233782 -0.862792 0.44826
    outer loop
      vertex 18.852 -173.392 7.08727
      vertex 18.6728 -171.999 9.675
      vertex 17.0847 -172.149 8.55804
    endloop
  endfacet
  facet normal -0.224349 -0.871552 0.435965
    outer loop
      vertex 20.432 -174.517 5.65162
      vertex 21.4808 -174.418 6.38925
      vertex 20.1672 -173.268 8.01227
    endloop
  endfacet
  facet normal -0.224438 -0.871537 0.435947
    outer loop
      vertex 20.432 -174.517 5.65162
      vertex 20.1672 -173.268 8.01227
      vertex 18.852 -173.392 7.08727
    endloop
  endfacet
  facet normal -0.33598 -0.743662 0.578
    outer loop
      vertex 22.206 -175.467 5.46114
      vertex 21.4808 -174.418 6.38925
      vertex 21.3095 -175.552 4.83066
    endloop
  endfacet
  facet normal -0.336295 -0.743554 0.577956
    outer loop
      vertex 21.3095 -175.552 4.83066
      vertex 21.4808 -174.418 6.38925
      vertex 20.432 -174.517 5.65162
    endloop
  endfacet
  facet normal -0.472448 -0.484035 0.736548
    outer loop
      vertex 22.3979 -176.391 4.97701
      vertex 22.206 -175.467 5.46114
      vertex 21.581 -176.468 4.40242
    endloop
  endfacet
  facet normal -0.472106 -0.484297 0.736595
    outer loop
      vertex 21.581 -176.468 4.40242
      vertex 22.206 -175.467 5.46114
      vertex 21.3095 -175.552 4.83066
    endloop
  endfacet
  facet normal -0.365929 -0.698437 0.615045
    outer loop
      vertex 22.6098 -177.12 4.27524
      vertex 22.3979 -176.391 4.97701
      vertex 21.9081 -177.187 3.78167
    endloop
  endfacet
  facet normal -0.366849 -0.697924 0.61508
    outer loop
      vertex 21.9081 -177.187 3.78167
      vertex 22.3979 -176.391 4.97701
      vertex 21.581 -176.468 4.40242
    endloop
  endfacet
  facet normal -0.296718 -0.795387 0.528505
    outer loop
      vertex 22.7669 -178.31 2.57252
      vertex 23.2443 -178.265 2.90827
      vertex 22.6098 -177.12 4.27524
    endloop
  endfacet
  facet normal -0.29592 -0.795557 0.528697
    outer loop
      vertex 22.7669 -178.31 2.57252
      vertex 22.6098 -177.12 4.27524
      vertex 21.9081 -177.187 3.78167
    endloop
  endfacet
  facet normal -0.061874 -0.973034 0.22221
    outer loop
      vertex 23.6431 -178.612 1.49984
      vertex 23.9215 -178.585 1.69559
      vertex 23.2443 -178.265 2.90827
    endloop
  endfacet
  facet normal -0.0641132 -0.973033 0.221576
    outer loop
      vertex 23.6431 -178.612 1.49984
      vertex 23.2443 -178.265 2.90827
      vertex 22.7669 -178.31 2.57252
    endloop
  endfacet
  facet normal 0.0580445 -0.996801 0.0549376
    outer loop
      vertex 24.9081 -178.621 1.90735e-06
      vertex 23.9215 -178.585 1.69559
      vertex 23.6431 -178.612 1.49984
    endloop
  endfacet
  facet normal -0.590341 -0.498859 0.634538
    outer loop
      vertex 15.9209 -171.84 7.71823
      vertex 17.0847 -172.149 8.55804
      vertex 16.9536 -171.84 8.679
    endloop
  endfacet
  facet normal -0.590438 -0.498317 0.634872
    outer loop
      vertex 17.0847 -172.149 8.55804
      vertex 15.9209 -171.84 7.71823
      vertex 15.7138 -172.279 7.18105
    endloop
  endfacet
  facet normal -0.590559 -0.498218 0.634838
    outer loop
      vertex 15.7138 -172.279 7.18105
      vertex 15.9209 -171.84 7.71823
      vertex 15.4991 -171.84 7.32585
    endloop
  endfacet
  facet normal -0.299267 -0.875208 0.380066
    outer loop
      vertex 17.7167 -173.499 5.94693
      vertex 18.852 -173.392 7.08727
      vertex 17.0847 -172.149 8.55804
    endloop
  endfacet
  facet normal -0.298884 -0.875282 0.380197
    outer loop
      vertex 17.7167 -173.499 5.94693
      vertex 17.0847 -172.149 8.55804
      vertex 15.7138 -172.279 7.18105
    endloop
  endfacet
  facet normal -0.290354 -0.881865 0.371496
    outer loop
      vertex 19.5267 -174.602 4.74228
      vertex 20.432 -174.517 5.65162
      vertex 18.852 -173.392 7.08727
    endloop
  endfacet
  facet normal -0.290117 -0.881905 0.371585
    outer loop
      vertex 19.5267 -174.602 4.74228
      vertex 18.852 -173.392 7.08727
      vertex 17.7167 -173.499 5.94693
    endloop
  endfacet
  facet normal -0.427175 -0.755806 0.496265
    outer loop
      vertex 20.5357 -175.625 4.05341
      vertex 21.3095 -175.552 4.83066
      vertex 20.432 -174.517 5.65162
    endloop
  endfacet
  facet normal -0.427441 -0.755711 0.496181
    outer loop
      vertex 20.5357 -175.625 4.05341
      vertex 20.432 -174.517 5.65162
      vertex 19.5267 -174.602 4.74228
    endloop
  endfacet
  facet normal -0.599837 -0.477827 0.641776
    outer loop
      vertex 21.581 -176.468 4.40242
      vertex 21.3095 -175.552 4.83066
      vertex 20.8757 -176.534 3.69407
    endloop
  endfacet
  facet normal -0.599615 -0.47801 0.641848
    outer loop
      vertex 20.8757 -176.534 3.69407
      vertex 21.3095 -175.552 4.83066
      vertex 20.5357 -175.625 4.05341
    endloop
  endfacet
  facet normal -0.48105 -0.687983 0.543388
    outer loop
      vertex 21.9081 -177.187 3.78167
      vertex 21.581 -176.468 4.40242
      vertex 21.3023 -177.244 3.1732
    endloop
  endfacet
  facet normal -0.481333 -0.687817 0.543347
    outer loop
      vertex 21.3023 -177.244 3.1732
      vertex 21.581 -176.468 4.40242
      vertex 20.8757 -176.534 3.69407
    endloop
  endfacet
  facet normal -0.389541 -0.796257 0.462853
    outer loop
      vertex 22.3548 -178.349 2.1586
      vertex 22.7669 -178.31 2.57252
      vertex 21.9081 -177.187 3.78167
    endloop
  endfacet
  facet normal -0.389845 -0.796186 0.462719
    outer loop
      vertex 22.3548 -178.349 2.1586
      vertex 21.9081 -177.187 3.78167
      vertex 21.3023 -177.244 3.1732
    endloop
  endfacet
  facet normal -0.102556 -0.976205 0.191068
    outer loop
      vertex 23.4029 -178.634 1.25851
      vertex 23.6431 -178.612 1.49984
      vertex 22.7669 -178.31 2.57252
    endloop
  endfacet
  facet normal -0.100519 -0.976222 0.192058
    outer loop
      vertex 23.4029 -178.634 1.25851
      vertex 22.7669 -178.31 2.57252
      vertex 22.3548 -178.349 2.1586
    endloop
  endfacet
  facet normal 0.0462183 -0.997919 0.0449698
    outer loop
      vertex 24.9081 -178.621 1.90735e-06
      vertex 23.6431 -178.612 1.49984
      vertex 23.4029 -178.634 1.25851
    endloop
  endfacet
  facet normal -0.690749 -0.507664 0.514921
    outer loop
      vertex 14.7416 -171.84 6.30969
      vertex 15.7138 -172.279 7.18105
      vertex 15.4991 -171.84 7.32585
    endloop
  endfacet
  facet normal -0.690658 -0.508128 0.514586
    outer loop
      vertex 15.7138 -172.279 7.18105
      vertex 14.7416 -171.84 6.30969
      vertex 14.6018 -172.383 5.58587
    endloop
  endfacet
  facet normal -0.690364 -0.508387 0.514724
    outer loop
      vertex 14.6018 -172.383 5.58587
      vertex 14.7416 -171.84 6.30969
      vertex 14.3065 -171.84 5.72612
    endloop
  endfacet
  facet normal -0.352094 -0.885306 0.303749
    outer loop
      vertex 16.7958 -173.586 4.62589
      vertex 17.7167 -173.499 5.94693
      vertex 15.7138 -172.279 7.18105
    endloop
  endfacet
  facet normal -0.352576 -0.885202 0.303493
    outer loop
      vertex 16.7958 -173.586 4.62589
      vertex 15.7138 -172.279 7.18105
      vertex 14.6018 -172.383 5.58587
    endloop
  endfacet
  facet normal -0.343693 -0.89029 0.298763
    outer loop
      vertex 18.7923 -174.672 3.68884
      vertex 19.5267 -174.602 4.74228
      vertex 17.7167 -173.499 5.94693
    endloop
  endfacet
  facet normal -0.344123 -0.890207 0.298515
    outer loop
      vertex 18.7923 -174.672 3.68884
      vertex 17.7167 -173.499 5.94693
      vertex 16.7958 -173.586 4.62589
    endloop
  endfacet
  facet normal -0.502874 -0.765847 0.400745
    outer loop
      vertex 19.908 -175.684 3.15299
      vertex 20.5357 -175.625 4.05341
      vertex 19.5267 -174.602 4.74228
    endloop
  endfacet
  facet normal -0.502262 -0.766086 0.401055
    outer loop
      vertex 19.908 -175.684 3.15299
      vertex 19.5267 -174.602 4.74228
      vertex 18.7923 -174.672 3.68884
    endloop
  endfacet
  facet normal -0.708202 -0.472331 0.524741
    outer loop
      vertex 20.8757 -176.534 3.69407
      vertex 20.5357 -175.625 4.05341
      vertex 20.3037 -176.588 2.87348
    endloop
  endfacet
  facet normal -0.708279 -0.472262 0.5247
    outer loop
      vertex 20.3037 -176.588 2.87348
      vertex 20.5357 -175.625 4.05341
      vertex 19.908 -175.684 3.15299
    endloop
  endfacet
  facet normal -0.580965 -0.678684 0.449298
    outer loop
      vertex 21.3023 -177.244 3.1732
      vertex 20.8757 -176.534 3.69407
      vertex 20.8109 -177.29 2.46831
    endloop
  endfacet
  facet normal -0.580632 -0.678894 0.44941
    outer loop
      vertex 20.8109 -177.29 2.46831
      vertex 20.8757 -176.534 3.69407
      vertex 20.3037 -176.588 2.87348
    endloop
  endfacet
  facet normal -0.470554 -0.796612 0.379458
    outer loop
      vertex 22.0206 -178.38 1.67909
      vertex 22.3548 -178.349 2.1586
      vertex 21.3023 -177.244 3.1732
    endloop
  endfacet
  facet normal -0.470139 -0.796722 0.379741
    outer loop
      vertex 22.0206 -178.38 1.67909
      vertex 21.3023 -177.244 3.1732
      vertex 20.8109 -177.29 2.46831
    endloop
  endfacet
  facet normal -0.130747 -0.978797 0.157675
    outer loop
      vertex 23.208 -178.653 0.978949
      vertex 23.4029 -178.634 1.25851
      vertex 22.3548 -178.349 2.1586
    endloop
  endfacet
  facet normal -0.133044 -0.978756 0.156002
    outer loop
      vertex 23.208 -178.653 0.978949
      vertex 22.3548 -178.349 2.1586
      vertex 22.0206 -178.38 1.67909
    endloop
  endfacet
  facet normal 0.0412885 -0.998383 0.0390689
    outer loop
      vertex 24.9081 -178.621 1.90735e-06
      vertex 23.4029 -178.634 1.25851
      vertex 23.208 -178.653 0.978949
    endloop
  endfacet
  facet normal -0.768258 -0.515743 0.379195
    outer loop
      vertex 13.7962 -171.84 4.69224
      vertex 14.6018 -172.383 5.58587
      vertex 14.3065 -171.84 5.72612
    endloop
  endfacet
  facet normal -0.768352 -0.515377 0.379502
    outer loop
      vertex 14.6018 -172.383 5.58587
      vertex 13.7962 -171.84 4.69224
      vertex 13.7824 -172.461 3.82096
    endloop
  endfacet
  facet normal -0.768543 -0.515188 0.379371
    outer loop
      vertex 13.7824 -172.461 3.82096
      vertex 13.7962 -171.84 4.69224
      vertex 13.4204 -171.84 3.93093
    endloop
  endfacet
  facet normal -0.392604 -0.892669 0.221368
    outer loop
      vertex 16.1172 -173.65 3.16429
      vertex 16.7958 -173.586 4.62589
      vertex 14.6018 -172.383 5.58587
    endloop
  endfacet
  facet normal -0.392307 -0.892744 0.221592
    outer loop
      vertex 16.1172 -173.65 3.16429
      vertex 14.6018 -172.383 5.58587
      vertex 13.7824 -172.461 3.82096
    endloop
  endfacet
  facet normal -0.385341 -0.896622 0.218129
    outer loop
      vertex 18.2512 -174.723 2.52331
      vertex 18.7923 -174.672 3.68884
      vertex 16.7958 -173.586 4.62589
    endloop
  endfacet
  facet normal -0.38531 -0.89663 0.218155
    outer loop
      vertex 18.2512 -174.723 2.52331
      vertex 16.7958 -173.586 4.62589
      vertex 16.1172 -173.65 3.16429
    endloop
  endfacet
  facet normal -0.560608 -0.773963 0.294449
    outer loop
      vertex 19.4455 -175.728 2.15677
      vertex 19.908 -175.684 3.15299
      vertex 18.7923 -174.672 3.68884
    endloop
  endfacet
  facet normal -0.560879 -0.773842 0.29425
    outer loop
      vertex 19.4455 -175.728 2.15677
      vertex 18.7923 -174.672 3.68884
      vertex 18.2512 -174.723 2.52331
    endloop
  endfacet
  facet normal -0.793655 -0.467696 0.389066
    outer loop
      vertex 20.3037 -176.588 2.87348
      vertex 19.908 -175.684 3.15299
      vertex 19.8822 -176.628 1.96558
    endloop
  endfacet
  facet normal -0.793615 -0.467737 0.389098
    outer loop
      vertex 19.8822 -176.628 1.96558
      vertex 19.908 -175.684 3.15299
      vertex 19.4455 -175.728 2.15677
    endloop
  endfacet
  facet normal -0.660671 -0.671274 0.336012
    outer loop
      vertex 20.4488 -177.324 1.68842
      vertex 20.8109 -177.29 2.46831
      vertex 20.3037 -176.588 2.87348
    endloop
  endfacet
  facet normal -0.660384 -0.671476 0.336173
    outer loop
      vertex 20.4488 -177.324 1.68842
      vertex 20.3037 -176.588 2.87348
      vertex 19.8822 -176.628 1.96558
    endloop
  endfacet
  facet normal -0.533886 -0.796999 0.282415
    outer loop
      vertex 21.7743 -178.403 1.14857
      vertex 22.0206 -178.38 1.67909
      vertex 20.8109 -177.29 2.46831
    endloop
  endfacet
  facet normal -0.533739 -0.797046 0.282561
    outer loop
      vertex 21.7743 -178.403 1.14857
      vertex 20.8109 -177.29 2.46831
      vertex 20.4488 -177.324 1.68842
    endloop
  endfacet
  facet normal -0.157951 -0.98078 0.114552
    outer loop
      vertex 23.0644 -178.666 0.669641
      vertex 23.208 -178.653 0.978949
      vertex 22.0206 -178.38 1.67909
    endloop
  endfacet
  facet normal -0.157089 -0.980813 0.115452
    outer loop
      vertex 23.0644 -178.666 0.669641
      vertex 22.0206 -178.38 1.67909
      vertex 21.7743 -178.403 1.14857
    endloop
  endfacet
  facet normal 0.033917 -0.99908 0.0262443
    outer loop
      vertex 24.9081 -178.621 1.90735e-06
      vertex 23.208 -178.653 0.978949
      vertex 23.0644 -178.666 0.669641
    endloop
  endfacet
  facet normal -0.821813 -0.520212 0.232385
    outer loop
      vertex 13.1286 -171.84 2.899
      vertex 13.7824 -172.461 3.82096
      vertex 13.4204 -171.84 3.93093
    endloop
  endfacet
  facet normal -0.821749 -0.520386 0.232222
    outer loop
      vertex 13.7824 -172.461 3.82096
      vertex 13.1286 -171.84 2.899
      vertex 13.2806 -172.508 1.93995
    endloop
  endfacet
  facet normal -0.821676 -0.52047 0.232291
    outer loop
      vertex 13.2806 -172.508 1.93995
      vertex 13.1286 -171.84 2.899
      vertex 12.8745 -171.84 2.00018
    endloop
  endfacet
  facet normal -0.419418 -0.897797 0.13435
    outer loop
      vertex 15.7017 -173.689 1.60655
      vertex 16.1172 -173.65 3.16429
      vertex 13.7824 -172.461 3.82096
    endloop
  endfacet
  facet normal -0.41944 -0.89779 0.134327
    outer loop
      vertex 15.7017 -173.689 1.60655
      vertex 13.7824 -172.461 3.82096
      vertex 13.2806 -172.508 1.93995
    endloop
  endfacet
  facet normal -0.413154 -0.900944 0.132675
    outer loop
      vertex 17.9199 -174.754 1.28112
      vertex 18.2512 -174.723 2.52331
      vertex 16.1172 -173.65 3.16429
    endloop
  endfacet
  facet normal -0.413094 -0.900962 0.132742
    outer loop
      vertex 17.9199 -174.754 1.28112
      vertex 16.1172 -173.65 3.16429
      vertex 15.7017 -173.689 1.60655
    endloop
  endfacet
  facet normal -0.600637 -0.779161 0.179288
    outer loop
      vertex 19.1623 -175.754 1.09502
      vertex 19.4455 -175.728 2.15677
      vertex 18.2512 -174.723 2.52331
    endloop
  endfacet
  facet normal -0.600362 -0.779308 0.179569
    outer loop
      vertex 19.1623 -175.754 1.09502
      vertex 18.2512 -174.723 2.52331
      vertex 17.9199 -174.754 1.28112
    endloop
  endfacet
  facet normal -0.852711 -0.464519 0.238969
    outer loop
      vertex 19.6241 -176.652 0.99795
      vertex 19.8822 -176.628 1.96558
      vertex 19.4455 -175.728 2.15677
    endloop
  endfacet
  facet normal -0.85282 -0.464384 0.238844
    outer loop
      vertex 19.6241 -176.652 0.99795
      vertex 19.4455 -175.728 2.15677
      vertex 19.1623 -175.754 1.09502
    endloop
  endfacet
  facet normal -0.716395 -0.665997 0.207909
    outer loop
      vertex 20.2271 -177.345 0.857237
      vertex 20.4488 -177.324 1.68842
      vertex 19.8822 -176.628 1.96558
    endloop
  endfacet
  facet normal -0.716675 -0.665769 0.207675
    outer loop
      vertex 20.2271 -177.345 0.857237
      vertex 19.8822 -176.628 1.96558
      vertex 19.6241 -176.652 0.99795
    endloop
  endfacet
  facet normal -0.577607 -0.79727 0.175301
    outer loop
      vertex 21.6234 -178.418 0.583143
      vertex 21.7743 -178.403 1.14857
      vertex 20.4488 -177.324 1.68842
    endloop
  endfacet
  facet normal -0.578243 -0.797013 0.174371
    outer loop
      vertex 21.6234 -178.418 0.583143
      vertex 20.4488 -177.324 1.68842
      vertex 20.2271 -177.345 0.857237
    endloop
  endfacet
  facet normal -0.173137 -0.98219 0.0729808
    outer loop
      vertex 22.9765 -178.675 0.339987
      vertex 23.0644 -178.666 0.669641
      vertex 21.7743 -178.403 1.14857
    endloop
  endfacet
  facet normal -0.173541 -0.982164 0.0723698
    outer loop
      vertex 22.9765 -178.675 0.339987
      vertex 21.7743 -178.403 1.14857
      vertex 21.6234 -178.418 0.583143
    endloop
  endfacet
  facet normal 0.0312719 -0.999331 0.0189447
    outer loop
      vertex 24.9081 -178.621 1.90735e-06
      vertex 23.0644 -178.666 0.669641
      vertex 22.9765 -178.675 0.339987
    endloop
  endfacet
  facet normal -0.848731 -0.523019 0.0781496
    outer loop
      vertex 12.78 -171.84 0.973878
      vertex 13.2806 -172.508 1.93995
      vertex 12.8745 -171.84 2.00018
    endloop
  endfacet
  facet normal -0.848764 -0.522956 0.0782101
    outer loop
      vertex 13.2806 -172.508 1.93995
      vertex 12.78 -171.84 0.973878
      vertex 13.1117 -172.524 1.90735e-06
    endloop
  endfacet
  facet normal -0.848727 -0.523009 0.0782601
    outer loop
      vertex 13.1117 -172.524 1.90735e-06
      vertex 12.78 -171.84 0.973878
      vertex 12.6902 -171.84 1.90735e-06
    endloop
  endfacet
  facet normal -0.432961 -0.900289 0.0449878
    outer loop
      vertex 15.5618 -173.702 1.90735e-06
      vertex 15.7017 -173.689 1.60655
      vertex 13.2806 -172.508 1.93995
    endloop
  endfacet
  facet normal -0.432873 -0.900325 0.0451133
    outer loop
      vertex 15.5618 -173.702 1.90735e-06
      vertex 13.2806 -172.508 1.93995
      vertex 13.1117 -172.524 1.90735e-06
    endloop
  endfacet
  facet normal -0.427014 -0.903127 0.0449522
    outer loop
      vertex 17.8083 -174.765 1.90735e-06
      vertex 17.9199 -174.754 1.28112
      vertex 15.7017 -173.689 1.60655
    endloop
  endfacet
  facet normal -0.42729 -0.903018 0.044516
    outer loop
      vertex 17.8083 -174.765 1.90735e-06
      vertex 15.7017 -173.689 1.60655
      vertex 15.5618 -173.702 1.90735e-06
    endloop
  endfacet
  facet normal -0.620357 -0.781985 0.0604738
    outer loop
      vertex 19.0669 -175.763 1.90735e-06
      vertex 19.1623 -175.754 1.09502
      vertex 17.9199 -174.754 1.28112
    endloop
  endfacet
  facet normal -0.620171 -0.782112 0.0607394
    outer loop
      vertex 19.0669 -175.763 1.90735e-06
      vertex 17.9199 -174.754 1.28112
      vertex 17.8083 -174.765 1.90735e-06
    endloop
  endfacet
  facet normal -0.882774 -0.46274 0.0811324
    outer loop
      vertex 19.5371 -176.661 1.90735e-06
      vertex 19.6241 -176.652 0.99795
      vertex 19.1623 -175.754 1.09502
    endloop
  endfacet
  facet normal -0.883013 -0.462353 0.0807299
    outer loop
      vertex 19.5371 -176.661 1.90735e-06
      vertex 19.1623 -175.754 1.09502
      vertex 19.0669 -175.763 1.90735e-06
    endloop
  endfacet
  facet normal -0.745405 -0.662887 0.0703681
    outer loop
      vertex 20.1524 -177.352 1.90735e-06
      vertex 20.2271 -177.345 0.857237
      vertex 19.6241 -176.652 0.99795
    endloop
  endfacet
  facet normal -0.74495 -0.66334 0.0709262
    outer loop
      vertex 20.1524 -177.352 1.90735e-06
      vertex 19.6241 -176.652 0.99795
      vertex 19.5371 -176.661 1.90735e-06
    endloop
  endfacet
  facet normal -0.60116 -0.79704 0.0577338
    outer loop
      vertex 21.5727 -178.422 1.90735e-06
      vertex 21.6234 -178.418 0.583143
      vertex 20.2271 -177.345 0.857237
    endloop
  endfacet
  facet normal -0.600674 -0.797325 0.0588539
    outer loop
      vertex 21.5727 -178.422 1.90735e-06
      vertex 20.2271 -177.345 0.857237
      vertex 20.1524 -177.352 1.90735e-06
    endloop
  endfacet
  facet normal -0.18279 -0.982913 0.0216963
    outer loop
      vertex 22.9469 -178.677 1.90735e-06
      vertex 22.9765 -178.675 0.339987
      vertex 21.6234 -178.418 0.583143
    endloop
  endfacet
  facet normal -0.182401 -0.982964 0.0226011
    outer loop
      vertex 22.9469 -178.677 1.90735e-06
      vertex 21.6234 -178.418 0.583143
      vertex 21.5727 -178.422 1.90735e-06
    endloop
  endfacet
  facet normal 0.0285421 -0.999587 0.00339523
    outer loop
      vertex 24.9081 -178.621 1.90735e-06
      vertex 22.9765 -178.675 0.339987
      vertex 22.9469 -178.677 1.90735e-06
    endloop
  endfacet
  facet normal -0.851338 -0.524618 0
    outer loop
      vertex 13.1117 -172.524 0
      vertex 12.6902 -171.84 1.90735e-06
      vertex 12.6902 -171.84 0
    endloop
  endfacet
  facet normal -0.851338 -0.524618 0
    outer loop
      vertex 12.6902 -171.84 1.90735e-06
      vertex 13.1117 -172.524 0
      vertex 13.1117 -172.524 1.90735e-06
    endloop
  endfacet
  facet normal -0.433315 -0.901243 0
    outer loop
      vertex 13.1117 -172.524 0
      vertex 15.5618 -173.702 1.90735e-06
      vertex 13.1117 -172.524 1.90735e-06
    endloop
  endfacet
  facet normal -0.433315 -0.901243 -0
    outer loop
      vertex 15.5618 -173.702 1.90735e-06
      vertex 13.1117 -172.524 0
      vertex 15.5618 -173.702 0
    endloop
  endfacet
  facet normal -0.427714 -0.903914 0
    outer loop
      vertex 15.5618 -173.702 0
      vertex 17.8083 -174.765 1.90735e-06
      vertex 15.5618 -173.702 1.90735e-06
    endloop
  endfacet
  facet normal -0.427714 -0.903914 -0
    outer loop
      vertex 17.8083 -174.765 1.90735e-06
      vertex 15.5618 -173.702 0
      vertex 17.8083 -174.765 0
    endloop
  endfacet
  facet normal -0.621318 -0.783558 0
    outer loop
      vertex 17.8083 -174.765 0
      vertex 19.0669 -175.763 1.90735e-06
      vertex 17.8083 -174.765 1.90735e-06
    endloop
  endfacet
  facet normal -0.621318 -0.783558 -0
    outer loop
      vertex 19.0669 -175.763 1.90735e-06
      vertex 17.8083 -174.765 0
      vertex 19.0669 -175.763 0
    endloop
  endfacet
  facet normal -0.885905 -0.463867 0
    outer loop
      vertex 19.5371 -176.661 0
      vertex 19.0669 -175.763 1.90735e-06
      vertex 19.0669 -175.763 0
    endloop
  endfacet
  facet normal -0.885905 -0.463867 0
    outer loop
      vertex 19.0669 -175.763 1.90735e-06
      vertex 19.5371 -176.661 0
      vertex 19.5371 -176.661 1.90735e-06
    endloop
  endfacet
  facet normal -0.746831 -0.665014 0
    outer loop
      vertex 20.1524 -177.352 0
      vertex 19.5371 -176.661 1.90735e-06
      vertex 19.5371 -176.661 0
    endloop
  endfacet
  facet normal -0.746831 -0.665014 0
    outer loop
      vertex 19.5371 -176.661 1.90735e-06
      vertex 20.1524 -177.352 0
      vertex 20.1524 -177.352 1.90735e-06
    endloop
  endfacet
  facet normal -0.601717 -0.798709 -0
    outer loop
      vertex 20.1524 -177.352 1.90735e-06
      vertex 20.1524 -177.352 0
      vertex 21.5727 -178.422 0
    endloop
  endfacet
  facet normal -0.601717 -0.798709 -0
    outer loop
      vertex 21.5727 -178.422 1.90735e-06
      vertex 20.1524 -177.352 1.90735e-06
      vertex 21.5727 -178.422 0
    endloop
  endfacet
  facet normal -0.182448 -0.983216 0
    outer loop
      vertex 21.5727 -178.422 0
      vertex 22.9469 -178.677 1.90735e-06
      vertex 21.5727 -178.422 1.90735e-06
    endloop
  endfacet
  facet normal -0.182448 -0.983216 -0
    outer loop
      vertex 22.9469 -178.677 1.90735e-06
      vertex 21.5727 -178.422 0
      vertex 22.9469 -178.677 0
    endloop
  endfacet
  facet normal 0.0285423 -0.999593 0
    outer loop
      vertex 24.9081 -178.621 0
      vertex 22.9469 -178.677 1.90735e-06
      vertex 22.9469 -178.677 0
    endloop
  endfacet
  facet normal 0.0285423 -0.999593 0
    outer loop
      vertex 22.9469 -178.677 1.90735e-06
      vertex 24.9081 -178.621 0
      vertex 24.9081 -178.621 1.90735e-06
    endloop
  endfacet
endsolid OpenSCAD_Model
