solid OpenSCAD_Model
  facet normal -1 0 0
    outer loop
      vertex 72 -76.3488 -0.574246
      vertex 72 -76.2605 -0.492816
      vertex 72 -75.3647 -0.621233
    endloop
  endfacet
  facet normal -1 -0 0
    outer loop
      vertex 72 -76.2605 -0.492816
      vertex 72 -76.3488 -0.574246
      vertex 72 -76.3463 -0.482927
    endloop
  endfacet
  facet normal -1 0 0
    outer loop
      vertex 72 -76.3702 -0.566129
      vertex 72 -76.3463 -0.482927
      vertex 72 -76.3488 -0.574246
    endloop
  endfacet
  facet normal -1 0 0
    outer loop
      vertex 72 -76.3702 -0.566129
      vertex 72 -76.3894 -0.516098
      vertex 72 -76.3463 -0.482927
    endloop
  endfacet
  facet normal -1 0 -0
    outer loop
      vertex 72 -76.3894 -0.516098
      vertex 72 -76.3702 -0.566129
      vertex 72 -76.4369 -0.543918
    endloop
  endfacet
  facet normal 0 -1 0
    outer loop
      vertex 21.9682 0 9.57989
      vertex 21.9756 0 9.58846
      vertex 21.9688 0 9.58579
    endloop
  endfacet
  facet normal 0 -1 -0
    outer loop
      vertex 21.9756 0 9.58846
      vertex 21.9682 0 9.57989
      vertex 21.9782 0 9.58731
    endloop
  endfacet
  facet normal 0 -1 0
    outer loop
      vertex 21.9782 0 9.58731
      vertex 21.9817 0 9.5802
      vertex 21.9818 0 9.58501
    endloop
  endfacet
  facet normal 0 -1 -0
    outer loop
      vertex 21.9782 0 9.58731
      vertex 21.9682 0 9.57989
      vertex 21.9817 0 9.5802
    endloop
  endfacet
  facet normal 0 -1 0
    outer loop
      vertex 21.9817 0 9.5802
      vertex 21.9682 0 9.57989
      vertex 21.9739 0 9.43878
    endloop
  endfacet
  facet normal 0 0 -1
    outer loop
      vertex 36 -91.5 0
      vertex 69.1745 -91.5274 0
      vertex 68.502 -93.4455 0
    endloop
  endfacet
  facet normal 0 0 -1
    outer loop
      vertex 36 -91.5 0
      vertex 67.9307 -95.1451 0
      vertex 67.0022 -97.4067 0
    endloop
  endfacet
  facet normal 0 0 -1
    outer loop
      vertex 67.9307 -95.1451 0
      vertex 36 -91.5 0
      vertex 68.502 -93.4455 0
    endloop
  endfacet
  facet normal 0 0 -1
    outer loop
      vertex 36 -91.5 0
      vertex 67.0022 -97.4067 0
      vertex 66.502 -98.7146 0
    endloop
  endfacet
  facet normal 0 0 -1
    outer loop
      vertex 36 -91.5 0
      vertex 66.502 -98.7146 0
      vertex 64.9899 -101.943 0
    endloop
  endfacet
  facet normal 0 0 -1
    outer loop
      vertex 36 -91.5 0
      vertex 64.9899 -101.943 0
      vertex 64.7829 -102.42 0
    endloop
  endfacet
  facet normal 0 0 -1
    outer loop
      vertex 36 -91.5 0
      vertex 64.7829 -102.42 0
      vertex 64.6043 -102.797 0
    endloop
  endfacet
  facet normal 0 0 -1
    outer loop
      vertex 36 -91.5 0
      vertex 64.6043 -102.797 0
      vertex 63.821 -104.334 0
    endloop
  endfacet
  facet normal 0 0 -1
    outer loop
      vertex 36 -91.5 0
      vertex 63.821 -104.334 0
      vertex 62.4991 -106.701 0
    endloop
  endfacet
  facet normal 0 0 -1
    outer loop
      vertex 36 -91.5 0
      vertex 62.4991 -106.701 0
      vertex 60.5043 -109.835 0
    endloop
  endfacet
  facet normal 0 0 -1
    outer loop
      vertex 56.8506 -114.046 0
      vertex 60.5043 -109.835 0
      vertex 59.5328 -111.33 0
    endloop
  endfacet
  facet normal -0 0 -1
    outer loop
      vertex 60.5043 -109.835 0
      vertex 56.8506 -114.046 0
      vertex 36 -91.5 0
    endloop
  endfacet
  facet normal 0 0 -1
    outer loop
      vertex 51.2197 -117.904 0
      vertex 56.8506 -114.046 0
      vertex 55.5563 -115.347 0
    endloop
  endfacet
  facet normal -0 0 -1
    outer loop
      vertex 56.8506 -114.046 0
      vertex 51.2197 -117.904 0
      vertex 36 -91.5 0
    endloop
  endfacet
  facet normal 0 0 -1
    outer loop
      vertex 51.0218 -117.998 0
      vertex 51.2197 -117.904 0
      vertex 51.1103 -117.969 0
    endloop
  endfacet
  facet normal -0 0 -1
    outer loop
      vertex 51.2197 -117.904 0
      vertex 51.0218 -117.998 0
      vertex 36 -91.5 0
    endloop
  endfacet
  facet normal 0 0 -1
    outer loop
      vertex 36 -91.5 0
      vertex 51.0218 -117.998 0
      vertex 46.562 -119.291 0
    endloop
  endfacet
  facet normal 0 0 -1
    outer loop
      vertex 36 -91.5 0
      vertex 46.562 -119.291 0
      vertex 46.5086 -119.301 0
    endloop
  endfacet
  facet normal 0 0 -1
    outer loop
      vertex 36 -91.5 0
      vertex 46.5086 -119.301 0
      vertex 42.0938 -119.9 0
    endloop
  endfacet
  facet normal 0 0 -1
    outer loop
      vertex 36 -91.5 0
      vertex 42.0938 -119.9 0
      vertex 39.5154 -119.903 0
    endloop
  endfacet
  facet normal 0 0 -1
    outer loop
      vertex 36 -91.5 0
      vertex 39.5154 -119.903 0
      vertex 37.4537 -119.938 0
    endloop
  endfacet
  facet normal 0 0 -1
    outer loop
      vertex 36 -91.5 0
      vertex 37.4537 -119.938 0
      vertex 36.1219 -119.828 0
    endloop
  endfacet
  facet normal 0 0 -1
    outer loop
      vertex 36 -91.5 0
      vertex 36.1219 -119.828 0
      vertex 36 -119.821 0
    endloop
  endfacet
  facet normal 0 0 -1
    outer loop
      vertex 69.1745 -91.5274 0
      vertex 36 -91.5 0
      vertex 69.1826 -91.5 0
    endloop
  endfacet
  facet normal -1 0 0
    outer loop
      vertex 36 -91.5 0
      vertex 36 -92.6518 22.3317
      vertex 36 -91.5 22.542
    endloop
  endfacet
  facet normal -1 0 0
    outer loop
      vertex 36 -91.5 0
      vertex 36 -94.3794 21.9386
      vertex 36 -92.6518 22.3317
    endloop
  endfacet
  facet normal -1 0 0
    outer loop
      vertex 36 -91.5 0
      vertex 36 -94.9871 21.7863
      vertex 36 -94.3794 21.9386
    endloop
  endfacet
  facet normal -1 0 0
    outer loop
      vertex 36 -95.4045 21.6827
      vertex 36 -94.9871 21.7863
      vertex 36 -91.5 0
    endloop
  endfacet
  facet normal -1 0 0
    outer loop
      vertex 36 -94.9871 21.7863
      vertex 36 -95.4045 21.6827
      vertex 36 -95.1284 21.7559
    endloop
  endfacet
  facet normal -1 0 0
    outer loop
      vertex 36 -91.5 0
      vertex 36 -97.8924 20.9815
      vertex 36 -95.4045 21.6827
    endloop
  endfacet
  facet normal -1 0 0
    outer loop
      vertex 36 -91.5 0
      vertex 36 -98.5983 20.754
      vertex 36 -97.8924 20.9815
    endloop
  endfacet
  facet normal -1 0 0
    outer loop
      vertex 36 -91.5 0
      vertex 36 -101.038 19.9515
      vertex 36 -98.5983 20.754
    endloop
  endfacet
  facet normal -1 0 0
    outer loop
      vertex 36 -91.5 0
      vertex 36 -101.542 19.7577
      vertex 36 -101.038 19.9515
    endloop
  endfacet
  facet normal -1 0 0
    outer loop
      vertex 36 -91.5 0
      vertex 36 -104.26 18.7223
      vertex 36 -101.542 19.7577
    endloop
  endfacet
  facet normal -1 0 0
    outer loop
      vertex 36 -91.5 0
      vertex 36 -104.298 18.7069
      vertex 36 -104.26 18.7223
    endloop
  endfacet
  facet normal -1 0 0
    outer loop
      vertex 36 -91.5 0
      vertex 36 -106.819 17.6172
      vertex 36 -104.298 18.7069
    endloop
  endfacet
  facet normal -1 0 0
    outer loop
      vertex 36 -91.5 0
      vertex 36 -107.438 17.3402
      vertex 36 -106.819 17.6172
    endloop
  endfacet
  facet normal -1 0 0
    outer loop
      vertex 36 -91.5 0
      vertex 36 -109.332 16.4882
      vertex 36 -107.438 17.3402
    endloop
  endfacet
  facet normal -1 0 0
    outer loop
      vertex 36 -91.5 0
      vertex 36 -110.591 15.8866
      vertex 36 -109.332 16.4882
    endloop
  endfacet
  facet normal -1 0 0
    outer loop
      vertex 36 -91.5 0
      vertex 36 -112.175 15.0801
      vertex 36 -110.591 15.8866
    endloop
  endfacet
  facet normal -1 0 0
    outer loop
      vertex 36 -119.821 0
      vertex 36 -112.175 15.0801
      vertex 36 -91.5 0
    endloop
  endfacet
  facet normal -1 0 0
    outer loop
      vertex 36 -112.175 15.0801
      vertex 36 -119.821 0
      vertex 36 -113.609 14.3809
    endloop
  endfacet
  facet normal -1 0 0
    outer loop
      vertex 36 -113.609 14.3809
      vertex 36 -119.821 0
      vertex 36 -114.439 13.9153
    endloop
  endfacet
  facet normal -1 0 0
    outer loop
      vertex 36 -114.439 13.9153
      vertex 36 -119.821 0
      vertex 36 -116.351 12.7791
    endloop
  endfacet
  facet normal -1 0 0
    outer loop
      vertex 36 -116.351 12.7791
      vertex 36 -119.821 0
      vertex 36 -116.874 12.3871
    endloop
  endfacet
  facet normal -1 0 0
    outer loop
      vertex 36 -116.874 12.3871
      vertex 36 -119.821 0
      vertex 36 -118.661 10.9441
    endloop
  endfacet
  facet normal -1 0 0
    outer loop
      vertex 36 -119.821 0
      vertex 36 -120.105 9.03036
      vertex 36 -118.661 10.9441
    endloop
  endfacet
  facet normal -1 0 0
    outer loop
      vertex 36 -120.489 1.2405
      vertex 36 -119.821 0
      vertex 36 -120.292 0.685469
    endloop
  endfacet
  facet normal -1 0 0
    outer loop
      vertex 36 -119.821 0
      vertex 36 -120.489 1.2405
      vertex 36 -120.105 9.03036
    endloop
  endfacet
  facet normal -1 0 0
    outer loop
      vertex 36 -121.268 5.33684
      vertex 36 -120.105 9.03036
      vertex 36 -120.489 1.2405
    endloop
  endfacet
  facet normal -1 0 0
    outer loop
      vertex 36 -120.105 9.03036
      vertex 36 -120.468 8.45707
      vertex 36 -120.348 8.7408
    endloop
  endfacet
  facet normal -1 0 0
    outer loop
      vertex 36 -121.268 5.33684
      vertex 36 -120.489 1.2405
      vertex 36 -121.23 3.41668
    endloop
  endfacet
  facet normal -1 0 0
    outer loop
      vertex 36 -120.105 9.03036
      vertex 36 -121.268 5.33684
      vertex 36 -120.468 8.45707
    endloop
  endfacet
  facet normal -1 0 0
    outer loop
      vertex 36 -120.468 8.45707
      vertex 36 -121.268 5.33684
      vertex 36 -121.252 6.18845
    endloop
  endfacet
  facet normal 0 1 0
    outer loop
      vertex 36 -91.5 0
      vertex 36.8807 -91.5 22.558
      vertex 38.5412 -91.5 22.4406
    endloop
  endfacet
  facet normal 0 1 0
    outer loop
      vertex 36 -91.5 0
      vertex 38.5412 -91.5 22.4406
      vertex 39.2956 -91.5 22.3751
    endloop
  endfacet
  facet normal 0 1 0
    outer loop
      vertex 36 -91.5 0
      vertex 39.2956 -91.5 22.3751
      vertex 41.4688 -91.5 22.0599
    endloop
  endfacet
  facet normal 0 1 0
    outer loop
      vertex 36 -91.5 0
      vertex 41.4688 -91.5 22.0599
      vertex 41.8353 -91.5 22.0029
    endloop
  endfacet
  facet normal 0 1 0
    outer loop
      vertex 36 -91.5 0
      vertex 41.8353 -91.5 22.0029
      vertex 42.4788 -91.5 21.8678
    endloop
  endfacet
  facet normal 0 1 0
    outer loop
      vertex 36 -91.5 0
      vertex 42.4788 -91.5 21.8678
      vertex 45.079 -91.5 21.3322
    endloop
  endfacet
  facet normal 0 1 0
    outer loop
      vertex 36 -91.5 0
      vertex 45.079 -91.5 21.3322
      vertex 46.4901 -91.5 20.9781
    endloop
  endfacet
  facet normal 0 1 0
    outer loop
      vertex 36 -91.5 0
      vertex 46.4901 -91.5 20.9781
      vertex 48.6234 -91.5 20.4203
    endloop
  endfacet
  facet normal 0 1 0
    outer loop
      vertex 49.2827 -91.5 20.2231
      vertex 48.6234 -91.5 20.4203
      vertex 48.881 -91.5 20.3528
    endloop
  endfacet
  facet normal 0 1 0
    outer loop
      vertex 49.2827 -91.5 20.2231
      vertex 48.881 -91.5 20.3528
      vertex 49.0239 -91.5 20.314
    endloop
  endfacet
  facet normal 0 1 0
    outer loop
      vertex 48.6234 -91.5 20.4203
      vertex 49.2827 -91.5 20.2231
      vertex 36 -91.5 0
    endloop
  endfacet
  facet normal 0 1 0
    outer loop
      vertex 36 -91.5 0
      vertex 49.2827 -91.5 20.2231
      vertex 52.4158 -91.5 19.1671
    endloop
  endfacet
  facet normal 0 1 0
    outer loop
      vertex 36 -91.5 0
      vertex 52.4158 -91.5 19.1671
      vertex 53.9004 -91.5 18.5392
    endloop
  endfacet
  facet normal 0 1 0
    outer loop
      vertex 36 -91.5 0
      vertex 53.9004 -91.5 18.5392
      vertex 55.4956 -91.5 17.7682
    endloop
  endfacet
  facet normal 0 1 0
    outer loop
      vertex 36 -91.5 0
      vertex 55.4956 -91.5 17.7682
      vertex 56.7054 -91.5 17.13
    endloop
  endfacet
  facet normal 0 1 0
    outer loop
      vertex 36 -91.5 0
      vertex 56.7054 -91.5 17.13
      vertex 58.4325 -91.5 16.0474
    endloop
  endfacet
  facet normal 0 1 0
    outer loop
      vertex 36 -91.5 0
      vertex 58.4325 -91.5 16.0474
      vertex 59.9506 -91.5 14.8447
    endloop
  endfacet
  facet normal 0 1 0
    outer loop
      vertex 62.129 -91.5 13.1412
      vertex 59.9506 -91.5 14.8447
      vertex 61.1305 -91.5 14.038
    endloop
  endfacet
  facet normal 0 1 0
    outer loop
      vertex 59.9506 -91.5 14.8447
      vertex 62.129 -91.5 13.1412
      vertex 36 -91.5 0
    endloop
  endfacet
  facet normal 0 1 0
    outer loop
      vertex 36 -91.5 0
      vertex 62.129 -91.5 13.1412
      vertex 63.4906 -91.5 11.792
    endloop
  endfacet
  facet normal 0 1 0
    outer loop
      vertex 36 -91.5 0
      vertex 63.4906 -91.5 11.792
      vertex 64.3477 -91.5 10.7899
    endloop
  endfacet
  facet normal 0 1 0
    outer loop
      vertex 36 -91.5 0
      vertex 64.3477 -91.5 10.7899
      vertex 65.5222 -91.5 9.37239
    endloop
  endfacet
  facet normal 0 1 0
    outer loop
      vertex 36 -91.5 0
      vertex 65.5222 -91.5 9.37239
      vertex 66.7546 -91.5 7.64866
    endloop
  endfacet
  facet normal 0 1 0
    outer loop
      vertex 67.6885 -91.5 6.07512
      vertex 66.7546 -91.5 7.64866
      vertex 67.3514 -91.5 6.78539
    endloop
  endfacet
  facet normal 0 1 0
    outer loop
      vertex 69.1826 -91.5 0
      vertex 66.7546 -91.5 7.64866
      vertex 67.6885 -91.5 6.07512
    endloop
  endfacet
  facet normal 0 1 0
    outer loop
      vertex 68.8239 -91.5 3.64984
      vertex 67.6885 -91.5 6.07512
      vertex 68.7564 -91.5 3.99699
    endloop
  endfacet
  facet normal 0 1 0
    outer loop
      vertex 69.1826 -91.5 0
      vertex 67.6885 -91.5 6.07512
      vertex 68.8239 -91.5 3.64984
    endloop
  endfacet
  facet normal 0 1 -0
    outer loop
      vertex 69.2589 -91.5 0.482435
      vertex 68.8239 -91.5 3.64984
      vertex 69.3549 -91.5 1.1018
    endloop
  endfacet
  facet normal 0 1 -0
    outer loop
      vertex 69.1826 -91.5 0
      vertex 68.8239 -91.5 3.64984
      vertex 69.2589 -91.5 0.482435
    endloop
  endfacet
  facet normal 0 1 0
    outer loop
      vertex 66.7546 -91.5 7.64866
      vertex 69.1826 -91.5 0
      vertex 36 -91.5 0
    endloop
  endfacet
  facet normal 0 1 0
    outer loop
      vertex 36.8807 -91.5 22.558
      vertex 36 -91.5 0
      vertex 36 -91.5 22.542
    endloop
  endfacet
  facet normal 0.140096 -0.2241 0.964444
    outer loop
      vertex 40.625 -93.8465 21.6376
      vertex 41.6748 -91.7442 21.9736
      vertex 39.0228 -92.074 22.2822
    endloop
  endfacet
  facet normal 0.126685 -0.235876 0.96349
    outer loop
      vertex 40.625 -93.8465 21.6376
      vertex 39.0228 -92.074 22.2822
      vertex 38.2262 -94.4764 21.7988
    endloop
  endfacet
  facet normal 0.119994 -0.300437 0.946224
    outer loop
      vertex 38.059 -100.495 20.0302
      vertex 40.3196 -99.5748 20.0357
      vertex 37.8446 -97.2828 21.0773
    endloop
  endfacet
  facet normal 0.127407 -0.293045 0.947572
    outer loop
      vertex 40.3196 -99.5748 20.0357
      vertex 40.0811 -96.4456 21.0355
      vertex 37.8446 -97.2828 21.0773
    endloop
  endfacet
  facet normal 0.17724 -0.284409 0.942177
    outer loop
      vertex 42.4136 -98.7714 19.8843
      vertex 42.4648 -96.2377 20.6395
      vertex 40.3196 -99.5748 20.0357
    endloop
  endfacet
  facet normal 0.181286 -0.286742 0.940699
    outer loop
      vertex 40.3196 -99.5748 20.0357
      vertex 42.4648 -96.2377 20.6395
      vertex 40.0811 -96.4456 21.0355
    endloop
  endfacet
  facet normal 0.186752 -0.252588 0.94938
    outer loop
      vertex 42.4648 -96.2377 20.6395
      vertex 43.2482 -93.9269 21.1002
      vertex 40.625 -93.8465 21.6376
    endloop
  endfacet
  facet normal 0.180174 -0.257616 0.9493
    outer loop
      vertex 42.4648 -96.2377 20.6395
      vertex 40.625 -93.8465 21.6376
      vertex 40.0811 -96.4456 21.0355
    endloop
  endfacet
  facet normal 0.138609 -0.338365 0.93075
    outer loop
      vertex 38.8541 -103.707 18.7441
      vertex 41.4588 -102.821 18.6783
      vertex 38.059 -100.495 20.0302
    endloop
  endfacet
  facet normal 0.136545 -0.341001 0.930093
    outer loop
      vertex 41.4588 -102.821 18.6783
      vertex 40.3196 -99.5748 20.0357
      vertex 38.059 -100.495 20.0302
    endloop
  endfacet
  facet normal 0.194539 -0.321816 0.926601
    outer loop
      vertex 43.8086 -101.721 18.567
      vertex 42.4136 -98.7714 19.8843
      vertex 41.4588 -102.821 18.6783
    endloop
  endfacet
  facet normal 0.190289 -0.321146 0.927715
    outer loop
      vertex 41.4588 -102.821 18.6783
      vertex 42.4136 -98.7714 19.8843
      vertex 40.3196 -99.5748 20.0357
    endloop
  endfacet
  facet normal 0.0847803 -0.19833 0.976462
    outer loop
      vertex 39.0228 -92.074 22.2822
      vertex 39.2956 -91.5 22.3751
      vertex 38.5412 -91.5 22.4406
    endloop
  endfacet
  facet normal 0.0689358 -0.211128 0.975025
    outer loop
      vertex 36.4676 -92.5793 22.3535
      vertex 38.5412 -91.5 22.4406
      vertex 36.8807 -91.5 22.558
    endloop
  endfacet
  facet normal 0.0689707 -0.211193 0.975008
    outer loop
      vertex 38.5412 -91.5 22.4406
      vertex 36.4676 -92.5793 22.3535
      vertex 39.0228 -92.074 22.2822
    endloop
  endfacet
  facet normal -0.0178693 -0.179526 0.983591
    outer loop
      vertex 36 -91.5 22.542
      vertex 36.4676 -92.5793 22.3535
      vertex 36.8807 -91.5 22.558
    endloop
  endfacet
  facet normal -0.0180112 -0.179585 0.983578
    outer loop
      vertex 36.4676 -92.5793 22.3535
      vertex 36 -91.5 22.542
      vertex 36 -92.6518 22.3317
    endloop
  endfacet
  facet normal 0.0460456 -0.312133 0.948922
    outer loop
      vertex 38.059 -100.495 20.0302
      vertex 36 -98.5983 20.754
      vertex 36 -101.038 19.9515
    endloop
  endfacet
  facet normal 0.0518715 -0.306334 0.95051
    outer loop
      vertex 36 -98.5983 20.754
      vertex 37.8446 -97.2828 21.0773
      vertex 36 -97.8924 20.9815
    endloop
  endfacet
  facet normal 0.051903 -0.306374 0.950495
    outer loop
      vertex 37.8446 -97.2828 21.0773
      vertex 36 -98.5983 20.754
      vertex 38.059 -100.495 20.0302
    endloop
  endfacet
  facet normal 0.194669 -0.318074 0.927865
    outer loop
      vertex 46.1208 -104.681 17.0672
      vertex 43.8086 -101.721 18.567
      vertex 43.2312 -105.925 17.247
    endloop
  endfacet
  facet normal 0.192811 -0.317954 0.928294
    outer loop
      vertex 43.2312 -105.925 17.247
      vertex 43.8086 -101.721 18.567
      vertex 41.4588 -102.821 18.6783
    endloop
  endfacet
  facet normal 0.222636 -0.282604 0.933042
    outer loop
      vertex 44.8745 -96.87 19.873
      vertex 42.4648 -96.2377 20.6395
      vertex 42.4136 -98.7714 19.8843
    endloop
  endfacet
  facet normal 0.220789 -0.280206 0.934204
    outer loop
      vertex 44.2507 -98.5811 19.5072
      vertex 44.8745 -96.87 19.873
      vertex 42.4136 -98.7714 19.8843
    endloop
  endfacet
  facet normal 0.139934 -0.222655 0.964802
    outer loop
      vertex 39.0228 -92.074 22.2822
      vertex 41.4688 -91.5 22.0599
      vertex 39.2956 -91.5 22.3751
    endloop
  endfacet
  facet normal 0.139978 -0.22286 0.964749
    outer loop
      vertex 41.4688 -91.5 22.0599
      vertex 39.0228 -92.074 22.2822
      vertex 41.6748 -91.7442 21.9736
    endloop
  endfacet
  facet normal 0.150102 -0.214454 0.965131
    outer loop
      vertex 41.6748 -91.7442 21.9736
      vertex 41.8353 -91.5 22.0029
      vertex 41.4688 -91.5 22.0599
    endloop
  endfacet
  facet normal 0.196192 -0.233085 0.95246
    outer loop
      vertex 42.4788 -91.5 21.8678
      vertex 44.5481 -92.152 21.282
      vertex 45.079 -91.5 21.3322
    endloop
  endfacet
  facet normal 0.196158 -0.233179 0.952444
    outer loop
      vertex 44.5481 -92.152 21.282
      vertex 42.4788 -91.5 21.8678
      vertex 41.6748 -91.7442 21.9736
    endloop
  endfacet
  facet normal 0.199215 -0.244785 0.948891
    outer loop
      vertex 42.4788 -91.5 21.8678
      vertex 41.8353 -91.5 22.0029
      vertex 41.6748 -91.7442 21.9736
    endloop
  endfacet
  facet normal 0.187323 -0.245553 0.951112
    outer loop
      vertex 43.2482 -93.9269 21.1002
      vertex 41.6748 -91.7442 21.9736
      vertex 40.625 -93.8465 21.6376
    endloop
  endfacet
  facet normal 0.194828 -0.240097 0.950997
    outer loop
      vertex 43.2482 -93.9269 21.1002
      vertex 44.5481 -92.152 21.282
      vertex 41.6748 -91.7442 21.9736
    endloop
  endfacet
  facet normal 0.232928 -0.256485 0.938062
    outer loop
      vertex 46.1225 -95.1967 20.0393
      vertex 47.5728 -93.538 20.1327
      vertex 43.2482 -93.9269 21.1002
    endloop
  endfacet
  facet normal 0.233191 -0.266573 0.93518
    outer loop
      vertex 47.5728 -93.538 20.1327
      vertex 44.5481 -92.152 21.282
      vertex 43.2482 -93.9269 21.1002
    endloop
  endfacet
  facet normal 0.244342 -0.257873 0.934772
    outer loop
      vertex 48.6234 -91.5 20.4203
      vertex 47.5728 -93.538 20.1327
      vertex 48.9516 -91.628 20.2992
    endloop
  endfacet
  facet normal 0.24441 -0.257905 0.934745
    outer loop
      vertex 47.5728 -93.538 20.1327
      vertex 48.6234 -91.5 20.4203
      vertex 46.4901 -91.5 20.9781
    endloop
  endfacet
  facet normal 0.234808 -0.263241 0.935719
    outer loop
      vertex 44.5481 -92.152 21.282
      vertex 46.4901 -91.5 20.9781
      vertex 45.079 -91.5 21.3322
    endloop
  endfacet
  facet normal 0.234845 -0.263371 0.935673
    outer loop
      vertex 46.4901 -91.5 20.9781
      vertex 44.5481 -92.152 21.282
      vertex 47.5728 -93.538 20.1327
    endloop
  endfacet
  facet normal 0.228672 -0.264318 0.936934
    outer loop
      vertex 44.8745 -96.87 19.873
      vertex 43.2482 -93.9269 21.1002
      vertex 42.4648 -96.2377 20.6395
    endloop
  endfacet
  facet normal 0.229164 -0.26403 0.936895
    outer loop
      vertex 44.8745 -96.87 19.873
      vertex 46.1225 -95.1967 20.0393
      vertex 43.2482 -93.9269 21.1002
    endloop
  endfacet
  facet normal 0.261235 -0.278269 0.924296
    outer loop
      vertex 47.5693 -99.0794 18.4462
      vertex 49.1191 -97.3149 18.5394
      vertex 44.8745 -96.87 19.873
    endloop
  endfacet
  facet normal 0.259898 -0.285519 0.92246
    outer loop
      vertex 49.1191 -97.3149 18.5394
      vertex 46.1225 -95.1967 20.0393
      vertex 44.8745 -96.87 19.873
    endloop
  endfacet
  facet normal 0.282534 -0.272342 0.919785
    outer loop
      vertex 49.1191 -97.3149 18.5394
      vertex 50.5473 -95.1534 18.7407
      vertex 47.5728 -93.538 20.1327
    endloop
  endfacet
  facet normal 0.262766 -0.281715 0.922817
    outer loop
      vertex 49.1191 -97.3149 18.5394
      vertex 47.5728 -93.538 20.1327
      vertex 46.1225 -95.1967 20.0393
    endloop
  endfacet
  facet normal 0.252566 -0.289453 0.92327
    outer loop
      vertex 45.9045 -100.589 18.4253
      vertex 44.8745 -96.87 19.873
      vertex 44.2507 -98.5811 19.5072
    endloop
  endfacet
  facet normal 0.251275 -0.289894 0.923484
    outer loop
      vertex 45.9045 -100.589 18.4253
      vertex 47.5693 -99.0794 18.4462
      vertex 44.8745 -96.87 19.873
    endloop
  endfacet
  facet normal 0.243321 -0.268597 0.932014
    outer loop
      vertex 48.758 -103.287 16.9028
      vertex 50.8394 -101.415 16.8989
      vertex 45.9045 -100.589 18.4253
    endloop
  endfacet
  facet normal 0.240935 -0.278577 0.929702
    outer loop
      vertex 50.8394 -101.415 16.8989
      vertex 47.5693 -99.0794 18.4462
      vertex 45.9045 -100.589 18.4253
    endloop
  endfacet
  facet normal 0.297441 -0.244469 0.922911
    outer loop
      vertex 50.8394 -101.415 16.8989
      vertex 52.3193 -98.8896 17.0909
      vertex 49.1191 -97.3149 18.5394
    endloop
  endfacet
  facet normal 0.249039 -0.267896 0.930705
    outer loop
      vertex 50.8394 -101.415 16.8989
      vertex 49.1191 -97.3149 18.5394
      vertex 47.5693 -99.0794 18.4462
    endloop
  endfacet
  facet normal 0.222893 -0.296438 0.928678
    outer loop
      vertex 46.1208 -104.681 17.0672
      vertex 45.9045 -100.589 18.4253
      vertex 43.8086 -101.721 18.567
    endloop
  endfacet
  facet normal 0.215167 -0.297354 0.930206
    outer loop
      vertex 46.1208 -104.681 17.0672
      vertex 48.758 -103.287 16.9028
      vertex 45.9045 -100.589 18.4253
    endloop
  endfacet
  facet normal 0.215157 -0.284965 0.934078
    outer loop
      vertex 48.7437 -107.328 15.6555
      vertex 51.9338 -105.474 15.4863
      vertex 46.1208 -104.681 17.0672
    endloop
  endfacet
  facet normal 0.21334 -0.293712 0.931783
    outer loop
      vertex 51.9338 -105.474 15.4863
      vertex 48.758 -103.287 16.9028
      vertex 46.1208 -104.681 17.0672
    endloop
  endfacet
  facet normal 0.277762 -0.24809 0.928062
    outer loop
      vertex 51.9338 -105.474 15.4863
      vertex 54.186 -102.875 15.507
      vertex 50.8394 -101.415 16.8989
    endloop
  endfacet
  facet normal 0.237098 -0.261671 0.935581
    outer loop
      vertex 51.9338 -105.474 15.4863
      vertex 50.8394 -101.415 16.8989
      vertex 48.758 -103.287 16.9028
    endloop
  endfacet
  facet normal 0.18999 -0.306507 0.932715
    outer loop
      vertex 45.3181 -108.857 15.8584
      vertex 46.1208 -104.681 17.0672
      vertex 43.2312 -105.925 17.247
    endloop
  endfacet
  facet normal 0.192138 -0.306767 0.932189
    outer loop
      vertex 48.7437 -107.328 15.6555
      vertex 46.1208 -104.681 17.0672
      vertex 45.3181 -108.857 15.8584
    endloop
  endfacet
  facet normal 0.209369 -0.320234 0.923913
    outer loop
      vertex 47.4034 -111.495 14.4715
      vertex 51.2966 -109.533 14.2693
      vertex 45.3181 -108.857 15.8584
    endloop
  endfacet
  facet normal 0.205684 -0.338994 0.918029
    outer loop
      vertex 51.2966 -109.533 14.2693
      vertex 48.7437 -107.328 15.6555
      vertex 45.3181 -108.857 15.8584
    endloop
  endfacet
  facet normal 0.272026 -0.315298 0.909169
    outer loop
      vertex 54.7456 -107.066 14.0929
      vertex 51.9338 -105.474 15.4863
      vertex 51.2966 -109.533 14.2693
    endloop
  endfacet
  facet normal 0.230485 -0.312485 0.921537
    outer loop
      vertex 51.2966 -109.533 14.2693
      vertex 51.9338 -105.474 15.4863
      vertex 48.7437 -107.328 15.6555
    endloop
  endfacet
  facet normal 0.138416 -0.338835 0.930608
    outer loop
      vertex 41.6555 -110.004 15.9962
      vertex 43.2312 -105.925 17.247
      vertex 40.0811 -106.885 17.366
    endloop
  endfacet
  facet normal 0.141379 -0.339741 0.929832
    outer loop
      vertex 45.3181 -108.857 15.8584
      vertex 43.2312 -105.925 17.247
      vertex 41.6555 -110.004 15.9962
    endloop
  endfacet
  facet normal 0.154947 -0.348122 0.924555
    outer loop
      vertex 43.2758 -112.933 14.6218
      vertex 47.4034 -111.495 14.4715
      vertex 41.6555 -110.004 15.9962
    endloop
  endfacet
  facet normal 0.148979 -0.365326 0.918881
    outer loop
      vertex 47.4034 -111.495 14.4715
      vertex 45.3181 -108.857 15.8584
      vertex 41.6555 -110.004 15.9962
    endloop
  endfacet
  facet normal 0.141394 -0.346815 0.927215
    outer loop
      vertex 43.2312 -105.925 17.247
      vertex 41.4588 -102.821 18.6783
      vertex 38.8541 -103.707 18.7441
    endloop
  endfacet
  facet normal 0.140941 -0.347567 0.927002
    outer loop
      vertex 40.0811 -106.885 17.366
      vertex 43.2312 -105.925 17.247
      vertex 38.8541 -103.707 18.7441
    endloop
  endfacet
  facet normal 0.0655531 -0.374784 0.924792
    outer loop
      vertex 36 -104.298 18.7069
      vertex 38.8541 -103.707 18.7441
      vertex 36 -104.26 18.7223
    endloop
  endfacet
  facet normal 0.0656384 -0.375185 0.924623
    outer loop
      vertex 38.8541 -103.707 18.7441
      vertex 36 -104.298 18.7069
      vertex 36.8017 -107.415 17.3852
    endloop
  endfacet
  facet normal 0.0660811 -0.375388 0.924509
    outer loop
      vertex 40.0811 -106.885 17.366
      vertex 38.8541 -103.707 18.7441
      vertex 36.8017 -107.415 17.3852
    endloop
  endfacet
  facet normal 0.0593219 -0.383289 0.921722
    outer loop
      vertex 37.8152 -110.595 15.9976
      vertex 41.6555 -110.004 15.9962
      vertex 36.8017 -107.415 17.3852
    endloop
  endfacet
  facet normal 0.0657384 -0.373235 0.925405
    outer loop
      vertex 41.6555 -110.004 15.9962
      vertex 40.0811 -106.885 17.366
      vertex 36.8017 -107.415 17.3852
    endloop
  endfacet
  facet normal 0.0588723 -0.358282 0.931755
    outer loop
      vertex 36 -101.542 19.7577
      vertex 38.059 -100.495 20.0302
      vertex 36 -101.038 19.9515
    endloop
  endfacet
  facet normal 0.0589688 -0.358453 0.931683
    outer loop
      vertex 38.059 -100.495 20.0302
      vertex 36 -101.542 19.7577
      vertex 38.8541 -103.707 18.7441
    endloop
  endfacet
  facet normal 0.061719 -0.355308 0.932709
    outer loop
      vertex 38.8541 -103.707 18.7441
      vertex 36 -101.542 19.7577
      vertex 36 -104.26 18.7223
    endloop
  endfacet
  facet normal -0.0394855 -0.408145 0.912063
    outer loop
      vertex 36.8017 -107.415 17.3852
      vertex 36 -106.819 17.6172
      vertex 36 -107.438 17.3402
    endloop
  endfacet
  facet normal -0.0293219 -0.396599 0.917524
    outer loop
      vertex 36.8017 -107.415 17.3852
      vertex 36 -104.298 18.7069
      vertex 36 -106.819 17.6172
    endloop
  endfacet
  facet normal 0.11013 -0.246123 0.962961
    outer loop
      vertex 40.0811 -96.4456 21.0355
      vertex 40.625 -93.8465 21.6376
      vertex 37.8446 -97.2828 21.0773
    endloop
  endfacet
  facet normal 0.133455 -0.263749 0.955315
    outer loop
      vertex 40.625 -93.8465 21.6376
      vertex 38.2262 -94.4764 21.7988
      vertex 37.8446 -97.2828 21.0773
    endloop
  endfacet
  facet normal 0.0396316 -0.271062 0.961746
    outer loop
      vertex 37.8446 -97.2828 21.0773
      vertex 36 -95.4045 21.6827
      vertex 36 -97.8924 20.9815
    endloop
  endfacet
  facet normal 0.056338 -0.255861 0.965071
    outer loop
      vertex 36 -95.4045 21.6827
      vertex 38.2262 -94.4764 21.7988
      vertex 36 -95.1284 21.7559
    endloop
  endfacet
  facet normal 0.0563 -0.255773 0.965096
    outer loop
      vertex 38.2262 -94.4764 21.7988
      vertex 36 -95.4045 21.6827
      vertex 37.8446 -97.2828 21.0773
    endloop
  endfacet
  facet normal 0.0783878 0.981044 0.177224
    outer loop
      vertex 21.9782 0 9.58731
      vertex 21.9757 0.00053215 9.58547
      vertex 21.9756 0 9.58846
    endloop
  endfacet
  facet normal 0.0972844 0.983539 0.152271
    outer loop
      vertex 21.9782 0 9.58731
      vertex 21.9818 0 9.58501
      vertex 21.9757 0.00053215 9.58547
    endloop
  endfacet
  facet normal 0.0842916 0.99643 -0.00464909
    outer loop
      vertex 21.9757 0.00053215 9.58547
      vertex 21.9817 0 9.5802
      vertex 21.9739 0 9.43878
    endloop
  endfacet
  facet normal 0.0867725 0.996227 -0.001804
    outer loop
      vertex 21.9818 0 9.58501
      vertex 21.9817 0 9.5802
      vertex 21.9757 0.00053215 9.58547
    endloop
  endfacet
  facet normal -0.0765337 0.997037 0.00778309
    outer loop
      vertex 21.9688 0 9.58579
      vertex 21.9757 0.00053215 9.58547
      vertex 21.9682 0 9.57989
    endloop
  endfacet
  facet normal -0.0687201 0.997632 -0.00277588
    outer loop
      vertex 21.9757 0.00053215 9.58547
      vertex 21.9739 0 9.43878
      vertex 21.9682 0 9.57989
    endloop
  endfacet
  facet normal -0.0677797 0.982653 0.172622
    outer loop
      vertex 21.9756 0 9.58846
      vertex 21.9757 0.00053215 9.58547
      vertex 21.9688 0 9.58579
    endloop
  endfacet
  facet normal 0.9677 -0.0120234 -0.251818
    outer loop
      vertex 72 -75.3647 -0.621233
      vertex 72.0056 -76.3479 -0.552769
      vertex 72 -76.3488 -0.574246
    endloop
  endfacet
  facet normal 0.964327 -0.0938797 -0.247508
    outer loop
      vertex 72 -76.3488 -0.574246
      vertex 72.0056 -76.3479 -0.552769
      vertex 72 -76.3702 -0.566129
    endloop
  endfacet
  facet normal 0.961969 -0.0863025 -0.259168
    outer loop
      vertex 72 -76.3702 -0.566129
      vertex 72.0056 -76.3479 -0.552769
      vertex 72 -76.4369 -0.543918
    endloop
  endfacet
  facet normal 0.994738 -0.0624866 0.0811906
    outer loop
      vertex 72.0056 -76.3479 -0.552769
      vertex 72 -76.3463 -0.482927
      vertex 72 -76.3894 -0.516098
    endloop
  endfacet
  facet normal 0.994384 -0.053486 0.0913223
    outer loop
      vertex 72.0056 -76.3479 -0.552769
      vertex 72 -76.3894 -0.516098
      vertex 72 -76.4369 -0.543918
    endloop
  endfacet
  facet normal 0.996968 0.011042 0.0770261
    outer loop
      vertex 72.0056 -76.3479 -0.552769
      vertex 72 -75.3647 -0.621233
      vertex 72 -76.2605 -0.492816
    endloop
  endfacet
  facet normal 0.996776 0.00918732 0.079712
    outer loop
      vertex 72.0056 -76.3479 -0.552769
      vertex 72 -76.2605 -0.492816
      vertex 72 -76.3463 -0.482927
    endloop
  endfacet
  facet normal -0.0110581 -0.221856 0.975017
    outer loop
      vertex 36.4676 -92.5793 22.3535
      vertex 36 -92.6518 22.3317
      vertex 36 -94.3794 21.9386
    endloop
  endfacet
  facet normal 0.940981 -0.284743 0.182965
    outer loop
      vertex 67.7546 -94.5869 4.34515
      vertex 68.8239 -91.5 3.64984
      vertex 68.7564 -91.5 3.99699
    endloop
  endfacet
  facet normal 0.940977 -0.284733 0.183004
    outer loop
      vertex 68.8239 -91.5 3.64984
      vertex 67.7546 -94.5869 4.34515
      vertex 68.1663 -95.0615 1.48983
    endloop
  endfacet
  facet normal 0.936516 -0.291285 0.195166
    outer loop
      vertex 69.3549 -91.5 1.1018
      vertex 68.8239 -91.5 3.64984
      vertex 68.1663 -95.0615 1.48983
    endloop
  endfacet
  facet normal 0.939729 -0.315879 -0.130883
    outer loop
      vertex 68.502 -93.4455 0
      vertex 68.1663 -95.0615 1.48983
      vertex 67.9307 -95.1451 0
    endloop
  endfacet
  facet normal 0.933741 -0.327385 -0.144728
    outer loop
      vertex 68.502 -93.4455 0
      vertex 69.2589 -91.5 0.482435
      vertex 69.3549 -91.5 1.1018
    endloop
  endfacet
  facet normal 0.933739 -0.327376 -0.14476
    outer loop
      vertex 69.2589 -91.5 0.482435
      vertex 68.502 -93.4455 0
      vertex 69.1745 -91.5274 0
    endloop
  endfacet
  facet normal 0.933741 -0.32739 -0.144718
    outer loop
      vertex 68.502 -93.4455 0
      vertex 69.3549 -91.5 1.1018
      vertex 68.1663 -95.0615 1.48983
    endloop
  endfacet
  facet normal 0.948132 -0.280287 -0.149953
    outer loop
      vertex 69.1826 -91.5 0
      vertex 69.2589 -91.5 0.482435
      vertex 69.1745 -91.5274 0
    endloop
  endfacet
  facet normal 0.921192 -0.352263 -0.165275
    outer loop
      vertex 66.8825 -98.6362 1.95336
      vertex 67.0022 -97.4067 0
      vertex 68.1663 -95.0615 1.48983
    endloop
  endfacet
  facet normal 0.921174 -0.352299 -0.165298
    outer loop
      vertex 67.0022 -97.4067 0
      vertex 66.8825 -98.6362 1.95336
      vertex 66.502 -98.7146 0
    endloop
  endfacet
  facet normal 0.917932 -0.376857 -0.124014
    outer loop
      vertex 67.9307 -95.1451 0
      vertex 68.1663 -95.0615 1.48983
      vertex 67.0022 -97.4067 0
    endloop
  endfacet
  facet normal 0.157546 -0.881362 -0.445398
    outer loop
      vertex 46.5086 -119.301 0
      vertex 46.8876 -120.41 2.32857
      vertex 41.9933 -121.072 1.90734
    endloop
  endfacet
  facet normal 0.16476 -0.87982 -0.445838
    outer loop
      vertex 46.8876 -120.41 2.32857
      vertex 46.5086 -119.301 0
      vertex 46.562 -119.291 0
    endloop
  endfacet
  facet normal 0.115196 -0.849031 -0.515633
    outer loop
      vertex 42.0938 -119.9 0
      vertex 46.5086 -119.301 0
      vertex 41.9933 -121.072 1.90734
    endloop
  endfacet
  facet normal 0.014333 -0.844298 -0.535683
    outer loop
      vertex 39.5154 -119.903 0
      vertex 37.1927 -120.575 0.997002
      vertex 37.4537 -119.938 0
    endloop
  endfacet
  facet normal 0.0142197 -0.844182 -0.535869
    outer loop
      vertex 37.1927 -120.575 0.997002
      vertex 39.5154 -119.903 0
      vertex 41.9933 -121.072 1.90734
    endloop
  endfacet
  facet normal 0.000991347 -0.852029 -0.523493
    outer loop
      vertex 42.0938 -119.9 0
      vertex 41.9933 -121.072 1.90734
      vertex 39.5154 -119.903 0
    endloop
  endfacet
  facet normal -0.0472753 -0.823266 -0.565683
    outer loop
      vertex 36.1219 -119.828 0
      vertex 36 -120.292 0.685469
      vertex 36 -119.821 0
    endloop
  endfacet
  facet normal -0.0475697 -0.82323 -0.565711
    outer loop
      vertex 36 -120.292 0.685469
      vertex 36.1219 -119.828 0
      vertex 37.1927 -120.575 0.997002
    endloop
  endfacet
  facet normal -0.0687544 -0.832429 -0.54985
    outer loop
      vertex 37.4537 -119.938 0
      vertex 37.1927 -120.575 0.997002
      vertex 36.1219 -119.828 0
    endloop
  endfacet
  facet normal 0.0428562 -0.210719 0.976607
    outer loop
      vertex 36 -94.9871 21.7863
      vertex 38.2262 -94.4764 21.7988
      vertex 39.0228 -92.074 22.2822
    endloop
  endfacet
  facet normal 0.0427228 -0.21014 0.976737
    outer loop
      vertex 38.2262 -94.4764 21.7988
      vertex 36 -94.9871 21.7863
      vertex 36 -95.1284 21.7559
    endloop
  endfacet
  facet normal 0.0749279 -0.242408 0.967277
    outer loop
      vertex 36 -94.3794 21.9386
      vertex 39.0228 -92.074 22.2822
      vertex 36.4676 -92.5793 22.3535
    endloop
  endfacet
  facet normal 0.0749336 -0.242415 0.967274
    outer loop
      vertex 39.0228 -92.074 22.2822
      vertex 36 -94.3794 21.9386
      vertex 36 -94.9871 21.7863
    endloop
  endfacet
  facet normal 0.750899 -0.153853 0.642246
    outer loop
      vertex 62.9952 -93.4449 11.9053
      vertex 64.3477 -91.5 10.7899
      vertex 63.4906 -91.5 11.792
    endloop
  endfacet
  facet normal 0.750886 -0.153833 0.642266
    outer loop
      vertex 64.3477 -91.5 10.7899
      vertex 62.9952 -93.4449 11.9053
      vertex 64.9753 -93.5736 9.5595
    endloop
  endfacet
  facet normal 0.761998 -0.144002 0.631365
    outer loop
      vertex 64.9753 -93.5736 9.5595
      vertex 65.5222 -91.5 9.37239
      vertex 64.3477 -91.5 10.7899
    endloop
  endfacet
  facet normal 0.80929 -0.178819 0.55953
    outer loop
      vertex 66.6143 -93.9907 7.05559
      vertex 66.7546 -91.5 7.64866
      vertex 64.9753 -93.5736 9.5595
    endloop
  endfacet
  facet normal 0.809313 -0.178812 0.559498
    outer loop
      vertex 66.7546 -91.5 7.64866
      vertex 66.6143 -93.9907 7.05559
      vertex 67.3514 -91.5 6.78539
    endloop
  endfacet
  facet normal 0.802996 -0.159981 0.574111
    outer loop
      vertex 66.7546 -91.5 7.64866
      vertex 65.5222 -91.5 9.37239
      vertex 64.9753 -93.5736 9.5595
    endloop
  endfacet
  facet normal 0.822627 -0.140983 0.550825
    outer loop
      vertex 65.6509 -97.6763 7.50045
      vertex 64.9753 -93.5736 9.5595
      vertex 64.1016 -97.2694 9.91839
    endloop
  endfacet
  facet normal 0.816411 -0.145968 0.558719
    outer loop
      vertex 65.6509 -97.6763 7.50045
      vertex 66.6143 -93.9907 7.05559
      vertex 64.9753 -93.5736 9.5595
    endloop
  endfacet
  facet normal 0.898075 -0.226383 0.37711
    outer loop
      vertex 66.6383 -98.2168 4.82452
      vertex 67.7546 -94.5869 4.34515
      vertex 65.6509 -97.6763 7.50045
    endloop
  endfacet
  facet normal 0.89119 -0.182844 0.415149
    outer loop
      vertex 67.7546 -94.5869 4.34515
      vertex 66.6143 -93.9907 7.05559
      vertex 65.6509 -97.6763 7.50045
    endloop
  endfacet
  facet normal 0.865443 -0.230705 0.44473
    outer loop
      vertex 67.7546 -94.5869 4.34515
      vertex 68.7564 -91.5 3.99699
      vertex 67.6885 -91.5 6.07512
    endloop
  endfacet
  facet normal 0.882159 -0.215647 0.41868
    outer loop
      vertex 66.6143 -93.9907 7.05559
      vertex 67.6885 -91.5 6.07512
      vertex 67.3514 -91.5 6.78539
    endloop
  endfacet
  facet normal 0.88219 -0.215696 0.418589
    outer loop
      vertex 67.6885 -91.5 6.07512
      vertex 66.6143 -93.9907 7.05559
      vertex 67.7546 -94.5869 4.34515
    endloop
  endfacet
  facet normal 0.912231 -0.235944 0.33491
    outer loop
      vertex 65.326 -102.004 5.33656
      vertex 65.6509 -97.6763 7.50045
      vertex 64.482 -101.562 7.94684
    endloop
  endfacet
  facet normal 0.88877 -0.256619 0.379783
    outer loop
      vertex 66.6383 -98.2168 4.82452
      vertex 65.6509 -97.6763 7.50045
      vertex 65.326 -102.004 5.33656
    endloop
  endfacet
  facet normal 0.929855 -0.361622 0.0678201
    outer loop
      vertex 65.4034 -102.336 2.50511
      vertex 66.8825 -98.6362 1.95336
      vertex 65.326 -102.004 5.33656
    endloop
  endfacet
  facet normal 0.942547 -0.309647 0.125397
    outer loop
      vertex 66.8825 -98.6362 1.95336
      vertex 66.6383 -98.2168 4.82452
      vertex 65.326 -102.004 5.33656
    endloop
  endfacet
  facet normal 0.932144 -0.310642 0.186037
    outer loop
      vertex 68.1663 -95.0615 1.48983
      vertex 67.7546 -94.5869 4.34515
      vertex 66.8825 -98.6362 1.95336
    endloop
  endfacet
  facet normal 0.953133 -0.277066 0.121539
    outer loop
      vertex 66.8825 -98.6362 1.95336
      vertex 67.7546 -94.5869 4.34515
      vertex 66.6383 -98.2168 4.82452
    endloop
  endfacet
  facet normal 0.92456 -0.379996 0.0281321
    outer loop
      vertex 65.326 -102.004 5.33656
      vertex 63.516 -106.374 5.79406
      vertex 63.459 -106.715 3.06128
    endloop
  endfacet
  facet normal 0.914949 -0.397172 0.071581
    outer loop
      vertex 65.4034 -102.336 2.50511
      vertex 65.326 -102.004 5.33656
      vertex 63.459 -106.715 3.06128
    endloop
  endfacet
  facet normal 0.864812 -0.440733 -0.240528
    outer loop
      vertex 63.459 -106.715 3.06128
      vertex 63.821 -104.334 0
      vertex 64.6043 -102.797 0
    endloop
  endfacet
  facet normal 0.864808 -0.440739 -0.240533
    outer loop
      vertex 63.821 -104.334 0
      vertex 63.459 -106.715 3.06128
      vertex 62.6929 -106.746 0.363657
    endloop
  endfacet
  facet normal 0.884518 -0.419032 -0.205039
    outer loop
      vertex 65.4034 -102.336 2.50511
      vertex 64.6043 -102.797 0
      vertex 64.7829 -102.42 0
    endloop
  endfacet
  facet normal 0.884597 -0.418835 -0.2051
    outer loop
      vertex 64.6043 -102.797 0
      vertex 65.4034 -102.336 2.50511
      vertex 63.459 -106.715 3.06128
    endloop
  endfacet
  facet normal 0.894303 -0.418868 -0.157392
    outer loop
      vertex 66.502 -98.7146 0
      vertex 66.8825 -98.6362 1.95336
      vertex 64.9899 -101.943 0
    endloop
  endfacet
  facet normal 0.896855 -0.389738 -0.209179
    outer loop
      vertex 65.4034 -102.336 2.50511
      vertex 64.9899 -101.943 0
      vertex 66.8825 -98.6362 1.95336
    endloop
  endfacet
  facet normal 0.897058 -0.389289 -0.209142
    outer loop
      vertex 64.9899 -101.943 0
      vertex 65.4034 -102.336 2.50511
      vertex 64.7829 -102.42 0
    endloop
  endfacet
  facet normal 0.838076 -0.488223 -0.243449
    outer loop
      vertex 63.459 -106.715 3.06128
      vertex 60.7758 -111.605 3.63094
      vertex 60.0492 -111.572 1.06343
    endloop
  endfacet
  facet normal 0.838413 -0.492989 -0.232436
    outer loop
      vertex 62.6929 -106.746 0.363657
      vertex 63.459 -106.715 3.06128
      vertex 60.0492 -111.572 1.06343
    endloop
  endfacet
  facet normal 0.740522 -0.481215 -0.469104
    outer loop
      vertex 60.5043 -109.835 0
      vertex 60.0492 -111.572 1.06343
      vertex 59.5328 -111.33 0
    endloop
  endfacet
  facet normal 0.749681 -0.477174 -0.458567
    outer loop
      vertex 62.6929 -106.746 0.363657
      vertex 60.5043 -109.835 0
      vertex 62.4991 -106.701 0
    endloop
  endfacet
  facet normal 0.749677 -0.47717 -0.458578
    outer loop
      vertex 60.5043 -109.835 0
      vertex 62.6929 -106.746 0.363657
      vertex 60.0492 -111.572 1.06343
    endloop
  endfacet
  facet normal 0.772823 -0.431599 -0.46526
    outer loop
      vertex 63.821 -104.334 0
      vertex 62.6929 -106.746 0.363657
      vertex 62.4991 -106.701 0
    endloop
  endfacet
  facet normal 0.636256 -0.633108 -0.440854
    outer loop
      vertex 56.2979 -115.819 1.74852
      vertex 56.8506 -114.046 0
      vertex 60.0492 -111.572 1.06343
    endloop
  endfacet
  facet normal 0.636345 -0.633067 -0.440785
    outer loop
      vertex 56.8506 -114.046 0
      vertex 56.2979 -115.819 1.74852
      vertex 55.5563 -115.347 0
    endloop
  endfacet
  facet normal 0.635022 -0.627119 -0.451076
    outer loop
      vertex 59.5328 -111.33 0
      vertex 60.0492 -111.572 1.06343
      vertex 56.8506 -114.046 0
    endloop
  endfacet
  facet normal 0.464552 -0.781877 -0.415763
    outer loop
      vertex 51.2197 -117.904 0
      vertex 51.8257 -118.74 2.24928
      vertex 51.1103 -117.969 0
    endloop
  endfacet
  facet normal 0.464249 -0.782064 -0.415751
    outer loop
      vertex 51.8257 -118.74 2.24928
      vertex 51.2197 -117.904 0
      vertex 56.2979 -115.819 1.74852
    endloop
  endfacet
  facet normal 0.463532 -0.786138 -0.40881
    outer loop
      vertex 55.5563 -115.347 0
      vertex 56.2979 -115.819 1.74852
      vertex 51.2197 -117.904 0
    endloop
  endfacet
  facet normal 0.53127 -0.835465 -0.140534
    outer loop
      vertex 56.2979 -115.819 1.74852
      vertex 56.9637 -115.814 4.23576
      vertex 52.2898 -118.868 4.72254
    endloop
  endfacet
  facet normal 0.529991 -0.835909 -0.142712
    outer loop
      vertex 56.2979 -115.819 1.74852
      vertex 52.2898 -118.868 4.72254
      vertex 51.8257 -118.74 2.24928
    endloop
  endfacet
  facet normal 0.350101 -0.914961 -0.20069
    outer loop
      vertex 52.2898 -118.868 4.72254
      vertex 47.0266 -120.903 4.81868
      vertex 46.8876 -120.41 2.32857
    endloop
  endfacet
  facet normal 0.316921 -0.942256 -0.108234
    outer loop
      vertex 51.8257 -118.74 2.24928
      vertex 52.2898 -118.868 4.72254
      vertex 46.8876 -120.41 2.32857
    endloop
  endfacet
  facet normal 0.249011 -0.858886 -0.447558
    outer loop
      vertex 51.0218 -117.998 0
      vertex 46.8876 -120.41 2.32857
      vertex 46.562 -119.291 0
    endloop
  endfacet
  facet normal 0.289141 -0.873564 -0.391514
    outer loop
      vertex 51.0218 -117.998 0
      vertex 51.8257 -118.74 2.24928
      vertex 46.8876 -120.41 2.32857
    endloop
  endfacet
  facet normal 0.286607 -0.874645 -0.390965
    outer loop
      vertex 51.8257 -118.74 2.24928
      vertex 51.0218 -117.998 0
      vertex 51.1103 -117.969 0
    endloop
  endfacet
  facet normal 0.391577 -0.897987 0.200718
    outer loop
      vertex 52.2898 -118.868 4.72254
      vertex 52.3216 -118.299 7.20613
      vertex 46.9095 -120.635 7.31352
    endloop
  endfacet
  facet normal 0.360028 -0.92566 0.116335
    outer loop
      vertex 47.0266 -120.903 4.81868
      vertex 52.2898 -118.868 4.72254
      vertex 46.9095 -120.635 7.31352
    endloop
  endfacet
  facet normal 0.173913 -0.981 0.085981
    outer loop
      vertex 41.7339 -121.806 4.42161
      vertex 46.9095 -120.635 7.31352
      vertex 41.3852 -121.644 6.97526
    endloop
  endfacet
  facet normal 0.158878 -0.980831 0.11282
    outer loop
      vertex 47.0266 -120.903 4.81868
      vertex 46.9095 -120.635 7.31352
      vertex 41.7339 -121.806 4.42161
    endloop
  endfacet
  facet normal 0.151493 -0.952947 -0.262568
    outer loop
      vertex 41.9933 -121.072 1.90734
      vertex 46.8876 -120.41 2.32857
      vertex 41.7339 -121.806 4.42161
    endloop
  endfacet
  facet normal 0.179372 -0.963094 -0.200689
    outer loop
      vertex 46.8876 -120.41 2.32857
      vertex 47.0266 -120.903 4.81868
      vertex 41.7339 -121.806 4.42161
    endloop
  endfacet
  facet normal -0.0753093 -0.996984 0.0187313
    outer loop
      vertex 36 -121.268 5.33684
      vertex 41.3852 -121.644 6.97526
      vertex 36 -121.252 6.18845
    endloop
  endfacet
  facet normal -0.0750812 -0.997015 0.0179743
    outer loop
      vertex 41.3852 -121.644 6.97526
      vertex 36 -121.268 5.33684
      vertex 36.4708 -121.336 3.53155
    endloop
  endfacet
  facet normal -0.0971868 -0.99402 0.0497884
    outer loop
      vertex 41.7339 -121.806 4.42161
      vertex 41.3852 -121.644 6.97526
      vertex 36.4708 -121.336 3.53155
    endloop
  endfacet
  facet normal -0.0421508 -0.953539 -0.298306
    outer loop
      vertex 37.1927 -120.575 0.997002
      vertex 41.9933 -121.072 1.90734
      vertex 36.4708 -121.336 3.53155
    endloop
  endfacet
  facet normal -0.0376059 -0.958202 -0.283611
    outer loop
      vertex 41.9933 -121.072 1.90734
      vertex 41.7339 -121.806 4.42161
      vertex 36.4708 -121.336 3.53155
    endloop
  endfacet
  facet normal -0.21512 -0.976396 -0.0193229
    outer loop
      vertex 36 -121.23 3.41668
      vertex 36.4708 -121.336 3.53155
      vertex 36 -121.268 5.33684
    endloop
  endfacet
  facet normal -0.134993 -0.933773 -0.331429
    outer loop
      vertex 36 -120.292 0.685469
      vertex 37.1927 -120.575 0.997002
      vertex 36 -120.489 1.2405
    endloop
  endfacet
  facet normal -0.133287 -0.938181 -0.319455
    outer loop
      vertex 36 -120.489 1.2405
      vertex 36.4708 -121.336 3.53155
      vertex 36 -121.23 3.41668
    endloop
  endfacet
  facet normal -0.132887 -0.938206 -0.319547
    outer loop
      vertex 36.4708 -121.336 3.53155
      vertex 36 -120.489 1.2405
      vertex 37.1927 -120.575 0.997002
    endloop
  endfacet
  facet normal 0.222025 -0.314435 0.922949
    outer loop
      vertex 45.9045 -100.589 18.4253
      vertex 44.2507 -98.5811 19.5072
      vertex 42.4136 -98.7714 19.8843
    endloop
  endfacet
  facet normal 0.227454 -0.305385 0.924665
    outer loop
      vertex 43.8086 -101.721 18.567
      vertex 45.9045 -100.589 18.4253
      vertex 42.4136 -98.7714 19.8843
    endloop
  endfacet
  facet normal 0.715471 -0.666006 -0.211037
    outer loop
      vertex 60.0492 -111.572 1.06343
      vertex 60.7758 -111.605 3.63094
      vertex 56.2979 -115.819 1.74852
    endloop
  endfacet
  facet normal 0.713998 -0.673939 -0.189773
    outer loop
      vertex 60.7758 -111.605 3.63094
      vertex 56.9637 -115.814 4.23576
      vertex 56.2979 -115.819 1.74852
    endloop
  endfacet
  facet normal 0.597089 -0.520792 0.610132
    outer loop
      vertex 60.3301 -110.288 8.68867
      vertex 59.0727 -109.278 10.7813
      vertex 56.6224 -114.055 9.1017
    endloop
  endfacet
  facet normal 0.539357 -0.511777 0.668714
    outer loop
      vertex 56.6224 -114.055 9.1017
      vertex 59.0727 -109.278 10.7813
      vertex 55.4406 -112.706 11.0873
    endloop
  endfacet
  facet normal 0.450782 -0.258049 0.854521
    outer loop
      vertex 54.8162 -93.1819 17.6187
      vertex 56.7054 -91.5 17.13
      vertex 55.4956 -91.5 17.7682
    endloop
  endfacet
  facet normal 0.450793 -0.258064 0.854511
    outer loop
      vertex 56.7054 -91.5 17.13
      vertex 54.8162 -93.1819 17.6187
      vertex 57.808 -93.3971 15.9754
    endloop
  endfacet
  facet normal 0.520089 -0.202696 0.829712
    outer loop
      vertex 57.808 -93.3971 15.9754
      vertex 58.4325 -91.5 16.0474
      vertex 56.7054 -91.5 17.13
    endloop
  endfacet
  facet normal 0.558522 -0.143925 0.816908
    outer loop
      vertex 59.9506 -91.5 14.8447
      vertex 60.5918 -93.4486 14.063
      vertex 61.1305 -91.5 14.038
    endloop
  endfacet
  facet normal 0.55853 -0.143921 0.816904
    outer loop
      vertex 60.5918 -93.4486 14.063
      vertex 59.9506 -91.5 14.8447
      vertex 57.808 -93.3971 15.9754
    endloop
  endfacet
  facet normal 0.604624 -0.227999 0.763182
    outer loop
      vertex 59.9506 -91.5 14.8447
      vertex 58.4325 -91.5 16.0474
      vertex 57.808 -93.3971 15.9754
    endloop
  endfacet
  facet normal 0.490643 -0.199814 0.848141
    outer loop
      vertex 59.6383 -96.8543 14.1021
      vertex 57.808 -93.3971 15.9754
      vertex 56.7504 -96.5556 15.8431
    endloop
  endfacet
  facet normal 0.558242 -0.146917 0.816566
    outer loop
      vertex 59.6383 -96.8543 14.1021
      vertex 60.5918 -93.4486 14.063
      vertex 57.808 -93.3971 15.9754
    endloop
  endfacet
  facet normal 0.616647 -0.104384 0.780288
    outer loop
      vertex 62.1139 -97.0485 12.1197
      vertex 62.9952 -93.4449 11.9053
      vertex 59.6383 -96.8543 14.1021
    endloop
  endfacet
  facet normal 0.657798 -0.175756 0.732401
    outer loop
      vertex 62.9952 -93.4449 11.9053
      vertex 60.5918 -93.4486 14.063
      vertex 59.6383 -96.8543 14.1021
    endloop
  endfacet
  facet normal 0.697266 -0.136613 0.703674
    outer loop
      vertex 62.9952 -93.4449 11.9053
      vertex 63.4906 -91.5 11.792
      vertex 62.129 -91.5 13.1412
    endloop
  endfacet
  facet normal 0.65818 -0.172555 0.732819
    outer loop
      vertex 60.5918 -93.4486 14.063
      vertex 62.129 -91.5 13.1412
      vertex 61.1305 -91.5 14.038
    endloop
  endfacet
  facet normal 0.658174 -0.172548 0.732826
    outer loop
      vertex 62.129 -91.5 13.1412
      vertex 60.5918 -93.4486 14.063
      vertex 62.9952 -93.4449 11.9053
    endloop
  endfacet
  facet normal 0.553527 -0.185261 0.811964
    outer loop
      vertex 60.9893 -100.773 12.287
      vertex 59.6383 -96.8543 14.1021
      vertex 58.4918 -100.332 14.0902
    endloop
  endfacet
  facet normal 0.610864 -0.149524 0.777488
    outer loop
      vertex 60.9893 -100.773 12.287
      vertex 62.1139 -97.0485 12.1197
      vertex 59.6383 -96.8543 14.1021
    endloop
  endfacet
  facet normal 0.691246 -0.133988 0.710089
    outer loop
      vertex 63.0089 -101.154 10.2491
      vertex 64.1016 -97.2694 9.91839
      vertex 60.9893 -100.773 12.287
    endloop
  endfacet
  facet normal 0.71965 -0.187263 0.668608
    outer loop
      vertex 64.1016 -97.2694 9.91839
      vertex 62.1139 -97.0485 12.1197
      vertex 60.9893 -100.773 12.287
    endloop
  endfacet
  facet normal 0.755841 -0.116109 0.644379
    outer loop
      vertex 64.1016 -97.2694 9.91839
      vertex 64.9753 -93.5736 9.5595
      vertex 62.9952 -93.4449 11.9053
    endloop
  endfacet
  facet normal 0.72815 -0.138134 0.671354
    outer loop
      vertex 64.1016 -97.2694 9.91839
      vertex 62.9952 -93.4449 11.9053
      vertex 62.1139 -97.0485 12.1197
    endloop
  endfacet
  facet normal 0.642844 -0.222411 0.732997
    outer loop
      vertex 61.4701 -105.219 10.5163
      vertex 60.9893 -100.773 12.287
      vertex 59.5229 -104.58 12.4179
    endloop
  endfacet
  facet normal 0.674806 -0.208921 0.707806
    outer loop
      vertex 61.4701 -105.219 10.5163
      vertex 63.0089 -101.154 10.2491
      vertex 60.9893 -100.773 12.287
    endloop
  endfacet
  facet normal 0.788107 -0.255671 0.559928
    outer loop
      vertex 62.8368 -105.825 8.31594
      vertex 64.482 -101.562 7.94684
      vertex 61.4701 -105.219 10.5163
    endloop
  endfacet
  facet normal 0.79083 -0.263042 0.552628
    outer loop
      vertex 64.482 -101.562 7.94684
      vertex 63.0089 -101.154 10.2491
      vertex 61.4701 -105.219 10.5163
    endloop
  endfacet
  facet normal 0.813862 -0.181412 0.552013
    outer loop
      vertex 64.482 -101.562 7.94684
      vertex 65.6509 -97.6763 7.50045
      vertex 64.1016 -97.2694 9.91839
    endloop
  endfacet
  facet normal 0.813364 -0.181743 0.552638
    outer loop
      vertex 64.482 -101.562 7.94684
      vertex 64.1016 -97.2694 9.91839
      vertex 63.0089 -101.154 10.2491
    endloop
  endfacet
  facet normal 0.703001 -0.3758 0.603791
    outer loop
      vertex 60.3301 -110.288 8.68867
      vertex 61.4701 -105.219 10.5163
      vertex 59.0727 -109.278 10.7813
    endloop
  endfacet
  facet normal 0.740547 -0.369034 0.561608
    outer loop
      vertex 62.8368 -105.825 8.31594
      vertex 61.4701 -105.219 10.5163
      vertex 60.3301 -110.288 8.68867
    endloop
  endfacet
  facet normal 0.836543 -0.427304 0.342939
    outer loop
      vertex 60.8938 -111.134 6.2595
      vertex 63.516 -106.374 5.79406
      vertex 60.3301 -110.288 8.68867
    endloop
  endfacet
  facet normal 0.83673 -0.443084 0.321807
    outer loop
      vertex 63.516 -106.374 5.79406
      vertex 62.8368 -105.825 8.31594
      vertex 60.3301 -110.288 8.68867
    endloop
  endfacet
  facet normal 0.880747 -0.329146 0.340512
    outer loop
      vertex 65.326 -102.004 5.33656
      vertex 64.482 -101.562 7.94684
      vertex 63.516 -106.374 5.79406
    endloop
  endfacet
  facet normal 0.895526 -0.318717 0.310569
    outer loop
      vertex 63.516 -106.374 5.79406
      vertex 64.482 -101.562 7.94684
      vertex 62.8368 -105.825 8.31594
    endloop
  endfacet
  facet normal 0.665886 -0.607997 0.43236
    outer loop
      vertex 57.1156 -115.17 6.77417
      vertex 60.3301 -110.288 8.68867
      vertex 56.6224 -114.055 9.1017
    endloop
  endfacet
  facet normal 0.700325 -0.607872 0.374215
    outer loop
      vertex 60.8938 -111.134 6.2595
      vertex 60.3301 -110.288 8.68867
      vertex 57.1156 -115.17 6.77417
    endloop
  endfacet
  facet normal 0.744311 -0.656588 0.122038
    outer loop
      vertex 60.7758 -111.605 3.63094
      vertex 57.1156 -115.17 6.77417
      vertex 56.9637 -115.814 4.23576
    endloop
  endfacet
  facet normal 0.73278 -0.67475 0.0880099
    outer loop
      vertex 60.7758 -111.605 3.63094
      vertex 60.8938 -111.134 6.2595
      vertex 57.1156 -115.17 6.77417
    endloop
  endfacet
  facet normal 0.877964 -0.47695 0.0412019
    outer loop
      vertex 63.459 -106.715 3.06128
      vertex 63.516 -106.374 5.79406
      vertex 60.7758 -111.605 3.63094
    endloop
  endfacet
  facet normal 0.876857 -0.47851 0.0463786
    outer loop
      vertex 63.516 -106.374 5.79406
      vertex 60.8938 -111.134 6.2595
      vertex 60.7758 -111.605 3.63094
    endloop
  endfacet
  facet normal 0.500804 -0.721245 0.47854
    outer loop
      vertex 52.3216 -118.299 7.20613
      vertex 56.6224 -114.055 9.1017
      vertex 51.8318 -117.14 9.46554
    endloop
  endfacet
  facet normal 0.51474 -0.7256 0.45667
    outer loop
      vertex 57.1156 -115.17 6.77417
      vertex 56.6224 -114.055 9.1017
      vertex 52.3216 -118.299 7.20613
    endloop
  endfacet
  facet normal 0.551142 -0.814847 0.179628
    outer loop
      vertex 56.9637 -115.814 4.23576
      vertex 52.3216 -118.299 7.20613
      vertex 52.2898 -118.868 4.72254
    endloop
  endfacet
  facet normal 0.549164 -0.817296 0.174487
    outer loop
      vertex 56.9637 -115.814 4.23576
      vertex 57.1156 -115.17 6.77417
      vertex 52.3216 -118.299 7.20613
    endloop
  endfacet
  facet normal 0.42265 -0.612693 0.667813
    outer loop
      vertex 56.6224 -114.055 9.1017
      vertex 55.4406 -112.706 11.0873
      vertex 50.8117 -115.579 11.381
    endloop
  endfacet
  facet normal 0.424902 -0.577612 0.69701
    outer loop
      vertex 51.8318 -117.14 9.46554
      vertex 56.6224 -114.055 9.1017
      vertex 50.8117 -115.579 11.381
    endloop
  endfacet
  facet normal 0.305413 -0.644931 0.700562
    outer loop
      vertex 46.5064 -119.554 9.59856
      vertex 50.8117 -115.579 11.381
      vertex 45.7711 -117.792 11.5412
    endloop
  endfacet
  facet normal 0.311386 -0.648664 0.694459
    outer loop
      vertex 51.8318 -117.14 9.46554
      vertex 50.8117 -115.579 11.381
      vertex 46.5064 -119.554 9.59856
    endloop
  endfacet
  facet normal 0.361395 -0.816599 0.450067
    outer loop
      vertex 46.9095 -120.635 7.31352
      vertex 52.3216 -118.299 7.20613
      vertex 46.5064 -119.554 9.59856
    endloop
  endfacet
  facet normal 0.370811 -0.791233 0.486261
    outer loop
      vertex 52.3216 -118.299 7.20613
      vertex 51.8318 -117.14 9.46554
      vertex 46.5064 -119.554 9.59856
    endloop
  endfacet
  facet normal 0.121534 -0.730167 0.672373
    outer loop
      vertex 40.9908 -120.595 9.36132
      vertex 45.7711 -117.792 11.5412
      vertex 40.4679 -118.798 11.4073
    endloop
  endfacet
  facet normal 0.105539 -0.716364 0.689699
    outer loop
      vertex 46.5064 -119.554 9.59856
      vertex 45.7711 -117.792 11.5412
      vertex 40.9908 -120.595 9.36132
    endloop
  endfacet
  facet normal 0.138441 -0.897989 0.417672
    outer loop
      vertex 41.3852 -121.644 6.97526
      vertex 46.9095 -120.635 7.31352
      vertex 40.9908 -120.595 9.36132
    endloop
  endfacet
  facet normal 0.147687 -0.883713 0.444117
    outer loop
      vertex 46.9095 -120.635 7.31352
      vertex 46.5064 -119.554 9.59856
      vertex 40.9908 -120.595 9.36132
    endloop
  endfacet
  facet normal -0.0865946 -0.795257 0.600056
    outer loop
      vertex 40.4679 -118.798 11.4073
      vertex 36 -118.661 10.9441
      vertex 36 -120.105 9.03036
    endloop
  endfacet
  facet normal -0.117028 -0.76082 0.638324
    outer loop
      vertex 36 -120.105 9.03036
      vertex 40.9908 -120.595 9.36132
      vertex 40.4679 -118.798 11.4073
    endloop
  endfacet
  facet normal -0.117026 -0.760742 0.638418
    outer loop
      vertex 40.9908 -120.595 9.36132
      vertex 36 -120.105 9.03036
      vertex 36 -120.348 8.7408
    endloop
  endfacet
  facet normal -0.115739 -0.938801 0.324435
    outer loop
      vertex 41.3852 -121.644 6.97526
      vertex 36 -120.468 8.45707
      vertex 36 -121.252 6.18845
    endloop
  endfacet
  facet normal -0.0936007 -0.91697 0.387821
    outer loop
      vertex 36 -120.468 8.45707
      vertex 40.9908 -120.595 9.36132
      vertex 36 -120.348 8.7408
    endloop
  endfacet
  facet normal -0.0935786 -0.917027 0.387691
    outer loop
      vertex 40.9908 -120.595 9.36132
      vertex 36 -120.468 8.45707
      vertex 41.3852 -121.644 6.97526
    endloop
  endfacet
  facet normal -0.0821438 -0.597728 0.797479
    outer loop
      vertex 36 -116.874 12.3871
      vertex 39.7747 -116.434 13.1057
      vertex 36 -116.351 12.7791
    endloop
  endfacet
  facet normal -0.082255 -0.597291 0.797796
    outer loop
      vertex 39.7747 -116.434 13.1057
      vertex 36 -116.874 12.3871
      vertex 40.4679 -118.798 11.4073
    endloop
  endfacet
  facet normal -0.0994279 -0.625133 0.77416
    outer loop
      vertex 40.4679 -118.798 11.4073
      vertex 36 -116.874 12.3871
      vertex 36 -118.661 10.9441
    endloop
  endfacet
  facet normal 0.245003 -0.256399 0.935004
    outer loop
      vertex 48.9516 -91.628 20.2992
      vertex 48.881 -91.5 20.3528
      vertex 48.6234 -91.5 20.4203
    endloop
  endfacet
  facet normal 0.253625 -0.251264 0.934099
    outer loop
      vertex 48.9516 -91.628 20.2992
      vertex 49.0239 -91.5 20.314
      vertex 48.881 -91.5 20.3528
    endloop
  endfacet
  facet normal 0.308895 -0.254275 0.916476
    outer loop
      vertex 49.2827 -91.5 20.2231
      vertex 51.8723 -92.6753 19.0242
      vertex 52.4158 -91.5 19.1671
    endloop
  endfacet
  facet normal 0.308923 -0.254219 0.916482
    outer loop
      vertex 51.8723 -92.6753 19.0242
      vertex 49.2827 -91.5 20.2231
      vertex 48.9516 -91.628 20.2992
    endloop
  endfacet
  facet normal 0.317738 -0.284069 0.904626
    outer loop
      vertex 49.2827 -91.5 20.2231
      vertex 49.0239 -91.5 20.314
      vertex 48.9516 -91.628 20.2992
    endloop
  endfacet
  facet normal 0.27764 -0.28052 0.918817
    outer loop
      vertex 50.5473 -95.1534 18.7407
      vertex 48.9516 -91.628 20.2992
      vertex 47.5728 -93.538 20.1327
    endloop
  endfacet
  facet normal 0.30356 -0.266947 0.914653
    outer loop
      vertex 50.5473 -95.1534 18.7407
      vertex 51.8723 -92.6753 19.0242
      vertex 48.9516 -91.628 20.2992
    endloop
  endfacet
  facet normal 0.343273 -0.224217 0.91208
    outer loop
      vertex 53.6198 -96.0708 17.3588
      vertex 54.8162 -93.1819 17.6187
      vertex 50.5473 -95.1534 18.7407
    endloop
  endfacet
  facet normal 0.369017 -0.298021 0.880346
    outer loop
      vertex 54.8162 -93.1819 17.6187
      vertex 51.8723 -92.6753 19.0242
      vertex 50.5473 -95.1534 18.7407
    endloop
  endfacet
  facet normal 0.421587 -0.247832 0.872264
    outer loop
      vertex 54.8162 -93.1819 17.6187
      vertex 55.4956 -91.5 17.7682
      vertex 53.9004 -91.5 18.5392
    endloop
  endfacet
  facet normal 0.373908 -0.280398 0.884064
    outer loop
      vertex 51.8723 -92.6753 19.0242
      vertex 53.9004 -91.5 18.5392
      vertex 52.4158 -91.5 19.1671
    endloop
  endfacet
  facet normal 0.373864 -0.280303 0.884113
    outer loop
      vertex 53.9004 -91.5 18.5392
      vertex 51.8723 -92.6753 19.0242
      vertex 54.8162 -93.1819 17.6187
    endloop
  endfacet
  facet normal 0.282388 -0.272252 0.919857
    outer loop
      vertex 52.3193 -98.8896 17.0909
      vertex 50.5473 -95.1534 18.7407
      vertex 49.1191 -97.3149 18.5394
    endloop
  endfacet
  facet normal 0.336991 -0.241953 0.909888
    outer loop
      vertex 52.3193 -98.8896 17.0909
      vertex 53.6198 -96.0708 17.3588
      vertex 50.5473 -95.1534 18.7407
    endloop
  endfacet
  facet normal 0.353748 -0.180992 0.917662
    outer loop
      vertex 55.5684 -99.746 15.6695
      vertex 56.7504 -96.5556 15.8431
      vertex 52.3193 -98.8896 17.0909
    endloop
  endfacet
  facet normal 0.387218 -0.262645 0.883787
    outer loop
      vertex 56.7504 -96.5556 15.8431
      vertex 53.6198 -96.0708 17.3588
      vertex 52.3193 -98.8896 17.0909
    endloop
  endfacet
  facet normal 0.461978 -0.190968 0.866088
    outer loop
      vertex 56.7504 -96.5556 15.8431
      vertex 57.808 -93.3971 15.9754
      vertex 54.8162 -93.1819 17.6187
    endloop
  endfacet
  facet normal 0.392145 -0.24224 0.887436
    outer loop
      vertex 56.7504 -96.5556 15.8431
      vertex 54.8162 -93.1819 17.6187
      vertex 53.6198 -96.0708 17.3588
    endloop
  endfacet
  facet normal 0.28329 -0.236668 0.929373
    outer loop
      vertex 54.186 -102.875 15.507
      vertex 52.3193 -98.8896 17.0909
      vertex 50.8394 -101.415 16.8989
    endloop
  endfacet
  facet normal 0.347625 -0.201142 0.915805
    outer loop
      vertex 54.186 -102.875 15.507
      vertex 55.5684 -99.746 15.6695
      vertex 52.3193 -98.8896 17.0909
    endloop
  endfacet
  facet normal 0.395547 -0.166518 0.903225
    outer loop
      vertex 57.0816 -103.838 14.0614
      vertex 58.4918 -100.332 14.0902
      vertex 54.186 -102.875 15.507
    endloop
  endfacet
  facet normal 0.425543 -0.233412 0.874318
    outer loop
      vertex 58.4918 -100.332 14.0902
      vertex 55.5684 -99.746 15.6695
      vertex 54.186 -102.875 15.507
    endloop
  endfacet
  facet normal 0.496391 -0.166561 0.85197
    outer loop
      vertex 58.4918 -100.332 14.0902
      vertex 59.6383 -96.8543 14.1021
      vertex 56.7504 -96.5556 15.8431
    endloop
  endfacet
  facet normal 0.432328 -0.207915 0.877419
    outer loop
      vertex 58.4918 -100.332 14.0902
      vertex 56.7504 -96.5556 15.8431
      vertex 55.5684 -99.746 15.6695
    endloop
  endfacet
  facet normal 0.301394 -0.268465 0.914925
    outer loop
      vertex 54.7456 -107.066 14.0929
      vertex 54.186 -102.875 15.507
      vertex 51.9338 -105.474 15.4863
    endloop
  endfacet
  facet normal 0.363079 -0.254001 0.896469
    outer loop
      vertex 54.7456 -107.066 14.0929
      vertex 57.0816 -103.838 14.0614
      vertex 54.186 -102.875 15.507
    endloop
  endfacet
  facet normal 0.431933 -0.245257 0.867919
    outer loop
      vertex 57.1667 -108.237 12.5571
      vertex 59.5229 -104.58 12.4179
      vertex 54.7456 -107.066 14.0929
    endloop
  endfacet
  facet normal 0.458655 -0.323839 0.827504
    outer loop
      vertex 59.5229 -104.58 12.4179
      vertex 57.0816 -103.838 14.0614
      vertex 54.7456 -107.066 14.0929
    endloop
  endfacet
  facet normal 0.553521 -0.185289 0.811962
    outer loop
      vertex 59.5229 -104.58 12.4179
      vertex 60.9893 -100.773 12.287
      vertex 58.4918 -100.332 14.0902
    endloop
  endfacet
  facet normal 0.501714 -0.208698 0.839481
    outer loop
      vertex 59.5229 -104.58 12.4179
      vertex 58.4918 -100.332 14.0902
      vertex 57.0816 -103.838 14.0614
    endloop
  endfacet
  facet normal 0.302826 -0.360278 0.882324
    outer loop
      vertex 53.6124 -111.248 12.7742
      vertex 54.7456 -107.066 14.0929
      vertex 51.2966 -109.533 14.2693
    endloop
  endfacet
  facet normal 0.364349 -0.368423 0.855286
    outer loop
      vertex 57.1667 -108.237 12.5571
      vertex 54.7456 -107.066 14.0929
      vertex 53.6124 -111.248 12.7742
    endloop
  endfacet
  facet normal 0.436651 -0.390294 0.81056
    outer loop
      vertex 55.4406 -112.706 11.0873
      vertex 59.0727 -109.278 10.7813
      vertex 53.6124 -111.248 12.7742
    endloop
  endfacet
  facet normal 0.447719 -0.473828 0.75831
    outer loop
      vertex 59.0727 -109.278 10.7813
      vertex 57.1667 -108.237 12.5571
      vertex 53.6124 -111.248 12.7742
    endloop
  endfacet
  facet normal 0.609301 -0.312292 0.728852
    outer loop
      vertex 61.4701 -105.219 10.5163
      vertex 59.5229 -104.58 12.4179
      vertex 59.0727 -109.278 10.7813
    endloop
  endfacet
  facet normal 0.545304 -0.321878 0.773975
    outer loop
      vertex 59.0727 -109.278 10.7813
      vertex 59.5229 -104.58 12.4179
      vertex 57.1667 -108.237 12.5571
    endloop
  endfacet
  facet normal 0.23908 -0.382426 0.892519
    outer loop
      vertex 49.3095 -113.725 13.0054
      vertex 51.2966 -109.533 14.2693
      vertex 47.4034 -111.495 14.4715
    endloop
  endfacet
  facet normal 0.27417 -0.394406 0.877083
    outer loop
      vertex 53.6124 -111.248 12.7742
      vertex 51.2966 -109.533 14.2693
      vertex 49.3095 -113.725 13.0054
    endloop
  endfacet
  facet normal 0.333894 -0.453484 0.826358
    outer loop
      vertex 50.8117 -115.579 11.381
      vertex 55.4406 -112.706 11.0873
      vertex 49.3095 -113.725 13.0054
    endloop
  endfacet
  facet normal 0.333067 -0.504216 0.796764
    outer loop
      vertex 55.4406 -112.706 11.0873
      vertex 53.6124 -111.248 12.7742
      vertex 49.3095 -113.725 13.0054
    endloop
  endfacet
  facet normal 0.17369 -0.404718 0.897795
    outer loop
      vertex 44.7008 -115.542 13.17
      vertex 47.4034 -111.495 14.4715
      vertex 43.2758 -112.933 14.6218
    endloop
  endfacet
  facet normal 0.195848 -0.416324 0.887872
    outer loop
      vertex 49.3095 -113.725 13.0054
      vertex 47.4034 -111.495 14.4715
      vertex 44.7008 -115.542 13.17
    endloop
  endfacet
  facet normal 0.242063 -0.490762 0.836993
    outer loop
      vertex 45.7711 -117.792 11.5412
      vertex 50.8117 -115.579 11.381
      vertex 44.7008 -115.542 13.17
    endloop
  endfacet
  facet normal 0.236195 -0.525022 0.817658
    outer loop
      vertex 50.8117 -115.579 11.381
      vertex 49.3095 -113.725 13.0054
      vertex 44.7008 -115.542 13.17
    endloop
  endfacet
  facet normal 0.0679826 -0.45294 0.888945
    outer loop
      vertex 39.7747 -116.434 13.1057
      vertex 43.2758 -112.933 14.6218
      vertex 38.8722 -113.654 14.5912
    endloop
  endfacet
  facet normal 0.0708408 -0.455201 0.887566
    outer loop
      vertex 44.7008 -115.542 13.17
      vertex 43.2758 -112.933 14.6218
      vertex 39.7747 -116.434 13.1057
    endloop
  endfacet
  facet normal 0.0863503 -0.564468 0.820926
    outer loop
      vertex 40.4679 -118.798 11.4073
      vertex 45.7711 -117.792 11.5412
      vertex 39.7747 -116.434 13.1057
    endloop
  endfacet
  facet normal 0.0898225 -0.555631 0.826563
    outer loop
      vertex 45.7711 -117.792 11.5412
      vertex 44.7008 -115.542 13.17
      vertex 39.7747 -116.434 13.1057
    endloop
  endfacet
  facet normal 0.0612786 -0.396016 0.916197
    outer loop
      vertex 43.2758 -112.933 14.6218
      vertex 41.6555 -110.004 15.9962
      vertex 37.8152 -110.595 15.9976
    endloop
  endfacet
  facet normal 0.0591448 -0.40005 0.914583
    outer loop
      vertex 38.8722 -113.654 14.5912
      vertex 43.2758 -112.933 14.6218
      vertex 37.8152 -110.595 15.9976
    endloop
  endfacet
  facet normal -0.0554081 -0.453031 0.889771
    outer loop
      vertex 37.8152 -110.595 15.9976
      vertex 36 -110.591 15.8866
      vertex 36 -112.175 15.0801
    endloop
  endfacet
  facet normal -0.0725459 -0.437208 0.89643
    outer loop
      vertex 36 -112.175 15.0801
      vertex 38.8722 -113.654 14.5912
      vertex 37.8152 -110.595 15.9976
    endloop
  endfacet
  facet normal -0.072488 -0.437113 0.896481
    outer loop
      vertex 38.8722 -113.654 14.5912
      vertex 36 -112.175 15.0801
      vertex 36 -113.609 14.3809
    endloop
  endfacet
  facet normal -0.0853022 -0.508993 0.856534
    outer loop
      vertex 39.7747 -116.434 13.1057
      vertex 36 -114.439 13.9153
      vertex 36 -116.351 12.7791
    endloop
  endfacet
  facet normal -0.0713408 -0.487997 0.869925
    outer loop
      vertex 36 -114.439 13.9153
      vertex 38.8722 -113.654 14.5912
      vertex 36 -113.609 14.3809
    endloop
  endfacet
  facet normal -0.0713379 -0.488004 0.869921
    outer loop
      vertex 38.8722 -113.654 14.5912
      vertex 36 -114.439 13.9153
      vertex 39.7747 -116.434 13.1057
    endloop
  endfacet
  facet normal -0.0393897 -0.409926 0.911268
    outer loop
      vertex 36 -109.332 16.4882
      vertex 36.8017 -107.415 17.3852
      vertex 36 -107.438 17.3402
    endloop
  endfacet
  facet normal -0.0390331 -0.410055 0.911225
    outer loop
      vertex 36.8017 -107.415 17.3852
      vertex 36 -109.332 16.4882
      vertex 37.8152 -110.595 15.9976
    endloop
  endfacet
  facet normal -0.0560367 -0.430469 0.900864
    outer loop
      vertex 37.8152 -110.595 15.9976
      vertex 36 -109.332 16.4882
      vertex 36 -110.591 15.8866
    endloop
  endfacet
endsolid OpenSCAD_Model
