solid OpenSCAD_Model
  facet normal 1 0 0
    outer loop
      vertex 18.6667 -56.1424 19.5696
      vertex 18.6667 -55.125 7.66667
      vertex 18.6667 -55.125 19.4352
    endloop
  endfacet
  facet normal 1 0 0
    outer loop
      vertex 18.6667 -57.9243 19.7572
      vertex 18.6667 -55.125 7.66667
      vertex 18.6667 -56.1424 19.5696
    endloop
  endfacet
  facet normal 1 0 0
    outer loop
      vertex 18.6667 -59.7176 19.95
      vertex 18.6667 -55.125 7.66667
      vertex 18.6667 -57.9243 19.7572
    endloop
  endfacet
  facet normal 1 0 0
    outer loop
      vertex 18.6667 -61.6442 20.1085
      vertex 18.6667 -55.125 7.66667
      vertex 18.6667 -59.7176 19.95
    endloop
  endfacet
  facet normal 1 0 0
    outer loop
      vertex 18.6667 -73.5 7.66667
      vertex 18.6667 -61.6442 20.1085
      vertex 18.6667 -65.9591 20.4727
    endloop
  endfacet
  facet normal 1 0 0
    outer loop
      vertex 18.6667 -73.5 7.66667
      vertex 18.6667 -65.9591 20.4727
      vertex 18.6667 -66.9485 20.5282
    endloop
  endfacet
  facet normal 1 0 0
    outer loop
      vertex 18.6667 -73.5 7.66667
      vertex 18.6667 -66.9485 20.5282
      vertex 18.6667 -67.9499 20.5872
    endloop
  endfacet
  facet normal 1 0 0
    outer loop
      vertex 18.6667 -73.5 7.66667
      vertex 18.6667 -67.9499 20.5872
      vertex 18.6667 -73.5 21.2184
    endloop
  endfacet
  facet normal 1 0 0
    outer loop
      vertex 18.6667 -61.6442 20.1085
      vertex 18.6667 -73.5 7.66667
      vertex 18.6667 -55.125 7.66667
    endloop
  endfacet
  facet normal 0 0 -1
    outer loop
      vertex 7.87677 -58.6483 7.66667
      vertex 18.6667 -55.125 7.66667
      vertex 18.6667 -73.5 7.66667
    endloop
  endfacet
  facet normal -0 0 -1
    outer loop
      vertex 18.6667 -55.125 7.66667
      vertex 7.87677 -58.6483 7.66667
      vertex 8.92338 -55.125 7.66667
    endloop
  endfacet
  facet normal 0 0 -1
    outer loop
      vertex 18.6667 -73.5 7.66667
      vertex 5.50808 -66.5453 7.66667
      vertex 7.87677 -58.6483 7.66667
    endloop
  endfacet
  facet normal 0 -0 -1
    outer loop
      vertex 5.50808 -66.5453 7.66667
      vertex 18.6667 -73.5 7.66667
      vertex 4.06242 -73.5 7.66667
    endloop
  endfacet
  facet normal 0 1 0
    outer loop
      vertex 18.6243 -55.125 19.4263
      vertex 17.8529 -55.125 19.2428
      vertex 18.0828 -55.125 19.317
    endloop
  endfacet
  facet normal 0 1 -0
    outer loop
      vertex 18.6667 -55.125 7.66667
      vertex 18.6243 -55.125 19.4263
      vertex 18.6667 -55.125 19.4352
    endloop
  endfacet
  facet normal 0 1 0
    outer loop
      vertex 18.6243 -55.125 19.4263
      vertex 18.6667 -55.125 7.66667
      vertex 17.8529 -55.125 19.2428
    endloop
  endfacet
  facet normal 0 1 0
    outer loop
      vertex 17.8529 -55.125 19.2428
      vertex 17.3344 -55.125 19.0689
      vertex 17.4463 -55.125 19.1152
    endloop
  endfacet
  facet normal 0 1 0
    outer loop
      vertex 17.8529 -55.125 19.2428
      vertex 16.9775 -55.125 18.9092
      vertex 17.3344 -55.125 19.0689
    endloop
  endfacet
  facet normal 0 1 0
    outer loop
      vertex 17.3344 -55.125 19.0689
      vertex 16.9775 -55.125 18.9092
      vertex 17.1405 -55.125 18.9907
    endloop
  endfacet
  facet normal 0 1 0
    outer loop
      vertex 17.8529 -55.125 19.2428
      vertex 18.6667 -55.125 7.66667
      vertex 16.9775 -55.125 18.9092
    endloop
  endfacet
  facet normal 0 1 0
    outer loop
      vertex 16.9775 -55.125 18.9092
      vertex 18.6667 -55.125 7.66667
      vertex 16.6985 -55.125 18.7724
    endloop
  endfacet
  facet normal 0 1 0
    outer loop
      vertex 16.6985 -55.125 18.7724
      vertex 18.6667 -55.125 7.66667
      vertex 15.9124 -55.125 18.2908
    endloop
  endfacet
  facet normal 0 1 0
    outer loop
      vertex 15.9124 -55.125 18.2908
      vertex 18.6667 -55.125 7.66667
      vertex 14.6052 -55.125 17.5046
    endloop
  endfacet
  facet normal 0 1 0
    outer loop
      vertex 14.6052 -55.125 17.5046
      vertex 18.6667 -55.125 7.66667
      vertex 14.2258 -55.125 17.2192
    endloop
  endfacet
  facet normal 0 1 0
    outer loop
      vertex 14.2258 -55.125 17.2192
      vertex 18.6667 -55.125 7.66667
      vertex 13.6334 -55.125 16.7809
    endloop
  endfacet
  facet normal 0 1 0
    outer loop
      vertex 13.6334 -55.125 16.7809
      vertex 18.6667 -55.125 7.66667
      vertex 13.3793 -55.125 16.55
    endloop
  endfacet
  facet normal -0 1 0
    outer loop
      vertex 12.8093 -55.125 16.0003
      vertex 13.3793 -55.125 16.55
      vertex 18.6667 -55.125 7.66667
    endloop
  endfacet
  facet normal 0 1 0
    outer loop
      vertex 13.3793 -55.125 16.55
      vertex 12.8093 -55.125 16.0003
      vertex 12.9942 -55.125 16.2055
    endloop
  endfacet
  facet normal -0 1 0
    outer loop
      vertex 12.4057 -55.125 15.5233
      vertex 12.8093 -55.125 16.0003
      vertex 18.6667 -55.125 7.66667
    endloop
  endfacet
  facet normal 0 1 0
    outer loop
      vertex 12.8093 -55.125 16.0003
      vertex 12.4057 -55.125 15.5233
      vertex 12.5344 -55.125 15.6999
    endloop
  endfacet
  facet normal -0 1 0
    outer loop
      vertex 11.9845 -55.125 14.8552
      vertex 12.4057 -55.125 15.5233
      vertex 18.6667 -55.125 7.66667
    endloop
  endfacet
  facet normal 0 1 0
    outer loop
      vertex 12.4057 -55.125 15.5233
      vertex 12.1518 -55.125 15.1592
      vertex 12.2172 -55.125 15.2679
    endloop
  endfacet
  facet normal 0 1 0
    outer loop
      vertex 12.4057 -55.125 15.5233
      vertex 11.9845 -55.125 14.8552
      vertex 12.1518 -55.125 15.1592
    endloop
  endfacet
  facet normal 0 1 0
    outer loop
      vertex 12.1518 -55.125 15.1592
      vertex 11.9845 -55.125 14.8552
      vertex 12.0569 -55.125 15.0034
    endloop
  endfacet
  facet normal 0 1 0
    outer loop
      vertex 11.9845 -55.125 14.8552
      vertex 18.6667 -55.125 7.66667
      vertex 11.8797 -55.125 14.6437
    endloop
  endfacet
  facet normal 0 1 0
    outer loop
      vertex 11.8797 -55.125 14.6437
      vertex 18.6667 -55.125 7.66667
      vertex 9.80379 -55.125 9.72747
    endloop
  endfacet
  facet normal 0 1 0
    outer loop
      vertex 9.80379 -55.125 9.72747
      vertex 18.6667 -55.125 7.66667
      vertex 8.92338 -55.125 7.66667
    endloop
  endfacet
  facet normal 0 -1 0
    outer loop
      vertex 15.5591 -73.5 21.267
      vertex 16.9011 -73.5 21.3219
      vertex 15.9319 -73.5 21.3111
    endloop
  endfacet
  facet normal 0 -1 0
    outer loop
      vertex 18.6667 -73.5 7.66667
      vertex 16.9011 -73.5 21.3219
      vertex 15.5591 -73.5 21.267
    endloop
  endfacet
  facet normal 0 -1 0
    outer loop
      vertex 16.9011 -73.5 21.3219
      vertex 18.6667 -73.5 7.66667
      vertex 17.518 -73.5 21.3351
    endloop
  endfacet
  facet normal 0 -1 0
    outer loop
      vertex 14.6324 -73.5 21.1273
      vertex 15.5591 -73.5 21.267
      vertex 14.991 -73.5 21.2059
    endloop
  endfacet
  facet normal 0 -1 -0
    outer loop
      vertex 15.5591 -73.5 21.267
      vertex 14.6324 -73.5 21.1273
      vertex 18.6667 -73.5 7.66667
    endloop
  endfacet
  facet normal 0 -1 0
    outer loop
      vertex 13.8212 -73.5 20.9239
      vertex 14.6324 -73.5 21.1273
      vertex 14.0961 -73.5 21.0157
    endloop
  endfacet
  facet normal 0 -1 -0
    outer loop
      vertex 14.6324 -73.5 21.1273
      vertex 13.8212 -73.5 20.9239
      vertex 18.6667 -73.5 7.66667
    endloop
  endfacet
  facet normal 0 -1 0
    outer loop
      vertex 13.2842 -73.5 20.7371
      vertex 13.8212 -73.5 20.9239
      vertex 13.4171 -73.5 20.7937
    endloop
  endfacet
  facet normal 0 -1 0
    outer loop
      vertex 12.8981 -73.5 20.5579
      vertex 13.8212 -73.5 20.9239
      vertex 13.2842 -73.5 20.7371
    endloop
  endfacet
  facet normal 0 -1 0
    outer loop
      vertex 12.8981 -73.5 20.5579
      vertex 13.2842 -73.5 20.7371
      vertex 13.0911 -73.5 20.6572
    endloop
  endfacet
  facet normal 0 -1 -0
    outer loop
      vertex 13.8212 -73.5 20.9239
      vertex 12.8981 -73.5 20.5579
      vertex 18.6667 -73.5 7.66667
    endloop
  endfacet
  facet normal 0 -1 0
    outer loop
      vertex 18.6667 -73.5 7.66667
      vertex 12.8981 -73.5 20.5579
      vertex 12.6198 -73.5 20.4181
    endloop
  endfacet
  facet normal 0 -1 0
    outer loop
      vertex 18.6667 -73.5 7.66667
      vertex 12.6198 -73.5 20.4181
      vertex 11.6995 -73.5 19.8391
    endloop
  endfacet
  facet normal 0 -1 0
    outer loop
      vertex 18.6667 -73.5 7.66667
      vertex 11.6995 -73.5 19.8391
      vertex 10.3884 -73.5 19.032
    endloop
  endfacet
  facet normal 0 -1 0
    outer loop
      vertex 18.6667 -73.5 7.66667
      vertex 10.3884 -73.5 19.032
      vertex 9.95158 -73.5 18.695
    endloop
  endfacet
  facet normal 0 -1 0
    outer loop
      vertex 9.06279 -73.5 17.9717
      vertex 9.95158 -73.5 18.695
      vertex 9.35308 -73.5 18.2419
    endloop
  endfacet
  facet normal 0 -1 -0
    outer loop
      vertex 9.95158 -73.5 18.695
      vertex 9.06279 -73.5 17.9717
      vertex 18.6667 -73.5 7.66667
    endloop
  endfacet
  facet normal 0 -1 0
    outer loop
      vertex 8.46199 -73.5 17.3758
      vertex 9.06279 -73.5 17.9717
      vertex 8.67222 -73.5 17.6144
    endloop
  endfacet
  facet normal 0 -1 0
    outer loop
      vertex 7.48536 -73.5 15.9137
      vertex 9.06279 -73.5 17.9717
      vertex 8.46199 -73.5 17.3758
    endloop
  endfacet
  facet normal 0 -1 0
    outer loop
      vertex 8.03675 -73.5 16.8589
      vertex 8.46199 -73.5 17.3758
      vertex 8.18246 -73.5 17.0634
    endloop
  endfacet
  facet normal 0 -1 0
    outer loop
      vertex 7.48536 -73.5 15.9137
      vertex 8.46199 -73.5 17.3758
      vertex 8.03675 -73.5 16.8589
    endloop
  endfacet
  facet normal 0 -1 0
    outer loop
      vertex 7.77081 -73.5 16.4675
      vertex 8.03675 -73.5 16.8589
      vertex 7.84464 -73.5 16.593
    endloop
  endfacet
  facet normal 0 -1 0
    outer loop
      vertex 7.59224 -73.5 16.1342
      vertex 8.03675 -73.5 16.8589
      vertex 7.77081 -73.5 16.4675
    endloop
  endfacet
  facet normal 0 -1 0
    outer loop
      vertex 7.59224 -73.5 16.1342
      vertex 7.77081 -73.5 16.4675
      vertex 7.67402 -73.5 16.305
    endloop
  endfacet
  facet normal 0 -1 0
    outer loop
      vertex 7.48536 -73.5 15.9137
      vertex 8.03675 -73.5 16.8589
      vertex 7.59224 -73.5 16.1342
    endloop
  endfacet
  facet normal 0 -1 -0
    outer loop
      vertex 9.06279 -73.5 17.9717
      vertex 7.48536 -73.5 15.9137
      vertex 18.6667 -73.5 7.66667
    endloop
  endfacet
  facet normal 0 -1 0
    outer loop
      vertex 18.6667 -73.5 7.66667
      vertex 7.48536 -73.5 15.9137
      vertex 5.18946 -73.5 10.3614
    endloop
  endfacet
  facet normal 0 -1 0
    outer loop
      vertex 18.6667 -73.5 7.66667
      vertex 5.18946 -73.5 10.3614
      vertex 4.06242 -73.5 7.66667
    endloop
  endfacet
  facet normal 0 -1 0
    outer loop
      vertex 17.518 -73.5 21.3351
      vertex 18.6667 -73.5 7.66667
      vertex 18.6667 -73.5 21.2184
    endloop
  endfacet
  facet normal 0.100704 0.0557218 0.993355
    outer loop
      vertex 18.6667 -65.9591 20.4727
      vertex 18.1968 -67.8998 20.6292
      vertex 18.6667 -66.9485 20.5282
    endloop
  endfacet
  facet normal 0.0950643 0.0585492 0.993748
    outer loop
      vertex 18.6667 -66.9485 20.5282
      vertex 18.1968 -67.8998 20.6292
      vertex 18.6667 -67.9499 20.5872
    endloop
  endfacet
  facet normal -0.00895079 0.081989 0.996593
    outer loop
      vertex 18.6667 -59.7176 19.95
      vertex 16.6812 -67.738 20.592
      vertex 18.6667 -61.6442 20.1085
    endloop
  endfacet
  facet normal -0.0154799 0.0840961 0.996337
    outer loop
      vertex 16.6812 -67.738 20.592
      vertex 18.6667 -65.9591 20.4727
      vertex 18.6667 -61.6442 20.1085
    endloop
  endfacet
  facet normal -0.0154774 0.0840932 0.996338
    outer loop
      vertex 18.6667 -65.9591 20.4727
      vertex 16.6812 -67.738 20.592
      vertex 18.1968 -67.8998 20.6292
    endloop
  endfacet
  facet normal -0.102334 0.104153 0.989283
    outer loop
      vertex 18.6667 -56.1424 19.5696
      vertex 15.783 -67.6421 20.482
      vertex 18.6667 -57.9243 19.7572
    endloop
  endfacet
  facet normal -0.109658 0.106251 0.988274
    outer loop
      vertex 15.783 -67.6421 20.482
      vertex 18.6667 -59.7176 19.95
      vertex 18.6667 -57.9243 19.7572
    endloop
  endfacet
  facet normal -0.109685 0.10626 0.98827
    outer loop
      vertex 18.6667 -59.7176 19.95
      vertex 15.783 -67.6421 20.482
      vertex 16.6812 -67.738 20.592
    endloop
  endfacet
  facet normal -0.196279 0.126012 0.972417
    outer loop
      vertex 18.0828 -55.125 19.317
      vertex 14.9292 -67.551 20.2907
      vertex 18.6243 -55.125 19.4263
    endloop
  endfacet
  facet normal -0.203733 0.128217 0.970594
    outer loop
      vertex 18.6243 -55.125 19.4263
      vertex 18.6667 -56.1424 19.5696
      vertex 18.6667 -55.125 19.4352
    endloop
  endfacet
  facet normal -0.204058 0.128194 0.970529
    outer loop
      vertex 14.9292 -67.551 20.2907
      vertex 18.6667 -56.1424 19.5696
      vertex 18.6243 -55.125 19.4263
    endloop
  endfacet
  facet normal -0.203799 0.128113 0.970594
    outer loop
      vertex 18.6667 -56.1424 19.5696
      vertex 14.9292 -67.551 20.2907
      vertex 15.783 -67.6421 20.482
    endloop
  endfacet
  facet normal -0.296092 0.148771 0.943502
    outer loop
      vertex 17.4463 -55.125 19.1152
      vertex 14.282 -67.4819 20.0706
      vertex 17.8529 -55.125 19.2428
    endloop
  endfacet
  facet normal -0.303636 0.15078 0.940782
    outer loop
      vertex 17.8529 -55.125 19.2428
      vertex 14.9292 -67.551 20.2907
      vertex 18.0828 -55.125 19.317
    endloop
  endfacet
  facet normal -0.303817 0.150817 0.940718
    outer loop
      vertex 14.9292 -67.551 20.2907
      vertex 17.8529 -55.125 19.2428
      vertex 14.282 -67.4819 20.0706
    endloop
  endfacet
  facet normal -0.368899 0.16504 0.9147
    outer loop
      vertex 17.1405 -55.125 18.9907
      vertex 13.9712 -67.4487 19.9361
      vertex 17.3344 -55.125 19.0689
    endloop
  endfacet
  facet normal -0.37696 0.166971 0.911055
    outer loop
      vertex 17.3344 -55.125 19.0689
      vertex 14.282 -67.4819 20.0706
      vertex 17.4463 -55.125 19.1152
    endloop
  endfacet
  facet normal -0.376523 0.166878 0.911253
    outer loop
      vertex 14.282 -67.4819 20.0706
      vertex 17.3344 -55.125 19.0689
      vertex 13.9712 -67.4487 19.9361
    endloop
  endfacet
  facet normal -0.433143 0.178937 0.883385
    outer loop
      vertex 16.6985 -55.125 18.7724
      vertex 13.5223 -67.4008 19.7016
      vertex 16.9775 -55.125 18.9092
    endloop
  endfacet
  facet normal -0.439859 0.180606 0.879719
    outer loop
      vertex 16.9775 -55.125 18.9092
      vertex 13.9712 -67.4487 19.9361
      vertex 17.1405 -55.125 18.9907
    endloop
  endfacet
  facet normal -0.440184 0.18067 0.879543
    outer loop
      vertex 13.9712 -67.4487 19.9361
      vertex 16.9775 -55.125 18.9092
      vertex 13.5223 -67.4008 19.7016
    endloop
  endfacet
  facet normal -0.505674 0.193372 0.840774
    outer loop
      vertex 14.6052 -55.125 17.5046
      vertex 11.3987 -67.1741 18.3473
      vertex 15.9124 -55.125 18.2908
    endloop
  endfacet
  facet normal -0.512286 0.195841 0.836187
    outer loop
      vertex 15.9124 -55.125 18.2908
      vertex 13.5223 -67.4008 19.7016
      vertex 16.6985 -55.125 18.7724
    endloop
  endfacet
  facet normal -0.512339 0.195848 0.836153
    outer loop
      vertex 13.5223 -67.4008 19.7016
      vertex 15.9124 -55.125 18.2908
      vertex 11.3987 -67.1741 18.3473
    endloop
  endfacet
  facet normal -0.581612 0.209232 0.786098
    outer loop
      vertex 13.6334 -55.125 16.7809
      vertex 10.4145 -67.069 17.5784
      vertex 14.2258 -55.125 17.2192
    endloop
  endfacet
  facet normal -0.58761 0.211007 0.781147
    outer loop
      vertex 14.2258 -55.125 17.2192
      vertex 11.3987 -67.1741 18.3473
      vertex 14.6052 -55.125 17.5046
    endloop
  endfacet
  facet normal -0.587685 0.211019 0.781087
    outer loop
      vertex 11.3987 -67.1741 18.3473
      vertex 14.2258 -55.125 17.2192
      vertex 10.4145 -67.069 17.5784
    endloop
  endfacet
  facet normal -0.649894 0.223289 0.726485
    outer loop
      vertex 12.9942 -55.125 16.2055
      vertex 9.76769 -67 16.969
      vertex 13.3793 -55.125 16.55
    endloop
  endfacet
  facet normal -0.655307 0.224756 0.72115
    outer loop
      vertex 13.3793 -55.125 16.55
      vertex 10.4145 -67.069 17.5784
      vertex 13.6334 -55.125 16.7809
    endloop
  endfacet
  facet normal -0.655389 0.224769 0.721072
    outer loop
      vertex 10.4145 -67.069 17.5784
      vertex 13.3793 -55.125 16.55
      vertex 9.76769 -67 16.969
    endloop
  endfacet
  facet normal -0.716767 0.236665 0.655923
    outer loop
      vertex 12.5344 -55.125 15.6999
      vertex 9.30263 -66.9504 16.4351
      vertex 12.8093 -55.125 16.0003
    endloop
  endfacet
  facet normal -0.721573 0.237879 0.650189
    outer loop
      vertex 9.30263 -66.9504 16.4351
      vertex 12.9942 -55.125 16.2055
      vertex 12.8093 -55.125 16.0003
    endloop
  endfacet
  facet normal -0.721362 0.237819 0.650445
    outer loop
      vertex 12.9942 -55.125 16.2055
      vertex 9.30263 -66.9504 16.4351
      vertex 9.76769 -67 16.969
    endloop
  endfacet
  facet normal -0.779336 0.248568 0.575195
    outer loop
      vertex 12.2172 -55.125 15.2679
      vertex 8.98194 -66.9161 15.9799
      vertex 12.4057 -55.125 15.5233
    endloop
  endfacet
  facet normal -0.782637 0.249339 0.570359
    outer loop
      vertex 8.98194 -66.9161 15.9799
      vertex 12.5344 -55.125 15.6999
      vertex 12.4057 -55.125 15.5233
    endloop
  endfacet
  facet normal -0.782727 0.249364 0.570224
    outer loop
      vertex 12.5344 -55.125 15.6999
      vertex 8.98194 -66.9161 15.9799
      vertex 9.30263 -66.9504 16.4351
    endloop
  endfacet
  facet normal -0.825414 0.256737 0.502771
    outer loop
      vertex 12.0569 -55.125 15.0034
      vertex 8.82 -66.8988 15.7015
      vertex 12.1518 -55.125 15.1592
    endloop
  endfacet
  facet normal -0.828025 0.257264 0.498186
    outer loop
      vertex 8.82 -66.8988 15.7015
      vertex 12.2172 -55.125 15.2679
      vertex 12.1518 -55.125 15.1592
    endloop
  endfacet
  facet normal -0.828258 0.257316 0.497772
    outer loop
      vertex 12.2172 -55.125 15.2679
      vertex 8.82 -66.8988 15.7015
      vertex 8.98194 -66.9161 15.9799
    endloop
  endfacet
  facet normal -0.864496 0.262965 0.428365
    outer loop
      vertex 11.8797 -55.125 14.6437
      vertex 8.64096 -66.8797 15.3235
      vertex 11.9845 -55.125 14.8552
    endloop
  endfacet
  facet normal -0.866778 0.263419 0.423446
    outer loop
      vertex 8.64096 -66.8797 15.3235
      vertex 12.0569 -55.125 15.0034
      vertex 11.9845 -55.125 14.8552
    endloop
  endfacet
  facet normal -0.866623 0.263383 0.423785
    outer loop
      vertex 12.0569 -55.125 15.0034
      vertex 8.64096 -66.8797 15.3235
      vertex 8.82 -66.8988 15.7015
    endloop
  endfacet
  facet normal -0.887093 0.263514 0.378982
    outer loop
      vertex 8.92338 -55.125 7.66667
      vertex 7.87677 -58.6483 7.66667
      vertex 9.80379 -55.125 9.72747
    endloop
  endfacet
  facet normal -0.88796 0.266349 0.374947
    outer loop
      vertex 7.87677 -58.6483 7.66667
      vertex 11.8797 -55.125 14.6437
      vertex 9.80379 -55.125 9.72747
    endloop
  endfacet
  facet normal -0.88796 0.266342 0.374951
    outer loop
      vertex 8.64096 -66.8797 15.3235
      vertex 7.87677 -58.6483 7.66667
      vertex 5.50808 -66.5453 7.66667
    endloop
  endfacet
  facet normal -0.887961 0.266342 0.374951
    outer loop
      vertex 7.87677 -58.6483 7.66667
      vertex 8.64096 -66.8797 15.3235
      vertex 11.8797 -55.125 14.6437
    endloop
  endfacet
  facet normal 0.100347 0.112429 0.98858
    outer loop
      vertex 18.1968 -67.8998 20.6292
      vertex 18.6667 -73.5 21.2184
      vertex 18.6667 -67.9499 20.5872
    endloop
  endfacet
  facet normal 0.100432 0.112435 0.988571
    outer loop
      vertex 18.6667 -73.5 21.2184
      vertex 18.1968 -67.8998 20.6292
      vertex 17.518 -73.5 21.3351
    endloop
  endfacet
  facet normal -0.0109787 0.125251 0.992064
    outer loop
      vertex 16.6812 -67.738 20.592
      vertex 16.9011 -73.5 21.3219
      vertex 18.1968 -67.8998 20.6292
    endloop
  endfacet
  facet normal -0.0110548 0.125248 0.992064
    outer loop
      vertex 16.9011 -73.5 21.3219
      vertex 16.6812 -67.738 20.592
      vertex 15.9319 -73.5 21.3111
    endloop
  endfacet
  facet normal -0.0212176 0.127562 0.991604
    outer loop
      vertex 18.1968 -67.8998 20.6292
      vertex 16.9011 -73.5 21.3219
      vertex 17.518 -73.5 21.3351
    endloop
  endfacet
  facet normal -0.106104 0.136053 0.985003
    outer loop
      vertex 15.783 -67.6421 20.482
      vertex 15.5591 -73.5 21.267
      vertex 16.6812 -67.738 20.592
    endloop
  endfacet
  facet normal -0.105941 0.136049 0.985021
    outer loop
      vertex 15.5591 -73.5 21.267
      vertex 15.783 -67.6421 20.482
      vertex 14.991 -73.5 21.2059
    endloop
  endfacet
  facet normal -0.116353 0.137883 0.98359
    outer loop
      vertex 16.6812 -67.738 20.592
      vertex 15.5591 -73.5 21.267
      vertex 15.9319 -73.5 21.3111
    endloop
  endfacet
  facet normal -0.201401 0.146251 0.968529
    outer loop
      vertex 14.9292 -67.551 20.2907
      vertex 14.6324 -73.5 21.1273
      vertex 15.783 -67.6421 20.482
    endloop
  endfacet
  facet normal -0.201538 0.146254 0.9685
    outer loop
      vertex 14.6324 -73.5 21.1273
      vertex 14.9292 -67.551 20.2907
      vertex 14.0961 -73.5 21.0157
    endloop
  endfacet
  facet normal -0.211745 0.14801 0.966052
    outer loop
      vertex 15.783 -67.6421 20.482
      vertex 14.6324 -73.5 21.1273
      vertex 14.991 -73.5 21.2059
    endloop
  endfacet
  facet normal -0.302987 0.156489 0.940058
    outer loop
      vertex 14.282 -67.4819 20.0706
      vertex 13.8212 -73.5 20.9239
      vertex 14.9292 -67.551 20.2907
    endloop
  endfacet
  facet normal -0.302894 0.156487 0.940089
    outer loop
      vertex 13.8212 -73.5 20.9239
      vertex 14.282 -67.4819 20.0706
      vertex 13.4171 -73.5 20.7937
    endloop
  endfacet
  facet normal -0.31277 0.157944 0.936605
    outer loop
      vertex 14.9292 -67.551 20.2907
      vertex 13.8212 -73.5 20.9239
      vertex 14.0961 -73.5 21.0157
    endloop
  endfacet
  facet normal -0.377056 0.16348 0.911648
    outer loop
      vertex 13.9712 -67.4487 19.9361
      vertex 13.2842 -73.5 20.7371
      vertex 14.282 -67.4819 20.0706
    endloop
  endfacet
  facet normal -0.377193 0.163488 0.91159
    outer loop
      vertex 13.2842 -73.5 20.7371
      vertex 13.9712 -67.4487 19.9361
      vertex 13.0911 -73.5 20.6572
    endloop
  endfacet
  facet normal -0.386486 0.164583 0.907491
    outer loop
      vertex 14.282 -67.4819 20.0706
      vertex 13.2842 -73.5 20.7371
      vertex 13.4171 -73.5 20.7937
    endloop
  endfacet
  facet normal -0.442143 0.168923 0.880894
    outer loop
      vertex 13.5223 -67.4008 19.7016
      vertex 12.8981 -73.5 20.5579
      vertex 13.9712 -67.4487 19.9361
    endloop
  endfacet
  facet normal -0.442431 0.168932 0.880748
    outer loop
      vertex 12.8981 -73.5 20.5579
      vertex 13.5223 -67.4008 19.7016
      vertex 12.6198 -73.5 20.4181
    endloop
  endfacet
  facet normal -0.450845 0.169991 0.876266
    outer loop
      vertex 13.9712 -67.4487 19.9361
      vertex 12.8981 -73.5 20.5579
      vertex 13.0911 -73.5 20.6572
    endloop
  endfacet
  facet normal -0.516359 0.173225 0.838669
    outer loop
      vertex 11.3987 -67.1741 18.3473
      vertex 11.6995 -73.5 19.8391
      vertex 13.5223 -67.4008 19.7016
    endloop
  endfacet
  facet normal -0.516298 0.173237 0.838705
    outer loop
      vertex 11.6995 -73.5 19.8391
      vertex 11.3987 -67.1741 18.3473
      vertex 10.3884 -73.5 19.032
    endloop
  endfacet
  facet normal -0.524256 0.175464 0.833287
    outer loop
      vertex 13.5223 -67.4008 19.7016
      vertex 11.6995 -73.5 19.8391
      vertex 12.6198 -73.5 20.4181
    endloop
  endfacet
  facet normal -0.593766 0.178949 0.784487
    outer loop
      vertex 10.4145 -67.069 17.5784
      vertex 9.95158 -73.5 18.695
      vertex 11.3987 -67.1741 18.3473
    endloop
  endfacet
  facet normal -0.593854 0.178944 0.784421
    outer loop
      vertex 9.95158 -73.5 18.695
      vertex 10.4145 -67.069 17.5784
      vertex 9.35308 -73.5 18.2419
    endloop
  endfacet
  facet normal -0.600826 0.180252 0.778792
    outer loop
      vertex 11.3987 -67.1741 18.3473
      vertex 9.95158 -73.5 18.695
      vertex 10.3884 -73.5 19.032
    endloop
  endfacet
  facet normal -0.663599 0.183828 0.725151
    outer loop
      vertex 9.76769 -67 16.969
      vertex 9.06279 -73.5 17.9717
      vertex 10.4145 -67.069 17.5784
    endloop
  endfacet
  facet normal -0.663479 0.183831 0.725259
    outer loop
      vertex 9.06279 -73.5 17.9717
      vertex 9.76769 -67 16.969
      vertex 8.67222 -73.5 17.6144
    endloop
  endfacet
  facet normal -0.669597 0.184736 0.719383
    outer loop
      vertex 10.4145 -67.069 17.5784
      vertex 9.06279 -73.5 17.9717
      vertex 9.35308 -73.5 18.2419
    endloop
  endfacet
  facet normal -0.731883 0.188005 0.654982
    outer loop
      vertex 8.18246 -73.5 17.0634
      vertex 9.76769 -67 16.969
      vertex 9.30263 -66.9504 16.4351
    endloop
  endfacet
  facet normal -0.731934 0.188017 0.654922
    outer loop
      vertex 9.76769 -67 16.969
      vertex 8.18246 -73.5 17.0634
      vertex 8.46199 -73.5 17.3758
    endloop
  endfacet
  facet normal -0.736833 0.188644 0.649223
    outer loop
      vertex 9.76769 -67 16.969
      vertex 8.46199 -73.5 17.3758
      vertex 8.67222 -73.5 17.6144
    endloop
  endfacet
  facet normal -0.79562 0.190971 0.574907
    outer loop
      vertex 7.84464 -73.5 16.593
      vertex 9.30263 -66.9504 16.4351
      vertex 8.98194 -66.9161 15.9799
    endloop
  endfacet
  facet normal -0.795657 0.190978 0.574854
    outer loop
      vertex 9.30263 -66.9504 16.4351
      vertex 7.84464 -73.5 16.593
      vertex 8.03675 -73.5 16.8589
    endloop
  endfacet
  facet normal -0.799365 0.191352 0.569562
    outer loop
      vertex 9.30263 -66.9504 16.4351
      vertex 8.03675 -73.5 16.8589
      vertex 8.18246 -73.5 17.0634
    endloop
  endfacet
  facet normal -0.843031 0.192275 0.502323
    outer loop
      vertex 7.67402 -73.5 16.305
      vertex 8.98194 -66.9161 15.9799
      vertex 8.82 -66.8988 15.7015
    endloop
  endfacet
  facet normal -0.843112 0.192285 0.502184
    outer loop
      vertex 8.98194 -66.9161 15.9799
      vertex 7.67402 -73.5 16.305
      vertex 7.77081 -73.5 16.4675
    endloop
  endfacet
  facet normal -0.845805 0.192439 0.497576
    outer loop
      vertex 8.98194 -66.9161 15.9799
      vertex 7.77081 -73.5 16.4675
      vertex 7.84464 -73.5 16.593
    endloop
  endfacet
  facet normal -0.883087 0.192302 0.427992
    outer loop
      vertex 7.48536 -73.5 15.9137
      vertex 8.82 -66.8988 15.7015
      vertex 8.64096 -66.8797 15.3235
    endloop
  endfacet
  facet normal -0.883066 0.192299 0.428037
    outer loop
      vertex 8.82 -66.8988 15.7015
      vertex 7.48536 -73.5 15.9137
      vertex 7.59224 -73.5 16.1342
    endloop
  endfacet
  facet normal -0.885092 0.192397 0.423787
    outer loop
      vertex 8.82 -66.8988 15.7015
      vertex 7.59224 -73.5 16.1342
      vertex 7.67402 -73.5 16.305
    endloop
  endfacet
  facet normal -0.906051 0.188339 0.378946
    outer loop
      vertex 5.18946 -73.5 10.3614
      vertex 5.50808 -66.5453 7.66667
      vertex 4.06242 -73.5 7.66667
    endloop
  endfacet
  facet normal -0.906051 0.188339 0.378946
    outer loop
      vertex 5.50808 -66.5453 7.66667
      vertex 5.18946 -73.5 10.3614
      vertex 8.64096 -66.8797 15.3235
    endloop
  endfacet
  facet normal -0.906963 0.191748 0.375033
    outer loop
      vertex 8.64096 -66.8797 15.3235
      vertex 5.18946 -73.5 10.3614
      vertex 7.48536 -73.5 15.9137
    endloop
  endfacet
endsolid OpenSCAD_Model
