solid OpenSCAD_Model
  facet normal 1 0 0
    outer loop
      vertex 25 -0.018149 0
      vertex 25 -0.0237138 -0.482331
      vertex 25 -0.0194869 -0.233737
    endloop
  endfacet
  facet normal 1 0 0
    outer loop
      vertex 25 -0.191816 -2.26796
      vertex 25 -0.0237138 -0.482331
      vertex 25 -0.018149 0
    endloop
  endfacet
  facet normal 1 0 0
    outer loop
      vertex 25 -0.0237138 -0.482331
      vertex 25 -0.144671 -1.97789
      vertex 25 -0.0315556 -0.764675
    endloop
  endfacet
  facet normal 1 0 0
    outer loop
      vertex 25 -0.0315556 -0.764675
      vertex 25 -0.144671 -1.97789
      vertex 25 -0.0445911 -1.11032
    endloop
  endfacet
  facet normal 1 0 0
    outer loop
      vertex 25 -0.0445911 -1.11032
      vertex 25 -0.0736625 -1.53581
      vertex 25 -0.0597682 -1.43653
    endloop
  endfacet
  facet normal 1 0 0
    outer loop
      vertex 25 -0.0445911 -1.11032
      vertex 25 -0.078885 -1.57313
      vertex 25 -0.0736625 -1.53581
    endloop
  endfacet
  facet normal 1 0 0
    outer loop
      vertex 25 -0.0445911 -1.11032
      vertex 25 -0.144671 -1.97789
      vertex 25 -0.078885 -1.57313
    endloop
  endfacet
  facet normal 1 0 0
    outer loop
      vertex 25 -0.0237138 -0.482331
      vertex 25 -0.191816 -2.26796
      vertex 25 -0.144671 -1.97789
    endloop
  endfacet
  facet normal 1 0 0
    outer loop
      vertex 25 -0.018149 0
      vertex 25 -0.251529 -2.59908
      vertex 25 -0.191816 -2.26796
    endloop
  endfacet
  facet normal 1 0 0
    outer loop
      vertex 25 -0.731517 -4.53558
      vertex 25 -0.251529 -2.59908
      vertex 25 -0.018149 0
    endloop
  endfacet
  facet normal 1 0 0
    outer loop
      vertex 25 -0.251529 -2.59908
      vertex 25 -0.731517 -4.53558
      vertex 25 -0.420927 -3.53845
    endloop
  endfacet
  facet normal 1 0 0
    outer loop
      vertex 25 -0.420927 -3.53845
      vertex 25 -0.731517 -4.53558
      vertex 25 -0.428437 -3.5774
    endloop
  endfacet
  facet normal 1 0 0
    outer loop
      vertex 25 -0.428437 -3.5774
      vertex 25 -0.731517 -4.53558
      vertex 25 -0.444253 -3.65944
    endloop
  endfacet
  facet normal 1 0 0
    outer loop
      vertex 25 -0.018149 0
      vertex 25 -1.07775 -5.59157
      vertex 25 -0.731517 -4.53558
    endloop
  endfacet
  facet normal 1 -0 0
    outer loop
      vertex 25 -35.8 0
      vertex 25 -1.07775 -5.59157
      vertex 25 -0.018149 0
    endloop
  endfacet
  facet normal 1 0 0
    outer loop
      vertex 25 -1.07775 -5.59157
      vertex 25 -35.8 0
      vertex 25 -1.15549 -5.85056
    endloop
  endfacet
  facet normal 1 0 0
    outer loop
      vertex 25 -1.15549 -5.85056
      vertex 25 -35.8 0
      vertex 25 -1.4304 -6.76632
    endloop
  endfacet
  facet normal 1 0 -0
    outer loop
      vertex 25 -3.15973 -10.5437
      vertex 25 -1.4304 -6.76632
      vertex 25 -35.8 0
    endloop
  endfacet
  facet normal 1 0 0
    outer loop
      vertex 25 -1.4304 -6.76632
      vertex 25 -3.15973 -10.5437
      vertex 25 -1.57493 -7.23081
    endloop
  endfacet
  facet normal 1 0 0
    outer loop
      vertex 25 -1.57493 -7.23081
      vertex 25 -3.15973 -10.5437
      vertex 25 -1.62672 -7.39723
    endloop
  endfacet
  facet normal 1 0 0
    outer loop
      vertex 25 -2.15709 -8.81398
      vertex 25 -3.15973 -10.5437
      vertex 25 -2.32723 -9.26847
    endloop
  endfacet
  facet normal 1 0 0
    outer loop
      vertex 25 -1.62672 -7.39723
      vertex 25 -3.15973 -10.5437
      vertex 25 -2.15709 -8.81398
    endloop
  endfacet
  facet normal 1 0 0
    outer loop
      vertex 25 -3.15973 -10.5437
      vertex 25 -35.8 0
      vertex 25 -3.62668 -11.259
    endloop
  endfacet
  facet normal 1 0 0
    outer loop
      vertex 25 -3.62668 -11.259
      vertex 25 -35.8 0
      vertex 25 -4.30676 -12.2621
    endloop
  endfacet
  facet normal 1 0 -0
    outer loop
      vertex 25 -8.51463 -16.4437
      vertex 25 -4.30676 -12.2621
      vertex 25 -35.8 0
    endloop
  endfacet
  facet normal 1 0 0
    outer loop
      vertex 25 -4.30676 -12.2621
      vertex 25 -8.51463 -16.4437
      vertex 25 -5.10841 -13.4446
    endloop
  endfacet
  facet normal 1 0 -0
    outer loop
      vertex 25 -8.00352 -16.1829
      vertex 25 -5.45799 -13.9077
      vertex 25 -8.51463 -16.4437
    endloop
  endfacet
  facet normal 1 0 0
    outer loop
      vertex 25 -6.20371 -14.8955
      vertex 25 -8.00352 -16.1829
      vertex 25 -6.55649 -15.315
    endloop
  endfacet
  facet normal 1 0 0
    outer loop
      vertex 25 -6.55649 -15.315
      vertex 25 -8.00352 -16.1829
      vertex 25 -6.74707 -15.5417
    endloop
  endfacet
  facet normal 1 0 0
    outer loop
      vertex 25 -5.45799 -13.9077
      vertex 25 -8.00352 -16.1829
      vertex 25 -6.20371 -14.8955
    endloop
  endfacet
  facet normal 1 0 0
    outer loop
      vertex 25 -5.10841 -13.4446
      vertex 25 -8.51463 -16.4437
      vertex 25 -5.45799 -13.9077
    endloop
  endfacet
  facet normal 1 0 -0
    outer loop
      vertex 25 -16.5446 -22.5315
      vertex 25 -8.51463 -16.4437
      vertex 25 -35.8 0
    endloop
  endfacet
  facet normal 1 0 -0
    outer loop
      vertex 25 -12.1068 -20.6296
      vertex 25 -8.51463 -16.4437
      vertex 25 -16.5446 -22.5315
    endloop
  endfacet
  facet normal 1 0 0
    outer loop
      vertex 25 -10.2517 -19.2382
      vertex 25 -12.1068 -20.6296
      vertex 25 -10.3808 -19.446
    endloop
  endfacet
  facet normal 1 0 0
    outer loop
      vertex 25 -8.51463 -16.4437
      vertex 25 -12.1068 -20.6296
      vertex 25 -10.2517 -19.2382
    endloop
  endfacet
  facet normal 1 0 0
    outer loop
      vertex 25 -12.1068 -20.6296
      vertex 25 -16.5446 -22.5315
      vertex 25 -12.3138 -20.7715
    endloop
  endfacet
  facet normal 1 0 0
    outer loop
      vertex 25 -16.5446 -22.5315
      vertex 25 -35.8 0
      vertex 25 -16.8833 -22.6724
    endloop
  endfacet
  facet normal 1 0 0
    outer loop
      vertex 25 -16.8833 -22.6724
      vertex 25 -35.8 0
      vertex 25 -26.7153 -24.6866
    endloop
  endfacet
  facet normal 1 0 -0
    outer loop
      vertex 25 -26.851 -24.7088
      vertex 25 -26.7153 -24.6866
      vertex 25 -35.8 0
    endloop
  endfacet
  facet normal 1 0 0
    outer loop
      vertex 25 -26.7153 -24.6866
      vertex 25 -26.851 -24.7088
      vertex 25 -26.8359 -24.7108
    endloop
  endfacet
  facet normal 1 0 0
    outer loop
      vertex 25 -26.851 -24.7088
      vertex 25 -35.8 0
      vertex 25 -35.8 -23.5794
    endloop
  endfacet
  facet normal 0 0 1
    outer loop
      vertex 21.7348 -0.367783 0
      vertex 25 -0.018149 0
      vertex 23.672 -0.0561466 0
    endloop
  endfacet
  facet normal 0 0 1
    outer loop
      vertex 25 -0.018149 0
      vertex 21.7348 -0.367783 0
      vertex 18.0643 -1.73201 0
    endloop
  endfacet
  facet normal 0 0 1
    outer loop
      vertex 18.0643 -1.73201 0
      vertex 21.7348 -0.367783 0
      vertex 19.8549 -0.929606 0
    endloop
  endfacet
  facet normal 0 0 1
    outer loop
      vertex 25 -0.018149 0
      vertex 18.0643 -1.73201 0
      vertex 25 -35.8 0
    endloop
  endfacet
  facet normal 0 0 1
    outer loop
      vertex 9.47332 -9.9793 0
      vertex 18.0643 -1.73201 0
      vertex 16.3637 -2.4414 0
    endloop
  endfacet
  facet normal 0 0 1
    outer loop
      vertex 9.47332 -9.9793 0
      vertex 16.3637 -2.4414 0
      vertex 14.4174 -3.32552 0
    endloop
  endfacet
  facet normal 0 0 1
    outer loop
      vertex 9.47332 -9.9793 0
      vertex 14.4174 -3.32552 0
      vertex 12.4132 -4.81402 0
    endloop
  endfacet
  facet normal 0 0 1
    outer loop
      vertex 9.90903 -8.17064 0
      vertex 12.4132 -4.81402 0
      vertex 10.6971 -6.45763 0
    endloop
  endfacet
  facet normal 0 0 1
    outer loop
      vertex 12.4132 -4.81402 0
      vertex 9.90903 -8.17064 0
      vertex 9.47332 -9.9793 0
    endloop
  endfacet
  facet normal 0 0 1
    outer loop
      vertex 18.0643 -1.73201 0
      vertex 9.47332 -9.9793 0
      vertex 25 -35.8 0
    endloop
  endfacet
  facet normal 0 0 1
    outer loop
      vertex 4.67262 -14.2313 0
      vertex 9.47332 -9.9793 0
      vertex 5.77101 -12.1948 0
    endloop
  endfacet
  facet normal 0 0 1
    outer loop
      vertex 2.66235 -18.9905 0
      vertex 9.47332 -9.9793 0
      vertex 4.67262 -14.2313 0
    endloop
  endfacet
  facet normal 0 0 1
    outer loop
      vertex 9.47332 -9.9793 0
      vertex 2.66235 -18.9905 0
      vertex 25 -35.8 0
    endloop
  endfacet
  facet normal -0 0 1
    outer loop
      vertex 0.395037 -29.1569 0
      vertex 25 -35.8 0
      vertex 2.66235 -18.9905 0
    endloop
  endfacet
  facet normal 0 0 1
    outer loop
      vertex 25 -35.8 0
      vertex 0.395037 -29.1569 0
      vertex 0.420726 -35.8 0
    endloop
  endfacet
  facet normal 0 -1 0
    outer loop
      vertex 0.607417 -35.8 -2.14258
      vertex 25 -35.8 0
      vertex 0.420726 -35.8 0
    endloop
  endfacet
  facet normal 0 -1 0
    outer loop
      vertex 0.782858 -35.8 -4.15605
      vertex 25 -35.8 0
      vertex 0.607417 -35.8 -2.14258
    endloop
  endfacet
  facet normal 0 -1 0
    outer loop
      vertex 1.34294 -35.8 -6.2541
      vertex 25 -35.8 0
      vertex 0.782858 -35.8 -4.15605
    endloop
  endfacet
  facet normal 0 -1 0
    outer loop
      vertex 1.85754 -35.8 -8.18179
      vertex 25 -35.8 0
      vertex 1.34294 -35.8 -6.2541
    endloop
  endfacet
  facet normal 0 -1 0
    outer loop
      vertex 2.79017 -35.8 -10.1878
      vertex 25 -35.8 0
      vertex 1.85754 -35.8 -8.18179
    endloop
  endfacet
  facet normal 0 -1 0
    outer loop
      vertex 3.61009 -35.8 -11.9514
      vertex 25 -35.8 0
      vertex 2.79017 -35.8 -10.1878
    endloop
  endfacet
  facet normal 0 -1 0
    outer loop
      vertex 4.91168 -35.8 -13.8134
      vertex 25 -35.8 0
      vertex 3.61009 -35.8 -11.9514
    endloop
  endfacet
  facet normal 0 -1 0
    outer loop
      vertex 5.98414 -35.8 -15.3476
      vertex 25 -35.8 0
      vertex 4.91168 -35.8 -13.8134
    endloop
  endfacet
  facet normal 0 -1 0
    outer loop
      vertex 7.64546 -35.8 -17.0082
      vertex 25 -35.8 0
      vertex 5.98414 -35.8 -15.3476
    endloop
  endfacet
  facet normal 0 -1 0
    outer loop
      vertex 8.90376 -35.8 -18.266
      vertex 25 -35.8 0
      vertex 7.64546 -35.8 -17.0082
    endloop
  endfacet
  facet normal 0 -1 0
    outer loop
      vertex 10.9064 -35.8 -19.6627
      vertex 25 -35.8 0
      vertex 8.90376 -35.8 -18.266
    endloop
  endfacet
  facet normal 0 -1 0
    outer loop
      vertex 12.2762 -35.8 -20.618
      vertex 25 -35.8 0
      vertex 10.9064 -35.8 -19.6627
    endloop
  endfacet
  facet normal 0 -1 0
    outer loop
      vertex 14.5892 -35.8 -21.6849
      vertex 25 -35.8 0
      vertex 12.2762 -35.8 -20.618
    endloop
  endfacet
  facet normal 0 -1 0
    outer loop
      vertex 15.9953 -35.8 -22.3334
      vertex 25 -35.8 0
      vertex 14.5892 -35.8 -21.6849
    endloop
  endfacet
  facet normal 0 -1 0
    outer loop
      vertex 18.5721 -35.8 -23.0051
      vertex 25 -35.8 0
      vertex 15.9953 -35.8 -22.3334
    endloop
  endfacet
  facet normal 0 -1 0
    outer loop
      vertex 19.9451 -35.8 -23.363
      vertex 25 -35.8 0
      vertex 18.5721 -35.8 -23.0051
    endloop
  endfacet
  facet normal 0 -1 0
    outer loop
      vertex 22.722 -35.8 -23.5791
      vertex 25 -35.8 0
      vertex 19.9451 -35.8 -23.363
    endloop
  endfacet
  facet normal 0 -1 0
    outer loop
      vertex 22.722 -35.8 -23.5791
      vertex 25 -35.8 -23.5794
      vertex 25 -35.8 0
    endloop
  endfacet
  facet normal -0 -1 0
    outer loop
      vertex 25 -35.8 -23.5794
      vertex 22.722 -35.8 -23.5791
      vertex 24.0035 -35.8 -23.6788
    endloop
  endfacet
  facet normal -0.0880132 0.99397 -0.0654001
    outer loop
      vertex 24.0225 -0.151977 -1.92815
      vertex 23.684 -0.183907 -1.95789
      vertex 23.672 -0.0561466 0
    endloop
  endfacet
  facet normal -0.0751038 0.977911 -0.195063
    outer loop
      vertex 24.3912 -0.501687 -3.82331
      vertex 23.72 -0.565 -3.88229
      vertex 23.684 -0.183907 -1.95789
    endloop
  endfacet
  facet normal -0.0751063 0.977911 -0.195064
    outer loop
      vertex 24.0225 -0.151977 -1.92815
      vertex 24.3912 -0.501687 -3.82331
      vertex 23.684 -0.183907 -1.95789
    endloop
  endfacet
  facet normal -0.0609131 0.945012 -0.321314
    outer loop
      vertex 24.7716 -1.09929 -5.65304
      vertex 23.7792 -1.19291 -5.74025
      vertex 23.72 -0.565 -3.88229
    endloop
  endfacet
  facet normal -0.0609069 0.945013 -0.321311
    outer loop
      vertex 24.3912 -0.501687 -3.82331
      vertex 24.7716 -1.09929 -5.65304
      vertex 23.72 -0.565 -3.88229
    endloop
  endfacet
  facet normal -0.0638201 0.952886 -0.296539
    outer loop
      vertex 23.8305 -1.73703 -7.5
      vertex 25 -1.57493 -7.23081
      vertex 25 -1.62672 -7.39723
    endloop
  endfacet
  facet normal -0.0638307 0.952898 -0.2965
    outer loop
      vertex 25 -1.57493 -7.23081
      vertex 23.8305 -1.73703 -7.5
      vertex 23.7792 -1.19291 -5.74025
    endloop
  endfacet
  facet normal -0.063837 0.952895 -0.296505
    outer loop
      vertex 25 -1.4304 -6.76632
      vertex 23.7792 -1.19291 -5.74025
      vertex 24.7716 -1.09929 -5.65304
    endloop
  endfacet
  facet normal -0.0638337 0.952897 -0.296502
    outer loop
      vertex 23.7792 -1.19291 -5.74025
      vertex 25 -1.4304 -6.76632
      vertex 25 -1.57493 -7.23081
    endloop
  endfacet
  facet normal -0.0574437 0.934982 -0.350014
    outer loop
      vertex 23.7539 -2.44478 -9.37797
      vertex 25 -2.15709 -8.81398
      vertex 25 -2.32723 -9.26847
    endloop
  endfacet
  facet normal -0.0574392 0.934979 -0.350022
    outer loop
      vertex 25 -2.15709 -8.81398
      vertex 23.7539 -2.44478 -9.37797
      vertex 23.8305 -1.73703 -7.5
    endloop
  endfacet
  facet normal -0.0574319 0.934981 -0.350017
    outer loop
      vertex 25 -1.62672 -7.39723
      vertex 25 -2.15709 -8.81398
      vertex 23.8305 -1.73703 -7.5
    endloop
  endfacet
  facet normal -0.0309423 0.836969 -0.546376
    outer loop
      vertex 23.7332 -3.74617 -11.3703
      vertex 25 -3.15973 -10.5437
      vertex 25 -3.62668 -11.259
    endloop
  endfacet
  facet normal -0.0309351 0.836964 -0.546383
    outer loop
      vertex 25 -3.15973 -10.5437
      vertex 23.7332 -3.74617 -11.3703
      vertex 23.7539 -2.44478 -9.37797
    endloop
  endfacet
  facet normal -0.0309408 0.836961 -0.546388
    outer loop
      vertex 25 -2.32723 -9.26847
      vertex 25 -3.15973 -10.5437
      vertex 23.7539 -2.44478 -9.37797
    endloop
  endfacet
  facet normal -0.0287907 0.82738 -0.560904
    outer loop
      vertex 24.1561 -5.18801 -13.5187
      vertex 25 -4.30676 -12.2621
      vertex 25 -5.10841 -13.4446
    endloop
  endfacet
  facet normal -0.0287481 0.827368 -0.560924
    outer loop
      vertex 25 -4.30676 -12.2621
      vertex 24.1561 -5.18801 -13.5187
      vertex 23.7332 -3.74617 -11.3703
    endloop
  endfacet
  facet normal -0.0287572 0.827362 -0.560933
    outer loop
      vertex 25 -3.62668 -11.259
      vertex 25 -4.30676 -12.2621
      vertex 23.7332 -3.74617 -11.3703
    endloop
  endfacet
  facet normal -0.0223968 0.797907 -0.602364
    outer loop
      vertex 25 -5.45799 -13.9077
      vertex 25 -6.20371 -14.8955
      vertex 24.1561 -5.18801 -13.5187
    endloop
  endfacet
  facet normal -0.0223751 0.797931 -0.602334
    outer loop
      vertex 25 -5.10841 -13.4446
      vertex 25 -5.45799 -13.9077
      vertex 24.1561 -5.18801 -13.5187
    endloop
  endfacet
  facet normal 0.0427947 0.196561 -0.979557
    outer loop
      vertex 25 -26.7153 -24.6866
      vertex 25 -26.8359 -24.7108
      vertex 24.9968 -26.8362 -24.711
    endloop
  endfacet
  facet normal 0.098483 -0.124602 -0.987307
    outer loop
      vertex 24.0035 -35.8 -23.6788
      vertex 25 -26.851 -24.7088
      vertex 25 -35.8 -23.5794
    endloop
  endfacet
  facet normal 0.101097 -0.124859 -0.98701
    outer loop
      vertex 25 -26.851 -24.7088
      vertex 24.0035 -35.8 -23.6788
      vertex 24.9968 -26.8362 -24.711
    endloop
  endfacet
  facet normal 0.0740646 -0.130943 -0.988619
    outer loop
      vertex 25 -26.8359 -24.7108
      vertex 25 -26.851 -24.7088
      vertex 24.9968 -26.8362 -24.711
    endloop
  endfacet
  facet normal -0.0767969 0.995028 -0.0634138
    outer loop
      vertex 24.3507 -0.121017 -1.83982
      vertex 24.0225 -0.151977 -1.92815
      vertex 23.672 -0.0561466 0
    endloop
  endfacet
  facet normal -0.0416446 0.981068 -0.189134
    outer loop
      vertex 24.3912 -0.501687 -3.82331
      vertex 25 -0.428437 -3.5774
      vertex 25 -0.444253 -3.65944
    endloop
  endfacet
  facet normal -0.0416438 0.981067 -0.189136
    outer loop
      vertex 25 -0.428437 -3.5774
      vertex 24.3912 -0.501687 -3.82331
      vertex 24.0225 -0.151977 -1.92815
    endloop
  endfacet
  facet normal -0.0416438 0.981068 -0.189136
    outer loop
      vertex 25 -0.420927 -3.53845
      vertex 24.0225 -0.151977 -1.92815
      vertex 24.3507 -0.121017 -1.83982
    endloop
  endfacet
  facet normal -0.0416853 0.981061 -0.18916
    outer loop
      vertex 24.0225 -0.151977 -1.92815
      vertex 25 -0.420927 -3.53845
      vertex 25 -0.428437 -3.5774
    endloop
  endfacet
  facet normal -0.00576412 0.950212 -0.311551
    outer loop
      vertex 24.7716 -1.09929 -5.65304
      vertex 25 -0.731517 -4.53558
      vertex 25 -1.07775 -5.59157
    endloop
  endfacet
  facet normal -0.00578006 0.950213 -0.311548
    outer loop
      vertex 25 -0.731517 -4.53558
      vertex 24.7716 -1.09929 -5.65304
      vertex 24.3912 -0.501687 -3.82331
    endloop
  endfacet
  facet normal -0.00578306 0.950212 -0.31155
    outer loop
      vertex 25 -0.444253 -3.65944
      vertex 25 -0.731517 -4.53558
      vertex 24.3912 -0.501687 -3.82331
    endloop
  endfacet
  facet normal -0.0129786 0.957693 -0.287498
    outer loop
      vertex 25 -1.15549 -5.85056
      vertex 25 -1.4304 -6.76632
      vertex 24.7716 -1.09929 -5.65304
    endloop
  endfacet
  facet normal -0.0129516 0.957702 -0.28747
    outer loop
      vertex 25 -1.07775 -5.59157
      vertex 25 -1.15549 -5.85056
      vertex 24.7716 -1.09929 -5.65304
    endloop
  endfacet
  facet normal -0.06608 0.996039 -0.059496
    outer loop
      vertex 24.6587 -0.0919676 -1.69558
      vertex 24.3507 -0.121017 -1.83982
      vertex 23.672 -0.0561466 0
    endloop
  endfacet
  facet normal -0.00970969 0.98408 -0.177461
    outer loop
      vertex 25 -0.251529 -2.59908
      vertex 25 -0.420927 -3.53845
      vertex 24.3507 -0.121017 -1.83982
    endloop
  endfacet
  facet normal -0.00970964 0.984081 -0.177457
    outer loop
      vertex 25 -0.191816 -2.26796
      vertex 24.3507 -0.121017 -1.83982
      vertex 24.6587 -0.0919676 -1.69558
    endloop
  endfacet
  facet normal -0.00971536 0.984079 -0.177465
    outer loop
      vertex 24.3507 -0.121017 -1.83982
      vertex 25 -0.191816 -2.26796
      vertex 25 -0.251529 -2.59908
    endloop
  endfacet
  facet normal -0.0562253 0.996969 -0.0537809
    outer loop
      vertex 24.937 -0.0657129 -1.49983
      vertex 24.6587 -0.0919676 -1.69558
      vertex 23.672 -0.0561466 0
    endloop
  endfacet
  facet normal 0.0197187 0.986856 -0.160393
    outer loop
      vertex 25 -0.144671 -1.97789
      vertex 25 -0.191816 -2.26796
      vertex 24.6587 -0.0919676 -1.69558
    endloop
  endfacet
  facet normal 0.0197171 0.986856 -0.160393
    outer loop
      vertex 25 -0.078885 -1.57313
      vertex 24.6587 -0.0919676 -1.69558
      vertex 24.937 -0.0657129 -1.49983
    endloop
  endfacet
  facet normal 0.0197178 0.986856 -0.160395
    outer loop
      vertex 24.6587 -0.0919676 -1.69558
      vertex 25 -0.078885 -1.57313
      vertex 25 -0.144671 -1.97789
    endloop
  endfacet
  facet normal -0.0475081 0.997792 -0.0464228
    outer loop
      vertex 24.937 -0.0657129 -1.49983
      vertex 25 -0.0445911 -1.11032
      vertex 25 -0.0597682 -1.43653
    endloop
  endfacet
  facet normal -0.0474971 0.997792 -0.0464246
    outer loop
      vertex 25 -0.0445911 -1.11032
      vertex 24.937 -0.0657129 -1.49983
      vertex 23.672 -0.0561466 0
    endloop
  endfacet
  facet normal 0.0457693 0.989312 -0.138443
    outer loop
      vertex 25 -0.0736625 -1.53581
      vertex 25 -0.078885 -1.57313
      vertex 24.937 -0.0657129 -1.49983
    endloop
  endfacet
  facet normal 0.0457623 0.989311 -0.138455
    outer loop
      vertex 25 -0.0597682 -1.43653
      vertex 25 -0.0736625 -1.53581
      vertex 24.937 -0.0657129 -1.49983
    endloop
  endfacet
  facet normal -0.0401721 0.998483 -0.0376563
    outer loop
      vertex 25 -0.0315556 -0.764675
      vertex 25 -0.0445911 -1.11032
      vertex 23.672 -0.0561466 0
    endloop
  endfacet
  facet normal -0.034476 0.99902 -0.0277467
    outer loop
      vertex 25 -0.0237138 -0.482331
      vertex 25 -0.0315556 -0.764675
      vertex 23.672 -0.0561466 0
    endloop
  endfacet
  facet normal -0.0305791 0.999388 -0.0169928
    outer loop
      vertex 25 -0.0194869 -0.233737
      vertex 25 -0.0237138 -0.482331
      vertex 23.672 -0.0561466 0
    endloop
  endfacet
  facet normal -0.0286005 0.999575 -0.00572152
    outer loop
      vertex 25 -0.018149 0
      vertex 25 -0.0194869 -0.233737
      vertex 23.672 -0.0561466 0
    endloop
  endfacet
  facet normal -0.158825 0.98729 -0.00571417
    outer loop
      vertex 23.672 -0.0561466 0
      vertex 21.7644 -0.364989 -0.339984
      vertex 21.7348 -0.367783 0
    endloop
  endfacet
  facet normal -0.286302 0.957988 -0.017058
    outer loop
      vertex 21.7348 -0.367783 0
      vertex 19.9136 -0.924067 -0.674151
      vertex 19.8549 -0.929606 0
    endloop
  endfacet
  facet normal -0.286304 0.957987 -0.0170537
    outer loop
      vertex 21.7348 -0.367783 0
      vertex 21.7644 -0.364989 -0.339984
      vertex 19.9136 -0.924067 -0.674151
    endloop
  endfacet
  facet normal -0.408776 0.912201 -0.028133
    outer loop
      vertex 19.8549 -0.929606 0
      vertex 18.1512 -1.72381 -0.996784
      vertex 18.0643 -1.73201 0
    endloop
  endfacet
  facet normal -0.408792 0.912195 -0.0280997
    outer loop
      vertex 19.8549 -0.929606 0
      vertex 19.9136 -0.924067 -0.674151
      vertex 18.1512 -1.72381 -0.996784
    endloop
  endfacet
  facet normal -0.384859 0.922611 -0.0259307
    outer loop
      vertex 18.0643 -1.73201 0
      vertex 16.4771 -2.4307 -1.30236
      vertex 16.3637 -2.4414 0
    endloop
  endfacet
  facet normal -0.384838 0.922619 -0.0259604
    outer loop
      vertex 18.0643 -1.73201 0
      vertex 18.1512 -1.72381 -0.996784
      vertex 16.4771 -2.4307 -1.30236
    endloop
  endfacet
  facet normal -0.413417 0.910095 -0.0285209
    outer loop
      vertex 16.3637 -2.4414 0
      vertex 14.5592 -3.31214 -1.62847
      vertex 14.4174 -3.32552 0
    endloop
  endfacet
  facet normal -0.413417 0.910095 -0.0285202
    outer loop
      vertex 16.3637 -2.4414 0
      vertex 16.4771 -2.4307 -1.30236
      vertex 14.5592 -3.31214 -1.62847
    endloop
  endfacet
  facet normal -0.595626 0.801984 -0.0452948
    outer loop
      vertex 14.4174 -3.32552 0
      vertex 12.5852 -4.79779 -1.97443
      vertex 12.4132 -4.81402 0
    endloop
  endfacet
  facet normal -0.595639 0.801975 -0.0452763
    outer loop
      vertex 14.4174 -3.32552 0
      vertex 14.5592 -3.31214 -1.62847
      vertex 12.5852 -4.79779 -1.97443
    endloop
  endfacet
  facet normal -0.690671 0.721132 -0.0542413
    outer loop
      vertex 12.4132 -4.81402 0
      vertex 10.9016 -6.43834 -2.3475
      vertex 10.6971 -6.45763 0
    endloop
  endfacet
  facet normal -0.690672 0.721131 -0.0542393
    outer loop
      vertex 12.4132 -4.81402 0
      vertex 12.5852 -4.79779 -1.97443
      vertex 10.9016 -6.43834 -2.3475
    endloop
  endfacet
  facet normal -0.905881 0.41675 -0.0754942
    outer loop
      vertex 10.6971 -6.45763 0
      vertex 10.1447 -8.14841 -2.70517
      vertex 9.90903 -8.17064 0
    endloop
  endfacet
  facet normal -0.905883 0.416745 -0.0754906
    outer loop
      vertex 10.6971 -6.45763 0
      vertex 10.9016 -6.43834 -2.3475
      vertex 10.1447 -8.14841 -2.70517
    endloop
  endfacet
  facet normal -0.968876 0.233404 -0.0824725
    outer loop
      vertex 9.90903 -8.17064 0
      vertex 9.72326 -9.95572 -2.86953
      vertex 9.47332 -9.9793 0
    endloop
  endfacet
  facet normal -0.968869 0.233429 -0.0824881
    outer loop
      vertex 9.90903 -8.17064 0
      vertex 10.1447 -8.14841 -2.70517
      vertex 9.72326 -9.95572 -2.86953
    endloop
  endfacet
  facet normal -0.513128 0.857486 -0.0376406
    outer loop
      vertex 9.47332 -9.9793 0
      vertex 6.06533 -12.167 -3.37895
      vertex 5.77101 -12.1948 0
    endloop
  endfacet
  facet normal -0.513123 0.857489 -0.0376474
    outer loop
      vertex 9.47332 -9.9793 0
      vertex 9.72326 -9.95572 -2.86953
      vertex 6.06533 -12.167 -3.37895
    endloop
  endfacet
  facet normal -0.877823 0.473456 -0.0725669
    outer loop
      vertex 5.77101 -12.1948 0
      vertex 4.9873 -14.2016 -3.61283
      vertex 4.67262 -14.2313 0
    endloop
  endfacet
  facet normal -0.877824 0.473455 -0.0725666
    outer loop
      vertex 5.77101 -12.1948 0
      vertex 6.06533 -12.167 -3.37895
      vertex 4.9873 -14.2016 -3.61283
    endloop
  endfacet
  facet normal -0.918471 0.387959 -0.0768102
    outer loop
      vertex 4.67262 -14.2313 0
      vertex 3.00561 -18.9581 -3.94094
      vertex 2.66235 -18.9905 0
    endloop
  endfacet
  facet normal -0.918471 0.387959 -0.0768101
    outer loop
      vertex 4.67262 -14.2313 0
      vertex 4.9873 -14.2016 -3.61283
      vertex 3.00561 -18.9581 -3.94094
    endloop
  endfacet
  facet normal -0.972659 0.216923 -0.082936
    outer loop
      vertex 2.66235 -18.9905 0
      vertex 0.768793 -29.1216 -4.29102
      vertex 0.395037 -29.1569 0
    endloop
  endfacet
  facet normal -0.972659 0.216923 -0.0829362
    outer loop
      vertex 2.66235 -18.9905 0
      vertex 3.00561 -18.9581 -3.94094
      vertex 0.768793 -29.1216 -4.29102
    endloop
  endfacet
  facet normal -0.996218 -0.00385239 -0.0868042
    outer loop
      vertex 0.607417 -35.8 -2.14258
      vertex 0.420726 -35.8 0
      vertex 0.395037 -29.1569 0
    endloop
  endfacet
  facet normal -0.996218 -0.00385238 -0.0868041
    outer loop
      vertex 0.607417 -35.8 -2.14258
      vertex 0.768793 -29.1216 -4.29102
      vertex 0.782858 -35.8 -4.15605
    endloop
  endfacet
  facet normal -0.996218 -0.0038524 -0.0868042
    outer loop
      vertex 0.768793 -29.1216 -4.29102
      vertex 0.607417 -35.8 -2.14258
      vertex 0.395037 -29.1569 0
    endloop
  endfacet
  facet normal -0.156849 0.987477 -0.016972
    outer loop
      vertex 23.672 -0.0561466 0
      vertex 21.8523 -0.356693 -0.669639
      vertex 21.7644 -0.364989 -0.339984
    endloop
  endfacet
  facet normal -0.280399 0.958544 -0.0506914
    outer loop
      vertex 21.7644 -0.364989 -0.339984
      vertex 20.088 -0.907619 -1.32782
      vertex 19.9136 -0.924067 -0.674151
    endloop
  endfacet
  facet normal -0.280421 0.95854 -0.0506499
    outer loop
      vertex 21.7644 -0.364989 -0.339984
      vertex 21.8523 -0.356693 -0.669639
      vertex 20.088 -0.907619 -1.32782
    endloop
  endfacet
  facet normal -0.399072 0.913112 -0.0834705
    outer loop
      vertex 19.9136 -0.924067 -0.674151
      vertex 18.409 -1.69949 -1.96328
      vertex 18.1512 -1.72381 -0.996784
    endloop
  endfacet
  facet normal -0.399056 0.913117 -0.0834924
    outer loop
      vertex 19.9136 -0.924067 -0.674151
      vertex 20.088 -0.907619 -1.32782
      vertex 18.409 -1.69949 -1.96328
    endloop
  endfacet
  facet normal -0.375871 0.923464 -0.0770385
    outer loop
      vertex 18.1512 -1.72381 -0.996784
      vertex 16.814 -2.39892 -2.56515
      vertex 16.4771 -2.4307 -1.30236
    endloop
  endfacet
  facet normal -0.375885 0.92346 -0.0770252
    outer loop
      vertex 18.1512 -1.72381 -0.996784
      vertex 18.409 -1.69949 -1.96328
      vertex 16.814 -2.39892 -2.56515
    endloop
  endfacet
  facet normal -0.404136 0.910752 -0.0848831
    outer loop
      vertex 16.4771 -2.4307 -1.30236
      vertex 14.9804 -3.2724 -3.20745
      vertex 14.5592 -3.31214 -1.62847
    endloop
  endfacet
  facet normal -0.404123 0.910757 -0.0848954
    outer loop
      vertex 16.4771 -2.4307 -1.30236
      vertex 16.814 -2.39892 -2.56515
      vertex 14.9804 -3.2724 -3.20745
    endloop
  endfacet
  facet normal -0.580674 0.802916 -0.1347
    outer loop
      vertex 14.5592 -3.31214 -1.62847
      vertex 13.0959 -4.74962 -3.88886
      vertex 12.5852 -4.79779 -1.97443
    endloop
  endfacet
  facet normal -0.580682 0.802911 -0.134692
    outer loop
      vertex 14.5592 -3.31214 -1.62847
      vertex 14.9804 -3.2724 -3.20745
      vertex 13.0959 -4.74962 -3.88886
    endloop
  endfacet
  facet normal -0.670348 0.72446 -0.160596
    outer loop
      vertex 12.5852 -4.79779 -1.97443
      vertex 11.5088 -6.38107 -4.62368
      vertex 10.9016 -6.43834 -2.3475
    endloop
  endfacet
  facet normal -0.670349 0.72446 -0.160596
    outer loop
      vertex 12.5852 -4.79779 -1.97443
      vertex 13.0959 -4.74962 -3.88886
      vertex 11.5088 -6.38107 -4.62368
    endloop
  endfacet
  facet normal -0.873546 0.433102 -0.222126
    outer loop
      vertex 10.9016 -6.43834 -2.3475
      vertex 10.8444 -8.0824 -5.32815
      vertex 10.1447 -8.14841 -2.70517
    endloop
  endfacet
  facet normal -0.87354 0.433111 -0.222131
    outer loop
      vertex 10.9016 -6.43834 -2.3475
      vertex 11.5088 -6.38107 -4.62368
      vertex 10.8444 -8.0824 -5.32815
    endloop
  endfacet
  facet normal -0.93917 0.241234 -0.244469
    outer loop
      vertex 10.1447 -8.14841 -2.70517
      vertex 10.4655 -9.8857 -5.65188
      vertex 9.72326 -9.95572 -2.86953
    endloop
  endfacet
  facet normal -0.939176 0.241221 -0.244462
    outer loop
      vertex 10.8444 -8.0824 -5.32815
      vertex 10.4655 -9.8857 -5.65188
      vertex 10.1447 -8.14841 -2.70517
    endloop
  endfacet
  facet normal -0.50253 0.857209 -0.112498
    outer loop
      vertex 9.72326 -9.95572 -2.86953
      vertex 6.93932 -12.0846 -6.65522
      vertex 6.06533 -12.167 -3.37895
    endloop
  endfacet
  facet normal -0.502539 0.857205 -0.112489
    outer loop
      vertex 9.72326 -9.95572 -2.86953
      vertex 10.4655 -9.8857 -5.65188
      vertex 6.93932 -12.0846 -6.65522
    endloop
  endfacet
  facet normal -0.852422 0.476417 -0.215416
    outer loop
      vertex 6.06533 -12.167 -3.37895
      vertex 5.9218 -14.1135 -7.11589
      vertex 4.9873 -14.2016 -3.61283
    endloop
  endfacet
  facet normal -0.852425 0.476413 -0.215414
    outer loop
      vertex 6.06533 -12.167 -3.37895
      vertex 6.93932 -12.0846 -6.65522
      vertex 5.9218 -14.1135 -7.11589
    endloop
  endfacet
  facet normal -0.892983 0.387801 -0.228455
    outer loop
      vertex 4.9873 -14.2016 -3.61283
      vertex 4.02498 -18.8619 -7.76215
      vertex 3.00561 -18.9581 -3.94094
    endloop
  endfacet
  facet normal -0.892978 0.387808 -0.228464
    outer loop
      vertex 4.9873 -14.2016 -3.61283
      vertex 5.9218 -14.1135 -7.11589
      vertex 4.02498 -18.8619 -7.76215
    endloop
  endfacet
  facet normal -0.94466 0.216397 -0.246557
    outer loop
      vertex 3.00561 -18.9581 -3.94094
      vertex 1.87871 -29.0169 -8.45167
      vertex 0.768793 -29.1216 -4.29102
    endloop
  endfacet
  facet normal -0.94466 0.216396 -0.246556
    outer loop
      vertex 3.00561 -18.9581 -3.94094
      vertex 4.02498 -18.8619 -7.76215
      vertex 1.87871 -29.0169 -8.45167
    endloop
  endfacet
  facet normal -0.966141 -0.00724717 -0.257915
    outer loop
      vertex 1.34294 -35.8 -6.2541
      vertex 0.782858 -35.8 -4.15605
      vertex 0.768793 -29.1216 -4.29102
    endloop
  endfacet
  facet normal -0.966141 -0.00724629 -0.257913
    outer loop
      vertex 1.34294 -35.8 -6.2541
      vertex 1.87871 -29.0169 -8.45167
      vertex 1.85754 -35.8 -8.18179
    endloop
  endfacet
  facet normal -0.96614 -0.00724704 -0.257915
    outer loop
      vertex 1.87871 -29.0169 -8.45167
      vertex 1.34294 -35.8 -6.2541
      vertex 0.768793 -29.1216 -4.29102
    endloop
  endfacet
  facet normal -0.152944 0.987845 -0.0277473
    outer loop
      vertex 23.672 -0.0561466 0
      vertex 21.9959 -0.343148 -0.978946
      vertex 21.8523 -0.356693 -0.669639
    endloop
  endfacet
  facet normal -0.268792 0.959638 -0.0827434
    outer loop
      vertex 21.8523 -0.356693 -0.669639
      vertex 20.3727 -0.880758 -1.94114
      vertex 20.088 -0.907619 -1.32782
    endloop
  endfacet
  facet normal -0.268778 0.95964 -0.08276
    outer loop
      vertex 21.8523 -0.356693 -0.669639
      vertex 21.9959 -0.343148 -0.978946
      vertex 20.3727 -0.880758 -1.94114
    endloop
  endfacet
  facet normal -0.379917 0.914922 -0.136311
    outer loop
      vertex 20.088 -0.907619 -1.32782
      vertex 18.83 -1.65978 -2.87013
      vertex 18.409 -1.69949 -1.96328
    endloop
  endfacet
  facet normal -0.379935 0.914917 -0.136294
    outer loop
      vertex 20.088 -0.907619 -1.32782
      vertex 20.3727 -0.880758 -1.94114
      vertex 18.83 -1.65978 -2.87013
    endloop
  endfacet
  facet normal -0.358213 0.925127 -0.125795
    outer loop
      vertex 18.409 -1.69949 -1.96328
      vertex 17.3641 -2.34703 -3.75
      vertex 16.814 -2.39892 -2.56515
    endloop
  endfacet
  facet normal -0.358219 0.925125 -0.125791
    outer loop
      vertex 18.409 -1.69949 -1.96328
      vertex 18.83 -1.65978 -2.87013
      vertex 17.3641 -2.34703 -3.75
    endloop
  endfacet
  facet normal -0.38574 0.912055 -0.139139
    outer loop
      vertex 16.814 -2.39892 -2.56515
      vertex 15.6682 -3.20752 -4.68898
      vertex 14.9804 -3.2724 -3.20745
    endloop
  endfacet
  facet normal -0.385732 0.912058 -0.139144
    outer loop
      vertex 16.814 -2.39892 -2.56515
      vertex 17.3641 -2.34703 -3.75
      vertex 15.6682 -3.20752 -4.68898
    endloop
  endfacet
  facet normal -0.55108 0.804769 -0.220586
    outer loop
      vertex 14.9804 -3.2724 -3.20745
      vertex 13.9298 -4.67095 -5.68514
      vertex 13.0959 -4.74962 -3.88886
    endloop
  endfacet
  facet normal -0.551072 0.804773 -0.220592
    outer loop
      vertex 14.9804 -3.2724 -3.20745
      vertex 15.6682 -3.20752 -4.68898
      vertex 13.9298 -4.67095 -5.68514
    endloop
  endfacet
  facet normal -0.630643 0.730951 -0.260767
    outer loop
      vertex 13.0959 -4.74962 -3.88886
      vertex 12.5003 -6.28754 -6.75937
      vertex 11.5088 -6.38107 -4.62368
    endloop
  endfacet
  facet normal -0.630654 0.730944 -0.260761
    outer loop
      vertex 13.0959 -4.74962 -3.88886
      vertex 13.9298 -4.67095 -5.68514
      vertex 12.5003 -6.28754 -6.75937
    endloop
  endfacet
  facet normal -0.810985 0.464176 -0.356152
    outer loop
      vertex 11.5088 -6.38107 -4.62368
      vertex 11.9869 -7.97462 -7.78924
      vertex 10.8444 -8.0824 -5.32815
    endloop
  endfacet
  facet normal -0.810964 0.464205 -0.356163
    outer loop
      vertex 12.5003 -6.28754 -6.75937
      vertex 11.9869 -7.97462 -7.78924
      vertex 11.5088 -6.38107 -4.62368
    endloop
  endfacet
  facet normal -0.880915 0.256496 -0.397741
    outer loop
      vertex 10.8444 -8.0824 -5.32815
      vertex 11.6775 -9.77138 -8.26249
      vertex 10.4655 -9.8857 -5.65188
    endloop
  endfacet
  facet normal -0.880937 0.256453 -0.397722
    outer loop
      vertex 11.9869 -7.97462 -7.78924
      vertex 11.6775 -9.77138 -8.26249
      vertex 10.8444 -8.0824 -5.32815
    endloop
  endfacet
  facet normal -0.481288 0.856623 -0.185901
    outer loop
      vertex 10.4655 -9.8857 -5.65188
      vertex 8.36645 -11.9499 -9.72929
      vertex 6.93932 -12.0846 -6.65522
    endloop
  endfacet
  facet normal -0.481263 0.856633 -0.185919
    outer loop
      vertex 10.4655 -9.8857 -5.65188
      vertex 11.6775 -9.77138 -8.26249
      vertex 8.36645 -11.9499 -9.72929
    endloop
  endfacet
  facet normal -0.802466 0.482238 -0.351417
    outer loop
      vertex 6.93932 -12.0846 -6.65522
      vertex 7.4477 -13.9695 -10.4027
      vertex 5.9218 -14.1135 -7.11589
    endloop
  endfacet
  facet normal -0.802471 0.482232 -0.351415
    outer loop
      vertex 8.36645 -11.9499 -9.72929
      vertex 7.4477 -13.9695 -10.4027
      vertex 6.93932 -12.0846 -6.65522
    endloop
  endfacet
  facet normal -0.842527 0.387485 -0.374171
    outer loop
      vertex 5.9218 -14.1135 -7.11589
      vertex 5.68946 -18.7049 -11.3475
      vertex 4.02498 -18.8619 -7.76215
    endloop
  endfacet
  facet normal -0.84253 0.387482 -0.374168
    outer loop
      vertex 5.9218 -14.1135 -7.11589
      vertex 7.4477 -13.9695 -10.4027
      vertex 5.68946 -18.7049 -11.3475
    endloop
  endfacet
  facet normal -0.889308 0.215349 -0.403431
    outer loop
      vertex 4.02498 -18.8619 -7.76215
      vertex 3.69105 -28.846 -12.3555
      vertex 1.87871 -29.0169 -8.45167
    endloop
  endfacet
  facet normal -0.88931 0.215347 -0.403427
    outer loop
      vertex 4.02498 -18.8619 -7.76215
      vertex 5.68946 -18.7049 -11.3475
      vertex 3.69105 -28.846 -12.3555
    endloop
  endfacet
  facet normal -0.906702 -0.0139421 -0.421542
    outer loop
      vertex 1.87871 -29.0169 -8.45167
      vertex 2.79017 -35.8 -10.1878
      vertex 1.85754 -35.8 -8.18179
    endloop
  endfacet
  facet normal -0.906704 -0.0139397 -0.421538
    outer loop
      vertex 2.79017 -35.8 -10.1878
      vertex 3.69105 -28.846 -12.3555
      vertex 3.61009 -35.8 -11.9514
    endloop
  endfacet
  facet normal -0.906701 -0.0139417 -0.421543
    outer loop
      vertex 3.69105 -28.846 -12.3555
      vertex 2.79017 -35.8 -10.1878
      vertex 1.87871 -29.0169 -8.45167
    endloop
  endfacet
  facet normal -0.147249 0.988382 -0.0376564
    outer loop
      vertex 23.672 -0.0561466 0
      vertex 22.1908 -0.324763 -1.25851
      vertex 21.9959 -0.343148 -0.978946
    endloop
  endfacet
  facet normal -0.251797 0.961242 -0.112303
    outer loop
      vertex 21.9959 -0.343148 -0.978946
      vertex 20.7591 -0.844305 -2.49548
      vertex 20.3727 -0.880758 -1.94114
    endloop
  endfacet
  facet normal -0.251781 0.961245 -0.112316
    outer loop
      vertex 21.9959 -0.343148 -0.978946
      vertex 22.1908 -0.324763 -1.25851
      vertex 20.7591 -0.844305 -2.49548
    endloop
  endfacet
  facet normal -0.351934 0.917559 -0.185008
    outer loop
      vertex 20.3727 -0.880758 -1.94114
      vertex 19.4014 -1.60588 -3.68976
      vertex 18.83 -1.65978 -2.87013
    endloop
  endfacet
  facet normal -0.351957 0.917553 -0.184993
    outer loop
      vertex 20.3727 -0.880758 -1.94114
      vertex 20.7591 -0.844305 -2.49548
      vertex 19.4014 -1.60588 -3.68976
    endloop
  endfacet
  facet normal -0.332398 0.927561 -0.170711
    outer loop
      vertex 18.83 -1.65978 -2.87013
      vertex 18.1106 -2.27661 -4.82091
      vertex 17.3641 -2.34703 -3.75
    endloop
  endfacet
  facet normal -0.332381 0.927566 -0.170719
    outer loop
      vertex 18.83 -1.65978 -2.87013
      vertex 19.4014 -1.60588 -3.68976
      vertex 18.1106 -2.27661 -4.82091
    endloop
  endfacet
  facet normal -0.358603 0.913971 -0.189895
    outer loop
      vertex 17.3641 -2.34703 -3.75
      vertex 16.6017 -3.11947 -6.02804
      vertex 15.6682 -3.20752 -4.68898
    endloop
  endfacet
  facet normal -0.358624 0.913965 -0.189886
    outer loop
      vertex 17.3641 -2.34703 -3.75
      vertex 18.1106 -2.27661 -4.82091
      vertex 16.6017 -3.11947 -6.02804
    endloop
  endfacet
  facet normal -0.507479 0.807502 -0.300676
    outer loop
      vertex 15.6682 -3.20752 -4.68898
      vertex 15.0616 -4.56419 -7.30867
      vertex 13.9298 -4.67095 -5.68514
    endloop
  endfacet
  facet normal -0.507474 0.807504 -0.300678
    outer loop
      vertex 15.6682 -3.20752 -4.68898
      vertex 16.6017 -3.11947 -6.02804
      vertex 15.0616 -4.56419 -7.30867
    endloop
  endfacet
  facet normal -0.573385 0.74028 -0.351019
    outer loop
      vertex 13.9298 -4.67095 -5.68514
      vertex 13.8459 -6.1606 -8.68968
      vertex 12.5003 -6.28754 -6.75937
    endloop
  endfacet
  facet normal -0.573365 0.740293 -0.351026
    outer loop
      vertex 13.9298 -4.67095 -5.68514
      vertex 15.0616 -4.56419 -7.30867
      vertex 13.8459 -6.1606 -8.68968
    endloop
  endfacet
  facet normal -0.722414 0.506915 -0.470272
    outer loop
      vertex 12.5003 -6.28754 -6.75937
      vertex 13.5376 -7.82835 -10.0137
      vertex 11.9869 -7.97462 -7.78924
    endloop
  endfacet
  facet normal -0.722433 0.506892 -0.470267
    outer loop
      vertex 13.8459 -6.1606 -8.68968
      vertex 13.5376 -7.82835 -10.0137
      vertex 12.5003 -6.28754 -6.75937
    endloop
  endfacet
  facet normal -0.796394 0.278532 -0.536821
    outer loop
      vertex 11.9869 -7.97462 -7.78924
      vertex 13.3223 -9.61621 -10.6221
      vertex 11.6775 -9.77138 -8.26249
    endloop
  endfacet
  facet normal -0.796364 0.278584 -0.536838
    outer loop
      vertex 13.5376 -7.82835 -10.0137
      vertex 13.3223 -9.61621 -10.6221
      vertex 11.9869 -7.97462 -7.78924
    endloop
  endfacet
  facet normal -0.449212 0.855699 -0.256881
    outer loop
      vertex 11.6775 -9.77138 -8.26249
      vertex 10.3033 -11.7672 -12.5077
      vertex 8.36645 -11.9499 -9.72929
    endloop
  endfacet
  facet normal -0.449231 0.855692 -0.256872
    outer loop
      vertex 11.6775 -9.77138 -8.26249
      vertex 13.3223 -9.61621 -10.6221
      vertex 10.3033 -11.7672 -12.5077
    endloop
  endfacet
  facet normal -0.729583 0.490727 -0.476336
    outer loop
      vertex 8.36645 -11.9499 -9.72929
      vertex 9.51866 -13.7742 -13.3735
      vertex 7.4477 -13.9695 -10.4027
    endloop
  endfacet
  facet normal -0.729589 0.49072 -0.476334
    outer loop
      vertex 10.3033 -11.7672 -12.5077
      vertex 9.51866 -13.7742 -13.3735
      vertex 8.36645 -11.9499 -9.72929
    endloop
  endfacet
  facet normal -0.768174 0.386985 -0.51005
    outer loop
      vertex 7.4477 -13.9695 -10.4027
      vertex 7.9485 -18.4918 -14.5881
      vertex 5.68946 -18.7049 -11.3475
    endloop
  endfacet
  facet normal -0.768169 0.386989 -0.510054
    outer loop
      vertex 9.51866 -13.7742 -13.3735
      vertex 7.9485 -18.4918 -14.5881
      vertex 7.4477 -13.9695 -10.4027
    endloop
  endfacet
  facet normal -0.807912 0.213792 -0.549155
    outer loop
      vertex 5.68946 -18.7049 -11.3475
      vertex 6.15077 -28.614 -15.8839
      vertex 3.69105 -28.846 -12.3555
    endloop
  endfacet
  facet normal -0.807919 0.213788 -0.549146
    outer loop
      vertex 7.9485 -18.4918 -14.5881
      vertex 6.15077 -28.614 -15.8839
      vertex 5.68946 -18.7049 -11.3475
    endloop
  endfacet
  facet normal -0.819375 -0.0237443 -0.572766
    outer loop
      vertex 3.69105 -28.846 -12.3555
      vertex 4.91168 -35.8 -13.8134
      vertex 3.61009 -35.8 -11.9514
    endloop
  endfacet
  facet normal -0.819372 -0.0237468 -0.57277
    outer loop
      vertex 4.91168 -35.8 -13.8134
      vertex 6.15077 -28.614 -15.8839
      vertex 5.98414 -35.8 -15.3476
    endloop
  endfacet
  facet normal -0.819376 -0.0237447 -0.572765
    outer loop
      vertex 6.15077 -28.614 -15.8839
      vertex 4.91168 -35.8 -13.8134
      vertex 3.69105 -28.846 -12.3555
    endloop
  endfacet
  facet normal -0.139914 0.989074 -0.0464363
    outer loop
      vertex 23.672 -0.0561466 0
      vertex 22.4311 -0.3021 -1.49983
      vertex 22.1908 -0.324763 -1.25851
    endloop
  endfacet
  facet normal -0.229944 0.963305 -0.138457
    outer loop
      vertex 22.1908 -0.324763 -1.25851
      vertex 21.2355 -0.799365 -2.974
      vertex 20.7591 -0.844305 -2.49548
    endloop
  endfacet
  facet normal -0.229913 0.963309 -0.138475
    outer loop
      vertex 22.1908 -0.324763 -1.25851
      vertex 22.4311 -0.3021 -1.49983
      vertex 21.2355 -0.799365 -2.974
    endloop
  endfacet
  facet normal -0.315966 0.920949 -0.228074
    outer loop
      vertex 20.7591 -0.844305 -2.49548
      vertex 20.1058 -1.53943 -4.39729
      vertex 19.4014 -1.60588 -3.68976
    endloop
  endfacet
  facet normal -0.315965 0.920949 -0.228075
    outer loop
      vertex 20.7591 -0.844305 -2.49548
      vertex 21.2355 -0.799365 -2.974
      vertex 20.1058 -1.53943 -4.39729
    endloop
  endfacet
  facet normal -0.299192 0.930696 -0.210449
    outer loop
      vertex 19.4014 -1.60588 -3.68976
      vertex 19.0309 -2.18979 -5.74533
      vertex 18.1106 -2.27661 -4.82091
    endloop
  endfacet
  facet normal -0.299184 0.930698 -0.210451
    outer loop
      vertex 19.4014 -1.60588 -3.68976
      vertex 20.1058 -1.53943 -4.39729
      vertex 19.0309 -2.18979 -5.74533
    endloop
  endfacet
  facet normal -0.323289 0.916453 -0.235791
    outer loop
      vertex 18.1106 -2.27661 -4.82091
      vertex 17.7525 -3.01091 -7.18394
      vertex 16.6017 -3.11947 -6.02804
    endloop
  endfacet
  facet normal -0.323301 0.91645 -0.235788
    outer loop
      vertex 18.1106 -2.27661 -4.82091
      vertex 19.0309 -2.18979 -5.74533
      vertex 17.7525 -3.01091 -7.18394
    endloop
  endfacet
  facet normal -0.45088 0.811038 -0.372725
    outer loop
      vertex 16.6017 -3.11947 -6.02804
      vertex 16.4569 -4.43257 -8.71014
      vertex 15.0616 -4.56419 -7.30867
    endloop
  endfacet
  facet normal -0.450885 0.811036 -0.372724
    outer loop
      vertex 16.6017 -3.11947 -6.02804
      vertex 17.7525 -3.01091 -7.18394
      vertex 16.4569 -4.43257 -8.71014
    endloop
  endfacet
  facet normal -0.50108 0.752027 -0.428223
    outer loop
      vertex 15.0616 -4.56419 -7.30867
      vertex 15.5048 -6.00411 -10.356
      vertex 13.8459 -6.1606 -8.68968
    endloop
  endfacet
  facet normal -0.50106 0.752038 -0.428226
    outer loop
      vertex 16.4569 -4.43257 -8.71014
      vertex 15.5048 -6.00411 -10.356
      vertex 15.0616 -4.56419 -7.30867
    endloop
  endfacet
  facet normal -0.614 0.557271 -0.558974
    outer loop
      vertex 13.8459 -6.1606 -8.68968
      vertex 15.4493 -7.64801 -11.9338
      vertex 13.5376 -7.82835 -10.0137
    endloop
  endfacet
  facet normal -0.614039 0.557229 -0.558974
    outer loop
      vertex 15.5048 -6.00411 -10.356
      vertex 15.4493 -7.64801 -11.9338
      vertex 13.8459 -6.1606 -8.68968
    endloop
  endfacet
  facet normal -0.688781 0.306514 -0.656985
    outer loop
      vertex 13.5376 -7.82835 -10.0137
      vertex 15.3502 -9.42492 -12.6589
      vertex 13.3223 -9.61621 -10.6221
    endloop
  endfacet
  facet normal -0.688785 0.306508 -0.656984
    outer loop
      vertex 15.4493 -7.64801 -11.9338
      vertex 15.3502 -9.42492 -12.6589
      vertex 13.5376 -7.82835 -10.0137
    endloop
  endfacet
  facet normal -0.406212 0.854334 -0.324199
    outer loop
      vertex 13.3223 -9.61621 -10.6221
      vertex 12.6911 -11.542 -14.9061
      vertex 10.3033 -11.7672 -12.5077
    endloop
  endfacet
  facet normal -0.406211 0.854335 -0.324199
    outer loop
      vertex 13.3223 -9.61621 -10.6221
      vertex 15.3502 -9.42492 -12.6589
      vertex 12.6911 -11.542 -14.9061
    endloop
  endfacet
  facet normal -0.636174 0.501609 -0.586235
    outer loop
      vertex 10.3033 -11.7672 -12.5077
      vertex 12.0717 -13.5333 -15.9379
      vertex 9.51866 -13.7742 -13.3735
    endloop
  endfacet
  facet normal -0.63615 0.501637 -0.586237
    outer loop
      vertex 12.6911 -11.542 -14.9061
      vertex 12.0717 -13.5333 -15.9379
      vertex 10.3033 -11.7672 -12.5077
    endloop
  endfacet
  facet normal -0.671536 0.386302 -0.632305
    outer loop
      vertex 9.51866 -13.7742 -13.3735
      vertex 10.7335 -18.2291 -17.3854
      vertex 7.9485 -18.4918 -14.5881
    endloop
  endfacet
  facet normal -0.671556 0.386286 -0.632294
    outer loop
      vertex 12.0717 -13.5333 -15.9379
      vertex 10.7335 -18.2291 -17.3854
      vertex 9.51866 -13.7742 -13.3735
    endloop
  endfacet
  facet normal -0.702474 0.211745 -0.67948
    outer loop
      vertex 7.9485 -18.4918 -14.5881
      vertex 9.18311 -28.3279 -18.9297
      vertex 6.15077 -28.614 -15.8839
    endloop
  endfacet
  facet normal -0.702464 0.211751 -0.679489
    outer loop
      vertex 10.7335 -18.2291 -17.3854
      vertex 9.18311 -28.3279 -18.9297
      vertex 7.9485 -18.4918 -14.5881
    endloop
  endfacet
  facet normal -0.706486 -0.0363667 -0.706792
    outer loop
      vertex 6.15077 -28.614 -15.8839
      vertex 7.64546 -35.8 -17.0082
      vertex 5.98414 -35.8 -15.3476
    endloop
  endfacet
  facet normal -0.706499 -0.0363658 -0.706779
    outer loop
      vertex 7.64546 -35.8 -17.0082
      vertex 9.18311 -28.3279 -18.9297
      vertex 8.90376 -35.8 -18.266
    endloop
  endfacet
  facet normal -0.706492 -0.0363689 -0.706786
    outer loop
      vertex 9.18311 -28.3279 -18.9297
      vertex 7.64546 -35.8 -17.0082
      vertex 6.15077 -28.614 -15.8839
    endloop
  endfacet
  facet normal -0.13121 0.989895 -0.0537726
    outer loop
      vertex 23.672 -0.0561466 0
      vertex 22.7094 -0.275845 -1.69558
      vertex 22.4311 -0.3021 -1.49983
    endloop
  endfacet
  facet normal -0.203909 0.965762 -0.160392
    outer loop
      vertex 22.4311 -0.3021 -1.49983
      vertex 21.7874 -0.747303 -3.36216
      vertex 21.2355 -0.799365 -2.974
    endloop
  endfacet
  facet normal -0.203923 0.965759 -0.160387
    outer loop
      vertex 22.4311 -0.3021 -1.49983
      vertex 22.7094 -0.275845 -1.69558
      vertex 21.7874 -0.747303 -3.36216
    endloop
  endfacet
  facet normal -0.273081 0.924995 -0.264217
    outer loop
      vertex 21.2355 -0.799365 -2.974
      vertex 20.9218 -1.46246 -4.9712
      vertex 20.1058 -1.53943 -4.39729
    endloop
  endfacet
  facet normal -0.273084 0.924994 -0.264216
    outer loop
      vertex 21.2355 -0.799365 -2.974
      vertex 21.7874 -0.747303 -3.36216
      vertex 20.9218 -1.46246 -4.9712
    endloop
  endfacet
  facet normal -0.25961 0.934431 -0.243807
    outer loop
      vertex 20.1058 -1.53943 -4.39729
      vertex 20.0971 -2.08922 -6.49519
      vertex 19.0309 -2.18979 -5.74533
    endloop
  endfacet
  facet normal -0.259615 0.934429 -0.243806
    outer loop
      vertex 20.1058 -1.53943 -4.39729
      vertex 20.9218 -1.46246 -4.9712
      vertex 20.0971 -2.08922 -6.49519
    endloop
  endfacet
  facet normal -0.280521 0.919455 -0.275519
    outer loop
      vertex 19.0309 -2.18979 -5.74533
      vertex 19.0856 -2.88515 -8.12156
      vertex 17.7525 -3.01091 -7.18394
    endloop
  endfacet
  facet normal -0.280502 0.91946 -0.27552
    outer loop
      vertex 20.0971 -2.08922 -6.49519
      vertex 19.0856 -2.88515 -8.12156
      vertex 19.0309 -2.18979 -5.74533
    endloop
  endfacet
  facet normal -0.382611 0.815288 -0.434643
    outer loop
      vertex 17.7525 -3.01091 -7.18394
      vertex 18.0732 -4.2801 -9.84695
      vertex 16.4569 -4.43257 -8.71014
    endloop
  endfacet
  facet normal -0.382612 0.815287 -0.434643
    outer loop
      vertex 19.0856 -2.88515 -8.12156
      vertex 18.0732 -4.2801 -9.84695
      vertex 17.7525 -3.01091 -7.18394
    endloop
  endfacet
  facet normal -0.416811 0.765646 -0.489955
    outer loop
      vertex 16.4569 -4.43257 -8.71014
      vertex 17.4266 -5.82282 -11.7076
      vertex 15.5048 -6.00411 -10.356
    endloop
  endfacet
  facet normal -0.41683 0.765634 -0.489956
    outer loop
      vertex 18.0732 -4.2801 -9.84695
      vertex 17.4266 -5.82282 -11.7076
      vertex 16.4569 -4.43257 -8.71014
    endloop
  endfacet
  facet normal -0.493187 0.610991 -0.619239
    outer loop
      vertex 15.5048 -6.00411 -10.356
      vertex 17.6638 -7.43911 -13.4914
      vertex 15.4493 -7.64801 -11.9338
    endloop
  endfacet
  facet normal -0.493145 0.611034 -0.61923
    outer loop
      vertex 17.4266 -5.82282 -11.7076
      vertex 17.6638 -7.43911 -13.4914
      vertex 15.5048 -6.00411 -10.356
    endloop
  endfacet
  facet normal -0.562397 0.339103 -0.754134
    outer loop
      vertex 15.4493 -7.64801 -11.9338
      vertex 17.6993 -9.20332 -14.3111
      vertex 15.3502 -9.42492 -12.6589
    endloop
  endfacet
  facet normal -0.562416 0.339074 -0.754133
    outer loop
      vertex 17.6638 -7.43911 -13.4914
      vertex 17.6993 -9.20332 -14.3111
      vertex 15.4493 -7.64801 -11.9338
    endloop
  endfacet
  facet normal -0.352174 0.85246 -0.386374
    outer loop
      vertex 15.3502 -9.42492 -12.6589
      vertex 15.4573 -11.281 -16.8516
      vertex 12.6911 -11.542 -14.9061
    endloop
  endfacet
  facet normal -0.352167 0.852463 -0.386375
    outer loop
      vertex 17.6993 -9.20332 -14.3111
      vertex 15.4573 -11.281 -16.8516
      vertex 15.3502 -9.42492 -12.6589
    endloop
  endfacet
  facet normal -0.525223 0.51456 -0.677767
    outer loop
      vertex 12.6911 -11.542 -14.9061
      vertex 15.0294 -13.2543 -18.0181
      vertex 12.0717 -13.5333 -15.9379
    endloop
  endfacet
  facet normal -0.525231 0.514551 -0.677768
    outer loop
      vertex 15.4573 -11.281 -16.8516
      vertex 15.0294 -13.2543 -18.0181
      vertex 12.6911 -11.542 -14.9061
    endloop
  endfacet
  facet normal -0.554881 0.385397 -0.737276
    outer loop
      vertex 12.0717 -13.5333 -15.9379
      vertex 13.9597 -17.9248 -19.6544
      vertex 10.7335 -18.2291 -17.3854
    endloop
  endfacet
  facet normal -0.55489 0.38539 -0.737273
    outer loop
      vertex 15.0294 -13.2543 -18.0181
      vertex 13.9597 -17.9248 -19.6544
      vertex 12.0717 -13.5333 -15.9379
    endloop
  endfacet
  facet normal -0.575691 0.209254 -0.790438
    outer loop
      vertex 10.7335 -18.2291 -17.3854
      vertex 12.6959 -27.9965 -21.4004
      vertex 9.18311 -28.3279 -18.9297
    endloop
  endfacet
  facet normal -0.575667 0.209265 -0.790453
    outer loop
      vertex 13.9597 -17.9248 -19.6544
      vertex 12.6959 -27.9965 -21.4004
      vertex 10.7335 -18.2291 -17.3854
    endloop
  endfacet
  facet normal -0.57129 -0.0514007 -0.819137
    outer loop
      vertex 9.18311 -28.3279 -18.9297
      vertex 10.9064 -35.8 -19.6627
      vertex 8.90376 -35.8 -18.266
    endloop
  endfacet
  facet normal -0.571275 -0.0514048 -0.819148
    outer loop
      vertex 10.9064 -35.8 -19.6627
      vertex 12.6959 -27.9965 -21.4004
      vertex 12.2762 -35.8 -20.618
    endloop
  endfacet
  facet normal -0.571287 -0.0513999 -0.819139
    outer loop
      vertex 12.6959 -27.9965 -21.4004
      vertex 10.9064 -35.8 -19.6627
      vertex 9.18311 -28.3279 -18.9297
    endloop
  endfacet
  facet normal -0.121319 0.990828 -0.0595089
    outer loop
      vertex 23.672 -0.0561466 0
      vertex 23.0174 -0.246796 -1.83982
      vertex 22.7094 -0.275845 -1.69558
    endloop
  endfacet
  facet normal -0.174485 0.968537 -0.177458
    outer loop
      vertex 22.7094 -0.275845 -1.69558
      vertex 22.398 -0.689703 -3.64816
      vertex 21.7874 -0.747303 -3.36216
    endloop
  endfacet
  facet normal -0.174456 0.968541 -0.177464
    outer loop
      vertex 22.7094 -0.275845 -1.69558
      vertex 23.0174 -0.246796 -1.83982
      vertex 22.398 -0.689703 -3.64816
    endloop
  endfacet
  facet normal -0.224618 0.929567 -0.292321
    outer loop
      vertex 21.7874 -0.747303 -3.36216
      vertex 21.8246 -1.37729 -5.39407
      vertex 20.9218 -1.46246 -4.9712
    endloop
  endfacet
  facet normal -0.224611 0.929569 -0.292322
    outer loop
      vertex 22.398 -0.689703 -3.64816
      vertex 21.8246 -1.37729 -5.39407
      vertex 21.7874 -0.747303 -3.36216
    endloop
  endfacet
  facet normal -0.214891 0.938648 -0.269743
    outer loop
      vertex 20.9218 -1.46246 -4.9712
      vertex 21.2767 -1.97794 -7.04769
      vertex 20.0971 -2.08922 -6.49519
    endloop
  endfacet
  facet normal -0.214899 0.938646 -0.269744
    outer loop
      vertex 21.8246 -1.37729 -5.39407
      vertex 21.2767 -1.97794 -7.04769
      vertex 20.9218 -1.46246 -4.9712
    endloop
  endfacet
  facet normal -0.231245 0.922908 -0.307842
    outer loop
      vertex 20.0971 -2.08922 -6.49519
      vertex 20.5606 -2.74601 -8.81241
      vertex 19.0856 -2.88515 -8.12156
    endloop
  endfacet
  facet normal -0.231252 0.922906 -0.307843
    outer loop
      vertex 21.2767 -1.97794 -7.04769
      vertex 20.5606 -2.74601 -8.81241
      vertex 20.0971 -2.08922 -6.49519
    endloop
  endfacet
  facet normal -0.304304 0.820146 -0.48452
    outer loop
      vertex 19.0856 -2.88515 -8.12156
      vertex 19.8616 -4.1114 -10.6846
      vertex 18.0732 -4.2801 -9.84695
    endloop
  endfacet
  facet normal -0.304302 0.820147 -0.48452
    outer loop
      vertex 20.5606 -2.74601 -8.81241
      vertex 19.8616 -4.1114 -10.6846
      vertex 19.0856 -2.88515 -8.12156
    endloop
  endfacet
  facet normal -0.32402 0.780542 -0.53457
    outer loop
      vertex 18.0732 -4.2801 -9.84695
      vertex 19.5528 -5.62225 -12.7035
      vertex 17.4266 -5.82282 -11.7076
    endloop
  endfacet
  facet normal -0.32401 0.780548 -0.534567
    outer loop
      vertex 19.8616 -4.1114 -10.6846
      vertex 19.5528 -5.62225 -12.7035
      vertex 18.0732 -4.2801 -9.84695
    endloop
  endfacet
  facet normal -0.367502 0.66435 -0.650832
    outer loop
      vertex 20.114 -7.20797 -14.639
      vertex 17.6638 -7.43911 -13.4914
      vertex 17.4266 -5.82282 -11.7076
    endloop
  endfacet
  facet normal -0.367518 0.664334 -0.650839
    outer loop
      vertex 19.5528 -5.62225 -12.7035
      vertex 20.114 -7.20797 -14.639
      vertex 17.4266 -5.82282 -11.7076
    endloop
  endfacet
  facet normal -0.421962 0.375019 -0.825414
    outer loop
      vertex 20.2984 -8.95815 -15.5284
      vertex 17.6993 -9.20332 -14.3111
      vertex 17.6638 -7.43911 -13.4914
    endloop
  endfacet
  facet normal -0.421976 0.374998 -0.825417
    outer loop
      vertex 20.114 -7.20797 -14.639
      vertex 20.2984 -8.95815 -15.5284
      vertex 17.6638 -7.43911 -13.4914
    endloop
  endfacet
  facet normal -0.287091 0.849959 -0.441757
    outer loop
      vertex 17.6993 -9.20332 -14.3111
      vertex 18.5178 -10.9923 -18.2851
      vertex 15.4573 -11.281 -16.8516
    endloop
  endfacet
  facet normal -0.287075 0.849964 -0.441756
    outer loop
      vertex 20.2984 -8.95815 -15.5284
      vertex 18.5178 -10.9923 -18.2851
      vertex 17.6993 -9.20332 -14.3111
    endloop
  endfacet
  facet normal -0.400333 0.529097 -0.748191
    outer loop
      vertex 15.4573 -11.281 -16.8516
      vertex 18.3017 -12.9456 -19.5507
      vertex 15.0294 -13.2543 -18.0181
    endloop
  endfacet
  facet normal -0.400354 0.529072 -0.748198
    outer loop
      vertex 18.5178 -10.9923 -18.2851
      vertex 18.3017 -12.9456 -19.5507
      vertex 15.4573 -11.281 -16.8516
    endloop
  endfacet
  facet normal -0.421081 0.384285 -0.821593
    outer loop
      vertex 15.0294 -13.2543 -18.0181
      vertex 17.5292 -17.588 -21.3263
      vertex 13.9597 -17.9248 -19.6544
    endloop
  endfacet
  facet normal -0.421054 0.384304 -0.821598
    outer loop
      vertex 18.3017 -12.9456 -19.5507
      vertex 17.5292 -17.588 -21.3263
      vertex 15.0294 -13.2543 -18.0181
    endloop
  endfacet
  facet normal -0.430924 0.206362 -0.878475
    outer loop
      vertex 13.9597 -17.9248 -19.6544
      vertex 16.5825 -27.6299 -23.2208
      vertex 12.6959 -27.9965 -21.4004
    endloop
  endfacet
  facet normal -0.430934 0.206358 -0.878472
    outer loop
      vertex 17.5292 -17.588 -21.3263
      vertex 16.5825 -27.6299 -23.2208
      vertex 13.9597 -17.9248 -19.6544
    endloop
  endfacet
  facet normal -0.417872 -0.0683564 -0.905931
    outer loop
      vertex 12.6959 -27.9965 -21.4004
      vertex 14.5892 -35.8 -21.6849
      vertex 12.2762 -35.8 -20.618
    endloop
  endfacet
  facet normal -0.417828 -0.0683702 -0.90595
    outer loop
      vertex 14.5892 -35.8 -21.6849
      vertex 16.5825 -27.6299 -23.2208
      vertex 15.9953 -35.8 -22.3334
    endloop
  endfacet
  facet normal -0.417871 -0.0683562 -0.905931
    outer loop
      vertex 16.5825 -27.6299 -23.2208
      vertex 14.5892 -35.8 -21.6849
      vertex 12.6959 -27.9965 -21.4004
    endloop
  endfacet
  facet normal -0.110627 0.991837 -0.0634173
    outer loop
      vertex 23.672 -0.0561466 0
      vertex 23.3456 -0.215837 -1.92815
      vertex 23.0174 -0.246796 -1.83982
    endloop
  endfacet
  facet normal -0.142547 0.97155 -0.189131
    outer loop
      vertex 23.0174 -0.246796 -1.83982
      vertex 23.0488 -0.628313 -3.82331
      vertex 22.398 -0.689703 -3.64816
    endloop
  endfacet
  facet normal -0.142548 0.97155 -0.189131
    outer loop
      vertex 23.3456 -0.215837 -1.92815
      vertex 23.0488 -0.628313 -3.82331
      vertex 23.0174 -0.246796 -1.83982
    endloop
  endfacet
  facet normal -0.172012 0.934531 -0.311551
    outer loop
      vertex 22.398 -0.689703 -3.64816
      vertex 22.7868 -1.28652 -5.65304
      vertex 21.8246 -1.37729 -5.39407
    endloop
  endfacet
  facet normal -0.172002 0.934533 -0.31155
    outer loop
      vertex 23.0488 -0.628313 -3.82331
      vertex 22.7868 -1.28652 -5.65304
      vertex 22.398 -0.689703 -3.64816
    endloop
  endfacet
  facet normal -0.166351 0.943226 -0.287493
    outer loop
      vertex 21.8246 -1.37729 -5.39407
      vertex 22.5339 -1.85935 -7.38606
      vertex 21.2767 -1.97794 -7.04769
    endloop
  endfacet
  facet normal -0.166357 0.943224 -0.287495
    outer loop
      vertex 22.7868 -1.28652 -5.65304
      vertex 22.5339 -1.85935 -7.38606
      vertex 21.8246 -1.37729 -5.39407
    endloop
  endfacet
  facet normal -0.176678 0.926713 -0.331645
    outer loop
      vertex 21.2767 -1.97794 -7.04769
      vertex 22.1326 -2.59772 -9.2355
      vertex 20.5606 -2.74601 -8.81241
    endloop
  endfacet
  facet normal -0.176676 0.926713 -0.331645
    outer loop
      vertex 22.5339 -1.85935 -7.38606
      vertex 22.1326 -2.59772 -9.2355
      vertex 21.2767 -1.97794 -7.04769
    endloop
  endfacet
  facet normal -0.217984 0.825481 -0.520638
    outer loop
      vertex 20.5606 -2.74601 -8.81241
      vertex 21.7675 -3.9316 -11.1975
      vertex 19.8616 -4.1114 -10.6846
    endloop
  endfacet
  facet normal -0.217995 0.825477 -0.520641
    outer loop
      vertex 22.1326 -2.59772 -9.2355
      vertex 21.7675 -3.9316 -11.1975
      vertex 20.5606 -2.74601 -8.81241
    endloop
  endfacet
  facet normal -0.226144 0.796169 -0.561225
    outer loop
      vertex 19.8616 -4.1114 -10.6846
      vertex 21.819 -5.40848 -13.3134
      vertex 19.5528 -5.62225 -12.7035
    endloop
  endfacet
  facet normal -0.226142 0.79617 -0.561224
    outer loop
      vertex 21.7675 -3.9316 -11.1975
      vertex 21.819 -5.40848 -13.3134
      vertex 19.8616 -4.1114 -10.6846
    endloop
  endfacet
  facet normal -0.243916 0.714311 -0.655946
    outer loop
      vertex 22.7254 -6.96163 -15.3418
      vertex 20.114 -7.20797 -14.639
      vertex 19.5528 -5.62225 -12.7035
    endloop
  endfacet
  facet normal -0.243915 0.714312 -0.655945
    outer loop
      vertex 21.819 -5.40848 -13.3134
      vertex 22.7254 -6.96163 -15.3418
      vertex 19.5528 -5.62225 -12.7035
    endloop
  endfacet
  facet normal -0.272818 0.41285 -0.868979
    outer loop
      vertex 23.0684 -8.69684 -16.2739
      vertex 20.2984 -8.95815 -15.5284
      vertex 20.114 -7.20797 -14.639
    endloop
  endfacet
  facet normal -0.272812 0.41286 -0.868977
    outer loop
      vertex 22.7254 -6.96163 -15.3418
      vertex 23.0684 -8.69684 -16.2739
      vertex 20.114 -7.20797 -14.639
    endloop
  endfacet
  facet normal -0.211298 0.846709 -0.4883
    outer loop
      vertex 20.2984 -8.95815 -15.5284
      vertex 21.7796 -10.6846 -19.163
      vertex 18.5178 -10.9923 -18.2851
    endloop
  endfacet
  facet normal -0.211293 0.846711 -0.488299
    outer loop
      vertex 23.0684 -8.69684 -16.2739
      vertex 21.7796 -10.6846 -19.163
      vertex 20.2984 -8.95815 -15.5284
    endloop
  endfacet
  facet normal -0.265474 0.544769 -0.795456
    outer loop
      vertex 18.5178 -10.9923 -18.2851
      vertex 21.7893 -12.6167 -20.4894
      vertex 18.3017 -12.9456 -19.5507
    endloop
  endfacet
  facet normal -0.265484 0.544757 -0.795461
    outer loop
      vertex 21.7796 -10.6846 -19.163
      vertex 21.7893 -12.6167 -20.4894
      vertex 18.5178 -10.9923 -18.2851
    endloop
  endfacet
  facet normal -0.273588 0.382986 -0.88231
    outer loop
      vertex 18.3017 -12.9456 -19.5507
      vertex 21.3335 -17.2292 -22.3502
      vertex 17.5292 -17.588 -21.3263
    endloop
  endfacet
  facet normal -0.273594 0.382982 -0.88231
    outer loop
      vertex 21.7893 -12.6167 -20.4894
      vertex 21.3335 -17.2292 -22.3502
      vertex 18.3017 -12.9456 -19.5507
    endloop
  endfacet
  facet normal -0.272285 0.203111 -0.940536
    outer loop
      vertex 17.5292 -17.588 -21.3263
      vertex 20.7248 -27.2391 -24.3356
      vertex 16.5825 -27.6299 -23.2208
    endloop
  endfacet
  facet normal -0.272294 0.203107 -0.940534
    outer loop
      vertex 21.3335 -17.2292 -22.3502
      vertex 20.7248 -27.2391 -24.3356
      vertex 17.5292 -17.588 -21.3263
    endloop
  endfacet
  facet normal -0.251294 -0.0866471 -0.964025
    outer loop
      vertex 16.5825 -27.6299 -23.2208
      vertex 18.5721 -35.8 -23.0051
      vertex 15.9953 -35.8 -22.3334
    endloop
  endfacet
  facet normal -0.251293 -0.0866356 -0.964026
    outer loop
      vertex 18.5721 -35.8 -23.0051
      vertex 20.7248 -27.2391 -24.3356
      vertex 19.9451 -35.8 -23.363
    endloop
  endfacet
  facet normal -0.251272 -0.0866417 -0.964031
    outer loop
      vertex 20.7248 -27.2391 -24.3356
      vertex 18.5721 -35.8 -23.0051
      vertex 16.5825 -27.6299 -23.2208
    endloop
  endfacet
  facet normal -0.0994328 0.992893 -0.0653998
    outer loop
      vertex 23.672 -0.0561466 0
      vertex 23.684 -0.183907 -1.95789
      vertex 23.3456 -0.215837 -1.92815
    endloop
  endfacet
  facet normal -0.109082 0.974707 -0.195059
    outer loop
      vertex 23.3456 -0.215837 -1.92815
      vertex 23.72 -0.565 -3.88229
      vertex 23.0488 -0.628313 -3.82331
    endloop
  endfacet
  facet normal -0.109112 0.974702 -0.195064
    outer loop
      vertex 23.684 -0.183907 -1.95789
      vertex 23.72 -0.565 -3.88229
      vertex 23.3456 -0.215837 -1.92815
    endloop
  endfacet
  facet normal -0.116878 0.939733 -0.321313
    outer loop
      vertex 23.0488 -0.628313 -3.82331
      vertex 23.7792 -1.19291 -5.74025
      vertex 22.7868 -1.28652 -5.65304
    endloop
  endfacet
  facet normal -0.116878 0.939733 -0.321313
    outer loop
      vertex 23.72 -0.565 -3.88229
      vertex 23.7792 -1.19291 -5.74025
      vertex 23.0488 -0.628313 -3.82331
    endloop
  endfacet
  facet normal -0.115491 0.948023 -0.296504
    outer loop
      vertex 22.7868 -1.28652 -5.65304
      vertex 23.8305 -1.73703 -7.5
      vertex 22.5339 -1.85935 -7.38606
    endloop
  endfacet
  facet normal -0.11548 0.948026 -0.296499
    outer loop
      vertex 23.7792 -1.19291 -5.74025
      vertex 23.8305 -1.73703 -7.5
      vertex 22.7868 -1.28652 -5.65304
    endloop
  endfacet
  facet normal -0.118202 0.930776 -0.345955
    outer loop
      vertex 22.5339 -1.85935 -7.38606
      vertex 23.7539 -2.44478 -9.37797
      vertex 22.1326 -2.59772 -9.2355
    endloop
  endfacet
  facet normal -0.11821 0.930773 -0.345959
    outer loop
      vertex 23.8305 -1.73703 -7.5
      vertex 23.7539 -2.44478 -9.37797
      vertex 22.5339 -1.85935 -7.38606
    endloop
  endfacet
  facet normal -0.126014 0.831135 -0.541604
    outer loop
      vertex 22.1326 -2.59772 -9.2355
      vertex 23.7332 -3.74617 -11.3703
      vertex 21.7675 -3.9316 -11.1975
    endloop
  endfacet
  facet normal -0.125995 0.831144 -0.541594
    outer loop
      vertex 23.7539 -2.44478 -9.37797
      vertex 23.7332 -3.74617 -11.3703
      vertex 22.1326 -2.59772 -9.2355
    endloop
  endfacet
  facet normal -0.12665 0.811952 -0.569818
    outer loop
      vertex 24.1561 -5.18801 -13.5187
      vertex 21.819 -5.40848 -13.3134
      vertex 21.7675 -3.9316 -11.1975
    endloop
  endfacet
  facet normal -0.126685 0.81193 -0.569842
    outer loop
      vertex 23.7332 -3.74617 -11.3703
      vertex 24.1561 -5.18801 -13.5187
      vertex 21.7675 -3.9316 -11.1975
    endloop
  endfacet
  facet normal -0.127689 0.759113 -0.638313
    outer loop
      vertex 25 -6.55649 -15.315
      vertex 22.7254 -6.96163 -15.3418
      vertex 21.819 -5.40848 -13.3134
    endloop
  endfacet
  facet normal -0.127702 0.759185 -0.638224
    outer loop
      vertex 22.7254 -6.96163 -15.3418
      vertex 25 -6.55649 -15.315
      vertex 25 -6.74707 -15.5417
    endloop
  endfacet
  facet normal -0.127838 0.759066 -0.638339
    outer loop
      vertex 25 -6.55649 -15.315
      vertex 24.1561 -5.18801 -13.5187
      vertex 25 -6.20371 -14.8955
    endloop
  endfacet
  facet normal -0.127683 0.759119 -0.638307
    outer loop
      vertex 24.1561 -5.18801 -13.5187
      vertex 25 -6.55649 -15.315
      vertex 21.819 -5.40848 -13.3134
    endloop
  endfacet
  facet normal -0.120296 0.451211 -0.884272
    outer loop
      vertex 23.0684 -8.69684 -16.2739
      vertex 25 -8.00352 -16.1829
      vertex 25 -8.51463 -16.4437
    endloop
  endfacet
  facet normal -0.1203 0.45122 -0.884267
    outer loop
      vertex 25 -8.00352 -16.1829
      vertex 23.0684 -8.69684 -16.2739
      vertex 22.7254 -6.96163 -15.3418
    endloop
  endfacet
  facet normal -0.120278 0.451257 -0.884251
    outer loop
      vertex 25 -6.74707 -15.5417
      vertex 25 -8.00352 -16.1829
      vertex 22.7254 -6.96163 -15.3418
    endloop
  endfacet
  facet normal -0.125494 0.842587 -0.523735
    outer loop
      vertex 25 -10.2517 -19.2382
      vertex 21.7796 -10.6846 -19.163
      vertex 23.0684 -8.69684 -16.2739
    endloop
  endfacet
  facet normal -0.125505 0.842703 -0.523546
    outer loop
      vertex 21.7796 -10.6846 -19.163
      vertex 25 -10.2517 -19.2382
      vertex 25 -10.3808 -19.446
    endloop
  endfacet
  facet normal -0.125522 0.842575 -0.523747
    outer loop
      vertex 25 -8.51463 -16.4437
      vertex 25 -10.2517 -19.2382
      vertex 23.0684 -8.69684 -16.2739
    endloop
  endfacet
  facet normal -0.124827 0.56099 -0.818357
    outer loop
      vertex 21.7893 -12.6167 -20.4894
      vertex 25 -12.1068 -20.6296
      vertex 25 -12.3138 -20.7715
    endloop
  endfacet
  facet normal -0.124844 0.561119 -0.818266
    outer loop
      vertex 25 -12.1068 -20.6296
      vertex 21.7893 -12.6167 -20.4894
      vertex 21.7796 -10.6846 -19.163
    endloop
  endfacet
  facet normal -0.124841 0.561123 -0.818264
    outer loop
      vertex 25 -10.3808 -19.446
      vertex 25 -12.1068 -20.6296
      vertex 21.7796 -10.6846 -19.163
    endloop
  endfacet
  facet normal -0.116571 0.381474 -0.917
    outer loop
      vertex 21.3335 -17.2292 -22.3502
      vertex 25 -16.5446 -22.5315
      vertex 25 -16.8833 -22.6724
    endloop
  endfacet
  facet normal -0.11657 0.381462 -0.917005
    outer loop
      vertex 25 -16.5446 -22.5315
      vertex 21.3335 -17.2292 -22.3502
      vertex 21.7893 -12.6167 -20.4894
    endloop
  endfacet
  facet normal -0.116558 0.38147 -0.917003
    outer loop
      vertex 25 -12.3138 -20.7715
      vertex 25 -16.5446 -22.5315
      vertex 21.7893 -12.6167 -20.4894
    endloop
  endfacet
  facet normal -0.10444 0.199596 -0.974296
    outer loop
      vertex 21.3335 -17.2292 -22.3502
      vertex 24.9968 -26.8362 -24.711
      vertex 20.7248 -27.2391 -24.3356
    endloop
  endfacet
  facet normal -0.104929 0.199407 -0.974283
    outer loop
      vertex 21.3335 -17.2292 -22.3502
      vertex 25 -26.7153 -24.6866
      vertex 24.9968 -26.8362 -24.711
    endloop
  endfacet
  facet normal -0.104448 0.199596 -0.974296
    outer loop
      vertex 25 -26.7153 -24.6866
      vertex 21.3335 -17.2292 -22.3502
      vertex 25 -16.8833 -22.6724
    endloop
  endfacet
  facet normal -0.0771521 -0.105607 -0.99141
    outer loop
      vertex 20.7248 -27.2391 -24.3356
      vertex 22.722 -35.8 -23.5791
      vertex 19.9451 -35.8 -23.363
    endloop
  endfacet
  facet normal -0.0771312 -0.105616 -0.991411
    outer loop
      vertex 22.722 -35.8 -23.5791
      vertex 24.9968 -26.8362 -24.711
      vertex 24.0035 -35.8 -23.6788
    endloop
  endfacet
  facet normal -0.0771595 -0.105609 -0.99141
    outer loop
      vertex 24.9968 -26.8362 -24.711
      vertex 22.722 -35.8 -23.5791
      vertex 20.7248 -27.2391 -24.3356
    endloop
  endfacet
endsolid OpenSCAD_Model
