solid OpenSCAD_Model
  facet normal 0 0 1
    outer loop
      vertex 25 -35.8 0
      vertex 49.5987 -24.5154 0
      vertex 47.8517 -14.7276 0
    endloop
  endfacet
  facet normal 0 0 1
    outer loop
      vertex 44.5162 -8.53984 0
      vertex 47.8517 -14.7276 0
      vertex 46.0996 -10.3234 0
    endloop
  endfacet
  facet normal 0 0 1
    outer loop
      vertex 47.8517 -14.7276 0
      vertex 44.5162 -8.53984 0
      vertex 42.3772 -6.8754 0
    endloop
  endfacet
  facet normal 0 0 1
    outer loop
      vertex 47.8517 -14.7276 0
      vertex 42.3772 -6.8754 0
      vertex 25 -35.8 0
    endloop
  endfacet
  facet normal 0 0 1
    outer loop
      vertex 37.6151 -3.9184 0
      vertex 42.3772 -6.8754 0
      vertex 40.9283 -5.24452 0
    endloop
  endfacet
  facet normal 0 0 1
    outer loop
      vertex 42.3772 -6.8754 0
      vertex 37.6151 -3.9184 0
      vertex 25 -35.8 0
    endloop
  endfacet
  facet normal 0 0 1
    outer loop
      vertex 25 -35.8 0
      vertex 37.6151 -3.9184 0
      vertex 35.0533 -2.67833 0
    endloop
  endfacet
  facet normal 0 0 1
    outer loop
      vertex 31.2974 -1.03267 0
      vertex 35.0533 -2.67833 0
      vertex 33.0904 -1.56405 0
    endloop
  endfacet
  facet normal 0 0 1
    outer loop
      vertex 29.4941 -0.653809 0
      vertex 35.0533 -2.67833 0
      vertex 31.2974 -1.03267 0
    endloop
  endfacet
  facet normal 0 0 1
    outer loop
      vertex 35.0533 -2.67833 0
      vertex 29.4941 -0.653809 0
      vertex 25 -35.8 0
    endloop
  endfacet
  facet normal 0 0 1
    outer loop
      vertex 25 -0.018149 0
      vertex 29.4941 -0.653809 0
      vertex 27.5851 -0.200394 0
    endloop
  endfacet
  facet normal -0 0 1
    outer loop
      vertex 25 -0.018149 0
      vertex 27.5851 -0.200394 0
      vertex 25.6333 -2.95639e-05 0
    endloop
  endfacet
  facet normal 0 0 1
    outer loop
      vertex 29.4941 -0.653809 0
      vertex 25 -0.018149 0
      vertex 25 -35.8 0
    endloop
  endfacet
  facet normal 0 0 1
    outer loop
      vertex 49.5987 -24.5154 0
      vertex 25 -35.8 0
      vertex 47.0817 -35.8 0
    endloop
  endfacet
  facet normal -1 0 0
    outer loop
      vertex 25 -0.0237138 -0.482331
      vertex 25 -0.018149 0
      vertex 25 -0.0194869 -0.233737
    endloop
  endfacet
  facet normal -1 0 0
    outer loop
      vertex 25 -0.144671 -1.97789
      vertex 25 -0.0237138 -0.482331
      vertex 25 -0.0315556 -0.764675
    endloop
  endfacet
  facet normal -1 0 0
    outer loop
      vertex 25 -0.144671 -1.97789
      vertex 25 -0.0315556 -0.764675
      vertex 25 -0.0445911 -1.11032
    endloop
  endfacet
  facet normal -1 0 0
    outer loop
      vertex 25 -0.0736625 -1.53581
      vertex 25 -0.0445911 -1.11032
      vertex 25 -0.0597682 -1.43653
    endloop
  endfacet
  facet normal -1 0 0
    outer loop
      vertex 25 -0.078885 -1.57313
      vertex 25 -0.0445911 -1.11032
      vertex 25 -0.0736625 -1.53581
    endloop
  endfacet
  facet normal -1 0 0
    outer loop
      vertex 25 -0.144671 -1.97789
      vertex 25 -0.0445911 -1.11032
      vertex 25 -0.078885 -1.57313
    endloop
  endfacet
  facet normal -1 0 0
    outer loop
      vertex 25 -0.191816 -2.26796
      vertex 25 -0.0237138 -0.482331
      vertex 25 -0.144671 -1.97789
    endloop
  endfacet
  facet normal -1 -0 0
    outer loop
      vertex 25 -0.0237138 -0.482331
      vertex 25 -0.191816 -2.26796
      vertex 25 -0.018149 0
    endloop
  endfacet
  facet normal -1 0 0
    outer loop
      vertex 25 -0.251529 -2.59908
      vertex 25 -0.018149 0
      vertex 25 -0.191816 -2.26796
    endloop
  endfacet
  facet normal -1 0 0
    outer loop
      vertex 25 -0.731517 -4.53558
      vertex 25 -0.251529 -2.59908
      vertex 25 -0.420927 -3.53845
    endloop
  endfacet
  facet normal -1 0 0
    outer loop
      vertex 25 -0.731517 -4.53558
      vertex 25 -0.420927 -3.53845
      vertex 25 -0.428437 -3.5774
    endloop
  endfacet
  facet normal -1 0 0
    outer loop
      vertex 25 -0.731517 -4.53558
      vertex 25 -0.428437 -3.5774
      vertex 25 -0.444253 -3.65944
    endloop
  endfacet
  facet normal -1 -0 0
    outer loop
      vertex 25 -0.251529 -2.59908
      vertex 25 -0.731517 -4.53558
      vertex 25 -0.018149 0
    endloop
  endfacet
  facet normal -1 0 0
    outer loop
      vertex 25 -1.07775 -5.59157
      vertex 25 -0.018149 0
      vertex 25 -0.731517 -4.53558
    endloop
  endfacet
  facet normal -1 0 0
    outer loop
      vertex 25 -35.8 0
      vertex 25 -1.07775 -5.59157
      vertex 25 -1.15549 -5.85056
    endloop
  endfacet
  facet normal -1 0 0
    outer loop
      vertex 25 -35.8 0
      vertex 25 -1.15549 -5.85056
      vertex 25 -1.4304 -6.76632
    endloop
  endfacet
  facet normal -1 0 0
    outer loop
      vertex 25 -3.15973 -10.5437
      vertex 25 -1.4304 -6.76632
      vertex 25 -1.57493 -7.23081
    endloop
  endfacet
  facet normal -1 0 0
    outer loop
      vertex 25 -3.15973 -10.5437
      vertex 25 -1.57493 -7.23081
      vertex 25 -1.62672 -7.39723
    endloop
  endfacet
  facet normal -1 0 0
    outer loop
      vertex 25 -3.15973 -10.5437
      vertex 25 -1.62672 -7.39723
      vertex 25 -2.15709 -8.81398
    endloop
  endfacet
  facet normal -1 0 0
    outer loop
      vertex 25 -3.15973 -10.5437
      vertex 25 -2.15709 -8.81398
      vertex 25 -2.32723 -9.26847
    endloop
  endfacet
  facet normal -1 -0 0
    outer loop
      vertex 25 -1.4304 -6.76632
      vertex 25 -3.15973 -10.5437
      vertex 25 -35.8 0
    endloop
  endfacet
  facet normal -1 0 0
    outer loop
      vertex 25 -35.8 0
      vertex 25 -3.15973 -10.5437
      vertex 25 -3.62668 -11.259
    endloop
  endfacet
  facet normal -1 0 0
    outer loop
      vertex 25 -35.8 0
      vertex 25 -3.62668 -11.259
      vertex 25 -4.30676 -12.2621
    endloop
  endfacet
  facet normal -1 0 0
    outer loop
      vertex 25 -8.51463 -16.4437
      vertex 25 -4.30676 -12.2621
      vertex 25 -5.10841 -13.4446
    endloop
  endfacet
  facet normal -1 0 0
    outer loop
      vertex 25 -8.51463 -16.4437
      vertex 25 -5.10841 -13.4446
      vertex 25 -5.45799 -13.9077
    endloop
  endfacet
  facet normal -1 0 0
    outer loop
      vertex 25 -8.00352 -16.1829
      vertex 25 -5.45799 -13.9077
      vertex 25 -6.20371 -14.8955
    endloop
  endfacet
  facet normal -1 0 0
    outer loop
      vertex 25 -8.00352 -16.1829
      vertex 25 -6.20371 -14.8955
      vertex 25 -6.55649 -15.315
    endloop
  endfacet
  facet normal -1 0 0
    outer loop
      vertex 25 -8.00352 -16.1829
      vertex 25 -6.55649 -15.315
      vertex 25 -6.74707 -15.5417
    endloop
  endfacet
  facet normal -1 0 0
    outer loop
      vertex 25 -5.45799 -13.9077
      vertex 25 -8.00352 -16.1829
      vertex 25 -8.51463 -16.4437
    endloop
  endfacet
  facet normal -1 -0 0
    outer loop
      vertex 25 -4.30676 -12.2621
      vertex 25 -8.51463 -16.4437
      vertex 25 -35.8 0
    endloop
  endfacet
  facet normal -1 0 0
    outer loop
      vertex 25 -12.1068 -20.6296
      vertex 25 -8.51463 -16.4437
      vertex 25 -10.2517 -19.2382
    endloop
  endfacet
  facet normal -1 0 0
    outer loop
      vertex 25 -12.1068 -20.6296
      vertex 25 -10.2517 -19.2382
      vertex 25 -10.3808 -19.446
    endloop
  endfacet
  facet normal -1 0 0
    outer loop
      vertex 25 -8.51463 -16.4437
      vertex 25 -12.1068 -20.6296
      vertex 25 -16.5446 -22.5315
    endloop
  endfacet
  facet normal -1 0 0
    outer loop
      vertex 25 -16.5446 -22.5315
      vertex 25 -12.1068 -20.6296
      vertex 25 -12.3138 -20.7715
    endloop
  endfacet
  facet normal -1 -0 0
    outer loop
      vertex 25 -8.51463 -16.4437
      vertex 25 -16.5446 -22.5315
      vertex 25 -35.8 0
    endloop
  endfacet
  facet normal -1 0 0
    outer loop
      vertex 25 -35.8 0
      vertex 25 -16.5446 -22.5315
      vertex 25 -16.8833 -22.6724
    endloop
  endfacet
  facet normal -1 0 0
    outer loop
      vertex 25 -35.8 0
      vertex 25 -16.8833 -22.6724
      vertex 25 -26.7153 -24.6866
    endloop
  endfacet
  facet normal -1 0 0
    outer loop
      vertex 25 -26.851 -24.7088
      vertex 25 -26.7153 -24.6866
      vertex 25 -26.8359 -24.7108
    endloop
  endfacet
  facet normal -1 -0 0
    outer loop
      vertex 25 -26.7153 -24.6866
      vertex 25 -26.851 -24.7088
      vertex 25 -35.8 0
    endloop
  endfacet
  facet normal -1 0 0
    outer loop
      vertex 25 -35.8 0
      vertex 25 -26.851 -24.7088
      vertex 25 -35.8 -23.5794
    endloop
  endfacet
  facet normal -1 0 0
    outer loop
      vertex 25 -1.07775 -5.59157
      vertex 25 -35.8 0
      vertex 25 -0.018149 0
    endloop
  endfacet
  facet normal 0 -1 0
    outer loop
      vertex 25 -35.8 0
      vertex 47.0376 -35.8 -0.516915
      vertex 47.0817 -35.8 0
    endloop
  endfacet
  facet normal 0 -1 0
    outer loop
      vertex 25 -35.8 0
      vertex 46.7348 -35.8 -4.06846
      vertex 47.0376 -35.8 -0.516915
    endloop
  endfacet
  facet normal 0 -1 0
    outer loop
      vertex 25 -35.8 0
      vertex 46.6003 -35.8 -4.5836
      vertex 46.7348 -35.8 -4.06846
    endloop
  endfacet
  facet normal 0 -1 0
    outer loop
      vertex 25 -35.8 0
      vertex 45.7039 -35.8 -8.01717
      vertex 46.6003 -35.8 -4.5836
    endloop
  endfacet
  facet normal 0 -1 0
    outer loop
      vertex 25 -35.8 0
      vertex 45.4691 -35.8 -8.53433
      vertex 45.7039 -35.8 -8.01717
    endloop
  endfacet
  facet normal 0 -1 0
    outer loop
      vertex 25 -35.8 0
      vertex 44.0185 -35.8 -11.7296
      vertex 45.4691 -35.8 -8.53433
    endloop
  endfacet
  facet normal 0 -1 0
    outer loop
      vertex 25 -35.8 0
      vertex 43.6669 -35.8 -12.2459
      vertex 44.0185 -35.8 -11.7296
    endloop
  endfacet
  facet normal 0 -1 0
    outer loop
      vertex 25 -35.8 0
      vertex 41.7268 -35.8 -15.0954
      vertex 43.6669 -35.8 -12.2459
    endloop
  endfacet
  facet normal 0 -1 0
    outer loop
      vertex 25 -35.8 0
      vertex 41.2386 -35.8 -15.5985
      vertex 41.7268 -35.8 -15.0954
    endloop
  endfacet
  facet normal 0 -1 0
    outer loop
      vertex 25 -35.8 0
      vertex 38.8948 -35.8 -18.0138
      vertex 41.2386 -35.8 -15.5985
    endloop
  endfacet
  facet normal 0 -1 0
    outer loop
      vertex 25 -35.8 0
      vertex 38.251 -35.8 -18.48
      vertex 38.8948 -35.8 -18.0138
    endloop
  endfacet
  facet normal 0 -1 0
    outer loop
      vertex 25 -35.8 0
      vertex 35.6047 -35.8 -20.3962
      vertex 38.251 -35.8 -18.48
    endloop
  endfacet
  facet normal 0 -1 0
    outer loop
      vertex 25 -35.8 0
      vertex 34.7919 -35.8 -20.7907
      vertex 35.6047 -35.8 -20.3962
    endloop
  endfacet
  facet normal 0 -1 0
    outer loop
      vertex 25 -35.8 0
      vertex 31.9527 -35.8 -22.1688
      vertex 34.7919 -35.8 -20.7907
    endloop
  endfacet
  facet normal 0 -1 0
    outer loop
      vertex 25 -35.8 0
      vertex 30.9676 -35.8 -22.4479
      vertex 31.9527 -35.8 -22.1688
    endloop
  endfacet
  facet normal 0 -1 0
    outer loop
      vertex 25 -35.8 0
      vertex 28.0467 -35.8 -23.2754
      vertex 30.9676 -35.8 -22.4479
    endloop
  endfacet
  facet normal 0 -1 0
    outer loop
      vertex 25 -35.8 0
      vertex 26.9001 -35.8 -23.3898
      vertex 28.0467 -35.8 -23.2754
    endloop
  endfacet
  facet normal -0 -1 0
    outer loop
      vertex 26.9001 -35.8 -23.3898
      vertex 25 -35.8 0
      vertex 25 -35.8 -23.5794
    endloop
  endfacet
  facet normal -0.0639044 0.952881 -0.296537
    outer loop
      vertex 25 -1.57493 -7.23081
      vertex 25.1271 -1.61472 -7.38606
      vertex 25 -1.62672 -7.39723
    endloop
  endfacet
  facet normal -0.0638564 0.952895 -0.296501
    outer loop
      vertex 25 -1.4304 -6.76632
      vertex 25.1271 -1.61472 -7.38606
      vertex 25 -1.57493 -7.23081
    endloop
  endfacet
  facet normal -0.0574335 0.934982 -0.350014
    outer loop
      vertex 25 -2.15709 -8.81398
      vertex 25.3752 -2.29184 -9.2355
      vertex 25 -2.32723 -9.26847
    endloop
  endfacet
  facet normal -0.0575142 0.934977 -0.350015
    outer loop
      vertex 25.1271 -1.61472 -7.38606
      vertex 25 -2.15709 -8.81398
      vertex 25 -1.62672 -7.39723
    endloop
  endfacet
  facet normal -0.0574437 0.934979 -0.350022
    outer loop
      vertex 25 -2.15709 -8.81398
      vertex 25.1271 -1.61472 -7.38606
      vertex 25.3752 -2.29184 -9.2355
    endloop
  endfacet
  facet normal -0.030888 0.83697 -0.546376
    outer loop
      vertex 25 -3.15973 -10.5437
      vertex 25.6989 -3.56074 -11.1975
      vertex 25 -3.62668 -11.259
    endloop
  endfacet
  facet normal -0.0309319 0.836961 -0.546388
    outer loop
      vertex 25.3752 -2.29184 -9.2355
      vertex 25 -3.15973 -10.5437
      vertex 25 -2.32723 -9.26847
    endloop
  endfacet
  facet normal -0.0309095 0.836959 -0.546393
    outer loop
      vertex 25 -3.15973 -10.5437
      vertex 25.3752 -2.29184 -9.2355
      vertex 25.6989 -3.56074 -11.1975
    endloop
  endfacet
  facet normal -0.0287665 0.827381 -0.560905
    outer loop
      vertex 25 -4.30676 -12.2621
      vertex 26.4932 -4.96755 -13.3134
      vertex 25 -5.10841 -13.4446
    endloop
  endfacet
  facet normal -0.0287006 0.827363 -0.560934
    outer loop
      vertex 25.6989 -3.56074 -11.1975
      vertex 25 -4.30676 -12.2621
      vertex 25 -3.62668 -11.259
    endloop
  endfacet
  facet normal -0.0287659 0.827381 -0.560904
    outer loop
      vertex 25 -4.30676 -12.2621
      vertex 25.6989 -3.56074 -11.1975
      vertex 26.4932 -4.96755 -13.3134
    endloop
  endfacet
  facet normal -0.0223305 0.797915 -0.602356
    outer loop
      vertex 25.4187 -6.70758 -15.5785
      vertex 25 -5.45799 -13.9077
      vertex 28.1119 -6.45352 -15.3418
    endloop
  endfacet
  facet normal -0.0223866 0.797907 -0.602364
    outer loop
      vertex 25 -5.45799 -13.9077
      vertex 25.4187 -6.70758 -15.5785
      vertex 25 -6.20371 -14.8955
    endloop
  endfacet
  facet normal -0.0223482 0.797931 -0.602334
    outer loop
      vertex 26.4932 -4.96755 -13.3134
      vertex 25 -5.45799 -13.9077
      vertex 25 -5.10841 -13.4446
    endloop
  endfacet
  facet normal -0.0223324 0.797913 -0.602359
    outer loop
      vertex 25 -5.45799 -13.9077
      vertex 26.4932 -4.96755 -13.3134
      vertex 28.1119 -6.45352 -15.3418
    endloop
  endfacet
  facet normal 0.0305194 0.488824 -0.871848
    outer loop
      vertex 28.7821 -8.15786 -16.2739
      vertex 25.9253 -8.42735 -16.525
      vertex 25.4187 -6.70758 -15.5785
    endloop
  endfacet
  facet normal 0.0305138 0.488814 -0.871854
    outer loop
      vertex 28.1119 -6.45352 -15.3418
      vertex 28.7821 -8.15786 -16.2739
      vertex 25.4187 -6.70758 -15.5785
    endloop
  endfacet
  facet normal -0.0310564 0.837501 -0.545553
    outer loop
      vertex 25.9253 -8.42735 -16.525
      vertex 28.5076 -10.05 -19.163
      vertex 25.1436 -10.3673 -19.4586
    endloop
  endfacet
  facet normal -0.0310526 0.837503 -0.54555
    outer loop
      vertex 28.7821 -8.15786 -16.2739
      vertex 28.5076 -10.05 -19.163
      vertex 25.9253 -8.42735 -16.525
    endloop
  endfacet
  facet normal 0.0172287 0.577656 -0.816098
    outer loop
      vertex 28.983 -11.9381 -20.4894
      vertex 25.3861 -12.2774 -20.8055
      vertex 25.1436 -10.3673 -19.4586
    endloop
  endfacet
  facet normal 0.0172266 0.577653 -0.816101
    outer loop
      vertex 28.5076 -10.05 -19.163
      vertex 28.983 -11.9381 -20.4894
      vertex 25.1436 -10.3673 -19.4586
    endloop
  endfacet
  facet normal 0.0453651 0.379768 -0.923969
    outer loop
      vertex 25.3861 -12.2774 -20.8055
      vertex 29.1806 -16.4889 -22.3502
      vertex 25.257 -16.8591 -22.695
    endloop
  endfacet
  facet normal 0.0453746 0.379775 -0.923965
    outer loop
      vertex 28.983 -11.9381 -20.4894
      vertex 29.1806 -16.4889 -22.3502
      vertex 25.3861 -12.2774 -20.8055
    endloop
  endfacet
  facet normal 0.0674604 0.196293 -0.978222
    outer loop
      vertex 25 -26.7153 -24.6866
      vertex 29.2689 -26.4332 -24.3356
      vertex 25 -26.8359 -24.7108
    endloop
  endfacet
  facet normal 0.067491 0.19592 -0.978295
    outer loop
      vertex 29.2689 -26.4332 -24.3356
      vertex 25 -26.7153 -24.6866
      vertex 25.257 -16.8591 -22.695
    endloop
  endfacet
  facet normal 0.0674858 0.195918 -0.978295
    outer loop
      vertex 29.1806 -16.4889 -22.3502
      vertex 29.2689 -26.4332 -24.3356
      vertex 25.257 -16.8591 -22.695
    endloop
  endfacet
  facet normal 0.0985173 -0.124602 -0.987304
    outer loop
      vertex 25 -26.851 -24.7088
      vertex 26.9001 -35.8 -23.3898
      vertex 25 -35.8 -23.5794
    endloop
  endfacet
  facet normal 0.0985066 -0.124604 -0.987305
    outer loop
      vertex 25 -26.851 -24.7088
      vertex 28.0467 -35.8 -23.2754
      vertex 26.9001 -35.8 -23.3898
    endloop
  endfacet
  facet normal 0.0985081 -0.124604 -0.987304
    outer loop
      vertex 28.0467 -35.8 -23.2754
      vertex 25 -26.851 -24.7088
      vertex 29.2689 -26.4332 -24.3356
    endloop
  endfacet
  facet normal 0.0990277 -0.130658 -0.986469
    outer loop
      vertex 29.2689 -26.4332 -24.3356
      vertex 25 -26.851 -24.7088
      vertex 25 -26.8359 -24.7108
    endloop
  endfacet
  facet normal -0.0417104 0.981065 -0.189134
    outer loop
      vertex 25 -0.428437 -3.5774
      vertex 25.0419 -0.440297 -3.64816
      vertex 25 -0.444253 -3.65944
    endloop
  endfacet
  facet normal -0.0417553 0.981058 -0.189159
    outer loop
      vertex 25 -0.420927 -3.53845
      vertex 25.0419 -0.440297 -3.64816
      vertex 25 -0.428437 -3.5774
    endloop
  endfacet
  facet normal -0.00579429 0.950212 -0.311551
    outer loop
      vertex 25 -0.731517 -4.53558
      vertex 25.7338 -1.00852 -5.39407
      vertex 25 -1.07775 -5.59157
    endloop
  endfacet
  facet normal -0.00584131 0.950212 -0.31155
    outer loop
      vertex 25.0419 -0.440297 -3.64816
      vertex 25 -0.731517 -4.53558
      vertex 25 -0.444253 -3.65944
    endloop
  endfacet
  facet normal -0.00579599 0.950211 -0.311552
    outer loop
      vertex 25 -0.731517 -4.53558
      vertex 25.0419 -0.440297 -3.64816
      vertex 25.7338 -1.00852 -5.39407
    endloop
  endfacet
  facet normal -0.0129617 0.957693 -0.287498
    outer loop
      vertex 26.3844 -1.49613 -7.04769
      vertex 25 -1.4304 -6.76632
      vertex 25 -1.15549 -5.85056
    endloop
  endfacet
  facet normal -0.0129601 0.957696 -0.287491
    outer loop
      vertex 25 -1.4304 -6.76632
      vertex 26.3844 -1.49613 -7.04769
      vertex 25.1271 -1.61472 -7.38606
    endloop
  endfacet
  facet normal -0.0129824 0.957702 -0.28747
    outer loop
      vertex 25.7338 -1.00852 -5.39407
      vertex 25 -1.15549 -5.85056
      vertex 25 -1.07775 -5.59157
    endloop
  endfacet
  facet normal -0.0129623 0.957693 -0.287499
    outer loop
      vertex 25 -1.15549 -5.85056
      vertex 25.7338 -1.00852 -5.39407
      vertex 26.3844 -1.49613 -7.04769
    endloop
  endfacet
  facet normal 0.00381295 0.9392 -0.34335
    outer loop
      vertex 26.9472 -2.14355 -8.81241
      vertex 25.3752 -2.29184 -9.2355
      vertex 25.1271 -1.61472 -7.38606
    endloop
  endfacet
  facet normal 0.00381625 0.939201 -0.343346
    outer loop
      vertex 26.3844 -1.49613 -7.04769
      vertex 26.9472 -2.14355 -8.81241
      vertex 25.1271 -1.61472 -7.38606
    endloop
  endfacet
  facet normal 0.0643185 0.84276 -0.534433
    outer loop
      vertex 27.6049 -3.38095 -10.6846
      vertex 25.6989 -3.56074 -11.1975
      vertex 25.3752 -2.29184 -9.2355
    endloop
  endfacet
  facet normal 0.0643335 0.842769 -0.534417
    outer loop
      vertex 26.9472 -2.14355 -8.81241
      vertex 27.6049 -3.38095 -10.6846
      vertex 25.3752 -2.29184 -9.2355
    endloop
  endfacet
  facet normal 0.0647069 0.842022 -0.535549
    outer loop
      vertex 28.7593 -4.75378 -12.7035
      vertex 26.4932 -4.96755 -13.3134
      vertex 25.6989 -3.56074 -11.1975
    endloop
  endfacet
  facet normal 0.0646941 0.842011 -0.535567
    outer loop
      vertex 27.6049 -3.38095 -10.6846
      vertex 28.7593 -4.75378 -12.7035
      vertex 25.6989 -3.56074 -11.1975
    endloop
  endfacet
  facet normal 0.0703086 0.830617 -0.552388
    outer loop
      vertex 30.7233 -6.20718 -14.639
      vertex 28.1119 -6.45352 -15.3418
      vertex 26.4932 -4.96755 -13.3134
    endloop
  endfacet
  facet normal 0.0703123 0.830622 -0.55238
    outer loop
      vertex 28.7593 -4.75378 -12.7035
      vertex 30.7233 -6.20718 -14.639
      vertex 26.4932 -4.96755 -13.3134
    endloop
  endfacet
  facet normal 0.174787 0.524462 -0.8333
    outer loop
      vertex 31.5522 -7.89655 -15.5284
      vertex 28.7821 -8.15786 -16.2739
      vertex 28.1119 -6.45352 -15.3418
    endloop
  endfacet
  facet normal 0.174789 0.524466 -0.833297
    outer loop
      vertex 30.7233 -6.20718 -14.639
      vertex 31.5522 -7.89655 -15.5284
      vertex 28.1119 -6.45352 -15.3418
    endloop
  endfacet
  facet normal 0.0699056 0.831453 -0.55118
    outer loop
      vertex 28.7821 -8.15786 -16.2739
      vertex 31.7694 -9.74227 -18.2851
      vertex 28.5076 -10.05 -19.163
    endloop
  endfacet
  facet normal 0.0699035 0.831452 -0.551182
    outer loop
      vertex 31.5522 -7.89655 -15.5284
      vertex 31.7694 -9.74227 -18.2851
      vertex 28.7821 -8.15786 -16.2739
    endloop
  endfacet
  facet normal 0.156409 0.593829 -0.789242
    outer loop
      vertex 32.4706 -11.6091 -19.5507
      vertex 28.983 -11.9381 -20.4894
      vertex 28.5076 -10.05 -19.163
    endloop
  endfacet
  facet normal 0.156402 0.593814 -0.789255
    outer loop
      vertex 31.7694 -9.74227 -18.2851
      vertex 32.4706 -11.6091 -19.5507
      vertex 28.5076 -10.05 -19.163
    endloop
  endfacet
  facet normal 0.207211 0.377958 -0.902337
    outer loop
      vertex 32.9849 -16.1301 -21.3263
      vertex 29.1806 -16.4889 -22.3502
      vertex 28.983 -11.9381 -20.4894
    endloop
  endfacet
  facet normal 0.207212 0.37796 -0.902336
    outer loop
      vertex 32.4706 -11.6091 -19.5507
      vertex 32.9849 -16.1301 -21.3263
      vertex 28.983 -11.9381 -20.4894
    endloop
  endfacet
  facet normal 0.238086 0.192191 -0.952039
    outer loop
      vertex 33.4112 -26.0424 -23.2208
      vertex 29.2689 -26.4332 -24.3356
      vertex 29.1806 -16.4889 -22.3502
    endloop
  endfacet
  facet normal 0.238106 0.192199 -0.952032
    outer loop
      vertex 32.9849 -16.1301 -21.3263
      vertex 33.4112 -26.0424 -23.2208
      vertex 29.1806 -16.4889 -22.3502
    endloop
  endfacet
  facet normal 0.269775 -0.142983 -0.952249
    outer loop
      vertex 29.2689 -26.4332 -24.3356
      vertex 30.9676 -35.8 -22.4479
      vertex 28.0467 -35.8 -23.2754
    endloop
  endfacet
  facet normal 0.269791 -0.142979 -0.952245
    outer loop
      vertex 29.2689 -26.4332 -24.3356
      vertex 31.9527 -35.8 -22.1688
      vertex 30.9676 -35.8 -22.4479
    endloop
  endfacet
  facet normal 0.269765 -0.142988 -0.952251
    outer loop
      vertex 31.9527 -35.8 -22.1688
      vertex 29.2689 -26.4332 -24.3356
      vertex 33.4112 -26.0424 -23.2208
    endloop
  endfacet
  facet normal -0.00971164 0.98408 -0.177461
    outer loop
      vertex 25.6525 -0.382697 -3.36216
      vertex 25 -0.420927 -3.53845
      vertex 25 -0.251529 -2.59908
    endloop
  endfacet
  facet normal -0.00971312 0.984081 -0.177455
    outer loop
      vertex 25 -0.420927 -3.53845
      vertex 25.6525 -0.382697 -3.36216
      vertex 25.0419 -0.440297 -3.64816
    endloop
  endfacet
  facet normal -0.00971731 0.984079 -0.177465
    outer loop
      vertex 25 -0.191816 -2.26796
      vertex 25.6525 -0.382697 -3.36216
      vertex 25 -0.251529 -2.59908
    endloop
  endfacet
  facet normal 0.0468137 0.955175 -0.292318
    outer loop
      vertex 26.6367 -0.923358 -4.9712
      vertex 25.7338 -1.00852 -5.39407
      vertex 25.0419 -0.440297 -3.64816
    endloop
  endfacet
  facet normal 0.0468143 0.955175 -0.292318
    outer loop
      vertex 25.6525 -0.382697 -3.36216
      vertex 26.6367 -0.923358 -4.9712
      vertex 25.0419 -0.440297 -3.64816
    endloop
  endfacet
  facet normal 0.0355696 0.962272 -0.269755
    outer loop
      vertex 27.564 -1.38485 -6.49519
      vertex 26.3844 -1.49613 -7.04769
      vertex 25.7338 -1.00852 -5.39407
    endloop
  endfacet
  facet normal 0.0355736 0.962273 -0.269749
    outer loop
      vertex 26.6367 -0.923358 -4.9712
      vertex 27.564 -1.38485 -6.49519
      vertex 25.7338 -1.00852 -5.39407
    endloop
  endfacet
  facet normal 0.0636081 0.943303 -0.325782
    outer loop
      vertex 28.4221 -2.00441 -8.12156
      vertex 26.9472 -2.14355 -8.81241
      vertex 26.3844 -1.49613 -7.04769
    endloop
  endfacet
  facet normal 0.0636043 0.943301 -0.325788
    outer loop
      vertex 27.564 -1.38485 -6.49519
      vertex 28.4221 -2.00441 -8.12156
      vertex 26.3844 -1.49613 -7.04769
    endloop
  endfacet
  facet normal 0.156811 0.848376 -0.505636
    outer loop
      vertex 29.3932 -3.21225 -9.84695
      vertex 27.6049 -3.38095 -10.6846
      vertex 26.9472 -2.14355 -8.81241
    endloop
  endfacet
  facet normal 0.156809 0.848375 -0.505639
    outer loop
      vertex 28.4221 -2.00441 -8.12156
      vertex 29.3932 -3.21225 -9.84695
      vertex 26.9472 -2.14355 -8.81241
    endloop
  endfacet
  facet normal 0.151254 0.85549 -0.495237
    outer loop
      vertex 30.8856 -4.5532 -11.7076
      vertex 28.7593 -4.75378 -12.7035
      vertex 27.6049 -3.38095 -10.6846
    endloop
  endfacet
  facet normal 0.151261 0.855497 -0.495223
    outer loop
      vertex 29.3932 -3.21225 -9.84695
      vertex 30.8856 -4.5532 -11.7076
      vertex 27.6049 -3.38095 -10.6846
    endloop
  endfacet
  facet normal 0.149611 0.857561 -0.492144
    outer loop
      vertex 33.1735 -5.97605 -13.4914
      vertex 30.7233 -6.20718 -14.639
      vertex 28.7593 -4.75378 -12.7035
    endloop
  endfacet
  facet normal 0.14961 0.857561 -0.492144
    outer loop
      vertex 30.8856 -4.5532 -11.7076
      vertex 33.1735 -5.97605 -13.4914
      vertex 28.7593 -4.75378 -12.7035
    endloop
  endfacet
  facet normal 0.308509 0.557235 -0.770916
    outer loop
      vertex 34.1512 -7.65137 -14.3111
      vertex 31.5522 -7.89655 -15.5284
      vertex 30.7233 -6.20718 -14.639
    endloop
  endfacet
  facet normal 0.308509 0.557236 -0.770915
    outer loop
      vertex 33.1735 -5.97605 -13.4914
      vertex 34.1512 -7.65137 -14.3111
      vertex 30.7233 -6.20718 -14.639
    endloop
  endfacet
  facet normal 0.174359 0.824514 -0.538307
    outer loop
      vertex 34.8299 -9.45357 -16.8516
      vertex 31.7694 -9.74227 -18.2851
      vertex 31.5522 -7.89655 -15.5284
    endloop
  endfacet
  facet normal 0.174352 0.824509 -0.538318
    outer loop
      vertex 34.1512 -7.65137 -14.3111
      vertex 34.8299 -9.45357 -16.8516
      vertex 31.5522 -7.89655 -15.5284
    endloop
  endfacet
  facet normal 0.288509 0.609164 -0.738703
    outer loop
      vertex 35.7429 -11.3004 -18.0181
      vertex 32.4706 -11.6091 -19.5507
      vertex 31.7694 -9.74227 -18.2851
    endloop
  endfacet
  facet normal 0.288519 0.609195 -0.738673
    outer loop
      vertex 34.8299 -9.45357 -16.8516
      vertex 35.7429 -11.3004 -18.0181
      vertex 31.7694 -9.74227 -18.2851
    endloop
  endfacet
  facet normal 0.363695 0.376081 -0.852226
    outer loop
      vertex 36.5544 -15.7934 -19.6544
      vertex 32.9849 -16.1301 -21.3263
      vertex 32.4706 -11.6091 -19.5507
    endloop
  endfacet
  facet normal 0.363676 0.376062 -0.852242
    outer loop
      vertex 35.7429 -11.3004 -18.0181
      vertex 36.5544 -15.7934 -19.6544
      vertex 32.4706 -11.6091 -19.5507
    endloop
  endfacet
  facet normal 0.40191 0.188545 -0.896058
    outer loop
      vertex 37.2978 -25.6758 -21.4004
      vertex 33.4112 -26.0424 -23.2208
      vertex 32.9849 -16.1301 -21.3263
    endloop
  endfacet
  facet normal 0.401914 0.188547 -0.896055
    outer loop
      vertex 36.5544 -15.7934 -19.6544
      vertex 37.2978 -25.6758 -21.4004
      vertex 32.9849 -16.1301 -21.3263
    endloop
  endfacet
  facet normal 0.431026 -0.160166 -0.888011
    outer loop
      vertex 33.4112 -26.0424 -23.2208
      vertex 34.7919 -35.8 -20.7907
      vertex 31.9527 -35.8 -22.1688
    endloop
  endfacet
  facet normal 0.431008 -0.160171 -0.888019
    outer loop
      vertex 33.4112 -26.0424 -23.2208
      vertex 35.6047 -35.8 -20.3962
      vertex 34.7919 -35.8 -20.7907
    endloop
  endfacet
  facet normal 0.431031 -0.160163 -0.888009
    outer loop
      vertex 35.6047 -35.8 -20.3962
      vertex 33.4112 -26.0424 -23.2208
      vertex 37.2978 -25.6758 -21.4004
    endloop
  endfacet
  facet normal 0.0197195 0.986856 -0.160393
    outer loop
      vertex 26.2044 -0.330635 -2.974
      vertex 25 -0.191816 -2.26796
      vertex 25 -0.144671 -1.97789
    endloop
  endfacet
  facet normal 0.0197174 0.986856 -0.160397
    outer loop
      vertex 25 -0.191816 -2.26796
      vertex 26.2044 -0.330635 -2.974
      vertex 25.6525 -0.382697 -3.36216
    endloop
  endfacet
  facet normal 0.0197186 0.986856 -0.160395
    outer loop
      vertex 25 -0.078885 -1.57313
      vertex 26.2044 -0.330635 -2.974
      vertex 25 -0.144671 -1.97789
    endloop
  endfacet
  facet normal 0.0952847 0.959748 -0.264207
    outer loop
      vertex 27.4527 -0.846381 -4.39729
      vertex 26.6367 -0.923358 -4.9712
      vertex 25.6525 -0.382697 -3.36216
    endloop
  endfacet
  facet normal 0.095285 0.959748 -0.264206
    outer loop
      vertex 26.2044 -0.330635 -2.974
      vertex 27.4527 -0.846381 -4.39729
      vertex 25.6525 -0.382697 -3.36216
    endloop
  endfacet
  facet normal 0.0803109 0.966493 -0.243805
    outer loop
      vertex 28.6301 -1.28428 -5.74533
      vertex 27.564 -1.38485 -6.49519
      vertex 26.6367 -0.923358 -4.9712
    endloop
  endfacet
  facet normal 0.0803067 0.966491 -0.243815
    outer loop
      vertex 27.4527 -0.846381 -4.39729
      vertex 28.6301 -1.28428 -5.74533
      vertex 26.6367 -0.923358 -4.9712
    endloop
  endfacet
  facet normal 0.119919 0.947148 -0.297541
    outer loop
      vertex 29.7553 -1.87866 -7.18394
      vertex 28.4221 -2.00441 -8.12156
      vertex 27.564 -1.38485 -6.49519
    endloop
  endfacet
  facet normal 0.119924 0.947151 -0.29753
    outer loop
      vertex 28.6301 -1.28428 -5.74533
      vertex 29.7553 -1.87866 -7.18394
      vertex 27.564 -1.38485 -6.49519
    endloop
  endfacet
  facet normal 0.243396 0.853603 -0.460565
    outer loop
      vertex 31.0096 -3.05978 -8.71014
      vertex 29.3932 -3.21225 -9.84695
      vertex 28.4221 -2.00441 -8.12156
    endloop
  endfacet
  facet normal 0.243396 0.853603 -0.460566
    outer loop
      vertex 29.7553 -1.87866 -7.18394
      vertex 31.0096 -3.05978 -8.71014
      vertex 28.4221 -2.00441 -8.12156
    endloop
  endfacet
  facet normal 0.228804 0.867506 -0.441682
    outer loop
      vertex 32.8074 -4.37192 -10.356
      vertex 30.8856 -4.5532 -11.7076
      vertex 29.3932 -3.21225 -9.84695
    endloop
  endfacet
  facet normal 0.228804 0.867506 -0.441681
    outer loop
      vertex 31.0096 -3.05978 -8.71014
      vertex 32.8074 -4.37192 -10.356
      vertex 29.3932 -3.21225 -9.84695
    endloop
  endfacet
  facet normal 0.215731 0.879275 -0.424658
    outer loop
      vertex 35.3881 -5.76714 -11.9338
      vertex 33.1735 -5.97605 -13.4914
      vertex 30.8856 -4.5532 -11.7076
    endloop
  endfacet
  facet normal 0.215729 0.879271 -0.424669
    outer loop
      vertex 32.8074 -4.37192 -10.356
      vertex 35.3881 -5.76714 -11.9338
      vertex 30.8856 -4.5532 -11.7076
    endloop
  endfacet
  facet normal 0.42827 0.586355 -0.687585
    outer loop
      vertex 36.5004 -7.42977 -12.6589
      vertex 34.1512 -7.65137 -14.3111
      vertex 33.1735 -5.97605 -13.4914
    endloop
  endfacet
  facet normal 0.428273 0.586374 -0.687566
    outer loop
      vertex 35.3881 -5.76714 -11.9338
      vertex 36.5004 -7.42977 -12.6589
      vertex 33.1735 -5.97605 -13.4914
    endloop
  endfacet
  facet normal 0.278249 0.816926 -0.505183
    outer loop
      vertex 37.596 -9.19263 -14.9061
      vertex 34.8299 -9.45357 -16.8516
      vertex 34.1512 -7.65137 -14.3111
    endloop
  endfacet
  facet normal 0.278244 0.81692 -0.505194
    outer loop
      vertex 36.5004 -7.42977 -12.6589
      vertex 37.596 -9.19263 -14.9061
      vertex 34.1512 -7.65137 -14.3111
    endloop
  endfacet
  facet normal 0.4097 0.623263 -0.666099
    outer loop
      vertex 38.7005 -11.0214 -15.9379
      vertex 35.7429 -11.3004 -18.0181
      vertex 34.8299 -9.45357 -16.8516
    endloop
  endfacet
  facet normal 0.4097 0.62326 -0.666103
    outer loop
      vertex 37.596 -9.19263 -14.9061
      vertex 38.7005 -11.0214 -15.9379
      vertex 34.8299 -9.45357 -16.8516
    endloop
  endfacet
  facet normal 0.509597 0.374206 -0.774778
    outer loop
      vertex 39.7806 -15.489 -17.3854
      vertex 36.5544 -15.7934 -19.6544
      vertex 35.7429 -11.3004 -18.0181
    endloop
  endfacet
  facet normal 0.509615 0.374227 -0.774756
    outer loop
      vertex 38.7005 -11.0214 -15.9379
      vertex 39.7806 -15.489 -17.3854
      vertex 35.7429 -11.3004 -18.0181
    endloop
  endfacet
  facet normal 0.553612 0.185098 -0.811944
    outer loop
      vertex 40.8106 -25.3444 -18.9297
      vertex 37.2978 -25.6758 -21.4004
      vertex 36.5544 -15.7934 -19.6544
    endloop
  endfacet
  facet normal 0.553591 0.185087 -0.81196
    outer loop
      vertex 39.7806 -15.489 -17.3854
      vertex 40.8106 -25.3444 -18.9297
      vertex 36.5544 -15.7934 -19.6544
    endloop
  endfacet
  facet normal 0.577375 -0.175645 -0.797363
    outer loop
      vertex 37.2978 -25.6758 -21.4004
      vertex 38.251 -35.8 -18.48
      vertex 35.6047 -35.8 -20.3962
    endloop
  endfacet
  facet normal 0.577392 -0.17564 -0.797351
    outer loop
      vertex 37.2978 -25.6758 -21.4004
      vertex 38.8948 -35.8 -18.0138
      vertex 38.251 -35.8 -18.48
    endloop
  endfacet
  facet normal 0.577384 -0.175643 -0.797356
    outer loop
      vertex 38.8948 -35.8 -18.0138
      vertex 37.2978 -25.6758 -21.4004
      vertex 40.8106 -25.3444 -18.9297
    endloop
  endfacet
  facet normal -0.0475067 0.997792 -0.0464228
    outer loop
      vertex 25 -0.0445911 -1.11032
      vertex 25.1772 -0.0430489 -1.25851
      vertex 25 -0.0597682 -1.43653
    endloop
  endfacet
  facet normal 0.0457562 0.989313 -0.138443
    outer loop
      vertex 26.6808 -0.285695 -2.49548
      vertex 25 -0.078885 -1.57313
      vertex 25 -0.0736625 -1.53581
    endloop
  endfacet
  facet normal 0.0457485 0.989311 -0.138457
    outer loop
      vertex 25 -0.078885 -1.57313
      vertex 26.6808 -0.285695 -2.49548
      vertex 26.2044 -0.330635 -2.974
    endloop
  endfacet
  facet normal 0.0457513 0.989311 -0.138455
    outer loop
      vertex 25.1772 -0.0430489 -1.25851
      vertex 25 -0.0736625 -1.53581
      vertex 25 -0.0597682 -1.43653
    endloop
  endfacet
  facet normal 0.0457498 0.989312 -0.138454
    outer loop
      vertex 25 -0.0736625 -1.53581
      vertex 25.1772 -0.0430489 -1.25851
      vertex 26.6808 -0.285695 -2.49548
    endloop
  endfacet
  facet normal 0.138163 0.963793 -0.228066
    outer loop
      vertex 28.1571 -0.779934 -3.68976
      vertex 27.4527 -0.846381 -4.39729
      vertex 26.2044 -0.330635 -2.974
    endloop
  endfacet
  facet normal 0.138163 0.963793 -0.228065
    outer loop
      vertex 26.6808 -0.285695 -2.49548
      vertex 28.1571 -0.779934 -3.68976
      vertex 26.2044 -0.330635 -2.974
    endloop
  endfacet
  facet normal 0.119871 0.970223 -0.210471
    outer loop
      vertex 29.5505 -1.19746 -4.82091
      vertex 28.6301 -1.28428 -5.74533
      vertex 27.4527 -0.846381 -4.39729
    endloop
  endfacet
  facet normal 0.119873 0.970225 -0.210461
    outer loop
      vertex 28.1571 -0.779934 -3.68976
      vertex 29.5505 -1.19746 -4.82091
      vertex 27.4527 -0.846381 -4.39729
    endloop
  endfacet
  facet normal 0.17071 0.950608 -0.259236
    outer loop
      vertex 30.9061 -1.7701 -6.02804
      vertex 29.7553 -1.87866 -7.18394
      vertex 28.6301 -1.28428 -5.74533
    endloop
  endfacet
  facet normal 0.170708 0.950605 -0.259245
    outer loop
      vertex 29.5505 -1.19746 -4.82091
      vertex 30.9061 -1.7701 -6.02804
      vertex 28.6301 -1.28428 -5.74533
    endloop
  endfacet
  facet normal 0.321116 0.858276 -0.400308
    outer loop
      vertex 32.4049 -2.92816 -7.30867
      vertex 31.0096 -3.05978 -8.71014
      vertex 29.7553 -1.87866 -7.18394
    endloop
  endfacet
  facet normal 0.321117 0.858276 -0.400307
    outer loop
      vertex 30.9061 -1.7701 -6.02804
      vertex 32.4049 -2.92816 -7.30867
      vertex 29.7553 -1.87866 -7.18394
    endloop
  endfacet
  facet normal 0.295704 0.877817 -0.376826
    outer loop
      vertex 34.4663 -4.21543 -8.68968
      vertex 32.8074 -4.37192 -10.356
      vertex 31.0096 -3.05978 -8.71014
    endloop
  endfacet
  facet normal 0.295702 0.877811 -0.37684
    outer loop
      vertex 32.4049 -2.92816 -7.30867
      vertex 34.4663 -4.21543 -8.68968
      vertex 31.0096 -3.05978 -8.71014
    endloop
  endfacet
  facet normal 0.269246 0.896346 -0.352236
    outer loop
      vertex 37.2997 -5.58681 -10.0137
      vertex 35.3881 -5.76714 -11.9338
      vertex 32.8074 -4.37192 -10.356
    endloop
  endfacet
  facet normal 0.269246 0.89635 -0.352226
    outer loop
      vertex 34.4663 -4.21543 -8.68968
      vertex 37.2997 -5.58681 -10.0137
      vertex 32.8074 -4.37192 -10.356
    endloop
  endfacet
  facet normal 0.531407 0.611279 -0.586468
    outer loop
      vertex 38.5282 -7.23848 -10.6221
      vertex 36.5004 -7.42977 -12.6589
      vertex 35.3881 -5.76714 -11.9338
    endloop
  endfacet
  facet normal 0.531407 0.611283 -0.586464
    outer loop
      vertex 37.2997 -5.58681 -10.0137
      vertex 38.5282 -7.23848 -10.6221
      vertex 35.3881 -5.76714 -11.9338
    endloop
  endfacet
  facet normal 0.376722 0.809097 -0.451045
    outer loop
      vertex 39.9838 -8.96738 -12.5077
      vertex 37.596 -9.19263 -14.9061
      vertex 36.5004 -7.42977 -12.6589
    endloop
  endfacet
  facet normal 0.376722 0.809097 -0.451046
    outer loop
      vertex 38.5282 -7.23848 -10.6221
      vertex 39.9838 -8.96738 -12.5077
      vertex 36.5004 -7.42977 -12.6589
    endloop
  endfacet
  facet normal 0.516399 0.635644 -0.573836
    outer loop
      vertex 41.2536 -10.7805 -13.3735
      vertex 38.7005 -11.0214 -15.9379
      vertex 37.596 -9.19263 -14.9061
    endloop
  endfacet
  facet normal 0.516399 0.635663 -0.573816
    outer loop
      vertex 39.9838 -8.96738 -12.5077
      vertex 41.2536 -10.7805 -13.3735
      vertex 37.596 -9.19263 -14.9061
    endloop
  endfacet
  facet normal 0.639944 0.372478 -0.67211
    outer loop
      vertex 42.5656 -15.2263 -14.5881
      vertex 39.7806 -15.489 -17.3854
      vertex 38.7005 -11.0214 -15.9379
    endloop
  endfacet
  facet normal 0.639942 0.372476 -0.672113
    outer loop
      vertex 41.2536 -10.7805 -13.3735
      vertex 42.5656 -15.2263 -14.5881
      vertex 38.7005 -11.0214 -15.9379
    endloop
  endfacet
  facet normal 0.688247 0.181974 -0.702283
    outer loop
      vertex 43.8429 -25.0584 -15.8839
      vertex 40.8106 -25.3444 -18.9297
      vertex 39.7806 -15.489 -17.3854
    endloop
  endfacet
  facet normal 0.688234 0.181967 -0.702297
    outer loop
      vertex 42.5656 -15.2263 -14.5881
      vertex 43.8429 -25.0584 -15.8839
      vertex 39.7806 -15.489 -17.3854
    endloop
  endfacet
  facet normal 0.704711 -0.18903 -0.683849
    outer loop
      vertex 40.8106 -25.3444 -18.9297
      vertex 41.2386 -35.8 -15.5985
      vertex 38.8948 -35.8 -18.0138
    endloop
  endfacet
  facet normal 0.704716 -0.189028 -0.683845
    outer loop
      vertex 41.2386 -35.8 -15.5985
      vertex 43.8429 -25.0584 -15.8839
      vertex 41.7268 -35.8 -15.0954
    endloop
  endfacet
  facet normal 0.704717 -0.189028 -0.683844
    outer loop
      vertex 43.8429 -25.0584 -15.8839
      vertex 41.2386 -35.8 -15.5985
      vertex 40.8106 -25.3444 -18.9297
    endloop
  endfacet
  facet normal -0.0401744 0.998483 -0.0376563
    outer loop
      vertex 25.3721 -0.0246649 -0.978946
      vertex 25 -0.0445911 -1.11032
      vertex 25 -0.0315556 -0.764675
    endloop
  endfacet
  facet normal -0.0401765 0.998483 -0.0376504
    outer loop
      vertex 25 -0.0445911 -1.11032
      vertex 25.3721 -0.0246649 -0.978946
      vertex 25.1772 -0.0430489 -1.25851
    endloop
  endfacet
  facet normal 0.0675852 0.991371 -0.112316
    outer loop
      vertex 27.0673 -0.249241 -1.94114
      vertex 26.6808 -0.285695 -2.49548
      vertex 25.1772 -0.0430489 -1.25851
    endloop
  endfacet
  facet normal 0.067587 0.991372 -0.112311
    outer loop
      vertex 25.3721 -0.0246649 -0.978946
      vertex 27.0673 -0.249241 -1.94114
      vertex 25.1772 -0.0430489 -1.25851
    endloop
  endfacet
  facet normal 0.174148 0.967188 -0.184988
    outer loop
      vertex 28.7284 -0.726034 -2.87013
      vertex 28.1571 -0.779934 -3.68976
      vertex 26.6808 -0.285695 -2.49548
    endloop
  endfacet
  facet normal 0.174141 0.967183 -0.185019
    outer loop
      vertex 27.0673 -0.249241 -1.94114
      vertex 28.7284 -0.726034 -2.87013
      vertex 26.6808 -0.285695 -2.49548
    endloop
  endfacet
  facet normal 0.153079 0.973357 -0.170712
    outer loop
      vertex 30.297 -1.12704 -3.75
      vertex 29.5505 -1.19746 -4.82091
      vertex 28.1571 -0.779934 -3.68976
    endloop
  endfacet
  facet normal 0.153079 0.973358 -0.170709
    outer loop
      vertex 28.7284 -0.726034 -2.87013
      vertex 30.297 -1.12704 -3.75
      vertex 28.1571 -0.779934 -3.68976
    endloop
  endfacet
  facet normal 0.214072 0.953548 -0.211944
    outer loop
      vertex 31.8396 -1.68204 -4.68898
      vertex 30.9061 -1.7701 -6.02804
      vertex 29.5505 -1.19746 -4.82091
    endloop
  endfacet
  facet normal 0.214072 0.953552 -0.211926
    outer loop
      vertex 30.297 -1.12704 -3.75
      vertex 31.8396 -1.68204 -4.68898
      vertex 29.5505 -1.19746 -4.82091
    endloop
  endfacet
  facet normal 0.387154 0.862233 -0.326598
    outer loop
      vertex 33.5367 -2.82139 -5.68514
      vertex 32.4049 -2.92816 -7.30867
      vertex 30.9061 -1.7701 -6.02804
    endloop
  endfacet
  facet normal 0.387154 0.862232 -0.3266
    outer loop
      vertex 31.8396 -1.68204 -4.68898
      vertex 33.5367 -2.82139 -5.68514
      vertex 30.9061 -1.7701 -6.02804
    endloop
  endfacet
  facet normal 0.350634 0.886243 -0.302704
    outer loop
      vertex 35.8119 -4.08849 -6.75937
      vertex 34.4663 -4.21543 -8.68968
      vertex 32.4049 -2.92816 -7.30867
    endloop
  endfacet
  facet normal 0.350634 0.886238 -0.302718
    outer loop
      vertex 33.5367 -2.82139 -5.68514
      vertex 35.8119 -4.08849 -6.75937
      vertex 32.4049 -2.92816 -7.30867
    endloop
  endfacet
  facet normal 0.310899 0.909326 -0.276529
    outer loop
      vertex 38.8504 -5.44053 -7.78924
      vertex 37.2997 -5.58681 -10.0137
      vertex 34.4663 -4.21543 -8.68968
    endloop
  endfacet
  facet normal 0.310898 0.909328 -0.276523
    outer loop
      vertex 35.8119 -4.08849 -6.75937
      vertex 38.8504 -5.44053 -7.78924
      vertex 34.4663 -4.21543 -8.68968
    endloop
  endfacet
  facet normal 0.615926 0.631578 -0.470897
    outer loop
      vertex 40.1731 -7.08332 -8.26249
      vertex 38.5282 -7.23848 -10.6221
      vertex 37.2997 -5.58681 -10.0137
    endloop
  endfacet
  facet normal 0.615927 0.631573 -0.470903
    outer loop
      vertex 38.8504 -5.44053 -7.78924
      vertex 40.1731 -7.08332 -8.26249
      vertex 37.2997 -5.58681 -10.0137
    endloop
  endfacet
  facet normal 0.464425 0.801608 -0.376476
    outer loop
      vertex 41.9207 -8.78467 -9.72929
      vertex 39.9838 -8.96738 -12.5077
      vertex 38.5282 -7.23848 -10.6221
    endloop
  endfacet
  facet normal 0.464424 0.801614 -0.376465
    outer loop
      vertex 40.1731 -7.08332 -8.26249
      vertex 41.9207 -8.78467 -9.72929
      vertex 38.5282 -7.23848 -10.6221
    endloop
  endfacet
  facet normal 0.605611 0.646014 -0.464652
    outer loop
      vertex 43.3246 -10.5852 -10.4027
      vertex 41.2536 -10.7805 -13.3735
      vertex 39.9838 -8.96738 -12.5077
    endloop
  endfacet
  facet normal 0.605615 0.645997 -0.464671
    outer loop
      vertex 41.9207 -8.78467 -9.72929
      vertex 43.3246 -10.5852 -10.4027
      vertex 39.9838 -8.96738 -12.5077
    endloop
  endfacet
  facet normal 0.750207 0.370932 -0.547356
    outer loop
      vertex 44.8246 -15.0132 -11.3475
      vertex 42.5656 -15.2263 -14.5881
      vertex 41.2536 -10.7805 -13.3735
    endloop
  endfacet
  facet normal 0.750204 0.370925 -0.547366
    outer loop
      vertex 43.3246 -10.5852 -10.4027
      vertex 44.8246 -15.0132 -11.3475
      vertex 41.2536 -10.7805 -13.3735
    endloop
  endfacet
  facet normal 0.801474 0.17931 -0.570515
    outer loop
      vertex 46.3026 -24.8263 -12.3555
      vertex 43.8429 -25.0584 -15.8839
      vertex 42.5656 -15.2263 -14.5881
    endloop
  endfacet
  facet normal 0.801483 0.179317 -0.5705
    outer loop
      vertex 44.8246 -15.0132 -11.3475
      vertex 46.3026 -24.8263 -12.3555
      vertex 42.5656 -15.2263 -14.5881
    endloop
  endfacet
  facet normal 0.809892 -0.200027 -0.55142
    outer loop
      vertex 43.8429 -25.0584 -15.8839
      vertex 43.6669 -35.8 -12.2459
      vertex 41.7268 -35.8 -15.0954
    endloop
  endfacet
  facet normal 0.80984 -0.200018 -0.5515
    outer loop
      vertex 43.6669 -35.8 -12.2459
      vertex 46.3026 -24.8263 -12.3555
      vertex 44.0185 -35.8 -11.7296
    endloop
  endfacet
  facet normal 0.809887 -0.200029 -0.551426
    outer loop
      vertex 46.3026 -24.8263 -12.3555
      vertex 43.6669 -35.8 -12.2459
      vertex 43.8429 -25.0584 -15.8839
    endloop
  endfacet
  facet normal -0.0344769 0.99902 -0.0277467
    outer loop
      vertex 25.5157 -0.0111189 -0.669639
      vertex 25 -0.0315556 -0.764675
      vertex 25 -0.0237138 -0.482331
    endloop
  endfacet
  facet normal -0.0344772 0.99902 -0.0277453
    outer loop
      vertex 25 -0.0315556 -0.764675
      vertex 25.5157 -0.0111189 -0.669639
      vertex 25.3721 -0.0246649 -0.978946
    endloop
  endfacet
  facet normal 0.08458 0.992975 -0.0827468
    outer loop
      vertex 27.352 -0.222382 -1.32782
      vertex 27.0673 -0.249241 -1.94114
      vertex 25.3721 -0.0246649 -0.978946
    endloop
  endfacet
  facet normal 0.0845787 0.992974 -0.0827538
    outer loop
      vertex 25.5157 -0.0111189 -0.669639
      vertex 27.352 -0.222382 -1.32782
      vertex 25.3721 -0.0246649 -0.978946
    endloop
  endfacet
  facet normal 0.202138 0.969824 -0.136313
    outer loop
      vertex 29.1494 -0.68632 -1.96328
      vertex 28.7284 -0.726034 -2.87013
      vertex 27.0673 -0.249241 -1.94114
    endloop
  endfacet
  facet normal 0.202139 0.969826 -0.136303
    outer loop
      vertex 27.352 -0.222382 -1.32782
      vertex 29.1494 -0.68632 -1.96328
      vertex 27.0673 -0.249241 -1.94114
    endloop
  endfacet
  facet normal 0.178897 0.975793 -0.125792
    outer loop
      vertex 30.8471 -1.07515 -2.56515
      vertex 30.297 -1.12704 -3.75
      vertex 28.7284 -0.726034 -2.87013
    endloop
  endfacet
  facet normal 0.178896 0.975794 -0.125785
    outer loop
      vertex 29.1494 -0.68632 -1.96328
      vertex 30.8471 -1.07515 -2.56515
      vertex 28.7284 -0.726034 -2.87013
    endloop
  endfacet
  facet normal 0.248274 0.955865 -0.157104
    outer loop
      vertex 32.5273 -1.61716 -3.20745
      vertex 31.8396 -1.68204 -4.68898
      vertex 30.297 -1.12704 -3.75
    endloop
  endfacet
  facet normal 0.24828 0.955859 -0.157132
    outer loop
      vertex 30.8471 -1.07515 -2.56515
      vertex 32.5273 -1.61716 -3.20745
      vertex 30.297 -1.12704 -3.75
    endloop
  endfacet
  facet normal 0.439057 0.865332 -0.24172
    outer loop
      vertex 34.3706 -2.74273 -3.88886
      vertex 33.5367 -2.82139 -5.68514
      vertex 31.8396 -1.68204 -4.68898
    endloop
  endfacet
  facet normal 0.439054 0.865341 -0.241696
    outer loop
      vertex 32.5273 -1.61716 -3.20745
      vertex 34.3706 -2.74273 -3.88886
      vertex 31.8396 -1.68204 -4.68898
    endloop
  endfacet
  facet normal 0.392621 0.892662 -0.221368
    outer loop
      vertex 36.8034 -3.99496 -4.62368
      vertex 35.8119 -4.08849 -6.75937
      vertex 33.5367 -2.82139 -5.68514
    endloop
  endfacet
  facet normal 0.392619 0.892665 -0.221359
    outer loop
      vertex 34.3706 -2.74273 -3.88886
      vertex 36.8034 -3.99496 -4.62368
      vertex 33.5367 -2.82139 -5.68514
    endloop
  endfacet
  facet normal 0.34142 0.918662 -0.198727
    outer loop
      vertex 39.9929 -5.33275 -5.32815
      vertex 38.8504 -5.44053 -7.78924
      vertex 35.8119 -4.08849 -6.75937
    endloop
  endfacet
  facet normal 0.341423 0.918659 -0.198738
    outer loop
      vertex 36.8034 -3.99496 -4.62368
      vertex 39.9929 -5.33275 -5.32815
      vertex 35.8119 -4.08849 -6.75937
    endloop
  endfacet
  facet normal 0.680402 0.646982 -0.344191
    outer loop
      vertex 41.385 -6.96899 -5.65188
      vertex 40.1731 -7.08332 -8.26249
      vertex 38.8504 -5.44053 -7.78924
    endloop
  endfacet
  facet normal 0.680403 0.64698 -0.344194
    outer loop
      vertex 39.9929 -5.33275 -5.32815
      vertex 41.385 -6.96899 -5.65188
      vertex 38.8504 -5.44053 -7.78924
    endloop
  endfacet
  facet normal 0.536 0.795133 -0.283669
    outer loop
      vertex 43.3479 -8.65005 -6.65522
      vertex 41.9207 -8.78467 -9.72929
      vertex 40.1731 -7.08332 -8.26249
    endloop
  endfacet
  facet normal 0.535993 0.795147 -0.283642
    outer loop
      vertex 41.385 -6.96899 -5.65188
      vertex 43.3479 -8.65005 -6.65522
      vertex 40.1731 -7.08332 -8.26249
    endloop
  endfacet
  facet normal 0.674789 0.654025 -0.341924
    outer loop
      vertex 44.8505 -10.4412 -7.11589
      vertex 43.3246 -10.5852 -10.4027
      vertex 41.9207 -8.78467 -9.72929
    endloop
  endfacet
  facet normal 0.674789 0.654023 -0.341926
    outer loop
      vertex 43.3479 -8.65005 -6.65522
      vertex 44.8505 -10.4412 -7.11589
      vertex 41.9207 -8.78467 -9.72929
    endloop
  endfacet
  facet normal 0.836481 0.369674 -0.404525
    outer loop
      vertex 46.4891 -14.8562 -7.76215
      vertex 44.8246 -15.0132 -11.3475
      vertex 43.3246 -10.5852 -10.4027
    endloop
  endfacet
  facet normal 0.83648 0.369669 -0.404531
    outer loop
      vertex 44.8505 -10.4412 -7.11589
      vertex 46.4891 -14.8562 -7.76215
      vertex 43.3246 -10.5852 -10.4027
    endloop
  endfacet
  facet normal 0.889674 0.177223 -0.4208
    outer loop
      vertex 48.115 -24.6554 -8.45167
      vertex 46.3026 -24.8263 -12.3555
      vertex 44.8246 -15.0132 -11.3475
    endloop
  endfacet
  facet normal 0.889676 0.177226 -0.420793
    outer loop
      vertex 46.4891 -14.8562 -7.76215
      vertex 48.115 -24.6554 -8.45167
      vertex 44.8246 -15.0132 -11.3475
    endloop
  endfacet
  facet normal 0.890562 -0.208424 -0.4043
    outer loop
      vertex 46.3026 -24.8263 -12.3555
      vertex 45.4691 -35.8 -8.53433
      vertex 44.0185 -35.8 -11.7296
    endloop
  endfacet
  facet normal 0.890549 -0.208431 -0.404325
    outer loop
      vertex 45.4691 -35.8 -8.53433
      vertex 48.115 -24.6554 -8.45167
      vertex 45.7039 -35.8 -8.01717
    endloop
  endfacet
  facet normal 0.89055 -0.208431 -0.404324
    outer loop
      vertex 48.115 -24.6554 -8.45167
      vertex 45.4691 -35.8 -8.53433
      vertex 46.3026 -24.8263 -12.3555
    endloop
  endfacet
  facet normal -0.0305769 0.999388 -0.0169928
    outer loop
      vertex 25.6037 -0.00282288 -0.339984
      vertex 25 -0.0237138 -0.482331
      vertex 25 -0.0194869 -0.233737
    endloop
  endfacet
  facet normal -0.0305781 0.999388 -0.0169877
    outer loop
      vertex 25 -0.0237138 -0.482331
      vertex 25.6037 -0.00282288 -0.339984
      vertex 25.5157 -0.0111189 -0.669639
    endloop
  endfacet
  facet normal 0.0962005 0.994071 -0.0506814
    outer loop
      vertex 27.5264 -0.205933 -0.674151
      vertex 27.352 -0.222382 -1.32782
      vertex 25.5157 -0.0111189 -0.669639
    endloop
  endfacet
  facet normal 0.0962004 0.99407 -0.0506968
    outer loop
      vertex 25.6037 -0.00282288 -0.339984
      vertex 27.5264 -0.205933 -0.674151
      vertex 25.5157 -0.0111189 -0.669639
    endloop
  endfacet
  facet normal 0.221274 0.971631 -0.0834951
    outer loop
      vertex 29.4073 -0.661999 -0.996784
      vertex 29.1494 -0.68632 -1.96328
      vertex 27.352 -0.222382 -1.32782
    endloop
  endfacet
  facet normal 0.221273 0.971632 -0.0834863
    outer loop
      vertex 27.5264 -0.205933 -0.674151
      vertex 29.4073 -0.661999 -0.996784
      vertex 27.352 -0.222382 -1.32782
    endloop
  endfacet
  facet normal 0.196559 0.977461 -0.0770393
    outer loop
      vertex 31.184 -1.04337 -1.30236
      vertex 30.8471 -1.07515 -2.56515
      vertex 29.1494 -0.68632 -1.96328
    endloop
  endfacet
  facet normal 0.196562 0.97746 -0.0770474
    outer loop
      vertex 29.4073 -0.661999 -0.996784
      vertex 31.184 -1.04337 -1.30236
      vertex 29.1494 -0.68632 -1.96328
    endloop
  endfacet
  facet normal 0.271918 0.957455 -0.0966438
    outer loop
      vertex 32.9486 -1.57743 -1.62847
      vertex 32.5273 -1.61716 -3.20745
      vertex 30.8471 -1.07515 -2.56515
    endloop
  endfacet
  facet normal 0.271916 0.957456 -0.0966404
    outer loop
      vertex 31.184 -1.04337 -1.30236
      vertex 32.9486 -1.57743 -1.62847
      vertex 30.8471 -1.07515 -2.56515
    endloop
  endfacet
  facet normal 0.474809 0.867471 -0.148493
    outer loop
      vertex 34.8813 -2.69455 -1.97443
      vertex 34.3706 -2.74273 -3.88886
      vertex 32.5273 -1.61716 -3.20745
    endloop
  endfacet
  facet normal 0.474817 0.867463 -0.148517
    outer loop
      vertex 32.9486 -1.57743 -1.62847
      vertex 34.8813 -2.69455 -1.97443
      vertex 32.5273 -1.61716 -3.20745
    endloop
  endfacet
  facet normal 0.420969 0.896992 -0.134872
    outer loop
      vertex 37.4106 -3.93768 -2.3475
      vertex 36.8034 -3.99496 -4.62368
      vertex 34.3706 -2.74273 -3.88886
    endloop
  endfacet
  facet normal 0.42097 0.896991 -0.134874
    outer loop
      vertex 34.8813 -2.69455 -1.97443
      vertex 37.4106 -3.93768 -2.3475
      vertex 34.3706 -2.74273 -3.88886
    endloop
  endfacet
  facet normal 0.361412 0.924692 -0.119694
    outer loop
      vertex 40.6927 -5.26674 -2.70517
      vertex 39.9929 -5.33275 -5.32815
      vertex 36.8034 -3.99496 -4.62368
    endloop
  endfacet
  facet normal 0.361406 0.924696 -0.11968
    outer loop
      vertex 37.4106 -3.93768 -2.3475
      vertex 40.6927 -5.26674 -2.70517
      vertex 36.8034 -3.99496 -4.62368
    endloop
  endfacet
  facet normal 0.723852 0.657329 -0.209658
    outer loop
      vertex 42.1273 -6.89897 -2.86953
      vertex 41.385 -6.96899 -5.65188
      vertex 39.9929 -5.33275 -5.32815
    endloop
  endfacet
  facet normal 0.723855 0.657324 -0.209664
    outer loop
      vertex 40.6927 -5.26674 -2.70517
      vertex 42.1273 -6.89897 -2.86953
      vertex 39.9929 -5.33275 -5.32815
    endloop
  endfacet
  facet normal 0.586711 0.790353 -0.176387
    outer loop
      vertex 44.2218 -8.5676 -3.37895
      vertex 43.3479 -8.65005 -6.65522
      vertex 41.385 -6.96899 -5.65188
    endloop
  endfacet
  facet normal 0.586727 0.790333 -0.176422
    outer loop
      vertex 42.1273 -6.89897 -2.86953
      vertex 44.2218 -8.5676 -3.37895
      vertex 41.385 -6.96899 -5.65188
    endloop
  endfacet
  facet normal 0.72201 0.659499 -0.209194
    outer loop
      vertex 45.785 -10.3531 -3.61283
      vertex 44.8505 -10.4412 -7.11589
      vertex 43.3479 -8.65005 -6.65522
    endloop
  endfacet
  facet normal 0.722003 0.659511 -0.209181
    outer loop
      vertex 44.2218 -8.5676 -3.37895
      vertex 45.785 -10.3531 -3.61283
      vertex 43.3479 -8.65005 -6.65522
    endloop
  endfacet
  facet normal 0.89575 0.36879 -0.248247
    outer loop
      vertex 47.5085 -14.76 -3.94094
      vertex 46.4891 -14.8562 -7.76215
      vertex 44.8505 -10.4412 -7.11589
    endloop
  endfacet
  facet normal 0.895749 0.368801 -0.248231
    outer loop
      vertex 45.785 -10.3531 -3.61283
      vertex 47.5085 -14.76 -3.94094
      vertex 44.8505 -10.4412 -7.11589
    endloop
  endfacet
  facet normal 0.950057 0.17578 -0.257862
    outer loop
      vertex 49.2249 -24.5507 -4.29103
      vertex 48.115 -24.6554 -8.45167
      vertex 46.4891 -14.8562 -7.76215
    endloop
  endfacet
  facet normal 0.950055 0.175774 -0.257875
    outer loop
      vertex 47.5085 -14.76 -3.94094
      vertex 49.2249 -24.5507 -4.29103
      vertex 46.4891 -14.8562 -7.76215
    endloop
  endfacet
  facet normal 0.945134 -0.214097 -0.246746
    outer loop
      vertex 48.115 -24.6554 -8.45167
      vertex 46.6003 -35.8 -4.5836
      vertex 45.7039 -35.8 -8.01717
    endloop
  endfacet
  facet normal 0.94513 -0.214092 -0.246768
    outer loop
      vertex 46.6003 -35.8 -4.5836
      vertex 49.2249 -24.5507 -4.29103
      vertex 46.7348 -35.8 -4.06846
    endloop
  endfacet
  facet normal 0.945137 -0.214095 -0.246739
    outer loop
      vertex 49.2249 -24.5507 -4.29103
      vertex 46.6003 -35.8 -4.5836
      vertex 48.115 -24.6554 -8.45167
    endloop
  endfacet
  facet normal -0.028599 0.999575 -0.00572152
    outer loop
      vertex 25.6333 -2.95639e-05 0
      vertex 25 -0.0194869 -0.233737
      vertex 25 -0.018149 0
    endloop
  endfacet
  facet normal -0.0285986 0.999575 -0.00572265
    outer loop
      vertex 25 -0.0194869 -0.233737
      vertex 25.6333 -2.95639e-05 0
      vertex 25.6037 -0.00282288 -0.339984
    endloop
  endfacet
  facet normal 0.102105 0.994627 -0.0170626
    outer loop
      vertex 27.5851 -0.200394 0
      vertex 27.5264 -0.205933 -0.674151
      vertex 25.6037 -0.00282288 -0.339984
    endloop
  endfacet
  facet normal 0.102105 0.994627 -0.0170614
    outer loop
      vertex 25.6333 -2.95639e-05 0
      vertex 27.5851 -0.200394 0
      vertex 25.6037 -0.00282288 -0.339984
    endloop
  endfacet
  facet normal 0.230995 0.972549 -0.0281059
    outer loop
      vertex 29.4941 -0.653809 0
      vertex 29.4073 -0.661999 -0.996784
      vertex 27.5264 -0.205933 -0.674151
    endloop
  endfacet
  facet normal 0.230994 0.972549 -0.028104
    outer loop
      vertex 27.5851 -0.200394 0
      vertex 29.4941 -0.653809 0
      vertex 27.5264 -0.205933 -0.674151
    endloop
  endfacet
  facet normal 0.205534 0.978306 -0.025934
    outer loop
      vertex 31.2974 -1.03267 0
      vertex 31.184 -1.04337 -1.30236
      vertex 29.4073 -0.661999 -0.996784
    endloop
  endfacet
  facet normal 0.205535 0.978306 -0.0259362
    outer loop
      vertex 29.4941 -0.653809 0
      vertex 31.2974 -1.03267 0
      vertex 29.4073 -0.661999 -0.996784
    endloop
  endfacet
  facet normal 0.283997 0.958271 -0.0326027
    outer loop
      vertex 33.0904 -1.56405 0
      vertex 32.9486 -1.57743 -1.62847
      vertex 31.184 -1.04337 -1.30236
    endloop
  endfacet
  facet normal 0.283997 0.958271 -0.0326014
    outer loop
      vertex 31.2974 -1.03267 0
      vertex 33.0904 -1.56405 0
      vertex 31.184 -1.04337 -1.30236
    endloop
  endfacet
  facet normal 0.493065 0.86855 -0.0500879
    outer loop
      vertex 35.0533 -2.67833 0
      vertex 34.8813 -2.69455 -1.97443
      vertex 32.9486 -1.57743 -1.62847
    endloop
  endfacet
  facet normal 0.493054 0.868557 -0.0500693
    outer loop
      vertex 33.0904 -1.56405 0
      vertex 35.0533 -2.67833 0
      vertex 32.9486 -1.57743 -1.62847
    endloop
  endfacet
  facet normal 0.435252 0.899168 -0.0453014
    outer loop
      vertex 37.6151 -3.9184 0
      vertex 37.4106 -3.93768 -2.3475
      vertex 34.8813 -2.69455 -1.97443
    endloop
  endfacet
  facet normal 0.435253 0.899168 -0.0453032
    outer loop
      vertex 35.0533 -2.67833 0
      vertex 37.6151 -3.9184 0
      vertex 34.8813 -2.69455 -1.97443
    endloop
  endfacet
  facet normal 0.371292 0.927656 -0.0399565
    outer loop
      vertex 40.9283 -5.24452 0
      vertex 40.6927 -5.26674 -2.70517
      vertex 37.4106 -3.93768 -2.3475
    endloop
  endfacet
  facet normal 0.371297 0.927654 -0.0399639
    outer loop
      vertex 37.6151 -3.9184 0
      vertex 40.9283 -5.24452 0
      vertex 37.4106 -3.93768 -2.3475
    endloop
  endfacet
  facet normal 0.745728 0.662523 -0.0703854
    outer loop
      vertex 42.3772 -6.8754 0
      vertex 42.1273 -6.89897 -2.86953
      vertex 40.6927 -5.26674 -2.70517
    endloop
  endfacet
  facet normal 0.74573 0.662519 -0.0703894
    outer loop
      vertex 40.9283 -5.24452 0
      vertex 42.3772 -6.8754 0
      vertex 40.6927 -5.26674 -2.70517
    endloop
  endfacet
  facet normal 0.613038 0.787781 -0.0598846
    outer loop
      vertex 44.5162 -8.53984 0
      vertex 44.2218 -8.5676 -3.37895
      vertex 42.1273 -6.89897 -2.86953
    endloop
  endfacet
  facet normal 0.613017 0.787799 -0.059857
    outer loop
      vertex 42.3772 -6.8754 0
      vertex 44.5162 -8.53984 0
      vertex 42.1273 -6.89897 -2.86953
    endloop
  endfacet
  facet normal 0.745936 0.662286 -0.0703995
    outer loop
      vertex 46.0996 -10.3234 0
      vertex 45.785 -10.3531 -3.61283
      vertex 44.2218 -8.5676 -3.37895
    endloop
  endfacet
  facet normal 0.745965 0.66225 -0.070435
    outer loop
      vertex 44.5162 -8.53984 0
      vertex 46.0996 -10.3234 0
      vertex 44.2218 -8.5676 -3.37895
    endloop
  endfacet
  facet normal 0.925916 0.368347 -0.0836625
    outer loop
      vertex 47.8517 -14.7276 0
      vertex 47.5085 -14.76 -3.94094
      vertex 45.785 -10.3531 -3.61283
    endloop
  endfacet
  facet normal 0.925915 0.368352 -0.0836554
    outer loop
      vertex 46.0996 -10.3234 0
      vertex 47.8517 -14.7276 0
      vertex 45.785 -10.3531 -3.61283
    endloop
  endfacet
  facet normal 0.980722 0.175036 -0.0868725
    outer loop
      vertex 49.5987 -24.5154 0
      vertex 49.2249 -24.5507 -4.29103
      vertex 47.5085 -14.76 -3.94094
    endloop
  endfacet
  facet normal 0.980722 0.175047 -0.0868461
    outer loop
      vertex 47.8517 -14.7276 0
      vertex 49.5987 -24.5154 0
      vertex 47.5085 -14.76 -3.94094
    endloop
  endfacet
  facet normal 0.972655 -0.216944 -0.0829273
    outer loop
      vertex 49.2249 -24.5507 -4.29103
      vertex 47.0376 -35.8 -0.516915
      vertex 46.7348 -35.8 -4.06846
    endloop
  endfacet
  facet normal 0.97265 -0.216947 -0.0829805
    outer loop
      vertex 47.0376 -35.8 -0.516915
      vertex 49.5987 -24.5154 0
      vertex 47.0817 -35.8 0
    endloop
  endfacet
  facet normal 0.972653 -0.216949 -0.0829449
    outer loop
      vertex 49.5987 -24.5154 0
      vertex 47.0376 -35.8 -0.516915
      vertex 49.2249 -24.5507 -4.29103
    endloop
  endfacet
  facet normal -0.127697 0.759185 -0.638225
    outer loop
      vertex 25 -6.55649 -15.315
      vertex 25.4187 -6.70758 -15.5785
      vertex 25 -6.74707 -15.5417
    endloop
  endfacet
  facet normal -0.127813 0.759068 -0.638341
    outer loop
      vertex 25 -6.20371 -14.8955
      vertex 25.4187 -6.70758 -15.5785
      vertex 25 -6.55649 -15.315
    endloop
  endfacet
  facet normal -0.120257 0.451213 -0.884277
    outer loop
      vertex 25 -8.00352 -16.1829
      vertex 25.9253 -8.42735 -16.525
      vertex 25 -8.51463 -16.4437
    endloop
  endfacet
  facet normal -0.120235 0.451248 -0.884262
    outer loop
      vertex 25 -8.00352 -16.1829
      vertex 25.4187 -6.70758 -15.5785
      vertex 25.9253 -8.42735 -16.525
    endloop
  endfacet
  facet normal -0.120278 0.451257 -0.884251
    outer loop
      vertex 25.4187 -6.70758 -15.5785
      vertex 25 -8.00352 -16.1829
      vertex 25 -6.74707 -15.5417
    endloop
  endfacet
  facet normal -0.125167 0.842739 -0.523569
    outer loop
      vertex 25 -10.2517 -19.2382
      vertex 25.1436 -10.3673 -19.4586
      vertex 25 -10.3808 -19.446
    endloop
  endfacet
  facet normal -0.125496 0.842578 -0.523749
    outer loop
      vertex 25.9253 -8.42735 -16.525
      vertex 25 -10.2517 -19.2382
      vertex 25 -8.51463 -16.4437
    endloop
  endfacet
  facet normal -0.125547 0.84258 -0.523733
    outer loop
      vertex 25 -10.2517 -19.2382
      vertex 25.9253 -8.42735 -16.525
      vertex 25.1436 -10.3673 -19.4586
    endloop
  endfacet
  facet normal -0.124951 0.560981 -0.818344
    outer loop
      vertex 25 -12.1068 -20.6296
      vertex 25.3861 -12.2774 -20.8055
      vertex 25 -12.3138 -20.7715
    endloop
  endfacet
  facet normal -0.124839 0.561139 -0.818253
    outer loop
      vertex 25 -12.1068 -20.6296
      vertex 25.1436 -10.3673 -19.4586
      vertex 25.3861 -12.2774 -20.8055
    endloop
  endfacet
  facet normal -0.124554 0.561143 -0.818294
    outer loop
      vertex 25.1436 -10.3673 -19.4586
      vertex 25 -12.1068 -20.6296
      vertex 25 -10.3808 -19.446
    endloop
  endfacet
  facet normal -0.11656 0.381475 -0.917001
    outer loop
      vertex 25 -16.5446 -22.5315
      vertex 25.257 -16.8591 -22.695
      vertex 25 -16.8833 -22.6724
    endloop
  endfacet
  facet normal -0.116581 0.381459 -0.917005
    outer loop
      vertex 25 -16.5446 -22.5315
      vertex 25.3861 -12.2774 -20.8055
      vertex 25.257 -16.8591 -22.695
    endloop
  endfacet
  facet normal -0.116713 0.381463 -0.916986
    outer loop
      vertex 25.3861 -12.2774 -20.8055
      vertex 25 -16.5446 -22.5315
      vertex 25 -12.3138 -20.7715
    endloop
  endfacet
  facet normal -0.104472 0.199595 -0.974293
    outer loop
      vertex 25 -16.8833 -22.6724
      vertex 25.257 -16.8591 -22.695
      vertex 25 -26.7153 -24.6866
    endloop
  endfacet
endsolid OpenSCAD_Model
