solid OpenSCAD_Model
  facet normal 0 0 1
    outer loop
      vertex 39.9541 -8.3006 7.66667
      vertex 48.8945 -12.8177 7.66667
      vertex 48.2388 -10.5134 7.66667
    endloop
  endfacet
  facet normal -0 0 1
    outer loop
      vertex 38.8083 -9.12288 7.66667
      vertex 48.8945 -12.8177 7.66667
      vertex 39.1171 -8.89665 7.66667
    endloop
  endfacet
  facet normal 0 0 1
    outer loop
      vertex 42.5138 -6.78675 7.66667
      vertex 48.2388 -10.5134 7.66667
      vertex 47.7959 -8.70693 7.66667
    endloop
  endfacet
  facet normal 0 0 1
    outer loop
      vertex 42.5138 -6.78675 7.66667
      vertex 47.7959 -8.70693 7.66667
      vertex 47.5887 -8.23417 7.66667
    endloop
  endfacet
  facet normal 0 0 1
    outer loop
      vertex 47.3051 -7.55253 7.66667
      vertex 47.5887 -8.23417 7.66667
      vertex 47.3647 -7.64728 7.66667
    endloop
  endfacet
  facet normal 0 0 1
    outer loop
      vertex 47.5887 -8.23417 7.66667
      vertex 47.3051 -7.55253 7.66667
      vertex 46.4303 -6.80785 7.66667
    endloop
  endfacet
  facet normal 0 0 1
    outer loop
      vertex 47.1461 -7.3261 7.66667
      vertex 47.3051 -7.55253 7.66667
      vertex 47.2302 -7.41586 7.66667
    endloop
  endfacet
  facet normal 0 0 1
    outer loop
      vertex 47.3051 -7.55253 7.66667
      vertex 47.1461 -7.3261 7.66667
      vertex 46.4303 -6.80785 7.66667
    endloop
  endfacet
  facet normal 0 0 1
    outer loop
      vertex 46.4303 -6.80785 7.66667
      vertex 47.1461 -7.3261 7.66667
      vertex 47.0359 -7.18934 7.66667
    endloop
  endfacet
  facet normal 0 0 1
    outer loop
      vertex 47.5887 -8.23417 7.66667
      vertex 46.4303 -6.80785 7.66667
      vertex 42.5138 -6.78675 7.66667
    endloop
  endfacet
  facet normal 0 0 1
    outer loop
      vertex 45.3778 -6.11558 7.66667
      vertex 46.4303 -6.80785 7.66667
      vertex 45.5979 -6.17423 7.66667
    endloop
  endfacet
  facet normal -0 0 1
    outer loop
      vertex 43.543 -6.24465 7.66667
      vertex 46.4303 -6.80785 7.66667
      vertex 45.3778 -6.11558 7.66667
    endloop
  endfacet
  facet normal 0 0 1
    outer loop
      vertex 44.8969 -5.99105 7.66667
      vertex 45.3778 -6.11558 7.66667
      vertex 45.0492 -5.99724 7.66667
    endloop
  endfacet
  facet normal 0 0 1
    outer loop
      vertex 44.5005 -5.98874 7.66667
      vertex 45.3778 -6.11558 7.66667
      vertex 44.8969 -5.99105 7.66667
    endloop
  endfacet
  facet normal -0 0 1
    outer loop
      vertex 44.5005 -5.98874 7.66667
      vertex 44.8969 -5.99105 7.66667
      vertex 44.6709 -5.9653 7.66667
    endloop
  endfacet
  facet normal 0 0 1
    outer loop
      vertex 45.3778 -6.11558 7.66667
      vertex 44.5005 -5.98874 7.66667
      vertex 44.0987 -6.05342 7.66667
    endloop
  endfacet
  facet normal 0 0 1
    outer loop
      vertex 44.0987 -6.05342 7.66667
      vertex 44.5005 -5.98874 7.66667
      vertex 44.2535 -6.00828 7.66667
    endloop
  endfacet
  facet normal 0 0 1
    outer loop
      vertex 45.3778 -6.11558 7.66667
      vertex 44.0987 -6.05342 7.66667
      vertex 43.543 -6.24465 7.66667
    endloop
  endfacet
  facet normal 0 0 1
    outer loop
      vertex 43.7975 -6.13949 7.66667
      vertex 44.0987 -6.05342 7.66667
      vertex 43.8831 -6.10621 7.66667
    endloop
  endfacet
  facet normal 0 0 1
    outer loop
      vertex 43.543 -6.24465 7.66667
      vertex 44.0987 -6.05342 7.66667
      vertex 43.7975 -6.13949 7.66667
    endloop
  endfacet
  facet normal 0 0 1
    outer loop
      vertex 43.543 -6.24465 7.66667
      vertex 43.7975 -6.13949 7.66667
      vertex 43.6832 -6.17933 7.66667
    endloop
  endfacet
  facet normal 0 0 1
    outer loop
      vertex 46.4303 -6.80785 7.66667
      vertex 43.543 -6.24465 7.66667
      vertex 43.3618 -6.32279 7.66667
    endloop
  endfacet
  facet normal 0 0 1
    outer loop
      vertex 46.4303 -6.80785 7.66667
      vertex 43.3618 -6.32279 7.66667
      vertex 42.5138 -6.78675 7.66667
    endloop
  endfacet
  facet normal 0 0 1
    outer loop
      vertex 48.2388 -10.5134 7.66667
      vertex 42.5138 -6.78675 7.66667
      vertex 41.5262 -7.30054 7.66667
    endloop
  endfacet
  facet normal 0 0 1
    outer loop
      vertex 48.2388 -10.5134 7.66667
      vertex 41.5262 -7.30054 7.66667
      vertex 40.9561 -7.65588 7.66667
    endloop
  endfacet
  facet normal 0 0 1
    outer loop
      vertex 48.2388 -10.5134 7.66667
      vertex 40.9561 -7.65588 7.66667
      vertex 40.4471 -7.96192 7.66667
    endloop
  endfacet
  facet normal 0 0 1
    outer loop
      vertex 48.2388 -10.5134 7.66667
      vertex 40.4471 -7.96192 7.66667
      vertex 39.9541 -8.3006 7.66667
    endloop
  endfacet
  facet normal 0 0 1
    outer loop
      vertex 48.8945 -12.8177 7.66667
      vertex 39.9541 -8.3006 7.66667
      vertex 39.5783 -8.55197 7.66667
    endloop
  endfacet
  facet normal 0 0 1
    outer loop
      vertex 48.8945 -12.8177 7.66667
      vertex 39.5783 -8.55197 7.66667
      vertex 39.1171 -8.89665 7.66667
    endloop
  endfacet
  facet normal -0 0 1
    outer loop
      vertex 38.393 -9.45687 7.66667
      vertex 48.8945 -12.8177 7.66667
      vertex 38.8083 -9.12288 7.66667
    endloop
  endfacet
  facet normal 0 0 1
    outer loop
      vertex 37.3333 -18.375 7.66667
      vertex 48.8945 -12.8177 7.66667
      vertex 38.393 -9.45687 7.66667
    endloop
  endfacet
  facet normal 0 0 1
    outer loop
      vertex 48.8945 -12.8177 7.66667
      vertex 37.3333 -18.375 7.66667
      vertex 49.2366 -14.8328 7.66667
    endloop
  endfacet
  facet normal 0 0 1
    outer loop
      vertex 37.3333 -18.375 7.66667
      vertex 38.393 -9.45687 7.66667
      vertex 38.0023 -9.77312 7.66667
    endloop
  endfacet
  facet normal 0 0 1
    outer loop
      vertex 37.3333 -18.375 7.66667
      vertex 38.0023 -9.77312 7.66667
      vertex 37.7362 -9.99895 7.66667
    endloop
  endfacet
  facet normal 0 0 1
    outer loop
      vertex 37.3333 -18.375 7.66667
      vertex 37.7362 -9.99895 7.66667
      vertex 37.3646 -10.3298 7.66667
    endloop
  endfacet
  facet normal 0 0 1
    outer loop
      vertex 37.3333 -18.375 7.66667
      vertex 37.3646 -10.3298 7.66667
      vertex 37.3333 -10.3574 7.66667
    endloop
  endfacet
  facet normal 0 0 1
    outer loop
      vertex 49.2366 -14.8328 7.66667
      vertex 37.3333 -18.375 7.66667
      vertex 49.9319 -18.375 7.66667
    endloop
  endfacet
  facet normal 0 0 -1
    outer loop
      vertex 37.3333 -18.375 -7.66667
      vertex 51.47 -18.014 -7.66667
      vertex 51.4948 -18.375 -7.66667
    endloop
  endfacet
  facet normal -0 0 -1
    outer loop
      vertex 51.47 -18.014 -7.66667
      vertex 37.3333 -18.375 -7.66667
      vertex 51.069 -14.7135 -7.66667
    endloop
  endfacet
  facet normal 0 -0 -1
    outer loop
      vertex 41.8922 -7.88528 -7.66667
      vertex 51.069 -14.7135 -7.66667
      vertex 41.0724 -8.39248 -7.66667
    endloop
  endfacet
  facet normal 0 0 -1
    outer loop
      vertex 51.069 -14.7135 -7.66667
      vertex 41.8922 -7.88528 -7.66667
      vertex 50.4644 -10.1717 -7.66667
    endloop
  endfacet
  facet normal 0 -0 -1
    outer loop
      vertex 42.5619 -7.48896 -7.66667
      vertex 50.4644 -10.1717 -7.66667
      vertex 41.8922 -7.88528 -7.66667
    endloop
  endfacet
  facet normal 0 -0 -1
    outer loop
      vertex 42.9682 -7.27219 -7.66667
      vertex 50.4644 -10.1717 -7.66667
      vertex 42.5619 -7.48896 -7.66667
    endloop
  endfacet
  facet normal 0 -0 -1
    outer loop
      vertex 45.2248 -6.64108 -7.66667
      vertex 50.4644 -10.1717 -7.66667
      vertex 42.9682 -7.27219 -7.66667
    endloop
  endfacet
  facet normal -0 -0 -1
    outer loop
      vertex 48.2687 -7.35765 -7.66667
      vertex 50.4644 -10.1717 -7.66667
      vertex 45.2248 -6.64108 -7.66667
    endloop
  endfacet
  facet normal -0 -0 -1
    outer loop
      vertex 49.1951 -8.01084 -7.66667
      vertex 50.4644 -10.1717 -7.66667
      vertex 48.2687 -7.35765 -7.66667
    endloop
  endfacet
  facet normal -0 -0 -1
    outer loop
      vertex 49.4573 -8.25993 -7.66667
      vertex 50.4644 -10.1717 -7.66667
      vertex 49.1951 -8.01084 -7.66667
    endloop
  endfacet
  facet normal 0 0 -1
    outer loop
      vertex 50.4644 -10.1717 -7.66667
      vertex 49.4573 -8.25993 -7.66667
      vertex 50.4253 -9.96324 -7.66667
    endloop
  endfacet
  facet normal 0 0 -1
    outer loop
      vertex 50.4253 -9.96324 -7.66667
      vertex 50.3411 -9.63057 -7.66667
      vertex 50.3864 -9.77908 -7.66667
    endloop
  endfacet
  facet normal 0 0 -1
    outer loop
      vertex 50.3411 -9.63057 -7.66667
      vertex 50.2189 -9.31821 -7.66667
      vertex 50.2989 -9.50683 -7.66667
    endloop
  endfacet
  facet normal 0 0 -1
    outer loop
      vertex 49.9607 -8.86451 -7.66667
      vertex 49.4573 -8.25993 -7.66667
      vertex 49.8078 -8.64468 -7.66667
    endloop
  endfacet
  facet normal 0 0 -1
    outer loop
      vertex 50.2189 -9.31821 -7.66667
      vertex 49.9607 -8.86451 -7.66667
      vertex 50.1485 -9.17024 -7.66667
    endloop
  endfacet
  facet normal -0 -0 -1
    outer loop
      vertex 49.9607 -8.86451 -7.66667
      vertex 50.4253 -9.96324 -7.66667
      vertex 49.4573 -8.25993 -7.66667
    endloop
  endfacet
  facet normal 0 0 -1
    outer loop
      vertex 47.6354 -6.98632 -7.66667
      vertex 45.2248 -6.64108 -7.66667
      vertex 47.2036 -6.7934 -7.66667
    endloop
  endfacet
  facet normal 0 0 -1
    outer loop
      vertex 47.2036 -6.7934 -7.66667
      vertex 46.551 -6.61887 -7.66667
      vertex 46.9142 -6.69338 -7.66667
    endloop
  endfacet
  facet normal 0 0 -1
    outer loop
      vertex 47.2036 -6.7934 -7.66667
      vertex 46.3029 -6.58851 -7.66667
      vertex 46.551 -6.61887 -7.66667
    endloop
  endfacet
  facet normal 0 -0 -1
    outer loop
      vertex 46.3029 -6.58851 -7.66667
      vertex 47.2036 -6.7934 -7.66667
      vertex 45.2248 -6.64108 -7.66667
    endloop
  endfacet
  facet normal 0 -0 -1
    outer loop
      vertex 43.3703 -7.07066 -7.66667
      vertex 45.2248 -6.64108 -7.66667
      vertex 42.9682 -7.27219 -7.66667
    endloop
  endfacet
  facet normal 0 0 -1
    outer loop
      vertex 45.2248 -6.64108 -7.66667
      vertex 43.3703 -7.07066 -7.66667
      vertex 44.3732 -6.73821 -7.66667
    endloop
  endfacet
  facet normal 0 0 -1
    outer loop
      vertex 44.3732 -6.73821 -7.66667
      vertex 43.9267 -6.84443 -7.66667
      vertex 44.2343 -6.76144 -7.66667
    endloop
  endfacet
  facet normal 0 0 -1
    outer loop
      vertex 44.2343 -6.76144 -7.66667
      vertex 43.9267 -6.84443 -7.66667
      vertex 44.1187 -6.78698 -7.66667
    endloop
  endfacet
  facet normal 0 0 -1
    outer loop
      vertex 44.1187 -6.78698 -7.66667
      vertex 43.9267 -6.84443 -7.66667
      vertex 44.015 -6.81582 -7.66667
    endloop
  endfacet
  facet normal 0 -0 -1
    outer loop
      vertex 43.9267 -6.84443 -7.66667
      vertex 44.3732 -6.73821 -7.66667
      vertex 43.635 -6.95758 -7.66667
    endloop
  endfacet
  facet normal 0 -0 -1
    outer loop
      vertex 43.635 -6.95758 -7.66667
      vertex 44.3732 -6.73821 -7.66667
      vertex 43.3703 -7.07066 -7.66667
    endloop
  endfacet
  facet normal 0 0 -1
    outer loop
      vertex 48.2687 -7.35765 -7.66667
      vertex 45.2248 -6.64108 -7.66667
      vertex 47.6354 -6.98632 -7.66667
    endloop
  endfacet
  facet normal -0 -0 -1
    outer loop
      vertex 50.2189 -9.31821 -7.66667
      vertex 50.3411 -9.63057 -7.66667
      vertex 49.9607 -8.86451 -7.66667
    endloop
  endfacet
  facet normal -0 -0 -1
    outer loop
      vertex 50.3411 -9.63057 -7.66667
      vertex 50.4253 -9.96324 -7.66667
      vertex 49.9607 -8.86451 -7.66667
    endloop
  endfacet
  facet normal 0 0 -1
    outer loop
      vertex 51.069 -14.7135 -7.66667
      vertex 39.3167 -9.57821 -7.66667
      vertex 41.0724 -8.39248 -7.66667
    endloop
  endfacet
  facet normal -0 0 -1
    outer loop
      vertex 51.069 -14.7135 -7.66667
      vertex 37.3333 -18.375 -7.66667
      vertex 39.3167 -9.57821 -7.66667
    endloop
  endfacet
  facet normal 0 0 -1
    outer loop
      vertex 39.3167 -9.57821 -7.66667
      vertex 37.3333 -18.375 -7.66667
      vertex 37.3333 -10.9621 -7.66667
    endloop
  endfacet
  facet normal -1 0 0
    outer loop
      vertex 37.3333 -7.14953 1.12646
      vertex 37.3333 -7.04492 0.714473
      vertex 37.3333 -7.05297 0.163999
    endloop
  endfacet
  facet normal -1 0 0
    outer loop
      vertex 37.3333 -7.23923 1.40372
      vertex 37.3333 -7.05297 0.163999
      vertex 37.3333 -7.05942 -0.261157
    endloop
  endfacet
  facet normal -1 0 0
    outer loop
      vertex 37.3333 -7.04492 0.714473
      vertex 37.3333 -7.14953 1.12646
      vertex 37.3333 -7.05443 0.785991
    endloop
  endfacet
  facet normal -1 0 0
    outer loop
      vertex 37.3333 -7.05443 0.785991
      vertex 37.3333 -7.14953 1.12646
      vertex 37.3333 -7.06959 0.874037
    endloop
  endfacet
  facet normal -1 0 0
    outer loop
      vertex 37.3333 -7.23923 1.40372
      vertex 37.3333 -7.05942 -0.261157
      vertex 37.3333 -7.13001 -0.998288
    endloop
  endfacet
  facet normal -1 0 0
    outer loop
      vertex 37.3333 -7.06959 0.874037
      vertex 37.3333 -7.14953 1.12646
      vertex 37.3333 -7.07899 0.916698
    endloop
  endfacet
  facet normal -1 0 0
    outer loop
      vertex 37.3333 -8.39349 3.66688
      vertex 37.3333 -7.13001 -0.998288
      vertex 37.3333 -7.18622 -1.56349
    endloop
  endfacet
  facet normal -1 0 0
    outer loop
      vertex 37.3333 -7.05297 0.163999
      vertex 37.3333 -7.23923 1.40372
      vertex 37.3333 -7.14953 1.12646
    endloop
  endfacet
  facet normal -1 0 0
    outer loop
      vertex 37.3333 -8.20891 -4.55505
      vertex 37.3333 -7.18622 -1.56349
      vertex 37.3333 -7.30785 -2.30417
    endloop
  endfacet
  facet normal -1 0 0
    outer loop
      vertex 37.3333 -7.55893 -3.34178
      vertex 37.3333 -7.30785 -2.30417
      vertex 37.3333 -7.40251 -2.85932
    endloop
  endfacet
  facet normal -1 0 0
    outer loop
      vertex 37.3333 -7.55893 -3.34178
      vertex 37.3333 -7.40251 -2.85932
      vertex 37.3333 -7.44437 -3.0136
    endloop
  endfacet
  facet normal -1 0 0
    outer loop
      vertex 37.3333 -7.55893 -3.34178
      vertex 37.3333 -7.44437 -3.0136
      vertex 37.3333 -7.47615 -3.12637
    endloop
  endfacet
  facet normal -1 0 0
    outer loop
      vertex 37.3333 -7.30785 -2.30417
      vertex 37.3333 -7.55893 -3.34178
      vertex 37.3333 -7.78916 -3.835
    endloop
  endfacet
  facet normal -1 0 0
    outer loop
      vertex 37.3333 -7.78916 -3.835
      vertex 37.3333 -7.55893 -3.34178
      vertex 37.3333 -7.6209 -3.49699
    endloop
  endfacet
  facet normal -1 0 0
    outer loop
      vertex 37.3333 -7.30785 -2.30417
      vertex 37.3333 -7.78916 -3.835
      vertex 37.3333 -8.20891 -4.55505
    endloop
  endfacet
  facet normal -1 0 0
    outer loop
      vertex 37.3333 -8.20891 -4.55505
      vertex 37.3333 -7.78916 -3.835
      vertex 37.3333 -7.91165 -4.0718
    endloop
  endfacet
  facet normal -1 0 0
    outer loop
      vertex 37.3333 -8.41434 -4.87646
      vertex 37.3333 -7.18622 -1.56349
      vertex 37.3333 -8.20891 -4.55505
    endloop
  endfacet
  facet normal -1 0 0
    outer loop
      vertex 37.3333 -7.13001 -0.998288
      vertex 37.3333 -8.39349 3.66688
      vertex 37.3333 -7.23923 1.40372
    endloop
  endfacet
  facet normal -1 -0 0
    outer loop
      vertex 37.3333 -7.18622 -1.56349
      vertex 37.3333 -8.41434 -4.87646
      vertex 37.3333 -8.39349 3.66688
    endloop
  endfacet
  facet normal -1 0 0
    outer loop
      vertex 37.3333 -8.83648 -5.44962
      vertex 37.3333 -8.39349 3.66688
      vertex 37.3333 -8.41434 -4.87646
    endloop
  endfacet
  facet normal -1 0 0
    outer loop
      vertex 37.3333 -18.375 -7.66667
      vertex 37.3333 -8.83648 -5.44962
      vertex 37.3333 -9.10563 -5.8014
    endloop
  endfacet
  facet normal -1 0 0
    outer loop
      vertex 37.3333 -18.375 -7.66667
      vertex 37.3333 -9.10563 -5.8014
      vertex 37.3333 -9.44712 -6.20201
    endloop
  endfacet
  facet normal -1 0 0
    outer loop
      vertex 37.3333 -18.375 -7.66667
      vertex 37.3333 -9.44712 -6.20201
      vertex 37.3333 -9.64658 -6.42719
    endloop
  endfacet
  facet normal -1 0 0
    outer loop
      vertex 37.3333 -18.375 -7.66667
      vertex 37.3333 -9.64658 -6.42719
      vertex 37.3333 -10.066 -6.85231
    endloop
  endfacet
  facet normal -1 0 0
    outer loop
      vertex 37.3333 -18.375 -7.66667
      vertex 37.3333 -10.066 -6.85231
      vertex 37.3333 -10.2924 -7.07311
    endloop
  endfacet
  facet normal -1 -0 0
    outer loop
      vertex 37.3333 -8.83648 -5.44962
      vertex 37.3333 -18.375 -7.66667
      vertex 37.3333 -8.39349 3.66688
    endloop
  endfacet
  facet normal -1 0 0
    outer loop
      vertex 37.3333 -8.39349 3.66688
      vertex 37.3333 -18.375 7.66667
      vertex 37.3333 -10.3225 7.606
    endloop
  endfacet
  facet normal -1 0 0
    outer loop
      vertex 37.3333 -18.375 -7.66667
      vertex 37.3333 -10.2924 -7.07311
      vertex 37.3333 -10.9621 -7.66667
    endloop
  endfacet
  facet normal -1 -0 0
    outer loop
      vertex 37.3333 -8.39349 3.66688
      vertex 37.3333 -18.375 -7.66667
      vertex 37.3333 -18.375 7.66667
    endloop
  endfacet
  facet normal -1 0 0
    outer loop
      vertex 37.3333 -10.3225 7.606
      vertex 37.3333 -18.375 7.66667
      vertex 37.3333 -10.3574 7.66667
    endloop
  endfacet
  facet normal 0 -1 0
    outer loop
      vertex 52.8056 -18.375 2.64836
      vertex 49.9319 -18.375 7.66667
      vertex 37.3333 -18.375 7.66667
    endloop
  endfacet
  facet normal -0 -1 -0
    outer loop
      vertex 52.3985 -18.375 4.52296
      vertex 49.9319 -18.375 7.66667
      vertex 52.8056 -18.375 2.64836
    endloop
  endfacet
  facet normal 0 -1 0
    outer loop
      vertex 49.9319 -18.375 7.66667
      vertex 52.3985 -18.375 4.52296
      vertex 50.4865 -18.375 7.32088
    endloop
  endfacet
  facet normal -0 -1 -0
    outer loop
      vertex 52.2556 -18.375 5.19842
      vertex 50.7206 -18.375 7.13897
      vertex 52.3985 -18.375 4.52296
    endloop
  endfacet
  facet normal 0 -1 0
    outer loop
      vertex 50.7206 -18.375 7.13897
      vertex 52.2556 -18.375 5.19842
      vertex 51.4336 -18.375 6.60861
    endloop
  endfacet
  facet normal 0 -1 0
    outer loop
      vertex 51.4336 -18.375 6.60861
      vertex 52.2556 -18.375 5.19842
      vertex 51.5455 -18.375 6.49704
    endloop
  endfacet
  facet normal -0 -1 -0
    outer loop
      vertex 52.0952 -18.375 5.69283
      vertex 51.5455 -18.375 6.49704
      vertex 52.2556 -18.375 5.19842
    endloop
  endfacet
  facet normal 0 -1 0
    outer loop
      vertex 51.5455 -18.375 6.49704
      vertex 52.0952 -18.375 5.69283
      vertex 51.7757 -18.375 6.29126
    endloop
  endfacet
  facet normal 0 -1 0
    outer loop
      vertex 51.7757 -18.375 6.29126
      vertex 51.9417 -18.375 6.07568
      vertex 51.8767 -18.375 6.17945
    endloop
  endfacet
  facet normal -0 -1 -0
    outer loop
      vertex 51.9994 -18.375 5.96437
      vertex 51.7757 -18.375 6.29126
      vertex 52.0296 -18.375 5.89318
    endloop
  endfacet
  facet normal 0 -1 0
    outer loop
      vertex 51.7757 -18.375 6.29126
      vertex 51.9994 -18.375 5.96437
      vertex 51.9417 -18.375 6.07568
    endloop
  endfacet
  facet normal 0 -1 0
    outer loop
      vertex 51.8767 -18.375 6.17945
      vertex 51.9417 -18.375 6.07568
      vertex 51.9105 -18.375 6.13174
    endloop
  endfacet
  facet normal -0 -1 -0
    outer loop
      vertex 52.0296 -18.375 5.89318
      vertex 51.7757 -18.375 6.29126
      vertex 52.0952 -18.375 5.69283
    endloop
  endfacet
  facet normal 0 -1 0
    outer loop
      vertex 50.4865 -18.375 7.32088
      vertex 52.3985 -18.375 4.52296
      vertex 50.7206 -18.375 7.13897
    endloop
  endfacet
  facet normal 0 -1 0
    outer loop
      vertex 37.3333 -18.375 7.66667
      vertex 52.9647 -18.375 1.46021
      vertex 52.8056 -18.375 2.64836
    endloop
  endfacet
  facet normal 0 -1 0
    outer loop
      vertex 37.3333 -18.375 -7.66667
      vertex 52.9647 -18.375 1.46021
      vertex 37.3333 -18.375 7.66667
    endloop
  endfacet
  facet normal 0 -1 -0
    outer loop
      vertex 52.9647 -18.375 1.46021
      vertex 37.3333 -18.375 -7.66667
      vertex 53.4068 -18.375 -1.7558
    endloop
  endfacet
  facet normal 0 -1 0
    outer loop
      vertex 51.4948 -18.375 -7.66667
      vertex 53.4068 -18.375 -1.7558
      vertex 37.3333 -18.375 -7.66667
    endloop
  endfacet
  facet normal 0 -1 -0
    outer loop
      vertex 53.4068 -18.375 -1.7558
      vertex 51.4948 -18.375 -7.66667
      vertex 53.4342 -18.375 -2.28774
    endloop
  endfacet
  facet normal -0 -1 0
    outer loop
      vertex 52.0033 -18.375 -7.11213
      vertex 53.4342 -18.375 -2.28774
      vertex 51.4948 -18.375 -7.66667
    endloop
  endfacet
  facet normal 0 -1 -0
    outer loop
      vertex 53.4342 -18.375 -2.28774
      vertex 52.0033 -18.375 -7.11213
      vertex 53.5094 -18.375 -3.70781
    endloop
  endfacet
  facet normal -0 -1 0
    outer loop
      vertex 52.2056 -18.375 -6.88233
      vertex 53.5094 -18.375 -3.70781
      vertex 52.0033 -18.375 -7.11213
    endloop
  endfacet
  facet normal -0 -1 0
    outer loop
      vertex 52.6215 -18.375 -6.33232
      vertex 53.5094 -18.375 -3.70781
      vertex 52.2056 -18.375 -6.88233
    endloop
  endfacet
  facet normal -0 -1 0
    outer loop
      vertex 52.9682 -18.375 -5.80449
      vertex 53.5026 -18.375 -3.88646
      vertex 52.6215 -18.375 -6.33232
    endloop
  endfacet
  facet normal -0 -1 0
    outer loop
      vertex 53.1989 -18.375 -5.35788
      vertex 53.5026 -18.375 -3.88646
      vertex 52.9682 -18.375 -5.80449
    endloop
  endfacet
  facet normal -0 -1 0
    outer loop
      vertex 53.4726 -18.375 -4.44097
      vertex 53.5026 -18.375 -3.88646
      vertex 53.1989 -18.375 -5.35788
    endloop
  endfacet
  facet normal 0 -1 0
    outer loop
      vertex 53.5026 -18.375 -3.88646
      vertex 53.4726 -18.375 -4.44097
      vertex 53.4841 -18.375 -4.36237
    endloop
  endfacet
  facet normal 0 -1 0
    outer loop
      vertex 53.4206 -18.375 -4.72991
      vertex 53.3355 -18.375 -5.0223
      vertex 53.3643 -18.375 -4.94209
    endloop
  endfacet
  facet normal 0 -1 0
    outer loop
      vertex 53.4206 -18.375 -4.72991
      vertex 53.1989 -18.375 -5.35788
      vertex 53.3355 -18.375 -5.0223
    endloop
  endfacet
  facet normal 0 -1 0
    outer loop
      vertex 53.1989 -18.375 -5.35788
      vertex 52.9682 -18.375 -5.80449
      vertex 53.0399 -18.375 -5.68344
    endloop
  endfacet
  facet normal 0 -1 0
    outer loop
      vertex 53.4726 -18.375 -4.44097
      vertex 53.1989 -18.375 -5.35788
      vertex 53.4206 -18.375 -4.72991
    endloop
  endfacet
  facet normal 0 -1 0
    outer loop
      vertex 52.9682 -18.375 -5.80449
      vertex 52.6215 -18.375 -6.33232
      vertex 52.7666 -18.375 -6.13311
    endloop
  endfacet
  facet normal 0 -1 0
    outer loop
      vertex 53.3355 -18.375 -5.0223
      vertex 53.1989 -18.375 -5.35788
      vertex 53.256 -18.375 -5.23689
    endloop
  endfacet
  facet normal 0 -1 0
    outer loop
      vertex 53.5094 -18.375 -3.70781
      vertex 52.6215 -18.375 -6.33232
      vertex 53.5026 -18.375 -3.88646
    endloop
  endfacet
  facet normal 0 -1 0
    outer loop
      vertex 53.4726 -18.375 -4.44097
      vertex 53.4206 -18.375 -4.72991
      vertex 53.4411 -18.375 -4.65038
    endloop
  endfacet
  facet normal 0.211642 0.278059 0.936958
    outer loop
      vertex 48.5587 -1.63443 5.6506
      vertex 46.4303 -6.80785 7.66667
      vertex 49.7474 -2.15098 5.53539
    endloop
  endfacet
  facet normal 0.211653 0.278054 0.936957
    outer loop
      vertex 46.4303 -6.80785 7.66667
      vertex 48.5587 -1.63443 5.6506
      vertex 45.5979 -6.17423 7.66667
    endloop
  endfacet
  facet normal 0.186434 0.295956 0.936831
    outer loop
      vertex 49.7474 -2.15098 5.53539
      vertex 46.4303 -6.80785 7.66667
      vertex 47.0359 -7.18934 7.66667
    endloop
  endfacet
  facet normal 0.120571 0.334856 0.934523
    outer loop
      vertex 48.1757 -1.46803 5.64039
      vertex 45.3778 -6.11558 7.66667
      vertex 48.5587 -1.63443 5.6506
    endloop
  endfacet
  facet normal 0.120589 0.334846 0.934525
    outer loop
      vertex 45.3778 -6.11558 7.66667
      vertex 48.1757 -1.46803 5.64039
      vertex 45.0492 -5.99724 7.66667
    endloop
  endfacet
  facet normal 0.0938762 0.352296 0.931169
    outer loop
      vertex 48.5587 -1.63443 5.6506
      vertex 45.3778 -6.11558 7.66667
      vertex 45.5979 -6.17423 7.66667
    endloop
  endfacet
  facet normal 0.0435188 0.38201 0.923133
    outer loop
      vertex 47.9488 -1.36942 5.61028
      vertex 44.8969 -5.99105 7.66667
      vertex 48.1757 -1.46803 5.64039
    endloop
  endfacet
  facet normal 0.043525 0.382006 0.923134
    outer loop
      vertex 44.8969 -5.99105 7.66667
      vertex 47.9488 -1.36942 5.61028
      vertex 44.6709 -5.9653 7.66667
    endloop
  endfacet
  facet normal 0.0162157 0.398973 0.916819
    outer loop
      vertex 48.1757 -1.46803 5.64039
      vertex 44.8969 -5.99105 7.66667
      vertex 45.0492 -5.99724 7.66667
    endloop
  endfacet
  facet normal -0.0337884 0.427404 0.903429
    outer loop
      vertex 47.7331 -1.27569 5.55787
      vertex 44.5005 -5.98874 7.66667
      vertex 47.9488 -1.36942 5.61028
    endloop
  endfacet
  facet normal -0.0338127 0.427417 0.903422
    outer loop
      vertex 44.5005 -5.98874 7.66667
      vertex 47.7331 -1.27569 5.55787
      vertex 44.2535 -6.00828 7.66667
    endloop
  endfacet
  facet normal -0.061021 0.4436 0.894145
    outer loop
      vertex 47.9488 -1.36942 5.61028
      vertex 44.5005 -5.98874 7.66667
      vertex 44.6709 -5.9653 7.66667
    endloop
  endfacet
  facet normal -0.116 0.473597 0.873069
    outer loop
      vertex 47.5696 -1.20463 5.4976
      vertex 44.0987 -6.05342 7.66667
      vertex 47.7331 -1.27569 5.55787
    endloop
  endfacet
  facet normal -0.115955 0.473573 0.873088
    outer loop
      vertex 44.0987 -6.05342 7.66667
      vertex 47.5696 -1.20463 5.4976
      vertex 43.8831 -6.10621 7.66667
    endloop
  endfacet
  facet normal -0.142399 0.488334 0.86096
    outer loop
      vertex 47.7331 -1.27569 5.55787
      vertex 44.0987 -6.05342 7.66667
      vertex 44.2535 -6.00828 7.66667
    endloop
  endfacet
  facet normal -0.176353 0.505929 0.844355
    outer loop
      vertex 47.4911 -1.17051 5.46076
      vertex 43.7975 -6.13949 7.66667
      vertex 47.5696 -1.20463 5.4976
    endloop
  endfacet
  facet normal -0.176343 0.505923 0.844361
    outer loop
      vertex 43.7975 -6.13949 7.66667
      vertex 47.4911 -1.17051 5.46076
      vertex 43.6832 -6.17933 7.66667
    endloop
  endfacet
  facet normal -0.201904 0.519319 0.830387
    outer loop
      vertex 47.5696 -1.20463 5.4976
      vertex 43.7975 -6.13949 7.66667
      vertex 43.8831 -6.10621 7.66667
    endloop
  endfacet
  facet normal -0.229727 0.532818 0.814451
    outer loop
      vertex 47.3776 -1.12122 5.3965
      vertex 43.543 -6.24465 7.66667
      vertex 47.4911 -1.17051 5.46076
    endloop
  endfacet
  facet normal -0.229782 0.532844 0.814419
    outer loop
      vertex 43.543 -6.24465 7.66667
      vertex 47.3776 -1.12122 5.3965
      vertex 43.3618 -6.32279 7.66667
    endloop
  endfacet
  facet normal -0.253896 0.54495 0.799103
    outer loop
      vertex 47.4911 -1.17051 5.46076
      vertex 43.543 -6.24465 7.66667
      vertex 43.6832 -6.17933 7.66667
    endloop
  endfacet
  facet normal -0.291857 0.56097 0.774682
    outer loop
      vertex 46.8411 -0.888075 5.02555
      vertex 42.5138 -6.78675 7.66667
      vertex 47.3776 -1.12122 5.3965
    endloop
  endfacet
  facet normal -0.291835 0.560961 0.774697
    outer loop
      vertex 42.5138 -6.78675 7.66667
      vertex 46.8411 -0.888075 5.02555
      vertex 41.5262 -7.30054 7.66667
    endloop
  endfacet
  facet normal -0.313238 0.57252 0.757696
    outer loop
      vertex 47.3776 -1.12122 5.3965
      vertex 42.5138 -6.78675 7.66667
      vertex 43.3618 -6.32279 7.66667
    endloop
  endfacet
  facet normal -0.355755 0.59167 0.723439
    outer loop
      vertex 46.5925 -0.780025 4.81493
      vertex 40.9561 -7.65588 7.66667
      vertex 46.8411 -0.888075 5.02555
    endloop
  endfacet
  facet normal -0.355743 0.591665 0.72345
    outer loop
      vertex 40.9561 -7.65588 7.66667
      vertex 46.5925 -0.780025 4.81493
      vertex 40.4471 -7.96192 7.66667
    endloop
  endfacet
  facet normal -0.374777 0.601285 0.70569
    outer loop
      vertex 46.8411 -0.888075 5.02555
      vertex 40.9561 -7.65588 7.66667
      vertex 41.5262 -7.30054 7.66667
    endloop
  endfacet
  facet normal -0.413672 0.618484 0.668096
    outer loop
      vertex 46.4291 -0.709016 4.64802
      vertex 39.9541 -8.3006 7.66667
      vertex 46.5925 -0.780025 4.81493
    endloop
  endfacet
  facet normal -0.413712 0.618502 0.668056
    outer loop
      vertex 39.9541 -8.3006 7.66667
      vertex 46.4291 -0.709016 4.64802
      vertex 39.5783 -8.55197 7.66667
    endloop
  endfacet
  facet normal -0.430252 0.626297 0.650104
    outer loop
      vertex 46.5925 -0.780025 4.81493
      vertex 39.9541 -8.3006 7.66667
      vertex 40.4471 -7.96192 7.66667
    endloop
  endfacet
  facet normal -0.471316 0.643339 0.603304
    outer loop
      vertex 46.3116 -0.657958 4.50178
      vertex 39.1171 -8.89665 7.66667
      vertex 46.4291 -0.709016 4.64802
    endloop
  endfacet
  facet normal -0.471317 0.64334 0.603303
    outer loop
      vertex 39.1171 -8.89665 7.66667
      vertex 46.3116 -0.657958 4.50178
      vertex 38.8083 -9.12288 7.66667
    endloop
  endfacet
  facet normal -0.48523 0.649264 0.585669
    outer loop
      vertex 46.4291 -0.709016 4.64802
      vertex 39.1171 -8.89665 7.66667
      vertex 39.5783 -8.55197 7.66667
    endloop
  endfacet
  facet normal -0.542585 0.670366 0.506173
    outer loop
      vertex 46.1896 -0.604972 4.30083
      vertex 38.393 -9.45687 7.66667
      vertex 46.3116 -0.657958 4.50178
    endloop
  endfacet
  facet normal -0.542638 0.670383 0.506094
    outer loop
      vertex 38.393 -9.45687 7.66667
      vertex 46.1896 -0.604972 4.30083
      vertex 38.0023 -9.77312 7.66667
    endloop
  endfacet
  facet normal -0.537746 0.668661 0.513538
    outer loop
      vertex 46.3116 -0.657958 4.50178
      vertex 38.393 -9.45687 7.66667
      vertex 38.8083 -9.12288 7.66667
    endloop
  endfacet
  facet normal -0.578085 0.681169 0.44925
    outer loop
      vertex 46.1896 -0.604972 4.30083
      vertex 37.7362 -9.99895 7.66667
      vertex 38.0023 -9.77312 7.66667
    endloop
  endfacet
  facet normal -0.607271 0.68868 0.396159
    outer loop
      vertex 37.3646 -10.3298 7.66667
      vertex 37.3333 -10.3225 7.606
      vertex 37.3333 -10.3574 7.66667
    endloop
  endfacet
  facet normal -0.607641 0.688464 0.395968
    outer loop
      vertex 46.1444 -0.585315 4.19729
      vertex 37.3646 -10.3298 7.66667
      vertex 46.1896 -0.604972 4.30083
    endloop
  endfacet
  facet normal -0.607496 0.688432 0.396245
    outer loop
      vertex 37.3646 -10.3298 7.66667
      vertex 46.1444 -0.585315 4.19729
      vertex 37.3333 -10.3225 7.606
    endloop
  endfacet
  facet normal -0.614308 0.689971 0.38284
    outer loop
      vertex 46.1896 -0.604972 4.30083
      vertex 37.3646 -10.3298 7.66667
      vertex 37.7362 -9.99895 7.66667
    endloop
  endfacet
  facet normal -0.632587 0.689936 0.351884
    outer loop
      vertex 44.8873 -0.0390463 0.866325
      vertex 37.3333 -8.39349 3.66688
      vertex 46.1444 -0.585315 4.19729
    endloop
  endfacet
  facet normal -0.632588 0.689936 0.351882
    outer loop
      vertex 37.3333 -8.39349 3.66688
      vertex 44.8873 -0.0390463 0.866325
      vertex 37.3333 -7.23923 1.40372
    endloop
  endfacet
  facet normal -0.635162 0.69367 0.339694
    outer loop
      vertex 37.3333 -8.39349 3.66688
      vertex 37.3333 -10.3225 7.606
      vertex 46.1444 -0.585315 4.19729
    endloop
  endfacet
  facet normal -0.661155 0.711141 0.239066
    outer loop
      vertex 44.8141 -0.00722599 0.56923
      vertex 37.3333 -7.14953 1.12646
      vertex 44.8873 -0.0390463 0.866325
    endloop
  endfacet
  facet normal -0.661139 0.71113 0.239143
    outer loop
      vertex 37.3333 -7.14953 1.12646
      vertex 44.8141 -0.00722599 0.56923
      vertex 37.3333 -7.07899 0.916698
    endloop
  endfacet
  facet normal -0.662729 0.7125 0.23051
    outer loop
      vertex 37.3333 -7.14953 1.12646
      vertex 37.3333 -7.23923 1.40372
      vertex 44.8873 -0.0390463 0.866325
    endloop
  endfacet
  facet normal -0.678429 0.724007 0.12469
    outer loop
      vertex 44.7984 -0.000411034 0.444237
      vertex 37.3333 -7.06959 0.874037
      vertex 44.8141 -0.00722599 0.56923
    endloop
  endfacet
  facet normal -0.678433 0.724009 0.124662
    outer loop
      vertex 37.3333 -7.06959 0.874037
      vertex 44.7984 -0.000411034 0.444237
      vertex 37.3333 -7.05443 0.785991
    endloop
  endfacet
  facet normal -0.674325 0.721136 0.158896
    outer loop
      vertex 37.3333 -7.06959 0.874037
      vertex 37.3333 -7.07899 0.916698
      vertex 44.8141 -0.00722599 0.56923
    endloop
  endfacet
  facet normal -0.681269 0.725646 0.0964917
    outer loop
      vertex 37.3333 -7.04492 0.714473
      vertex 37.3333 -7.05443 0.785991
      vertex 44.7984 -0.000411034 0.444237
    endloop
  endfacet
  facet normal -0.686475 0.72707 -0.0110619
    outer loop
      vertex 44.8051 -0.00331306 -0.162289
      vertex 37.3333 -7.05297 0.163999
      vertex 44.7984 -0.000411034 0.444237
    endloop
  endfacet
  facet normal -0.686474 0.727071 -0.0110303
    outer loop
      vertex 37.3333 -7.05297 0.163999
      vertex 44.8051 -0.00331306 -0.162289
      vertex 37.3333 -7.05942 -0.261157
    endloop
  endfacet
  facet normal -0.686486 0.727065 -0.0106324
    outer loop
      vertex 44.7984 -0.000411034 0.444237
      vertex 37.3333 -7.05297 0.163999
      vertex 37.3333 -7.04492 0.714473
    endloop
  endfacet
  facet normal -0.684158 0.725754 -0.0721775
    outer loop
      vertex 44.8632 -0.0285616 -0.966886
      vertex 37.3333 -7.13001 -0.998288
      vertex 44.8051 -0.00331306 -0.162289
    endloop
  endfacet
  facet normal -0.684158 0.725754 -0.0721771
    outer loop
      vertex 37.3333 -7.13001 -0.998288
      vertex 44.8632 -0.0285616 -0.966886
      vertex 37.3333 -7.18622 -1.56349
    endloop
  endfacet
  facet normal -0.684447 0.725743 -0.0694994
    outer loop
      vertex 44.8051 -0.00331306 -0.162289
      vertex 37.3333 -7.13001 -0.998288
      vertex 37.3333 -7.05942 -0.261157
    endloop
  endfacet
  facet normal -0.678289 0.724336 -0.123539
    outer loop
      vertex 44.9611 -0.0710888 -1.75375
      vertex 37.3333 -7.30785 -2.30417
      vertex 44.8632 -0.0285616 -0.966886
    endloop
  endfacet
  facet normal -0.678292 0.724338 -0.123509
    outer loop
      vertex 37.3333 -7.30785 -2.30417
      vertex 44.9611 -0.0710888 -1.75375
      vertex 37.3333 -7.40251 -2.85932
    endloop
  endfacet
  facet normal -0.679106 0.724338 -0.118946
    outer loop
      vertex 44.8632 -0.0285616 -0.966886
      vertex 37.3333 -7.30785 -2.30417
      vertex 37.3333 -7.18622 -1.56349
    endloop
  endfacet
  facet normal -0.663042 0.720584 -0.202814
    outer loop
      vertex 44.994 -0.0854158 -1.91221
      vertex 37.3333 -7.44437 -3.0136
      vertex 44.9611 -0.0710888 -1.75375
    endloop
  endfacet
  facet normal -0.662987 0.720564 -0.203064
    outer loop
      vertex 37.3333 -7.44437 -3.0136
      vertex 44.994 -0.0854158 -1.91221
      vertex 37.3333 -7.47615 -3.12637
    endloop
  endfacet
  facet normal -0.664683 0.721056 -0.19564
    outer loop
      vertex 44.9611 -0.0710888 -1.75375
      vertex 37.3333 -7.44437 -3.0136
      vertex 37.3333 -7.40251 -2.85932
    endloop
  endfacet
  facet normal -0.641743 0.712224 -0.284433
    outer loop
      vertex 45.0583 -0.113353 -2.12724
      vertex 37.3333 -7.55893 -3.34178
      vertex 44.994 -0.0854158 -1.91221
    endloop
  endfacet
  facet normal -0.641761 0.712233 -0.28437
    outer loop
      vertex 37.3333 -7.55893 -3.34178
      vertex 45.0583 -0.113353 -2.12724
      vertex 37.3333 -7.6209 -3.49699
    endloop
  endfacet
  facet normal -0.644848 0.713444 -0.27417
    outer loop
      vertex 44.994 -0.0854158 -1.91221
      vertex 37.3333 -7.55893 -3.34178
      vertex 37.3333 -7.47615 -3.12637
    endloop
  endfacet
  facet normal -0.615514 0.70002 -0.362098
    outer loop
      vertex 45.1854 -0.168586 -2.45007
      vertex 37.3333 -7.78916 -3.835
      vertex 45.0583 -0.113353 -2.12724
    endloop
  endfacet
  facet normal -0.615513 0.70002 -0.3621
    outer loop
      vertex 37.3333 -7.78916 -3.835
      vertex 45.1854 -0.168586 -2.45007
      vertex 37.3333 -7.91165 -4.0718
    endloop
  endfacet
  facet normal -0.620381 0.702118 -0.349511
    outer loop
      vertex 45.0583 -0.113353 -2.12724
      vertex 37.3333 -7.78916 -3.835
      vertex 37.3333 -7.6209 -3.49699
    endloop
  endfacet
  facet normal -0.583453 0.684304 -0.437391
    outer loop
      vertex 45.399 -0.261395 -2.8802
      vertex 37.3333 -8.20891 -4.55505
      vertex 45.1854 -0.168586 -2.45007
    endloop
  endfacet
  facet normal -0.583459 0.684308 -0.437377
    outer loop
      vertex 37.3333 -8.20891 -4.55505
      vertex 45.399 -0.261395 -2.8802
      vertex 37.3333 -8.41434 -4.87646
    endloop
  endfacet
  facet normal -0.590515 0.68739 -0.422832
    outer loop
      vertex 45.1854 -0.168586 -2.45007
      vertex 37.3333 -8.20891 -4.55505
      vertex 37.3333 -7.91165 -4.0718
    endloop
  endfacet
  facet normal -0.545466 0.665662 -0.509275
    outer loop
      vertex 45.6805 -0.383733 -3.34161
      vertex 37.3333 -8.83648 -5.44962
      vertex 45.399 -0.261395 -2.8802
    endloop
  endfacet
  facet normal -0.545453 0.665655 -0.509298
    outer loop
      vertex 37.3333 -8.83648 -5.44962
      vertex 45.6805 -0.383733 -3.34161
      vertex 37.3333 -9.10563 -5.8014
    endloop
  endfacet
  facet normal -0.55496 0.669813 -0.493326
    outer loop
      vertex 45.399 -0.261395 -2.8802
      vertex 37.3333 -8.83648 -5.44962
      vertex 37.3333 -8.41434 -4.87646
    endloop
  endfacet
  facet normal -0.50532 0.645966 -0.57217
    outer loop
      vertex 45.8915 -0.475429 -3.63148
      vertex 37.3333 -9.44712 -6.20201
      vertex 45.6805 -0.383733 -3.34161
    endloop
  endfacet
  facet normal -0.505313 0.645963 -0.572181
    outer loop
      vertex 37.3333 -9.44712 -6.20201
      vertex 45.8915 -0.475429 -3.63148
      vertex 37.3333 -9.64658 -6.42719
    endloop
  endfacet
  facet normal -0.517025 0.651417 -0.555284
    outer loop
      vertex 45.6805 -0.383733 -3.34161
      vertex 37.3333 -9.44712 -6.20201
      vertex 37.3333 -9.10563 -5.8014
    endloop
  endfacet
  facet normal -0.456435 0.621226 -0.636982
    outer loop
      vertex 37.3333 -10.066 -6.85231
      vertex 46.1334 -0.580542 -3.90727
      vertex 37.3333 -10.2924 -7.07311
    endloop
  endfacet
  facet normal -0.456377 0.621194 -0.637054
    outer loop
      vertex 46.1334 -0.580542 -3.90727
      vertex 37.3333 -10.066 -6.85231
      vertex 45.8915 -0.475429 -3.63148
    endloop
  endfacet
  facet normal -0.470649 0.628092 -0.61967
    outer loop
      vertex 45.8915 -0.475429 -3.63148
      vertex 37.3333 -10.066 -6.85231
      vertex 37.3333 -9.64658 -6.42719
    endloop
  endfacet
  facet normal -0.402015 0.595262 -0.695735
    outer loop
      vertex 41.0724 -8.39248 -7.66667
      vertex 46.1334 -0.580542 -3.90727
      vertex 47.0509 -0.979219 -4.77853
    endloop
  endfacet
  facet normal -0.402016 0.595262 -0.695734
    outer loop
      vertex 46.1334 -0.580542 -3.90727
      vertex 41.0724 -8.39248 -7.66667
      vertex 39.3167 -9.57821 -7.66667
    endloop
  endfacet
  facet normal -0.42 0.601946 -0.679162
    outer loop
      vertex 37.3333 -10.2924 -7.07311
      vertex 39.3167 -9.57821 -7.66667
      vertex 37.3333 -10.9621 -7.66667
    endloop
  endfacet
  facet normal -0.420001 0.601958 -0.679151
    outer loop
      vertex 39.3167 -9.57821 -7.66667
      vertex 37.3333 -10.2924 -7.07311
      vertex 46.1334 -0.580542 -3.90727
    endloop
  endfacet
  facet normal -0.334453 0.565205 -0.754111
    outer loop
      vertex 42.5619 -7.48896 -7.66667
      vertex 47.0509 -0.979219 -4.77853
      vertex 47.428 -1.14308 -5.06859
    endloop
  endfacet
  facet normal -0.334489 0.565219 -0.754085
    outer loop
      vertex 47.0509 -0.979219 -4.77853
      vertex 42.5619 -7.48896 -7.66667
      vertex 41.8922 -7.88528 -7.66667
    endloop
  endfacet
  facet normal -0.355027 0.573839 -0.738014
    outer loop
      vertex 41.8922 -7.88528 -7.66667
      vertex 41.0724 -8.39248 -7.66667
      vertex 47.0509 -0.979219 -4.77853
    endloop
  endfacet
  facet normal -0.267988 0.534713 -0.801414
    outer loop
      vertex 43.3703 -7.07066 -7.66667
      vertex 47.428 -1.14308 -5.06859
      vertex 47.6799 -1.25256 -5.22587
    endloop
  endfacet
  facet normal -0.267996 0.534716 -0.801409
    outer loop
      vertex 47.428 -1.14308 -5.06859
      vertex 43.3703 -7.07066 -7.66667
      vertex 42.9682 -7.27219 -7.66667
    endloop
  endfacet
  facet normal -0.290729 0.544925 -0.786469
    outer loop
      vertex 42.9682 -7.27219 -7.66667
      vertex 42.5619 -7.48896 -7.66667
      vertex 47.428 -1.14308 -5.06859
    endloop
  endfacet
  facet normal -0.193393 0.498625 -0.844969
    outer loop
      vertex 43.9267 -6.84443 -7.66667
      vertex 47.6799 -1.25256 -5.22587
      vertex 47.8861 -1.34218 -5.32595
    endloop
  endfacet
  facet normal -0.193421 0.498637 -0.844955
    outer loop
      vertex 47.6799 -1.25256 -5.22587
      vertex 43.9267 -6.84443 -7.66667
      vertex 43.635 -6.95758 -7.66667
    endloop
  endfacet
  facet normal -0.218078 0.510481 -0.831776
    outer loop
      vertex 43.635 -6.95758 -7.66667
      vertex 43.3703 -7.07066 -7.66667
      vertex 47.6799 -1.25256 -5.22587
    endloop
  endfacet
  facet normal -0.129514 0.465907 -0.875304
    outer loop
      vertex 44.1187 -6.78698 -7.66667
      vertex 47.8861 -1.34218 -5.32595
      vertex 47.967 -1.37733 -5.35663
    endloop
  endfacet
  facet normal -0.129583 0.465943 -0.875275
    outer loop
      vertex 47.8861 -1.34218 -5.32595
      vertex 44.1187 -6.78698 -7.66667
      vertex 44.015 -6.81582 -7.66667
    endloop
  endfacet
  facet normal -0.155273 0.479225 -0.863848
    outer loop
      vertex 44.015 -6.81582 -7.66667
      vertex 43.9267 -6.84443 -7.66667
      vertex 47.8861 -1.34218 -5.32595
    endloop
  endfacet
  facet normal -0.0728594 0.435474 -0.897248
    outer loop
      vertex 44.3732 -6.73821 -7.66667
      vertex 47.967 -1.37733 -5.35663
      vertex 48.086 -1.42906 -5.3914
    endloop
  endfacet
  facet normal -0.0728269 0.435456 -0.897259
    outer loop
      vertex 47.967 -1.37733 -5.35663
      vertex 44.3732 -6.73821 -7.66667
      vertex 44.2343 -6.76144 -7.66667
    endloop
  endfacet
  facet normal -0.099358 0.449717 -0.887627
    outer loop
      vertex 44.2343 -6.76144 -7.66667
      vertex 44.1187 -6.78698 -7.66667
      vertex 47.967 -1.37733 -5.35663
    endloop
  endfacet
  facet normal -0.0199522 0.409182 -0.912234
    outer loop
      vertex 46.3029 -6.58851 -7.66667
      vertex 48.086 -1.42906 -5.3914
      vertex 49.1185 -1.8777 -5.61522
    endloop
  endfacet
  facet normal -0.0199524 0.409183 -0.912234
    outer loop
      vertex 48.086 -1.42906 -5.3914
      vertex 46.3029 -6.58851 -7.66667
      vertex 45.2248 -6.64108 -7.66667
    endloop
  endfacet
  facet normal -0.0480949 0.421678 -0.905469
    outer loop
      vertex 45.2248 -6.64108 -7.66667
      vertex 44.3732 -6.73821 -7.66667
      vertex 48.086 -1.42906 -5.3914
    endloop
  endfacet
  facet normal 0.0742611 0.36187 -0.929266
    outer loop
      vertex 46.9142 -6.69338 -7.66667
      vertex 49.1185 -1.8777 -5.61522
      vertex 49.5146 -2.04984 -5.6506
    endloop
  endfacet
  facet normal 0.074239 0.361879 -0.929264
    outer loop
      vertex 49.1185 -1.8777 -5.61522
      vertex 46.9142 -6.69338 -7.66667
      vertex 46.551 -6.61887 -7.66667
    endloop
  endfacet
  facet normal 0.0459646 0.37562 -0.925633
    outer loop
      vertex 46.551 -6.61887 -7.66667
      vertex 46.3029 -6.58851 -7.66667
      vertex 49.1185 -1.8777 -5.61522
    endloop
  endfacet
  facet normal 0.145627 0.32604 -0.934072
    outer loop
      vertex 47.6354 -6.98632 -7.66667
      vertex 49.5146 -2.04984 -5.6506
      vertex 50.041 -2.27857 -5.64837
    endloop
  endfacet
  facet normal 0.145662 0.326027 -0.934071
    outer loop
      vertex 49.5146 -2.04984 -5.6506
      vertex 47.6354 -6.98632 -7.66667
      vertex 47.2036 -6.7934 -7.66667
    endloop
  endfacet
  facet normal 0.117331 0.339487 -0.933264
    outer loop
      vertex 47.2036 -6.7934 -7.66667
      vertex 46.9142 -6.69338 -7.66667
      vertex 49.5146 -2.04984 -5.6506
    endloop
  endfacet
  facet normal 0.209477 0.297094 -0.931587
    outer loop
      vertex 48.2687 -7.35765 -7.66667
      vertex 51.276 -2.81524 -5.54182
      vertex 49.1951 -8.01084 -7.66667
    endloop
  endfacet
  facet normal 0.209476 0.297095 -0.931587
    outer loop
      vertex 51.276 -2.81524 -5.54182
      vertex 48.2687 -7.35765 -7.66667
      vertex 50.041 -2.27857 -5.64837
    endloop
  endfacet
  facet normal 0.180664 0.308121 -0.934035
    outer loop
      vertex 48.2687 -7.35765 -7.66667
      vertex 47.6354 -6.98632 -7.66667
      vertex 50.041 -2.27857 -5.64837
    endloop
  endfacet
  facet normal 0.288586 0.262897 -0.920654
    outer loop
      vertex 49.4573 -8.25993 -7.66667
      vertex 51.7994 -3.04271 -5.44272
      vertex 49.8078 -8.64468 -7.66667
    endloop
  endfacet
  facet normal 0.288574 0.262903 -0.920656
    outer loop
      vertex 51.7994 -3.04271 -5.44272
      vertex 49.4573 -8.25993 -7.66667
      vertex 51.276 -2.81524 -5.54182
    endloop
  endfacet
  facet normal 0.260528 0.27424 -0.925699
    outer loop
      vertex 49.4573 -8.25993 -7.66667
      vertex 49.1951 -8.01084 -7.66667
      vertex 51.276 -2.81524 -5.54182
    endloop
  endfacet
  facet normal 0.369975 0.227264 -0.900816
    outer loop
      vertex 49.9607 -8.86451 -7.66667
      vertex 52.1172 -3.18081 -5.34705
      vertex 50.1485 -9.17024 -7.66667
    endloop
  endfacet
  facet normal 0.369946 0.227278 -0.900824
    outer loop
      vertex 52.1172 -3.18081 -5.34705
      vertex 49.9607 -8.86451 -7.66667
      vertex 51.7994 -3.04271 -5.44272
    endloop
  endfacet
  facet normal 0.343134 0.238663 -0.90846
    outer loop
      vertex 49.9607 -8.86451 -7.66667
      vertex 49.8078 -8.64468 -7.66667
      vertex 51.7994 -3.04271 -5.44272
    endloop
  endfacet
  facet normal 0.449656 0.190714 -0.872604
    outer loop
      vertex 50.2189 -9.31821 -7.66667
      vertex 52.274 -3.24892 -5.28118
      vertex 50.2989 -9.50683 -7.66667
    endloop
  endfacet
  facet normal 0.449481 0.190801 -0.872675
    outer loop
      vertex 52.274 -3.24892 -5.28118
      vertex 50.2189 -9.31821 -7.66667
      vertex 52.1172 -3.18081 -5.34705
    endloop
  endfacet
  facet normal 0.424817 0.202116 -0.882428
    outer loop
      vertex 50.2189 -9.31821 -7.66667
      vertex 50.1485 -9.17024 -7.66667
      vertex 52.1172 -3.18081 -5.34705
    endloop
  endfacet
  facet normal 0.517241 0.157774 -0.841171
    outer loop
      vertex 50.3411 -9.63057 -7.66667
      vertex 52.3775 -3.2939 -5.22594
      vertex 50.3864 -9.77908 -7.66667
    endloop
  endfacet
  facet normal 0.517425 0.157679 -0.841076
    outer loop
      vertex 52.3775 -3.2939 -5.22594
      vertex 50.3411 -9.63057 -7.66667
      vertex 52.274 -3.24892 -5.28118
    endloop
  endfacet
  facet normal 0.494849 0.168762 -0.852434
    outer loop
      vertex 50.3411 -9.63057 -7.66667
      vertex 50.2989 -9.50683 -7.66667
      vertex 52.274 -3.24892 -5.28118
    endloop
  endfacet
  facet normal 0.602205 0.112953 -0.790311
    outer loop
      vertex 50.4253 -9.96324 -7.66667
      vertex 52.4945 -3.34475 -5.14404
      vertex 50.4644 -10.1717 -7.66667
    endloop
  endfacet
  facet normal 0.602265 0.112919 -0.79027
    outer loop
      vertex 52.4945 -3.34475 -5.14404
      vertex 50.4253 -9.96324 -7.66667
      vertex 52.3775 -3.2939 -5.22594
    endloop
  endfacet
  facet normal 0.583129 0.123174 -0.802987
    outer loop
      vertex 50.4253 -9.96324 -7.66667
      vertex 50.3864 -9.77908 -7.66667
      vertex 52.3775 -3.2939 -5.22594
    endloop
  endfacet
  facet normal 0.666269 0.0809495 -0.741305
    outer loop
      vertex 51.069 -14.7135 -7.66667
      vertex 53.9788 -3.98977 -3.88039
      vertex 51.47 -18.014 -7.66667
    endloop
  endfacet
  facet normal 0.666276 0.0809452 -0.741299
    outer loop
      vertex 53.9788 -3.98977 -3.88039
      vertex 51.069 -14.7135 -7.66667
      vertex 52.4945 -3.34475 -5.14404
    endloop
  endfacet
  facet normal 0.648889 0.0863795 -0.755964
    outer loop
      vertex 51.069 -14.7135 -7.66667
      vertex 50.4644 -10.1717 -7.66667
      vertex 52.4945 -3.34475 -5.14404
    endloop
  endfacet
  facet normal 0.749742 0.0453495 -0.660175
    outer loop
      vertex 52.2056 -18.375 -6.88233
      vertex 53.9788 -3.98977 -3.88039
      vertex 54.3478 -4.15009 -3.47234
    endloop
  endfacet
  facet normal 0.749819 0.045322 -0.660089
    outer loop
      vertex 53.9788 -3.98977 -3.88039
      vertex 52.2056 -18.375 -6.88233
      vertex 52.0033 -18.375 -7.11213
    endloop
  endfacet
  facet normal 0.736094 0.0505544 -0.674989
    outer loop
      vertex 52.0033 -18.375 -7.11213
      vertex 51.47 -18.014 -7.66667
      vertex 53.9788 -3.98977 -3.88039
    endloop
  endfacet
  facet normal 0.736098 0.0505685 -0.674984
    outer loop
      vertex 51.47 -18.014 -7.66667
      vertex 52.0033 -18.375 -7.11213
      vertex 51.4948 -18.375 -7.66667
    endloop
  endfacet
  facet normal 0.808291 0.0202197 -0.588436
    outer loop
      vertex 52.7666 -18.375 -6.13311
      vertex 54.3478 -4.15009 -3.47234
      vertex 54.6107 -4.26435 -3.11514
    endloop
  endfacet
  facet normal 0.808145 0.020273 -0.588634
    outer loop
      vertex 54.3478 -4.15009 -3.47234
      vertex 52.7666 -18.375 -6.13311
      vertex 52.6215 -18.375 -6.33232
    endloop
  endfacet
  facet normal 0.797394 0.0244587 -0.602964
    outer loop
      vertex 52.6215 -18.375 -6.33232
      vertex 52.2056 -18.375 -6.88233
      vertex 54.3478 -4.15009 -3.47234
    endloop
  endfacet
  facet normal 0.860482 -0.00305918 -0.509472
    outer loop
      vertex 53.0399 -18.375 -5.68344
      vertex 54.6107 -4.26435 -3.11514
      vertex 54.7401 -4.32059 -2.89625
    endloop
  endfacet
  facet normal 0.860391 -0.00302139 -0.509625
    outer loop
      vertex 54.6107 -4.26435 -3.11514
      vertex 53.0399 -18.375 -5.68344
      vertex 52.9682 -18.375 -5.80449
    endloop
  endfacet
  facet normal 0.852384 0.000443855 -0.522916
    outer loop
      vertex 52.9682 -18.375 -5.80449
      vertex 52.7666 -18.375 -6.13311
      vertex 54.6107 -4.26435 -3.11514
    endloop
  endfacet
  facet normal 0.903915 -0.0243343 -0.427019
    outer loop
      vertex 53.256 -18.375 -5.23689
      vertex 54.7401 -4.32059 -2.89625
      vertex 54.8431 -4.36532 -2.67567
    endloop
  endfacet
  facet normal 0.904078 -0.0244094 -0.42667
    outer loop
      vertex 54.7401 -4.32059 -2.89625
      vertex 53.256 -18.375 -5.23689
      vertex 53.1989 -18.375 -5.35788
    endloop
  endfacet
  facet normal 0.898351 -0.0216666 -0.438745
    outer loop
      vertex 53.1989 -18.375 -5.35788
      vertex 53.0399 -18.375 -5.68344
      vertex 54.7401 -4.32059 -2.89625
    endloop
  endfacet
  facet normal 0.940279 -0.0446585 -0.337463
    outer loop
      vertex 53.3643 -18.375 -4.94209
      vertex 54.8431 -4.36532 -2.67567
      vertex 54.8949 -4.38783 -2.52836
    endloop
  endfacet
  facet normal 0.940232 -0.0446318 -0.337597
    outer loop
      vertex 54.8431 -4.36532 -2.67567
      vertex 53.3643 -18.375 -4.94209
      vertex 53.3355 -18.375 -5.0223
    endloop
  endfacet
  facet normal 0.936863 -0.0426804 -0.347083
    outer loop
      vertex 53.3355 -18.375 -5.0223
      vertex 53.256 -18.375 -5.23689
      vertex 54.8431 -4.36532 -2.67567
    endloop
  endfacet
  facet normal 0.966534 -0.0627206 -0.248755
    outer loop
      vertex 53.4411 -18.375 -4.65038
      vertex 54.8949 -4.38783 -2.52836
      vertex 54.9317 -4.40383 -2.38134
    endloop
  endfacet
  facet normal 0.966445 -0.0626567 -0.249115
    outer loop
      vertex 54.8949 -4.38783 -2.52836
      vertex 53.4411 -18.375 -4.65038
      vertex 53.4206 -18.375 -4.72991
    endloop
  endfacet
  facet normal 0.96473 -0.0613951 -0.255982
    outer loop
      vertex 53.4206 -18.375 -4.72991
      vertex 53.3643 -18.375 -4.94209
      vertex 54.8949 -4.38783 -2.52836
    endloop
  endfacet
  facet normal 0.986212 -0.0817857 -0.143864
    outer loop
      vertex 53.4841 -18.375 -4.36237
      vertex 54.9317 -4.40383 -2.38134
      vertex 54.9523 -4.41279 -2.23503
    endloop
  endfacet
  facet normal 0.986156 -0.0817202 -0.144285
    outer loop
      vertex 54.9317 -4.40383 -2.38134
      vertex 53.4841 -18.375 -4.36237
      vertex 53.4726 -18.375 -4.44097
    endloop
  endfacet
  facet normal 0.985619 -0.0810782 -0.148259
    outer loop
      vertex 53.4726 -18.375 -4.44097
      vertex 53.4411 -18.375 -4.65038
      vertex 54.9317 -4.40383 -2.38134
    endloop
  endfacet
  facet normal 0.994392 -0.0987769 -0.0377953
    outer loop
      vertex 53.5094 -18.375 -3.70781
      vertex 54.9523 -4.41279 -2.23503
      vertex 54.9645 -4.41807 -1.90025
    endloop
  endfacet
  facet normal 0.99439 -0.098771 -0.0378497
    outer loop
      vertex 54.9523 -4.41279 -2.23503
      vertex 53.5094 -18.375 -3.70781
      vertex 53.5026 -18.375 -3.88646
    endloop
  endfacet
  facet normal 0.994369 -0.0986736 -0.038654
    outer loop
      vertex 53.5026 -18.375 -3.88646
      vertex 53.4841 -18.375 -4.36237
      vertex 54.9523 -4.41279 -2.23503
    endloop
  endfacet
  facet normal 0.992584 -0.11025 0.0512146
    outer loop
      vertex 53.4068 -18.375 -1.7558
      vertex 54.9645 -4.41807 -1.90025
      vertex 54.9152 -4.39668 -0.898727
    endloop
  endfacet
  facet normal 0.992588 -0.110251 0.0511278
    outer loop
      vertex 54.9645 -4.41807 -1.90025
      vertex 53.4068 -18.375 -1.7558
      vertex 53.4342 -18.375 -2.28774
    endloop
  endfacet
  facet normal 0.99251 -0.110282 0.0525585
    outer loop
      vertex 54.9645 -4.41807 -1.90025
      vertex 53.4342 -18.375 -2.28774
      vertex 53.5094 -18.375 -3.70781
    endloop
  endfacet
  facet normal 0.984563 -0.115129 0.131839
    outer loop
      vertex 52.9647 -18.375 1.46021
      vertex 54.6291 -4.27235 1.34579
      vertex 52.8056 -18.375 2.64836
    endloop
  endfacet
  facet normal 0.984558 -0.115128 0.131875
    outer loop
      vertex 54.6291 -4.27235 1.34579
      vertex 52.9647 -18.375 1.46021
      vertex 54.9152 -4.39668 -0.898727
    endloop
  endfacet
  facet normal 0.984168 -0.114497 0.135292
    outer loop
      vertex 54.9152 -4.39668 -0.898727
      vertex 52.9647 -18.375 1.46021
      vertex 53.4068 -18.375 -1.7558
    endloop
  endfacet
  facet normal 0.972677 -0.107487 0.205779
    outer loop
      vertex 52.3985 -18.375 4.52296
      vertex 54.371 -4.1602 2.62432
      vertex 52.2556 -18.375 5.19842
    endloop
  endfacet
  facet normal 0.972676 -0.107486 0.205785
    outer loop
      vertex 54.371 -4.1602 2.62432
      vertex 52.3985 -18.375 4.52296
      vertex 54.6291 -4.27235 1.34579
    endloop
  endfacet
  facet normal 0.971701 -0.106152 0.211021
    outer loop
      vertex 54.6291 -4.27235 1.34579
      vertex 52.3985 -18.375 4.52296
      vertex 52.8056 -18.375 2.64836
    endloop
  endfacet
  facet normal 0.946941 -0.0846747 0.310054
    outer loop
      vertex 52.0952 -18.375 5.69283
      vertex 54.252 -4.10849 3.00185
      vertex 52.0296 -18.375 5.89318
    endloop
  endfacet
  facet normal 0.946934 -0.0846693 0.310077
    outer loop
      vertex 54.252 -4.10849 3.00185
      vertex 52.0952 -18.375 5.69283
      vertex 54.371 -4.1602 2.62432
    endloop
  endfacet
  facet normal 0.947723 -0.085359 0.307467
    outer loop
      vertex 54.371 -4.1602 2.62432
      vertex 52.0952 -18.375 5.69283
      vertex 52.2556 -18.375 5.19842
    endloop
  endfacet
  facet normal 0.918695 -0.0641279 0.389726
    outer loop
      vertex 54.252 -4.10849 3.00185
      vertex 51.9994 -18.375 5.96437
      vertex 52.0296 -18.375 5.89318
    endloop
  endfacet
  facet normal 0.873201 -0.0366975 0.485977
    outer loop
      vertex 51.9417 -18.375 6.07568
      vertex 54.1953 -4.08382 3.10559
      vertex 51.9105 -18.375 6.13174
    endloop
  endfacet
  facet normal 0.873199 -0.0366963 0.485981
    outer loop
      vertex 54.1953 -4.08382 3.10559
      vertex 51.9417 -18.375 6.07568
      vertex 54.252 -4.10849 3.00185
    endloop
  endfacet
  facet normal 0.886925 -0.0445693 0.459757
    outer loop
      vertex 54.252 -4.10849 3.00185
      vertex 51.9417 -18.375 6.07568
      vertex 51.9994 -18.375 5.96437
    endloop
  endfacet
  facet normal 0.815954 -0.00804659 0.57806
    outer loop
      vertex 54.1953 -4.08382 3.10559
      vertex 51.8767 -18.375 6.17945
      vertex 51.9105 -18.375 6.13174
    endloop
  endfacet
  facet normal 0.741859 0.0237787 0.670134
    outer loop
      vertex 54.1953 -4.08382 3.10559
      vertex 51.7757 -18.375 6.29126
      vertex 51.8767 -18.375 6.17945
    endloop
  endfacet
  facet normal 0.705607 0.0370979 0.707631
    outer loop
      vertex 51.4336 -18.375 6.60861
      vertex 54.1953 -4.08382 3.10559
      vertex 53.9917 -3.99536 3.30397
    endloop
  endfacet
  facet normal 0.705575 0.0371115 0.707662
    outer loop
      vertex 54.1953 -4.08382 3.10559
      vertex 51.4336 -18.375 6.60861
      vertex 51.5455 -18.375 6.49704
    endloop
  endfacet
  facet normal 0.665509 0.0532789 0.744486
    outer loop
      vertex 54.1953 -4.08382 3.10559
      vertex 51.5455 -18.375 6.49704
      vertex 51.7757 -18.375 6.29126
    endloop
  endfacet
  facet normal 0.612123 0.0707999 0.787586
    outer loop
      vertex 53.5637 -3.80939 3.6199
      vertex 50.7206 -18.375 7.13897
      vertex 53.9917 -3.99536 3.30397
    endloop
  endfacet
  facet normal 0.612047 0.0708286 0.787643
    outer loop
      vertex 50.7206 -18.375 7.13897
      vertex 53.5637 -3.80939 3.6199
      vertex 50.4865 -18.375 7.32088
    endloop
  endfacet
  facet normal 0.595016 0.0779813 0.799922
    outer loop
      vertex 53.9917 -3.99536 3.30397
      vertex 50.7206 -18.375 7.13897
      vertex 51.4336 -18.375 6.60861
    endloop
  endfacet
  facet normal 0.54432 0.0924192 0.833771
    outer loop
      vertex 48.8945 -12.8177 7.66667
      vertex 53.5637 -3.80939 3.6199
      vertex 52.089 -3.16854 4.51161
    endloop
  endfacet
  facet normal 0.544332 0.0924102 0.833765
    outer loop
      vertex 53.5637 -3.80939 3.6199
      vertex 48.8945 -12.8177 7.66667
      vertex 49.2366 -14.8328 7.66667
    endloop
  endfacet
  facet normal 0.526231 0.10329 0.844045
    outer loop
      vertex 49.2366 -14.8328 7.66667
      vertex 50.4865 -18.375 7.32088
      vertex 53.5637 -3.80939 3.6199
    endloop
  endfacet
  facet normal 0.52625 0.103298 0.844033
    outer loop
      vertex 50.4865 -18.375 7.32088
      vertex 49.2366 -14.8328 7.66667
      vertex 49.9319 -18.375 7.66667
    endloop
  endfacet
  facet normal 0.484046 0.118671 0.866958
    outer loop
      vertex 47.7959 -8.70693 7.66667
      vertex 52.089 -3.16854 4.51161
      vertex 50.6242 -2.53202 5.24232
    endloop
  endfacet
  facet normal 0.484042 0.118675 0.86696
    outer loop
      vertex 52.089 -3.16854 4.51161
      vertex 47.7959 -8.70693 7.66667
      vertex 48.2388 -10.5134 7.66667
    endloop
  endfacet
  facet normal 0.464953 0.132305 0.875394
    outer loop
      vertex 52.089 -3.16854 4.51161
      vertex 48.2388 -10.5134 7.66667
      vertex 48.8945 -12.8177 7.66667
    endloop
  endfacet
  facet normal 0.416422 0.158915 0.895175
    outer loop
      vertex 47.3647 -7.64728 7.66667
      vertex 50.6242 -2.53202 5.24232
      vertex 50.0801 -2.29556 5.45345
    endloop
  endfacet
  facet normal 0.416403 0.15893 0.895181
    outer loop
      vertex 50.6242 -2.53202 5.24232
      vertex 47.3647 -7.64728 7.66667
      vertex 47.5887 -8.23417 7.66667
    endloop
  endfacet
  facet normal 0.395166 0.173192 0.902136
    outer loop
      vertex 50.6242 -2.53202 5.24232
      vertex 47.5887 -8.23417 7.66667
      vertex 47.7959 -8.70693 7.66667
    endloop
  endfacet
  facet normal 0.357315 0.195855 0.913218
    outer loop
      vertex 47.2302 -7.41586 7.66667
      vertex 50.0801 -2.29556 5.45345
      vertex 49.9317 -2.2311 5.49769
    endloop
  endfacet
  facet normal 0.357343 0.195837 0.913211
    outer loop
      vertex 50.0801 -2.29556 5.45345
      vertex 47.2302 -7.41586 7.66667
      vertex 47.3051 -7.55253 7.66667
    endloop
  endfacet
  facet normal 0.334324 0.210298 0.918696
    outer loop
      vertex 50.0801 -2.29556 5.45345
      vertex 47.3051 -7.55253 7.66667
      vertex 47.3647 -7.64728 7.66667
    endloop
  endfacet
  facet normal 0.291857 0.23511 0.927115
    outer loop
      vertex 47.0359 -7.18934 7.66667
      vertex 49.9317 -2.2311 5.49769
      vertex 49.7474 -2.15098 5.53539
    endloop
  endfacet
  facet normal 0.291812 0.23514 0.927122
    outer loop
      vertex 49.9317 -2.2311 5.49769
      vertex 47.0359 -7.18934 7.66667
      vertex 47.1461 -7.3261 7.66667
    endloop
  endfacet
  facet normal 0.267028 0.25019 0.930645
    outer loop
      vertex 49.9317 -2.2311 5.49769
      vertex 47.1461 -7.3261 7.66667
      vertex 47.2302 -7.41586 7.66667
    endloop
  endfacet
  facet normal 0.398513 0.917163 0.00014348
    outer loop
      vertex 52.3775 -3.2939 -5.22594
      vertex 52.274 -3.24892 -5.28118
      vertex 52.4945 -3.34475 -5.14404
    endloop
  endfacet
  facet normal 0.398045 0.917365 0.00103695
    outer loop
      vertex 52.274 -3.24892 -5.28118
      vertex 52.1172 -3.18081 -5.34705
      vertex 52.4945 -3.34475 -5.14404
    endloop
  endfacet
  facet normal 0.398588 0.91713 -0.000161287
    outer loop
      vertex 52.1172 -3.18081 -5.34705
      vertex 51.7994 -3.04271 -5.44272
      vertex 52.4945 -3.34475 -5.14404
    endloop
  endfacet
  facet normal 0.39863 0.917112 -0.000279618
    outer loop
      vertex 51.7994 -3.04271 -5.44272
      vertex 51.276 -2.81524 -5.54182
      vertex 52.4945 -3.34475 -5.14404
    endloop
  endfacet
  facet normal 0.398522 0.917159 -5.60976e-05
    outer loop
      vertex 49.5146 -2.04984 -5.6506
      vertex 46.1334 -0.580542 -3.90727
      vertex 50.041 -2.27857 -5.64837
    endloop
  endfacet
  facet normal 0.398582 0.917133 8.16562e-05
    outer loop
      vertex 49.1185 -1.8777 -5.61522
      vertex 46.1334 -0.580542 -3.90727
      vertex 49.5146 -2.04984 -5.6506
    endloop
  endfacet
  facet normal 0.398491 0.917172 -0.00016822
    outer loop
      vertex 48.086 -1.42906 -5.3914
      vertex 47.0509 -0.979219 -4.77853
      vertex 49.1185 -1.8777 -5.61522
    endloop
  endfacet
  facet normal 0.398564 0.91714 4.59143e-05
    outer loop
      vertex 47.0509 -0.979219 -4.77853
      vertex 46.1334 -0.580542 -3.90727
      vertex 49.1185 -1.8777 -5.61522
    endloop
  endfacet
  facet normal 0.399232 0.916847 0.00230517
    outer loop
      vertex 47.967 -1.37733 -5.35663
      vertex 47.8861 -1.34218 -5.32595
      vertex 48.086 -1.42906 -5.3914
    endloop
  endfacet
  facet normal 0.398584 0.917132 -5.38147e-05
    outer loop
      vertex 47.8861 -1.34218 -5.32595
      vertex 47.6799 -1.25256 -5.22587
      vertex 48.086 -1.42906 -5.3914
    endloop
  endfacet
  facet normal 0.39861 0.917121 2.15896e-05
    outer loop
      vertex 47.6799 -1.25256 -5.22587
      vertex 47.428 -1.14308 -5.06859
      vertex 48.086 -1.42906 -5.3914
    endloop
  endfacet
  facet normal 0.398724 0.917071 0.000298757
    outer loop
      vertex 47.428 -1.14308 -5.06859
      vertex 47.0509 -0.979219 -4.77853
      vertex 48.086 -1.42906 -5.3914
    endloop
  endfacet
  facet normal 0.398353 0.917232 -0.000186048
    outer loop
      vertex 45.8915 -0.475429 -3.63148
      vertex 45.6805 -0.383733 -3.34161
      vertex 46.1334 -0.580542 -3.90727
    endloop
  endfacet
  facet normal 0.398541 0.917151 -7.67489e-06
    outer loop
      vertex 45.6805 -0.383733 -3.34161
      vertex 44.8632 -0.0285616 -0.966886
      vertex 46.1334 -0.580542 -3.90727
    endloop
  endfacet
  facet normal 0.398607 0.917122 1.91948e-05
    outer loop
      vertex 45.399 -0.261395 -2.8802
      vertex 44.8632 -0.0285616 -0.966886
      vertex 45.6805 -0.383733 -3.34161
    endloop
  endfacet
  facet normal 0.398175 0.917309 -0.000178555
    outer loop
      vertex 45.0583 -0.113353 -2.12724
      vertex 44.9611 -0.0710888 -1.75375
      vertex 45.1854 -0.168586 -2.45007
    endloop
  endfacet
  facet normal 0.396759 0.917923 -0.000616632
    outer loop
      vertex 44.994 -0.0854158 -1.91221
      vertex 44.9611 -0.0710888 -1.75375
      vertex 45.0583 -0.113353 -2.12724
    endloop
  endfacet
  facet normal 0.398524 0.917158 1.3999e-05
    outer loop
      vertex 44.8051 -0.00331306 -0.162289
      vertex 44.7984 -0.000411034 0.444237
      vertex 44.8873 -0.0390463 0.866325
    endloop
  endfacet
  facet normal 0.39917 0.916877 -0.000148023
    outer loop
      vertex 44.8873 -0.0390463 0.866325
      vertex 44.7984 -0.000411034 0.444237
      vertex 44.8141 -0.00722599 0.56923
    endloop
  endfacet
  facet normal 0.398942 0.916976 -0.00110692
    outer loop
      vertex 47.7331 -1.27569 5.55787
      vertex 47.3776 -1.12122 5.3965
      vertex 47.5696 -1.20463 5.4976
    endloop
  endfacet
  facet normal 0.400027 0.916496 -0.00356268
    outer loop
      vertex 47.5696 -1.20463 5.4976
      vertex 47.3776 -1.12122 5.3965
      vertex 47.4911 -1.17051 5.46076
    endloop
  endfacet
  facet normal 0.398559 0.917143 -0.000104099
    outer loop
      vertex 47.9488 -1.36942 5.61028
      vertex 47.3776 -1.12122 5.3965
      vertex 47.7331 -1.27569 5.55787
    endloop
  endfacet
  facet normal 0.398614 0.917119 -0.000276883
    outer loop
      vertex 48.1757 -1.46803 5.64039
      vertex 47.3776 -1.12122 5.3965
      vertex 47.9488 -1.36942 5.61028
    endloop
  endfacet
  facet normal 0.398475 0.917179 0.00026237
    outer loop
      vertex 48.5587 -1.63443 5.6506
      vertex 47.3776 -1.12122 5.3965
      vertex 48.1757 -1.46803 5.64039
    endloop
  endfacet
  facet normal 0.398506 0.917166 9.23671e-05
    outer loop
      vertex 48.5587 -1.63443 5.6506
      vertex 46.8411 -0.888075 5.02555
      vertex 47.3776 -1.12122 5.3965
    endloop
  endfacet
  facet normal 0.398546 0.917148 -1.08211e-05
    outer loop
      vertex 49.7474 -2.15098 5.53539
      vertex 46.1444 -0.585315 4.19729
      vertex 48.5587 -1.63443 5.6506
    endloop
  endfacet
  facet normal 0.398524 0.917158 3.25626e-05
    outer loop
      vertex 48.5587 -1.63443 5.6506
      vertex 46.1444 -0.585315 4.19729
      vertex 46.8411 -0.888075 5.02555
    endloop
  endfacet
  facet normal 0.399286 0.91682 0.00352216
    outer loop
      vertex 50.0801 -2.29556 5.45345
      vertex 49.7474 -2.15098 5.53539
      vertex 49.9317 -2.2311 5.49769
    endloop
  endfacet
  facet normal 0.398527 0.917157 -0.00015241
    outer loop
      vertex 50.6242 -2.53202 5.24232
      vertex 49.7474 -2.15098 5.53539
      vertex 50.0801 -2.29556 5.45345
    endloop
  endfacet
  facet normal 0.39722 0.917723 0.000824077
    outer loop
      vertex 46.3116 -0.657958 4.50178
      vertex 46.1444 -0.585315 4.19729
      vertex 46.1896 -0.604972 4.30083
    endloop
  endfacet
  facet normal 0.39865 0.917103 -0.000108915
    outer loop
      vertex 46.4291 -0.709016 4.64802
      vertex 46.1444 -0.585315 4.19729
      vertex 46.3116 -0.657958 4.50178
    endloop
  endfacet
  facet normal 0.398557 0.917144 -4.60996e-05
    outer loop
      vertex 50.6242 -2.53202 5.24232
      vertex 46.1444 -0.585315 4.19729
      vertex 49.7474 -2.15098 5.53539
    endloop
  endfacet
  facet normal 0.398548 0.917147 -1.90954e-06
    outer loop
      vertex 50.6242 -2.53202 5.24232
      vertex 44.8873 -0.0390463 0.866325
      vertex 46.1444 -0.585315 4.19729
    endloop
  endfacet
  facet normal 0.398544 0.917149 4.86931e-06
    outer loop
      vertex 52.089 -3.16854 4.51161
      vertex 44.8873 -0.0390463 0.866325
      vertex 50.6242 -2.53202 5.24232
    endloop
  endfacet
  facet normal 0.398541 0.917151 1.2347e-05
    outer loop
      vertex 52.089 -3.16854 4.51161
      vertex 44.8051 -0.00331306 -0.162289
      vertex 44.8873 -0.0390463 0.866325
    endloop
  endfacet
  facet normal 0.398548 0.917147 -1.21973e-06
    outer loop
      vertex 44.8632 -0.0285616 -0.966886
      vertex 44.8051 -0.00331306 -0.162289
      vertex 52.089 -3.16854 4.51161
    endloop
  endfacet
  facet normal 0.398669 0.917095 -0.000123504
    outer loop
      vertex 46.5925 -0.780025 4.81493
      vertex 46.1444 -0.585315 4.19729
      vertex 46.4291 -0.709016 4.64802
    endloop
  endfacet
  facet normal 0.398747 0.917061 -0.00019063
    outer loop
      vertex 46.8411 -0.888075 5.02555
      vertex 46.1444 -0.585315 4.19729
      vertex 46.5925 -0.780025 4.81493
    endloop
  endfacet
  facet normal 0.398454 0.917188 -3.16607e-05
    outer loop
      vertex 45.1854 -0.168586 -2.45007
      vertex 44.8632 -0.0285616 -0.966886
      vertex 45.399 -0.261395 -2.8802
    endloop
  endfacet
  facet normal 0.398777 0.917048 5.18523e-05
    outer loop
      vertex 44.9611 -0.0710888 -1.75375
      vertex 44.8632 -0.0285616 -0.966886
      vertex 45.1854 -0.168586 -2.45007
    endloop
  endfacet
  facet normal 0.398563 0.917141 1.31557e-05
    outer loop
      vertex 54.6291 -4.27235 1.34579
      vertex 52.089 -3.16854 4.51161
      vertex 53.5637 -3.80939 3.6199
    endloop
  endfacet
  facet normal 0.398551 0.917146 6.34858e-06
    outer loop
      vertex 54.6291 -4.27235 1.34579
      vertex 53.5637 -3.80939 3.6199
      vertex 54.371 -4.1602 2.62432
    endloop
  endfacet
  facet normal 0.39855 0.917147 2.81668e-07
    outer loop
      vertex 54.6291 -4.27235 1.34579
      vertex 50.041 -2.27857 -5.64837
      vertex 52.089 -3.16854 4.51161
    endloop
  endfacet
  facet normal 0.398552 0.917146 -1.34338e-06
    outer loop
      vertex 54.9152 -4.39668 -0.898727
      vertex 50.041 -2.27857 -5.64837
      vertex 54.6291 -4.27235 1.34579
    endloop
  endfacet
  facet normal 0.398543 0.917149 1.81086e-06
    outer loop
      vertex 50.041 -2.27857 -5.64837
      vertex 46.1334 -0.580542 -3.90727
      vertex 52.089 -3.16854 4.51161
    endloop
  endfacet
  facet normal 0.398549 0.917147 -3.23251e-06
    outer loop
      vertex 46.1334 -0.580542 -3.90727
      vertex 44.8632 -0.0285616 -0.966886
      vertex 52.089 -3.16854 4.51161
    endloop
  endfacet
  facet normal 0.398472 0.917181 -7.02344e-05
    outer loop
      vertex 54.371 -4.1602 2.62432
      vertex 53.5637 -3.80939 3.6199
      vertex 53.9917 -3.99536 3.30397
    endloop
  endfacet
  facet normal 0.39863 0.917112 3.46867e-05
    outer loop
      vertex 54.371 -4.1602 2.62432
      vertex 53.9917 -3.99536 3.30397
      vertex 54.252 -4.10849 3.00185
    endloop
  endfacet
  facet normal 0.398554 0.917145 -1.7759e-06
    outer loop
      vertex 52.4945 -3.34475 -5.14404
      vertex 51.276 -2.81524 -5.54182
      vertex 54.9152 -4.39668 -0.898727
    endloop
  endfacet
  facet normal 0.398547 0.917148 4.96377e-06
    outer loop
      vertex 51.276 -2.81524 -5.54182
      vertex 50.041 -2.27857 -5.64837
      vertex 54.9152 -4.39668 -0.898727
    endloop
  endfacet
  facet normal 0.398273 0.917267 0.000116242
    outer loop
      vertex 54.8949 -4.38783 -2.52836
      vertex 54.8431 -4.36532 -2.67567
      vertex 54.9523 -4.41279 -2.23503
    endloop
  endfacet
  facet normal 0.397952 0.917406 0.000210802
    outer loop
      vertex 54.8431 -4.36532 -2.67567
      vertex 54.7401 -4.32059 -2.89625
      vertex 54.9523 -4.41279 -2.23503
    endloop
  endfacet
  facet normal 0.397949 0.917407 -0.000662504
    outer loop
      vertex 54.252 -4.10849 3.00185
      vertex 53.9917 -3.99536 3.30397
      vertex 54.1953 -4.08382 3.10559
    endloop
  endfacet
  facet normal 0.398481 0.917177 2.66533e-05
    outer loop
      vertex 54.9645 -4.41807 -1.90025
      vertex 54.3478 -4.15009 -3.47234
      vertex 54.9152 -4.39668 -0.898727
    endloop
  endfacet
  facet normal 0.398662 0.917098 -5.79668e-05
    outer loop
      vertex 54.6107 -4.26435 -3.11514
      vertex 54.3478 -4.15009 -3.47234
      vertex 54.9645 -4.41807 -1.90025
    endloop
  endfacet
  facet normal 0.398455 0.917188 3.3388e-05
    outer loop
      vertex 54.3478 -4.15009 -3.47234
      vertex 53.9788 -3.98977 -3.88039
      vertex 54.9152 -4.39668 -0.898727
    endloop
  endfacet
  facet normal 0.39856 0.917142 -5.718e-06
    outer loop
      vertex 53.9788 -3.98977 -3.88039
      vertex 52.4945 -3.34475 -5.14404
      vertex 54.9152 -4.39668 -0.898727
    endloop
  endfacet
  facet normal 0.398674 0.917093 -6.44275e-05
    outer loop
      vertex 54.9523 -4.41279 -2.23503
      vertex 54.7401 -4.32059 -2.89625
      vertex 54.9645 -4.41807 -1.90025
    endloop
  endfacet
  facet normal 0.398705 0.917079 -7.294e-05
    outer loop
      vertex 54.7401 -4.32059 -2.89625
      vertex 54.6107 -4.26435 -3.11514
      vertex 54.9645 -4.41807 -1.90025
    endloop
  endfacet
  facet normal 0.398559 0.917143 4.98363e-05
    outer loop
      vertex 54.9317 -4.40383 -2.38134
      vertex 54.8949 -4.38783 -2.52836
      vertex 54.9523 -4.41279 -2.23503
    endloop
  endfacet
endsolid OpenSCAD_Model
