solid OpenSCAD_Model
  facet normal 0 0 -1
    outer loop
      vertex 37.3333 -91.875 7.66667
      vertex 42.249 -83.7419 7.66667
      vertex 42.3126 -87.1035 7.66667
    endloop
  endfacet
  facet normal 0 0 -1
    outer loop
      vertex 37.3333 -91.875 7.66667
      vertex 42.3126 -87.1035 7.66667
      vertex 42.3898 -91.1511 7.66667
    endloop
  endfacet
  facet normal -0 0 -1
    outer loop
      vertex 42.249 -83.7419 7.66667
      vertex 37.3333 -91.875 7.66667
      vertex 37.3333 -73.5 7.66667
    endloop
  endfacet
  facet normal 0 0 -1
    outer loop
      vertex 37.3333 -91.875 7.66667
      vertex 42.3898 -91.1511 7.66667
      vertex 42.472 -91.875 7.66667
    endloop
  endfacet
  facet normal 0 0 -1
    outer loop
      vertex 42.249 -83.7419 7.66667
      vertex 37.3333 -73.5 7.66667
      vertex 41.9309 -77.0351 7.66667
    endloop
  endfacet
  facet normal 0 0 -1
    outer loop
      vertex 41.9309 -77.0351 7.66667
      vertex 37.3333 -73.5 7.66667
      vertex 41.7662 -73.5 7.66667
    endloop
  endfacet
  facet normal -1 0 0
    outer loop
      vertex 37.3333 -73.5 7.66667
      vertex 37.3333 -83.621 14.8802
      vertex 37.3333 -73.5 13.9213
    endloop
  endfacet
  facet normal -1 0 0
    outer loop
      vertex 37.3333 -91.875 7.66667
      vertex 37.3333 -83.621 14.8802
      vertex 37.3333 -73.5 7.66667
    endloop
  endfacet
  facet normal -1 -0 0
    outer loop
      vertex 37.3333 -83.621 14.8802
      vertex 37.3333 -91.875 7.66667
      vertex 37.3333 -84.6726 14.8905
    endloop
  endfacet
  facet normal -1 -0 0
    outer loop
      vertex 37.3333 -84.6726 14.8905
      vertex 37.3333 -91.875 7.66667
      vertex 37.3333 -91.4874 14.9601
    endloop
  endfacet
  facet normal -1 -0 0
    outer loop
      vertex 37.3333 -91.4874 14.9601
      vertex 37.3333 -91.875 7.66667
      vertex 37.3333 -91.875 14.9847
    endloop
  endfacet
  facet normal 0 1 0
    outer loop
      vertex 37.3333 -73.5 7.66667
      vertex 38.0365 -73.5 13.5296
      vertex 39.313 -73.5 12.6474
    endloop
  endfacet
  facet normal 0 1 0
    outer loop
      vertex 37.3333 -73.5 7.66667
      vertex 39.313 -73.5 12.6474
      vertex 39.7702 -73.5 12.3366
    endloop
  endfacet
  facet normal 0 1 0
    outer loop
      vertex 37.3333 -73.5 7.66667
      vertex 39.7702 -73.5 12.3366
      vertex 40.1931 -73.5 11.9799
    endloop
  endfacet
  facet normal 0 1 0
    outer loop
      vertex 40.5286 -73.5 11.6584
      vertex 40.1931 -73.5 11.9799
      vertex 40.3413 -73.5 11.8568
    endloop
  endfacet
  facet normal 0 1 0
    outer loop
      vertex 40.1931 -73.5 11.9799
      vertex 40.5286 -73.5 11.6584
      vertex 40.8795 -73.5 11.0703
    endloop
  endfacet
  facet normal 0 1 0
    outer loop
      vertex 40.6564 -73.5 11.5043
      vertex 40.5286 -73.5 11.6584
      vertex 40.5936 -73.5 11.5904
    endloop
  endfacet
  facet normal 0 1 0
    outer loop
      vertex 40.5286 -73.5 11.6584
      vertex 40.6564 -73.5 11.5043
      vertex 40.7859 -73.5 11.2712
    endloop
  endfacet
  facet normal 0 1 0
    outer loop
      vertex 40.7859 -73.5 11.2712
      vertex 40.6564 -73.5 11.5043
      vertex 40.6781 -73.5 11.4749
    endloop
  endfacet
  facet normal 0 1 0
    outer loop
      vertex 40.8795 -73.5 11.0703
      vertex 40.5286 -73.5 11.6584
      vertex 40.7859 -73.5 11.2712
    endloop
  endfacet
  facet normal 0 1 0
    outer loop
      vertex 40.8795 -73.5 11.0703
      vertex 40.7859 -73.5 11.2712
      vertex 40.8231 -73.5 11.2017
    endloop
  endfacet
  facet normal 0 1 0
    outer loop
      vertex 40.1931 -73.5 11.9799
      vertex 40.8795 -73.5 11.0703
      vertex 37.3333 -73.5 7.66667
    endloop
  endfacet
  facet normal 0 1 0
    outer loop
      vertex 37.3333 -73.5 7.66667
      vertex 40.8795 -73.5 11.0703
      vertex 40.8988 -73.5 11.0256
    endloop
  endfacet
  facet normal 0 1 0
    outer loop
      vertex 37.3333 -73.5 7.66667
      vertex 40.8988 -73.5 11.0256
      vertex 41.2013 -73.5 10.1007
    endloop
  endfacet
  facet normal 0 1 0
    outer loop
      vertex 37.3333 -73.5 7.66667
      vertex 41.2013 -73.5 10.1007
      vertex 41.3039 -73.5 9.79016
    endloop
  endfacet
  facet normal 0 1 0
    outer loop
      vertex 37.3333 -73.5 7.66667
      vertex 41.3039 -73.5 9.79016
      vertex 41.7662 -73.5 7.66667
    endloop
  endfacet
  facet normal 0 1 0
    outer loop
      vertex 38.0365 -73.5 13.5296
      vertex 37.3333 -73.5 7.66667
      vertex 37.3333 -73.5 13.9213
    endloop
  endfacet
  facet normal 0 -1 0
    outer loop
      vertex 37.3333 -91.875 7.66667
      vertex 37.9383 -91.875 14.6515
      vertex 37.3333 -91.875 14.9847
    endloop
  endfacet
  facet normal 0 -1 -0
    outer loop
      vertex 37.9383 -91.875 14.6515
      vertex 37.3333 -91.875 7.66667
      vertex 38.3159 -91.875 14.4432
    endloop
  endfacet
  facet normal 0 -1 -0
    outer loop
      vertex 38.3159 -91.875 14.4432
      vertex 37.3333 -91.875 7.66667
      vertex 40.0316 -91.875 13.2892
    endloop
  endfacet
  facet normal 0 -1 -0
    outer loop
      vertex 40.0316 -91.875 13.2892
      vertex 37.3333 -91.875 7.66667
      vertex 40.1898 -91.875 13.1827
    endloop
  endfacet
  facet normal 0 -1 -0
    outer loop
      vertex 40.1898 -91.875 13.1827
      vertex 37.3333 -91.875 7.66667
      vertex 40.7499 -91.875 12.7219
    endloop
  endfacet
  facet normal -0 -1 0
    outer loop
      vertex 41.4118 -91.875 11.7895
      vertex 40.7499 -91.875 12.7219
      vertex 37.3333 -91.875 7.66667
    endloop
  endfacet
  facet normal -0 -1 -0
    outer loop
      vertex 41.4034 -91.875 11.8087
      vertex 40.7499 -91.875 12.7219
      vertex 41.4118 -91.875 11.7895
    endloop
  endfacet
  facet normal 0 -1 0
    outer loop
      vertex 40.7499 -91.875 12.7219
      vertex 41.3138 -91.875 12.0067
      vertex 40.808 -91.875 12.6741
    endloop
  endfacet
  facet normal 0 -1 0
    outer loop
      vertex 40.808 -91.875 12.6741
      vertex 41.3138 -91.875 12.0067
      vertex 41.0544 -91.875 12.4189
    endloop
  endfacet
  facet normal 0 -1 0
    outer loop
      vertex 41.0544 -91.875 12.4189
      vertex 41.1636 -91.875 12.2805
      vertex 41.0812 -91.875 12.3911
    endloop
  endfacet
  facet normal 0 -1 0
    outer loop
      vertex 41.1636 -91.875 12.2805
      vertex 41.3138 -91.875 12.0067
      vertex 41.1727 -91.875 12.2683
    endloop
  endfacet
  facet normal -0 -1 -0
    outer loop
      vertex 41.1636 -91.875 12.2805
      vertex 41.0544 -91.875 12.4189
      vertex 41.3138 -91.875 12.0067
    endloop
  endfacet
  facet normal 0 -1 0
    outer loop
      vertex 41.3138 -91.875 12.0067
      vertex 41.4034 -91.875 11.8087
      vertex 41.3297 -91.875 11.9772
    endloop
  endfacet
  facet normal -0 -1 -0
    outer loop
      vertex 41.3138 -91.875 12.0067
      vertex 40.7499 -91.875 12.7219
      vertex 41.4034 -91.875 11.8087
    endloop
  endfacet
  facet normal 0 -1 -0
    outer loop
      vertex 41.4118 -91.875 11.7895
      vertex 37.3333 -91.875 7.66667
      vertex 41.804 -91.875 10.6116
    endloop
  endfacet
  facet normal 0 -1 -0
    outer loop
      vertex 41.804 -91.875 10.6116
      vertex 37.3333 -91.875 7.66667
      vertex 41.8508 -91.875 10.4709
    endloop
  endfacet
  facet normal 0 -1 -0
    outer loop
      vertex 41.8508 -91.875 10.4709
      vertex 37.3333 -91.875 7.66667
      vertex 42.472 -91.875 7.66667
    endloop
  endfacet
  facet normal 0.976101 0.0454765 0.212505
    outer loop
      vertex 41.3039 -73.5 9.79016
      vertex 41.9309 -77.0351 7.66667
      vertex 41.7662 -73.5 7.66667
    endloop
  endfacet
  facet normal 0.9761 0.0454714 0.212513
    outer loop
      vertex 41.9309 -77.0351 7.66667
      vertex 41.3039 -73.5 9.79016
      vertex 41.6321 -83.7267 10.4709
    endloop
  endfacet
  facet normal 0.975653 0.0462747 0.214382
    outer loop
      vertex 41.9309 -77.0351 7.66667
      vertex 41.6321 -83.7267 10.4709
      vertex 42.249 -83.7419 7.66667
    endloop
  endfacet
  facet normal 0.949228 0.0508289 0.310457
    outer loop
      vertex 41.2013 -73.5 10.1007
      vertex 40.8988 -73.5 11.0256
      vertex 41.196 -83.716 11.7895
    endloop
  endfacet
  facet normal 0.948297 0.0512852 0.313214
    outer loop
      vertex 41.6321 -83.7267 10.4709
      vertex 41.2013 -73.5 10.1007
      vertex 41.196 -83.716 11.7895
    endloop
  endfacet
  facet normal 0.948268 0.0512871 0.3133
    outer loop
      vertex 41.2013 -73.5 10.1007
      vertex 41.6321 -83.7267 10.4709
      vertex 41.3039 -73.5 9.79016
    endloop
  endfacet
  facet normal 0.917482 0.056075 0.393805
    outer loop
      vertex 40.8795 -73.5 11.0703
      vertex 40.8231 -73.5 11.2017
      vertex 41.1145 -83.714 11.9772
    endloop
  endfacet
  facet normal 0.916027 0.0563378 0.397142
    outer loop
      vertex 41.196 -83.716 11.7895
      vertex 40.8795 -73.5 11.0703
      vertex 41.1145 -83.714 11.9772
    endloop
  endfacet
  facet normal 0.916625 0.0562597 0.395769
    outer loop
      vertex 40.8795 -73.5 11.0703
      vertex 41.196 -83.716 11.7895
      vertex 40.8988 -73.5 11.0256
    endloop
  endfacet
  facet normal 0.882242 0.0605093 0.466891
    outer loop
      vertex 40.7859 -73.5 11.2712
      vertex 40.6781 -73.5 11.4749
      vertex 40.9585 -83.7102 12.2683
    endloop
  endfacet
  facet normal 0.880109 0.0608603 0.470855
    outer loop
      vertex 41.1145 -83.714 11.9772
      vertex 40.7859 -73.5 11.2712
      vertex 40.9585 -83.7102 12.2683
    endloop
  endfacet
  facet normal 0.880015 0.0608694 0.47103
    outer loop
      vertex 40.7859 -73.5 11.2712
      vertex 41.1145 -83.714 11.9772
      vertex 40.8231 -73.5 11.2017
    endloop
  endfacet
  facet normal 0.806067 0.0677534 0.587933
    outer loop
      vertex 40.6564 -73.5 11.5043
      vertex 40.5936 -73.5 11.5904
      vertex 40.8676 -83.7079 12.3911
    endloop
  endfacet
  facet normal 0.802498 0.0680986 0.592756
    outer loop
      vertex 40.9585 -83.7102 12.2683
      vertex 40.6564 -73.5 11.5043
      vertex 40.8676 -83.7079 12.3911
    endloop
  endfacet
  facet normal 0.802707 0.0680837 0.592474
    outer loop
      vertex 40.6564 -73.5 11.5043
      vertex 40.9585 -83.7102 12.2683
      vertex 40.6781 -73.5 11.4749
    endloop
  endfacet
  facet normal 0.725217 0.0729727 0.684643
    outer loop
      vertex 40.5286 -73.5 11.6584
      vertex 40.3413 -73.5 11.8568
      vertex 40.5962 -83.7013 12.6741
    endloop
  endfacet
  facet normal 0.720651 0.0734161 0.6894
    outer loop
      vertex 40.8676 -83.7079 12.3911
      vertex 40.5286 -73.5 11.6584
      vertex 40.5962 -83.7013 12.6741
    endloop
  endfacet
  facet normal 0.720923 0.0734048 0.689117
    outer loop
      vertex 40.5286 -73.5 11.6584
      vertex 40.8676 -83.7079 12.3911
      vertex 40.5936 -73.5 11.5904
    endloop
  endfacet
  facet normal 0.642844 0.0766866 0.762149
    outer loop
      vertex 40.1931 -73.5 11.9799
      vertex 39.7702 -73.5 12.3366
      vertex 39.9822 -83.6861 13.1827
    endloop
  endfacet
  facet normal 0.637043 0.0773719 0.766935
    outer loop
      vertex 39.9822 -83.6861 13.1827
      vertex 40.3413 -73.5 11.8568
      vertex 40.1931 -73.5 11.9799
    endloop
  endfacet
  facet normal 0.637135 0.0773588 0.76686
    outer loop
      vertex 40.3413 -73.5 11.8568
      vertex 39.9822 -83.6861 13.1827
      vertex 40.5962 -83.7013 12.6741
    endloop
  endfacet
  facet normal 0.566783 0.0786107 0.820108
    outer loop
      vertex 39.313 -73.5 12.6474
      vertex 38.0365 -73.5 13.5296
      vertex 38.121 -83.6404 14.4432
    endloop
  endfacet
  facet normal 0.560383 0.0801368 0.824347
    outer loop
      vertex 39.313 -73.5 12.6474
      vertex 39.9822 -83.6861 13.1827
      vertex 39.7702 -73.5 12.3366
    endloop
  endfacet
  facet normal 0.560298 0.0801343 0.824406
    outer loop
      vertex 39.9822 -83.6861 13.1827
      vertex 39.313 -73.5 12.6474
      vertex 38.121 -83.6404 14.4432
    endloop
  endfacet
  facet normal 0.484965 0.0824871 0.870635
    outer loop
      vertex 37.3333 -83.621 14.8802
      vertex 38.0365 -73.5 13.5296
      vertex 37.3333 -73.5 13.9213
    endloop
  endfacet
  facet normal 0.485024 0.0824787 0.870603
    outer loop
      vertex 38.0365 -73.5 13.5296
      vertex 37.3333 -83.621 14.8802
      vertex 38.121 -83.6404 14.4432
    endloop
  endfacet
  facet normal 0.976501 0.018475 0.214719
    outer loop
      vertex 41.6321 -83.7267 10.4709
      vertex 42.3126 -87.1035 7.66667
      vertex 42.249 -83.7419 7.66667
    endloop
  endfacet
  facet normal 0.976497 0.0184563 0.214741
    outer loop
      vertex 42.3126 -87.1035 7.66667
      vertex 41.6321 -83.7267 10.4709
      vertex 41.7732 -91.1921 10.4709
    endloop
  endfacet
  facet normal 0.976442 0.0186237 0.214974
    outer loop
      vertex 42.3126 -87.1035 7.66667
      vertex 41.7732 -91.1921 10.4709
      vertex 42.3898 -91.1511 7.66667
    endloop
  endfacet
  facet normal 0.949314 0.0178982 0.313821
    outer loop
      vertex 41.6321 -83.7267 10.4709
      vertex 41.196 -83.716 11.7895
      vertex 41.3375 -91.2211 11.7895
    endloop
  endfacet
  facet normal 0.949238 0.0179411 0.314048
    outer loop
      vertex 41.6321 -83.7267 10.4709
      vertex 41.3375 -91.2211 11.7895
      vertex 41.7732 -91.1921 10.4709
    endloop
  endfacet
  facet normal 0.917195 0.0172756 0.398065
    outer loop
      vertex 41.196 -83.716 11.7895
      vertex 41.1145 -83.714 11.9772
      vertex 41.256 -91.2265 11.9772
    endloop
  endfacet
  facet normal 0.916945 0.0172879 0.398638
    outer loop
      vertex 41.3375 -91.2211 11.7895
      vertex 41.196 -83.716 11.7895
      vertex 41.256 -91.2265 11.9772
    endloop
  endfacet
  facet normal 0.881381 0.0165815 0.472114
    outer loop
      vertex 41.1145 -83.714 11.9772
      vertex 40.9585 -83.7102 12.2683
      vertex 41.1001 -91.2369 12.2683
    endloop
  endfacet
  facet normal 0.88117 0.0165971 0.472508
    outer loop
      vertex 41.1145 -83.714 11.9772
      vertex 41.1001 -91.2369 12.2683
      vertex 41.256 -91.2265 11.9772
    endloop
  endfacet
  facet normal 0.803798 0.0151159 0.594711
    outer loop
      vertex 40.9585 -83.7102 12.2683
      vertex 40.8676 -83.7079 12.3911
      vertex 41.0093 -91.2429 12.3911
    endloop
  endfacet
  facet normal 0.803622 0.0151186 0.594948
    outer loop
      vertex 41.1001 -91.2369 12.2683
      vertex 40.9585 -83.7102 12.2683
      vertex 41.0093 -91.2429 12.3911
    endloop
  endfacet
  facet normal 0.721836 0.0135493 0.691932
    outer loop
      vertex 40.8676 -83.7079 12.3911
      vertex 40.5962 -83.7013 12.6741
      vertex 40.7381 -91.261 12.6741
    endloop
  endfacet
  facet normal 0.721499 0.0135682 0.692283
    outer loop
      vertex 40.8676 -83.7079 12.3911
      vertex 40.7381 -91.261 12.6741
      vertex 41.0093 -91.2429 12.3911
    endloop
  endfacet
  facet normal 0.638041 0.0119219 0.76991
    outer loop
      vertex 40.5962 -83.7013 12.6741
      vertex 39.9822 -83.6861 13.1827
      vertex 40.1245 -91.3018 13.1827
    endloop
  endfacet
  facet normal 0.637641 0.0119689 0.770241
    outer loop
      vertex 40.5962 -83.7013 12.6741
      vertex 40.1245 -91.3018 13.1827
      vertex 40.7381 -91.261 12.6741
    endloop
  endfacet
  facet normal 0.560897 0.0103388 0.827821
    outer loop
      vertex 39.9822 -83.6861 13.1827
      vertex 38.121 -83.6404 14.4432
      vertex 38.2645 -91.4255 14.4432
    endloop
  endfacet
  facet normal 0.560493 0.0104729 0.828093
    outer loop
      vertex 39.9822 -83.6861 13.1827
      vertex 38.2645 -91.4255 14.4432
      vertex 40.1245 -91.3018 13.1827
    endloop
  endfacet
  facet normal 0.485268 0.00856365 0.874324
    outer loop
      vertex 37.3333 -83.621 14.8802
      vertex 37.3333 -84.6726 14.8905
      vertex 38.121 -83.6404 14.4432
    endloop
  endfacet
  facet normal 0.484893 0.00893787 0.874528
    outer loop
      vertex 37.3333 -84.6726 14.8905
      vertex 38.2645 -91.4255 14.4432
      vertex 38.121 -83.6404 14.4432
    endloop
  endfacet
  facet normal 0.484859 0.0089318 0.874547
    outer loop
      vertex 38.2645 -91.4255 14.4432
      vertex 37.3333 -84.6726 14.8905
      vertex 37.3333 -91.4874 14.9601
    endloop
  endfacet
  facet normal 0.970378 0.110267 0.214961
    outer loop
      vertex 42.472 -91.875 7.66667
      vertex 41.7732 -91.1921 10.4709
      vertex 41.8508 -91.875 10.4709
    endloop
  endfacet
  facet normal 0.970382 0.110188 0.214981
    outer loop
      vertex 41.7732 -91.1921 10.4709
      vertex 42.472 -91.875 7.66667
      vertex 42.3898 -91.1511 7.66667
    endloop
  endfacet
  facet normal 0.943322 0.107186 0.314094
    outer loop
      vertex 41.804 -91.875 10.6116
      vertex 41.3375 -91.2211 11.7895
      vertex 41.4118 -91.875 11.7895
    endloop
  endfacet
  facet normal 0.943326 0.107252 0.314058
    outer loop
      vertex 41.3375 -91.2211 11.7895
      vertex 41.804 -91.875 10.6116
      vertex 41.7732 -91.1921 10.4709
    endloop
  endfacet
  facet normal 0.943417 0.107203 0.313802
    outer loop
      vertex 41.8508 -91.875 10.4709
      vertex 41.7732 -91.1921 10.4709
      vertex 41.804 -91.875 10.6116
    endloop
  endfacet
  facet normal 0.911268 0.103563 0.398578
    outer loop
      vertex 41.4034 -91.875 11.8087
      vertex 41.256 -91.2265 11.9772
      vertex 41.3297 -91.875 11.9772
    endloop
  endfacet
  facet normal 0.911242 0.10354 0.398643
    outer loop
      vertex 41.256 -91.2265 11.9772
      vertex 41.4034 -91.875 11.8087
      vertex 41.3375 -91.2211 11.7895
    endloop
  endfacet
  facet normal 0.911233 0.10354 0.398665
    outer loop
      vertex 41.4118 -91.875 11.7895
      vertex 41.3375 -91.2211 11.7895
      vertex 41.4034 -91.875 11.8087
    endloop
  endfacet
  facet normal 0.875756 0.0996394 0.472359
    outer loop
      vertex 41.3138 -91.875 12.0067
      vertex 41.1001 -91.2369 12.2683
      vertex 41.1727 -91.875 12.2683
    endloop
  endfacet
  facet normal 0.875676 0.099543 0.472529
    outer loop
      vertex 41.1001 -91.2369 12.2683
      vertex 41.3138 -91.875 12.0067
      vertex 41.256 -91.2265 11.9772
    endloop
  endfacet
  facet normal 0.875907 0.0995441 0.472099
    outer loop
      vertex 41.3297 -91.875 11.9772
      vertex 41.256 -91.2265 11.9772
      vertex 41.3138 -91.875 12.0067
    endloop
  endfacet
  facet normal 0.798595 0.0908384 0.594975
    outer loop
      vertex 41.1636 -91.875 12.2805
      vertex 41.0093 -91.2429 12.3911
      vertex 41.0812 -91.875 12.3911
    endloop
  endfacet
  facet normal 0.798615 0.0908485 0.594946
    outer loop
      vertex 41.0093 -91.2429 12.3911
      vertex 41.1636 -91.875 12.2805
      vertex 41.1001 -91.2369 12.2683
    endloop
  endfacet
  facet normal 0.798261 0.0908224 0.595424
    outer loop
      vertex 41.1727 -91.875 12.2683
      vertex 41.1001 -91.2369 12.2683
      vertex 41.1636 -91.875 12.2805
    endloop
  endfacet
  facet normal 0.717001 0.081626 0.692277
    outer loop
      vertex 41.0544 -91.875 12.4189
      vertex 40.7381 -91.261 12.6741
      vertex 40.808 -91.875 12.6741
    endloop
  endfacet
  facet normal 0.716978 0.0816038 0.692302
    outer loop
      vertex 40.7381 -91.261 12.6741
      vertex 41.0544 -91.875 12.4189
      vertex 41.0093 -91.2429 12.3911
    endloop
  endfacet
  facet normal 0.717535 0.081618 0.691724
    outer loop
      vertex 41.0812 -91.875 12.3911
      vertex 41.0093 -91.2429 12.3911
      vertex 41.0544 -91.875 12.4189
    endloop
  endfacet
  facet normal 0.633675 0.0721405 0.770228
    outer loop
      vertex 40.7381 -91.261 12.6741
      vertex 40.1898 -91.875 13.1827
      vertex 40.7499 -91.875 12.7219
    endloop
  endfacet
  facet normal 0.633644 0.0721859 0.77025
    outer loop
      vertex 40.1898 -91.875 13.1827
      vertex 40.7381 -91.261 12.6741
      vertex 40.1245 -91.3018 13.1827
    endloop
  endfacet
  facet normal 0.633679 0.0721403 0.770225
    outer loop
      vertex 40.808 -91.875 12.6741
      vertex 40.7381 -91.261 12.6741
      vertex 40.7499 -91.875 12.7219
    endloop
  endfacet
  facet normal 0.556964 0.0635914 0.828099
    outer loop
      vertex 38.2645 -91.4255 14.4432
      vertex 40.0316 -91.875 13.2892
      vertex 40.1245 -91.3018 13.1827
    endloop
  endfacet
  facet normal 0.556978 0.06369 0.828082
    outer loop
      vertex 40.0316 -91.875 13.2892
      vertex 38.2645 -91.4255 14.4432
      vertex 38.3159 -91.875 14.4432
    endloop
  endfacet
  facet normal 0.557319 0.0634908 0.827867
    outer loop
      vertex 40.1245 -91.3018 13.1827
      vertex 40.0316 -91.875 13.2892
      vertex 40.1898 -91.875 13.1827
    endloop
  endfacet
  facet normal 0.481748 0.0556625 0.87454
    outer loop
      vertex 37.3333 -91.4874 14.9601
      vertex 37.9383 -91.875 14.6515
      vertex 38.2645 -91.4255 14.4432
    endloop
  endfacet
  facet normal 0.481675 0.055508 0.87459
    outer loop
      vertex 37.9383 -91.875 14.6515
      vertex 37.3333 -91.4874 14.9601
      vertex 37.3333 -91.875 14.9847
    endloop
  endfacet
  facet normal 0.482287 0.0551492 0.874276
    outer loop
      vertex 38.2645 -91.4255 14.4432
      vertex 37.9383 -91.875 14.6515
      vertex 38.3159 -91.875 14.4432
    endloop
  endfacet
endsolid OpenSCAD_Model
