solid OpenSCAD_Model
  facet normal 1 -0 0
    outer loop
      vertex 25 -28.64 0
      vertex 25 -21.48 -23.6141
      vertex 25 -21.48 0
    endloop
  endfacet
  facet normal 1 0 0
    outer loop
      vertex 25 -28.64 -24.4831
      vertex 25 -21.48 -23.6141
      vertex 25 -28.64 0
    endloop
  endfacet
  facet normal 1 0 0
    outer loop
      vertex 25 -21.48 -23.6141
      vertex 25 -28.64 -24.4831
      vertex 25 -26.7153 -24.6866
    endloop
  endfacet
  facet normal 1 0 0
    outer loop
      vertex 25 -26.7153 -24.6866
      vertex 25 -26.851 -24.7088
      vertex 25 -26.8359 -24.7108
    endloop
  endfacet
  facet normal 1 0 0
    outer loop
      vertex 25 -26.7153 -24.6866
      vertex 25 -28.64 -24.4831
      vertex 25 -26.851 -24.7088
    endloop
  endfacet
  facet normal -0 0 1
    outer loop
      vertex 2.10714 -21.48 0
      vertex 25 -28.64 0
      vertex 25 -21.48 0
    endloop
  endfacet
  facet normal 0 0 1
    outer loop
      vertex 25 -28.64 0
      vertex 2.10714 -21.48 0
      vertex 0.510316 -28.64 0
    endloop
  endfacet
  facet normal 0 1 0
    outer loop
      vertex 25 -21.48 0
      vertex 2.19705 -21.48 -1.05443
      vertex 2.10714 -21.48 0
    endloop
  endfacet
  facet normal 0 1 0
    outer loop
      vertex 25 -21.48 0
      vertex 2.45058 -21.48 -4.02781
      vertex 2.19705 -21.48 -1.05443
    endloop
  endfacet
  facet normal 0 1 0
    outer loop
      vertex 25 -21.48 0
      vertex 2.72308 -21.48 -5.07185
      vertex 2.45058 -21.48 -4.02781
    endloop
  endfacet
  facet normal 0 1 0
    outer loop
      vertex 25 -21.48 0
      vertex 3.47164 -21.48 -7.93991
      vertex 2.72308 -21.48 -5.07185
    endloop
  endfacet
  facet normal 0 1 0
    outer loop
      vertex 25 -21.48 0
      vertex 3.93741 -21.48 -8.96664
      vertex 3.47164 -21.48 -7.93991
    endloop
  endfacet
  facet normal 0 1 0
    outer loop
      vertex 25 -21.48 0
      vertex 5.1426 -21.48 -11.6233
      vertex 3.93741 -21.48 -8.96664
    endloop
  endfacet
  facet normal 0 1 0
    outer loop
      vertex 25 -21.48 0
      vertex 5.81865 -21.48 -12.618
      vertex 5.1426 -21.48 -11.6233
    endloop
  endfacet
  facet normal 0 1 0
    outer loop
      vertex 25 -21.48 0
      vertex 7.41779 -21.48 -14.9706
      vertex 5.81865 -21.48 -12.618
    endloop
  endfacet
  facet normal 0 1 0
    outer loop
      vertex 25 -21.48 0
      vertex 8.32357 -21.48 -15.9071
      vertex 7.41779 -21.48 -14.9706
    endloop
  endfacet
  facet normal 0 1 0
    outer loop
      vertex 25 -21.48 0
      vertex 10.2344 -21.48 -17.8825
      vertex 8.32357 -21.48 -15.9071
    endloop
  endfacet
  facet normal 0 1 0
    outer loop
      vertex 25 -21.48 0
      vertex 11.3866 -21.48 -18.7217
      vertex 10.2344 -21.48 -17.8825
    endloop
  endfacet
  facet normal 0 1 0
    outer loop
      vertex 25 -21.48 0
      vertex 13.5136 -21.48 -20.2707
      vertex 11.3866 -21.48 -18.7217
    endloop
  endfacet
  facet normal 0 1 0
    outer loop
      vertex 25 -21.48 0
      vertex 14.9205 -21.48 -20.9609
      vertex 13.5136 -21.48 -20.2707
    endloop
  endfacet
  facet normal 0 1 0
    outer loop
      vertex 25 -21.48 0
      vertex 17.1623 -21.48 -22.0606
      vertex 14.9205 -21.48 -20.9609
    endloop
  endfacet
  facet normal 0 1 0
    outer loop
      vertex 25 -21.48 0
      vertex 18.8179 -21.48 -22.5399
      vertex 17.1623 -21.48 -22.0606
    endloop
  endfacet
  facet normal 0 1 0
    outer loop
      vertex 25 -21.48 0
      vertex 21.075 -21.48 -23.1933
      vertex 18.8179 -21.48 -22.5399
    endloop
  endfacet
  facet normal 0 1 0
    outer loop
      vertex 25 -21.48 0
      vertex 22.9544 -21.48 -23.3948
      vertex 21.075 -21.48 -23.1933
    endloop
  endfacet
  facet normal -0 1 0
    outer loop
      vertex 22.9544 -21.48 -23.3948
      vertex 25 -21.48 0
      vertex 25 -21.48 -23.6141
    endloop
  endfacet
  facet normal 0 -1 0
    outer loop
      vertex 0.858815 -28.64 -4.08702
      vertex 25 -28.64 0
      vertex 0.510316 -28.64 0
    endloop
  endfacet
  facet normal 0 -1 0
    outer loop
      vertex 0.874795 -28.64 -4.27443
      vertex 25 -28.64 0
      vertex 0.858815 -28.64 -4.08702
    endloop
  endfacet
  facet normal 0 -1 0
    outer loop
      vertex 1.92094 -28.64 -8.28263
      vertex 25 -28.64 0
      vertex 0.874795 -28.64 -4.27443
    endloop
  endfacet
  facet normal 0 -1 0
    outer loop
      vertex 1.95837 -28.64 -8.42607
      vertex 25 -28.64 0
      vertex 1.92094 -28.64 -8.28263
    endloop
  endfacet
  facet normal 0 -1 0
    outer loop
      vertex 3.69794 -28.64 -12.2607
      vertex 25 -28.64 0
      vertex 1.95837 -28.64 -8.42607
    endloop
  endfacet
  facet normal 0 -1 0
    outer loop
      vertex 5.87463 -28.64 -15.4878
      vertex 3.69794 -28.64 -12.2607
      vertex 3.73165 -28.64 -12.335
    endloop
  endfacet
  facet normal 0 -1 0
    outer loop
      vertex 3.69794 -28.64 -12.2607
      vertex 5.87463 -28.64 -15.4878
      vertex 25 -28.64 0
    endloop
  endfacet
  facet normal 0 -1 0
    outer loop
      vertex 6.15619 -28.64 -15.888
      vertex 5.87463 -28.64 -15.4878
      vertex 6.15016 -28.64 -15.882
    endloop
  endfacet
  facet normal 0 -1 0
    outer loop
      vertex 5.87463 -28.64 -15.4878
      vertex 6.15619 -28.64 -15.888
      vertex 25 -28.64 0
    endloop
  endfacet
  facet normal 0 -1 0
    outer loop
      vertex 9.17144 -28.64 -18.902
      vertex 25 -28.64 0
      vertex 6.15619 -28.64 -15.888
    endloop
  endfacet
  facet normal 0 -1 0
    outer loop
      vertex 9.25509 -28.64 -18.9604
      vertex 25 -28.64 0
      vertex 9.17144 -28.64 -18.902
    endloop
  endfacet
  facet normal 0 -1 0
    outer loop
      vertex 12.6613 -28.64 -21.3359
      vertex 25 -28.64 0
      vertex 9.25509 -28.64 -18.9604
    endloop
  endfacet
  facet normal 0 -1 0
    outer loop
      vertex 12.8521 -28.64 -21.4238
      vertex 25 -28.64 0
      vertex 12.6613 -28.64 -21.3359
    endloop
  endfacet
  facet normal 0 -1 0
    outer loop
      vertex 16.5099 -28.64 -23.1111
      vertex 25 -28.64 0
      vertex 12.8521 -28.64 -21.4238
    endloop
  endfacet
  facet normal 0 -1 0
    outer loop
      vertex 16.8285 -28.64 -23.1941
      vertex 25 -28.64 0
      vertex 16.5099 -28.64 -23.1111
    endloop
  endfacet
  facet normal 0 -1 0
    outer loop
      vertex 20.5972 -28.64 -24.1765
      vertex 25 -28.64 0
      vertex 16.8285 -28.64 -23.1941
    endloop
  endfacet
  facet normal 0 -1 0
    outer loop
      vertex 21.0516 -28.64 -24.2118
      vertex 25 -28.64 0
      vertex 20.5972 -28.64 -24.1765
    endloop
  endfacet
  facet normal 0 -1 0
    outer loop
      vertex 21.0516 -28.64 -24.2118
      vertex 25 -28.64 -24.4831
      vertex 25 -28.64 0
    endloop
  endfacet
  facet normal -0 -1 0
    outer loop
      vertex 25 -28.64 -24.4831
      vertex 21.0516 -28.64 -24.2118
      vertex 24.797 -28.64 -24.5033
    endloop
  endfacet
  facet normal 0.0427947 0.196561 -0.979557
    outer loop
      vertex 25 -26.7153 -24.6866
      vertex 25 -26.8359 -24.7108
      vertex 24.9968 -26.8362 -24.711
    endloop
  endfacet
  facet normal 0.0982472 -0.124562 -0.987336
    outer loop
      vertex 24.797 -28.64 -24.5033
      vertex 25 -26.851 -24.7088
      vertex 25 -28.64 -24.4831
    endloop
  endfacet
  facet normal 0.10113 -0.124852 -0.987008
    outer loop
      vertex 25 -26.851 -24.7088
      vertex 24.797 -28.64 -24.5033
      vertex 24.9968 -26.8362 -24.711
    endloop
  endfacet
  facet normal 0.0740646 -0.130943 -0.988619
    outer loop
      vertex 25 -26.8359 -24.7108
      vertex 25 -26.851 -24.7088
      vertex 24.9968 -26.8362 -24.711
    endloop
  endfacet
  facet normal -0.972659 0.216922 -0.0829384
    outer loop
      vertex 0.510316 -28.64 0
      vertex 2.19705 -21.48 -1.05443
      vertex 0.858815 -28.64 -4.08702
    endloop
  endfacet
  facet normal -0.972659 0.216923 -0.0829375
    outer loop
      vertex 2.19705 -21.48 -1.05443
      vertex 0.510316 -28.64 0
      vertex 2.10714 -21.48 0
    endloop
  endfacet
  facet normal -0.97266 0.216921 -0.0829363
    outer loop
      vertex 0.858815 -28.64 -4.08702
      vertex 2.45058 -21.48 -4.02781
      vertex 0.874795 -28.64 -4.27443
    endloop
  endfacet
  facet normal -0.97266 0.216921 -0.0829354
    outer loop
      vertex 2.45058 -21.48 -4.02781
      vertex 0.858815 -28.64 -4.08702
      vertex 2.19705 -21.48 -1.05443
    endloop
  endfacet
  facet normal -0.94466 0.216395 -0.246557
    outer loop
      vertex 0.874795 -28.64 -4.27443
      vertex 2.72308 -21.48 -5.07185
      vertex 1.92094 -28.64 -8.28263
    endloop
  endfacet
  facet normal -0.944659 0.216395 -0.246561
    outer loop
      vertex 2.72308 -21.48 -5.07185
      vertex 0.874795 -28.64 -4.27443
      vertex 2.45058 -21.48 -4.02781
    endloop
  endfacet
  facet normal -0.944673 0.216395 -0.246508
    outer loop
      vertex 1.92094 -28.64 -8.28263
      vertex 3.47164 -21.48 -7.93991
      vertex 1.95837 -28.64 -8.42607
    endloop
  endfacet
  facet normal -0.944661 0.216395 -0.246555
    outer loop
      vertex 3.47164 -21.48 -7.93991
      vertex 1.92094 -28.64 -8.28263
      vertex 2.72308 -21.48 -5.07185
    endloop
  endfacet
  facet normal -0.889307 0.215348 -0.403432
    outer loop
      vertex 1.95837 -28.64 -8.42607
      vertex 3.93741 -21.48 -8.96664
      vertex 3.69794 -28.64 -12.2607
    endloop
  endfacet
  facet normal -0.889309 0.215348 -0.40343
    outer loop
      vertex 3.93741 -21.48 -8.96664
      vertex 1.95837 -28.64 -8.42607
      vertex 3.47164 -21.48 -7.93991
    endloop
  endfacet
  facet normal -0.889289 0.215348 -0.403472
    outer loop
      vertex 3.69794 -28.64 -12.2607
      vertex 5.1426 -21.48 -11.6233
      vertex 3.73165 -28.64 -12.335
    endloop
  endfacet
  facet normal -0.889307 0.215348 -0.403433
    outer loop
      vertex 5.1426 -21.48 -11.6233
      vertex 3.69794 -28.64 -12.2607
      vertex 3.93741 -21.48 -8.96664
    endloop
  endfacet
  facet normal -0.80789 0.213802 -0.549184
    outer loop
      vertex 5.87463 -28.64 -15.4878
      vertex 5.81865 -21.48 -12.618
      vertex 6.15077 -28.614 -15.8839
    endloop
  endfacet
  facet normal -0.807918 0.213787 -0.549148
    outer loop
      vertex 3.73165 -28.64 -12.335
      vertex 5.81865 -21.48 -12.618
      vertex 5.87463 -28.64 -15.4878
    endloop
  endfacet
  facet normal -0.807938 0.213794 -0.549117
    outer loop
      vertex 5.81865 -21.48 -12.618
      vertex 3.73165 -28.64 -12.335
      vertex 5.1426 -21.48 -11.6233
    endloop
  endfacet
  facet normal -0.807908 0.213791 -0.549162
    outer loop
      vertex 7.41779 -21.48 -14.9706
      vertex 6.15077 -28.614 -15.8839
      vertex 5.81865 -21.48 -12.618
    endloop
  endfacet
  facet normal -0.819422 -0.0226294 -0.572743
    outer loop
      vertex 6.15077 -28.614 -15.8839
      vertex 6.15016 -28.64 -15.882
      vertex 5.87463 -28.64 -15.4878
    endloop
  endfacet
  facet normal -0.702475 0.211743 -0.679481
    outer loop
      vertex 6.15077 -28.614 -15.8839
      vertex 8.32357 -21.48 -15.9071
      vertex 9.18311 -28.3279 -18.9297
    endloop
  endfacet
  facet normal -0.702498 0.21175 -0.679454
    outer loop
      vertex 8.32357 -21.48 -15.9071
      vertex 6.15077 -28.614 -15.8839
      vertex 7.41779 -21.48 -14.9706
    endloop
  endfacet
  facet normal -0.702457 0.211752 -0.679496
    outer loop
      vertex 10.2344 -21.48 -17.8825
      vertex 9.18311 -28.3279 -18.9297
      vertex 8.32357 -21.48 -15.9071
    endloop
  endfacet
  facet normal -0.704903 -0.0352316 -0.708428
    outer loop
      vertex 6.15077 -28.614 -15.8839
      vertex 6.15619 -28.64 -15.888
      vertex 6.15016 -28.64 -15.882
    endloop
  endfacet
  facet normal -0.706494 -0.0363128 -0.706787
    outer loop
      vertex 6.15619 -28.64 -15.888
      vertex 9.18311 -28.3279 -18.9297
      vertex 9.17144 -28.64 -18.902
    endloop
  endfacet
  facet normal -0.706531 -0.0358316 -0.706774
    outer loop
      vertex 9.18311 -28.3279 -18.9297
      vertex 6.15619 -28.64 -15.888
      vertex 6.15077 -28.614 -15.8839
    endloop
  endfacet
  facet normal -0.575706 0.209246 -0.790429
    outer loop
      vertex 12.6959 -27.9965 -21.4004
      vertex 10.2344 -21.48 -17.8825
      vertex 11.3866 -21.48 -18.7217
    endloop
  endfacet
  facet normal -0.575691 0.209256 -0.790438
    outer loop
      vertex 10.2344 -21.48 -17.8825
      vertex 12.6959 -27.9965 -21.4004
      vertex 9.18311 -28.3279 -18.9297
    endloop
  endfacet
  facet normal -0.575657 0.209268 -0.790459
    outer loop
      vertex 13.5136 -21.48 -20.2707
      vertex 12.6959 -27.9965 -21.4004
      vertex 11.3866 -21.48 -18.7217
    endloop
  endfacet
  facet normal -0.571688 -0.0513008 -0.818865
    outer loop
      vertex 9.18311 -28.3279 -18.9297
      vertex 9.25509 -28.64 -18.9604
      vertex 9.17144 -28.64 -18.902
    endloop
  endfacet
  facet normal -0.571276 -0.0513891 -0.819148
    outer loop
      vertex 9.25509 -28.64 -18.9604
      vertex 12.6959 -27.9965 -21.4004
      vertex 12.6613 -28.64 -21.3359
    endloop
  endfacet
  facet normal -0.571307 -0.051186 -0.819139
    outer loop
      vertex 12.6959 -27.9965 -21.4004
      vertex 9.25509 -28.64 -18.9604
      vertex 9.18311 -28.3279 -18.9297
    endloop
  endfacet
  facet normal -0.430924 0.206357 -0.878477
    outer loop
      vertex 12.6959 -27.9965 -21.4004
      vertex 14.9205 -21.48 -20.9609
      vertex 16.5825 -27.6299 -23.2208
    endloop
  endfacet
  facet normal -0.430956 0.206367 -0.878459
    outer loop
      vertex 14.9205 -21.48 -20.9609
      vertex 12.6959 -27.9965 -21.4004
      vertex 13.5136 -21.48 -20.2707
    endloop
  endfacet
  facet normal -0.43093 0.206354 -0.878474
    outer loop
      vertex 17.1623 -21.48 -22.0606
      vertex 16.5825 -27.6299 -23.2208
      vertex 14.9205 -21.48 -20.9609
    endloop
  endfacet
  facet normal -0.417445 -0.0683785 -0.906126
    outer loop
      vertex 12.6959 -27.9965 -21.4004
      vertex 12.8521 -28.64 -21.4238
      vertex 12.6613 -28.64 -21.3359
    endloop
  endfacet
  facet normal -0.417891 -0.0683504 -0.905922
    outer loop
      vertex 12.8521 -28.64 -21.4238
      vertex 16.5825 -27.6299 -23.2208
      vertex 16.5099 -28.64 -23.1111
    endloop
  endfacet
  facet normal -0.417857 -0.0684858 -0.905928
    outer loop
      vertex 16.5825 -27.6299 -23.2208
      vertex 12.8521 -28.64 -21.4238
      vertex 12.6959 -27.9965 -21.4004
    endloop
  endfacet
  facet normal -0.272284 0.203105 -0.940537
    outer loop
      vertex 16.5825 -27.6299 -23.2208
      vertex 18.8179 -21.48 -22.5399
      vertex 20.7248 -27.2391 -24.3356
    endloop
  endfacet
  facet normal -0.272287 0.203106 -0.940536
    outer loop
      vertex 18.8179 -21.48 -22.5399
      vertex 16.5825 -27.6299 -23.2208
      vertex 17.1623 -21.48 -22.0606
    endloop
  endfacet
  facet normal -0.272273 0.203109 -0.940539
    outer loop
      vertex 21.075 -21.48 -23.1933
      vertex 20.7248 -27.2391 -24.3356
      vertex 18.8179 -21.48 -22.5399
    endloop
  endfacet
  facet normal -0.251152 -0.0866487 -0.964061
    outer loop
      vertex 16.5825 -27.6299 -23.2208
      vertex 16.8285 -28.64 -23.1941
      vertex 16.5099 -28.64 -23.1111
    endloop
  endfacet
  facet normal -0.251297 -0.0865954 -0.964029
    outer loop
      vertex 16.8285 -28.64 -23.1941
      vertex 20.7248 -27.2391 -24.3356
      vertex 20.5972 -28.64 -24.1765
    endloop
  endfacet
  facet normal -0.251268 -0.086676 -0.964029
    outer loop
      vertex 20.7248 -27.2391 -24.3356
      vertex 16.8285 -28.64 -23.1941
      vertex 16.5825 -27.6299 -23.2208
    endloop
  endfacet
  facet normal -0.10444 0.199593 -0.974297
    outer loop
      vertex 20.7248 -27.2391 -24.3356
      vertex 22.9544 -21.48 -23.3948
      vertex 24.9968 -26.8362 -24.711
    endloop
  endfacet
  facet normal -0.104459 0.1996 -0.974294
    outer loop
      vertex 22.9544 -21.48 -23.3948
      vertex 20.7248 -27.2391 -24.3356
      vertex 21.075 -21.48 -23.1933
    endloop
  endfacet
  facet normal -0.104921 0.199407 -0.974284
    outer loop
      vertex 22.9544 -21.48 -23.3948
      vertex 25 -26.7153 -24.6866
      vertex 24.9968 -26.8362 -24.711
    endloop
  endfacet
  facet normal -0.10445 0.199594 -0.974296
    outer loop
      vertex 25 -26.7153 -24.6866
      vertex 22.9544 -21.48 -23.3948
      vertex 25 -21.48 -23.6141
    endloop
  endfacet
  facet normal -0.0770186 -0.105581 -0.991424
    outer loop
      vertex 20.7248 -27.2391 -24.3356
      vertex 21.0516 -28.64 -24.2118
      vertex 20.5972 -28.64 -24.1765
    endloop
  endfacet
  facet normal -0.0771602 -0.10561 -0.99141
    outer loop
      vertex 21.0516 -28.64 -24.2118
      vertex 24.9968 -26.8362 -24.711
      vertex 24.797 -28.64 -24.5033
    endloop
  endfacet
  facet normal -0.0771592 -0.105612 -0.991409
    outer loop
      vertex 24.9968 -26.8362 -24.711
      vertex 21.0516 -28.64 -24.2118
      vertex 20.7248 -27.2391 -24.3356
    endloop
  endfacet
endsolid OpenSCAD_Model
