solid OpenSCAD_Model
  facet normal 1 0 0
    outer loop
      vertex 25 -7.16 0
      vertex 25 -0.0194869 0.233737
      vertex 25 -0.0237138 0.482331
    endloop
  endfacet
  facet normal 1 0 0
    outer loop
      vertex 25 -7.16 0
      vertex 25 -0.0237138 0.482331
      vertex 25 -0.0315556 0.764675
    endloop
  endfacet
  facet normal 1 0 0
    outer loop
      vertex 25 -7.16 0
      vertex 25 -0.0315556 0.764675
      vertex 25 -0.0445911 1.11032
    endloop
  endfacet
  facet normal 1 0 0
    outer loop
      vertex 25 -0.078885 1.57313
      vertex 25 -0.0445911 1.11032
      vertex 25 -0.0597682 1.43653
    endloop
  endfacet
  facet normal 1 0 0
    outer loop
      vertex 25 -0.0936291 1.66384
      vertex 25 -0.0445911 1.11032
      vertex 25 -0.078885 1.57313
    endloop
  endfacet
  facet normal 1 0 0
    outer loop
      vertex 25 -0.0445911 1.11032
      vertex 25 -0.0936291 1.66384
      vertex 25 -7.16 0
    endloop
  endfacet
  facet normal 1 0 0
    outer loop
      vertex 25 -7.16 0
      vertex 25 -0.0936291 1.66384
      vertex 25 -0.191816 2.26796
    endloop
  endfacet
  facet normal 1 0 0
    outer loop
      vertex 25 -7.16 0
      vertex 25 -0.191816 2.26796
      vertex 25 -0.402186 3.43452
    endloop
  endfacet
  facet normal 1 0 0
    outer loop
      vertex 25 -0.54252 3.95915
      vertex 25 -0.402186 3.43452
      vertex 25 -0.420927 3.53845
    endloop
  endfacet
  facet normal 1 0 0
    outer loop
      vertex 25 -0.54252 3.95915
      vertex 25 -0.420927 3.53845
      vertex 25 -0.444253 3.65944
    endloop
  endfacet
  facet normal 1 0 0
    outer loop
      vertex 25 -0.402186 3.43452
      vertex 25 -0.54252 3.95915
      vertex 25 -7.16 0
    endloop
  endfacet
  facet normal 1 0 0
    outer loop
      vertex 25 -7.16 0
      vertex 25 -0.54252 3.95915
      vertex 25 -1.07775 5.59157
    endloop
  endfacet
  facet normal 1 0 0
    outer loop
      vertex 25 -7.16 0
      vertex 25 -1.07775 5.59157
      vertex 25 -1.4304 6.76632
    endloop
  endfacet
  facet normal 1 0 0
    outer loop
      vertex 25 -7.16 0
      vertex 25 -1.4304 6.76632
      vertex 25 -1.62672 7.39723
    endloop
  endfacet
  facet normal 1 0 0
    outer loop
      vertex 25 -7.16 0
      vertex 25 -1.62672 7.39723
      vertex 25 -1.69158 7.57049
    endloop
  endfacet
  facet normal 1 0 0
    outer loop
      vertex 25 -2.62414 9.72327
      vertex 25 -1.69158 7.57049
      vertex 25 -2.32723 9.26847
    endloop
  endfacet
  facet normal 1 0 0
    outer loop
      vertex 25 -1.69158 7.57049
      vertex 25 -2.62414 9.72327
      vertex 25 -7.16 0
    endloop
  endfacet
  facet normal 1 0 0
    outer loop
      vertex 25 -7.16 0
      vertex 25 -2.62414 9.72327
      vertex 25 -3.62668 11.259
    endloop
  endfacet
  facet normal 1 0 0
    outer loop
      vertex 25 -7.16 0
      vertex 25 -3.62668 11.259
      vertex 25 -4.29792 12.2491
    endloop
  endfacet
  facet normal 1 0 0
    outer loop
      vertex 25 -7.16 0
      vertex 25 -4.29792 12.2491
      vertex 25 -5.1084 13.4446
    endloop
  endfacet
  facet normal 1 0 0
    outer loop
      vertex 25 -7.16 15.7524
      vertex 25 -5.1084 13.4446
      vertex 25 -6.2037 14.8955
    endloop
  endfacet
  facet normal 1 0 0
    outer loop
      vertex 25 -7.06193 15.7024
      vertex 25 -6.2037 14.8955
      vertex 25 -6.74707 15.5417
    endloop
  endfacet
  facet normal 1 0 0
    outer loop
      vertex 25 -7.16 15.7524
      vertex 25 -6.2037 14.8955
      vertex 25 -7.06193 15.7024
    endloop
  endfacet
  facet normal 1 0 0
    outer loop
      vertex 25 -5.1084 13.4446
      vertex 25 -7.16 15.7524
      vertex 25 -7.16 0
    endloop
  endfacet
  facet normal 1 0 0
    outer loop
      vertex 25 -0.0194869 0.233737
      vertex 25 -7.16 0
      vertex 25 -0.018149 0
    endloop
  endfacet
  facet normal 0 0 -1
    outer loop
      vertex 25 -7.16 0
      vertex 23.672 -0.0561466 0
      vertex 25 -0.018149 0
    endloop
  endfacet
  facet normal 0 0 -1
    outer loop
      vertex 25 -7.16 0
      vertex 21.7348 -0.367783 0
      vertex 23.672 -0.0561466 0
    endloop
  endfacet
  facet normal 0 0 -1
    outer loop
      vertex 25 -7.16 0
      vertex 19.8549 -0.929606 0
      vertex 21.7348 -0.367783 0
    endloop
  endfacet
  facet normal 0 0 -1
    outer loop
      vertex 25 -7.16 0
      vertex 18.0643 -1.73201 0
      vertex 19.8549 -0.929606 0
    endloop
  endfacet
  facet normal 0 0 -1
    outer loop
      vertex 25 -7.16 0
      vertex 16.3637 -2.4414 0
      vertex 18.0643 -1.73201 0
    endloop
  endfacet
  facet normal 0 0 -1
    outer loop
      vertex 25 -7.16 0
      vertex 14.4174 -3.32552 0
      vertex 16.3637 -2.4414 0
    endloop
  endfacet
  facet normal 0 0 -1
    outer loop
      vertex 25 -7.16 0
      vertex 12.4132 -4.81402 0
      vertex 14.4174 -3.32552 0
    endloop
  endfacet
  facet normal 0 0 -1
    outer loop
      vertex 10.374 -7.16 0
      vertex 12.4132 -4.81402 0
      vertex 25 -7.16 0
    endloop
  endfacet
  facet normal 0 0 -1
    outer loop
      vertex 12.4132 -4.81402 0
      vertex 10.374 -7.16 0
      vertex 10.6971 -6.45763 0
    endloop
  endfacet
  facet normal 0 -1 0
    outer loop
      vertex 22.4843 -7.16 15.3603
      vertex 24.8841 -7.16 15.7366
      vertex 22.7646 -7.16 15.4484
    endloop
  endfacet
  facet normal 0 -1 0
    outer loop
      vertex 25 -7.16 0
      vertex 24.8841 -7.16 15.7366
      vertex 22.4843 -7.16 15.3603
    endloop
  endfacet
  facet normal 0 -1 0
    outer loop
      vertex 25 -7.16 0
      vertex 22.4843 -7.16 15.3603
      vertex 20.6226 -7.16 14.7759
    endloop
  endfacet
  facet normal 0 -1 0
    outer loop
      vertex 25 -7.16 0
      vertex 20.6226 -7.16 14.7759
      vertex 20.1595 -7.16 14.6036
    endloop
  endfacet
  facet normal 0 -1 0
    outer loop
      vertex 25 -7.16 0
      vertex 20.1595 -7.16 14.6036
      vertex 20.0971 -7.16 14.5804
    endloop
  endfacet
  facet normal 0 -1 0
    outer loop
      vertex 25 -7.16 0
      vertex 20.0971 -7.16 14.5804
      vertex 17.954 -7.16 13.3703
    endloop
  endfacet
  facet normal 0 -1 0
    outer loop
      vertex 25 -7.16 0
      vertex 17.954 -7.16 13.3703
      vertex 17.6229 -7.16 13.1833
    endloop
  endfacet
  facet normal 0 -1 0
    outer loop
      vertex 25 -7.16 0
      vertex 17.6229 -7.16 13.1833
      vertex 15.978 -7.16 11.8733
    endloop
  endfacet
  facet normal 0 -1 0
    outer loop
      vertex 25 -7.16 0
      vertex 15.978 -7.16 11.8733
      vertex 15.4658 -7.16 11.4654
    endloop
  endfacet
  facet normal 0 -1 0
    outer loop
      vertex 25 -7.16 0
      vertex 15.4658 -7.16 11.4654
      vertex 14.2583 -7.16 10.1391
    endloop
  endfacet
  facet normal 0 -1 0
    outer loop
      vertex 25 -7.16 0
      vertex 14.2583 -7.16 10.1391
      vertex 13.6611 -7.16 9.48308
    endloop
  endfacet
  facet normal 0 -1 0
    outer loop
      vertex 25 -7.16 0
      vertex 13.6611 -7.16 9.48308
      vertex 12.8217 -7.16 8.1936
    endloop
  endfacet
  facet normal 0 -1 0
    outer loop
      vertex 25 -7.16 0
      vertex 12.8217 -7.16 8.1936
      vertex 12.2348 -7.16 7.29196
    endloop
  endfacet
  facet normal 0 -1 0
    outer loop
      vertex 25 -7.16 0
      vertex 12.2348 -7.16 7.29196
      vertex 11.6954 -7.16 6.06367
    endloop
  endfacet
  facet normal 0 -1 0
    outer loop
      vertex 25 -7.16 0
      vertex 11.6954 -7.16 6.06367
      vertex 11.2046 -7.16 4.94621
    endloop
  endfacet
  facet normal 0 -1 0
    outer loop
      vertex 25 -7.16 0
      vertex 11.2046 -7.16 4.94621
      vertex 10.9076 -7.16 3.77812
    endloop
  endfacet
  facet normal 0 -1 0
    outer loop
      vertex 25 -7.16 0
      vertex 10.9076 -7.16 3.77812
      vertex 10.5821 -7.16 2.49844
    endloop
  endfacet
  facet normal 0 -1 0
    outer loop
      vertex 25 -7.16 0
      vertex 10.5821 -7.16 2.49844
      vertex 10.4881 -7.16 1.36956
    endloop
  endfacet
  facet normal 0 -1 0
    outer loop
      vertex 25 -7.16 0
      vertex 10.4881 -7.16 1.36956
      vertex 10.374 -7.16 0
    endloop
  endfacet
  facet normal 0 -1 0
    outer loop
      vertex 24.8841 -7.16 15.7366
      vertex 25 -7.16 0
      vertex 25 -7.16 15.7524
    endloop
  endfacet
  facet normal -0.0286005 0.999575 0.00572152
    outer loop
      vertex 25 -0.0194869 0.233737
      vertex 25 -0.018149 0
      vertex 23.672 -0.0561466 0
    endloop
  endfacet
  facet normal -0.0305791 0.999388 0.0169928
    outer loop
      vertex 25 -0.0237138 0.482331
      vertex 25 -0.0194869 0.233737
      vertex 23.672 -0.0561466 0
    endloop
  endfacet
  facet normal -0.034476 0.99902 0.0277467
    outer loop
      vertex 25 -0.0315556 0.764675
      vertex 25 -0.0237138 0.482331
      vertex 23.672 -0.0561466 0
    endloop
  endfacet
  facet normal -0.0401721 0.998483 0.0376563
    outer loop
      vertex 25 -0.0445911 1.11032
      vertex 25 -0.0315556 0.764675
      vertex 23.672 -0.0561466 0
    endloop
  endfacet
  facet normal -0.0475081 0.997792 0.0464228
    outer loop
      vertex 25 -0.0445911 1.11032
      vertex 24.937 -0.0657129 1.49983
      vertex 25 -0.0597682 1.43653
    endloop
  endfacet
  facet normal -0.0474971 0.997792 0.0464246
    outer loop
      vertex 24.937 -0.0657129 1.49983
      vertex 25 -0.0445911 1.11032
      vertex 23.672 -0.0561466 0
    endloop
  endfacet
  facet normal 0.045759 0.989312 0.138451
    outer loop
      vertex 25 -0.078885 1.57313
      vertex 25 -0.0597682 1.43653
      vertex 24.937 -0.0657129 1.49983
    endloop
  endfacet
  facet normal -0.0562253 0.996969 0.0537809
    outer loop
      vertex 24.6587 -0.0919676 1.69558
      vertex 24.937 -0.0657129 1.49983
      vertex 23.672 -0.0561466 0
    endloop
  endfacet
  facet normal 0.0197033 0.986855 0.160404
    outer loop
      vertex 25 -0.0936291 1.66384
      vertex 25 -0.078885 1.57313
      vertex 24.937 -0.0657129 1.49983
    endloop
  endfacet
  facet normal 0.0197203 0.986856 0.160393
    outer loop
      vertex 25 -0.0936291 1.66384
      vertex 24.6587 -0.0919676 1.69558
      vertex 25 -0.191816 2.26796
    endloop
  endfacet
  facet normal 0.0197207 0.986855 0.160398
    outer loop
      vertex 24.6587 -0.0919676 1.69558
      vertex 25 -0.0936291 1.66384
      vertex 24.937 -0.0657129 1.49983
    endloop
  endfacet
  facet normal -0.06608 0.996039 0.059496
    outer loop
      vertex 24.3507 -0.121017 1.83982
      vertex 24.6587 -0.0919676 1.69558
      vertex 23.672 -0.0561466 0
    endloop
  endfacet
  facet normal -0.00971959 0.98408 0.177463
    outer loop
      vertex 25 -0.402186 3.43452
      vertex 25 -0.191816 2.26796
      vertex 24.6587 -0.0919676 1.69558
    endloop
  endfacet
  facet normal -0.00968859 0.984082 0.177453
    outer loop
      vertex 25 -0.402186 3.43452
      vertex 24.3507 -0.121017 1.83982
      vertex 25 -0.420927 3.53845
    endloop
  endfacet
  facet normal -0.00970793 0.98408 0.17746
    outer loop
      vertex 24.3507 -0.121017 1.83982
      vertex 25 -0.402186 3.43452
      vertex 24.6587 -0.0919676 1.69558
    endloop
  endfacet
  facet normal -0.0767969 0.995028 0.0634138
    outer loop
      vertex 24.0225 -0.151977 1.92815
      vertex 24.3507 -0.121017 1.83982
      vertex 23.672 -0.0561466 0
    endloop
  endfacet
  facet normal -0.0416422 0.981066 0.189143
    outer loop
      vertex 25 -0.420927 3.53845
      vertex 24.3912 -0.501687 3.82331
      vertex 25 -0.444253 3.65944
    endloop
  endfacet
  facet normal -0.0416454 0.981067 0.189136
    outer loop
      vertex 24.3912 -0.501687 3.82331
      vertex 25 -0.420927 3.53845
      vertex 24.3507 -0.121017 1.83982
    endloop
  endfacet
  facet normal -0.0416437 0.981067 0.189136
    outer loop
      vertex 24.3912 -0.501687 3.82331
      vertex 24.3507 -0.121017 1.83982
      vertex 24.0225 -0.151977 1.92815
    endloop
  endfacet
  facet normal -0.00576415 0.950212 0.311551
    outer loop
      vertex 25 -1.07775 5.59157
      vertex 25 -0.54252 3.95915
      vertex 24.7716 -1.09929 5.65304
    endloop
  endfacet
  facet normal -0.00578306 0.950213 0.311549
    outer loop
      vertex 25 -0.54252 3.95915
      vertex 24.3912 -0.501687 3.82331
      vertex 24.7716 -1.09929 5.65304
    endloop
  endfacet
  facet normal -0.0057833 0.950212 0.31155
    outer loop
      vertex 24.3912 -0.501687 3.82331
      vertex 25 -0.54252 3.95915
      vertex 25 -0.444253 3.65944
    endloop
  endfacet
  facet normal -0.0129449 0.957696 0.287492
    outer loop
      vertex 25 -1.4304 6.76632
      vertex 25 -1.07775 5.59157
      vertex 24.7716 -1.09929 5.65304
    endloop
  endfacet
  facet normal -0.0880132 0.99397 0.0654001
    outer loop
      vertex 23.684 -0.183907 1.95789
      vertex 24.0225 -0.151977 1.92815
      vertex 23.672 -0.0561466 0
    endloop
  endfacet
  facet normal -0.0751038 0.977911 0.195063
    outer loop
      vertex 24.3912 -0.501687 3.82331
      vertex 24.0225 -0.151977 1.92815
      vertex 23.72 -0.565 3.88229
    endloop
  endfacet
  facet normal -0.0751064 0.977911 0.195063
    outer loop
      vertex 23.72 -0.565 3.88229
      vertex 24.0225 -0.151977 1.92815
      vertex 23.684 -0.183907 1.95789
    endloop
  endfacet
  facet normal -0.0609134 0.945012 0.321312
    outer loop
      vertex 24.7716 -1.09929 5.65304
      vertex 24.3912 -0.501687 3.82331
      vertex 23.7792 -1.19291 5.74025
    endloop
  endfacet
  facet normal -0.0609065 0.945012 0.321314
    outer loop
      vertex 23.7792 -1.19291 5.74025
      vertex 24.3912 -0.501687 3.82331
      vertex 23.72 -0.565 3.88229
    endloop
  endfacet
  facet normal -0.0638232 0.952894 0.296512
    outer loop
      vertex 25 -1.4304 6.76632
      vertex 23.8305 -1.73703 7.5
      vertex 25 -1.62672 7.39723
    endloop
  endfacet
  facet normal -0.0638286 0.952896 0.296504
    outer loop
      vertex 23.8305 -1.73703 7.5
      vertex 25 -1.4304 6.76632
      vertex 24.7716 -1.09929 5.65304
    endloop
  endfacet
  facet normal -0.0638377 0.952897 0.2965
    outer loop
      vertex 23.8305 -1.73703 7.5
      vertex 24.7716 -1.09929 5.65304
      vertex 23.7792 -1.19291 5.74025
    endloop
  endfacet
  facet normal -0.0574434 0.934981 0.350016
    outer loop
      vertex 25 -2.32723 9.26847
      vertex 25 -1.69158 7.57049
      vertex 23.7539 -2.44478 9.37797
    endloop
  endfacet
  facet normal -0.057433 0.934979 0.350023
    outer loop
      vertex 25 -1.69158 7.57049
      vertex 23.8305 -1.73703 7.5
      vertex 23.7539 -2.44478 9.37797
    endloop
  endfacet
  facet normal -0.0574325 0.934983 0.350012
    outer loop
      vertex 23.8305 -1.73703 7.5
      vertex 25 -1.69158 7.57049
      vertex 25 -1.62672 7.39723
    endloop
  endfacet
  facet normal -0.0309417 0.836966 0.54638
    outer loop
      vertex 25 -3.62668 11.259
      vertex 25 -2.62414 9.72327
      vertex 23.7332 -3.74617 11.3703
    endloop
  endfacet
  facet normal -0.0309352 0.836964 0.546383
    outer loop
      vertex 25 -2.62414 9.72327
      vertex 23.7539 -2.44478 9.37797
      vertex 23.7332 -3.74617 11.3703
    endloop
  endfacet
  facet normal -0.0309396 0.836956 0.546395
    outer loop
      vertex 23.7539 -2.44478 9.37797
      vertex 25 -2.62414 9.72327
      vertex 25 -2.32723 9.26847
    endloop
  endfacet
  facet normal -0.0287993 0.827374 0.560912
    outer loop
      vertex 25 -5.1084 13.4446
      vertex 25 -4.29792 12.2491
      vertex 24.1561 -5.18801 13.5187
    endloop
  endfacet
  facet normal -0.0287681 0.827366 0.560927
    outer loop
      vertex 25 -4.29792 12.2491
      vertex 23.7332 -3.74617 11.3703
      vertex 24.1561 -5.18801 13.5187
    endloop
  endfacet
  facet normal -0.0287594 0.827372 0.560918
    outer loop
      vertex 23.7332 -3.74617 11.3703
      vertex 25 -4.29792 12.2491
      vertex 25 -3.62668 11.259
    endloop
  endfacet
  facet normal -0.0223812 0.797915 0.602355
    outer loop
      vertex 25 -6.2037 14.8955
      vertex 25 -5.1084 13.4446
      vertex 24.1561 -5.18801 13.5187
    endloop
  endfacet
  facet normal -0.0994299 0.992893 0.0653998
    outer loop
      vertex 23.684 -0.183907 1.95789
      vertex 23.672 -0.0561466 0
      vertex 23.3456 -0.215836 1.92815
    endloop
  endfacet
  facet normal -0.109083 0.974706 0.195064
    outer loop
      vertex 23.72 -0.565 3.88229
      vertex 23.684 -0.183907 1.95789
      vertex 23.0488 -0.628313 3.82331
    endloop
  endfacet
  facet normal -0.109108 0.974705 0.195055
    outer loop
      vertex 23.684 -0.183907 1.95789
      vertex 23.3456 -0.215836 1.92815
      vertex 23.0488 -0.628313 3.82331
    endloop
  endfacet
  facet normal -0.116878 0.939733 0.321313
    outer loop
      vertex 23.7792 -1.19291 5.74025
      vertex 23.72 -0.565 3.88229
      vertex 22.7868 -1.28652 5.65304
    endloop
  endfacet
  facet normal -0.116878 0.939733 0.321313
    outer loop
      vertex 23.72 -0.565 3.88229
      vertex 23.0488 -0.628313 3.82331
      vertex 22.7868 -1.28652 5.65304
    endloop
  endfacet
  facet normal -0.115491 0.948024 0.296499
    outer loop
      vertex 23.8305 -1.73703 7.5
      vertex 23.7792 -1.19291 5.74025
      vertex 22.5339 -1.85935 7.38606
    endloop
  endfacet
  facet normal -0.11548 0.948023 0.296506
    outer loop
      vertex 23.7792 -1.19291 5.74025
      vertex 22.7868 -1.28652 5.65304
      vertex 22.5339 -1.85935 7.38606
    endloop
  endfacet
  facet normal -0.118202 0.930774 0.345959
    outer loop
      vertex 23.7539 -2.44478 9.37797
      vertex 23.8305 -1.73703 7.5
      vertex 22.1326 -2.59772 9.2355
    endloop
  endfacet
  facet normal -0.118209 0.930776 0.345953
    outer loop
      vertex 23.8305 -1.73703 7.5
      vertex 22.5339 -1.85935 7.38606
      vertex 22.1326 -2.59772 9.2355
    endloop
  endfacet
  facet normal -0.126014 0.831142 0.541593
    outer loop
      vertex 23.7332 -3.74617 11.3703
      vertex 23.7539 -2.44478 9.37797
      vertex 21.7675 -3.9316 11.1975
    endloop
  endfacet
  facet normal -0.125996 0.831136 0.541608
    outer loop
      vertex 23.7539 -2.44478 9.37797
      vertex 22.1326 -2.59772 9.2355
      vertex 21.7675 -3.9316 11.1975
    endloop
  endfacet
  facet normal -0.126651 0.811937 0.56984
    outer loop
      vertex 24.1561 -5.18801 13.5187
      vertex 23.7332 -3.74617 11.3703
      vertex 21.819 -5.40848 13.3134
    endloop
  endfacet
  facet normal -0.126685 0.811948 0.569816
    outer loop
      vertex 21.819 -5.40848 13.3134
      vertex 23.7332 -3.74617 11.3703
      vertex 21.7675 -3.9316 11.1975
    endloop
  endfacet
  facet normal -0.127703 0.75911 0.638313
    outer loop
      vertex 25 -6.2037 14.8955
      vertex 22.7254 -6.96163 15.3418
      vertex 25 -6.74707 15.5417
    endloop
  endfacet
  facet normal -0.12771 0.759122 0.638297
    outer loop
      vertex 22.7254 -6.96163 15.3418
      vertex 25 -6.2037 14.8955
      vertex 24.1561 -5.18801 13.5187
    endloop
  endfacet
  facet normal -0.127683 0.759115 0.638312
    outer loop
      vertex 22.7254 -6.96163 15.3418
      vertex 24.1561 -5.18801 13.5187
      vertex 21.819 -5.40848 13.3134
    endloop
  endfacet
  facet normal -0.120565 0.4509 0.884395
    outer loop
      vertex 25 -7.16 15.7524
      vertex 25 -7.06193 15.7024
      vertex 24.8841 -7.16 15.7366
    endloop
  endfacet
  facet normal -0.120941 0.451262 0.884158
    outer loop
      vertex 25 -6.74707 15.5417
      vertex 24.8841 -7.16 15.7366
      vertex 25 -7.06193 15.7024
    endloop
  endfacet
  facet normal -0.120272 0.451145 0.884309
    outer loop
      vertex 22.7254 -6.96163 15.3418
      vertex 24.8841 -7.16 15.7366
      vertex 25 -6.74707 15.5417
    endloop
  endfacet
  facet normal -0.120228 0.451388 0.884191
    outer loop
      vertex 24.8841 -7.16 15.7366
      vertex 22.7254 -6.96163 15.3418
      vertex 22.7646 -7.16 15.4484
    endloop
  endfacet
  facet normal -0.11063 0.991836 0.0634163
    outer loop
      vertex 23.3456 -0.215836 1.92815
      vertex 23.672 -0.0561466 0
      vertex 23.0174 -0.246796 1.83982
    endloop
  endfacet
  facet normal -0.142547 0.97155 0.189131
    outer loop
      vertex 23.0488 -0.628313 3.82331
      vertex 23.3456 -0.215836 1.92815
      vertex 22.398 -0.689703 3.64816
    endloop
  endfacet
  facet normal -0.14255 0.97155 0.18913
    outer loop
      vertex 23.3456 -0.215836 1.92815
      vertex 23.0174 -0.246796 1.83982
      vertex 22.398 -0.689703 3.64816
    endloop
  endfacet
  facet normal -0.172011 0.934532 0.311548
    outer loop
      vertex 22.7868 -1.28652 5.65304
      vertex 23.0488 -0.628313 3.82331
      vertex 21.8246 -1.37729 5.39407
    endloop
  endfacet
  facet normal -0.172003 0.934531 0.311554
    outer loop
      vertex 23.0488 -0.628313 3.82331
      vertex 22.398 -0.689703 3.64816
      vertex 21.8246 -1.37729 5.39407
    endloop
  endfacet
  facet normal -0.166352 0.943225 0.287496
    outer loop
      vertex 22.5339 -1.85935 7.38606
      vertex 22.7868 -1.28652 5.65304
      vertex 21.2767 -1.97794 7.04769
    endloop
  endfacet
  facet normal -0.166357 0.943225 0.287491
    outer loop
      vertex 22.7868 -1.28652 5.65304
      vertex 21.8246 -1.37729 5.39407
      vertex 21.2767 -1.97794 7.04769
    endloop
  endfacet
  facet normal -0.176678 0.926713 0.331644
    outer loop
      vertex 22.1326 -2.59772 9.2355
      vertex 22.5339 -1.85935 7.38606
      vertex 20.5606 -2.74601 8.81241
    endloop
  endfacet
  facet normal -0.176677 0.926713 0.331646
    outer loop
      vertex 22.5339 -1.85935 7.38606
      vertex 21.2767 -1.97794 7.04769
      vertex 20.5606 -2.74601 8.81241
    endloop
  endfacet
  facet normal -0.217986 0.825478 0.520643
    outer loop
      vertex 21.7675 -3.9316 11.1975
      vertex 22.1326 -2.59772 9.2355
      vertex 19.8616 -4.1114 10.6846
    endloop
  endfacet
  facet normal -0.217993 0.825481 0.520634
    outer loop
      vertex 22.1326 -2.59772 9.2355
      vertex 20.5606 -2.74601 8.81241
      vertex 19.8616 -4.1114 10.6846
    endloop
  endfacet
  facet normal -0.226144 0.79617 0.561224
    outer loop
      vertex 21.819 -5.40848 13.3134
      vertex 21.7675 -3.9316 11.1975
      vertex 19.5528 -5.62225 12.7035
    endloop
  endfacet
  facet normal -0.226142 0.796169 0.561226
    outer loop
      vertex 21.7675 -3.9316 11.1975
      vertex 19.8616 -4.1114 10.6846
      vertex 19.5528 -5.62225 12.7035
    endloop
  endfacet
  facet normal -0.243912 0.714314 0.655944
    outer loop
      vertex 21.819 -5.40848 13.3134
      vertex 20.6226 -7.16 14.7759
      vertex 22.7254 -6.96163 15.3418
    endloop
  endfacet
  facet normal -0.244025 0.714336 0.655878
    outer loop
      vertex 20.6226 -7.16 14.7759
      vertex 21.819 -5.40848 13.3134
      vertex 20.1595 -7.16 14.6036
    endloop
  endfacet
  facet normal -0.243891 0.714286 0.655983
    outer loop
      vertex 21.819 -5.40848 13.3134
      vertex 20.0971 -7.16 14.5804
      vertex 20.1595 -7.16 14.6036
    endloop
  endfacet
  facet normal -0.243917 0.714296 0.655961
    outer loop
      vertex 20.0971 -7.16 14.5804
      vertex 21.819 -5.40848 13.3134
      vertex 19.5528 -5.62225 12.7035
    endloop
  endfacet
  facet normal -0.273086 0.412939 0.868853
    outer loop
      vertex 22.7646 -7.16 15.4484
      vertex 22.7254 -6.96163 15.3418
      vertex 22.4843 -7.16 15.3603
    endloop
  endfacet
  facet normal -0.272812 0.412628 0.869087
    outer loop
      vertex 22.4843 -7.16 15.3603
      vertex 22.7254 -6.96163 15.3418
      vertex 20.6226 -7.16 14.7759
    endloop
  endfacet
  facet normal -0.121319 0.990828 0.0595089
    outer loop
      vertex 23.0174 -0.246796 1.83982
      vertex 23.672 -0.0561466 0
      vertex 22.7094 -0.275845 1.69558
    endloop
  endfacet
  facet normal -0.174483 0.968538 0.177454
    outer loop
      vertex 22.398 -0.689703 3.64816
      vertex 23.0174 -0.246796 1.83982
      vertex 21.7874 -0.747303 3.36216
    endloop
  endfacet
  facet normal -0.17446 0.968539 0.177473
    outer loop
      vertex 23.0174 -0.246796 1.83982
      vertex 22.7094 -0.275845 1.69558
      vertex 21.7874 -0.747303 3.36216
    endloop
  endfacet
  facet normal -0.224617 0.929568 0.292319
    outer loop
      vertex 21.8246 -1.37729 5.39407
      vertex 22.398 -0.689703 3.64816
      vertex 20.9218 -1.46246 4.9712
    endloop
  endfacet
  facet normal -0.224612 0.929567 0.292325
    outer loop
      vertex 22.398 -0.689703 3.64816
      vertex 21.7874 -0.747303 3.36216
      vertex 20.9218 -1.46246 4.9712
    endloop
  endfacet
  facet normal -0.214893 0.938647 0.269747
    outer loop
      vertex 21.2767 -1.97794 7.04769
      vertex 21.8246 -1.37729 5.39407
      vertex 20.0971 -2.08922 6.49519
    endloop
  endfacet
  facet normal -0.214898 0.938648 0.26974
    outer loop
      vertex 21.8246 -1.37729 5.39407
      vertex 20.9218 -1.46246 4.9712
      vertex 20.0971 -2.08922 6.49519
    endloop
  endfacet
  facet normal -0.231246 0.922906 0.307846
    outer loop
      vertex 20.5606 -2.74601 8.81241
      vertex 21.2767 -1.97794 7.04769
      vertex 19.0856 -2.88515 8.12156
    endloop
  endfacet
  facet normal -0.23125 0.922908 0.307839
    outer loop
      vertex 21.2767 -1.97794 7.04769
      vertex 20.0971 -2.08922 6.49519
      vertex 19.0856 -2.88515 8.12156
    endloop
  endfacet
  facet normal -0.304303 0.820147 0.484519
    outer loop
      vertex 19.8616 -4.1114 10.6846
      vertex 20.5606 -2.74601 8.81241
      vertex 18.0732 -4.2801 9.84695
    endloop
  endfacet
  facet normal -0.304303 0.820146 0.484521
    outer loop
      vertex 20.5606 -2.74601 8.81241
      vertex 19.0856 -2.88515 8.12156
      vertex 18.0732 -4.2801 9.84695
    endloop
  endfacet
  facet normal -0.324018 0.780547 0.534564
    outer loop
      vertex 19.5528 -5.62225 12.7035
      vertex 19.8616 -4.1114 10.6846
      vertex 17.4266 -5.82282 11.7076
    endloop
  endfacet
  facet normal -0.324012 0.780543 0.534573
    outer loop
      vertex 19.8616 -4.1114 10.6846
      vertex 18.0732 -4.2801 9.84695
      vertex 17.4266 -5.82282 11.7076
    endloop
  endfacet
  facet normal -0.367506 0.664322 0.650858
    outer loop
      vertex 20.0971 -7.16 14.5804
      vertex 19.5528 -5.62225 12.7035
      vertex 17.954 -7.16 13.3703
    endloop
  endfacet
  facet normal -0.367519 0.664329 0.650843
    outer loop
      vertex 17.4266 -5.82282 11.7076
      vertex 17.954 -7.16 13.3703
      vertex 19.5528 -5.62225 12.7035
    endloop
  endfacet
  facet normal -0.367583 0.664298 0.650839
    outer loop
      vertex 17.954 -7.16 13.3703
      vertex 17.4266 -5.82282 11.7076
      vertex 17.6229 -7.16 13.1833
    endloop
  endfacet
  facet normal -0.131207 0.989895 0.0537741
    outer loop
      vertex 22.7094 -0.275845 1.69558
      vertex 23.672 -0.0561466 0
      vertex 22.4311 -0.302099 1.49983
    endloop
  endfacet
  facet normal -0.203909 0.965761 0.160395
    outer loop
      vertex 21.7874 -0.747303 3.36216
      vertex 22.7094 -0.275845 1.69558
      vertex 21.2355 -0.799364 2.974
    endloop
  endfacet
  facet normal -0.203918 0.965761 0.160385
    outer loop
      vertex 22.7094 -0.275845 1.69558
      vertex 22.4311 -0.302099 1.49983
      vertex 21.2355 -0.799364 2.974
    endloop
  endfacet
  facet normal -0.273081 0.924995 0.264218
    outer loop
      vertex 20.9218 -1.46246 4.9712
      vertex 21.7874 -0.747303 3.36216
      vertex 20.1058 -1.53943 4.39729
    endloop
  endfacet
  facet normal -0.273083 0.924995 0.264216
    outer loop
      vertex 21.7874 -0.747303 3.36216
      vertex 21.2355 -0.799364 2.974
      vertex 20.1058 -1.53943 4.39729
    endloop
  endfacet
  facet normal -0.259612 0.93443 0.243808
    outer loop
      vertex 20.0971 -2.08922 6.49519
      vertex 20.9218 -1.46246 4.9712
      vertex 19.0309 -2.18979 5.74533
    endloop
  endfacet
  facet normal -0.259614 0.934431 0.243804
    outer loop
      vertex 20.9218 -1.46246 4.9712
      vertex 20.1058 -1.53943 4.39729
      vertex 19.0309 -2.18979 5.74533
    endloop
  endfacet
  facet normal -0.280516 0.919459 0.275511
    outer loop
      vertex 19.0856 -2.88515 8.12156
      vertex 20.0971 -2.08922 6.49519
      vertex 17.7525 -3.01091 7.18394
    endloop
  endfacet
  facet normal -0.280509 0.919455 0.27553
    outer loop
      vertex 20.0971 -2.08922 6.49519
      vertex 19.0309 -2.18979 5.74533
      vertex 17.7525 -3.01091 7.18394
    endloop
  endfacet
  facet normal -0.382611 0.815287 0.434644
    outer loop
      vertex 18.0732 -4.2801 9.84695
      vertex 19.0856 -2.88515 8.12156
      vertex 16.4569 -4.43257 8.71014
    endloop
  endfacet
  facet normal -0.382612 0.815288 0.434642
    outer loop
      vertex 19.0856 -2.88515 8.12156
      vertex 17.7525 -3.01091 7.18394
      vertex 16.4569 -4.43257 8.71014
    endloop
  endfacet
  facet normal -0.416816 0.765637 0.489963
    outer loop
      vertex 17.4266 -5.82282 11.7076
      vertex 18.0732 -4.2801 9.84695
      vertex 15.5048 -6.00411 10.356
    endloop
  endfacet
  facet normal -0.416824 0.765644 0.489946
    outer loop
      vertex 18.0732 -4.2801 9.84695
      vertex 16.4569 -4.43257 8.71014
      vertex 15.5048 -6.00411 10.356
    endloop
  endfacet
  facet normal -0.493169 0.610997 0.619247
    outer loop
      vertex 17.6229 -7.16 13.1833
      vertex 17.4266 -5.82282 11.7076
      vertex 15.978 -7.16 11.8733
    endloop
  endfacet
  facet normal -0.493161 0.610991 0.619259
    outer loop
      vertex 15.5048 -6.00411 10.356
      vertex 15.978 -7.16 11.8733
      vertex 17.4266 -5.82282 11.7076
    endloop
  endfacet
  facet normal -0.493159 0.610992 0.61926
    outer loop
      vertex 15.978 -7.16 11.8733
      vertex 15.5048 -6.00411 10.356
      vertex 15.4658 -7.16 11.4654
    endloop
  endfacet
  facet normal -0.139916 0.989074 0.0464341
    outer loop
      vertex 22.4311 -0.302099 1.49983
      vertex 23.672 -0.0561466 0
      vertex 22.1908 -0.324763 1.25851
    endloop
  endfacet
  facet normal -0.229941 0.963306 0.138452
    outer loop
      vertex 21.2355 -0.799364 2.974
      vertex 22.4311 -0.302099 1.49983
      vertex 20.7591 -0.844305 2.49548
    endloop
  endfacet
  facet normal -0.229923 0.963306 0.138481
    outer loop
      vertex 22.4311 -0.302099 1.49983
      vertex 22.1908 -0.324763 1.25851
      vertex 20.7591 -0.844305 2.49548
    endloop
  endfacet
  facet normal -0.315966 0.920949 0.228074
    outer loop
      vertex 20.1058 -1.53943 4.39729
      vertex 21.2355 -0.799364 2.974
      vertex 19.4014 -1.60588 3.68976
    endloop
  endfacet
  facet normal -0.315966 0.920949 0.228074
    outer loop
      vertex 21.2355 -0.799364 2.974
      vertex 20.7591 -0.844305 2.49548
      vertex 19.4014 -1.60588 3.68976
    endloop
  endfacet
  facet normal -0.299189 0.930698 0.210446
    outer loop
      vertex 19.0309 -2.18979 5.74533
      vertex 20.1058 -1.53943 4.39729
      vertex 18.1106 -2.27661 4.82091
    endloop
  endfacet
  facet normal -0.299187 0.930697 0.210454
    outer loop
      vertex 20.1058 -1.53943 4.39729
      vertex 19.4014 -1.60588 3.68976
      vertex 18.1106 -2.27661 4.82091
    endloop
  endfacet
  facet normal -0.323293 0.916451 0.235796
    outer loop
      vertex 17.7525 -3.01091 7.18394
      vertex 19.0309 -2.18979 5.74533
      vertex 16.6017 -3.11947 6.02804
    endloop
  endfacet
  facet normal -0.323296 0.916453 0.235783
    outer loop
      vertex 19.0309 -2.18979 5.74533
      vertex 18.1106 -2.27661 4.82091
      vertex 16.6017 -3.11947 6.02804
    endloop
  endfacet
  facet normal -0.450881 0.811037 0.372727
    outer loop
      vertex 16.4569 -4.43257 8.71014
      vertex 17.7525 -3.01091 7.18394
      vertex 15.0616 -4.56419 7.30867
    endloop
  endfacet
  facet normal -0.450883 0.811038 0.372722
    outer loop
      vertex 17.7525 -3.01091 7.18394
      vertex 16.6017 -3.11947 6.02804
      vertex 15.0616 -4.56419 7.30867
    endloop
  endfacet
  facet normal -0.501073 0.752036 0.428215
    outer loop
      vertex 15.5048 -6.00411 10.356
      vertex 16.4569 -4.43257 8.71014
      vertex 13.8459 -6.1606 8.68968
    endloop
  endfacet
  facet normal -0.501068 0.752028 0.428235
    outer loop
      vertex 16.4569 -4.43257 8.71014
      vertex 15.0616 -4.56419 7.30867
      vertex 13.8459 -6.1606 8.68968
    endloop
  endfacet
  facet normal -0.614003 0.557238 0.559005
    outer loop
      vertex 15.4658 -7.16 11.4654
      vertex 15.5048 -6.00411 10.356
      vertex 14.2583 -7.16 10.1391
    endloop
  endfacet
  facet normal -0.614019 0.557276 0.558949
    outer loop
      vertex 13.6611 -7.16 9.48308
      vertex 15.5048 -6.00411 10.356
      vertex 13.8459 -6.1606 8.68968
    endloop
  endfacet
  facet normal -0.614018 0.557262 0.558964
    outer loop
      vertex 15.5048 -6.00411 10.356
      vertex 13.6611 -7.16 9.48308
      vertex 14.2583 -7.16 10.1391
    endloop
  endfacet
  facet normal -0.147249 0.988382 0.0376564
    outer loop
      vertex 22.1908 -0.324763 1.25851
      vertex 23.672 -0.0561466 0
      vertex 21.9959 -0.343148 0.978946
    endloop
  endfacet
  facet normal -0.251794 0.961243 0.112301
    outer loop
      vertex 20.7591 -0.844305 2.49548
      vertex 22.1908 -0.324763 1.25851
      vertex 20.3727 -0.880758 1.94114
    endloop
  endfacet
  facet normal -0.251786 0.961243 0.11232
    outer loop
      vertex 22.1908 -0.324763 1.25851
      vertex 21.9959 -0.343148 0.978946
      vertex 20.3727 -0.880758 1.94114
    endloop
  endfacet
  facet normal -0.35194 0.917555 0.185013
    outer loop
      vertex 19.4014 -1.60588 3.68976
      vertex 20.7591 -0.844305 2.49548
      vertex 18.83 -1.65978 2.87013
    endloop
  endfacet
  facet normal -0.351947 0.917559 0.184985
    outer loop
      vertex 20.7591 -0.844305 2.49548
      vertex 20.3727 -0.880758 1.94114
      vertex 18.83 -1.65978 2.87013
    endloop
  endfacet
  facet normal -0.332391 0.927564 0.170706
    outer loop
      vertex 18.1106 -2.27661 4.82091
      vertex 19.4014 -1.60588 3.68976
      vertex 17.3641 -2.34703 3.75
    endloop
  endfacet
  facet normal -0.33239 0.927561 0.170726
    outer loop
      vertex 19.4014 -1.60588 3.68976
      vertex 18.83 -1.65978 2.87013
      vertex 17.3641 -2.34703 3.75
    endloop
  endfacet
  facet normal -0.358612 0.913966 0.189902
    outer loop
      vertex 16.6017 -3.11947 6.02804
      vertex 18.1106 -2.27661 4.82091
      vertex 15.6682 -3.20752 4.68898
    endloop
  endfacet
  facet normal -0.358613 0.913971 0.189878
    outer loop
      vertex 18.1106 -2.27661 4.82091
      vertex 17.3641 -2.34703 3.75
      vertex 15.6682 -3.20752 4.68898
    endloop
  endfacet
  facet normal -0.507477 0.807504 0.300674
    outer loop
      vertex 15.0616 -4.56419 7.30867
      vertex 16.6017 -3.11947 6.02804
      vertex 13.9298 -4.67095 5.68514
    endloop
  endfacet
  facet normal -0.507476 0.807502 0.30068
    outer loop
      vertex 16.6017 -3.11947 6.02804
      vertex 15.6682 -3.20752 4.68898
      vertex 13.9298 -4.67095 5.68514
    endloop
  endfacet
  facet normal -0.573377 0.74029 0.351013
    outer loop
      vertex 13.8459 -6.1606 8.68968
      vertex 15.0616 -4.56419 7.30867
      vertex 12.5003 -6.28754 6.75937
    endloop
  endfacet
  facet normal -0.573375 0.740281 0.351034
    outer loop
      vertex 15.0616 -4.56419 7.30867
      vertex 13.9298 -4.67095 5.68514
      vertex 12.5003 -6.28754 6.75937
    endloop
  endfacet
  facet normal -0.722418 0.506915 0.470265
    outer loop
      vertex 13.6611 -7.16 9.48308
      vertex 13.8459 -6.1606 8.68968
      vertex 12.8217 -7.16 8.1936
    endloop
  endfacet
  facet normal -0.722425 0.506911 0.47026
    outer loop
      vertex 12.2348 -7.16 7.29196
      vertex 13.8459 -6.1606 8.68968
      vertex 12.5003 -6.28754 6.75937
    endloop
  endfacet
  facet normal -0.722422 0.506931 0.470242
    outer loop
      vertex 13.8459 -6.1606 8.68968
      vertex 12.2348 -7.16 7.29196
      vertex 12.8217 -7.16 8.1936
    endloop
  endfacet
  facet normal -0.152944 0.987845 0.0277473
    outer loop
      vertex 21.9959 -0.343148 0.978946
      vertex 23.672 -0.0561466 0
      vertex 21.8523 -0.356693 0.669639
    endloop
  endfacet
  facet normal -0.268789 0.959639 0.0827419
    outer loop
      vertex 20.3727 -0.880758 1.94114
      vertex 21.9959 -0.343148 0.978946
      vertex 20.088 -0.907619 1.32782
    endloop
  endfacet
  facet normal -0.268785 0.959638 0.082763
    outer loop
      vertex 21.9959 -0.343148 0.978946
      vertex 21.8523 -0.356693 0.669639
      vertex 20.088 -0.907619 1.32782
    endloop
  endfacet
  facet normal -0.379923 0.914919 0.136314
    outer loop
      vertex 18.83 -1.65978 2.87013
      vertex 20.3727 -0.880758 1.94114
      vertex 18.409 -1.69949 1.96328
    endloop
  endfacet
  facet normal -0.379925 0.914922 0.136289
    outer loop
      vertex 20.3727 -0.880758 1.94114
      vertex 20.088 -0.907619 1.32782
      vertex 18.409 -1.69949 1.96328
    endloop
  endfacet
  facet normal -0.358216 0.925125 0.125796
    outer loop
      vertex 17.3641 -2.34703 3.75
      vertex 18.83 -1.65978 2.87013
      vertex 16.814 -2.39892 2.56515
    endloop
  endfacet
  facet normal -0.358215 0.925127 0.125789
    outer loop
      vertex 18.83 -1.65978 2.87013
      vertex 18.409 -1.69949 1.96328
      vertex 16.814 -2.39892 2.56515
    endloop
  endfacet
  facet normal -0.385736 0.912057 0.139137
    outer loop
      vertex 15.6682 -3.20752 4.68898
      vertex 17.3641 -2.34703 3.75
      vertex 14.9804 -3.2724 3.20745
    endloop
  endfacet
  facet normal -0.385738 0.912055 0.139146
    outer loop
      vertex 17.3641 -2.34703 3.75
      vertex 16.814 -2.39892 2.56515
      vertex 14.9804 -3.2724 3.20745
    endloop
  endfacet
  facet normal -0.551076 0.804772 0.220584
    outer loop
      vertex 13.9298 -4.67095 5.68514
      vertex 15.6682 -3.20752 4.68898
      vertex 13.0959 -4.74962 3.88886
    endloop
  endfacet
  facet normal -0.551077 0.804768 0.220595
    outer loop
      vertex 15.6682 -3.20752 4.68898
      vertex 14.9804 -3.2724 3.20745
      vertex 13.0959 -4.74962 3.88886
    endloop
  endfacet
  facet normal -0.630647 0.730946 0.260772
    outer loop
      vertex 12.5003 -6.28754 6.75937
      vertex 13.9298 -4.67095 5.68514
      vertex 11.5088 -6.38106 4.62368
    endloop
  endfacet
  facet normal -0.630645 0.730953 0.260756
    outer loop
      vertex 13.9298 -4.67095 5.68514
      vertex 13.0959 -4.74962 3.88886
      vertex 11.5088 -6.38106 4.62368
    endloop
  endfacet
  facet normal -0.81098 0.464195 0.356139
    outer loop
      vertex 12.2348 -7.16 7.29196
      vertex 12.5003 -6.28754 6.75937
      vertex 11.6954 -7.16 6.06367
    endloop
  endfacet
  facet normal -0.810964 0.464189 0.356184
    outer loop
      vertex 11.6954 -7.16 6.06367
      vertex 11.5088 -6.38106 4.62368
      vertex 11.2046 -7.16 4.94621
    endloop
  endfacet
  facet normal -0.81098 0.464167 0.356174
    outer loop
      vertex 11.5088 -6.38106 4.62368
      vertex 11.6954 -7.16 6.06367
      vertex 12.5003 -6.28754 6.75937
    endloop
  endfacet
  facet normal -0.156849 0.987477 0.016972
    outer loop
      vertex 21.8523 -0.356693 0.669639
      vertex 23.672 -0.0561466 0
      vertex 21.7644 -0.364989 0.339984
    endloop
  endfacet
  facet normal -0.280406 0.958542 0.0506934
    outer loop
      vertex 20.088 -0.907619 1.32782
      vertex 21.8523 -0.356693 0.669639
      vertex 19.9136 -0.924067 0.674151
    endloop
  endfacet
  facet normal -0.280407 0.958544 0.0506459
    outer loop
      vertex 21.8523 -0.356693 0.669639
      vertex 21.7644 -0.364989 0.339984
      vertex 19.9136 -0.924067 0.674151
    endloop
  endfacet
  facet normal -0.399064 0.913116 0.0834684
    outer loop
      vertex 18.409 -1.69949 1.96328
      vertex 20.088 -0.907619 1.32782
      vertex 18.1512 -1.72381 0.996784
    endloop
  endfacet
  facet normal -0.399067 0.913112 0.0834956
    outer loop
      vertex 20.088 -0.907619 1.32782
      vertex 19.9136 -0.924067 0.674151
      vertex 18.1512 -1.72381 0.996784
    endloop
  endfacet
  facet normal -0.375879 0.923461 0.0770407
    outer loop
      vertex 16.814 -2.39892 2.56515
      vertex 18.409 -1.69949 1.96328
      vertex 16.4771 -2.4307 1.30236
    endloop
  endfacet
  facet normal -0.375874 0.923464 0.0770223
    outer loop
      vertex 18.409 -1.69949 1.96328
      vertex 18.1512 -1.72381 0.996784
      vertex 16.4771 -2.4307 1.30236
    endloop
  endfacet
  facet normal -0.404127 0.910756 0.0848808
    outer loop
      vertex 14.9804 -3.2724 3.20745
      vertex 16.814 -2.39892 2.56515
      vertex 14.5592 -3.31214 1.62847
    endloop
  endfacet
  facet normal -0.404133 0.910752 0.0848983
    outer loop
      vertex 16.814 -2.39892 2.56515
      vertex 16.4771 -2.4307 1.30236
      vertex 14.5592 -3.31214 1.62847
    endloop
  endfacet
  facet normal -0.580679 0.802912 0.134702
    outer loop
      vertex 13.0959 -4.74962 3.88886
      vertex 14.9804 -3.2724 3.20745
      vertex 12.5852 -4.79779 1.97443
    endloop
  endfacet
  facet normal -0.580676 0.802916 0.13469
    outer loop
      vertex 14.9804 -3.2724 3.20745
      vertex 14.5592 -3.31214 1.62847
      vertex 12.5852 -4.79779 1.97443
    endloop
  endfacet
  facet normal -0.670347 0.724461 0.160593
    outer loop
      vertex 11.5088 -6.38106 4.62368
      vertex 13.0959 -4.74962 3.88886
      vertex 10.9016 -6.43834 2.3475
    endloop
  endfacet
  facet normal -0.670349 0.72446 0.160596
    outer loop
      vertex 13.0959 -4.74962 3.88886
      vertex 12.5852 -4.79779 1.97443
      vertex 10.9016 -6.43834 2.3475
    endloop
  endfacet
  facet normal -0.873545 0.433113 0.222109
    outer loop
      vertex 11.2046 -7.16 4.94621
      vertex 11.5088 -6.38106 4.62368
      vertex 10.9076 -7.16 3.77812
    endloop
  endfacet
  facet normal -0.873489 0.43319 0.222181
    outer loop
      vertex 10.9076 -7.16 3.77812
      vertex 10.9016 -6.43834 2.3475
      vertex 10.5821 -7.16 2.49844
    endloop
  endfacet
  facet normal -0.87355 0.433092 0.222132
    outer loop
      vertex 10.9016 -6.43834 2.3475
      vertex 10.9076 -7.16 3.77812
      vertex 11.5088 -6.38106 4.62368
    endloop
  endfacet
  facet normal -0.158825 0.98729 0.00571417
    outer loop
      vertex 21.7644 -0.364989 0.339984
      vertex 23.672 -0.0561466 0
      vertex 21.7348 -0.367783 0
    endloop
  endfacet
  facet normal -0.286303 0.957987 0.017058
    outer loop
      vertex 19.9136 -0.924067 0.674151
      vertex 21.7644 -0.364989 0.339984
      vertex 19.8549 -0.929606 0
    endloop
  endfacet
  facet normal -0.286302 0.957988 0.0170535
    outer loop
      vertex 21.7644 -0.364989 0.339984
      vertex 21.7348 -0.367783 0
      vertex 19.8549 -0.929606 0
    endloop
  endfacet
  facet normal -0.408787 0.912196 0.028134
    outer loop
      vertex 18.1512 -1.72381 0.996784
      vertex 19.9136 -0.924067 0.674151
      vertex 18.0643 -1.73201 0
    endloop
  endfacet
  facet normal -0.408776 0.912202 0.0280983
    outer loop
      vertex 19.9136 -0.924067 0.674151
      vertex 19.8549 -0.929606 0
      vertex 18.0643 -1.73201 0
    endloop
  endfacet
  facet normal -0.384843 0.922618 0.0259292
    outer loop
      vertex 16.4771 -2.4307 1.30236
      vertex 18.1512 -1.72381 0.996784
      vertex 16.3637 -2.4414 0
    endloop
  endfacet
  facet normal -0.384859 0.92261 0.0259623
    outer loop
      vertex 18.1512 -1.72381 0.996784
      vertex 18.0643 -1.73201 0
      vertex 16.3637 -2.4414 0
    endloop
  endfacet
  facet normal -0.413417 0.910095 0.0285209
    outer loop
      vertex 14.5592 -3.31214 1.62847
      vertex 16.4771 -2.4307 1.30236
      vertex 14.4174 -3.32552 0
    endloop
  endfacet
  facet normal -0.413417 0.910095 0.0285201
    outer loop
      vertex 16.4771 -2.4307 1.30236
      vertex 16.3637 -2.4414 0
      vertex 14.4174 -3.32552 0
    endloop
  endfacet
  facet normal -0.595636 0.801976 0.0452958
    outer loop
      vertex 12.5852 -4.79779 1.97443
      vertex 14.5592 -3.31214 1.62847
      vertex 12.4132 -4.81402 0
    endloop
  endfacet
  facet normal -0.595626 0.801985 0.0452752
    outer loop
      vertex 14.5592 -3.31214 1.62847
      vertex 14.4174 -3.32552 0
      vertex 12.4132 -4.81402 0
    endloop
  endfacet
  facet normal -0.690672 0.721131 0.0542415
    outer loop
      vertex 10.9016 -6.43834 2.3475
      vertex 12.5852 -4.79779 1.97443
      vertex 10.6971 -6.45763 0
    endloop
  endfacet
  facet normal -0.690671 0.721132 0.0542392
    outer loop
      vertex 12.5852 -4.79779 1.97443
      vertex 12.4132 -4.81402 0
      vertex 10.6971 -6.45763 0
    endloop
  endfacet
  facet normal -0.905852 0.416824 0.0754288
    outer loop
      vertex 10.5821 -7.16 2.49844
      vertex 10.9016 -6.43834 2.3475
      vertex 10.4881 -7.16 1.36956
    endloop
  endfacet
  facet normal -0.905895 0.416724 0.0754714
    outer loop
      vertex 10.4881 -7.16 1.36956
      vertex 10.6971 -6.45763 0
      vertex 10.374 -7.16 0
    endloop
  endfacet
  facet normal -0.905878 0.416756 0.0754901
    outer loop
      vertex 10.6971 -6.45763 0
      vertex 10.4881 -7.16 1.36956
      vertex 10.9016 -6.43834 2.3475
    endloop
  endfacet
endsolid OpenSCAD_Model
