solid OpenSCAD_Model
  facet normal 1 -0 0
    outer loop
      vertex 25 -35.8 23.5794
      vertex 25 -28.64 0
      vertex 25 -28.64 24.4831
    endloop
  endfacet
  facet normal 1 0 0
    outer loop
      vertex 25 -28.64 0
      vertex 25 -35.8 23.5794
      vertex 25 -35.8 0
    endloop
  endfacet
  facet normal 0 0 -1
    outer loop
      vertex 0.395037 -29.1569 0
      vertex 25 -28.64 0
      vertex 25 -35.8 0
    endloop
  endfacet
  facet normal 0 0 -1
    outer loop
      vertex 0.395037 -29.1569 0
      vertex 25 -35.8 0
      vertex 0.420726 -35.8 0
    endloop
  endfacet
  facet normal -0 0 -1
    outer loop
      vertex 25 -28.64 0
      vertex 0.395037 -29.1569 0
      vertex 0.510316 -28.64 0
    endloop
  endfacet
  facet normal 0 1 0
    outer loop
      vertex 25 -28.64 24.4831
      vertex 24.2479 -28.64 24.4606
      vertex 24.797 -28.64 24.5033
    endloop
  endfacet
  facet normal 0 1 -0
    outer loop
      vertex 25 -28.64 0
      vertex 24.2479 -28.64 24.4606
      vertex 25 -28.64 24.4831
    endloop
  endfacet
  facet normal -0 1 0
    outer loop
      vertex 20.1819 -28.64 24.0682
      vertex 24.2479 -28.64 24.4606
      vertex 25 -28.64 0
    endloop
  endfacet
  facet normal 0 1 0
    outer loop
      vertex 24.2479 -28.64 24.4606
      vertex 20.1819 -28.64 24.0682
      vertex 20.5972 -28.64 24.1765
    endloop
  endfacet
  facet normal -0 1 0
    outer loop
      vertex 16.2274 -28.64 22.9808
      vertex 20.1819 -28.64 24.0682
      vertex 25 -28.64 0
    endloop
  endfacet
  facet normal 0 1 0
    outer loop
      vertex 20.1819 -28.64 24.0682
      vertex 16.2274 -28.64 22.9808
      vertex 16.5099 -28.64 23.1111
    endloop
  endfacet
  facet normal 0 1 0
    outer loop
      vertex 16.2274 -28.64 22.9808
      vertex 25 -28.64 0
      vertex 12.6613 -28.64 21.3359
    endloop
  endfacet
  facet normal 0 1 0
    outer loop
      vertex 12.6613 -28.64 21.3359
      vertex 25 -28.64 0
      vertex 12.4977 -28.64 21.2217
    endloop
  endfacet
  facet normal 0 1 0
    outer loop
      vertex 12.4977 -28.64 21.2217
      vertex 25 -28.64 0
      vertex 9.17144 -28.64 18.902
    endloop
  endfacet
  facet normal 0 1 0
    outer loop
      vertex 9.17144 -28.64 18.902
      vertex 25 -28.64 0
      vertex 9.10249 -28.64 18.8331
    endloop
  endfacet
  facet normal 0 1 0
    outer loop
      vertex 9.10249 -28.64 18.8331
      vertex 25 -28.64 0
      vertex 6.15016 -28.64 15.882
    endloop
  endfacet
  facet normal 0 1 0
    outer loop
      vertex 6.15016 -28.64 15.882
      vertex 25 -28.64 0
      vertex 6.14546 -28.64 15.8753
    endloop
  endfacet
  facet normal 0 1 0
    outer loop
      vertex 6.14546 -28.64 15.8753
      vertex 25 -28.64 0
      vertex 5.87463 -28.64 15.4878
    endloop
  endfacet
  facet normal 0 1 0
    outer loop
      vertex 5.87463 -28.64 15.4878
      vertex 25 -28.64 0
      vertex 3.77575 -28.64 12.3999
    endloop
  endfacet
  facet normal 0 1 0
    outer loop
      vertex 3.77575 -28.64 12.3999
      vertex 25 -28.64 0
      vertex 3.73165 -28.64 12.335
    endloop
  endfacet
  facet normal 0 1 0
    outer loop
      vertex 3.73165 -28.64 12.335
      vertex 25 -28.64 0
      vertex 2.01801 -28.64 8.55752
    endloop
  endfacet
  facet normal 0 1 0
    outer loop
      vertex 2.01801 -28.64 8.55752
      vertex 25 -28.64 0
      vertex 1.95837 -28.64 8.42608
    endloop
  endfacet
  facet normal 0 1 0
    outer loop
      vertex 1.95837 -28.64 8.42608
      vertex 25 -28.64 0
      vertex 0.921656 -28.64 4.45398
    endloop
  endfacet
  facet normal 0 1 0
    outer loop
      vertex 0.921656 -28.64 4.45398
      vertex 25 -28.64 0
      vertex 0.874795 -28.64 4.27444
    endloop
  endfacet
  facet normal 0 1 0
    outer loop
      vertex 0.874795 -28.64 4.27444
      vertex 25 -28.64 0
      vertex 0.527348 -28.64 0.199738
    endloop
  endfacet
  facet normal 0 1 0
    outer loop
      vertex 0.527348 -28.64 0.199738
      vertex 25 -28.64 0
      vertex 0.510316 -28.64 0
    endloop
  endfacet
  facet normal 0 -1 0
    outer loop
      vertex 21.2751 -35.8 23.4665
      vertex 25 -35.8 23.5794
      vertex 24.0035 -35.8 23.6789
    endloop
  endfacet
  facet normal 0 -1 0
    outer loop
      vertex 17.4069 -35.8 22.7014
      vertex 21.2751 -35.8 23.4665
      vertex 19.9451 -35.8 23.363
    endloop
  endfacet
  facet normal 0 -1 -0
    outer loop
      vertex 21.2751 -35.8 23.4665
      vertex 17.4069 -35.8 22.7014
      vertex 25 -35.8 0
    endloop
  endfacet
  facet normal 0 -1 0
    outer loop
      vertex 13.7103 -35.8 21.2794
      vertex 17.4069 -35.8 22.7014
      vertex 15.9953 -35.8 22.3334
    endloop
  endfacet
  facet normal 0 -1 -0
    outer loop
      vertex 17.4069 -35.8 22.7014
      vertex 13.7103 -35.8 21.2794
      vertex 25 -35.8 0
    endloop
  endfacet
  facet normal 0 -1 0
    outer loop
      vertex 10.2918 -35.8 19.2341
      vertex 13.7103 -35.8 21.2794
      vertex 12.2762 -35.8 20.618
    endloop
  endfacet
  facet normal 0 -1 -0
    outer loop
      vertex 13.7103 -35.8 21.2794
      vertex 10.2918 -35.8 19.2341
      vertex 25 -35.8 0
    endloop
  endfacet
  facet normal 0 -1 0
    outer loop
      vertex 7.25305 -35.8 16.616
      vertex 10.2918 -35.8 19.2341
      vertex 8.90376 -35.8 18.266
    endloop
  endfacet
  facet normal 0 -1 -0
    outer loop
      vertex 10.2918 -35.8 19.2341
      vertex 7.25305 -35.8 16.616
      vertex 25 -35.8 0
    endloop
  endfacet
  facet normal 0 -1 0
    outer loop
      vertex 25 -35.8 0
      vertex 7.25305 -35.8 16.616
      vertex 5.98414 -35.8 15.3476
    endloop
  endfacet
  facet normal 0 -1 0
    outer loop
      vertex 25 -35.8 0
      vertex 5.98414 -35.8 15.3476
      vertex 4.68785 -35.8 13.4932
    endloop
  endfacet
  facet normal 0 -1 0
    outer loop
      vertex 25 -35.8 0
      vertex 4.68785 -35.8 13.4932
      vertex 3.61009 -35.8 11.9514
    endloop
  endfacet
  facet normal 0 -1 0
    outer loop
      vertex 25 -35.8 0
      vertex 3.61009 -35.8 11.9514
      vertex 2.67963 -35.8 9.95002
    endloop
  endfacet
  facet normal 0 -1 0
    outer loop
      vertex 25 -35.8 0
      vertex 2.67963 -35.8 9.95002
      vertex 1.85754 -35.8 8.18179
    endloop
  endfacet
  facet normal 0 -1 0
    outer loop
      vertex 25 -35.8 0
      vertex 1.85754 -35.8 8.18179
      vertex 1.29809 -35.8 6.08609
    endloop
  endfacet
  facet normal 0 -1 0
    outer loop
      vertex 25 -35.8 0
      vertex 1.29809 -35.8 6.08609
      vertex 0.782858 -35.8 4.15605
    endloop
  endfacet
  facet normal 0 -1 0
    outer loop
      vertex 25 -35.8 0
      vertex 0.782858 -35.8 4.15605
      vertex 0.596227 -35.8 2.01416
    endloop
  endfacet
  facet normal 0 -1 0
    outer loop
      vertex 25 -35.8 0
      vertex 0.596227 -35.8 2.01416
      vertex 0.420726 -35.8 0
    endloop
  endfacet
  facet normal 0 -1 0
    outer loop
      vertex 21.2751 -35.8 23.4665
      vertex 25 -35.8 0
      vertex 25 -35.8 23.5794
    endloop
  endfacet
  facet normal 0.0982465 -0.124616 0.987329
    outer loop
      vertex 24.797 -28.64 24.5033
      vertex 25 -35.8 23.5794
      vertex 25 -28.64 24.4831
    endloop
  endfacet
  facet normal 0.0985811 -0.124602 0.987297
    outer loop
      vertex 25 -35.8 23.5794
      vertex 24.797 -28.64 24.5033
      vertex 24.0035 -35.8 23.6789
    endloop
  endfacet
  facet normal -0.077096 -0.105607 0.991415
    outer loop
      vertex 24.2479 -28.64 24.4606
      vertex 24.0035 -35.8 23.6789
      vertex 24.797 -28.64 24.5033
    endloop
  endfacet
  facet normal -0.077179 -0.105604 0.991409
    outer loop
      vertex 24.0035 -35.8 23.6789
      vertex 24.2479 -28.64 24.4606
      vertex 21.2751 -35.8 23.4665
    endloop
  endfacet
  facet normal -0.0771522 -0.105615 0.99141
    outer loop
      vertex 20.5972 -28.64 24.1765
      vertex 21.2751 -35.8 23.4665
      vertex 24.2479 -28.64 24.4606
    endloop
  endfacet
  facet normal -0.0771511 -0.105615 0.99141
    outer loop
      vertex 21.2751 -35.8 23.4665
      vertex 20.5972 -28.64 24.1765
      vertex 19.9451 -35.8 23.363
    endloop
  endfacet
  facet normal -0.251388 -0.086632 0.964002
    outer loop
      vertex 20.1819 -28.64 24.0682
      vertex 19.9451 -35.8 23.363
      vertex 20.5972 -28.64 24.1765
    endloop
  endfacet
  facet normal -0.251281 -0.0866382 0.964029
    outer loop
      vertex 19.9451 -35.8 23.363
      vertex 20.1819 -28.64 24.0682
      vertex 17.4069 -35.8 22.7014
    endloop
  endfacet
  facet normal -0.251273 -0.0866418 0.964031
    outer loop
      vertex 16.5099 -28.64 23.1111
      vertex 17.4069 -35.8 22.7014
      vertex 20.1819 -28.64 24.0682
    endloop
  endfacet
  facet normal -0.251317 -0.0866466 0.964019
    outer loop
      vertex 17.4069 -35.8 22.7014
      vertex 16.5099 -28.64 23.1111
      vertex 15.9953 -35.8 22.3334
    endloop
  endfacet
  facet normal -0.417854 -0.0683688 0.905938
    outer loop
      vertex 16.2274 -28.64 22.9808
      vertex 15.9953 -35.8 22.3334
      vertex 16.5099 -28.64 23.1111
    endloop
  endfacet
  facet normal -0.417877 -0.0683671 0.905928
    outer loop
      vertex 15.9953 -35.8 22.3334
      vertex 16.2274 -28.64 22.9808
      vertex 13.7103 -35.8 21.2794
    endloop
  endfacet
  facet normal -0.41787 -0.0683702 0.905931
    outer loop
      vertex 12.6613 -28.64 21.3359
      vertex 13.7103 -35.8 21.2794
      vertex 16.2274 -28.64 22.9808
    endloop
  endfacet
  facet normal -0.417821 -0.0683633 0.905954
    outer loop
      vertex 13.7103 -35.8 21.2794
      vertex 12.6613 -28.64 21.3359
      vertex 12.2762 -35.8 20.618
    endloop
  endfacet
  facet normal -0.57163 -0.0513625 0.818902
    outer loop
      vertex 12.4977 -28.64 21.2217
      vertex 12.2762 -35.8 20.618
      vertex 12.6613 -28.64 21.3359
    endloop
  endfacet
  facet normal -0.571268 -0.0513948 0.819153
    outer loop
      vertex 12.2762 -35.8 20.618
      vertex 12.4977 -28.64 21.2217
      vertex 10.2918 -35.8 19.2341
    endloop
  endfacet
  facet normal -0.571269 -0.0513947 0.819152
    outer loop
      vertex 9.17144 -28.64 18.902
      vertex 10.2918 -35.8 19.2341
      vertex 12.4977 -28.64 21.2217
    endloop
  endfacet
  facet normal -0.571306 -0.0514018 0.819126
    outer loop
      vertex 10.2918 -35.8 19.2341
      vertex 9.17144 -28.64 18.902
      vertex 8.90376 -35.8 18.266
    endloop
  endfacet
  facet normal -0.706382 -0.0363828 0.706895
    outer loop
      vertex 9.10249 -28.64 18.8331
      vertex 8.90376 -35.8 18.266
      vertex 9.17144 -28.64 18.902
    endloop
  endfacet
  facet normal -0.706487 -0.0363716 0.706791
    outer loop
      vertex 8.90376 -35.8 18.266
      vertex 9.10249 -28.64 18.8331
      vertex 7.25305 -35.8 16.616
    endloop
  endfacet
  facet normal -0.706492 -0.0363689 0.706786
    outer loop
      vertex 6.15016 -28.64 15.882
      vertex 7.25305 -35.8 16.616
      vertex 9.10249 -28.64 18.8331
    endloop
  endfacet
  facet normal -0.706497 -0.0363703 0.706781
    outer loop
      vertex 7.25305 -35.8 16.616
      vertex 6.15016 -28.64 15.882
      vertex 5.98414 -35.8 15.3476
    endloop
  endfacet
  facet normal -0.80791 0.213825 0.549145
    outer loop
      vertex 5.87463 -28.64 15.4878
      vertex 3.77575 -28.64 12.3999
      vertex 3.69105 -28.846 12.3555
    endloop
  endfacet
  facet normal -0.807977 0.213878 0.549026
    outer loop
      vertex 3.77575 -28.64 12.3999
      vertex 3.73165 -28.64 12.335
      vertex 3.69105 -28.846 12.3555
    endloop
  endfacet
  facet normal -0.819372 -0.0237527 0.57277
    outer loop
      vertex 5.98414 -35.8 15.3476
      vertex 6.14546 -28.64 15.8753
      vertex 4.68785 -35.8 13.4932
    endloop
  endfacet
  facet normal -0.818424 -0.0238735 0.574118
    outer loop
      vertex 6.14546 -28.64 15.8753
      vertex 5.98414 -35.8 15.3476
      vertex 6.15016 -28.64 15.882
    endloop
  endfacet
  facet normal -0.819377 -0.0237449 0.572763
    outer loop
      vertex 4.68785 -35.8 13.4932
      vertex 5.87463 -28.64 15.4878
      vertex 3.69105 -28.846 12.3555
    endloop
  endfacet
  facet normal -0.819375 -0.0237443 0.572766
    outer loop
      vertex 4.68785 -35.8 13.4932
      vertex 3.69105 -28.846 12.3555
      vertex 3.61009 -35.8 11.9514
    endloop
  endfacet
  facet normal -0.819418 -0.0237217 0.572705
    outer loop
      vertex 5.87463 -28.64 15.4878
      vertex 4.68785 -35.8 13.4932
      vertex 6.14546 -28.64 15.8753
    endloop
  endfacet
  facet normal -0.889294 0.215415 0.403425
    outer loop
      vertex 2.01801 -28.64 8.55752
      vertex 3.69105 -28.846 12.3555
      vertex 3.73165 -28.64 12.335
    endloop
  endfacet
  facet normal -0.889302 0.215381 0.403427
    outer loop
      vertex 3.69105 -28.846 12.3555
      vertex 2.01801 -28.64 8.55752
      vertex 1.87871 -29.0169 8.45167
    endloop
  endfacet
  facet normal -0.889275 0.21535 0.403503
    outer loop
      vertex 2.01801 -28.64 8.55752
      vertex 1.95837 -28.64 8.42608
      vertex 1.87871 -29.0169 8.45167
    endloop
  endfacet
  facet normal -0.906705 -0.0139396 0.421535
    outer loop
      vertex 3.61009 -35.8 11.9514
      vertex 3.69105 -28.846 12.3555
      vertex 2.67963 -35.8 9.95002
    endloop
  endfacet
  facet normal -0.9067 -0.0139423 0.421545
    outer loop
      vertex 2.67963 -35.8 9.95002
      vertex 1.87871 -29.0169 8.45167
      vertex 1.85754 -35.8 8.18179
    endloop
  endfacet
  facet normal -0.906701 -0.0139428 0.421543
    outer loop
      vertex 1.87871 -29.0169 8.45167
      vertex 2.67963 -35.8 9.95002
      vertex 3.69105 -28.846 12.3555
    endloop
  endfacet
  facet normal -0.94466 0.216399 0.246555
    outer loop
      vertex 0.921656 -28.64 4.45398
      vertex 1.87871 -29.0169 8.45167
      vertex 1.95837 -28.64 8.42608
    endloop
  endfacet
  facet normal -0.944655 0.216417 0.246556
    outer loop
      vertex 1.87871 -29.0169 8.45167
      vertex 0.921656 -28.64 4.45398
      vertex 0.768793 -29.1216 4.29103
    endloop
  endfacet
  facet normal -0.944655 0.216416 0.24656
    outer loop
      vertex 0.921656 -28.64 4.45398
      vertex 0.874795 -28.64 4.27444
      vertex 0.768793 -29.1216 4.29103
    endloop
  endfacet
  facet normal -0.966141 -0.00724628 0.257913
    outer loop
      vertex 1.85754 -35.8 8.18179
      vertex 1.87871 -29.0169 8.45167
      vertex 1.29809 -35.8 6.08609
    endloop
  endfacet
  facet normal -0.96614 -0.00724757 0.257915
    outer loop
      vertex 1.29809 -35.8 6.08609
      vertex 0.768793 -29.1216 4.29103
      vertex 0.782858 -35.8 4.15605
    endloop
  endfacet
  facet normal -0.96614 -0.0072474 0.257916
    outer loop
      vertex 0.768793 -29.1216 4.29103
      vertex 1.29809 -35.8 6.08609
      vertex 1.87871 -29.0169 8.45167
    endloop
  endfacet
  facet normal -0.972655 0.216942 0.0829376
    outer loop
      vertex 0.527348 -28.64 0.199738
      vertex 0.768793 -29.1216 4.29103
      vertex 0.874795 -28.64 4.27444
    endloop
  endfacet
  facet normal -0.972659 0.216924 0.0829357
    outer loop
      vertex 0.768793 -29.1216 4.29103
      vertex 0.527348 -28.64 0.199738
      vertex 0.395037 -29.1569 0
    endloop
  endfacet
  facet normal -0.972659 0.216922 0.0829403
    outer loop
      vertex 0.527348 -28.64 0.199738
      vertex 0.510316 -28.64 0
      vertex 0.395037 -29.1569 0
    endloop
  endfacet
  facet normal -0.996218 -0.00385252 0.0868042
    outer loop
      vertex 0.782858 -35.8 4.15605
      vertex 0.768793 -29.1216 4.29103
      vertex 0.596227 -35.8 2.01416
    endloop
  endfacet
  facet normal -0.996218 -0.00385239 0.0868041
    outer loop
      vertex 0.596227 -35.8 2.01416
      vertex 0.395037 -29.1569 0
      vertex 0.420726 -35.8 0
    endloop
  endfacet
  facet normal -0.996218 -0.00385242 0.086804
    outer loop
      vertex 0.395037 -29.1569 0
      vertex 0.596227 -35.8 2.01416
      vertex 0.768793 -29.1216 4.29103
    endloop
  endfacet
endsolid OpenSCAD_Model
