solid OpenSCAD_Model
  facet normal -0 0 1
    outer loop
      vertex 25 -50.12 0
      vertex 44.3279 -57.28 0
      vertex 45.4286 -50.12 0
    endloop
  endfacet
  facet normal 0 0 1
    outer loop
      vertex 44.3279 -57.28 0
      vertex 25 -50.12 0
      vertex 25 -57.28 0
    endloop
  endfacet
  facet normal -1 0 0
    outer loop
      vertex 25 -51.9468 -22.4786
      vertex 25 -50.12 0
      vertex 25 -50.12 -22.5729
    endloop
  endfacet
  facet normal -1 0 0
    outer loop
      vertex 25 -57.28 -22.0855
      vertex 25 -50.12 0
      vertex 25 -51.9468 -22.4786
    endloop
  endfacet
  facet normal -1 -0 0
    outer loop
      vertex 25 -50.12 0
      vertex 25 -57.28 -22.0855
      vertex 25 -57.28 0
    endloop
  endfacet
  facet normal 0 1 -0
    outer loop
      vertex 45.0926 -50.12 -3.91425
      vertex 25 -50.12 0
      vertex 45.4286 -50.12 0
    endloop
  endfacet
  facet normal 0 1 0
    outer loop
      vertex 44.366 -50.12 -6.6923
      vertex 45.0926 -50.12 -3.91425
      vertex 45.0908 -50.12 -3.93495
    endloop
  endfacet
  facet normal 0 1 0
    outer loop
      vertex 45.0926 -50.12 -3.91425
      vertex 44.366 -50.12 -6.6923
      vertex 25 -50.12 0
    endloop
  endfacet
  facet normal 0 1 0
    outer loop
      vertex 44.0824 -50.12 -7.76014
      vertex 44.366 -50.12 -6.6923
      vertex 44.086 -50.12 -7.75231
    endloop
  endfacet
  facet normal 0 1 0
    outer loop
      vertex 44.366 -50.12 -6.6923
      vertex 44.0824 -50.12 -7.76014
      vertex 25 -50.12 0
    endloop
  endfacet
  facet normal 0 1 -0
    outer loop
      vertex 42.4387 -50.12 -11.3367
      vertex 25 -50.12 0
      vertex 44.0824 -50.12 -7.76014
    endloop
  endfacet
  facet normal 0 1 -0
    outer loop
      vertex 42.4049 -50.12 -11.3857
      vertex 25 -50.12 0
      vertex 42.4387 -50.12 -11.3367
    endloop
  endfacet
  facet normal 0 1 -0
    outer loop
      vertex 40.2013 -50.12 -14.5805
      vertex 25 -50.12 0
      vertex 42.4049 -50.12 -11.3857
    endloop
  endfacet
  facet normal 0 1 -0
    outer loop
      vertex 40.1108 -50.12 -14.6724
      vertex 25 -50.12 0
      vertex 40.2013 -50.12 -14.5805
    endloop
  endfacet
  facet normal 0 1 -0
    outer loop
      vertex 37.4403 -50.12 -17.3857
      vertex 25 -50.12 0
      vertex 40.1108 -50.12 -14.6724
    endloop
  endfacet
  facet normal 0 1 -0
    outer loop
      vertex 37.2654 -50.12 -17.5103
      vertex 25 -50.12 0
      vertex 37.4403 -50.12 -17.3857
    endloop
  endfacet
  facet normal 0 1 -0
    outer loop
      vertex 34.2381 -50.12 -19.667
      vertex 25 -50.12 0
      vertex 37.2654 -50.12 -17.5103
    endloop
  endfacet
  facet normal 0 1 -0
    outer loop
      vertex 33.9542 -50.12 -19.8021
      vertex 25 -50.12 0
      vertex 34.2381 -50.12 -19.667
    endloop
  endfacet
  facet normal 0 1 -0
    outer loop
      vertex 30.6906 -50.12 -21.3546
      vertex 25 -50.12 0
      vertex 33.9542 -50.12 -19.8021
    endloop
  endfacet
  facet normal 0 1 -0
    outer loop
      vertex 30.2809 -50.12 -21.4673
      vertex 25 -50.12 0
      vertex 30.6906 -50.12 -21.3546
    endloop
  endfacet
  facet normal 0 1 -0
    outer loop
      vertex 26.9043 -50.12 -22.3962
      vertex 25 -50.12 0
      vertex 30.2809 -50.12 -21.4673
    endloop
  endfacet
  facet normal 0 1 -0
    outer loop
      vertex 26.364 -50.12 -22.4464
      vertex 25 -50.12 0
      vertex 26.9043 -50.12 -22.3962
    endloop
  endfacet
  facet normal 0 1 0
    outer loop
      vertex 25 -50.12 0
      vertex 26.364 -50.12 -22.4464
      vertex 25 -50.12 -22.5729
    endloop
  endfacet
  facet normal 0 -1 0
    outer loop
      vertex 25 -57.28 0
      vertex 44.1823 -57.28 -1.69674
      vertex 44.3279 -57.28 0
    endloop
  endfacet
  facet normal 0 -1 0
    outer loop
      vertex 25 -57.28 0
      vertex 43.9971 -57.28 -3.85436
      vertex 44.1823 -57.28 -1.69674
    endloop
  endfacet
  facet normal 0 -1 0
    outer loop
      vertex 25 -57.28 0
      vertex 43.5598 -57.28 -5.51786
      vertex 43.9971 -57.28 -3.85436
    endloop
  endfacet
  facet normal 0 -1 0
    outer loop
      vertex 25 -57.28 0
      vertex 43.0142 -57.28 -7.59369
      vertex 43.5598 -57.28 -5.51786
    endloop
  endfacet
  facet normal 0 -1 0
    outer loop
      vertex 25 -57.28 0
      vertex 42.2843 -57.28 -9.18994
      vertex 43.0142 -57.28 -7.59369
    endloop
  endfacet
  facet normal 0 -1 0
    outer loop
      vertex 25 -57.28 0
      vertex 41.4081 -57.28 -11.1062
      vertex 42.2843 -57.28 -9.18994
    endloop
  endfacet
  facet normal 0 -1 0
    outer loop
      vertex 25 -57.28 0
      vertex 40.3854 -57.28 -12.5969
      vertex 41.4081 -57.28 -11.1062
    endloop
  endfacet
  facet normal 0 -1 0
    outer loop
      vertex 25 -57.28 0
      vertex 39.2261 -57.28 -14.2866
      vertex 40.3854 -57.28 -12.5969
    endloop
  endfacet
  facet normal 0 -1 0
    outer loop
      vertex 25 -57.28 0
      vertex 37.9135 -57.28 -15.6277
      vertex 39.2261 -57.28 -14.2866
    endloop
  endfacet
  facet normal 0 -1 0
    outer loop
      vertex 25 -57.28 0
      vertex 36.5324 -57.28 -17.0389
      vertex 37.9135 -57.28 -15.6277
    endloop
  endfacet
  facet normal 0 -1 0
    outer loop
      vertex 25 -57.28 0
      vertex 34.9395 -57.28 -18.1807
      vertex 36.5324 -57.28 -17.0389
    endloop
  endfacet
  facet normal 0 -1 0
    outer loop
      vertex 25 -57.28 0
      vertex 33.4068 -57.28 -19.2795
      vertex 34.9395 -57.28 -18.1807
    endloop
  endfacet
  facet normal 0 -1 0
    outer loop
      vertex 25 -57.28 0
      vertex 31.5533 -57.28 -20.1677
      vertex 33.4068 -57.28 -19.2795
    endloop
  endfacet
  facet normal 0 -1 0
    outer loop
      vertex 25 -57.28 0
      vertex 29.9423 -57.28 -20.9397
      vertex 31.5533 -57.28 -20.1677
    endloop
  endfacet
  facet normal 0 -1 0
    outer loop
      vertex 25 -57.28 0
      vertex 27.8606 -57.28 -21.5181
      vertex 29.9423 -57.28 -20.9397
    endloop
  endfacet
  facet normal 0 -1 0
    outer loop
      vertex 25 -57.28 -22.0855
      vertex 27.8606 -57.28 -21.5181
      vertex 25 -57.28 0
    endloop
  endfacet
  facet normal 0 -1 0
    outer loop
      vertex 27.8606 -57.28 -21.5181
      vertex 25 -57.28 -22.0855
      vertex 26.2425 -57.28 -21.9676
    endloop
  endfacet
  facet normal 0.0921813 -0.0513 -0.99442
    outer loop
      vertex 25 -51.9468 -22.4786
      vertex 26.364 -50.12 -22.4464
      vertex 26.7977 -51.7773 -22.3207
    endloop
  endfacet
  facet normal 0.0922239 -0.051332 -0.994414
    outer loop
      vertex 26.364 -50.12 -22.4464
      vertex 25 -51.9468 -22.4786
      vertex 25 -50.12 -22.5729
    endloop
  endfacet
  facet normal 0.0923913 -0.0512438 -0.994403
    outer loop
      vertex 26.9043 -50.12 -22.3962
      vertex 26.7977 -51.7773 -22.3207
      vertex 26.364 -50.12 -22.4464
    endloop
  endfacet
  facet normal 0.0942117 -0.0731817 -0.992859
    outer loop
      vertex 25 -51.9468 -22.4786
      vertex 26.2425 -57.28 -21.9676
      vertex 25 -57.28 -22.0855
    endloop
  endfacet
  facet normal 0.0941103 -0.0732061 -0.992867
    outer loop
      vertex 26.2425 -57.28 -21.9676
      vertex 25 -51.9468 -22.4786
      vertex 26.7977 -51.7773 -22.3207
    endloop
  endfacet
  facet normal 0.264778 -0.0609277 -0.962383
    outer loop
      vertex 26.7977 -51.7773 -22.3207
      vertex 30.2809 -50.12 -21.4673
      vertex 30.597 -51.4189 -21.2981
    endloop
  endfacet
  facet normal 0.264754 -0.0608721 -0.962393
    outer loop
      vertex 30.2809 -50.12 -21.4673
      vertex 26.7977 -51.7773 -22.3207
      vertex 26.9043 -50.12 -22.3962
    endloop
  endfacet
  facet normal 0.264735 -0.0609396 -0.962394
    outer loop
      vertex 30.6906 -50.12 -21.3546
      vertex 30.597 -51.4189 -21.2981
      vertex 30.2809 -50.12 -21.4673
    endloop
  endfacet
  facet normal 0.266609 -0.0884845 -0.959734
    outer loop
      vertex 26.7977 -51.7773 -22.3207
      vertex 27.8606 -57.28 -21.5181
      vertex 26.2425 -57.28 -21.9676
    endloop
  endfacet
  facet normal 0.266659 -0.0884732 -0.959722
    outer loop
      vertex 26.7977 -51.7773 -22.3207
      vertex 29.9423 -57.28 -20.9397
      vertex 27.8606 -57.28 -21.5181
    endloop
  endfacet
  facet normal 0.26666 -0.0884725 -0.959721
    outer loop
      vertex 29.9423 -57.28 -20.9397
      vertex 26.7977 -51.7773 -22.3207
      vertex 30.597 -51.4189 -21.2981
    endloop
  endfacet
  facet normal 0.428512 -0.0700424 -0.900817
    outer loop
      vertex 30.597 -51.4189 -21.2981
      vertex 33.9542 -50.12 -19.8021
      vertex 34.1618 -51.0826 -19.6285
    endloop
  endfacet
  facet normal 0.428518 -0.0700633 -0.900813
    outer loop
      vertex 33.9542 -50.12 -19.8021
      vertex 30.597 -51.4189 -21.2981
      vertex 30.6906 -50.12 -21.3546
    endloop
  endfacet
  facet normal 0.428645 -0.0700029 -0.900757
    outer loop
      vertex 34.2381 -50.12 -19.667
      vertex 34.1618 -51.0826 -19.6285
      vertex 33.9542 -50.12 -19.8021
    endloop
  endfacet
  facet normal 0.429856 -0.102868 -0.897018
    outer loop
      vertex 30.597 -51.4189 -21.2981
      vertex 31.5533 -57.28 -20.1677
      vertex 29.9423 -57.28 -20.9397
    endloop
  endfacet
  facet normal 0.429853 -0.102868 -0.89702
    outer loop
      vertex 30.597 -51.4189 -21.2981
      vertex 33.4068 -57.28 -19.2795
      vertex 31.5533 -57.28 -20.1677
    endloop
  endfacet
  facet normal 0.429835 -0.10288 -0.897027
    outer loop
      vertex 33.4068 -57.28 -19.2795
      vertex 30.597 -51.4189 -21.2981
      vertex 34.1618 -51.0826 -19.6285
    endloop
  endfacet
  facet normal 0.578447 -0.078335 -0.81195
    outer loop
      vertex 37.3838 -50.7787 -17.3624
      vertex 34.2381 -50.12 -19.667
      vertex 37.2654 -50.12 -17.5103
    endloop
  endfacet
  facet normal 0.578449 -0.0783251 -0.81195
    outer loop
      vertex 34.2381 -50.12 -19.667
      vertex 37.3838 -50.7787 -17.3624
      vertex 34.1618 -51.0826 -19.6285
    endloop
  endfacet
  facet normal 0.578442 -0.0783368 -0.811954
    outer loop
      vertex 37.4403 -50.12 -17.3857
      vertex 37.3838 -50.7787 -17.3624
      vertex 37.2654 -50.12 -17.5103
    endloop
  endfacet
  facet normal 0.578716 -0.115961 -0.807243
    outer loop
      vertex 34.1618 -51.0826 -19.6285
      vertex 34.9395 -57.28 -18.1807
      vertex 33.4068 -57.28 -19.2795
    endloop
  endfacet
  facet normal 0.578662 -0.115977 -0.807279
    outer loop
      vertex 34.1618 -51.0826 -19.6285
      vertex 36.5324 -57.28 -17.0389
      vertex 34.9395 -57.28 -18.1807
    endloop
  endfacet
  facet normal 0.578698 -0.115954 -0.807257
    outer loop
      vertex 36.5324 -57.28 -17.0389
      vertex 34.1618 -51.0826 -19.6285
      vertex 37.3838 -50.7787 -17.3624
    endloop
  endfacet
  facet normal 0.710085 -0.0855887 -0.698894
    outer loop
      vertex 37.3838 -50.7787 -17.3624
      vertex 40.1108 -50.12 -14.6724
      vertex 40.165 -50.5163 -14.5688
    endloop
  endfacet
  facet normal 0.710088 -0.0856293 -0.698887
    outer loop
      vertex 40.1108 -50.12 -14.6724
      vertex 37.3838 -50.7787 -17.3624
      vertex 37.4403 -50.12 -17.3857
    endloop
  endfacet
  facet normal 0.709894 -0.0856633 -0.69908
    outer loop
      vertex 40.2013 -50.12 -14.5805
      vertex 40.165 -50.5163 -14.5688
      vertex 40.1108 -50.12 -14.6724
    endloop
  endfacet
  facet normal 0.708868 -0.127353 -0.693749
    outer loop
      vertex 37.3838 -50.7787 -17.3624
      vertex 37.9135 -57.28 -15.6277
      vertex 36.5324 -57.28 -17.0389
    endloop
  endfacet
  facet normal 0.708841 -0.127344 -0.693778
    outer loop
      vertex 37.9135 -57.28 -15.6277
      vertex 40.165 -50.5163 -14.5688
      vertex 39.2261 -57.28 -14.2866
    endloop
  endfacet
  facet normal 0.708863 -0.127355 -0.693754
    outer loop
      vertex 40.165 -50.5163 -14.5688
      vertex 37.9135 -57.28 -15.6277
      vertex 37.3838 -50.7787 -17.3624
    endloop
  endfacet
  facet normal 0.819708 -0.0915581 -0.565417
    outer loop
      vertex 40.165 -50.5163 -14.5688
      vertex 42.4049 -50.12 -11.3857
      vertex 42.4211 -50.3035 -11.3325
    endloop
  endfacet
  facet normal 0.819704 -0.0917746 -0.565387
    outer loop
      vertex 42.4049 -50.12 -11.3857
      vertex 40.165 -50.5163 -14.5688
      vertex 40.2013 -50.12 -14.5805
    endloop
  endfacet
  facet normal 0.819701 -0.0915615 -0.565426
    outer loop
      vertex 42.4387 -50.12 -11.3367
      vertex 42.4211 -50.3035 -11.3325
      vertex 42.4049 -50.12 -11.3857
    endloop
  endfacet
  facet normal 0.816832 -0.136771 -0.560427
    outer loop
      vertex 40.165 -50.5163 -14.5688
      vertex 40.3854 -57.28 -12.5969
      vertex 39.2261 -57.28 -14.2866
    endloop
  endfacet
  facet normal 0.816848 -0.136786 -0.560401
    outer loop
      vertex 40.3854 -57.28 -12.5969
      vertex 42.4211 -50.3035 -11.3325
      vertex 41.4081 -57.28 -11.1062
    endloop
  endfacet
  facet normal 0.816826 -0.136773 -0.560435
    outer loop
      vertex 42.4211 -50.3035 -11.3325
      vertex 40.3854 -57.28 -12.5969
      vertex 40.165 -50.5163 -14.5688
    endloop
  endfacet
  facet normal 0.90453 -0.0945956 -0.415786
    outer loop
      vertex 42.4211 -50.3035 -11.3325
      vertex 44.0824 -50.12 -7.76014
      vertex 44.0834 -50.1467 -7.75189
    endloop
  endfacet
  facet normal 0.904417 -0.0962587 -0.415648
    outer loop
      vertex 44.0824 -50.12 -7.76014
      vertex 42.4211 -50.3035 -11.3325
      vertex 42.4387 -50.12 -11.3367
    endloop
  endfacet
  facet normal 0.904493 -0.0946196 -0.415859
    outer loop
      vertex 44.086 -50.12 -7.75231
      vertex 44.0834 -50.1467 -7.75189
      vertex 44.0824 -50.12 -7.76014
    endloop
  endfacet
  facet normal 0.899958 -0.144024 -0.411501
    outer loop
      vertex 42.4211 -50.3035 -11.3325
      vertex 42.2843 -57.28 -9.18994
      vertex 41.4081 -57.28 -11.1062
    endloop
  endfacet
  facet normal 0.899954 -0.144019 -0.411512
    outer loop
      vertex 42.2843 -57.28 -9.18994
      vertex 44.0834 -50.1467 -7.75189
      vertex 43.0142 -57.28 -7.59369
    endloop
  endfacet
  facet normal 0.899959 -0.144023 -0.411499
    outer loop
      vertex 44.0834 -50.1467 -7.75189
      vertex 42.2843 -57.28 -9.18994
      vertex 42.4211 -50.3035 -11.3325
    endloop
  endfacet
  facet normal 0.962213 -0.0976968 -0.254167
    outer loop
      vertex 44.086 -50.12 -7.75231
      vertex 44.366 -50.12 -6.6923
      vertex 44.0834 -50.1467 -7.75189
    endloop
  endfacet
  facet normal 0.956367 -0.148923 -0.251366
    outer loop
      vertex 44.0834 -50.1467 -7.75189
      vertex 43.5598 -57.28 -5.51786
      vertex 43.0142 -57.28 -7.59369
    endloop
  endfacet
  facet normal 0.956361 -0.148919 -0.25139
    outer loop
      vertex 43.5598 -57.28 -5.51786
      vertex 44.366 -50.12 -6.6923
      vertex 45.0908 -50.12 -3.93495
    endloop
  endfacet
  facet normal 0.956357 -0.148915 -0.251407
    outer loop
      vertex 43.5598 -57.28 -5.51786
      vertex 45.0908 -50.12 -3.93495
      vertex 43.9971 -57.28 -3.85436
    endloop
  endfacet
  facet normal 0.95638 -0.14891 -0.251321
    outer loop
      vertex 44.366 -50.12 -6.6923
      vertex 43.5598 -57.28 -5.51786
      vertex 44.0834 -50.1467 -7.75189
    endloop
  endfacet
  facet normal 0.984852 -0.151392 -0.0845351
    outer loop
      vertex 43.9971 -57.28 -3.85436
      vertex 45.0926 -50.12 -3.91425
      vertex 44.1823 -57.28 -1.69674
    endloop
  endfacet
  facet normal 0.984758 -0.151387 -0.0856312
    outer loop
      vertex 45.0926 -50.12 -3.91425
      vertex 43.9971 -57.28 -3.85436
      vertex 45.0908 -50.12 -3.93495
    endloop
  endfacet
  facet normal 0.984853 -0.151401 -0.0845118
    outer loop
      vertex 44.1823 -57.28 -1.69674
      vertex 45.4286 -50.12 0
      vertex 44.3279 -57.28 0
    endloop
  endfacet
  facet normal 0.984852 -0.151394 -0.0845399
    outer loop
      vertex 45.4286 -50.12 0
      vertex 44.1823 -57.28 -1.69674
      vertex 45.0926 -50.12 -3.91425
    endloop
  endfacet
endsolid OpenSCAD_Model
