solid OpenSCAD_Model
  facet normal 1 -0 0
    outer loop
      vertex 25 -7.16 0
      vertex 25 -0.0194869 -0.233737
      vertex 25 -0.018149 0
    endloop
  endfacet
  facet normal 1 0 0
    outer loop
      vertex 25 -0.0194869 -0.233737
      vertex 25 -7.16 0
      vertex 25 -0.0237138 -0.482331
    endloop
  endfacet
  facet normal 1 0 0
    outer loop
      vertex 25 -0.0237138 -0.482331
      vertex 25 -7.16 0
      vertex 25 -0.0315556 -0.764675
    endloop
  endfacet
  facet normal 1 0 0
    outer loop
      vertex 25 -0.0315556 -0.764675
      vertex 25 -7.16 0
      vertex 25 -0.0445911 -1.11032
    endloop
  endfacet
  facet normal 1 0 -0
    outer loop
      vertex 25 -0.0736625 -1.53581
      vertex 25 -0.0445911 -1.11032
      vertex 25 -7.16 0
    endloop
  endfacet
  facet normal 1 0 0
    outer loop
      vertex 25 -0.0445911 -1.11032
      vertex 25 -0.0736625 -1.53581
      vertex 25 -0.0597682 -1.43653
    endloop
  endfacet
  facet normal 1 0 0
    outer loop
      vertex 25 -0.0736625 -1.53581
      vertex 25 -7.16 0
      vertex 25 -0.078885 -1.57313
    endloop
  endfacet
  facet normal 1 0 0
    outer loop
      vertex 25 -0.078885 -1.57313
      vertex 25 -7.16 0
      vertex 25 -0.144671 -1.97789
    endloop
  endfacet
  facet normal 1 0 0
    outer loop
      vertex 25 -0.144671 -1.97789
      vertex 25 -7.16 0
      vertex 25 -0.191816 -2.26796
    endloop
  endfacet
  facet normal 1 0 0
    outer loop
      vertex 25 -0.191816 -2.26796
      vertex 25 -7.16 0
      vertex 25 -0.251529 -2.59908
    endloop
  endfacet
  facet normal 1 0 0
    outer loop
      vertex 25 -0.251529 -2.59908
      vertex 25 -7.16 0
      vertex 25 -0.420927 -3.53845
    endloop
  endfacet
  facet normal 1 0 0
    outer loop
      vertex 25 -0.420927 -3.53845
      vertex 25 -7.16 0
      vertex 25 -0.428437 -3.5774
    endloop
  endfacet
  facet normal 1 0 0
    outer loop
      vertex 25 -0.428437 -3.5774
      vertex 25 -7.16 0
      vertex 25 -0.444253 -3.65944
    endloop
  endfacet
  facet normal 1 0 0
    outer loop
      vertex 25 -0.444253 -3.65944
      vertex 25 -7.16 0
      vertex 25 -0.731517 -4.53558
    endloop
  endfacet
  facet normal 1 0 0
    outer loop
      vertex 25 -0.731517 -4.53558
      vertex 25 -7.16 0
      vertex 25 -1.07775 -5.59157
    endloop
  endfacet
  facet normal 1 0 0
    outer loop
      vertex 25 -1.07775 -5.59157
      vertex 25 -7.16 0
      vertex 25 -1.15549 -5.85056
    endloop
  endfacet
  facet normal 1 0 0
    outer loop
      vertex 25 -1.15549 -5.85056
      vertex 25 -7.16 0
      vertex 25 -1.4304 -6.76632
    endloop
  endfacet
  facet normal 1 0 0
    outer loop
      vertex 25 -1.4304 -6.76632
      vertex 25 -7.16 0
      vertex 25 -1.57493 -7.23081
    endloop
  endfacet
  facet normal 1 0 0
    outer loop
      vertex 25 -1.57493 -7.23081
      vertex 25 -7.16 0
      vertex 25 -1.62672 -7.39723
    endloop
  endfacet
  facet normal 1 0 0
    outer loop
      vertex 25 -1.62672 -7.39723
      vertex 25 -7.16 0
      vertex 25 -2.15709 -8.81398
    endloop
  endfacet
  facet normal 1 0 -0
    outer loop
      vertex 25 -3.15973 -10.5437
      vertex 25 -2.15709 -8.81398
      vertex 25 -7.16 0
    endloop
  endfacet
  facet normal 1 0 0
    outer loop
      vertex 25 -2.15709 -8.81398
      vertex 25 -3.15973 -10.5437
      vertex 25 -2.32723 -9.26847
    endloop
  endfacet
  facet normal 1 0 0
    outer loop
      vertex 25 -3.15973 -10.5437
      vertex 25 -7.16 0
      vertex 25 -3.62668 -11.259
    endloop
  endfacet
  facet normal 1 0 0
    outer loop
      vertex 25 -3.62668 -11.259
      vertex 25 -7.16 0
      vertex 25 -4.30676 -12.2621
    endloop
  endfacet
  facet normal 1 0 0
    outer loop
      vertex 25 -4.30676 -12.2621
      vertex 25 -7.16 0
      vertex 25 -5.10841 -13.4446
    endloop
  endfacet
  facet normal 1 0 0
    outer loop
      vertex 25 -5.10841 -13.4446
      vertex 25 -7.16 0
      vertex 25 -5.45799 -13.9077
    endloop
  endfacet
  facet normal 1 0 0
    outer loop
      vertex 25 -7.16 -15.7524
      vertex 25 -5.45799 -13.9077
      vertex 25 -7.16 0
    endloop
  endfacet
  facet normal 1 0 0
    outer loop
      vertex 25 -5.45799 -13.9077
      vertex 25 -7.16 -15.7524
      vertex 25 -6.20371 -14.8955
    endloop
  endfacet
  facet normal 1 0 0
    outer loop
      vertex 25 -6.20371 -14.8955
      vertex 25 -7.16 -15.7524
      vertex 25 -6.55649 -15.315
    endloop
  endfacet
  facet normal 1 0 0
    outer loop
      vertex 25 -6.55649 -15.315
      vertex 25 -7.16 -15.7524
      vertex 25 -6.74707 -15.5417
    endloop
  endfacet
  facet normal -0 0 1
    outer loop
      vertex 23.672 -0.0561466 0
      vertex 25 -7.16 0
      vertex 25 -0.018149 0
    endloop
  endfacet
  facet normal -0 0 1
    outer loop
      vertex 21.7348 -0.367783 0
      vertex 25 -7.16 0
      vertex 23.672 -0.0561466 0
    endloop
  endfacet
  facet normal -0 0 1
    outer loop
      vertex 19.8549 -0.929606 0
      vertex 25 -7.16 0
      vertex 21.7348 -0.367783 0
    endloop
  endfacet
  facet normal -0 0 1
    outer loop
      vertex 18.0643 -1.73201 0
      vertex 25 -7.16 0
      vertex 19.8549 -0.929606 0
    endloop
  endfacet
  facet normal -0 0 1
    outer loop
      vertex 16.3637 -2.4414 0
      vertex 25 -7.16 0
      vertex 18.0643 -1.73201 0
    endloop
  endfacet
  facet normal -0 0 1
    outer loop
      vertex 14.4174 -3.32552 0
      vertex 25 -7.16 0
      vertex 16.3637 -2.4414 0
    endloop
  endfacet
  facet normal -0 0 1
    outer loop
      vertex 12.4132 -4.81402 0
      vertex 25 -7.16 0
      vertex 14.4174 -3.32552 0
    endloop
  endfacet
  facet normal 0 0 1
    outer loop
      vertex 10.374 -7.16 0
      vertex 12.4132 -4.81402 0
      vertex 10.6971 -6.45763 0
    endloop
  endfacet
  facet normal 0 0 1
    outer loop
      vertex 12.4132 -4.81402 0
      vertex 10.374 -7.16 0
      vertex 25 -7.16 0
    endloop
  endfacet
  facet normal 0 -1 0
    outer loop
      vertex 10.4676 -7.16 -1.12376
      vertex 25 -7.16 0
      vertex 10.374 -7.16 0
    endloop
  endfacet
  facet normal 0 -1 0
    outer loop
      vertex 10.5821 -7.16 -2.49844
      vertex 25 -7.16 0
      vertex 10.4676 -7.16 -1.12376
    endloop
  endfacet
  facet normal 0 -1 0
    outer loop
      vertex 10.8765 -7.16 -3.65585
      vertex 25 -7.16 0
      vertex 10.5821 -7.16 -2.49844
    endloop
  endfacet
  facet normal 0 -1 0
    outer loop
      vertex 11.2046 -7.16 -4.94621
      vertex 25 -7.16 0
      vertex 10.8765 -7.16 -3.65585
    endloop
  endfacet
  facet normal 0 -1 0
    outer loop
      vertex 11.7425 -7.16 -6.17101
      vertex 25 -7.16 0
      vertex 11.2046 -7.16 -4.94621
    endloop
  endfacet
  facet normal 0 -1 0
    outer loop
      vertex 12.2348 -7.16 -7.29196
      vertex 25 -7.16 0
      vertex 11.7425 -7.16 -6.17101
    endloop
  endfacet
  facet normal 0 -1 0
    outer loop
      vertex 13.0876 -7.16 -8.60207
      vertex 25 -7.16 0
      vertex 12.2348 -7.16 -7.29196
    endloop
  endfacet
  facet normal 0 -1 0
    outer loop
      vertex 13.6611 -7.16 -9.48308
      vertex 25 -7.16 0
      vertex 13.0876 -7.16 -8.60207
    endloop
  endfacet
  facet normal 0 -1 0
    outer loop
      vertex 14.9232 -7.16 -10.8694
      vertex 25 -7.16 0
      vertex 13.6611 -7.16 -9.48308
    endloop
  endfacet
  facet normal 0 -1 0
    outer loop
      vertex 15.4658 -7.16 -11.4654
      vertex 25 -7.16 0
      vertex 14.9232 -7.16 -10.8694
    endloop
  endfacet
  facet normal 0 -1 0
    outer loop
      vertex 17.2439 -7.16 -12.8815
      vertex 25 -7.16 0
      vertex 15.4658 -7.16 -11.4654
    endloop
  endfacet
  facet normal 0 -1 0
    outer loop
      vertex 17.6229 -7.16 -13.1833
      vertex 25 -7.16 0
      vertex 17.2439 -7.16 -12.8815
    endloop
  endfacet
  facet normal 0 -1 0
    outer loop
      vertex 20.021 -7.16 -14.5375
      vertex 25 -7.16 0
      vertex 17.6229 -7.16 -13.1833
    endloop
  endfacet
  facet normal 0 -1 0
    outer loop
      vertex 20.6226 -7.16 -14.7759
      vertex 20.021 -7.16 -14.5375
      vertex 20.0971 -7.16 -14.5804
    endloop
  endfacet
  facet normal 0 -1 0
    outer loop
      vertex 20.021 -7.16 -14.5375
      vertex 20.6226 -7.16 -14.7759
      vertex 25 -7.16 0
    endloop
  endfacet
  facet normal 0 -1 0
    outer loop
      vertex 22.7646 -7.16 -15.4484
      vertex 25 -7.16 0
      vertex 20.6226 -7.16 -14.7759
    endloop
  endfacet
  facet normal 0 -1 0
    outer loop
      vertex 23.1585 -7.16 -15.5019
      vertex 25 -7.16 0
      vertex 22.7646 -7.16 -15.4484
    endloop
  endfacet
  facet normal 0 -1 -0
    outer loop
      vertex 25 -7.16 0
      vertex 23.1585 -7.16 -15.5019
      vertex 25 -7.16 -15.7524
    endloop
  endfacet
  facet normal -0.0880132 0.99397 -0.0654001
    outer loop
      vertex 24.0225 -0.151977 -1.92815
      vertex 23.684 -0.183907 -1.95789
      vertex 23.672 -0.0561466 0
    endloop
  endfacet
  facet normal -0.0751038 0.977911 -0.195063
    outer loop
      vertex 24.3912 -0.501687 -3.82331
      vertex 23.72 -0.565 -3.88229
      vertex 23.684 -0.183907 -1.95789
    endloop
  endfacet
  facet normal -0.0751063 0.977911 -0.195064
    outer loop
      vertex 24.0225 -0.151977 -1.92815
      vertex 24.3912 -0.501687 -3.82331
      vertex 23.684 -0.183907 -1.95789
    endloop
  endfacet
  facet normal -0.0609131 0.945012 -0.321314
    outer loop
      vertex 24.7716 -1.09929 -5.65304
      vertex 23.7792 -1.19291 -5.74025
      vertex 23.72 -0.565 -3.88229
    endloop
  endfacet
  facet normal -0.0609069 0.945013 -0.321311
    outer loop
      vertex 24.3912 -0.501687 -3.82331
      vertex 24.7716 -1.09929 -5.65304
      vertex 23.72 -0.565 -3.88229
    endloop
  endfacet
  facet normal -0.0638201 0.952886 -0.296539
    outer loop
      vertex 23.8305 -1.73703 -7.5
      vertex 25 -1.57493 -7.23081
      vertex 25 -1.62672 -7.39723
    endloop
  endfacet
  facet normal -0.0638307 0.952898 -0.2965
    outer loop
      vertex 25 -1.57493 -7.23081
      vertex 23.8305 -1.73703 -7.5
      vertex 23.7792 -1.19291 -5.74025
    endloop
  endfacet
  facet normal -0.063837 0.952895 -0.296505
    outer loop
      vertex 25 -1.4304 -6.76632
      vertex 23.7792 -1.19291 -5.74025
      vertex 24.7716 -1.09929 -5.65304
    endloop
  endfacet
  facet normal -0.0638337 0.952897 -0.296502
    outer loop
      vertex 23.7792 -1.19291 -5.74025
      vertex 25 -1.4304 -6.76632
      vertex 25 -1.57493 -7.23081
    endloop
  endfacet
  facet normal -0.0574437 0.934982 -0.350014
    outer loop
      vertex 23.7539 -2.44478 -9.37797
      vertex 25 -2.15709 -8.81398
      vertex 25 -2.32723 -9.26847
    endloop
  endfacet
  facet normal -0.0574392 0.934979 -0.350022
    outer loop
      vertex 25 -2.15709 -8.81398
      vertex 23.7539 -2.44478 -9.37797
      vertex 23.8305 -1.73703 -7.5
    endloop
  endfacet
  facet normal -0.0574319 0.934981 -0.350017
    outer loop
      vertex 25 -1.62672 -7.39723
      vertex 25 -2.15709 -8.81398
      vertex 23.8305 -1.73703 -7.5
    endloop
  endfacet
  facet normal -0.0309423 0.836969 -0.546376
    outer loop
      vertex 23.7332 -3.74617 -11.3703
      vertex 25 -3.15973 -10.5437
      vertex 25 -3.62668 -11.259
    endloop
  endfacet
  facet normal -0.0309351 0.836964 -0.546383
    outer loop
      vertex 25 -3.15973 -10.5437
      vertex 23.7332 -3.74617 -11.3703
      vertex 23.7539 -2.44478 -9.37797
    endloop
  endfacet
  facet normal -0.0309408 0.836961 -0.546388
    outer loop
      vertex 25 -2.32723 -9.26847
      vertex 25 -3.15973 -10.5437
      vertex 23.7539 -2.44478 -9.37797
    endloop
  endfacet
  facet normal -0.0287907 0.82738 -0.560904
    outer loop
      vertex 24.1561 -5.18801 -13.5187
      vertex 25 -4.30676 -12.2621
      vertex 25 -5.10841 -13.4446
    endloop
  endfacet
  facet normal -0.0287481 0.827368 -0.560924
    outer loop
      vertex 25 -4.30676 -12.2621
      vertex 24.1561 -5.18801 -13.5187
      vertex 23.7332 -3.74617 -11.3703
    endloop
  endfacet
  facet normal -0.0287572 0.827362 -0.560933
    outer loop
      vertex 25 -3.62668 -11.259
      vertex 25 -4.30676 -12.2621
      vertex 23.7332 -3.74617 -11.3703
    endloop
  endfacet
  facet normal -0.0223968 0.797907 -0.602364
    outer loop
      vertex 25 -5.45799 -13.9077
      vertex 25 -6.20371 -14.8955
      vertex 24.1561 -5.18801 -13.5187
    endloop
  endfacet
  facet normal -0.0223751 0.797931 -0.602334
    outer loop
      vertex 25 -5.10841 -13.4446
      vertex 25 -5.45799 -13.9077
      vertex 24.1561 -5.18801 -13.5187
    endloop
  endfacet
  facet normal -0.0767969 0.995028 -0.0634138
    outer loop
      vertex 24.3507 -0.121017 -1.83982
      vertex 24.0225 -0.151977 -1.92815
      vertex 23.672 -0.0561466 0
    endloop
  endfacet
  facet normal -0.0416446 0.981068 -0.189134
    outer loop
      vertex 24.3912 -0.501687 -3.82331
      vertex 25 -0.428437 -3.5774
      vertex 25 -0.444253 -3.65944
    endloop
  endfacet
  facet normal -0.0416438 0.981067 -0.189136
    outer loop
      vertex 25 -0.428437 -3.5774
      vertex 24.3912 -0.501687 -3.82331
      vertex 24.0225 -0.151977 -1.92815
    endloop
  endfacet
  facet normal -0.0416438 0.981068 -0.189136
    outer loop
      vertex 25 -0.420927 -3.53845
      vertex 24.0225 -0.151977 -1.92815
      vertex 24.3507 -0.121017 -1.83982
    endloop
  endfacet
  facet normal -0.0416853 0.981061 -0.18916
    outer loop
      vertex 24.0225 -0.151977 -1.92815
      vertex 25 -0.420927 -3.53845
      vertex 25 -0.428437 -3.5774
    endloop
  endfacet
  facet normal -0.00576412 0.950212 -0.311551
    outer loop
      vertex 24.7716 -1.09929 -5.65304
      vertex 25 -0.731517 -4.53558
      vertex 25 -1.07775 -5.59157
    endloop
  endfacet
  facet normal -0.00578006 0.950213 -0.311548
    outer loop
      vertex 25 -0.731517 -4.53558
      vertex 24.7716 -1.09929 -5.65304
      vertex 24.3912 -0.501687 -3.82331
    endloop
  endfacet
  facet normal -0.00578306 0.950212 -0.31155
    outer loop
      vertex 25 -0.444253 -3.65944
      vertex 25 -0.731517 -4.53558
      vertex 24.3912 -0.501687 -3.82331
    endloop
  endfacet
  facet normal -0.0129786 0.957693 -0.287498
    outer loop
      vertex 25 -1.15549 -5.85056
      vertex 25 -1.4304 -6.76632
      vertex 24.7716 -1.09929 -5.65304
    endloop
  endfacet
  facet normal -0.0129516 0.957702 -0.28747
    outer loop
      vertex 25 -1.07775 -5.59157
      vertex 25 -1.15549 -5.85056
      vertex 24.7716 -1.09929 -5.65304
    endloop
  endfacet
  facet normal -0.06608 0.996039 -0.059496
    outer loop
      vertex 24.6587 -0.0919676 -1.69558
      vertex 24.3507 -0.121017 -1.83982
      vertex 23.672 -0.0561466 0
    endloop
  endfacet
  facet normal -0.00970969 0.98408 -0.177461
    outer loop
      vertex 25 -0.251529 -2.59908
      vertex 25 -0.420927 -3.53845
      vertex 24.3507 -0.121017 -1.83982
    endloop
  endfacet
  facet normal -0.00970964 0.984081 -0.177457
    outer loop
      vertex 25 -0.191816 -2.26796
      vertex 24.3507 -0.121017 -1.83982
      vertex 24.6587 -0.0919676 -1.69558
    endloop
  endfacet
  facet normal -0.00971536 0.984079 -0.177465
    outer loop
      vertex 24.3507 -0.121017 -1.83982
      vertex 25 -0.191816 -2.26796
      vertex 25 -0.251529 -2.59908
    endloop
  endfacet
  facet normal -0.0562253 0.996969 -0.0537809
    outer loop
      vertex 24.937 -0.0657129 -1.49983
      vertex 24.6587 -0.0919676 -1.69558
      vertex 23.672 -0.0561466 0
    endloop
  endfacet
  facet normal 0.0197187 0.986856 -0.160393
    outer loop
      vertex 25 -0.144671 -1.97789
      vertex 25 -0.191816 -2.26796
      vertex 24.6587 -0.0919676 -1.69558
    endloop
  endfacet
  facet normal 0.0197171 0.986856 -0.160393
    outer loop
      vertex 25 -0.078885 -1.57313
      vertex 24.6587 -0.0919676 -1.69558
      vertex 24.937 -0.0657129 -1.49983
    endloop
  endfacet
  facet normal 0.0197178 0.986856 -0.160395
    outer loop
      vertex 24.6587 -0.0919676 -1.69558
      vertex 25 -0.078885 -1.57313
      vertex 25 -0.144671 -1.97789
    endloop
  endfacet
  facet normal -0.0475081 0.997792 -0.0464228
    outer loop
      vertex 24.937 -0.0657129 -1.49983
      vertex 25 -0.0445911 -1.11032
      vertex 25 -0.0597682 -1.43653
    endloop
  endfacet
  facet normal -0.0474971 0.997792 -0.0464246
    outer loop
      vertex 25 -0.0445911 -1.11032
      vertex 24.937 -0.0657129 -1.49983
      vertex 23.672 -0.0561466 0
    endloop
  endfacet
  facet normal 0.0457693 0.989312 -0.138443
    outer loop
      vertex 25 -0.0736625 -1.53581
      vertex 25 -0.078885 -1.57313
      vertex 24.937 -0.0657129 -1.49983
    endloop
  endfacet
  facet normal 0.0457623 0.989311 -0.138455
    outer loop
      vertex 25 -0.0597682 -1.43653
      vertex 25 -0.0736625 -1.53581
      vertex 24.937 -0.0657129 -1.49983
    endloop
  endfacet
  facet normal -0.0401721 0.998483 -0.0376563
    outer loop
      vertex 25 -0.0315556 -0.764675
      vertex 25 -0.0445911 -1.11032
      vertex 23.672 -0.0561466 0
    endloop
  endfacet
  facet normal -0.034476 0.99902 -0.0277467
    outer loop
      vertex 25 -0.0237138 -0.482331
      vertex 25 -0.0315556 -0.764675
      vertex 23.672 -0.0561466 0
    endloop
  endfacet
  facet normal -0.0305791 0.999388 -0.0169928
    outer loop
      vertex 25 -0.0194869 -0.233737
      vertex 25 -0.0237138 -0.482331
      vertex 23.672 -0.0561466 0
    endloop
  endfacet
  facet normal -0.0286005 0.999575 -0.00572152
    outer loop
      vertex 25 -0.018149 0
      vertex 25 -0.0194869 -0.233737
      vertex 23.672 -0.0561466 0
    endloop
  endfacet
  facet normal -0.158825 0.98729 -0.00571417
    outer loop
      vertex 23.672 -0.0561466 0
      vertex 21.7644 -0.364989 -0.339984
      vertex 21.7348 -0.367783 0
    endloop
  endfacet
  facet normal -0.286302 0.957988 -0.017058
    outer loop
      vertex 21.7348 -0.367783 0
      vertex 19.9136 -0.924067 -0.674151
      vertex 19.8549 -0.929606 0
    endloop
  endfacet
  facet normal -0.286304 0.957987 -0.0170537
    outer loop
      vertex 21.7348 -0.367783 0
      vertex 21.7644 -0.364989 -0.339984
      vertex 19.9136 -0.924067 -0.674151
    endloop
  endfacet
  facet normal -0.408776 0.912201 -0.028133
    outer loop
      vertex 19.8549 -0.929606 0
      vertex 18.1512 -1.72381 -0.996784
      vertex 18.0643 -1.73201 0
    endloop
  endfacet
  facet normal -0.408792 0.912195 -0.0280997
    outer loop
      vertex 19.8549 -0.929606 0
      vertex 19.9136 -0.924067 -0.674151
      vertex 18.1512 -1.72381 -0.996784
    endloop
  endfacet
  facet normal -0.384859 0.922611 -0.0259307
    outer loop
      vertex 18.0643 -1.73201 0
      vertex 16.4771 -2.4307 -1.30236
      vertex 16.3637 -2.4414 0
    endloop
  endfacet
  facet normal -0.384838 0.922619 -0.0259604
    outer loop
      vertex 18.0643 -1.73201 0
      vertex 18.1512 -1.72381 -0.996784
      vertex 16.4771 -2.4307 -1.30236
    endloop
  endfacet
  facet normal -0.413417 0.910095 -0.0285209
    outer loop
      vertex 16.3637 -2.4414 0
      vertex 14.5592 -3.31214 -1.62847
      vertex 14.4174 -3.32552 0
    endloop
  endfacet
  facet normal -0.413417 0.910095 -0.0285202
    outer loop
      vertex 16.3637 -2.4414 0
      vertex 16.4771 -2.4307 -1.30236
      vertex 14.5592 -3.31214 -1.62847
    endloop
  endfacet
  facet normal -0.595626 0.801984 -0.0452948
    outer loop
      vertex 14.4174 -3.32552 0
      vertex 12.5852 -4.79779 -1.97443
      vertex 12.4132 -4.81402 0
    endloop
  endfacet
  facet normal -0.595639 0.801975 -0.0452763
    outer loop
      vertex 14.4174 -3.32552 0
      vertex 14.5592 -3.31214 -1.62847
      vertex 12.5852 -4.79779 -1.97443
    endloop
  endfacet
  facet normal -0.690671 0.721132 -0.0542413
    outer loop
      vertex 12.4132 -4.81402 0
      vertex 10.9016 -6.43834 -2.3475
      vertex 10.6971 -6.45763 0
    endloop
  endfacet
  facet normal -0.690672 0.721131 -0.0542393
    outer loop
      vertex 12.4132 -4.81402 0
      vertex 12.5852 -4.79779 -1.97443
      vertex 10.9016 -6.43834 -2.3475
    endloop
  endfacet
  facet normal -0.905896 0.416725 -0.0754537
    outer loop
      vertex 10.6971 -6.45763 0
      vertex 10.4676 -7.16 -1.12376
      vertex 10.374 -7.16 0
    endloop
  endfacet
  facet normal -0.905849 0.416827 -0.0754501
    outer loop
      vertex 10.4676 -7.16 -1.12376
      vertex 10.9016 -6.43834 -2.3475
      vertex 10.5821 -7.16 -2.49844
    endloop
  endfacet
  facet normal -0.905871 0.416773 -0.0754892
    outer loop
      vertex 10.9016 -6.43834 -2.3475
      vertex 10.4676 -7.16 -1.12376
      vertex 10.6971 -6.45763 0
    endloop
  endfacet
  facet normal -0.156849 0.987477 -0.016972
    outer loop
      vertex 23.672 -0.0561466 0
      vertex 21.8523 -0.356693 -0.669639
      vertex 21.7644 -0.364989 -0.339984
    endloop
  endfacet
  facet normal -0.280399 0.958544 -0.0506914
    outer loop
      vertex 21.7644 -0.364989 -0.339984
      vertex 20.088 -0.907619 -1.32782
      vertex 19.9136 -0.924067 -0.674151
    endloop
  endfacet
  facet normal -0.280421 0.95854 -0.0506499
    outer loop
      vertex 21.7644 -0.364989 -0.339984
      vertex 21.8523 -0.356693 -0.669639
      vertex 20.088 -0.907619 -1.32782
    endloop
  endfacet
  facet normal -0.399072 0.913112 -0.0834705
    outer loop
      vertex 19.9136 -0.924067 -0.674151
      vertex 18.409 -1.69949 -1.96328
      vertex 18.1512 -1.72381 -0.996784
    endloop
  endfacet
  facet normal -0.399056 0.913117 -0.0834924
    outer loop
      vertex 19.9136 -0.924067 -0.674151
      vertex 20.088 -0.907619 -1.32782
      vertex 18.409 -1.69949 -1.96328
    endloop
  endfacet
  facet normal -0.375871 0.923464 -0.0770385
    outer loop
      vertex 18.1512 -1.72381 -0.996784
      vertex 16.814 -2.39892 -2.56515
      vertex 16.4771 -2.4307 -1.30236
    endloop
  endfacet
  facet normal -0.375885 0.92346 -0.0770252
    outer loop
      vertex 18.1512 -1.72381 -0.996784
      vertex 18.409 -1.69949 -1.96328
      vertex 16.814 -2.39892 -2.56515
    endloop
  endfacet
  facet normal -0.404136 0.910752 -0.0848831
    outer loop
      vertex 16.4771 -2.4307 -1.30236
      vertex 14.9804 -3.2724 -3.20745
      vertex 14.5592 -3.31214 -1.62847
    endloop
  endfacet
  facet normal -0.404123 0.910757 -0.0848954
    outer loop
      vertex 16.4771 -2.4307 -1.30236
      vertex 16.814 -2.39892 -2.56515
      vertex 14.9804 -3.2724 -3.20745
    endloop
  endfacet
  facet normal -0.580674 0.802916 -0.1347
    outer loop
      vertex 14.5592 -3.31214 -1.62847
      vertex 13.0959 -4.74962 -3.88886
      vertex 12.5852 -4.79779 -1.97443
    endloop
  endfacet
  facet normal -0.580682 0.802911 -0.134692
    outer loop
      vertex 14.5592 -3.31214 -1.62847
      vertex 14.9804 -3.2724 -3.20745
      vertex 13.0959 -4.74962 -3.88886
    endloop
  endfacet
  facet normal -0.670348 0.72446 -0.160596
    outer loop
      vertex 12.5852 -4.79779 -1.97443
      vertex 11.5088 -6.38107 -4.62368
      vertex 10.9016 -6.43834 -2.3475
    endloop
  endfacet
  facet normal -0.670349 0.72446 -0.160596
    outer loop
      vertex 12.5852 -4.79779 -1.97443
      vertex 13.0959 -4.74962 -3.88886
      vertex 11.5088 -6.38107 -4.62368
    endloop
  endfacet
  facet normal -0.873488 0.43319 -0.222181
    outer loop
      vertex 10.9016 -6.43834 -2.3475
      vertex 10.8765 -7.16 -3.65585
      vertex 10.5821 -7.16 -2.49844
    endloop
  endfacet
  facet normal -0.87354 0.433119 -0.222115
    outer loop
      vertex 10.8765 -7.16 -3.65585
      vertex 11.5088 -6.38107 -4.62368
      vertex 11.2046 -7.16 -4.94621
    endloop
  endfacet
  facet normal -0.873545 0.433102 -0.222132
    outer loop
      vertex 11.5088 -6.38107 -4.62368
      vertex 10.8765 -7.16 -3.65585
      vertex 10.9016 -6.43834 -2.3475
    endloop
  endfacet
  facet normal -0.152944 0.987845 -0.0277473
    outer loop
      vertex 23.672 -0.0561466 0
      vertex 21.9959 -0.343148 -0.978946
      vertex 21.8523 -0.356693 -0.669639
    endloop
  endfacet
  facet normal -0.268792 0.959638 -0.0827434
    outer loop
      vertex 21.8523 -0.356693 -0.669639
      vertex 20.3727 -0.880758 -1.94114
      vertex 20.088 -0.907619 -1.32782
    endloop
  endfacet
  facet normal -0.268778 0.95964 -0.08276
    outer loop
      vertex 21.8523 -0.356693 -0.669639
      vertex 21.9959 -0.343148 -0.978946
      vertex 20.3727 -0.880758 -1.94114
    endloop
  endfacet
  facet normal -0.379917 0.914922 -0.136311
    outer loop
      vertex 20.088 -0.907619 -1.32782
      vertex 18.83 -1.65978 -2.87013
      vertex 18.409 -1.69949 -1.96328
    endloop
  endfacet
  facet normal -0.379935 0.914917 -0.136294
    outer loop
      vertex 20.088 -0.907619 -1.32782
      vertex 20.3727 -0.880758 -1.94114
      vertex 18.83 -1.65978 -2.87013
    endloop
  endfacet
  facet normal -0.358213 0.925127 -0.125795
    outer loop
      vertex 18.409 -1.69949 -1.96328
      vertex 17.3641 -2.34703 -3.75
      vertex 16.814 -2.39892 -2.56515
    endloop
  endfacet
  facet normal -0.358219 0.925125 -0.125791
    outer loop
      vertex 18.409 -1.69949 -1.96328
      vertex 18.83 -1.65978 -2.87013
      vertex 17.3641 -2.34703 -3.75
    endloop
  endfacet
  facet normal -0.38574 0.912055 -0.139139
    outer loop
      vertex 16.814 -2.39892 -2.56515
      vertex 15.6682 -3.20752 -4.68898
      vertex 14.9804 -3.2724 -3.20745
    endloop
  endfacet
  facet normal -0.385732 0.912058 -0.139144
    outer loop
      vertex 16.814 -2.39892 -2.56515
      vertex 17.3641 -2.34703 -3.75
      vertex 15.6682 -3.20752 -4.68898
    endloop
  endfacet
  facet normal -0.55108 0.804769 -0.220586
    outer loop
      vertex 14.9804 -3.2724 -3.20745
      vertex 13.9298 -4.67095 -5.68514
      vertex 13.0959 -4.74962 -3.88886
    endloop
  endfacet
  facet normal -0.551072 0.804773 -0.220592
    outer loop
      vertex 14.9804 -3.2724 -3.20745
      vertex 15.6682 -3.20752 -4.68898
      vertex 13.9298 -4.67095 -5.68514
    endloop
  endfacet
  facet normal -0.630643 0.730951 -0.260767
    outer loop
      vertex 13.0959 -4.74962 -3.88886
      vertex 12.5003 -6.28754 -6.75937
      vertex 11.5088 -6.38107 -4.62368
    endloop
  endfacet
  facet normal -0.630654 0.730944 -0.260761
    outer loop
      vertex 13.0959 -4.74962 -3.88886
      vertex 13.9298 -4.67095 -5.68514
      vertex 12.5003 -6.28754 -6.75937
    endloop
  endfacet
  facet normal -0.810975 0.464189 -0.356159
    outer loop
      vertex 11.5088 -6.38107 -4.62368
      vertex 11.7425 -7.16 -6.17101
      vertex 11.2046 -7.16 -4.94621
    endloop
  endfacet
  facet normal -0.810965 0.464203 -0.356161
    outer loop
      vertex 11.7425 -7.16 -6.17101
      vertex 12.5003 -6.28754 -6.75937
      vertex 12.2348 -7.16 -7.29196
    endloop
  endfacet
  facet normal -0.810965 0.464201 -0.356164
    outer loop
      vertex 12.5003 -6.28754 -6.75937
      vertex 11.7425 -7.16 -6.17101
      vertex 11.5088 -6.38107 -4.62368
    endloop
  endfacet
  facet normal -0.147249 0.988382 -0.0376564
    outer loop
      vertex 23.672 -0.0561466 0
      vertex 22.1908 -0.324763 -1.25851
      vertex 21.9959 -0.343148 -0.978946
    endloop
  endfacet
  facet normal -0.251797 0.961242 -0.112303
    outer loop
      vertex 21.9959 -0.343148 -0.978946
      vertex 20.7591 -0.844305 -2.49548
      vertex 20.3727 -0.880758 -1.94114
    endloop
  endfacet
  facet normal -0.251781 0.961245 -0.112316
    outer loop
      vertex 21.9959 -0.343148 -0.978946
      vertex 22.1908 -0.324763 -1.25851
      vertex 20.7591 -0.844305 -2.49548
    endloop
  endfacet
  facet normal -0.351934 0.917559 -0.185008
    outer loop
      vertex 20.3727 -0.880758 -1.94114
      vertex 19.4014 -1.60588 -3.68976
      vertex 18.83 -1.65978 -2.87013
    endloop
  endfacet
  facet normal -0.351957 0.917553 -0.184993
    outer loop
      vertex 20.3727 -0.880758 -1.94114
      vertex 20.7591 -0.844305 -2.49548
      vertex 19.4014 -1.60588 -3.68976
    endloop
  endfacet
  facet normal -0.332398 0.927561 -0.170711
    outer loop
      vertex 18.83 -1.65978 -2.87013
      vertex 18.1106 -2.27661 -4.82091
      vertex 17.3641 -2.34703 -3.75
    endloop
  endfacet
  facet normal -0.332381 0.927566 -0.170719
    outer loop
      vertex 18.83 -1.65978 -2.87013
      vertex 19.4014 -1.60588 -3.68976
      vertex 18.1106 -2.27661 -4.82091
    endloop
  endfacet
  facet normal -0.358603 0.913971 -0.189895
    outer loop
      vertex 17.3641 -2.34703 -3.75
      vertex 16.6017 -3.11947 -6.02804
      vertex 15.6682 -3.20752 -4.68898
    endloop
  endfacet
  facet normal -0.358624 0.913965 -0.189886
    outer loop
      vertex 17.3641 -2.34703 -3.75
      vertex 18.1106 -2.27661 -4.82091
      vertex 16.6017 -3.11947 -6.02804
    endloop
  endfacet
  facet normal -0.507479 0.807502 -0.300676
    outer loop
      vertex 15.6682 -3.20752 -4.68898
      vertex 15.0616 -4.56419 -7.30867
      vertex 13.9298 -4.67095 -5.68514
    endloop
  endfacet
  facet normal -0.507474 0.807504 -0.300678
    outer loop
      vertex 15.6682 -3.20752 -4.68898
      vertex 16.6017 -3.11947 -6.02804
      vertex 15.0616 -4.56419 -7.30867
    endloop
  endfacet
  facet normal -0.573385 0.74028 -0.351019
    outer loop
      vertex 13.9298 -4.67095 -5.68514
      vertex 13.8459 -6.1606 -8.68968
      vertex 12.5003 -6.28754 -6.75937
    endloop
  endfacet
  facet normal -0.573365 0.740293 -0.351026
    outer loop
      vertex 13.9298 -4.67095 -5.68514
      vertex 15.0616 -4.56419 -7.30867
      vertex 13.8459 -6.1606 -8.68968
    endloop
  endfacet
  facet normal -0.722428 0.506909 -0.470256
    outer loop
      vertex 12.5003 -6.28754 -6.75937
      vertex 13.0876 -7.16 -8.60207
      vertex 12.2348 -7.16 -7.29196
    endloop
  endfacet
  facet normal -0.722419 0.506915 -0.470264
    outer loop
      vertex 13.0876 -7.16 -8.60207
      vertex 13.8459 -6.1606 -8.68968
      vertex 13.6611 -7.16 -9.48308
    endloop
  endfacet
  facet normal -0.722422 0.506917 -0.470257
    outer loop
      vertex 13.8459 -6.1606 -8.68968
      vertex 13.0876 -7.16 -8.60207
      vertex 12.5003 -6.28754 -6.75937
    endloop
  endfacet
  facet normal -0.139914 0.989074 -0.0464363
    outer loop
      vertex 23.672 -0.0561466 0
      vertex 22.4311 -0.3021 -1.49983
      vertex 22.1908 -0.324763 -1.25851
    endloop
  endfacet
  facet normal -0.229944 0.963305 -0.138457
    outer loop
      vertex 22.1908 -0.324763 -1.25851
      vertex 21.2355 -0.799365 -2.974
      vertex 20.7591 -0.844305 -2.49548
    endloop
  endfacet
  facet normal -0.229913 0.963309 -0.138475
    outer loop
      vertex 22.1908 -0.324763 -1.25851
      vertex 22.4311 -0.3021 -1.49983
      vertex 21.2355 -0.799365 -2.974
    endloop
  endfacet
  facet normal -0.315966 0.920949 -0.228074
    outer loop
      vertex 20.7591 -0.844305 -2.49548
      vertex 20.1058 -1.53943 -4.39729
      vertex 19.4014 -1.60588 -3.68976
    endloop
  endfacet
  facet normal -0.315965 0.920949 -0.228075
    outer loop
      vertex 20.7591 -0.844305 -2.49548
      vertex 21.2355 -0.799365 -2.974
      vertex 20.1058 -1.53943 -4.39729
    endloop
  endfacet
  facet normal -0.299192 0.930696 -0.210449
    outer loop
      vertex 19.4014 -1.60588 -3.68976
      vertex 19.0309 -2.18979 -5.74533
      vertex 18.1106 -2.27661 -4.82091
    endloop
  endfacet
  facet normal -0.299184 0.930698 -0.210451
    outer loop
      vertex 19.4014 -1.60588 -3.68976
      vertex 20.1058 -1.53943 -4.39729
      vertex 19.0309 -2.18979 -5.74533
    endloop
  endfacet
  facet normal -0.323289 0.916453 -0.235791
    outer loop
      vertex 18.1106 -2.27661 -4.82091
      vertex 17.7525 -3.01091 -7.18394
      vertex 16.6017 -3.11947 -6.02804
    endloop
  endfacet
  facet normal -0.323301 0.91645 -0.235788
    outer loop
      vertex 18.1106 -2.27661 -4.82091
      vertex 19.0309 -2.18979 -5.74533
      vertex 17.7525 -3.01091 -7.18394
    endloop
  endfacet
  facet normal -0.45088 0.811038 -0.372725
    outer loop
      vertex 16.6017 -3.11947 -6.02804
      vertex 16.4569 -4.43257 -8.71014
      vertex 15.0616 -4.56419 -7.30867
    endloop
  endfacet
  facet normal -0.450885 0.811036 -0.372724
    outer loop
      vertex 16.6017 -3.11947 -6.02804
      vertex 17.7525 -3.01091 -7.18394
      vertex 16.4569 -4.43257 -8.71014
    endloop
  endfacet
  facet normal -0.50108 0.752027 -0.428223
    outer loop
      vertex 15.0616 -4.56419 -7.30867
      vertex 15.5048 -6.00411 -10.356
      vertex 13.8459 -6.1606 -8.68968
    endloop
  endfacet
  facet normal -0.50106 0.752038 -0.428226
    outer loop
      vertex 16.4569 -4.43257 -8.71014
      vertex 15.5048 -6.00411 -10.356
      vertex 15.0616 -4.56419 -7.30867
    endloop
  endfacet
  facet normal -0.613988 0.557288 -0.558972
    outer loop
      vertex 13.8459 -6.1606 -8.68968
      vertex 14.9232 -7.16 -10.8694
      vertex 13.6611 -7.16 -9.48308
    endloop
  endfacet
  facet normal -0.614013 0.557233 -0.558999
    outer loop
      vertex 14.9232 -7.16 -10.8694
      vertex 15.5048 -6.00411 -10.356
      vertex 15.4658 -7.16 -11.4654
    endloop
  endfacet
  facet normal -0.614038 0.557233 -0.558972
    outer loop
      vertex 15.5048 -6.00411 -10.356
      vertex 14.9232 -7.16 -10.8694
      vertex 13.8459 -6.1606 -8.68968
    endloop
  endfacet
  facet normal -0.13121 0.989895 -0.0537726
    outer loop
      vertex 23.672 -0.0561466 0
      vertex 22.7094 -0.275845 -1.69558
      vertex 22.4311 -0.3021 -1.49983
    endloop
  endfacet
  facet normal -0.203909 0.965762 -0.160392
    outer loop
      vertex 22.4311 -0.3021 -1.49983
      vertex 21.7874 -0.747303 -3.36216
      vertex 21.2355 -0.799365 -2.974
    endloop
  endfacet
  facet normal -0.203923 0.965759 -0.160387
    outer loop
      vertex 22.4311 -0.3021 -1.49983
      vertex 22.7094 -0.275845 -1.69558
      vertex 21.7874 -0.747303 -3.36216
    endloop
  endfacet
  facet normal -0.273081 0.924995 -0.264217
    outer loop
      vertex 21.2355 -0.799365 -2.974
      vertex 20.9218 -1.46246 -4.9712
      vertex 20.1058 -1.53943 -4.39729
    endloop
  endfacet
  facet normal -0.273084 0.924994 -0.264216
    outer loop
      vertex 21.2355 -0.799365 -2.974
      vertex 21.7874 -0.747303 -3.36216
      vertex 20.9218 -1.46246 -4.9712
    endloop
  endfacet
  facet normal -0.25961 0.934431 -0.243807
    outer loop
      vertex 20.1058 -1.53943 -4.39729
      vertex 20.0971 -2.08922 -6.49519
      vertex 19.0309 -2.18979 -5.74533
    endloop
  endfacet
  facet normal -0.259615 0.934429 -0.243806
    outer loop
      vertex 20.1058 -1.53943 -4.39729
      vertex 20.9218 -1.46246 -4.9712
      vertex 20.0971 -2.08922 -6.49519
    endloop
  endfacet
  facet normal -0.280521 0.919455 -0.275519
    outer loop
      vertex 19.0309 -2.18979 -5.74533
      vertex 19.0856 -2.88515 -8.12156
      vertex 17.7525 -3.01091 -7.18394
    endloop
  endfacet
  facet normal -0.280502 0.91946 -0.27552
    outer loop
      vertex 20.0971 -2.08922 -6.49519
      vertex 19.0856 -2.88515 -8.12156
      vertex 19.0309 -2.18979 -5.74533
    endloop
  endfacet
  facet normal -0.382611 0.815288 -0.434643
    outer loop
      vertex 17.7525 -3.01091 -7.18394
      vertex 18.0732 -4.2801 -9.84695
      vertex 16.4569 -4.43257 -8.71014
    endloop
  endfacet
  facet normal -0.382612 0.815287 -0.434643
    outer loop
      vertex 19.0856 -2.88515 -8.12156
      vertex 18.0732 -4.2801 -9.84695
      vertex 17.7525 -3.01091 -7.18394
    endloop
  endfacet
  facet normal -0.416811 0.765646 -0.489955
    outer loop
      vertex 16.4569 -4.43257 -8.71014
      vertex 17.4266 -5.82282 -11.7076
      vertex 15.5048 -6.00411 -10.356
    endloop
  endfacet
  facet normal -0.41683 0.765634 -0.489956
    outer loop
      vertex 18.0732 -4.2801 -9.84695
      vertex 17.4266 -5.82282 -11.7076
      vertex 16.4569 -4.43257 -8.71014
    endloop
  endfacet
  facet normal -0.493179 0.610985 -0.619251
    outer loop
      vertex 15.5048 -6.00411 -10.356
      vertex 17.2439 -7.16 -12.8815
      vertex 15.4658 -7.16 -11.4654
    endloop
  endfacet
  facet normal -0.493122 0.611021 -0.619262
    outer loop
      vertex 17.2439 -7.16 -12.8815
      vertex 17.4266 -5.82282 -11.7076
      vertex 17.6229 -7.16 -13.1833
    endloop
  endfacet
  facet normal -0.493154 0.611011 -0.619246
    outer loop
      vertex 17.4266 -5.82282 -11.7076
      vertex 17.2439 -7.16 -12.8815
      vertex 15.5048 -6.00411 -10.356
    endloop
  endfacet
  facet normal -0.121319 0.990828 -0.0595089
    outer loop
      vertex 23.672 -0.0561466 0
      vertex 23.0174 -0.246796 -1.83982
      vertex 22.7094 -0.275845 -1.69558
    endloop
  endfacet
  facet normal -0.174485 0.968537 -0.177458
    outer loop
      vertex 22.7094 -0.275845 -1.69558
      vertex 22.398 -0.689703 -3.64816
      vertex 21.7874 -0.747303 -3.36216
    endloop
  endfacet
  facet normal -0.174456 0.968541 -0.177464
    outer loop
      vertex 22.7094 -0.275845 -1.69558
      vertex 23.0174 -0.246796 -1.83982
      vertex 22.398 -0.689703 -3.64816
    endloop
  endfacet
  facet normal -0.224618 0.929567 -0.292321
    outer loop
      vertex 21.7874 -0.747303 -3.36216
      vertex 21.8246 -1.37729 -5.39407
      vertex 20.9218 -1.46246 -4.9712
    endloop
  endfacet
  facet normal -0.224611 0.929569 -0.292322
    outer loop
      vertex 22.398 -0.689703 -3.64816
      vertex 21.8246 -1.37729 -5.39407
      vertex 21.7874 -0.747303 -3.36216
    endloop
  endfacet
  facet normal -0.214891 0.938648 -0.269743
    outer loop
      vertex 20.9218 -1.46246 -4.9712
      vertex 21.2767 -1.97794 -7.04769
      vertex 20.0971 -2.08922 -6.49519
    endloop
  endfacet
  facet normal -0.214899 0.938646 -0.269744
    outer loop
      vertex 21.8246 -1.37729 -5.39407
      vertex 21.2767 -1.97794 -7.04769
      vertex 20.9218 -1.46246 -4.9712
    endloop
  endfacet
  facet normal -0.231245 0.922908 -0.307842
    outer loop
      vertex 20.0971 -2.08922 -6.49519
      vertex 20.5606 -2.74601 -8.81241
      vertex 19.0856 -2.88515 -8.12156
    endloop
  endfacet
  facet normal -0.231252 0.922906 -0.307843
    outer loop
      vertex 21.2767 -1.97794 -7.04769
      vertex 20.5606 -2.74601 -8.81241
      vertex 20.0971 -2.08922 -6.49519
    endloop
  endfacet
  facet normal -0.304304 0.820146 -0.48452
    outer loop
      vertex 19.0856 -2.88515 -8.12156
      vertex 19.8616 -4.1114 -10.6846
      vertex 18.0732 -4.2801 -9.84695
    endloop
  endfacet
  facet normal -0.304302 0.820147 -0.48452
    outer loop
      vertex 20.5606 -2.74601 -8.81241
      vertex 19.8616 -4.1114 -10.6846
      vertex 19.0856 -2.88515 -8.12156
    endloop
  endfacet
  facet normal -0.32402 0.780542 -0.53457
    outer loop
      vertex 18.0732 -4.2801 -9.84695
      vertex 19.5528 -5.62225 -12.7035
      vertex 17.4266 -5.82282 -11.7076
    endloop
  endfacet
  facet normal -0.32401 0.780548 -0.534567
    outer loop
      vertex 19.8616 -4.1114 -10.6846
      vertex 19.5528 -5.62225 -12.7035
      vertex 18.0732 -4.2801 -9.84695
    endloop
  endfacet
  facet normal -0.367532 0.664316 -0.650849
    outer loop
      vertex 20.021 -7.16 -14.5375
      vertex 17.6229 -7.16 -13.1833
      vertex 17.4266 -5.82282 -11.7076
    endloop
  endfacet
  facet normal -0.367519 0.66433 -0.650843
    outer loop
      vertex 19.5528 -5.62225 -12.7035
      vertex 20.021 -7.16 -14.5375
      vertex 17.4266 -5.82282 -11.7076
    endloop
  endfacet
  facet normal -0.366938 0.664586 -0.650909
    outer loop
      vertex 20.021 -7.16 -14.5375
      vertex 19.5528 -5.62225 -12.7035
      vertex 20.0971 -7.16 -14.5804
    endloop
  endfacet
  facet normal -0.110627 0.991837 -0.0634173
    outer loop
      vertex 23.672 -0.0561466 0
      vertex 23.3456 -0.215837 -1.92815
      vertex 23.0174 -0.246796 -1.83982
    endloop
  endfacet
  facet normal -0.142547 0.97155 -0.189131
    outer loop
      vertex 23.0174 -0.246796 -1.83982
      vertex 23.0488 -0.628313 -3.82331
      vertex 22.398 -0.689703 -3.64816
    endloop
  endfacet
  facet normal -0.142548 0.97155 -0.189131
    outer loop
      vertex 23.3456 -0.215837 -1.92815
      vertex 23.0488 -0.628313 -3.82331
      vertex 23.0174 -0.246796 -1.83982
    endloop
  endfacet
  facet normal -0.172012 0.934531 -0.311551
    outer loop
      vertex 22.398 -0.689703 -3.64816
      vertex 22.7868 -1.28652 -5.65304
      vertex 21.8246 -1.37729 -5.39407
    endloop
  endfacet
  facet normal -0.172002 0.934533 -0.31155
    outer loop
      vertex 23.0488 -0.628313 -3.82331
      vertex 22.7868 -1.28652 -5.65304
      vertex 22.398 -0.689703 -3.64816
    endloop
  endfacet
  facet normal -0.166351 0.943226 -0.287493
    outer loop
      vertex 21.8246 -1.37729 -5.39407
      vertex 22.5339 -1.85935 -7.38606
      vertex 21.2767 -1.97794 -7.04769
    endloop
  endfacet
  facet normal -0.166357 0.943224 -0.287495
    outer loop
      vertex 22.7868 -1.28652 -5.65304
      vertex 22.5339 -1.85935 -7.38606
      vertex 21.8246 -1.37729 -5.39407
    endloop
  endfacet
  facet normal -0.176678 0.926713 -0.331645
    outer loop
      vertex 21.2767 -1.97794 -7.04769
      vertex 22.1326 -2.59772 -9.2355
      vertex 20.5606 -2.74601 -8.81241
    endloop
  endfacet
  facet normal -0.176676 0.926713 -0.331645
    outer loop
      vertex 22.5339 -1.85935 -7.38606
      vertex 22.1326 -2.59772 -9.2355
      vertex 21.2767 -1.97794 -7.04769
    endloop
  endfacet
  facet normal -0.217984 0.825481 -0.520638
    outer loop
      vertex 20.5606 -2.74601 -8.81241
      vertex 21.7675 -3.9316 -11.1975
      vertex 19.8616 -4.1114 -10.6846
    endloop
  endfacet
  facet normal -0.217995 0.825477 -0.520641
    outer loop
      vertex 22.1326 -2.59772 -9.2355
      vertex 21.7675 -3.9316 -11.1975
      vertex 20.5606 -2.74601 -8.81241
    endloop
  endfacet
  facet normal -0.226144 0.796169 -0.561225
    outer loop
      vertex 19.8616 -4.1114 -10.6846
      vertex 21.819 -5.40848 -13.3134
      vertex 19.5528 -5.62225 -12.7035
    endloop
  endfacet
  facet normal -0.226142 0.79617 -0.561224
    outer loop
      vertex 21.7675 -3.9316 -11.1975
      vertex 21.819 -5.40848 -13.3134
      vertex 19.8616 -4.1114 -10.6846
    endloop
  endfacet
  facet normal -0.244035 0.714255 -0.655962
    outer loop
      vertex 19.5528 -5.62225 -12.7035
      vertex 20.6226 -7.16 -14.7759
      vertex 20.0971 -7.16 -14.5804
    endloop
  endfacet
  facet normal -0.243911 0.714316 -0.655942
    outer loop
      vertex 20.6226 -7.16 -14.7759
      vertex 19.5528 -5.62225 -12.7035
      vertex 22.7254 -6.96163 -15.3418
    endloop
  endfacet
  facet normal -0.243915 0.714312 -0.655945
    outer loop
      vertex 21.819 -5.40848 -13.3134
      vertex 22.7254 -6.96163 -15.3418
      vertex 19.5528 -5.62225 -12.7035
    endloop
  endfacet
  facet normal -0.2728 0.413023 -0.868903
    outer loop
      vertex 22.7254 -6.96163 -15.3418
      vertex 22.7646 -7.16 -15.4484
      vertex 20.6226 -7.16 -14.7759
    endloop
  endfacet
  facet normal -0.0994328 0.992893 -0.0653998
    outer loop
      vertex 23.672 -0.0561466 0
      vertex 23.684 -0.183907 -1.95789
      vertex 23.3456 -0.215837 -1.92815
    endloop
  endfacet
  facet normal -0.109082 0.974707 -0.195059
    outer loop
      vertex 23.3456 -0.215837 -1.92815
      vertex 23.72 -0.565 -3.88229
      vertex 23.0488 -0.628313 -3.82331
    endloop
  endfacet
  facet normal -0.109112 0.974702 -0.195064
    outer loop
      vertex 23.684 -0.183907 -1.95789
      vertex 23.72 -0.565 -3.88229
      vertex 23.3456 -0.215837 -1.92815
    endloop
  endfacet
  facet normal -0.116878 0.939733 -0.321313
    outer loop
      vertex 23.0488 -0.628313 -3.82331
      vertex 23.7792 -1.19291 -5.74025
      vertex 22.7868 -1.28652 -5.65304
    endloop
  endfacet
  facet normal -0.116878 0.939733 -0.321313
    outer loop
      vertex 23.72 -0.565 -3.88229
      vertex 23.7792 -1.19291 -5.74025
      vertex 23.0488 -0.628313 -3.82331
    endloop
  endfacet
  facet normal -0.115491 0.948023 -0.296504
    outer loop
      vertex 22.7868 -1.28652 -5.65304
      vertex 23.8305 -1.73703 -7.5
      vertex 22.5339 -1.85935 -7.38606
    endloop
  endfacet
  facet normal -0.11548 0.948026 -0.296499
    outer loop
      vertex 23.7792 -1.19291 -5.74025
      vertex 23.8305 -1.73703 -7.5
      vertex 22.7868 -1.28652 -5.65304
    endloop
  endfacet
  facet normal -0.118202 0.930776 -0.345955
    outer loop
      vertex 22.5339 -1.85935 -7.38606
      vertex 23.7539 -2.44478 -9.37797
      vertex 22.1326 -2.59772 -9.2355
    endloop
  endfacet
  facet normal -0.11821 0.930773 -0.345959
    outer loop
      vertex 23.8305 -1.73703 -7.5
      vertex 23.7539 -2.44478 -9.37797
      vertex 22.5339 -1.85935 -7.38606
    endloop
  endfacet
  facet normal -0.126014 0.831135 -0.541604
    outer loop
      vertex 22.1326 -2.59772 -9.2355
      vertex 23.7332 -3.74617 -11.3703
      vertex 21.7675 -3.9316 -11.1975
    endloop
  endfacet
  facet normal -0.125995 0.831144 -0.541594
    outer loop
      vertex 23.7539 -2.44478 -9.37797
      vertex 23.7332 -3.74617 -11.3703
      vertex 22.1326 -2.59772 -9.2355
    endloop
  endfacet
  facet normal -0.12665 0.811952 -0.569818
    outer loop
      vertex 24.1561 -5.18801 -13.5187
      vertex 21.819 -5.40848 -13.3134
      vertex 21.7675 -3.9316 -11.1975
    endloop
  endfacet
  facet normal -0.126685 0.81193 -0.569842
    outer loop
      vertex 23.7332 -3.74617 -11.3703
      vertex 24.1561 -5.18801 -13.5187
      vertex 21.7675 -3.9316 -11.1975
    endloop
  endfacet
  facet normal -0.127689 0.759113 -0.638313
    outer loop
      vertex 25 -6.55649 -15.315
      vertex 22.7254 -6.96163 -15.3418
      vertex 21.819 -5.40848 -13.3134
    endloop
  endfacet
  facet normal -0.127702 0.759185 -0.638224
    outer loop
      vertex 22.7254 -6.96163 -15.3418
      vertex 25 -6.55649 -15.315
      vertex 25 -6.74707 -15.5417
    endloop
  endfacet
  facet normal -0.127838 0.759066 -0.638339
    outer loop
      vertex 25 -6.55649 -15.315
      vertex 24.1561 -5.18801 -13.5187
      vertex 25 -6.20371 -14.8955
    endloop
  endfacet
  facet normal -0.127683 0.759119 -0.638307
    outer loop
      vertex 24.1561 -5.18801 -13.5187
      vertex 25 -6.55649 -15.315
      vertex 21.819 -5.40848 -13.3134
    endloop
  endfacet
  facet normal -0.120092 0.451417 -0.884195
    outer loop
      vertex 23.1585 -7.16 -15.5019
      vertex 22.7646 -7.16 -15.4484
      vertex 22.7254 -6.96163 -15.3418
    endloop
  endfacet
  facet normal -0.120288 0.451207 -0.884275
    outer loop
      vertex 23.1585 -7.16 -15.5019
      vertex 25 -6.74707 -15.5417
      vertex 25 -7.16 -15.7524
    endloop
  endfacet
  facet normal -0.120271 0.451126 -0.884319
    outer loop
      vertex 25 -6.74707 -15.5417
      vertex 23.1585 -7.16 -15.5019
      vertex 22.7254 -6.96163 -15.3418
    endloop
  endfacet
endsolid OpenSCAD_Model
