solid OpenSCAD_Model
  facet normal -0 0 1
    outer loop
      vertex 25 -57.28 0
      vertex 43.4857 -62.7585 0
      vertex 44.3279 -57.28 0
    endloop
  endfacet
  facet normal 0 0 1
    outer loop
      vertex 25 -64.44 0
      vertex 43.4857 -62.7585 0
      vertex 25 -57.28 0
    endloop
  endfacet
  facet normal 0 0 1
    outer loop
      vertex 43.4857 -62.7585 0
      vertex 25 -64.44 0
      vertex 43.2994 -64.44 0
    endloop
  endfacet
  facet normal -1 0 0
    outer loop
      vertex 25 -62.0351 -21.7349
      vertex 25 -57.28 0
      vertex 25 -57.28 -22.0855
    endloop
  endfacet
  facet normal -1 0 0
    outer loop
      vertex 25 -64.44 0
      vertex 25 -62.0351 -21.7349
      vertex 25 -64.44 -21.5576
    endloop
  endfacet
  facet normal -1 0 0
    outer loop
      vertex 25 -62.0351 -21.7349
      vertex 25 -64.44 0
      vertex 25 -57.28 0
    endloop
  endfacet
  facet normal 0 1 -0
    outer loop
      vertex 44.1823 -57.28 -1.69674
      vertex 25 -57.28 0
      vertex 44.3279 -57.28 0
    endloop
  endfacet
  facet normal 0 1 -0
    outer loop
      vertex 43.9971 -57.28 -3.85436
      vertex 25 -57.28 0
      vertex 44.1823 -57.28 -1.69674
    endloop
  endfacet
  facet normal 0 1 -0
    outer loop
      vertex 43.5598 -57.28 -5.51786
      vertex 25 -57.28 0
      vertex 43.9971 -57.28 -3.85436
    endloop
  endfacet
  facet normal 0 1 -0
    outer loop
      vertex 43.0142 -57.28 -7.59369
      vertex 25 -57.28 0
      vertex 43.5598 -57.28 -5.51786
    endloop
  endfacet
  facet normal 0 1 -0
    outer loop
      vertex 42.2843 -57.28 -9.18994
      vertex 25 -57.28 0
      vertex 43.0142 -57.28 -7.59369
    endloop
  endfacet
  facet normal 0 1 -0
    outer loop
      vertex 41.4081 -57.28 -11.1062
      vertex 25 -57.28 0
      vertex 42.2843 -57.28 -9.18994
    endloop
  endfacet
  facet normal 0 1 -0
    outer loop
      vertex 40.3854 -57.28 -12.5969
      vertex 25 -57.28 0
      vertex 41.4081 -57.28 -11.1062
    endloop
  endfacet
  facet normal 0 1 -0
    outer loop
      vertex 39.2261 -57.28 -14.2866
      vertex 25 -57.28 0
      vertex 40.3854 -57.28 -12.5969
    endloop
  endfacet
  facet normal 0 1 -0
    outer loop
      vertex 37.9135 -57.28 -15.6277
      vertex 25 -57.28 0
      vertex 39.2261 -57.28 -14.2866
    endloop
  endfacet
  facet normal 0 1 -0
    outer loop
      vertex 36.5324 -57.28 -17.0389
      vertex 25 -57.28 0
      vertex 37.9135 -57.28 -15.6277
    endloop
  endfacet
  facet normal 0 1 -0
    outer loop
      vertex 34.9395 -57.28 -18.1807
      vertex 25 -57.28 0
      vertex 36.5324 -57.28 -17.0389
    endloop
  endfacet
  facet normal 0 1 -0
    outer loop
      vertex 33.4068 -57.28 -19.2795
      vertex 25 -57.28 0
      vertex 34.9395 -57.28 -18.1807
    endloop
  endfacet
  facet normal 0 1 -0
    outer loop
      vertex 31.5533 -57.28 -20.1677
      vertex 25 -57.28 0
      vertex 33.4068 -57.28 -19.2795
    endloop
  endfacet
  facet normal 0 1 -0
    outer loop
      vertex 29.9423 -57.28 -20.9397
      vertex 25 -57.28 0
      vertex 31.5533 -57.28 -20.1677
    endloop
  endfacet
  facet normal 0 1 -0
    outer loop
      vertex 27.8606 -57.28 -21.5181
      vertex 25 -57.28 0
      vertex 29.9423 -57.28 -20.9397
    endloop
  endfacet
  facet normal 0 1 0
    outer loop
      vertex 25 -57.28 -22.0855
      vertex 27.8606 -57.28 -21.5181
      vertex 26.2425 -57.28 -21.9676
    endloop
  endfacet
  facet normal 0 1 0
    outer loop
      vertex 27.8606 -57.28 -21.5181
      vertex 25 -57.28 -22.0855
      vertex 25 -57.28 0
    endloop
  endfacet
  facet normal 0 -1 0
    outer loop
      vertex 25 -64.44 0
      vertex 43.0152 -64.44 -3.29786
      vertex 43.2994 -64.44 0
    endloop
  endfacet
  facet normal 0 -1 0
    outer loop
      vertex 25 -64.44 0
      vertex 42.9747 -64.44 -3.76694
      vertex 43.0152 -64.44 -3.29786
    endloop
  endfacet
  facet normal 0 -1 0
    outer loop
      vertex 25 -64.44 0
      vertex 42.124 -64.44 -6.99047
      vertex 42.9747 -64.44 -3.76694
    endloop
  endfacet
  facet normal 0 -1 0
    outer loop
      vertex 25 -64.44 0
      vertex 42.0101 -64.44 -7.42221
      vertex 42.124 -64.44 -6.99047
    endloop
  endfacet
  facet normal 0 -1 0
    outer loop
      vertex 25 -64.44 0
      vertex 40.6023 -64.44 -10.4891
      vertex 42.0101 -64.44 -7.42221
    endloop
  endfacet
  facet normal 0 -1 0
    outer loop
      vertex 25 -64.44 0
      vertex 40.4334 -64.44 -10.8572
      vertex 40.6023 -64.44 -10.4891
    endloop
  endfacet
  facet normal 0 -1 0
    outer loop
      vertex 25 -64.44 0
      vertex 38.4874 -64.44 -13.6833
      vertex 40.4334 -64.44 -10.8572
    endloop
  endfacet
  facet normal 0 -1 0
    outer loop
      vertex 25 -64.44 0
      vertex 38.2904 -64.44 -13.9694
      vertex 38.4874 -64.44 -13.6833
    endloop
  endfacet
  facet normal 0 -1 0
    outer loop
      vertex 25 -64.44 0
      vertex 35.8364 -64.44 -16.4687
      vertex 38.2904 -64.44 -13.9694
    endloop
  endfacet
  facet normal 0 -1 0
    outer loop
      vertex 25 -64.44 0
      vertex 35.6435 -64.44 -16.6652
      vertex 35.8364 -64.44 -16.4687
    endloop
  endfacet
  facet normal 0 -1 0
    outer loop
      vertex 25 -64.44 0
      vertex 32.7258 -64.44 -18.7517
      vertex 35.6435 -64.44 -16.6652
    endloop
  endfacet
  facet normal 0 -1 0
    outer loop
      vertex 25 -64.44 0
      vertex 32.5705 -64.44 -18.8627
      vertex 32.7258 -64.44 -18.7517
    endloop
  endfacet
  facet normal 0 -1 0
    outer loop
      vertex 25 -64.44 0
      vertex 29.2493 -64.44 -20.4525
      vertex 32.5705 -64.44 -18.8627
    endloop
  endfacet
  facet normal 0 -1 0
    outer loop
      vertex 25 -64.44 0
      vertex 29.1619 -64.44 -20.4943
      vertex 29.2493 -64.44 -20.4525
    endloop
  endfacet
  facet normal 0 -1 0
    outer loop
      vertex 25 -64.44 0
      vertex 25.6608 -64.44 -21.4691
      vertex 29.1619 -64.44 -20.4943
    endloop
  endfacet
  facet normal 0 -1 0
    outer loop
      vertex 25 -64.44 -21.5576
      vertex 25.6608 -64.44 -21.4691
      vertex 25 -64.44 0
    endloop
  endfacet
  facet normal 0 -1 0
    outer loop
      vertex 25.6608 -64.44 -21.4691
      vertex 25.5158 -64.44 -21.5087
      vertex 25.52 -64.44 -21.5083
    endloop
  endfacet
  facet normal 0 -1 0
    outer loop
      vertex 25.6608 -64.44 -21.4691
      vertex 25 -64.44 -21.5576
      vertex 25.5158 -64.44 -21.5087
    endloop
  endfacet
  facet normal 0.0941278 -0.0731985 -0.992866
    outer loop
      vertex 25 -62.0351 -21.7349
      vertex 25.5158 -64.44 -21.5087
      vertex 25 -64.44 -21.5576
    endloop
  endfacet
  facet normal 0.0945554 -0.0731036 -0.992832
    outer loop
      vertex 25 -62.0351 -21.7349
      vertex 25.52 -64.44 -21.5083
      vertex 25.5158 -64.44 -21.5087
    endloop
  endfacet
  facet normal 0.0941611 -0.0731918 -0.992863
    outer loop
      vertex 25.52 -64.44 -21.5083
      vertex 25 -62.0351 -21.7349
      vertex 26.2425 -57.28 -21.9676
    endloop
  endfacet
  facet normal 0.0942116 -0.0732047 -0.992857
    outer loop
      vertex 26.2425 -57.28 -21.9676
      vertex 25 -62.0351 -21.7349
      vertex 25 -57.28 -22.0855
    endloop
  endfacet
  facet normal 0.266641 -0.0884893 -0.959725
    outer loop
      vertex 25.6608 -64.44 -21.4691
      vertex 27.8606 -57.28 -21.5181
      vertex 29.1795 -64.1081 -20.5221
    endloop
  endfacet
  facet normal 0.266609 -0.0884797 -0.959735
    outer loop
      vertex 27.8606 -57.28 -21.5181
      vertex 25.6608 -64.44 -21.4691
      vertex 26.2425 -57.28 -21.9676
    endloop
  endfacet
  facet normal 0.267156 -0.0885133 -0.95958
    outer loop
      vertex 26.2425 -57.28 -21.9676
      vertex 25.6608 -64.44 -21.4691
      vertex 25.52 -64.44 -21.5083
    endloop
  endfacet
  facet normal 0.266658 -0.0884853 -0.959721
    outer loop
      vertex 29.9423 -57.28 -20.9397
      vertex 29.1795 -64.1081 -20.5221
      vertex 27.8606 -57.28 -21.5181
    endloop
  endfacet
  facet normal 0.267024 -0.0944896 -0.959046
    outer loop
      vertex 29.1795 -64.1081 -20.5221
      vertex 29.1619 -64.44 -20.4943
      vertex 25.6608 -64.44 -21.4691
    endloop
  endfacet
  facet normal 0.429856 -0.102873 -0.897018
    outer loop
      vertex 32.6144 -63.7841 -18.9133
      vertex 29.9423 -57.28 -20.9397
      vertex 31.5533 -57.28 -20.1677
    endloop
  endfacet
  facet normal 0.429842 -0.102881 -0.897024
    outer loop
      vertex 29.9423 -57.28 -20.9397
      vertex 32.6144 -63.7841 -18.9133
      vertex 29.1795 -64.1081 -20.5221
    endloop
  endfacet
  facet normal 0.429853 -0.102874 -0.897019
    outer loop
      vertex 33.4068 -57.28 -19.2795
      vertex 32.6144 -63.7841 -18.9133
      vertex 31.5533 -57.28 -20.1677
    endloop
  endfacet
  facet normal 0.42938 -0.0979686 -0.897795
    outer loop
      vertex 29.1795 -64.1081 -20.5221
      vertex 29.2493 -64.44 -20.4525
      vertex 29.1619 -64.44 -20.4943
    endloop
  endfacet
  facet normal 0.429686 -0.0980088 -0.897644
    outer loop
      vertex 29.2493 -64.44 -20.4525
      vertex 32.6144 -63.7841 -18.9133
      vertex 32.5705 -64.44 -18.8627
    endloop
  endfacet
  facet normal 0.429671 -0.0978802 -0.897665
    outer loop
      vertex 32.6144 -63.7841 -18.9133
      vertex 29.2493 -64.44 -20.4525
      vertex 29.1795 -64.1081 -20.5221
    endloop
  endfacet
  facet normal 0.578718 -0.115939 -0.807245
    outer loop
      vertex 35.719 -63.4912 -16.7298
      vertex 33.4068 -57.28 -19.2795
      vertex 34.9395 -57.28 -18.1807
    endloop
  endfacet
  facet normal 0.578694 -0.115954 -0.807259
    outer loop
      vertex 33.4068 -57.28 -19.2795
      vertex 35.719 -63.4912 -16.7298
      vertex 32.6144 -63.7841 -18.9133
    endloop
  endfacet
  facet normal 0.578664 -0.115954 -0.807281
    outer loop
      vertex 36.5324 -57.28 -17.0389
      vertex 35.719 -63.4912 -16.7298
      vertex 34.9395 -57.28 -18.1807
    endloop
  endfacet
  facet normal 0.578503 -0.10116 -0.809383
    outer loop
      vertex 32.6144 -63.7841 -18.9133
      vertex 32.7258 -64.44 -18.7517
      vertex 32.5705 -64.44 -18.8627
    endloop
  endfacet
  facet normal 0.578703 -0.101148 -0.809241
    outer loop
      vertex 32.7258 -64.44 -18.7517
      vertex 35.719 -63.4912 -16.7298
      vertex 35.6435 -64.44 -16.6652
    endloop
  endfacet
  facet normal 0.578695 -0.101096 -0.809254
    outer loop
      vertex 35.719 -63.4912 -16.7298
      vertex 32.7258 -64.44 -18.7517
      vertex 32.6144 -63.7841 -18.9133
    endloop
  endfacet
  facet normal 0.708856 -0.127349 -0.693762
    outer loop
      vertex 35.719 -63.4912 -16.7298
      vertex 37.9135 -57.28 -15.6277
      vertex 38.3989 -63.2384 -14.038
    endloop
  endfacet
  facet normal 0.708868 -0.127356 -0.693748
    outer loop
      vertex 37.9135 -57.28 -15.6277
      vertex 35.719 -63.4912 -16.7298
      vertex 36.5324 -57.28 -17.0389
    endloop
  endfacet
  facet normal 0.70884 -0.127354 -0.693777
    outer loop
      vertex 39.2261 -57.28 -14.2866
      vertex 38.3989 -63.2384 -14.038
      vertex 37.9135 -57.28 -15.6277
    endloop
  endfacet
  facet normal 0.70975 -0.103917 -0.696747
    outer loop
      vertex 35.719 -63.4912 -16.7298
      vertex 35.8364 -64.44 -16.4687
      vertex 35.6435 -64.44 -16.6652
    endloop
  endfacet
  facet normal 0.709685 -0.103864 -0.696821
    outer loop
      vertex 35.8364 -64.44 -16.4687
      vertex 38.3989 -63.2384 -14.038
      vertex 38.2904 -64.44 -13.9694
    endloop
  endfacet
  facet normal 0.709697 -0.103937 -0.696798
    outer loop
      vertex 38.3989 -63.2384 -14.038
      vertex 35.8364 -64.44 -16.4687
      vertex 35.719 -63.4912 -16.7298
    endloop
  endfacet
  facet normal 0.816828 -0.13678 -0.560431
    outer loop
      vertex 38.3989 -63.2384 -14.038
      vertex 40.3854 -57.28 -12.5969
      vertex 40.5728 -63.0333 -10.9196
    endloop
  endfacet
  facet normal 0.816831 -0.136782 -0.560426
    outer loop
      vertex 40.3854 -57.28 -12.5969
      vertex 38.3989 -63.2384 -14.038
      vertex 39.2261 -57.28 -14.2866
    endloop
  endfacet
  facet normal 0.816849 -0.136771 -0.560402
    outer loop
      vertex 41.4081 -57.28 -11.1062
      vertex 40.5728 -63.0333 -10.9196
      vertex 40.3854 -57.28 -12.5969
    endloop
  endfacet
  facet normal 0.818977 -0.106145 -0.563923
    outer loop
      vertex 38.3989 -63.2384 -14.038
      vertex 38.4874 -64.44 -13.6833
      vertex 38.2904 -64.44 -13.9694
    endloop
  endfacet
  facet normal 0.81897 -0.106173 -0.563928
    outer loop
      vertex 38.4874 -64.44 -13.6833
      vertex 40.5728 -63.0333 -10.9196
      vertex 40.4334 -64.44 -10.8572
    endloop
  endfacet
  facet normal 0.818967 -0.10615 -0.563937
    outer loop
      vertex 40.5728 -63.0333 -10.9196
      vertex 38.4874 -64.44 -13.6833
      vertex 38.3989 -63.2384 -14.038
    endloop
  endfacet
  facet normal 0.899964 -0.144013 -0.411492
    outer loop
      vertex 40.5728 -63.0333 -10.9196
      vertex 42.2843 -57.28 -9.18994
      vertex 42.1745 -62.8822 -7.46944
    endloop
  endfacet
  facet normal 0.89996 -0.144008 -0.411502
    outer loop
      vertex 42.2843 -57.28 -9.18994
      vertex 40.5728 -63.0333 -10.9196
      vertex 41.4081 -57.28 -11.1062
    endloop
  endfacet
  facet normal 0.899954 -0.144019 -0.411512
    outer loop
      vertex 42.2843 -57.28 -9.18994
      vertex 43.0142 -57.28 -7.59369
      vertex 42.1745 -62.8822 -7.46944
    endloop
  endfacet
  facet normal 0.90358 -0.107934 -0.414601
    outer loop
      vertex 40.5728 -63.0333 -10.9196
      vertex 40.6023 -64.44 -10.4891
      vertex 40.4334 -64.44 -10.8572
    endloop
  endfacet
  facet normal 0.903516 -0.107925 -0.414742
    outer loop
      vertex 40.6023 -64.44 -10.4891
      vertex 42.1745 -62.8822 -7.46944
      vertex 42.0101 -64.44 -7.42221
    endloop
  endfacet
  facet normal 0.90352 -0.107972 -0.414721
    outer loop
      vertex 42.1745 -62.8822 -7.46944
      vertex 40.6023 -64.44 -10.4891
      vertex 40.5728 -63.0333 -10.9196
    endloop
  endfacet
  facet normal 0.956365 -0.14892 -0.251372
    outer loop
      vertex 42.1745 -62.8822 -7.46944
      vertex 43.5598 -57.28 -5.51786
      vertex 43.1554 -62.7897 -3.79233
    endloop
  endfacet
  facet normal 0.956367 -0.148922 -0.251366
    outer loop
      vertex 43.5598 -57.28 -5.51786
      vertex 42.1745 -62.8822 -7.46944
      vertex 43.0142 -57.28 -7.59369
    endloop
  endfacet
  facet normal 0.956355 -0.14893 -0.251406
    outer loop
      vertex 43.5598 -57.28 -5.51786
      vertex 43.9971 -57.28 -3.85436
      vertex 43.1554 -62.7897 -3.79233
    endloop
  endfacet
  facet normal 0.961144 -0.109121 -0.253565
    outer loop
      vertex 42.1745 -62.8822 -7.46944
      vertex 42.124 -64.44 -6.99047
      vertex 42.0101 -64.44 -7.42221
    endloop
  endfacet
  facet normal 0.961121 -0.10914 -0.253643
    outer loop
      vertex 42.124 -64.44 -6.99047
      vertex 43.1554 -62.7897 -3.79233
      vertex 42.9747 -64.44 -3.76694
    endloop
  endfacet
  facet normal 0.961121 -0.109143 -0.253642
    outer loop
      vertex 43.1554 -62.7897 -3.79233
      vertex 42.124 -64.44 -6.99047
      vertex 42.1745 -62.8822 -7.46944
    endloop
  endfacet
  facet normal 0.984851 -0.151406 -0.0845318
    outer loop
      vertex 43.1554 -62.7897 -3.79233
      vertex 44.1823 -57.28 -1.69674
      vertex 43.4857 -62.7585 0
    endloop
  endfacet
  facet normal 0.984851 -0.151404 -0.084535
    outer loop
      vertex 44.1823 -57.28 -1.69674
      vertex 43.1554 -62.7897 -3.79233
      vertex 43.9971 -57.28 -3.85436
    endloop
  endfacet
  facet normal 0.984853 -0.1514 -0.0845118
    outer loop
      vertex 44.1823 -57.28 -1.69674
      vertex 44.3279 -57.28 0
      vertex 43.4857 -62.7585 0
    endloop
  endfacet
  facet normal 0.990276 -0.109746 -0.0854996
    outer loop
      vertex 43.1554 -62.7897 -3.79233
      vertex 43.0152 -64.44 -3.29786
      vertex 42.9747 -64.44 -3.76694
    endloop
  endfacet
  facet normal 0.990292 -0.109718 -0.0853405
    outer loop
      vertex 43.0152 -64.44 -3.29786
      vertex 43.4857 -62.7585 0
      vertex 43.2994 -64.44 0
    endloop
  endfacet
  facet normal 0.990293 -0.109702 -0.0853489
    outer loop
      vertex 43.4857 -62.7585 0
      vertex 43.0152 -64.44 -3.29786
      vertex 43.1554 -62.7897 -3.79233
    endloop
  endfacet
endsolid OpenSCAD_Model
