solid OpenSCAD_Model
  facet normal 1 -0 0
    outer loop
      vertex 49.6 -28.5888 49.42
      vertex 49.6 -21.4416 24.71
      vertex 49.6 -21.4416 49.42
    endloop
  endfacet
  facet normal 1 0 0
    outer loop
      vertex 49.6 -21.4416 24.71
      vertex 49.6 -28.5888 49.42
      vertex 49.6 -28.5888 24.71
    endloop
  endfacet
  facet normal -0 0 1
    outer loop
      vertex 24.8 -21.4416 49.42
      vertex 49.6 -28.5888 49.42
      vertex 49.6 -21.4416 49.42
    endloop
  endfacet
  facet normal 0 0 1
    outer loop
      vertex 49.6 -28.5888 49.42
      vertex 24.8 -21.4416 49.42
      vertex 24.8 -28.5888 49.42
    endloop
  endfacet
  facet normal 0 0 -1
    outer loop
      vertex 24.8 -28.5888 24.71
      vertex 49.6 -21.4416 24.71
      vertex 49.6 -28.5888 24.71
    endloop
  endfacet
  facet normal -0 0 -1
    outer loop
      vertex 49.6 -21.4416 24.71
      vertex 24.8 -28.5888 24.71
      vertex 24.8 -21.4416 24.71
    endloop
  endfacet
  facet normal -1 0 0
    outer loop
      vertex 24.8 -28.5888 24.71
      vertex 24.8 -21.4416 49.42
      vertex 24.8 -21.4416 24.71
    endloop
  endfacet
  facet normal -1 -0 0
    outer loop
      vertex 24.8 -21.4416 49.42
      vertex 24.8 -28.5888 24.71
      vertex 24.8 -28.5888 49.42
    endloop
  endfacet
  facet normal 0 1 -0
    outer loop
      vertex 49.6 -21.4416 24.71
      vertex 24.8 -21.4416 49.42
      vertex 49.6 -21.4416 49.42
    endloop
  endfacet
  facet normal 0 1 0
    outer loop
      vertex 24.8 -21.4416 49.42
      vertex 49.6 -21.4416 24.71
      vertex 24.8 -21.4416 24.71
    endloop
  endfacet
  facet normal 0 -1 0
    outer loop
      vertex 24.8 -28.5888 24.71
      vertex 49.6 -28.5888 49.42
      vertex 24.8 -28.5888 49.42
    endloop
  endfacet
  facet normal 0 -1 -0
    outer loop
      vertex 49.6 -28.5888 49.42
      vertex 24.8 -28.5888 24.71
      vertex 49.6 -28.5888 24.71
    endloop
  endfacet
endsolid OpenSCAD_Model
