solid OpenSCAD_Model
  facet normal 1 -0 0
    outer loop
      vertex 49.6 -57.1776 24.71
      vertex 49.6 -50.0304 0
      vertex 49.6 -50.0304 24.71
    endloop
  endfacet
  facet normal 1 0 0
    outer loop
      vertex 49.6 -50.0304 0
      vertex 49.6 -57.1776 24.71
      vertex 49.6 -57.1776 0
    endloop
  endfacet
  facet normal -0 0 1
    outer loop
      vertex 24.8 -50.0304 24.71
      vertex 49.6 -57.1776 24.71
      vertex 49.6 -50.0304 24.71
    endloop
  endfacet
  facet normal 0 0 1
    outer loop
      vertex 49.6 -57.1776 24.71
      vertex 24.8 -50.0304 24.71
      vertex 24.8 -57.1776 24.71
    endloop
  endfacet
  facet normal 0 0 -1
    outer loop
      vertex 24.8 -57.1776 0
      vertex 49.6 -50.0304 0
      vertex 49.6 -57.1776 0
    endloop
  endfacet
  facet normal -0 0 -1
    outer loop
      vertex 49.6 -50.0304 0
      vertex 24.8 -57.1776 0
      vertex 24.8 -50.0304 0
    endloop
  endfacet
  facet normal -1 0 0
    outer loop
      vertex 24.8 -57.1776 0
      vertex 24.8 -50.0304 24.71
      vertex 24.8 -50.0304 0
    endloop
  endfacet
  facet normal -1 -0 0
    outer loop
      vertex 24.8 -50.0304 24.71
      vertex 24.8 -57.1776 0
      vertex 24.8 -57.1776 24.71
    endloop
  endfacet
  facet normal 0 1 -0
    outer loop
      vertex 49.6 -50.0304 0
      vertex 24.8 -50.0304 24.71
      vertex 49.6 -50.0304 24.71
    endloop
  endfacet
  facet normal 0 1 0
    outer loop
      vertex 24.8 -50.0304 24.71
      vertex 49.6 -50.0304 0
      vertex 24.8 -50.0304 0
    endloop
  endfacet
  facet normal 0 -1 0
    outer loop
      vertex 24.8 -57.1776 0
      vertex 49.6 -57.1776 24.71
      vertex 24.8 -57.1776 24.71
    endloop
  endfacet
  facet normal 0 -1 -0
    outer loop
      vertex 49.6 -57.1776 24.71
      vertex 24.8 -57.1776 0
      vertex 49.6 -57.1776 0
    endloop
  endfacet
endsolid OpenSCAD_Model
