solid OpenSCAD_Model
  facet normal -1 0 0
    outer loop
      vertex 0 -142.944 24.71
      vertex 0 -135.797 49.42
      vertex 0 -135.797 24.71
    endloop
  endfacet
  facet normal -1 -0 0
    outer loop
      vertex 0 -135.797 49.42
      vertex 0 -142.944 24.71
      vertex 0 -142.944 49.42
    endloop
  endfacet
  facet normal 1 -0 0
    outer loop
      vertex 24.8 -142.944 49.42
      vertex 24.8 -135.797 24.71
      vertex 24.8 -135.797 49.42
    endloop
  endfacet
  facet normal 1 0 0
    outer loop
      vertex 24.8 -135.797 24.71
      vertex 24.8 -142.944 49.42
      vertex 24.8 -142.944 24.71
    endloop
  endfacet
  facet normal -0 0 1
    outer loop
      vertex 0 -135.797 49.42
      vertex 24.8 -142.944 49.42
      vertex 24.8 -135.797 49.42
    endloop
  endfacet
  facet normal 0 0 1
    outer loop
      vertex 24.8 -142.944 49.42
      vertex 0 -135.797 49.42
      vertex 0 -142.944 49.42
    endloop
  endfacet
  facet normal 0 0 -1
    outer loop
      vertex 0 -142.944 24.71
      vertex 24.8 -135.797 24.71
      vertex 24.8 -142.944 24.71
    endloop
  endfacet
  facet normal -0 0 -1
    outer loop
      vertex 24.8 -135.797 24.71
      vertex 0 -142.944 24.71
      vertex 0 -135.797 24.71
    endloop
  endfacet
  facet normal 0 1 -0
    outer loop
      vertex 24.8 -135.797 24.71
      vertex 0 -135.797 49.42
      vertex 24.8 -135.797 49.42
    endloop
  endfacet
  facet normal 0 1 0
    outer loop
      vertex 0 -135.797 49.42
      vertex 24.8 -135.797 24.71
      vertex 0 -135.797 24.71
    endloop
  endfacet
  facet normal 0 -1 0
    outer loop
      vertex 0 -142.944 24.71
      vertex 24.8 -142.944 49.42
      vertex 0 -142.944 49.42
    endloop
  endfacet
  facet normal 0 -1 -0
    outer loop
      vertex 24.8 -142.944 49.42
      vertex 0 -142.944 24.71
      vertex 24.8 -142.944 24.71
    endloop
  endfacet
endsolid OpenSCAD_Model
