solid OpenSCAD_Model
  facet normal 1 -0 0
    outer loop
      vertex 49.6 -128.65 24.71
      vertex 49.6 -121.502 0
      vertex 49.6 -121.502 24.71
    endloop
  endfacet
  facet normal 1 0 0
    outer loop
      vertex 49.6 -121.502 0
      vertex 49.6 -128.65 24.71
      vertex 49.6 -128.65 0
    endloop
  endfacet
  facet normal -0 0 1
    outer loop
      vertex 24.8 -121.502 24.71
      vertex 49.6 -128.65 24.71
      vertex 49.6 -121.502 24.71
    endloop
  endfacet
  facet normal 0 0 1
    outer loop
      vertex 49.6 -128.65 24.71
      vertex 24.8 -121.502 24.71
      vertex 24.8 -128.65 24.71
    endloop
  endfacet
  facet normal 0 0 -1
    outer loop
      vertex 24.8 -128.65 0
      vertex 49.6 -121.502 0
      vertex 49.6 -128.65 0
    endloop
  endfacet
  facet normal -0 0 -1
    outer loop
      vertex 49.6 -121.502 0
      vertex 24.8 -128.65 0
      vertex 24.8 -121.502 0
    endloop
  endfacet
  facet normal -1 0 0
    outer loop
      vertex 24.8 -128.65 0
      vertex 24.8 -121.502 24.71
      vertex 24.8 -121.502 0
    endloop
  endfacet
  facet normal -1 -0 0
    outer loop
      vertex 24.8 -121.502 24.71
      vertex 24.8 -128.65 0
      vertex 24.8 -128.65 24.71
    endloop
  endfacet
  facet normal 0 1 -0
    outer loop
      vertex 49.6 -121.502 0
      vertex 24.8 -121.502 24.71
      vertex 49.6 -121.502 24.71
    endloop
  endfacet
  facet normal 0 1 0
    outer loop
      vertex 24.8 -121.502 24.71
      vertex 49.6 -121.502 0
      vertex 24.8 -121.502 0
    endloop
  endfacet
  facet normal 0 -1 0
    outer loop
      vertex 24.8 -128.65 0
      vertex 49.6 -128.65 24.71
      vertex 24.8 -128.65 24.71
    endloop
  endfacet
  facet normal 0 -1 -0
    outer loop
      vertex 49.6 -128.65 24.71
      vertex 24.8 -128.65 0
      vertex 49.6 -128.65 0
    endloop
  endfacet
endsolid OpenSCAD_Model
