solid OpenSCAD_Model
  facet normal -1 0 0
    outer loop
      vertex 0 -44.4967 31.73
      vertex 0 0 63.46
      vertex 0 0 31.73
    endloop
  endfacet
  facet normal -1 -0 0
    outer loop
      vertex 0 0 63.46
      vertex 0 -44.4967 31.73
      vertex 0 -44.4967 63.46
    endloop
  endfacet
  facet normal 0 1 -0
    outer loop
      vertex 32.62 0 31.73
      vertex 0 0 63.46
      vertex 32.62 0 63.46
    endloop
  endfacet
  facet normal 0 1 0
    outer loop
      vertex 0 0 63.46
      vertex 32.62 0 31.73
      vertex 0 0 31.73
    endloop
  endfacet
  facet normal 1 -0 0
    outer loop
      vertex 32.62 -44.4967 63.46
      vertex 32.62 0 31.73
      vertex 32.62 0 63.46
    endloop
  endfacet
  facet normal 1 0 0
    outer loop
      vertex 32.62 0 31.73
      vertex 32.62 -44.4967 63.46
      vertex 32.62 -44.4967 31.73
    endloop
  endfacet
  facet normal -0 0 1
    outer loop
      vertex 0 0 63.46
      vertex 32.62 -44.4967 63.46
      vertex 32.62 0 63.46
    endloop
  endfacet
  facet normal 0 0 1
    outer loop
      vertex 32.62 -44.4967 63.46
      vertex 0 0 63.46
      vertex 0 -44.4967 63.46
    endloop
  endfacet
  facet normal 0 0 -1
    outer loop
      vertex 0 -44.4967 31.73
      vertex 32.62 0 31.73
      vertex 32.62 -44.4967 31.73
    endloop
  endfacet
  facet normal -0 0 -1
    outer loop
      vertex 32.62 0 31.73
      vertex 0 -44.4967 31.73
      vertex 0 0 31.73
    endloop
  endfacet
  facet normal 0 -1 0
    outer loop
      vertex 0 -44.4967 31.73
      vertex 32.62 -44.4967 63.46
      vertex 0 -44.4967 63.46
    endloop
  endfacet
  facet normal 0 -1 -0
    outer loop
      vertex 32.62 -44.4967 63.46
      vertex 0 -44.4967 31.73
      vertex 32.62 -44.4967 31.73
    endloop
  endfacet
endsolid OpenSCAD_Model
