solid OpenSCAD_Model
  facet normal -1 0 0
    outer loop
      vertex 0 -133.49 0
      vertex 0 -88.9933 31.73
      vertex 0 -88.9933 0
    endloop
  endfacet
  facet normal -1 -0 0
    outer loop
      vertex 0 -88.9933 31.73
      vertex 0 -133.49 0
      vertex 0 -133.49 31.73
    endloop
  endfacet
  facet normal 1 -0 0
    outer loop
      vertex 32.62 -133.49 31.73
      vertex 32.62 -88.9933 0
      vertex 32.62 -88.9933 31.73
    endloop
  endfacet
  facet normal 1 0 0
    outer loop
      vertex 32.62 -88.9933 0
      vertex 32.62 -133.49 31.73
      vertex 32.62 -133.49 0
    endloop
  endfacet
  facet normal -0 0 1
    outer loop
      vertex 0 -88.9933 31.73
      vertex 32.62 -133.49 31.73
      vertex 32.62 -88.9933 31.73
    endloop
  endfacet
  facet normal 0 0 1
    outer loop
      vertex 32.62 -133.49 31.73
      vertex 0 -88.9933 31.73
      vertex 0 -133.49 31.73
    endloop
  endfacet
  facet normal 0 0 -1
    outer loop
      vertex 0 -133.49 0
      vertex 32.62 -88.9933 0
      vertex 32.62 -133.49 0
    endloop
  endfacet
  facet normal -0 0 -1
    outer loop
      vertex 32.62 -88.9933 0
      vertex 0 -133.49 0
      vertex 0 -88.9933 0
    endloop
  endfacet
  facet normal 0 1 -0
    outer loop
      vertex 32.62 -88.9933 0
      vertex 0 -88.9933 31.73
      vertex 32.62 -88.9933 31.73
    endloop
  endfacet
  facet normal 0 1 0
    outer loop
      vertex 0 -88.9933 31.73
      vertex 32.62 -88.9933 0
      vertex 0 -88.9933 0
    endloop
  endfacet
  facet normal 0 -1 0
    outer loop
      vertex 0 -133.49 0
      vertex 32.62 -133.49 31.73
      vertex 0 -133.49 31.73
    endloop
  endfacet
  facet normal 0 -1 -0
    outer loop
      vertex 32.62 -133.49 31.73
      vertex 0 -133.49 0
      vertex 32.62 -133.49 0
    endloop
  endfacet
endsolid OpenSCAD_Model
