solid OpenSCAD_Model
  facet normal 0 0 -1
    outer loop
      vertex 20 -30 0
      vertex 39.5212 -24.1755 0
      vertex 39.9037 -30 0
    endloop
  endfacet
  facet normal -0 0 -1
    outer loop
      vertex 39.5212 -24.1755 0
      vertex 20 -30 0
      vertex 38.3886 -18.5748 0
    endloop
  endfacet
  facet normal -0 0 -1
    outer loop
      vertex 38.3886 -18.5748 0
      vertex 20 -30 0
      vertex 36.5493 -13.4131 0
    endloop
  endfacet
  facet normal -0 0 -1
    outer loop
      vertex 36.5493 -13.4131 0
      vertex 20 -30 0
      vertex 34.074 -8.88894 0
    endloop
  endfacet
  facet normal -0 0 -1
    outer loop
      vertex 34.074 -8.88894 0
      vertex 20 -30 0
      vertex 31.0579 -5.17602 0
    endloop
  endfacet
  facet normal -0 0 -1
    outer loop
      vertex 31.0579 -5.17602 0
      vertex 20 -30 0
      vertex 27.6168 -2.41708 0
    endloop
  endfacet
  facet normal 0 0 -1
    outer loop
      vertex 20 -0.144458 0
      vertex 27.6168 -2.41708 0
      vertex 20 -30 0
    endloop
  endfacet
  facet normal 0 0 -1
    outer loop
      vertex 27.6168 -2.41708 0
      vertex 20 -0.144458 0
      vertex 23.883 -0.718123 0
    endloop
  endfacet
  facet normal -1 0 0
    outer loop
      vertex 20 -0.144458 0
      vertex 20 -1.29179 4.35427
      vertex 20 -0.144458 1.47026
    endloop
  endfacet
  facet normal -1 0 0
    outer loop
      vertex 20 -0.144458 0
      vertex 20 -3.54236 7.07095
      vertex 20 -1.29179 4.35427
    endloop
  endfacet
  facet normal -1 0 0
    outer loop
      vertex 20 -0.144458 0
      vertex 20 -6.80969 9.5159
      vertex 20 -3.54236 7.07095
    endloop
  endfacet
  facet normal -1 0 0
    outer loop
      vertex 20 -30 0
      vertex 20 -6.80969 9.5159
      vertex 20 -0.144458 0
    endloop
  endfacet
  facet normal -1 -0 0
    outer loop
      vertex 20 -6.80969 9.5159
      vertex 20 -30 0
      vertex 20 -10.9682 11.5952
    endloop
  endfacet
  facet normal -1 -0 0
    outer loop
      vertex 20 -10.9682 11.5952
      vertex 20 -30 0
      vertex 20 -15.8581 13.2288
    endloop
  endfacet
  facet normal -1 -0 0
    outer loop
      vertex 20 -15.8581 13.2288
      vertex 20 -30 0
      vertex 20 -21.2915 14.3541
    endloop
  endfacet
  facet normal -1 -0 0
    outer loop
      vertex 20 -21.2915 14.3541
      vertex 20 -30 0
      vertex 20 -27.0595 14.9278
    endloop
  endfacet
  facet normal -1 -0 0
    outer loop
      vertex 20 -27.0595 14.9278
      vertex 20 -30 0
      vertex 20 -30 14.9278
    endloop
  endfacet
  facet normal 0 -1 0
    outer loop
      vertex 20 -30 0
      vertex 21.9603 -30 14.9278
      vertex 20 -30 14.9278
    endloop
  endfacet
  facet normal 0 -1 -0
    outer loop
      vertex 21.9603 -30 14.9278
      vertex 20 -30 0
      vertex 25.8057 -30 14.3541
    endloop
  endfacet
  facet normal 0 -1 -0
    outer loop
      vertex 25.8057 -30 14.3541
      vertex 20 -30 0
      vertex 29.4279 -30 13.2288
    endloop
  endfacet
  facet normal 0 -1 -0
    outer loop
      vertex 29.4279 -30 13.2288
      vertex 20 -30 0
      vertex 32.6879 -30 11.5952
    endloop
  endfacet
  facet normal 0 -1 -0
    outer loop
      vertex 32.6879 -30 11.5952
      vertex 20 -30 0
      vertex 35.4602 -30 9.5159
    endloop
  endfacet
  facet normal 0 -1 -0
    outer loop
      vertex 35.4602 -30 9.5159
      vertex 20 -30 0
      vertex 37.6384 -30 7.07095
    endloop
  endfacet
  facet normal 0 -1 -0
    outer loop
      vertex 37.6384 -30 7.07095
      vertex 20 -30 0
      vertex 39.1388 -30 4.35427
    endloop
  endfacet
  facet normal 0 -1 0
    outer loop
      vertex 39.9037 -30 0
      vertex 39.1388 -30 4.35427
      vertex 20 -30 0
    endloop
  endfacet
  facet normal 0 -1 0
    outer loop
      vertex 39.1388 -30 4.35427
      vertex 39.9037 -30 0
      vertex 39.9037 -30 1.47026
    endloop
  endfacet
  facet normal 0.405116 0.505287 0.761949
    outer loop
      vertex 26.7499 -5.55633 7.07095
      vertex 25.9164 -8.57494 9.5159
      vertex 29.7994 -8.00128 7.07095
    endloop
  endfacet
  facet normal 0.308929 0.385292 0.869548
    outer loop
      vertex 25.9164 -8.57494 9.5159
      vertex 24.8554 -12.4169 11.5952
      vertex 28.5892 -10.718 9.5159
    endloop
  endfacet
  facet normal 0.0146182 0.0989636 0.994984
    outer loop
      vertex 20 -21.2915 14.3541
      vertex 20 -27.0595 14.9278
      vertex 21.1326 -21.4588 14.3541
    endloop
  endfacet
  facet normal 0.543077 0.193526 0.817077
    outer loop
      vertex 32.8547 -17.1162 9.5159
      vertex 30.5496 -19.4265 11.5952
      vertex 31.7221 -22.7168 11.5952
    endloop
  endfacet
  facet normal 0.088169 0.596797 0.797534
    outer loop
      vertex 23.4411 -4.05074 7.07095
      vertex 20 -6.80969 9.5159
      vertex 23.0161 -7.25528 9.5159
    endloop
  endfacet
  facet normal 0.296619 0.0194707 0.954798
    outer loop
      vertex 29.2468 -27.2411 13.2288
      vertex 25.6941 -28.301 14.3541
      vertex 29.4279 -30 13.2288
    endloop
  endfacet
  facet normal 0.432427 0.087447 0.897419
    outer loop
      vertex 31.7221 -22.7168 11.5952
      vertex 29.2468 -27.2411 13.2288
      vertex 32.4441 -26.2871 11.5952
    endloop
  endfacet
  facet normal 0.146151 0.989262 -0
    outer loop
      vertex 23.883 -0.718123 0
      vertex 20 -0.144458 1.47026
      vertex 23.883 -0.718123 1.47026
    endloop
  endfacet
  facet normal 0.146151 0.989262 0
    outer loop
      vertex 20 -0.144458 1.47026
      vertex 23.883 -0.718123 0
      vertex 20 -0.144458 0
    endloop
  endfacet
  facet normal 0.264248 0.0941711 0.959846
    outer loop
      vertex 27.839 -22.1432 13.2288
      vertex 25.3638 -26.6674 14.3541
      vertex 28.7103 -24.5881 13.2288
    endloop
  endfacet
  facet normal 0.256838 0.564468 0.784481
    outer loop
      vertex 23.4411 -4.05074 7.07095
      vertex 23.0161 -7.25528 9.5159
      vertex 25.9164 -8.57494 9.5159
    endloop
  endfacet
  facet normal 0.355792 0.194662 0.914067
    outer loop
      vertex 28.9717 -16.5425 11.5952
      vertex 26.6666 -20.0002 13.2288
      vertex 30.5496 -19.4265 11.5952
    endloop
  endfacet
  facet normal 0.526077 0.427356 0.735262
    outer loop
      vertex 32.4723 -11.2916 7.07095
      vertex 28.5892 -10.718 9.5159
      vertex 30.932 -13.602 9.5159
    endloop
  endfacet
  facet normal 0.191897 0.155874 0.968957
    outer loop
      vertex 25.2379 -18.2414 13.2288
      vertex 23.2255 -22.7591 14.3541
      vertex 24.1052 -23.8421 14.3541
    endloop
  endfacet
  facet normal 0.980159 0.198212 0
    outer loop
      vertex 39.5212 -24.1755 1.47026
      vertex 38.3886 -18.5748 0
      vertex 38.3886 -18.5748 1.47026
    endloop
  endfacet
  facet normal 0.980159 0.198212 0
    outer loop
      vertex 38.3886 -18.5748 0
      vertex 39.5212 -24.1755 1.47026
      vertex 39.5212 -24.1755 0
    endloop
  endfacet
  facet normal 0.11304 0.76514 0.633863
    outer loop
      vertex 20 -1.29179 4.35427
      vertex 20 -3.54236 7.07095
      vertex 23.4411 -4.05074 7.07095
    endloop
  endfacet
  facet normal 0.232655 0.127302 0.964192
    outer loop
      vertex 26.6666 -20.0002 13.2288
      vertex 24.1052 -23.8421 14.3541
      vertex 24.8273 -25.1618 14.3541
    endloop
  endfacet
  facet normal 0.72561 0.14673 0.672279
    outer loop
      vertex 36.2958 -19.8751 7.07095
      vertex 34.2834 -21.1255 9.5159
      vertex 35.1631 -25.4758 9.5159
    endloop
  endfacet
  facet normal 0.130929 0.0466547 0.990293
    outer loop
      vertex 24.8273 -25.1618 14.3541
      vertex 21.8111 -28.8747 14.9278
      vertex 25.3638 -26.6674 14.3541
    endloop
  endfacet
  facet normal 0.232677 0.127294 0.964188
    outer loop
      vertex 26.6666 -20.0002 13.2288
      vertex 24.8273 -25.1618 14.3541
      vertex 27.839 -22.1432 13.2288
    endloop
  endfacet
  facet normal 0 0 1
    outer loop
      vertex 20 -30 14.9278
      vertex 21.9227 -29.4263 14.9278
      vertex 21.8111 -28.8747 14.9278
    endloop
  endfacet
  facet normal 0 0 1
    outer loop
      vertex 20 -30 14.9278
      vertex 21.8111 -28.8747 14.9278
      vertex 21.63 -28.3663 14.9278
    endloop
  endfacet
  facet normal 0 0 1
    outer loop
      vertex 20 -30 14.9278
      vertex 21.63 -28.3663 14.9278
      vertex 21.3862 -27.9207 14.9278
    endloop
  endfacet
  facet normal 0 0 1
    outer loop
      vertex 20 -30 14.9278
      vertex 21.3862 -27.9207 14.9278
      vertex 21.0891 -27.555 14.9278
    endloop
  endfacet
  facet normal 0 0 1
    outer loop
      vertex 20 -30 14.9278
      vertex 21.0891 -27.555 14.9278
      vertex 20.7502 -27.2833 14.9278
    endloop
  endfacet
  facet normal 0 0 1
    outer loop
      vertex 20 -27.0595 14.9278
      vertex 20.7502 -27.2833 14.9278
      vertex 20.3824 -27.116 14.9278
    endloop
  endfacet
  facet normal 0 0 1
    outer loop
      vertex 20.7502 -27.2833 14.9278
      vertex 20 -27.0595 14.9278
      vertex 20 -30 14.9278
    endloop
  endfacet
  facet normal 0 0 1
    outer loop
      vertex 21.9227 -29.4263 14.9278
      vertex 20 -30 14.9278
      vertex 21.9603 -30 14.9278
    endloop
  endfacet
  facet normal 0.906642 0.323093 0.271314
    outer loop
      vertex 38.3886 -18.5748 1.47026
      vertex 35.9133 -14.0506 4.35427
      vertex 37.682 -19.0138 4.35427
    endloop
  endfacet
  facet normal 0.96465 0.0633317 0.25581
    outer loop
      vertex 39.5212 -24.1755 1.47026
      vertex 38.7711 -24.3993 4.35427
      vertex 39.1388 -30 4.35427
    endloop
  endfacet
  facet normal 0.964641 0.0633488 0.255843
    outer loop
      vertex 39.5212 -24.1755 1.47026
      vertex 39.1388 -30 4.35427
      vertex 39.9037 -30 1.47026
    endloop
  endfacet
  facet normal 0.725603 0.146735 0.672287
    outer loop
      vertex 36.2958 -19.8751 7.07095
      vertex 35.1631 -25.4758 9.5159
      vertex 37.2995 -24.8384 7.07095
    endloop
  endfacet
  facet normal 0.90664 0.323068 0.271351
    outer loop
      vertex 36.5493 -13.4131 1.47026
      vertex 35.9133 -14.0506 4.35427
      vertex 38.3886 -18.5748 1.47026
    endloop
  endfacet
  facet normal 0.599552 0.039372 0.799367
    outer loop
      vertex 35.1631 -25.4758 9.5159
      vertex 32.4441 -26.2871 11.5952
      vertex 35.4602 -30 9.5159
    endloop
  endfacet
  facet normal 0.447818 0.0293957 0.893641
    outer loop
      vertex 32.4441 -26.2871 11.5952
      vertex 29.2468 -27.2411 13.2288
      vertex 29.4279 -30 13.2288
    endloop
  endfacet
  facet normal 0.44781 0.0294045 0.893645
    outer loop
      vertex 32.4441 -26.2871 11.5952
      vertex 29.4279 -30 13.2288
      vertex 32.6879 -30 11.5952
    endloop
  endfacet
  facet normal 0.738607 0.600013 0.307318
    outer loop
      vertex 31.0579 -5.17602 1.47026
      vertex 30.6329 -6.13 4.35427
      vertex 33.5332 -9.70023 4.35427
    endloop
  endfacet
  facet normal 0.683959 0.243726 0.687603
    outer loop
      vertex 34.6658 -15.3009 7.07095
      vertex 32.8547 -17.1162 9.5159
      vertex 34.2834 -21.1255 9.5159
    endloop
  endfacet
  facet normal 0.0299435 0.202714 0.97878
    outer loop
      vertex 21.8393 -16.1298 13.2288
      vertex 20 -21.2915 14.3541
      vertex 21.1326 -21.4588 14.3541
    endloop
  endfacet
  facet normal 0.191891 0.155876 0.968959
    outer loop
      vertex 25.2379 -18.2414 13.2288
      vertex 24.1052 -23.8421 14.3541
      vertex 26.6666 -20.0002 13.2288
    endloop
  endfacet
  facet normal 0.137845 0.302923 0.942994
    outer loop
      vertex 24.8554 -12.4169 11.5952
      vertex 21.8393 -16.1298 13.2288
      vertex 23.6079 -16.9346 13.2288
    endloop
  endfacet
  facet normal 0.355795 0.19465 0.914069
    outer loop
      vertex 30.5496 -19.4265 11.5952
      vertex 26.6666 -20.0002 13.2288
      vertex 27.839 -22.1432 13.2288
    endloop
  endfacet
  facet normal 0.0146219 0.0989629 0.994984
    outer loop
      vertex 21.1326 -21.4588 14.3541
      vertex 20 -27.0595 14.9278
      vertex 20.3824 -27.116 14.9278
    endloop
  endfacet
  facet normal 0.147561 0.00967104 0.989006
    outer loop
      vertex 25.6941 -28.301 14.3541
      vertex 21.9227 -29.4263 14.9278
      vertex 21.9603 -30 14.9278
    endloop
  endfacet
  facet normal 0.147551 0.009692 0.989007
    outer loop
      vertex 25.6941 -28.301 14.3541
      vertex 21.9603 -30 14.9278
      vertex 25.8057 -30 14.3541
    endloop
  endfacet
  facet normal 0.941982 0.335662 0
    outer loop
      vertex 38.3886 -18.5748 1.47026
      vertex 36.5493 -13.4131 0
      vertex 36.5493 -13.4131 1.47026
    endloop
  endfacet
  facet normal 0.941982 0.335662 0
    outer loop
      vertex 36.5493 -13.4131 0
      vertex 38.3886 -18.5748 1.47026
      vertex 38.3886 -18.5748 0
    endloop
  endfacet
  facet normal 0.745768 0.0489739 0.664403
    outer loop
      vertex 37.6384 -30 7.07095
      vertex 35.1631 -25.4758 9.5159
      vertex 35.4602 -30 9.5159
    endloop
  endfacet
  facet normal 0.812337 0.289473 0.506274
    outer loop
      vertex 37.682 -19.0138 4.35427
      vertex 34.6658 -15.3009 7.07095
      vertex 36.2958 -19.8751 7.07095
    endloop
  endfacet
  facet normal 0.745761 0.0489651 0.664412
    outer loop
      vertex 37.2995 -24.8384 7.07095
      vertex 35.1631 -25.4758 9.5159
      vertex 37.6384 -30 7.07095
    endloop
  endfacet
  facet normal 0.590367 0.736337 0.330567
    outer loop
      vertex 31.0579 -5.17602 1.47026
      vertex 27.6168 -2.41708 1.47026
      vertex 30.6329 -6.13 4.35427
    endloop
  endfacet
  facet normal 0.135998 0.920539 0.366214
    outer loop
      vertex 20 -0.144458 1.47026
      vertex 20 -1.29179 4.35427
      vertex 23.883 -0.718123 1.47026
    endloop
  endfacet
  facet normal 0.625532 0.780198 -0
    outer loop
      vertex 31.0579 -5.17602 0
      vertex 27.6168 -2.41708 1.47026
      vertex 31.0579 -5.17602 1.47026
    endloop
  endfacet
  facet normal 0.625532 0.780198 0
    outer loop
      vertex 27.6168 -2.41708 1.47026
      vertex 31.0579 -5.17602 0
      vertex 27.6168 -2.41708 0
    endloop
  endfacet
  facet normal 0.325907 0.716246 0.617071
    outer loop
      vertex 23.7338 -1.84341 4.35427
      vertex 23.4411 -4.05074 7.07095
      vertex 27.3241 -3.47707 4.35427
    endloop
  endfacet
  facet normal 0.0659275 0.446248 0.892477
    outer loop
      vertex 20 -6.80969 9.5159
      vertex 20 -10.9682 11.5952
      vertex 23.0161 -7.25528 9.5159
    endloop
  endfacet
  facet normal 0.0881693 0.596796 0.797534
    outer loop
      vertex 20 -3.54236 7.07095
      vertex 20 -6.80969 9.5159
      vertex 23.4411 -4.05074 7.07095
    endloop
  endfacet
  facet normal 0.221922 0.2768 0.934951
    outer loop
      vertex 27.049 -14.1756 11.5952
      vertex 24.8554 -12.4169 11.5952
      vertex 25.2379 -18.2414 13.2288
    endloop
  endfacet
  facet normal 0.295408 0.239965 0.924744
    outer loop
      vertex 27.049 -14.1756 11.5952
      vertex 25.2379 -18.2414 13.2288
      vertex 26.6666 -20.0002 13.2288
    endloop
  endfacet
  facet normal 0.295404 0.239965 0.924745
    outer loop
      vertex 27.049 -14.1756 11.5952
      vertex 26.6666 -20.0002 13.2288
      vertex 28.9717 -16.5425 11.5952
    endloop
  endfacet
  facet normal 0.580899 0.117467 0.805455
    outer loop
      vertex 34.2834 -21.1255 9.5159
      vertex 31.7221 -22.7168 11.5952
      vertex 35.1631 -25.4758 9.5159
    endloop
  endfacet
  facet normal 0.285755 0.0577773 0.956559
    outer loop
      vertex 28.7103 -24.5881 13.2288
      vertex 25.3638 -26.6674 14.3541
      vertex 25.6941 -28.301 14.3541
    endloop
  endfacet
  facet normal 0.285747 0.0577848 0.956561
    outer loop
      vertex 28.7103 -24.5881 13.2288
      vertex 25.6941 -28.301 14.3541
      vertex 29.2468 -27.2411 13.2288
    endloop
  endfacet
  facet normal 0.143236 0.178662 0.973429
    outer loop
      vertex 23.6079 -16.9346 13.2288
      vertex 22.2217 -21.9544 14.3541
      vertex 25.2379 -18.2414 13.2288
    endloop
  endfacet
  facet normal 0.0432833 0.0951167 0.994525
    outer loop
      vertex 21.1326 -21.4588 14.3541
      vertex 20.7502 -27.2833 14.9278
      vertex 22.2217 -21.9544 14.3541
    endloop
  endfacet
  facet normal 0.141939 0.0287171 0.989459
    outer loop
      vertex 25.3638 -26.6674 14.3541
      vertex 21.8111 -28.8747 14.9278
      vertex 21.9227 -29.4263 14.9278
    endloop
  endfacet
  facet normal 0.141951 0.0287013 0.989457
    outer loop
      vertex 25.3638 -26.6674 14.3541
      vertex 21.9227 -29.4263 14.9278
      vertex 25.6941 -28.301 14.3541
    endloop
  endfacet
  facet normal 0.9462 0.191348 0.260945
    outer loop
      vertex 39.5212 -24.1755 1.47026
      vertex 37.682 -19.0138 4.35427
      vertex 38.7711 -24.3993 4.35427
    endloop
  endfacet
  facet normal 0.744357 0.40724 0.529233
    outer loop
      vertex 35.9133 -14.0506 4.35427
      vertex 32.4723 -11.2916 7.07095
      vertex 34.6658 -15.3009 7.07095
    endloop
  endfacet
  facet normal 0.580902 0.117472 0.805452
    outer loop
      vertex 35.1631 -25.4758 9.5159
      vertex 31.7221 -22.7168 11.5952
      vertex 32.4441 -26.2871 11.5952
    endloop
  endfacet
  facet normal 0.135998 0.920539 0.366213
    outer loop
      vertex 23.883 -0.718123 1.47026
      vertex 20 -1.29179 4.35427
      vertex 23.7338 -1.84341 4.35427
    endloop
  endfacet
  facet normal 0.113039 0.76514 0.633863
    outer loop
      vertex 23.7338 -1.84341 4.35427
      vertex 20 -1.29179 4.35427
      vertex 23.4411 -4.05074 7.07095
    endloop
  endfacet
  facet normal 0.193437 0.425128 0.884222
    outer loop
      vertex 25.9164 -8.57494 9.5159
      vertex 23.0161 -7.25528 9.5159
      vertex 24.8554 -12.4169 11.5952
    endloop
  endfacet
  facet normal 0.485316 0.265528 0.833045
    outer loop
      vertex 30.932 -13.602 9.5159
      vertex 30.5496 -19.4265 11.5952
      vertex 32.8547 -17.1162 9.5159
    endloop
  endfacet
  facet normal 0.618405 0.338344 0.709294
    outer loop
      vertex 34.6658 -15.3009 7.07095
      vertex 30.932 -13.602 9.5159
      vertex 32.8547 -17.1162 9.5159
    endloop
  endfacet
  facet normal 0.590379 0.736335 0.330551
    outer loop
      vertex 27.6168 -2.41708 1.47026
      vertex 27.3241 -3.47707 4.35427
      vertex 30.6329 -6.13 4.35427
    endloop
  endfacet
  facet normal 0.308918 0.385309 0.869544
    outer loop
      vertex 28.5892 -10.718 9.5159
      vertex 24.8554 -12.4169 11.5952
      vertex 27.049 -14.1756 11.5952
    endloop
  endfacet
  facet normal 0.644089 0.523227 0.558017
    outer loop
      vertex 30.6329 -6.13 4.35427
      vertex 29.7994 -8.00128 7.07095
      vertex 32.4723 -11.2916 7.07095
    endloop
  endfacet
  facet normal 0.40708 0.330689 0.851429
    outer loop
      vertex 28.5892 -10.718 9.5159
      vertex 27.049 -14.1756 11.5952
      vertex 30.932 -13.602 9.5159
    endloop
  endfacet
  facet normal 0.143229 0.178667 0.973429
    outer loop
      vertex 25.2379 -18.2414 13.2288
      vertex 22.2217 -21.9544 14.3541
      vertex 23.2255 -22.7591 14.3541
    endloop
  endfacet
  facet normal 0.599549 0.0393681 0.799369
    outer loop
      vertex 35.4602 -30 9.5159
      vertex 32.4441 -26.2871 11.5952
      vertex 32.6879 -30 11.5952
    endloop
  endfacet
  facet normal 0.296624 0.019484 0.954796
    outer loop
      vertex 29.4279 -30 13.2288
      vertex 25.6941 -28.301 14.3541
      vertex 25.8057 -30 14.3541
    endloop
  endfacet
  facet normal 0.432427 0.087447 0.897419
    outer loop
      vertex 31.7221 -22.7168 11.5952
      vertex 28.7103 -24.5881 13.2288
      vertex 29.2468 -27.2411 13.2288
    endloop
  endfacet
  facet normal 0.264258 0.0941648 0.959844
    outer loop
      vertex 27.839 -22.1432 13.2288
      vertex 24.8273 -25.1618 14.3541
      vertex 25.3638 -26.6674 14.3541
    endloop
  endfacet
  facet normal 0.997851 0.0655297 0
    outer loop
      vertex 39.9037 -30 1.47026
      vertex 39.5212 -24.1755 0
      vertex 39.5212 -24.1755 1.47026
    endloop
  endfacet
  facet normal 0.997851 0.0655297 0
    outer loop
      vertex 39.5212 -24.1755 0
      vertex 39.9037 -30 1.47026
      vertex 39.9037 -30 0
    endloop
  endfacet
  facet normal 0.77618 0.630511 0
    outer loop
      vertex 34.074 -8.88894 1.47026
      vertex 31.0579 -5.17602 0
      vertex 31.0579 -5.17602 1.47026
    endloop
  endfacet
  facet normal 0.77618 0.630511 0
    outer loop
      vertex 31.0579 -5.17602 0
      vertex 34.074 -8.88894 1.47026
      vertex 34.074 -8.88894 0
    endloop
  endfacet
  facet normal 0.946199 0.191345 0.260951
    outer loop
      vertex 38.3886 -18.5748 1.47026
      vertex 37.682 -19.0138 4.35427
      vertex 39.5212 -24.1755 1.47026
    endloop
  endfacet
  facet normal 0.873925 0.0573801 0.482662
    outer loop
      vertex 39.1388 -30 4.35427
      vertex 37.2995 -24.8384 7.07095
      vertex 37.6384 -30 7.07095
    endloop
  endfacet
  facet normal 0.873922 0.0573751 0.482669
    outer loop
      vertex 38.7711 -24.3993 4.35427
      vertex 37.2995 -24.8384 7.07095
      vertex 39.1388 -30 4.35427
    endloop
  endfacet
  facet normal 0.414162 0.910203 -0
    outer loop
      vertex 27.6168 -2.41708 0
      vertex 23.883 -0.718123 1.47026
      vertex 27.6168 -2.41708 1.47026
    endloop
  endfacet
  facet normal 0.414162 0.910203 0
    outer loop
      vertex 23.883 -0.718123 1.47026
      vertex 27.6168 -2.41708 0
      vertex 23.883 -0.718123 0
    endloop
  endfacet
  facet normal 0.387591 0.85181 0.352411
    outer loop
      vertex 27.6168 -2.41708 1.47026
      vertex 23.7338 -1.84341 4.35427
      vertex 27.3241 -3.47707 4.35427
    endloop
  endfacet
  facet normal 0.387591 0.851809 0.352412
    outer loop
      vertex 23.883 -0.718123 1.47026
      vertex 23.7338 -1.84341 4.35427
      vertex 27.6168 -2.41708 1.47026
    endloop
  endfacet
  facet normal 0.193444 0.42513 0.884219
    outer loop
      vertex 23.0161 -7.25528 9.5159
      vertex 22.4753 -11.3339 11.5952
      vertex 24.8554 -12.4169 11.5952
    endloop
  endfacet
  facet normal 0.0659285 0.446248 0.892478
    outer loop
      vertex 23.0161 -7.25528 9.5159
      vertex 20 -10.9682 11.5952
      vertex 22.4753 -11.3339 11.5952
    endloop
  endfacet
  facet normal 0.618404 0.338331 0.709302
    outer loop
      vertex 32.4723 -11.2916 7.07095
      vertex 30.932 -13.602 9.5159
      vertex 34.6658 -15.3009 7.07095
    endloop
  endfacet
  facet normal 0.54308 0.193525 0.817076
    outer loop
      vertex 32.8547 -17.1162 9.5159
      vertex 31.7221 -22.7168 11.5952
      vertex 34.2834 -21.1255 9.5159
    endloop
  endfacet
  facet normal 0.683959 0.243726 0.687603
    outer loop
      vertex 34.6658 -15.3009 7.07095
      vertex 34.2834 -21.1255 9.5159
      vertex 36.2958 -19.8751 7.07095
    endloop
  endfacet
  facet normal 0.812341 0.289488 0.506259
    outer loop
      vertex 35.9133 -14.0506 4.35427
      vertex 34.6658 -15.3009 7.07095
      vertex 37.682 -19.0138 4.35427
    endloop
  endfacet
  facet normal 0.407082 0.330684 0.85143
    outer loop
      vertex 30.932 -13.602 9.5159
      vertex 27.049 -14.1756 11.5952
      vertex 28.9717 -16.5425 11.5952
    endloop
  endfacet
  facet normal 0.485317 0.265527 0.833044
    outer loop
      vertex 30.932 -13.602 9.5159
      vertex 28.9717 -16.5425 11.5952
      vertex 30.5496 -19.4265 11.5952
    endloop
  endfacet
  facet normal 0.505393 0.630359 0.589258
    outer loop
      vertex 30.6329 -6.13 4.35427
      vertex 26.7499 -5.55633 7.07095
      vertex 29.7994 -8.00128 7.07095
    endloop
  endfacet
  facet normal 0.505399 0.630346 0.589268
    outer loop
      vertex 27.3241 -3.47707 4.35427
      vertex 26.7499 -5.55633 7.07095
      vertex 30.6329 -6.13 4.35427
    endloop
  endfacet
  facet normal 0.644086 0.523228 0.558019
    outer loop
      vertex 33.5332 -9.70023 4.35427
      vertex 30.6329 -6.13 4.35427
      vertex 32.4723 -11.2916 7.07095
    endloop
  endfacet
  facet normal 0.744357 0.40724 0.529233
    outer loop
      vertex 33.5332 -9.70023 4.35427
      vertex 32.4723 -11.2916 7.07095
      vertex 35.9133 -14.0506 4.35427
    endloop
  endfacet
  facet normal 0.221915 0.2768 0.934952
    outer loop
      vertex 24.8554 -12.4169 11.5952
      vertex 23.6079 -16.9346 13.2288
      vertex 25.2379 -18.2414 13.2288
    endloop
  endfacet
  facet normal 0.0299446 0.202713 0.97878
    outer loop
      vertex 20 -15.8581 13.2288
      vertex 20 -21.2915 14.3541
      vertex 21.8393 -16.1298 13.2288
    endloop
  endfacet
  facet normal 0.0944031 0.0766818 0.992576
    outer loop
      vertex 23.2255 -22.7591 14.3541
      vertex 21.0891 -27.555 14.9278
      vertex 24.1052 -23.8421 14.3541
    endloop
  endfacet
  facet normal 0.0702156 0.0875884 0.993679
    outer loop
      vertex 22.2217 -21.9544 14.3541
      vertex 21.0891 -27.555 14.9278
      vertex 23.2255 -22.7591 14.3541
    endloop
  endfacet
  facet normal 0.137839 0.302927 0.942993
    outer loop
      vertex 22.4753 -11.3339 11.5952
      vertex 21.8393 -16.1298 13.2288
      vertex 24.8554 -12.4169 11.5952
    endloop
  endfacet
  facet normal 0.0467619 0.316515 0.947434
    outer loop
      vertex 20 -10.9682 11.5952
      vertex 20 -15.8581 13.2288
      vertex 22.4753 -11.3339 11.5952
    endloop
  endfacet
  facet normal 0.130942 0.0466436 0.990292
    outer loop
      vertex 24.8273 -25.1618 14.3541
      vertex 21.63 -28.3663 14.9278
      vertex 21.8111 -28.8747 14.9278
    endloop
  endfacet
  facet normal 0.401674 0.143147 0.904526
    outer loop
      vertex 31.7221 -22.7168 11.5952
      vertex 27.839 -22.1432 13.2288
      vertex 28.7103 -24.5881 13.2288
    endloop
  endfacet
  facet normal 0.401674 0.143137 0.904528
    outer loop
      vertex 30.5496 -19.4265 11.5952
      vertex 27.839 -22.1432 13.2288
      vertex 31.7221 -22.7168 11.5952
    endloop
  endfacet
  facet normal 0.85411 0.172722 0.490574
    outer loop
      vertex 37.682 -19.0138 4.35427
      vertex 36.2958 -19.8751 7.07095
      vertex 37.2995 -24.8384 7.07095
    endloop
  endfacet
  facet normal 0.854107 0.172724 0.490579
    outer loop
      vertex 37.682 -19.0138 4.35427
      vertex 37.2995 -24.8384 7.07095
      vertex 38.7711 -24.3993 4.35427
    endloop
  endfacet
  facet normal 0.526076 0.42736 0.73526
    outer loop
      vertex 29.7994 -8.00128 7.07095
      vertex 28.5892 -10.718 9.5159
      vertex 32.4723 -11.2916 7.07095
    endloop
  endfacet
  facet normal 0.405124 0.505267 0.761958
    outer loop
      vertex 29.7994 -8.00128 7.07095
      vertex 25.9164 -8.57494 9.5159
      vertex 28.5892 -10.718 9.5159
    endloop
  endfacet
  facet normal 0.325909 0.716243 0.617074
    outer loop
      vertex 27.3241 -3.47707 4.35427
      vertex 23.4411 -4.05074 7.07095
      vertex 26.7499 -5.55633 7.07095
    endloop
  endfacet
  facet normal 0.256849 0.564471 0.784475
    outer loop
      vertex 26.7499 -5.55633 7.07095
      vertex 23.4411 -4.05074 7.07095
      vertex 25.9164 -8.57494 9.5159
    endloop
  endfacet
  facet normal 0.738626 0.600004 0.30729
    outer loop
      vertex 34.074 -8.88894 1.47026
      vertex 31.0579 -5.17602 1.47026
      vertex 33.5332 -9.70023 4.35427
    endloop
  endfacet
  facet normal 0.840399 0.459785 0.286929
    outer loop
      vertex 34.074 -8.88894 1.47026
      vertex 33.5332 -9.70023 4.35427
      vertex 35.9133 -14.0506 4.35427
    endloop
  endfacet
  facet normal 0.0702199 0.0875875 0.993679
    outer loop
      vertex 22.2217 -21.9544 14.3541
      vertex 20.7502 -27.2833 14.9278
      vertex 21.0891 -27.555 14.9278
    endloop
  endfacet
  facet normal 0.0467559 0.316518 0.947433
    outer loop
      vertex 22.4753 -11.3339 11.5952
      vertex 20 -15.8581 13.2288
      vertex 21.8393 -16.1298 13.2288
    endloop
  endfacet
  facet normal 0.0885287 0.194545 0.97689
    outer loop
      vertex 21.8393 -16.1298 13.2288
      vertex 21.1326 -21.4588 14.3541
      vertex 22.2217 -21.9544 14.3541
    endloop
  endfacet
  facet normal 0.0885276 0.194545 0.97689
    outer loop
      vertex 23.6079 -16.9346 13.2288
      vertex 21.8393 -16.1298 13.2288
      vertex 22.2217 -21.9544 14.3541
    endloop
  endfacet
  facet normal 0.043266 0.0951179 0.994525
    outer loop
      vertex 21.1326 -21.4588 14.3541
      vertex 20.3824 -27.116 14.9278
      vertex 20.7502 -27.2833 14.9278
    endloop
  endfacet
  facet normal 0.877277 0.479984 0
    outer loop
      vertex 36.5493 -13.4131 1.47026
      vertex 34.074 -8.88894 0
      vertex 34.074 -8.88894 1.47026
    endloop
  endfacet
  facet normal 0.877277 0.479984 0
    outer loop
      vertex 34.074 -8.88894 0
      vertex 36.5493 -13.4131 1.47026
      vertex 36.5493 -13.4131 0
    endloop
  endfacet
  facet normal 0.840381 0.459797 0.286962
    outer loop
      vertex 36.5493 -13.4131 1.47026
      vertex 34.074 -8.88894 1.47026
      vertex 35.9133 -14.0506 4.35427
    endloop
  endfacet
  facet normal 0.0943953 0.0766882 0.992577
    outer loop
      vertex 24.1052 -23.8421 14.3541
      vertex 21.0891 -27.555 14.9278
      vertex 21.3862 -27.9207 14.9278
    endloop
  endfacet
  facet normal 0.114888 0.0628582 0.991388
    outer loop
      vertex 24.8273 -25.1618 14.3541
      vertex 21.3862 -27.9207 14.9278
      vertex 21.63 -28.3663 14.9278
    endloop
  endfacet
  facet normal 0.114885 0.0628616 0.991388
    outer loop
      vertex 24.1052 -23.8421 14.3541
      vertex 21.3862 -27.9207 14.9278
      vertex 24.8273 -25.1618 14.3541
    endloop
  endfacet
endsolid OpenSCAD_Model
