solid OpenSCAD_Model
  facet normal 0 1 0
    outer loop
      vertex 15.5899 -50 7.36864
      vertex 14.4101 -50 7.36864
      vertex 15 -50 7.40737
    endloop
  endfacet
  facet normal 0 1 0
    outer loop
      vertex 15.5899 -50 -7.36864
      vertex 15.5899 -50 7.36864
      vertex 16.9891 -50 7.27676
    endloop
  endfacet
  facet normal 0 1 0
    outer loop
      vertex 15.5899 -50 7.36864
      vertex 15.5899 -50 -7.36864
      vertex 14.4101 -50 7.36864
    endloop
  endfacet
  facet normal 0 1 0
    outer loop
      vertex 16.9891 -50 -7.27676
      vertex 16.9891 -50 7.27676
      vertex 17.9956 -50 7.08104
    endloop
  endfacet
  facet normal 0 1 0
    outer loop
      vertex 14.4101 -50 -7.36864
      vertex 14.4101 -50 7.36864
      vertex 15.5899 -50 -7.36864
    endloop
  endfacet
  facet normal 0 1 0
    outer loop
      vertex 17.9956 -50 -7.08104
      vertex 17.9956 -50 7.08104
      vertex 19.1421 -50 6.85809
    endloop
  endfacet
  facet normal 0 1 0
    outer loop
      vertex 14.4101 -50 7.36864
      vertex 14.4101 -50 -7.36864
      vertex 13.0109 -50 7.27676
    endloop
  endfacet
  facet normal 0 1 0
    outer loop
      vertex 19.1421 -50 -6.85809
      vertex 19.1421 -50 6.85809
      vertex 20.7703 -50 6.34393
    endloop
  endfacet
  facet normal -0 1 0
    outer loop
      vertex 13.0109 -50 -7.27676
      vertex 13.0109 -50 7.27676
      vertex 14.4101 -50 -7.36864
    endloop
  endfacet
  facet normal 0 1 0
    outer loop
      vertex 20.7703 -50 -6.34393
      vertex 20.7703 -50 6.34393
      vertex 21.6818 -50 5.91317
    endloop
  endfacet
  facet normal 0 1 0
    outer loop
      vertex 13.0109 -50 7.27676
      vertex 13.0109 -50 -7.27676
      vertex 12.0044 -50 7.08104
    endloop
  endfacet
  facet normal 0 1 0
    outer loop
      vertex 21.6818 -50 -5.91317
      vertex 21.6818 -50 5.91317
      vertex 22.6527 -50 5.29565
    endloop
  endfacet
  facet normal -0 1 0
    outer loop
      vertex 12.0044 -50 -7.08104
      vertex 12.0044 -50 7.08104
      vertex 13.0109 -50 -7.27676
    endloop
  endfacet
  facet normal 0 1 0
    outer loop
      vertex 24.009 -50 4.26076
      vertex 22.6527 -50 5.29565
      vertex 23.5673 -50 4.71397
    endloop
  endfacet
  facet normal 0 1 0
    outer loop
      vertex 12.0044 -50 7.08104
      vertex 12.0044 -50 -7.08104
      vertex 10.8579 -50 6.85809
    endloop
  endfacet
  facet normal 0 1 0
    outer loop
      vertex 22.6527 -50 5.29565
      vertex 24.009 -50 4.26076
      vertex 22.6527 -50 -5.29565
    endloop
  endfacet
  facet normal -0 1 0
    outer loop
      vertex 10.8579 -50 -6.85809
      vertex 10.8579 -50 6.85809
      vertex 12.0044 -50 -7.08104
    endloop
  endfacet
  facet normal 0 1 0
    outer loop
      vertex 25.8525 -50 1.39403
      vertex 24.009 -50 4.26076
      vertex 25 -50 3.24401
    endloop
  endfacet
  facet normal 0 1 0
    outer loop
      vertex 10.8579 -50 6.85809
      vertex 10.8579 -50 -6.85809
      vertex 9.22968 -50 6.34393
    endloop
  endfacet
  facet normal 0 1 0
    outer loop
      vertex 25.8525 -50 1.39403
      vertex 25 -50 3.24401
      vertex 25.2729 -50 2.90285
    endloop
  endfacet
  facet normal -0 1 0
    outer loop
      vertex 9.22968 -50 -6.34393
      vertex 9.22968 -50 6.34393
      vertex 10.8579 -50 -6.85809
    endloop
  endfacet
  facet normal 0 1 0
    outer loop
      vertex 24.009 -50 4.26076
      vertex 25.8525 -50 1.39403
      vertex 24.009 -50 -4.26076
    endloop
  endfacet
  facet normal 0 1 0
    outer loop
      vertex 9.22968 -50 6.34393
      vertex 9.22968 -50 -6.34393
      vertex 8.31821 -50 5.91317
    endloop
  endfacet
  facet normal 0 1 0
    outer loop
      vertex 25.8525 -50 -1.39403
      vertex 25.8525 -50 1.39403
      vertex 26.0114 -50 0.980171
    endloop
  endfacet
  facet normal 0 1 0
    outer loop
      vertex 8.31821 -50 5.91317
      vertex 8.31821 -50 -5.91317
      vertex 7.34731 -50 5.29565
    endloop
  endfacet
  facet normal 0 1 0
    outer loop
      vertex 25.8525 -50 -1.39403
      vertex 26.0114 -50 0.980171
      vertex 26.0114 -50 -0.980171
    endloop
  endfacet
  facet normal -0 1 0
    outer loop
      vertex 7.34731 -50 -5.29565
      vertex 7.34731 -50 5.29565
      vertex 8.31821 -50 -5.91317
    endloop
  endfacet
  facet normal 0 1 0
    outer loop
      vertex 25.8525 -50 1.39403
      vertex 25.8525 -50 -1.39403
      vertex 24.009 -50 -4.26076
    endloop
  endfacet
  facet normal -0 1 0
    outer loop
      vertex 5.99101 -50 4.26076
      vertex 7.34731 -50 5.29565
      vertex 7.34731 -50 -5.29565
    endloop
  endfacet
  facet normal 0 1 0
    outer loop
      vertex 25 -50 -3.24401
      vertex 25.8525 -50 -1.39403
      vertex 25.2729 -50 -2.90285
    endloop
  endfacet
  facet normal 0 1 0
    outer loop
      vertex 7.34731 -50 5.29565
      vertex 5.99101 -50 4.26076
      vertex 6.43274 -50 4.71397
    endloop
  endfacet
  facet normal 0 1 0
    outer loop
      vertex 24.009 -50 -4.26076
      vertex 25.8525 -50 -1.39403
      vertex 25 -50 -3.24401
    endloop
  endfacet
  facet normal -0 1 0
    outer loop
      vertex 5.99101 -50 -4.26076
      vertex 5.99101 -50 4.26076
      vertex 7.34731 -50 -5.29565
    endloop
  endfacet
  facet normal 0 1 0
    outer loop
      vertex 24.009 -50 4.26076
      vertex 24.009 -50 -4.26076
      vertex 22.6527 -50 -5.29565
    endloop
  endfacet
  facet normal 0 1 0
    outer loop
      vertex 17.9956 -50 7.08104
      vertex 17.9956 -50 -7.08104
      vertex 16.9891 -50 -7.27676
    endloop
  endfacet
  facet normal 0 1 0
    outer loop
      vertex 22.6527 -50 -5.29565
      vertex 24.009 -50 -4.26076
      vertex 23.5673 -50 -4.71397
    endloop
  endfacet
  facet normal 0 1 0
    outer loop
      vertex 22.6527 -50 5.29565
      vertex 22.6527 -50 -5.29565
      vertex 21.6818 -50 -5.91317
    endloop
  endfacet
  facet normal 0 1 0
    outer loop
      vertex 5.99101 -50 4.26076
      vertex 4.14754 -50 1.39403
      vertex 5 -50 3.24401
    endloop
  endfacet
  facet normal 0 1 0
    outer loop
      vertex 5.99101 -50 -4.26076
      vertex 7.34731 -50 -5.29565
      vertex 6.43274 -50 -4.71397
    endloop
  endfacet
  facet normal 0 1 0
    outer loop
      vertex 21.6818 -50 5.91317
      vertex 21.6818 -50 -5.91317
      vertex 20.7703 -50 -6.34393
    endloop
  endfacet
  facet normal 0 1 0
    outer loop
      vertex 4.14754 -50 -1.39403
      vertex 5 -50 -3.24401
      vertex 4.72711 -50 -2.90285
    endloop
  endfacet
  facet normal 0 1 0
    outer loop
      vertex 20.7703 -50 6.34393
      vertex 20.7703 -50 -6.34393
      vertex 19.1421 -50 -6.85809
    endloop
  endfacet
  facet normal 0 1 0
    outer loop
      vertex 4.14754 -50 -1.39403
      vertex 5.99101 -50 -4.26076
      vertex 5 -50 -3.24401
    endloop
  endfacet
  facet normal 0 1 0
    outer loop
      vertex 19.1421 -50 6.85809
      vertex 19.1421 -50 -6.85809
      vertex 17.9956 -50 -7.08104
    endloop
  endfacet
  facet normal 0 1 0
    outer loop
      vertex 3.98856 -50 0.980171
      vertex 4.14754 -50 -1.39403
      vertex 3.98856 -50 -0.980171
    endloop
  endfacet
  facet normal 0 1 0
    outer loop
      vertex 5 -50 3.24401
      vertex 4.14754 -50 1.39403
      vertex 4.72711 -50 2.90285
    endloop
  endfacet
  facet normal -0 1 0
    outer loop
      vertex 4.14754 -50 1.39403
      vertex 5.99101 -50 4.26076
      vertex 5.99101 -50 -4.26076
    endloop
  endfacet
  facet normal 0 1 0
    outer loop
      vertex 16.9891 -50 7.27676
      vertex 16.9891 -50 -7.27676
      vertex 15.5899 -50 -7.36864
    endloop
  endfacet
  facet normal -0 1 0
    outer loop
      vertex 4.14754 -50 -1.39403
      vertex 4.14754 -50 1.39403
      vertex 5.99101 -50 -4.26076
    endloop
  endfacet
  facet normal 0 1 0
    outer loop
      vertex 4.14754 -50 1.39403
      vertex 4.14754 -50 -1.39403
      vertex 3.98856 -50 0.980171
    endloop
  endfacet
  facet normal -0 1 0
    outer loop
      vertex 8.31821 -50 -5.91317
      vertex 8.31821 -50 5.91317
      vertex 9.22968 -50 -6.34393
    endloop
  endfacet
  facet normal -0 1 0
    outer loop
      vertex 14.4101 -50 -7.36864
      vertex 15.5899 -50 -7.36864
      vertex 15 -50 -7.40737
    endloop
  endfacet
  facet normal 0 -1 0
    outer loop
      vertex 15 -55 -5.44114
      vertex 15 -55 5.44114
      vertex 13.3072 -55 5.27478
    endloop
  endfacet
  facet normal 0 -1 0
    outer loop
      vertex 12.0297 -55 5.05596
      vertex 13.3072 -55 5.27478
      vertex 12.5136 -55 5.1968
    endloop
  endfacet
  facet normal 0 -1 0
    outer loop
      vertex 15 -55 5.44114
      vertex 15 -55 -5.44114
      vertex 16.6928 -55 5.27478
    endloop
  endfacet
  facet normal 0 -1 -0
    outer loop
      vertex 13.3072 -55 5.27478
      vertex 12.0297 -55 5.05596
      vertex 13.3072 -55 -5.27478
    endloop
  endfacet
  facet normal -0 -1 0
    outer loop
      vertex 16.6928 -55 -5.27478
      vertex 16.6928 -55 5.27478
      vertex 15 -55 -5.44114
    endloop
  endfacet
  facet normal 0 -1 0
    outer loop
      vertex 12.0297 -55 -5.05596
      vertex 12.0297 -55 5.05596
      vertex 10.8545 -55 4.71397
    endloop
  endfacet
  facet normal 0 -1 0
    outer loop
      vertex 13.3072 -55 5.27478
      vertex 13.3072 -55 -5.27478
      vertex 15 -55 -5.44114
    endloop
  endfacet
  facet normal 0 -1 0
    outer loop
      vertex 10.8545 -55 -4.71397
      vertex 10.8545 -55 4.71397
      vertex 9.82233 -55 4.22938
    endloop
  endfacet
  facet normal 0 -1 0
    outer loop
      vertex 16.6928 -55 5.27478
      vertex 17.9703 -55 5.05596
      vertex 17.4864 -55 5.1968
    endloop
  endfacet
  facet normal 0 -1 0
    outer loop
      vertex 7.71374 -55 2.3177
      vertex 9.82233 -55 4.22938
      vertex 8.08232 -55 2.90285
    endloop
  endfacet
  facet normal -0 -1 0
    outer loop
      vertex 17.9703 -55 5.05596
      vertex 16.6928 -55 5.27478
      vertex 16.6928 -55 -5.27478
    endloop
  endfacet
  facet normal 0 -1 -0
    outer loop
      vertex 9.82233 -55 4.22938
      vertex 7.71374 -55 2.3177
      vertex 9.82233 -55 -4.22938
    endloop
  endfacet
  facet normal 0 -1 0
    outer loop
      vertex 17.9703 -55 5.05596
      vertex 17.9703 -55 -5.05596
      vertex 19.1455 -55 4.71397
    endloop
  endfacet
  facet normal 0 -1 0
    outer loop
      vertex 7.71374 -55 -2.3177
      vertex 7.71374 -55 2.3177
      vertex 6.87123 -55 0.980171
    endloop
  endfacet
  facet normal -0 -1 0
    outer loop
      vertex 17.9703 -55 -5.05596
      vertex 17.9703 -55 5.05596
      vertex 16.6928 -55 -5.27478
    endloop
  endfacet
  facet normal 0 -1 0
    outer loop
      vertex 7.71374 -55 -2.3177
      vertex 6.87123 -55 0.980171
      vertex 6.87123 -55 -0.980171
    endloop
  endfacet
  facet normal -0 -1 0
    outer loop
      vertex 19.1455 -55 -4.71397
      vertex 19.1455 -55 4.71397
      vertex 17.9703 -55 -5.05596
    endloop
  endfacet
  facet normal 0 -1 0
    outer loop
      vertex 7.71374 -55 2.3177
      vertex 7.71374 -55 -2.3177
      vertex 9.82233 -55 -4.22938
    endloop
  endfacet
  facet normal -0 -1 0
    outer loop
      vertex 20.1777 -55 -4.22938
      vertex 20.1777 -55 4.22938
      vertex 19.1455 -55 -4.71397
    endloop
  endfacet
  facet normal 0 -1 0
    outer loop
      vertex 9.82233 -55 -4.22938
      vertex 7.71374 -55 -2.3177
      vertex 8.08232 -55 -2.90285
    endloop
  endfacet
  facet normal -0 -1 0
    outer loop
      vertex 22.2863 -55 2.3177
      vertex 20.1777 -55 4.22938
      vertex 20.1777 -55 -4.22938
    endloop
  endfacet
  facet normal 0 -1 0
    outer loop
      vertex 9.82233 -55 4.22938
      vertex 9.82233 -55 -4.22938
      vertex 10.8545 -55 -4.71397
    endloop
  endfacet
  facet normal 0 -1 0
    outer loop
      vertex 20.1777 -55 4.22938
      vertex 22.2863 -55 2.3177
      vertex 21.9177 -55 2.90285
    endloop
  endfacet
  facet normal 0 -1 0
    outer loop
      vertex 10.8545 -55 4.71397
      vertex 10.8545 -55 -4.71397
      vertex 12.0297 -55 -5.05596
    endloop
  endfacet
  facet normal 0 -1 -0
    outer loop
      vertex 23.1288 -55 0.980171
      vertex 22.2863 -55 -2.3177
      vertex 23.1288 -55 -0.980171
    endloop
  endfacet
  facet normal 0 -1 0
    outer loop
      vertex 12.0297 -55 5.05596
      vertex 12.0297 -55 -5.05596
      vertex 13.3072 -55 -5.27478
    endloop
  endfacet
  facet normal -0 -1 0
    outer loop
      vertex 22.2863 -55 -2.3177
      vertex 22.2863 -55 2.3177
      vertex 20.1777 -55 -4.22938
    endloop
  endfacet
  facet normal 0 -1 0
    outer loop
      vertex 13.3072 -55 -5.27478
      vertex 12.0297 -55 -5.05596
      vertex 12.5136 -55 -5.1968
    endloop
  endfacet
  facet normal 0 -1 0
    outer loop
      vertex 22.2863 -55 -2.3177
      vertex 20.1777 -55 -4.22938
      vertex 21.9177 -55 -2.90285
    endloop
  endfacet
  facet normal 0 -1 0
    outer loop
      vertex 22.2863 -55 2.3177
      vertex 22.2863 -55 -2.3177
      vertex 23.1288 -55 0.980171
    endloop
  endfacet
  facet normal 0 -1 0
    outer loop
      vertex 17.9703 -55 -5.05596
      vertex 16.6928 -55 -5.27478
      vertex 17.4864 -55 -5.1968
    endloop
  endfacet
  facet normal 0 -1 0
    outer loop
      vertex 19.1455 -55 4.71397
      vertex 19.1455 -55 -4.71397
      vertex 20.1777 -55 4.22938
    endloop
  endfacet
  facet normal 0.396751 -0.371172 0.839536
    outer loop
      vertex 20.7703 -50 6.34393
      vertex 22.3495 -51.9987 4.71397
      vertex 21.6818 -50 5.91317
    endloop
  endfacet
  facet normal 0.396785 -0.371142 0.839533
    outer loop
      vertex 22.3495 -51.9987 4.71397
      vertex 20.7703 -50 6.34393
      vertex 19.4373 -51.4251 6.34393
    endloop
  endfacet
  facet normal 0.663464 -0.620603 0.417932
    outer loop
      vertex 22.9747 -53.87 2.90285
      vertex 21.9177 -55 2.90285
      vertex 22.2863 -55 2.3177
    endloop
  endfacet
  facet normal 0.527384 -0.493304 -0.691749
    outer loop
      vertex 22.9747 -53.87 -2.90285
      vertex 20.0625 -54.4437 -4.71397
      vertex 22.3495 -51.9987 -4.71397
    endloop
  endfacet
  facet normal -0.0621655 -0.315618 0.946848
    outer loop
      vertex 14.4101 -50 7.36864
      vertex 15 -53.1903 6.34393
      vertex 15 -50 7.40737
    endloop
  endfacet
  facet normal -0.0621722 -0.315619 0.946847
    outer loop
      vertex 15 -53.1903 6.34393
      vertex 14.4101 -50 7.36864
      vertex 12.7379 -52.7447 6.34393
    endloop
  endfacet
  facet normal 0.253827 -0.41834 -0.872103
    outer loop
      vertex 17.2621 -52.7447 -6.34393
      vertex 17.9703 -55 -5.05596
      vertex 17.4864 -55 -5.1968
    endloop
  endfacet
  facet normal 0.253796 -0.418352 -0.872106
    outer loop
      vertex 17.9703 -55 -5.05596
      vertex 17.2621 -52.7447 -6.34393
      vertex 19.4373 -51.4251 -6.34393
    endloop
  endfacet
  facet normal -0.253827 -0.41834 -0.872103
    outer loop
      vertex 12.0297 -55 -5.05596
      vertex 12.7379 -52.7447 -6.34393
      vertex 12.5136 -55 -5.1968
    endloop
  endfacet
  facet normal -0.253796 -0.418352 -0.872106
    outer loop
      vertex 12.7379 -52.7447 -6.34393
      vertex 12.0297 -55 -5.05596
      vertex 10.5627 -51.4251 -6.34393
    endloop
  endfacet
  facet normal -0.656366 -0.399895 -0.63974
    outer loop
      vertex 7.65046 -51.9987 -4.71397
      vertex 5.99101 -50 -4.26076
      vertex 6.43274 -50 -4.71397
    endloop
  endfacet
  facet normal -0.656363 -0.399891 -0.639745
    outer loop
      vertex 5.99101 -50 -4.26076
      vertex 7.65046 -51.9987 -4.71397
      vertex 7.02529 -53.87 -2.90285
    endloop
  endfacet
  facet normal -0.871734 -0.357692 0.334868
    outer loop
      vertex 4.14754 -50 1.39403
      vertex 3.98856 -50 0.980171
      vertex 4.44447 -51.1111 0.980171
    endloop
  endfacet
  facet normal 0.792984 -0.483138 -0.371151
    outer loop
      vertex 25.5555 -51.1111 -0.980171
      vertex 22.9747 -53.87 -2.90285
      vertex 25.1499 -50.2998 -2.90285
    endloop
  endfacet
  facet normal -0.52736 -0.493344 0.691739
    outer loop
      vertex 9.93755 -54.4437 4.71397
      vertex 8.08232 -55 2.90285
      vertex 9.82233 -55 4.22938
    endloop
  endfacet
  facet normal -0.527375 -0.493319 0.691746
    outer loop
      vertex 8.08232 -55 2.90285
      vertex 9.93755 -54.4437 4.71397
      vertex 7.02529 -53.87 2.90285
    endloop
  endfacet
  facet normal 0.527383 -0.493313 0.691744
    outer loop
      vertex 20.0625 -54.4437 4.71397
      vertex 21.9177 -55 2.90285
      vertex 22.9747 -53.87 2.90285
    endloop
  endfacet
  facet normal 0.527358 -0.493357 0.691732
    outer loop
      vertex 21.9177 -55 2.90285
      vertex 20.0625 -54.4437 4.71397
      vertex 20.1777 -55 4.22938
    endloop
  endfacet
  facet normal -0.253789 -0.41835 0.872109
    outer loop
      vertex 10.5627 -51.4251 6.34393
      vertex 10.8545 -55 4.71397
      vertex 12.0297 -55 5.05596
    endloop
  endfacet
  facet normal -0.253806 -0.418349 0.872105
    outer loop
      vertex 10.8545 -55 4.71397
      vertex 10.5627 -51.4251 6.34393
      vertex 9.93755 -54.4437 4.71397
    endloop
  endfacet
  facet normal -0.663454 -0.620621 -0.417921
    outer loop
      vertex 7.71374 -55 -2.3177
      vertex 6.70657 -54.824 -0.980171
      vertex 7.02529 -53.87 -2.90285
    endloop
  endfacet
  facet normal -0.663422 -0.620677 -0.41789
    outer loop
      vertex 6.70657 -54.824 -0.980171
      vertex 7.71374 -55 -2.3177
      vertex 6.87123 -55 -0.980171
    endloop
  endfacet
  facet normal -0.792982 -0.483132 0.371165
    outer loop
      vertex 4.85011 -50.2998 2.90285
      vertex 4.44447 -51.1111 0.980171
      vertex 7.02529 -53.87 2.90285
    endloop
  endfacet
  facet normal 0.871785 -0.357706 -0.334719
    outer loop
      vertex 26.0114 -50 -0.980171
      vertex 25.5555 -51.1111 -0.980171
      vertex 25.8525 -50 -1.39403
    endloop
  endfacet
  facet normal -0.182087 -0.300112 0.936364
    outer loop
      vertex 10.5627 -51.4251 6.34393
      vertex 12.0044 -50 7.08104
      vertex 10.8579 -50 6.85809
    endloop
  endfacet
  facet normal -0.182073 -0.300125 0.936362
    outer loop
      vertex 12.0044 -50 7.08104
      vertex 10.5627 -51.4251 6.34393
      vertex 12.7379 -52.7447 6.34393
    endloop
  endfacet
  facet normal 0.348065 -0.573747 0.741394
    outer loop
      vertex 20.0625 -54.4437 4.71397
      vertex 19.1455 -55 4.71397
      vertex 20.1777 -55 4.22938
    endloop
  endfacet
  facet normal -0.792982 -0.483127 -0.371171
    outer loop
      vertex 6.70657 -54.824 -0.980171
      vertex 4.44447 -51.1111 -0.980171
      vertex 7.02529 -53.87 -2.90285
    endloop
  endfacet
  facet normal 0.510098 -0.310788 -0.802005
    outer loop
      vertex 22.3495 -51.9987 -4.71397
      vertex 21.6818 -50 -5.91317
      vertex 22.6527 -50 -5.29565
    endloop
  endfacet
  facet normal 0.656378 -0.399928 -0.639708
    outer loop
      vertex 24.009 -50 -4.26076
      vertex 22.3495 -51.9987 -4.71397
      vertex 23.5673 -50 -4.71397
    endloop
  endfacet
  facet normal 0.656351 -0.399895 -0.639756
    outer loop
      vertex 22.3495 -51.9987 -4.71397
      vertex 24.009 -50 -4.26076
      vertex 22.9747 -53.87 -2.90285
    endloop
  endfacet
  facet normal 0.182087 -0.300112 -0.936364
    outer loop
      vertex 19.4373 -51.4251 -6.34393
      vertex 17.9956 -50 -7.08104
      vertex 19.1421 -50 -6.85809
    endloop
  endfacet
  facet normal 0.182073 -0.300125 -0.936362
    outer loop
      vertex 17.9956 -50 -7.08104
      vertex 19.4373 -51.4251 -6.34393
      vertex 17.2621 -52.7447 -6.34393
    endloop
  endfacet
  facet normal 0.396751 -0.371172 -0.839536
    outer loop
      vertex 22.3495 -51.9987 -4.71397
      vertex 20.7703 -50 -6.34393
      vertex 21.6818 -50 -5.91317
    endloop
  endfacet
  facet normal 0.396785 -0.371142 -0.839533
    outer loop
      vertex 20.7703 -50 -6.34393
      vertex 22.3495 -51.9987 -4.71397
      vertex 19.4373 -51.4251 -6.34393
    endloop
  endfacet
  facet normal 0.853987 -0.520295 0
    outer loop
      vertex 23.2934 -54.824 0.980171
      vertex 25.5555 -51.1111 -0.980171
      vertex 25.5555 -51.1111 0.980171
    endloop
  endfacet
  facet normal 0.853987 -0.520295 0
    outer loop
      vertex 25.5555 -51.1111 -0.980171
      vertex 23.2934 -54.824 0.980171
      vertex 23.2934 -54.824 -0.980171
    endloop
  endfacet
  facet normal 0.92515 -0.379602 0
    outer loop
      vertex 25.5555 -51.1111 0.980171
      vertex 26.0114 -50 -0.980171
      vertex 26.0114 -50 0.980171
    endloop
  endfacet
  facet normal 0.92515 -0.379602 0
    outer loop
      vertex 26.0114 -50 -0.980171
      vertex 25.5555 -51.1111 0.980171
      vertex 25.5555 -51.1111 -0.980171
    endloop
  endfacet
  facet normal 0.527358 -0.493357 -0.691732
    outer loop
      vertex 20.0625 -54.4437 -4.71397
      vertex 21.9177 -55 -2.90285
      vertex 20.1777 -55 -4.22938
    endloop
  endfacet
  facet normal 0.527383 -0.493313 -0.691744
    outer loop
      vertex 21.9177 -55 -2.90285
      vertex 20.0625 -54.4437 -4.71397
      vertex 22.9747 -53.87 -2.90285
    endloop
  endfacet
  facet normal 0.527384 -0.493304 0.691749
    outer loop
      vertex 22.3495 -51.9987 4.71397
      vertex 20.0625 -54.4437 4.71397
      vertex 22.9747 -53.87 2.90285
    endloop
  endfacet
  facet normal -0.792982 -0.483127 0.371171
    outer loop
      vertex 7.02529 -53.87 2.90285
      vertex 4.44447 -51.1111 0.980171
      vertex 6.70657 -54.824 0.980171
    endloop
  endfacet
  facet normal -0.730241 -0.68319 0
    outer loop
      vertex 6.87123 -55 -0.980171
      vertex 6.70657 -54.824 0.980171
      vertex 6.70657 -54.824 -0.980171
    endloop
  endfacet
  facet normal -0.730241 -0.68319 0
    outer loop
      vertex 6.70657 -54.824 0.980171
      vertex 6.87123 -55 -0.980171
      vertex 6.87123 -55 0.980171
    endloop
  endfacet
  facet normal -0.871752 -0.357657 -0.334859
    outer loop
      vertex 4.85011 -50.2998 -2.90285
      vertex 4.14754 -50 -1.39403
      vertex 4.72711 -50 -2.90285
    endloop
  endfacet
  facet normal -0.871743 -0.357688 -0.334848
    outer loop
      vertex 4.14754 -50 -1.39403
      vertex 4.85011 -50.2998 -2.90285
      vertex 4.44447 -51.1111 -0.980171
    endloop
  endfacet
  facet normal -0.792982 -0.483132 -0.371165
    outer loop
      vertex 7.02529 -53.87 -2.90285
      vertex 4.44447 -51.1111 -0.980171
      vertex 4.85011 -50.2998 -2.90285
    endloop
  endfacet
  facet normal -0.0621758 -0.315617 -0.946847
    outer loop
      vertex 14.4101 -50 -7.36864
      vertex 12.7379 -52.7447 -6.34393
      vertex 13.0109 -50 -7.27676
    endloop
  endfacet
  facet normal -0.0621655 -0.315618 -0.946848
    outer loop
      vertex 15 -53.1903 -6.34393
      vertex 14.4101 -50 -7.36864
      vertex 15 -50 -7.40737
    endloop
  endfacet
  facet normal -0.0621722 -0.315619 -0.946847
    outer loop
      vertex 14.4101 -50 -7.36864
      vertex 15 -53.1903 -6.34393
      vertex 12.7379 -52.7447 -6.34393
    endloop
  endfacet
  facet normal 0.743665 -0.305106 0.594871
    outer loop
      vertex 25.2729 -50 2.90285
      vertex 25 -50 3.24401
      vertex 25.1499 -50.2998 2.90285
    endloop
  endfacet
  facet normal 0.656385 -0.39983 0.639762
    outer loop
      vertex 24.009 -50 4.26076
      vertex 25.1499 -50.2998 2.90285
      vertex 25 -50 3.24401
    endloop
  endfacet
  facet normal 0.656356 -0.399895 0.639751
    outer loop
      vertex 25.1499 -50.2998 2.90285
      vertex 24.009 -50 4.26076
      vertex 22.9747 -53.87 2.90285
    endloop
  endfacet
  facet normal -0.348076 -0.573735 0.741398
    outer loop
      vertex 9.93755 -54.4437 4.71397
      vertex 9.82233 -55 4.22938
      vertex 10.8545 -55 4.71397
    endloop
  endfacet
  facet normal -0.0875966 -0.444686 0.891393
    outer loop
      vertex 12.7379 -52.7447 6.34393
      vertex 13.3072 -55 5.27478
      vertex 15 -53.1903 6.34393
    endloop
  endfacet
  facet normal -0.0875893 -0.444685 0.891394
    outer loop
      vertex 13.3072 -55 5.27478
      vertex 12.7379 -52.7447 6.34393
      vertex 12.5136 -55 5.1968
    endloop
  endfacet
  facet normal -0.289845 -0.271118 0.91787
    outer loop
      vertex 10.8579 -50 6.85809
      vertex 9.22968 -50 6.34393
      vertex 10.5627 -51.4251 6.34393
    endloop
  endfacet
  facet normal 0.253793 -0.41835 0.872108
    outer loop
      vertex 19.4373 -51.4251 6.34393
      vertex 19.1455 -55 4.71397
      vertex 20.0625 -54.4437 4.71397
    endloop
  endfacet
  facet normal 0.253789 -0.41835 0.872109
    outer loop
      vertex 19.1455 -55 4.71397
      vertex 19.4373 -51.4251 6.34393
      vertex 17.9703 -55 5.05596
    endloop
  endfacet
  facet normal 0.656385 -0.39983 -0.639762
    outer loop
      vertex 25.1499 -50.2998 -2.90285
      vertex 24.009 -50 -4.26076
      vertex 25 -50 -3.24401
    endloop
  endfacet
  facet normal 0.656356 -0.399895 -0.639751
    outer loop
      vertex 24.009 -50 -4.26076
      vertex 25.1499 -50.2998 -2.90285
      vertex 22.9747 -53.87 -2.90285
    endloop
  endfacet
  facet normal 0.792984 -0.483129 -0.371164
    outer loop
      vertex 23.2934 -54.824 -0.980171
      vertex 22.9747 -53.87 -2.90285
      vertex 25.5555 -51.1111 -0.980171
    endloop
  endfacet
  facet normal 0.348065 -0.573747 -0.741394
    outer loop
      vertex 20.1777 -55 -4.22938
      vertex 19.1455 -55 -4.71397
      vertex 20.0625 -54.4437 -4.71397
    endloop
  endfacet
  facet normal 0.0875893 -0.444685 -0.891394
    outer loop
      vertex 16.6928 -55 -5.27478
      vertex 17.2621 -52.7447 -6.34393
      vertex 17.4864 -55 -5.1968
    endloop
  endfacet
  facet normal 0.0875966 -0.444686 -0.891393
    outer loop
      vertex 17.2621 -52.7447 -6.34393
      vertex 16.6928 -55 -5.27478
      vertex 15 -53.1903 -6.34393
    endloop
  endfacet
  facet normal 0.792984 -0.483129 0.371164
    outer loop
      vertex 25.5555 -51.1111 0.980171
      vertex 22.9747 -53.87 2.90285
      vertex 23.2934 -54.824 0.980171
    endloop
  endfacet
  facet normal 0.66348 -0.620601 0.417909
    outer loop
      vertex 22.2863 -55 2.3177
      vertex 23.2934 -54.824 0.980171
      vertex 22.9747 -53.87 2.90285
    endloop
  endfacet
  facet normal 0.663517 -0.620539 0.417944
    outer loop
      vertex 23.2934 -54.824 0.980171
      vertex 22.2863 -55 2.3177
      vertex 23.1288 -55 0.980171
    endloop
  endfacet
  facet normal -0.853987 -0.520295 0
    outer loop
      vertex 6.70657 -54.824 -0.980171
      vertex 4.44447 -51.1111 0.980171
      vertex 4.44447 -51.1111 -0.980171
    endloop
  endfacet
  facet normal -0.853987 -0.520295 0
    outer loop
      vertex 4.44447 -51.1111 0.980171
      vertex 6.70657 -54.824 -0.980171
      vertex 6.70657 -54.824 0.980171
    endloop
  endfacet
  facet normal -0.656375 -0.399853 0.639758
    outer loop
      vertex 4.85011 -50.2998 2.90285
      vertex 5.99101 -50 4.26076
      vertex 5 -50 3.24401
    endloop
  endfacet
  facet normal -0.656357 -0.399892 0.639752
    outer loop
      vertex 5.99101 -50 4.26076
      vertex 4.85011 -50.2998 2.90285
      vertex 7.02529 -53.87 2.90285
    endloop
  endfacet
  facet normal -0.871752 -0.357657 0.334859
    outer loop
      vertex 4.14754 -50 1.39403
      vertex 4.85011 -50.2998 2.90285
      vertex 4.72711 -50 2.90285
    endloop
  endfacet
  facet normal -0.871743 -0.357688 0.334848
    outer loop
      vertex 4.85011 -50.2998 2.90285
      vertex 4.14754 -50 1.39403
      vertex 4.44447 -51.1111 0.980171
    endloop
  endfacet
  facet normal 0.730365 -0.683057 0
    outer loop
      vertex 23.1288 -55 0.980171
      vertex 23.2934 -54.824 -0.980171
      vertex 23.2934 -54.824 0.980171
    endloop
  endfacet
  facet normal 0.730365 -0.683057 0
    outer loop
      vertex 23.2934 -54.824 -0.980171
      vertex 23.1288 -55 0.980171
      vertex 23.1288 -55 -0.980171
    endloop
  endfacet
  facet normal 0.182081 -0.300126 -0.93636
    outer loop
      vertex 17.2621 -52.7447 -6.34393
      vertex 16.9891 -50 -7.27676
      vertex 17.9956 -50 -7.08104
    endloop
  endfacet
  facet normal -0.39678 -0.371143 -0.839534
    outer loop
      vertex 7.65046 -51.9987 -4.71397
      vertex 9.22968 -50 -6.34393
      vertex 10.5627 -51.4251 -6.34393
    endloop
  endfacet
  facet normal -0.396764 -0.371157 -0.839536
    outer loop
      vertex 9.22968 -50 -6.34393
      vertex 7.65046 -51.9987 -4.71397
      vertex 8.31821 -50 -5.91317
    endloop
  endfacet
  facet normal -0.253789 -0.41835 -0.872109
    outer loop
      vertex 10.8545 -55 -4.71397
      vertex 10.5627 -51.4251 -6.34393
      vertex 12.0297 -55 -5.05596
    endloop
  endfacet
  facet normal -0.253806 -0.418349 -0.872105
    outer loop
      vertex 10.5627 -51.4251 -6.34393
      vertex 10.8545 -55 -4.71397
      vertex 9.93755 -54.4437 -4.71397
    endloop
  endfacet
  facet normal -0.871734 -0.357692 -0.334868
    outer loop
      vertex 4.44447 -51.1111 -0.980171
      vertex 3.98856 -50 -0.980171
      vertex 4.14754 -50 -1.39403
    endloop
  endfacet
  facet normal -0.743675 -0.30511 -0.594857
    outer loop
      vertex 4.85011 -50.2998 -2.90285
      vertex 4.72711 -50 -2.90285
      vertex 5 -50 -3.24401
    endloop
  endfacet
  facet normal -0.656375 -0.399853 -0.639758
    outer loop
      vertex 5.99101 -50 -4.26076
      vertex 4.85011 -50.2998 -2.90285
      vertex 5 -50 -3.24401
    endloop
  endfacet
  facet normal -0.656357 -0.399892 -0.639752
    outer loop
      vertex 4.85011 -50.2998 -2.90285
      vertex 5.99101 -50 -4.26076
      vertex 7.02529 -53.87 -2.90285
    endloop
  endfacet
  facet normal -0.5101 -0.310776 -0.802008
    outer loop
      vertex 7.65046 -51.9987 -4.71397
      vertex 7.34731 -50 -5.29565
      vertex 8.31821 -50 -5.91317
    endloop
  endfacet
  facet normal -0.289845 -0.271118 -0.91787
    outer loop
      vertex 10.5627 -51.4251 -6.34393
      vertex 9.22968 -50 -6.34393
      vertex 10.8579 -50 -6.85809
    endloop
  endfacet
  facet normal 0.656378 -0.399928 0.639708
    outer loop
      vertex 22.3495 -51.9987 4.71397
      vertex 24.009 -50 4.26076
      vertex 23.5673 -50 4.71397
    endloop
  endfacet
  facet normal 0.656351 -0.399895 0.639756
    outer loop
      vertex 24.009 -50 4.26076
      vertex 22.3495 -51.9987 4.71397
      vertex 22.9747 -53.87 2.90285
    endloop
  endfacet
  facet normal 0.510078 -0.310788 0.802017
    outer loop
      vertex 22.6527 -50 5.29565
      vertex 22.3495 -51.9987 4.71397
      vertex 23.5673 -50 4.71397
    endloop
  endfacet
  facet normal 0.792984 -0.483138 0.371151
    outer loop
      vertex 25.1499 -50.2998 2.90285
      vertex 22.9747 -53.87 2.90285
      vertex 25.5555 -51.1111 0.980171
    endloop
  endfacet
  facet normal -0.5101 -0.310776 0.802008
    outer loop
      vertex 8.31821 -50 5.91317
      vertex 7.34731 -50 5.29565
      vertex 7.65046 -51.9987 4.71397
    endloop
  endfacet
  facet normal -0.253827 -0.41834 0.872103
    outer loop
      vertex 12.7379 -52.7447 6.34393
      vertex 12.0297 -55 5.05596
      vertex 12.5136 -55 5.1968
    endloop
  endfacet
  facet normal -0.253796 -0.418352 0.872106
    outer loop
      vertex 12.0297 -55 5.05596
      vertex 12.7379 -52.7447 6.34393
      vertex 10.5627 -51.4251 6.34393
    endloop
  endfacet
  facet normal 0.0621758 -0.315617 0.946847
    outer loop
      vertex 16.9891 -50 7.27676
      vertex 15.5899 -50 7.36864
      vertex 17.2621 -52.7447 6.34393
    endloop
  endfacet
  facet normal 0.871747 -0.357655 -0.334874
    outer loop
      vertex 25.8525 -50 -1.39403
      vertex 25.1499 -50.2998 -2.90285
      vertex 25.2729 -50 -2.90285
    endloop
  endfacet
  facet normal 0.871724 -0.357737 -0.334847
    outer loop
      vertex 25.1499 -50.2998 -2.90285
      vertex 25.8525 -50 -1.39403
      vertex 25.5555 -51.1111 -0.980171
    endloop
  endfacet
  facet normal 0.743665 -0.305106 -0.594871
    outer loop
      vertex 25.1499 -50.2998 -2.90285
      vertex 25 -50 -3.24401
      vertex 25.2729 -50 -2.90285
    endloop
  endfacet
  facet normal 0.663517 -0.620539 -0.417944
    outer loop
      vertex 22.2863 -55 -2.3177
      vertex 23.2934 -54.824 -0.980171
      vertex 23.1288 -55 -0.980171
    endloop
  endfacet
  facet normal 0.66348 -0.620601 -0.417909
    outer loop
      vertex 23.2934 -54.824 -0.980171
      vertex 22.2863 -55 -2.3177
      vertex 22.9747 -53.87 -2.90285
    endloop
  endfacet
  facet normal 0.663464 -0.620603 -0.417932
    outer loop
      vertex 22.2863 -55 -2.3177
      vertex 21.9177 -55 -2.90285
      vertex 22.9747 -53.87 -2.90285
    endloop
  endfacet
  facet normal 0.510078 -0.310788 -0.802017
    outer loop
      vertex 23.5673 -50 -4.71397
      vertex 22.3495 -51.9987 -4.71397
      vertex 22.6527 -50 -5.29565
    endloop
  endfacet
  facet normal 0.396785 -0.371144 -0.839532
    outer loop
      vertex 20.0625 -54.4437 -4.71397
      vertex 19.4373 -51.4251 -6.34393
      vertex 22.3495 -51.9987 -4.71397
    endloop
  endfacet
  facet normal 0.253793 -0.41835 -0.872108
    outer loop
      vertex 19.1455 -55 -4.71397
      vertex 19.4373 -51.4251 -6.34393
      vertex 20.0625 -54.4437 -4.71397
    endloop
  endfacet
  facet normal 0.253789 -0.41835 -0.872109
    outer loop
      vertex 19.4373 -51.4251 -6.34393
      vertex 19.1455 -55 -4.71397
      vertex 17.9703 -55 -5.05596
    endloop
  endfacet
  facet normal -0.0876018 -0.444682 -0.891394
    outer loop
      vertex 15 -55 -5.44114
      vertex 13.3072 -55 -5.27478
      vertex 15 -53.1903 -6.34393
    endloop
  endfacet
  facet normal -0.527375 -0.493315 -0.691748
    outer loop
      vertex 9.93755 -54.4437 -4.71397
      vertex 7.02529 -53.87 -2.90285
      vertex 7.65046 -51.9987 -4.71397
    endloop
  endfacet
  facet normal 0.0876018 -0.444682 -0.891394
    outer loop
      vertex 16.6928 -55 -5.27478
      vertex 15 -55 -5.44114
      vertex 15 -53.1903 -6.34393
    endloop
  endfacet
  facet normal -0.925147 -0.379609 0
    outer loop
      vertex 4.44447 -51.1111 -0.980171
      vertex 3.98856 -50 0.980171
      vertex 3.98856 -50 -0.980171
    endloop
  endfacet
  facet normal -0.925147 -0.379609 0
    outer loop
      vertex 3.98856 -50 0.980171
      vertex 4.44447 -51.1111 -0.980171
      vertex 4.44447 -51.1111 0.980171
    endloop
  endfacet
  facet normal 0.0621758 -0.315617 -0.946847
    outer loop
      vertex 17.2621 -52.7447 -6.34393
      vertex 15.5899 -50 -7.36864
      vertex 16.9891 -50 -7.27676
    endloop
  endfacet
  facet normal 0.0621722 -0.315619 -0.946847
    outer loop
      vertex 15 -53.1903 -6.34393
      vertex 15.5899 -50 -7.36864
      vertex 17.2621 -52.7447 -6.34393
    endloop
  endfacet
  facet normal 0.0621655 -0.315618 -0.946848
    outer loop
      vertex 15.5899 -50 -7.36864
      vertex 15 -53.1903 -6.34393
      vertex 15 -50 -7.40737
    endloop
  endfacet
  facet normal -0.396777 -0.371152 -0.839532
    outer loop
      vertex 9.93755 -54.4437 -4.71397
      vertex 7.65046 -51.9987 -4.71397
      vertex 10.5627 -51.4251 -6.34393
    endloop
  endfacet
  facet normal -0.510092 -0.310777 -0.802013
    outer loop
      vertex 7.65046 -51.9987 -4.71397
      vertex 6.43274 -50 -4.71397
      vertex 7.34731 -50 -5.29565
    endloop
  endfacet
  facet normal 0.871747 -0.357655 0.334874
    outer loop
      vertex 25.1499 -50.2998 2.90285
      vertex 25.8525 -50 1.39403
      vertex 25.2729 -50 2.90285
    endloop
  endfacet
  facet normal 0.871724 -0.357737 0.334847
    outer loop
      vertex 25.8525 -50 1.39403
      vertex 25.1499 -50.2998 2.90285
      vertex 25.5555 -51.1111 0.980171
    endloop
  endfacet
  facet normal 0.871785 -0.357706 0.334719
    outer loop
      vertex 25.8525 -50 1.39403
      vertex 25.5555 -51.1111 0.980171
      vertex 26.0114 -50 0.980171
    endloop
  endfacet
  facet normal -0.743675 -0.30511 0.594857
    outer loop
      vertex 5 -50 3.24401
      vertex 4.72711 -50 2.90285
      vertex 4.85011 -50.2998 2.90285
    endloop
  endfacet
  facet normal -0.396777 -0.371152 0.839532
    outer loop
      vertex 10.5627 -51.4251 6.34393
      vertex 7.65046 -51.9987 4.71397
      vertex 9.93755 -54.4437 4.71397
    endloop
  endfacet
  facet normal -0.0876018 -0.444682 0.891394
    outer loop
      vertex 15 -53.1903 6.34393
      vertex 13.3072 -55 5.27478
      vertex 15 -55 5.44114
    endloop
  endfacet
  facet normal 0.0876018 -0.444682 0.891394
    outer loop
      vertex 15 -53.1903 6.34393
      vertex 15 -55 5.44114
      vertex 16.6928 -55 5.27478
    endloop
  endfacet
  facet normal 0.289849 -0.271117 0.917869
    outer loop
      vertex 20.7703 -50 6.34393
      vertex 19.1421 -50 6.85809
      vertex 19.4373 -51.4251 6.34393
    endloop
  endfacet
  facet normal 0.510098 -0.310788 0.802005
    outer loop
      vertex 22.6527 -50 5.29565
      vertex 21.6818 -50 5.91317
      vertex 22.3495 -51.9987 4.71397
    endloop
  endfacet
  facet normal 0.182081 -0.300126 0.93636
    outer loop
      vertex 17.9956 -50 7.08104
      vertex 16.9891 -50 7.27676
      vertex 17.2621 -52.7447 6.34393
    endloop
  endfacet
  facet normal 0.396785 -0.371144 0.839532
    outer loop
      vertex 22.3495 -51.9987 4.71397
      vertex 19.4373 -51.4251 6.34393
      vertex 20.0625 -54.4437 4.71397
    endloop
  endfacet
  facet normal 0.289849 -0.271117 -0.917869
    outer loop
      vertex 19.4373 -51.4251 -6.34393
      vertex 19.1421 -50 -6.85809
      vertex 20.7703 -50 -6.34393
    endloop
  endfacet
  facet normal -0.663463 -0.62062 -0.417909
    outer loop
      vertex 7.71374 -55 -2.3177
      vertex 7.02529 -53.87 -2.90285
      vertex 8.08232 -55 -2.90285
    endloop
  endfacet
  facet normal -0.52736 -0.493344 -0.691739
    outer loop
      vertex 8.08232 -55 -2.90285
      vertex 9.93755 -54.4437 -4.71397
      vertex 9.82233 -55 -4.22938
    endloop
  endfacet
  facet normal -0.527375 -0.493319 -0.691746
    outer loop
      vertex 9.93755 -54.4437 -4.71397
      vertex 8.08232 -55 -2.90285
      vertex 7.02529 -53.87 -2.90285
    endloop
  endfacet
  facet normal -0.0875966 -0.444686 -0.891393
    outer loop
      vertex 13.3072 -55 -5.27478
      vertex 12.7379 -52.7447 -6.34393
      vertex 15 -53.1903 -6.34393
    endloop
  endfacet
  facet normal -0.0875893 -0.444685 -0.891394
    outer loop
      vertex 12.7379 -52.7447 -6.34393
      vertex 13.3072 -55 -5.27478
      vertex 12.5136 -55 -5.1968
    endloop
  endfacet
  facet normal -0.348076 -0.573735 -0.741398
    outer loop
      vertex 10.8545 -55 -4.71397
      vertex 9.82233 -55 -4.22938
      vertex 9.93755 -54.4437 -4.71397
    endloop
  endfacet
  facet normal -0.182081 -0.300126 -0.93636
    outer loop
      vertex 12.7379 -52.7447 -6.34393
      vertex 12.0044 -50 -7.08104
      vertex 13.0109 -50 -7.27676
    endloop
  endfacet
  facet normal -0.182073 -0.300125 -0.936362
    outer loop
      vertex 10.5627 -51.4251 -6.34393
      vertex 12.0044 -50 -7.08104
      vertex 12.7379 -52.7447 -6.34393
    endloop
  endfacet
  facet normal -0.182087 -0.300112 -0.936364
    outer loop
      vertex 12.0044 -50 -7.08104
      vertex 10.5627 -51.4251 -6.34393
      vertex 10.8579 -50 -6.85809
    endloop
  endfacet
  facet normal -0.663422 -0.620677 0.41789
    outer loop
      vertex 7.71374 -55 2.3177
      vertex 6.70657 -54.824 0.980171
      vertex 6.87123 -55 0.980171
    endloop
  endfacet
  facet normal -0.663454 -0.620621 0.417921
    outer loop
      vertex 6.70657 -54.824 0.980171
      vertex 7.71374 -55 2.3177
      vertex 7.02529 -53.87 2.90285
    endloop
  endfacet
  facet normal -0.663463 -0.62062 0.417909
    outer loop
      vertex 8.08232 -55 2.90285
      vertex 7.02529 -53.87 2.90285
      vertex 7.71374 -55 2.3177
    endloop
  endfacet
  facet normal -0.510092 -0.310777 0.802013
    outer loop
      vertex 7.34731 -50 5.29565
      vertex 6.43274 -50 4.71397
      vertex 7.65046 -51.9987 4.71397
    endloop
  endfacet
  facet normal -0.396764 -0.371157 0.839536
    outer loop
      vertex 7.65046 -51.9987 4.71397
      vertex 9.22968 -50 6.34393
      vertex 8.31821 -50 5.91317
    endloop
  endfacet
  facet normal -0.39678 -0.371143 0.839534
    outer loop
      vertex 9.22968 -50 6.34393
      vertex 7.65046 -51.9987 4.71397
      vertex 10.5627 -51.4251 6.34393
    endloop
  endfacet
  facet normal 0.0621655 -0.315618 0.946848
    outer loop
      vertex 15 -53.1903 6.34393
      vertex 15.5899 -50 7.36864
      vertex 15 -50 7.40737
    endloop
  endfacet
  facet normal 0.0621722 -0.315619 0.946847
    outer loop
      vertex 15.5899 -50 7.36864
      vertex 15 -53.1903 6.34393
      vertex 17.2621 -52.7447 6.34393
    endloop
  endfacet
  facet normal 0.0875893 -0.444685 0.891394
    outer loop
      vertex 17.2621 -52.7447 6.34393
      vertex 16.6928 -55 5.27478
      vertex 17.4864 -55 5.1968
    endloop
  endfacet
  facet normal 0.0875966 -0.444686 0.891393
    outer loop
      vertex 16.6928 -55 5.27478
      vertex 17.2621 -52.7447 6.34393
      vertex 15 -53.1903 6.34393
    endloop
  endfacet
  facet normal -0.182081 -0.300126 0.93636
    outer loop
      vertex 13.0109 -50 7.27676
      vertex 12.0044 -50 7.08104
      vertex 12.7379 -52.7447 6.34393
    endloop
  endfacet
  facet normal -0.0621758 -0.315617 0.946847
    outer loop
      vertex 13.0109 -50 7.27676
      vertex 12.7379 -52.7447 6.34393
      vertex 14.4101 -50 7.36864
    endloop
  endfacet
  facet normal -0.656366 -0.399895 0.63974
    outer loop
      vertex 5.99101 -50 4.26076
      vertex 7.65046 -51.9987 4.71397
      vertex 6.43274 -50 4.71397
    endloop
  endfacet
  facet normal -0.656363 -0.399891 0.639745
    outer loop
      vertex 7.65046 -51.9987 4.71397
      vertex 5.99101 -50 4.26076
      vertex 7.02529 -53.87 2.90285
    endloop
  endfacet
  facet normal -0.527375 -0.493315 0.691748
    outer loop
      vertex 7.65046 -51.9987 4.71397
      vertex 7.02529 -53.87 2.90285
      vertex 9.93755 -54.4437 4.71397
    endloop
  endfacet
  facet normal 0.182087 -0.300112 0.936364
    outer loop
      vertex 17.9956 -50 7.08104
      vertex 19.4373 -51.4251 6.34393
      vertex 19.1421 -50 6.85809
    endloop
  endfacet
  facet normal 0.182073 -0.300125 0.936362
    outer loop
      vertex 19.4373 -51.4251 6.34393
      vertex 17.9956 -50 7.08104
      vertex 17.2621 -52.7447 6.34393
    endloop
  endfacet
  facet normal 0.253796 -0.418352 0.872106
    outer loop
      vertex 17.2621 -52.7447 6.34393
      vertex 17.9703 -55 5.05596
      vertex 19.4373 -51.4251 6.34393
    endloop
  endfacet
  facet normal 0.253827 -0.41834 0.872103
    outer loop
      vertex 17.9703 -55 5.05596
      vertex 17.2621 -52.7447 6.34393
      vertex 17.4864 -55 5.1968
    endloop
  endfacet
endsolid OpenSCAD_Model
