solid OpenSCAD_Model
  facet normal 0 0 1
    outer loop
      vertex 44.405 -60.062 0
      vertex 28 -49 0
      vertex 42.9034 -70.537 0
    endloop
  endfacet
  facet normal 0 0 1
    outer loop
      vertex 45.3396 -53.5436 0
      vertex 28 -49 0
      vertex 44.405 -60.062 0
    endloop
  endfacet
  facet normal -0 0 1
    outer loop
      vertex 28 -49 0
      vertex 45.3396 -53.5436 0
      vertex 46.7421 -49 0
    endloop
  endfacet
  facet normal 0 0 1
    outer loop
      vertex 28 -98 0
      vertex 43.9231 -93.561 0
      vertex 43.6404 -91.068 0
    endloop
  endfacet
  facet normal 0 0 1
    outer loop
      vertex 28 -98 0
      vertex 43.5005 -83.7727 0
      vertex 43.1284 -75.5802 0
    endloop
  endfacet
  facet normal 0 0 1
    outer loop
      vertex 43.5005 -83.7727 0
      vertex 28 -98 0
      vertex 43.5567 -86.721 0
    endloop
  endfacet
  facet normal 0 0 1
    outer loop
      vertex 28 -98 0
      vertex 43.1284 -75.5802 0
      vertex 42.9034 -70.537 0
    endloop
  endfacet
  facet normal 0 0 1
    outer loop
      vertex 28 -98 0
      vertex 42.9034 -70.537 0
      vertex 28 -49 0
    endloop
  endfacet
  facet normal 0 0 1
    outer loop
      vertex 43.5567 -86.721 0
      vertex 28 -98 0
      vertex 43.6404 -91.068 0
    endloop
  endfacet
  facet normal 0 0 1
    outer loop
      vertex 43.9231 -93.561 0
      vertex 28 -98 0
      vertex 44.3377 -97.2248 0
    endloop
  endfacet
  facet normal 0 0 1
    outer loop
      vertex 44.3377 -97.2248 0
      vertex 28 -98 0
      vertex 44.4985 -98 0
    endloop
  endfacet
  facet normal -1 0 0
    outer loop
      vertex 28 -50.1878 -19.1115
      vertex 28 -49 0
      vertex 28 -49 -19.0114
    endloop
  endfacet
  facet normal -1 0 0
    outer loop
      vertex 28 -50.6629 -19.1487
      vertex 28 -49 0
      vertex 28 -50.1878 -19.1115
    endloop
  endfacet
  facet normal -1 0 0
    outer loop
      vertex 28 -68.9462 -20.3079
      vertex 28 -49 0
      vertex 28 -50.6629 -19.1487
    endloop
  endfacet
  facet normal -1 0 0
    outer loop
      vertex 28 -98 0
      vertex 28 -68.9462 -20.3079
      vertex 28 -82.7751 -22.0494
    endloop
  endfacet
  facet normal -1 0 0
    outer loop
      vertex 28 -98 0
      vertex 28 -82.7751 -22.0494
      vertex 28 -83.3914 -22.1251
    endloop
  endfacet
  facet normal -1 0 0
    outer loop
      vertex 28 -98 0
      vertex 28 -83.3914 -22.1251
      vertex 28 -91.5728 -22.1363
    endloop
  endfacet
  facet normal -1 0 0
    outer loop
      vertex 28 -98 0
      vertex 28 -91.5728 -22.1363
      vertex 28 -92.108 -22.137
    endloop
  endfacet
  facet normal -1 0 0
    outer loop
      vertex 28 -98 0
      vertex 28 -92.108 -22.137
      vertex 28 -98 -22.1907
    endloop
  endfacet
  facet normal -1 0 0
    outer loop
      vertex 28 -68.9462 -20.3079
      vertex 28 -98 0
      vertex 28 -49 0
    endloop
  endfacet
  facet normal 0 1 0
    outer loop
      vertex 47.171 -49 -2.96622
      vertex 28 -49 0
      vertex 46.7421 -49 0
    endloop
  endfacet
  facet normal 0 1 0
    outer loop
      vertex 47.2119 -49 -3.69272
      vertex 28 -49 0
      vertex 47.171 -49 -2.96622
    endloop
  endfacet
  facet normal 0 1 0
    outer loop
      vertex 44.7665 -49 -11.7548
      vertex 47.2119 -49 -3.69272
      vertex 47.3556 -49 -6.27039
    endloop
  endfacet
  facet normal 0 1 0
    outer loop
      vertex 45.8237 -49 -10.5399
      vertex 47.3556 -49 -6.27039
      vertex 47.3455 -49 -6.51462
    endloop
  endfacet
  facet normal 0 1 0
    outer loop
      vertex 47.2929 -49 -7.4821
      vertex 47.3455 -49 -6.51462
      vertex 47.31 -49 -7.37546
    endloop
  endfacet
  facet normal 0 1 0
    outer loop
      vertex 46.8166 -49 -8.99169
      vertex 47.3455 -49 -6.51462
      vertex 47.2929 -49 -7.4821
    endloop
  endfacet
  facet normal 0 1 0
    outer loop
      vertex 47.2022 -49 -7.96585
      vertex 47.2929 -49 -7.4821
      vertex 47.2327 -49 -7.85898
    endloop
  endfacet
  facet normal 0 1 0
    outer loop
      vertex 46.8166 -49 -8.99169
      vertex 47.2929 -49 -7.4821
      vertex 47.2022 -49 -7.96585
    endloop
  endfacet
  facet normal 0 1 0
    outer loop
      vertex 47.052 -49 -8.45201
      vertex 47.2022 -49 -7.96585
      vertex 47.0946 -49 -8.34549
    endloop
  endfacet
  facet normal 0 1 0
    outer loop
      vertex 46.8166 -49 -8.99169
      vertex 47.2022 -49 -7.96585
      vertex 47.052 -49 -8.45201
    endloop
  endfacet
  facet normal 0 1 0
    outer loop
      vertex 46.8166 -49 -8.99169
      vertex 47.052 -49 -8.45201
      vertex 46.9003 -49 -8.83367
    endloop
  endfacet
  facet normal 0 1 0
    outer loop
      vertex 47.3455 -49 -6.51462
      vertex 46.8166 -49 -8.99169
      vertex 46.4106 -49 -9.72037
    endloop
  endfacet
  facet normal 0 1 0
    outer loop
      vertex 46.4106 -49 -9.72037
      vertex 46.8166 -49 -8.99169
      vertex 46.5139 -49 -9.56612
    endloop
  endfacet
  facet normal 0 1 0
    outer loop
      vertex 47.3455 -49 -6.51462
      vertex 46.4106 -49 -9.72037
      vertex 45.8237 -49 -10.5399
    endloop
  endfacet
  facet normal 0 1 0
    outer loop
      vertex 45.8237 -49 -10.5399
      vertex 46.4106 -49 -9.72037
      vertex 46.0277 -49 -10.2947
    endloop
  endfacet
  facet normal 0 1 0
    outer loop
      vertex 47.3556 -49 -6.27039
      vertex 45.8237 -49 -10.5399
      vertex 44.7665 -49 -11.7548
    endloop
  endfacet
  facet normal 0 1 0
    outer loop
      vertex 44.7665 -49 -11.7548
      vertex 45.8237 -49 -10.5399
      vertex 45.0383 -49 -11.4878
    endloop
  endfacet
  facet normal 0 1 0
    outer loop
      vertex 47.2119 -49 -3.69272
      vertex 44.7665 -49 -11.7548
      vertex 28 -49 0
    endloop
  endfacet
  facet normal 0 1 -0
    outer loop
      vertex 43.6468 -49 -12.8574
      vertex 28 -49 0
      vertex 44.7665 -49 -11.7548
    endloop
  endfacet
  facet normal 0 1 -0
    outer loop
      vertex 42.6809 -49 -13.5922
      vertex 28 -49 0
      vertex 43.6468 -49 -12.8574
    endloop
  endfacet
  facet normal 0 1 -0
    outer loop
      vertex 38.0106 -49 -17.1458
      vertex 28 -49 0
      vertex 42.6809 -49 -13.5922
    endloop
  endfacet
  facet normal 0 1 0
    outer loop
      vertex 36.4248 -49 -17.8897
      vertex 38.0106 -49 -17.1458
      vertex 37.9514 -49 -17.1831
    endloop
  endfacet
  facet normal 0 1 0
    outer loop
      vertex 37.513 -49 -17.4515
      vertex 37.9514 -49 -17.1831
      vertex 37.5639 -49 -17.4267
    endloop
  endfacet
  facet normal 0 1 0
    outer loop
      vertex 37.0936 -49 -17.647
      vertex 37.9514 -49 -17.1831
      vertex 37.513 -49 -17.4515
    endloop
  endfacet
  facet normal 0 1 0
    outer loop
      vertex 37.0936 -49 -17.647
      vertex 37.513 -49 -17.4515
      vertex 37.1683 -49 -17.6179
    endloop
  endfacet
  facet normal 0 1 0
    outer loop
      vertex 37.9514 -49 -17.1831
      vertex 37.0936 -49 -17.647
      vertex 36.4248 -49 -17.8897
    endloop
  endfacet
  facet normal 0 1 0
    outer loop
      vertex 36.4248 -49 -17.8897
      vertex 37.0936 -49 -17.647
      vertex 36.5688 -49 -17.8484
    endloop
  endfacet
  facet normal 0 1 0
    outer loop
      vertex 38.0106 -49 -17.1458
      vertex 36.4248 -49 -17.8897
      vertex 35.1372 -49 -18.2305
    endloop
  endfacet
  facet normal 0 1 0
    outer loop
      vertex 35.1372 -49 -18.2305
      vertex 36.4248 -49 -17.8897
      vertex 35.3515 -49 -18.1897
    endloop
  endfacet
  facet normal 0 1 0
    outer loop
      vertex 38.0106 -49 -17.1458
      vertex 35.1372 -49 -18.2305
      vertex 28 -49 0
    endloop
  endfacet
  facet normal 0 1 -0
    outer loop
      vertex 33.341 -49 -18.5572
      vertex 28 -49 0
      vertex 35.1372 -49 -18.2305
    endloop
  endfacet
  facet normal 0 1 -0
    outer loop
      vertex 32.9286 -49 -18.5991
      vertex 28 -49 0
      vertex 33.341 -49 -18.5572
    endloop
  endfacet
  facet normal 0 1 -0
    outer loop
      vertex 28.5715 -49 -18.9987
      vertex 28 -49 0
      vertex 32.9286 -49 -18.5991
    endloop
  endfacet
  facet normal 0 1 -0
    outer loop
      vertex 28.467 -49 -19.0019
      vertex 28 -49 0
      vertex 28.5715 -49 -18.9987
    endloop
  endfacet
  facet normal 0 1 0
    outer loop
      vertex 28 -49 0
      vertex 28.467 -49 -19.0019
      vertex 28 -49 -19.0114
    endloop
  endfacet
  facet normal 0 -1 0
    outer loop
      vertex 28 -98 0
      vertex 44.8967 -98 -2.80806
      vertex 44.4985 -98 0
    endloop
  endfacet
  facet normal 0 -1 0
    outer loop
      vertex 28 -98 0
      vertex 45.007 -98 -3.58587
      vertex 44.8967 -98 -2.80806
    endloop
  endfacet
  facet normal 0 -1 0
    outer loop
      vertex 28 -98 0
      vertex 45.2052 -98 -7.21084
      vertex 45.007 -98 -3.58587
    endloop
  endfacet
  facet normal 0 -1 0
    outer loop
      vertex 42.5451 -98 -13.785
      vertex 45.2052 -98 -7.21084
      vertex 28 -98 0
    endloop
  endfacet
  facet normal -0 -1 0
    outer loop
      vertex 43.6942 -98 -12.3702
      vertex 45.2052 -98 -7.21084
      vertex 42.5451 -98 -13.785
    endloop
  endfacet
  facet normal -0 -1 0
    outer loop
      vertex 44.2651 -98 -11.4879
      vertex 45.2255 -98 -7.58189
      vertex 43.6942 -98 -12.3702
    endloop
  endfacet
  facet normal 0 -1 0
    outer loop
      vertex 45.2255 -98 -7.58189
      vertex 44.2651 -98 -11.4879
      vertex 45.1765 -98 -8.794
    endloop
  endfacet
  facet normal -0 -1 0
    outer loop
      vertex 44.7062 -98 -10.626
      vertex 45.1765 -98 -8.794
      vertex 44.2651 -98 -11.4879
    endloop
  endfacet
  facet normal -0 -1 0
    outer loop
      vertex 44.931 -98 -10.0362
      vertex 45.1765 -98 -8.794
      vertex 44.7062 -98 -10.626
    endloop
  endfacet
  facet normal 0 -1 0
    outer loop
      vertex 45.1765 -98 -8.794
      vertex 45.0884 -98 -9.44825
      vertex 45.1715 -98 -8.91763
    endloop
  endfacet
  facet normal 0 -1 0
    outer loop
      vertex 45.1765 -98 -8.794
      vertex 44.931 -98 -10.0362
      vertex 45.0884 -98 -9.44825
    endloop
  endfacet
  facet normal 0 -1 0
    outer loop
      vertex 44.931 -98 -10.0362
      vertex 44.7062 -98 -10.626
      vertex 44.9166 -98 -10.088
    endloop
  endfacet
  facet normal 0 -1 0
    outer loop
      vertex 44.7062 -98 -10.626
      vertex 44.2651 -98 -11.4879
      vertex 44.6867 -98 -10.6758
    endloop
  endfacet
  facet normal 0 -1 0
    outer loop
      vertex 45.0884 -98 -9.44825
      vertex 44.931 -98 -10.0362
      vertex 45.0801 -98 -9.50142
    endloop
  endfacet
  facet normal 0 -1 0
    outer loop
      vertex 44.2651 -98 -11.4879
      vertex 43.6942 -98 -12.3702
      vertex 44.2298 -98 -11.5559
    endloop
  endfacet
  facet normal 0 -1 -0
    outer loop
      vertex 45.2052 -98 -7.21084
      vertex 43.6942 -98 -12.3702
      vertex 45.2255 -98 -7.58189
    endloop
  endfacet
  facet normal 0 -1 0
    outer loop
      vertex 43.6942 -98 -12.3702
      vertex 42.5451 -98 -13.785
      vertex 43.6553 -98 -12.4292
    endloop
  endfacet
  facet normal 0 -1 0
    outer loop
      vertex 28 -98 0
      vertex 42.4882 -98 -13.8545
      vertex 42.5451 -98 -13.785
    endloop
  endfacet
  facet normal 0 -1 0
    outer loop
      vertex 28 -98 0
      vertex 40.8861 -98 -15.4474
      vertex 42.4882 -98 -13.8545
    endloop
  endfacet
  facet normal 0 -1 0
    outer loop
      vertex 39.5391 -98 -16.4862
      vertex 40.8861 -98 -15.4474
      vertex 28 -98 0
    endloop
  endfacet
  facet normal 0 -1 0
    outer loop
      vertex 40.8861 -98 -15.4474
      vertex 39.5391 -98 -16.4862
      vertex 40.8507 -98 -15.4825
    endloop
  endfacet
  facet normal 0 -1 0
    outer loop
      vertex 28 -98 0
      vertex 34.3384 -98 -20.5245
      vertex 39.5391 -98 -16.4862
    endloop
  endfacet
  facet normal 0 -1 0
    outer loop
      vertex 30.8823 -98 -21.7878
      vertex 34.3384 -98 -20.5245
      vertex 28 -98 0
    endloop
  endfacet
  facet normal -0 -1 0
    outer loop
      vertex 32.4763 -98 -21.3925
      vertex 34.3384 -98 -20.5245
      vertex 30.8823 -98 -21.7878
    endloop
  endfacet
  facet normal 0 -1 0
    outer loop
      vertex 34.2785 -98 -20.5627
      vertex 33.7687 -98 -20.8793
      vertex 33.8265 -98 -20.8512
    endloop
  endfacet
  facet normal -0 -1 0
    outer loop
      vertex 33.2795 -98 -21.1076
      vertex 34.2785 -98 -20.5627
      vertex 32.4763 -98 -21.3925
    endloop
  endfacet
  facet normal 0 -1 0
    outer loop
      vertex 33.7687 -98 -20.8793
      vertex 33.2795 -98 -21.1076
      vertex 33.3736 -98 -21.0716
    endloop
  endfacet
  facet normal 0 -1 0
    outer loop
      vertex 34.2785 -98 -20.5627
      vertex 33.2795 -98 -21.1076
      vertex 33.7687 -98 -20.8793
    endloop
  endfacet
  facet normal 0 -1 0
    outer loop
      vertex 33.2795 -98 -21.1076
      vertex 32.4763 -98 -21.3925
      vertex 32.6878 -98 -21.3345
    endloop
  endfacet
  facet normal 0 -1 0
    outer loop
      vertex 34.3384 -98 -20.5245
      vertex 32.4763 -98 -21.3925
      vertex 34.2785 -98 -20.5627
    endloop
  endfacet
  facet normal 0 -1 0
    outer loop
      vertex 32.4763 -98 -21.3925
      vertex 30.8823 -98 -21.7878
      vertex 31.2973 -98 -21.7162
    endloop
  endfacet
  facet normal 0 -1 0
    outer loop
      vertex 28 -98 0
      vertex 29.0067 -98 -22.1116
      vertex 30.8823 -98 -21.7878
    endloop
  endfacet
  facet normal -0 -1 0
    outer loop
      vertex 29.0067 -98 -22.1116
      vertex 28 -98 0
      vertex 28 -98 -22.1907
    endloop
  endfacet
  facet normal 0.0305075 0.0808544 -0.996259
    outer loop
      vertex 28.5715 -49 -18.9987
      vertex 28.1004 -50.2072 -19.1111
      vertex 28.467 -49 -19.0019
    endloop
  endfacet
  facet normal 0.0201923 0.0839587 -0.996265
    outer loop
      vertex 28 -49 -19.0114
      vertex 28.1004 -50.2072 -19.1111
      vertex 28 -50.1878 -19.1115
    endloop
  endfacet
  facet normal 0.0202666 0.0839647 -0.996263
    outer loop
      vertex 28.1004 -50.2072 -19.1111
      vertex 28 -49 -19.0114
      vertex 28.467 -49 -19.0019
    endloop
  endfacet
  facet normal 0.100925 0.0553113 -0.993355
    outer loop
      vertex 33.341 -49 -18.5572
      vertex 32.5735 -51.0729 -18.7506
      vertex 32.9286 -49 -18.5991
    endloop
  endfacet
  facet normal 0.0911804 0.0570423 -0.994199
    outer loop
      vertex 32.5735 -51.0729 -18.7506
      vertex 28.5715 -49 -18.9987
      vertex 32.9286 -49 -18.5991
    endloop
  endfacet
  facet normal 0.0911564 0.0569954 -0.994204
    outer loop
      vertex 28.5715 -49 -18.9987
      vertex 32.5735 -51.0729 -18.7506
      vertex 28.1004 -50.2072 -19.1111
    endloop
  endfacet
  facet normal 0.186978 0.0232019 -0.98209
    outer loop
      vertex 35.3515 -49 -18.1897
      vertex 34.4693 -51.4398 -18.4153
      vertex 35.1372 -49 -18.2305
    endloop
  endfacet
  facet normal 0.17889 0.0255256 -0.983538
    outer loop
      vertex 34.4693 -51.4398 -18.4153
      vertex 33.341 -49 -18.5572
      vertex 35.1372 -49 -18.2305
    endloop
  endfacet
  facet normal 0.178893 0.0255273 -0.983537
    outer loop
      vertex 33.341 -49 -18.5572
      vertex 34.4693 -51.4398 -18.4153
      vertex 32.5735 -51.0729 -18.7506
    endloop
  endfacet
  facet normal 0.275676 -0.0103991 -0.961194
    outer loop
      vertex 36.5688 -49 -17.8484
      vertex 35.6204 -51.6626 -18.0916
      vertex 36.4248 -49 -17.8897
    endloop
  endfacet
  facet normal 0.269185 -0.00829706 -0.963053
    outer loop
      vertex 35.6204 -51.6626 -18.0916
      vertex 35.3515 -49 -18.1897
      vertex 36.4248 -49 -17.8897
    endloop
  endfacet
  facet normal 0.269212 -0.00829402 -0.963045
    outer loop
      vertex 35.3515 -49 -18.1897
      vertex 35.6204 -51.6626 -18.0916
      vertex 34.4693 -51.4398 -18.4153
    endloop
  endfacet
  facet normal 0.362636 -0.0439995 -0.930891
    outer loop
      vertex 37.1683 -49 -17.6179
      vertex 36.1881 -51.7725 -17.8687
      vertex 37.0936 -49 -17.647
    endloop
  endfacet
  facet normal 0.357967 -0.0423237 -0.932775
    outer loop
      vertex 36.1881 -51.7725 -17.8687
      vertex 36.5688 -49 -17.8484
      vertex 37.0936 -49 -17.647
    endloop
  endfacet
  facet normal 0.358036 -0.0423335 -0.932748
    outer loop
      vertex 36.5688 -49 -17.8484
      vertex 36.1881 -51.7725 -17.8687
      vertex 35.6204 -51.6626 -18.0916
    endloop
  endfacet
  facet normal 0.436828 -0.0732901 -0.896554
    outer loop
      vertex 37.5639 -49 -17.4267
      vertex 36.563 -51.845 -17.6818
      vertex 37.513 -49 -17.4515
    endloop
  endfacet
  facet normal 0.433604 -0.0720788 -0.898216
    outer loop
      vertex 36.563 -51.845 -17.6818
      vertex 37.1683 -49 -17.6179
      vertex 37.513 -49 -17.4515
    endloop
  endfacet
  facet normal 0.433795 -0.0721218 -0.89812
    outer loop
      vertex 37.1683 -49 -17.6179
      vertex 36.563 -51.845 -17.6818
      vertex 36.1881 -51.7725 -17.8687
    endloop
  endfacet
  facet normal 0.529789 -0.11093 -0.840844
    outer loop
      vertex 38.0106 -49 -17.1458
      vertex 36.9868 -51.9271 -17.4047
      vertex 37.9514 -49 -17.1831
    endloop
  endfacet
  facet normal 0.528951 -0.110611 -0.841413
    outer loop
      vertex 36.9868 -51.9271 -17.4047
      vertex 37.5639 -49 -17.4267
      vertex 37.9514 -49 -17.1831
    endloop
  endfacet
  facet normal 0.528798 -0.110581 -0.841513
    outer loop
      vertex 37.5639 -49 -17.4267
      vertex 36.9868 -51.9271 -17.4047
      vertex 36.563 -51.845 -17.6818
    endloop
  endfacet
  facet normal 0.599494 -0.139998 -0.78804
    outer loop
      vertex 43.6468 -49 -12.8574
      vertex 42.363 -52.9675 -13.1292
      vertex 42.6809 -49 -13.5922
    endloop
  endfacet
  facet normal 0.59957 -0.139997 -0.787982
    outer loop
      vertex 42.363 -52.9675 -13.1292
      vertex 38.0106 -49 -17.1458
      vertex 42.6809 -49 -13.5922
    endloop
  endfacet
  facet normal 0.599563 -0.14001 -0.787986
    outer loop
      vertex 38.0106 -49 -17.1458
      vertex 42.363 -52.9675 -13.1292
      vertex 36.9868 -51.9271 -17.4047
    endloop
  endfacet
  facet normal 0.689932 -0.175272 -0.702335
    outer loop
      vertex 45.0383 -49 -11.4878
      vertex 43.6992 -53.2261 -11.7486
      vertex 44.7665 -49 -11.7548
    endloop
  endfacet
  facet normal 0.690758 -0.17548 -0.70147
    outer loop
      vertex 43.6992 -53.2261 -11.7486
      vertex 43.6468 -49 -12.8574
      vertex 44.7665 -49 -11.7548
    endloop
  endfacet
  facet normal 0.690789 -0.175472 -0.701441
    outer loop
      vertex 43.6468 -49 -12.8574
      vertex 43.6992 -53.2261 -11.7486
      vertex 42.363 -52.9675 -13.1292
    endloop
  endfacet
  facet normal 0.753177 -0.200166 -0.626624
    outer loop
      vertex 46.0277 -49 -10.2947
      vertex 44.6515 -53.4104 -10.54
      vertex 45.8237 -49 -10.5399
    endloop
  endfacet
  facet normal 0.754392 -0.200466 -0.625065
    outer loop
      vertex 45.8237 -49 -10.5399
      vertex 43.6992 -53.2261 -11.7486
      vertex 45.0383 -49 -11.4878
    endloop
  endfacet
  facet normal 0.754426 -0.200498 -0.625014
    outer loop
      vertex 43.6992 -53.2261 -11.7486
      vertex 45.8237 -49 -10.5399
      vertex 44.6515 -53.4104 -10.54
    endloop
  endfacet
  facet normal 0.810026 -0.22268 -0.542468
    outer loop
      vertex 46.5139 -49 -9.56612
      vertex 45.1203 -53.5011 -9.7994
      vertex 46.4106 -49 -9.72037
    endloop
  endfacet
  facet normal 0.811087 -0.223012 -0.540743
    outer loop
      vertex 46.4106 -49 -9.72037
      vertex 44.6515 -53.4104 -10.54
      vertex 46.0277 -49 -10.2947
    endloop
  endfacet
  facet normal 0.811092 -0.223016 -0.540734
    outer loop
      vertex 44.6515 -53.4104 -10.54
      vertex 46.4106 -49 -9.72037
      vertex 45.1203 -53.5011 -9.7994
    endloop
  endfacet
  facet normal 0.857418 -0.242022 -0.454157
    outer loop
      vertex 46.9003 -49 -8.83367
      vertex 45.4932 -53.5733 -9.05305
      vertex 46.8166 -49 -8.99169
    endloop
  endfacet
  facet normal 0.858321 -0.242306 -0.452298
    outer loop
      vertex 46.8166 -49 -8.99169
      vertex 45.1203 -53.5011 -9.7994
      vertex 46.5139 -49 -9.56612
    endloop
  endfacet
  facet normal 0.858325 -0.24231 -0.452287
    outer loop
      vertex 45.1203 -53.5011 -9.7994
      vertex 46.8166 -49 -8.99169
      vertex 45.4932 -53.5733 -9.05305
    endloop
  endfacet
  facet normal 0.896863 -0.25882 -0.358678
    outer loop
      vertex 47.0946 -49 -8.34549
      vertex 45.6807 -53.6096 -8.55464
      vertex 47.052 -49 -8.45201
    endloop
  endfacet
  facet normal 0.897563 -0.259046 -0.356758
    outer loop
      vertex 47.052 -49 -8.45201
      vertex 45.4932 -53.5733 -9.05305
      vertex 46.9003 -49 -8.83367
    endloop
  endfacet
  facet normal 0.897629 -0.259095 -0.356555
    outer loop
      vertex 45.4932 -53.5733 -9.05305
      vertex 47.052 -49 -8.45201
      vertex 45.6807 -53.6096 -8.55464
    endloop
  endfacet
  facet normal 0.925376 -0.271905 -0.264096
    outer loop
      vertex 47.2327 -49 -7.85898
      vertex 45.8141 -53.6354 -8.0572
      vertex 47.2022 -49 -7.96585
    endloop
  endfacet
  facet normal 0.925811 -0.272069 -0.262399
    outer loop
      vertex 45.8141 -53.6354 -8.0572
      vertex 47.0946 -49 -8.34549
      vertex 47.2022 -49 -7.96585
    endloop
  endfacet
  facet normal 0.925813 -0.272069 -0.262389
    outer loop
      vertex 47.0946 -49 -8.34549
      vertex 45.8141 -53.6354 -8.0572
      vertex 45.6807 -53.6096 -8.55464
    endloop
  endfacet
  facet normal 0.946928 -0.283324 -0.151842
    outer loop
      vertex 47.31 -49 -7.37546
      vertex 45.8888 -53.6499 -7.56215
      vertex 47.2929 -49 -7.4821
    endloop
  endfacet
  facet normal 0.947009 -0.283358 -0.151268
    outer loop
      vertex 45.8888 -53.6499 -7.56215
      vertex 47.2327 -49 -7.85898
      vertex 47.2929 -49 -7.4821
    endloop
  endfacet
  facet normal 0.94702 -0.283357 -0.151199
    outer loop
      vertex 47.2327 -49 -7.85898
      vertex 45.8888 -53.6499 -7.56215
      vertex 45.8141 -53.6354 -8.0572
    endloop
  endfacet
  facet normal 0.956015 -0.290643 -0.0395355
    outer loop
      vertex 47.3556 -49 -6.27039
      vertex 45.9328 -53.6584 -6.42944
      vertex 47.3455 -49 -6.51462
    endloop
  endfacet
  facet normal 0.956019 -0.290642 -0.0394251
    outer loop
      vertex 45.9328 -53.6584 -6.42944
      vertex 47.31 -49 -7.37546
      vertex 47.3455 -49 -6.51462
    endloop
  endfacet
  facet normal 0.956029 -0.290623 -0.0393177
    outer loop
      vertex 47.31 -49 -7.37546
      vertex 45.9328 -53.6584 -6.42944
      vertex 45.8888 -53.6499 -7.56215
    endloop
  endfacet
  facet normal 0.954516 -0.293276 0.0537367
    outer loop
      vertex 47.171 -49 -2.96622
      vertex 45.7545 -53.6239 -3.04082
      vertex 47.2119 -49 -3.69272
    endloop
  endfacet
  facet normal 0.954522 -0.293352 0.053211
    outer loop
      vertex 45.9328 -53.6584 -6.42944
      vertex 47.2119 -49 -3.69272
      vertex 45.7545 -53.6239 -3.04082
    endloop
  endfacet
  facet normal 0.954522 -0.293353 0.0532127
    outer loop
      vertex 47.2119 -49 -3.69272
      vertex 45.9328 -53.6584 -6.42944
      vertex 47.3556 -49 -6.27039
    endloop
  endfacet
  facet normal 0.946523 -0.292169 0.136862
    outer loop
      vertex 45.3396 -53.5436 0
      vertex 47.171 -49 -2.96622
      vertex 46.7421 -49 0
    endloop
  endfacet
  facet normal 0.946523 -0.292169 0.136862
    outer loop
      vertex 47.171 -49 -2.96622
      vertex 45.3396 -53.5436 0
      vertex 45.7545 -53.6239 -3.04082
    endloop
  endfacet
  facet normal 0.0190518 0.0780462 -0.996768
    outer loop
      vertex 28.1004 -50.2072 -19.1111
      vertex 28 -50.6629 -19.1487
      vertex 28 -50.1878 -19.1115
    endloop
  endfacet
  facet normal 0.092337 0.0633003 -0.993714
    outer loop
      vertex 28.9523 -69.0478 -20.2321
      vertex 28.1004 -50.2072 -19.1111
      vertex 32.5735 -51.0729 -18.7506
    endloop
  endfacet
  facet normal 0.0858697 0.0630414 -0.99431
    outer loop
      vertex 28 -50.6629 -19.1487
      vertex 28.9523 -69.0478 -20.2321
      vertex 28 -68.9462 -20.3079
    endloop
  endfacet
  facet normal 0.0861641 0.0630551 -0.994284
    outer loop
      vertex 28.9523 -69.0478 -20.2321
      vertex 28 -50.6629 -19.1487
      vertex 28.1004 -50.2072 -19.1111
    endloop
  endfacet
  facet normal 0.182407 0.0449087 -0.982197
    outer loop
      vertex 34.4693 -51.4398 -18.4153
      vertex 31.0242 -69.269 -19.8703
      vertex 32.5735 -51.0729 -18.7506
    endloop
  endfacet
  facet normal 0.17655 0.0454716 -0.983241
    outer loop
      vertex 31.0242 -69.269 -19.8703
      vertex 28.9523 -69.0478 -20.2321
      vertex 32.5735 -51.0729 -18.7506
    endloop
  endfacet
  facet normal 0.275217 0.0256446 -0.96104
    outer loop
      vertex 35.6204 -51.6626 -18.0916
      vertex 32.2821 -69.4033 -19.521
      vertex 34.4693 -51.4398 -18.4153
    endloop
  endfacet
  facet normal 0.27008 0.0263586 -0.962477
    outer loop
      vertex 32.2821 -69.4033 -19.521
      vertex 31.0242 -69.269 -19.8703
      vertex 34.4693 -51.4398 -18.4153
    endloop
  endfacet
  facet normal 0.366504 0.00617887 -0.930396
    outer loop
      vertex 36.1881 -51.7725 -17.8687
      vertex 32.9025 -69.4695 -19.2805
      vertex 35.6204 -51.6626 -18.0916
    endloop
  endfacet
  facet normal 0.362083 0.00696879 -0.93212
    outer loop
      vertex 32.9025 -69.4695 -19.2805
      vertex 32.2821 -69.4033 -19.521
      vertex 35.6204 -51.6626 -18.0916
    endloop
  endfacet
  facet normal 0.44444 -0.0109432 -0.895742
    outer loop
      vertex 36.563 -51.845 -17.6818
      vertex 33.3122 -69.5132 -19.0789
      vertex 36.1881 -51.7725 -17.8687
    endloop
  endfacet
  facet normal 0.440612 -0.0101931 -0.89764
    outer loop
      vertex 33.3122 -69.5132 -19.0789
      vertex 32.9025 -69.4695 -19.2805
      vertex 36.1881 -51.7725 -17.8687
    endloop
  endfacet
  facet normal 0.542416 -0.0333167 -0.839449
    outer loop
      vertex 36.9868 -51.9271 -17.4047
      vertex 33.7753 -69.5627 -18.7799
      vertex 36.563 -51.845 -17.6818
    endloop
  endfacet
  facet normal 0.53965 -0.0327698 -0.841251
    outer loop
      vertex 33.7753 -69.5627 -18.7799
      vertex 33.3122 -69.5132 -19.0789
      vertex 36.563 -51.845 -17.6818
    endloop
  endfacet
  facet normal 0.615766 -0.0496199 -0.786365
    outer loop
      vertex 39.6505 -70.1898 -14.1665
      vertex 36.9868 -51.9271 -17.4047
      vertex 42.363 -52.9675 -13.1292
    endloop
  endfacet
  facet normal 0.613483 -0.0502617 -0.788107
    outer loop
      vertex 39.6505 -70.1898 -14.1665
      vertex 33.7753 -69.5627 -18.7799
      vertex 36.9868 -51.9271 -17.4047
    endloop
  endfacet
  facet normal 0.710304 -0.0694164 -0.700463
    outer loop
      vertex 43.6992 -53.2261 -11.7486
      vertex 41.1108 -70.3457 -12.6768
      vertex 42.363 -52.9675 -13.1292
    endloop
  endfacet
  facet normal 0.708762 -0.0693461 -0.702031
    outer loop
      vertex 41.1108 -70.3457 -12.6768
      vertex 39.6505 -70.1898 -14.1665
      vertex 42.363 -52.9675 -13.1292
    endloop
  endfacet
  facet normal 0.776516 -0.0833699 -0.624558
    outer loop
      vertex 44.6515 -53.4104 -10.54
      vertex 42.1515 -70.4568 -11.3728
      vertex 43.6992 -53.2261 -11.7486
    endloop
  endfacet
  facet normal 0.77541 -0.0833008 -0.625939
    outer loop
      vertex 42.1515 -70.4568 -11.3728
      vertex 41.1108 -70.3457 -12.6768
      vertex 43.6992 -53.2261 -11.7486
    endloop
  endfacet
  facet normal 0.835679 -0.096071 -0.540751
    outer loop
      vertex 45.1203 -53.5011 -9.7994
      vertex 42.6638 -70.5114 -10.5736
      vertex 44.6515 -53.4104 -10.54
    endloop
  endfacet
  facet normal 0.835003 -0.0959903 -0.541808
    outer loop
      vertex 42.6638 -70.5114 -10.5736
      vertex 42.1515 -70.4568 -11.3728
      vertex 44.6515 -53.4104 -10.54
    endloop
  endfacet
  facet normal 0.885221 -0.107183 -0.452653
    outer loop
      vertex 45.4932 -53.5733 -9.05305
      vertex 43.0713 -70.5549 -9.76833
      vertex 45.1203 -53.5011 -9.7994
    endloop
  endfacet
  facet normal 0.884782 -0.107132 -0.453524
    outer loop
      vertex 43.0713 -70.5549 -9.76833
      vertex 42.6638 -70.5114 -10.5736
      vertex 45.1203 -53.5011 -9.7994
    endloop
  endfacet
  facet normal 0.926681 -0.117097 -0.357142
    outer loop
      vertex 45.6807 -53.6096 -8.55464
      vertex 43.2762 -70.5768 -9.23054
      vertex 45.4932 -53.5733 -9.05305
    endloop
  endfacet
  facet normal 0.926452 -0.117061 -0.357749
    outer loop
      vertex 43.2762 -70.5768 -9.23054
      vertex 43.0713 -70.5549 -9.76833
      vertex 45.4932 -53.5733 -9.05305
    endloop
  endfacet
  facet normal 0.956645 -0.125078 -0.263034
    outer loop
      vertex 45.8141 -53.6354 -8.0572
      vertex 43.422 -70.5924 -8.6938
      vertex 45.6807 -53.6096 -8.55464
    endloop
  endfacet
  facet normal 0.956528 -0.125059 -0.263466
    outer loop
      vertex 43.422 -70.5924 -8.6938
      vertex 43.2762 -70.5768 -9.23054
      vertex 45.6807 -53.6096 -8.55464
    endloop
  endfacet
  facet normal 0.979511 -0.13248 -0.151682
    outer loop
      vertex 45.8888 -53.6499 -7.56215
      vertex 43.5036 -70.6011 -8.15963
      vertex 45.8141 -53.6354 -8.0572
    endloop
  endfacet
  facet normal 0.979495 -0.132478 -0.151786
    outer loop
      vertex 43.5036 -70.6011 -8.15963
      vertex 43.422 -70.5924 -8.6938
      vertex 45.8141 -53.6354 -8.0572
    endloop
  endfacet
  facet normal 0.989665 -0.137861 -0.0394779
    outer loop
      vertex 45.9328 -53.6584 -6.42944
      vertex 43.5517 -70.6062 -6.93743
      vertex 45.8888 -53.6499 -7.56215
    endloop
  endfacet
  facet normal 0.989663 -0.137862 -0.0395237
    outer loop
      vertex 43.5517 -70.6062 -6.93743
      vertex 43.5036 -70.6011 -8.15963
      vertex 45.8888 -53.6499 -7.56215
    endloop
  endfacet
  facet normal 0.988636 -0.140506 0.0534499
    outer loop
      vertex 45.7545 -53.6239 -3.04082
      vertex 43.3569 -70.5854 -3.28107
      vertex 45.9328 -53.6584 -6.42944
    endloop
  endfacet
  facet normal 0.988635 -0.140502 0.0534708
    outer loop
      vertex 45.9328 -53.6584 -6.42944
      vertex 43.3569 -70.5854 -3.28107
      vertex 43.5517 -70.6062 -6.93743
    endloop
  endfacet
  facet normal 0.980476 -0.140579 0.137492
    outer loop
      vertex 45.3396 -53.5436 0
      vertex 44.405 -60.062 0
      vertex 45.7545 -53.6239 -3.04082
    endloop
  endfacet
  facet normal 0.980466 -0.140551 0.137591
    outer loop
      vertex 43.3569 -70.5854 -3.28107
      vertex 44.405 -60.062 0
      vertex 42.9034 -70.537 0
    endloop
  endfacet
  facet normal 0.980471 -0.140543 0.137566
    outer loop
      vertex 44.405 -60.062 0
      vertex 43.3569 -70.5854 -3.28107
      vertex 45.7545 -53.6239 -3.04082
    endloop
  endfacet
  facet normal 0.0918898 0.124418 -0.987966
    outer loop
      vertex 28 -82.7751 -22.0494
      vertex 28.9523 -69.0478 -20.2321
      vertex 28.1714 -83.3956 -22.1116
    endloop
  endfacet
  facet normal 0.0919126 0.124416 -0.987964
    outer loop
      vertex 28.9523 -69.0478 -20.2321
      vertex 28 -82.7751 -22.0494
      vertex 28 -68.9462 -20.3079
    endloop
  endfacet
  facet normal 0.080897 0.121514 -0.989288
    outer loop
      vertex 28.1714 -83.3956 -22.1116
      vertex 28 -83.3914 -22.1251
      vertex 28 -82.7751 -22.0494
    endloop
  endfacet
  facet normal 0.183158 0.119558 -0.975786
    outer loop
      vertex 30.4479 -83.4516 -21.7162
      vertex 28.9523 -69.0478 -20.2321
      vertex 31.0242 -69.269 -19.8703
    endloop
  endfacet
  facet normal 0.172749 0.118684 -0.977789
    outer loop
      vertex 30.4479 -83.4516 -21.7162
      vertex 28.1714 -83.3956 -22.1116
      vertex 28.9523 -69.0478 -20.2321
    endloop
  endfacet
  facet normal 0.277096 0.113967 -0.95406
    outer loop
      vertex 31.83 -83.4856 -21.3345
      vertex 31.0242 -69.269 -19.8703
      vertex 32.2821 -69.4033 -19.521
    endloop
  endfacet
  facet normal 0.26708 0.113696 -0.956944
    outer loop
      vertex 31.83 -83.4856 -21.3345
      vertex 30.4479 -83.4516 -21.7162
      vertex 31.0242 -69.269 -19.8703
    endloop
  endfacet
  facet normal 0.369304 0.107532 -0.923066
    outer loop
      vertex 32.5117 -83.5024 -21.0716
      vertex 32.2821 -69.4033 -19.521
      vertex 32.9025 -69.4695 -19.2805
    endloop
  endfacet
  facet normal 0.360038 0.107779 -0.926691
    outer loop
      vertex 32.5117 -83.5024 -21.0716
      vertex 31.83 -83.4856 -21.3345
      vertex 32.2821 -69.4033 -19.521
    endloop
  endfacet
  facet normal 0.447915 0.101246 -0.888325
    outer loop
      vertex 32.9619 -83.5135 -20.8512
      vertex 32.9025 -69.4695 -19.2805
      vertex 33.3122 -69.5132 -19.0789
    endloop
  endfacet
  facet normal 0.439439 0.101677 -0.892499
    outer loop
      vertex 32.9619 -83.5135 -20.8512
      vertex 32.5117 -83.5024 -21.0716
      vertex 32.9025 -69.4695 -19.2805
    endloop
  endfacet
  facet normal 0.547038 0.0920265 -0.832034
    outer loop
      vertex 33.4708 -83.526 -20.5245
      vertex 33.3122 -69.5132 -19.0789
      vertex 33.7753 -69.5627 -18.7799
    endloop
  endfacet
  facet normal 0.539525 0.0924413 -0.83688
    outer loop
      vertex 33.4708 -83.526 -20.5245
      vertex 32.9619 -83.5135 -20.8512
      vertex 33.3122 -69.5132 -19.0789
    endloop
  endfacet
  facet normal 0.620992 0.088637 -0.778789
    outer loop
      vertex 39.9263 -83.6848 -15.4825
      vertex 33.7753 -69.5627 -18.7799
      vertex 39.6505 -70.1898 -14.1665
    endloop
  endfacet
  facet normal 0.614627 0.0845849 -0.78427
    outer loop
      vertex 39.9263 -83.6848 -15.4825
      vertex 33.4708 -83.526 -20.5245
      vertex 33.7753 -69.5627 -18.7799
    endloop
  endfacet
  facet normal 0.715979 0.0834913 -0.693111
    outer loop
      vertex 41.5308 -83.7242 -13.8545
      vertex 39.6505 -70.1898 -14.1665
      vertex 41.1108 -70.3457 -12.6768
    endloop
  endfacet
  facet normal 0.710791 0.0826456 -0.698531
    outer loop
      vertex 39.9263 -83.6848 -15.4825
      vertex 39.6505 -70.1898 -14.1665
      vertex 41.5308 -83.7242 -13.8545
    endloop
  endfacet
  facet normal 0.78241 0.0798387 -0.617625
    outer loop
      vertex 42.6743 -83.7524 -12.4292
      vertex 41.1108 -70.3457 -12.6768
      vertex 42.1515 -70.4568 -11.3728
    endloop
  endfacet
  facet normal 0.778309 0.0792638 -0.622859
    outer loop
      vertex 41.5308 -83.7242 -13.8545
      vertex 41.1108 -70.3457 -12.6768
      vertex 42.6743 -83.7524 -12.4292
    endloop
  endfacet
  facet normal 0.841798 0.0760208 -0.534412
    outer loop
      vertex 43.2372 -83.7662 -11.5559
      vertex 42.1515 -70.4568 -11.3728
      vertex 42.6638 -70.5114 -10.5736
    endloop
  endfacet
  facet normal 0.838649 0.0758321 -0.539367
    outer loop
      vertex 42.6743 -83.7524 -12.4292
      vertex 42.1515 -70.4568 -11.3728
      vertex 43.2372 -83.7662 -11.5559
    endloop
  endfacet
  facet normal 0.891504 0.0720667 -0.447245
    outer loop
      vertex 43.6849 -83.7772 -10.6758
      vertex 42.6638 -70.5114 -10.5736
      vertex 43.0713 -70.5549 -9.76833
    endloop
  endfacet
  facet normal 0.889361 0.0719347 -0.451512
    outer loop
      vertex 43.2372 -83.7662 -11.5559
      vertex 42.6638 -70.5114 -10.5736
      vertex 43.6849 -83.7772 -10.6758
    endloop
  endfacet
  facet normal 0.933242 0.0677044 -0.352812
    outer loop
      vertex 43.9101 -83.7828 -10.088
      vertex 43.0713 -70.5549 -9.76833
      vertex 43.2762 -70.5768 -9.23054
    endloop
  endfacet
  facet normal 0.931884 0.0677045 -0.356382
    outer loop
      vertex 43.6849 -83.7772 -10.6758
      vertex 43.0713 -70.5549 -9.76833
      vertex 43.9101 -83.7828 -10.088
    endloop
  endfacet
  facet normal 0.963561 0.063253 -0.259903
    outer loop
      vertex 44.0703 -83.7867 -9.50142
      vertex 43.2762 -70.5768 -9.23054
      vertex 43.422 -70.5924 -8.6938
    endloop
  endfacet
  facet normal 0.962845 0.0632641 -0.262541
    outer loop
      vertex 43.9101 -83.7828 -10.088
      vertex 43.2762 -70.5768 -9.23054
      vertex 44.0703 -83.7867 -9.50142
    endloop
  endfacet
  facet normal 0.987023 0.0577396 -0.149838
    outer loop
      vertex 44.16 -83.7889 -8.91763
      vertex 43.422 -70.5924 -8.6938
      vertex 43.5036 -70.6011 -8.15963
    endloop
  endfacet
  facet normal 0.986784 0.0577528 -0.151403
    outer loop
      vertex 44.0703 -83.7867 -9.50142
      vertex 43.422 -70.5924 -8.6938
      vertex 44.16 -83.7889 -8.91763
    endloop
  endfacet
  facet normal 0.997885 0.0519547 -0.0390552
    outer loop
      vertex 44.2129 -83.7902 -7.58189
      vertex 43.5036 -70.6011 -8.15963
      vertex 43.5517 -70.6062 -6.93743
    endloop
  endfacet
  facet normal 0.99787 0.0519358 -0.0394686
    outer loop
      vertex 44.16 -83.7889 -8.91763
      vertex 43.5036 -70.6011 -8.15963
      vertex 44.2129 -83.7902 -7.58189
    endloop
  endfacet
  facet normal 0.997481 0.0472793 0.0528739
    outer loop
      vertex 43.5517 -70.6062 -6.93743
      vertex 43.3569 -70.5854 -3.28107
      vertex 43.9987 -83.785 -3.58587
    endloop
  endfacet
  facet normal 0.997447 0.0474131 0.0534048
    outer loop
      vertex 44.2129 -83.7902 -7.58189
      vertex 43.5517 -70.6062 -6.93743
      vertex 43.9987 -83.785 -3.58587
    endloop
  endfacet
  facet normal 0.989705 0.0441552 0.136143
    outer loop
      vertex 43.3569 -70.5854 -3.28107
      vertex 42.9034 -70.537 0
      vertex 43.1284 -75.5802 0
    endloop
  endfacet
  facet normal 0.989506 0.044943 0.137322
    outer loop
      vertex 43.9987 -83.785 -3.58587
      vertex 43.1284 -75.5802 0
      vertex 43.5005 -83.7727 0
    endloop
  endfacet
  facet normal 0.989506 0.0449414 0.137326
    outer loop
      vertex 43.1284 -75.5802 0
      vertex 43.9987 -83.785 -3.58587
      vertex 43.3569 -70.5854 -3.28107
    endloop
  endfacet
  facet normal 0.0787626 0.00136029 -0.996892
    outer loop
      vertex 28 -91.5728 -22.1363
      vertex 28.1714 -83.3956 -22.1116
      vertex 28.3215 -92.0866 -22.1116
    endloop
  endfacet
  facet normal 0.0785531 0.00136473 -0.996909
    outer loop
      vertex 28.1714 -83.3956 -22.1116
      vertex 28 -91.5728 -22.1363
      vertex 28 -83.3914 -22.1251
    endloop
  endfacet
  facet normal 0.0786729 0.00130387 -0.9969
    outer loop
      vertex 28.3215 -92.0866 -22.1116
      vertex 28 -92.108 -22.137
      vertex 28 -91.5728 -22.1363
    endloop
  endfacet
  facet normal 0.171196 0.00299867 -0.985232
    outer loop
      vertex 30.5965 -91.9353 -21.7162
      vertex 28.1714 -83.3956 -22.1116
      vertex 30.4479 -83.4516 -21.7162
    endloop
  endfacet
  facet normal 0.171044 0.00295405 -0.985259
    outer loop
      vertex 28.3215 -92.0866 -22.1116
      vertex 28.1714 -83.3956 -22.1116
      vertex 30.5965 -91.9353 -21.7162
    endloop
  endfacet
  facet normal 0.266313 0.00470626 -0.963875
    outer loop
      vertex 31.9777 -91.8435 -21.3345
      vertex 30.4479 -83.4516 -21.7162
      vertex 31.83 -83.4856 -21.3345
    endloop
  endfacet
  facet normal 0.266079 0.00466062 -0.96394
    outer loop
      vertex 30.5965 -91.9353 -21.7162
      vertex 30.4479 -83.4516 -21.7162
      vertex 31.9777 -91.8435 -21.3345
    endloop
  endfacet
  facet normal 0.359952 0.00639131 -0.932949
    outer loop
      vertex 32.659 -91.7982 -21.0716
      vertex 31.83 -83.4856 -21.3345
      vertex 32.5117 -83.5024 -21.0716
    endloop
  endfacet
  facet normal 0.359631 0.00635537 -0.933073
    outer loop
      vertex 31.9777 -91.8435 -21.3345
      vertex 31.83 -83.4856 -21.3345
      vertex 32.659 -91.7982 -21.0716
    endloop
  endfacet
  facet normal 0.439839 0.00783257 -0.898042
    outer loop
      vertex 33.1089 -91.7683 -20.8512
      vertex 32.5117 -83.5024 -21.0716
      vertex 32.9619 -83.5135 -20.8512
    endloop
  endfacet
  facet normal 0.439501 0.00780378 -0.898208
    outer loop
      vertex 32.659 -91.7982 -21.0716
      vertex 32.5117 -83.5024 -21.0716
      vertex 33.1089 -91.7683 -20.8512
    endloop
  endfacet
  facet normal 0.540374 0.00965082 -0.84137
    outer loop
      vertex 33.6174 -91.7345 -20.5245
      vertex 32.9619 -83.5135 -20.8512
      vertex 33.4708 -83.526 -20.5245
    endloop
  endfacet
  facet normal 0.540054 0.00961719 -0.841575
    outer loop
      vertex 33.1089 -91.7683 -20.8512
      vertex 32.9619 -83.5135 -20.8512
      vertex 33.6174 -91.7345 -20.5245
    endloop
  endfacet
  facet normal 0.615676 0.0114964 -0.787916
    outer loop
      vertex 40.0686 -91.3055 -15.4825
      vertex 33.4708 -83.526 -20.5245
      vertex 39.9263 -83.6848 -15.4825
    endloop
  endfacet
  facet normal 0.615305 0.0109891 -0.788213
    outer loop
      vertex 33.6174 -91.7345 -20.5245
      vertex 33.4708 -83.526 -20.5245
      vertex 40.0686 -91.3055 -15.4825
    endloop
  endfacet
  facet normal 0.712327 0.0134561 -0.701719
    outer loop
      vertex 41.672 -91.1989 -13.8545
      vertex 39.9263 -83.6848 -15.4825
      vertex 41.5308 -83.7242 -13.8545
    endloop
  endfacet
  facet normal 0.711971 0.0132945 -0.702083
    outer loop
      vertex 40.0686 -91.3055 -15.4825
      vertex 39.9263 -83.6848 -15.4825
      vertex 41.672 -91.1989 -13.8545
    endloop
  endfacet
  facet normal 0.780055 0.0148698 -0.625534
    outer loop
      vertex 42.8148 -91.1229 -12.4292
      vertex 41.5308 -83.7242 -13.8545
      vertex 42.6743 -83.7524 -12.4292
    endloop
  endfacet
  facet normal 0.779717 0.0147292 -0.625959
    outer loop
      vertex 41.672 -91.1989 -13.8545
      vertex 41.5308 -83.7242 -13.8545
      vertex 42.8148 -91.1229 -12.4292
    endloop
  endfacet
  facet normal 0.840531 0.0160888 -0.541524
    outer loop
      vertex 43.3773 -91.0855 -11.5559
      vertex 42.6743 -83.7524 -12.4292
      vertex 43.2372 -83.7662 -11.5559
    endloop
  endfacet
  facet normal 0.840279 0.0160178 -0.541917
    outer loop
      vertex 42.8148 -91.1229 -12.4292
      vertex 42.6743 -83.7524 -12.4292
      vertex 43.3773 -91.0855 -11.5559
    endloop
  endfacet
  facet normal 0.891263 0.0171187 -0.453164
    outer loop
      vertex 43.8247 -91.0557 -10.6758
      vertex 43.2372 -83.7662 -11.5559
      vertex 43.6849 -83.7772 -10.6758
    endloop
  endfacet
  facet normal 0.891066 0.0170561 -0.453552
    outer loop
      vertex 43.3773 -91.0855 -11.5559
      vertex 43.2372 -83.7662 -11.5559
      vertex 43.8247 -91.0557 -10.6758
    endloop
  endfacet
  facet normal 0.933718 0.0179722 -0.357558
    outer loop
      vertex 44.0498 -91.0407 -10.088
      vertex 43.6849 -83.7772 -10.6758
      vertex 43.9101 -83.7828 -10.088
    endloop
  endfacet
  facet normal 0.933562 0.0179312 -0.357968
    outer loop
      vertex 43.8247 -91.0557 -10.6758
      vertex 43.6849 -83.7772 -10.6758
      vertex 44.0498 -91.0407 -10.088
    endloop
  endfacet
  facet normal 0.964535 0.0185892 -0.263299
    outer loop
      vertex 44.2099 -91.0301 -9.50142
      vertex 43.9101 -83.7828 -10.088
      vertex 44.0703 -83.7867 -9.50142
    endloop
  endfacet
  facet normal 0.964461 0.0185639 -0.263573
    outer loop
      vertex 44.0498 -91.0407 -10.088
      vertex 43.9101 -83.7828 -10.088
      vertex 44.2099 -91.0301 -9.50142
    endloop
  endfacet
  facet normal 0.988232 0.0190402 -0.151771
    outer loop
      vertex 44.2994 -91.0241 -8.91763
      vertex 44.0703 -83.7867 -9.50142
      vertex 44.16 -83.7889 -8.91763
    endloop
  endfacet
  facet normal 0.988243 0.0190461 -0.151702
    outer loop
      vertex 44.2099 -91.0301 -9.50142
      vertex 44.0703 -83.7867 -9.50142
      vertex 44.2994 -91.0241 -8.91763
    endloop
  endfacet
  facet normal 0.999032 0.019261 -0.0395464
    outer loop
      vertex 44.3523 -91.0206 -7.58189
      vertex 44.16 -83.7889 -8.91763
      vertex 44.2129 -83.7902 -7.58189
    endloop
  endfacet
  facet normal 0.99903 0.0192482 -0.0396155
    outer loop
      vertex 44.2994 -91.0241 -8.91763
      vertex 44.16 -83.7889 -8.91763
      vertex 44.3523 -91.0206 -7.58189
    endloop
  endfacet
  facet normal 0.998383 0.0192243 0.0534917
    outer loop
      vertex 44.2129 -83.7902 -7.58189
      vertex 43.9987 -83.785 -3.58587
      vertex 44.1383 -91.0349 -3.58587
    endloop
  endfacet
  facet normal 0.99838 0.0192485 0.0535354
    outer loop
      vertex 44.2129 -83.7902 -7.58189
      vertex 44.1383 -91.0349 -3.58587
      vertex 44.3523 -91.0206 -7.58189
    endloop
  endfacet
  facet normal 0.990318 0.0188773 0.137524
    outer loop
      vertex 43.9987 -83.785 -3.58587
      vertex 43.5005 -83.7727 0
      vertex 43.5567 -86.721 0
    endloop
  endfacet
  facet normal 0.990293 0.0190685 0.137678
    outer loop
      vertex 43.5567 -86.721 0
      vertex 44.1383 -91.0349 -3.58587
      vertex 43.9987 -83.785 -3.58587
    endloop
  endfacet
  facet normal 0.990293 0.0190678 0.137679
    outer loop
      vertex 44.1383 -91.0349 -3.58587
      vertex 43.5567 -86.721 0
      vertex 43.6404 -91.068 0
    endloop
  endfacet
  facet normal 0.0783289 0.00907616 -0.996886
    outer loop
      vertex 28 -98 -22.1907
      vertex 28.3215 -92.0866 -22.1116
      vertex 29.0067 -98 -22.1116
    endloop
  endfacet
  facet normal 0.078155 0.0090858 -0.9969
    outer loop
      vertex 28.3215 -92.0866 -22.1116
      vertex 28 -98 -22.1907
      vertex 28 -92.108 -22.137
    endloop
  endfacet
  facet normal 0.169985 0.0196425 -0.985251
    outer loop
      vertex 30.8823 -98 -21.7878
      vertex 30.5965 -91.9353 -21.7162
      vertex 31.2973 -98 -21.7162
    endloop
  endfacet
  facet normal 0.169934 0.0196402 -0.98526
    outer loop
      vertex 30.5965 -91.9353 -21.7162
      vertex 30.8823 -98 -21.7878
      vertex 28.3215 -92.0866 -22.1116
    endloop
  endfacet
  facet normal 0.170089 0.0197086 -0.985232
    outer loop
      vertex 29.0067 -98 -22.1116
      vertex 28.3215 -92.0866 -22.1116
      vertex 30.8823 -98 -21.7878
    endloop
  endfacet
  facet normal 0.264345 0.0304899 -0.963946
    outer loop
      vertex 32.4763 -98 -21.3925
      vertex 31.9777 -91.8435 -21.3345
      vertex 32.6878 -98 -21.3345
    endloop
  endfacet
  facet normal 0.264362 0.0304913 -0.963941
    outer loop
      vertex 31.9777 -91.8435 -21.3345
      vertex 32.4763 -98 -21.3925
      vertex 30.5965 -91.9353 -21.7162
    endloop
  endfacet
  facet normal 0.264633 0.0305794 -0.963864
    outer loop
      vertex 31.2973 -98 -21.7162
      vertex 30.5965 -91.9353 -21.7162
      vertex 32.4763 -98 -21.3925
    endloop
  endfacet
  facet normal 0.357013 0.0411367 -0.933193
    outer loop
      vertex 33.2795 -98 -21.1076
      vertex 32.659 -91.7982 -21.0716
      vertex 33.3736 -98 -21.0716
    endloop
  endfacet
  facet normal 0.357318 0.0411665 -0.933075
    outer loop
      vertex 32.659 -91.7982 -21.0716
      vertex 33.2795 -98 -21.1076
      vertex 31.9777 -91.8435 -21.3345
    endloop
  endfacet
  facet normal 0.357743 0.0412627 -0.932908
    outer loop
      vertex 32.6878 -98 -21.3345
      vertex 31.9777 -91.8435 -21.3345
      vertex 33.2795 -98 -21.1076
    endloop
  endfacet
  facet normal 0.436675 0.0502845 -0.898213
    outer loop
      vertex 33.7687 -98 -20.8793
      vertex 33.1089 -91.7683 -20.8512
      vertex 33.8265 -98 -20.8512
    endloop
  endfacet
  facet normal 0.43668 0.050285 -0.898211
    outer loop
      vertex 33.1089 -91.7683 -20.8512
      vertex 33.7687 -98 -20.8793
      vertex 32.659 -91.7982 -21.0716
    endloop
  endfacet
  facet normal 0.437075 0.0503617 -0.898014
    outer loop
      vertex 33.3736 -98 -21.0716
      vertex 32.659 -91.7982 -21.0716
      vertex 33.7687 -98 -20.8793
    endloop
  endfacet
  facet normal 0.536669 0.0617569 -0.84153
    outer loop
      vertex 34.2785 -98 -20.5627
      vertex 33.6174 -91.7345 -20.5245
      vertex 34.3384 -98 -20.5245
    endloop
  endfacet
  facet normal 0.536592 0.0617491 -0.84158
    outer loop
      vertex 33.6174 -91.7345 -20.5245
      vertex 34.2785 -98 -20.5627
      vertex 33.1089 -91.7683 -20.8512
    endloop
  endfacet
  facet normal 0.536992 0.0618363 -0.841318
    outer loop
      vertex 33.8265 -98 -20.8512
      vertex 33.1089 -91.7683 -20.8512
      vertex 34.2785 -98 -20.5627
    endloop
  endfacet
  facet normal 0.611418 0.0696825 -0.788234
    outer loop
      vertex 40.8082 -97.795 -15.4825
      vertex 33.6174 -91.7345 -20.5245
      vertex 40.0686 -91.3055 -15.4825
    endloop
  endfacet
  facet normal 0.611786 0.070401 -0.787884
    outer loop
      vertex 33.6174 -91.7345 -20.5245
      vertex 39.5391 -98 -16.4862
      vertex 34.3384 -98 -20.5245
    endloop
  endfacet
  facet normal 0.611766 0.0703705 -0.787903
    outer loop
      vertex 39.5391 -98 -16.4862
      vertex 33.6174 -91.7345 -20.5245
      vertex 40.8082 -97.795 -15.4825
    endloop
  endfacet
  facet normal 0.707524 0.0804155 -0.702099
    outer loop
      vertex 42.3926 -97.539 -13.8545
      vertex 40.0686 -91.3055 -15.4825
      vertex 41.672 -91.1989 -13.8545
    endloop
  endfacet
  facet normal 0.707931 0.080682 -0.701658
    outer loop
      vertex 40.8082 -97.795 -15.4825
      vertex 40.0686 -91.3055 -15.4825
      vertex 42.3926 -97.539 -13.8545
    endloop
  endfacet
  facet normal 0.774874 0.0878829 -0.625977
    outer loop
      vertex 43.5218 -97.3566 -12.4292
      vertex 41.672 -91.1989 -13.8545
      vertex 42.8148 -91.1229 -12.4292
    endloop
  endfacet
  facet normal 0.775254 0.0881134 -0.625474
    outer loop
      vertex 42.3926 -97.539 -13.8545
      vertex 41.672 -91.1989 -13.8545
      vertex 43.5218 -97.3566 -12.4292
    endloop
  endfacet
  facet normal 0.835078 0.0946223 -0.541933
    outer loop
      vertex 44.0777 -97.2668 -11.5559
      vertex 42.8148 -91.1229 -12.4292
      vertex 43.3773 -91.0855 -11.5559
    endloop
  endfacet
  facet normal 0.835353 0.0947423 -0.541487
    outer loop
      vertex 43.5218 -97.3566 -12.4292
      vertex 42.8148 -91.1229 -12.4292
      vertex 44.0777 -97.2668 -11.5559
    endloop
  endfacet
  facet normal 0.885562 0.10026 -0.453572
    outer loop
      vertex 44.5198 -97.1953 -10.6758
      vertex 43.3773 -91.0855 -11.5559
      vertex 43.8247 -91.0557 -10.6758
    endloop
  endfacet
  facet normal 0.885786 0.100368 -0.45311
    outer loop
      vertex 44.0777 -97.2668 -11.5559
      vertex 43.3773 -91.0855 -11.5559
      vertex 44.5198 -97.1953 -10.6758
    endloop
  endfacet
  facet normal 0.927806 0.104992 -0.357986
    outer loop
      vertex 44.7422 -97.1594 -10.088
      vertex 43.8247 -91.0557 -10.6758
      vertex 44.0498 -91.0407 -10.088
    endloop
  endfacet
  facet normal 0.927975 0.105061 -0.357525
    outer loop
      vertex 44.5198 -97.1953 -10.6758
      vertex 43.8247 -91.0557 -10.6758
      vertex 44.7422 -97.1594 -10.088
    endloop
  endfacet
  facet normal 0.958524 0.108436 -0.263577
    outer loop
      vertex 44.9004 -97.1338 -9.50142
      vertex 44.0498 -91.0407 -10.088
      vertex 44.2099 -91.0301 -9.50142
    endloop
  endfacet
  facet normal 0.958604 0.108477 -0.263269
    outer loop
      vertex 44.7422 -97.1594 -10.088
      vertex 44.0498 -91.0407 -10.088
      vertex 44.9004 -97.1338 -9.50142
    endloop
  endfacet
  facet normal 0.98216 0.1111 -0.151715
    outer loop
      vertex 44.9889 -97.1195 -8.91763
      vertex 44.2099 -91.0301 -9.50142
      vertex 44.2994 -91.0241 -8.91763
    endloop
  endfacet
  facet normal 0.982175 0.111112 -0.151615
    outer loop
      vertex 44.9004 -97.1338 -9.50142
      vertex 44.2099 -91.0301 -9.50142
      vertex 44.9889 -97.1195 -8.91763
    endloop
  endfacet
  facet normal 0.992886 0.11229 -0.039616
    outer loop
      vertex 45.0411 -97.1111 -7.58189
      vertex 44.2994 -91.0241 -8.91763
      vertex 44.3523 -91.0206 -7.58189
    endloop
  endfacet
  facet normal 0.992887 0.112313 -0.0395078
    outer loop
      vertex 44.9889 -97.1195 -8.91763
      vertex 44.2994 -91.0241 -8.91763
      vertex 45.0411 -97.1111 -7.58189
    endloop
  endfacet
  facet normal 0.992234 0.112273 0.0535392
    outer loop
      vertex 44.3523 -91.0206 -7.58189
      vertex 44.1383 -91.0349 -3.58587
      vertex 44.8297 -97.1453 -3.58587
    endloop
  endfacet
  facet normal 0.992245 0.112217 0.0534528
    outer loop
      vertex 45.0411 -97.1111 -7.58189
      vertex 44.3523 -91.0206 -7.58189
      vertex 44.8297 -97.1453 -3.58587
    endloop
  endfacet
  facet normal 0.984169 0.111602 0.137683
    outer loop
      vertex 44.1383 -91.0349 -3.58587
      vertex 43.6404 -91.068 0
      vertex 43.9231 -93.561 0
    endloop
  endfacet
  facet normal 0.984219 0.111366 0.137519
    outer loop
      vertex 43.9231 -93.561 0
      vertex 44.8297 -97.1453 -3.58587
      vertex 44.1383 -91.0349 -3.58587
    endloop
  endfacet
  facet normal 0.984219 0.111375 0.137509
    outer loop
      vertex 44.8297 -97.1453 -3.58587
      vertex 43.9231 -93.561 0
      vertex 44.3377 -97.2248 0
    endloop
  endfacet
  facet normal 0.602955 0.125003 -0.787921
    outer loop
      vertex 40.8507 -98 -15.4825
      vertex 39.5391 -98 -16.4862
      vertex 40.8082 -97.795 -15.4825
    endloop
  endfacet
  facet normal 0.69765 0.144675 -0.701679
    outer loop
      vertex 40.8861 -98 -15.4474
      vertex 42.3926 -97.539 -13.8545
      vertex 42.4882 -98 -13.8545
    endloop
  endfacet
  facet normal 0.697583 0.144938 -0.701692
    outer loop
      vertex 42.3926 -97.539 -13.8545
      vertex 40.8861 -98 -15.4474
      vertex 40.8082 -97.795 -15.4825
    endloop
  endfacet
  facet normal 0.696708 0.144439 -0.702663
    outer loop
      vertex 40.8507 -98 -15.4825
      vertex 40.8082 -97.795 -15.4825
      vertex 40.8861 -98 -15.4474
    endloop
  endfacet
  facet normal 0.763922 0.158507 -0.625539
    outer loop
      vertex 42.5451 -98 -13.785
      vertex 43.5218 -97.3566 -12.4292
      vertex 43.6553 -98 -12.4292
    endloop
  endfacet
  facet normal 0.763956 0.158416 -0.62552
    outer loop
      vertex 43.5218 -97.3566 -12.4292
      vertex 42.5451 -98 -13.785
      vertex 42.3926 -97.539 -13.8545
    endloop
  endfacet
  facet normal 0.763986 0.158432 -0.625479
    outer loop
      vertex 42.4882 -98 -13.8545
      vertex 42.3926 -97.539 -13.8545
      vertex 42.5451 -98 -13.785
    endloop
  endfacet
  facet normal 0.823152 0.17076 -0.541537
    outer loop
      vertex 44.2298 -98 -11.5559
      vertex 43.5218 -97.3566 -12.4292
      vertex 44.0777 -97.2668 -11.5559
    endloop
  endfacet
  facet normal 0.823181 0.170922 -0.541441
    outer loop
      vertex 43.5218 -97.3566 -12.4292
      vertex 44.2298 -98 -11.5559
      vertex 43.6942 -98 -12.3702
    endloop
  endfacet
  facet normal 0.822618 0.170686 -0.54237
    outer loop
      vertex 43.6553 -98 -12.4292
      vertex 43.5218 -97.3566 -12.4292
      vertex 43.6942 -98 -12.3702
    endloop
  endfacet
  facet normal 0.872861 0.181037 -0.453144
    outer loop
      vertex 44.2651 -98 -11.4879
      vertex 44.5198 -97.1953 -10.6758
      vertex 44.6867 -98 -10.6758
    endloop
  endfacet
  facet normal 0.872844 0.181064 -0.453165
    outer loop
      vertex 44.5198 -97.1953 -10.6758
      vertex 44.2651 -98 -11.4879
      vertex 44.0777 -97.2668 -11.5559
    endloop
  endfacet
  facet normal 0.872866 0.181073 -0.45312
    outer loop
      vertex 44.2298 -98 -11.5559
      vertex 44.0777 -97.2668 -11.5559
      vertex 44.2651 -98 -11.4879
    endloop
  endfacet
  facet normal 0.914415 0.189715 -0.357565
    outer loop
      vertex 44.9166 -98 -10.088
      vertex 44.5198 -97.1953 -10.6758
      vertex 44.7422 -97.1594 -10.088
    endloop
  endfacet
  facet normal 0.914407 0.189682 -0.357604
    outer loop
      vertex 44.5198 -97.1953 -10.6758
      vertex 44.9166 -98 -10.088
      vertex 44.7062 -98 -10.626
    endloop
  endfacet
  facet normal 0.914266 0.189625 -0.357996
    outer loop
      vertex 44.6867 -98 -10.6758
      vertex 44.5198 -97.1953 -10.6758
      vertex 44.7062 -98 -10.626
    endloop
  endfacet
  facet normal 0.944586 0.195962 -0.263356
    outer loop
      vertex 44.931 -98 -10.0362
      vertex 44.9004 -97.1338 -9.50142
      vertex 45.0801 -98 -9.50142
    endloop
  endfacet
  facet normal 0.944605 0.195934 -0.26331
    outer loop
      vertex 44.9004 -97.1338 -9.50142
      vertex 44.931 -98 -10.0362
      vertex 44.7422 -97.1594 -10.088
    endloop
  endfacet
  facet normal 0.944775 0.196013 -0.26264
    outer loop
      vertex 44.9166 -98 -10.088
      vertex 44.7422 -97.1594 -10.088
      vertex 44.931 -98 -10.0362
    endloop
  endfacet
  facet normal 0.967853 0.200715 -0.151575
    outer loop
      vertex 45.0884 -98 -9.44825
      vertex 44.9889 -97.1195 -8.91763
      vertex 45.1715 -98 -8.91763
    endloop
  endfacet
  facet normal 0.967835 0.200751 -0.151637
    outer loop
      vertex 44.9889 -97.1195 -8.91763
      vertex 45.0884 -98 -9.44825
      vertex 44.9004 -97.1338 -9.50142
    endloop
  endfacet
  facet normal 0.96791 0.200801 -0.151094
    outer loop
      vertex 45.0801 -98 -9.50142
      vertex 44.9004 -97.1338 -9.50142
      vertex 45.0884 -98 -9.44825
    endloop
  endfacet
  facet normal 0.978387 0.202964 -0.0395517
    outer loop
      vertex 45.1765 -98 -8.794
      vertex 45.0411 -97.1111 -7.58189
      vertex 45.2255 -98 -7.58189
    endloop
  endfacet
  facet normal 0.9784 0.202911 -0.0395114
    outer loop
      vertex 45.0411 -97.1111 -7.58189
      vertex 45.1765 -98 -8.794
      vertex 44.9889 -97.1195 -8.91763
    endloop
  endfacet
  facet normal 0.978399 0.202903 -0.0395696
    outer loop
      vertex 45.1715 -98 -8.91763
      vertex 44.9889 -97.1195 -8.91763
      vertex 45.1765 -98 -8.794
    endloop
  endfacet
  facet normal 0.977754 0.202827 0.05346
    outer loop
      vertex 45.2052 -98 -7.21084
      vertex 44.8297 -97.1453 -3.58587
      vertex 45.007 -98 -3.58587
    endloop
  endfacet
  facet normal 0.977756 0.20282 0.0534617
    outer loop
      vertex 44.8297 -97.1453 -3.58587
      vertex 45.2052 -98 -7.21084
      vertex 45.0411 -97.1111 -7.58189
    endloop
  endfacet
  facet normal 0.977751 0.202832 0.0534924
    outer loop
      vertex 45.2255 -98 -7.58189
      vertex 45.0411 -97.1111 -7.58189
      vertex 45.2052 -98 -7.21084
    endloop
  endfacet
  facet normal 0.969852 0.201177 0.137531
    outer loop
      vertex 44.8967 -98 -2.80806
      vertex 44.3377 -97.2248 0
      vertex 44.4985 -98 0
    endloop
  endfacet
  facet normal 0.969851 0.201183 0.137529
    outer loop
      vertex 44.3377 -97.2248 0
      vertex 44.8967 -98 -2.80806
      vertex 44.8297 -97.1453 -3.58587
    endloop
  endfacet
  facet normal 0.96985 0.201187 0.137533
    outer loop
      vertex 45.007 -98 -3.58587
      vertex 44.8297 -97.1453 -3.58587
      vertex 44.8967 -98 -2.80806
    endloop
  endfacet
endsolid OpenSCAD_Model
