solid OpenSCAD_Model
  facet normal -1 0 0
    outer loop
      vertex 0 -18 -23
      vertex 0 0 0
      vertex 0 0 -23
    endloop
  endfacet
  facet normal -1 -0 0
    outer loop
      vertex 0 0 0
      vertex 0 -18 -23
      vertex 0 -18 0
    endloop
  endfacet
  facet normal -1 0 0
    outer loop
      vertex 0 -38 -23
      vertex 0 -20 0
      vertex 0 -20 -23
    endloop
  endfacet
  facet normal -1 -0 0
    outer loop
      vertex 0 -20 0
      vertex 0 -38 -23
      vertex 0 -38 0
    endloop
  endfacet
  facet normal -1 0 0
    outer loop
      vertex 0 -58 -23
      vertex 0 -40 0
      vertex 0 -40 -23
    endloop
  endfacet
  facet normal -1 -0 0
    outer loop
      vertex 0 -40 0
      vertex 0 -58 -23
      vertex 0 -58 0
    endloop
  endfacet
  facet normal -1 0 0
    outer loop
      vertex 0 -78 -23
      vertex 0 -60 0
      vertex 0 -60 -23
    endloop
  endfacet
  facet normal -1 -0 0
    outer loop
      vertex 0 -60 0
      vertex 0 -78 -23
      vertex 0 -78 0
    endloop
  endfacet
  facet normal -1 0 0
    outer loop
      vertex 0 -98 -23
      vertex 0 -80 0
      vertex 0 -80 -23
    endloop
  endfacet
  facet normal -1 -0 0
    outer loop
      vertex 0 -80 0
      vertex 0 -98 -23
      vertex 0 -98 0
    endloop
  endfacet
  facet normal -1 0 0
    outer loop
      vertex 0 -118 -23
      vertex 0 -100 0
      vertex 0 -100 -23
    endloop
  endfacet
  facet normal -1 -0 0
    outer loop
      vertex 0 -100 0
      vertex 0 -118 -23
      vertex 0 -118 0
    endloop
  endfacet
  facet normal -1 0 0
    outer loop
      vertex 0 -138 -23
      vertex 0 -120 0
      vertex 0 -120 -23
    endloop
  endfacet
  facet normal -1 -0 0
    outer loop
      vertex 0 -120 0
      vertex 0 -138 -23
      vertex 0 -138 0
    endloop
  endfacet
  facet normal -1 0 0
    outer loop
      vertex 0 -158 -23
      vertex 0 -140 0
      vertex 0 -140 -23
    endloop
  endfacet
  facet normal -1 -0 0
    outer loop
      vertex 0 -140 0
      vertex 0 -158 -23
      vertex 0 -158 0
    endloop
  endfacet
  facet normal -1 0 0
    outer loop
      vertex 20 -18 -23
      vertex 20 0 0
      vertex 20 0 -23
    endloop
  endfacet
  facet normal -1 -0 0
    outer loop
      vertex 20 0 0
      vertex 20 -18 -23
      vertex 20 -18 0
    endloop
  endfacet
  facet normal -1 0 0
    outer loop
      vertex 20 -38 -23
      vertex 20 -20 0
      vertex 20 -20 -23
    endloop
  endfacet
  facet normal -1 -0 0
    outer loop
      vertex 20 -20 0
      vertex 20 -38 -23
      vertex 20 -38 0
    endloop
  endfacet
  facet normal -1 0 0
    outer loop
      vertex 20 -58 -23
      vertex 20 -40 0
      vertex 20 -40 -23
    endloop
  endfacet
  facet normal -1 -0 0
    outer loop
      vertex 20 -40 0
      vertex 20 -58 -23
      vertex 20 -58 0
    endloop
  endfacet
  facet normal -1 0 0
    outer loop
      vertex 20 -78 -23
      vertex 20 -60 0
      vertex 20 -60 -23
    endloop
  endfacet
  facet normal -1 -0 0
    outer loop
      vertex 20 -60 0
      vertex 20 -78 -23
      vertex 20 -78 0
    endloop
  endfacet
  facet normal -1 0 0
    outer loop
      vertex 20 -98 -23
      vertex 20 -80 0
      vertex 20 -80 -23
    endloop
  endfacet
  facet normal -1 -0 0
    outer loop
      vertex 20 -80 0
      vertex 20 -98 -23
      vertex 20 -98 0
    endloop
  endfacet
  facet normal -1 0 0
    outer loop
      vertex 20 -118 -23
      vertex 20 -100 0
      vertex 20 -100 -23
    endloop
  endfacet
  facet normal -1 -0 0
    outer loop
      vertex 20 -100 0
      vertex 20 -118 -23
      vertex 20 -118 0
    endloop
  endfacet
  facet normal -1 0 0
    outer loop
      vertex 20 -138 -23
      vertex 20 -120 0
      vertex 20 -120 -23
    endloop
  endfacet
  facet normal -1 -0 0
    outer loop
      vertex 20 -120 0
      vertex 20 -138 -23
      vertex 20 -138 0
    endloop
  endfacet
  facet normal -1 0 0
    outer loop
      vertex 20 -158 -23
      vertex 20 -140 0
      vertex 20 -140 -23
    endloop
  endfacet
  facet normal -1 -0 0
    outer loop
      vertex 20 -140 0
      vertex 20 -158 -23
      vertex 20 -158 0
    endloop
  endfacet
  facet normal 1 -0 0
    outer loop
      vertex 18 -18 0
      vertex 18 0 -23
      vertex 18 0 0
    endloop
  endfacet
  facet normal 1 0 0
    outer loop
      vertex 18 0 -23
      vertex 18 -18 0
      vertex 18 -18 -23
    endloop
  endfacet
  facet normal 1 -0 0
    outer loop
      vertex 18 -38 0
      vertex 18 -20 -23
      vertex 18 -20 0
    endloop
  endfacet
  facet normal 1 0 0
    outer loop
      vertex 18 -20 -23
      vertex 18 -38 0
      vertex 18 -38 -23
    endloop
  endfacet
  facet normal 1 -0 0
    outer loop
      vertex 18 -58 0
      vertex 18 -40 -23
      vertex 18 -40 0
    endloop
  endfacet
  facet normal 1 0 0
    outer loop
      vertex 18 -40 -23
      vertex 18 -58 0
      vertex 18 -58 -23
    endloop
  endfacet
  facet normal 1 -0 0
    outer loop
      vertex 18 -78 0
      vertex 18 -60 -23
      vertex 18 -60 0
    endloop
  endfacet
  facet normal 1 0 0
    outer loop
      vertex 18 -60 -23
      vertex 18 -78 0
      vertex 18 -78 -23
    endloop
  endfacet
  facet normal 1 -0 0
    outer loop
      vertex 18 -98 0
      vertex 18 -80 -23
      vertex 18 -80 0
    endloop
  endfacet
  facet normal 1 0 0
    outer loop
      vertex 18 -80 -23
      vertex 18 -98 0
      vertex 18 -98 -23
    endloop
  endfacet
  facet normal 1 -0 0
    outer loop
      vertex 18 -118 0
      vertex 18 -100 -23
      vertex 18 -100 0
    endloop
  endfacet
  facet normal 1 0 0
    outer loop
      vertex 18 -100 -23
      vertex 18 -118 0
      vertex 18 -118 -23
    endloop
  endfacet
  facet normal 1 -0 0
    outer loop
      vertex 18 -138 0
      vertex 18 -120 -23
      vertex 18 -120 0
    endloop
  endfacet
  facet normal 1 0 0
    outer loop
      vertex 18 -120 -23
      vertex 18 -138 0
      vertex 18 -138 -23
    endloop
  endfacet
  facet normal 1 -0 0
    outer loop
      vertex 18 -158 0
      vertex 18 -140 -23
      vertex 18 -140 0
    endloop
  endfacet
  facet normal 1 0 0
    outer loop
      vertex 18 -140 -23
      vertex 18 -158 0
      vertex 18 -158 -23
    endloop
  endfacet
  facet normal -1 0 0
    outer loop
      vertex 40 -18 -23
      vertex 40 0 0
      vertex 40 0 -23
    endloop
  endfacet
  facet normal -1 -0 0
    outer loop
      vertex 40 0 0
      vertex 40 -18 -23
      vertex 40 -18 0
    endloop
  endfacet
  facet normal -1 0 0
    outer loop
      vertex 40 -38 -23
      vertex 40 -20 0
      vertex 40 -20 -23
    endloop
  endfacet
  facet normal -1 -0 0
    outer loop
      vertex 40 -20 0
      vertex 40 -38 -23
      vertex 40 -38 0
    endloop
  endfacet
  facet normal -1 0 0
    outer loop
      vertex 40 -58 -23
      vertex 40 -40 0
      vertex 40 -40 -23
    endloop
  endfacet
  facet normal -1 -0 0
    outer loop
      vertex 40 -40 0
      vertex 40 -58 -23
      vertex 40 -58 0
    endloop
  endfacet
  facet normal -1 0 0
    outer loop
      vertex 40 -78 -23
      vertex 40 -60 0
      vertex 40 -60 -23
    endloop
  endfacet
  facet normal -1 -0 0
    outer loop
      vertex 40 -60 0
      vertex 40 -78 -23
      vertex 40 -78 0
    endloop
  endfacet
  facet normal -1 0 0
    outer loop
      vertex 40 -98 -23
      vertex 40 -80 0
      vertex 40 -80 -23
    endloop
  endfacet
  facet normal -1 -0 0
    outer loop
      vertex 40 -80 0
      vertex 40 -98 -23
      vertex 40 -98 0
    endloop
  endfacet
  facet normal -1 0 0
    outer loop
      vertex 40 -118 -23
      vertex 40 -100 0
      vertex 40 -100 -23
    endloop
  endfacet
  facet normal -1 -0 0
    outer loop
      vertex 40 -100 0
      vertex 40 -118 -23
      vertex 40 -118 0
    endloop
  endfacet
  facet normal -1 0 0
    outer loop
      vertex 40 -138 -23
      vertex 40 -120 0
      vertex 40 -120 -23
    endloop
  endfacet
  facet normal -1 -0 0
    outer loop
      vertex 40 -120 0
      vertex 40 -138 -23
      vertex 40 -138 0
    endloop
  endfacet
  facet normal -1 0 0
    outer loop
      vertex 40 -158 -23
      vertex 40 -140 0
      vertex 40 -140 -23
    endloop
  endfacet
  facet normal -1 -0 0
    outer loop
      vertex 40 -140 0
      vertex 40 -158 -23
      vertex 40 -158 0
    endloop
  endfacet
  facet normal 1 -0 0
    outer loop
      vertex 38 -18 0
      vertex 38 0 -23
      vertex 38 0 0
    endloop
  endfacet
  facet normal 1 0 0
    outer loop
      vertex 38 0 -23
      vertex 38 -18 0
      vertex 38 -18 -23
    endloop
  endfacet
  facet normal 1 -0 0
    outer loop
      vertex 38 -38 0
      vertex 38 -20 -23
      vertex 38 -20 0
    endloop
  endfacet
  facet normal 1 0 0
    outer loop
      vertex 38 -20 -23
      vertex 38 -38 0
      vertex 38 -38 -23
    endloop
  endfacet
  facet normal 1 -0 0
    outer loop
      vertex 38 -58 0
      vertex 38 -40 -23
      vertex 38 -40 0
    endloop
  endfacet
  facet normal 1 0 0
    outer loop
      vertex 38 -40 -23
      vertex 38 -58 0
      vertex 38 -58 -23
    endloop
  endfacet
  facet normal 1 -0 0
    outer loop
      vertex 38 -78 0
      vertex 38 -60 -23
      vertex 38 -60 0
    endloop
  endfacet
  facet normal 1 0 0
    outer loop
      vertex 38 -60 -23
      vertex 38 -78 0
      vertex 38 -78 -23
    endloop
  endfacet
  facet normal 1 -0 0
    outer loop
      vertex 38 -98 0
      vertex 38 -80 -23
      vertex 38 -80 0
    endloop
  endfacet
  facet normal 1 0 0
    outer loop
      vertex 38 -80 -23
      vertex 38 -98 0
      vertex 38 -98 -23
    endloop
  endfacet
  facet normal 1 -0 0
    outer loop
      vertex 38 -118 0
      vertex 38 -100 -23
      vertex 38 -100 0
    endloop
  endfacet
  facet normal 1 0 0
    outer loop
      vertex 38 -100 -23
      vertex 38 -118 0
      vertex 38 -118 -23
    endloop
  endfacet
  facet normal 1 -0 0
    outer loop
      vertex 38 -138 0
      vertex 38 -120 -23
      vertex 38 -120 0
    endloop
  endfacet
  facet normal 1 0 0
    outer loop
      vertex 38 -120 -23
      vertex 38 -138 0
      vertex 38 -138 -23
    endloop
  endfacet
  facet normal 1 -0 0
    outer loop
      vertex 38 -158 0
      vertex 38 -140 -23
      vertex 38 -140 0
    endloop
  endfacet
  facet normal 1 0 0
    outer loop
      vertex 38 -140 -23
      vertex 38 -158 0
      vertex 38 -158 -23
    endloop
  endfacet
  facet normal 1 -0 0
    outer loop
      vertex 58 -18 0
      vertex 58 0 -23
      vertex 58 0 0
    endloop
  endfacet
  facet normal 1 0 0
    outer loop
      vertex 58 0 -23
      vertex 58 -18 0
      vertex 58 -18 -23
    endloop
  endfacet
  facet normal 1 -0 0
    outer loop
      vertex 58 -38 0
      vertex 58 -20 -23
      vertex 58 -20 0
    endloop
  endfacet
  facet normal 1 0 0
    outer loop
      vertex 58 -20 -23
      vertex 58 -38 0
      vertex 58 -38 -23
    endloop
  endfacet
  facet normal 1 -0 0
    outer loop
      vertex 58 -58 0
      vertex 58 -40 -23
      vertex 58 -40 0
    endloop
  endfacet
  facet normal 1 0 0
    outer loop
      vertex 58 -40 -23
      vertex 58 -58 0
      vertex 58 -58 -23
    endloop
  endfacet
  facet normal 1 -0 0
    outer loop
      vertex 58 -78 0
      vertex 58 -60 -23
      vertex 58 -60 0
    endloop
  endfacet
  facet normal 1 0 0
    outer loop
      vertex 58 -60 -23
      vertex 58 -78 0
      vertex 58 -78 -23
    endloop
  endfacet
  facet normal 1 -0 0
    outer loop
      vertex 58 -98 0
      vertex 58 -80 -23
      vertex 58 -80 0
    endloop
  endfacet
  facet normal 1 0 0
    outer loop
      vertex 58 -80 -23
      vertex 58 -98 0
      vertex 58 -98 -23
    endloop
  endfacet
  facet normal 1 -0 0
    outer loop
      vertex 58 -118 0
      vertex 58 -100 -23
      vertex 58 -100 0
    endloop
  endfacet
  facet normal 1 0 0
    outer loop
      vertex 58 -100 -23
      vertex 58 -118 0
      vertex 58 -118 -23
    endloop
  endfacet
  facet normal 1 -0 0
    outer loop
      vertex 58 -138 0
      vertex 58 -120 -23
      vertex 58 -120 0
    endloop
  endfacet
  facet normal 1 0 0
    outer loop
      vertex 58 -120 -23
      vertex 58 -138 0
      vertex 58 -138 -23
    endloop
  endfacet
  facet normal 1 -0 0
    outer loop
      vertex 58 -158 0
      vertex 58 -140 -23
      vertex 58 -140 0
    endloop
  endfacet
  facet normal 1 0 0
    outer loop
      vertex 58 -140 -23
      vertex 58 -158 0
      vertex 58 -158 -23
    endloop
  endfacet
  facet normal 0 1 -0
    outer loop
      vertex 18 0 -23
      vertex 0 0 0
      vertex 18 0 0
    endloop
  endfacet
  facet normal 0 1 0
    outer loop
      vertex 0 0 0
      vertex 18 0 -23
      vertex 0 0 -23
    endloop
  endfacet
  facet normal 0 1 -0
    outer loop
      vertex 38 0 -23
      vertex 20 0 0
      vertex 38 0 0
    endloop
  endfacet
  facet normal 0 1 0
    outer loop
      vertex 20 0 0
      vertex 38 0 -23
      vertex 20 0 -23
    endloop
  endfacet
  facet normal 0 1 -0
    outer loop
      vertex 58 0 -23
      vertex 40 0 0
      vertex 58 0 0
    endloop
  endfacet
  facet normal 0 1 0
    outer loop
      vertex 40 0 0
      vertex 58 0 -23
      vertex 40 0 -23
    endloop
  endfacet
  facet normal 0 -1 0
    outer loop
      vertex 0 -18 -23
      vertex 18 -18 0
      vertex 0 -18 0
    endloop
  endfacet
  facet normal 0 -1 -0
    outer loop
      vertex 18 -18 0
      vertex 0 -18 -23
      vertex 18 -18 -23
    endloop
  endfacet
  facet normal 0 -1 0
    outer loop
      vertex 20 -18 -23
      vertex 38 -18 0
      vertex 20 -18 0
    endloop
  endfacet
  facet normal 0 -1 -0
    outer loop
      vertex 38 -18 0
      vertex 20 -18 -23
      vertex 38 -18 -23
    endloop
  endfacet
  facet normal 0 -1 0
    outer loop
      vertex 40 -18 -23
      vertex 58 -18 0
      vertex 40 -18 0
    endloop
  endfacet
  facet normal 0 -1 -0
    outer loop
      vertex 58 -18 0
      vertex 40 -18 -23
      vertex 58 -18 -23
    endloop
  endfacet
  facet normal 0 1 -0
    outer loop
      vertex 18 -20 -23
      vertex 0 -20 0
      vertex 18 -20 0
    endloop
  endfacet
  facet normal 0 1 0
    outer loop
      vertex 0 -20 0
      vertex 18 -20 -23
      vertex 0 -20 -23
    endloop
  endfacet
  facet normal 0 1 -0
    outer loop
      vertex 38 -20 -23
      vertex 20 -20 0
      vertex 38 -20 0
    endloop
  endfacet
  facet normal 0 1 0
    outer loop
      vertex 20 -20 0
      vertex 38 -20 -23
      vertex 20 -20 -23
    endloop
  endfacet
  facet normal 0 1 -0
    outer loop
      vertex 58 -20 -23
      vertex 40 -20 0
      vertex 58 -20 0
    endloop
  endfacet
  facet normal 0 1 0
    outer loop
      vertex 40 -20 0
      vertex 58 -20 -23
      vertex 40 -20 -23
    endloop
  endfacet
  facet normal 0 -1 0
    outer loop
      vertex 0 -38 -23
      vertex 18 -38 0
      vertex 0 -38 0
    endloop
  endfacet
  facet normal 0 -1 -0
    outer loop
      vertex 18 -38 0
      vertex 0 -38 -23
      vertex 18 -38 -23
    endloop
  endfacet
  facet normal 0 -1 0
    outer loop
      vertex 20 -38 -23
      vertex 38 -38 0
      vertex 20 -38 0
    endloop
  endfacet
  facet normal 0 -1 -0
    outer loop
      vertex 38 -38 0
      vertex 20 -38 -23
      vertex 38 -38 -23
    endloop
  endfacet
  facet normal 0 -1 0
    outer loop
      vertex 40 -38 -23
      vertex 58 -38 0
      vertex 40 -38 0
    endloop
  endfacet
  facet normal 0 -1 -0
    outer loop
      vertex 58 -38 0
      vertex 40 -38 -23
      vertex 58 -38 -23
    endloop
  endfacet
  facet normal 0 1 -0
    outer loop
      vertex 18 -40 -23
      vertex 0 -40 0
      vertex 18 -40 0
    endloop
  endfacet
  facet normal 0 1 0
    outer loop
      vertex 0 -40 0
      vertex 18 -40 -23
      vertex 0 -40 -23
    endloop
  endfacet
  facet normal 0 1 -0
    outer loop
      vertex 38 -40 -23
      vertex 20 -40 0
      vertex 38 -40 0
    endloop
  endfacet
  facet normal 0 1 0
    outer loop
      vertex 20 -40 0
      vertex 38 -40 -23
      vertex 20 -40 -23
    endloop
  endfacet
  facet normal 0 1 -0
    outer loop
      vertex 58 -40 -23
      vertex 40 -40 0
      vertex 58 -40 0
    endloop
  endfacet
  facet normal 0 1 0
    outer loop
      vertex 40 -40 0
      vertex 58 -40 -23
      vertex 40 -40 -23
    endloop
  endfacet
  facet normal 0 -1 0
    outer loop
      vertex 0 -58 -23
      vertex 18 -58 0
      vertex 0 -58 0
    endloop
  endfacet
  facet normal 0 -1 -0
    outer loop
      vertex 18 -58 0
      vertex 0 -58 -23
      vertex 18 -58 -23
    endloop
  endfacet
  facet normal 0 -1 0
    outer loop
      vertex 20 -58 -23
      vertex 38 -58 0
      vertex 20 -58 0
    endloop
  endfacet
  facet normal 0 -1 -0
    outer loop
      vertex 38 -58 0
      vertex 20 -58 -23
      vertex 38 -58 -23
    endloop
  endfacet
  facet normal 0 -1 0
    outer loop
      vertex 40 -58 -23
      vertex 58 -58 0
      vertex 40 -58 0
    endloop
  endfacet
  facet normal 0 -1 -0
    outer loop
      vertex 58 -58 0
      vertex 40 -58 -23
      vertex 58 -58 -23
    endloop
  endfacet
  facet normal 0 1 -0
    outer loop
      vertex 18 -60 -23
      vertex 0 -60 0
      vertex 18 -60 0
    endloop
  endfacet
  facet normal 0 1 0
    outer loop
      vertex 0 -60 0
      vertex 18 -60 -23
      vertex 0 -60 -23
    endloop
  endfacet
  facet normal 0 1 -0
    outer loop
      vertex 38 -60 -23
      vertex 20 -60 0
      vertex 38 -60 0
    endloop
  endfacet
  facet normal 0 1 0
    outer loop
      vertex 20 -60 0
      vertex 38 -60 -23
      vertex 20 -60 -23
    endloop
  endfacet
  facet normal 0 1 -0
    outer loop
      vertex 58 -60 -23
      vertex 40 -60 0
      vertex 58 -60 0
    endloop
  endfacet
  facet normal 0 1 0
    outer loop
      vertex 40 -60 0
      vertex 58 -60 -23
      vertex 40 -60 -23
    endloop
  endfacet
  facet normal 0 -1 0
    outer loop
      vertex 0 -78 -23
      vertex 18 -78 0
      vertex 0 -78 0
    endloop
  endfacet
  facet normal 0 -1 -0
    outer loop
      vertex 18 -78 0
      vertex 0 -78 -23
      vertex 18 -78 -23
    endloop
  endfacet
  facet normal 0 -1 0
    outer loop
      vertex 20 -78 -23
      vertex 38 -78 0
      vertex 20 -78 0
    endloop
  endfacet
  facet normal 0 -1 -0
    outer loop
      vertex 38 -78 0
      vertex 20 -78 -23
      vertex 38 -78 -23
    endloop
  endfacet
  facet normal 0 -1 0
    outer loop
      vertex 40 -78 -23
      vertex 58 -78 0
      vertex 40 -78 0
    endloop
  endfacet
  facet normal 0 -1 -0
    outer loop
      vertex 58 -78 0
      vertex 40 -78 -23
      vertex 58 -78 -23
    endloop
  endfacet
  facet normal 0 1 -0
    outer loop
      vertex 18 -80 -23
      vertex 0 -80 0
      vertex 18 -80 0
    endloop
  endfacet
  facet normal 0 1 0
    outer loop
      vertex 0 -80 0
      vertex 18 -80 -23
      vertex 0 -80 -23
    endloop
  endfacet
  facet normal 0 1 -0
    outer loop
      vertex 38 -80 -23
      vertex 20 -80 0
      vertex 38 -80 0
    endloop
  endfacet
  facet normal 0 1 0
    outer loop
      vertex 20 -80 0
      vertex 38 -80 -23
      vertex 20 -80 -23
    endloop
  endfacet
  facet normal 0 1 -0
    outer loop
      vertex 58 -80 -23
      vertex 40 -80 0
      vertex 58 -80 0
    endloop
  endfacet
  facet normal 0 1 0
    outer loop
      vertex 40 -80 0
      vertex 58 -80 -23
      vertex 40 -80 -23
    endloop
  endfacet
  facet normal 0 -1 0
    outer loop
      vertex 0 -98 -23
      vertex 18 -98 0
      vertex 0 -98 0
    endloop
  endfacet
  facet normal 0 -1 -0
    outer loop
      vertex 18 -98 0
      vertex 0 -98 -23
      vertex 18 -98 -23
    endloop
  endfacet
  facet normal 0 -1 0
    outer loop
      vertex 20 -98 -23
      vertex 38 -98 0
      vertex 20 -98 0
    endloop
  endfacet
  facet normal 0 -1 -0
    outer loop
      vertex 38 -98 0
      vertex 20 -98 -23
      vertex 38 -98 -23
    endloop
  endfacet
  facet normal 0 -1 0
    outer loop
      vertex 40 -98 -23
      vertex 58 -98 0
      vertex 40 -98 0
    endloop
  endfacet
  facet normal 0 -1 -0
    outer loop
      vertex 58 -98 0
      vertex 40 -98 -23
      vertex 58 -98 -23
    endloop
  endfacet
  facet normal 0 1 -0
    outer loop
      vertex 18 -100 -23
      vertex 0 -100 0
      vertex 18 -100 0
    endloop
  endfacet
  facet normal 0 1 0
    outer loop
      vertex 0 -100 0
      vertex 18 -100 -23
      vertex 0 -100 -23
    endloop
  endfacet
  facet normal 0 1 -0
    outer loop
      vertex 38 -100 -23
      vertex 20 -100 0
      vertex 38 -100 0
    endloop
  endfacet
  facet normal 0 1 0
    outer loop
      vertex 20 -100 0
      vertex 38 -100 -23
      vertex 20 -100 -23
    endloop
  endfacet
  facet normal 0 1 -0
    outer loop
      vertex 58 -100 -23
      vertex 40 -100 0
      vertex 58 -100 0
    endloop
  endfacet
  facet normal 0 1 0
    outer loop
      vertex 40 -100 0
      vertex 58 -100 -23
      vertex 40 -100 -23
    endloop
  endfacet
  facet normal 0 -1 0
    outer loop
      vertex 0 -118 -23
      vertex 18 -118 0
      vertex 0 -118 0
    endloop
  endfacet
  facet normal 0 -1 -0
    outer loop
      vertex 18 -118 0
      vertex 0 -118 -23
      vertex 18 -118 -23
    endloop
  endfacet
  facet normal 0 -1 0
    outer loop
      vertex 20 -118 -23
      vertex 38 -118 0
      vertex 20 -118 0
    endloop
  endfacet
  facet normal 0 -1 -0
    outer loop
      vertex 38 -118 0
      vertex 20 -118 -23
      vertex 38 -118 -23
    endloop
  endfacet
  facet normal 0 -1 0
    outer loop
      vertex 40 -118 -23
      vertex 58 -118 0
      vertex 40 -118 0
    endloop
  endfacet
  facet normal 0 -1 -0
    outer loop
      vertex 58 -118 0
      vertex 40 -118 -23
      vertex 58 -118 -23
    endloop
  endfacet
  facet normal 0 1 -0
    outer loop
      vertex 18 -120 -23
      vertex 0 -120 0
      vertex 18 -120 0
    endloop
  endfacet
  facet normal 0 1 0
    outer loop
      vertex 0 -120 0
      vertex 18 -120 -23
      vertex 0 -120 -23
    endloop
  endfacet
  facet normal 0 1 -0
    outer loop
      vertex 38 -120 -23
      vertex 20 -120 0
      vertex 38 -120 0
    endloop
  endfacet
  facet normal 0 1 0
    outer loop
      vertex 20 -120 0
      vertex 38 -120 -23
      vertex 20 -120 -23
    endloop
  endfacet
  facet normal 0 1 -0
    outer loop
      vertex 58 -120 -23
      vertex 40 -120 0
      vertex 58 -120 0
    endloop
  endfacet
  facet normal 0 1 0
    outer loop
      vertex 40 -120 0
      vertex 58 -120 -23
      vertex 40 -120 -23
    endloop
  endfacet
  facet normal 0 -1 0
    outer loop
      vertex 0 -138 -23
      vertex 18 -138 0
      vertex 0 -138 0
    endloop
  endfacet
  facet normal 0 -1 -0
    outer loop
      vertex 18 -138 0
      vertex 0 -138 -23
      vertex 18 -138 -23
    endloop
  endfacet
  facet normal 0 -1 0
    outer loop
      vertex 20 -138 -23
      vertex 38 -138 0
      vertex 20 -138 0
    endloop
  endfacet
  facet normal 0 -1 -0
    outer loop
      vertex 38 -138 0
      vertex 20 -138 -23
      vertex 38 -138 -23
    endloop
  endfacet
  facet normal 0 -1 0
    outer loop
      vertex 40 -138 -23
      vertex 58 -138 0
      vertex 40 -138 0
    endloop
  endfacet
  facet normal 0 -1 -0
    outer loop
      vertex 58 -138 0
      vertex 40 -138 -23
      vertex 58 -138 -23
    endloop
  endfacet
  facet normal 0 1 -0
    outer loop
      vertex 18 -140 -23
      vertex 0 -140 0
      vertex 18 -140 0
    endloop
  endfacet
  facet normal 0 1 0
    outer loop
      vertex 0 -140 0
      vertex 18 -140 -23
      vertex 0 -140 -23
    endloop
  endfacet
  facet normal 0 1 -0
    outer loop
      vertex 38 -140 -23
      vertex 20 -140 0
      vertex 38 -140 0
    endloop
  endfacet
  facet normal 0 1 0
    outer loop
      vertex 20 -140 0
      vertex 38 -140 -23
      vertex 20 -140 -23
    endloop
  endfacet
  facet normal 0 1 -0
    outer loop
      vertex 58 -140 -23
      vertex 40 -140 0
      vertex 58 -140 0
    endloop
  endfacet
  facet normal 0 1 0
    outer loop
      vertex 40 -140 0
      vertex 58 -140 -23
      vertex 40 -140 -23
    endloop
  endfacet
  facet normal 0 -1 0
    outer loop
      vertex 0 -158 -23
      vertex 18 -158 0
      vertex 0 -158 0
    endloop
  endfacet
  facet normal 0 -1 -0
    outer loop
      vertex 18 -158 0
      vertex 0 -158 -23
      vertex 18 -158 -23
    endloop
  endfacet
  facet normal 0 -1 0
    outer loop
      vertex 20 -158 -23
      vertex 38 -158 0
      vertex 20 -158 0
    endloop
  endfacet
  facet normal 0 -1 -0
    outer loop
      vertex 38 -158 0
      vertex 20 -158 -23
      vertex 38 -158 -23
    endloop
  endfacet
  facet normal 0 -1 0
    outer loop
      vertex 40 -158 -23
      vertex 58 -158 0
      vertex 40 -158 0
    endloop
  endfacet
  facet normal 0 -1 -0
    outer loop
      vertex 58 -158 0
      vertex 40 -158 -23
      vertex 58 -158 -23
    endloop
  endfacet
  facet normal -0 0 1
    outer loop
      vertex 0 0 0
      vertex 18 -18 0
      vertex 18 0 0
    endloop
  endfacet
  facet normal 0 0 1
    outer loop
      vertex 18 -18 0
      vertex 0 0 0
      vertex 0 -18 0
    endloop
  endfacet
  facet normal -0 0 1
    outer loop
      vertex 20 0 0
      vertex 38 -18 0
      vertex 38 0 0
    endloop
  endfacet
  facet normal 0 0 1
    outer loop
      vertex 38 -18 0
      vertex 20 0 0
      vertex 20 -18 0
    endloop
  endfacet
  facet normal -0 0 1
    outer loop
      vertex 40 0 0
      vertex 58 -18 0
      vertex 58 0 0
    endloop
  endfacet
  facet normal 0 0 1
    outer loop
      vertex 58 -18 0
      vertex 40 0 0
      vertex 40 -18 0
    endloop
  endfacet
  facet normal -0 0 1
    outer loop
      vertex 0 -20 0
      vertex 18 -38 0
      vertex 18 -20 0
    endloop
  endfacet
  facet normal 0 0 1
    outer loop
      vertex 18 -38 0
      vertex 0 -20 0
      vertex 0 -38 0
    endloop
  endfacet
  facet normal -0 0 1
    outer loop
      vertex 20 -20 0
      vertex 38 -38 0
      vertex 38 -20 0
    endloop
  endfacet
  facet normal 0 0 1
    outer loop
      vertex 38 -38 0
      vertex 20 -20 0
      vertex 20 -38 0
    endloop
  endfacet
  facet normal -0 0 1
    outer loop
      vertex 40 -20 0
      vertex 58 -38 0
      vertex 58 -20 0
    endloop
  endfacet
  facet normal 0 0 1
    outer loop
      vertex 58 -38 0
      vertex 40 -20 0
      vertex 40 -38 0
    endloop
  endfacet
  facet normal -0 0 1
    outer loop
      vertex 0 -40 0
      vertex 18 -58 0
      vertex 18 -40 0
    endloop
  endfacet
  facet normal 0 0 1
    outer loop
      vertex 18 -58 0
      vertex 0 -40 0
      vertex 0 -58 0
    endloop
  endfacet
  facet normal -0 0 1
    outer loop
      vertex 20 -40 0
      vertex 38 -58 0
      vertex 38 -40 0
    endloop
  endfacet
  facet normal 0 0 1
    outer loop
      vertex 38 -58 0
      vertex 20 -40 0
      vertex 20 -58 0
    endloop
  endfacet
  facet normal -0 0 1
    outer loop
      vertex 40 -40 0
      vertex 58 -58 0
      vertex 58 -40 0
    endloop
  endfacet
  facet normal 0 0 1
    outer loop
      vertex 58 -58 0
      vertex 40 -40 0
      vertex 40 -58 0
    endloop
  endfacet
  facet normal -0 0 1
    outer loop
      vertex 0 -60 0
      vertex 18 -78 0
      vertex 18 -60 0
    endloop
  endfacet
  facet normal 0 0 1
    outer loop
      vertex 18 -78 0
      vertex 0 -60 0
      vertex 0 -78 0
    endloop
  endfacet
  facet normal -0 0 1
    outer loop
      vertex 20 -60 0
      vertex 38 -78 0
      vertex 38 -60 0
    endloop
  endfacet
  facet normal 0 0 1
    outer loop
      vertex 38 -78 0
      vertex 20 -60 0
      vertex 20 -78 0
    endloop
  endfacet
  facet normal -0 0 1
    outer loop
      vertex 40 -60 0
      vertex 58 -78 0
      vertex 58 -60 0
    endloop
  endfacet
  facet normal 0 0 1
    outer loop
      vertex 58 -78 0
      vertex 40 -60 0
      vertex 40 -78 0
    endloop
  endfacet
  facet normal -0 0 1
    outer loop
      vertex 0 -80 0
      vertex 18 -98 0
      vertex 18 -80 0
    endloop
  endfacet
  facet normal 0 0 1
    outer loop
      vertex 18 -98 0
      vertex 0 -80 0
      vertex 0 -98 0
    endloop
  endfacet
  facet normal -0 0 1
    outer loop
      vertex 20 -80 0
      vertex 38 -98 0
      vertex 38 -80 0
    endloop
  endfacet
  facet normal 0 0 1
    outer loop
      vertex 38 -98 0
      vertex 20 -80 0
      vertex 20 -98 0
    endloop
  endfacet
  facet normal -0 0 1
    outer loop
      vertex 40 -80 0
      vertex 58 -98 0
      vertex 58 -80 0
    endloop
  endfacet
  facet normal 0 0 1
    outer loop
      vertex 58 -98 0
      vertex 40 -80 0
      vertex 40 -98 0
    endloop
  endfacet
  facet normal -0 0 1
    outer loop
      vertex 0 -100 0
      vertex 18 -118 0
      vertex 18 -100 0
    endloop
  endfacet
  facet normal 0 0 1
    outer loop
      vertex 18 -118 0
      vertex 0 -100 0
      vertex 0 -118 0
    endloop
  endfacet
  facet normal -0 0 1
    outer loop
      vertex 20 -100 0
      vertex 38 -118 0
      vertex 38 -100 0
    endloop
  endfacet
  facet normal 0 0 1
    outer loop
      vertex 38 -118 0
      vertex 20 -100 0
      vertex 20 -118 0
    endloop
  endfacet
  facet normal -0 0 1
    outer loop
      vertex 40 -100 0
      vertex 58 -118 0
      vertex 58 -100 0
    endloop
  endfacet
  facet normal 0 0 1
    outer loop
      vertex 58 -118 0
      vertex 40 -100 0
      vertex 40 -118 0
    endloop
  endfacet
  facet normal -0 0 1
    outer loop
      vertex 0 -120 0
      vertex 18 -138 0
      vertex 18 -120 0
    endloop
  endfacet
  facet normal 0 0 1
    outer loop
      vertex 18 -138 0
      vertex 0 -120 0
      vertex 0 -138 0
    endloop
  endfacet
  facet normal -0 0 1
    outer loop
      vertex 20 -120 0
      vertex 38 -138 0
      vertex 38 -120 0
    endloop
  endfacet
  facet normal 0 0 1
    outer loop
      vertex 38 -138 0
      vertex 20 -120 0
      vertex 20 -138 0
    endloop
  endfacet
  facet normal -0 0 1
    outer loop
      vertex 40 -120 0
      vertex 58 -138 0
      vertex 58 -120 0
    endloop
  endfacet
  facet normal 0 0 1
    outer loop
      vertex 58 -138 0
      vertex 40 -120 0
      vertex 40 -138 0
    endloop
  endfacet
  facet normal -0 0 1
    outer loop
      vertex 0 -140 0
      vertex 18 -158 0
      vertex 18 -140 0
    endloop
  endfacet
  facet normal 0 0 1
    outer loop
      vertex 18 -158 0
      vertex 0 -140 0
      vertex 0 -158 0
    endloop
  endfacet
  facet normal -0 0 1
    outer loop
      vertex 20 -140 0
      vertex 38 -158 0
      vertex 38 -140 0
    endloop
  endfacet
  facet normal 0 0 1
    outer loop
      vertex 38 -158 0
      vertex 20 -140 0
      vertex 20 -158 0
    endloop
  endfacet
  facet normal -0 0 1
    outer loop
      vertex 40 -140 0
      vertex 58 -158 0
      vertex 58 -140 0
    endloop
  endfacet
  facet normal 0 0 1
    outer loop
      vertex 58 -158 0
      vertex 40 -140 0
      vertex 40 -158 0
    endloop
  endfacet
  facet normal 0 0 -1
    outer loop
      vertex 0 -18 -23
      vertex 18 0 -23
      vertex 18 -18 -23
    endloop
  endfacet
  facet normal -0 0 -1
    outer loop
      vertex 18 0 -23
      vertex 0 -18 -23
      vertex 0 0 -23
    endloop
  endfacet
  facet normal 0 0 -1
    outer loop
      vertex 20 -18 -23
      vertex 38 0 -23
      vertex 38 -18 -23
    endloop
  endfacet
  facet normal -0 0 -1
    outer loop
      vertex 38 0 -23
      vertex 20 -18 -23
      vertex 20 0 -23
    endloop
  endfacet
  facet normal 0 0 -1
    outer loop
      vertex 40 -18 -23
      vertex 58 0 -23
      vertex 58 -18 -23
    endloop
  endfacet
  facet normal -0 0 -1
    outer loop
      vertex 58 0 -23
      vertex 40 -18 -23
      vertex 40 0 -23
    endloop
  endfacet
  facet normal 0 0 -1
    outer loop
      vertex 0 -38 -23
      vertex 18 -20 -23
      vertex 18 -38 -23
    endloop
  endfacet
  facet normal -0 0 -1
    outer loop
      vertex 18 -20 -23
      vertex 0 -38 -23
      vertex 0 -20 -23
    endloop
  endfacet
  facet normal 0 0 -1
    outer loop
      vertex 20 -38 -23
      vertex 38 -20 -23
      vertex 38 -38 -23
    endloop
  endfacet
  facet normal -0 0 -1
    outer loop
      vertex 38 -20 -23
      vertex 20 -38 -23
      vertex 20 -20 -23
    endloop
  endfacet
  facet normal 0 0 -1
    outer loop
      vertex 40 -38 -23
      vertex 58 -20 -23
      vertex 58 -38 -23
    endloop
  endfacet
  facet normal -0 0 -1
    outer loop
      vertex 58 -20 -23
      vertex 40 -38 -23
      vertex 40 -20 -23
    endloop
  endfacet
  facet normal 0 0 -1
    outer loop
      vertex 0 -58 -23
      vertex 18 -40 -23
      vertex 18 -58 -23
    endloop
  endfacet
  facet normal -0 0 -1
    outer loop
      vertex 18 -40 -23
      vertex 0 -58 -23
      vertex 0 -40 -23
    endloop
  endfacet
  facet normal 0 0 -1
    outer loop
      vertex 20 -58 -23
      vertex 38 -40 -23
      vertex 38 -58 -23
    endloop
  endfacet
  facet normal -0 0 -1
    outer loop
      vertex 38 -40 -23
      vertex 20 -58 -23
      vertex 20 -40 -23
    endloop
  endfacet
  facet normal 0 0 -1
    outer loop
      vertex 40 -58 -23
      vertex 58 -40 -23
      vertex 58 -58 -23
    endloop
  endfacet
  facet normal -0 0 -1
    outer loop
      vertex 58 -40 -23
      vertex 40 -58 -23
      vertex 40 -40 -23
    endloop
  endfacet
  facet normal 0 0 -1
    outer loop
      vertex 0 -78 -23
      vertex 18 -60 -23
      vertex 18 -78 -23
    endloop
  endfacet
  facet normal -0 0 -1
    outer loop
      vertex 18 -60 -23
      vertex 0 -78 -23
      vertex 0 -60 -23
    endloop
  endfacet
  facet normal 0 0 -1
    outer loop
      vertex 20 -78 -23
      vertex 38 -60 -23
      vertex 38 -78 -23
    endloop
  endfacet
  facet normal -0 0 -1
    outer loop
      vertex 38 -60 -23
      vertex 20 -78 -23
      vertex 20 -60 -23
    endloop
  endfacet
  facet normal 0 0 -1
    outer loop
      vertex 40 -78 -23
      vertex 58 -60 -23
      vertex 58 -78 -23
    endloop
  endfacet
  facet normal -0 0 -1
    outer loop
      vertex 58 -60 -23
      vertex 40 -78 -23
      vertex 40 -60 -23
    endloop
  endfacet
  facet normal 0 0 -1
    outer loop
      vertex 0 -98 -23
      vertex 18 -80 -23
      vertex 18 -98 -23
    endloop
  endfacet
  facet normal -0 0 -1
    outer loop
      vertex 18 -80 -23
      vertex 0 -98 -23
      vertex 0 -80 -23
    endloop
  endfacet
  facet normal 0 0 -1
    outer loop
      vertex 20 -98 -23
      vertex 38 -80 -23
      vertex 38 -98 -23
    endloop
  endfacet
  facet normal -0 0 -1
    outer loop
      vertex 38 -80 -23
      vertex 20 -98 -23
      vertex 20 -80 -23
    endloop
  endfacet
  facet normal 0 0 -1
    outer loop
      vertex 40 -98 -23
      vertex 58 -80 -23
      vertex 58 -98 -23
    endloop
  endfacet
  facet normal -0 0 -1
    outer loop
      vertex 58 -80 -23
      vertex 40 -98 -23
      vertex 40 -80 -23
    endloop
  endfacet
  facet normal 0 0 -1
    outer loop
      vertex 0 -118 -23
      vertex 18 -100 -23
      vertex 18 -118 -23
    endloop
  endfacet
  facet normal -0 0 -1
    outer loop
      vertex 18 -100 -23
      vertex 0 -118 -23
      vertex 0 -100 -23
    endloop
  endfacet
  facet normal 0 0 -1
    outer loop
      vertex 20 -118 -23
      vertex 38 -100 -23
      vertex 38 -118 -23
    endloop
  endfacet
  facet normal -0 0 -1
    outer loop
      vertex 38 -100 -23
      vertex 20 -118 -23
      vertex 20 -100 -23
    endloop
  endfacet
  facet normal 0 0 -1
    outer loop
      vertex 40 -118 -23
      vertex 58 -100 -23
      vertex 58 -118 -23
    endloop
  endfacet
  facet normal -0 0 -1
    outer loop
      vertex 58 -100 -23
      vertex 40 -118 -23
      vertex 40 -100 -23
    endloop
  endfacet
  facet normal 0 0 -1
    outer loop
      vertex 0 -138 -23
      vertex 18 -120 -23
      vertex 18 -138 -23
    endloop
  endfacet
  facet normal -0 0 -1
    outer loop
      vertex 18 -120 -23
      vertex 0 -138 -23
      vertex 0 -120 -23
    endloop
  endfacet
  facet normal 0 0 -1
    outer loop
      vertex 20 -138 -23
      vertex 38 -120 -23
      vertex 38 -138 -23
    endloop
  endfacet
  facet normal -0 0 -1
    outer loop
      vertex 38 -120 -23
      vertex 20 -138 -23
      vertex 20 -120 -23
    endloop
  endfacet
  facet normal 0 0 -1
    outer loop
      vertex 40 -138 -23
      vertex 58 -120 -23
      vertex 58 -138 -23
    endloop
  endfacet
  facet normal -0 0 -1
    outer loop
      vertex 58 -120 -23
      vertex 40 -138 -23
      vertex 40 -120 -23
    endloop
  endfacet
  facet normal 0 0 -1
    outer loop
      vertex 0 -158 -23
      vertex 18 -140 -23
      vertex 18 -158 -23
    endloop
  endfacet
  facet normal -0 0 -1
    outer loop
      vertex 18 -140 -23
      vertex 0 -158 -23
      vertex 0 -140 -23
    endloop
  endfacet
  facet normal 0 0 -1
    outer loop
      vertex 20 -158 -23
      vertex 38 -140 -23
      vertex 38 -158 -23
    endloop
  endfacet
  facet normal -0 0 -1
    outer loop
      vertex 38 -140 -23
      vertex 20 -158 -23
      vertex 20 -140 -23
    endloop
  endfacet
  facet normal 0 0 -1
    outer loop
      vertex 40 -158 -23
      vertex 58 -140 -23
      vertex 58 -158 -23
    endloop
  endfacet
  facet normal -0 0 -1
    outer loop
      vertex 58 -140 -23
      vertex 40 -158 -23
      vertex 40 -140 -23
    endloop
  endfacet
endsolid OpenSCAD_Model
