solid OpenSCAD_Model
  facet normal 0 0 -1
    outer loop
      vertex 25 -143.2 0
      vertex 39.0731 -151.063 0
      vertex 37.4214 -159.38 0
    endloop
  endfacet
  facet normal 0 0 -1
    outer loop
      vertex 25 -143.2 0
      vertex 37.4214 -159.38 0
      vertex 37.1162 -162.809 0
    endloop
  endfacet
  facet normal 0 0 -1
    outer loop
      vertex 32.4984 -173.379 0
      vertex 37.1162 -162.809 0
      vertex 36.6522 -165.967 0
    endloop
  endfacet
  facet normal 0 0 -1
    outer loop
      vertex 33.9835 -171.964 0
      vertex 36.6522 -165.967 0
      vertex 35.9572 -168.849 0
    endloop
  endfacet
  facet normal 0 0 -1
    outer loop
      vertex 33.9835 -171.964 0
      vertex 35.9572 -168.849 0
      vertex 35.3564 -170.426 0
    endloop
  endfacet
  facet normal 0 0 -1
    outer loop
      vertex 36.6522 -165.967 0
      vertex 33.9835 -171.964 0
      vertex 32.4984 -173.379 0
    endloop
  endfacet
  facet normal -0 0 -1
    outer loop
      vertex 37.1162 -162.809 0
      vertex 32.4984 -173.379 0
      vertex 25 -143.2 0
    endloop
  endfacet
  facet normal 0 0 -1
    outer loop
      vertex 25 -178.606 0
      vertex 32.4984 -173.379 0
      vertex 31.6231 -174.579 0
    endloop
  endfacet
  facet normal 0 0 -1
    outer loop
      vertex 29.982 -176.425 0
      vertex 31.6231 -174.579 0
      vertex 30.9802 -175.581 0
    endloop
  endfacet
  facet normal 0 0 -1
    outer loop
      vertex 31.6231 -174.579 0
      vertex 29.982 -176.425 0
      vertex 25 -178.606 0
    endloop
  endfacet
  facet normal 0 0 -1
    outer loop
      vertex 26.8453 -178.31 0
      vertex 29.982 -176.425 0
      vertex 28.2593 -177.792 0
    endloop
  endfacet
  facet normal 0 0 -1
    outer loop
      vertex 29.982 -176.425 0
      vertex 26.8453 -178.31 0
      vertex 25 -178.606 0
    endloop
  endfacet
  facet normal -0 0 -1
    outer loop
      vertex 32.4984 -173.379 0
      vertex 25 -178.606 0
      vertex 25 -143.2 0
    endloop
  endfacet
  facet normal 0 0 -1
    outer loop
      vertex 39.0731 -151.063 0
      vertex 25 -143.2 0
      vertex 38.5221 -143.2 0
    endloop
  endfacet
  facet normal -1 0 0
    outer loop
      vertex 25 -143.2 0
      vertex 25 -144.632 16.1997
      vertex 25 -143.2 16.263
    endloop
  endfacet
  facet normal -1 0 0
    outer loop
      vertex 25 -143.2 0
      vertex 25 -152.391 15.6635
      vertex 25 -144.632 16.1997
    endloop
  endfacet
  facet normal -1 0 0
    outer loop
      vertex 25 -143.2 0
      vertex 25 -155.447 15.0811
      vertex 25 -152.391 15.6635
    endloop
  endfacet
  facet normal -1 0 0
    outer loop
      vertex 25 -143.2 0
      vertex 25 -160.551 14.1085
      vertex 25 -155.447 15.0811
    endloop
  endfacet
  facet normal -1 0 0
    outer loop
      vertex 25 -143.2 0
      vertex 25 -161.754 13.8294
      vertex 25 -160.551 14.1085
    endloop
  endfacet
  facet normal -1 0 0
    outer loop
      vertex 25 -143.2 0
      vertex 25 -163.952 13.319
      vertex 25 -161.754 13.8294
    endloop
  endfacet
  facet normal -1 0 0
    outer loop
      vertex 25 -174.086 7.36419
      vertex 25 -163.952 13.319
      vertex 25 -143.2 0
    endloop
  endfacet
  facet normal -1 0 0
    outer loop
      vertex 25 -163.952 13.319
      vertex 25 -174.086 7.36419
      vertex 25 -165.437 13.0608
    endloop
  endfacet
  facet normal -1 0 -0
    outer loop
      vertex 25 -173.573 8.13255
      vertex 25 -165.437 13.0608
      vertex 25 -174.086 7.36419
    endloop
  endfacet
  facet normal -1 0 0
    outer loop
      vertex 25 -165.437 13.0608
      vertex 25 -173.573 8.13255
      vertex 25 -167.066 12.7777
    endloop
  endfacet
  facet normal -1 0 0
    outer loop
      vertex 25 -167.066 12.7777
      vertex 25 -173.573 8.13255
      vertex 25 -168.58 12.2727
    endloop
  endfacet
  facet normal -1 0 -0
    outer loop
      vertex 25 -172.582 9.53749
      vertex 25 -168.58 12.2727
      vertex 25 -172.812 9.23179
    endloop
  endfacet
  facet normal -1 0 0
    outer loop
      vertex 25 -170.796 11.3974
      vertex 25 -172.582 9.53749
      vertex 25 -171.403 11.1044
    endloop
  endfacet
  facet normal -1 0 0
    outer loop
      vertex 25 -169.882 11.8382
      vertex 25 -172.582 9.53749
      vertex 25 -170.796 11.3974
    endloop
  endfacet
  facet normal -1 0 0
    outer loop
      vertex 25 -168.58 12.2727
      vertex 25 -172.582 9.53749
      vertex 25 -169.882 11.8382
    endloop
  endfacet
  facet normal -1 0 -0
    outer loop
      vertex 25 -172.812 9.23179
      vertex 25 -168.58 12.2727
      vertex 25 -173.573 8.13255
    endloop
  endfacet
  facet normal -1 0 0
    outer loop
      vertex 25 -178.606 0
      vertex 25 -174.086 7.36419
      vertex 25 -143.2 0
    endloop
  endfacet
  facet normal -1 0 0
    outer loop
      vertex 25 -174.086 7.36419
      vertex 25 -178.606 0
      vertex 25 -174.277 7.17841
    endloop
  endfacet
  facet normal -1 0 0
    outer loop
      vertex 25 -174.277 7.17841
      vertex 25 -178.606 0
      vertex 25 -175.204 6.27566
    endloop
  endfacet
  facet normal -1 0 -0
    outer loop
      vertex 25 -178.594 0.258162
      vertex 25 -175.204 6.27566
      vertex 25 -178.606 0
    endloop
  endfacet
  facet normal -1 0 -0
    outer loop
      vertex 25 -178.576 0.542576
      vertex 25 -175.204 6.27566
      vertex 25 -178.594 0.258162
    endloop
  endfacet
  facet normal -1 0 0
    outer loop
      vertex 25 -175.505 6.09947
      vertex 25 -176.331 5.52777
      vertex 25 -176.145 5.72422
    endloop
  endfacet
  facet normal -1 0 -0
    outer loop
      vertex 25 -177.006 4.78693
      vertex 25 -175.204 6.27566
      vertex 25 -178.576 0.542576
    endloop
  endfacet
  facet normal -1 0 0
    outer loop
      vertex 25 -175.204 6.27566
      vertex 25 -177.006 4.78693
      vertex 25 -175.505 6.09947
    endloop
  endfacet
  facet normal -1 0 -0
    outer loop
      vertex 25 -176.895 4.93071
      vertex 25 -175.505 6.09947
      vertex 25 -177.006 4.78693
    endloop
  endfacet
  facet normal -1 0 0
    outer loop
      vertex 25 -175.505 6.09947
      vertex 25 -176.895 4.93071
      vertex 25 -176.331 5.52777
    endloop
  endfacet
  facet normal -1 0 0
    outer loop
      vertex 25 -177.006 4.78693
      vertex 25 -178.576 0.542576
      vertex 25 -177.43 4.23499
    endloop
  endfacet
  facet normal -1 0 0
    outer loop
      vertex 25 -177.998 3.48389
      vertex 25 -178.417 2.19138
      vertex 25 -178.099 3.3508
    endloop
  endfacet
  facet normal -1 0 0
    outer loop
      vertex 25 -178.417 2.19138
      vertex 25 -178.576 0.542576
      vertex 25 -178.484 1.94876
    endloop
  endfacet
  facet normal -1 0 0
    outer loop
      vertex 25 -177.43 4.23499
      vertex 25 -178.417 2.19138
      vertex 25 -177.998 3.48389
    endloop
  endfacet
  facet normal -1 0 -0
    outer loop
      vertex 25 -178.417 2.19138
      vertex 25 -177.43 4.23499
      vertex 25 -178.576 0.542576
    endloop
  endfacet
  facet normal -1 0 0
    outer loop
      vertex 25 -178.594 0.258162
      vertex 25 -178.606 0
      vertex 25 -178.6 0.161808
    endloop
  endfacet
  facet normal -1 0 0
    outer loop
      vertex 25 -178.6 0.161808
      vertex 25 -178.606 0
      vertex 25 -178.603 0.111026
    endloop
  endfacet
  facet normal -1 0 0
    outer loop
      vertex 25 -178.603 0.111026
      vertex 25 -178.606 0
      vertex 25 -178.605 0.0780504
    endloop
  endfacet
  facet normal 1 0 0
    outer loop
      vertex 25 -178.605 0.0780504
      vertex 25 -178.606 0
      vertex 25 -178.605 0.0536535
    endloop
  endfacet
  facet normal -1 0 0
    outer loop
      vertex 25 -178.605 0.0536535
      vertex 25 -178.606 0.0163733
      vertex 25 -178.606 0.0338056
    endloop
  endfacet
  facet normal -1 0 0
    outer loop
      vertex 25 -178.605 0.0536535
      vertex 25 -178.606 0
      vertex 25 -178.606 0.0163733
    endloop
  endfacet
  facet normal 0 0 0
    outer loop
      vertex 25 -178.606 0.0163733
      vertex 25 -178.606 0
      vertex 25 -178.606 1.90735e-06
    endloop
  endfacet
  facet normal 0 1 0
    outer loop
      vertex 29.4828 -143.2 14.6691
      vertex 26.8548 -143.2 15.756
      vertex 27.6108 -143.2 15.5494
    endloop
  endfacet
  facet normal 0 1 0
    outer loop
      vertex 25 -143.2 0
      vertex 26.8548 -143.2 15.756
      vertex 29.4828 -143.2 14.6691
    endloop
  endfacet
  facet normal 0 1 0
    outer loop
      vertex 25 -143.2 0
      vertex 29.4828 -143.2 14.6691
      vertex 30.2408 -143.2 14.3127
    endloop
  endfacet
  facet normal 0 1 0
    outer loop
      vertex 25 -143.2 0
      vertex 30.2408 -143.2 14.3127
      vertex 31.887 -143.2 13.1559
    endloop
  endfacet
  facet normal 0 1 0
    outer loop
      vertex 25 -143.2 0
      vertex 31.887 -143.2 13.1559
      vertex 32.6124 -143.2 12.6462
    endloop
  endfacet
  facet normal 0 1 0
    outer loop
      vertex 25 -143.2 0
      vertex 32.6124 -143.2 12.6462
      vertex 33.9987 -143.2 11.2585
    endloop
  endfacet
  facet normal 0 1 0
    outer loop
      vertex 25 -143.2 0
      vertex 33.9987 -143.2 11.2585
      vertex 34.6553 -143.2 10.6012
    endloop
  endfacet
  facet normal 0 1 0
    outer loop
      vertex 25 -143.2 0
      vertex 34.6553 -143.2 10.6012
      vertex 35.7564 -143.2 9.02941
    endloop
  endfacet
  facet normal 0 1 0
    outer loop
      vertex 25 -143.2 0
      vertex 35.7564 -143.2 9.02941
      vertex 36.3095 -143.2 8.23985
    endloop
  endfacet
  facet normal 0 1 0
    outer loop
      vertex 25 -143.2 0
      vertex 36.3095 -143.2 8.23985
      vertex 37.1075 -143.2 6.53081
    endloop
  endfacet
  facet normal 0 1 0
    outer loop
      vertex 25 -143.2 0
      vertex 37.1075 -143.2 6.53081
      vertex 37.5267 -143.2 5.63315
    endloop
  endfacet
  facet normal 0 1 0
    outer loop
      vertex 25 -143.2 0
      vertex 37.5267 -143.2 5.63315
      vertex 38.01 -143.2 3.83294
    endloop
  endfacet
  facet normal 0 1 0
    outer loop
      vertex 25 -143.2 0
      vertex 38.01 -143.2 3.83294
      vertex 38.2715 -143.2 2.85902
    endloop
  endfacet
  facet normal 0 1 0
    outer loop
      vertex 25 -143.2 0
      vertex 38.2715 -143.2 2.85902
      vertex 38.4333 -143.2 1.01281
    endloop
  endfacet
  facet normal 0 1 -0
    outer loop
      vertex 38.5221 -143.2 0
      vertex 38.4333 -143.2 1.01281
      vertex 38.5221 -143.2 1.90735e-06
    endloop
  endfacet
  facet normal 0 1 0
    outer loop
      vertex 38.4333 -143.2 1.01281
      vertex 38.5221 -143.2 0
      vertex 25 -143.2 0
    endloop
  endfacet
  facet normal 0 1 0
    outer loop
      vertex 26.8548 -143.2 15.756
      vertex 25 -143.2 0
      vertex 25 -143.2 16.263
    endloop
  endfacet
  facet normal 0.997554 0.0699036 0
    outer loop
      vertex 38.5221 -143.2 1.90735e-06
      vertex 39.0731 -151.063 0
      vertex 38.5221 -143.2 0
    endloop
  endfacet
  facet normal 0.997554 0.0699036 -0
    outer loop
      vertex 39.0731 -151.063 0
      vertex 38.5221 -143.2 1.90735e-06
      vertex 39.0731 -151.063 1.90735e-06
    endloop
  endfacet
  facet normal 0.980845 -0.194789 0
    outer loop
      vertex 37.4214 -159.38 1.90735e-06
      vertex 39.0731 -151.063 0
      vertex 39.0731 -151.063 1.90735e-06
    endloop
  endfacet
  facet normal 0.980845 -0.194789 0
    outer loop
      vertex 39.0731 -151.063 0
      vertex 37.4214 -159.38 1.90735e-06
      vertex 37.4214 -159.38 0
    endloop
  endfacet
  facet normal 0.996062 -0.0886551 0
    outer loop
      vertex 37.1162 -162.809 1.90735e-06
      vertex 37.4214 -159.38 0
      vertex 37.4214 -159.38 1.90735e-06
    endloop
  endfacet
  facet normal 0.996062 -0.0886551 0
    outer loop
      vertex 37.4214 -159.38 0
      vertex 37.1162 -162.809 1.90735e-06
      vertex 37.1162 -162.809 0
    endloop
  endfacet
  facet normal 0.989378 -0.145368 0
    outer loop
      vertex 36.6522 -165.967 1.90735e-06
      vertex 37.1162 -162.809 0
      vertex 37.1162 -162.809 1.90735e-06
    endloop
  endfacet
  facet normal 0.989378 -0.145368 0
    outer loop
      vertex 37.1162 -162.809 0
      vertex 36.6522 -165.967 1.90735e-06
      vertex 36.6522 -165.967 0
    endloop
  endfacet
  facet normal 0.972133 -0.234432 0
    outer loop
      vertex 35.9572 -168.849 1.90735e-06
      vertex 36.6522 -165.967 0
      vertex 36.6522 -165.967 1.90735e-06
    endloop
  endfacet
  facet normal 0.972133 -0.234432 0
    outer loop
      vertex 36.6522 -165.967 0
      vertex 35.9572 -168.849 1.90735e-06
      vertex 35.9572 -168.849 0
    endloop
  endfacet
  facet normal 0.93448 -0.356015 0
    outer loop
      vertex 35.3564 -170.426 1.90735e-06
      vertex 35.9572 -168.849 0
      vertex 35.9572 -168.849 1.90735e-06
    endloop
  endfacet
  facet normal 0.93448 -0.356015 0
    outer loop
      vertex 35.9572 -168.849 0
      vertex 35.3564 -170.426 1.90735e-06
      vertex 35.3564 -170.426 0
    endloop
  endfacet
  facet normal 0.746013 -0.665931 0
    outer loop
      vertex 33.9835 -171.964 1.90735e-06
      vertex 35.3564 -170.426 0
      vertex 35.3564 -170.426 1.90735e-06
    endloop
  endfacet
  facet normal 0.746013 -0.665931 0
    outer loop
      vertex 35.3564 -170.426 0
      vertex 33.9835 -171.964 1.90735e-06
      vertex 33.9835 -171.964 0
    endloop
  endfacet
  facet normal 0.689813 -0.723987 0
    outer loop
      vertex 32.4984 -173.379 0
      vertex 33.9835 -171.964 1.90735e-06
      vertex 32.4984 -173.379 1.90735e-06
    endloop
  endfacet
  facet normal 0.689813 -0.723987 0
    outer loop
      vertex 33.9835 -171.964 1.90735e-06
      vertex 32.4984 -173.379 0
      vertex 33.9835 -171.964 0
    endloop
  endfacet
  facet normal 0.807911 -0.589304 0
    outer loop
      vertex 32.4984 -173.379 0
      vertex 31.6231 -174.579 1.90735e-06
      vertex 31.6231 -174.579 0
    endloop
  endfacet
  facet normal 0.807911 -0.589304 0
    outer loop
      vertex 31.6231 -174.579 1.90735e-06
      vertex 32.4984 -173.379 0
      vertex 32.4984 -173.379 1.90735e-06
    endloop
  endfacet
  facet normal 0.841653 -0.540019 0
    outer loop
      vertex 30.9802 -175.581 1.90735e-06
      vertex 31.6231 -174.579 0
      vertex 31.6231 -174.579 1.90735e-06
    endloop
  endfacet
  facet normal 0.841653 -0.540019 0
    outer loop
      vertex 31.6231 -174.579 0
      vertex 30.9802 -175.581 1.90735e-06
      vertex 30.9802 -175.581 0
    endloop
  endfacet
  facet normal 0.645661 -0.763624 0
    outer loop
      vertex 29.982 -176.425 0
      vertex 30.9802 -175.581 1.90735e-06
      vertex 29.982 -176.425 1.90735e-06
    endloop
  endfacet
  facet normal 0.645661 -0.763624 0
    outer loop
      vertex 30.9802 -175.581 1.90735e-06
      vertex 29.982 -176.425 0
      vertex 30.9802 -175.581 0
    endloop
  endfacet
  facet normal 0.621596 -0.783338 0
    outer loop
      vertex 29.982 -176.425 0
      vertex 28.2593 -177.792 1.90735e-06
      vertex 28.2593 -177.792 0
    endloop
  endfacet
  facet normal 0.621596 -0.783338 0
    outer loop
      vertex 29.982 -176.425 0
      vertex 29.982 -176.425 1.90735e-06
      vertex 28.2593 -177.792 1.90735e-06
    endloop
  endfacet
  facet normal 0.343981 -0.938976 0
    outer loop
      vertex 26.8453 -178.31 0
      vertex 28.2593 -177.792 1.90735e-06
      vertex 26.8453 -178.31 1.90735e-06
    endloop
  endfacet
  facet normal 0.343981 -0.938976 0
    outer loop
      vertex 28.2593 -177.792 1.90735e-06
      vertex 26.8453 -178.31 0
      vertex 28.2593 -177.792 0
    endloop
  endfacet
  facet normal 0.158383 -0.987378 0
    outer loop
      vertex 25 -178.606 0
      vertex 26.8453 -178.31 1.90735e-06
      vertex 25 -178.606 1.90735e-06
    endloop
  endfacet
  facet normal 0.158383 -0.987378 0
    outer loop
      vertex 26.8453 -178.31 1.90735e-06
      vertex 25 -178.606 0
      vertex 26.8453 -178.31 0
    endloop
  endfacet
  facet normal 0.99376 0.0696378 0.0871299
    outer loop
      vertex 38.4333 -143.2 1.01281
      vertex 39.0731 -151.063 1.90735e-06
      vertex 38.5221 -143.2 1.90735e-06
    endloop
  endfacet
  facet normal 0.99376 0.0696375 0.0871318
    outer loop
      vertex 39.0731 -151.063 1.90735e-06
      vertex 38.4333 -143.2 1.01281
      vertex 38.834 -151.086 2.74538
    endloop
  endfacet
  facet normal 0.993764 0.0696291 0.0870925
    outer loop
      vertex 38.834 -151.086 2.74538
      vertex 38.4333 -143.2 1.01281
      vertex 38.2715 -143.2 2.85902
    endloop
  endfacet
  facet normal 0.977413 -0.194108 0.0835834
    outer loop
      vertex 37.4214 -159.38 1.90735e-06
      vertex 39.0731 -151.063 1.90735e-06
      vertex 37.2056 -159.4 2.47709
    endloop
  endfacet
  facet normal 0.977415 -0.194133 0.0834985
    outer loop
      vertex 39.0731 -151.063 1.90735e-06
      vertex 38.834 -151.086 2.74538
      vertex 37.2056 -159.4 2.47709
    endloop
  endfacet
  facet normal 0.992397 -0.0883288 0.0857131
    outer loop
      vertex 37.1162 -162.809 1.90735e-06
      vertex 37.4214 -159.38 1.90735e-06
      vertex 36.9131 -162.828 2.33194
    endloop
  endfacet
  facet normal 0.992396 -0.0883085 0.085743
    outer loop
      vertex 37.4214 -159.38 1.90735e-06
      vertex 37.2056 -159.4 2.47709
      vertex 36.9131 -162.828 2.33194
    endloop
  endfacet
  facet normal 0.985823 -0.144845 0.0846923
    outer loop
      vertex 36.6522 -165.967 1.90735e-06
      vertex 37.1162 -162.809 1.90735e-06
      vertex 36.4574 -165.985 2.2367
    endloop
  endfacet
  facet normal 0.985823 -0.144854 0.0846799
    outer loop
      vertex 37.1162 -162.809 1.90735e-06
      vertex 36.9131 -162.828 2.33194
      vertex 36.4574 -165.985 2.2367
    endloop
  endfacet
  facet normal 0.968824 -0.233634 0.0824384
    outer loop
      vertex 35.9572 -168.849 1.90735e-06
      vertex 36.6522 -165.967 1.90735e-06
      vertex 35.777 -168.866 2.06955
    endloop
  endfacet
  facet normal 0.968828 -0.233593 0.082498
    outer loop
      vertex 36.6522 -165.967 1.90735e-06
      vertex 36.4574 -165.985 2.2367
      vertex 35.777 -168.866 2.06955
    endloop
  endfacet
  facet normal 0.931616 -0.354924 0.0782311
    outer loop
      vertex 35.3564 -170.426 1.90735e-06
      vertex 35.9572 -168.849 1.90735e-06
      vertex 35.1874 -170.442 1.93995
    endloop
  endfacet
  facet normal 0.931607 -0.354956 0.0782013
    outer loop
      vertex 35.9572 -168.849 1.90735e-06
      vertex 35.777 -168.866 2.06955
      vertex 35.1874 -170.442 1.93995
    endloop
  endfacet
  facet normal 0.744711 -0.664769 0.0590573
    outer loop
      vertex 33.9835 -171.964 1.90735e-06
      vertex 35.3564 -170.426 1.90735e-06
      vertex 33.8436 -171.978 1.60655
    endloop
  endfacet
  facet normal 0.74487 -0.664559 0.0594089
    outer loop
      vertex 35.3564 -170.426 1.90735e-06
      vertex 35.1874 -170.442 1.93995
      vertex 33.8436 -171.978 1.60655
    endloop
  endfacet
  facet normal 0.688793 -0.722917 0.0543589
    outer loop
      vertex 32.4984 -173.379 1.90735e-06
      vertex 33.9835 -171.964 1.90735e-06
      vertex 32.3868 -173.389 1.28112
    endloop
  endfacet
  facet normal 0.688513 -0.723236 0.053654
    outer loop
      vertex 33.9835 -171.964 1.90735e-06
      vertex 33.8436 -171.978 1.60655
      vertex 32.3868 -173.389 1.28112
    endloop
  endfacet
  facet normal 0.806185 -0.588045 0.0653296
    outer loop
      vertex 31.6231 -174.579 1.90735e-06
      vertex 32.4984 -173.379 1.90735e-06
      vertex 31.5278 -174.588 1.09502
    endloop
  endfacet
  facet normal 0.806302 -0.587849 0.0656496
    outer loop
      vertex 32.4984 -173.379 1.90735e-06
      vertex 32.3868 -173.389 1.28112
      vertex 31.5278 -174.588 1.09502
    endloop
  endfacet
  facet normal 0.839659 -0.538739 0.0687976
    outer loop
      vertex 30.9802 -175.581 1.90735e-06
      vertex 31.6231 -174.579 1.90735e-06
      vertex 30.8933 -175.589 0.99795
    endloop
  endfacet
  facet normal 0.8396 -0.538851 0.068642
    outer loop
      vertex 31.6231 -174.579 1.90735e-06
      vertex 31.5278 -174.588 1.09502
      vertex 30.8933 -175.589 0.99795
    endloop
  endfacet
  facet normal 0.644857 -0.762673 0.0498902
    outer loop
      vertex 29.982 -176.425 1.90735e-06
      vertex 30.9802 -175.581 1.90735e-06
      vertex 29.9074 -176.432 0.857237
    endloop
  endfacet
  facet normal 0.644927 -0.762604 0.050046
    outer loop
      vertex 30.9802 -175.581 1.90735e-06
      vertex 30.8933 -175.589 0.99795
      vertex 29.9074 -176.432 0.857237
    endloop
  endfacet
  facet normal 0.620898 -0.782458 0.0473802
    outer loop
      vertex 28.2593 -177.792 1.90735e-06
      vertex 29.982 -176.425 1.90735e-06
      vertex 28.2085 -177.797 0.583143
    endloop
  endfacet
  facet normal 0.620945 -0.782405 0.0476481
    outer loop
      vertex 29.982 -176.425 1.90735e-06
      vertex 29.9074 -176.432 0.857237
      vertex 28.2085 -177.797 0.583143
    endloop
  endfacet
  facet normal 0.343879 -0.938696 0.024417
    outer loop
      vertex 26.8453 -178.31 1.90735e-06
      vertex 28.2593 -177.792 1.90735e-06
      vertex 26.8157 -178.312 0.339987
    endloop
  endfacet
  facet normal 0.343367 -0.938947 0.0218615
    outer loop
      vertex 28.2593 -177.792 1.90735e-06
      vertex 28.2085 -177.797 0.583143
      vertex 26.8157 -178.312 0.339987
    endloop
  endfacet
  facet normal 0.158383 -0.987378 0
    outer loop
      vertex 26.8453 -178.31 1.90735e-06
      vertex 25 -178.606 0.0163733
      vertex 25 -178.606 1.90735e-06
    endloop
  endfacet
  facet normal 0.158447 -0.987335 0.00798669
    outer loop
      vertex 25 -178.606 0.0163733
      vertex 26.8453 -178.31 1.90735e-06
      vertex 26.8157 -178.312 0.339987
    endloop
  endfacet
  facet normal 0.963749 0.0650142 0.258769
    outer loop
      vertex 38.01 -143.2 3.83294
      vertex 38.834 -151.086 2.74538
      vertex 38.2715 -143.2 2.85902
    endloop
  endfacet
  facet normal 0.96376 0.0650211 0.258727
    outer loop
      vertex 38.834 -151.086 2.74538
      vertex 38.01 -143.2 3.83294
      vertex 38.1239 -151.153 5.40734
    endloop
  endfacet
  facet normal 0.963756 0.0650232 0.258738
    outer loop
      vertex 38.1239 -151.153 5.40734
      vertex 38.01 -143.2 3.83294
      vertex 37.5267 -143.2 5.63315
    endloop
  endfacet
  facet normal 0.949072 -0.193901 0.248326
    outer loop
      vertex 37.2056 -159.4 2.47709
      vertex 38.834 -151.086 2.74538
      vertex 36.5649 -159.46 4.87892
    endloop
  endfacet
  facet normal 0.949078 -0.193911 0.248294
    outer loop
      vertex 38.834 -151.086 2.74538
      vertex 38.1239 -151.153 5.40734
      vertex 36.5649 -159.46 4.87892
    endloop
  endfacet
  facet normal 0.962611 -0.0929108 0.254457
    outer loop
      vertex 36.9131 -162.828 2.33194
      vertex 37.2056 -159.4 2.47709
      vertex 36.3099 -162.885 4.59303
    endloop
  endfacet
  facet normal 0.96261 -0.0929089 0.25446
    outer loop
      vertex 37.2056 -159.4 2.47709
      vertex 36.5649 -159.46 4.87892
      vertex 36.3099 -162.885 4.59303
    endloop
  endfacet
  facet normal 0.956819 -0.145701 0.251533
    outer loop
      vertex 36.4574 -165.985 2.2367
      vertex 36.9131 -162.828 2.33194
      vertex 35.8789 -166.04 4.40543
    endloop
  endfacet
  facet normal 0.956811 -0.145668 0.25158
    outer loop
      vertex 36.9131 -162.828 2.33194
      vertex 36.3099 -162.885 4.59303
      vertex 35.8789 -166.04 4.40543
    endloop
  endfacet
  facet normal 0.940304 -0.236281 0.24495
    outer loop
      vertex 35.777 -168.866 2.06955
      vertex 36.4574 -165.985 2.2367
      vertex 35.2417 -168.916 4.07621
    endloop
  endfacet
  facet normal 0.940315 -0.23636 0.244831
    outer loop
      vertex 36.4574 -165.985 2.2367
      vertex 35.8789 -166.04 4.40543
      vertex 35.2417 -168.916 4.07621
    endloop
  endfacet
  facet normal 0.904539 -0.357508 0.232372
    outer loop
      vertex 35.1874 -170.442 1.93995
      vertex 35.777 -168.866 2.06955
      vertex 34.6856 -170.489 3.82096
    endloop
  endfacet
  facet normal 0.904542 -0.357491 0.232389
    outer loop
      vertex 35.777 -168.866 2.06955
      vertex 35.2417 -168.916 4.07621
      vertex 34.6856 -170.489 3.82096
    endloop
  endfacet
  facet normal 0.721683 -0.669533 0.17578
    outer loop
      vertex 33.8436 -171.978 1.60655
      vertex 35.1874 -170.442 1.93995
      vertex 33.428 -172.017 3.16429
    endloop
  endfacet
  facet normal 0.721687 -0.669525 0.175796
    outer loop
      vertex 35.1874 -170.442 1.93995
      vertex 34.6856 -170.489 3.82096
      vertex 33.428 -172.017 3.16429
    endloop
  endfacet
  facet normal 0.668193 -0.726679 0.159545
    outer loop
      vertex 32.3868 -173.389 1.28112
      vertex 33.8436 -171.978 1.60655
      vertex 32.0554 -173.421 2.52331
    endloop
  endfacet
  facet normal 0.668303 -0.726454 0.160113
    outer loop
      vertex 33.8436 -171.978 1.60655
      vertex 33.428 -172.017 3.16429
      vertex 32.0554 -173.421 2.52331
    endloop
  endfacet
  facet normal 0.782986 -0.591049 0.193889
    outer loop
      vertex 31.5278 -174.588 1.09502
      vertex 32.3868 -173.389 1.28112
      vertex 31.2445 -174.615 2.15677
    endloop
  endfacet
  facet normal 0.782946 -0.591182 0.19365
    outer loop
      vertex 32.3868 -173.389 1.28112
      vertex 32.0554 -173.421 2.52331
      vertex 31.2445 -174.615 2.15677
    endloop
  endfacet
  facet normal 0.817741 -0.538141 0.204216
    outer loop
      vertex 30.8933 -175.589 0.99795
      vertex 31.5278 -174.588 1.09502
      vertex 30.6352 -175.614 1.96558
    endloop
  endfacet
  facet normal 0.817802 -0.537929 0.20453
    outer loop
      vertex 31.5278 -174.588 1.09502
      vertex 31.2445 -174.615 2.15677
      vertex 30.6352 -175.614 1.96558
    endloop
  endfacet
  facet normal 0.630264 -0.761962 0.148934
    outer loop
      vertex 29.9074 -176.432 0.857237
      vertex 30.8933 -175.589 0.99795
      vertex 29.6856 -176.453 1.68842
    endloop
  endfacet
  facet normal 0.630114 -0.762194 0.148381
    outer loop
      vertex 30.8933 -175.589 0.99795
      vertex 30.6352 -175.614 1.96558
      vertex 29.6856 -176.453 1.68842
    endloop
  endfacet
  facet normal 0.605927 -0.782704 0.142222
    outer loop
      vertex 28.2085 -177.797 0.583143
      vertex 29.9074 -176.432 0.857237
      vertex 28.0577 -177.811 1.14857
    endloop
  endfacet
  facet normal 0.605922 -0.782764 0.141913
    outer loop
      vertex 29.9074 -176.432 0.857237
      vertex 29.6856 -176.453 1.68842
      vertex 28.0577 -177.811 1.14857
    endloop
  endfacet
  facet normal 0.336249 -0.939595 0.0640064
    outer loop
      vertex 26.8157 -178.312 0.339987
      vertex 28.2085 -177.797 0.583143
      vertex 26.7278 -178.321 0.669641
    endloop
  endfacet
  facet normal 0.336322 -0.9394 0.066438
    outer loop
      vertex 28.2085 -177.797 0.583143
      vertex 28.0577 -177.811 1.14857
      vertex 26.7278 -178.321 0.669641
    endloop
  endfacet
  facet normal 0.157356 -0.987428 0.0149998
    outer loop
      vertex 25 -178.606 0.0338056
      vertex 26.8157 -178.312 0.339987
      vertex 26.7278 -178.321 0.669641
    endloop
  endfacet
  facet normal 0.159839 -0.987143 0
    outer loop
      vertex 26.8157 -178.312 0.339987
      vertex 25 -178.606 0.0338056
      vertex 25 -178.606 0.0163733
    endloop
  endfacet
  facet normal 0.904652 0.0559363 0.422465
    outer loop
      vertex 37.1075 -143.2 6.53081
      vertex 38.1239 -151.153 5.40734
      vertex 37.5267 -143.2 5.63315
    endloop
  endfacet
  facet normal 0.904671 0.055945 0.422421
    outer loop
      vertex 38.1239 -151.153 5.40734
      vertex 37.1075 -143.2 6.53081
      vertex 36.9644 -151.262 7.905
    endloop
  endfacet
  facet normal 0.904673 0.0559444 0.422418
    outer loop
      vertex 36.9644 -151.262 7.905
      vertex 37.1075 -143.2 6.53081
      vertex 36.3095 -143.2 8.23985
    endloop
  endfacet
  facet normal 0.89311 -0.193447 0.406119
    outer loop
      vertex 36.5649 -159.46 4.87892
      vertex 38.1239 -151.153 5.40734
      vertex 35.5187 -159.559 7.1325
    endloop
  endfacet
  facet normal 0.893093 -0.193432 0.406163
    outer loop
      vertex 38.1239 -151.153 5.40734
      vertex 36.9644 -151.262 7.905
      vertex 35.5187 -159.559 7.1325
    endloop
  endfacet
  facet normal 0.903997 -0.101962 0.415202
    outer loop
      vertex 36.3099 -162.885 4.59303
      vertex 36.5649 -159.46 4.87892
      vertex 35.325 -162.978 6.71456
    endloop
  endfacet
  facet normal 0.904001 -0.101969 0.415193
    outer loop
      vertex 36.5649 -159.46 4.87892
      vertex 35.5187 -159.559 7.1325
      vertex 35.325 -162.978 6.71456
    endloop
  endfacet
  facet normal 0.899567 -0.147338 0.411183
    outer loop
      vertex 35.8789 -166.04 4.40543
      vertex 36.3099 -162.885 4.59303
      vertex 34.9342 -166.129 6.44031
    endloop
  endfacet
  facet normal 0.899575 -0.147355 0.411159
    outer loop
      vertex 36.3099 -162.885 4.59303
      vertex 35.325 -162.978 6.71456
      vertex 34.9342 -166.129 6.44031
    endloop
  endfacet
  facet normal 0.884163 -0.241661 0.39982
    outer loop
      vertex 35.2417 -168.916 4.07621
      vertex 35.8789 -166.04 4.40543
      vertex 34.3676 -168.999 5.95903
    endloop
  endfacet
  facet normal 0.884142 -0.241609 0.399898
    outer loop
      vertex 35.8789 -166.04 4.40543
      vertex 34.9342 -166.129 6.44031
      vertex 34.3676 -168.999 5.95903
    endloop
  endfacet
  facet normal 0.851259 -0.362509 0.379401
    outer loop
      vertex 34.6856 -170.489 3.82096
      vertex 35.2417 -168.916 4.07621
      vertex 33.8662 -170.566 5.58587
    endloop
  endfacet
  facet normal 0.851267 -0.362688 0.379213
    outer loop
      vertex 35.2417 -168.916 4.07621
      vertex 34.3676 -168.999 5.95903
      vertex 33.8662 -170.566 5.58587
    endloop
  endfacet
  facet normal 0.676674 -0.679144 0.284386
    outer loop
      vertex 33.428 -172.017 3.16429
      vertex 34.6856 -170.489 3.82096
      vertex 32.7495 -172.081 4.62589
    endloop
  endfacet
  facet normal 0.67668 -0.679075 0.284537
    outer loop
      vertex 34.6856 -170.489 3.82096
      vertex 33.8662 -170.566 5.58587
      vertex 32.7495 -172.081 4.62589
    endloop
  endfacet
  facet normal 0.628594 -0.733096 0.259694
    outer loop
      vertex 32.0554 -173.421 2.52331
      vertex 33.428 -172.017 3.16429
      vertex 31.5144 -173.472 3.68884
    endloop
  endfacet
  facet normal 0.628594 -0.733092 0.259704
    outer loop
      vertex 33.428 -172.017 3.16429
      vertex 32.7495 -172.081 4.62589
      vertex 31.5144 -173.472 3.68884
    endloop
  endfacet
  facet normal 0.73684 -0.597518 0.316291
    outer loop
      vertex 31.2445 -174.615 2.15677
      vertex 32.0554 -173.421 2.52331
      vertex 30.782 -174.658 3.15299
    endloop
  endfacet
  facet normal 0.736843 -0.59774 0.315863
    outer loop
      vertex 32.0554 -173.421 2.52331
      vertex 31.5144 -173.472 3.68884
      vertex 30.782 -174.658 3.15299
    endloop
  endfacet
  facet normal 0.774028 -0.53645 0.336305
    outer loop
      vertex 30.6352 -175.614 1.96558
      vertex 31.2445 -174.615 2.15677
      vertex 30.2137 -175.653 2.87348
    endloop
  endfacet
  facet normal 0.774025 -0.536529 0.336187
    outer loop
      vertex 31.2445 -174.615 2.15677
      vertex 30.782 -174.658 3.15299
      vertex 30.2137 -175.653 2.87348
    endloop
  endfacet
  facet normal 0.600593 -0.760899 0.245604
    outer loop
      vertex 29.6856 -176.453 1.68842
      vertex 30.6352 -175.614 1.96558
      vertex 29.3236 -176.487 2.46831
    endloop
  endfacet
  facet normal 0.600657 -0.760661 0.246185
    outer loop
      vertex 30.6352 -175.614 1.96558
      vertex 30.2137 -175.653 2.87348
      vertex 29.3236 -176.487 2.46831
    endloop
  endfacet
  facet normal 0.576054 -0.783358 0.233478
    outer loop
      vertex 28.0577 -177.811 1.14857
      vertex 29.6856 -176.453 1.68842
      vertex 27.8114 -177.834 1.67909
    endloop
  endfacet
  facet normal 0.576087 -0.783402 0.233248
    outer loop
      vertex 29.6856 -176.453 1.68842
      vertex 29.3236 -176.487 2.46831
      vertex 27.8114 -177.834 1.67909
    endloop
  endfacet
  facet normal 0.321247 -0.940631 0.109609
    outer loop
      vertex 26.7278 -178.321 0.669641
      vertex 28.0577 -177.811 1.14857
      vertex 26.5842 -178.334 0.978949
    endloop
  endfacet
  facet normal 0.321411 -0.940711 0.108435
    outer loop
      vertex 28.0577 -177.811 1.14857
      vertex 27.8114 -177.834 1.67909
      vertex 26.5842 -178.334 0.978949
    endloop
  endfacet
  facet normal 0.15203 -0.987949 0.029059
    outer loop
      vertex 25 -178.605 0.0536535
      vertex 26.7278 -178.321 0.669641
      vertex 26.5842 -178.334 0.978949
    endloop
  endfacet
  facet normal 0.144684 -0.988224 0.0497899
    outer loop
      vertex 26.7278 -178.321 0.669641
      vertex 25 -178.605 0.0536535
      vertex 25 -178.606 0.0338056
    endloop
  endfacet
  facet normal 0.818287 0.0426634 0.573224
    outer loop
      vertex 35.7564 -143.2 9.02941
      vertex 36.9644 -151.262 7.905
      vertex 36.3095 -143.2 8.23985
    endloop
  endfacet
  facet normal 0.818262 0.0426545 0.573261
    outer loop
      vertex 36.9644 -151.262 7.905
      vertex 35.7564 -143.2 9.02941
      vertex 35.3906 -151.411 10.1625
    endloop
  endfacet
  facet normal 0.818279 0.0426503 0.573236
    outer loop
      vertex 35.3906 -151.411 10.1625
      vertex 35.7564 -143.2 9.02941
      vertex 34.6553 -143.2 10.6012
    endloop
  endfacet
  facet normal 0.810852 -0.192737 0.552604
    outer loop
      vertex 35.5187 -159.559 7.1325
      vertex 36.9644 -151.262 7.905
      vertex 34.0987 -159.693 9.16937
    endloop
  endfacet
  facet normal 0.810872 -0.192748 0.552572
    outer loop
      vertex 36.9644 -151.262 7.905
      vertex 35.3906 -151.411 10.1625
      vertex 34.0987 -159.693 9.16937
    endloop
  endfacet
  facet normal 0.818402 -0.115185 0.562984
    outer loop
      vertex 35.325 -162.978 6.71456
      vertex 35.5187 -159.559 7.1325
      vertex 33.9882 -163.104 8.63207
    endloop
  endfacet
  facet normal 0.818408 -0.115192 0.562973
    outer loop
      vertex 35.5187 -159.559 7.1325
      vertex 34.0987 -159.693 9.16937
      vertex 33.9882 -163.104 8.63207
    endloop
  endfacet
  facet normal 0.815669 -0.149797 0.558789
    outer loop
      vertex 34.9342 -166.129 6.44031
      vertex 35.325 -162.978 6.71456
      vertex 33.652 -166.25 8.27951
    endloop
  endfacet
  facet normal 0.815663 -0.149789 0.5588
    outer loop
      vertex 35.325 -162.978 6.71456
      vertex 33.9882 -163.104 8.63207
      vertex 33.652 -166.25 8.27951
    endloop
  endfacet
  facet normal 0.802054 -0.249352 0.542709
    outer loop
      vertex 34.3676 -168.999 5.95903
      vertex 34.9342 -166.129 6.44031
      vertex 33.1813 -169.111 7.66077
    endloop
  endfacet
  facet normal 0.80204 -0.249331 0.54274
    outer loop
      vertex 34.9342 -166.129 6.44031
      vertex 33.652 -166.25 8.27951
      vertex 33.1813 -169.111 7.66077
    endloop
  endfacet
  facet normal 0.773367 -0.37004 0.514757
    outer loop
      vertex 33.8662 -170.566 5.58587
      vertex 34.3676 -168.999 5.95903
      vertex 32.7542 -170.671 7.18105
    endloop
  endfacet
  facet normal 0.773365 -0.370031 0.514767
    outer loop
      vertex 34.3676 -168.999 5.95903
      vertex 33.1813 -169.111 7.66077
      vertex 32.7542 -170.671 7.18105
    endloop
  endfacet
  facet normal 0.612207 -0.692769 0.381147
    outer loop
      vertex 32.7495 -172.081 4.62589
      vertex 33.8662 -170.566 5.58587
      vertex 31.8286 -172.168 5.94693
    endloop
  endfacet
  facet normal 0.612204 -0.692761 0.381168
    outer loop
      vertex 33.8662 -170.566 5.58587
      vertex 32.7542 -170.671 7.18105
      vertex 31.8286 -172.168 5.94693
    endloop
  endfacet
  facet normal 0.571195 -0.74266 0.349561
    outer loop
      vertex 31.5144 -173.472 3.68884
      vertex 32.7495 -172.081 4.62589
      vertex 30.78 -173.541 4.74228
    endloop
  endfacet
  facet normal 0.571243 -0.742746 0.3493
    outer loop
      vertex 32.7495 -172.081 4.62589
      vertex 31.8286 -172.168 5.94693
      vertex 30.78 -173.541 4.74228
    endloop
  endfacet
  facet normal 0.670095 -0.6069 0.427369
    outer loop
      vertex 30.782 -174.658 3.15299
      vertex 31.5144 -173.472 3.68884
      vertex 30.1543 -174.717 4.05341
    endloop
  endfacet
  facet normal 0.67009 -0.606885 0.427399
    outer loop
      vertex 31.5144 -173.472 3.68884
      vertex 30.78 -173.541 4.74228
      vertex 30.1543 -174.717 4.05341
    endloop
  endfacet
  facet normal 0.709533 -0.534313 0.459426
    outer loop
      vertex 30.2137 -175.653 2.87348
      vertex 30.782 -174.658 3.15299
      vertex 29.6417 -175.707 3.69407
    endloop
  endfacet
  facet normal 0.709507 -0.534191 0.459608
    outer loop
      vertex 30.782 -174.658 3.15299
      vertex 30.1543 -174.717 4.05341
      vertex 29.6417 -175.707 3.69407
    endloop
  endfacet
  facet normal 0.556677 -0.758605 0.338571
    outer loop
      vertex 29.3236 -176.487 2.46831
      vertex 30.2137 -175.653 2.87348
      vertex 28.8322 -176.533 3.1732
    endloop
  endfacet
  facet normal 0.556697 -0.758792 0.338118
    outer loop
      vertex 30.2137 -175.653 2.87348
      vertex 29.6417 -175.707 3.69407
      vertex 28.8322 -176.533 3.1732
    endloop
  endfacet
  facet normal 0.531607 -0.784248 0.319919
    outer loop
      vertex 27.8114 -177.834 1.67909
      vertex 29.3236 -176.487 2.46831
      vertex 27.4771 -177.865 2.1586
    endloop
  endfacet
  facet normal 0.531737 -0.784329 0.319505
    outer loop
      vertex 29.3236 -176.487 2.46831
      vertex 28.8322 -176.533 3.1732
      vertex 27.4771 -177.865 2.1586
    endloop
  endfacet
  facet normal 0.300867 -0.94247 0.1457
    outer loop
      vertex 26.5842 -178.334 0.978949
      vertex 27.8114 -177.834 1.67909
      vertex 26.3893 -178.353 1.25851
    endloop
  endfacet
  facet normal 0.300056 -0.942328 0.148269
    outer loop
      vertex 27.8114 -177.834 1.67909
      vertex 27.4771 -177.865 2.1586
      vertex 26.3893 -178.353 1.25851
    endloop
  endfacet
  facet normal 0.148412 -0.988259 0.0363017
    outer loop
      vertex 25 -178.605 0.0780504
      vertex 26.5842 -178.334 0.978949
      vertex 26.3893 -178.353 1.25851
    endloop
  endfacet
  facet normal 0.168615 -0.985682 0
    outer loop
      vertex 26.5842 -178.334 0.978949
      vertex 25 -178.605 0.0780504
      vertex 25 -178.605 0.0536535
    endloop
  endfacet
  facet normal 0.707252 0.0255878 0.706499
    outer loop
      vertex 33.9987 -143.2 11.2585
      vertex 35.3906 -151.411 10.1625
      vertex 34.6553 -143.2 10.6012
    endloop
  endfacet
  facet normal 0.707252 0.025588 0.706498
    outer loop
      vertex 35.3906 -151.411 10.1625
      vertex 33.9987 -143.2 11.2585
      vertex 33.4506 -151.594 12.1112
    endloop
  endfacet
  facet normal 0.707232 0.0255914 0.706518
    outer loop
      vertex 33.4506 -151.594 12.1112
      vertex 33.9987 -143.2 11.2585
      vertex 32.6124 -143.2 12.6462
    endloop
  endfacet
  facet normal 0.704464 -0.191829 0.683325
    outer loop
      vertex 34.0987 -159.693 9.16937
      vertex 35.3906 -151.411 10.1625
      vertex 32.3483 -159.858 10.9276
    endloop
  endfacet
  facet normal 0.704473 -0.191833 0.683313
    outer loop
      vertex 35.3906 -151.411 10.1625
      vertex 33.4506 -151.594 12.1112
      vertex 32.3483 -159.858 10.9276
    endloop
  endfacet
  facet normal 0.708659 -0.132129 0.693068
    outer loop
      vertex 33.9882 -163.104 8.63207
      vertex 34.0987 -159.693 9.16937
      vertex 32.3403 -163.26 10.2873
    endloop
  endfacet
  facet normal 0.708642 -0.132115 0.693088
    outer loop
      vertex 34.0987 -159.693 9.16937
      vertex 32.3483 -159.858 10.9276
      vertex 32.3403 -163.26 10.2873
    endloop
  endfacet
  facet normal 0.707475 -0.15293 0.689994
    outer loop
      vertex 33.652 -166.25 8.27951
      vertex 33.9882 -163.104 8.63207
      vertex 32.0714 -166.399 9.86713
    endloop
  endfacet
  facet normal 0.707505 -0.152962 0.689956
    outer loop
      vertex 33.9882 -163.104 8.63207
      vertex 32.3403 -163.26 10.2873
      vertex 32.0714 -166.399 9.86713
    endloop
  endfacet
  facet normal 0.696504 -0.259288 0.669068
    outer loop
      vertex 33.1813 -169.111 7.66077
      vertex 33.652 -166.25 8.27951
      vertex 31.7188 -169.249 9.12976
    endloop
  endfacet
  facet normal 0.696495 -0.259279 0.669081
    outer loop
      vertex 33.652 -166.25 8.27951
      vertex 32.0714 -166.399 9.86713
      vertex 31.7188 -169.249 9.12976
    endloop
  endfacet
  facet normal 0.673196 -0.379478 0.634668
    outer loop
      vertex 32.7542 -170.671 7.18105
      vertex 33.1813 -169.111 7.66077
      vertex 31.3833 -170.8 8.55804
    endloop
  endfacet
  facet normal 0.673225 -0.379547 0.634596
    outer loop
      vertex 33.1813 -169.111 7.66077
      vertex 31.7188 -169.249 9.12976
      vertex 31.3833 -170.8 8.55804
    endloop
  endfacet
  facet normal 0.531381 -0.709782 0.462432
    outer loop
      vertex 31.8286 -172.168 5.94693
      vertex 32.7542 -170.671 7.18105
      vertex 30.6933 -172.275 7.08727
    endloop
  endfacet
  facet normal 0.531353 -0.709751 0.462512
    outer loop
      vertex 32.7542 -170.671 7.18105
      vertex 31.3833 -170.8 8.55804
      vertex 30.6933 -172.275 7.08727
    endloop
  endfacet
  facet normal 0.498813 -0.754765 0.426046
    outer loop
      vertex 30.78 -173.541 4.74228
      vertex 31.8286 -172.168 5.94693
      vertex 29.8747 -173.626 5.65162
    endloop
  endfacet
  facet normal 0.498887 -0.754824 0.425855
    outer loop
      vertex 31.8286 -172.168 5.94693
      vertex 30.6933 -172.275 7.08727
      vertex 29.8747 -173.626 5.65162
    endloop
  endfacet
  facet normal 0.585133 -0.61853 0.524443
    outer loop
      vertex 30.1543 -174.717 4.05341
      vertex 30.78 -173.541 4.74228
      vertex 29.3805 -174.79 4.83066
    endloop
  endfacet
  facet normal 0.585056 -0.618428 0.524649
    outer loop
      vertex 30.78 -173.541 4.74228
      vertex 29.8747 -173.626 5.65162
      vertex 29.3805 -174.79 4.83066
    endloop
  endfacet
  facet normal 0.624967 -0.531223 0.57203
    outer loop
      vertex 29.6417 -175.707 3.69407
      vertex 30.1543 -174.717 4.05341
      vertex 28.9364 -175.774 4.40242
    endloop
  endfacet
  facet normal 0.624898 -0.531073 0.572245
    outer loop
      vertex 30.1543 -174.717 4.05341
      vertex 29.3805 -174.79 4.83066
      vertex 28.9364 -175.774 4.40242
    endloop
  endfacet
  facet normal 0.49847 -0.756021 0.424218
    outer loop
      vertex 28.8322 -176.533 3.1732
      vertex 29.6417 -175.707 3.69407
      vertex 28.2264 -176.591 3.78167
    endloop
  endfacet
  facet normal 0.498365 -0.755802 0.42473
    outer loop
      vertex 29.6417 -175.707 3.69407
      vertex 28.9364 -175.774 4.40242
      vertex 28.2264 -176.591 3.78167
    endloop
  endfacet
  facet normal 0.47406 -0.785421 0.397972
    outer loop
      vertex 27.4771 -177.865 2.1586
      vertex 28.8322 -176.533 3.1732
      vertex 27.065 -177.904 2.57252
    endloop
  endfacet
  facet normal 0.47435 -0.78554 0.39739
    outer loop
      vertex 28.8322 -176.533 3.1732
      vertex 28.2264 -176.591 3.78167
      vertex 27.065 -177.904 2.57252
    endloop
  endfacet
  facet normal 0.271424 -0.944679 0.184147
    outer loop
      vertex 26.3893 -178.353 1.25851
      vertex 27.4771 -177.865 2.1586
      vertex 26.149 -178.375 1.49984
    endloop
  endfacet
  facet normal 0.272421 -0.944769 0.182206
    outer loop
      vertex 27.4771 -177.865 2.1586
      vertex 27.065 -177.904 2.57252
      vertex 26.149 -178.375 1.49984
    endloop
  endfacet
  facet normal 0.138544 -0.989203 0.0477755
    outer loop
      vertex 25 -178.603 0.111026
      vertex 26.3893 -178.353 1.25851
      vertex 26.149 -178.375 1.49984
    endloop
  endfacet
  facet normal 0.128539 -0.989885 0.0600374
    outer loop
      vertex 26.3893 -178.353 1.25851
      vertex 25 -178.603 0.111026
      vertex 25 -178.605 0.0780504
    endloop
  endfacet
  facet normal 0.574907 0.00525959 0.818202
    outer loop
      vertex 31.887 -143.2 13.1559
      vertex 33.4506 -151.594 12.1112
      vertex 32.6124 -143.2 12.6462
    endloop
  endfacet
  facet normal 0.57494 0.00526867 0.818179
    outer loop
      vertex 33.4506 -151.594 12.1112
      vertex 31.887 -143.2 13.1559
      vertex 31.2031 -151.806 13.6919
    endloop
  endfacet
  facet normal 0.574941 0.00526854 0.818178
    outer loop
      vertex 31.2031 -151.806 13.6919
      vertex 31.887 -143.2 13.1559
      vertex 30.2408 -143.2 14.3127
    endloop
  endfacet
  facet normal 0.57669 -0.190698 0.794395
    outer loop
      vertex 32.3483 -159.858 10.9276
      vertex 33.4506 -151.594 12.1112
      vertex 30.3204 -160.049 12.3539
    endloop
  endfacet
  facet normal 0.576695 -0.1907 0.794391
    outer loop
      vertex 33.4506 -151.594 12.1112
      vertex 31.2031 -151.806 13.6919
      vertex 30.3204 -160.049 12.3539
    endloop
  endfacet
  facet normal 0.578159 -0.15223 0.801597
    outer loop
      vertex 32.3403 -163.26 10.2873
      vertex 32.3483 -159.858 10.9276
      vertex 30.4313 -163.44 11.63
    endloop
  endfacet
  facet normal 0.578141 -0.152218 0.801612
    outer loop
      vertex 30.4313 -163.44 11.63
      vertex 32.3483 -159.858 10.9276
      vertex 30.3204 -160.049 12.3539
    endloop
  endfacet
  facet normal 0.578037 -0.156711 0.800822
    outer loop
      vertex 32.0714 -166.399 9.86713
      vertex 32.3403 -163.26 10.2873
      vertex 30.2404 -166.572 11.1549
    endloop
  endfacet
  facet normal 0.578036 -0.156711 0.800822
    outer loop
      vertex 32.3403 -163.26 10.2873
      vertex 30.4313 -163.44 11.63
      vertex 30.2404 -166.572 11.1549
    endloop
  endfacet
  facet normal 0.57062 -0.271151 0.775158
    outer loop
      vertex 31.7188 -169.249 9.12976
      vertex 32.0714 -166.399 9.86713
      vertex 30.0246 -169.408 10.3213
    endloop
  endfacet
  facet normal 0.570729 -0.271242 0.775046
    outer loop
      vertex 32.0714 -166.399 9.86713
      vertex 30.2404 -166.572 11.1549
      vertex 30.0246 -169.408 10.3213
    endloop
  endfacet
  facet normal 0.55395 -0.390804 0.735127
    outer loop
      vertex 31.3833 -170.8 8.55804
      vertex 31.7188 -169.249 9.12976
      vertex 29.7952 -170.95 9.675
    endloop
  endfacet
  facet normal 0.553822 -0.390593 0.735335
    outer loop
      vertex 31.7188 -169.249 9.12976
      vertex 30.0246 -169.408 10.3213
      vertex 29.7952 -170.95 9.675
    endloop
  endfacet
  facet normal 0.438375 -0.72912 0.525557
    outer loop
      vertex 30.6933 -172.275 7.08727
      vertex 31.3833 -170.8 8.55804
      vertex 29.3781 -172.399 8.01227
    endloop
  endfacet
  facet normal 0.438437 -0.729161 0.52545
    outer loop
      vertex 31.3833 -170.8 8.55804
      vertex 29.7952 -170.95 9.675
      vertex 29.3781 -172.399 8.01227
    endloop
  endfacet
  facet normal 0.414918 -0.768691 0.486783
    outer loop
      vertex 29.8747 -173.626 5.65162
      vertex 30.6933 -172.275 7.08727
      vertex 28.8259 -173.725 6.38925
    endloop
  endfacet
  facet normal 0.414879 -0.768671 0.486847
    outer loop
      vertex 30.6933 -172.275 7.08727
      vertex 29.3781 -172.399 8.01227
      vertex 28.8259 -173.725 6.38925
    endloop
  endfacet
  facet normal 0.484986 -0.632131 0.604317
    outer loop
      vertex 29.3805 -174.79 4.83066
      vertex 29.8747 -173.626 5.65162
      vertex 28.4841 -174.875 5.46114
    endloop
  endfacet
  facet normal 0.484846 -0.632011 0.604554
    outer loop
      vertex 29.8747 -173.626 5.65162
      vertex 28.8259 -173.725 6.38925
      vertex 28.4841 -174.875 5.46114
    endloop
  endfacet
  facet normal 0.521524 -0.527306 0.670792
    outer loop
      vertex 28.9364 -175.774 4.40242
      vertex 29.3805 -174.79 4.83066
      vertex 28.1195 -175.851 4.97701
    endloop
  endfacet
  facet normal 0.521649 -0.527487 0.670552
    outer loop
      vertex 29.3805 -174.79 4.83066
      vertex 28.4841 -174.875 5.46114
      vertex 28.1195 -175.851 4.97701
    endloop
  endfacet
  facet normal 0.425003 -0.752078 0.503738
    outer loop
      vertex 28.2264 -176.591 3.78167
      vertex 28.9364 -175.774 4.40242
      vertex 27.5246 -176.657 4.27524
    endloop
  endfacet
  facet normal 0.425077 -0.752168 0.50354
    outer loop
      vertex 28.9364 -175.774 4.40242
      vertex 28.1195 -175.851 4.97701
      vertex 27.5246 -176.657 4.27524
    endloop
  endfacet
  facet normal 0.402968 -0.786867 0.467394
    outer loop
      vertex 27.065 -177.904 2.57252
      vertex 28.2264 -176.591 3.78167
      vertex 26.5877 -177.949 2.90827
    endloop
  endfacet
  facet normal 0.402838 -0.786826 0.467575
    outer loop
      vertex 28.2264 -176.591 3.78167
      vertex 27.5246 -176.657 4.27524
      vertex 26.5877 -177.949 2.90827
    endloop
  endfacet
  facet normal 0.240257 -0.947526 0.210883
    outer loop
      vertex 26.149 -178.375 1.49984
      vertex 27.065 -177.904 2.57252
      vertex 25.8707 -178.402 1.69559
    endloop
  endfacet
  facet normal 0.238923 -0.947465 0.212664
    outer loop
      vertex 27.065 -177.904 2.57252
      vertex 26.5877 -177.949 2.90827
      vertex 25.8707 -178.402 1.69559
    endloop
  endfacet
  facet normal 0.132848 -0.989753 0.0523543
    outer loop
      vertex 25 -178.6 0.161808
      vertex 26.149 -178.375 1.49984
      vertex 25.8707 -178.402 1.69559
    endloop
  endfacet
  facet normal 0.125799 -0.990329 0.0585047
    outer loop
      vertex 26.149 -178.375 1.49984
      vertex 25 -178.6 0.161808
      vertex 25 -178.603 0.111026
    endloop
  endfacet
  facet normal 0.425431 -0.0176991 0.904818
    outer loop
      vertex 29.4828 -143.2 14.6691
      vertex 31.2031 -151.806 13.6919
      vertex 30.2408 -143.2 14.3127
    endloop
  endfacet
  facet normal 0.425422 -0.0177014 0.904822
    outer loop
      vertex 31.2031 -151.806 13.6919
      vertex 29.4828 -143.2 14.6691
      vertex 28.7164 -152.04 14.8565
    endloop
  endfacet
  facet normal 0.425477 -0.0177066 0.904796
    outer loop
      vertex 28.7164 -152.04 14.8565
      vertex 29.4828 -143.2 14.6691
      vertex 27.6108 -143.2 15.5494
    endloop
  endfacet
  facet normal 0.431084 -0.189364 0.882218
    outer loop
      vertex 30.3204 -160.049 12.3539
      vertex 31.2031 -151.806 13.6919
      vertex 28.0768 -160.261 13.4047
    endloop
  endfacet
  facet normal 0.431007 -0.189337 0.882261
    outer loop
      vertex 31.2031 -151.806 13.6919
      vertex 28.7164 -152.04 14.8565
      vertex 28.0768 -160.261 13.4047
    endloop
  endfacet
  facet normal 0.431048 -0.174877 0.88522
    outer loop
      vertex 30.4313 -163.44 11.63
      vertex 30.3204 -160.049 12.3539
      vertex 28.3191 -163.639 12.6192
    endloop
  endfacet
  facet normal 0.431108 -0.174913 0.885185
    outer loop
      vertex 28.3191 -163.639 12.6192
      vertex 30.3204 -160.049 12.3539
      vertex 28.0768 -160.261 13.4047
    endloop
  endfacet
  facet normal 0.431036 -0.160954 0.887864
    outer loop
      vertex 30.2404 -166.572 11.1549
      vertex 30.4313 -163.44 11.63
      vertex 28.2145 -166.763 12.1038
    endloop
  endfacet
  facet normal 0.430986 -0.160916 0.887895
    outer loop
      vertex 30.4313 -163.44 11.63
      vertex 28.3191 -163.639 12.6192
      vertex 28.2145 -166.763 12.1038
    endloop
  endfacet
  facet normal 0.428531 -0.284662 0.857513
    outer loop
      vertex 30.0246 -169.408 10.3213
      vertex 30.2404 -166.572 11.1549
      vertex 28.1501 -169.585 11.1993
    endloop
  endfacet
  facet normal 0.428494 -0.284635 0.857541
    outer loop
      vertex 30.2404 -166.572 11.1549
      vertex 28.2145 -166.763 12.1038
      vertex 28.1501 -169.585 11.1993
    endloop
  endfacet
  facet normal 0.419109 -0.403293 0.813451
    outer loop
      vertex 29.7952 -170.95 9.675
      vertex 30.0246 -169.408 10.3213
      vertex 28.0381 -171.116 10.498
    endloop
  endfacet
  facet normal 0.419099 -0.403279 0.813463
    outer loop
      vertex 30.0246 -169.408 10.3213
      vertex 28.1501 -169.585 11.1993
      vertex 28.0381 -171.116 10.498
    endloop
  endfacet
  facet normal 0.337126 -0.750023 0.569045
    outer loop
      vertex 29.3781 -172.399 8.01227
      vertex 29.7952 -170.95 9.675
      vertex 27.9229 -172.536 8.69382
    endloop
  endfacet
  facet normal 0.3373 -0.750101 0.568838
    outer loop
      vertex 29.7952 -170.95 9.675
      vertex 28.0381 -171.116 10.498
      vertex 27.9229 -172.536 8.69382
    endloop
  endfacet
  facet normal 0.322785 -0.783798 0.530538
    outer loop
      vertex 28.8259 -173.725 6.38925
      vertex 29.3781 -172.399 8.01227
      vertex 27.6655 -173.835 6.93274
    endloop
  endfacet
  facet normal 0.322441 -0.783678 0.530925
    outer loop
      vertex 29.3781 -172.399 8.01227
      vertex 27.9229 -172.536 8.69382
      vertex 27.6655 -173.835 6.93274
    endloop
  endfacet
  facet normal 0.372749 -0.647343 0.664834
    outer loop
      vertex 28.4841 -174.875 5.46114
      vertex 28.8259 -173.725 6.38925
      vertex 27.4923 -174.969 5.92568
    endloop
  endfacet
  facet normal 0.372749 -0.647344 0.664834
    outer loop
      vertex 28.8259 -173.725 6.38925
      vertex 27.6655 -173.835 6.93274
      vertex 27.4923 -174.969 5.92568
    endloop
  endfacet
  facet normal 0.40137 -0.522935 0.751958
    outer loop
      vertex 28.1195 -175.851 4.97701
      vertex 28.4841 -174.875 5.46114
      vertex 27.2156 -175.936 5.40037
    endloop
  endfacet
  facet normal 0.401632 -0.523228 0.751614
    outer loop
      vertex 28.4841 -174.875 5.46114
      vertex 27.4923 -174.969 5.92568
      vertex 27.2156 -175.936 5.40037
    endloop
  endfacet
  facet normal 0.338121 -0.747449 0.571834
    outer loop
      vertex 27.5246 -176.657 4.27524
      vertex 28.1195 -175.851 4.97701
      vertex 26.7482 -176.73 4.6389
    endloop
  endfacet
  facet normal 0.338119 -0.747448 0.571837
    outer loop
      vertex 28.1195 -175.851 4.97701
      vertex 27.2156 -175.936 5.40037
      vertex 26.7482 -176.73 4.6389
    endloop
  endfacet
  facet normal 0.320624 -0.788233 0.525252
    outer loop
      vertex 26.5877 -177.949 2.90827
      vertex 27.5246 -176.657 4.27524
      vertex 26.0595 -177.999 3.15566
    endloop
  endfacet
  facet normal 0.320286 -0.788145 0.525589
    outer loop
      vertex 27.5246 -176.657 4.27524
      vertex 26.7482 -176.73 4.6389
      vertex 26.0595 -177.999 3.15566
    endloop
  endfacet
  facet normal 0.200398 -0.950703 0.236652
    outer loop
      vertex 25.8707 -178.402 1.69559
      vertex 26.5877 -177.949 2.90827
      vertex 25.5628 -178.431 1.83982
    endloop
  endfacet
  facet normal 0.2007 -0.950711 0.236365
    outer loop
      vertex 26.5877 -177.949 2.90827
      vertex 26.0595 -177.999 3.15566
      vertex 25.5628 -178.431 1.83982
    endloop
  endfacet
  facet normal 0.120996 -0.990894 0.059064
    outer loop
      vertex 25 -178.594 0.258162
      vertex 25.8707 -178.402 1.69559
      vertex 25.5628 -178.431 1.83982
    endloop
  endfacet
  facet normal 0.116681 -0.991249 0.0617255
    outer loop
      vertex 25.8707 -178.402 1.69559
      vertex 25 -178.594 0.258162
      vertex 25 -178.6 0.161808
    endloop
  endfacet
  facet normal 0.263375 -0.0426015 0.963753
    outer loop
      vertex 26.8548 -143.2 15.756
      vertex 28.7164 -152.04 14.8565
      vertex 27.6108 -143.2 15.5494
    endloop
  endfacet
  facet normal 0.263418 -0.0425912 0.963741
    outer loop
      vertex 28.7164 -152.04 14.8565
      vertex 26.8548 -143.2 15.756
      vertex 26.0663 -152.29 15.5698
    endloop
  endfacet
  facet normal 0.263432 -0.0426009 0.963737
    outer loop
      vertex 25 -144.632 16.1997
      vertex 26.8548 -143.2 15.756
      vertex 25 -143.2 16.263
    endloop
  endfacet
  facet normal 0.263426 -0.0425918 0.963739
    outer loop
      vertex 26.8548 -143.2 15.756
      vertex 25 -144.632 16.1997
      vertex 26.0663 -152.29 15.5698
    endloop
  endfacet
  facet normal 0.271792 -0.187826 0.943849
    outer loop
      vertex 28.0768 -160.261 13.4047
      vertex 28.7164 -152.04 14.8565
      vertex 25.6856 -160.487 14.0483
    endloop
  endfacet
  facet normal 0.271766 -0.187818 0.943858
    outer loop
      vertex 28.7164 -152.04 14.8565
      vertex 26.0663 -152.29 15.5698
      vertex 25.6856 -160.487 14.0483
    endloop
  endfacet
  facet normal 0.272154 -0.19938 0.941371
    outer loop
      vertex 28.3191 -163.639 12.6192
      vertex 28.0768 -160.261 13.4047
      vertex 26.068 -163.851 13.2251
    endloop
  endfacet
  facet normal 0.272214 -0.199412 0.941347
    outer loop
      vertex 26.068 -163.851 13.2251
      vertex 28.0768 -160.261 13.4047
      vertex 25.6856 -160.487 14.0483
    endloop
  endfacet
  facet normal 0.270777 -0.165519 0.948306
    outer loop
      vertex 28.2145 -166.763 12.1038
      vertex 28.3191 -163.639 12.6192
      vertex 26.0553 -166.966 12.6849
    endloop
  endfacet
  facet normal 0.270829 -0.165555 0.948284
    outer loop
      vertex 28.3191 -163.639 12.6192
      vertex 26.068 -163.851 13.2251
      vertex 26.0553 -166.966 12.6849
    endloop
  endfacet
  facet normal 0.274283 -0.299188 0.913923
    outer loop
      vertex 28.1501 -169.585 11.1993
      vertex 28.2145 -166.763 12.1038
      vertex 26.1523 -169.774 11.737
    endloop
  endfacet
  facet normal 0.274104 -0.299076 0.914013
    outer loop
      vertex 26.1523 -169.774 11.737
      vertex 28.2145 -166.763 12.1038
      vertex 26.0553 -166.966 12.6849
    endloop
  endfacet
  facet normal 0.272751 -0.417086 0.866976
    outer loop
      vertex 28.0381 -171.116 10.498
      vertex 28.1501 -169.585 11.1993
      vertex 26.1654 -171.293 11.002
    endloop
  endfacet
  facet normal 0.272796 -0.417134 0.866938
    outer loop
      vertex 26.1654 -171.293 11.002
      vertex 28.1501 -169.585 11.1993
      vertex 26.1523 -169.774 11.737
    endloop
  endfacet
  facet normal 0.232077 -0.771496 0.592396
    outer loop
      vertex 27.9229 -172.536 8.69382
      vertex 28.0381 -171.116 10.498
      vertex 26.3721 -172.682 9.11122
    endloop
  endfacet
  facet normal 0.232307 -0.771573 0.592207
    outer loop
      vertex 26.3721 -172.682 9.11122
      vertex 28.0381 -171.116 10.498
      vertex 26.1654 -171.293 11.002
    endloop
  endfacet
  facet normal 0.224882 -0.799558 0.556898
    outer loop
      vertex 27.6655 -173.835 6.93274
      vertex 27.9229 -172.536 8.69382
      vertex 26.4288 -173.951 7.26559
    endloop
  endfacet
  facet normal 0.22512 -0.799621 0.556711
    outer loop
      vertex 26.4288 -173.951 7.26559
      vertex 27.9229 -172.536 8.69382
      vertex 26.3721 -172.682 9.11122
    endloop
  endfacet
  facet normal 0.251704 -0.663849 0.704237
    outer loop
      vertex 27.4923 -174.969 5.92568
      vertex 27.6655 -173.835 6.93274
      vertex 26.4352 -175.068 6.21018
    endloop
  endfacet
  facet normal 0.251793 -0.663894 0.704163
    outer loop
      vertex 26.4352 -175.068 6.21018
      vertex 27.6655 -173.835 6.93274
      vertex 26.4288 -173.951 7.26559
    endloop
  endfacet
  facet normal 0.26758 -0.51794 0.812489
    outer loop
      vertex 27.2156 -175.936 5.40037
      vertex 27.4923 -174.969 5.92568
      vertex 26.2522 -176.027 5.65964
    endloop
  endfacet
  facet normal 0.26723 -0.517612 0.812814
    outer loop
      vertex 27.4923 -174.969 5.92568
      vertex 26.4352 -175.068 6.21018
      vertex 26.2522 -176.027 5.65964
    endloop
  endfacet
  facet normal 0.238633 -0.741671 0.626879
    outer loop
      vertex 26.7482 -176.73 4.6389
      vertex 27.2156 -175.936 5.40037
      vertex 25.9207 -176.808 4.86162
    endloop
  endfacet
  facet normal 0.238735 -0.741745 0.626754
    outer loop
      vertex 27.2156 -175.936 5.40037
      vertex 26.2522 -176.027 5.65964
      vertex 25.9207 -176.808 4.86162
    endloop
  endfacet
  facet normal 0.227706 -0.789594 0.569816
    outer loop
      vertex 26.0595 -177.999 3.15566
      vertex 26.7482 -176.73 4.6389
      vertex 25.4966 -178.052 3.30716
    endloop
  endfacet
  facet normal 0.227779 -0.789611 0.569764
    outer loop
      vertex 26.7482 -176.73 4.6389
      vertex 25.9207 -176.808 4.86162
      vertex 25.4966 -178.052 3.30716
    endloop
  endfacet
  facet normal 0.158366 -0.954279 0.253517
    outer loop
      vertex 25.5628 -178.431 1.83982
      vertex 26.0595 -177.999 3.15566
      vertex 25.2346 -178.462 1.92815
    endloop
  endfacet
  facet normal 0.158126 -0.954277 0.253678
    outer loop
      vertex 26.0595 -177.999 3.15566
      vertex 25.4966 -178.052 3.30716
      vertex 25.2346 -178.462 1.92815
    endloop
  endfacet
  facet normal 0.11061 -0.991873 0.0628796
    outer loop
      vertex 25 -178.576 0.542576
      vertex 25.5628 -178.431 1.83982
      vertex 25.2346 -178.462 1.92815
    endloop
  endfacet
  facet normal 0.110852 -0.991853 0.0627724
    outer loop
      vertex 25.5628 -178.431 1.83982
      vertex 25 -178.576 0.542576
      vertex 25 -178.594 0.258162
    endloop
  endfacet
  facet normal 0.09378 -0.0686386 0.993224
    outer loop
      vertex 26.0663 -152.29 15.5698
      vertex 25 -144.632 16.1997
      vertex 25 -152.391 15.6635
    endloop
  endfacet
  facet normal 0.103363 -0.186161 0.977067
    outer loop
      vertex 25 -155.447 15.0811
      vertex 25.6856 -160.487 14.0483
      vertex 26.0663 -152.29 15.5698
    endloop
  endfacet
  facet normal 0.103174 -0.186189 0.977082
    outer loop
      vertex 25.6856 -160.487 14.0483
      vertex 25 -155.447 15.0811
      vertex 25 -160.551 14.1085
    endloop
  endfacet
  facet normal 0.103494 -0.186201 0.977046
    outer loop
      vertex 26.0663 -152.29 15.5698
      vertex 25 -152.391 15.6635
      vertex 25 -155.447 15.0811
    endloop
  endfacet
  facet normal 0.106409 -0.224917 0.96855
    outer loop
      vertex 25 -161.754 13.8294
      vertex 26.068 -163.851 13.2251
      vertex 25.6856 -160.487 14.0483
    endloop
  endfacet
  facet normal 0.106426 -0.224908 0.96855
    outer loop
      vertex 26.068 -163.851 13.2251
      vertex 25 -161.754 13.8294
      vertex 25 -163.952 13.319
    endloop
  endfacet
  facet normal 0.10603 -0.224727 0.968636
    outer loop
      vertex 25.6856 -160.487 14.0483
      vertex 25 -160.551 14.1085
      vertex 25 -161.754 13.8294
    endloop
  endfacet
  facet normal 0.102243 -0.170378 0.98006
    outer loop
      vertex 25 -165.437 13.0608
      vertex 26.0553 -166.966 12.6849
      vertex 26.068 -163.851 13.2251
    endloop
  endfacet
  facet normal 0.102323 -0.170323 0.980061
    outer loop
      vertex 26.0553 -166.966 12.6849
      vertex 25 -165.437 13.0608
      vertex 25 -167.066 12.7777
    endloop
  endfacet
  facet normal 0.102282 -0.170404 0.980051
    outer loop
      vertex 26.068 -163.851 13.2251
      vertex 25 -163.952 13.319
      vertex 25 -165.437 13.0608
    endloop
  endfacet
  facet normal 0.112533 -0.314316 0.942625
    outer loop
      vertex 25 -168.58 12.2727
      vertex 26.1523 -169.774 11.737
      vertex 26.0553 -166.966 12.6849
    endloop
  endfacet
  facet normal 0.112263 -0.314554 0.942578
    outer loop
      vertex 26.1523 -169.774 11.737
      vertex 25 -168.58 12.2727
      vertex 25 -169.882 11.8382
    endloop
  endfacet
  facet normal 0.11268 -0.314401 0.942579
    outer loop
      vertex 26.0553 -166.966 12.6849
      vertex 25 -167.066 12.7777
      vertex 25 -168.58 12.2727
    endloop
  endfacet
  facet normal 0.119296 -0.431617 0.894134
    outer loop
      vertex 25 -170.796 11.3974
      vertex 26.1654 -171.293 11.002
      vertex 26.1523 -169.774 11.737
    endloop
  endfacet
  facet normal 0.119303 -0.431603 0.89414
    outer loop
      vertex 26.1654 -171.293 11.002
      vertex 25 -170.796 11.3974
      vertex 25 -171.403 11.1044
    endloop
  endfacet
  facet normal 0.118968 -0.431311 0.894325
    outer loop
      vertex 26.1523 -169.774 11.737
      vertex 25 -169.882 11.8382
      vertex 25 -170.796 11.3974
    endloop
  endfacet
  facet normal 0.127491 -0.792569 0.596306
    outer loop
      vertex 26.3721 -172.682 9.11122
      vertex 25 -172.582 9.53749
      vertex 25 -172.812 9.23179
    endloop
  endfacet
  facet normal 0.127459 -0.792639 0.59622
    outer loop
      vertex 25 -172.582 9.53749
      vertex 26.3721 -172.682 9.11122
      vertex 26.1654 -171.293 11.002
    endloop
  endfacet
  facet normal 0.12721 -0.792573 0.596361
    outer loop
      vertex 26.1654 -171.293 11.002
      vertex 25 -171.403 11.1044
      vertex 25 -172.582 9.53749
    endloop
  endfacet
  facet normal 0.126979 -0.815519 0.564628
    outer loop
      vertex 26.4288 -173.951 7.26559
      vertex 26.3721 -172.682 9.11122
      vertex 25.1533 -174.072 7.37767
    endloop
  endfacet
  facet normal 0.126883 -0.815551 0.564603
    outer loop
      vertex 25 -173.573 8.13255
      vertex 26.3721 -172.682 9.11122
      vertex 25 -172.812 9.23179
    endloop
  endfacet
  facet normal 0.126701 -0.81546 0.564776
    outer loop
      vertex 26.3721 -172.682 9.11122
      vertex 25 -173.573 8.13255
      vertex 25.1533 -174.072 7.37767
    endloop
  endfacet
  facet normal 0.1277 -0.680774 0.721276
    outer loop
      vertex 26.4352 -175.068 6.21018
      vertex 26.4288 -173.951 7.26559
      vertex 25.345 -175.171 6.30598
    endloop
  endfacet
  facet normal 0.127958 -0.680885 0.721125
    outer loop
      vertex 25.345 -175.171 6.30598
      vertex 26.4288 -173.951 7.26559
      vertex 25.1533 -174.072 7.37767
    endloop
  endfacet
  facet normal 0.123137 -0.511649 0.850325
    outer loop
      vertex 26.2522 -176.027 5.65964
      vertex 26.4352 -175.068 6.21018
      vertex 25.2587 -176.121 5.74695
    endloop
  endfacet
  facet normal 0.123059 -0.511584 0.850375
    outer loop
      vertex 26.4352 -175.068 6.21018
      vertex 25.345 -175.171 6.30598
      vertex 25.2587 -176.121 5.74695
    endloop
  endfacet
  facet normal 0.128263 -0.734895 0.665941
    outer loop
      vertex 25.9207 -176.808 4.86162
      vertex 26.2522 -176.027 5.65964
      vertex 25.0672 -176.889 4.93662
    endloop
  endfacet
  facet normal 0.12806 -0.734767 0.666121
    outer loop
      vertex 26.2522 -176.027 5.65964
      vertex 25.2587 -176.121 5.74695
      vertex 25.0672 -176.889 4.93662
    endloop
  endfacet
  facet normal 0.127468 -0.790092 0.599589
    outer loop
      vertex 25.4966 -178.052 3.30716
      vertex 25 -177.998 3.48389
      vertex 25 -178.099 3.3508
    endloop
  endfacet
  facet normal 0.12695 -0.791055 0.598428
    outer loop
      vertex 25 -177.998 3.48389
      vertex 25.4966 -178.052 3.30716
      vertex 25.9207 -176.808 4.86162
    endloop
  endfacet
  facet normal 0.127641 -0.791319 0.597931
    outer loop
      vertex 25 -177.43 4.23499
      vertex 25.9207 -176.808 4.86162
      vertex 25.0672 -176.889 4.93662
    endloop
  endfacet
  facet normal 0.12728 -0.791124 0.598267
    outer loop
      vertex 25.9207 -176.808 4.86162
      vertex 25 -177.43 4.23499
      vertex 25 -177.998 3.48389
    endloop
  endfacet
  facet normal 0.113049 -0.957742 0.264482
    outer loop
      vertex 25.2346 -178.462 1.92815
      vertex 25 -178.417 2.19138
      vertex 25 -178.484 1.94876
    endloop
  endfacet
  facet normal 0.111974 -0.958115 0.263588
    outer loop
      vertex 25 -178.417 2.19138
      vertex 25.2346 -178.462 1.92815
      vertex 25.4966 -178.052 3.30716
    endloop
  endfacet
  facet normal 0.113773 -0.958122 0.262789
    outer loop
      vertex 25.4966 -178.052 3.30716
      vertex 25 -178.099 3.3508
      vertex 25 -178.417 2.19138
    endloop
  endfacet
  facet normal 0.0988259 -0.992982 0.0649661
    outer loop
      vertex 25.2346 -178.462 1.92815
      vertex 25 -178.484 1.94876
      vertex 25 -178.576 0.542576
    endloop
  endfacet
  facet normal 0.0271156 -0.831365 0.555065
    outer loop
      vertex 25.1533 -174.072 7.37767
      vertex 25 -173.573 8.13255
      vertex 25 -174.086 7.36419
    endloop
  endfacet
  facet normal 0.00244622 -0.697934 0.716158
    outer loop
      vertex 25 -174.277 7.17841
      vertex 25.345 -175.171 6.30598
      vertex 25.1533 -174.072 7.37767
    endloop
  endfacet
  facet normal 0.00377254 -0.697669 0.71641
    outer loop
      vertex 25.345 -175.171 6.30598
      vertex 25 -174.277 7.17841
      vertex 25 -175.204 6.27566
    endloop
  endfacet
  facet normal 0.000642402 -0.697243 0.716834
    outer loop
      vertex 25.1533 -174.072 7.37767
      vertex 25 -174.086 7.36419
      vertex 25 -174.277 7.17841
    endloop
  endfacet
  facet normal -0.0273233 -0.505125 0.862614
    outer loop
      vertex 25 -175.505 6.09947
      vertex 25.2587 -176.121 5.74695
      vertex 25.345 -175.171 6.30598
    endloop
  endfacet
  facet normal -0.0288591 -0.505587 0.862293
    outer loop
      vertex 25.2587 -176.121 5.74695
      vertex 25 -175.505 6.09947
      vertex 25 -176.145 5.72422
    endloop
  endfacet
  facet normal -0.0275149 -0.504977 0.862694
    outer loop
      vertex 25.345 -175.171 6.30598
      vertex 25 -175.204 6.27566
      vertex 25 -175.505 6.09947
    endloop
  endfacet
  facet normal 0.00797148 -0.726727 0.68688
    outer loop
      vertex 25 -176.331 5.52777
      vertex 25.0672 -176.889 4.93662
      vertex 25.2587 -176.121 5.74695
    endloop
  endfacet
  facet normal 0.00451356 -0.726939 0.686687
    outer loop
      vertex 25.0672 -176.889 4.93662
      vertex 25 -176.331 5.52777
      vertex 25 -176.895 4.93071
    endloop
  endfacet
  facet normal 0.00695854 -0.726139 0.687513
    outer loop
      vertex 25.2587 -176.121 5.74695
      vertex 25 -176.145 5.72422
      vertex 25 -176.331 5.52777
    endloop
  endfacet
  facet normal 0.0236922 -0.792796 0.609026
    outer loop
      vertex 25.0672 -176.889 4.93662
      vertex 25 -177.006 4.78693
      vertex 25 -177.43 4.23499
    endloop
  endfacet
  facet normal 0.016929 -0.791445 0.611006
    outer loop
      vertex 25.0672 -176.889 4.93662
      vertex 25 -176.895 4.93071
      vertex 25 -177.006 4.78693
    endloop
  endfacet
endsolid OpenSCAD_Model
