solid OpenSCAD_Model
  facet normal 0 0 1
    outer loop
      vertex 25 -21.48 0
      vertex 47.8517 -14.7276 0
      vertex 47.6896 -14.32 0
    endloop
  endfacet
  facet normal 0 0 1
    outer loop
      vertex 25 -21.48 0
      vertex 47.6896 -14.32 0
      vertex 25 -14.32 0
    endloop
  endfacet
  facet normal 0 0 1
    outer loop
      vertex 47.8517 -14.7276 0
      vertex 25 -21.48 0
      vertex 49.0569 -21.48 0
    endloop
  endfacet
  facet normal -1 0 0
    outer loop
      vertex 25 -21.48 0
      vertex 25 -14.32 -21.6061
      vertex 25 -16.5446 -22.5315
    endloop
  endfacet
  facet normal -1 0 0
    outer loop
      vertex 25 -21.48 0
      vertex 25 -16.5446 -22.5315
      vertex 25 -16.8833 -22.6724
    endloop
  endfacet
  facet normal -1 0 0
    outer loop
      vertex 25 -21.48 0
      vertex 25 -16.8833 -22.6724
      vertex 25 -21.48 -23.6141
    endloop
  endfacet
  facet normal -1 0 0
    outer loop
      vertex 25 -14.32 -21.6061
      vertex 25 -21.48 0
      vertex 25 -14.32 0
    endloop
  endfacet
  facet normal 0 1 -0
    outer loop
      vertex 47.6591 -14.32 -0.336663
      vertex 25 -14.32 0
      vertex 47.6896 -14.32 0
    endloop
  endfacet
  facet normal 0 1 -0
    outer loop
      vertex 47.3364 -14.32 -3.90818
      vertex 25 -14.32 0
      vertex 47.6591 -14.32 -0.336663
    endloop
  endfacet
  facet normal 0 1 -0
    outer loop
      vertex 47.2377 -14.32 -4.26443
      vertex 25 -14.32 0
      vertex 47.3364 -14.32 -3.90818
    endloop
  endfacet
  facet normal 0 1 -0
    outer loop
      vertex 46.2901 -14.32 -7.68366
      vertex 25 -14.32 0
      vertex 47.2377 -14.32 -4.26443
    endloop
  endfacet
  facet normal 0 1 -0
    outer loop
      vertex 46.0918 -14.32 -8.09365
      vertex 25 -14.32 0
      vertex 46.2901 -14.32 -7.68366
    endloop
  endfacet
  facet normal 0 1 -0
    outer loop
      vertex 44.5898 -14.32 -11.1996
      vertex 25 -14.32 0
      vertex 46.0918 -14.32 -8.09365
    endloop
  endfacet
  facet normal 0 1 -0
    outer loop
      vertex 44.2398 -14.32 -11.6793
      vertex 25 -14.32 0
      vertex 44.5898 -14.32 -11.1996
    endloop
  endfacet
  facet normal 0 1 -0
    outer loop
      vertex 42.2981 -14.32 -14.3405
      vertex 25 -14.32 0
      vertex 44.2398 -14.32 -11.6793
    endloop
  endfacet
  facet normal 0 1 -0
    outer loop
      vertex 41.7325 -14.32 -14.879
      vertex 25 -14.32 0
      vertex 42.2981 -14.32 -14.3405
    endloop
  endfacet
  facet normal 0 1 -0
    outer loop
      vertex 39.498 -14.32 -17.0066
      vertex 25 -14.32 0
      vertex 41.7325 -14.32 -14.879
    endloop
  endfacet
  facet normal 0 1 -0
    outer loop
      vertex 38.6537 -14.32 -17.562
      vertex 25 -14.32 0
      vertex 39.498 -14.32 -17.0066
    endloop
  endfacet
  facet normal 0 1 -0
    outer loop
      vertex 36.2883 -14.32 -19.1178
      vertex 25 -14.32 0
      vertex 38.6537 -14.32 -17.562
    endloop
  endfacet
  facet normal 0 1 -0
    outer loop
      vertex 35.1164 -14.32 -19.6179
      vertex 25 -14.32 0
      vertex 36.2883 -14.32 -19.1178
    endloop
  endfacet
  facet normal 0 1 -0
    outer loop
      vertex 32.779 -14.32 -20.6154
      vertex 25 -14.32 0
      vertex 35.1164 -14.32 -19.6179
    endloop
  endfacet
  facet normal 0 1 -0
    outer loop
      vertex 31.2569 -14.32 -20.9649
      vertex 25 -14.32 0
      vertex 32.779 -14.32 -20.6154
    endloop
  endfacet
  facet normal 0 1 -0
    outer loop
      vertex 29.0864 -14.32 -21.4633
      vertex 25 -14.32 0
      vertex 31.2569 -14.32 -20.9649
    endloop
  endfacet
  facet normal 0 1 -0
    outer loop
      vertex 27.2265 -14.32 -21.5547
      vertex 25 -14.32 0
      vertex 29.0864 -14.32 -21.4633
    endloop
  endfacet
  facet normal 0 1 0
    outer loop
      vertex 27.2265 -14.32 -21.5547
      vertex 25 -14.32 -21.6061
      vertex 25 -14.32 0
    endloop
  endfacet
  facet normal -0 1 0
    outer loop
      vertex 25 -14.32 -21.6061
      vertex 27.2265 -14.32 -21.5547
      vertex 25.3286 -14.32 -21.6479
    endloop
  endfacet
  facet normal 0 -1 0
    outer loop
      vertex 25 -21.48 0
      vertex 48.9483 -21.48 -1.22623
      vertex 49.0569 -21.48 0
    endloop
  endfacet
  facet normal 0 -1 0
    outer loop
      vertex 25 -21.48 0
      vertex 48.6866 -21.48 -4.18123
      vertex 48.9483 -21.48 -1.22623
    endloop
  endfacet
  facet normal 0 -1 0
    outer loop
      vertex 25 -21.48 0
      vertex 48.3584 -21.48 -5.39048
      vertex 48.6866 -21.48 -4.18123
    endloop
  endfacet
  facet normal 0 -1 0
    outer loop
      vertex 25 -21.48 0
      vertex 47.5881 -21.48 -8.22823
      vertex 48.3584 -21.48 -5.39048
    endloop
  endfacet
  facet normal 0 -1 0
    outer loop
      vertex 25 -21.48 0
      vertex 47.0314 -21.48 -9.40533
      vertex 47.5881 -21.48 -8.22823
    endloop
  endfacet
  facet normal 0 -1 0
    outer loop
      vertex 25 -21.48 0
      vertex 45.7986 -21.48 -12.0118
      vertex 47.0314 -21.48 -9.40533
    endloop
  endfacet
  facet normal 0 -1 0
    outer loop
      vertex 25 -21.48 0
      vertex 45 -21.48 -13.1337
      vertex 45.7986 -21.48 -12.0118
    endloop
  endfacet
  facet normal 0 -1 0
    outer loop
      vertex 25 -21.48 0
      vertex 43.378 -21.48 -15.4123
      vertex 45 -21.48 -13.1337
    endloop
  endfacet
  facet normal 0 -1 0
    outer loop
      vertex 25 -21.48 0
      vertex 42.3239 -21.48 -16.4454
      vertex 43.378 -21.48 -15.4123
    endloop
  endfacet
  facet normal 0 -1 0
    outer loop
      vertex 25 -21.48 0
      vertex 40.4067 -21.48 -18.3242
      vertex 42.3239 -21.48 -16.4454
    endloop
  endfacet
  facet normal 0 -1 0
    outer loop
      vertex 25 -21.48 0
      vertex 39.0885 -21.48 -19.223
      vertex 40.4067 -21.48 -18.3242
    endloop
  endfacet
  facet normal 0 -1 0
    outer loop
      vertex 25 -21.48 0
      vertex 36.9821 -21.48 -20.6591
      vertex 39.0885 -21.48 -19.223
    endloop
  endfacet
  facet normal 0 -1 0
    outer loop
      vertex 25 -21.48 0
      vertex 35.4021 -21.48 -21.3678
      vertex 36.9821 -21.48 -20.6591
    endloop
  endfacet
  facet normal 0 -1 0
    outer loop
      vertex 25 -21.48 0
      vertex 33.215 -21.48 -22.3488
      vertex 35.4021 -21.48 -21.3678
    endloop
  endfacet
  facet normal 0 -1 0
    outer loop
      vertex 25 -21.48 0
      vertex 31.3908 -21.48 -22.805
      vertex 33.215 -21.48 -22.3488
    endloop
  endfacet
  facet normal 0 -1 0
    outer loop
      vertex 25 -21.48 0
      vertex 29.2249 -21.48 -23.3467
      vertex 31.3908 -21.48 -22.805
    endloop
  endfacet
  facet normal 0 -1 0
    outer loop
      vertex 25 -21.48 0
      vertex 27.1934 -21.48 -23.4868
      vertex 29.2249 -21.48 -23.3467
    endloop
  endfacet
  facet normal 0 -1 0
    outer loop
      vertex 25 -21.48 -23.6141
      vertex 27.1934 -21.48 -23.4868
      vertex 25 -21.48 0
    endloop
  endfacet
  facet normal 0 -1 0
    outer loop
      vertex 27.1934 -21.48 -23.4868
      vertex 25 -21.48 -23.6141
      vertex 25.1365 -21.48 -23.6287
    endloop
  endfacet
  facet normal 0.0453657 0.379763 -0.923971
    outer loop
      vertex 25.257 -16.8591 -22.695
      vertex 27.2265 -14.32 -21.5547
      vertex 29.1806 -16.4889 -22.3502
    endloop
  endfacet
  facet normal 0.0453734 0.379758 -0.923973
    outer loop
      vertex 27.2265 -14.32 -21.5547
      vertex 25.257 -16.8591 -22.695
      vertex 25.3286 -14.32 -21.6479
    endloop
  endfacet
  facet normal 0.0454055 0.379793 -0.923956
    outer loop
      vertex 29.0864 -14.32 -21.4633
      vertex 29.1806 -16.4889 -22.3502
      vertex 27.2265 -14.32 -21.5547
    endloop
  endfacet
  facet normal 0.06749 0.195915 -0.978296
    outer loop
      vertex 25.257 -16.8591 -22.695
      vertex 27.1934 -21.48 -23.4868
      vertex 25.1365 -21.48 -23.6287
    endloop
  endfacet
  facet normal 0.067467 0.195921 -0.978296
    outer loop
      vertex 27.1934 -21.48 -23.4868
      vertex 29.1806 -16.4889 -22.3502
      vertex 29.2249 -21.48 -23.3467
    endloop
  endfacet
  facet normal 0.0674864 0.195913 -0.978296
    outer loop
      vertex 29.1806 -16.4889 -22.3502
      vertex 27.1934 -21.48 -23.4868
      vertex 25.257 -16.8591 -22.695
    endloop
  endfacet
  facet normal 0.207209 0.377968 -0.902333
    outer loop
      vertex 29.1806 -16.4889 -22.3502
      vertex 31.2569 -14.32 -20.9649
      vertex 32.9849 -16.1301 -21.3263
    endloop
  endfacet
  facet normal 0.207197 0.377978 -0.902331
    outer loop
      vertex 31.2569 -14.32 -20.9649
      vertex 29.1806 -16.4889 -22.3502
      vertex 29.0864 -14.32 -21.4633
    endloop
  endfacet
  facet normal 0.207193 0.377955 -0.902342
    outer loop
      vertex 32.779 -14.32 -20.6154
      vertex 32.9849 -16.1301 -21.3263
      vertex 31.2569 -14.32 -20.9649
    endloop
  endfacet
  facet normal 0.238107 0.192192 -0.952033
    outer loop
      vertex 31.3908 -21.48 -22.805
      vertex 29.2249 -21.48 -23.3467
      vertex 29.1806 -16.4889 -22.3502
    endloop
  endfacet
  facet normal 0.238087 0.192198 -0.952037
    outer loop
      vertex 31.3908 -21.48 -22.805
      vertex 32.9849 -16.1301 -21.3263
      vertex 33.215 -21.48 -22.3488
    endloop
  endfacet
  facet normal 0.238107 0.192192 -0.952033
    outer loop
      vertex 32.9849 -16.1301 -21.3263
      vertex 31.3908 -21.48 -22.805
      vertex 29.1806 -16.4889 -22.3502
    endloop
  endfacet
  facet normal 0.363698 0.376071 -0.852229
    outer loop
      vertex 32.9849 -16.1301 -21.3263
      vertex 35.1164 -14.32 -19.6179
      vertex 36.5544 -15.7934 -19.6544
    endloop
  endfacet
  facet normal 0.363694 0.376075 -0.852229
    outer loop
      vertex 35.1164 -14.32 -19.6179
      vertex 32.9849 -16.1301 -21.3263
      vertex 32.779 -14.32 -20.6154
    endloop
  endfacet
  facet normal 0.363687 0.376061 -0.852238
    outer loop
      vertex 36.2883 -14.32 -19.1178
      vertex 36.5544 -15.7934 -19.6544
      vertex 35.1164 -14.32 -19.6179
    endloop
  endfacet
  facet normal 0.401916 0.188545 -0.896055
    outer loop
      vertex 35.4021 -21.48 -21.3678
      vertex 33.215 -21.48 -22.3488
      vertex 32.9849 -16.1301 -21.3263
    endloop
  endfacet
  facet normal 0.40192 0.188543 -0.896054
    outer loop
      vertex 35.4021 -21.48 -21.3678
      vertex 36.5544 -15.7934 -19.6544
      vertex 36.9821 -21.48 -20.6591
    endloop
  endfacet
  facet normal 0.401914 0.188544 -0.896056
    outer loop
      vertex 36.5544 -15.7934 -19.6544
      vertex 35.4021 -21.48 -21.3678
      vertex 32.9849 -16.1301 -21.3263
    endloop
  endfacet
  facet normal 0.509599 0.374201 -0.774779
    outer loop
      vertex 36.5544 -15.7934 -19.6544
      vertex 38.6537 -14.32 -17.562
      vertex 39.7806 -15.489 -17.3854
    endloop
  endfacet
  facet normal 0.509597 0.374203 -0.774779
    outer loop
      vertex 38.6537 -14.32 -17.562
      vertex 36.5544 -15.7934 -19.6544
      vertex 36.2883 -14.32 -19.1178
    endloop
  endfacet
  facet normal 0.509637 0.374245 -0.774733
    outer loop
      vertex 39.498 -14.32 -17.0066
      vertex 39.7806 -15.489 -17.3854
      vertex 38.6537 -14.32 -17.562
    endloop
  endfacet
  facet normal 0.553581 0.185093 -0.811966
    outer loop
      vertex 39.0885 -21.48 -19.223
      vertex 36.9821 -21.48 -20.6591
      vertex 36.5544 -15.7934 -19.6544
    endloop
  endfacet
  facet normal 0.553615 0.185089 -0.811944
    outer loop
      vertex 39.0885 -21.48 -19.223
      vertex 39.7806 -15.489 -17.3854
      vertex 40.4067 -21.48 -18.3242
    endloop
  endfacet
  facet normal 0.55359 0.185097 -0.811959
    outer loop
      vertex 39.7806 -15.489 -17.3854
      vertex 39.0885 -21.48 -19.223
      vertex 36.5544 -15.7934 -19.6544
    endloop
  endfacet
  facet normal 0.639931 0.372517 -0.672101
    outer loop
      vertex 39.7806 -15.489 -17.3854
      vertex 41.7325 -14.32 -14.879
      vertex 42.5656 -15.2263 -14.5881
    endloop
  endfacet
  facet normal 0.639947 0.37249 -0.672101
    outer loop
      vertex 41.7325 -14.32 -14.879
      vertex 39.7806 -15.489 -17.3854
      vertex 39.498 -14.32 -17.0066
    endloop
  endfacet
  facet normal 0.639919 0.372499 -0.672123
    outer loop
      vertex 42.2981 -14.32 -14.3405
      vertex 42.5656 -15.2263 -14.5881
      vertex 41.7325 -14.32 -14.879
    endloop
  endfacet
  facet normal 0.688231 0.181976 -0.702298
    outer loop
      vertex 42.3239 -21.48 -16.4454
      vertex 40.4067 -21.48 -18.3242
      vertex 39.7806 -15.489 -17.3854
    endloop
  endfacet
  facet normal 0.688271 0.181965 -0.702262
    outer loop
      vertex 42.3239 -21.48 -16.4454
      vertex 42.5656 -15.2263 -14.5881
      vertex 43.378 -21.48 -15.4123
    endloop
  endfacet
  facet normal 0.688233 0.181977 -0.702296
    outer loop
      vertex 42.5656 -15.2263 -14.5881
      vertex 42.3239 -21.48 -16.4454
      vertex 39.7806 -15.489 -17.3854
    endloop
  endfacet
  facet normal 0.750216 0.370906 -0.547361
    outer loop
      vertex 42.5656 -15.2263 -14.5881
      vertex 44.2398 -14.32 -11.6793
      vertex 44.8246 -15.0132 -11.3475
    endloop
  endfacet
  facet normal 0.750188 0.370961 -0.547362
    outer loop
      vertex 44.2398 -14.32 -11.6793
      vertex 42.5656 -15.2263 -14.5881
      vertex 42.2981 -14.32 -14.3405
    endloop
  endfacet
  facet normal 0.750213 0.370898 -0.547372
    outer loop
      vertex 44.5898 -14.32 -11.1996
      vertex 44.8246 -15.0132 -11.3475
      vertex 44.2398 -14.32 -11.6793
    endloop
  endfacet
  facet normal 0.801471 0.179308 -0.57052
    outer loop
      vertex 45 -21.48 -13.1337
      vertex 43.378 -21.48 -15.4123
      vertex 42.5656 -15.2263 -14.5881
    endloop
  endfacet
  facet normal 0.801474 0.17932 -0.570512
    outer loop
      vertex 45 -21.48 -13.1337
      vertex 44.8246 -15.0132 -11.3475
      vertex 45.7986 -21.48 -12.0118
    endloop
  endfacet
  facet normal 0.801483 0.179317 -0.5705
    outer loop
      vertex 44.8246 -15.0132 -11.3475
      vertex 45 -21.48 -13.1337
      vertex 42.5656 -15.2263 -14.5881
    endloop
  endfacet
  facet normal 0.836473 0.369697 -0.404521
    outer loop
      vertex 44.8246 -15.0132 -11.3475
      vertex 46.0918 -14.32 -8.09365
      vertex 46.4891 -14.8562 -7.76215
    endloop
  endfacet
  facet normal 0.836497 0.369645 -0.40452
    outer loop
      vertex 46.0918 -14.32 -8.09365
      vertex 44.8246 -15.0132 -11.3475
      vertex 44.5898 -14.32 -11.1996
    endloop
  endfacet
  facet normal 0.836464 0.369659 -0.404573
    outer loop
      vertex 46.2901 -14.32 -7.68366
      vertex 46.4891 -14.8562 -7.76215
      vertex 46.0918 -14.32 -8.09365
    endloop
  endfacet
  facet normal 0.889675 0.177225 -0.420796
    outer loop
      vertex 47.0314 -21.48 -9.40533
      vertex 45.7986 -21.48 -12.0118
      vertex 44.8246 -15.0132 -11.3475
    endloop
  endfacet
  facet normal 0.889688 0.177222 -0.420771
    outer loop
      vertex 47.0314 -21.48 -9.40533
      vertex 46.4891 -14.8562 -7.76215
      vertex 47.5881 -21.48 -8.22823
    endloop
  endfacet
  facet normal 0.889676 0.177226 -0.420793
    outer loop
      vertex 46.4891 -14.8562 -7.76215
      vertex 47.0314 -21.48 -9.40533
      vertex 44.8246 -15.0132 -11.3475
    endloop
  endfacet
  facet normal 0.895753 0.368782 -0.248248
    outer loop
      vertex 46.4891 -14.8562 -7.76215
      vertex 47.2377 -14.32 -4.26443
      vertex 47.5085 -14.76 -3.94094
    endloop
  endfacet
  facet normal 0.895753 0.36878 -0.248248
    outer loop
      vertex 47.2377 -14.32 -4.26443
      vertex 46.4891 -14.8562 -7.76215
      vertex 46.2901 -14.32 -7.68366
    endloop
  endfacet
  facet normal 0.895751 0.368838 -0.24817
    outer loop
      vertex 47.3364 -14.32 -3.90818
      vertex 47.5085 -14.76 -3.94094
      vertex 47.2377 -14.32 -4.26443
    endloop
  endfacet
  facet normal 0.950051 0.175776 -0.257889
    outer loop
      vertex 48.3584 -21.48 -5.39048
      vertex 47.5881 -21.48 -8.22823
      vertex 46.4891 -14.8562 -7.76215
    endloop
  endfacet
  facet normal 0.95006 0.175778 -0.257854
    outer loop
      vertex 48.3584 -21.48 -5.39048
      vertex 47.5085 -14.76 -3.94094
      vertex 48.6866 -21.48 -4.18123
    endloop
  endfacet
  facet normal 0.950053 0.175781 -0.257875
    outer loop
      vertex 47.5085 -14.76 -3.94094
      vertex 48.3584 -21.48 -5.39048
      vertex 46.4891 -14.8562 -7.76215
    endloop
  endfacet
  facet normal 0.925894 0.368404 -0.083661
    outer loop
      vertex 47.5085 -14.76 -3.94094
      vertex 47.6591 -14.32 -0.336663
      vertex 47.8517 -14.7276 0
    endloop
  endfacet
  facet normal 0.925902 0.368383 -0.0836588
    outer loop
      vertex 47.6591 -14.32 -0.336663
      vertex 47.5085 -14.76 -3.94094
      vertex 47.3364 -14.32 -3.90818
    endloop
  endfacet
  facet normal 0.925939 0.36824 -0.0838855
    outer loop
      vertex 47.6896 -14.32 0
      vertex 47.8517 -14.7276 0
      vertex 47.6591 -14.32 -0.336663
    endloop
  endfacet
  facet normal 0.980723 0.175039 -0.0868546
    outer loop
      vertex 48.9483 -21.48 -1.22623
      vertex 48.6866 -21.48 -4.18123
      vertex 47.5085 -14.76 -3.94094
    endloop
  endfacet
  facet normal 0.980722 0.175044 -0.0868568
    outer loop
      vertex 48.9483 -21.48 -1.22623
      vertex 47.8517 -14.7276 0
      vertex 49.0569 -21.48 0
    endloop
  endfacet
  facet normal 0.980723 0.175042 -0.0868462
    outer loop
      vertex 47.8517 -14.7276 0
      vertex 48.9483 -21.48 -1.22623
      vertex 47.5085 -14.76 -3.94094
    endloop
  endfacet
  facet normal -0.11656 0.381475 -0.917001
    outer loop
      vertex 25 -16.5446 -22.5315
      vertex 25.257 -16.8591 -22.695
      vertex 25 -16.8833 -22.6724
    endloop
  endfacet
  facet normal -0.116591 0.381452 -0.917006
    outer loop
      vertex 25 -16.5446 -22.5315
      vertex 25.3286 -14.32 -21.6479
      vertex 25.257 -16.8591 -22.695
    endloop
  endfacet
  facet normal -0.116648 0.381457 -0.916997
    outer loop
      vertex 25.3286 -14.32 -21.6479
      vertex 25 -16.5446 -22.5315
      vertex 25 -14.32 -21.6061
    endloop
  endfacet
  facet normal -0.104213 0.199603 -0.974319
    outer loop
      vertex 25 -16.8833 -22.6724
      vertex 25.1365 -21.48 -23.6287
      vertex 25 -21.48 -23.6141
    endloop
  endfacet
  facet normal -0.104471 0.19959 -0.974294
    outer loop
      vertex 25.1365 -21.48 -23.6287
      vertex 25 -16.8833 -22.6724
      vertex 25.257 -16.8591 -22.695
    endloop
  endfacet
endsolid OpenSCAD_Model
