  0
SECTION
  2
BLOCKS
  0
ENDSEC
  0
SECTION
  2
ENTITIES
  0
LINE
  8
0
 10
57
 20
331
 11
54
 21
331
  0
LINE
  8
0
 10
54
 20
331
 11
54
 21
323.333
  0
LINE
  8
0
 10
54
 20
323.333
 11
52
 21
323.333
  0
LINE
  8
0
 10
52
 20
323.333
 11
52
 21
331
  0
LINE
  8
0
 10
52
 20
331
 11
34
 21
331
  0
LINE
  8
0
 10
34
 20
331
 11
34
 21
323.333
  0
LINE
  8
0
 10
34
 20
323.333
 11
32
 21
323.333
  0
LINE
  8
0
 10
32
 20
323.333
 11
32
 21
331
  0
LINE
  8
0
 10
32
 20
331
 11
14
 21
331
  0
LINE
  8
0
 10
14
 20
331
 11
14
 21
323.333
  0
LINE
  8
0
 10
14
 20
323.333
 11
12
 21
323.333
  0
LINE
  8
0
 10
12
 20
323.333
 11
12
 21
331
  0
LINE
  8
0
 10
12
 20
331
 11
-6
 21
331
  0
LINE
  8
0
 10
-6
 20
331
 11
-6
 21
323.333
  0
LINE
  8
0
 10
-6
 20
323.333
 11
-8
 21
323.333
  0
LINE
  8
0
 10
-8
 20
323.333
 11
-8
 21
331
  0
LINE
  8
0
 10
-8
 20
331
 11
-13
 21
331
  0
LINE
  8
0
 10
-13
 20
331
 11
-13
 21
315.667
  0
LINE
  8
0
 10
-13
 20
315.667
 11
57
 21
315.667
  0
LINE
  8
0
 10
57
 20
315.667
 11
57
 21
331
  0
LINE
  8
0
 10
57
 20
314.667
 11
54
 21
314.667
  0
LINE
  8
0
 10
54
 20
314.667
 11
54
 21
307
  0
LINE
  8
0
 10
54
 20
307
 11
52
 21
307
  0
LINE
  8
0
 10
52
 20
307
 11
52
 21
314.667
  0
LINE
  8
0
 10
52
 20
314.667
 11
34
 21
314.667
  0
LINE
  8
0
 10
34
 20
314.667
 11
34
 21
307
  0
LINE
  8
0
 10
34
 20
307
 11
32
 21
307
  0
LINE
  8
0
 10
32
 20
307
 11
32
 21
314.667
  0
LINE
  8
0
 10
32
 20
314.667
 11
14
 21
314.667
  0
LINE
  8
0
 10
14
 20
314.667
 11
14
 21
307
  0
LINE
  8
0
 10
14
 20
307
 11
12
 21
307
  0
LINE
  8
0
 10
12
 20
307
 11
12
 21
314.667
  0
LINE
  8
0
 10
12
 20
314.667
 11
-6
 21
314.667
  0
LINE
  8
0
 10
-6
 20
314.667
 11
-6
 21
307
  0
LINE
  8
0
 10
-6
 20
307
 11
-8
 21
307
  0
LINE
  8
0
 10
-8
 20
307
 11
-8
 21
314.667
  0
LINE
  8
0
 10
-8
 20
314.667
 11
-13
 21
314.667
  0
LINE
  8
0
 10
-13
 20
314.667
 11
-13
 21
299.333
  0
LINE
  8
0
 10
-13
 20
299.333
 11
57
 21
299.333
  0
LINE
  8
0
 10
57
 20
299.333
 11
57
 21
314.667
  0
LINE
  8
0
 10
57
 20
298.333
 11
54
 21
298.333
  0
LINE
  8
0
 10
54
 20
298.333
 11
54
 21
290.667
  0
LINE
  8
0
 10
54
 20
290.667
 11
52
 21
290.667
  0
LINE
  8
0
 10
52
 20
290.667
 11
52
 21
298.333
  0
LINE
  8
0
 10
52
 20
298.333
 11
34
 21
298.333
  0
LINE
  8
0
 10
34
 20
298.333
 11
34
 21
290.667
  0
LINE
  8
0
 10
34
 20
290.667
 11
32
 21
290.667
  0
LINE
  8
0
 10
32
 20
290.667
 11
32
 21
298.333
  0
LINE
  8
0
 10
32
 20
298.333
 11
14
 21
298.333
  0
LINE
  8
0
 10
14
 20
298.333
 11
14
 21
290.667
  0
LINE
  8
0
 10
14
 20
290.667
 11
12
 21
290.667
  0
LINE
  8
0
 10
12
 20
290.667
 11
12
 21
298.333
  0
LINE
  8
0
 10
12
 20
298.333
 11
-6
 21
298.333
  0
LINE
  8
0
 10
-6
 20
298.333
 11
-6
 21
290.667
  0
LINE
  8
0
 10
-6
 20
290.667
 11
-8
 21
290.667
  0
LINE
  8
0
 10
-8
 20
290.667
 11
-8
 21
298.333
  0
LINE
  8
0
 10
-8
 20
298.333
 11
-13
 21
298.333
  0
LINE
  8
0
 10
-13
 20
298.333
 11
-13
 21
283
  0
LINE
  8
0
 10
-13
 20
283
 11
57
 21
283
  0
LINE
  8
0
 10
57
 20
283
 11
57
 21
298.333
  0
LINE
  8
0
 10
57
 20
282
 11
54
 21
282
  0
LINE
  8
0
 10
54
 20
282
 11
54
 21
274.333
  0
LINE
  8
0
 10
54
 20
274.333
 11
52
 21
274.333
  0
LINE
  8
0
 10
52
 20
274.333
 11
52
 21
282
  0
LINE
  8
0
 10
52
 20
282
 11
34
 21
282
  0
LINE
  8
0
 10
34
 20
282
 11
34
 21
274.333
  0
LINE
  8
0
 10
34
 20
274.333
 11
32
 21
274.333
  0
LINE
  8
0
 10
32
 20
274.333
 11
32
 21
282
  0
LINE
  8
0
 10
32
 20
282
 11
14
 21
282
  0
LINE
  8
0
 10
14
 20
282
 11
14
 21
274.333
  0
LINE
  8
0
 10
14
 20
274.333
 11
12
 21
274.333
  0
LINE
  8
0
 10
12
 20
274.333
 11
12
 21
282
  0
LINE
  8
0
 10
12
 20
282
 11
-6
 21
282
  0
LINE
  8
0
 10
-6
 20
282
 11
-6
 21
274.333
  0
LINE
  8
0
 10
-6
 20
274.333
 11
-8
 21
274.333
  0
LINE
  8
0
 10
-8
 20
274.333
 11
-8
 21
282
  0
LINE
  8
0
 10
-8
 20
282
 11
-13
 21
282
  0
LINE
  8
0
 10
-13
 20
282
 11
-13
 21
266.667
  0
LINE
  8
0
 10
-13
 20
266.667
 11
57
 21
266.667
  0
LINE
  8
0
 10
57
 20
266.667
 11
57
 21
282
  0
LINE
  8
0
 10
57
 20
265.667
 11
54
 21
265.667
  0
LINE
  8
0
 10
54
 20
265.667
 11
54
 21
258
  0
LINE
  8
0
 10
54
 20
258
 11
52
 21
258
  0
LINE
  8
0
 10
52
 20
258
 11
52
 21
265.667
  0
LINE
  8
0
 10
52
 20
265.667
 11
34
 21
265.667
  0
LINE
  8
0
 10
34
 20
265.667
 11
34
 21
258
  0
LINE
  8
0
 10
34
 20
258
 11
32
 21
258
  0
LINE
  8
0
 10
32
 20
258
 11
32
 21
265.667
  0
LINE
  8
0
 10
32
 20
265.667
 11
14
 21
265.667
  0
LINE
  8
0
 10
14
 20
265.667
 11
14
 21
258
  0
LINE
  8
0
 10
14
 20
258
 11
12
 21
258
  0
LINE
  8
0
 10
12
 20
258
 11
12
 21
265.667
  0
LINE
  8
0
 10
12
 20
265.667
 11
-6
 21
265.667
  0
LINE
  8
0
 10
-6
 20
265.667
 11
-6
 21
258
  0
LINE
  8
0
 10
-6
 20
258
 11
-8
 21
258
  0
LINE
  8
0
 10
-8
 20
258
 11
-8
 21
265.667
  0
LINE
  8
0
 10
-8
 20
265.667
 11
-13
 21
265.667
  0
LINE
  8
0
 10
-13
 20
265.667
 11
-13
 21
250.333
  0
LINE
  8
0
 10
-13
 20
250.333
 11
57
 21
250.333
  0
LINE
  8
0
 10
57
 20
250.333
 11
57
 21
265.667
  0
LINE
  8
0
 10
57
 20
249.333
 11
54
 21
249.333
  0
LINE
  8
0
 10
54
 20
249.333
 11
54
 21
241.667
  0
LINE
  8
0
 10
54
 20
241.667
 11
52
 21
241.667
  0
LINE
  8
0
 10
52
 20
241.667
 11
52
 21
249.333
  0
LINE
  8
0
 10
52
 20
249.333
 11
34
 21
249.333
  0
LINE
  8
0
 10
34
 20
249.333
 11
34
 21
241.667
  0
LINE
  8
0
 10
34
 20
241.667
 11
32
 21
241.667
  0
LINE
  8
0
 10
32
 20
241.667
 11
32
 21
249.333
  0
LINE
  8
0
 10
32
 20
249.333
 11
14
 21
249.333
  0
LINE
  8
0
 10
14
 20
249.333
 11
14
 21
241.667
  0
LINE
  8
0
 10
14
 20
241.667
 11
12
 21
241.667
  0
LINE
  8
0
 10
12
 20
241.667
 11
12
 21
249.333
  0
LINE
  8
0
 10
12
 20
249.333
 11
-6
 21
249.333
  0
LINE
  8
0
 10
-6
 20
249.333
 11
-6
 21
241.667
  0
LINE
  8
0
 10
-6
 20
241.667
 11
-8
 21
241.667
  0
LINE
  8
0
 10
-8
 20
241.667
 11
-8
 21
249.333
  0
LINE
  8
0
 10
-8
 20
249.333
 11
-13
 21
249.333
  0
LINE
  8
0
 10
-13
 20
249.333
 11
-13
 21
234
  0
LINE
  8
0
 10
-13
 20
234
 11
57
 21
234
  0
LINE
  8
0
 10
57
 20
234
 11
57
 21
249.333
  0
LINE
  8
0
 10
57
 20
233
 11
54
 21
233
  0
LINE
  8
0
 10
54
 20
233
 11
54
 21
225.333
  0
LINE
  8
0
 10
54
 20
225.333
 11
52
 21
225.333
  0
LINE
  8
0
 10
52
 20
225.333
 11
52
 21
233
  0
LINE
  8
0
 10
52
 20
233
 11
34
 21
233
  0
LINE
  8
0
 10
34
 20
233
 11
34
 21
225.333
  0
LINE
  8
0
 10
34
 20
225.333
 11
32
 21
225.333
  0
LINE
  8
0
 10
32
 20
225.333
 11
32
 21
233
  0
LINE
  8
0
 10
32
 20
233
 11
14
 21
233
  0
LINE
  8
0
 10
14
 20
233
 11
14
 21
225.333
  0
LINE
  8
0
 10
14
 20
225.333
 11
12
 21
225.333
  0
LINE
  8
0
 10
12
 20
225.333
 11
12
 21
233
  0
LINE
  8
0
 10
12
 20
233
 11
-6
 21
233
  0
LINE
  8
0
 10
-6
 20
233
 11
-6
 21
225.333
  0
LINE
  8
0
 10
-6
 20
225.333
 11
-8
 21
225.333
  0
LINE
  8
0
 10
-8
 20
225.333
 11
-8
 21
233
  0
LINE
  8
0
 10
-8
 20
233
 11
-13
 21
233
  0
LINE
  8
0
 10
-13
 20
233
 11
-13
 21
217.667
  0
LINE
  8
0
 10
-13
 20
217.667
 11
57
 21
217.667
  0
LINE
  8
0
 10
57
 20
217.667
 11
57
 21
233
  0
LINE
  8
0
 10
57
 20
216.667
 11
54
 21
216.667
  0
LINE
  8
0
 10
54
 20
216.667
 11
54
 21
209
  0
LINE
  8
0
 10
54
 20
209
 11
52
 21
209
  0
LINE
  8
0
 10
52
 20
209
 11
52
 21
216.667
  0
LINE
  8
0
 10
52
 20
216.667
 11
34
 21
216.667
  0
LINE
  8
0
 10
34
 20
216.667
 11
34
 21
209
  0
LINE
  8
0
 10
34
 20
209
 11
32
 21
209
  0
LINE
  8
0
 10
32
 20
209
 11
32
 21
216.667
  0
LINE
  8
0
 10
32
 20
216.667
 11
14
 21
216.667
  0
LINE
  8
0
 10
14
 20
216.667
 11
14
 21
209
  0
LINE
  8
0
 10
14
 20
209
 11
12
 21
209
  0
LINE
  8
0
 10
12
 20
209
 11
12
 21
216.667
  0
LINE
  8
0
 10
12
 20
216.667
 11
-6
 21
216.667
  0
LINE
  8
0
 10
-6
 20
216.667
 11
-6
 21
209
  0
LINE
  8
0
 10
-6
 20
209
 11
-8
 21
209
  0
LINE
  8
0
 10
-8
 20
209
 11
-8
 21
216.667
  0
LINE
  8
0
 10
-8
 20
216.667
 11
-13
 21
216.667
  0
LINE
  8
0
 10
-13
 20
216.667
 11
-13
 21
201.333
  0
LINE
  8
0
 10
-13
 20
201.333
 11
57
 21
201.333
  0
LINE
  8
0
 10
57
 20
201.333
 11
57
 21
216.667
  0
LINE
  8
0
 10
57
 20
200.333
 11
54
 21
200.333
  0
LINE
  8
0
 10
54
 20
200.333
 11
54
 21
192.667
  0
LINE
  8
0
 10
54
 20
192.667
 11
52
 21
192.667
  0
LINE
  8
0
 10
52
 20
192.667
 11
52
 21
200.333
  0
LINE
  8
0
 10
52
 20
200.333
 11
34
 21
200.333
  0
LINE
  8
0
 10
34
 20
200.333
 11
34
 21
192.667
  0
LINE
  8
0
 10
34
 20
192.667
 11
32
 21
192.667
  0
LINE
  8
0
 10
32
 20
192.667
 11
32
 21
200.333
  0
LINE
  8
0
 10
32
 20
200.333
 11
14
 21
200.333
  0
LINE
  8
0
 10
14
 20
200.333
 11
14
 21
192.667
  0
LINE
  8
0
 10
14
 20
192.667
 11
12
 21
192.667
  0
LINE
  8
0
 10
12
 20
192.667
 11
12
 21
200.333
  0
LINE
  8
0
 10
12
 20
200.333
 11
-6
 21
200.333
  0
LINE
  8
0
 10
-6
 20
200.333
 11
-6
 21
192.667
  0
LINE
  8
0
 10
-6
 20
192.667
 11
-8
 21
192.667
  0
LINE
  8
0
 10
-8
 20
192.667
 11
-8
 21
200.333
  0
LINE
  8
0
 10
-8
 20
200.333
 11
-13
 21
200.333
  0
LINE
  8
0
 10
-13
 20
200.333
 11
-13
 21
185
  0
LINE
  8
0
 10
-13
 20
185
 11
57
 21
185
  0
LINE
  8
0
 10
57
 20
185
 11
57
 21
200.333
  0
LINE
  8
0
 10
5.33333
 20
19
 11
-2.33333
 21
19
  0
LINE
  8
0
 10
-2.33333
 20
19
 11
-2.33333
 21
21
  0
LINE
  8
0
 10
-2.33333
 20
21
 11
5.33333
 21
21
  0
LINE
  8
0
 10
5.33333
 20
21
 11
5.33333
 21
39
  0
LINE
  8
0
 10
5.33333
 20
39
 11
-2.33333
 21
39
  0
LINE
  8
0
 10
-2.33333
 20
39
 11
-2.33333
 21
41
  0
LINE
  8
0
 10
-2.33333
 20
41
 11
5.33333
 21
41
  0
LINE
  8
0
 10
5.33333
 20
41
 11
5.33333
 21
59
  0
LINE
  8
0
 10
5.33333
 20
59
 11
-2.33333
 21
59
  0
LINE
  8
0
 10
-2.33333
 20
59
 11
-2.33333
 21
61
  0
LINE
  8
0
 10
-2.33333
 20
61
 11
5.33333
 21
61
  0
LINE
  8
0
 10
5.33333
 20
61
 11
5.33333
 21
79
  0
LINE
  8
0
 10
5.33333
 20
79
 11
-2.33333
 21
79
  0
LINE
  8
0
 10
-2.33333
 20
79
 11
-2.33333
 21
81
  0
LINE
  8
0
 10
-2.33333
 20
81
 11
5.33333
 21
81
  0
LINE
  8
0
 10
5.33333
 20
81
 11
5.33333
 21
99
  0
LINE
  8
0
 10
5.33333
 20
99
 11
-2.33333
 21
99
  0
LINE
  8
0
 10
-2.33333
 20
99
 11
-2.33333
 21
101
  0
LINE
  8
0
 10
-2.33333
 20
101
 11
5.33333
 21
101
  0
LINE
  8
0
 10
5.33333
 20
101
 11
5.33333
 21
119
  0
LINE
  8
0
 10
5.33333
 20
119
 11
-2.33333
 21
119
  0
LINE
  8
0
 10
-2.33333
 20
119
 11
-2.33333
 21
121
  0
LINE
  8
0
 10
-2.33333
 20
121
 11
5.33333
 21
121
  0
LINE
  8
0
 10
5.33333
 20
121
 11
5.33333
 21
139
  0
LINE
  8
0
 10
5.33333
 20
139
 11
-2.33333
 21
139
  0
LINE
  8
0
 10
-2.33333
 20
139
 11
-2.33333
 21
141
  0
LINE
  8
0
 10
-2.33333
 20
141
 11
5.33333
 21
141
  0
LINE
  8
0
 10
5.33333
 20
141
 11
5.33333
 21
159
  0
LINE
  8
0
 10
5.33333
 20
159
 11
-2.33333
 21
159
  0
LINE
  8
0
 10
-2.33333
 20
159
 11
-2.33333
 21
161
  0
LINE
  8
0
 10
-2.33333
 20
161
 11
5.33333
 21
161
  0
LINE
  8
0
 10
5.33333
 20
161
 11
5.33333
 21
179
  0
LINE
  8
0
 10
5.33333
 20
179
 11
-2.33333
 21
179
  0
LINE
  8
0
 10
-2.33333
 20
179
 11
-2.33333
 21
181
  0
LINE
  8
0
 10
-2.33333
 20
181
 11
5.33333
 21
181
  0
LINE
  8
0
 10
5.33333
 20
181
 11
5.33333
 21
184
  0
LINE
  8
0
 10
5.33333
 20
184
 11
-10
 21
184
  0
LINE
  8
0
 10
-10
 20
184
 11
-10
 21
169
  0
LINE
  8
0
 10
-10
 20
169
 11
-15.5
 21
169
  0
LINE
  8
0
 10
-15.5
 20
169
 11
-15.5
 21
154
  0
LINE
  8
0
 10
-15.5
 20
154
 11
-12.5
 21
154
  0
LINE
  8
0
 10
-12.5
 20
154
 11
-12.5
 21
159
  0
LINE
  8
0
 10
-12.5
 20
159
 11
-10
 21
159
  0
LINE
  8
0
 10
-10
 20
159
 11
-10
 21
39
  0
LINE
  8
0
 10
-10
 20
39
 11
-15.5
 21
39
  0
LINE
  8
0
 10
-15.5
 20
39
 11
-15.5
 21
24
  0
LINE
  8
0
 10
-15.5
 20
24
 11
-12.5
 21
24
  0
LINE
  8
0
 10
-12.5
 20
24
 11
-12.5
 21
29
  0
LINE
  8
0
 10
-12.5
 20
29
 11
-10
 21
29
  0
LINE
  8
0
 10
-10
 20
29
 11
-10
 21
14
  0
LINE
  8
0
 10
-10
 20
14
 11
5.33333
 21
14
  0
LINE
  8
0
 10
5.33333
 20
14
 11
5.33333
 21
19
  0
LINE
  8
0
 10
27.1667
 20
19
 11
19.5
 21
19
  0
LINE
  8
0
 10
19.5
 20
19
 11
19.5
 21
21
  0
LINE
  8
0
 10
19.5
 20
21
 11
27.1667
 21
21
  0
LINE
  8
0
 10
27.1667
 20
21
 11
27.1667
 21
39
  0
LINE
  8
0
 10
27.1667
 20
39
 11
19.5
 21
39
  0
LINE
  8
0
 10
19.5
 20
39
 11
19.5
 21
41
  0
LINE
  8
0
 10
19.5
 20
41
 11
27.1667
 21
41
  0
LINE
  8
0
 10
27.1667
 20
41
 11
27.1667
 21
59
  0
LINE
  8
0
 10
27.1667
 20
59
 11
19.5
 21
59
  0
LINE
  8
0
 10
19.5
 20
59
 11
19.5
 21
61
  0
LINE
  8
0
 10
19.5
 20
61
 11
27.1667
 21
61
  0
LINE
  8
0
 10
27.1667
 20
61
 11
27.1667
 21
79
  0
LINE
  8
0
 10
27.1667
 20
79
 11
19.5
 21
79
  0
LINE
  8
0
 10
19.5
 20
79
 11
19.5
 21
81
  0
LINE
  8
0
 10
19.5
 20
81
 11
27.1667
 21
81
  0
LINE
  8
0
 10
27.1667
 20
81
 11
27.1667
 21
99
  0
LINE
  8
0
 10
27.1667
 20
99
 11
19.5
 21
99
  0
LINE
  8
0
 10
19.5
 20
99
 11
19.5
 21
101
  0
LINE
  8
0
 10
19.5
 20
101
 11
27.1667
 21
101
  0
LINE
  8
0
 10
27.1667
 20
101
 11
27.1667
 21
119
  0
LINE
  8
0
 10
27.1667
 20
119
 11
19.5
 21
119
  0
LINE
  8
0
 10
19.5
 20
119
 11
19.5
 21
121
  0
LINE
  8
0
 10
19.5
 20
121
 11
27.1667
 21
121
  0
LINE
  8
0
 10
27.1667
 20
121
 11
27.1667
 21
139
  0
LINE
  8
0
 10
27.1667
 20
139
 11
19.5
 21
139
  0
LINE
  8
0
 10
19.5
 20
139
 11
19.5
 21
141
  0
LINE
  8
0
 10
19.5
 20
141
 11
27.1667
 21
141
  0
LINE
  8
0
 10
27.1667
 20
141
 11
27.1667
 21
159
  0
LINE
  8
0
 10
27.1667
 20
159
 11
19.5
 21
159
  0
LINE
  8
0
 10
19.5
 20
159
 11
19.5
 21
161
  0
LINE
  8
0
 10
19.5
 20
161
 11
27.1667
 21
161
  0
LINE
  8
0
 10
27.1667
 20
161
 11
27.1667
 21
179
  0
LINE
  8
0
 10
27.1667
 20
179
 11
19.5
 21
179
  0
LINE
  8
0
 10
19.5
 20
179
 11
19.5
 21
181
  0
LINE
  8
0
 10
19.5
 20
181
 11
27.1667
 21
181
  0
LINE
  8
0
 10
27.1667
 20
181
 11
27.1667
 21
184
  0
LINE
  8
0
 10
27.1667
 20
184
 11
11.8333
 21
184
  0
LINE
  8
0
 10
11.8333
 20
184
 11
11.8333
 21
169
  0
LINE
  8
0
 10
11.8333
 20
169
 11
6.33333
 21
169
  0
LINE
  8
0
 10
6.33333
 20
169
 11
6.33333
 21
154
  0
LINE
  8
0
 10
6.33333
 20
154
 11
9.33333
 21
154
  0
LINE
  8
0
 10
9.33333
 20
154
 11
9.33333
 21
159
  0
LINE
  8
0
 10
9.33333
 20
159
 11
11.8333
 21
159
  0
LINE
  8
0
 10
11.8333
 20
159
 11
11.8333
 21
39
  0
LINE
  8
0
 10
11.8333
 20
39
 11
6.33333
 21
39
  0
LINE
  8
0
 10
6.33333
 20
39
 11
6.33333
 21
24
  0
LINE
  8
0
 10
6.33333
 20
24
 11
9.33333
 21
24
  0
LINE
  8
0
 10
9.33333
 20
24
 11
9.33333
 21
29
  0
LINE
  8
0
 10
9.33333
 20
29
 11
11.8333
 21
29
  0
LINE
  8
0
 10
11.8333
 20
29
 11
11.8333
 21
14
  0
LINE
  8
0
 10
11.8333
 20
14
 11
27.1667
 21
14
  0
LINE
  8
0
 10
27.1667
 20
14
 11
27.1667
 21
19
  0
LINE
  8
0
 10
49
 20
19
 11
41.3333
 21
19
  0
LINE
  8
0
 10
41.3333
 20
19
 11
41.3333
 21
21
  0
LINE
  8
0
 10
41.3333
 20
21
 11
49
 21
21
  0
LINE
  8
0
 10
49
 20
21
 11
49
 21
39
  0
LINE
  8
0
 10
49
 20
39
 11
41.3333
 21
39
  0
LINE
  8
0
 10
41.3333
 20
39
 11
41.3333
 21
41
  0
LINE
  8
0
 10
41.3333
 20
41
 11
49
 21
41
  0
LINE
  8
0
 10
49
 20
41
 11
49
 21
59
  0
LINE
  8
0
 10
49
 20
59
 11
41.3333
 21
59
  0
LINE
  8
0
 10
41.3333
 20
59
 11
41.3333
 21
61
  0
LINE
  8
0
 10
41.3333
 20
61
 11
49
 21
61
  0
LINE
  8
0
 10
49
 20
61
 11
49
 21
79
  0
LINE
  8
0
 10
49
 20
79
 11
41.3333
 21
79
  0
LINE
  8
0
 10
41.3333
 20
79
 11
41.3333
 21
81
  0
LINE
  8
0
 10
41.3333
 20
81
 11
49
 21
81
  0
LINE
  8
0
 10
49
 20
81
 11
49
 21
99
  0
LINE
  8
0
 10
49
 20
99
 11
41.3333
 21
99
  0
LINE
  8
0
 10
41.3333
 20
99
 11
41.3333
 21
101
  0
LINE
  8
0
 10
41.3333
 20
101
 11
49
 21
101
  0
LINE
  8
0
 10
49
 20
101
 11
49
 21
119
  0
LINE
  8
0
 10
49
 20
119
 11
41.3333
 21
119
  0
LINE
  8
0
 10
41.3333
 20
119
 11
41.3333
 21
121
  0
LINE
  8
0
 10
41.3333
 20
121
 11
49
 21
121
  0
LINE
  8
0
 10
49
 20
121
 11
49
 21
139
  0
LINE
  8
0
 10
49
 20
139
 11
41.3333
 21
139
  0
LINE
  8
0
 10
41.3333
 20
139
 11
41.3333
 21
141
  0
LINE
  8
0
 10
41.3333
 20
141
 11
49
 21
141
  0
LINE
  8
0
 10
49
 20
141
 11
49
 21
159
  0
LINE
  8
0
 10
49
 20
159
 11
41.3333
 21
159
  0
LINE
  8
0
 10
41.3333
 20
159
 11
41.3333
 21
161
  0
LINE
  8
0
 10
41.3333
 20
161
 11
49
 21
161
  0
LINE
  8
0
 10
49
 20
161
 11
49
 21
179
  0
LINE
  8
0
 10
49
 20
179
 11
41.3333
 21
179
  0
LINE
  8
0
 10
41.3333
 20
179
 11
41.3333
 21
181
  0
LINE
  8
0
 10
41.3333
 20
181
 11
49
 21
181
  0
LINE
  8
0
 10
49
 20
181
 11
49
 21
184
  0
LINE
  8
0
 10
49
 20
184
 11
33.6667
 21
184
  0
LINE
  8
0
 10
33.6667
 20
184
 11
33.6667
 21
169
  0
LINE
  8
0
 10
33.6667
 20
169
 11
28.1667
 21
169
  0
LINE
  8
0
 10
28.1667
 20
169
 11
28.1667
 21
154
  0
LINE
  8
0
 10
28.1667
 20
154
 11
31.1667
 21
154
  0
LINE
  8
0
 10
31.1667
 20
154
 11
31.1667
 21
159
  0
LINE
  8
0
 10
31.1667
 20
159
 11
33.6667
 21
159
  0
LINE
  8
0
 10
33.6667
 20
159
 11
33.6667
 21
39
  0
LINE
  8
0
 10
33.6667
 20
39
 11
28.1667
 21
39
  0
LINE
  8
0
 10
28.1667
 20
39
 11
28.1667
 21
24
  0
LINE
  8
0
 10
28.1667
 20
24
 11
31.1667
 21
24
  0
LINE
  8
0
 10
31.1667
 20
24
 11
31.1667
 21
29
  0
LINE
  8
0
 10
31.1667
 20
29
 11
33.6667
 21
29
  0
LINE
  8
0
 10
33.6667
 20
29
 11
33.6667
 21
14
  0
LINE
  8
0
 10
33.6667
 20
14
 11
49
 21
14
  0
LINE
  8
0
 10
49
 20
14
 11
49
 21
19
  0
LINE
  8
0
 10
70.8333
 20
19
 11
63.1667
 21
19
  0
LINE
  8
0
 10
63.1667
 20
19
 11
63.1667
 21
21
  0
LINE
  8
0
 10
63.1667
 20
21
 11
70.8333
 21
21
  0
LINE
  8
0
 10
70.8333
 20
21
 11
70.8333
 21
39
  0
LINE
  8
0
 10
70.8333
 20
39
 11
63.1667
 21
39
  0
LINE
  8
0
 10
63.1667
 20
39
 11
63.1667
 21
41
  0
LINE
  8
0
 10
63.1667
 20
41
 11
70.8333
 21
41
  0
LINE
  8
0
 10
70.8333
 20
41
 11
70.8333
 21
59
  0
LINE
  8
0
 10
70.8333
 20
59
 11
63.1667
 21
59
  0
LINE
  8
0
 10
63.1667
 20
59
 11
63.1667
 21
61
  0
LINE
  8
0
 10
63.1667
 20
61
 11
70.8333
 21
61
  0
LINE
  8
0
 10
70.8333
 20
61
 11
70.8333
 21
79
  0
LINE
  8
0
 10
70.8333
 20
79
 11
63.1667
 21
79
  0
LINE
  8
0
 10
63.1667
 20
79
 11
63.1667
 21
81
  0
LINE
  8
0
 10
63.1667
 20
81
 11
70.8333
 21
81
  0
LINE
  8
0
 10
70.8333
 20
81
 11
70.8333
 21
99
  0
LINE
  8
0
 10
70.8333
 20
99
 11
63.1667
 21
99
  0
LINE
  8
0
 10
63.1667
 20
99
 11
63.1667
 21
101
  0
LINE
  8
0
 10
63.1667
 20
101
 11
70.8333
 21
101
  0
LINE
  8
0
 10
70.8333
 20
101
 11
70.8333
 21
119
  0
LINE
  8
0
 10
70.8333
 20
119
 11
63.1667
 21
119
  0
LINE
  8
0
 10
63.1667
 20
119
 11
63.1667
 21
121
  0
LINE
  8
0
 10
63.1667
 20
121
 11
70.8333
 21
121
  0
LINE
  8
0
 10
70.8333
 20
121
 11
70.8333
 21
139
  0
LINE
  8
0
 10
70.8333
 20
139
 11
63.1667
 21
139
  0
LINE
  8
0
 10
63.1667
 20
139
 11
63.1667
 21
141
  0
LINE
  8
0
 10
63.1667
 20
141
 11
70.8333
 21
141
  0
LINE
  8
0
 10
70.8333
 20
141
 11
70.8333
 21
159
  0
LINE
  8
0
 10
70.8333
 20
159
 11
63.1667
 21
159
  0
LINE
  8
0
 10
63.1667
 20
159
 11
63.1667
 21
161
  0
LINE
  8
0
 10
63.1667
 20
161
 11
70.8333
 21
161
  0
LINE
  8
0
 10
70.8333
 20
161
 11
70.8333
 21
179
  0
LINE
  8
0
 10
70.8333
 20
179
 11
63.1667
 21
179
  0
LINE
  8
0
 10
63.1667
 20
179
 11
63.1667
 21
181
  0
LINE
  8
0
 10
63.1667
 20
181
 11
70.8333
 21
181
  0
LINE
  8
0
 10
70.8333
 20
181
 11
70.8333
 21
184
  0
LINE
  8
0
 10
70.8333
 20
184
 11
55.5
 21
184
  0
LINE
  8
0
 10
55.5
 20
184
 11
55.5
 21
169
  0
LINE
  8
0
 10
55.5
 20
169
 11
50
 21
169
  0
LINE
  8
0
 10
50
 20
169
 11
50
 21
154
  0
LINE
  8
0
 10
50
 20
154
 11
53
 21
154
  0
LINE
  8
0
 10
53
 20
154
 11
53
 21
159
  0
LINE
  8
0
 10
53
 20
159
 11
55.5
 21
159
  0
LINE
  8
0
 10
55.5
 20
159
 11
55.5
 21
39
  0
LINE
  8
0
 10
55.5
 20
39
 11
50
 21
39
  0
LINE
  8
0
 10
50
 20
39
 11
50
 21
24
  0
LINE
  8
0
 10
50
 20
24
 11
53
 21
24
  0
LINE
  8
0
 10
53
 20
24
 11
53
 21
29
  0
LINE
  8
0
 10
53
 20
29
 11
55.5
 21
29
  0
LINE
  8
0
 10
55.5
 20
29
 11
55.5
 21
14
  0
LINE
  8
0
 10
55.5
 20
14
 11
70.8333
 21
14
  0
LINE
  8
0
 10
70.8333
 20
14
 11
70.8333
 21
19
  0
LINE
  8
0
 10
65
 20
13
 11
-15
 21
13
  0
LINE
  8
0
 10
-15
 20
13
 11
-15
 21
-165
  0
LINE
  8
0
 10
-15
 20
-165
 11
65
 21
-165
  0
LINE
  8
0
 10
65
 20
-165
 11
65
 21
13
  0
LINE
  8
0
 10
50.148
 20
3.3934
 11
50.0072
 21
3.39903
  0
LINE
  8
0
 10
50.0072
 20
3.39903
 11
49.8688
 21
3.4084
  0
LINE
  8
0
 10
49.8688
 20
3.4084
 11
49.7329
 21
3.42154
  0
LINE
  8
0
 10
49.7329
 20
3.42154
 11
49.5995
 21
3.43842
  0
LINE
  8
0
 10
49.5995
 20
3.43842
 11
49.4684
 21
3.45905
  0
LINE
  8
0
 10
49.4684
 20
3.45905
 11
49.3398
 21
3.48341
  0
LINE
  8
0
 10
49.3398
 20
3.48341
 11
49.2137
 21
3.51154
  0
LINE
  8
0
 10
49.2137
 20
3.51154
 11
49.0899
 21
3.54341
  0
LINE
  8
0
 10
49.0899
 20
3.54341
 11
48.9686
 21
3.57904
  0
LINE
  8
0
 10
48.9686
 20
3.57904
 11
48.8498
 21
3.61842
  0
LINE
  8
0
 10
48.8498
 20
3.61842
 11
48.7334
 21
3.66156
  0
LINE
  8
0
 10
48.7334
 20
3.66156
 11
48.6194
 21
3.70844
  0
LINE
  8
0
 10
48.6194
 20
3.70844
 11
48.5078
 21
3.75908
  0
LINE
  8
0
 10
48.5078
 20
3.75908
 11
48.3987
 21
3.81346
  0
LINE
  8
0
 10
48.3987
 20
3.81346
 11
48.2921
 21
3.8716
  0
LINE
  8
0
 10
48.2921
 20
3.8716
 11
48.1882
 21
3.93323
  0
LINE
  8
0
 10
48.1882
 20
3.93323
 11
48.0874
 21
3.99808
  0
LINE
  8
0
 10
48.0874
 20
3.99808
 11
47.9898
 21
4.06615
  0
LINE
  8
0
 10
47.9898
 20
4.06615
 11
47.8954
 21
4.13744
  0
LINE
  8
0
 10
47.8954
 20
4.13744
 11
47.804
 21
4.21194
  0
LINE
  8
0
 10
47.804
 20
4.21194
 11
47.7158
 21
4.28969
  0
LINE
  8
0
 10
47.7158
 20
4.28969
 11
47.6308
 21
4.37064
  0
LINE
  8
0
 10
47.6308
 20
4.37064
 11
47.5488
 21
4.45482
  0
LINE
  8
0
 10
47.5488
 20
4.45482
 11
47.47
 21
4.54221
  0
LINE
  8
0
 10
47.47
 20
4.54221
 11
47.3944
 21
4.63283
  0
LINE
  8
0
 10
47.3944
 20
4.63283
 11
47.3219
 21
4.72665
  0
LINE
  8
0
 10
47.3219
 20
4.72665
 11
47.2525
 21
4.82372
  0
LINE
  8
0
 10
47.2525
 20
4.82372
 11
47.1862
 21
4.924
  0
LINE
  8
0
 10
47.1862
 20
4.924
 11
47.1231
 21
5.0275
  0
LINE
  8
0
 10
47.1231
 20
5.0275
 11
47.0632
 21
5.13422
  0
LINE
  8
0
 10
47.0632
 20
5.13422
 11
47.0063
 21
5.24416
  0
LINE
  8
0
 10
47.0063
 20
5.24416
 11
46.9528
 21
5.35698
  0
LINE
  8
0
 10
46.9528
 20
5.35698
 11
46.9027
 21
5.47238
  0
LINE
  8
0
 10
46.9027
 20
5.47238
 11
46.8561
 21
5.59035
  0
LINE
  8
0
 10
46.8561
 20
5.59035
 11
46.8129
 21
5.71086
  0
LINE
  8
0
 10
46.8129
 20
5.71086
 11
46.7732
 21
5.83395
  0
LINE
  8
0
 10
46.7732
 20
5.83395
 11
46.7369
 21
5.95961
  0
LINE
  8
0
 10
46.7369
 20
5.95961
 11
46.7041
 21
6.08783
  0
LINE
  8
0
 10
46.7041
 20
6.08783
 11
46.6748
 21
6.21861
  0
LINE
  8
0
 10
46.6748
 20
6.21861
 11
46.6488
 21
6.35196
  0
LINE
  8
0
 10
46.6488
 20
6.35196
 11
46.6264
 21
6.48787
  0
LINE
  8
0
 10
46.6264
 20
6.48787
 11
46.6074
 21
6.62634
  0
LINE
  8
0
 10
46.6074
 20
6.62634
 11
46.5919
 21
6.76738
  0
LINE
  8
0
 10
46.5919
 20
6.76738
 11
46.5798
 21
6.911
  0
LINE
  8
0
 10
46.5798
 20
6.911
 11
46.5711
 21
7.05716
  0
LINE
  8
0
 10
46.5711
 20
7.05716
 11
46.566
 21
7.2059
  0
LINE
  8
0
 10
46.566
 20
7.2059
 11
46.5642
 21
7.35719
  0
LINE
  8
0
 10
46.5642
 20
7.35719
 11
46.5681
 21
7.58263
  0
LINE
  8
0
 10
46.5681
 20
7.58263
 11
46.5797
 21
7.80188
  0
LINE
  8
0
 10
46.5797
 20
7.80188
 11
46.5989
 21
8.01494
  0
LINE
  8
0
 10
46.5989
 20
8.01494
 11
46.6259
 21
8.2218
  0
LINE
  8
0
 10
46.6259
 20
8.2218
 11
46.6606
 21
8.42249
  0
LINE
  8
0
 10
46.6606
 20
8.42249
 11
46.7031
 21
8.61699
  0
LINE
  8
0
 10
46.7031
 20
8.61699
 11
46.7532
 21
8.8053
  0
LINE
  8
0
 10
46.7532
 20
8.8053
 11
46.8111
 21
8.98741
  0
LINE
  8
0
 10
46.8111
 20
8.98741
 11
46.8766
 21
9.16335
  0
LINE
  8
0
 10
46.8766
 20
9.16335
 11
46.9499
 21
9.33308
  0
LINE
  8
0
 10
46.9499
 20
9.33308
 11
47.0309
 21
9.49664
  0
LINE
  8
0
 10
47.0309
 20
9.49664
 11
47.1196
 21
9.65401
  0
LINE
  8
0
 10
47.1196
 20
9.65401
 11
47.216
 21
9.80519
  0
LINE
  8
0
 10
47.216
 20
9.80519
 11
47.3201
 21
9.95018
  0
LINE
  8
0
 10
47.3201
 20
9.95018
 11
47.432
 21
10.089
  0
LINE
  8
0
 10
47.432
 20
10.089
 11
47.5515
 21
10.2216
  0
LINE
  8
0
 10
47.5515
 20
10.2216
 11
47.6779
 21
10.3471
  0
LINE
  8
0
 10
47.6779
 20
10.3471
 11
47.8102
 21
10.4644
  0
LINE
  8
0
 10
47.8102
 20
10.4644
 11
47.9485
 21
10.5737
  0
LINE
  8
0
 10
47.9485
 20
10.5737
 11
48.0927
 21
10.6749
  0
LINE
  8
0
 10
48.0927
 20
10.6749
 11
48.2428
 21
10.768
  0
LINE
  8
0
 10
48.2428
 20
10.768
 11
48.3988
 21
10.853
  0
LINE
  8
0
 10
48.3988
 20
10.853
 11
48.5608
 21
10.9299
  0
LINE
  8
0
 10
48.5608
 20
10.9299
 11
48.7288
 21
10.9987
  0
LINE
  8
0
 10
48.7288
 20
10.9987
 11
48.9026
 21
11.0594
  0
LINE
  8
0
 10
48.9026
 20
11.0594
 11
49.0824
 21
11.112
  0
LINE
  8
0
 10
49.0824
 20
11.112
 11
49.2681
 21
11.1566
  0
LINE
  8
0
 10
49.2681
 20
11.1566
 11
49.4598
 21
11.193
  0
LINE
  8
0
 10
49.4598
 20
11.193
 11
49.6574
 21
11.2213
  0
LINE
  8
0
 10
49.6574
 20
11.2213
 11
49.8609
 21
11.2416
  0
LINE
  8
0
 10
49.8609
 20
11.2416
 11
50.0704
 21
11.2537
  0
LINE
  8
0
 10
50.0704
 20
11.2537
 11
50.2858
 21
11.2578
  0
LINE
  8
0
 10
50.2858
 20
11.2578
 11
50.4368
 21
11.2559
  0
LINE
  8
0
 10
50.4368
 20
11.2559
 11
50.5846
 21
11.2503
  0
LINE
  8
0
 10
50.5846
 20
11.2503
 11
50.7294
 21
11.241
  0
LINE
  8
0
 10
50.7294
 20
11.241
 11
50.871
 21
11.2279
  0
LINE
  8
0
 10
50.871
 20
11.2279
 11
51.0094
 21
11.2111
  0
LINE
  8
0
 10
51.0094
 20
11.2111
 11
51.1448
 21
11.1906
  0
LINE
  8
0
 10
51.1448
 20
11.1906
 11
51.277
 21
11.1664
  0
LINE
  8
0
 10
51.277
 20
11.1664
 11
51.406
 21
11.1384
  0
LINE
  8
0
 10
51.406
 20
11.1384
 11
51.5319
 21
11.1067
  0
LINE
  8
0
 10
51.5319
 20
11.1067
 11
51.6547
 21
11.0713
  0
LINE
  8
0
 10
51.6547
 20
11.0713
 11
51.7744
 21
11.0321
  0
LINE
  8
0
 10
51.7744
 20
11.0321
 11
51.8909
 21
10.9892
  0
LINE
  8
0
 10
51.8909
 20
10.9892
 11
52.0042
 21
10.9426
  0
LINE
  8
0
 10
52.0042
 20
10.9426
 11
52.1145
 21
10.8922
  0
LINE
  8
0
 10
52.1145
 20
10.8922
 11
52.2216
 21
10.8381
  0
LINE
  8
0
 10
52.2216
 20
10.8381
 11
52.3255
 21
10.7803
  0
LINE
  8
0
 10
52.3255
 20
10.7803
 11
52.4262
 21
10.7188
  0
LINE
  8
0
 10
52.4262
 20
10.7188
 11
52.5235
 21
10.6538
  0
LINE
  8
0
 10
52.5235
 20
10.6538
 11
52.6175
 21
10.5851
  0
LINE
  8
0
 10
52.6175
 20
10.5851
 11
52.708
 21
10.5128
  0
LINE
  8
0
 10
52.708
 20
10.5128
 11
52.7951
 21
10.4369
  0
LINE
  8
0
 10
52.7951
 20
10.4369
 11
52.8789
 21
10.3574
  0
LINE
  8
0
 10
52.8789
 20
10.3574
 11
52.9592
 21
10.2744
  0
LINE
  8
0
 10
52.9592
 20
10.2744
 11
53.0362
 21
10.1877
  0
LINE
  8
0
 10
53.0362
 20
10.1877
 11
53.1098
 21
10.0974
  0
LINE
  8
0
 10
53.1098
 20
10.0974
 11
53.18
 21
10.0035
  0
LINE
  8
0
 10
53.18
 20
10.0035
 11
53.2468
 21
9.90596
  0
LINE
  8
0
 10
53.2468
 20
9.90596
 11
53.3102
 21
9.80484
  0
LINE
  8
0
 10
53.3102
 20
9.80484
 11
53.3702
 21
9.70013
  0
LINE
  8
0
 10
53.3702
 20
9.70013
 11
53.4268
 21
9.59183
  0
LINE
  8
0
 10
53.4268
 20
9.59183
 11
53.4801
 21
9.4799
  0
LINE
  8
0
 10
53.4801
 20
9.4799
 11
53.5299
 21
9.3644
  0
LINE
  8
0
 10
53.5299
 20
9.3644
 11
52.548
 21
9.03896
  0
LINE
  8
0
 10
52.548
 20
9.03896
 11
52.5135
 21
9.12114
  0
LINE
  8
0
 10
52.5135
 20
9.12114
 11
52.4765
 21
9.20085
  0
LINE
  8
0
 10
52.4765
 20
9.20085
 11
52.437
 21
9.27812
  0
LINE
  8
0
 10
52.437
 20
9.27812
 11
52.3949
 21
9.35292
  0
LINE
  8
0
 10
52.3949
 20
9.35292
 11
52.3503
 21
9.42526
  0
LINE
  8
0
 10
52.3503
 20
9.42526
 11
52.3032
 21
9.49515
  0
LINE
  8
0
 10
52.3032
 20
9.49515
 11
52.2536
 21
9.56258
  0
LINE
  8
0
 10
52.2536
 20
9.56258
 11
52.2014
 21
9.62755
  0
LINE
  8
0
 10
52.2014
 20
9.62755
 11
52.1468
 21
9.69006
  0
LINE
  8
0
 10
52.1468
 20
9.69006
 11
52.0896
 21
9.75012
  0
LINE
  8
0
 10
52.0896
 20
9.75012
 11
52.0299
 21
9.80771
  0
LINE
  8
0
 10
52.0299
 20
9.80771
 11
51.9677
 21
9.86284
  0
LINE
  8
0
 10
51.9677
 20
9.86284
 11
51.9029
 21
9.91551
  0
LINE
  8
0
 10
51.9029
 20
9.91551
 11
51.8356
 21
9.96573
  0
LINE
  8
0
 10
51.8356
 20
9.96573
 11
51.7658
 21
10.0135
  0
LINE
  8
0
 10
51.7658
 20
10.0135
 11
51.6935
 21
10.0588
  0
LINE
  8
0
 10
51.6935
 20
10.0588
 11
51.6191
 21
10.1015
  0
LINE
  8
0
 10
51.6191
 20
10.1015
 11
51.5429
 21
10.1414
  0
LINE
  8
0
 10
51.5429
 20
10.1414
 11
51.4651
 21
10.1786
  0
LINE
  8
0
 10
51.4651
 20
10.1786
 11
51.3855
 21
10.2131
  0
LINE
  8
0
 10
51.3855
 20
10.2131
 11
51.3042
 21
10.2448
  0
LINE
  8
0
 10
51.3042
 20
10.2448
 11
51.2212
 21
10.2737
  0
LINE
  8
0
 10
51.2212
 20
10.2737
 11
51.1365
 21
10.2999
  0
LINE
  8
0
 10
51.1365
 20
10.2999
 11
51.05
 21
10.3233
  0
LINE
  8
0
 10
51.05
 20
10.3233
 11
50.9619
 21
10.3439
  0
LINE
  8
0
 10
50.9619
 20
10.3439
 11
50.872
 21
10.3618
  0
LINE
  8
0
 10
50.872
 20
10.3618
 11
50.7804
 21
10.377
  0
LINE
  8
0
 10
50.7804
 20
10.377
 11
50.6871
 21
10.3894
  0
LINE
  8
0
 10
50.6871
 20
10.3894
 11
50.592
 21
10.399
  0
LINE
  8
0
 10
50.592
 20
10.399
 11
50.4953
 21
10.4059
  0
LINE
  8
0
 10
50.4953
 20
10.4059
 11
50.3968
 21
10.41
  0
LINE
  8
0
 10
50.3968
 20
10.41
 11
50.2966
 21
10.4114
  0
LINE
  8
0
 10
50.2966
 20
10.4114
 11
50.1402
 21
10.4082
  0
LINE
  8
0
 10
50.1402
 20
10.4082
 11
49.9881
 21
10.3987
  0
LINE
  8
0
 10
49.9881
 20
10.3987
 11
49.8404
 21
10.3827
  0
LINE
  8
0
 10
49.8404
 20
10.3827
 11
49.6971
 21
10.3604
  0
LINE
  8
0
 10
49.6971
 20
10.3604
 11
49.5583
 21
10.3317
  0
LINE
  8
0
 10
49.5583
 20
10.3317
 11
49.4238
 21
10.2966
  0
LINE
  8
0
 10
49.4238
 20
10.2966
 11
49.2938
 21
10.2552
  0
LINE
  8
0
 10
49.2938
 20
10.2552
 11
49.1682
 21
10.2073
  0
LINE
  8
0
 10
49.1682
 20
10.2073
 11
49.047
 21
10.1531
  0
LINE
  8
0
 10
49.047
 20
10.1531
 11
48.9301
 21
10.0925
  0
LINE
  8
0
 10
48.9301
 20
10.0925
 11
48.8177
 21
10.0255
  0
LINE
  8
0
 10
48.8177
 20
10.0255
 11
48.7097
 21
9.95216
  0
LINE
  8
0
 10
48.7097
 20
9.95216
 11
48.6062
 21
9.87242
  0
LINE
  8
0
 10
48.6062
 20
9.87242
 11
48.507
 21
9.78632
  0
LINE
  8
0
 10
48.507
 20
9.78632
 11
48.4122
 21
9.69382
  0
LINE
  8
0
 10
48.4122
 20
9.69382
 11
48.3218
 21
9.59496
  0
LINE
  8
0
 10
48.3218
 20
9.59496
 11
48.2364
 21
9.49054
  0
LINE
  8
0
 10
48.2364
 20
9.49054
 11
48.1566
 21
9.38139
  0
LINE
  8
0
 10
48.1566
 20
9.38139
 11
48.0822
 21
9.26753
  0
LINE
  8
0
 10
48.0822
 20
9.26753
 11
48.0133
 21
9.14894
  0
LINE
  8
0
 10
48.0133
 20
9.14894
 11
47.95
 21
9.02562
  0
LINE
  8
0
 10
47.95
 20
9.02562
 11
47.8921
 21
8.89758
  0
LINE
  8
0
 10
47.8921
 20
8.89758
 11
47.8398
 21
8.76482
  0
LINE
  8
0
 10
47.8398
 20
8.76482
 11
47.7929
 21
8.62732
  0
LINE
  8
0
 10
47.7929
 20
8.62732
 11
47.7516
 21
8.48509
  0
LINE
  8
0
 10
47.7516
 20
8.48509
 11
47.7158
 21
8.33813
  0
LINE
  8
0
 10
47.7158
 20
8.33813
 11
47.6855
 21
8.18646
  0
LINE
  8
0
 10
47.6855
 20
8.18646
 11
47.6607
 21
8.03006
  0
LINE
  8
0
 10
47.6607
 20
8.03006
 11
47.6414
 21
7.86893
  0
LINE
  8
0
 10
47.6414
 20
7.86893
 11
47.6277
 21
7.70308
  0
LINE
  8
0
 10
47.6277
 20
7.70308
 11
47.6194
 21
7.5325
  0
LINE
  8
0
 10
47.6194
 20
7.5325
 11
47.6166
 21
7.35719
  0
LINE
  8
0
 10
47.6166
 20
7.35719
 11
47.6195
 21
7.1837
  0
LINE
  8
0
 10
47.6195
 20
7.1837
 11
47.6281
 21
7.01451
  0
LINE
  8
0
 10
47.6281
 20
7.01451
 11
47.6425
 21
6.84962
  0
LINE
  8
0
 10
47.6425
 20
6.84962
 11
47.6626
 21
6.68904
  0
LINE
  8
0
 10
47.6626
 20
6.68904
 11
47.6884
 21
6.53276
  0
LINE
  8
0
 10
47.6884
 20
6.53276
 11
47.72
 21
6.38078
  0
LINE
  8
0
 10
47.72
 20
6.38078
 11
47.7573
 21
6.23311
  0
LINE
  8
0
 10
47.7573
 20
6.23311
 11
47.8004
 21
6.08974
  0
LINE
  8
0
 10
47.8004
 20
6.08974
 11
47.8492
 21
5.95065
  0
LINE
  8
0
 10
47.8492
 20
5.95065
 11
47.9038
 21
5.81589
  0
LINE
  8
0
 10
47.9038
 20
5.81589
 11
47.9641
 21
5.68541
  0
LINE
  8
0
 10
47.9641
 20
5.68541
 11
48.0301
 21
5.55925
  0
LINE
  8
0
 10
48.0301
 20
5.55925
 11
48.1019
 21
5.43738
  0
LINE
  8
0
 10
48.1019
 20
5.43738
 11
48.1794
 21
5.31981
  0
LINE
  8
0
 10
48.1794
 20
5.31981
 11
48.2627
 21
5.20656
  0
LINE
  8
0
 10
48.2627
 20
5.20656
 11
48.3517
 21
5.0976
  0
LINE
  8
0
 10
48.3517
 20
5.0976
 11
48.4456
 21
4.99413
  0
LINE
  8
0
 10
48.4456
 20
4.99413
 11
48.5435
 21
4.89734
  0
LINE
  8
0
 10
48.5435
 20
4.89734
 11
48.6456
 21
4.80724
  0
LINE
  8
0
 10
48.6456
 20
4.80724
 11
48.7516
 21
4.72379
  0
LINE
  8
0
 10
48.7516
 20
4.72379
 11
48.8617
 21
4.64703
  0
LINE
  8
0
 10
48.8617
 20
4.64703
 11
48.9759
 21
4.57693
  0
LINE
  8
0
 10
48.9759
 20
4.57693
 11
49.0941
 21
4.51353
  0
LINE
  8
0
 10
49.0941
 20
4.51353
 11
49.2163
 21
4.45679
  0
LINE
  8
0
 10
49.2163
 20
4.45679
 11
49.3426
 21
4.40672
  0
LINE
  8
0
 10
49.3426
 20
4.40672
 11
49.4729
 21
4.36334
  0
LINE
  8
0
 10
49.4729
 20
4.36334
 11
49.6073
 21
4.32663
  0
LINE
  8
0
 10
49.6073
 20
4.32663
 11
49.7458
 21
4.29659
  0
LINE
  8
0
 10
49.7458
 20
4.29659
 11
49.8883
 21
4.27322
  0
LINE
  8
0
 10
49.8883
 20
4.27322
 11
50.0348
 21
4.25655
  0
LINE
  8
0
 10
50.0348
 20
4.25655
 11
50.1854
 21
4.24654
  0
LINE
  8
0
 10
50.1854
 20
4.24654
 11
50.34
 21
4.24319
  0
LINE
  8
0
 10
50.34
 20
4.24319
 11
50.5376
 21
4.2494
  0
LINE
  8
0
 10
50.5376
 20
4.2494
 11
50.729
 21
4.26804
  0
LINE
  8
0
 10
50.729
 20
4.26804
 11
50.9141
 21
4.29907
  0
LINE
  8
0
 10
50.9141
 20
4.29907
 11
51.0931
 21
4.34254
  0
LINE
  8
0
 10
51.0931
 20
4.34254
 11
51.2658
 21
4.39842
  0
LINE
  8
0
 10
51.2658
 20
4.39842
 11
51.4322
 21
4.46672
  0
LINE
  8
0
 10
51.4322
 20
4.46672
 11
51.5925
 21
4.54744
  0
LINE
  8
0
 10
51.5925
 20
4.54744
 11
51.7465
 21
4.64058
  0
LINE
  8
0
 10
51.7465
 20
4.64058
 11
51.8942
 21
4.74612
  0
LINE
  8
0
 10
51.8942
 20
4.74612
 11
52.0358
 21
4.86411
  0
LINE
  8
0
 10
52.0358
 20
4.86411
 11
52.1711
 21
4.99449
  0
LINE
  8
0
 10
52.1711
 20
4.99449
 11
52.3001
 21
5.1373
  0
LINE
  8
0
 10
52.3001
 20
5.1373
 11
52.423
 21
5.29253
  0
LINE
  8
0
 10
52.423
 20
5.29253
 11
52.5396
 21
5.46017
  0
LINE
  8
0
 10
52.5396
 20
5.46017
 11
52.65
 21
5.64023
  0
LINE
  8
0
 10
52.65
 20
5.64023
 11
52.7542
 21
5.83272
  0
LINE
  8
0
 10
52.7542
 20
5.83272
 11
53.6004
 21
5.40959
  0
LINE
  8
0
 10
53.6004
 20
5.40959
 11
53.5399
 21
5.28801
  0
LINE
  8
0
 10
53.5399
 20
5.28801
 11
53.4764
 21
5.17012
  0
LINE
  8
0
 10
53.4764
 20
5.17012
 11
53.41
 21
5.05592
  0
LINE
  8
0
 10
53.41
 20
5.05592
 11
53.3405
 21
4.94542
  0
LINE
  8
0
 10
53.3405
 20
4.94542
 11
53.2681
 21
4.83859
  0
LINE
  8
0
 10
53.2681
 20
4.83859
 11
53.1927
 21
4.73544
  0
LINE
  8
0
 10
53.1927
 20
4.73544
 11
53.1142
 21
4.636
  0
LINE
  8
0
 10
53.1142
 20
4.636
 11
53.0328
 21
4.54024
  0
LINE
  8
0
 10
53.0328
 20
4.54024
 11
52.9484
 21
4.44815
  0
LINE
  8
0
 10
52.9484
 20
4.44815
 11
52.8611
 21
4.35977
  0
LINE
  8
0
 10
52.8611
 20
4.35977
 11
52.7707
 21
4.27507
  0
LINE
  8
0
 10
52.7707
 20
4.27507
 11
52.6773
 21
4.19405
  0
LINE
  8
0
 10
52.6773
 20
4.19405
 11
52.581
 21
4.11673
  0
LINE
  8
0
 10
52.581
 20
4.11673
 11
52.4816
 21
4.04309
  0
LINE
  8
0
 10
52.4816
 20
4.04309
 11
52.3793
 21
3.97313
  0
LINE
  8
0
 10
52.3793
 20
3.97313
 11
52.274
 21
3.90688
  0
LINE
  8
0
 10
52.274
 20
3.90688
 11
52.1661
 21
3.84447
  0
LINE
  8
0
 10
52.1661
 20
3.84447
 11
52.0561
 21
3.78609
  0
LINE
  8
0
 10
52.0561
 20
3.78609
 11
51.944
 21
3.73174
  0
LINE
  8
0
 10
51.944
 20
3.73174
 11
51.8297
 21
3.6814
  0
LINE
  8
0
 10
51.8297
 20
3.6814
 11
51.7132
 21
3.6351
  0
LINE
  8
0
 10
51.7132
 20
3.6351
 11
51.5947
 21
3.59282
  0
LINE
  8
0
 10
51.5947
 20
3.59282
 11
51.474
 21
3.55458
  0
LINE
  8
0
 10
51.474
 20
3.55458
 11
51.3511
 21
3.52036
  0
LINE
  8
0
 10
51.3511
 20
3.52036
 11
51.2261
 21
3.49017
  0
LINE
  8
0
 10
51.2261
 20
3.49017
 11
51.099
 21
3.464
  0
LINE
  8
0
 10
51.099
 20
3.464
 11
50.9697
 21
3.44185
  0
LINE
  8
0
 10
50.9697
 20
3.44185
 11
50.8383
 21
3.42374
  0
LINE
  8
0
 10
50.8383
 20
3.42374
 11
50.7047
 21
3.40965
  0
LINE
  8
0
 10
50.7047
 20
3.40965
 11
50.569
 21
3.39958
  0
LINE
  8
0
 10
50.569
 20
3.39958
 11
50.4312
 21
3.39354
  0
LINE
  8
0
 10
50.4312
 20
3.39354
 11
50.2912
 21
3.39153
  0
LINE
  8
0
 10
50.2912
 20
3.39153
 11
50.148
 21
3.3934
  0
LINE
  8
0
 10
6.02167
 20
3.5
 11
9.14104
 21
11.1438
  0
LINE
  8
0
 10
9.14104
 20
11.1438
 11
10.3183
 21
11.1438
  0
LINE
  8
0
 10
10.3183
 20
11.1438
 11
13.3889
 21
3.5
  0
LINE
  8
0
 10
13.3889
 20
3.5
 11
12.3309
 21
3.5
  0
LINE
  8
0
 10
12.3309
 20
3.5
 11
11.4575
 21
5.73511
  0
LINE
  8
0
 10
11.4575
 20
5.73511
 11
7.97472
 21
5.73511
  0
LINE
  8
0
 10
7.97472
 20
5.73511
 11
7.09583
 21
3.5
  0
LINE
  8
0
 10
7.09583
 20
3.5
 11
6.02167
 21
3.5
  0
LINE
  8
0
 10
10.1664
 20
9.06607
 11
10.1474
 21
9.11325
  0
LINE
  8
0
 10
10.1474
 20
9.11325
 11
10.1284
 21
9.16118
  0
LINE
  8
0
 10
10.1284
 20
9.16118
 11
10.1094
 21
9.20987
  0
LINE
  8
0
 10
10.1094
 20
9.20987
 11
10.0904
 21
9.25934
  0
LINE
  8
0
 10
10.0904
 20
9.25934
 11
10.0715
 21
9.30956
  0
LINE
  8
0
 10
10.0715
 20
9.30956
 11
10.0525
 21
9.36053
  0
LINE
  8
0
 10
10.0525
 20
9.36053
 11
10.0335
 21
9.41228
  0
LINE
  8
0
 10
10.0335
 20
9.41228
 11
10.0145
 21
9.4648
  0
LINE
  8
0
 10
10.0145
 20
9.4648
 11
9.99551
 21
9.51807
  0
LINE
  8
0
 10
9.99551
 20
9.51807
 11
9.97652
 21
9.5721
  0
LINE
  8
0
 10
9.97652
 20
9.5721
 11
9.95753
 21
9.62689
  0
LINE
  8
0
 10
9.95753
 20
9.62689
 11
9.93855
 21
9.68245
  0
LINE
  8
0
 10
9.93855
 20
9.68245
 11
9.91957
 21
9.73877
  0
LINE
  8
0
 10
9.91957
 20
9.73877
 11
9.90059
 21
9.79585
  0
LINE
  8
0
 10
9.90059
 20
9.79585
 11
9.88161
 21
9.8537
  0
LINE
  8
0
 10
9.88161
 20
9.8537
 11
9.86263
 21
9.91231
  0
LINE
  8
0
 10
9.86263
 20
9.91231
 11
9.71616
 21
10.3626
  0
LINE
  8
0
 10
9.71616
 20
10.3626
 11
9.66727
 21
10.2107
  0
LINE
  8
0
 10
9.66727
 20
10.2107
 11
9.64981
 21
10.1534
  0
LINE
  8
0
 10
9.64981
 20
10.1534
 11
9.63133
 21
10.0942
  0
LINE
  8
0
 10
9.63133
 20
10.0942
 11
9.61185
 21
10.0329
  0
LINE
  8
0
 10
9.61185
 20
10.0329
 11
9.59134
 21
9.96965
  0
LINE
  8
0
 10
9.59134
 20
9.96965
 11
9.56981
 21
9.9044
  0
LINE
  8
0
 10
9.56981
 20
9.9044
 11
9.54726
 21
9.83717
  0
LINE
  8
0
 10
9.54726
 20
9.83717
 11
9.5237
 21
9.76793
  0
LINE
  8
0
 10
9.5237
 20
9.76793
 11
9.49911
 21
9.69672
  0
LINE
  8
0
 10
9.49911
 20
9.69672
 11
9.47351
 21
9.62349
  0
LINE
  8
0
 10
9.47351
 20
9.62349
 11
9.4469
 21
9.54829
  0
LINE
  8
0
 10
9.4469
 20
9.54829
 11
9.41927
 21
9.47108
  0
LINE
  8
0
 10
9.41927
 20
9.47108
 11
9.39061
 21
9.39189
  0
LINE
  8
0
 10
9.39061
 20
9.39189
 11
9.36095
 21
9.3107
  0
LINE
  8
0
 10
9.36095
 20
9.3107
 11
9.33026
 21
9.22752
  0
LINE
  8
0
 10
9.33026
 20
9.22752
 11
9.29855
 21
9.14235
  0
LINE
  8
0
 10
9.29855
 20
9.14235
 11
9.26584
 21
9.05519
  0
LINE
  8
0
 10
9.26584
 20
9.05519
 11
8.28935
 21
6.54343
  0
LINE
  8
0
 10
8.28935
 20
6.54343
 11
11.1483
 21
6.54343
  0
LINE
  8
0
 10
11.1483
 20
6.54343
 11
10.1664
 21
9.06607
  0
LINE
  8
0
 10
26.9114
 20
3.5
 11
26.9114
 21
11.1438
  0
LINE
  8
0
 10
26.9114
 20
11.1438
 11
29.689
 21
11.1438
  0
LINE
  8
0
 10
29.689
 20
11.1438
 11
30.0149
 21
11.1366
  0
LINE
  8
0
 10
30.0149
 20
11.1366
 11
30.3197
 21
11.1148
  0
LINE
  8
0
 10
30.3197
 20
11.1148
 11
30.6035
 21
11.0786
  0
LINE
  8
0
 10
30.6035
 20
11.0786
 11
30.8663
 21
11.0279
  0
LINE
  8
0
 10
30.8663
 20
11.0279
 11
31.108
 21
10.9626
  0
LINE
  8
0
 10
31.108
 20
10.9626
 11
31.3287
 21
10.8829
  0
LINE
  8
0
 10
31.3287
 20
10.8829
 11
31.5284
 21
10.7887
  0
LINE
  8
0
 10
31.5284
 20
10.7887
 11
31.7071
 21
10.68
  0
LINE
  8
0
 10
31.7071
 20
10.68
 11
31.8648
 21
10.5568
  0
LINE
  8
0
 10
31.8648
 20
10.5568
 11
32.0014
 21
10.4191
  0
LINE
  8
0
 10
32.0014
 20
10.4191
 11
32.1171
 21
10.2669
  0
LINE
  8
0
 10
32.1171
 20
10.2669
 11
32.2117
 21
10.1002
  0
LINE
  8
0
 10
32.2117
 20
10.1002
 11
32.2852
 21
9.91901
  0
LINE
  8
0
 10
32.2852
 20
9.91901
 11
32.3378
 21
9.72333
  0
LINE
  8
0
 10
32.3378
 20
9.72333
 11
32.3693
 21
9.51314
  0
LINE
  8
0
 10
32.3693
 20
9.51314
 11
32.3798
 21
9.28847
  0
LINE
  8
0
 10
32.3798
 20
9.28847
 11
32.3783
 21
9.20454
  0
LINE
  8
0
 10
32.3783
 20
9.20454
 11
32.3739
 21
9.12233
  0
LINE
  8
0
 10
32.3739
 20
9.12233
 11
32.3665
 21
9.04179
  0
LINE
  8
0
 10
32.3665
 20
9.04179
 11
32.3561
 21
8.96295
  0
LINE
  8
0
 10
32.3561
 20
8.96295
 11
32.3427
 21
8.88582
  0
LINE
  8
0
 10
32.3427
 20
8.88582
 11
32.3264
 21
8.81038
  0
LINE
  8
0
 10
32.3264
 20
8.81038
 11
32.3071
 21
8.73662
  0
LINE
  8
0
 10
32.3071
 20
8.73662
 11
32.2849
 21
8.66457
  0
LINE
  8
0
 10
32.2849
 20
8.66457
 11
32.2597
 21
8.59421
  0
LINE
  8
0
 10
32.2597
 20
8.59421
 11
32.2315
 21
8.52556
  0
LINE
  8
0
 10
32.2315
 20
8.52556
 11
32.2003
 21
8.45859
  0
LINE
  8
0
 10
32.2003
 20
8.45859
 11
32.1662
 21
8.39331
  0
LINE
  8
0
 10
32.1662
 20
8.39331
 11
32.1291
 21
8.32974
  0
LINE
  8
0
 10
32.1291
 20
8.32974
 11
32.0891
 21
8.26787
  0
LINE
  8
0
 10
32.0891
 20
8.26787
 11
32.0461
 21
8.20769
  0
LINE
  8
0
 10
32.0461
 20
8.20769
 11
32.0001
 21
8.14919
  0
LINE
  8
0
 10
32.0001
 20
8.14919
 11
31.9514
 21
8.09274
  0
LINE
  8
0
 10
31.9514
 20
8.09274
 11
31.9002
 21
8.03867
  0
LINE
  8
0
 10
31.9002
 20
8.03867
 11
31.8466
 21
7.98695
  0
LINE
  8
0
 10
31.8466
 20
7.98695
 11
31.7905
 21
7.93762
  0
LINE
  8
0
 10
31.7905
 20
7.93762
 11
31.732
 21
7.89067
  0
LINE
  8
0
 10
31.732
 20
7.89067
 11
31.671
 21
7.84608
  0
LINE
  8
0
 10
31.671
 20
7.84608
 11
31.6076
 21
7.80386
  0
LINE
  8
0
 10
31.6076
 20
7.80386
 11
31.5417
 21
7.76404
  0
LINE
  8
0
 10
31.5417
 20
7.76404
 11
31.4733
 21
7.72656
  0
LINE
  8
0
 10
31.4733
 20
7.72656
 11
31.4025
 21
7.69148
  0
LINE
  8
0
 10
31.4025
 20
7.69148
 11
31.3292
 21
7.65877
  0
LINE
  8
0
 10
31.3292
 20
7.65877
 11
31.2534
 21
7.62842
  0
LINE
  8
0
 10
31.2534
 20
7.62842
 11
31.1752
 21
7.60045
  0
LINE
  8
0
 10
31.1752
 20
7.60045
 11
31.0946
 21
7.57486
  0
LINE
  8
0
 10
31.0946
 20
7.57486
 11
31.0115
 21
7.55164
  0
LINE
  8
0
 10
31.0115
 20
7.55164
 11
30.9259
 21
7.53079
  0
LINE
  8
0
 10
30.9259
 20
7.53079
 11
31.0382
 21
7.51569
  0
LINE
  8
0
 10
31.0382
 20
7.51569
 11
31.1472
 21
7.49751
  0
LINE
  8
0
 10
31.1472
 20
7.49751
 11
31.253
 21
7.47626
  0
LINE
  8
0
 10
31.253
 20
7.47626
 11
31.3555
 21
7.45193
  0
LINE
  8
0
 10
31.3555
 20
7.45193
 11
31.4547
 21
7.42453
  0
LINE
  8
0
 10
31.4547
 20
7.42453
 11
31.5507
 21
7.39407
  0
LINE
  8
0
 10
31.5507
 20
7.39407
 11
31.6434
 21
7.36052
  0
LINE
  8
0
 10
31.6434
 20
7.36052
 11
31.7328
 21
7.32391
  0
LINE
  8
0
 10
31.7328
 20
7.32391
 11
31.819
 21
7.28423
  0
LINE
  8
0
 10
31.819
 20
7.28423
 11
31.902
 21
7.24147
  0
LINE
  8
0
 10
31.902
 20
7.24147
 11
31.9816
 21
7.19563
  0
LINE
  8
0
 10
31.9816
 20
7.19563
 11
32.058
 21
7.14673
  0
LINE
  8
0
 10
32.058
 20
7.14673
 11
32.1311
 21
7.09476
  0
LINE
  8
0
 10
32.1311
 20
7.09476
 11
32.201
 21
7.0397
  0
LINE
  8
0
 10
32.201
 20
7.0397
 11
32.2676
 21
6.98158
  0
LINE
  8
0
 10
32.2676
 20
6.98158
 11
32.3309
 21
6.92039
  0
LINE
  8
0
 10
32.3309
 20
6.92039
 11
32.3907
 21
6.85664
  0
LINE
  8
0
 10
32.3907
 20
6.85664
 11
32.4467
 21
6.79085
  0
LINE
  8
0
 10
32.4467
 20
6.79085
 11
32.4987
 21
6.72298
  0
LINE
  8
0
 10
32.4987
 20
6.72298
 11
32.5469
 21
6.65306
  0
LINE
  8
0
 10
32.5469
 20
6.65306
 11
32.5913
 21
6.5811
  0
LINE
  8
0
 10
32.5913
 20
6.5811
 11
32.6318
 21
6.50706
  0
LINE
  8
0
 10
32.6318
 20
6.50706
 11
32.6684
 21
6.43098
  0
LINE
  8
0
 10
32.6684
 20
6.43098
 11
32.7012
 21
6.35286
  0
LINE
  8
0
 10
32.7012
 20
6.35286
 11
32.7301
 21
6.27266
  0
LINE
  8
0
 10
32.7301
 20
6.27266
 11
32.7552
 21
6.19041
  0
LINE
  8
0
 10
32.7552
 20
6.19041
 11
32.7764
 21
6.10611
  0
LINE
  8
0
 10
32.7764
 20
6.10611
 11
32.7938
 21
6.01974
  0
LINE
  8
0
 10
32.7938
 20
6.01974
 11
32.8073
 21
5.93134
  0
LINE
  8
0
 10
32.8073
 20
5.93134
 11
32.8169
 21
5.84087
  0
LINE
  8
0
 10
32.8169
 20
5.84087
 11
32.8227
 21
5.74834
  0
LINE
  8
0
 10
32.8227
 20
5.74834
 11
32.8246
 21
5.65375
  0
LINE
  8
0
 10
32.8246
 20
5.65375
 11
32.8217
 21
5.52803
  0
LINE
  8
0
 10
32.8217
 20
5.52803
 11
32.813
 21
5.40585
  0
LINE
  8
0
 10
32.813
 20
5.40585
 11
32.7985
 21
5.2872
  0
LINE
  8
0
 10
32.7985
 20
5.2872
 11
32.7782
 21
5.1721
  0
LINE
  8
0
 10
32.7782
 20
5.1721
 11
32.7521
 21
5.06053
  0
LINE
  8
0
 10
32.7521
 20
5.06053
 11
32.7201
 21
4.95251
  0
LINE
  8
0
 10
32.7201
 20
4.95251
 11
32.6824
 21
4.84802
  0
LINE
  8
0
 10
32.6824
 20
4.84802
 11
32.6388
 21
4.74707
  0
LINE
  8
0
 10
32.6388
 20
4.74707
 11
32.5895
 21
4.64966
  0
LINE
  8
0
 10
32.5895
 20
4.64966
 11
32.5343
 21
4.55579
  0
LINE
  8
0
 10
32.5343
 20
4.55579
 11
32.4734
 21
4.46545
  0
LINE
  8
0
 10
32.4734
 20
4.46545
 11
32.4066
 21
4.37866
  0
LINE
  8
0
 10
32.4066
 20
4.37866
 11
32.334
 21
4.29541
  0
LINE
  8
0
 10
32.334
 20
4.29541
 11
32.2556
 21
4.21568
  0
LINE
  8
0
 10
32.2556
 20
4.21568
 11
32.1714
 21
4.13951
  0
LINE
  8
0
 10
32.1714
 20
4.13951
 11
32.0814
 21
4.06688
  0
LINE
  8
0
 10
32.0814
 20
4.06688
 11
31.9863
 21
3.99823
  0
LINE
  8
0
 10
31.9863
 20
3.99823
 11
31.8866
 21
3.93401
  0
LINE
  8
0
 10
31.8866
 20
3.93401
 11
31.7823
 21
3.87422
  0
LINE
  8
0
 10
31.7823
 20
3.87422
 11
31.6736
 21
3.81886
  0
LINE
  8
0
 10
31.6736
 20
3.81886
 11
31.5602
 21
3.76793
  0
LINE
  8
0
 10
31.5602
 20
3.76793
 11
31.4424
 21
3.72144
  0
LINE
  8
0
 10
31.4424
 20
3.72144
 11
31.32
 21
3.67935
  0
LINE
  8
0
 10
31.32
 20
3.67935
 11
31.1931
 21
3.64171
  0
LINE
  8
0
 10
31.1931
 20
3.64171
 11
31.0616
 21
3.60849
  0
LINE
  8
0
 10
31.0616
 20
3.60849
 11
30.9256
 21
3.57971
  0
LINE
  8
0
 10
30.9256
 20
3.57971
 11
30.7851
 21
3.55536
  0
LINE
  8
0
 10
30.7851
 20
3.55536
 11
30.6401
 21
3.53542
  0
LINE
  8
0
 10
30.6401
 20
3.53542
 11
30.4905
 21
3.51993
  0
LINE
  8
0
 10
30.4905
 20
3.51993
 11
30.3363
 21
3.50885
  0
LINE
  8
0
 10
30.3363
 20
3.50885
 11
30.1777
 21
3.50221
  0
LINE
  8
0
 10
30.1777
 20
3.50221
 11
30.0145
 21
3.5
  0
LINE
  8
0
 10
30.0145
 20
3.5
 11
26.9114
 21
3.5
  0
LINE
  8
0
 10
29.7911
 20
7.89545
 11
29.89
 21
7.89911
  0
LINE
  8
0
 10
29.89
 20
7.89911
 11
29.9855
 21
7.9052
  0
LINE
  8
0
 10
29.9855
 20
7.9052
 11
30.0778
 21
7.91373
  0
LINE
  8
0
 10
30.0778
 20
7.91373
 11
30.1667
 21
7.9247
  0
LINE
  8
0
 10
30.1667
 20
7.9247
 11
30.2524
 21
7.9381
  0
LINE
  8
0
 10
30.2524
 20
7.9381
 11
30.3348
 21
7.95393
  0
LINE
  8
0
 10
30.3348
 20
7.95393
 11
30.4139
 21
7.97221
  0
LINE
  8
0
 10
30.4139
 20
7.97221
 11
30.4898
 21
7.99292
  0
LINE
  8
0
 10
30.4898
 20
7.99292
 11
30.5623
 21
8.01608
  0
LINE
  8
0
 10
30.5623
 20
8.01608
 11
30.6316
 21
8.04166
  0
LINE
  8
0
 10
30.6316
 20
8.04166
 11
30.6976
 21
8.06969
  0
LINE
  8
0
 10
30.6976
 20
8.06969
 11
30.7603
 21
8.10014
  0
LINE
  8
0
 10
30.7603
 20
8.10014
 11
30.8197
 21
8.13304
  0
LINE
  8
0
 10
30.8197
 20
8.13304
 11
30.8758
 21
8.16838
  0
LINE
  8
0
 10
30.8758
 20
8.16838
 11
30.9286
 21
8.20615
  0
LINE
  8
0
 10
30.9286
 20
8.20615
 11
30.9782
 21
8.24646
  0
LINE
  8
0
 10
30.9782
 20
8.24646
 11
31.0246
 21
8.28937
  0
LINE
  8
0
 10
31.0246
 20
8.28937
 11
31.0678
 21
8.33488
  0
LINE
  8
0
 10
31.0678
 20
8.33488
 11
31.1078
 21
8.383
  0
LINE
  8
0
 10
31.1078
 20
8.383
 11
31.1446
 21
8.43372
  0
LINE
  8
0
 10
31.1446
 20
8.43372
 11
31.1782
 21
8.48706
  0
LINE
  8
0
 10
31.1782
 20
8.48706
 11
31.2086
 21
8.54298
  0
LINE
  8
0
 10
31.2086
 20
8.54298
 11
31.2358
 21
8.60153
  0
LINE
  8
0
 10
31.2358
 20
8.60153
 11
31.2598
 21
8.66267
  0
LINE
  8
0
 10
31.2598
 20
8.66267
 11
31.2806
 21
8.72644
  0
LINE
  8
0
 10
31.2806
 20
8.72644
 11
31.2982
 21
8.79279
  0
LINE
  8
0
 10
31.2982
 20
8.79279
 11
31.3126
 21
8.86176
  0
LINE
  8
0
 10
31.3126
 20
8.86176
 11
31.3238
 21
8.93333
  0
LINE
  8
0
 10
31.3238
 20
8.93333
 11
31.3318
 21
9.00751
  0
LINE
  8
0
 10
31.3318
 20
9.00751
 11
31.3366
 21
9.08429
  0
LINE
  8
0
 10
31.3366
 20
9.08429
 11
31.3382
 21
9.16367
  0
LINE
  8
0
 10
31.3382
 20
9.16367
 11
31.3366
 21
9.23961
  0
LINE
  8
0
 10
31.3366
 20
9.23961
 11
31.3316
 21
9.31279
  0
LINE
  8
0
 10
31.3316
 20
9.31279
 11
31.3233
 21
9.38321
  0
LINE
  8
0
 10
31.3233
 20
9.38321
 11
31.3118
 21
9.45087
  0
LINE
  8
0
 10
31.3118
 20
9.45087
 11
31.2969
 21
9.51578
  0
LINE
  8
0
 10
31.2969
 20
9.51578
 11
31.2787
 21
9.57794
  0
LINE
  8
0
 10
31.2787
 20
9.57794
 11
31.2572
 21
9.63734
  0
LINE
  8
0
 10
31.2572
 20
9.63734
 11
31.2324
 21
9.69398
  0
LINE
  8
0
 10
31.2324
 20
9.69398
 11
31.2043
 21
9.74788
  0
LINE
  8
0
 10
31.2043
 20
9.74788
 11
31.1729
 21
9.79903
  0
LINE
  8
0
 10
31.1729
 20
9.79903
 11
31.1382
 21
9.84741
  0
LINE
  8
0
 10
31.1382
 20
9.84741
 11
31.1002
 21
9.89304
  0
LINE
  8
0
 10
31.1002
 20
9.89304
 11
31.0589
 21
9.9359
  0
LINE
  8
0
 10
31.0589
 20
9.9359
 11
31.0142
 21
9.97603
  0
LINE
  8
0
 10
31.0142
 20
9.97603
 11
30.9663
 21
10.0134
  0
LINE
  8
0
 10
30.9663
 20
10.0134
 11
30.915
 21
10.048
  0
LINE
  8
0
 10
30.915
 20
10.048
 11
30.8607
 21
10.0802
  0
LINE
  8
0
 10
30.8607
 20
10.0802
 11
30.8033
 21
10.1103
  0
LINE
  8
0
 10
30.8033
 20
10.1103
 11
30.743
 21
10.1383
  0
LINE
  8
0
 10
30.743
 20
10.1383
 11
30.6797
 21
10.1643
  0
LINE
  8
0
 10
30.6797
 20
10.1643
 11
30.6135
 21
10.1882
  0
LINE
  8
0
 10
30.6135
 20
10.1882
 11
30.5443
 21
10.21
  0
LINE
  8
0
 10
30.5443
 20
10.21
 11
30.4721
 21
10.2297
  0
LINE
  8
0
 10
30.4721
 20
10.2297
 11
30.397
 21
10.2474
  0
LINE
  8
0
 10
30.397
 20
10.2474
 11
30.3189
 21
10.263
  0
LINE
  8
0
 10
30.3189
 20
10.263
 11
30.2378
 21
10.2764
  0
LINE
  8
0
 10
30.2378
 20
10.2764
 11
30.1537
 21
10.2879
  0
LINE
  8
0
 10
30.1537
 20
10.2879
 11
30.0667
 21
10.2972
  0
LINE
  8
0
 10
30.0667
 20
10.2972
 11
29.9768
 21
10.3045
  0
LINE
  8
0
 10
29.9768
 20
10.3045
 11
29.8838
 21
10.3097
  0
LINE
  8
0
 10
29.8838
 20
10.3097
 11
29.7879
 21
10.3128
  0
LINE
  8
0
 10
29.7879
 20
10.3128
 11
29.689
 21
10.3138
  0
LINE
  8
0
 10
29.689
 20
10.3138
 11
27.9476
 21
10.3138
  0
LINE
  8
0
 10
27.9476
 20
10.3138
 11
27.9476
 21
7.89423
  0
LINE
  8
0
 10
27.9476
 20
7.89423
 11
29.689
 21
7.89423
  0
LINE
  8
0
 10
29.689
 20
7.89423
 11
29.7911
 21
7.89545
  0
LINE
  8
0
 10
30.0769
 20
4.33138
 11
30.1895
 21
4.33549
  0
LINE
  8
0
 10
30.1895
 20
4.33549
 11
30.2981
 21
4.34239
  0
LINE
  8
0
 10
30.2981
 20
4.34239
 11
30.4027
 21
4.35204
  0
LINE
  8
0
 10
30.4027
 20
4.35204
 11
30.5033
 21
4.36443
  0
LINE
  8
0
 10
30.5033
 20
4.36443
 11
30.5998
 21
4.37958
  0
LINE
  8
0
 10
30.5998
 20
4.37958
 11
30.6923
 21
4.39749
  0
LINE
  8
0
 10
30.6923
 20
4.39749
 11
30.7807
 21
4.41815
  0
LINE
  8
0
 10
30.7807
 20
4.41815
 11
30.8652
 21
4.44157
  0
LINE
  8
0
 10
30.8652
 20
4.44157
 11
30.9456
 21
4.46774
  0
LINE
  8
0
 10
30.9456
 20
4.46774
 11
31.022
 21
4.49667
  0
LINE
  8
0
 10
31.022
 20
4.49667
 11
31.0944
 21
4.52835
  0
LINE
  8
0
 10
31.0944
 20
4.52835
 11
31.1627
 21
4.56279
  0
LINE
  8
0
 10
31.1627
 20
4.56279
 11
31.227
 21
4.59998
  0
LINE
  8
0
 10
31.227
 20
4.59998
 11
31.2873
 21
4.63992
  0
LINE
  8
0
 10
31.2873
 20
4.63992
 11
31.3436
 21
4.68263
  0
LINE
  8
0
 10
31.3436
 20
4.68263
 11
31.3961
 21
4.72807
  0
LINE
  8
0
 10
31.3961
 20
4.72807
 11
31.4453
 21
4.77621
  0
LINE
  8
0
 10
31.4453
 20
4.77621
 11
31.4911
 21
4.82707
  0
LINE
  8
0
 10
31.4911
 20
4.82707
 11
31.5335
 21
4.88065
  0
LINE
  8
0
 10
31.5335
 20
4.88065
 11
31.5725
 21
4.93694
  0
LINE
  8
0
 10
31.5725
 20
4.93694
 11
31.6081
 21
4.99594
  0
LINE
  8
0
 10
31.6081
 20
4.99594
 11
31.6403
 21
5.05765
  0
LINE
  8
0
 10
31.6403
 20
5.05765
 11
31.6691
 21
5.12207
  0
LINE
  8
0
 10
31.6691
 20
5.12207
 11
31.6945
 21
5.18921
  0
LINE
  8
0
 10
31.6945
 20
5.18921
 11
31.7166
 21
5.25906
  0
LINE
  8
0
 10
31.7166
 20
5.25906
 11
31.7352
 21
5.33162
  0
LINE
  8
0
 10
31.7352
 20
5.33162
 11
31.7505
 21
5.40689
  0
LINE
  8
0
 10
31.7505
 20
5.40689
 11
31.7623
 21
5.48488
  0
LINE
  8
0
 10
31.7623
 20
5.48488
 11
31.7708
 21
5.56558
  0
LINE
  8
0
 10
31.7708
 20
5.56558
 11
31.7759
 21
5.64899
  0
LINE
  8
0
 10
31.7759
 20
5.64899
 11
31.7776
 21
5.73511
  0
LINE
  8
0
 10
31.7776
 20
5.73511
 11
31.7702
 21
5.89868
  0
LINE
  8
0
 10
31.7702
 20
5.89868
 11
31.7479
 21
6.05171
  0
LINE
  8
0
 10
31.7479
 20
6.05171
 11
31.7108
 21
6.19417
  0
LINE
  8
0
 10
31.7108
 20
6.19417
 11
31.6589
 21
6.32608
  0
LINE
  8
0
 10
31.6589
 20
6.32608
 11
31.5922
 21
6.44745
  0
LINE
  8
0
 10
31.5922
 20
6.44745
 11
31.5106
 21
6.55826
  0
LINE
  8
0
 10
31.5106
 20
6.55826
 11
31.4142
 21
6.65851
  0
LINE
  8
0
 10
31.4142
 20
6.65851
 11
31.3029
 21
6.74821
  0
LINE
  8
0
 10
31.3029
 20
6.74821
 11
31.1768
 21
6.82736
  0
LINE
  8
0
 10
31.1768
 20
6.82736
 11
31.0359
 21
6.89595
  0
LINE
  8
0
 10
31.0359
 20
6.89595
 11
30.8802
 21
6.95399
  0
LINE
  8
0
 10
30.8802
 20
6.95399
 11
30.7096
 21
7.00148
  0
LINE
  8
0
 10
30.7096
 20
7.00148
 11
30.5241
 21
7.03842
  0
LINE
  8
0
 10
30.5241
 20
7.03842
 11
30.3239
 21
7.0648
  0
LINE
  8
0
 10
30.3239
 20
7.0648
 11
30.1088
 21
7.08064
  0
LINE
  8
0
 10
30.1088
 20
7.08064
 11
29.8789
 21
7.08591
  0
LINE
  8
0
 10
29.8789
 20
7.08591
 11
27.9476
 21
7.08591
  0
LINE
  8
0
 10
27.9476
 20
7.08591
 11
27.9476
 21
4.32999
  0
LINE
  8
0
 10
27.9476
 20
4.32999
 11
29.9602
 21
4.32999
  0
LINE
  8
0
 10
29.9602
 20
4.32999
 11
30.0769
 21
4.33138
  0
LINE
  8
0
 10
40
 20
-20
 11
40
 21
-4
  0
LINE
  8
0
 10
40
 20
-4
 11
42
 21
-4
  0
LINE
  8
0
 10
42
 20
-4
 11
42
 21
-20
  0
LINE
  8
0
 10
42
 20
-20
 11
40
 21
-20
  0
LINE
  8
0
 10
20
 20
-20
 11
20
 21
-4
  0
LINE
  8
0
 10
20
 20
-4
 11
22
 21
-4
  0
LINE
  8
0
 10
22
 20
-4
 11
22
 21
-20
  0
LINE
  8
0
 10
22
 20
-20
 11
20
 21
-20
  0
LINE
  8
0
 10
0
 20
-20
 11
0
 21
-4
  0
LINE
  8
0
 10
0
 20
-4
 11
2
 21
-4
  0
LINE
  8
0
 10
2
 20
-4
 11
2
 21
-20
  0
LINE
  8
0
 10
2
 20
-20
 11
0
 21
-20
  0
LINE
  8
0
 10
60
 20
-20
 11
60
 21
-4
  0
LINE
  8
0
 10
60
 20
-4
 11
62
 21
-4
  0
LINE
  8
0
 10
62
 20
-4
 11
62
 21
-20
  0
LINE
  8
0
 10
62
 20
-20
 11
60
 21
-20
  0
LINE
  8
0
 10
-13.5628
 20
-12
 11
-13.5628
 21
-11.17
  0
LINE
  8
0
 10
-13.5628
 20
-11.17
 11
-11.6152
 21
-11.17
  0
LINE
  8
0
 10
-11.6152
 20
-11.17
 11
-11.6152
 21
-5.28929
  0
LINE
  8
0
 10
-11.6152
 20
-5.28929
 11
-13.3404
 21
-6.52072
  0
LINE
  8
0
 10
-13.3404
 20
-6.52072
 11
-13.3404
 21
-5.59848
  0
LINE
  8
0
 10
-13.3404
 20
-5.59848
 11
-11.5338
 21
-4.35617
  0
LINE
  8
0
 10
-11.5338
 20
-4.35617
 11
-10.6333
 21
-4.35617
  0
LINE
  8
0
 10
-10.6333
 20
-4.35617
 11
-10.6333
 21
-11.17
  0
LINE
  8
0
 10
-10.6333
 20
-11.17
 11
-8.77254
 21
-11.17
  0
LINE
  8
0
 10
-8.77254
 20
-11.17
 11
-8.77254
 21
-12
  0
LINE
  8
0
 10
-8.77254
 20
-12
 11
-13.5628
 21
-12
  0
LINE
  8
0
 10
-13.8503
 20
-32
 11
-13.8503
 21
-31.3111
  0
LINE
  8
0
 10
-13.8503
 20
-31.3111
 11
-13.8152
 21
-31.2323
  0
LINE
  8
0
 10
-13.8152
 20
-31.2323
 11
-13.7792
 21
-31.1547
  0
LINE
  8
0
 10
-13.7792
 20
-31.1547
 11
-13.7423
 21
-31.0783
  0
LINE
  8
0
 10
-13.7423
 20
-31.0783
 11
-13.7043
 21
-31.003
  0
LINE
  8
0
 10
-13.7043
 20
-31.003
 11
-13.6655
 21
-30.9289
  0
LINE
  8
0
 10
-13.6655
 20
-30.9289
 11
-13.6256
 21
-30.856
  0
LINE
  8
0
 10
-13.6256
 20
-30.856
 11
-13.5849
 21
-30.7842
  0
LINE
  8
0
 10
-13.5849
 20
-30.7842
 11
-13.5431
 21
-30.7136
  0
LINE
  8
0
 10
-13.5431
 20
-30.7136
 11
-13.5004
 21
-30.6442
  0
LINE
  8
0
 10
-13.5004
 20
-30.6442
 11
-13.4568
 21
-30.5759
  0
LINE
  8
0
 10
-13.4568
 20
-30.5759
 11
-13.4122
 21
-30.5088
  0
LINE
  8
0
 10
-13.4122
 20
-30.5088
 11
-13.3667
 21
-30.4429
  0
LINE
  8
0
 10
-13.3667
 20
-30.4429
 11
-13.3202
 21
-30.3781
  0
LINE
  8
0
 10
-13.3202
 20
-30.3781
 11
-13.2727
 21
-30.3145
  0
LINE
  8
0
 10
-13.2727
 20
-30.3145
 11
-13.2243
 21
-30.2521
  0
LINE
  8
0
 10
-13.2243
 20
-30.2521
 11
-13.1749
 21
-30.1908
  0
LINE
  8
0
 10
-13.1749
 20
-30.1908
 11
-13.1249
 21
-30.1305
  0
LINE
  8
0
 10
-13.1249
 20
-30.1305
 11
-13.0746
 21
-30.0708
  0
LINE
  8
0
 10
-13.0746
 20
-30.0708
 11
-13.024
 21
-30.0119
  0
LINE
  8
0
 10
-13.024
 20
-30.0119
 11
-12.973
 21
-29.9538
  0
LINE
  8
0
 10
-12.973
 20
-29.9538
 11
-12.9217
 21
-29.8963
  0
LINE
  8
0
 10
-12.9217
 20
-29.8963
 11
-12.8701
 21
-29.8396
  0
LINE
  8
0
 10
-12.8701
 20
-29.8396
 11
-12.8182
 21
-29.7836
  0
LINE
  8
0
 10
-12.8182
 20
-29.7836
 11
-12.766
 21
-29.7283
  0
LINE
  8
0
 10
-12.766
 20
-29.7283
 11
-12.7135
 21
-29.6737
  0
LINE
  8
0
 10
-12.7135
 20
-29.6737
 11
-12.6606
 21
-29.6199
  0
LINE
  8
0
 10
-12.6606
 20
-29.6199
 11
-12.6074
 21
-29.5667
  0
LINE
  8
0
 10
-12.6074
 20
-29.5667
 11
-12.5539
 21
-29.5143
  0
LINE
  8
0
 10
-12.5539
 20
-29.5143
 11
-12.5001
 21
-29.4626
  0
LINE
  8
0
 10
-12.5001
 20
-29.4626
 11
-12.446
 21
-29.4117
  0
LINE
  8
0
 10
-12.446
 20
-29.4117
 11
-12.3915
 21
-29.3615
  0
LINE
  8
0
 10
-12.3915
 20
-29.3615
 11
-12.3368
 21
-29.3119
  0
LINE
  8
0
 10
-12.3368
 20
-29.3119
 11
-12.2819
 21
-29.263
  0
LINE
  8
0
 10
-12.2819
 20
-29.263
 11
-12.2271
 21
-29.2145
  0
LINE
  8
0
 10
-12.2271
 20
-29.2145
 11
-12.1723
 21
-29.1664
  0
LINE
  8
0
 10
-12.1723
 20
-29.1664
 11
-12.1176
 21
-29.1188
  0
LINE
  8
0
 10
-12.1176
 20
-29.1188
 11
-12.0629
 21
-29.0717
  0
LINE
  8
0
 10
-12.0629
 20
-29.0717
 11
-12.0083
 21
-29.0249
  0
LINE
  8
0
 10
-12.0083
 20
-29.0249
 11
-11.9538
 21
-28.9787
  0
LINE
  8
0
 10
-11.9538
 20
-28.9787
 11
-11.8994
 21
-28.9328
  0
LINE
  8
0
 10
-11.8994
 20
-28.9328
 11
-11.845
 21
-28.8875
  0
LINE
  8
0
 10
-11.845
 20
-28.8875
 11
-11.7907
 21
-28.8425
  0
LINE
  8
0
 10
-11.7907
 20
-28.8425
 11
-11.7364
 21
-28.798
  0
LINE
  8
0
 10
-11.7364
 20
-28.798
 11
-11.6822
 21
-28.754
  0
LINE
  8
0
 10
-11.6822
 20
-28.754
 11
-11.6281
 21
-28.7104
  0
LINE
  8
0
 10
-11.6281
 20
-28.7104
 11
-11.574
 21
-28.6672
  0
LINE
  8
0
 10
-11.574
 20
-28.6672
 11
-11.52
 21
-28.6245
  0
LINE
  8
0
 10
-11.52
 20
-28.6245
 11
-11.466
 21
-28.5822
  0
LINE
  8
0
 10
-11.466
 20
-28.5822
 11
-11.4125
 21
-28.5402
  0
LINE
  8
0
 10
-11.4125
 20
-28.5402
 11
-11.3595
 21
-28.4982
  0
LINE
  8
0
 10
-11.3595
 20
-28.4982
 11
-11.3073
 21
-28.4561
  0
LINE
  8
0
 10
-11.3073
 20
-28.4561
 11
-11.2557
 21
-28.4141
  0
LINE
  8
0
 10
-11.2557
 20
-28.4141
 11
-11.2047
 21
-28.3721
  0
LINE
  8
0
 10
-11.2047
 20
-28.3721
 11
-11.1544
 21
-28.33
  0
LINE
  8
0
 10
-11.1544
 20
-28.33
 11
-11.1048
 21
-28.288
  0
LINE
  8
0
 10
-11.1048
 20
-28.288
 11
-11.0558
 21
-28.2459
  0
LINE
  8
0
 10
-11.0558
 20
-28.2459
 11
-11.0075
 21
-28.2039
  0
LINE
  8
0
 10
-11.0075
 20
-28.2039
 11
-10.9598
 21
-28.1618
  0
LINE
  8
0
 10
-10.9598
 20
-28.1618
 11
-10.9128
 21
-28.1198
  0
LINE
  8
0
 10
-10.9128
 20
-28.1198
 11
-10.8664
 21
-28.0778
  0
LINE
  8
0
 10
-10.8664
 20
-28.0778
 11
-10.8207
 21
-28.0357
  0
LINE
  8
0
 10
-10.8207
 20
-28.0357
 11
-10.7757
 21
-27.9937
  0
LINE
  8
0
 10
-10.7757
 20
-27.9937
 11
-10.7313
 21
-27.9516
  0
LINE
  8
0
 10
-10.7313
 20
-27.9516
 11
-10.6876
 21
-27.9096
  0
LINE
  8
0
 10
-10.6876
 20
-27.9096
 11
-10.6447
 21
-27.8674
  0
LINE
  8
0
 10
-10.6447
 20
-27.8674
 11
-10.6029
 21
-27.825
  0
LINE
  8
0
 10
-10.6029
 20
-27.825
 11
-10.562
 21
-27.7823
  0
LINE
  8
0
 10
-10.562
 20
-27.7823
 11
-10.5223
 21
-27.7394
  0
LINE
  8
0
 10
-10.5223
 20
-27.7394
 11
-10.4836
 21
-27.6962
  0
LINE
  8
0
 10
-10.4836
 20
-27.6962
 11
-10.4459
 21
-27.6527
  0
LINE
  8
0
 10
-10.4459
 20
-27.6527
 11
-10.4092
 21
-27.609
  0
LINE
  8
0
 10
-10.4092
 20
-27.609
 11
-10.3736
 21
-27.5651
  0
LINE
  8
0
 10
-10.3736
 20
-27.5651
 11
-10.339
 21
-27.5209
  0
LINE
  8
0
 10
-10.339
 20
-27.5209
 11
-10.3055
 21
-27.4764
  0
LINE
  8
0
 10
-10.3055
 20
-27.4764
 11
-10.273
 21
-27.4317
  0
LINE
  8
0
 10
-10.273
 20
-27.4317
 11
-10.2415
 21
-27.3867
  0
LINE
  8
0
 10
-10.2415
 20
-27.3867
 11
-10.2111
 21
-27.3415
  0
LINE
  8
0
 10
-10.2111
 20
-27.3415
 11
-10.1817
 21
-27.296
  0
LINE
  8
0
 10
-10.1817
 20
-27.296
 11
-10.1534
 21
-27.2503
  0
LINE
  8
0
 10
-10.1534
 20
-27.2503
 11
-10.1261
 21
-27.2043
  0
LINE
  8
0
 10
-10.1261
 20
-27.2043
 11
-10.1001
 21
-27.1578
  0
LINE
  8
0
 10
-10.1001
 20
-27.1578
 11
-10.0758
 21
-27.1106
  0
LINE
  8
0
 10
-10.0758
 20
-27.1106
 11
-10.0532
 21
-27.0625
  0
LINE
  8
0
 10
-10.0532
 20
-27.0625
 11
-10.0323
 21
-27.0137
  0
LINE
  8
0
 10
-10.0323
 20
-27.0137
 11
-10.013
 21
-26.9642
  0
LINE
  8
0
 10
-10.013
 20
-26.9642
 11
-9.99545
 21
-26.9139
  0
LINE
  8
0
 10
-9.99545
 20
-26.9139
 11
-9.97955
 21
-26.8628
  0
LINE
  8
0
 10
-9.97955
 20
-26.8628
 11
-9.96532
 21
-26.811
  0
LINE
  8
0
 10
-9.96532
 20
-26.811
 11
-9.95276
 21
-26.7584
  0
LINE
  8
0
 10
-9.95276
 20
-26.7584
 11
-9.94188
 21
-26.705
  0
LINE
  8
0
 10
-9.94188
 20
-26.705
 11
-9.93266
 21
-26.6509
  0
LINE
  8
0
 10
-9.93266
 20
-26.6509
 11
-9.92513
 21
-26.596
  0
LINE
  8
0
 10
-9.92513
 20
-26.596
 11
-9.91927
 21
-26.5404
  0
LINE
  8
0
 10
-9.91927
 20
-26.5404
 11
-9.91508
 21
-26.484
  0
LINE
  8
0
 10
-9.91508
 20
-26.484
 11
-9.91257
 21
-26.4268
  0
LINE
  8
0
 10
-9.91257
 20
-26.4268
 11
-9.91174
 21
-26.3689
  0
LINE
  8
0
 10
-9.91174
 20
-26.3689
 11
-9.91318
 21
-26.2913
  0
LINE
  8
0
 10
-9.91318
 20
-26.2913
 11
-9.9175
 21
-26.216
  0
LINE
  8
0
 10
-9.9175
 20
-26.216
 11
-9.92471
 21
-26.1428
  0
LINE
  8
0
 10
-9.92471
 20
-26.1428
 11
-9.9348
 21
-26.0718
  0
LINE
  8
0
 10
-9.9348
 20
-26.0718
 11
-9.94777
 21
-26.0031
  0
LINE
  8
0
 10
-9.94777
 20
-26.0031
 11
-9.96362
 21
-25.9366
  0
LINE
  8
0
 10
-9.96362
 20
-25.9366
 11
-9.98236
 21
-25.8722
  0
LINE
  8
0
 10
-9.98236
 20
-25.8722
 11
-10.004
 21
-25.8101
  0
LINE
  8
0
 10
-10.004
 20
-25.8101
 11
-10.0285
 21
-25.7501
  0
LINE
  8
0
 10
-10.0285
 20
-25.7501
 11
-10.0559
 21
-25.6924
  0
LINE
  8
0
 10
-10.0559
 20
-25.6924
 11
-10.0861
 21
-25.6369
  0
LINE
  8
0
 10
-10.0861
 20
-25.6369
 11
-10.1193
 21
-25.5836
  0
LINE
  8
0
 10
-10.1193
 20
-25.5836
 11
-10.1553
 21
-25.5324
  0
LINE
  8
0
 10
-10.1553
 20
-25.5324
 11
-10.1942
 21
-25.4835
  0
LINE
  8
0
 10
-10.1942
 20
-25.4835
 11
-10.236
 21
-25.4368
  0
LINE
  8
0
 10
-10.236
 20
-25.4368
 11
-10.2807
 21
-25.3923
  0
LINE
  8
0
 10
-10.2807
 20
-25.3923
 11
-10.3279
 21
-25.3503
  0
LINE
  8
0
 10
-10.3279
 20
-25.3503
 11
-10.3774
 21
-25.311
  0
LINE
  8
0
 10
-10.3774
 20
-25.311
 11
-10.4291
 21
-25.2743
  0
LINE
  8
0
 10
-10.4291
 20
-25.2743
 11
-10.4831
 21
-25.2404
  0
LINE
  8
0
 10
-10.4831
 20
-25.2404
 11
-10.5393
 21
-25.2092
  0
LINE
  8
0
 10
-10.5393
 20
-25.2092
 11
-10.5978
 21
-25.1808
  0
LINE
  8
0
 10
-10.5978
 20
-25.1808
 11
-10.6585
 21
-25.155
  0
LINE
  8
0
 10
-10.6585
 20
-25.155
 11
-10.7215
 21
-25.1319
  0
LINE
  8
0
 10
-10.7215
 20
-25.1319
 11
-10.7867
 21
-25.1116
  0
LINE
  8
0
 10
-10.7867
 20
-25.1116
 11
-10.8541
 21
-25.0939
  0
LINE
  8
0
 10
-10.8541
 20
-25.0939
 11
-10.9238
 21
-25.079
  0
LINE
  8
0
 10
-10.9238
 20
-25.079
 11
-10.9957
 21
-25.0668
  0
LINE
  8
0
 10
-10.9957
 20
-25.0668
 11
-11.0699
 21
-25.0573
  0
LINE
  8
0
 10
-11.0699
 20
-25.0573
 11
-11.1464
 21
-25.0506
  0
LINE
  8
0
 10
-11.1464
 20
-25.0506
 11
-11.2251
 21
-25.0465
  0
LINE
  8
0
 10
-11.2251
 20
-25.0465
 11
-11.306
 21
-25.0451
  0
LINE
  8
0
 10
-11.306
 20
-25.0451
 11
-11.3831
 21
-25.0464
  0
LINE
  8
0
 10
-11.3831
 20
-25.0464
 11
-11.4585
 21
-25.0504
  0
LINE
  8
0
 10
-11.4585
 20
-25.0504
 11
-11.5322
 21
-25.0571
  0
LINE
  8
0
 10
-11.5322
 20
-25.0571
 11
-11.6042
 21
-25.0663
  0
LINE
  8
0
 10
-11.6042
 20
-25.0663
 11
-11.6745
 21
-25.0782
  0
LINE
  8
0
 10
-11.6745
 20
-25.0782
 11
-11.743
 21
-25.0928
  0
LINE
  8
0
 10
-11.743
 20
-25.0928
 11
-11.8098
 21
-25.11
  0
LINE
  8
0
 10
-11.8098
 20
-25.11
 11
-11.875
 21
-25.1299
  0
LINE
  8
0
 10
-11.875
 20
-25.1299
 11
-11.9384
 21
-25.1524
  0
LINE
  8
0
 10
-11.9384
 20
-25.1524
 11
-12
 21
-25.1776
  0
LINE
  8
0
 10
-12
 20
-25.1776
 11
-12.06
 21
-25.2054
  0
LINE
  8
0
 10
-12.06
 20
-25.2054
 11
-12.1182
 21
-25.2359
  0
LINE
  8
0
 10
-12.1182
 20
-25.2359
 11
-12.1748
 21
-25.269
  0
LINE
  8
0
 10
-12.1748
 20
-25.269
 11
-12.2296
 21
-25.3048
  0
LINE
  8
0
 10
-12.2296
 20
-25.3048
 11
-12.2827
 21
-25.3432
  0
LINE
  8
0
 10
-12.2827
 20
-25.3432
 11
-12.3341
 21
-25.3842
  0
LINE
  8
0
 10
-12.3341
 20
-25.3842
 11
-12.3833
 21
-25.4277
  0
LINE
  8
0
 10
-12.3833
 20
-25.4277
 11
-12.4299
 21
-25.4733
  0
LINE
  8
0
 10
-12.4299
 20
-25.4733
 11
-12.4739
 21
-25.521
  0
LINE
  8
0
 10
-12.4739
 20
-25.521
 11
-12.5153
 21
-25.5709
  0
LINE
  8
0
 10
-12.5153
 20
-25.5709
 11
-12.5541
 21
-25.6229
  0
LINE
  8
0
 10
-12.5541
 20
-25.6229
 11
-12.5903
 21
-25.6771
  0
LINE
  8
0
 10
-12.5903
 20
-25.6771
 11
-12.6238
 21
-25.7334
  0
LINE
  8
0
 10
-12.6238
 20
-25.7334
 11
-12.6548
 21
-25.7918
  0
LINE
  8
0
 10
-12.6548
 20
-25.7918
 11
-12.6832
 21
-25.8524
  0
LINE
  8
0
 10
-12.6832
 20
-25.8524
 11
-12.7089
 21
-25.9151
  0
LINE
  8
0
 10
-12.7089
 20
-25.9151
 11
-12.7321
 21
-25.9799
  0
LINE
  8
0
 10
-12.7321
 20
-25.9799
 11
-12.7526
 21
-26.0469
  0
LINE
  8
0
 10
-12.7526
 20
-26.0469
 11
-12.7705
 21
-26.1161
  0
LINE
  8
0
 10
-12.7705
 20
-26.1161
 11
-12.7859
 21
-26.1873
  0
LINE
  8
0
 10
-12.7859
 20
-26.1873
 11
-12.7986
 21
-26.2608
  0
LINE
  8
0
 10
-12.7986
 20
-26.2608
 11
-12.8087
 21
-26.3363
  0
LINE
  8
0
 10
-12.8087
 20
-26.3363
 11
-13.8069
 21
-26.2441
  0
LINE
  8
0
 10
-13.8069
 20
-26.2441
 11
-13.7912
 21
-26.131
  0
LINE
  8
0
 10
-13.7912
 20
-26.131
 11
-13.771
 21
-26.0207
  0
LINE
  8
0
 10
-13.771
 20
-26.0207
 11
-13.7465
 21
-25.9135
  0
LINE
  8
0
 10
-13.7465
 20
-25.9135
 11
-13.7176
 21
-25.8091
  0
LINE
  8
0
 10
-13.7176
 20
-25.8091
 11
-13.6843
 21
-25.7076
  0
LINE
  8
0
 10
-13.6843
 20
-25.7076
 11
-13.6466
 21
-25.6091
  0
LINE
  8
0
 10
-13.6466
 20
-25.6091
 11
-13.6045
 21
-25.5135
  0
LINE
  8
0
 10
-13.6045
 20
-25.5135
 11
-13.5581
 21
-25.4209
  0
LINE
  8
0
 10
-13.5581
 20
-25.4209
 11
-13.5072
 21
-25.3311
  0
LINE
  8
0
 10
-13.5072
 20
-25.3311
 11
-13.452
 21
-25.2443
  0
LINE
  8
0
 10
-13.452
 20
-25.2443
 11
-13.3924
 21
-25.1604
  0
LINE
  8
0
 10
-13.3924
 20
-25.1604
 11
-13.3284
 21
-25.0794
  0
LINE
  8
0
 10
-13.3284
 20
-25.0794
 11
-13.26
 21
-25.0014
  0
LINE
  8
0
 10
-13.26
 20
-25.0014
 11
-13.1872
 21
-24.9263
  0
LINE
  8
0
 10
-13.1872
 20
-24.9263
 11
-13.11
 21
-24.8541
  0
LINE
  8
0
 10
-13.11
 20
-24.8541
 11
-13.0285
 21
-24.7848
  0
LINE
  8
0
 10
-13.0285
 20
-24.7848
 11
-12.9432
 21
-24.7191
  0
LINE
  8
0
 10
-12.9432
 20
-24.7191
 11
-12.855
 21
-24.6576
  0
LINE
  8
0
 10
-12.855
 20
-24.6576
 11
-12.7638
 21
-24.6004
  0
LINE
  8
0
 10
-12.7638
 20
-24.6004
 11
-12.6696
 21
-24.5474
  0
LINE
  8
0
 10
-12.6696
 20
-24.5474
 11
-12.5724
 21
-24.4987
  0
LINE
  8
0
 10
-12.5724
 20
-24.4987
 11
-12.4722
 21
-24.4542
  0
LINE
  8
0
 10
-12.4722
 20
-24.4542
 11
-12.369
 21
-24.4139
  0
LINE
  8
0
 10
-12.369
 20
-24.4139
 11
-12.2628
 21
-24.3779
  0
LINE
  8
0
 10
-12.2628
 20
-24.3779
 11
-12.1537
 21
-24.3461
  0
LINE
  8
0
 10
-12.1537
 20
-24.3461
 11
-12.0415
 21
-24.3185
  0
LINE
  8
0
 10
-12.0415
 20
-24.3185
 11
-11.9264
 21
-24.2952
  0
LINE
  8
0
 10
-11.9264
 20
-24.2952
 11
-11.8083
 21
-24.2762
  0
LINE
  8
0
 10
-11.8083
 20
-24.2762
 11
-11.6872
 21
-24.2613
  0
LINE
  8
0
 10
-11.6872
 20
-24.2613
 11
-11.5631
 21
-24.2507
  0
LINE
  8
0
 10
-11.5631
 20
-24.2507
 11
-11.436
 21
-24.2444
  0
LINE
  8
0
 10
-11.436
 20
-24.2444
 11
-11.306
 21
-24.2422
  0
LINE
  8
0
 10
-11.306
 20
-24.2422
 11
-11.1636
 21
-24.2444
  0
LINE
  8
0
 10
-11.1636
 20
-24.2444
 11
-11.0255
 21
-24.2508
  0
LINE
  8
0
 10
-11.0255
 20
-24.2508
 11
-10.8914
 21
-24.2614
  0
LINE
  8
0
 10
-10.8914
 20
-24.2614
 11
-10.7616
 21
-24.2763
  0
LINE
  8
0
 10
-10.7616
 20
-24.2763
 11
-10.636
 21
-24.2955
  0
LINE
  8
0
 10
-10.636
 20
-24.2955
 11
-10.5145
 21
-24.3189
  0
LINE
  8
0
 10
-10.5145
 20
-24.3189
 11
-10.3972
 21
-24.3466
  0
LINE
  8
0
 10
-10.3972
 20
-24.3466
 11
-10.2841
 21
-24.3785
  0
LINE
  8
0
 10
-10.2841
 20
-24.3785
 11
-10.1751
 21
-24.4147
  0
LINE
  8
0
 10
-10.1751
 20
-24.4147
 11
-10.0703
 21
-24.4552
  0
LINE
  8
0
 10
-10.0703
 20
-24.4552
 11
-9.96973
 21
-24.4999
  0
LINE
  8
0
 10
-9.96973
 20
-24.4999
 11
-9.87329
 21
-24.5489
  0
LINE
  8
0
 10
-9.87329
 20
-24.5489
 11
-9.78104
 21
-24.6022
  0
LINE
  8
0
 10
-9.78104
 20
-24.6022
 11
-9.69296
 21
-24.6597
  0
LINE
  8
0
 10
-9.69296
 20
-24.6597
 11
-9.60907
 21
-24.7214
  0
LINE
  8
0
 10
-9.60907
 20
-24.7214
 11
-9.52934
 21
-24.7874
  0
LINE
  8
0
 10
-9.52934
 20
-24.7874
 11
-9.45412
 21
-24.8574
  0
LINE
  8
0
 10
-9.45412
 20
-24.8574
 11
-9.38374
 21
-24.9309
  0
LINE
  8
0
 10
-9.38374
 20
-24.9309
 11
-9.31822
 21
-25.008
  0
LINE
  8
0
 10
-9.31822
 20
-25.008
 11
-9.25757
 21
-25.0887
  0
LINE
  8
0
 10
-9.25757
 20
-25.0887
 11
-9.20175
 21
-25.173
  0
LINE
  8
0
 10
-9.20175
 20
-25.173
 11
-9.15079
 21
-25.2608
  0
LINE
  8
0
 10
-9.15079
 20
-25.2608
 11
-9.10469
 21
-25.3522
  0
LINE
  8
0
 10
-9.10469
 20
-25.3522
 11
-9.06343
 21
-25.4473
  0
LINE
  8
0
 10
-9.06343
 20
-25.4473
 11
-9.02704
 21
-25.5459
  0
LINE
  8
0
 10
-9.02704
 20
-25.5459
 11
-8.9955
 21
-25.648
  0
LINE
  8
0
 10
-8.9955
 20
-25.648
 11
-8.9688
 21
-25.7538
  0
LINE
  8
0
 10
-8.9688
 20
-25.7538
 11
-8.94696
 21
-25.8631
  0
LINE
  8
0
 10
-8.94696
 20
-25.8631
 11
-8.92998
 21
-25.9761
  0
LINE
  8
0
 10
-8.92998
 20
-25.9761
 11
-8.91785
 21
-26.0926
  0
LINE
  8
0
 10
-8.91785
 20
-26.0926
 11
-8.91057
 21
-26.2127
  0
LINE
  8
0
 10
-8.91057
 20
-26.2127
 11
-8.90814
 21
-26.3363
  0
LINE
  8
0
 10
-8.90814
 20
-26.3363
 11
-8.90894
 21
-26.3919
  0
LINE
  8
0
 10
-8.90894
 20
-26.3919
 11
-8.91132
 21
-26.4474
  0
LINE
  8
0
 10
-8.91132
 20
-26.4474
 11
-8.91528
 21
-26.5029
  0
LINE
  8
0
 10
-8.91528
 20
-26.5029
 11
-8.92085
 21
-26.5584
  0
LINE
  8
0
 10
-8.92085
 20
-26.5584
 11
-8.92801
 21
-26.6138
  0
LINE
  8
0
 10
-8.92801
 20
-26.6138
 11
-8.93674
 21
-26.6692
  0
LINE
  8
0
 10
-8.93674
 20
-26.6692
 11
-8.94708
 21
-26.7245
  0
LINE
  8
0
 10
-8.94708
 20
-26.7245
 11
-8.959
 21
-26.7798
  0
LINE
  8
0
 10
-8.959
 20
-26.7798
 11
-8.9725
 21
-26.835
  0
LINE
  8
0
 10
-8.9725
 20
-26.835
 11
-8.98761
 21
-26.8902
  0
LINE
  8
0
 10
-8.98761
 20
-26.8902
 11
-9.00429
 21
-26.9454
  0
LINE
  8
0
 10
-9.00429
 20
-26.9454
 11
-9.02257
 21
-27.0005
  0
LINE
  8
0
 10
-9.02257
 20
-27.0005
 11
-9.04243
 21
-27.0556
  0
LINE
  8
0
 10
-9.04243
 20
-27.0556
 11
-9.06389
 21
-27.1106
  0
LINE
  8
0
 10
-9.06389
 20
-27.1106
 11
-9.08694
 21
-27.1656
  0
LINE
  8
0
 10
-9.08694
 20
-27.1656
 11
-9.11157
 21
-27.2206
  0
LINE
  8
0
 10
-9.11157
 20
-27.2206
 11
-9.13777
 21
-27.2755
  0
LINE
  8
0
 10
-9.13777
 20
-27.2755
 11
-9.16553
 21
-27.3304
  0
LINE
  8
0
 10
-9.16553
 20
-27.3304
 11
-9.19482
 21
-27.3854
  0
LINE
  8
0
 10
-9.19482
 20
-27.3854
 11
-9.22568
 21
-27.4403
  0
LINE
  8
0
 10
-9.22568
 20
-27.4403
 11
-9.25806
 21
-27.4952
  0
LINE
  8
0
 10
-9.25806
 20
-27.4952
 11
-9.29199
 21
-27.5501
  0
LINE
  8
0
 10
-9.29199
 20
-27.5501
 11
-9.32748
 21
-27.6051
  0
LINE
  8
0
 10
-9.32748
 20
-27.6051
 11
-9.36452
 21
-27.66
  0
LINE
  8
0
 10
-9.36452
 20
-27.66
 11
-9.40309
 21
-27.7149
  0
LINE
  8
0
 10
-9.40309
 20
-27.7149
 11
-9.44322
 21
-27.7699
  0
LINE
  8
0
 10
-9.44322
 20
-27.7699
 11
-9.48489
 21
-27.8248
  0
LINE
  8
0
 10
-9.48489
 20
-27.8248
 11
-9.52811
 21
-27.8797
  0
LINE
  8
0
 10
-9.52811
 20
-27.8797
 11
-9.57288
 21
-27.9347
  0
LINE
  8
0
 10
-9.57288
 20
-27.9347
 11
-9.61919
 21
-27.9896
  0
LINE
  8
0
 10
-9.61919
 20
-27.9896
 11
-9.66705
 21
-28.0445
  0
LINE
  8
0
 10
-9.66705
 20
-28.0445
 11
-9.71646
 21
-28.0994
  0
LINE
  8
0
 10
-9.71646
 20
-28.0994
 11
-9.7695
 21
-28.1563
  0
LINE
  8
0
 10
-9.7695
 20
-28.1563
 11
-9.82826
 21
-28.2169
  0
LINE
  8
0
 10
-9.82826
 20
-28.2169
 11
-9.89275
 21
-28.2812
  0
LINE
  8
0
 10
-9.89275
 20
-28.2812
 11
-9.96295
 21
-28.3493
  0
LINE
  8
0
 10
-9.96295
 20
-28.3493
 11
-10.0389
 21
-28.4212
  0
LINE
  8
0
 10
-10.0389
 20
-28.4212
 11
-10.1205
 21
-28.4969
  0
LINE
  8
0
 10
-10.1205
 20
-28.4969
 11
-10.2079
 21
-28.5764
  0
LINE
  8
0
 10
-10.2079
 20
-28.5764
 11
-10.301
 21
-28.6596
  0
LINE
  8
0
 10
-10.301
 20
-28.6596
 11
-10.3998
 21
-28.7466
  0
LINE
  8
0
 10
-10.3998
 20
-28.7466
 11
-10.5043
 21
-28.8373
  0
LINE
  8
0
 10
-10.5043
 20
-28.8373
 11
-10.6146
 21
-28.9319
  0
LINE
  8
0
 10
-10.6146
 20
-28.9319
 11
-10.7306
 21
-29.0302
  0
LINE
  8
0
 10
-10.7306
 20
-29.0302
 11
-10.8523
 21
-29.1323
  0
LINE
  8
0
 10
-10.8523
 20
-29.1323
 11
-10.9797
 21
-29.2381
  0
LINE
  8
0
 10
-10.9797
 20
-29.2381
 11
-11.1129
 21
-29.3477
  0
LINE
  8
0
 10
-11.1129
 20
-29.3477
 11
-11.2517
 21
-29.4611
  0
LINE
  8
0
 10
-11.2517
 20
-29.4611
 11
-11.3287
 21
-29.5245
  0
LINE
  8
0
 10
-11.3287
 20
-29.5245
 11
-11.4037
 21
-29.587
  0
LINE
  8
0
 10
-11.4037
 20
-29.587
 11
-11.4767
 21
-29.6488
  0
LINE
  8
0
 10
-11.4767
 20
-29.6488
 11
-11.5478
 21
-29.7098
  0
LINE
  8
0
 10
-11.5478
 20
-29.7098
 11
-11.6168
 21
-29.77
  0
LINE
  8
0
 10
-11.6168
 20
-29.77
 11
-11.6838
 21
-29.8295
  0
LINE
  8
0
 10
-11.6838
 20
-29.8295
 11
-11.7489
 21
-29.8881
  0
LINE
  8
0
 10
-11.7489
 20
-29.8881
 11
-11.8119
 21
-29.946
  0
LINE
  8
0
 10
-11.8119
 20
-29.946
 11
-11.873
 21
-30.0031
  0
LINE
  8
0
 10
-11.873
 20
-30.0031
 11
-11.932
 21
-30.0593
  0
LINE
  8
0
 10
-11.932
 20
-30.0593
 11
-11.9891
 21
-30.1149
  0
LINE
  8
0
 10
-11.9891
 20
-30.1149
 11
-12.0442
 21
-30.1696
  0
LINE
  8
0
 10
-12.0442
 20
-30.1696
 11
-12.0972
 21
-30.2235
  0
LINE
  8
0
 10
-12.0972
 20
-30.2235
 11
-12.1483
 21
-30.2767
  0
LINE
  8
0
 10
-12.1483
 20
-30.2767
 11
-12.1974
 21
-30.3291
  0
LINE
  8
0
 10
-12.1974
 20
-30.3291
 11
-12.2445
 21
-30.3806
  0
LINE
  8
0
 10
-12.2445
 20
-30.3806
 11
-12.2898
 21
-30.4317
  0
LINE
  8
0
 10
-12.2898
 20
-30.4317
 11
-12.3335
 21
-30.4826
  0
LINE
  8
0
 10
-12.3335
 20
-30.4826
 11
-12.3756
 21
-30.5332
  0
LINE
  8
0
 10
-12.3756
 20
-30.5332
 11
-12.4161
 21
-30.5836
  0
LINE
  8
0
 10
-12.4161
 20
-30.5836
 11
-12.455
 21
-30.6337
  0
LINE
  8
0
 10
-12.455
 20
-30.6337
 11
-12.4922
 21
-30.6837
  0
LINE
  8
0
 10
-12.4922
 20
-30.6837
 11
-12.5278
 21
-30.7333
  0
LINE
  8
0
 10
-12.5278
 20
-30.7333
 11
-12.5619
 21
-30.7828
  0
LINE
  8
0
 10
-12.5619
 20
-30.7828
 11
-12.5943
 21
-30.832
  0
LINE
  8
0
 10
-12.5943
 20
-30.832
 11
-12.6251
 21
-30.881
  0
LINE
  8
0
 10
-12.6251
 20
-30.881
 11
-12.6543
 21
-30.9297
  0
LINE
  8
0
 10
-12.6543
 20
-30.9297
 11
-12.6819
 21
-30.9783
  0
LINE
  8
0
 10
-12.6819
 20
-30.9783
 11
-12.7079
 21
-31.0266
  0
LINE
  8
0
 10
-12.7079
 20
-31.0266
 11
-12.7322
 21
-31.0746
  0
LINE
  8
0
 10
-12.7322
 20
-31.0746
 11
-12.755
 21
-31.1224
  0
LINE
  8
0
 10
-12.755
 20
-31.1224
 11
-12.7761
 21
-31.17
  0
LINE
  8
0
 10
-12.7761
 20
-31.17
 11
-8.78877
 21
-31.17
  0
LINE
  8
0
 10
-8.78877
 20
-31.17
 11
-8.78877
 21
-32
  0
LINE
  8
0
 10
-8.78877
 20
-32
 11
-13.8503
 21
-32
  0
LINE
  8
0
 10
-11.4547
 20
-52.1064
 11
-11.5943
 21
-52.1003
  0
LINE
  8
0
 10
-11.5943
 20
-52.1003
 11
-11.7303
 21
-52.0901
  0
LINE
  8
0
 10
-11.7303
 20
-52.0901
 11
-11.8626
 21
-52.0758
  0
LINE
  8
0
 10
-11.8626
 20
-52.0758
 11
-11.9912
 21
-52.0573
  0
LINE
  8
0
 10
-11.9912
 20
-52.0573
 11
-12.1161
 21
-52.0349
  0
LINE
  8
0
 10
-12.1161
 20
-52.0349
 11
-12.2374
 21
-52.0083
  0
LINE
  8
0
 10
-12.2374
 20
-52.0083
 11
-12.3551
 21
-51.9776
  0
LINE
  8
0
 10
-12.3551
 20
-51.9776
 11
-12.469
 21
-51.9428
  0
LINE
  8
0
 10
-12.469
 20
-51.9428
 11
-12.5793
 21
-51.904
  0
LINE
  8
0
 10
-12.5793
 20
-51.904
 11
-12.6859
 21
-51.861
  0
LINE
  8
0
 10
-12.6859
 20
-51.861
 11
-12.7889
 21
-51.814
  0
LINE
  8
0
 10
-12.7889
 20
-51.814
 11
-12.8882
 21
-51.7629
  0
LINE
  8
0
 10
-12.8882
 20
-51.7629
 11
-12.9838
 21
-51.7077
  0
LINE
  8
0
 10
-12.9838
 20
-51.7077
 11
-13.0758
 21
-51.6484
  0
LINE
  8
0
 10
-13.0758
 20
-51.6484
 11
-13.1641
 21
-51.585
  0
LINE
  8
0
 10
-13.1641
 20
-51.585
 11
-13.2483
 21
-51.5176
  0
LINE
  8
0
 10
-13.2483
 20
-51.5176
 11
-13.3282
 21
-51.4462
  0
LINE
  8
0
 10
-13.3282
 20
-51.4462
 11
-13.4037
 21
-51.371
  0
LINE
  8
0
 10
-13.4037
 20
-51.371
 11
-13.4748
 21
-51.2919
  0
LINE
  8
0
 10
-13.4748
 20
-51.2919
 11
-13.5415
 21
-51.2088
  0
LINE
  8
0
 10
-13.5415
 20
-51.2088
 11
-13.6039
 21
-51.1218
  0
LINE
  8
0
 10
-13.6039
 20
-51.1218
 11
-13.6618
 21
-51.0309
  0
LINE
  8
0
 10
-13.6618
 20
-51.0309
 11
-13.7154
 21
-50.936
  0
LINE
  8
0
 10
-13.7154
 20
-50.936
 11
-13.7646
 21
-50.8372
  0
LINE
  8
0
 10
-13.7646
 20
-50.8372
 11
-13.8093
 21
-50.7346
  0
LINE
  8
0
 10
-13.8093
 20
-50.7346
 11
-13.8497
 21
-50.628
  0
LINE
  8
0
 10
-13.8497
 20
-50.628
 11
-13.8858
 21
-50.5174
  0
LINE
  8
0
 10
-13.8858
 20
-50.5174
 11
-13.9174
 21
-50.403
  0
LINE
  8
0
 10
-13.9174
 20
-50.403
 11
-13.9446
 21
-50.2847
  0
LINE
  8
0
 10
-13.9446
 20
-50.2847
 11
-13.9675
 21
-50.1624
  0
LINE
  8
0
 10
-13.9675
 20
-50.1624
 11
-13.986
 21
-50.0362
  0
LINE
  8
0
 10
-13.986
 20
-50.0362
 11
-12.9769
 21
-49.9439
  0
LINE
  8
0
 10
-12.9769
 20
-49.9439
 11
-12.9475
 21
-50.1082
  0
LINE
  8
0
 10
-12.9475
 20
-50.1082
 11
-12.9081
 21
-50.2618
  0
LINE
  8
0
 10
-12.9081
 20
-50.2618
 11
-12.8588
 21
-50.4048
  0
LINE
  8
0
 10
-12.8588
 20
-50.4048
 11
-12.7995
 21
-50.5373
  0
LINE
  8
0
 10
-12.7995
 20
-50.5373
 11
-12.7303
 21
-50.6591
  0
LINE
  8
0
 10
-12.7303
 20
-50.6591
 11
-12.6511
 21
-50.7704
  0
LINE
  8
0
 10
-12.6511
 20
-50.7704
 11
-12.562
 21
-50.871
  0
LINE
  8
0
 10
-12.562
 20
-50.871
 11
-12.4629
 21
-50.9611
  0
LINE
  8
0
 10
-12.4629
 20
-50.9611
 11
-12.3538
 21
-51.0406
  0
LINE
  8
0
 10
-12.3538
 20
-51.0406
 11
-12.2348
 21
-51.1095
  0
LINE
  8
0
 10
-12.2348
 20
-51.1095
 11
-12.1058
 21
-51.1677
  0
LINE
  8
0
 10
-12.1058
 20
-51.1677
 11
-11.9668
 21
-51.2154
  0
LINE
  8
0
 10
-11.9668
 20
-51.2154
 11
-11.8179
 21
-51.2525
  0
LINE
  8
0
 10
-11.8179
 20
-51.2525
 11
-11.659
 21
-51.279
  0
LINE
  8
0
 10
-11.659
 20
-51.279
 11
-11.4902
 21
-51.2949
  0
LINE
  8
0
 10
-11.4902
 20
-51.2949
 11
-11.3114
 21
-51.3002
  0
LINE
  8
0
 10
-11.3114
 20
-51.3002
 11
-11.2204
 21
-51.2988
  0
LINE
  8
0
 10
-11.2204
 20
-51.2988
 11
-11.1319
 21
-51.2945
  0
LINE
  8
0
 10
-11.1319
 20
-51.2945
 11
-11.0459
 21
-51.2874
  0
LINE
  8
0
 10
-11.0459
 20
-51.2874
 11
-10.9624
 21
-51.2775
  0
LINE
  8
0
 10
-10.9624
 20
-51.2775
 11
-10.8813
 21
-51.2647
  0
LINE
  8
0
 10
-10.8813
 20
-51.2647
 11
-10.8027
 21
-51.2491
  0
LINE
  8
0
 10
-10.8027
 20
-51.2491
 11
-10.7266
 21
-51.2306
  0
LINE
  8
0
 10
-10.7266
 20
-51.2306
 11
-10.653
 21
-51.2093
  0
LINE
  8
0
 10
-10.653
 20
-51.2093
 11
-10.5818
 21
-51.1852
  0
LINE
  8
0
 10
-10.5818
 20
-51.1852
 11
-10.5132
 21
-51.1582
  0
LINE
  8
0
 10
-10.5132
 20
-51.1582
 11
-10.447
 21
-51.1284
  0
LINE
  8
0
 10
-10.447
 20
-51.1284
 11
-10.3833
 21
-51.0957
  0
LINE
  8
0
 10
-10.3833
 20
-51.0957
 11
-10.3221
 21
-51.0602
  0
LINE
  8
0
 10
-10.3221
 20
-51.0602
 11
-10.2633
 21
-51.0219
  0
LINE
  8
0
 10
-10.2633
 20
-51.0219
 11
-10.207
 21
-50.9807
  0
LINE
  8
0
 10
-10.207
 20
-50.9807
 11
-10.1533
 21
-50.9367
  0
LINE
  8
0
 10
-10.1533
 20
-50.9367
 11
-10.1023
 21
-50.8899
  0
LINE
  8
0
 10
-10.1023
 20
-50.8899
 11
-10.0547
 21
-50.8403
  0
LINE
  8
0
 10
-10.0547
 20
-50.8403
 11
-10.0104
 21
-50.788
  0
LINE
  8
0
 10
-10.0104
 20
-50.788
 11
-9.9693
 21
-50.7329
  0
LINE
  8
0
 10
-9.9693
 20
-50.7329
 11
-9.93152
 21
-50.6751
  0
LINE
  8
0
 10
-9.93152
 20
-50.6751
 11
-9.89702
 21
-50.6145
  0
LINE
  8
0
 10
-9.89702
 20
-50.6145
 11
-9.86581
 21
-50.5512
  0
LINE
  8
0
 10
-9.86581
 20
-50.5512
 11
-9.83789
 21
-50.4851
  0
LINE
  8
0
 10
-9.83789
 20
-50.4851
 11
-9.81326
 21
-50.4162
  0
LINE
  8
0
 10
-9.81326
 20
-50.4162
 11
-9.7919
 21
-50.3446
  0
LINE
  8
0
 10
-9.7919
 20
-50.3446
 11
-9.77383
 21
-50.2702
  0
LINE
  8
0
 10
-9.77383
 20
-50.2702
 11
-9.75905
 21
-50.1931
  0
LINE
  8
0
 10
-9.75905
 20
-50.1931
 11
-9.74756
 21
-50.1133
  0
LINE
  8
0
 10
-9.74756
 20
-50.1133
 11
-9.73935
 21
-50.0306
  0
LINE
  8
0
 10
-9.73935
 20
-50.0306
 11
-9.73442
 21
-49.9453
  0
LINE
  8
0
 10
-9.73442
 20
-49.9453
 11
-9.73277
 21
-49.8571
  0
LINE
  8
0
 10
-9.73277
 20
-49.8571
 11
-9.73465
 21
-49.7802
  0
LINE
  8
0
 10
-9.73465
 20
-49.7802
 11
-9.74028
 21
-49.7054
  0
LINE
  8
0
 10
-9.74028
 20
-49.7054
 11
-9.74965
 21
-49.6328
  0
LINE
  8
0
 10
-9.74965
 20
-49.6328
 11
-9.76279
 21
-49.5623
  0
LINE
  8
0
 10
-9.76279
 20
-49.5623
 11
-9.77966
 21
-49.494
  0
LINE
  8
0
 10
-9.77966
 20
-49.494
 11
-9.80029
 21
-49.4278
  0
LINE
  8
0
 10
-9.80029
 20
-49.4278
 11
-9.82466
 21
-49.3637
  0
LINE
  8
0
 10
-9.82466
 20
-49.3637
 11
-9.8528
 21
-49.3018
  0
LINE
  8
0
 10
-9.8528
 20
-49.3018
 11
-9.88467
 21
-49.242
  0
LINE
  8
0
 10
-9.88467
 20
-49.242
 11
-9.9203
 21
-49.1843
  0
LINE
  8
0
 10
-9.9203
 20
-49.1843
 11
-9.95969
 21
-49.1288
  0
LINE
  8
0
 10
-9.95969
 20
-49.1288
 11
-10.0028
 21
-49.0755
  0
LINE
  8
0
 10
-10.0028
 20
-49.0755
 11
-10.0497
 21
-49.0242
  0
LINE
  8
0
 10
-10.0497
 20
-49.0242
 11
-10.1003
 21
-48.9751
  0
LINE
  8
0
 10
-10.1003
 20
-48.9751
 11
-10.1547
 21
-48.9282
  0
LINE
  8
0
 10
-10.1547
 20
-48.9282
 11
-10.2129
 21
-48.8834
  0
LINE
  8
0
 10
-10.2129
 20
-48.8834
 11
-10.2745
 21
-48.841
  0
LINE
  8
0
 10
-10.2745
 20
-48.841
 11
-10.3395
 21
-48.8014
  0
LINE
  8
0
 10
-10.3395
 20
-48.8014
 11
-10.4079
 21
-48.7645
  0
LINE
  8
0
 10
-10.4079
 20
-48.7645
 11
-10.4795
 21
-48.7303
  0
LINE
  8
0
 10
-10.4795
 20
-48.7303
 11
-10.5545
 21
-48.6988
  0
LINE
  8
0
 10
-10.5545
 20
-48.6988
 11
-10.6328
 21
-48.6701
  0
LINE
  8
0
 10
-10.6328
 20
-48.6701
 11
-10.7144
 21
-48.6442
  0
LINE
  8
0
 10
-10.7144
 20
-48.6442
 11
-10.7994
 21
-48.6209
  0
LINE
  8
0
 10
-10.7994
 20
-48.6209
 11
-10.8877
 21
-48.6004
  0
LINE
  8
0
 10
-10.8877
 20
-48.6004
 11
-10.9793
 21
-48.5827
  0
LINE
  8
0
 10
-10.9793
 20
-48.5827
 11
-11.0743
 21
-48.5676
  0
LINE
  8
0
 10
-11.0743
 20
-48.5676
 11
-11.1726
 21
-48.5553
  0
LINE
  8
0
 10
-11.1726
 20
-48.5553
 11
-11.2742
 21
-48.5457
  0
LINE
  8
0
 10
-11.2742
 20
-48.5457
 11
-11.3791
 21
-48.5389
  0
LINE
  8
0
 10
-11.3791
 20
-48.5389
 11
-11.4874
 21
-48.5348
  0
LINE
  8
0
 10
-11.4874
 20
-48.5348
 11
-11.5989
 21
-48.5334
  0
LINE
  8
0
 10
-11.5989
 20
-48.5334
 11
-12.1523
 21
-48.5334
  0
LINE
  8
0
 10
-12.1523
 20
-48.5334
 11
-12.1523
 21
-47.6871
  0
LINE
  8
0
 10
-12.1523
 20
-47.6871
 11
-11.6206
 21
-47.6871
  0
LINE
  8
0
 10
-11.6206
 20
-47.6871
 11
-11.5217
 21
-47.6858
  0
LINE
  8
0
 10
-11.5217
 20
-47.6858
 11
-11.4255
 21
-47.6817
  0
LINE
  8
0
 10
-11.4255
 20
-47.6817
 11
-11.3322
 21
-47.6748
  0
LINE
  8
0
 10
-11.3322
 20
-47.6748
 11
-11.2417
 21
-47.6653
  0
LINE
  8
0
 10
-11.2417
 20
-47.6653
 11
-11.1541
 21
-47.653
  0
LINE
  8
0
 10
-11.1541
 20
-47.653
 11
-11.0692
 21
-47.6379
  0
LINE
  8
0
 10
-11.0692
 20
-47.6379
 11
-10.9872
 21
-47.6201
  0
LINE
  8
0
 10
-10.9872
 20
-47.6201
 11
-10.9079
 21
-47.5997
  0
LINE
  8
0
 10
-10.9079
 20
-47.5997
 11
-10.8315
 21
-47.5764
  0
LINE
  8
0
 10
-10.8315
 20
-47.5764
 11
-10.7579
 21
-47.5504
  0
LINE
  8
0
 10
-10.7579
 20
-47.5504
 11
-10.6872
 21
-47.5217
  0
LINE
  8
0
 10
-10.6872
 20
-47.5217
 11
-10.6192
 21
-47.4903
  0
LINE
  8
0
 10
-10.6192
 20
-47.4903
 11
-10.5541
 21
-47.4561
  0
LINE
  8
0
 10
-10.5541
 20
-47.4561
 11
-10.4918
 21
-47.4192
  0
LINE
  8
0
 10
-10.4918
 20
-47.4192
 11
-10.4323
 21
-47.3796
  0
LINE
  8
0
 10
-10.4323
 20
-47.3796
 11
-10.3757
 21
-47.3372
  0
LINE
  8
0
 10
-10.3757
 20
-47.3372
 11
-10.3221
 21
-47.2924
  0
LINE
  8
0
 10
-10.3221
 20
-47.2924
 11
-10.272
 21
-47.2455
  0
LINE
  8
0
 10
-10.272
 20
-47.2455
 11
-10.2254
 21
-47.1965
  0
LINE
  8
0
 10
-10.2254
 20
-47.1965
 11
-10.1822
 21
-47.1455
  0
LINE
  8
0
 10
-10.1822
 20
-47.1455
 11
-10.1425
 21
-47.0923
  0
LINE
  8
0
 10
-10.1425
 20
-47.0923
 11
-10.1062
 21
-47.037
  0
LINE
  8
0
 10
-10.1062
 20
-47.037
 11
-10.0734
 21
-46.9796
  0
LINE
  8
0
 10
-10.0734
 20
-46.9796
 11
-10.044
 21
-46.9202
  0
LINE
  8
0
 10
-10.044
 20
-46.9202
 11
-10.0181
 21
-46.8586
  0
LINE
  8
0
 10
-10.0181
 20
-46.8586
 11
-9.99568
 21
-46.7949
  0
LINE
  8
0
 10
-9.99568
 20
-46.7949
 11
-9.97667
 21
-46.7292
  0
LINE
  8
0
 10
-9.97667
 20
-46.7292
 11
-9.96114
 21
-46.6613
  0
LINE
  8
0
 10
-9.96114
 20
-46.6613
 11
-9.94904
 21
-46.5914
  0
LINE
  8
0
 10
-9.94904
 20
-46.5914
 11
-9.9404
 21
-46.5193
  0
LINE
  8
0
 10
-9.9404
 20
-46.5193
 11
-9.93523
 21
-46.4451
  0
LINE
  8
0
 10
-9.93523
 20
-46.4451
 11
-9.9335
 21
-46.3689
  0
LINE
  8
0
 10
-9.9335
 20
-46.3689
 11
-9.93491
 21
-46.2933
  0
LINE
  8
0
 10
-9.93491
 20
-46.2933
 11
-9.93913
 21
-46.2197
  0
LINE
  8
0
 10
-9.93913
 20
-46.2197
 11
-9.94618
 21
-46.1481
  0
LINE
  8
0
 10
-9.94618
 20
-46.1481
 11
-9.95604
 21
-46.0785
  0
LINE
  8
0
 10
-9.95604
 20
-46.0785
 11
-9.96873
 21
-46.0109
  0
LINE
  8
0
 10
-9.96873
 20
-46.0109
 11
-9.98424
 21
-45.9453
  0
LINE
  8
0
 10
-9.98424
 20
-45.9453
 11
-10.0025
 21
-45.8818
  0
LINE
  8
0
 10
-10.0025
 20
-45.8818
 11
-10.0237
 21
-45.8203
  0
LINE
  8
0
 10
-10.0237
 20
-45.8203
 11
-10.0477
 21
-45.7607
  0
LINE
  8
0
 10
-10.0477
 20
-45.7607
 11
-10.0744
 21
-45.7032
  0
LINE
  8
0
 10
-10.0744
 20
-45.7032
 11
-10.104
 21
-45.6478
  0
LINE
  8
0
 10
-10.104
 20
-45.6478
 11
-10.1364
 21
-45.5943
  0
LINE
  8
0
 10
-10.1364
 20
-45.5943
 11
-10.1717
 21
-45.5428
  0
LINE
  8
0
 10
-10.1717
 20
-45.5428
 11
-10.2097
 21
-45.4933
  0
LINE
  8
0
 10
-10.2097
 20
-45.4933
 11
-10.2506
 21
-45.4459
  0
LINE
  8
0
 10
-10.2506
 20
-45.4459
 11
-10.2943
 21
-45.4005
  0
LINE
  8
0
 10
-10.2943
 20
-45.4005
 11
-10.3408
 21
-45.3575
  0
LINE
  8
0
 10
-10.3408
 20
-45.3575
 11
-10.3899
 21
-45.3172
  0
LINE
  8
0
 10
-10.3899
 20
-45.3172
 11
-10.4419
 21
-45.2797
  0
LINE
  8
0
 10
-10.4419
 20
-45.2797
 11
-10.4965
 21
-45.245
  0
LINE
  8
0
 10
-10.4965
 20
-45.245
 11
-10.5539
 21
-45.2131
  0
LINE
  8
0
 10
-10.5539
 20
-45.2131
 11
-10.614
 21
-45.1839
  0
LINE
  8
0
 10
-10.614
 20
-45.1839
 11
-10.6769
 21
-45.1576
  0
LINE
  8
0
 10
-10.6769
 20
-45.1576
 11
-10.7425
 21
-45.134
  0
LINE
  8
0
 10
-10.7425
 20
-45.134
 11
-10.8108
 21
-45.1131
  0
LINE
  8
0
 10
-10.8108
 20
-45.1131
 11
-10.8819
 21
-45.0951
  0
LINE
  8
0
 10
-10.8819
 20
-45.0951
 11
-10.9557
 21
-45.0798
  0
LINE
  8
0
 10
-10.9557
 20
-45.0798
 11
-11.0322
 21
-45.0673
  0
LINE
  8
0
 10
-11.0322
 20
-45.0673
 11
-11.1115
 21
-45.0576
  0
LINE
  8
0
 10
-11.1115
 20
-45.0576
 11
-11.1935
 21
-45.0507
  0
LINE
  8
0
 10
-11.1935
 20
-45.0507
 11
-11.2782
 21
-45.0465
  0
LINE
  8
0
 10
-11.2782
 20
-45.0465
 11
-11.3657
 21
-45.0451
  0
LINE
  8
0
 10
-11.3657
 20
-45.0451
 11
-11.4454
 21
-45.0464
  0
LINE
  8
0
 10
-11.4454
 20
-45.0464
 11
-11.5232
 21
-45.0503
  0
LINE
  8
0
 10
-11.5232
 20
-45.0503
 11
-11.5991
 21
-45.0568
  0
LINE
  8
0
 10
-11.5991
 20
-45.0568
 11
-11.673
 21
-45.0658
  0
LINE
  8
0
 10
-11.673
 20
-45.0658
 11
-11.745
 21
-45.0775
  0
LINE
  8
0
 10
-11.745
 20
-45.0775
 11
-11.8151
 21
-45.0917
  0
LINE
  8
0
 10
-11.8151
 20
-45.0917
 11
-11.8833
 21
-45.1085
  0
LINE
  8
0
 10
-11.8833
 20
-45.1085
 11
-11.9495
 21
-45.1279
  0
LINE
  8
0
 10
-11.9495
 20
-45.1279
 11
-12.0138
 21
-45.1498
  0
LINE
  8
0
 10
-12.0138
 20
-45.1498
 11
-12.0762
 21
-45.1744
  0
LINE
  8
0
 10
-12.0762
 20
-45.1744
 11
-12.1367
 21
-45.2016
  0
LINE
  8
0
 10
-12.1367
 20
-45.2016
 11
-12.1952
 21
-45.2313
  0
LINE
  8
0
 10
-12.1952
 20
-45.2313
 11
-12.2518
 21
-45.2636
  0
LINE
  8
0
 10
-12.2518
 20
-45.2636
 11
-12.3064
 21
-45.2985
  0
LINE
  8
0
 10
-12.3064
 20
-45.2985
 11
-12.3592
 21
-45.336
  0
LINE
  8
0
 10
-12.3592
 20
-45.336
 11
-12.41
 21
-45.3761
  0
LINE
  8
0
 10
-12.41
 20
-45.3761
 11
-12.4585
 21
-45.4185
  0
LINE
  8
0
 10
-12.4585
 20
-45.4185
 11
-12.5044
 21
-45.463
  0
LINE
  8
0
 10
-12.5044
 20
-45.463
 11
-12.5478
 21
-45.5097
  0
LINE
  8
0
 10
-12.5478
 20
-45.5097
 11
-12.5885
 21
-45.5585
  0
LINE
  8
0
 10
-12.5885
 20
-45.5585
 11
-12.6266
 21
-45.6094
  0
LINE
  8
0
 10
-12.6266
 20
-45.6094
 11
-12.6621
 21
-45.6624
  0
LINE
  8
0
 10
-12.6621
 20
-45.6624
 11
-12.695
 21
-45.7175
  0
LINE
  8
0
 10
-12.695
 20
-45.7175
 11
-12.7253
 21
-45.7748
  0
LINE
  8
0
 10
-12.7253
 20
-45.7748
 11
-12.753
 21
-45.8342
  0
LINE
  8
0
 10
-12.753
 20
-45.8342
 11
-12.7781
 21
-45.8957
  0
LINE
  8
0
 10
-12.7781
 20
-45.8957
 11
-12.8005
 21
-45.9593
  0
LINE
  8
0
 10
-12.8005
 20
-45.9593
 11
-12.8204
 21
-46.0251
  0
LINE
  8
0
 10
-12.8204
 20
-46.0251
 11
-12.8377
 21
-46.0929
  0
LINE
  8
0
 10
-12.8377
 20
-46.0929
 11
-12.8523
 21
-46.1629
  0
LINE
  8
0
 10
-12.8523
 20
-46.1629
 11
-12.8644
 21
-46.235
  0
LINE
  8
0
 10
-12.8644
 20
-46.235
 11
-12.8738
 21
-46.3092
  0
LINE
  8
0
 10
-12.8738
 20
-46.3092
 11
-13.8557
 21
-46.2332
  0
LINE
  8
0
 10
-13.8557
 20
-46.2332
 11
-13.84
 21
-46.1175
  0
LINE
  8
0
 10
-13.84
 20
-46.1175
 11
-13.8198
 21
-46.005
  0
LINE
  8
0
 10
-13.8198
 20
-46.005
 11
-13.7953
 21
-45.8958
  0
LINE
  8
0
 10
-13.7953
 20
-45.8958
 11
-13.7664
 21
-45.7897
  0
LINE
  8
0
 10
-13.7664
 20
-45.7897
 11
-13.7331
 21
-45.6869
  0
LINE
  8
0
 10
-13.7331
 20
-45.6869
 11
-13.6954
 21
-45.5873
  0
LINE
  8
0
 10
-13.6954
 20
-45.5873
 11
-13.6533
 21
-45.4909
  0
LINE
  8
0
 10
-13.6533
 20
-45.4909
 11
-13.6069
 21
-45.3978
  0
LINE
  8
0
 10
-13.6069
 20
-45.3978
 11
-13.556
 21
-45.3078
  0
LINE
  8
0
 10
-13.556
 20
-45.3078
 11
-13.5008
 21
-45.2211
  0
LINE
  8
0
 10
-13.5008
 20
-45.2211
 11
-13.4412
 21
-45.1376
  0
LINE
  8
0
 10
-13.4412
 20
-45.1376
 11
-13.3772
 21
-45.0574
  0
LINE
  8
0
 10
-13.3772
 20
-45.0574
 11
-13.3088
 21
-44.9803
  0
LINE
  8
0
 10
-13.3088
 20
-44.9803
 11
-13.236
 21
-44.9065
  0
LINE
  8
0
 10
-13.236
 20
-44.9065
 11
-13.1588
 21
-44.8359
  0
LINE
  8
0
 10
-13.1588
 20
-44.8359
 11
-13.0773
 21
-44.7685
  0
LINE
  8
0
 10
-13.0773
 20
-44.7685
 11
-12.992
 21
-44.7048
  0
LINE
  8
0
 10
-12.992
 20
-44.7048
 11
-12.9038
 21
-44.6452
  0
LINE
  8
0
 10
-12.9038
 20
-44.6452
 11
-12.8126
 21
-44.5896
  0
LINE
  8
0
 10
-12.8126
 20
-44.5896
 11
-12.7184
 21
-44.5383
  0
LINE
  8
0
 10
-12.7184
 20
-44.5383
 11
-12.6212
 21
-44.491
  0
LINE
  8
0
 10
-12.6212
 20
-44.491
 11
-12.521
 21
-44.4478
  0
LINE
  8
0
 10
-12.521
 20
-44.4478
 11
-12.4178
 21
-44.4088
  0
LINE
  8
0
 10
-12.4178
 20
-44.4088
 11
-12.3117
 21
-44.3738
  0
LINE
  8
0
 10
-12.3117
 20
-44.3738
 11
-12.2025
 21
-44.343
  0
LINE
  8
0
 10
-12.2025
 20
-44.343
 11
-12.0904
 21
-44.3163
  0
LINE
  8
0
 10
-12.0904
 20
-44.3163
 11
-11.9753
 21
-44.2936
  0
LINE
  8
0
 10
-11.9753
 20
-44.2936
 11
-11.8572
 21
-44.2751
  0
LINE
  8
0
 10
-11.8572
 20
-44.2751
 11
-11.7361
 21
-44.2607
  0
LINE
  8
0
 10
-11.7361
 20
-44.2607
 11
-11.612
 21
-44.2505
  0
LINE
  8
0
 10
-11.612
 20
-44.2505
 11
-11.4849
 21
-44.2443
  0
LINE
  8
0
 10
-11.4849
 20
-44.2443
 11
-11.3549
 21
-44.2422
  0
LINE
  8
0
 10
-11.3549
 20
-44.2422
 11
-11.2131
 21
-44.2443
  0
LINE
  8
0
 10
-11.2131
 20
-44.2443
 11
-11.0753
 21
-44.2506
  0
LINE
  8
0
 10
-11.0753
 20
-44.2506
 11
-10.9416
 21
-44.261
  0
LINE
  8
0
 10
-10.9416
 20
-44.261
 11
-10.8118
 21
-44.2757
  0
LINE
  8
0
 10
-10.8118
 20
-44.2757
 11
-10.6861
 21
-44.2944
  0
LINE
  8
0
 10
-10.6861
 20
-44.2944
 11
-10.5643
 21
-44.3174
  0
LINE
  8
0
 10
-10.5643
 20
-44.3174
 11
-10.4466
 21
-44.3445
  0
LINE
  8
0
 10
-10.4466
 20
-44.3445
 11
-10.3329
 21
-44.3759
  0
LINE
  8
0
 10
-10.3329
 20
-44.3759
 11
-10.2232
 21
-44.4113
  0
LINE
  8
0
 10
-10.2232
 20
-44.4113
 11
-10.1174
 21
-44.451
  0
LINE
  8
0
 10
-10.1174
 20
-44.451
 11
-10.0157
 21
-44.4948
  0
LINE
  8
0
 10
-10.0157
 20
-44.4948
 11
-9.91801
 21
-44.5428
  0
LINE
  8
0
 10
-9.91801
 20
-44.5428
 11
-9.82433
 21
-44.595
  0
LINE
  8
0
 10
-9.82433
 20
-44.595
 11
-9.73463
 21
-44.6514
  0
LINE
  8
0
 10
-9.73463
 20
-44.6514
 11
-9.64894
 21
-44.7119
  0
LINE
  8
0
 10
-9.64894
 20
-44.7119
 11
-9.56726
 21
-44.7766
  0
LINE
  8
0
 10
-9.56726
 20
-44.7766
 11
-9.49007
 21
-44.8451
  0
LINE
  8
0
 10
-9.49007
 20
-44.8451
 11
-9.41786
 21
-44.9168
  0
LINE
  8
0
 10
-9.41786
 20
-44.9168
 11
-9.35063
 21
-44.9918
  0
LINE
  8
0
 10
-9.35063
 20
-44.9918
 11
-9.28838
 21
-45.0701
  0
LINE
  8
0
 10
-9.28838
 20
-45.0701
 11
-9.23111
 21
-45.1517
  0
LINE
  8
0
 10
-9.23111
 20
-45.1517
 11
-9.17882
 21
-45.2365
  0
LINE
  8
0
 10
-9.17882
 20
-45.2365
 11
-9.1315
 21
-45.3247
  0
LINE
  8
0
 10
-9.1315
 20
-45.3247
 11
-9.08917
 21
-45.4161
  0
LINE
  8
0
 10
-9.08917
 20
-45.4161
 11
-9.05182
 21
-45.5108
  0
LINE
  8
0
 10
-9.05182
 20
-45.5108
 11
-9.01945
 21
-45.6088
  0
LINE
  8
0
 10
-9.01945
 20
-45.6088
 11
-8.99207
 21
-45.7101
  0
LINE
  8
0
 10
-8.99207
 20
-45.7101
 11
-8.96965
 21
-45.8147
  0
LINE
  8
0
 10
-8.96965
 20
-45.8147
 11
-8.95222
 21
-45.9225
  0
LINE
  8
0
 10
-8.95222
 20
-45.9225
 11
-8.93977
 21
-46.0336
  0
LINE
  8
0
 10
-8.93977
 20
-46.0336
 11
-8.93231
 21
-46.1481
  0
LINE
  8
0
 10
-8.93231
 20
-46.1481
 11
-8.92981
 21
-46.2658
  0
LINE
  8
0
 10
-8.92981
 20
-46.2658
 11
-8.93141
 21
-46.3562
  0
LINE
  8
0
 10
-8.93141
 20
-46.3562
 11
-8.93622
 21
-46.4446
  0
LINE
  8
0
 10
-8.93622
 20
-46.4446
 11
-8.94421
 21
-46.5308
  0
LINE
  8
0
 10
-8.94421
 20
-46.5308
 11
-8.95541
 21
-46.6148
  0
LINE
  8
0
 10
-8.95541
 20
-46.6148
 11
-8.96982
 21
-46.6968
  0
LINE
  8
0
 10
-8.96982
 20
-46.6968
 11
-8.98741
 21
-46.7765
  0
LINE
  8
0
 10
-8.98741
 20
-46.7765
 11
-9.00821
 21
-46.8542
  0
LINE
  8
0
 10
-9.00821
 20
-46.8542
 11
-9.03221
 21
-46.9297
  0
LINE
  8
0
 10
-9.03221
 20
-46.9297
 11
-9.05942
 21
-47.003
  0
LINE
  8
0
 10
-9.05942
 20
-47.003
 11
-9.08981
 21
-47.0742
  0
LINE
  8
0
 10
-9.08981
 20
-47.0742
 11
-9.12341
 21
-47.1433
  0
LINE
  8
0
 10
-9.12341
 20
-47.1433
 11
-9.16022
 21
-47.2102
  0
LINE
  8
0
 10
-9.16022
 20
-47.2102
 11
-9.20021
 21
-47.275
  0
LINE
  8
0
 10
-9.20021
 20
-47.275
 11
-9.24341
 21
-47.3377
  0
LINE
  8
0
 10
-9.24341
 20
-47.3377
 11
-9.28981
 21
-47.3982
  0
LINE
  8
0
 10
-9.28981
 20
-47.3982
 11
-9.33942
 21
-47.4566
  0
LINE
  8
0
 10
-9.33942
 20
-47.4566
 11
-9.39207
 21
-47.5127
  0
LINE
  8
0
 10
-9.39207
 20
-47.5127
 11
-9.44762
 21
-47.5665
  0
LINE
  8
0
 10
-9.44762
 20
-47.5665
 11
-9.50607
 21
-47.6181
  0
LINE
  8
0
 10
-9.50607
 20
-47.6181
 11
-9.56744
 21
-47.6673
  0
LINE
  8
0
 10
-9.56744
 20
-47.6673
 11
-9.6317
 21
-47.7142
  0
LINE
  8
0
 10
-9.6317
 20
-47.7142
 11
-9.69887
 21
-47.7588
  0
LINE
  8
0
 10
-9.69887
 20
-47.7588
 11
-9.76894
 21
-47.8011
  0
LINE
  8
0
 10
-9.76894
 20
-47.8011
 11
-9.84192
 21
-47.8411
  0
LINE
  8
0
 10
-9.84192
 20
-47.8411
 11
-9.91779
 21
-47.8787
  0
LINE
  8
0
 10
-9.91779
 20
-47.8787
 11
-9.99657
 21
-47.9141
  0
LINE
  8
0
 10
-9.99657
 20
-47.9141
 11
-10.0783
 21
-47.9471
  0
LINE
  8
0
 10
-10.0783
 20
-47.9471
 11
-10.1628
 21
-47.9779
  0
LINE
  8
0
 10
-10.1628
 20
-47.9779
 11
-10.2503
 21
-48.0063
  0
LINE
  8
0
 10
-10.2503
 20
-48.0063
 11
-10.3407
 21
-48.0325
  0
LINE
  8
0
 10
-10.3407
 20
-48.0325
 11
-10.434
 21
-48.0563
  0
LINE
  8
0
 10
-10.434
 20
-48.0563
 11
-10.5302
 21
-48.0778
  0
LINE
  8
0
 10
-10.5302
 20
-48.0778
 11
-10.5302
 21
-48.0994
  0
LINE
  8
0
 10
-10.5302
 20
-48.0994
 11
-10.4246
 21
-48.1125
  0
LINE
  8
0
 10
-10.4246
 20
-48.1125
 11
-10.3219
 21
-48.1286
  0
LINE
  8
0
 10
-10.3219
 20
-48.1286
 11
-10.2222
 21
-48.1478
  0
LINE
  8
0
 10
-10.2222
 20
-48.1478
 11
-10.1254
 21
-48.17
  0
LINE
  8
0
 10
-10.1254
 20
-48.17
 11
-10.0316
 21
-48.1952
  0
LINE
  8
0
 10
-10.0316
 20
-48.1952
 11
-9.94078
 21
-48.2236
  0
LINE
  8
0
 10
-9.94078
 20
-48.2236
 11
-9.85292
 21
-48.2549
  0
LINE
  8
0
 10
-9.85292
 20
-48.2549
 11
-9.76804
 21
-48.2893
  0
LINE
  8
0
 10
-9.76804
 20
-48.2893
 11
-9.68611
 21
-48.3268
  0
LINE
  8
0
 10
-9.68611
 20
-48.3268
 11
-9.60716
 21
-48.3673
  0
LINE
  8
0
 10
-9.60716
 20
-48.3673
 11
-9.53117
 21
-48.4109
  0
LINE
  8
0
 10
-9.53117
 20
-48.4109
 11
-9.45815
 21
-48.4575
  0
LINE
  8
0
 10
-9.45815
 20
-48.4575
 11
-9.38809
 21
-48.5072
  0
LINE
  8
0
 10
-9.38809
 20
-48.5072
 11
-9.32101
 21
-48.5599
  0
LINE
  8
0
 10
-9.32101
 20
-48.5599
 11
-9.25688
 21
-48.6157
  0
LINE
  8
0
 10
-9.25688
 20
-48.6157
 11
-9.19574
 21
-48.6745
  0
LINE
  8
0
 10
-9.19574
 20
-48.6745
 11
-9.13792
 21
-48.7358
  0
LINE
  8
0
 10
-9.13792
 20
-48.7358
 11
-9.08383
 21
-48.7991
  0
LINE
  8
0
 10
-9.08383
 20
-48.7991
 11
-9.03348
 21
-48.8643
  0
LINE
  8
0
 10
-9.03348
 20
-48.8643
 11
-8.98686
 21
-48.9315
  0
LINE
  8
0
 10
-8.98686
 20
-48.9315
 11
-8.94395
 21
-49.0006
  0
LINE
  8
0
 10
-8.94395
 20
-49.0006
 11
-8.9048
 21
-49.0717
  0
LINE
  8
0
 10
-8.9048
 20
-49.0717
 11
-8.86935
 21
-49.1447
  0
LINE
  8
0
 10
-8.86935
 20
-49.1447
 11
-8.83766
 21
-49.2197
  0
LINE
  8
0
 10
-8.83766
 20
-49.2197
 11
-8.80968
 21
-49.2966
  0
LINE
  8
0
 10
-8.80968
 20
-49.2966
 11
-8.78543
 21
-49.3755
  0
LINE
  8
0
 10
-8.78543
 20
-49.3755
 11
-8.76492
 21
-49.4563
  0
LINE
  8
0
 10
-8.76492
 20
-49.4563
 11
-8.74814
 21
-49.5391
  0
LINE
  8
0
 10
-8.74814
 20
-49.5391
 11
-8.73508
 21
-49.6238
  0
LINE
  8
0
 10
-8.73508
 20
-49.6238
 11
-8.72575
 21
-49.7105
  0
LINE
  8
0
 10
-8.72575
 20
-49.7105
 11
-8.72015
 21
-49.7991
  0
LINE
  8
0
 10
-8.72015
 20
-49.7991
 11
-8.71829
 21
-49.8897
  0
LINE
  8
0
 10
-8.71829
 20
-49.8897
 11
-8.72092
 21
-50.0201
  0
LINE
  8
0
 10
-8.72092
 20
-50.0201
 11
-8.72881
 21
-50.1467
  0
LINE
  8
0
 10
-8.72881
 20
-50.1467
 11
-8.74194
 21
-50.2696
  0
LINE
  8
0
 10
-8.74194
 20
-50.2696
 11
-8.76035
 21
-50.3888
  0
LINE
  8
0
 10
-8.76035
 20
-50.3888
 11
-8.784
 21
-50.5042
  0
LINE
  8
0
 10
-8.784
 20
-50.5042
 11
-8.8129
 21
-50.6159
  0
LINE
  8
0
 10
-8.8129
 20
-50.6159
 11
-8.84706
 21
-50.7239
  0
LINE
  8
0
 10
-8.84706
 20
-50.7239
 11
-8.88647
 21
-50.8282
  0
LINE
  8
0
 10
-8.88647
 20
-50.8282
 11
-8.93115
 21
-50.9287
  0
LINE
  8
0
 10
-8.93115
 20
-50.9287
 11
-8.98108
 21
-51.0255
  0
LINE
  8
0
 10
-8.98108
 20
-51.0255
 11
-9.03625
 21
-51.1186
  0
LINE
  8
0
 10
-9.03625
 20
-51.1186
 11
-9.09669
 21
-51.2079
  0
LINE
  8
0
 10
-9.09669
 20
-51.2079
 11
-9.1624
 21
-51.2935
  0
LINE
  8
0
 10
-9.1624
 20
-51.2935
 11
-9.23335
 21
-51.3754
  0
LINE
  8
0
 10
-9.23335
 20
-51.3754
 11
-9.30956
 21
-51.4536
  0
LINE
  8
0
 10
-9.30956
 20
-51.4536
 11
-9.39102
 21
-51.528
  0
LINE
  8
0
 10
-9.39102
 20
-51.528
 11
-9.47734
 21
-51.5983
  0
LINE
  8
0
 10
-9.47734
 20
-51.5983
 11
-9.56816
 21
-51.6641
  0
LINE
  8
0
 10
-9.56816
 20
-51.6641
 11
-9.66347
 21
-51.7253
  0
LINE
  8
0
 10
-9.66347
 20
-51.7253
 11
-9.76328
 21
-51.782
  0
LINE
  8
0
 10
-9.76328
 20
-51.782
 11
-9.86758
 21
-51.8341
  0
LINE
  8
0
 10
-9.86758
 20
-51.8341
 11
-9.97638
 21
-51.8817
  0
LINE
  8
0
 10
-9.97638
 20
-51.8817
 11
-10.0897
 21
-51.9248
  0
LINE
  8
0
 10
-10.0897
 20
-51.9248
 11
-10.2074
 21
-51.9634
  0
LINE
  8
0
 10
-10.2074
 20
-51.9634
 11
-10.3297
 21
-51.9974
  0
LINE
  8
0
 10
-10.3297
 20
-51.9974
 11
-10.4565
 21
-52.0268
  0
LINE
  8
0
 10
-10.4565
 20
-52.0268
 11
-10.5877
 21
-52.0518
  0
LINE
  8
0
 10
-10.5877
 20
-52.0518
 11
-10.7235
 21
-52.0722
  0
LINE
  8
0
 10
-10.7235
 20
-52.0722
 11
-10.8637
 21
-52.0881
  0
LINE
  8
0
 10
-10.8637
 20
-52.0881
 11
-11.0085
 21
-52.0994
  0
LINE
  8
0
 10
-11.0085
 20
-52.0994
 11
-11.1577
 21
-52.1062
  0
LINE
  8
0
 10
-11.1577
 20
-52.1062
 11
-11.3114
 21
-52.1085
  0
LINE
  8
0
 10
-11.3114
 20
-52.1085
 11
-11.4547
 21
-52.1064
  0
LINE
  8
0
 10
-10.5519
 20
-72
 11
-10.5519
 21
-70.2695
  0
LINE
  8
0
 10
-10.5519
 20
-70.2695
 11
-14.1541
 21
-70.2695
  0
LINE
  8
0
 10
-14.1541
 20
-70.2695
 11
-14.1541
 21
-69.5099
  0
LINE
  8
0
 10
-14.1541
 20
-69.5099
 11
-10.655
 21
-64.3562
  0
LINE
  8
0
 10
-10.655
 20
-64.3562
 11
-9.62965
 21
-64.3562
  0
LINE
  8
0
 10
-9.62965
 20
-64.3562
 11
-9.62965
 21
-69.4991
  0
LINE
  8
0
 10
-9.62965
 20
-69.4991
 11
-8.5555
 21
-69.4991
  0
LINE
  8
0
 10
-8.5555
 20
-69.4991
 11
-8.5555
 21
-70.2695
  0
LINE
  8
0
 10
-8.5555
 20
-70.2695
 11
-9.62965
 21
-70.2695
  0
LINE
  8
0
 10
-9.62965
 20
-70.2695
 11
-9.62965
 21
-72
  0
LINE
  8
0
 10
-9.62965
 20
-72
 11
-10.5519
 21
-72
  0
LINE
  8
0
 10
-10.5519
 20
-65.4574
 11
-10.5538
 21
-65.4624
  0
LINE
  8
0
 10
-10.5538
 20
-65.4624
 11
-10.5567
 21
-65.4691
  0
LINE
  8
0
 10
-10.5567
 20
-65.4691
 11
-10.5605
 21
-65.4775
  0
LINE
  8
0
 10
-10.5605
 20
-65.4775
 11
-10.5655
 21
-65.4876
  0
LINE
  8
0
 10
-10.5655
 20
-65.4876
 11
-10.5714
 21
-65.4995
  0
LINE
  8
0
 10
-10.5714
 20
-65.4995
 11
-10.5784
 21
-65.5131
  0
LINE
  8
0
 10
-10.5784
 20
-65.5131
 11
-10.5863
 21
-65.5285
  0
LINE
  8
0
 10
-10.5863
 20
-65.5285
 11
-10.5953
 21
-65.5456
  0
LINE
  8
0
 10
-10.5953
 20
-65.5456
 11
-10.6053
 21
-65.5645
  0
LINE
  8
0
 10
-10.6053
 20
-65.5645
 11
-10.6163
 21
-65.585
  0
LINE
  8
0
 10
-10.6163
 20
-65.585
 11
-10.6284
 21
-65.6073
  0
LINE
  8
0
 10
-10.6284
 20
-65.6073
 11
-10.6414
 21
-65.6314
  0
LINE
  8
0
 10
-10.6414
 20
-65.6314
 11
-10.6555
 21
-65.6572
  0
LINE
  8
0
 10
-10.6555
 20
-65.6572
 11
-10.6706
 21
-65.6847
  0
LINE
  8
0
 10
-10.6706
 20
-65.6847
 11
-10.6867
 21
-65.714
  0
LINE
  8
0
 10
-10.6867
 20
-65.714
 11
-10.7038
 21
-65.745
  0
LINE
  8
0
 10
-10.7038
 20
-65.745
 11
-10.7212
 21
-65.7762
  0
LINE
  8
0
 10
-10.7212
 20
-65.7762
 11
-10.738
 21
-65.8063
  0
LINE
  8
0
 10
-10.738
 20
-65.8063
 11
-10.7542
 21
-65.8352
  0
LINE
  8
0
 10
-10.7542
 20
-65.8352
 11
-10.7699
 21
-65.863
  0
LINE
  8
0
 10
-10.7699
 20
-65.863
 11
-10.7851
 21
-65.8895
  0
LINE
  8
0
 10
-10.7851
 20
-65.8895
 11
-10.7997
 21
-65.9148
  0
LINE
  8
0
 10
-10.7997
 20
-65.9148
 11
-10.8137
 21
-65.939
  0
LINE
  8
0
 10
-10.8137
 20
-65.939
 11
-10.8272
 21
-65.962
  0
LINE
  8
0
 10
-10.8272
 20
-65.962
 11
-10.8402
 21
-65.9837
  0
LINE
  8
0
 10
-10.8402
 20
-65.9837
 11
-10.8526
 21
-66.0043
  0
LINE
  8
0
 10
-10.8526
 20
-66.0043
 11
-10.8644
 21
-66.0238
  0
LINE
  8
0
 10
-10.8644
 20
-66.0238
 11
-10.8757
 21
-66.042
  0
LINE
  8
0
 10
-10.8757
 20
-66.042
 11
-10.8865
 21
-66.059
  0
LINE
  8
0
 10
-10.8865
 20
-66.059
 11
-10.8967
 21
-66.0749
  0
LINE
  8
0
 10
-10.8967
 20
-66.0749
 11
-10.9063
 21
-66.0896
  0
LINE
  8
0
 10
-10.9063
 20
-66.0896
 11
-10.9154
 21
-66.103
  0
LINE
  8
0
 10
-10.9154
 20
-66.103
 11
-12.8738
 21
-68.9891
  0
LINE
  8
0
 10
-12.8738
 20
-68.9891
 11
-13.1668
 21
-69.3906
  0
LINE
  8
0
 10
-13.1668
 20
-69.3906
 11
-13.2536
 21
-69.4991
  0
LINE
  8
0
 10
-13.2536
 20
-69.4991
 11
-10.5519
 21
-69.4991
  0
LINE
  8
0
 10
-10.5519
 20
-69.4991
 11
-10.5519
 21
-65.4574
  0
LINE
  8
0
 10
-11.5411
 20
-92.1066
 11
-11.6698
 21
-92.1012
  0
LINE
  8
0
 10
-11.6698
 20
-92.1012
 11
-11.7954
 21
-92.0921
  0
LINE
  8
0
 10
-11.7954
 20
-92.0921
 11
-11.9177
 21
-92.0793
  0
LINE
  8
0
 10
-11.9177
 20
-92.0793
 11
-12.0368
 21
-92.0629
  0
LINE
  8
0
 10
-12.0368
 20
-92.0629
 11
-12.1526
 21
-92.0429
  0
LINE
  8
0
 10
-12.1526
 20
-92.0429
 11
-12.2653
 21
-92.0192
  0
LINE
  8
0
 10
-12.2653
 20
-92.0192
 11
-12.3747
 21
-91.9919
  0
LINE
  8
0
 10
-12.3747
 20
-91.9919
 11
-12.4809
 21
-91.9609
  0
LINE
  8
0
 10
-12.4809
 20
-91.9609
 11
-12.5839
 21
-91.9262
  0
LINE
  8
0
 10
-12.5839
 20
-91.9262
 11
-12.6837
 21
-91.888
  0
LINE
  8
0
 10
-12.6837
 20
-91.888
 11
-12.7802
 21
-91.8461
  0
LINE
  8
0
 10
-12.7802
 20
-91.8461
 11
-12.8736
 21
-91.8005
  0
LINE
  8
0
 10
-12.8736
 20
-91.8005
 11
-12.9637
 21
-91.7513
  0
LINE
  8
0
 10
-12.9637
 20
-91.7513
 11
-13.0506
 21
-91.6984
  0
LINE
  8
0
 10
-13.0506
 20
-91.6984
 11
-13.1342
 21
-91.6419
  0
LINE
  8
0
 10
-13.1342
 20
-91.6419
 11
-13.2144
 21
-91.582
  0
LINE
  8
0
 10
-13.2144
 20
-91.582
 11
-13.2908
 21
-91.5188
  0
LINE
  8
0
 10
-13.2908
 20
-91.5188
 11
-13.3634
 21
-91.4523
  0
LINE
  8
0
 10
-13.3634
 20
-91.4523
 11
-13.4322
 21
-91.3825
  0
LINE
  8
0
 10
-13.4322
 20
-91.3825
 11
-13.4973
 21
-91.3095
  0
LINE
  8
0
 10
-13.4973
 20
-91.3095
 11
-13.5586
 21
-91.2333
  0
LINE
  8
0
 10
-13.5586
 20
-91.2333
 11
-13.6161
 21
-91.1537
  0
LINE
  8
0
 10
-13.6161
 20
-91.1537
 11
-13.6699
 21
-91.071
  0
LINE
  8
0
 10
-13.6699
 20
-91.071
 11
-13.7199
 21
-90.9849
  0
LINE
  8
0
 10
-13.7199
 20
-90.9849
 11
-13.7661
 21
-90.8956
  0
LINE
  8
0
 10
-13.7661
 20
-90.8956
 11
-13.8086
 21
-90.803
  0
LINE
  8
0
 10
-13.8086
 20
-90.803
 11
-13.8472
 21
-90.7071
  0
LINE
  8
0
 10
-13.8472
 20
-90.7071
 11
-13.8821
 21
-90.608
  0
LINE
  8
0
 10
-13.8821
 20
-90.608
 11
-13.9133
 21
-90.5057
  0
LINE
  8
0
 10
-13.9133
 20
-90.5057
 11
-13.9406
 21
-90.4
  0
LINE
  8
0
 10
-13.9406
 20
-90.4
 11
-13.9642
 21
-90.2911
  0
LINE
  8
0
 10
-13.9642
 20
-90.2911
 11
-12.9769
 21
-90.1772
  0
LINE
  8
0
 10
-12.9769
 20
-90.1772
 11
-12.9344
 21
-90.3145
  0
LINE
  8
0
 10
-12.9344
 20
-90.3145
 11
-12.8844
 21
-90.4429
  0
LINE
  8
0
 10
-12.8844
 20
-90.4429
 11
-12.8268
 21
-90.5625
  0
LINE
  8
0
 10
-12.8268
 20
-90.5625
 11
-12.7616
 21
-90.6733
  0
LINE
  8
0
 10
-12.7616
 20
-90.6733
 11
-12.6888
 21
-90.7751
  0
LINE
  8
0
 10
-12.6888
 20
-90.7751
 11
-12.6084
 21
-90.8681
  0
LINE
  8
0
 10
-12.6084
 20
-90.8681
 11
-12.5204
 21
-90.9523
  0
LINE
  8
0
 10
-12.5204
 20
-90.9523
 11
-12.4249
 21
-91.0276
  0
LINE
  8
0
 10
-12.4249
 20
-91.0276
 11
-12.3217
 21
-91.094
  0
LINE
  8
0
 10
-12.3217
 20
-91.094
 11
-12.211
 21
-91.1516
  0
LINE
  8
0
 10
-12.211
 20
-91.1516
 11
-12.0927
 21
-91.2003
  0
LINE
  8
0
 10
-12.0927
 20
-91.2003
 11
-11.9668
 21
-91.2402
  0
LINE
  8
0
 10
-11.9668
 20
-91.2402
 11
-11.8333
 21
-91.2712
  0
LINE
  8
0
 10
-11.8333
 20
-91.2712
 11
-11.6922
 21
-91.2933
  0
LINE
  8
0
 10
-11.6922
 20
-91.2933
 11
-11.5436
 21
-91.3066
  0
LINE
  8
0
 10
-11.5436
 20
-91.3066
 11
-11.3873
 21
-91.3111
  0
LINE
  8
0
 10
-11.3873
 20
-91.3111
 11
-11.2903
 21
-91.3092
  0
LINE
  8
0
 10
-11.2903
 20
-91.3092
 11
-11.196
 21
-91.3036
  0
LINE
  8
0
 10
-11.196
 20
-91.3036
 11
-11.1044
 21
-91.2944
  0
LINE
  8
0
 10
-11.1044
 20
-91.2944
 11
-11.0154
 21
-91.2814
  0
LINE
  8
0
 10
-11.0154
 20
-91.2814
 11
-10.9291
 21
-91.2647
  0
LINE
  8
0
 10
-10.9291
 20
-91.2647
 11
-10.8455
 21
-91.2443
  0
LINE
  8
0
 10
-10.8455
 20
-91.2443
 11
-10.7645
 21
-91.2202
  0
LINE
  8
0
 10
-10.7645
 20
-91.2202
 11
-10.6862
 21
-91.1924
  0
LINE
  8
0
 10
-10.6862
 20
-91.1924
 11
-10.6106
 21
-91.1609
  0
LINE
  8
0
 10
-10.6106
 20
-91.1609
 11
-10.5376
 21
-91.1256
  0
LINE
  8
0
 10
-10.5376
 20
-91.1256
 11
-10.4673
 21
-91.0867
  0
LINE
  8
0
 10
-10.4673
 20
-91.0867
 11
-10.3997
 21
-91.0441
  0
LINE
  8
0
 10
-10.3997
 20
-91.0441
 11
-10.3347
 21
-90.9977
  0
LINE
  8
0
 10
-10.3347
 20
-90.9977
 11
-10.2725
 21
-90.9476
  0
LINE
  8
0
 10
-10.2725
 20
-90.9476
 11
-10.2128
 21
-90.8939
  0
LINE
  8
0
 10
-10.2128
 20
-90.8939
 11
-10.1559
 21
-90.8364
  0
LINE
  8
0
 10
-10.1559
 20
-90.8364
 11
-10.102
 21
-90.7757
  0
LINE
  8
0
 10
-10.102
 20
-90.7757
 11
-10.0516
 21
-90.7122
  0
LINE
  8
0
 10
-10.0516
 20
-90.7122
 11
-10.0047
 21
-90.6459
  0
LINE
  8
0
 10
-10.0047
 20
-90.6459
 11
-9.96126
 21
-90.5768
  0
LINE
  8
0
 10
-9.96126
 20
-90.5768
 11
-9.9213
 21
-90.505
  0
LINE
  8
0
 10
-9.9213
 20
-90.505
 11
-9.8848
 21
-90.4304
  0
LINE
  8
0
 10
-9.8848
 20
-90.4304
 11
-9.85178
 21
-90.353
  0
LINE
  8
0
 10
-9.85178
 20
-90.353
 11
-9.82224
 21
-90.2728
  0
LINE
  8
0
 10
-9.82224
 20
-90.2728
 11
-9.79617
 21
-90.1899
  0
LINE
  8
0
 10
-9.79617
 20
-90.1899
 11
-9.77357
 21
-90.1042
  0
LINE
  8
0
 10
-9.77357
 20
-90.1042
 11
-9.75446
 21
-90.0157
  0
LINE
  8
0
 10
-9.75446
 20
-90.0157
 11
-9.73882
 21
-89.9244
  0
LINE
  8
0
 10
-9.73882
 20
-89.9244
 11
-9.72665
 21
-89.8304
  0
LINE
  8
0
 10
-9.72665
 20
-89.8304
 11
-9.71797
 21
-89.7336
  0
LINE
  8
0
 10
-9.71797
 20
-89.7336
 11
-9.71275
 21
-89.634
  0
LINE
  8
0
 10
-9.71275
 20
-89.634
 11
-9.71101
 21
-89.5316
  0
LINE
  8
0
 10
-9.71101
 20
-89.5316
 11
-9.71277
 21
-89.4425
  0
LINE
  8
0
 10
-9.71277
 20
-89.4425
 11
-9.718
 21
-89.3555
  0
LINE
  8
0
 10
-9.718
 20
-89.3555
 11
-9.72675
 21
-89.2708
  0
LINE
  8
0
 10
-9.72675
 20
-89.2708
 11
-9.73898
 21
-89.1881
  0
LINE
  8
0
 10
-9.73898
 20
-89.1881
 11
-9.75473
 21
-89.1077
  0
LINE
  8
0
 10
-9.75473
 20
-89.1077
 11
-9.77396
 21
-89.0294
  0
LINE
  8
0
 10
-9.77396
 20
-89.0294
 11
-9.79669
 21
-88.9532
  0
LINE
  8
0
 10
-9.79669
 20
-88.9532
 11
-9.82292
 21
-88.8793
  0
LINE
  8
0
 10
-9.82292
 20
-88.8793
 11
-9.85265
 21
-88.8074
  0
LINE
  8
0
 10
-9.85265
 20
-88.8074
 11
-9.88586
 21
-88.7378
  0
LINE
  8
0
 10
-9.88586
 20
-88.7378
 11
-9.92258
 21
-88.6703
  0
LINE
  8
0
 10
-9.92258
 20
-88.6703
 11
-9.96278
 21
-88.605
  0
LINE
  8
0
 10
-9.96278
 20
-88.605
 11
-10.0065
 21
-88.5418
  0
LINE
  8
0
 10
-10.0065
 20
-88.5418
 11
-10.0537
 21
-88.4808
  0
LINE
  8
0
 10
-10.0537
 20
-88.4808
 11
-10.1044
 21
-88.422
  0
LINE
  8
0
 10
-10.1044
 20
-88.422
 11
-10.1586
 21
-88.3653
  0
LINE
  8
0
 10
-10.1586
 20
-88.3653
 11
-10.2158
 21
-88.3114
  0
LINE
  8
0
 10
-10.2158
 20
-88.3114
 11
-10.2754
 21
-88.261
  0
LINE
  8
0
 10
-10.2754
 20
-88.261
 11
-10.3374
 21
-88.2141
  0
LINE
  8
0
 10
-10.3374
 20
-88.2141
 11
-10.4019
 21
-88.1707
  0
LINE
  8
0
 10
-10.4019
 20
-88.1707
 11
-10.4688
 21
-88.1307
  0
LINE
  8
0
 10
-10.4688
 20
-88.1307
 11
-10.5381
 21
-88.0942
  0
LINE
  8
0
 10
-10.5381
 20
-88.0942
 11
-10.6099
 21
-88.0612
  0
LINE
  8
0
 10
-10.6099
 20
-88.0612
 11
-10.6841
 21
-88.0316
  0
LINE
  8
0
 10
-10.6841
 20
-88.0316
 11
-10.7608
 21
-88.0056
  0
LINE
  8
0
 10
-10.7608
 20
-88.0056
 11
-10.8399
 21
-87.983
  0
LINE
  8
0
 10
-10.8399
 20
-87.983
 11
-10.9214
 21
-87.9639
  0
LINE
  8
0
 10
-10.9214
 20
-87.9639
 11
-11.0054
 21
-87.9482
  0
LINE
  8
0
 10
-11.0054
 20
-87.9482
 11
-11.0918
 21
-87.9361
  0
LINE
  8
0
 10
-11.0918
 20
-87.9361
 11
-11.1806
 21
-87.9274
  0
LINE
  8
0
 10
-11.1806
 20
-87.9274
 11
-11.2719
 21
-87.9221
  0
LINE
  8
0
 10
-11.2719
 20
-87.9221
 11
-11.3657
 21
-87.9204
  0
LINE
  8
0
 10
-11.3657
 20
-87.9204
 11
-11.4149
 21
-87.9209
  0
LINE
  8
0
 10
-11.4149
 20
-87.9209
 11
-11.4638
 21
-87.9224
  0
LINE
  8
0
 10
-11.4638
 20
-87.9224
 11
-11.5123
 21
-87.9248
  0
LINE
  8
0
 10
-11.5123
 20
-87.9248
 11
-11.5603
 21
-87.9282
  0
LINE
  8
0
 10
-11.5603
 20
-87.9282
 11
-11.6079
 21
-87.9326
  0
LINE
  8
0
 10
-11.6079
 20
-87.9326
 11
-11.655
 21
-87.938
  0
LINE
  8
0
 10
-11.655
 20
-87.938
 11
-11.7018
 21
-87.9443
  0
LINE
  8
0
 10
-11.7018
 20
-87.9443
 11
-11.7481
 21
-87.9516
  0
LINE
  8
0
 10
-11.7481
 20
-87.9516
 11
-11.794
 21
-87.9599
  0
LINE
  8
0
 10
-11.794
 20
-87.9599
 11
-11.8395
 21
-87.9692
  0
LINE
  8
0
 10
-11.8395
 20
-87.9692
 11
-11.8846
 21
-87.9794
  0
LINE
  8
0
 10
-11.8846
 20
-87.9794
 11
-11.9292
 21
-87.9906
  0
LINE
  8
0
 10
-11.9292
 20
-87.9906
 11
-11.9734
 21
-88.0028
  0
LINE
  8
0
 10
-11.9734
 20
-88.0028
 11
-12.0172
 21
-88.016
  0
LINE
  8
0
 10
-12.0172
 20
-88.016
 11
-12.0605
 21
-88.0301
  0
LINE
  8
0
 10
-12.0605
 20
-88.0301
 11
-12.1035
 21
-88.0452
  0
LINE
  8
0
 10
-12.1035
 20
-88.0452
 11
-12.1462
 21
-88.0615
  0
LINE
  8
0
 10
-12.1462
 20
-88.0615
 11
-12.1889
 21
-88.0791
  0
LINE
  8
0
 10
-12.1889
 20
-88.0791
 11
-12.2317
 21
-88.0981
  0
LINE
  8
0
 10
-12.2317
 20
-88.0981
 11
-12.2744
 21
-88.1184
  0
LINE
  8
0
 10
-12.2744
 20
-88.1184
 11
-12.3171
 21
-88.1401
  0
LINE
  8
0
 10
-12.3171
 20
-88.1401
 11
-12.3598
 21
-88.1632
  0
LINE
  8
0
 10
-12.3598
 20
-88.1632
 11
-12.4025
 21
-88.1876
  0
LINE
  8
0
 10
-12.4025
 20
-88.1876
 11
-12.4453
 21
-88.2133
  0
LINE
  8
0
 10
-12.4453
 20
-88.2133
 11
-12.488
 21
-88.2405
  0
LINE
  8
0
 10
-12.488
 20
-88.2405
 11
-12.5307
 21
-88.269
  0
LINE
  8
0
 10
-12.5307
 20
-88.269
 11
-12.5734
 21
-88.2988
  0
LINE
  8
0
 10
-12.5734
 20
-88.2988
 11
-12.6161
 21
-88.33
  0
LINE
  8
0
 10
-12.6161
 20
-88.33
 11
-12.6589
 21
-88.3625
  0
LINE
  8
0
 10
-12.6589
 20
-88.3625
 11
-12.7016
 21
-88.3964
  0
LINE
  8
0
 10
-12.7016
 20
-88.3964
 11
-12.7443
 21
-88.4317
  0
LINE
  8
0
 10
-12.7443
 20
-88.4317
 11
-12.787
 21
-88.4683
  0
LINE
  8
0
 10
-12.787
 20
-88.4683
 11
-13.7418
 21
-88.4683
  0
LINE
  8
0
 10
-13.7418
 20
-88.4683
 11
-13.4869
 21
-84.3562
  0
LINE
  8
0
 10
-13.4869
 20
-84.3562
 11
-9.14142
 21
-84.3562
  0
LINE
  8
0
 10
-9.14142
 20
-84.3562
 11
-9.14142
 21
-85.1862
  0
LINE
  8
0
 10
-9.14142
 20
-85.1862
 11
-12.5972
 21
-85.1862
  0
LINE
  8
0
 10
-12.5972
 20
-85.1862
 11
-12.7437
 21
-87.6112
  0
LINE
  8
0
 10
-12.7437
 20
-87.6112
 11
-12.6631
 21
-87.5521
  0
LINE
  8
0
 10
-12.6631
 20
-87.5521
 11
-12.5801
 21
-87.4968
  0
LINE
  8
0
 10
-12.5801
 20
-87.4968
 11
-12.4947
 21
-87.4453
  0
LINE
  8
0
 10
-12.4947
 20
-87.4453
 11
-12.4069
 21
-87.3976
  0
LINE
  8
0
 10
-12.4069
 20
-87.3976
 11
-12.3167
 21
-87.3537
  0
LINE
  8
0
 10
-12.3167
 20
-87.3537
 11
-12.2241
 21
-87.3137
  0
LINE
  8
0
 10
-12.2241
 20
-87.3137
 11
-12.129
 21
-87.2775
  0
LINE
  8
0
 10
-12.129
 20
-87.2775
 11
-12.0316
 21
-87.245
  0
LINE
  8
0
 10
-12.0316
 20
-87.245
 11
-11.9317
 21
-87.2164
  0
LINE
  8
0
 10
-11.9317
 20
-87.2164
 11
-11.8294
 21
-87.1916
  0
LINE
  8
0
 10
-11.8294
 20
-87.1916
 11
-11.7247
 21
-87.1707
  0
LINE
  8
0
 10
-11.7247
 20
-87.1707
 11
-11.6176
 21
-87.1535
  0
LINE
  8
0
 10
-11.6176
 20
-87.1535
 11
-11.508
 21
-87.1401
  0
LINE
  8
0
 10
-11.508
 20
-87.1401
 11
-11.3961
 21
-87.1306
  0
LINE
  8
0
 10
-11.3961
 20
-87.1306
 11
-11.2817
 21
-87.1249
  0
LINE
  8
0
 10
-11.2817
 20
-87.1249
 11
-11.1649
 21
-87.123
  0
LINE
  8
0
 10
-11.1649
 20
-87.123
 11
-11.0257
 21
-87.1255
  0
LINE
  8
0
 10
-11.0257
 20
-87.1255
 11
-10.89
 21
-87.1333
  0
LINE
  8
0
 10
-10.89
 20
-87.1333
 11
-10.7579
 21
-87.1462
  0
LINE
  8
0
 10
-10.7579
 20
-87.1462
 11
-10.6294
 21
-87.1643
  0
LINE
  8
0
 10
-10.6294
 20
-87.1643
 11
-10.5045
 21
-87.1876
  0
LINE
  8
0
 10
-10.5045
 20
-87.1876
 11
-10.3831
 21
-87.216
  0
LINE
  8
0
 10
-10.3831
 20
-87.216
 11
-10.2653
 21
-87.2496
  0
LINE
  8
0
 10
-10.2653
 20
-87.2496
 11
-10.1511
 21
-87.2884
  0
LINE
  8
0
 10
-10.1511
 20
-87.2884
 11
-10.0405
 21
-87.3324
  0
LINE
  8
0
 10
-10.0405
 20
-87.3324
 11
-9.9335
 21
-87.3815
  0
LINE
  8
0
 10
-9.9335
 20
-87.3815
 11
-9.83005
 21
-87.4358
  0
LINE
  8
0
 10
-9.83005
 20
-87.4358
 11
-9.73018
 21
-87.4953
  0
LINE
  8
0
 10
-9.73018
 20
-87.4953
 11
-9.6339
 21
-87.5599
  0
LINE
  8
0
 10
-9.6339
 20
-87.5599
 11
-9.5412
 21
-87.6297
  0
LINE
  8
0
 10
-9.5412
 20
-87.6297
 11
-9.45207
 21
-87.7047
  0
LINE
  8
0
 10
-9.45207
 20
-87.7047
 11
-9.36653
 21
-87.7848
  0
LINE
  8
0
 10
-9.36653
 20
-87.7848
 11
-9.2854
 21
-87.8691
  0
LINE
  8
0
 10
-9.2854
 20
-87.8691
 11
-9.2095
 21
-87.9565
  0
LINE
  8
0
 10
-9.2095
 20
-87.9565
 11
-9.13884
 21
-88.0471
  0
LINE
  8
0
 10
-9.13884
 20
-88.0471
 11
-9.07341
 21
-88.1408
  0
LINE
  8
0
 10
-9.07341
 20
-88.1408
 11
-9.01321
 21
-88.2377
  0
LINE
  8
0
 10
-9.01321
 20
-88.2377
 11
-8.95825
 21
-88.3376
  0
LINE
  8
0
 10
-8.95825
 20
-88.3376
 11
-8.90852
 21
-88.4408
  0
LINE
  8
0
 10
-8.90852
 20
-88.4408
 11
-8.86403
 21
-88.547
  0
LINE
  8
0
 10
-8.86403
 20
-88.547
 11
-8.82478
 21
-88.6564
  0
LINE
  8
0
 10
-8.82478
 20
-88.6564
 11
-8.79076
 21
-88.7689
  0
LINE
  8
0
 10
-8.79076
 20
-88.7689
 11
-8.76196
 21
-88.8846
  0
LINE
  8
0
 10
-8.76196
 20
-88.8846
 11
-8.7384
 21
-89.0034
  0
LINE
  8
0
 10
-8.7384
 20
-89.0034
 11
-8.72009
 21
-89.1253
  0
LINE
  8
0
 10
-8.72009
 20
-89.1253
 11
-8.707
 21
-89.2504
  0
LINE
  8
0
 10
-8.707
 20
-89.2504
 11
-8.69916
 21
-89.3786
  0
LINE
  8
0
 10
-8.69916
 20
-89.3786
 11
-8.69653
 21
-89.5099
  0
LINE
  8
0
 10
-8.69653
 20
-89.5099
 11
-8.69934
 21
-89.6591
  0
LINE
  8
0
 10
-8.69934
 20
-89.6591
 11
-8.70776
 21
-89.8043
  0
LINE
  8
0
 10
-8.70776
 20
-89.8043
 11
-8.7218
 21
-89.9455
  0
LINE
  8
0
 10
-8.7218
 20
-89.9455
 11
-8.74147
 21
-90.0826
  0
LINE
  8
0
 10
-8.74147
 20
-90.0826
 11
-8.76674
 21
-90.2157
  0
LINE
  8
0
 10
-8.76674
 20
-90.2157
 11
-8.79762
 21
-90.3448
  0
LINE
  8
0
 10
-8.79762
 20
-90.3448
 11
-8.83414
 21
-90.4698
  0
LINE
  8
0
 10
-8.83414
 20
-90.4698
 11
-8.87625
 21
-90.5909
  0
LINE
  8
0
 10
-8.87625
 20
-90.5909
 11
-8.924
 21
-90.7078
  0
LINE
  8
0
 10
-8.924
 20
-90.7078
 11
-8.97734
 21
-90.8208
  0
LINE
  8
0
 10
-8.97734
 20
-90.8208
 11
-9.03632
 21
-90.9298
  0
LINE
  8
0
 10
-9.03632
 20
-90.9298
 11
-9.10091
 21
-91.0347
  0
LINE
  8
0
 10
-9.10091
 20
-91.0347
 11
-9.17111
 21
-91.1356
  0
LINE
  8
0
 10
-9.17111
 20
-91.1356
 11
-9.24693
 21
-91.2324
  0
LINE
  8
0
 10
-9.24693
 20
-91.2324
 11
-9.32837
 21
-91.3253
  0
LINE
  8
0
 10
-9.32837
 20
-91.3253
 11
-9.41542
 21
-91.4141
  0
LINE
  8
0
 10
-9.41542
 20
-91.4141
 11
-9.50743
 21
-91.4982
  0
LINE
  8
0
 10
-9.50743
 20
-91.4982
 11
-9.60381
 21
-91.5768
  0
LINE
  8
0
 10
-9.60381
 20
-91.5768
 11
-9.70451
 21
-91.6501
  0
LINE
  8
0
 10
-9.70451
 20
-91.6501
 11
-9.80957
 21
-91.7179
  0
LINE
  8
0
 10
-9.80957
 20
-91.7179
 11
-9.91898
 21
-91.7803
  0
LINE
  8
0
 10
-9.91898
 20
-91.7803
 11
-10.0327
 21
-91.8372
  0
LINE
  8
0
 10
-10.0327
 20
-91.8372
 11
-10.1508
 21
-91.8888
  0
LINE
  8
0
 10
-10.1508
 20
-91.8888
 11
-10.2732
 21
-91.9349
  0
LINE
  8
0
 10
-10.2732
 20
-91.9349
 11
-10.4
 21
-91.9756
  0
LINE
  8
0
 10
-10.4
 20
-91.9756
 11
-10.5311
 21
-92.0108
  0
LINE
  8
0
 10
-10.5311
 20
-92.0108
 11
-10.6666
 21
-92.0407
  0
LINE
  8
0
 10
-10.6666
 20
-92.0407
 11
-10.8064
 21
-92.0651
  0
LINE
  8
0
 10
-10.8064
 20
-92.0651
 11
-10.9506
 21
-92.0841
  0
LINE
  8
0
 10
-10.9506
 20
-92.0841
 11
-11.0991
 21
-92.0976
  0
LINE
  8
0
 10
-11.0991
 20
-92.0976
 11
-11.2519
 21
-92.1058
  0
LINE
  8
0
 10
-11.2519
 20
-92.1058
 11
-11.4091
 21
-92.1085
  0
LINE
  8
0
 10
-11.4091
 20
-92.1085
 11
-11.5411
 21
-92.1066
  0
LINE
  8
0
 10
-11.3456
 20
-112.105
 11
-11.4999
 21
-112.093
  0
LINE
  8
0
 10
-11.4999
 20
-112.093
 11
-11.6494
 21
-112.075
  0
LINE
  8
0
 10
-11.6494
 20
-112.075
 11
-11.7942
 21
-112.048
  0
LINE
  8
0
 10
-11.7942
 20
-112.048
 11
-11.9343
 21
-112.015
  0
LINE
  8
0
 10
-11.9343
 20
-112.015
 11
-12.0696
 21
-111.973
  0
LINE
  8
0
 10
-12.0696
 20
-111.973
 11
-12.2001
 21
-111.925
  0
LINE
  8
0
 10
-12.2001
 20
-111.925
 11
-12.3259
 21
-111.868
  0
LINE
  8
0
 10
-12.3259
 20
-111.868
 11
-12.4469
 21
-111.805
  0
LINE
  8
0
 10
-12.4469
 20
-111.805
 11
-12.5632
 21
-111.733
  0
LINE
  8
0
 10
-12.5632
 20
-111.733
 11
-12.6748
 21
-111.655
  0
LINE
  8
0
 10
-12.6748
 20
-111.655
 11
-12.7816
 21
-111.568
  0
LINE
  8
0
 10
-12.7816
 20
-111.568
 11
-12.8837
 21
-111.475
  0
LINE
  8
0
 10
-12.8837
 20
-111.475
 11
-12.981
 21
-111.373
  0
LINE
  8
0
 10
-12.981
 20
-111.373
 11
-13.0735
 21
-111.265
  0
LINE
  8
0
 10
-13.0735
 20
-111.265
 11
-13.1613
 21
-111.148
  0
LINE
  8
0
 10
-13.1613
 20
-111.148
 11
-13.2441
 21
-111.025
  0
LINE
  8
0
 10
-13.2441
 20
-111.025
 11
-13.3215
 21
-110.895
  0
LINE
  8
0
 10
-13.3215
 20
-110.895
 11
-13.3936
 21
-110.758
  0
LINE
  8
0
 10
-13.3936
 20
-110.758
 11
-13.4604
 21
-110.614
  0
LINE
  8
0
 10
-13.4604
 20
-110.614
 11
-13.5218
 21
-110.463
  0
LINE
  8
0
 10
-13.5218
 20
-110.463
 11
-13.5779
 21
-110.305
  0
LINE
  8
0
 10
-13.5779
 20
-110.305
 11
-13.6286
 21
-110.141
  0
LINE
  8
0
 10
-13.6286
 20
-110.141
 11
-13.674
 21
-109.97
  0
LINE
  8
0
 10
-13.674
 20
-109.97
 11
-13.714
 21
-109.792
  0
LINE
  8
0
 10
-13.714
 20
-109.792
 11
-13.7487
 21
-109.607
  0
LINE
  8
0
 10
-13.7487
 20
-109.607
 11
-13.7781
 21
-109.415
  0
LINE
  8
0
 10
-13.7781
 20
-109.415
 11
-13.8021
 21
-109.217
  0
LINE
  8
0
 10
-13.8021
 20
-109.217
 11
-13.8208
 21
-109.011
  0
LINE
  8
0
 10
-13.8208
 20
-109.011
 11
-13.8342
 21
-108.799
  0
LINE
  8
0
 10
-13.8342
 20
-108.799
 11
-13.8422
 21
-108.58
  0
LINE
  8
0
 10
-13.8422
 20
-108.58
 11
-13.8448
 21
-108.354
  0
LINE
  8
0
 10
-13.8448
 20
-108.354
 11
-13.8421
 21
-108.11
  0
LINE
  8
0
 10
-13.8421
 20
-108.11
 11
-13.8338
 21
-107.872
  0
LINE
  8
0
 10
-13.8338
 20
-107.872
 11
-13.8199
 21
-107.642
  0
LINE
  8
0
 10
-13.8199
 20
-107.642
 11
-13.8004
 21
-107.419
  0
LINE
  8
0
 10
-13.8004
 20
-107.419
 11
-13.7755
 21
-107.204
  0
LINE
  8
0
 10
-13.7755
 20
-107.204
 11
-13.7449
 21
-106.995
  0
LINE
  8
0
 10
-13.7449
 20
-106.995
 11
-13.7088
 21
-106.794
  0
LINE
  8
0
 10
-13.7088
 20
-106.794
 11
-13.6672
 21
-106.599
  0
LINE
  8
0
 10
-13.6672
 20
-106.599
 11
-13.62
 21
-106.413
  0
LINE
  8
0
 10
-13.62
 20
-106.413
 11
-13.5673
 21
-106.233
  0
LINE
  8
0
 10
-13.5673
 20
-106.233
 11
-13.509
 21
-106.06
  0
LINE
  8
0
 10
-13.509
 20
-106.06
 11
-13.4451
 21
-105.895
  0
LINE
  8
0
 10
-13.4451
 20
-105.895
 11
-13.3757
 21
-105.737
  0
LINE
  8
0
 10
-13.3757
 20
-105.737
 11
-13.3008
 21
-105.586
  0
LINE
  8
0
 10
-13.3008
 20
-105.586
 11
-13.2203
 21
-105.442
  0
LINE
  8
0
 10
-13.2203
 20
-105.442
 11
-13.1342
 21
-105.306
  0
LINE
  8
0
 10
-13.1342
 20
-105.306
 11
-13.043
 21
-105.177
  0
LINE
  8
0
 10
-13.043
 20
-105.177
 11
-12.9471
 21
-105.056
  0
LINE
  8
0
 10
-12.9471
 20
-105.056
 11
-12.8466
 21
-104.944
  0
LINE
  8
0
 10
-12.8466
 20
-104.944
 11
-12.7413
 21
-104.84
  0
LINE
  8
0
 10
-12.7413
 20
-104.84
 11
-12.6313
 21
-104.745
  0
LINE
  8
0
 10
-12.6313
 20
-104.745
 11
-12.5165
 21
-104.658
  0
LINE
  8
0
 10
-12.5165
 20
-104.658
 11
-12.3971
 21
-104.579
  0
LINE
  8
0
 10
-12.3971
 20
-104.579
 11
-12.273
 21
-104.508
  0
LINE
  8
0
 10
-12.273
 20
-104.508
 11
-12.1442
 21
-104.446
  0
LINE
  8
0
 10
-12.1442
 20
-104.446
 11
-12.0107
 21
-104.392
  0
LINE
  8
0
 10
-12.0107
 20
-104.392
 11
-11.8724
 21
-104.346
  0
LINE
  8
0
 10
-11.8724
 20
-104.346
 11
-11.7295
 21
-104.309
  0
LINE
  8
0
 10
-11.7295
 20
-104.309
 11
-11.5818
 21
-104.28
  0
LINE
  8
0
 10
-11.5818
 20
-104.28
 11
-11.4295
 21
-104.259
  0
LINE
  8
0
 10
-11.4295
 20
-104.259
 11
-11.2724
 21
-104.246
  0
LINE
  8
0
 10
-11.2724
 20
-104.246
 11
-11.1107
 21
-104.242
  0
LINE
  8
0
 10
-11.1107
 20
-104.242
 11
-10.8994
 21
-104.248
  0
LINE
  8
0
 10
-10.8994
 20
-104.248
 11
-10.6981
 21
-104.267
  0
LINE
  8
0
 10
-10.6981
 20
-104.267
 11
-10.5067
 21
-104.297
  0
LINE
  8
0
 10
-10.5067
 20
-104.297
 11
-10.3254
 21
-104.34
  0
LINE
  8
0
 10
-10.3254
 20
-104.34
 11
-10.1541
 21
-104.394
  0
LINE
  8
0
 10
-10.1541
 20
-104.394
 11
-9.99281
 21
-104.461
  0
LINE
  8
0
 10
-9.99281
 20
-104.461
 11
-9.84151
 21
-104.54
  0
LINE
  8
0
 10
-9.84151
 20
-104.54
 11
-9.7002
 21
-104.631
  0
LINE
  8
0
 10
-9.7002
 20
-104.631
 11
-9.56889
 21
-104.735
  0
LINE
  8
0
 10
-9.56889
 20
-104.735
 11
-9.44759
 21
-104.85
  0
LINE
  8
0
 10
-9.44759
 20
-104.85
 11
-9.33629
 21
-104.978
  0
LINE
  8
0
 10
-9.33629
 20
-104.978
 11
-9.23499
 21
-105.118
  0
LINE
  8
0
 10
-9.23499
 20
-105.118
 11
-9.14369
 21
-105.27
  0
LINE
  8
0
 10
-9.14369
 20
-105.27
 11
-9.06239
 21
-105.434
  0
LINE
  8
0
 10
-9.06239
 20
-105.434
 11
-8.9911
 21
-105.611
  0
LINE
  8
0
 10
-8.9911
 20
-105.611
 11
-8.92981
 21
-105.799
  0
LINE
  8
0
 10
-8.92981
 20
-105.799
 11
-9.86293
 21
-105.967
  0
LINE
  8
0
 10
-9.86293
 20
-105.967
 11
-9.90155
 21
-105.854
  0
LINE
  8
0
 10
-9.90155
 20
-105.854
 11
-9.9455
 21
-105.749
  0
LINE
  8
0
 10
-9.9455
 20
-105.749
 11
-9.99478
 21
-105.65
  0
LINE
  8
0
 10
-9.99478
 20
-105.65
 11
-10.0494
 21
-105.559
  0
LINE
  8
0
 10
-10.0494
 20
-105.559
 11
-10.1094
 21
-105.475
  0
LINE
  8
0
 10
-10.1094
 20
-105.475
 11
-10.1747
 21
-105.399
  0
LINE
  8
0
 10
-10.1747
 20
-105.399
 11
-10.2454
 21
-105.33
  0
LINE
  8
0
 10
-10.2454
 20
-105.33
 11
-10.3214
 21
-105.268
  0
LINE
  8
0
 10
-10.3214
 20
-105.268
 11
-10.4027
 21
-105.213
  0
LINE
  8
0
 10
-10.4027
 20
-105.213
 11
-10.4894
 21
-105.166
  0
LINE
  8
0
 10
-10.4894
 20
-105.166
 11
-10.5814
 21
-105.125
  0
LINE
  8
0
 10
-10.5814
 20
-105.125
 11
-10.6787
 21
-105.093
  0
LINE
  8
0
 10
-10.6787
 20
-105.093
 11
-10.7814
 21
-105.067
  0
LINE
  8
0
 10
-10.7814
 20
-105.067
 11
-10.8895
 21
-105.049
  0
LINE
  8
0
 10
-10.8895
 20
-105.049
 11
-11.0029
 21
-105.038
  0
LINE
  8
0
 10
-11.0029
 20
-105.038
 11
-11.1216
 21
-105.034
  0
LINE
  8
0
 10
-11.1216
 20
-105.034
 11
-11.2245
 21
-105.037
  0
LINE
  8
0
 10
-11.2245
 20
-105.037
 11
-11.3245
 21
-105.046
  0
LINE
  8
0
 10
-11.3245
 20
-105.046
 11
-11.4216
 21
-105.062
  0
LINE
  8
0
 10
-11.4216
 20
-105.062
 11
-11.5157
 21
-105.083
  0
LINE
  8
0
 10
-11.5157
 20
-105.083
 11
-11.6069
 21
-105.11
  0
LINE
  8
0
 10
-11.6069
 20
-105.11
 11
-11.6951
 21
-105.144
  0
LINE
  8
0
 10
-11.6951
 20
-105.144
 11
-11.7804
 21
-105.183
  0
LINE
  8
0
 10
-11.7804
 20
-105.183
 11
-11.8628
 21
-105.229
  0
LINE
  8
0
 10
-11.8628
 20
-105.229
 11
-11.9422
 21
-105.281
  0
LINE
  8
0
 10
-11.9422
 20
-105.281
 11
-12.0186
 21
-105.338
  0
LINE
  8
0
 10
-12.0186
 20
-105.338
 11
-12.0921
 21
-105.402
  0
LINE
  8
0
 10
-12.0921
 20
-105.402
 11
-12.1626
 21
-105.472
  0
LINE
  8
0
 10
-12.1626
 20
-105.472
 11
-12.2303
 21
-105.548
  0
LINE
  8
0
 10
-12.2303
 20
-105.548
 11
-12.2949
 21
-105.63
  0
LINE
  8
0
 10
-12.2949
 20
-105.63
 11
-12.3566
 21
-105.719
  0
LINE
  8
0
 10
-12.3566
 20
-105.719
 11
-12.4154
 21
-105.813
  0
LINE
  8
0
 10
-12.4154
 20
-105.813
 11
-12.4709
 21
-105.913
  0
LINE
  8
0
 10
-12.4709
 20
-105.913
 11
-12.5229
 21
-106.018
  0
LINE
  8
0
 10
-12.5229
 20
-106.018
 11
-12.5712
 21
-106.129
  0
LINE
  8
0
 10
-12.5712
 20
-106.129
 11
-12.616
 21
-106.246
  0
LINE
  8
0
 10
-12.616
 20
-106.246
 11
-12.6572
 21
-106.367
  0
LINE
  8
0
 10
-12.6572
 20
-106.367
 11
-12.6947
 21
-106.495
  0
LINE
  8
0
 10
-12.6947
 20
-106.495
 11
-12.7288
 21
-106.627
  0
LINE
  8
0
 10
-12.7288
 20
-106.627
 11
-12.7592
 21
-106.766
  0
LINE
  8
0
 10
-12.7592
 20
-106.766
 11
-12.7861
 21
-106.909
  0
LINE
  8
0
 10
-12.7861
 20
-106.909
 11
-12.8094
 21
-107.058
  0
LINE
  8
0
 10
-12.8094
 20
-107.058
 11
-12.8291
 21
-107.213
  0
LINE
  8
0
 10
-12.8291
 20
-107.213
 11
-12.8452
 21
-107.373
  0
LINE
  8
0
 10
-12.8452
 20
-107.373
 11
-12.8577
 21
-107.538
  0
LINE
  8
0
 10
-12.8577
 20
-107.538
 11
-12.8667
 21
-107.709
  0
LINE
  8
0
 10
-12.8667
 20
-107.709
 11
-12.872
 21
-107.885
  0
LINE
  8
0
 10
-12.872
 20
-107.885
 11
-12.8738
 21
-108.067
  0
LINE
  8
0
 10
-12.8738
 20
-108.067
 11
-12.8397
 21
-108.006
  0
LINE
  8
0
 10
-12.8397
 20
-108.006
 11
-12.804
 21
-107.947
  0
LINE
  8
0
 10
-12.804
 20
-107.947
 11
-12.7665
 21
-107.89
  0
LINE
  8
0
 10
-12.7665
 20
-107.89
 11
-12.7273
 21
-107.835
  0
LINE
  8
0
 10
-12.7273
 20
-107.835
 11
-12.6865
 21
-107.781
  0
LINE
  8
0
 10
-12.6865
 20
-107.781
 11
-12.6439
 21
-107.73
  0
LINE
  8
0
 10
-12.6439
 20
-107.73
 11
-12.5997
 21
-107.68
  0
LINE
  8
0
 10
-12.5997
 20
-107.68
 11
-12.5537
 21
-107.632
  0
LINE
  8
0
 10
-12.5537
 20
-107.632
 11
-12.5061
 21
-107.586
  0
LINE
  8
0
 10
-12.5061
 20
-107.586
 11
-12.4568
 21
-107.542
  0
LINE
  8
0
 10
-12.4568
 20
-107.542
 11
-12.4057
 21
-107.5
  0
LINE
  8
0
 10
-12.4057
 20
-107.5
 11
-12.353
 21
-107.459
  0
LINE
  8
0
 10
-12.353
 20
-107.459
 11
-12.2986
 21
-107.42
  0
LINE
  8
0
 10
-12.2986
 20
-107.42
 11
-12.2425
 21
-107.384
  0
LINE
  8
0
 10
-12.2425
 20
-107.384
 11
-12.1847
 21
-107.349
  0
LINE
  8
0
 10
-12.1847
 20
-107.349
 11
-12.1252
 21
-107.316
  0
LINE
  8
0
 10
-12.1252
 20
-107.316
 11
-12.0643
 21
-107.284
  0
LINE
  8
0
 10
-12.0643
 20
-107.284
 11
-12.0023
 21
-107.255
  0
LINE
  8
0
 10
-12.0023
 20
-107.255
 11
-11.9392
 21
-107.228
  0
LINE
  8
0
 10
-11.9392
 20
-107.228
 11
-11.875
 21
-107.203
  0
LINE
  8
0
 10
-11.875
 20
-107.203
 11
-11.8096
 21
-107.18
  0
LINE
  8
0
 10
-11.8096
 20
-107.18
 11
-11.7432
 21
-107.159
  0
LINE
  8
0
 10
-11.7432
 20
-107.159
 11
-11.6757
 21
-107.139
  0
LINE
  8
0
 10
-11.6757
 20
-107.139
 11
-11.6071
 21
-107.122
  0
LINE
  8
0
 10
-11.6071
 20
-107.122
 11
-11.5374
 21
-107.107
  0
LINE
  8
0
 10
-11.5374
 20
-107.107
 11
-11.4666
 21
-107.094
  0
LINE
  8
0
 10
-11.4666
 20
-107.094
 11
-11.3946
 21
-107.083
  0
LINE
  8
0
 10
-11.3946
 20
-107.083
 11
-11.3216
 21
-107.074
  0
LINE
  8
0
 10
-11.3216
 20
-107.074
 11
-11.2475
 21
-107.067
  0
LINE
  8
0
 10
-11.2475
 20
-107.067
 11
-11.1722
 21
-107.062
  0
LINE
  8
0
 10
-11.1722
 20
-107.062
 11
-11.0959
 21
-107.059
  0
LINE
  8
0
 10
-11.0959
 20
-107.059
 11
-11.0185
 21
-107.058
  0
LINE
  8
0
 10
-11.0185
 20
-107.058
 11
-10.8879
 21
-107.06
  0
LINE
  8
0
 10
-10.8879
 20
-107.06
 11
-10.7608
 21
-107.068
  0
LINE
  8
0
 10
-10.7608
 20
-107.068
 11
-10.6371
 21
-107.081
  0
LINE
  8
0
 10
-10.6371
 20
-107.081
 11
-10.5168
 21
-107.099
  0
LINE
  8
0
 10
-10.5168
 20
-107.099
 11
-10.3999
 21
-107.122
  0
LINE
  8
0
 10
-10.3999
 20
-107.122
 11
-10.2865
 21
-107.151
  0
LINE
  8
0
 10
-10.2865
 20
-107.151
 11
-10.1764
 21
-107.185
  0
LINE
  8
0
 10
-10.1764
 20
-107.185
 11
-10.0698
 21
-107.223
  0
LINE
  8
0
 10
-10.0698
 20
-107.223
 11
-9.96657
 21
-107.267
  0
LINE
  8
0
 10
-9.96657
 20
-107.267
 11
-9.86674
 21
-107.316
  0
LINE
  8
0
 10
-9.86674
 20
-107.316
 11
-9.77034
 21
-107.371
  0
LINE
  8
0
 10
-9.77034
 20
-107.371
 11
-9.67735
 21
-107.43
  0
LINE
  8
0
 10
-9.67735
 20
-107.43
 11
-9.58777
 21
-107.495
  0
LINE
  8
0
 10
-9.58777
 20
-107.495
 11
-9.5016
 21
-107.565
  0
LINE
  8
0
 10
-9.5016
 20
-107.565
 11
-9.41884
 21
-107.64
  0
LINE
  8
0
 10
-9.41884
 20
-107.64
 11
-9.33949
 21
-107.72
  0
LINE
  8
0
 10
-9.33949
 20
-107.72
 11
-9.26427
 21
-107.804
  0
LINE
  8
0
 10
-9.26427
 20
-107.804
 11
-9.19391
 21
-107.892
  0
LINE
  8
0
 10
-9.19391
 20
-107.892
 11
-9.12839
 21
-107.984
  0
LINE
  8
0
 10
-9.12839
 20
-107.984
 11
-9.06772
 21
-108.079
  0
LINE
  8
0
 10
-9.06772
 20
-108.079
 11
-9.01192
 21
-108.178
  0
LINE
  8
0
 10
-9.01192
 20
-108.178
 11
-8.96095
 21
-108.28
  0
LINE
  8
0
 10
-8.96095
 20
-108.28
 11
-8.91484
 21
-108.386
  0
LINE
  8
0
 10
-8.91484
 20
-108.386
 11
-8.8736
 21
-108.495
  0
LINE
  8
0
 10
-8.8736
 20
-108.495
 11
-8.8372
 21
-108.608
  0
LINE
  8
0
 10
-8.8372
 20
-108.608
 11
-8.80565
 21
-108.725
  0
LINE
  8
0
 10
-8.80565
 20
-108.725
 11
-8.77896
 21
-108.845
  0
LINE
  8
0
 10
-8.77896
 20
-108.845
 11
-8.75713
 21
-108.969
  0
LINE
  8
0
 10
-8.75713
 20
-108.969
 11
-8.74013
 21
-109.096
  0
LINE
  8
0
 10
-8.74013
 20
-109.096
 11
-8.728
 21
-109.227
  0
LINE
  8
0
 10
-8.728
 20
-109.227
 11
-8.72072
 21
-109.361
  0
LINE
  8
0
 10
-8.72072
 20
-109.361
 11
-8.71829
 21
-109.499
  0
LINE
  8
0
 10
-8.71829
 20
-109.499
 11
-8.72086
 21
-109.648
  0
LINE
  8
0
 10
-8.72086
 20
-109.648
 11
-8.72855
 21
-109.794
  0
LINE
  8
0
 10
-8.72855
 20
-109.794
 11
-8.74138
 21
-109.935
  0
LINE
  8
0
 10
-8.74138
 20
-109.935
 11
-8.75932
 21
-110.072
  0
LINE
  8
0
 10
-8.75932
 20
-110.072
 11
-8.78239
 21
-110.205
  0
LINE
  8
0
 10
-8.78239
 20
-110.205
 11
-8.81061
 21
-110.335
  0
LINE
  8
0
 10
-8.81061
 20
-110.335
 11
-8.84393
 21
-110.46
  0
LINE
  8
0
 10
-8.84393
 20
-110.46
 11
-8.8824
 21
-110.581
  0
LINE
  8
0
 10
-8.8824
 20
-110.581
 11
-8.92598
 21
-110.699
  0
LINE
  8
0
 10
-8.92598
 20
-110.699
 11
-8.9747
 21
-110.812
  0
LINE
  8
0
 10
-8.9747
 20
-110.812
 11
-9.02855
 21
-110.922
  0
LINE
  8
0
 10
-9.02855
 20
-110.922
 11
-9.08752
 21
-111.027
  0
LINE
  8
0
 10
-9.08752
 20
-111.027
 11
-9.15163
 21
-111.128
  0
LINE
  8
0
 10
-9.15163
 20
-111.128
 11
-9.22086
 21
-111.226
  0
LINE
  8
0
 10
-9.22086
 20
-111.226
 11
-9.29521
 21
-111.319
  0
LINE
  8
0
 10
-9.29521
 20
-111.319
 11
-9.37469
 21
-111.409
  0
LINE
  8
0
 10
-9.37469
 20
-111.409
 11
-9.45869
 21
-111.493
  0
LINE
  8
0
 10
-9.45869
 20
-111.493
 11
-9.5466
 21
-111.573
  0
LINE
  8
0
 10
-9.5466
 20
-111.573
 11
-9.6384
 21
-111.647
  0
LINE
  8
0
 10
-9.6384
 20
-111.647
 11
-9.73409
 21
-111.715
  0
LINE
  8
0
 10
-9.73409
 20
-111.715
 11
-9.83369
 21
-111.778
  0
LINE
  8
0
 10
-9.83369
 20
-111.778
 11
-9.93718
 21
-111.835
  0
LINE
  8
0
 10
-9.93718
 20
-111.835
 11
-10.0446
 21
-111.887
  0
LINE
  8
0
 10
-10.0446
 20
-111.887
 11
-10.1559
 21
-111.934
  0
LINE
  8
0
 10
-10.1559
 20
-111.934
 11
-10.2711
 21
-111.975
  0
LINE
  8
0
 10
-10.2711
 20
-111.975
 11
-10.3902
 21
-112.01
  0
LINE
  8
0
 10
-10.3902
 20
-112.01
 11
-10.5132
 21
-112.04
  0
LINE
  8
0
 10
-10.5132
 20
-112.04
 11
-10.64
 21
-112.065
  0
LINE
  8
0
 10
-10.64
 20
-112.065
 11
-10.7708
 21
-112.084
  0
LINE
  8
0
 10
-10.7708
 20
-112.084
 11
-10.9055
 21
-112.098
  0
LINE
  8
0
 10
-10.9055
 20
-112.098
 11
-11.0441
 21
-112.106
  0
LINE
  8
0
 10
-11.0441
 20
-112.106
 11
-11.1866
 21
-112.108
  0
LINE
  8
0
 10
-11.1866
 20
-112.108
 11
-11.3456
 21
-112.105
  0
LINE
  8
0
 10
-11.1322
 20
-111.32
 11
-11.0476
 21
-111.314
  0
LINE
  8
0
 10
-11.0476
 20
-111.314
 11
-10.9654
 21
-111.305
  0
LINE
  8
0
 10
-10.9654
 20
-111.305
 11
-10.8856
 21
-111.292
  0
LINE
  8
0
 10
-10.8856
 20
-111.292
 11
-10.8081
 21
-111.275
  0
LINE
  8
0
 10
-10.8081
 20
-111.275
 11
-10.733
 21
-111.255
  0
LINE
  8
0
 10
-10.733
 20
-111.255
 11
-10.6603
 21
-111.231
  0
LINE
  8
0
 10
-10.6603
 20
-111.231
 11
-10.5899
 21
-111.203
  0
LINE
  8
0
 10
-10.5899
 20
-111.203
 11
-10.5219
 21
-111.172
  0
LINE
  8
0
 10
-10.5219
 20
-111.172
 11
-10.4563
 21
-111.136
  0
LINE
  8
0
 10
-10.4563
 20
-111.136
 11
-10.3931
 21
-111.098
  0
LINE
  8
0
 10
-10.3931
 20
-111.098
 11
-10.3322
 21
-111.055
  0
LINE
  8
0
 10
-10.3322
 20
-111.055
 11
-10.2738
 21
-111.009
  0
LINE
  8
0
 10
-10.2738
 20
-111.009
 11
-10.2176
 21
-110.958
  0
LINE
  8
0
 10
-10.2176
 20
-110.958
 11
-10.1639
 21
-110.905
  0
LINE
  8
0
 10
-10.1639
 20
-110.905
 11
-10.1125
 21
-110.847
  0
LINE
  8
0
 10
-10.1125
 20
-110.847
 11
-10.0639
 21
-110.786
  0
LINE
  8
0
 10
-10.0639
 20
-110.786
 11
-10.0184
 21
-110.723
  0
LINE
  8
0
 10
-10.0184
 20
-110.723
 11
-9.97607
 21
-110.657
  0
LINE
  8
0
 10
-9.97607
 20
-110.657
 11
-9.93687
 21
-110.588
  0
LINE
  8
0
 10
-9.93687
 20
-110.588
 11
-9.9008
 21
-110.516
  0
LINE
  8
0
 10
-9.9008
 20
-110.516
 11
-9.86786
 21
-110.441
  0
LINE
  8
0
 10
-9.86786
 20
-110.441
 11
-9.83806
 21
-110.364
  0
LINE
  8
0
 10
-9.83806
 20
-110.364
 11
-9.8114
 21
-110.284
  0
LINE
  8
0
 10
-9.8114
 20
-110.284
 11
-9.78787
 21
-110.201
  0
LINE
  8
0
 10
-9.78787
 20
-110.201
 11
-9.76749
 21
-110.115
  0
LINE
  8
0
 10
-9.76749
 20
-110.115
 11
-9.75023
 21
-110.027
  0
LINE
  8
0
 10
-9.75023
 20
-110.027
 11
-9.73611
 21
-109.935
  0
LINE
  8
0
 10
-9.73611
 20
-109.935
 11
-9.72513
 21
-109.841
  0
LINE
  8
0
 10
-9.72513
 20
-109.841
 11
-9.71729
 21
-109.744
  0
LINE
  8
0
 10
-9.71729
 20
-109.744
 11
-9.71259
 21
-109.645
  0
LINE
  8
0
 10
-9.71259
 20
-109.645
 11
-9.71101
 21
-109.542
  0
LINE
  8
0
 10
-9.71101
 20
-109.542
 11
-9.7126
 21
-109.44
  0
LINE
  8
0
 10
-9.7126
 20
-109.44
 11
-9.71738
 21
-109.341
  0
LINE
  8
0
 10
-9.71738
 20
-109.341
 11
-9.72533
 21
-109.245
  0
LINE
  8
0
 10
-9.72533
 20
-109.245
 11
-9.73645
 21
-109.151
  0
LINE
  8
0
 10
-9.73645
 20
-109.151
 11
-9.75075
 21
-109.061
  0
LINE
  8
0
 10
-9.75075
 20
-109.061
 11
-9.76823
 21
-108.973
  0
LINE
  8
0
 10
-9.76823
 20
-108.973
 11
-9.78889
 21
-108.889
  0
LINE
  8
0
 10
-9.78889
 20
-108.889
 11
-9.81273
 21
-108.807
  0
LINE
  8
0
 10
-9.81273
 20
-108.807
 11
-9.83975
 21
-108.729
  0
LINE
  8
0
 10
-9.83975
 20
-108.729
 11
-9.86995
 21
-108.653
  0
LINE
  8
0
 10
-9.86995
 20
-108.653
 11
-9.90334
 21
-108.581
  0
LINE
  8
0
 10
-9.90334
 20
-108.581
 11
-9.93988
 21
-108.511
  0
LINE
  8
0
 10
-9.93988
 20
-108.511
 11
-9.97961
 21
-108.444
  0
LINE
  8
0
 10
-9.97961
 20
-108.444
 11
-10.0225
 21
-108.381
  0
LINE
  8
0
 10
-10.0225
 20
-108.381
 11
-10.0686
 21
-108.32
  0
LINE
  8
0
 10
-10.0686
 20
-108.32
 11
-10.1179
 21
-108.262
  0
LINE
  8
0
 10
-10.1179
 20
-108.262
 11
-10.17
 21
-108.208
  0
LINE
  8
0
 10
-10.17
 20
-108.208
 11
-10.2246
 21
-108.157
  0
LINE
  8
0
 10
-10.2246
 20
-108.157
 11
-10.2817
 21
-108.109
  0
LINE
  8
0
 10
-10.2817
 20
-108.109
 11
-10.3413
 21
-108.065
  0
LINE
  8
0
 10
-10.3413
 20
-108.065
 11
-10.4035
 21
-108.025
  0
LINE
  8
0
 10
-10.4035
 20
-108.025
 11
-10.4681
 21
-107.988
  0
LINE
  8
0
 10
-10.4681
 20
-107.988
 11
-10.5352
 21
-107.954
  0
LINE
  8
0
 10
-10.5352
 20
-107.954
 11
-10.6048
 21
-107.925
  0
LINE
  8
0
 10
-10.6048
 20
-107.925
 11
-10.6769
 21
-107.898
  0
LINE
  8
0
 10
-10.6769
 20
-107.898
 11
-10.7515
 21
-107.875
  0
LINE
  8
0
 10
-10.7515
 20
-107.875
 11
-10.8286
 21
-107.856
  0
LINE
  8
0
 10
-10.8286
 20
-107.856
 11
-10.9083
 21
-107.84
  0
LINE
  8
0
 10
-10.9083
 20
-107.84
 11
-10.9904
 21
-107.828
  0
LINE
  8
0
 10
-10.9904
 20
-107.828
 11
-11.075
 21
-107.819
  0
LINE
  8
0
 10
-11.075
 20
-107.819
 11
-11.1621
 21
-107.814
  0
LINE
  8
0
 10
-11.1621
 20
-107.814
 11
-11.2517
 21
-107.812
  0
LINE
  8
0
 10
-11.2517
 20
-107.812
 11
-11.3362
 21
-107.813
  0
LINE
  8
0
 10
-11.3362
 20
-107.813
 11
-11.4185
 21
-107.818
  0
LINE
  8
0
 10
-11.4185
 20
-107.818
 11
-11.4988
 21
-107.826
  0
LINE
  8
0
 10
-11.4988
 20
-107.826
 11
-11.5771
 21
-107.837
  0
LINE
  8
0
 10
-11.5771
 20
-107.837
 11
-11.6532
 21
-107.851
  0
LINE
  8
0
 10
-11.6532
 20
-107.851
 11
-11.7274
 21
-107.868
  0
LINE
  8
0
 10
-11.7274
 20
-107.868
 11
-11.7995
 21
-107.888
  0
LINE
  8
0
 10
-11.7995
 20
-107.888
 11
-11.8695
 21
-107.912
  0
LINE
  8
0
 10
-11.8695
 20
-107.912
 11
-11.9375
 21
-107.938
  0
LINE
  8
0
 10
-11.9375
 20
-107.938
 11
-12.0034
 21
-107.968
  0
LINE
  8
0
 10
-12.0034
 20
-107.968
 11
-12.0672
 21
-108
  0
LINE
  8
0
 10
-12.0672
 20
-108
 11
-12.1291
 21
-108.036
  0
LINE
  8
0
 10
-12.1291
 20
-108.036
 11
-12.1888
 21
-108.075
  0
LINE
  8
0
 10
-12.1888
 20
-108.075
 11
-12.2465
 21
-108.117
  0
LINE
  8
0
 10
-12.2465
 20
-108.117
 11
-12.3022
 21
-108.162
  0
LINE
  8
0
 10
-12.3022
 20
-108.162
 11
-12.3557
 21
-108.211
  0
LINE
  8
0
 10
-12.3557
 20
-108.211
 11
-12.4066
 21
-108.262
  0
LINE
  8
0
 10
-12.4066
 20
-108.262
 11
-12.4543
 21
-108.315
  0
LINE
  8
0
 10
-12.4543
 20
-108.315
 11
-12.4986
 21
-108.371
  0
LINE
  8
0
 10
-12.4986
 20
-108.371
 11
-12.5397
 21
-108.429
  0
LINE
  8
0
 10
-12.5397
 20
-108.429
 11
-12.5774
 21
-108.489
  0
LINE
  8
0
 10
-12.5774
 20
-108.489
 11
-12.6119
 21
-108.552
  0
LINE
  8
0
 10
-12.6119
 20
-108.552
 11
-12.6431
 21
-108.617
  0
LINE
  8
0
 10
-12.6431
 20
-108.617
 11
-12.671
 21
-108.685
  0
LINE
  8
0
 10
-12.671
 20
-108.685
 11
-12.6957
 21
-108.754
  0
LINE
  8
0
 10
-12.6957
 20
-108.754
 11
-12.717
 21
-108.827
  0
LINE
  8
0
 10
-12.717
 20
-108.827
 11
-12.7351
 21
-108.901
  0
LINE
  8
0
 10
-12.7351
 20
-108.901
 11
-12.7499
 21
-108.978
  0
LINE
  8
0
 10
-12.7499
 20
-108.978
 11
-12.7614
 21
-109.057
  0
LINE
  8
0
 10
-12.7614
 20
-109.057
 11
-12.7696
 21
-109.139
  0
LINE
  8
0
 10
-12.7696
 20
-109.139
 11
-12.7745
 21
-109.223
  0
LINE
  8
0
 10
-12.7745
 20
-109.223
 11
-12.7761
 21
-109.309
  0
LINE
  8
0
 10
-12.7761
 20
-109.309
 11
-12.7744
 21
-109.418
  0
LINE
  8
0
 10
-12.7744
 20
-109.418
 11
-12.7693
 21
-109.525
  0
LINE
  8
0
 10
-12.7693
 20
-109.525
 11
-12.7608
 21
-109.63
  0
LINE
  8
0
 10
-12.7608
 20
-109.63
 11
-12.7488
 21
-109.731
  0
LINE
  8
0
 10
-12.7488
 20
-109.731
 11
-12.7335
 21
-109.831
  0
LINE
  8
0
 10
-12.7335
 20
-109.831
 11
-12.7147
 21
-109.927
  0
LINE
  8
0
 10
-12.7147
 20
-109.927
 11
-12.6926
 21
-110.022
  0
LINE
  8
0
 10
-12.6926
 20
-110.022
 11
-12.667
 21
-110.113
  0
LINE
  8
0
 10
-12.667
 20
-110.113
 11
-12.638
 21
-110.203
  0
LINE
  8
0
 10
-12.638
 20
-110.203
 11
-12.6056
 21
-110.29
  0
LINE
  8
0
 10
-12.6056
 20
-110.29
 11
-12.5697
 21
-110.374
  0
LINE
  8
0
 10
-12.5697
 20
-110.374
 11
-12.5305
 21
-110.456
  0
LINE
  8
0
 10
-12.5305
 20
-110.456
 11
-12.4879
 21
-110.535
  0
LINE
  8
0
 10
-12.4879
 20
-110.535
 11
-12.4418
 21
-110.612
  0
LINE
  8
0
 10
-12.4418
 20
-110.612
 11
-12.3924
 21
-110.686
  0
LINE
  8
0
 10
-12.3924
 20
-110.686
 11
-12.3395
 21
-110.758
  0
LINE
  8
0
 10
-12.3395
 20
-110.758
 11
-12.2839
 21
-110.826
  0
LINE
  8
0
 10
-12.2839
 20
-110.826
 11
-12.2265
 21
-110.89
  0
LINE
  8
0
 10
-12.2265
 20
-110.89
 11
-12.1671
 21
-110.949
  0
LINE
  8
0
 10
-12.1671
 20
-110.949
 11
-12.1057
 21
-111.005
  0
LINE
  8
0
 10
-12.1057
 20
-111.005
 11
-12.0424
 21
-111.055
  0
LINE
  8
0
 10
-12.0424
 20
-111.055
 11
-11.9772
 21
-111.101
  0
LINE
  8
0
 10
-11.9772
 20
-111.101
 11
-11.9101
 21
-111.143
  0
LINE
  8
0
 10
-11.9101
 20
-111.143
 11
-11.841
 21
-111.181
  0
LINE
  8
0
 10
-11.841
 20
-111.181
 11
-11.7701
 21
-111.214
  0
LINE
  8
0
 10
-11.7701
 20
-111.214
 11
-11.6972
 21
-111.243
  0
LINE
  8
0
 10
-11.6972
 20
-111.243
 11
-11.6223
 21
-111.267
  0
LINE
  8
0
 10
-11.6223
 20
-111.267
 11
-11.5455
 21
-111.287
  0
LINE
  8
0
 10
-11.5455
 20
-111.287
 11
-11.4668
 21
-111.302
  0
LINE
  8
0
 10
-11.4668
 20
-111.302
 11
-11.3862
 21
-111.313
  0
LINE
  8
0
 10
-11.3862
 20
-111.313
 11
-11.3037
 21
-111.32
  0
LINE
  8
0
 10
-11.3037
 20
-111.32
 11
-11.2192
 21
-111.322
  0
LINE
  8
0
 10
-11.2192
 20
-111.322
 11
-11.1322
 21
-111.32
  0
LINE
  8
0
 10
-12.4289
 20
-132
 11
-12.4265
 21
-131.816
  0
LINE
  8
0
 10
-12.4265
 20
-131.816
 11
-12.4192
 21
-131.631
  0
LINE
  8
0
 10
-12.4192
 20
-131.631
 11
-12.4071
 21
-131.445
  0
LINE
  8
0
 10
-12.4071
 20
-131.445
 11
-12.3901
 21
-131.258
  0
LINE
  8
0
 10
-12.3901
 20
-131.258
 11
-12.3683
 21
-131.069
  0
LINE
  8
0
 10
-12.3683
 20
-131.069
 11
-12.3416
 21
-130.88
  0
LINE
  8
0
 10
-12.3416
 20
-130.88
 11
-12.31
 21
-130.689
  0
LINE
  8
0
 10
-12.31
 20
-130.689
 11
-12.2737
 21
-130.497
  0
LINE
  8
0
 10
-12.2737
 20
-130.497
 11
-12.2324
 21
-130.303
  0
LINE
  8
0
 10
-12.2324
 20
-130.303
 11
-12.1863
 21
-130.109
  0
LINE
  8
0
 10
-12.1863
 20
-130.109
 11
-12.1354
 21
-129.913
  0
LINE
  8
0
 10
-12.1354
 20
-129.913
 11
-12.0796
 21
-129.716
  0
LINE
  8
0
 10
-12.0796
 20
-129.716
 11
-12.0189
 21
-129.518
  0
LINE
  8
0
 10
-12.0189
 20
-129.518
 11
-11.9534
 21
-129.318
  0
LINE
  8
0
 10
-11.9534
 20
-129.318
 11
-11.883
 21
-129.118
  0
LINE
  8
0
 10
-11.883
 20
-129.118
 11
-11.8078
 21
-128.916
  0
LINE
  8
0
 10
-11.8078
 20
-128.916
 11
-11.7269
 21
-128.712
  0
LINE
  8
0
 10
-11.7269
 20
-128.712
 11
-11.6395
 21
-128.503
  0
LINE
  8
0
 10
-11.6395
 20
-128.503
 11
-11.5456
 21
-128.291
  0
LINE
  8
0
 10
-11.5456
 20
-128.291
 11
-11.4452
 21
-128.076
  0
LINE
  8
0
 10
-11.4452
 20
-128.076
 11
-11.3383
 21
-127.856
  0
LINE
  8
0
 10
-11.3383
 20
-127.856
 11
-11.2248
 21
-127.632
  0
LINE
  8
0
 10
-11.2248
 20
-127.632
 11
-11.1049
 21
-127.405
  0
LINE
  8
0
 10
-11.1049
 20
-127.405
 11
-10.9785
 21
-127.174
  0
LINE
  8
0
 10
-10.9785
 20
-127.174
 11
-10.8455
 21
-126.939
  0
LINE
  8
0
 10
-10.8455
 20
-126.939
 11
-10.7061
 21
-126.7
  0
LINE
  8
0
 10
-10.7061
 20
-126.7
 11
-10.5601
 21
-126.457
  0
LINE
  8
0
 10
-10.5601
 20
-126.457
 11
-10.4077
 21
-126.211
  0
LINE
  8
0
 10
-10.4077
 20
-126.211
 11
-10.2487
 21
-125.96
  0
LINE
  8
0
 10
-10.2487
 20
-125.96
 11
-10.0832
 21
-125.706
  0
LINE
  8
0
 10
-10.0832
 20
-125.706
 11
-9.91125
 21
-125.448
  0
LINE
  8
0
 10
-9.91125
 20
-125.448
 11
-9.73277
 21
-125.186
  0
LINE
  8
0
 10
-9.73277
 20
-125.186
 11
-13.8395
 21
-125.186
  0
LINE
  8
0
 10
-13.8395
 20
-125.186
 11
-13.8395
 21
-124.356
  0
LINE
  8
0
 10
-13.8395
 20
-124.356
 11
-8.78877
 21
-124.356
  0
LINE
  8
0
 10
-8.78877
 20
-124.356
 11
-8.78877
 21
-125.148
  0
LINE
  8
0
 10
-8.78877
 20
-125.148
 11
-8.93257
 21
-125.369
  0
LINE
  8
0
 10
-8.93257
 20
-125.369
 11
-9.07097
 21
-125.584
  0
LINE
  8
0
 10
-9.07097
 20
-125.584
 11
-9.20399
 21
-125.792
  0
LINE
  8
0
 10
-9.20399
 20
-125.792
 11
-9.33163
 21
-125.995
  0
LINE
  8
0
 10
-9.33163
 20
-125.995
 11
-9.45389
 21
-126.191
  0
LINE
  8
0
 10
-9.45389
 20
-126.191
 11
-9.57076
 21
-126.382
  0
LINE
  8
0
 10
-9.57076
 20
-126.382
 11
-9.68225
 21
-126.566
  0
LINE
  8
0
 10
-9.68225
 20
-126.566
 11
-9.78836
 21
-126.745
  0
LINE
  8
0
 10
-9.78836
 20
-126.745
 11
-9.88908
 21
-126.917
  0
LINE
  8
0
 10
-9.88908
 20
-126.917
 11
-9.98442
 21
-127.083
  0
LINE
  8
0
 10
-9.98442
 20
-127.083
 11
-10.0744
 21
-127.243
  0
LINE
  8
0
 10
-10.0744
 20
-127.243
 11
-10.159
 21
-127.397
  0
LINE
  8
0
 10
-10.159
 20
-127.397
 11
-10.2381
 21
-127.545
  0
LINE
  8
0
 10
-10.2381
 20
-127.545
 11
-10.312
 21
-127.687
  0
LINE
  8
0
 10
-10.312
 20
-127.687
 11
-10.3804
 21
-127.823
  0
LINE
  8
0
 10
-10.3804
 20
-127.823
 11
-10.4434
 21
-127.953
  0
LINE
  8
0
 10
-10.4434
 20
-127.953
 11
-10.5028
 21
-128.08
  0
LINE
  8
0
 10
-10.5028
 20
-128.08
 11
-10.5603
 21
-128.206
  0
LINE
  8
0
 10
-10.5603
 20
-128.206
 11
-10.616
 21
-128.332
  0
LINE
  8
0
 10
-10.616
 20
-128.332
 11
-10.6697
 21
-128.459
  0
LINE
  8
0
 10
-10.6697
 20
-128.459
 11
-10.7216
 21
-128.584
  0
LINE
  8
0
 10
-10.7216
 20
-128.584
 11
-10.7716
 21
-128.71
  0
LINE
  8
0
 10
-10.7716
 20
-128.71
 11
-10.8197
 21
-128.835
  0
LINE
  8
0
 10
-10.8197
 20
-128.835
 11
-10.8659
 21
-128.961
  0
LINE
  8
0
 10
-10.8659
 20
-128.961
 11
-10.9102
 21
-129.086
  0
LINE
  8
0
 10
-10.9102
 20
-129.086
 11
-10.9526
 21
-129.21
  0
LINE
  8
0
 10
-10.9526
 20
-129.21
 11
-10.9932
 21
-129.335
  0
LINE
  8
0
 10
-10.9932
 20
-129.335
 11
-11.0318
 21
-129.459
  0
LINE
  8
0
 10
-11.0318
 20
-129.459
 11
-11.0686
 21
-129.584
  0
LINE
  8
0
 10
-11.0686
 20
-129.584
 11
-11.1035
 21
-129.708
  0
LINE
  8
0
 10
-11.1035
 20
-129.708
 11
-11.1365
 21
-129.831
  0
LINE
  8
0
 10
-11.1365
 20
-129.831
 11
-11.1676
 21
-129.955
  0
LINE
  8
0
 10
-11.1676
 20
-129.955
 11
-11.1969
 21
-130.079
  0
LINE
  8
0
 10
-11.1969
 20
-130.079
 11
-11.2242
 21
-130.203
  0
LINE
  8
0
 10
-11.2242
 20
-130.203
 11
-11.2497
 21
-130.328
  0
LINE
  8
0
 10
-11.2497
 20
-130.328
 11
-11.2733
 21
-130.453
  0
LINE
  8
0
 10
-11.2733
 20
-130.453
 11
-11.295
 21
-130.579
  0
LINE
  8
0
 10
-11.295
 20
-130.579
 11
-11.3148
 21
-130.705
  0
LINE
  8
0
 10
-11.3148
 20
-130.705
 11
-11.3327
 21
-130.832
  0
LINE
  8
0
 10
-11.3327
 20
-130.832
 11
-11.3487
 21
-130.96
  0
LINE
  8
0
 10
-11.3487
 20
-130.96
 11
-11.3629
 21
-131.088
  0
LINE
  8
0
 10
-11.3629
 20
-131.088
 11
-11.3751
 21
-131.217
  0
LINE
  8
0
 10
-11.3751
 20
-131.217
 11
-11.3855
 21
-131.346
  0
LINE
  8
0
 10
-11.3855
 20
-131.346
 11
-11.394
 21
-131.475
  0
LINE
  8
0
 10
-11.394
 20
-131.475
 11
-11.4006
 21
-131.606
  0
LINE
  8
0
 10
-11.4006
 20
-131.606
 11
-11.4053
 21
-131.737
  0
LINE
  8
0
 10
-11.4053
 20
-131.737
 11
-11.4082
 21
-131.868
  0
LINE
  8
0
 10
-11.4082
 20
-131.868
 11
-11.4091
 21
-132
  0
LINE
  8
0
 10
-11.4091
 20
-132
 11
-12.4289
 21
-132
  0
LINE
  8
0
 10
60
 20
-150
 11
60
 21
-134
  0
LINE
  8
0
 10
60
 20
-134
 11
62
 21
-134
  0
LINE
  8
0
 10
62
 20
-134
 11
62
 21
-150
  0
LINE
  8
0
 10
62
 20
-150
 11
60
 21
-150
  0
LINE
  8
0
 10
20
 20
-150
 11
20
 21
-134
  0
LINE
  8
0
 10
20
 20
-134
 11
22
 21
-134
  0
LINE
  8
0
 10
22
 20
-134
 11
22
 21
-150
  0
LINE
  8
0
 10
22
 20
-150
 11
20
 21
-150
  0
LINE
  8
0
 10
40
 20
-150
 11
40
 21
-134
  0
LINE
  8
0
 10
40
 20
-134
 11
42
 21
-134
  0
LINE
  8
0
 10
42
 20
-134
 11
42
 21
-150
  0
LINE
  8
0
 10
42
 20
-150
 11
40
 21
-150
  0
LINE
  8
0
 10
0
 20
-150
 11
0
 21
-134
  0
LINE
  8
0
 10
0
 20
-134
 11
2
 21
-134
  0
LINE
  8
0
 10
2
 20
-134
 11
2
 21
-150
  0
LINE
  8
0
 10
2
 20
-150
 11
0
 21
-150
  0
LINE
  8
0
 10
-11.468
 20
-152.106
 11
-11.615
 21
-152.099
  0
LINE
  8
0
 10
-11.615
 20
-152.099
 11
-11.7578
 21
-152.088
  0
LINE
  8
0
 10
-11.7578
 20
-152.088
 11
-11.8965
 21
-152.072
  0
LINE
  8
0
 10
-11.8965
 20
-152.072
 11
-12.0309
 21
-152.052
  0
LINE
  8
0
 10
-12.0309
 20
-152.052
 11
-12.1612
 21
-152.027
  0
LINE
  8
0
 10
-12.1612
 20
-152.027
 11
-12.2874
 21
-151.997
  0
LINE
  8
0
 10
-12.2874
 20
-151.997
 11
-12.4093
 21
-151.963
  0
LINE
  8
0
 10
-12.4093
 20
-151.963
 11
-12.5271
 21
-151.925
  0
LINE
  8
0
 10
-12.5271
 20
-151.925
 11
-12.6407
 21
-151.882
  0
LINE
  8
0
 10
-12.6407
 20
-151.882
 11
-12.7501
 21
-151.834
  0
LINE
  8
0
 10
-12.7501
 20
-151.834
 11
-12.8553
 21
-151.782
  0
LINE
  8
0
 10
-12.8553
 20
-151.782
 11
-12.9564
 21
-151.725
  0
LINE
  8
0
 10
-12.9564
 20
-151.725
 11
-13.0533
 21
-151.664
  0
LINE
  8
0
 10
-13.0533
 20
-151.664
 11
-13.1461
 21
-151.598
  0
LINE
  8
0
 10
-13.1461
 20
-151.598
 11
-13.2346
 21
-151.528
  0
LINE
  8
0
 10
-13.2346
 20
-151.528
 11
-13.3184
 21
-151.454
  0
LINE
  8
0
 10
-13.3184
 20
-151.454
 11
-13.3967
 21
-151.375
  0
LINE
  8
0
 10
-13.3967
 20
-151.375
 11
-13.4697
 21
-151.293
  0
LINE
  8
0
 10
-13.4697
 20
-151.293
 11
-13.5372
 21
-151.207
  0
LINE
  8
0
 10
-13.5372
 20
-151.207
 11
-13.5994
 21
-151.118
  0
LINE
  8
0
 10
-13.5994
 20
-151.118
 11
-13.6561
 21
-151.024
  0
LINE
  8
0
 10
-13.6561
 20
-151.024
 11
-13.7074
 21
-150.927
  0
LINE
  8
0
 10
-13.7074
 20
-150.927
 11
-13.7534
 21
-150.825
  0
LINE
  8
0
 10
-13.7534
 20
-150.825
 11
-13.7939
 21
-150.72
  0
LINE
  8
0
 10
-13.7939
 20
-150.72
 11
-13.829
 21
-150.612
  0
LINE
  8
0
 10
-13.829
 20
-150.612
 11
-13.8587
 21
-150.499
  0
LINE
  8
0
 10
-13.8587
 20
-150.499
 11
-13.8831
 21
-150.383
  0
LINE
  8
0
 10
-13.8831
 20
-150.383
 11
-13.902
 21
-150.262
  0
LINE
  8
0
 10
-13.902
 20
-150.262
 11
-13.9155
 21
-150.138
  0
LINE
  8
0
 10
-13.9155
 20
-150.138
 11
-13.9236
 21
-150.01
  0
LINE
  8
0
 10
-13.9236
 20
-150.01
 11
-13.9263
 21
-149.879
  0
LINE
  8
0
 10
-13.9263
 20
-149.879
 11
-13.9246
 21
-149.786
  0
LINE
  8
0
 10
-13.9246
 20
-149.786
 11
-13.9196
 21
-149.695
  0
LINE
  8
0
 10
-13.9196
 20
-149.695
 11
-13.9112
 21
-149.606
  0
LINE
  8
0
 10
-13.9112
 20
-149.606
 11
-13.8995
 21
-149.519
  0
LINE
  8
0
 10
-13.8995
 20
-149.519
 11
-13.8844
 21
-149.434
  0
LINE
  8
0
 10
-13.8844
 20
-149.434
 11
-13.866
 21
-149.351
  0
LINE
  8
0
 10
-13.866
 20
-149.351
 11
-13.8443
 21
-149.269
  0
LINE
  8
0
 10
-13.8443
 20
-149.269
 11
-13.8192
 21
-149.19
  0
LINE
  8
0
 10
-13.8192
 20
-149.19
 11
-13.7907
 21
-149.112
  0
LINE
  8
0
 10
-13.7907
 20
-149.112
 11
-13.7589
 21
-149.036
  0
LINE
  8
0
 10
-13.7589
 20
-149.036
 11
-13.7237
 21
-148.962
  0
LINE
  8
0
 10
-13.7237
 20
-148.962
 11
-13.6852
 21
-148.89
  0
LINE
  8
0
 10
-13.6852
 20
-148.89
 11
-13.6434
 21
-148.82
  0
LINE
  8
0
 10
-13.6434
 20
-148.82
 11
-13.5982
 21
-148.751
  0
LINE
  8
0
 10
-13.5982
 20
-148.751
 11
-13.5496
 21
-148.685
  0
LINE
  8
0
 10
-13.5496
 20
-148.685
 11
-13.4977
 21
-148.62
  0
LINE
  8
0
 10
-13.4977
 20
-148.62
 11
-13.4432
 21
-148.558
  0
LINE
  8
0
 10
-13.4432
 20
-148.558
 11
-13.3868
 21
-148.499
  0
LINE
  8
0
 10
-13.3868
 20
-148.499
 11
-13.3286
 21
-148.443
  0
LINE
  8
0
 10
-13.3286
 20
-148.443
 11
-13.2685
 21
-148.39
  0
LINE
  8
0
 10
-13.2685
 20
-148.39
 11
-13.2065
 21
-148.341
  0
LINE
  8
0
 10
-13.2065
 20
-148.341
 11
-13.1427
 21
-148.294
  0
LINE
  8
0
 10
-13.1427
 20
-148.294
 11
-13.077
 21
-148.251
  0
LINE
  8
0
 10
-13.077
 20
-148.251
 11
-13.0094
 21
-148.211
  0
LINE
  8
0
 10
-13.0094
 20
-148.211
 11
-12.94
 21
-148.174
  0
LINE
  8
0
 10
-12.94
 20
-148.174
 11
-12.8687
 21
-148.14
  0
LINE
  8
0
 10
-12.8687
 20
-148.14
 11
-12.7956
 21
-148.109
  0
LINE
  8
0
 10
-12.7956
 20
-148.109
 11
-12.7205
 21
-148.081
  0
LINE
  8
0
 10
-12.7205
 20
-148.081
 11
-12.6437
 21
-148.057
  0
LINE
  8
0
 10
-12.6437
 20
-148.057
 11
-12.5649
 21
-148.035
  0
LINE
  8
0
 10
-12.5649
 20
-148.035
 11
-12.4843
 21
-148.017
  0
LINE
  8
0
 10
-12.4843
 20
-148.017
 11
-12.4018
 21
-148.002
  0
LINE
  8
0
 10
-12.4018
 20
-148.002
 11
-12.4018
 21
-147.98
  0
LINE
  8
0
 10
-12.4018
 20
-147.98
 11
-12.4788
 21
-147.96
  0
LINE
  8
0
 10
-12.4788
 20
-147.96
 11
-12.5537
 21
-147.938
  0
LINE
  8
0
 10
-12.5537
 20
-147.938
 11
-12.6265
 21
-147.913
  0
LINE
  8
0
 10
-12.6265
 20
-147.913
 11
-12.6973
 21
-147.885
  0
LINE
  8
0
 10
-12.6973
 20
-147.885
 11
-12.7661
 21
-147.855
  0
LINE
  8
0
 10
-12.7661
 20
-147.855
 11
-12.8327
 21
-147.822
  0
LINE
  8
0
 10
-12.8327
 20
-147.822
 11
-12.8974
 21
-147.786
  0
LINE
  8
0
 10
-12.8974
 20
-147.786
 11
-12.96
 21
-147.748
  0
LINE
  8
0
 10
-12.96
 20
-147.748
 11
-13.0205
 21
-147.707
  0
LINE
  8
0
 10
-13.0205
 20
-147.707
 11
-13.0789
 21
-147.663
  0
LINE
  8
0
 10
-13.0789
 20
-147.663
 11
-13.1353
 21
-147.617
  0
LINE
  8
0
 10
-13.1353
 20
-147.617
 11
-13.1897
 21
-147.568
  0
LINE
  8
0
 10
-13.1897
 20
-147.568
 11
-13.242
 21
-147.516
  0
LINE
  8
0
 10
-13.242
 20
-147.516
 11
-13.2922
 21
-147.462
  0
LINE
  8
0
 10
-13.2922
 20
-147.462
 11
-13.3404
 21
-147.405
  0
LINE
  8
0
 10
-13.3404
 20
-147.405
 11
-13.3865
 21
-147.345
  0
LINE
  8
0
 10
-13.3865
 20
-147.345
 11
-13.4302
 21
-147.284
  0
LINE
  8
0
 10
-13.4302
 20
-147.284
 11
-13.4711
 21
-147.221
  0
LINE
  8
0
 10
-13.4711
 20
-147.221
 11
-13.5091
 21
-147.156
  0
LINE
  8
0
 10
-13.5091
 20
-147.156
 11
-13.5444
 21
-147.091
  0
LINE
  8
0
 10
-13.5444
 20
-147.091
 11
-13.5768
 21
-147.024
  0
LINE
  8
0
 10
-13.5768
 20
-147.024
 11
-13.6064
 21
-146.956
  0
LINE
  8
0
 10
-13.6064
 20
-146.956
 11
-13.6331
 21
-146.886
  0
LINE
  8
0
 10
-13.6331
 20
-146.886
 11
-13.6571
 21
-146.815
  0
LINE
  8
0
 10
-13.6571
 20
-146.815
 11
-13.6782
 21
-146.743
  0
LINE
  8
0
 10
-13.6782
 20
-146.743
 11
-13.6965
 21
-146.669
  0
LINE
  8
0
 10
-13.6965
 20
-146.669
 11
-13.712
 21
-146.595
  0
LINE
  8
0
 10
-13.712
 20
-146.595
 11
-13.7247
 21
-146.518
  0
LINE
  8
0
 10
-13.7247
 20
-146.518
 11
-13.7346
 21
-146.441
  0
LINE
  8
0
 10
-13.7346
 20
-146.441
 11
-13.7416
 21
-146.362
  0
LINE
  8
0
 10
-13.7416
 20
-146.362
 11
-13.7458
 21
-146.282
  0
LINE
  8
0
 10
-13.7458
 20
-146.282
 11
-13.7473
 21
-146.201
  0
LINE
  8
0
 10
-13.7473
 20
-146.201
 11
-13.7447
 21
-146.093
  0
LINE
  8
0
 10
-13.7447
 20
-146.093
 11
-13.737
 21
-145.987
  0
LINE
  8
0
 10
-13.737
 20
-145.987
 11
-13.7243
 21
-145.885
  0
LINE
  8
0
 10
-13.7243
 20
-145.885
 11
-13.7064
 21
-145.785
  0
LINE
  8
0
 10
-13.7064
 20
-145.785
 11
-13.6834
 21
-145.687
  0
LINE
  8
0
 10
-13.6834
 20
-145.687
 11
-13.6553
 21
-145.592
  0
LINE
  8
0
 10
-13.6553
 20
-145.592
 11
-13.6221
 21
-145.5
  0
LINE
  8
0
 10
-13.6221
 20
-145.5
 11
-13.5838
 21
-145.41
  0
LINE
  8
0
 10
-13.5838
 20
-145.41
 11
-13.5404
 21
-145.323
  0
LINE
  8
0
 10
-13.5404
 20
-145.323
 11
-13.4919
 21
-145.238
  0
LINE
  8
0
 10
-13.4919
 20
-145.238
 11
-13.4383
 21
-145.156
  0
LINE
  8
0
 10
-13.4383
 20
-145.156
 11
-13.3796
 21
-145.077
  0
LINE
  8
0
 10
-13.3796
 20
-145.077
 11
-13.3157
 21
-145
  0
LINE
  8
0
 10
-13.3157
 20
-145
 11
-13.2468
 21
-144.926
  0
LINE
  8
0
 10
-13.2468
 20
-144.926
 11
-13.1727
 21
-144.854
  0
LINE
  8
0
 10
-13.1727
 20
-144.854
 11
-13.0936
 21
-144.785
  0
LINE
  8
0
 10
-13.0936
 20
-144.785
 11
-13.0101
 21
-144.719
  0
LINE
  8
0
 10
-13.0101
 20
-144.719
 11
-12.9231
 21
-144.658
  0
LINE
  8
0
 10
-12.9231
 20
-144.658
 11
-12.8327
 21
-144.6
  0
LINE
  8
0
 10
-12.8327
 20
-144.6
 11
-12.7387
 21
-144.547
  0
LINE
  8
0
 10
-12.7387
 20
-144.547
 11
-12.6413
 21
-144.499
  0
LINE
  8
0
 10
-12.6413
 20
-144.499
 11
-12.5403
 21
-144.454
  0
LINE
  8
0
 10
-12.5403
 20
-144.454
 11
-12.4359
 21
-144.414
  0
LINE
  8
0
 10
-12.4359
 20
-144.414
 11
-12.3279
 21
-144.378
  0
LINE
  8
0
 10
-12.3279
 20
-144.378
 11
-12.2165
 21
-144.346
  0
LINE
  8
0
 10
-12.2165
 20
-144.346
 11
-12.1016
 21
-144.319
  0
LINE
  8
0
 10
-12.1016
 20
-144.319
 11
-11.9831
 21
-144.295
  0
LINE
  8
0
 10
-11.9831
 20
-144.295
 11
-11.8612
 21
-144.276
  0
LINE
  8
0
 10
-11.8612
 20
-144.276
 11
-11.7358
 21
-144.261
  0
LINE
  8
0
 10
-11.7358
 20
-144.261
 11
-11.6069
 21
-144.251
  0
LINE
  8
0
 10
-11.6069
 20
-144.251
 11
-11.4744
 21
-144.244
  0
LINE
  8
0
 10
-11.4744
 20
-144.244
 11
-11.3385
 21
-144.242
  0
LINE
  8
0
 10
-11.3385
 20
-144.242
 11
-11.1993
 21
-144.244
  0
LINE
  8
0
 10
-11.1993
 20
-144.244
 11
-11.0639
 21
-144.251
  0
LINE
  8
0
 10
-11.0639
 20
-144.251
 11
-10.9321
 21
-144.261
  0
LINE
  8
0
 10
-10.9321
 20
-144.261
 11
-10.804
 21
-144.275
  0
LINE
  8
0
 10
-10.804
 20
-144.275
 11
-10.6796
 21
-144.294
  0
LINE
  8
0
 10
-10.6796
 20
-144.294
 11
-10.559
 21
-144.317
  0
LINE
  8
0
 10
-10.559
 20
-144.317
 11
-10.442
 21
-144.344
  0
LINE
  8
0
 10
-10.442
 20
-144.344
 11
-10.3288
 21
-144.375
  0
LINE
  8
0
 10
-10.3288
 20
-144.375
 11
-10.2193
 21
-144.41
  0
LINE
  8
0
 10
-10.2193
 20
-144.41
 11
-10.1135
 21
-144.45
  0
LINE
  8
0
 10
-10.1135
 20
-144.45
 11
-10.0114
 21
-144.494
  0
LINE
  8
0
 10
-10.0114
 20
-144.494
 11
-9.91296
 21
-144.541
  0
LINE
  8
0
 10
-9.91296
 20
-144.541
 11
-9.81827
 21
-144.593
  0
LINE
  8
0
 10
-9.81827
 20
-144.593
 11
-9.72729
 21
-144.649
  0
LINE
  8
0
 10
-9.72729
 20
-144.649
 11
-9.64001
 21
-144.71
  0
LINE
  8
0
 10
-9.64001
 20
-144.71
 11
-9.55646
 21
-144.774
  0
LINE
  8
0
 10
-9.55646
 20
-144.774
 11
-9.47729
 21
-144.842
  0
LINE
  8
0
 10
-9.47729
 20
-144.842
 11
-9.40323
 21
-144.913
  0
LINE
  8
0
 10
-9.40323
 20
-144.913
 11
-9.33427
 21
-144.986
  0
LINE
  8
0
 10
-9.33427
 20
-144.986
 11
-9.27043
 21
-145.063
  0
LINE
  8
0
 10
-9.27043
 20
-145.063
 11
-9.2117
 21
-145.143
  0
LINE
  8
0
 10
-9.2117
 20
-145.143
 11
-9.15807
 21
-145.225
  0
LINE
  8
0
 10
-9.15807
 20
-145.225
 11
-9.10954
 21
-145.311
  0
LINE
  8
0
 10
-9.10954
 20
-145.311
 11
-9.06613
 21
-145.399
  0
LINE
  8
0
 10
-9.06613
 20
-145.399
 11
-9.02783
 21
-145.49
  0
LINE
  8
0
 10
-9.02783
 20
-145.49
 11
-8.99463
 21
-145.585
  0
LINE
  8
0
 10
-8.99463
 20
-145.585
 11
-8.96654
 21
-145.682
  0
LINE
  8
0
 10
-8.96654
 20
-145.682
 11
-8.94356
 21
-145.782
  0
LINE
  8
0
 10
-8.94356
 20
-145.782
 11
-8.92567
 21
-145.885
  0
LINE
  8
0
 10
-8.92567
 20
-145.885
 11
-8.91292
 21
-145.991
  0
LINE
  8
0
 10
-8.91292
 20
-145.991
 11
-8.90524
 21
-146.1
  0
LINE
  8
0
 10
-8.90524
 20
-146.1
 11
-8.90269
 21
-146.212
  0
LINE
  8
0
 10
-8.90269
 20
-146.212
 11
-8.90411
 21
-146.293
  0
LINE
  8
0
 10
-8.90411
 20
-146.293
 11
-8.90837
 21
-146.373
  0
LINE
  8
0
 10
-8.90837
 20
-146.373
 11
-8.91548
 21
-146.452
  0
LINE
  8
0
 10
-8.91548
 20
-146.452
 11
-8.92542
 21
-146.529
  0
LINE
  8
0
 10
-8.92542
 20
-146.529
 11
-8.9382
 21
-146.605
  0
LINE
  8
0
 10
-8.9382
 20
-146.605
 11
-8.95381
 21
-146.68
  0
LINE
  8
0
 10
-8.95381
 20
-146.68
 11
-8.97227
 21
-146.754
  0
LINE
  8
0
 10
-8.97227
 20
-146.754
 11
-8.99358
 21
-146.826
  0
LINE
  8
0
 10
-8.99358
 20
-146.826
 11
-9.01772
 21
-146.897
  0
LINE
  8
0
 10
-9.01772
 20
-146.897
 11
-9.04469
 21
-146.966
  0
LINE
  8
0
 10
-9.04469
 20
-146.966
 11
-9.07451
 21
-147.035
  0
LINE
  8
0
 10
-9.07451
 20
-147.035
 11
-9.10718
 21
-147.102
  0
LINE
  8
0
 10
-9.10718
 20
-147.102
 11
-9.14267
 21
-147.167
  0
LINE
  8
0
 10
-9.14267
 20
-147.167
 11
-9.18102
 21
-147.232
  0
LINE
  8
0
 10
-9.18102
 20
-147.232
 11
-9.2222
 21
-147.295
  0
LINE
  8
0
 10
-9.2222
 20
-147.295
 11
-9.26622
 21
-147.356
  0
LINE
  8
0
 10
-9.26622
 20
-147.356
 11
-9.31268
 21
-147.416
  0
LINE
  8
0
 10
-9.31268
 20
-147.416
 11
-9.36124
 21
-147.473
  0
LINE
  8
0
 10
-9.36124
 20
-147.473
 11
-9.41185
 21
-147.527
  0
LINE
  8
0
 10
-9.41185
 20
-147.527
 11
-9.46455
 21
-147.578
  0
LINE
  8
0
 10
-9.46455
 20
-147.578
 11
-9.51933
 21
-147.626
  0
LINE
  8
0
 10
-9.51933
 20
-147.626
 11
-9.57619
 21
-147.671
  0
LINE
  8
0
 10
-9.57619
 20
-147.671
 11
-9.63512
 21
-147.714
  0
LINE
  8
0
 10
-9.63512
 20
-147.714
 11
-9.69612
 21
-147.754
  0
LINE
  8
0
 10
-9.69612
 20
-147.754
 11
-9.7592
 21
-147.79
  0
LINE
  8
0
 10
-9.7592
 20
-147.79
 11
-9.82436
 21
-147.825
  0
LINE
  8
0
 10
-9.82436
 20
-147.825
 11
-9.8916
 21
-147.856
  0
LINE
  8
0
 10
-9.8916
 20
-147.856
 11
-9.96091
 21
-147.884
  0
LINE
  8
0
 10
-9.96091
 20
-147.884
 11
-10.0323
 21
-147.91
  0
LINE
  8
0
 10
-10.0323
 20
-147.91
 11
-10.1058
 21
-147.932
  0
LINE
  8
0
 10
-10.1058
 20
-147.932
 11
-10.1813
 21
-147.952
  0
LINE
  8
0
 10
-10.1813
 20
-147.952
 11
-10.2589
 21
-147.969
  0
LINE
  8
0
 10
-10.2589
 20
-147.969
 11
-10.2589
 21
-147.991
  0
LINE
  8
0
 10
-10.2589
 20
-147.991
 11
-10.1687
 21
-148.007
  0
LINE
  8
0
 10
-10.1687
 20
-148.007
 11
-10.0809
 21
-148.027
  0
LINE
  8
0
 10
-10.0809
 20
-148.027
 11
-9.99576
 21
-148.049
  0
LINE
  8
0
 10
-9.99576
 20
-148.049
 11
-9.91312
 21
-148.075
  0
LINE
  8
0
 10
-9.91312
 20
-148.075
 11
-9.83302
 21
-148.103
  0
LINE
  8
0
 10
-9.83302
 20
-148.103
 11
-9.75546
 21
-148.134
  0
LINE
  8
0
 10
-9.75546
 20
-148.134
 11
-9.68045
 21
-148.169
  0
LINE
  8
0
 10
-9.68045
 20
-148.169
 11
-9.60797
 21
-148.206
  0
LINE
  8
0
 10
-9.60797
 20
-148.206
 11
-9.53804
 21
-148.246
  0
LINE
  8
0
 10
-9.53804
 20
-148.246
 11
-9.47066
 21
-148.29
  0
LINE
  8
0
 10
-9.47066
 20
-148.29
 11
-9.40582
 21
-148.336
  0
LINE
  8
0
 10
-9.40582
 20
-148.336
 11
-9.34352
 21
-148.385
  0
LINE
  8
0
 10
-9.34352
 20
-148.385
 11
-9.28375
 21
-148.437
  0
LINE
  8
0
 10
-9.28375
 20
-148.437
 11
-9.22655
 21
-148.493
  0
LINE
  8
0
 10
-9.22655
 20
-148.493
 11
-9.17186
 21
-148.551
  0
LINE
  8
0
 10
-9.17186
 20
-148.551
 11
-9.11974
 21
-148.612
  0
LINE
  8
0
 10
-9.11974
 20
-148.612
 11
-9.07047
 21
-148.676
  0
LINE
  8
0
 10
-9.07047
 20
-148.676
 11
-9.02437
 21
-148.741
  0
LINE
  8
0
 10
-9.02437
 20
-148.741
 11
-8.98146
 21
-148.809
  0
LINE
  8
0
 10
-8.98146
 20
-148.809
 11
-8.94173
 21
-148.879
  0
LINE
  8
0
 10
-8.94173
 20
-148.879
 11
-8.90517
 21
-148.95
  0
LINE
  8
0
 10
-8.90517
 20
-148.95
 11
-8.8718
 21
-149.024
  0
LINE
  8
0
 10
-8.8718
 20
-149.024
 11
-8.8416
 21
-149.099
  0
LINE
  8
0
 10
-8.8416
 20
-149.099
 11
-8.81458
 21
-149.177
  0
LINE
  8
0
 10
-8.81458
 20
-149.177
 11
-8.79074
 21
-149.256
  0
LINE
  8
0
 10
-8.79074
 20
-149.256
 11
-8.77008
 21
-149.338
  0
LINE
  8
0
 10
-8.77008
 20
-149.338
 11
-8.75259
 21
-149.421
  0
LINE
  8
0
 10
-8.75259
 20
-149.421
 11
-8.73828
 21
-149.507
  0
LINE
  8
0
 10
-8.73828
 20
-149.507
 11
-8.72716
 21
-149.594
  0
LINE
  8
0
 10
-8.72716
 20
-149.594
 11
-8.71921
 21
-149.683
  0
LINE
  8
0
 10
-8.71921
 20
-149.683
 11
-8.71445
 21
-149.775
  0
LINE
  8
0
 10
-8.71445
 20
-149.775
 11
-8.71286
 21
-149.868
  0
LINE
  8
0
 10
-8.71286
 20
-149.868
 11
-8.71548
 21
-149.998
  0
LINE
  8
0
 10
-8.71548
 20
-149.998
 11
-8.72337
 21
-150.125
  0
LINE
  8
0
 10
-8.72337
 20
-150.125
 11
-8.73651
 21
-150.248
  0
LINE
  8
0
 10
-8.73651
 20
-150.248
 11
-8.7549
 21
-150.368
  0
LINE
  8
0
 10
-8.7549
 20
-150.368
 11
-8.77855
 21
-150.484
  0
LINE
  8
0
 10
-8.77855
 20
-150.484
 11
-8.80746
 21
-150.596
  0
LINE
  8
0
 10
-8.80746
 20
-150.596
 11
-8.84161
 21
-150.704
  0
LINE
  8
0
 10
-8.84161
 20
-150.704
 11
-8.88104
 21
-150.809
  0
LINE
  8
0
 10
-8.88104
 20
-150.809
 11
-8.9257
 21
-150.91
  0
LINE
  8
0
 10
-8.9257
 20
-150.91
 11
-8.97563
 21
-151.008
  0
LINE
  8
0
 10
-8.97563
 20
-151.008
 11
-9.03082
 21
-151.102
  0
LINE
  8
0
 10
-9.03082
 20
-151.102
 11
-9.09126
 21
-151.192
  0
LINE
  8
0
 10
-9.09126
 20
-151.192
 11
-9.15695
 21
-151.279
  0
LINE
  8
0
 10
-9.15695
 20
-151.279
 11
-9.22791
 21
-151.362
  0
LINE
  8
0
 10
-9.22791
 20
-151.362
 11
-9.30411
 21
-151.441
  0
LINE
  8
0
 10
-9.30411
 20
-151.441
 11
-9.38557
 21
-151.517
  0
LINE
  8
0
 10
-9.38557
 20
-151.517
 11
-9.47194
 21
-151.589
  0
LINE
  8
0
 10
-9.47194
 20
-151.589
 11
-9.5629
 21
-151.656
  0
LINE
  8
0
 10
-9.5629
 20
-151.656
 11
-9.65842
 21
-151.718
  0
LINE
  8
0
 10
-9.65842
 20
-151.718
 11
-9.75851
 21
-151.776
  0
LINE
  8
0
 10
-9.75851
 20
-151.776
 11
-9.8632
 21
-151.829
  0
LINE
  8
0
 10
-9.8632
 20
-151.829
 11
-9.97246
 21
-151.878
  0
LINE
  8
0
 10
-9.97246
 20
-151.878
 11
-10.0863
 21
-151.921
  0
LINE
  8
0
 10
-10.0863
 20
-151.921
 11
-10.2047
 21
-151.961
  0
LINE
  8
0
 10
-10.2047
 20
-151.961
 11
-10.3277
 21
-151.995
  0
LINE
  8
0
 10
-10.3277
 20
-151.995
 11
-10.4553
 21
-152.025
  0
LINE
  8
0
 10
-10.4553
 20
-152.025
 11
-10.5874
 21
-152.051
  0
LINE
  8
0
 10
-10.5874
 20
-152.051
 11
-10.7242
 21
-152.072
  0
LINE
  8
0
 10
-10.7242
 20
-152.072
 11
-10.8655
 21
-152.088
  0
LINE
  8
0
 10
-10.8655
 20
-152.088
 11
-11.0114
 21
-152.099
  0
LINE
  8
0
 10
-11.0114
 20
-152.099
 11
-11.1618
 21
-152.106
  0
LINE
  8
0
 10
-11.1618
 20
-152.106
 11
-11.3168
 21
-152.108
  0
LINE
  8
0
 10
-11.3168
 20
-152.108
 11
-11.468
 21
-152.106
  0
LINE
  8
0
 10
-11.2428
 20
-147.61
 11
-11.1605
 21
-147.606
  0
LINE
  8
0
 10
-11.1605
 20
-147.606
 11
-11.0808
 21
-147.6
  0
LINE
  8
0
 10
-11.0808
 20
-147.6
 11
-11.0037
 21
-147.591
  0
LINE
  8
0
 10
-11.0037
 20
-147.591
 11
-10.9291
 21
-147.58
  0
LINE
  8
0
 10
-10.9291
 20
-147.58
 11
-10.8571
 21
-147.567
  0
LINE
  8
0
 10
-10.8571
 20
-147.567
 11
-10.7876
 21
-147.55
  0
LINE
  8
0
 10
-10.7876
 20
-147.55
 11
-10.7207
 21
-147.532
  0
LINE
  8
0
 10
-10.7207
 20
-147.532
 11
-10.6564
 21
-147.511
  0
LINE
  8
0
 10
-10.6564
 20
-147.511
 11
-10.5947
 21
-147.487
  0
LINE
  8
0
 10
-10.5947
 20
-147.487
 11
-10.5355
 21
-147.461
  0
LINE
  8
0
 10
-10.5355
 20
-147.461
 11
-10.4789
 21
-147.433
  0
LINE
  8
0
 10
-10.4789
 20
-147.433
 11
-10.4248
 21
-147.402
  0
LINE
  8
0
 10
-10.4248
 20
-147.402
 11
-10.3733
 21
-147.368
  0
LINE
  8
0
 10
-10.3733
 20
-147.368
 11
-10.3243
 21
-147.332
  0
LINE
  8
0
 10
-10.3243
 20
-147.332
 11
-10.278
 21
-147.294
  0
LINE
  8
0
 10
-10.278
 20
-147.294
 11
-10.2343
 21
-147.253
  0
LINE
  8
0
 10
-10.2343
 20
-147.253
 11
-10.1934
 21
-147.208
  0
LINE
  8
0
 10
-10.1934
 20
-147.208
 11
-10.1554
 21
-147.161
  0
LINE
  8
0
 10
-10.1554
 20
-147.161
 11
-10.1201
 21
-147.111
  0
LINE
  8
0
 10
-10.1201
 20
-147.111
 11
-10.0877
 21
-147.057
  0
LINE
  8
0
 10
-10.0877
 20
-147.057
 11
-10.0581
 21
-147.001
  0
LINE
  8
0
 10
-10.0581
 20
-147.001
 11
-10.0313
 21
-146.941
  0
LINE
  8
0
 10
-10.0313
 20
-146.941
 11
-10.0074
 21
-146.878
  0
LINE
  8
0
 10
-10.0074
 20
-146.878
 11
-9.98624
 21
-146.812
  0
LINE
  8
0
 10
-9.98624
 20
-146.812
 11
-9.96791
 21
-146.743
  0
LINE
  8
0
 10
-9.96791
 20
-146.743
 11
-9.95241
 21
-146.672
  0
LINE
  8
0
 10
-9.95241
 20
-146.672
 11
-9.93973
 21
-146.597
  0
LINE
  8
0
 10
-9.93973
 20
-146.597
 11
-9.92986
 21
-146.518
  0
LINE
  8
0
 10
-9.92986
 20
-146.518
 11
-9.92281
 21
-146.437
  0
LINE
  8
0
 10
-9.92281
 20
-146.437
 11
-9.91858
 21
-146.353
  0
LINE
  8
0
 10
-9.91858
 20
-146.353
 11
-9.91718
 21
-146.266
  0
LINE
  8
0
 10
-9.91718
 20
-146.266
 11
-9.92273
 21
-146.109
  0
LINE
  8
0
 10
-9.92273
 20
-146.109
 11
-9.93939
 21
-145.962
  0
LINE
  8
0
 10
-9.93939
 20
-145.962
 11
-9.96715
 21
-145.825
  0
LINE
  8
0
 10
-9.96715
 20
-145.825
 11
-10.006
 21
-145.699
  0
LINE
  8
0
 10
-10.006
 20
-145.699
 11
-10.056
 21
-145.582
  0
LINE
  8
0
 10
-10.056
 20
-145.582
 11
-10.1171
 21
-145.476
  0
LINE
  8
0
 10
-10.1171
 20
-145.476
 11
-10.1892
 21
-145.379
  0
LINE
  8
0
 10
-10.1892
 20
-145.379
 11
-10.2725
 21
-145.293
  0
LINE
  8
0
 10
-10.2725
 20
-145.293
 11
-10.3669
 21
-145.217
  0
LINE
  8
0
 10
-10.3669
 20
-145.217
 11
-10.4724
 21
-145.152
  0
LINE
  8
0
 10
-10.4724
 20
-145.152
 11
-10.589
 21
-145.096
  0
LINE
  8
0
 10
-10.589
 20
-145.096
 11
-10.7167
 21
-145.05
  0
LINE
  8
0
 10
-10.7167
 20
-145.05
 11
-10.8555
 21
-145.015
  0
LINE
  8
0
 10
-10.8555
 20
-145.015
 11
-11.0054
 21
-144.989
  0
LINE
  8
0
 10
-11.0054
 20
-144.989
 11
-11.1664
 21
-144.974
  0
LINE
  8
0
 10
-11.1664
 20
-144.974
 11
-11.3385
 21
-144.969
  0
LINE
  8
0
 10
-11.3385
 20
-144.969
 11
-11.4234
 21
-144.97
  0
LINE
  8
0
 10
-11.4234
 20
-144.97
 11
-11.5056
 21
-144.974
  0
LINE
  8
0
 10
-11.5056
 20
-144.974
 11
-11.5854
 21
-144.981
  0
LINE
  8
0
 10
-11.5854
 20
-144.981
 11
-11.6625
 21
-144.99
  0
LINE
  8
0
 10
-11.6625
 20
-144.99
 11
-11.7371
 21
-145.001
  0
LINE
  8
0
 10
-11.7371
 20
-145.001
 11
-11.8091
 21
-145.015
  0
LINE
  8
0
 10
-11.8091
 20
-145.015
 11
-11.8786
 21
-145.032
  0
LINE
  8
0
 10
-11.8786
 20
-145.032
 11
-11.9454
 21
-145.051
  0
LINE
  8
0
 10
-11.9454
 20
-145.051
 11
-12.0098
 21
-145.072
  0
LINE
  8
0
 10
-12.0098
 20
-145.072
 11
-12.0715
 21
-145.096
  0
LINE
  8
0
 10
-12.0715
 20
-145.096
 11
-12.1308
 21
-145.123
  0
LINE
  8
0
 10
-12.1308
 20
-145.123
 11
-12.1874
 21
-145.152
  0
LINE
  8
0
 10
-12.1874
 20
-145.152
 11
-12.2415
 21
-145.184
  0
LINE
  8
0
 10
-12.2415
 20
-145.184
 11
-12.293
 21
-145.218
  0
LINE
  8
0
 10
-12.293
 20
-145.218
 11
-12.3419
 21
-145.255
  0
LINE
  8
0
 10
-12.3419
 20
-145.255
 11
-12.3883
 21
-145.295
  0
LINE
  8
0
 10
-12.3883
 20
-145.295
 11
-12.432
 21
-145.337
  0
LINE
  8
0
 10
-12.432
 20
-145.337
 11
-12.4728
 21
-145.381
  0
LINE
  8
0
 10
-12.4728
 20
-145.381
 11
-12.5109
 21
-145.428
  0
LINE
  8
0
 10
-12.5109
 20
-145.428
 11
-12.5461
 21
-145.477
  0
LINE
  8
0
 10
-12.5461
 20
-145.477
 11
-12.5785
 21
-145.529
  0
LINE
  8
0
 10
-12.5785
 20
-145.529
 11
-12.6081
 21
-145.584
  0
LINE
  8
0
 10
-12.6081
 20
-145.584
 11
-12.6349
 21
-145.641
  0
LINE
  8
0
 10
-12.6349
 20
-145.641
 11
-12.6588
 21
-145.7
  0
LINE
  8
0
 10
-12.6588
 20
-145.7
 11
-12.68
 21
-145.762
  0
LINE
  8
0
 10
-12.68
 20
-145.762
 11
-12.6983
 21
-145.827
  0
LINE
  8
0
 10
-12.6983
 20
-145.827
 11
-12.7138
 21
-145.894
  0
LINE
  8
0
 10
-12.7138
 20
-145.894
 11
-12.7265
 21
-145.963
  0
LINE
  8
0
 10
-12.7265
 20
-145.963
 11
-12.7363
 21
-146.035
  0
LINE
  8
0
 10
-12.7363
 20
-146.035
 11
-12.7434
 21
-146.109
  0
LINE
  8
0
 10
-12.7434
 20
-146.109
 11
-12.7476
 21
-146.186
  0
LINE
  8
0
 10
-12.7476
 20
-146.186
 11
-12.749
 21
-146.266
  0
LINE
  8
0
 10
-12.749
 20
-146.266
 11
-12.7476
 21
-146.347
  0
LINE
  8
0
 10
-12.7476
 20
-146.347
 11
-12.7432
 21
-146.425
  0
LINE
  8
0
 10
-12.7432
 20
-146.425
 11
-12.7359
 21
-146.501
  0
LINE
  8
0
 10
-12.7359
 20
-146.501
 11
-12.7258
 21
-146.574
  0
LINE
  8
0
 10
-12.7258
 20
-146.574
 11
-12.7127
 21
-146.646
  0
LINE
  8
0
 10
-12.7127
 20
-146.646
 11
-12.6968
 21
-146.714
  0
LINE
  8
0
 10
-12.6968
 20
-146.714
 11
-12.6779
 21
-146.78
  0
LINE
  8
0
 10
-12.6779
 20
-146.78
 11
-12.6561
 21
-146.844
  0
LINE
  8
0
 10
-12.6561
 20
-146.844
 11
-12.6314
 21
-146.906
  0
LINE
  8
0
 10
-12.6314
 20
-146.906
 11
-12.6039
 21
-146.964
  0
LINE
  8
0
 10
-12.6039
 20
-146.964
 11
-12.5734
 21
-147.021
  0
LINE
  8
0
 10
-12.5734
 20
-147.021
 11
-12.54
 21
-147.075
  0
LINE
  8
0
 10
-12.54
 20
-147.075
 11
-12.5037
 21
-147.127
  0
LINE
  8
0
 10
-12.5037
 20
-147.127
 11
-12.4645
 21
-147.176
  0
LINE
  8
0
 10
-12.4645
 20
-147.176
 11
-12.4224
 21
-147.222
  0
LINE
  8
0
 10
-12.4224
 20
-147.222
 11
-12.3774
 21
-147.267
  0
LINE
  8
0
 10
-12.3774
 20
-147.267
 11
-12.3298
 21
-147.308
  0
LINE
  8
0
 10
-12.3298
 20
-147.308
 11
-12.2797
 21
-147.347
  0
LINE
  8
0
 10
-12.2797
 20
-147.347
 11
-12.2273
 21
-147.384
  0
LINE
  8
0
 10
-12.2273
 20
-147.384
 11
-12.1725
 21
-147.417
  0
LINE
  8
0
 10
-12.1725
 20
-147.417
 11
-12.1152
 21
-147.448
  0
LINE
  8
0
 10
-12.1152
 20
-147.448
 11
-12.0556
 21
-147.477
  0
LINE
  8
0
 10
-12.0556
 20
-147.477
 11
-11.9936
 21
-147.502
  0
LINE
  8
0
 10
-11.9936
 20
-147.502
 11
-11.9292
 21
-147.525
  0
LINE
  8
0
 10
-11.9292
 20
-147.525
 11
-11.8624
 21
-147.545
  0
LINE
  8
0
 10
-11.8624
 20
-147.545
 11
-11.7932
 21
-147.563
  0
LINE
  8
0
 10
-11.7932
 20
-147.563
 11
-11.7216
 21
-147.578
  0
LINE
  8
0
 10
-11.7216
 20
-147.578
 11
-11.6476
 21
-147.59
  0
LINE
  8
0
 10
-11.6476
 20
-147.59
 11
-11.5712
 21
-147.599
  0
LINE
  8
0
 10
-11.5712
 20
-147.599
 11
-11.4924
 21
-147.606
  0
LINE
  8
0
 10
-11.4924
 20
-147.606
 11
-11.4112
 21
-147.61
  0
LINE
  8
0
 10
-11.4112
 20
-147.61
 11
-11.3277
 21
-147.611
  0
LINE
  8
0
 10
-11.3277
 20
-147.611
 11
-11.2428
 21
-147.61
  0
LINE
  8
0
 10
-11.2079
 20
-151.375
 11
-11.113
 21
-151.37
  0
LINE
  8
0
 10
-11.113
 20
-151.37
 11
-11.0212
 21
-151.363
  0
LINE
  8
0
 10
-11.0212
 20
-151.363
 11
-10.9327
 21
-151.352
  0
LINE
  8
0
 10
-10.9327
 20
-151.352
 11
-10.8473
 21
-151.339
  0
LINE
  8
0
 10
-10.8473
 20
-151.339
 11
-10.7651
 21
-151.322
  0
LINE
  8
0
 10
-10.7651
 20
-151.322
 11
-10.6861
 21
-151.303
  0
LINE
  8
0
 10
-10.6861
 20
-151.303
 11
-10.6103
 21
-151.281
  0
LINE
  8
0
 10
-10.6103
 20
-151.281
 11
-10.5376
 21
-151.255
  0
LINE
  8
0
 10
-10.5376
 20
-151.255
 11
-10.4681
 21
-151.227
  0
LINE
  8
0
 10
-10.4681
 20
-151.227
 11
-10.4018
 21
-151.195
  0
LINE
  8
0
 10
-10.4018
 20
-151.195
 11
-10.3387
 21
-151.161
  0
LINE
  8
0
 10
-10.3387
 20
-151.161
 11
-10.2787
 21
-151.124
  0
LINE
  8
0
 10
-10.2787
 20
-151.124
 11
-10.222
 21
-151.083
  0
LINE
  8
0
 10
-10.222
 20
-151.083
 11
-10.1684
 21
-151.04
  0
LINE
  8
0
 10
-10.1684
 20
-151.04
 11
-10.118
 21
-150.994
  0
LINE
  8
0
 10
-10.118
 20
-150.994
 11
-10.0707
 21
-150.944
  0
LINE
  8
0
 10
-10.0707
 20
-150.944
 11
-10.0264
 21
-150.891
  0
LINE
  8
0
 10
-10.0264
 20
-150.891
 11
-9.98521
 21
-150.834
  0
LINE
  8
0
 10
-9.98521
 20
-150.834
 11
-9.94707
 21
-150.774
  0
LINE
  8
0
 10
-9.94707
 20
-150.774
 11
-9.91197
 21
-150.71
  0
LINE
  8
0
 10
-9.91197
 20
-150.71
 11
-9.87993
 21
-150.643
  0
LINE
  8
0
 10
-9.87993
 20
-150.643
 11
-9.85094
 21
-150.572
  0
LINE
  8
0
 10
-9.85094
 20
-150.572
 11
-9.825
 21
-150.498
  0
LINE
  8
0
 10
-9.825
 20
-150.498
 11
-9.80211
 21
-150.42
  0
LINE
  8
0
 10
-9.80211
 20
-150.42
 11
-9.78227
 21
-150.339
  0
LINE
  8
0
 10
-9.78227
 20
-150.339
 11
-9.76549
 21
-150.254
  0
LINE
  8
0
 10
-9.76549
 20
-150.254
 11
-9.75175
 21
-150.165
  0
LINE
  8
0
 10
-9.75175
 20
-150.165
 11
-9.74107
 21
-150.073
  0
LINE
  8
0
 10
-9.74107
 20
-150.073
 11
-9.73344
 21
-149.978
  0
LINE
  8
0
 10
-9.73344
 20
-149.978
 11
-9.72887
 21
-149.878
  0
LINE
  8
0
 10
-9.72887
 20
-149.878
 11
-9.72734
 21
-149.776
  0
LINE
  8
0
 10
-9.72734
 20
-149.776
 11
-9.72899
 21
-149.688
  0
LINE
  8
0
 10
-9.72899
 20
-149.688
 11
-9.73395
 21
-149.604
  0
LINE
  8
0
 10
-9.73395
 20
-149.604
 11
-9.74222
 21
-149.522
  0
LINE
  8
0
 10
-9.74222
 20
-149.522
 11
-9.75378
 21
-149.442
  0
LINE
  8
0
 10
-9.75378
 20
-149.442
 11
-9.76866
 21
-149.366
  0
LINE
  8
0
 10
-9.76866
 20
-149.366
 11
-9.78685
 21
-149.292
  0
LINE
  8
0
 10
-9.78685
 20
-149.292
 11
-9.80833
 21
-149.221
  0
LINE
  8
0
 10
-9.80833
 20
-149.221
 11
-9.83313
 21
-149.153
  0
LINE
  8
0
 10
-9.83313
 20
-149.153
 11
-9.86124
 21
-149.087
  0
LINE
  8
0
 10
-9.86124
 20
-149.087
 11
-9.89265
 21
-149.024
  0
LINE
  8
0
 10
-9.89265
 20
-149.024
 11
-9.92737
 21
-148.964
  0
LINE
  8
0
 10
-9.92737
 20
-148.964
 11
-9.96539
 21
-148.907
  0
LINE
  8
0
 10
-9.96539
 20
-148.907
 11
-10.0067
 21
-148.852
  0
LINE
  8
0
 10
-10.0067
 20
-148.852
 11
-10.0513
 21
-148.8
  0
LINE
  8
0
 10
-10.0513
 20
-148.8
 11
-10.0993
 21
-148.751
  0
LINE
  8
0
 10
-10.0993
 20
-148.751
 11
-10.1505
 21
-148.704
  0
LINE
  8
0
 10
-10.1505
 20
-148.704
 11
-10.2048
 21
-148.661
  0
LINE
  8
0
 10
-10.2048
 20
-148.661
 11
-10.2617
 21
-148.62
  0
LINE
  8
0
 10
-10.2617
 20
-148.62
 11
-10.3212
 21
-148.582
  0
LINE
  8
0
 10
-10.3212
 20
-148.582
 11
-10.3835
 21
-148.546
  0
LINE
  8
0
 10
-10.3835
 20
-148.546
 11
-10.4484
 21
-148.514
  0
LINE
  8
0
 10
-10.4484
 20
-148.514
 11
-10.5159
 21
-148.484
  0
LINE
  8
0
 10
-10.5159
 20
-148.484
 11
-10.5862
 21
-148.458
  0
LINE
  8
0
 10
-10.5862
 20
-148.458
 11
-10.6591
 21
-148.434
  0
LINE
  8
0
 10
-10.6591
 20
-148.434
 11
-10.7347
 21
-148.413
  0
LINE
  8
0
 10
-10.7347
 20
-148.413
 11
-10.8129
 21
-148.394
  0
LINE
  8
0
 10
-10.8129
 20
-148.394
 11
-10.8939
 21
-148.379
  0
LINE
  8
0
 10
-10.8939
 20
-148.379
 11
-10.9775
 21
-148.366
  0
LINE
  8
0
 10
-10.9775
 20
-148.366
 11
-11.0637
 21
-148.356
  0
LINE
  8
0
 10
-11.0637
 20
-148.356
 11
-11.1526
 21
-148.349
  0
LINE
  8
0
 10
-11.1526
 20
-148.349
 11
-11.2443
 21
-148.345
  0
LINE
  8
0
 10
-11.2443
 20
-148.345
 11
-11.3385
 21
-148.344
  0
LINE
  8
0
 10
-11.3385
 20
-148.344
 11
-11.4302
 21
-148.345
  0
LINE
  8
0
 10
-11.4302
 20
-148.345
 11
-11.5193
 21
-148.35
  0
LINE
  8
0
 10
-11.5193
 20
-148.35
 11
-11.6058
 21
-148.357
  0
LINE
  8
0
 10
-11.6058
 20
-148.357
 11
-11.6898
 21
-148.368
  0
LINE
  8
0
 10
-11.6898
 20
-148.368
 11
-11.7713
 21
-148.381
  0
LINE
  8
0
 10
-11.7713
 20
-148.381
 11
-11.8502
 21
-148.398
  0
LINE
  8
0
 10
-11.8502
 20
-148.398
 11
-11.9265
 21
-148.418
  0
LINE
  8
0
 10
-11.9265
 20
-148.418
 11
-12.0004
 21
-148.441
  0
LINE
  8
0
 10
-12.0004
 20
-148.441
 11
-12.0717
 21
-148.466
  0
LINE
  8
0
 10
-12.0717
 20
-148.466
 11
-12.1404
 21
-148.495
  0
LINE
  8
0
 10
-12.1404
 20
-148.495
 11
-12.2066
 21
-148.527
  0
LINE
  8
0
 10
-12.2066
 20
-148.527
 11
-12.2703
 21
-148.562
  0
LINE
  8
0
 10
-12.2703
 20
-148.562
 11
-12.3314
 21
-148.6
  0
LINE
  8
0
 10
-12.3314
 20
-148.6
 11
-12.39
 21
-148.641
  0
LINE
  8
0
 10
-12.39
 20
-148.641
 11
-12.446
 21
-148.684
  0
LINE
  8
0
 10
-12.446
 20
-148.684
 11
-12.4995
 21
-148.731
  0
LINE
  8
0
 10
-12.4995
 20
-148.731
 11
-12.5501
 21
-148.781
  0
LINE
  8
0
 10
-12.5501
 20
-148.781
 11
-12.5974
 21
-148.833
  0
LINE
  8
0
 10
-12.5974
 20
-148.833
 11
-12.6415
 21
-148.887
  0
LINE
  8
0
 10
-12.6415
 20
-148.887
 11
-12.6823
 21
-148.944
  0
LINE
  8
0
 10
-12.6823
 20
-148.944
 11
-12.7198
 21
-149.002
  0
LINE
  8
0
 10
-12.7198
 20
-149.002
 11
-12.7541
 21
-149.063
  0
LINE
  8
0
 10
-12.7541
 20
-149.063
 11
-12.7851
 21
-149.126
  0
LINE
  8
0
 10
-12.7851
 20
-149.126
 11
-12.8128
 21
-149.192
  0
LINE
  8
0
 10
-12.8128
 20
-149.192
 11
-12.8373
 21
-149.26
  0
LINE
  8
0
 10
-12.8373
 20
-149.26
 11
-12.8585
 21
-149.33
  0
LINE
  8
0
 10
-12.8585
 20
-149.33
 11
-12.8765
 21
-149.402
  0
LINE
  8
0
 10
-12.8765
 20
-149.402
 11
-12.8911
 21
-149.477
  0
LINE
  8
0
 10
-12.8911
 20
-149.477
 11
-12.9026
 21
-149.553
  0
LINE
  8
0
 10
-12.9026
 20
-149.553
 11
-12.9107
 21
-149.632
  0
LINE
  8
0
 10
-12.9107
 20
-149.632
 11
-12.9156
 21
-149.714
  0
LINE
  8
0
 10
-12.9156
 20
-149.714
 11
-12.9173
 21
-149.797
  0
LINE
  8
0
 10
-12.9173
 20
-149.797
 11
-12.911
 21
-149.989
  0
LINE
  8
0
 10
-12.911
 20
-149.989
 11
-12.8921
 21
-150.167
  0
LINE
  8
0
 10
-12.8921
 20
-150.167
 11
-12.8606
 21
-150.334
  0
LINE
  8
0
 10
-12.8606
 20
-150.334
 11
-12.8165
 21
-150.488
  0
LINE
  8
0
 10
-12.8165
 20
-150.488
 11
-12.7599
 21
-150.63
  0
LINE
  8
0
 10
-12.7599
 20
-150.63
 11
-12.6907
 21
-150.759
  0
LINE
  8
0
 10
-12.6907
 20
-150.759
 11
-12.6088
 21
-150.877
  0
LINE
  8
0
 10
-12.6088
 20
-150.877
 11
-12.5144
 21
-150.981
  0
LINE
  8
0
 10
-12.5144
 20
-150.981
 11
-12.4074
 21
-151.074
  0
LINE
  8
0
 10
-12.4074
 20
-151.074
 11
-12.2879
 21
-151.154
  0
LINE
  8
0
 10
-12.2879
 20
-151.154
 11
-12.1557
 21
-151.222
  0
LINE
  8
0
 10
-12.1557
 20
-151.222
 11
-12.0109
 21
-151.277
  0
LINE
  8
0
 10
-12.0109
 20
-151.277
 11
-11.8536
 21
-151.321
  0
LINE
  8
0
 10
-11.8536
 20
-151.321
 11
-11.6836
 21
-151.352
  0
LINE
  8
0
 10
-11.6836
 20
-151.352
 11
-11.5011
 21
-151.37
  0
LINE
  8
0
 10
-11.5011
 20
-151.37
 11
-11.306
 21
-151.376
  0
LINE
  8
0
 10
-11.306
 20
-151.376
 11
-11.2079
 21
-151.375
  0
ENDSEC
  0
SECTION
  2
OBJECTS
  0
DICTIONARY
  0
ENDSEC
  0
EOF
