solid OpenSCAD_Model
  facet normal 1 -0 0
    outer loop
      vertex 18.6667 -113.729 22.5124
      vertex 18.6667 -110.25 7.66667
      vertex 18.6667 -110.25 22.5297
    endloop
  endfacet
  facet normal 1 -0 0
    outer loop
      vertex 18.6667 -114.616 22.5049
      vertex 18.6667 -110.25 7.66667
      vertex 18.6667 -113.729 22.5124
    endloop
  endfacet
  facet normal 1 -0 0
    outer loop
      vertex 18.6667 -114.952 22.4907
      vertex 18.6667 -110.25 7.66667
      vertex 18.6667 -114.616 22.5049
    endloop
  endfacet
  facet normal 1 -0 0
    outer loop
      vertex 18.6667 -117.451 22.3847
      vertex 18.6667 -110.25 7.66667
      vertex 18.6667 -114.952 22.4907
    endloop
  endfacet
  facet normal 1 -0 0
    outer loop
      vertex 18.6667 -118.76 22.2839
      vertex 18.6667 -110.25 7.66667
      vertex 18.6667 -117.451 22.3847
    endloop
  endfacet
  facet normal 1 -0 0
    outer loop
      vertex 18.6667 -120.157 22.1756
      vertex 18.6667 -110.25 7.66667
      vertex 18.6667 -118.76 22.2839
    endloop
  endfacet
  facet normal 1 0 0
    outer loop
      vertex 18.6667 -128.625 7.66667
      vertex 18.6667 -120.157 22.1756
      vertex 18.6667 -121.726 21.9923
    endloop
  endfacet
  facet normal 1 0 0
    outer loop
      vertex 18.6667 -128.625 7.66667
      vertex 18.6667 -121.726 21.9923
      vertex 18.6667 -122.213 21.9351
    endloop
  endfacet
  facet normal 1 0 0
    outer loop
      vertex 18.6667 -128.625 7.66667
      vertex 18.6667 -122.213 21.9351
      vertex 18.6667 -123.094 21.8043
    endloop
  endfacet
  facet normal 1 0 0
    outer loop
      vertex 18.6667 -128.625 7.66667
      vertex 18.6667 -123.094 21.8043
      vertex 18.6667 -123.203 21.7881
    endloop
  endfacet
  facet normal 1 0 0
    outer loop
      vertex 18.6667 -128.625 7.66667
      vertex 18.6667 -123.203 21.7881
      vertex 18.6667 -124.285 21.5942
    endloop
  endfacet
  facet normal 1 0 0
    outer loop
      vertex 18.6667 -128.625 7.66667
      vertex 18.6667 -124.285 21.5942
      vertex 18.6667 -124.567 21.5318
    endloop
  endfacet
  facet normal 1 0 0
    outer loop
      vertex 18.6667 -128.625 7.66667
      vertex 18.6667 -124.567 21.5318
      vertex 18.6667 -125.093 21.3899
    endloop
  endfacet
  facet normal 1 0 0
    outer loop
      vertex 18.6667 -128.625 7.66667
      vertex 18.6667 -125.093 21.3899
      vertex 18.6667 -128.625 20.4363
    endloop
  endfacet
  facet normal 1 0 0
    outer loop
      vertex 18.6667 -120.157 22.1756
      vertex 18.6667 -128.625 7.66667
      vertex 18.6667 -110.25 7.66667
    endloop
  endfacet
  facet normal 0 0 -1
    outer loop
      vertex 9.93915 -127.293 7.66667
      vertex 18.6667 -128.625 7.66667
      vertex 10.5528 -128.625 7.66667
    endloop
  endfacet
  facet normal 0 0 -1
    outer loop
      vertex 8.77302 -124.086 7.66667
      vertex 18.6667 -128.625 7.66667
      vertex 9.93915 -127.293 7.66667
    endloop
  endfacet
  facet normal 0 0 -1
    outer loop
      vertex 18.6667 -128.625 7.66667
      vertex 8.77302 -124.086 7.66667
      vertex 18.6667 -110.25 7.66667
    endloop
  endfacet
  facet normal 0 0 -1
    outer loop
      vertex 6.16954 -116.858 7.66667
      vertex 18.6667 -110.25 7.66667
      vertex 8.77302 -124.086 7.66667
    endloop
  endfacet
  facet normal 0 0 -1
    outer loop
      vertex 5.33565 -112.829 7.66667
      vertex 18.6667 -110.25 7.66667
      vertex 6.16954 -116.858 7.66667
    endloop
  endfacet
  facet normal -0 0 -1
    outer loop
      vertex 18.6667 -110.25 7.66667
      vertex 5.33565 -112.829 7.66667
      vertex 4.80212 -110.25 7.66667
    endloop
  endfacet
  facet normal 0 1 -0
    outer loop
      vertex 18.6667 -110.25 7.66667
      vertex 18.1239 -110.25 22.5167
      vertex 18.6667 -110.25 22.5297
    endloop
  endfacet
  facet normal -0 1 0
    outer loop
      vertex 16.9361 -110.25 22.422
      vertex 18.1239 -110.25 22.5167
      vertex 18.6667 -110.25 7.66667
    endloop
  endfacet
  facet normal 0 1 0
    outer loop
      vertex 18.1239 -110.25 22.5167
      vertex 16.9361 -110.25 22.422
      vertex 17.6307 -110.25 22.5049
    endloop
  endfacet
  facet normal -0 1 0
    outer loop
      vertex 15.9793 -110.25 22.244
      vertex 16.9361 -110.25 22.422
      vertex 18.6667 -110.25 7.66667
    endloop
  endfacet
  facet normal 0 1 0
    outer loop
      vertex 16.9361 -110.25 22.422
      vertex 15.9793 -110.25 22.244
      vertex 16.6235 -110.25 22.3847
    endloop
  endfacet
  facet normal -0 1 0
    outer loop
      vertex 15.1874 -110.25 22.017
      vertex 15.9793 -110.25 22.244
      vertex 18.6667 -110.25 7.66667
    endloop
  endfacet
  facet normal 0 1 0
    outer loop
      vertex 15.9793 -110.25 22.244
      vertex 15.1874 -110.25 22.017
      vertex 15.666 -110.25 22.1756
    endloop
  endfacet
  facet normal -0 1 0
    outer loop
      vertex 14.2675 -110.25 21.623
      vertex 15.1874 -110.25 22.017
      vertex 18.6667 -110.25 7.66667
    endloop
  endfacet
  facet normal 0 1 0
    outer loop
      vertex 15.1874 -110.25 22.017
      vertex 14.713 -110.25 21.8393
      vertex 14.9402 -110.25 21.9351
    endloop
  endfacet
  facet normal 0 1 0
    outer loop
      vertex 15.1874 -110.25 22.017
      vertex 14.2675 -110.25 21.623
      vertex 14.713 -110.25 21.8393
    endloop
  endfacet
  facet normal 0 1 0
    outer loop
      vertex 14.713 -110.25 21.8393
      vertex 14.2675 -110.25 21.623
      vertex 14.5917 -110.25 21.7881
    endloop
  endfacet
  facet normal 0 1 0
    outer loop
      vertex 14.2675 -110.25 21.623
      vertex 18.6667 -110.25 7.66667
      vertex 14.0882 -110.25 21.5318
    endloop
  endfacet
  facet normal 0 1 0
    outer loop
      vertex 14.0882 -110.25 21.5318
      vertex 18.6667 -110.25 7.66667
      vertex 12.6275 -110.25 20.624
    endloop
  endfacet
  facet normal 0 1 0
    outer loop
      vertex 12.6275 -110.25 20.624
      vertex 18.6667 -110.25 7.66667
      vertex 11.7068 -110.25 20.0517
    endloop
  endfacet
  facet normal 0 1 0
    outer loop
      vertex 11.7068 -110.25 20.0517
      vertex 18.6667 -110.25 7.66667
      vertex 11.0563 -110.25 19.5564
    endloop
  endfacet
  facet normal -0 1 0
    outer loop
      vertex 10.1855 -110.25 18.8278
      vertex 11.0563 -110.25 19.5564
      vertex 18.6667 -110.25 7.66667
    endloop
  endfacet
  facet normal 0 1 0
    outer loop
      vertex 11.0563 -110.25 19.5564
      vertex 10.1855 -110.25 18.8278
      vertex 10.6032 -110.25 19.2113
    endloop
  endfacet
  facet normal -0 1 0
    outer loop
      vertex 9.58244 -110.25 18.2148
      vertex 10.1855 -110.25 18.8278
      vertex 18.6667 -110.25 7.66667
    endloop
  endfacet
  facet normal 0 1 0
    outer loop
      vertex 10.1855 -110.25 18.8278
      vertex 9.58244 -110.25 18.2148
      vertex 9.87785 -110.25 18.5454
    endloop
  endfacet
  facet normal -0 1 0
    outer loop
      vertex 8.61436 -110.25 16.747
      vertex 9.58244 -110.25 18.2148
      vertex 18.6667 -110.25 7.66667
    endloop
  endfacet
  facet normal 0 1 0
    outer loop
      vertex 9.58244 -110.25 18.2148
      vertex 9.155 -110.25 17.6833
      vertex 9.35635 -110.25 17.9619
    endloop
  endfacet
  facet normal 0 1 0
    outer loop
      vertex 9.58244 -110.25 18.2148
      vertex 8.61436 -110.25 16.747
      vertex 9.155 -110.25 17.6833
    endloop
  endfacet
  facet normal -0 1 0
    outer loop
      vertex 8.89575 -110.25 17.2952
      vertex 9.155 -110.25 17.6833
      vertex 8.70411 -110.25 16.9316
    endloop
  endfacet
  facet normal 0 1 0
    outer loop
      vertex 9.155 -110.25 17.6833
      vertex 8.89575 -110.25 17.2952
      vertex 8.99672 -110.25 17.4643
    endloop
  endfacet
  facet normal 0 1 0
    outer loop
      vertex 8.89575 -110.25 17.2952
      vertex 8.70411 -110.25 16.9316
      vertex 8.81513 -110.25 17.1601
    endloop
  endfacet
  facet normal 0 1 0
    outer loop
      vertex 9.155 -110.25 17.6833
      vertex 8.61436 -110.25 16.747
      vertex 8.70411 -110.25 16.9316
    endloop
  endfacet
  facet normal 0 1 0
    outer loop
      vertex 8.61436 -110.25 16.747
      vertex 18.6667 -110.25 7.66667
      vertex 5.82625 -110.25 10.1062
    endloop
  endfacet
  facet normal 0 1 0
    outer loop
      vertex 5.82625 -110.25 10.1062
      vertex 18.6667 -110.25 7.66667
      vertex 4.80212 -110.25 7.66667
    endloop
  endfacet
  facet normal 0 -1 0
    outer loop
      vertex 18.6667 -128.625 7.66667
      vertex 18.0001 -128.625 20.0517
      vertex 17.4512 -128.625 19.6661
    endloop
  endfacet
  facet normal 0 -1 0
    outer loop
      vertex 18.6667 -128.625 7.66667
      vertex 17.4512 -128.625 19.6661
      vertex 16.808 -128.625 19.2113
    endloop
  endfacet
  facet normal 0 -1 0
    outer loop
      vertex 18.6667 -128.625 7.66667
      vertex 16.808 -128.625 19.2113
      vertex 16.4811 -128.625 18.9343
    endloop
  endfacet
  facet normal 0 -1 0
    outer loop
      vertex 15.8067 -128.625 18.3198
      vertex 16.4811 -128.625 18.9343
      vertex 16.025 -128.625 18.5454
    endloop
  endfacet
  facet normal 0 -1 -0
    outer loop
      vertex 16.4811 -128.625 18.9343
      vertex 15.8067 -128.625 18.3198
      vertex 18.6667 -128.625 7.66667
    endloop
  endfacet
  facet normal 0 -1 0
    outer loop
      vertex 15.3199 -128.625 17.78
      vertex 15.8067 -128.625 18.3198
      vertex 15.4623 -128.625 17.9619
    endloop
  endfacet
  facet normal 0 -1 0
    outer loop
      vertex 14.6619 -128.625 16.747
      vertex 15.8067 -128.625 18.3198
      vertex 15.3199 -128.625 17.78
    endloop
  endfacet
  facet normal 0 -1 0
    outer loop
      vertex 15.005 -128.625 17.3571
      vertex 15.3199 -128.625 17.78
      vertex 15.0743 -128.625 17.4643
    endloop
  endfacet
  facet normal 0 -1 0
    outer loop
      vertex 14.8037 -128.625 17.0182
      vertex 15.3199 -128.625 17.78
      vertex 15.005 -128.625 17.3571
    endloop
  endfacet
  facet normal 0 -1 0
    outer loop
      vertex 14.8037 -128.625 17.0182
      vertex 15.005 -128.625 17.3571
      vertex 14.8784 -128.625 17.1601
    endloop
  endfacet
  facet normal 0 -1 0
    outer loop
      vertex 14.6619 -128.625 16.747
      vertex 15.3199 -128.625 17.78
      vertex 14.8037 -128.625 17.0182
    endloop
  endfacet
  facet normal 0 -1 -0
    outer loop
      vertex 15.8067 -128.625 18.3198
      vertex 14.6619 -128.625 16.747
      vertex 18.6667 -128.625 7.66667
    endloop
  endfacet
  facet normal 0 -1 0
    outer loop
      vertex 18.6667 -128.625 7.66667
      vertex 14.6619 -128.625 16.747
      vertex 13.098 -128.625 13.3066
    endloop
  endfacet
  facet normal 0 -1 0
    outer loop
      vertex 18.6667 -128.625 7.66667
      vertex 13.098 -128.625 13.3066
      vertex 10.5528 -128.625 7.66667
    endloop
  endfacet
  facet normal 0 -1 0
    outer loop
      vertex 18.0001 -128.625 20.0517
      vertex 18.6667 -128.625 7.66667
      vertex 18.6667 -128.625 20.4363
    endloop
  endfacet
  facet normal -0.0239182 -0.00495257 0.999702
    outer loop
      vertex 18.1239 -110.25 22.5167
      vertex 17.6307 -110.25 22.5049
      vertex 18.3666 -113.804 22.5049
    endloop
  endfacet
  facet normal -0.0239427 -0.00497121 0.999701
    outer loop
      vertex 18.1239 -110.25 22.5167
      vertex 18.6667 -113.729 22.5124
      vertex 18.6667 -110.25 22.5297
    endloop
  endfacet
  facet normal -0.0237495 -0.00494106 0.999706
    outer loop
      vertex 18.6667 -113.729 22.5124
      vertex 18.1239 -110.25 22.5167
      vertex 18.3666 -113.804 22.5049
    endloop
  endfacet
  facet normal -0.118446 -0.0245227 0.992658
    outer loop
      vertex 16.9361 -110.25 22.422
      vertex 16.6235 -110.25 22.3847
      vertex 17.409 -114.044 22.3847
    endloop
  endfacet
  facet normal -0.118453 -0.0245272 0.992657
    outer loop
      vertex 17.6307 -110.25 22.5049
      vertex 17.409 -114.044 22.3847
      vertex 18.3666 -113.804 22.5049
    endloop
  endfacet
  facet normal -0.118473 -0.024526 0.992654
    outer loop
      vertex 17.409 -114.044 22.3847
      vertex 17.6307 -110.25 22.5049
      vertex 16.9361 -110.25 22.422
    endloop
  endfacet
  facet normal -0.213089 -0.0441172 0.976036
    outer loop
      vertex 15.9793 -110.25 22.244
      vertex 15.666 -110.25 22.1756
      vertex 16.4987 -114.272 22.1756
    endloop
  endfacet
  facet normal -0.213144 -0.0441288 0.976024
    outer loop
      vertex 16.6235 -110.25 22.3847
      vertex 16.4987 -114.272 22.1756
      vertex 17.409 -114.044 22.3847
    endloop
  endfacet
  facet normal -0.213172 -0.0441276 0.976018
    outer loop
      vertex 16.4987 -114.272 22.1756
      vertex 16.6235 -110.25 22.3847
      vertex 15.9793 -110.25 22.244
    endloop
  endfacet
  facet normal -0.313835 -0.0649664 0.947252
    outer loop
      vertex 15.1874 -110.25 22.017
      vertex 14.9402 -110.25 21.9351
      vertex 15.8086 -114.445 21.9351
    endloop
  endfacet
  facet normal -0.31383 -0.0649742 0.947254
    outer loop
      vertex 15.666 -110.25 22.1756
      vertex 15.8086 -114.445 21.9351
      vertex 16.4987 -114.272 22.1756
    endloop
  endfacet
  facet normal -0.313897 -0.0649752 0.947231
    outer loop
      vertex 15.8086 -114.445 21.9351
      vertex 15.666 -110.25 22.1756
      vertex 15.1874 -110.25 22.017
    endloop
  endfacet
  facet normal -0.387618 -0.0802418 0.918321
    outer loop
      vertex 14.713 -110.25 21.8393
      vertex 14.5917 -110.25 21.7881
      vertex 15.4773 -114.528 21.7881
    endloop
  endfacet
  facet normal -0.387413 -0.0801978 0.918411
    outer loop
      vertex 14.9402 -110.25 21.9351
      vertex 15.4773 -114.528 21.7881
      vertex 15.8086 -114.445 21.9351
    endloop
  endfacet
  facet normal -0.387277 -0.0801827 0.91847
    outer loop
      vertex 15.4773 -114.528 21.7881
      vertex 14.9402 -110.25 21.9351
      vertex 14.713 -110.25 21.8393
    endloop
  endfacet
  facet normal -0.451384 -0.0934379 0.887424
    outer loop
      vertex 14.2675 -110.25 21.623
      vertex 14.0882 -110.25 21.5318
      vertex 14.9986 -114.648 21.5318
    endloop
  endfacet
  facet normal -0.451628 -0.0934927 0.887294
    outer loop
      vertex 14.5917 -110.25 21.7881
      vertex 14.9986 -114.648 21.5318
      vertex 15.4773 -114.528 21.7881
    endloop
  endfacet
  facet normal -0.45181 -0.0935041 0.8872
    outer loop
      vertex 14.9986 -114.648 21.5318
      vertex 14.5917 -110.25 21.7881
      vertex 14.2675 -110.25 21.623
    endloop
  endfacet
  facet normal -0.524792 -0.108637 0.84427
    outer loop
      vertex 12.6275 -110.25 20.624
      vertex 11.7068 -110.25 20.0517
      vertex 12.7344 -115.214 20.0517
    endloop
  endfacet
  facet normal -0.524726 -0.10862 0.844313
    outer loop
      vertex 12.6275 -110.25 20.624
      vertex 14.9986 -114.648 21.5318
      vertex 14.0882 -110.25 21.5318
    endloop
  endfacet
  facet normal -0.524754 -0.108639 0.844293
    outer loop
      vertex 14.9986 -114.648 21.5318
      vertex 12.6275 -110.25 20.624
      vertex 12.7344 -115.214 20.0517
    endloop
  endfacet
  facet normal -0.601202 -0.124427 0.78935
    outer loop
      vertex 11.0563 -110.25 19.5564
      vertex 10.6032 -110.25 19.2113
      vertex 11.685 -115.477 19.2113
    endloop
  endfacet
  facet normal -0.601051 -0.124424 0.789466
    outer loop
      vertex 11.7068 -110.25 20.0517
      vertex 11.685 -115.477 19.2113
      vertex 12.7344 -115.214 20.0517
    endloop
  endfacet
  facet normal -0.601089 -0.124419 0.789438
    outer loop
      vertex 11.685 -115.477 19.2113
      vertex 11.7068 -110.25 20.0517
      vertex 11.0563 -110.25 19.5564
    endloop
  endfacet
  facet normal -0.669702 -0.138597 0.729582
    outer loop
      vertex 10.1855 -110.25 18.8278
      vertex 9.87785 -110.25 18.5454
      vertex 10.9954 -115.65 18.5454
    endloop
  endfacet
  facet normal -0.669719 -0.138608 0.729565
    outer loop
      vertex 10.6032 -110.25 19.2113
      vertex 10.9954 -115.65 18.5454
      vertex 11.685 -115.477 19.2113
    endloop
  endfacet
  facet normal -0.669779 -0.138605 0.729509
    outer loop
      vertex 10.9954 -115.65 18.5454
      vertex 10.6032 -110.25 19.2113
      vertex 10.1855 -110.25 18.8278
    endloop
  endfacet
  facet normal -0.736799 -0.152488 0.658691
    outer loop
      vertex 9.58244 -110.25 18.2148
      vertex 9.35635 -110.25 17.9619
      vertex 10.4996 -115.774 17.9619
    endloop
  endfacet
  facet normal -0.736955 -0.152515 0.658511
    outer loop
      vertex 9.58244 -110.25 18.2148
      vertex 10.9954 -115.65 18.5454
      vertex 9.87785 -110.25 18.5454
    endloop
  endfacet
  facet normal -0.736912 -0.152501 0.658562
    outer loop
      vertex 10.9954 -115.65 18.5454
      vertex 9.58244 -110.25 18.2148
      vertex 10.4996 -115.774 17.9619
    endloop
  endfacet
  facet normal -0.799311 -0.165446 0.577694
    outer loop
      vertex 9.155 -110.25 17.6833
      vertex 8.99672 -110.25 17.4643
      vertex 10.1577 -115.859 17.4643
    endloop
  endfacet
  facet normal -0.79932 -0.165428 0.577685
    outer loop
      vertex 9.155 -110.25 17.6833
      vertex 10.4996 -115.774 17.9619
      vertex 9.35635 -110.25 17.9619
    endloop
  endfacet
  facet normal -0.799418 -0.165459 0.577542
    outer loop
      vertex 10.4996 -115.774 17.9619
      vertex 9.155 -110.25 17.6833
      vertex 10.1577 -115.859 17.4643
    endloop
  endfacet
  facet normal -0.845477 -0.17497 0.504533
    outer loop
      vertex 8.89575 -110.25 17.2952
      vertex 8.81513 -110.25 17.1601
      vertex 9.98501 -115.903 17.1601
    endloop
  endfacet
  facet normal -0.845343 -0.174974 0.504756
    outer loop
      vertex 8.89575 -110.25 17.2952
      vertex 10.1577 -115.859 17.4643
      vertex 8.99672 -110.25 17.4643
    endloop
  endfacet
  facet normal -0.845158 -0.174922 0.505085
    outer loop
      vertex 10.1577 -115.859 17.4643
      vertex 8.89575 -110.25 17.2952
      vertex 9.98501 -115.903 17.1601
    endloop
  endfacet
  facet normal -0.88416 -0.182966 0.429866
    outer loop
      vertex 8.70411 -110.25 16.9316
      vertex 8.61436 -110.25 16.747
      vertex 9.79411 -115.951 16.747
    endloop
  endfacet
  facet normal -0.884266 -0.182998 0.429633
    outer loop
      vertex 8.70411 -110.25 16.9316
      vertex 9.98501 -115.903 17.1601
      vertex 8.81513 -110.25 17.1601
    endloop
  endfacet
  facet normal -0.884168 -0.182967 0.429848
    outer loop
      vertex 9.98501 -115.903 17.1601
      vertex 8.70411 -110.25 16.9316
      vertex 9.79411 -115.951 16.747
    endloop
  endfacet
  facet normal -0.905716 -0.18737 0.380225
    outer loop
      vertex 5.82625 -110.25 10.1062
      vertex 4.80212 -110.25 7.66667
      vertex 5.33565 -112.829 7.66667
    endloop
  endfacet
  facet normal -0.905692 -0.187409 0.380262
    outer loop
      vertex 9.79411 -115.951 16.747
      vertex 5.82625 -110.25 10.1062
      vertex 5.33565 -112.829 7.66667
    endloop
  endfacet
  facet normal -0.905694 -0.187422 0.380252
    outer loop
      vertex 5.82625 -110.25 10.1062
      vertex 9.79411 -115.951 16.747
      vertex 8.61436 -110.25 16.747
    endloop
  endfacet
  facet normal -0.90569 -0.187452 0.380246
    outer loop
      vertex 9.79411 -115.951 16.747
      vertex 5.33565 -112.829 7.66667
      vertex 6.16954 -116.858 7.66667
    endloop
  endfacet
  facet normal -0.0228717 -0.00845295 0.999703
    outer loop
      vertex 18.6667 -113.729 22.5124
      vertex 18.3666 -113.804 22.5049
      vertex 18.6667 -114.616 22.5049
    endloop
  endfacet
  facet normal -0.114042 -0.0420896 0.992584
    outer loop
      vertex 17.409 -114.044 22.3847
      vertex 18.6667 -114.952 22.4907
      vertex 18.3666 -113.804 22.5049
    endloop
  endfacet
  facet normal -0.114052 -0.0421023 0.992582
    outer loop
      vertex 18.6667 -114.952 22.4907
      vertex 17.409 -114.044 22.3847
      vertex 18.6667 -117.451 22.3847
    endloop
  endfacet
  facet normal -0.11351 -0.0419513 0.992651
    outer loop
      vertex 18.6667 -114.616 22.5049
      vertex 18.3666 -113.804 22.5049
      vertex 18.6667 -114.952 22.4907
    endloop
  endfacet
  facet normal -0.205213 -0.0755845 0.975794
    outer loop
      vertex 16.4987 -114.272 22.1756
      vertex 18.6667 -118.76 22.2839
      vertex 17.409 -114.044 22.3847
    endloop
  endfacet
  facet normal -0.205335 -0.0756444 0.975764
    outer loop
      vertex 18.6667 -118.76 22.2839
      vertex 16.4987 -114.272 22.1756
      vertex 18.6667 -120.157 22.1756
    endloop
  endfacet
  facet normal -0.203627 -0.0751694 0.976159
    outer loop
      vertex 18.6667 -117.451 22.3847
      vertex 17.409 -114.044 22.3847
      vertex 18.6667 -118.76 22.2839
    endloop
  endfacet
  facet normal -0.30209 -0.111145 0.946778
    outer loop
      vertex 15.8086 -114.445 21.9351
      vertex 18.6667 -121.726 21.9923
      vertex 16.4987 -114.272 22.1756
    endloop
  endfacet
  facet normal -0.302221 -0.111197 0.94673
    outer loop
      vertex 18.6667 -121.726 21.9923
      vertex 15.8086 -114.445 21.9351
      vertex 18.6667 -122.213 21.9351
    endloop
  endfacet
  facet normal -0.300429 -0.110676 0.947361
    outer loop
      vertex 18.6667 -120.157 22.1756
      vertex 16.4987 -114.272 22.1756
      vertex 18.6667 -121.726 21.9923
    endloop
  endfacet
  facet normal -0.372849 -0.137088 0.917709
    outer loop
      vertex 15.4773 -114.528 21.7881
      vertex 18.6667 -123.094 21.8043
      vertex 15.8086 -114.445 21.9351
    endloop
  endfacet
  facet normal -0.371276 -0.136501 0.918434
    outer loop
      vertex 18.6667 -123.094 21.8043
      vertex 15.4773 -114.528 21.7881
      vertex 18.6667 -123.203 21.7881
    endloop
  endfacet
  facet normal -0.370705 -0.136394 0.918681
    outer loop
      vertex 18.6667 -122.213 21.9351
      vertex 15.8086 -114.445 21.9351
      vertex 18.6667 -123.094 21.8043
    endloop
  endfacet
  facet normal -0.434566 -0.159613 0.886384
    outer loop
      vertex 15.4773 -114.528 21.7881
      vertex 14.9986 -114.648 21.5318
      vertex 18.5529 -124.325 21.5318
    endloop
  endfacet
  facet normal -0.431066 -0.159165 0.888172
    outer loop
      vertex 18.6667 -123.203 21.7881
      vertex 18.5529 -124.325 21.5318
      vertex 18.6667 -124.285 21.5942
    endloop
  endfacet
  facet normal -0.432258 -0.158922 0.887635
    outer loop
      vertex 18.5529 -124.325 21.5318
      vertex 18.6667 -123.203 21.7881
      vertex 15.4773 -114.528 21.7881
    endloop
  endfacet
  facet normal -0.505 -0.184643 0.843138
    outer loop
      vertex 14.9986 -114.648 21.5318
      vertex 12.7344 -115.214 20.0517
      vertex 16.3439 -125.086 20.0517
    endloop
  endfacet
  facet normal -0.50241 -0.184532 0.844708
    outer loop
      vertex 18.5529 -124.325 21.5318
      vertex 14.9986 -114.648 21.5318
      vertex 16.3439 -125.086 20.0517
    endloop
  endfacet
  facet normal -0.578255 -0.211009 0.788097
    outer loop
      vertex 12.7344 -115.214 20.0517
      vertex 11.685 -115.477 19.2113
      vertex 15.3202 -125.439 19.2113
    endloop
  endfacet
  facet normal -0.575892 -0.210563 0.789944
    outer loop
      vertex 16.3439 -125.086 20.0517
      vertex 12.7344 -115.214 20.0517
      vertex 15.3202 -125.439 19.2113
    endloop
  endfacet
  facet normal -0.644113 -0.234737 0.728022
    outer loop
      vertex 11.685 -115.477 19.2113
      vertex 10.9954 -115.65 18.5454
      vertex 14.6474 -125.671 18.5454
    endloop
  endfacet
  facet normal -0.64189 -0.23423 0.730147
    outer loop
      vertex 15.3202 -125.439 19.2113
      vertex 11.685 -115.477 19.2113
      vertex 14.6474 -125.671 18.5454
    endloop
  endfacet
  facet normal -0.708517 -0.257976 0.65685
    outer loop
      vertex 10.9954 -115.65 18.5454
      vertex 10.4996 -115.774 17.9619
      vertex 14.1636 -125.837 17.9619
    endloop
  endfacet
  facet normal -0.706586 -0.257504 0.659112
    outer loop
      vertex 14.6474 -125.671 18.5454
      vertex 10.9954 -115.65 18.5454
      vertex 14.1636 -125.837 17.9619
    endloop
  endfacet
  facet normal -0.768376 -0.279571 0.575706
    outer loop
      vertex 10.4996 -115.774 17.9619
      vertex 10.1577 -115.859 17.4643
      vertex 13.83 -125.952 17.4643
    endloop
  endfacet
  facet normal -0.766527 -0.279097 0.578395
    outer loop
      vertex 14.1636 -125.837 17.9619
      vertex 10.4996 -115.774 17.9619
      vertex 13.83 -125.952 17.4643
    endloop
  endfacet
  facet normal -0.811882 -0.295336 0.503612
    outer loop
      vertex 10.1577 -115.859 17.4643
      vertex 9.98501 -115.903 17.1601
      vertex 13.6616 -126.01 17.1601
    endloop
  endfacet
  facet normal -0.810985 -0.295074 0.505208
    outer loop
      vertex 13.83 -125.952 17.4643
      vertex 10.1577 -115.859 17.4643
      vertex 13.6616 -126.01 17.1601
    endloop
  endfacet
  facet normal -0.849217 -0.308823 0.42832
    outer loop
      vertex 9.98501 -115.903 17.1601
      vertex 9.79411 -115.951 16.747
      vertex 13.4754 -126.074 16.747
    endloop
  endfacet
  facet normal -0.84835 -0.308602 0.430194
    outer loop
      vertex 13.6616 -126.01 17.1601
      vertex 9.98501 -115.903 17.1601
      vertex 13.4754 -126.074 16.747
    endloop
  endfacet
  facet normal -0.870688 -0.313616 0.378876
    outer loop
      vertex 9.79411 -115.951 16.747
      vertex 6.16954 -116.858 7.66667
      vertex 8.77302 -124.086 7.66667
    endloop
  endfacet
  facet normal -0.868972 -0.316007 0.380825
    outer loop
      vertex 8.77302 -124.086 7.66667
      vertex 13.4754 -126.074 16.747
      vertex 9.79411 -115.951 16.747
    endloop
  endfacet
  facet normal -0.868978 -0.315978 0.380834
    outer loop
      vertex 13.4754 -126.074 16.747
      vertex 8.77302 -124.086 7.66667
      vertex 9.93915 -127.293 7.66667
    endloop
  endfacet
  facet normal -0.417485 -0.196322 0.887223
    outer loop
      vertex 18.6667 -124.285 21.5942
      vertex 18.5529 -124.325 21.5318
      vertex 18.6667 -124.567 21.5318
    endloop
  endfacet
  facet normal -0.486573 -0.227927 0.843384
    outer loop
      vertex 16.3439 -125.086 20.0517
      vertex 18.6667 -125.093 21.3899
      vertex 18.5529 -124.325 21.5318
    endloop
  endfacet
  facet normal -0.486616 -0.227713 0.843417
    outer loop
      vertex 18.6667 -125.093 21.3899
      vertex 18.0001 -128.625 20.0517
      vertex 18.6667 -128.625 20.4363
    endloop
  endfacet
  facet normal -0.486597 -0.22772 0.843426
    outer loop
      vertex 18.6667 -125.093 21.3899
      vertex 16.3439 -125.086 20.0517
      vertex 18.0001 -128.625 20.0517
    endloop
  endfacet
  facet normal -0.484522 -0.227845 0.844586
    outer loop
      vertex 18.6667 -124.567 21.5318
      vertex 18.5529 -124.325 21.5318
      vertex 18.6667 -125.093 21.3899
    endloop
  endfacet
  facet normal -0.557437 -0.260311 0.788354
    outer loop
      vertex 16.3439 -125.086 20.0517
      vertex 16.808 -128.625 19.2113
      vertex 17.4512 -128.625 19.6661
    endloop
  endfacet
  facet normal -0.557434 -0.260311 0.788356
    outer loop
      vertex 16.808 -128.625 19.2113
      vertex 16.3439 -125.086 20.0517
      vertex 15.3202 -125.439 19.2113
    endloop
  endfacet
  facet normal -0.555097 -0.259777 0.790179
    outer loop
      vertex 18.0001 -128.625 20.0517
      vertex 16.3439 -125.086 20.0517
      vertex 17.4512 -128.625 19.6661
    endloop
  endfacet
  facet normal -0.621019 -0.289607 0.728329
    outer loop
      vertex 15.3202 -125.439 19.2113
      vertex 16.025 -128.625 18.5454
      vertex 16.4811 -128.625 18.9343
    endloop
  endfacet
  facet normal -0.621006 -0.289607 0.72834
    outer loop
      vertex 16.025 -128.625 18.5454
      vertex 15.3202 -125.439 19.2113
      vertex 14.6474 -125.671 18.5454
    endloop
  endfacet
  facet normal -0.618888 -0.289009 0.730377
    outer loop
      vertex 16.808 -128.625 19.2113
      vertex 15.3202 -125.439 19.2113
      vertex 16.4811 -128.625 18.9343
    endloop
  endfacet
  facet normal -0.683112 -0.318206 0.657345
    outer loop
      vertex 15.8067 -128.625 18.3198
      vertex 14.1636 -125.837 17.9619
      vertex 15.4623 -128.625 17.9619
    endloop
  endfacet
  facet normal -0.683286 -0.318339 0.6571
    outer loop
      vertex 14.1636 -125.837 17.9619
      vertex 15.8067 -128.625 18.3198
      vertex 14.6474 -125.671 18.5454
    endloop
  endfacet
  facet normal -0.68139 -0.317767 0.659342
    outer loop
      vertex 16.025 -128.625 18.5454
      vertex 14.6474 -125.671 18.5454
      vertex 15.8067 -128.625 18.3198
    endloop
  endfacet
  facet normal -0.740861 -0.344876 0.576356
    outer loop
      vertex 15.3199 -128.625 17.78
      vertex 13.83 -125.952 17.4643
      vertex 15.0743 -128.625 17.4643
    endloop
  endfacet
  facet normal -0.740847 -0.344866 0.576379
    outer loop
      vertex 13.83 -125.952 17.4643
      vertex 15.3199 -128.625 17.78
      vertex 14.1636 -125.837 17.9619
    endloop
  endfacet
  facet normal -0.739254 -0.344358 0.578723
    outer loop
      vertex 15.4623 -128.625 17.9619
      vertex 14.1636 -125.837 17.9619
      vertex 15.3199 -128.625 17.78
    endloop
  endfacet
  facet normal -0.78338 -0.364519 0.503431
    outer loop
      vertex 15.005 -128.625 17.3571
      vertex 13.6616 -126.01 17.1601
      vertex 14.8784 -128.625 17.1601
    endloop
  endfacet
  facet normal -0.783477 -0.364584 0.503233
    outer loop
      vertex 13.6616 -126.01 17.1601
      vertex 15.005 -128.625 17.3571
      vertex 13.83 -125.952 17.4643
    endloop
  endfacet
  facet normal -0.782157 -0.3641 0.50563
    outer loop
      vertex 15.0743 -128.625 17.4643
      vertex 13.83 -125.952 17.4643
      vertex 15.005 -128.625 17.3571
    endloop
  endfacet
  facet normal -0.819311 -0.381071 0.428386
    outer loop
      vertex 14.8037 -128.625 17.0182
      vertex 13.4754 -126.074 16.747
      vertex 14.6619 -128.625 16.747
    endloop
  endfacet
  facet normal -0.819328 -0.381084 0.428342
    outer loop
      vertex 13.4754 -126.074 16.747
      vertex 14.8037 -128.625 17.0182
      vertex 13.6616 -126.01 17.1601
    endloop
  endfacet
  facet normal -0.818232 -0.380736 0.430739
    outer loop
      vertex 14.8784 -128.625 17.1601
      vertex 13.6616 -126.01 17.1601
      vertex 14.8037 -128.625 17.0182
    endloop
  endfacet
  facet normal -0.840396 -0.387169 0.379256
    outer loop
      vertex 13.098 -128.625 13.3066
      vertex 9.93915 -127.293 7.66667
      vertex 10.5528 -128.625 7.66667
    endloop
  endfacet
  facet normal -0.840399 -0.387158 0.37926
    outer loop
      vertex 9.93915 -127.293 7.66667
      vertex 13.098 -128.625 13.3066
      vertex 13.4754 -126.074 16.747
    endloop
  endfacet
  facet normal -0.838307 -0.389907 0.381069
    outer loop
      vertex 13.4754 -126.074 16.747
      vertex 13.098 -128.625 13.3066
      vertex 14.6619 -128.625 16.747
    endloop
  endfacet
endsolid OpenSCAD_Model
