solid OpenSCAD_Model
  facet normal 1 0 0
    outer loop
      vertex 37.3333 -36.75 -7.66667
      vertex 37.3333 -38.2181 -17.5511
      vertex 37.3333 -36.75 -17.4694
    endloop
  endfacet
  facet normal 1 0 0
    outer loop
      vertex 37.3333 -36.75 -7.66667
      vertex 37.3333 -40.9772 -17.6228
      vertex 37.3333 -38.2181 -17.5511
    endloop
  endfacet
  facet normal 1 0 0
    outer loop
      vertex 37.3333 -36.75 -7.66667
      vertex 37.3333 -43.519 -17.6829
      vertex 37.3333 -40.9772 -17.6228
    endloop
  endfacet
  facet normal 1 0 0
    outer loop
      vertex 37.3333 -36.75 -7.66667
      vertex 37.3333 -45.9929 -17.6616
      vertex 37.3333 -43.519 -17.6829
    endloop
  endfacet
  facet normal 1 -0 0
    outer loop
      vertex 37.3333 -55.125 -7.66667
      vertex 37.3333 -45.9929 -17.6616
      vertex 37.3333 -36.75 -7.66667
    endloop
  endfacet
  facet normal 1 0 0
    outer loop
      vertex 37.3333 -45.9929 -17.6616
      vertex 37.3333 -55.125 -7.66667
      vertex 37.3333 -46.8538 -17.6524
    endloop
  endfacet
  facet normal 1 0 0
    outer loop
      vertex 37.3333 -46.8538 -17.6524
      vertex 37.3333 -55.125 -7.66667
      vertex 37.3333 -48.2659 -17.5883
    endloop
  endfacet
  facet normal 1 0 0
    outer loop
      vertex 37.3333 -48.2659 -17.5883
      vertex 37.3333 -55.125 -7.66667
      vertex 37.3333 -48.5332 -17.5757
    endloop
  endfacet
  facet normal 1 0 0
    outer loop
      vertex 37.3333 -48.5332 -17.5757
      vertex 37.3333 -55.125 -7.66667
      vertex 37.3333 -49.5381 -17.495
    endloop
  endfacet
  facet normal 1 0 0
    outer loop
      vertex 37.3333 -49.5381 -17.495
      vertex 37.3333 -55.125 -7.66667
      vertex 37.3333 -49.6553 -17.4855
    endloop
  endfacet
  facet normal 1 0 0
    outer loop
      vertex 37.3333 -49.6553 -17.4855
      vertex 37.3333 -55.125 -7.66667
      vertex 37.3333 -50.8755 -17.3251
    endloop
  endfacet
  facet normal 1 0 0
    outer loop
      vertex 37.3333 -50.8755 -17.3251
      vertex 37.3333 -55.125 -7.66667
      vertex 37.3333 -50.9363 -17.3171
    endloop
  endfacet
  facet normal 1 0 0
    outer loop
      vertex 37.3333 -50.9363 -17.3171
      vertex 37.3333 -55.125 -7.66667
      vertex 37.3333 -51.9941 -17.1291
    endloop
  endfacet
  facet normal 1 0 0
    outer loop
      vertex 37.3333 -51.9941 -17.1291
      vertex 37.3333 -55.125 -7.66667
      vertex 37.3333 -54.303 -16.9835
    endloop
  endfacet
  facet normal 1 0 0
    outer loop
      vertex 37.3333 -54.303 -16.9835
      vertex 37.3333 -55.125 -7.66667
      vertex 37.3333 -55.125 -16.931
    endloop
  endfacet
  facet normal -0 0 1
    outer loop
      vertex 18.6667 -36.75 -7.66667
      vertex 37.3333 -55.125 -7.66667
      vertex 37.3333 -36.75 -7.66667
    endloop
  endfacet
  facet normal 0 0 1
    outer loop
      vertex 37.3333 -55.125 -7.66667
      vertex 18.6667 -36.75 -7.66667
      vertex 18.6667 -55.125 -7.66667
    endloop
  endfacet
  facet normal -1 0 0
    outer loop
      vertex 18.6667 -36.9386 -12.5833
      vertex 18.6667 -36.75 -7.66667
      vertex 18.6667 -36.75 -12.4926
    endloop
  endfacet
  facet normal -1 0 0
    outer loop
      vertex 18.6667 -43.3312 -15.2778
      vertex 18.6667 -36.75 -7.66667
      vertex 18.6667 -36.9386 -12.5833
    endloop
  endfacet
  facet normal -1 0 0
    outer loop
      vertex 18.6667 -55.125 -7.66667
      vertex 18.6667 -43.3312 -15.2778
      vertex 18.6667 -44.9032 -15.9273
    endloop
  endfacet
  facet normal -1 0 0
    outer loop
      vertex 18.6667 -55.125 -7.66667
      vertex 18.6667 -44.9032 -15.9273
      vertex 18.6667 -48.2932 -17.1397
    endloop
  endfacet
  facet normal -1 0 0
    outer loop
      vertex 18.6667 -48.3815 -17.1672
      vertex 18.6667 -48.2932 -17.1397
      vertex 18.6667 -48.3048 -17.1438
    endloop
  endfacet
  facet normal -1 -0 0
    outer loop
      vertex 18.6667 -48.2932 -17.1397
      vertex 18.6667 -48.3815 -17.1672
      vertex 18.6667 -55.125 -7.66667
    endloop
  endfacet
  facet normal -1 0 0
    outer loop
      vertex 18.6667 -55.125 -7.66667
      vertex 18.6667 -48.3815 -17.1672
      vertex 18.6667 -52.0176 -17.9367
    endloop
  endfacet
  facet normal -1 0 0
    outer loop
      vertex 18.6667 -55.125 -7.66667
      vertex 18.6667 -52.0176 -17.9367
      vertex 18.6667 -52.7415 -18.0689
    endloop
  endfacet
  facet normal -1 0 0
    outer loop
      vertex 18.6667 -55.125 -7.66667
      vertex 18.6667 -52.7415 -18.0689
      vertex 18.6667 -55.125 -18.4992
    endloop
  endfacet
  facet normal -1 0 0
    outer loop
      vertex 18.6667 -43.3312 -15.2778
      vertex 18.6667 -55.125 -7.66667
      vertex 18.6667 -36.75 -7.66667
    endloop
  endfacet
  facet normal 0 1 -0
    outer loop
      vertex 22.9285 -36.75 -15.7786
      vertex 18.6667 -36.75 -7.66667
      vertex 37.3333 -36.75 -7.66667
    endloop
  endfacet
  facet normal 0 1 0
    outer loop
      vertex 18.6667 -36.75 -7.66667
      vertex 18.7512 -36.75 -12.5719
      vertex 18.6667 -36.75 -12.4926
    endloop
  endfacet
  facet normal 0 1 0
    outer loop
      vertex 18.6667 -36.75 -7.66667
      vertex 20.5889 -36.75 -14.0523
      vertex 18.7512 -36.75 -12.5719
    endloop
  endfacet
  facet normal 0 1 0
    outer loop
      vertex 18.6667 -36.75 -7.66667
      vertex 22.2151 -36.75 -15.3154
      vertex 20.5889 -36.75 -14.0523
    endloop
  endfacet
  facet normal 0 1 0
    outer loop
      vertex 18.6667 -36.75 -7.66667
      vertex 22.9285 -36.75 -15.7786
      vertex 22.2151 -36.75 -15.3154
    endloop
  endfacet
  facet normal 0 1 0
    outer loop
      vertex 37.3333 -36.75 -7.66667
      vertex 23.6327 -36.75 -16.2184
      vertex 22.9285 -36.75 -15.7786
    endloop
  endfacet
  facet normal 0 1 0
    outer loop
      vertex 37.3333 -36.75 -7.66667
      vertex 24.0959 -36.75 -16.4611
      vertex 23.6327 -36.75 -16.2184
    endloop
  endfacet
  facet normal 0 1 -0
    outer loop
      vertex 26.0978 -36.75 -17.201
      vertex 24.0959 -36.75 -16.4611
      vertex 37.3333 -36.75 -7.66667
    endloop
  endfacet
  facet normal 0 1 0
    outer loop
      vertex 24.0959 -36.75 -16.4611
      vertex 24.949 -36.75 -16.8531
      vertex 24.5777 -36.75 -16.7031
    endloop
  endfacet
  facet normal 0 1 0
    outer loop
      vertex 24.0959 -36.75 -16.4611
      vertex 26.0978 -36.75 -17.201
      vertex 24.949 -36.75 -16.8531
    endloop
  endfacet
  facet normal 0 1 0
    outer loop
      vertex 24.949 -36.75 -16.8531
      vertex 25.862 -36.75 -17.1488
      vertex 25.3501 -36.75 -17.0074
    endloop
  endfacet
  facet normal 0 1 0
    outer loop
      vertex 25.3501 -36.75 -17.0074
      vertex 25.862 -36.75 -17.1488
      vertex 25.4936 -36.75 -17.0522
    endloop
  endfacet
  facet normal 0 1 0
    outer loop
      vertex 25.4936 -36.75 -17.0522
      vertex 25.862 -36.75 -17.1488
      vertex 25.6527 -36.75 -17.0992
    endloop
  endfacet
  facet normal 0 1 0
    outer loop
      vertex 24.949 -36.75 -16.8531
      vertex 26.0978 -36.75 -17.201
      vertex 25.862 -36.75 -17.1488
    endloop
  endfacet
  facet normal 0 1 0
    outer loop
      vertex 35.0273 -36.75 -17.704
      vertex 37.3333 -36.75 -7.66667
      vertex 37.3333 -36.75 -17.4694
    endloop
  endfacet
  facet normal 0 1 0
    outer loop
      vertex 33.3515 -36.75 -17.8577
      vertex 37.3333 -36.75 -7.66667
      vertex 35.0273 -36.75 -17.704
    endloop
  endfacet
  facet normal 0 1 0
    outer loop
      vertex 37.3333 -36.75 -7.66667
      vertex 27.8418 -36.75 -17.5008
      vertex 26.0978 -36.75 -17.201
    endloop
  endfacet
  facet normal 0 1 0
    outer loop
      vertex 32.1871 -36.75 -17.894
      vertex 37.3333 -36.75 -7.66667
      vertex 33.3515 -36.75 -17.8577
    endloop
  endfacet
  facet normal 0 1 0
    outer loop
      vertex 31.409 -36.75 -17.9097
      vertex 37.3333 -36.75 -7.66667
      vertex 32.1871 -36.75 -17.894
    endloop
  endfacet
  facet normal 0 1 0
    outer loop
      vertex 37.3333 -36.75 -7.66667
      vertex 29.9419 -36.75 -17.8307
      vertex 27.8418 -36.75 -17.5008
    endloop
  endfacet
  facet normal -0 1 0
    outer loop
      vertex 29.9419 -36.75 -17.8307
      vertex 37.3333 -36.75 -7.66667
      vertex 30.5566 -36.75 -17.8682
    endloop
  endfacet
  facet normal 0 1 0
    outer loop
      vertex 37.3333 -36.75 -7.66667
      vertex 31.409 -36.75 -17.9097
      vertex 30.5566 -36.75 -17.8682
    endloop
  endfacet
  facet normal 0 -1 0
    outer loop
      vertex 28.3228 -55.125 -19.4037
      vertex 37.3333 -55.125 -7.66667
      vertex 18.6667 -55.125 -7.66667
    endloop
  endfacet
  facet normal -0 -1 0
    outer loop
      vertex 33.7573 -55.125 -18.7161
      vertex 37.3333 -55.125 -7.66667
      vertex 32.2285 -55.125 -19
    endloop
  endfacet
  facet normal -0 -1 0
    outer loop
      vertex 35.0919 -55.125 -18.3228
      vertex 37.3333 -55.125 -7.66667
      vertex 34.0206 -55.125 -18.6422
    endloop
  endfacet
  facet normal 0 -1 0
    outer loop
      vertex 37.3333 -55.125 -7.66667
      vertex 35.0919 -55.125 -18.3228
      vertex 36.4044 -55.125 -17.6541
    endloop
  endfacet
  facet normal 0 -1 0
    outer loop
      vertex 36.4044 -55.125 -17.6541
      vertex 35.0919 -55.125 -18.3228
      vertex 36.047 -55.125 -17.8851
    endloop
  endfacet
  facet normal -0 -1 0
    outer loop
      vertex 35.6446 -55.125 -18.0974
      vertex 36.047 -55.125 -17.8851
      vertex 35.0919 -55.125 -18.3228
    endloop
  endfacet
  facet normal 0 -1 0
    outer loop
      vertex 36.047 -55.125 -17.8851
      vertex 35.6446 -55.125 -18.0974
      vertex 35.9595 -55.125 -17.9412
    endloop
  endfacet
  facet normal 0 -1 0
    outer loop
      vertex 35.6446 -55.125 -18.0974
      vertex 35.0919 -55.125 -18.3228
      vertex 35.5657 -55.125 -18.1362
    endloop
  endfacet
  facet normal 0 -1 0
    outer loop
      vertex 19.4552 -55.125 -18.7221
      vertex 18.6667 -55.125 -7.66667
      vertex 18.6667 -55.125 -18.4992
    endloop
  endfacet
  facet normal 0 -1 0
    outer loop
      vertex 18.7896 -55.125 -18.5411
      vertex 18.6667 -55.125 -18.4992
      vertex 18.6781 -55.125 -18.504
    endloop
  endfacet
  facet normal 0 -1 0
    outer loop
      vertex 18.6667 -55.125 -18.4992
      vertex 18.7896 -55.125 -18.5411
      vertex 19.4552 -55.125 -18.7221
    endloop
  endfacet
  facet normal 0 -1 0
    outer loop
      vertex 19.1552 -55.125 -18.6482
      vertex 18.7896 -55.125 -18.5411
      vertex 18.9925 -55.125 -18.6068
    endloop
  endfacet
  facet normal 0 -1 0
    outer loop
      vertex 23.4572 -55.125 -19.4486
      vertex 18.6667 -55.125 -7.66667
      vertex 20.822 -55.125 -18.9775
    endloop
  endfacet
  facet normal 0 -1 0
    outer loop
      vertex 19.4552 -55.125 -18.7221
      vertex 18.7896 -55.125 -18.5411
      vertex 19.1552 -55.125 -18.6482
    endloop
  endfacet
  facet normal 0 -1 0
    outer loop
      vertex 37.3333 -55.125 -7.66667
      vertex 28.3228 -55.125 -19.4037
      vertex 31.7571 -55.125 -19.0846
    endloop
  endfacet
  facet normal 0 -1 0
    outer loop
      vertex 18.6667 -55.125 -7.66667
      vertex 19.4552 -55.125 -18.7221
      vertex 20.822 -55.125 -18.9775
    endloop
  endfacet
  facet normal 0 -1 -0
    outer loop
      vertex 37.3333 -55.125 -7.66667
      vertex 36.4044 -55.125 -17.6541
      vertex 37.3333 -55.125 -16.931
    endloop
  endfacet
  facet normal 0 -1 0
    outer loop
      vertex 37.3333 -55.125 -7.66667
      vertex 33.7573 -55.125 -18.7161
      vertex 34.0206 -55.125 -18.6422
    endloop
  endfacet
  facet normal 0 -1 0
    outer loop
      vertex 35.0919 -55.125 -18.3228
      vertex 34.0206 -55.125 -18.6422
      vertex 34.9688 -55.125 -18.3706
    endloop
  endfacet
  facet normal 0 -1 0
    outer loop
      vertex 37.3333 -55.125 -7.66667
      vertex 31.7571 -55.125 -19.0846
      vertex 32.2285 -55.125 -19
    endloop
  endfacet
  facet normal 0 -1 0
    outer loop
      vertex 18.6667 -55.125 -7.66667
      vertex 23.4572 -55.125 -19.4486
      vertex 23.9343 -55.125 -19.4829
    endloop
  endfacet
  facet normal 0 -1 0
    outer loop
      vertex 24.9876 -55.125 -19.5512
      vertex 18.6667 -55.125 -7.66667
      vertex 23.9343 -55.125 -19.4829
    endloop
  endfacet
  facet normal -0 -1 0
    outer loop
      vertex 27.0168 -55.125 -19.5165
      vertex 18.6667 -55.125 -7.66667
      vertex 25.5914 -55.125 -19.5437
    endloop
  endfacet
  facet normal 0 -1 0
    outer loop
      vertex 18.6667 -55.125 -7.66667
      vertex 27.0168 -55.125 -19.5165
      vertex 28.3228 -55.125 -19.4037
    endloop
  endfacet
  facet normal 0 -1 0
    outer loop
      vertex 18.6667 -55.125 -7.66667
      vertex 24.9876 -55.125 -19.5512
      vertex 25.5914 -55.125 -19.5437
    endloop
  endfacet
  facet normal -0.64576 0.330918 -0.688105
    outer loop
      vertex 18.7512 -36.75 -12.5719
      vertex 18.6667 -36.9386 -12.5833
      vertex 18.6667 -36.75 -12.4926
    endloop
  endfacet
  facet normal -0.583247 0.310182 -0.75074
    outer loop
      vertex 18.6667 -43.3312 -15.2778
      vertex 22.2151 -36.75 -15.3154
      vertex 18.6667 -44.9032 -15.9273
    endloop
  endfacet
  facet normal -0.583172 0.310141 -0.750815
    outer loop
      vertex 22.2151 -36.75 -15.3154
      vertex 18.6667 -43.3312 -15.2778
      vertex 20.5889 -36.75 -14.0523
    endloop
  endfacet
  facet normal -0.596054 0.311871 -0.739902
    outer loop
      vertex 18.6667 -36.9386 -12.5833
      vertex 20.5889 -36.75 -14.0523
      vertex 18.6667 -43.3312 -15.2778
    endloop
  endfacet
  facet normal -0.596066 0.311786 -0.739929
    outer loop
      vertex 20.5889 -36.75 -14.0523
      vertex 18.6667 -36.9386 -12.5833
      vertex 18.7512 -36.75 -12.5719
    endloop
  endfacet
  facet normal -0.514302 0.285794 -0.808588
    outer loop
      vertex 18.6667 -48.2932 -17.1397
      vertex 23.6327 -36.75 -16.2184
      vertex 18.6667 -48.3048 -17.1438
    endloop
  endfacet
  facet normal -0.50799 0.283461 -0.813385
    outer loop
      vertex 23.6327 -36.75 -16.2184
      vertex 18.6667 -48.2932 -17.1397
      vertex 22.9285 -36.75 -15.7786
    endloop
  endfacet
  facet normal -0.521618 0.287309 -0.803348
    outer loop
      vertex 18.6667 -44.9032 -15.9273
      vertex 22.9285 -36.75 -15.7786
      vertex 18.6667 -48.2932 -17.1397
    endloop
  endfacet
  facet normal -0.521608 0.287304 -0.803357
    outer loop
      vertex 22.9285 -36.75 -15.7786
      vertex 18.6667 -44.9032 -15.9273
      vertex 22.2151 -36.75 -15.3154
    endloop
  endfacet
  facet normal -0.433832 0.256469 -0.863721
    outer loop
      vertex 24.5777 -36.75 -16.7031
      vertex 19.5487 -48.5522 -17.6816
      vertex 24.0959 -36.75 -16.4611
    endloop
  endfacet
  facet normal -0.448022 0.261041 -0.855064
    outer loop
      vertex 19.5487 -48.5522 -17.6816
      vertex 23.6327 -36.75 -16.2184
      vertex 24.0959 -36.75 -16.4611
    endloop
  endfacet
  facet normal -0.448187 0.260858 -0.855033
    outer loop
      vertex 18.6667 -48.3048 -17.1438
      vertex 19.5487 -48.5522 -17.6816
      vertex 18.6667 -48.3815 -17.1672
    endloop
  endfacet
  facet normal -0.448113 0.261065 -0.855008
    outer loop
      vertex 19.5487 -48.5522 -17.6816
      vertex 18.6667 -48.3048 -17.1438
      vertex 23.6327 -36.75 -16.2184
    endloop
  endfacet
  facet normal -0.349827 0.225096 -0.909369
    outer loop
      vertex 25.3501 -36.75 -17.0074
      vertex 20.2957 -48.6968 -18.0202
      vertex 24.949 -36.75 -16.8531
    endloop
  endfacet
  facet normal -0.364521 0.23013 -0.902311
    outer loop
      vertex 20.2957 -48.6968 -18.0202
      vertex 24.5777 -36.75 -16.7031
      vertex 24.949 -36.75 -16.8531
    endloop
  endfacet
  facet normal -0.364467 0.230113 -0.902337
    outer loop
      vertex 24.5777 -36.75 -16.7031
      vertex 20.2957 -48.6968 -18.0202
      vertex 19.5487 -48.5522 -17.6816
    endloop
  endfacet
  facet normal -0.277732 0.197436 -0.940151
    outer loop
      vertex 25.6527 -36.75 -17.0992
      vertex 20.5886 -48.7535 -18.124
      vertex 25.4936 -36.75 -17.0522
    endloop
  endfacet
  facet normal -0.291823 0.202712 -0.934745
    outer loop
      vertex 20.5886 -48.7535 -18.124
      vertex 25.3501 -36.75 -17.0074
      vertex 25.4936 -36.75 -17.0522
    endloop
  endfacet
  facet normal -0.291986 0.202771 -0.934681
    outer loop
      vertex 25.3501 -36.75 -17.0074
      vertex 20.5886 -48.7535 -18.124
      vertex 20.2957 -48.6968 -18.0202
    endloop
  endfacet
  facet normal -0.212911 0.172251 -0.961769
    outer loop
      vertex 26.0978 -36.75 -17.201
      vertex 21.0198 -48.8369 -18.2416
      vertex 25.862 -36.75 -17.1488
    endloop
  endfacet
  facet normal -0.226933 0.177491 -0.9576
    outer loop
      vertex 21.0198 -48.8369 -18.2416
      vertex 25.6527 -36.75 -17.0992
      vertex 25.862 -36.75 -17.1488
    endloop
  endfacet
  facet normal -0.226847 0.177461 -0.957626
    outer loop
      vertex 25.6527 -36.75 -17.0992
      vertex 21.0198 -48.8369 -18.2416
      vertex 20.5886 -48.7535 -18.124
    endloop
  endfacet
  facet normal -0.153403 0.151112 -0.976541
    outer loop
      vertex 29.9419 -36.75 -17.8307
      vertex 24.7592 -49.5606 -18.9989
      vertex 27.8418 -36.75 -17.5008
    endloop
  endfacet
  facet normal -0.167394 0.154154 -0.973764
    outer loop
      vertex 24.7592 -49.5606 -18.9989
      vertex 26.0978 -36.75 -17.201
      vertex 27.8418 -36.75 -17.5008
    endloop
  endfacet
  facet normal -0.167373 0.154152 -0.973768
    outer loop
      vertex 26.0978 -36.75 -17.201
      vertex 24.7592 -49.5606 -18.9989
      vertex 21.0198 -48.8369 -18.2416
    endloop
  endfacet
  facet normal -0.0483282 0.11095 -0.99265
    outer loop
      vertex 31.409 -36.75 -17.9097
      vertex 26.1939 -49.8383 -19.1187
      vertex 30.5566 -36.75 -17.8682
    endloop
  endfacet
  facet normal -0.0604889 0.114897 -0.991534
    outer loop
      vertex 26.1939 -49.8383 -19.1187
      vertex 29.9419 -36.75 -17.8307
      vertex 30.5566 -36.75 -17.8682
    endloop
  endfacet
  facet normal -0.0605516 0.114915 -0.991528
    outer loop
      vertex 29.9419 -36.75 -17.8307
      vertex 26.1939 -49.8383 -19.1187
      vertex 24.7592 -49.5606 -18.9989
    endloop
  endfacet
  facet normal 0.0310582 0.080672 -0.996257
    outer loop
      vertex 33.3515 -36.75 -17.8577
      vertex 28.1004 -50.2072 -19.1111
      vertex 32.1871 -36.75 -17.894
    endloop
  endfacet
  facet normal 0.020102 0.0839997 -0.996263
    outer loop
      vertex 28.1004 -50.2072 -19.1111
      vertex 31.409 -36.75 -17.9097
      vertex 32.1871 -36.75 -17.894
    endloop
  endfacet
  facet normal 0.0202195 0.0839708 -0.996263
    outer loop
      vertex 31.409 -36.75 -17.9097
      vertex 28.1004 -50.2072 -19.1111
      vertex 26.1939 -49.8383 -19.1187
    endloop
  endfacet
  facet normal 0.101057 0.0552797 -0.993344
    outer loop
      vertex 37.3333 -38.2181 -17.5511
      vertex 35.0273 -36.75 -17.704
      vertex 37.3333 -36.75 -17.4694
    endloop
  endfacet
  facet normal 0.101053 0.055273 -0.993344
    outer loop
      vertex 35.0273 -36.75 -17.704
      vertex 37.3333 -38.2181 -17.5511
      vertex 32.5735 -51.0729 -18.7506
    endloop
  endfacet
  facet normal 0.0911854 0.0570261 -0.9942
    outer loop
      vertex 32.5735 -51.0729 -18.7506
      vertex 33.3515 -36.75 -17.8577
      vertex 35.0273 -36.75 -17.704
    endloop
  endfacet
  facet normal 0.0911624 0.0570275 -0.994202
    outer loop
      vertex 33.3515 -36.75 -17.8577
      vertex 32.5735 -51.0729 -18.7506
      vertex 28.1004 -50.2072 -19.1111
    endloop
  endfacet
  facet normal 0.186926 0.0232214 -0.982099
    outer loop
      vertex 37.3333 -43.519 -17.6829
      vertex 34.4693 -51.4398 -18.4153
      vertex 37.3333 -40.9772 -17.6228
    endloop
  endfacet
  facet normal 0.178894 0.0255292 -0.983537
    outer loop
      vertex 32.5735 -51.0729 -18.7506
      vertex 37.3333 -40.9772 -17.6228
      vertex 34.4693 -51.4398 -18.4153
    endloop
  endfacet
  facet normal 0.178833 0.0255592 -0.983547
    outer loop
      vertex 37.3333 -40.9772 -17.6228
      vertex 32.5735 -51.0729 -18.7506
      vertex 37.3333 -38.2181 -17.5511
    endloop
  endfacet
  facet normal 0.275324 -0.0102729 -0.961297
    outer loop
      vertex 37.3333 -46.8538 -17.6524
      vertex 35.6204 -51.6626 -18.0916
      vertex 37.3333 -45.9929 -17.6616
    endloop
  endfacet
  facet normal 0.269212 -0.00829386 -0.963045
    outer loop
      vertex 34.4693 -51.4398 -18.4153
      vertex 37.3333 -45.9929 -17.6616
      vertex 35.6204 -51.6626 -18.0916
    endloop
  endfacet
  facet normal 0.269208 -0.00829172 -0.963046
    outer loop
      vertex 37.3333 -45.9929 -17.6616
      vertex 34.4693 -51.4398 -18.4153
      vertex 37.3333 -43.519 -17.6829
    endloop
  endfacet
  facet normal 0.362336 -0.0438862 -0.931014
    outer loop
      vertex 37.3333 -48.5332 -17.5757
      vertex 36.1881 -51.7725 -17.8687
      vertex 37.3333 -48.2659 -17.5883
    endloop
  endfacet
  facet normal 0.358034 -0.0423425 -0.932748
    outer loop
      vertex 35.6204 -51.6626 -18.0916
      vertex 37.3333 -48.2659 -17.5883
      vertex 36.1881 -51.7725 -17.8687
    endloop
  endfacet
  facet normal 0.358031 -0.0423406 -0.932749
    outer loop
      vertex 37.3333 -48.2659 -17.5883
      vertex 35.6204 -51.6626 -18.0916
      vertex 37.3333 -46.8538 -17.6524
    endloop
  endfacet
  facet normal 0.435414 -0.0727323 -0.897287
    outer loop
      vertex 37.3333 -49.6553 -17.4855
      vertex 36.563 -51.845 -17.6818
      vertex 37.3333 -49.5381 -17.495
    endloop
  endfacet
  facet normal 0.433795 -0.0721242 -0.89812
    outer loop
      vertex 36.1881 -51.7725 -17.8687
      vertex 37.3333 -49.5381 -17.495
      vertex 36.563 -51.845 -17.6818
    endloop
  endfacet
  facet normal 0.433796 -0.0721249 -0.89812
    outer loop
      vertex 37.3333 -49.5381 -17.495
      vertex 36.1881 -51.7725 -17.8687
      vertex 37.3333 -48.5332 -17.5757
    endloop
  endfacet
  facet normal 0.529194 -0.110691 -0.84125
    outer loop
      vertex 37.3333 -50.9363 -17.3171
      vertex 36.9868 -51.9271 -17.4047
      vertex 37.3333 -50.8755 -17.3251
    endloop
  endfacet
  facet normal 0.528806 -0.110543 -0.841513
    outer loop
      vertex 36.563 -51.845 -17.6818
      vertex 37.3333 -50.8755 -17.3251
      vertex 36.9868 -51.9271 -17.4047
    endloop
  endfacet
  facet normal 0.528871 -0.110614 -0.841463
    outer loop
      vertex 37.3333 -50.8755 -17.3251
      vertex 36.563 -51.845 -17.6818
      vertex 37.3333 -49.6553 -17.4855
    endloop
  endfacet
  facet normal 0.599629 -0.140037 -0.787931
    outer loop
      vertex 37.3333 -51.9941 -17.1291
      vertex 36.9868 -51.9271 -17.4047
      vertex 37.3333 -50.9363 -17.3171
    endloop
  endfacet
  facet normal -0.468647 0.182898 -0.864244
    outer loop
      vertex 19.5487 -48.5522 -17.6816
      vertex 18.6667 -52.0176 -17.9367
      vertex 18.6667 -48.3815 -17.1672
    endloop
  endfacet
  facet normal -0.380723 0.164292 -0.909977
    outer loop
      vertex 18.6667 -52.7415 -18.0689
      vertex 20.2957 -48.6968 -18.0202
      vertex 18.6781 -55.125 -18.504
    endloop
  endfacet
  facet normal -0.382795 0.164129 -0.909137
    outer loop
      vertex 18.6667 -52.7415 -18.0689
      vertex 18.6781 -55.125 -18.504
      vertex 18.6667 -55.125 -18.4992
    endloop
  endfacet
  facet normal -0.380683 0.164277 -0.909996
    outer loop
      vertex 20.2957 -48.6968 -18.0202
      vertex 18.6667 -52.7415 -18.0689
      vertex 19.5487 -48.5522 -17.6816
    endloop
  endfacet
  facet normal -0.388273 0.165556 -0.906551
    outer loop
      vertex 19.5487 -48.5522 -17.6816
      vertex 18.6667 -52.7415 -18.0689
      vertex 18.6667 -52.0176 -17.9367
    endloop
  endfacet
  facet normal -0.304852 0.147663 -0.940883
    outer loop
      vertex 18.9925 -55.125 -18.6068
      vertex 20.2957 -48.6968 -18.0202
      vertex 20.5886 -48.7535 -18.124
    endloop
  endfacet
  facet normal -0.304682 0.147634 -0.940943
    outer loop
      vertex 20.2957 -48.6968 -18.0202
      vertex 18.9925 -55.125 -18.6068
      vertex 18.7896 -55.125 -18.5411
    endloop
  endfacet
  facet normal -0.312185 0.149172 -0.938237
    outer loop
      vertex 18.7896 -55.125 -18.5411
      vertex 18.6781 -55.125 -18.504
      vertex 20.2957 -48.6968 -18.0202
    endloop
  endfacet
  facet normal -0.236867 0.132483 -0.962467
    outer loop
      vertex 19.4552 -55.125 -18.7221
      vertex 20.5886 -48.7535 -18.124
      vertex 21.0198 -48.8369 -18.2416
    endloop
  endfacet
  facet normal -0.237074 0.132515 -0.962411
    outer loop
      vertex 20.5886 -48.7535 -18.124
      vertex 19.4552 -55.125 -18.7221
      vertex 19.1552 -55.125 -18.6482
    endloop
  endfacet
  facet normal -0.244374 0.13399 -0.960379
    outer loop
      vertex 19.1552 -55.125 -18.6482
      vertex 18.9925 -55.125 -18.6068
      vertex 20.5886 -48.7535 -18.124
    endloop
  endfacet
  facet normal -0.174723 0.119865 -0.977294
    outer loop
      vertex 23.4572 -55.125 -19.4486
      vertex 21.0198 -48.8369 -18.2416
      vertex 24.7592 -49.5606 -18.9989
    endloop
  endfacet
  facet normal -0.174713 0.119869 -0.977296
    outer loop
      vertex 21.0198 -48.8369 -18.2416
      vertex 23.4572 -55.125 -19.4486
      vertex 20.822 -55.125 -18.9775
    endloop
  endfacet
  facet normal -0.182355 0.119945 -0.975889
    outer loop
      vertex 20.822 -55.125 -18.9775
      vertex 19.4552 -55.125 -18.7221
      vertex 21.0198 -48.8369 -18.2416
    endloop
  endfacet
  facet normal -0.0643707 0.095949 -0.993303
    outer loop
      vertex 24.9876 -55.125 -19.5512
      vertex 24.7592 -49.5606 -18.9989
      vertex 26.1939 -49.8383 -19.1187
    endloop
  endfacet
  facet normal -0.0644094 0.0959472 -0.9933
    outer loop
      vertex 24.7592 -49.5606 -18.9989
      vertex 24.9876 -55.125 -19.5512
      vertex 23.9343 -55.125 -19.4829
    endloop
  endfacet
  facet normal -0.07137 0.0969294 -0.992729
    outer loop
      vertex 23.9343 -55.125 -19.4829
      vertex 23.4572 -55.125 -19.4486
      vertex 24.7592 -49.5606 -18.9989
    endloop
  endfacet
  facet normal 0.0190603 0.0779695 -0.996774
    outer loop
      vertex 27.0168 -55.125 -19.5165
      vertex 26.1939 -49.8383 -19.1187
      vertex 28.1004 -50.2072 -19.1111
    endloop
  endfacet
  facet normal 0.0190208 0.0779634 -0.996775
    outer loop
      vertex 26.1939 -49.8383 -19.1187
      vertex 27.0168 -55.125 -19.5165
      vertex 25.5914 -55.125 -19.5437
    endloop
  endfacet
  facet normal 0.0123818 0.0787236 -0.99682
    outer loop
      vertex 25.5914 -55.125 -19.5437
      vertex 24.9876 -55.125 -19.5512
      vertex 26.1939 -49.8383 -19.1187
    endloop
  endfacet
  facet normal 0.0923315 0.0633057 -0.993714
    outer loop
      vertex 28.3228 -55.125 -19.4037
      vertex 32.5735 -51.0729 -18.7506
      vertex 31.7571 -55.125 -19.0846
    endloop
  endfacet
  facet normal 0.092337 0.0632999 -0.993714
    outer loop
      vertex 32.5735 -51.0729 -18.7506
      vertex 28.3228 -55.125 -19.4037
      vertex 28.1004 -50.2072 -19.1111
    endloop
  endfacet
  facet normal 0.0858791 0.0630433 -0.994309
    outer loop
      vertex 28.3228 -55.125 -19.4037
      vertex 27.0168 -55.125 -19.5165
      vertex 28.1004 -50.2072 -19.1111
    endloop
  endfacet
  facet normal 0.182411 0.0449278 -0.982195
    outer loop
      vertex 33.7573 -55.125 -18.7161
      vertex 32.5735 -51.0729 -18.7506
      vertex 34.4693 -51.4398 -18.4153
    endloop
  endfacet
  facet normal 0.182395 0.0449233 -0.982198
    outer loop
      vertex 32.5735 -51.0729 -18.7506
      vertex 33.7573 -55.125 -18.7161
      vertex 32.2285 -55.125 -19
    endloop
  endfacet
  facet normal 0.17646 0.0454937 -0.983256
    outer loop
      vertex 32.2285 -55.125 -19
      vertex 31.7571 -55.125 -19.0846
      vertex 32.5735 -51.0729 -18.7506
    endloop
  endfacet
  facet normal 0.275217 0.0256465 -0.96104
    outer loop
      vertex 34.9688 -55.125 -18.3706
      vertex 34.4693 -51.4398 -18.4153
      vertex 35.6204 -51.6626 -18.0916
    endloop
  endfacet
  facet normal 0.275273 0.0256543 -0.961024
    outer loop
      vertex 34.4693 -51.4398 -18.4153
      vertex 34.9688 -55.125 -18.3706
      vertex 34.0206 -55.125 -18.6422
    endloop
  endfacet
  facet normal 0.270133 0.0263687 -0.962462
    outer loop
      vertex 34.0206 -55.125 -18.6422
      vertex 33.7573 -55.125 -18.7161
      vertex 34.4693 -51.4398 -18.4153
    endloop
  endfacet
  facet normal 0.366507 0.00619446 -0.930395
    outer loop
      vertex 35.5657 -55.125 -18.1362
      vertex 35.6204 -51.6626 -18.0916
      vertex 36.1881 -51.7725 -17.8687
    endloop
  endfacet
  facet normal 0.366435 0.00619595 -0.930423
    outer loop
      vertex 35.6204 -51.6626 -18.0916
      vertex 35.5657 -55.125 -18.1362
      vertex 35.0919 -55.125 -18.3228
    endloop
  endfacet
  facet normal 0.361962 0.0069951 -0.932166
    outer loop
      vertex 35.0919 -55.125 -18.3228
      vertex 34.9688 -55.125 -18.3706
      vertex 35.6204 -51.6626 -18.0916
    endloop
  endfacet
  facet normal 0.444442 -0.0109346 -0.895741
    outer loop
      vertex 35.9595 -55.125 -17.9412
      vertex 36.1881 -51.7725 -17.8687
      vertex 36.563 -51.845 -17.6818
    endloop
  endfacet
  facet normal 0.44434 -0.0109265 -0.895792
    outer loop
      vertex 36.1881 -51.7725 -17.8687
      vertex 35.9595 -55.125 -17.9412
      vertex 35.6446 -55.125 -18.0974
    endloop
  endfacet
  facet normal 0.441266 -0.0103242 -0.897317
    outer loop
      vertex 35.6446 -55.125 -18.0974
      vertex 35.5657 -55.125 -18.1362
      vertex 36.1881 -51.7725 -17.8687
    endloop
  endfacet
  facet normal 0.542416 -0.0333171 -0.839449
    outer loop
      vertex 36.4044 -55.125 -17.6541
      vertex 36.563 -51.845 -17.6818
      vertex 36.9868 -51.9271 -17.4047
    endloop
  endfacet
  facet normal 0.542521 -0.0333216 -0.839381
    outer loop
      vertex 36.563 -51.845 -17.6818
      vertex 36.4044 -55.125 -17.6541
      vertex 36.047 -55.125 -17.8851
    endloop
  endfacet
  facet normal 0.539447 -0.0327138 -0.841384
    outer loop
      vertex 36.047 -55.125 -17.8851
      vertex 35.9595 -55.125 -17.9412
      vertex 36.563 -51.845 -17.6818
    endloop
  endfacet
  facet normal 0.615833 -0.0495853 -0.786315
    outer loop
      vertex 37.3333 -54.303 -16.9835
      vertex 36.9868 -51.9271 -17.4047
      vertex 37.3333 -51.9941 -17.1291
    endloop
  endfacet
  facet normal 0.613491 -0.0503346 -0.788096
    outer loop
      vertex 36.4044 -55.125 -17.6541
      vertex 37.3333 -54.303 -16.9835
      vertex 37.3333 -55.125 -16.931
    endloop
  endfacet
  facet normal 0.613449 -0.0502555 -0.788134
    outer loop
      vertex 37.3333 -54.303 -16.9835
      vertex 36.4044 -55.125 -17.6541
      vertex 36.9868 -51.9271 -17.4047
    endloop
  endfacet
endsolid OpenSCAD_Model
