solid OpenSCAD_Model
  facet normal 0 0 1
    outer loop
      vertex 37.3333 -91.875 -7.66667
      vertex 44.3401 -90.5617 -7.66667
      vertex 44.2095 -83.7901 -7.66667
    endloop
  endfacet
  facet normal 0 0 1
    outer loop
      vertex 37.3333 -91.875 -7.66667
      vertex 44.2095 -83.7901 -7.66667
      vertex 44.1088 -81.8549 -7.66667
    endloop
  endfacet
  facet normal -0 0 1
    outer loop
      vertex 37.3333 -73.5 -7.66667
      vertex 44.1088 -81.8549 -7.66667
      vertex 43.6738 -73.5 -7.66667
    endloop
  endfacet
  facet normal 0 0 1
    outer loop
      vertex 37.3333 -91.875 -7.66667
      vertex 44.1088 -81.8549 -7.66667
      vertex 37.3333 -73.5 -7.66667
    endloop
  endfacet
  facet normal 0 0 1
    outer loop
      vertex 44.3401 -90.5617 -7.66667
      vertex 37.3333 -91.875 -7.66667
      vertex 44.3489 -91.0209 -7.66667
    endloop
  endfacet
  facet normal 0 0 1
    outer loop
      vertex 44.3489 -91.0209 -7.66667
      vertex 37.3333 -91.875 -7.66667
      vertex 44.4455 -91.875 -7.66667
    endloop
  endfacet
  facet normal -1 0 0
    outer loop
      vertex 37.3333 -77.7316 -16.8725
      vertex 37.3333 -73.5 -7.66667
      vertex 37.3333 -73.5 -16.3909
    endloop
  endfacet
  facet normal -1 0 0
    outer loop
      vertex 37.3333 -83.621 -17.5077
      vertex 37.3333 -73.5 -7.66667
      vertex 37.3333 -77.7316 -16.8725
    endloop
  endfacet
  facet normal -1 0 0
    outer loop
      vertex 37.3333 -91.875 -7.66667
      vertex 37.3333 -83.621 -17.5077
      vertex 37.3333 -88.0803 -17.5728
    endloop
  endfacet
  facet normal -1 0 0
    outer loop
      vertex 37.3333 -91.875 -7.66667
      vertex 37.3333 -88.0803 -17.5728
      vertex 37.3333 -91.4874 -17.6203
    endloop
  endfacet
  facet normal -1 0 0
    outer loop
      vertex 37.3333 -91.875 -7.66667
      vertex 37.3333 -91.4874 -17.6203
      vertex 37.3333 -91.875 -17.6545
    endloop
  endfacet
  facet normal -1 0 0
    outer loop
      vertex 37.3333 -83.621 -17.5077
      vertex 37.3333 -91.875 -7.66667
      vertex 37.3333 -73.5 -7.66667
    endloop
  endfacet
  facet normal 0 1 -0
    outer loop
      vertex 43.6595 -73.5 -8.03265
      vertex 37.3333 -73.5 -7.66667
      vertex 43.6738 -73.5 -7.66667
    endloop
  endfacet
  facet normal 0 1 -0
    outer loop
      vertex 43.6479 -73.5 -8.32625
      vertex 37.3333 -73.5 -7.66667
      vertex 43.6595 -73.5 -8.03265
    endloop
  endfacet
  facet normal 0 1 -0
    outer loop
      vertex 43.5846 -73.5 -8.74311
      vertex 37.3333 -73.5 -7.66667
      vertex 43.6479 -73.5 -8.32625
    endloop
  endfacet
  facet normal 0 1 0
    outer loop
      vertex 43.452 -73.5 -9.29048
      vertex 43.5846 -73.5 -8.74311
      vertex 43.5649 -73.5 -8.87177
    endloop
  endfacet
  facet normal 0 1 0
    outer loop
      vertex 43.5846 -73.5 -8.74311
      vertex 43.452 -73.5 -9.29048
      vertex 37.3333 -73.5 -7.66667
    endloop
  endfacet
  facet normal 0 1 -0
    outer loop
      vertex 43.4166 -73.5 -9.42034
      vertex 37.3333 -73.5 -7.66667
      vertex 43.452 -73.5 -9.29048
    endloop
  endfacet
  facet normal 0 1 -0
    outer loop
      vertex 43.258 -73.5 -9.8395
      vertex 37.3333 -73.5 -7.66667
      vertex 43.4166 -73.5 -9.42034
    endloop
  endfacet
  facet normal 0 1 -0
    outer loop
      vertex 43.2079 -73.5 -9.97044
      vertex 37.3333 -73.5 -7.66667
      vertex 43.258 -73.5 -9.8395
    endloop
  endfacet
  facet normal 0 1 -0
    outer loop
      vertex 42.8938 -73.5 -10.5967
      vertex 37.3333 -73.5 -7.66667
      vertex 43.2079 -73.5 -9.97044
    endloop
  endfacet
  facet normal 0 1 -0
    outer loop
      vertex 42.7931 -73.5 -10.7951
      vertex 37.3333 -73.5 -7.66667
      vertex 42.8938 -73.5 -10.5967
    endloop
  endfacet
  facet normal 0 1 -0
    outer loop
      vertex 42.3998 -73.5 -11.4146
      vertex 37.3333 -73.5 -7.66667
      vertex 42.7931 -73.5 -10.7951
    endloop
  endfacet
  facet normal 0 1 -0
    outer loop
      vertex 42.2712 -73.5 -11.6146
      vertex 37.3333 -73.5 -7.66667
      vertex 42.3998 -73.5 -11.4146
    endloop
  endfacet
  facet normal 0 1 -0
    outer loop
      vertex 41.4787 -73.5 -12.6186
      vertex 37.3333 -73.5 -7.66667
      vertex 42.2712 -73.5 -11.6146
    endloop
  endfacet
  facet normal 0 1 -0
    outer loop
      vertex 41.2098 -73.5 -12.9545
      vertex 37.3333 -73.5 -7.66667
      vertex 41.4787 -73.5 -12.6186
    endloop
  endfacet
  facet normal 0 1 -0
    outer loop
      vertex 40.1104 -73.5 -14.0902
      vertex 37.3333 -73.5 -7.66667
      vertex 41.2098 -73.5 -12.9545
    endloop
  endfacet
  facet normal 0 1 -0
    outer loop
      vertex 39.7182 -73.5 -14.4893
      vertex 37.3333 -73.5 -7.66667
      vertex 40.1104 -73.5 -14.0902
    endloop
  endfacet
  facet normal 0 1 0
    outer loop
      vertex 37.3333 -73.5 -7.66667
      vertex 39.7182 -73.5 -14.4893
      vertex 37.3333 -73.5 -16.3909
    endloop
  endfacet
  facet normal 0 -1 0
    outer loop
      vertex 37.3333 -91.875 -7.66667
      vertex 44.4031 -91.875 -8.73092
      vertex 44.4455 -91.875 -7.66667
    endloop
  endfacet
  facet normal 0 -1 0
    outer loop
      vertex 44.3179 -91.875 -9.42042
      vertex 44.4031 -91.875 -8.73092
      vertex 37.3333 -91.875 -7.66667
    endloop
  endfacet
  facet normal 0 -1 0
    outer loop
      vertex 44.4031 -91.875 -8.73092
      vertex 44.3179 -91.875 -9.42042
      vertex 44.3957 -91.875 -8.91763
    endloop
  endfacet
  facet normal 0 -1 0
    outer loop
      vertex 44.1662 -91.875 -10.0077
      vertex 44.3179 -91.875 -9.42042
      vertex 37.3333 -91.875 -7.66667
    endloop
  endfacet
  facet normal 0 -1 0
    outer loop
      vertex 44.3179 -91.875 -9.42042
      vertex 44.1662 -91.875 -10.0077
      vertex 44.3054 -91.875 -9.50142
    endloop
  endfacet
  facet normal 0 -1 0
    outer loop
      vertex 43.9478 -91.875 -10.5969
      vertex 44.1662 -91.875 -10.0077
      vertex 37.3333 -91.875 -7.66667
    endloop
  endfacet
  facet normal 0 -1 0
    outer loop
      vertex 44.1662 -91.875 -10.0077
      vertex 43.9478 -91.875 -10.5969
      vertex 44.1442 -91.875 -10.088
    endloop
  endfacet
  facet normal 0 -1 0
    outer loop
      vertex 37.3333 -91.875 -7.66667
      vertex 43.9174 -91.875 -10.6758
      vertex 43.9478 -91.875 -10.5969
    endloop
  endfacet
  facet normal 0 -1 0
    outer loop
      vertex 37.3333 -91.875 -7.66667
      vertex 43.5249 -91.875 -11.4422
      vertex 43.9174 -91.875 -10.6758
    endloop
  endfacet
  facet normal 0 -1 0
    outer loop
      vertex 37.3333 -91.875 -7.66667
      vertex 43.4668 -91.875 -11.5559
      vertex 43.5249 -91.875 -11.4422
    endloop
  endfacet
  facet normal 0 -1 0
    outer loop
      vertex 37.3333 -91.875 -7.66667
      vertex 42.9694 -91.875 -12.3223
      vertex 43.4668 -91.875 -11.5559
    endloop
  endfacet
  facet normal 0 -1 0
    outer loop
      vertex 37.3333 -91.875 -7.66667
      vertex 42.9001 -91.875 -12.4292
      vertex 42.9694 -91.875 -12.3223
    endloop
  endfacet
  facet normal 0 -1 0
    outer loop
      vertex 37.3333 -91.875 -7.66667
      vertex 41.8752 -91.875 -13.698
      vertex 42.9001 -91.875 -12.4292
    endloop
  endfacet
  facet normal 0 -1 0
    outer loop
      vertex 37.3333 -91.875 -7.66667
      vertex 41.7489 -91.875 -13.8545
      vertex 41.8752 -91.875 -13.698
    endloop
  endfacet
  facet normal 0 -1 0
    outer loop
      vertex 37.3333 -91.875 -7.66667
      vertex 40.2809 -91.875 -15.3338
      vertex 41.7489 -91.875 -13.8545
    endloop
  endfacet
  facet normal 0 -1 0
    outer loop
      vertex 37.3333 -91.875 -7.66667
      vertex 40.1335 -91.875 -15.4825
      vertex 40.2809 -91.875 -15.3338
    endloop
  endfacet
  facet normal -0 -1 0
    outer loop
      vertex 40.1335 -91.875 -15.4825
      vertex 37.3333 -91.875 -7.66667
      vertex 37.3333 -91.875 -17.6545
    endloop
  endfacet
  facet normal 0.620978 0.0886351 -0.778801
    outer loop
      vertex 37.3333 -77.7316 -16.8725
      vertex 39.7182 -73.5 -14.4893
      vertex 39.9263 -83.6848 -15.4825
    endloop
  endfacet
  facet normal 0.620977 0.0886357 -0.778801
    outer loop
      vertex 39.7182 -73.5 -14.4893
      vertex 37.3333 -77.7316 -16.8725
      vertex 37.3333 -73.5 -16.3909
    endloop
  endfacet
  facet normal 0.61462 0.0845878 -0.784275
    outer loop
      vertex 39.9263 -83.6848 -15.4825
      vertex 37.3333 -83.621 -17.5077
      vertex 37.3333 -77.7316 -16.8725
    endloop
  endfacet
  facet normal 0.715987 0.0834906 -0.693103
    outer loop
      vertex 41.5308 -83.7242 -13.8545
      vertex 40.1104 -73.5 -14.0902
      vertex 41.2098 -73.5 -12.9545
    endloop
  endfacet
  facet normal 0.710805 0.0826459 -0.698516
    outer loop
      vertex 41.5308 -83.7242 -13.8545
      vertex 39.7182 -73.5 -14.4893
      vertex 40.1104 -73.5 -14.0902
    endloop
  endfacet
  facet normal 0.710791 0.0826425 -0.698531
    outer loop
      vertex 39.7182 -73.5 -14.4893
      vertex 41.5308 -83.7242 -13.8545
      vertex 39.9263 -83.6848 -15.4825
    endloop
  endfacet
  facet normal 0.782427 0.0798346 -0.617603
    outer loop
      vertex 42.6743 -83.7524 -12.4292
      vertex 41.4787 -73.5 -12.6186
      vertex 42.2712 -73.5 -11.6146
    endloop
  endfacet
  facet normal 0.77821 0.0792433 -0.622985
    outer loop
      vertex 42.6743 -83.7524 -12.4292
      vertex 41.2098 -73.5 -12.9545
      vertex 41.4787 -73.5 -12.6186
    endloop
  endfacet
  facet normal 0.778309 0.0792639 -0.622859
    outer loop
      vertex 41.2098 -73.5 -12.9545
      vertex 42.6743 -83.7524 -12.4292
      vertex 41.5308 -83.7242 -13.8545
    endloop
  endfacet
  facet normal 0.84179 0.0760193 -0.534425
    outer loop
      vertex 43.2372 -83.7662 -11.5559
      vertex 42.3998 -73.5 -11.4146
      vertex 42.7931 -73.5 -10.7951
    endloop
  endfacet
  facet normal 0.838702 0.0758343 -0.539285
    outer loop
      vertex 43.2372 -83.7662 -11.5559
      vertex 42.2712 -73.5 -11.6146
      vertex 42.3998 -73.5 -11.4146
    endloop
  endfacet
  facet normal 0.83865 0.0758289 -0.539367
    outer loop
      vertex 42.2712 -73.5 -11.6146
      vertex 43.2372 -83.7662 -11.5559
      vertex 42.6743 -83.7524 -12.4292
    endloop
  endfacet
  facet normal 0.891548 0.0720696 -0.447155
    outer loop
      vertex 43.6849 -83.7772 -10.6758
      vertex 42.8938 -73.5 -10.5967
      vertex 43.2079 -73.5 -9.97044
    endloop
  endfacet
  facet normal 0.889404 0.0719374 -0.451426
    outer loop
      vertex 43.6849 -83.7772 -10.6758
      vertex 42.7931 -73.5 -10.7951
      vertex 42.8938 -73.5 -10.5967
    endloop
  endfacet
  facet normal 0.889361 0.0719327 -0.451512
    outer loop
      vertex 42.7931 -73.5 -10.7951
      vertex 43.6849 -83.7772 -10.6758
      vertex 43.2372 -83.7662 -11.5559
    endloop
  endfacet
  facet normal 0.933141 0.0677093 -0.353078
    outer loop
      vertex 43.9101 -83.7828 -10.088
      vertex 43.258 -73.5 -9.8395
      vertex 43.4166 -73.5 -9.42034
    endloop
  endfacet
  facet normal 0.931826 0.0677094 -0.356533
    outer loop
      vertex 43.9101 -83.7828 -10.088
      vertex 43.2079 -73.5 -9.97044
      vertex 43.258 -73.5 -9.8395
    endloop
  endfacet
  facet normal 0.931884 0.0677116 -0.356381
    outer loop
      vertex 43.2079 -73.5 -9.97044
      vertex 43.9101 -83.7828 -10.088
      vertex 43.6849 -83.7772 -10.6758
    endloop
  endfacet
  facet normal 0.963584 0.0632458 -0.259819
    outer loop
      vertex 44.0703 -83.7867 -9.50142
      vertex 43.452 -73.5 -9.29048
      vertex 43.5649 -73.5 -8.87177
    endloop
  endfacet
  facet normal 0.962862 0.0632569 -0.262478
    outer loop
      vertex 44.0703 -83.7867 -9.50142
      vertex 43.4166 -73.5 -9.42034
      vertex 43.452 -73.5 -9.29048
    endloop
  endfacet
  facet normal 0.962845 0.0632563 -0.262541
    outer loop
      vertex 43.4166 -73.5 -9.42034
      vertex 44.0703 -83.7867 -9.50142
      vertex 43.9101 -83.7828 -10.088
    endloop
  endfacet
  facet normal 0.987017 0.0577405 -0.149878
    outer loop
      vertex 44.16 -83.7889 -8.91763
      vertex 43.5846 -73.5 -8.74311
      vertex 43.6479 -73.5 -8.32625
    endloop
  endfacet
  facet normal 0.98683 0.0577508 -0.1511
    outer loop
      vertex 44.16 -83.7889 -8.91763
      vertex 43.5649 -73.5 -8.87177
      vertex 43.5846 -73.5 -8.74311
    endloop
  endfacet
  facet normal 0.986784 0.0577495 -0.151403
    outer loop
      vertex 43.5649 -73.5 -8.87177
      vertex 44.16 -83.7889 -8.91763
      vertex 44.0703 -83.7867 -9.50142
    endloop
  endfacet
  facet normal 0.997888 0.0519553 -0.0389906
    outer loop
      vertex 44.1088 -81.8549 -7.66667
      vertex 43.6595 -73.5 -8.03265
      vertex 43.6738 -73.5 -7.66667
    endloop
  endfacet
  facet normal 0.997872 0.0519354 -0.0394255
    outer loop
      vertex 44.1088 -81.8549 -7.66667
      vertex 43.6479 -73.5 -8.32625
      vertex 43.6595 -73.5 -8.03265
    endloop
  endfacet
  facet normal 0.997871 0.0519335 -0.0394484
    outer loop
      vertex 44.1088 -81.8549 -7.66667
      vertex 44.16 -83.7889 -8.91763
      vertex 43.6479 -73.5 -8.32625
    endloop
  endfacet
  facet normal 0.997872 0.0519252 -0.0394356
    outer loop
      vertex 44.16 -83.7889 -8.91763
      vertex 44.1088 -81.8549 -7.66667
      vertex 44.2095 -83.7901 -7.66667
    endloop
  endfacet
  facet normal 0.615676 0.0114964 -0.787916
    outer loop
      vertex 37.3333 -88.0803 -17.5728
      vertex 39.9263 -83.6848 -15.4825
      vertex 40.0686 -91.3055 -15.4825
    endloop
  endfacet
  facet normal 0.615669 0.0115026 -0.787921
    outer loop
      vertex 39.9263 -83.6848 -15.4825
      vertex 37.3333 -88.0803 -17.5728
      vertex 37.3333 -83.621 -17.5077
    endloop
  endfacet
  facet normal 0.615305 0.0109889 -0.788213
    outer loop
      vertex 40.0686 -91.3055 -15.4825
      vertex 37.3333 -91.4874 -17.6203
      vertex 37.3333 -88.0803 -17.5728
    endloop
  endfacet
  facet normal 0.712327 0.0134561 -0.701719
    outer loop
      vertex 41.672 -91.1989 -13.8545
      vertex 39.9263 -83.6848 -15.4825
      vertex 41.5308 -83.7242 -13.8545
    endloop
  endfacet
  facet normal 0.711971 0.0132945 -0.702083
    outer loop
      vertex 40.0686 -91.3055 -15.4825
      vertex 39.9263 -83.6848 -15.4825
      vertex 41.672 -91.1989 -13.8545
    endloop
  endfacet
  facet normal 0.780055 0.0148698 -0.625534
    outer loop
      vertex 42.8148 -91.1229 -12.4292
      vertex 41.5308 -83.7242 -13.8545
      vertex 42.6743 -83.7524 -12.4292
    endloop
  endfacet
  facet normal 0.779717 0.0147292 -0.625959
    outer loop
      vertex 41.672 -91.1989 -13.8545
      vertex 41.5308 -83.7242 -13.8545
      vertex 42.8148 -91.1229 -12.4292
    endloop
  endfacet
  facet normal 0.840531 0.0160888 -0.541524
    outer loop
      vertex 43.3773 -91.0855 -11.5559
      vertex 42.6743 -83.7524 -12.4292
      vertex 43.2372 -83.7662 -11.5559
    endloop
  endfacet
  facet normal 0.840279 0.0160178 -0.541917
    outer loop
      vertex 42.8148 -91.1229 -12.4292
      vertex 42.6743 -83.7524 -12.4292
      vertex 43.3773 -91.0855 -11.5559
    endloop
  endfacet
  facet normal 0.891263 0.0171187 -0.453164
    outer loop
      vertex 43.8247 -91.0557 -10.6758
      vertex 43.2372 -83.7662 -11.5559
      vertex 43.6849 -83.7772 -10.6758
    endloop
  endfacet
  facet normal 0.891066 0.0170561 -0.453552
    outer loop
      vertex 43.3773 -91.0855 -11.5559
      vertex 43.2372 -83.7662 -11.5559
      vertex 43.8247 -91.0557 -10.6758
    endloop
  endfacet
  facet normal 0.933718 0.0179722 -0.357558
    outer loop
      vertex 44.0498 -91.0407 -10.088
      vertex 43.6849 -83.7772 -10.6758
      vertex 43.9101 -83.7828 -10.088
    endloop
  endfacet
  facet normal 0.933562 0.0179312 -0.357968
    outer loop
      vertex 43.8247 -91.0557 -10.6758
      vertex 43.6849 -83.7772 -10.6758
      vertex 44.0498 -91.0407 -10.088
    endloop
  endfacet
  facet normal 0.964535 0.0185892 -0.263299
    outer loop
      vertex 44.2099 -91.0301 -9.50142
      vertex 43.9101 -83.7828 -10.088
      vertex 44.0703 -83.7867 -9.50142
    endloop
  endfacet
  facet normal 0.964461 0.0185639 -0.263573
    outer loop
      vertex 44.0498 -91.0407 -10.088
      vertex 43.9101 -83.7828 -10.088
      vertex 44.2099 -91.0301 -9.50142
    endloop
  endfacet
  facet normal 0.988232 0.0190402 -0.151771
    outer loop
      vertex 44.2994 -91.0241 -8.91763
      vertex 44.0703 -83.7867 -9.50142
      vertex 44.16 -83.7889 -8.91763
    endloop
  endfacet
  facet normal 0.988243 0.0190461 -0.151702
    outer loop
      vertex 44.2099 -91.0301 -9.50142
      vertex 44.0703 -83.7867 -9.50142
      vertex 44.2994 -91.0241 -8.91763
    endloop
  endfacet
  facet normal 0.999033 0.0192678 -0.0395129
    outer loop
      vertex 44.3401 -90.5617 -7.66667
      vertex 44.16 -83.7889 -8.91763
      vertex 44.2095 -83.7901 -7.66667
    endloop
  endfacet
  facet normal 0.999033 0.0191452 -0.0395803
    outer loop
      vertex 44.2994 -91.0241 -8.91763
      vertex 44.3401 -90.5617 -7.66667
      vertex 44.3489 -91.0209 -7.66667
    endloop
  endfacet
  facet normal 0.999029 0.0192482 -0.0396183
    outer loop
      vertex 44.3401 -90.5617 -7.66667
      vertex 44.2994 -91.0241 -8.91763
      vertex 44.16 -83.7889 -8.91763
    endloop
  endfacet
  facet normal 0.611407 0.0696757 -0.788243
    outer loop
      vertex 37.3333 -91.875 -17.6545
      vertex 40.0686 -91.3055 -15.4825
      vertex 40.1335 -91.875 -15.4825
    endloop
  endfacet
  facet normal 0.611429 0.0695503 -0.788237
    outer loop
      vertex 40.0686 -91.3055 -15.4825
      vertex 37.3333 -91.875 -17.6545
      vertex 37.3333 -91.4874 -17.6203
    endloop
  endfacet
  facet normal 0.707511 0.0804727 -0.702106
    outer loop
      vertex 40.2809 -91.875 -15.3338
      vertex 41.672 -91.1989 -13.8545
      vertex 41.7489 -91.875 -13.8545
    endloop
  endfacet
  facet normal 0.707523 0.0804304 -0.702098
    outer loop
      vertex 41.672 -91.1989 -13.8545
      vertex 40.2809 -91.875 -15.3338
      vertex 40.0686 -91.3055 -15.4825
    endloop
  endfacet
  facet normal 0.70789 0.0806708 -0.701701
    outer loop
      vertex 40.1335 -91.875 -15.4825
      vertex 40.0686 -91.3055 -15.4825
      vertex 40.2809 -91.875 -15.3338
    endloop
  endfacet
  facet normal 0.774901 0.087886 -0.625943
    outer loop
      vertex 41.8752 -91.875 -13.698
      vertex 42.8148 -91.1229 -12.4292
      vertex 42.9001 -91.875 -12.4292
    endloop
  endfacet
  facet normal 0.774864 0.087986 -0.625975
    outer loop
      vertex 42.8148 -91.1229 -12.4292
      vertex 41.8752 -91.875 -13.698
      vertex 41.672 -91.1989 -13.8545
    endloop
  endfacet
  facet normal 0.775163 0.0881675 -0.625579
    outer loop
      vertex 41.7489 -91.875 -13.8545
      vertex 41.672 -91.1989 -13.8545
      vertex 41.8752 -91.875 -13.698
    endloop
  endfacet
  facet normal 0.835057 0.0946644 -0.541959
    outer loop
      vertex 42.9694 -91.875 -12.3223
      vertex 43.3773 -91.0855 -11.5559
      vertex 43.4668 -91.875 -11.5559
    endloop
  endfacet
  facet normal 0.835077 0.0946288 -0.541933
    outer loop
      vertex 43.3773 -91.0855 -11.5559
      vertex 42.9694 -91.875 -12.3223
      vertex 42.8148 -91.1229 -12.4292
    endloop
  endfacet
  facet normal 0.835332 0.0947399 -0.54152
    outer loop
      vertex 42.9001 -91.875 -12.4292
      vertex 42.8148 -91.1229 -12.4292
      vertex 42.9694 -91.875 -12.3223
    endloop
  endfacet
  facet normal 0.885586 0.1002 -0.453539
    outer loop
      vertex 43.5249 -91.875 -11.4422
      vertex 43.8247 -91.0557 -10.6758
      vertex 43.9174 -91.875 -10.6758
    endloop
  endfacet
  facet normal 0.885565 0.100238 -0.453572
    outer loop
      vertex 43.8247 -91.0557 -10.6758
      vertex 43.5249 -91.875 -11.4422
      vertex 43.3773 -91.0855 -11.5559
    endloop
  endfacet
  facet normal 0.885974 0.100437 -0.452727
    outer loop
      vertex 43.4668 -91.875 -11.5559
      vertex 43.3773 -91.0855 -11.5559
      vertex 43.5249 -91.875 -11.4422
    endloop
  endfacet
  facet normal 0.927779 0.104977 -0.358058
    outer loop
      vertex 43.9478 -91.875 -10.5969
      vertex 44.0498 -91.0407 -10.088
      vertex 44.1442 -91.875 -10.088
    endloop
  endfacet
  facet normal 0.927812 0.104929 -0.357987
    outer loop
      vertex 44.0498 -91.0407 -10.088
      vertex 43.9478 -91.875 -10.5969
      vertex 43.8247 -91.0557 -10.6758
    endloop
  endfacet
  facet normal 0.927974 0.104996 -0.357547
    outer loop
      vertex 43.9174 -91.875 -10.6758
      vertex 43.8247 -91.0557 -10.6758
      vertex 43.9478 -91.875 -10.5969
    endloop
  endfacet
  facet normal 0.958543 0.108345 -0.263548
    outer loop
      vertex 44.1662 -91.875 -10.0077
      vertex 44.2099 -91.0301 -9.50142
      vertex 44.3054 -91.875 -9.50142
    endloop
  endfacet
  facet normal 0.958532 0.108364 -0.263578
    outer loop
      vertex 44.2099 -91.0301 -9.50142
      vertex 44.1662 -91.875 -10.0077
      vertex 44.0498 -91.0407 -10.088
    endloop
  endfacet
  facet normal 0.958766 0.108483 -0.262676
    outer loop
      vertex 44.1442 -91.875 -10.088
      vertex 44.0498 -91.0407 -10.088
      vertex 44.1662 -91.875 -10.0077
    endloop
  endfacet
  facet normal 0.982116 0.11115 -0.151969
    outer loop
      vertex 44.3179 -91.875 -9.42042
      vertex 44.2994 -91.0241 -8.91763
      vertex 44.3957 -91.875 -8.91763
    endloop
  endfacet
  facet normal 0.982171 0.111002 -0.151716
    outer loop
      vertex 44.2994 -91.0241 -8.91763
      vertex 44.3179 -91.875 -9.42042
      vertex 44.2099 -91.0301 -9.50142
    endloop
  endfacet
  facet normal 0.982192 0.111018 -0.151573
    outer loop
      vertex 44.3054 -91.875 -9.50142
      vertex 44.2099 -91.0301 -9.50142
      vertex 44.3179 -91.875 -9.42042
    endloop
  endfacet
  facet normal 0.992887 0.112297 -0.0395569
    outer loop
      vertex 44.4031 -91.875 -8.73092
      vertex 44.3489 -91.0209 -7.66667
      vertex 44.4455 -91.875 -7.66667
    endloop
  endfacet
  facet normal 0.992884 0.11232 -0.0395753
    outer loop
      vertex 44.3489 -91.0209 -7.66667
      vertex 44.4031 -91.875 -8.73092
      vertex 44.2994 -91.0241 -8.91763
    endloop
  endfacet
  facet normal 0.992887 0.112369 -0.0393517
    outer loop
      vertex 44.3957 -91.875 -8.91763
      vertex 44.2994 -91.0241 -8.91763
      vertex 44.4031 -91.875 -8.73092
    endloop
  endfacet
endsolid OpenSCAD_Model
